<?xml version="1.0"?>
<svg xmlns="http://www.w3.org/2000/svg" xmlns:xlink="http://www.w3.org/1999/xlink" version="1.1" width="720" height="360" viewBox="0 0 720 360">
<!-- Generated by Kreative Vexillo v1.0 -->
<style>
.black{fill:rgb(0,0,0);}
.blue{fill:rgb(0,74,143);}
.yellow{fill:rgb(253,185,51);}
</style>
<defs>
<path id="trident" d="M 0.0 -0.4845 C -0.0325 -0.3959 -0.0656 -0.3036 -0.1365 -0.233 C -0.1145 -0.2402 -0.076 -0.2467 -0.0512 -0.2461 L -0.0512 0.1266 L -0.1565 0.1423 C -0.1602 0.1419 -0.1615 0.136 -0.1615 0.128 C -0.1716 0.0123 -0.199 -0.085 -0.2305 -0.1856 C -0.2327 -0.1994 -0.2726 -0.2519 -0.2419 -0.2426 C -0.2381 -0.2421 -0.197 -0.2254 -0.2035 -0.2334 C -0.2595 -0.2914 -0.3414 -0.3331 -0.4209 -0.3455 C -0.4279 -0.3472 -0.432 -0.3437 -0.4257 -0.3356 C -0.3202 -0.1733 -0.232 0.0184 -0.2327 0.2458 C -0.1917 0.2458 -0.0924 0.2215 -0.0512 0.2215 C -0.0512 0.2215 -0.0512 0.4845 -0.0512 0.4845 L 0.0 0.4845 L 0.0125 -0.25 Z"/>
<linearGradient id="glaze" x1="0%" y1="0%" x2="100%" y2="100%">
<stop offset="0%" stop-color="rgb(255,255,255)" stop-opacity="0.2"/>
<stop offset="49.999%" stop-color="rgb(255,255,255)" stop-opacity="0.0"/>
<stop offset="50.001%" stop-color="rgb(0,0,0)" stop-opacity="0.0"/>
<stop offset="100%" stop-color="rgb(0,0,0)" stop-opacity="0.2"/>
</linearGradient>
</defs>
<g>
<g>
<rect x="0" y="0" width="240" height="360" class="blue"/>
<rect x="240" y="0" width="240" height="360" class="yellow"/>
<rect x="480" y="0" width="240" height="360" class="blue"/>
</g>
<use xlink:href="#trident" transform="translate(360 180) scale(240 240) rotate(0)" class="black"/>
<use xlink:href="#trident" transform="translate(360 180) scale(-240 240) rotate(0)" class="black"/>
</g>
<g>
<rect x="0" y="0" width="720" height="360" fill="url(#glaze)"/>
<path d="M 30 30 L 690 30 L 690 330 L 30 330 Z M 60 60 L 60 300 L 660 300 L 660 60 Z" fill="rgb(255,255,255)" opacity="0.4"/>
<path d="M 0 0 L 720 0 L 720 360 L 0 360 Z M 30 30 L 30 330 L 690 330 L 690 30 Z" fill="rgb(0,0,0)" opacity="0.4"/>
</g>
</svg>
