<?xml version="1.0"?>
<svg xmlns="http://www.w3.org/2000/svg" xmlns:xlink="http://www.w3.org/1999/xlink" version="1.1" width="720" height="360" viewBox="0 0 720 360">
<!-- Generated by Kreative Vexillo v1.0 -->
<style>
.black{fill:rgb(0,0,0);}
.blue{fill:rgb(0,71,187);}
.red{fill:rgb(210,38,48);}
.white{fill:rgb(255,255,255);}
.yellow{fill:rgb(255,205,0);}
</style>
<defs>
<path id="cf" d="M 0.4436 0.1261 C 0.443 0.13340001 0.4196 0.1463 0.3753 0.1463 C 0.3689 0.1463 0.3621 0.146 0.3552 0.1454 C 0.3308 0.1433 0.3074 0.1373 0.2911 0.12900001 C 0.27719998 0.12200001 0.2713 0.114800006 0.2716 0.11100001 C 0.27220002 0.103800006 0.2956 0.09080001 0.3398 0.09080001 C 0.3463 0.09080001 0.353 0.09110001 0.3599 0.09170001 C 0.4133 0.0964 0.4444 0.1166 0.4436 0.1261 Z M -0.3376 0.0908 C -0.3441 0.0908 -0.3509 0.0911 -0.3577 0.0917 C -0.41099998 0.0964 -0.4422 0.11660001 -0.44129997 0.1261 C -0.44069996 0.13340001 -0.41739997 0.1463 -0.37309998 0.1463 C -0.36659998 0.1463 -0.3599 0.1459 -0.353 0.1454 C -0.3286 0.1433 -0.30519998 0.1373 -0.2889 0.12900001 C -0.2751 0.12200001 -0.26909998 0.114800006 -0.2695 0.11100001 C -0.2701 0.1038 -0.2934 0.0908 -0.3376 0.0908 Z M 0.0873 0.0715 H -0.0851 V 0.1254 H 0.0873 V 0.0715 Z M -0.6617 0.3158 C -0.5629 0.3348 -0.3345 0.3529 -2.0003319E-4 0.3529 C 0.33419997 0.3529 0.56319994 0.3348 0.6619 0.3158 C 0.4393 0.2685 0.2182 0.24370001 -2.0003319E-4 0.24380001 C -0.2184 0.2437 -0.4393 0.2685 -0.6617 0.3158 Z M 0.5943 0.1546 C 0.63409996 0.1845 0.68369997 0.22369999 0.7244 0.2568 C 0.73219997 0.215 0.74189997 0.16569999 0.7511 0.1145 C 0.7023 0.1256 0.6364 0.1425 0.5943 0.1546 Z M 0.7056 0.3021 C 0.713 0.3032 0.7191 0.3028 0.72260004 0.3008 C 0.72360003 0.3003 0.72630006 0.2988 0.72700006 0.29389998 C 0.7289001 0.28089997 0.71180004 0.27499998 0.70150006 0.27269998 C 0.46510005 0.21989998 0.23100007 0.19239998 -9.995699E-5 0.19259998 C -0.23109996 0.19249998 -0.46529996 0.21999998 -0.70159996 0.27279997 C -0.71 0.27469996 -0.72959995 0.28059998 -0.72769994 0.29409996 C -0.7272999 0.29689994 -0.7260999 0.30519995 -0.70579994 0.30219996 C -0.7038999 0.30189997 -0.70189995 0.30159995 -0.6998999 0.30119997 C -0.4644999 0.24859998 -0.23069993 0.22119997 -9.9897385E-5 0.22129998 C 0.2305001 0.22109997 0.4643001 0.24849997 0.6999001 0.3011 C 0.7018 0.3014 0.7038 0.3018 0.7056 0.3021 Z M 0.5646 0.1392 C 0.5577 0.1412 0.5509 0.1432 0.5441 0.1453 C 0.5499 0.1496 0.5556 0.1539 0.5614 0.1582 C 0.5988 0.1862 0.6351 0.2148 0.6716 0.2439 C 0.44509998 0.1955 0.22109997 0.17 -2.0003319E-4 0.17019999 C -0.22150004 0.17009999 -0.44560003 0.19559999 -0.6721 0.24409999 C -0.6357 0.21499999 -0.5992 0.1863 -0.5618 0.1584 C -0.5561 0.1541 -0.5503 0.1498 -0.5445 0.1455 C -0.5513 0.1434 -0.5581 0.14150001 -0.5649 0.1394 C -0.60929996 0.12640001 -0.6545 0.114800006 -0.6999 0.103800006 C -0.4625 0.0512 -0.2299 0.0236 -1.0E-4 0.0237 C 0.2296 0.023500001 0.46220002 0.0511 0.6996 0.103599995 C 0.6541 0.1146 0.609 0.1263 0.5646 0.1392 Z M -0.2437 0.1088 C -0.2463 0.078700006 -0.2946 0.060200002 -0.3599 0.066 C -0.4154 0.0709 -0.47 0.093899995 -0.467 0.1284 C -0.4647 0.155 -0.4278 0.1722 -0.37300003 0.1722 C -0.36570004 0.1722 -0.35830003 0.17189999 -0.35070002 0.17119999 C -0.32270002 0.1687 -0.29650003 0.16199999 -0.27710003 0.1521 C -0.2462 0.1363 -0.2429 0.1182 -0.2437 0.1088 Z M 0.1132 0.0456 H -0.1109 V 0.1512 H 0.1132 V 0.0456 Z M 0.4693 0.1283 C 0.4724 0.09379999 0.4177 0.07079999 0.3623 0.0659 C 0.2967 0.0602 0.2486 0.0786 0.2459 0.1087 C 0.2451 0.1181 0.2483 0.1362 0.2795 0.152 C 0.2989 0.1619 0.3251 0.1686 0.35300002 0.17109999 C 0.3607 0.17179999 0.36810002 0.1721 0.37530002 0.1721 C 0.4301 0.1721 0.467 0.155 0.4693 0.1283 Z M -0.5821 0.0064 C -0.6627 -0.074200004 -0.7355 -0.1548 -0.8005 -0.23539999 C -0.7908 -0.1431 -0.77739996 -0.049899995 -0.7611 0.0467 C -0.755 0.0438 -0.7481 0.0412 -0.7396 0.039300002 C -0.687 0.027 -0.6344 0.0162 -0.5821 0.0064 Z M -1.0E-4 -0.0499 C 0.0648 -0.05 0.1298 -0.0476 0.1951 -0.0433 C 0.1512 -0.1118 -0.004 -0.4445 0.0011 -0.4446 C -0.0551 -0.3109 -0.1202 -0.1771 -0.1941 -0.0434 C -0.1292 -0.0476 -0.0646 -0.0499 -1.0E-4 -0.0499 Z M 0.7354 0.0605 C 0.4851 0.0026 0.2408 -0.0276 -1.0E-4 -0.0274 C -0.241 -0.0275 -0.48529997 0.0026999991 -0.73550004 0.060599998 C -0.74460006 0.062699996 -0.76540005 0.0691 -0.76420003 0.0826 C -0.7634 0.091 -0.75320005 0.0931 -0.7353 0.088999994 C -0.4855 0.031199995 -0.2412 0.0010999963 -2.9999018E-4 0.0011999905 C 0.2408 0.001 0.4852 0.0311 0.735 0.0888 C 0.7372 0.0893 0.7393 0.0897 0.7413 0.089999996 C 0.7492 0.091199994 0.75549996 0.0909 0.75909996 0.089099996 C 0.75999993 0.088599995 0.7628 0.0871 0.76329994 0.08229999 V 0.08229999 C 0.7646 0.0694 0.7463 0.0631 0.7354 0.0605 Z M -0.5791 0.0058 C -0.4533 -0.0177 -0.32900003 -0.0339 -0.20580003 -0.0425 C -0.29200003 -0.1529 -0.36770004 -0.2633 -0.43280002 -0.3737 C -0.478 -0.2472 -0.5268 -0.1207 -0.5791 0.0058 Z M 0.2106 -0.0421 C 0.33200002 -0.0335 0.45450002 -0.017500002 0.5784 0.005599998 C 0.5274 -0.12240001 0.47980002 -0.2504 0.43550003 -0.3784 C 0.3712 -0.2663 0.2963 -0.1542 0.2106 -0.0421 Z M 0.5858 0.007 C 0.6368 0.016600002 0.6881 0.0271 0.7396 0.0391 C 0.7489 0.0413 0.7566 0.0442 0.7631 0.0476 C 0.7892 -0.100099996 0.8044 -0.2419 0.805 -0.2417 C 0.74 -0.1589 0.667 -0.076 0.5858 0.007 Z M -0.7228 0.2547 C -0.6815 0.2211 -0.63710004 0.1868 -0.59470004 0.1548 C -0.63710004 0.1426 -0.70070004 0.1266 -0.7490001 0.1157 C -0.7408 0.1609 -0.7321 0.207 -0.7228 0.2547 Z"/>
<path id="cs" d="M 0.8331 -0.3251 C 0.763 -0.23020001 0.68230003 -0.13530001 0.5909 -0.0404 C 0.5365 -0.1704 0.486 -0.3003 0.4392 -0.4303 C 0.3725 -0.3139 0.2939 -0.1975 0.2033 -0.0811 C 0.1262 -0.2212 0.0588 -0.3612 0.0011 -0.5013 C -0.0566 -0.3613 -0.1241 -0.2212 -0.2013 -0.0812 C -0.2917 -0.1976 -0.3703 -0.314 -0.43699998 -0.4305 C -0.48379996 -0.3005 -0.5344 -0.17050001 -0.5887 -0.040500015 C -0.6804 -0.13460001 -0.7615 -0.22870001 -0.8321 -0.32270002 C -0.8339 -0.3228 -0.8082 -0.07060003 -0.7879 0.046499968 C -0.7869 0.052999966 -0.7859 0.059499968 -0.78489995 0.06599997 C -0.7893999 0.07299997 -0.79099995 0.08029997 -0.79029995 0.086899966 C -0.78959996 0.09399997 -0.78569996 0.10109997 -0.77839994 0.106199965 C -0.7692999 0.16119996 -0.75929993 0.21519996 -0.74899995 0.26589996 C -0.7484 0.26909995 -0.7477 0.27219996 -0.74709994 0.27539995 C -0.75209993 0.28289995 -0.75389993 0.29079995 -0.7527999 0.29809996 C -0.75079995 0.31109998 -0.7397999 0.32429996 -0.7156999 0.32489997 C -0.5952999 0.37489998 -0.0672999 0.37659997 -9.9897385E-5 0.37659997 C 0.0673001 0.37659997 0.5979001 0.37489995 0.7165001 0.32449996 C 0.7239001 0.32409996 0.7309001 0.32289997 0.7364001 0.31999996 C 0.74520016 0.31529996 0.7506001 0.30759996 0.75200015 0.29779997 C 0.75300014 0.29169998 0.7518002 0.28509998 0.74850017 0.27859998 C 0.74940014 0.27439997 0.75020015 0.27029997 0.7511002 0.26619998 C 0.76170015 0.21439998 0.7719002 0.15909997 0.78110015 0.10289998 C 0.7856001 0.098599985 0.7888002 0.09339999 0.7895002 0.08679998 C 0.79010016 0.08149998 0.78900015 0.07579998 0.7864002 0.07009998 C 0.7877002 0.06209998 0.7889002 0.05419998 0.7901002 0.046199977 C 0.8105 -0.0708 0.8348 -0.3252 0.8331 -0.3251 Z"/>
<path id="sf" d="M -0.0201 -0.3391 C -0.0134 -0.5483 -0.0067 -0.7414 0.0 -0.9509 C 0.0067 -0.7415 0.0134 -0.54850006 0.0201 -0.33930004 C 0.013699999 -0.34010005 0.0072999997 -0.34060004 8.999985E-4 -0.34060004 C -0.0062 -0.3406 -0.0131 -0.3401 -0.0201 -0.3391 Z M -0.0605 -0.7212 C -0.0646 -0.6608 -0.071 -0.65099996 -0.0698 -0.55359995 C -0.069 -0.48159996 -0.060399998 -0.48039997 -0.059399996 -0.39109996 C -0.059099995 -0.36409995 -0.060499996 -0.34329996 -0.061399996 -0.32739997 C -0.049799997 -0.33229998 -0.037999995 -0.33579996 -0.026199996 -0.33799997 C -0.024699997 -0.40639997 -0.027399996 -0.42969996 -0.038399994 -0.5024 C -0.044999994 -0.5462 -0.050799996 -0.5736 -0.045399994 -0.68719995 C -0.035999995 -0.88539994 -0.0774 -0.94839996 -0.0774 -0.94839996 C -0.0595 -0.8467 -0.0547 -0.8071 -0.0605 -0.7212 Z M -0.1704 -0.4919 C -0.1645 -0.4226 -0.1546 -0.4207 -0.1468 -0.33499998 C -0.1443 -0.30729997 -0.1431 -0.28599998 -0.1427 -0.2697 C -0.1324 -0.2802 -0.1219 -0.28959998 -0.11130001 -0.2978 C -0.11500001 -0.373 -0.11800001 -0.39380002 -0.135 -0.45859998 C -0.1448 -0.496 -0.1525 -0.51809996 -0.1561 -0.63189995 C -0.1623 -0.83049995 -0.2073 -0.85889995 -0.2073 -0.85889995 C -0.18200001 -0.775 -0.17430001 -0.74029994 -0.1733 -0.6532 C -0.1726 -0.5918 -0.177 -0.5682 -0.1704 -0.4919 Z M 0.0615 -0.3282 C 0.0606 -0.34390002 0.0592 -0.36450002 0.0595 -0.39110002 C 0.0604 -0.48040003 0.069 -0.48160002 0.0699 -0.5536 C 0.070999995 -0.651 0.0647 -0.6608 0.060599998 -0.7212 C 0.054799996 -0.8071 0.059499998 -0.84669995 0.0775 -0.9485 C 0.0775 -0.9485 0.0361 -0.88549995 0.0455 -0.68729997 C 0.050899997 -0.57369995 0.0451 -0.54629993 0.0385 -0.50249994 C 0.0275 -0.42989993 0.024799999 -0.40659994 0.0263 -0.33839995 C 0.0381 -0.3364 0.0498 -0.333 0.0615 -0.3282 Z M -0.0677 -0.3248 C -0.0888 -0.5248 -0.10789999 -0.6983 -0.129 -0.89750004 C -0.12049999 -0.6905 -0.11389999 -0.5094 -0.1055 -0.30230004 C -0.093 -0.3114 -0.0804 -0.3189 -0.0677 -0.3248 Z M 0.1862 -0.2198 C 0.20979999 -0.4125 0.22889999 -0.5767 0.25259998 -0.7668 C 0.2168 -0.5917 0.1857 -0.4419 0.1501 -0.2639 C 0.1624 -0.2508 0.1744 -0.2361 0.1862 -0.2198 Z M 0.2226 -0.3175 C 0.20539999 -0.27449998 0.1986 -0.2563 0.1917 -0.212 C 0.2022 -0.197 0.21239999 -0.1807 0.2223 -0.1633 C 0.22309999 -0.17169999 0.2241 -0.18059999 0.22569999 -0.18969999 C 0.2391 -0.2683 0.2489 -0.26389998 0.2593 -0.3277 C 0.2708 -0.3978 0.26819998 -0.42339998 0.273 -0.4825 C 0.2799 -0.5664 0.2897 -0.59499997 0.3201 -0.6602 C 0.3201 -0.66 0.27420002 -0.6613 0.25480002 -0.4727 C 0.2437 -0.3644 0.2347 -0.3477 0.2226 -0.3175 Z M 0.1427 -0.2714 C 0.1432 -0.2875 0.1443 -0.30830002 0.1467 -0.335 C 0.1545 -0.4207 0.1644 -0.4226 0.17029999 -0.49190003 C 0.1768 -0.56820005 0.17249998 -0.59180003 0.1732 -0.65320003 C 0.1742 -0.7404 0.1819 -0.77500004 0.20719999 -0.8589 C 0.20719999 -0.8589 0.16219999 -0.8304 0.15599999 -0.6319 C 0.15249999 -0.5181 0.14479999 -0.496 0.13489999 -0.4586 C 0.117999986 -0.39420003 0.11499999 -0.3732 0.11129999 -0.2991 C 0.122 -0.291 0.1325 -0.2818 0.1427 -0.2714 Z M 0.1055 -0.3035 C 0.114 -0.5104 0.1209 -0.696 0.1294 -0.9026 C 0.1084 -0.7037 0.0888 -0.5253 0.0678 -0.32559997 C 0.0805 -0.3198 0.0931 -0.3124 0.1055 -0.3035 Z M 0.2303 -0.1489 C 0.24069999 -0.1297 0.2507 -0.1092 0.26029998 -0.087500006 C 0.295 -0.24970001 0.32979998 -0.4104 0.3645 -0.568 C 0.3198 -0.4307 0.2751 -0.2903 0.2303 -0.1489 Z M -0.29 -0.0084 C -0.282 -0.030900002 -0.2737 -0.0524 -0.265 -0.0728 C -0.27479997 -0.109000005 -0.28329998 -0.1214 -0.3028 -0.1505 C -0.3168 -0.1713 -0.3267 -0.1814 -0.3458 -0.2784 C -0.37910002 -0.4469 -0.4234 -0.4148 -0.4234 -0.4152 C -0.389 -0.3727 -0.3772 -0.35189998 -0.3641 -0.2755 L -0.3641 -0.2755 C -0.3549 -0.2217 -0.3554 -0.19510001 -0.3389 -0.13509999 C -0.3239 -0.08039999 -0.3148 -0.0914 -0.2959 -0.024299994 C -0.2941 -0.017899994 -0.2927 -0.011299994 -0.2914 -0.0048999935 L -0.29 -0.0084 Z M 0.2907 -0.0011 H 0.2886 C 0.2144 -0.21 0.1095 -0.3297 9.0E-4 -0.3297 C -0.1077 -0.3297 -0.2126 -0.20989999 -0.2869 -0.0011000037 H -0.29070002 C -0.29060003 -7.000037E-4 -0.29060003 -3.0000374E-4 -0.29050002 -3.7252903E-9 H 0.2907 C 0.2907 -1.0000372E-4 0.2906 -3.0000374E-4 0.2906 -4.0000372E-4 C 0.2906 -6.0E-4 0.2907 -9.0E-4 0.2907 -0.0011 Z M 0.3389 -0.135 C 0.3554 -0.19510001 0.3549 -0.2216 0.3641 -0.2754 C 0.3772 -0.35180002 0.3889 -0.3725 0.4234 -0.4151 C 0.4234 -0.4147 0.37910002 -0.4468 0.3458 -0.2783 C 0.3267 -0.18129998 0.3167 -0.17119998 0.3028 -0.15039998 C 0.2838 -0.12199998 0.2752 -0.10949998 0.2657 -0.07509998 C 0.2748 -0.05369998 0.2836 -0.03119998 0.29200003 -0.0075999796 C 0.29310003 -0.01309998 0.29440004 -0.01869998 0.29590002 -0.02409998 C 0.3149 -0.0913 0.3239 -0.0803 0.3389 -0.135 Z M 0.4589 -0.298 C 0.4589 -0.298 0.4589 -0.298 0.4589 -0.298 C 0.4589 -0.298 0.4589 -0.298 0.4589 -0.2981 C 0.4088 -0.2002 0.3587 -0.1003 0.3085 0.0 H 0.3085 H 0.3602 H 0.36029997 C 0.3972 -0.1122 0.4374 -0.2342 0.4589 -0.298 Z M 0.4884 -0.1052 C 0.4884 -0.1052 0.4884 -0.1052 0.4884 -0.1052 C 0.4884 -0.1047 0.4618 -0.1426 0.42790002 -0.0797 C 0.4201 -0.0652 0.41180003 -0.0453 0.40350002 -0.018400002 C 0.40260002 -0.015400002 0.40160003 -0.012400002 0.40070003 -0.0095000025 C 0.40020004 -0.007900002 0.39970005 -0.006400002 0.39920002 -0.0049000024 C 0.39870003 -0.0032000025 0.39810002 -0.0016000024 0.39760002 -2.3283064E-9 H 0.4198 C 0.4199 -4.0000232E-4 0.42000002 -8.000023E-4 0.4201 -0.0011000023 L 0.4201 -0.0011000023 C 0.4202 -0.0015000023 0.4203 -0.0020000022 0.4205 -0.0024000024 C 0.4207 -0.0030000024 0.4208 -0.0036000025 0.421 -0.004200002 C 0.4393 -0.0709 0.4521 -0.0838 0.4884 -0.1052 L 0.4884 -0.1052 Z M -0.2731 -0.4824 C -0.2683 -0.4233 -0.27089998 -0.3977 -0.25939998 -0.3276 C -0.24889998 -0.2638 -0.23919998 -0.2682 -0.22579998 -0.1896 C -0.22409998 -0.1796 -0.22299998 -0.16970001 -0.22219998 -0.1606 C -0.21229997 -0.1782 -0.20199998 -0.1947 -0.19159998 -0.2098 C -0.19859998 -0.2556 -0.20529997 -0.2736 -0.22279999 -0.31730002 C -0.23489998 -0.34750003 -0.24389999 -0.36420003 -0.255 -0.4724 C -0.2744 -0.661 -0.32029998 -0.6598 -0.32029998 -0.6599 C -0.2898 -0.595 -0.28 -0.5663 -0.2731 -0.4824 Z M -0.1498 -0.2623 C -0.1856 -0.4408 -0.2168 -0.5904 -0.2526 -0.7661 C -0.22880001 -0.5753 -0.20970002 -0.41099998 -0.18600002 -0.2177 C -0.1742 -0.2342 -0.1621 -0.2491 -0.1498 -0.2623 Z M -0.2297 -0.1469 C -0.2747 -0.289 -0.3196 -0.43 -0.3646 -0.56799996 C -0.3297 -0.40949994 -0.2948 -0.24789995 -0.25980002 -0.08489996 C -0.2501 -0.1069 -0.24 -0.1275 -0.2297 -0.1469 Z M -0.3603 0.0 H -0.3085 C -0.35869998 -0.1003 -0.4088 -0.2002 -0.45889997 -0.298 C -0.4374 -0.2342 -0.3972 -0.1122 -0.3603 0.0 Z M -0.4885 -0.1052 C -0.4521 -0.0838 -0.4393 -0.0709 -0.421 -0.0042999983 C -0.4206 -0.0029999982 -0.4202 -0.0014999984 -0.4198 1.8626451E-9 H -0.39760002 C -0.39960003 -0.005999998 -0.40160003 -0.012199998 -0.40360004 -0.018499998 C -0.4482 -0.1621 -0.4885 -0.1047 -0.4885 -0.1052 Z"/>
<path id="ss" d="M -0.4733 -0.3343 C -0.4733 -0.3343 -0.3319 -0.057200015 -0.3035 0.0 H -0.3642 C -0.4012 -0.113 -0.4733 -0.3343 -0.4733 -0.3343 Z M -0.4015 -0.0241 C -0.42729998 -0.107 -0.4524 -0.1244 -0.46789998 -0.1244 C -0.47599998 -0.1244 -0.48349997 -0.1204 -0.48919997 -0.113299996 C -0.49489996 -0.106199995 -0.49749997 -0.1011 -0.49749997 -0.1011 L -0.48899996 -0.0972 C -0.45409995 -0.0767 -0.44119996 -0.064500004 -0.42329997 -1.0000169E-4 H -0.39359996 L -0.39559996 -0.0059000016 C -0.3977 -0.0123 -0.3997 -0.0184 -0.4015 -0.0241 Z M 0.4892 -0.1133 C 0.4835 -0.120400004 0.476 -0.124400005 0.4679 -0.124400005 C 0.4523 -0.124400005 0.4273 -0.10700001 0.40150002 -0.024100006 C 0.39970002 -0.018400006 0.39780003 -0.012300005 0.39560002 -0.005900005 L 0.3936 0.0 H 0.4233 C 0.4411 -0.0644 0.454 -0.0766 0.489 -0.0971 L 0.4975 -0.100999996 C 0.4975 -0.101 0.4949 -0.1061 0.4892 -0.1133 Z M 0.3034 0.0 H 0.3641 C 0.4012 -0.113 0.47320002 -0.3343 0.47320002 -0.3343 S 0.3319 -0.0572 0.3034 0.0 Z M 0.3212 -0.0789 C 0.3276 -0.0911 0.3336 -0.1026 0.34100002 -0.1298 C 0.35240003 -0.1712 0.356 -0.1979 0.3598 -0.22620001 C 0.3617 -0.24010001 0.36360002 -0.2545 0.3666 -0.2718 C 0.37870002 -0.3424 0.38910002 -0.36360002 0.4224 -0.40500003 C 0.4281 -0.41200003 0.4343 -0.41700003 0.4343 -0.41700003 C 0.4266 -0.42270002 0.4203 -0.42570004 0.4146 -0.42560002 H 0.4146 C 0.3986 -0.42540002 0.36800003 -0.40700004 0.3434 -0.28250003 C 0.3259 -0.19370003 0.3168 -0.18020003 0.3041 -0.16160002 C 0.3033 -0.16040002 0.3024 -0.15910003 0.3015 -0.15780002 L 0.3006 -0.15640002 C 0.2823 -0.12900002 0.2733 -0.115500025 0.2635 -0.080200024 C 0.2632 -0.08090002 0.2629 -0.08170003 0.26250002 -0.082400024 C 0.3591 -0.52770007 0.3776 -0.61840004 0.3776 -0.61840004 S 0.246 -0.212 0.2356 -0.1779 L 0.2278 -0.1534 C 0.2268 -0.1553 0.2258 -0.1571 0.2247 -0.15890001 C 0.2255 -0.16720001 0.2265 -0.17660001 0.2281 -0.1859 C 0.2349 -0.2257 0.2407 -0.2435 0.2462 -0.2606 C 0.25149998 -0.2769 0.2565 -0.2923 0.2617 -0.324 C 0.2697 -0.3724 0.2711 -0.401 0.2726 -0.43129998 C 0.2733 -0.44619998 0.2741 -0.4615 0.2756 -0.48049998 C 0.2821 -0.56 0.29079998 -0.5873 0.3216 -0.6534 L 0.3216 -0.6535 L 0.3276 -0.6667 C 0.3276 -0.6667 0.3244 -0.6692 0.3193 -0.66830003 C 0.3189 -0.6682 0.3183 -0.66810006 0.31759998 -0.6679 C 0.31759998 -0.6679 0.31759998 -0.6679 0.3175 -0.6679 V -0.6679 C 0.3071 -0.66470003 0.2692 -0.6417 0.252 -0.47500002 C 0.24180001 -0.37610003 0.2335 -0.35550004 0.2229 -0.32950002 C 0.2221 -0.32760003 0.22140001 -0.3257 0.22060001 -0.32380003 C 0.20300001 -0.2799 0.19600001 -0.26080003 0.18900001 -0.21600002 C 0.1888 -0.21630003 0.1886 -0.21650001 0.18850002 -0.21680002 C 0.19520001 -0.2716 0.20150001 -0.32380003 0.20750001 -0.374 C 0.2563 -0.7663 0.2639 -0.8382 0.2639 -0.8382 S 0.16640002 -0.36709997 0.1595 -0.33129996 L 0.1468 -0.26809996 C 0.1463 -0.26869997 0.1457 -0.26919997 0.1452 -0.26979998 C 0.1457 -0.28809997 0.147 -0.30929998 0.14919999 -0.33299997 C 0.15319999 -0.37649998 0.15759999 -0.39749998 0.1619 -0.41779998 C 0.166 -0.43719998 0.1699 -0.45549998 0.1728 -0.48999998 C 0.1773 -0.5426 0.17670001 -0.5718 0.1761 -0.6026 C 0.1758 -0.6177 0.1755 -0.63339996 0.1757 -0.653 C 0.1766 -0.7325 0.1828 -0.7657 0.20619999 -0.8441 L 0.20629999 -0.8443 C 0.20719999 -0.84739995 0.20809999 -0.85029995 0.2091 -0.85349995 L 0.2091 -0.85349995 L 0.21409999 -0.8701999 C 0.21409999 -0.8701999 0.2109 -0.8705999 0.20609999 -0.8667999 C 0.20149998 -0.86339986 0.1591 -0.8266999 0.15309998 -0.6326999 C 0.14989999 -0.5286999 0.14309998 -0.50319993 0.13449998 -0.4708999 C 0.13389999 -0.46859992 0.13329998 -0.4661999 0.13259998 -0.4636999 C 0.11569998 -0.3991999 0.11229998 -0.3775999 0.10849998 -0.3024999 C 0.10829998 -0.30259988 0.108199984 -0.3026999 0.10799998 -0.3028999 C 0.10849998 -0.3157999 0.10899998 -0.3285999 0.10949998 -0.3413999 L 0.109599985 -0.3416999 C 0.13109998 -0.8695999 0.13359998 -0.9651999 0.13359998 -0.9651999 S 0.076 -0.4345 0.0717 -0.3941 L 0.0651 -0.33110002 C 0.065 -0.33110002 0.0648 -0.3312 0.0647 -0.3312 C 0.0645 -0.3313 0.0643 -0.3313 0.0641 -0.3314 C 0.0641 -0.33220002 0.063999996 -0.33310002 0.063999996 -0.33400002 C 0.063099995 -0.349 0.061999995 -0.36760002 0.062299997 -0.39090002 C 0.0628 -0.4368 0.065299995 -0.4586 0.0678 -0.4796 C 0.0701 -0.49940002 0.0723 -0.5181 0.0727 -0.55340004 C 0.0735 -0.62180007 0.070700005 -0.6477001 0.0674 -0.67770004 C 0.066 -0.6908001 0.064500004 -0.70440006 0.0633 -0.72290003 C 0.057899997 -0.8022 0.061499998 -0.83940005 0.0787 -0.9373 L 0.0835 -0.9642 C 0.0835 -0.9642 0.0799 -0.9621 0.0752 -0.954 C 0.0751 -0.9538 0.074999996 -0.9536 0.0748 -0.9534 C 0.074599996 -0.953 0.0744 -0.9527 0.0742 -0.9523 L 0.0742 -0.9523 C 0.0707 -0.9458 0.064799994 -0.9322 0.059199996 -0.9112 C 0.048699997 -0.872 0.037299998 -0.8012 0.042799994 -0.6862 C 0.047699995 -0.5823 0.043099996 -0.55230004 0.037299994 -0.5144 C 0.036899995 -0.51170003 0.036399994 -0.5089 0.035999995 -0.506 C 0.025499996 -0.43629998 0.022199996 -0.41099998 0.023499995 -0.3442 C 0.023299996 -0.3442 0.023199996 -0.3442 0.023099996 -0.3442 C 0.022999996 -0.3442 0.022899996 -0.3442 0.022899996 -0.3442 C 0.020799996 -0.41099998 0.018499997 -0.47599998 0.016099997 -0.54039997 C 0.0034 -0.9305 0.0 -0.9949 0.0 -0.9949 S -0.0034 -0.9306 -0.016 -0.5404 C -0.0183 -0.47590002 -0.0206 -0.41090003 -0.0228 -0.34420002 C -0.0229 -0.34420002 -0.023 -0.34420002 -0.023 -0.34420002 C -0.0231 -0.34420002 -0.0233 -0.34420002 -0.0234 -0.34420002 C -0.0221 -0.41110003 -0.0254 -0.4363 -0.0359 -0.50600004 C -0.0363 -0.50890005 -0.0368 -0.51170003 -0.0372 -0.51440006 C -0.043 -0.55240005 -0.0476 -0.5824001 -0.0427 -0.6862001 C -0.0372 -0.8012001 -0.0486 -0.8720001 -0.059100002 -0.91120005 C -0.0647 -0.9322001 -0.0706 -0.94580007 -0.0741 -0.9523001 L -0.0741 -0.9523001 C -0.074300006 -0.9527001 -0.0745 -0.95300007 -0.074700005 -0.9534001 C -0.07480001 -0.95360005 -0.07490001 -0.9538001 -0.075100005 -0.95400006 C -0.0798 -0.9621 -0.0834 -0.9642001 -0.0834 -0.9642001 L -0.078600004 -0.9373001 C -0.061400004 -0.83940005 -0.057800002 -0.8022001 -0.063200004 -0.7229001 C -0.064500004 -0.7045001 -0.065900005 -0.6909001 -0.06730001 -0.6777001 C -0.07050001 -0.64770013 -0.073400006 -0.6217001 -0.07260001 -0.5534001 C -0.07220001 -0.5182001 -0.07000001 -0.4994001 -0.067700006 -0.4796001 C -0.06520001 -0.4586001 -0.0627 -0.4368001 -0.062200006 -0.3909001 C -0.062000006 -0.3676001 -0.06300001 -0.3490001 -0.06390001 -0.3340001 C -0.06400001 -0.3331001 -0.06400001 -0.3323001 -0.06410001 -0.3314001 C -0.064300016 -0.3313001 -0.06450001 -0.3313001 -0.064700015 -0.3312001 C -0.06480002 -0.3312001 -0.06500001 -0.3311001 -0.065100014 -0.3311001 L -0.071700014 -0.3941001 C -0.07600001 -0.4345001 -0.13390002 -0.96520007 -0.13390002 -0.96520007 S -0.13130002 -0.86960006 -0.10990001 -0.34170008 L -0.10980001 -0.3414001 C -0.10930001 -0.32860008 -0.10880001 -0.3158001 -0.10830001 -0.30290008 C -0.10850001 -0.3028001 -0.108600006 -0.3026001 -0.10880001 -0.30250007 C -0.112600006 -0.37770006 -0.11600001 -0.39930007 -0.13290001 -0.46370006 C -0.13350001 -0.46610007 -0.13420002 -0.46850005 -0.13480002 -0.47090006 C -0.14340001 -0.50320005 -0.15020001 -0.52870005 -0.15340002 -0.6327001 C -0.15940002 -0.8267001 -0.20180002 -0.8634001 -0.20640002 -0.86680007 C -0.21120003 -0.87060004 -0.21440002 -0.8702001 -0.21440002 -0.8702001 L -0.20940003 -0.8535001 L -0.20940003 -0.8535001 C -0.20840003 -0.85030013 -0.20760003 -0.8473001 -0.20660003 -0.84430015 L -0.20650002 -0.8441002 C -0.18310003 -0.7658002 -0.17690003 -0.73260015 -0.17600003 -0.6530002 C -0.17580003 -0.6333002 -0.17610003 -0.61770016 -0.17640004 -0.60260016 C -0.17700003 -0.5718002 -0.17760004 -0.54260015 -0.17310004 -0.49000016 C -0.17010003 -0.45550016 -0.16630004 -0.43720016 -0.16220003 -0.41780016 C -0.15790004 -0.39750016 -0.15340003 -0.37640017 -0.14950003 -0.33300015 C -0.14730003 -0.30930015 -0.14600003 -0.28810015 -0.14550003 -0.26980016 C -0.14600003 -0.26920015 -0.14660004 -0.26870015 -0.14710003 -0.26810014 L -0.15980004 -0.33130014 C -0.16660003 -0.36710015 -0.26420003 -0.83820015 -0.26420003 -0.83820015 S -0.25660002 -0.76630014 -0.20780003 -0.37400016 C -0.20180003 -0.32380015 -0.19550003 -0.27160016 -0.18880004 -0.21680017 C -0.18900004 -0.21650016 -0.18920004 -0.21630017 -0.18930003 -0.21600017 C -0.19630003 -0.26080018 -0.20330003 -0.27990016 -0.22090003 -0.32380018 C -0.22170003 -0.32580018 -0.22240002 -0.32770017 -0.22320002 -0.32950017 C -0.23370002 -0.35550016 -0.24210003 -0.37610018 -0.25230002 -0.47500017 C -0.26950002 -0.6416002 -0.30740002 -0.66470015 -0.31780002 -0.6679002 V -0.6679002 C -0.31780002 -0.6679002 -0.31780002 -0.6679002 -0.3179 -0.6679002 C -0.3186 -0.6681002 -0.3192 -0.6682002 -0.31960002 -0.6683002 C -0.32470003 -0.6692002 -0.32790002 -0.6667002 -0.32790002 -0.6667002 L -0.3219 -0.6535002 L -0.3219 -0.6534002 C -0.291 -0.5873002 -0.2824 -0.5600002 -0.2759 -0.48050016 C -0.2743 -0.46160015 -0.2736 -0.44620016 -0.27290002 -0.43130016 C -0.2714 -0.40100017 -0.27 -0.37230015 -0.26200002 -0.32400018 C -0.25680003 -0.29230016 -0.25180003 -0.27690017 -0.24650003 -0.26060018 C -0.24090002 -0.24350017 -0.23520003 -0.22580019 -0.22840002 -0.18590018 C -0.22680002 -0.17650019 -0.22580002 -0.16700017 -0.22500002 -0.15870018 C -0.22600003 -0.15690018 -0.22700003 -0.15500018 -0.22800003 -0.15320018 L -0.23580003 -0.17790018 C -0.24620003 -0.21200018 -0.37780005 -0.61840016 -0.37780005 -0.61840016 S -0.35930005 -0.52750015 -0.26240003 -0.08090013 C -0.26270002 -0.080200136 -0.26300004 -0.07950013 -0.26330003 -0.078800134 C -0.27330002 -0.11520013 -0.28230003 -0.12870014 -0.30080003 -0.15640014 L -0.30170003 -0.15780014 C -0.30260003 -0.15910015 -0.30340004 -0.16040014 -0.30430004 -0.16160014 C -0.31700003 -0.18020014 -0.32610005 -0.19370013 -0.34360003 -0.28250015 C -0.36820003 -0.40700015 -0.39880005 -0.42540014 -0.41480005 -0.42560014 C -0.42040005 -0.42570013 -0.42680004 -0.42270014 -0.43450004 -0.41700014 C -0.43450004 -0.41700014 -0.42830005 -0.41200015 -0.42260003 -0.40500015 C -0.38930002 -0.36350015 -0.37890002 -0.34240013 -0.36680004 -0.27180016 C -0.36380005 -0.25450015 -0.36190003 -0.24020016 -0.36000004 -0.22620016 C -0.35620004 -0.19790016 -0.35260004 -0.17120016 -0.34120005 -0.12980017 C -0.33370006 -0.10260017 -0.32770005 -0.09110017 -0.32140005 -0.07890017 C -0.31470004 -0.06610017 -0.30780005 -0.052900173 -0.29820004 -0.018900175 C -0.29640004 -0.0124001745 -0.29500005 -0.0057001747 -0.29390004 -1.0017492E-4 H 0.2937 C 0.2938 -5.0017494E-4 0.2939 -9.001749E-4 0.2939 -0.0012001749 H 0.2942 L 0.294 -0.001700175 C 0.295 -0.007000175 0.2963 -0.013000175 0.298 -0.018900175 C 0.3077 -0.0529 0.3146 -0.0661 0.3212 -0.0789 Z"/>
<path id="wave" d="M 0.8749 0.7618 C 0.9374 0.7618 0.9374 0.6847 1.0 0.6847 V 0.8333 C 0.9374 0.8333 0.9375 0.9104 0.8749 0.9104 C 0.8124 0.9104 0.81259996 0.8333 0.7501 0.8333 C 0.6876 0.8333 0.68770003 0.9104 0.62520003 0.9104 C 0.5626 0.9104 0.5629 0.8333 0.50030005 0.8333 C 0.43780005 0.8333 0.43780005 0.9104 0.37530005 0.9104 C 0.31280005 0.9104 0.31260005 0.8333 0.25010005 0.8333 C 0.18760005 0.8333 0.18760005 0.9104 0.12510005 0.9104 C 0.06270005 0.9104 0.062500045 0.8333 1.00046396E-4 0.8333 V 0.6847 C 0.06260005 0.6847 0.06260005 0.7618 0.12510005 0.7618 C 0.18760005 0.7618 0.18760005 0.6847 0.25010005 0.6847 C 0.31270003 0.6847 0.31270003 0.7618 0.37530005 0.7618 C 0.43780005 0.7618 0.43780005 0.6847 0.50030005 0.6847 C 0.56280005 0.6847 0.56280005 0.7618 0.62520003 0.7618 C 0.68770003 0.7618 0.68770003 0.6847 0.7501 0.6847 C 0.8125 0.6846 0.8125 0.7618 0.8749 0.7618 Z M 0.7501 0.3955 C 0.6876 0.3955 0.6876 0.4726 0.62520003 0.4726 C 0.56270003 0.4726 0.56270003 0.3955 0.50030005 0.3955 C 0.43780005 0.3955 0.43780005 0.4726 0.37530005 0.4726 C 0.31270003 0.4726 0.31270003 0.3955 0.25010005 0.3955 C 0.18760005 0.3955 0.18760005 0.4726 0.12510005 0.4726 C 0.0625 0.4726 0.0625 0.3955 0.0 0.3955 V 0.5441 C 0.0624 0.5441 0.0626 0.62119997 0.125 0.62119997 C 0.1875 0.62119997 0.1875 0.5441 0.25 0.5441 C 0.3125 0.5441 0.3127 0.62119997 0.3752 0.62119997 C 0.4377 0.62119997 0.4377 0.5441 0.50020003 0.5441 C 0.56280005 0.5441 0.56250006 0.62119997 0.6251 0.62119997 C 0.6876 0.62119997 0.6875 0.5441 0.75 0.5441 C 0.8125 0.5441 0.8123 0.62119997 0.87479997 0.62119997 C 0.9374 0.62119997 0.93729997 0.5441 0.9999 0.5441 V 0.3955 C 0.93729997 0.3955 0.9374 0.4726 0.87479997 0.4726 C 0.8125 0.4726 0.8125 0.3955 0.7501 0.3955 Z M 0.8749 0.1777 C 0.8125 0.1777 0.8125 0.1006 0.7501 0.1006 C 0.6876 0.1006 0.6876 0.1777 0.62520003 0.1777 C 0.56270003 0.1777 0.56270003 0.1006 0.50030005 0.1006 C 0.43780005 0.1006 0.43780005 0.1777 0.37530005 0.1777 C 0.31270003 0.1777 0.31270003 0.1006 0.25010005 0.1006 C 0.18760005 0.1006 0.18760005 0.1777 0.12510005 0.1777 C 0.0625 0.1777 0.0625 0.1006 0.0 0.1006 V 0.24919999 C 0.0624 0.24919999 0.0626 0.3263 0.125 0.3263 C 0.1875 0.3263 0.1875 0.24919999 0.25 0.24919999 C 0.3125 0.24919999 0.3127 0.3263 0.3752 0.3263 C 0.4377 0.3263 0.4377 0.24919999 0.50020003 0.24919999 C 0.56280005 0.24919999 0.56250006 0.3263 0.6251 0.3263 C 0.6876 0.3263 0.6875 0.24919999 0.75 0.24919999 C 0.8125 0.24919999 0.8123 0.3263 0.87479997 0.3263 C 0.9374 0.3263 0.93729997 0.24919999 0.9999 0.24919999 V 0.1006 C 0.9374 0.1006 0.9375 0.1777 0.8749 0.1777 Z M 1.0 -0.0032 H 0.0 V 0.0050999997 H 1.0 V -0.0032 Z"/>
<clipPath id="clip0">
<path d="M 0 0 L 0 10.8238 L 0 10.8238 L 310.8499 79.2792 L 310.8499 79.2792 L 0 147.7346 L 0 158.5584 L 49.1501 158.5584 L 360 90.103 L 360 90.103 L 360 90.103 L 360 90.103 L 360 90.103 L 360 90.103 L 670.8499 158.5584 L 720 158.5584 L 720 147.7346 L 720 147.7346 L 409.1501 79.2792 L 409.1501 79.2792 L 720 10.8238 L 720 0 L 670.8499 0 L 360 68.4554 L 360 68.4554 L 360 68.4554 L 360 68.4554 L 360 68.4554 L 360 68.4554 L 49.1501 0 Z"/>
</clipPath>
<linearGradient id="glaze" x1="0%" y1="0%" x2="100%" y2="100%">
<stop offset="0%" stop-color="rgb(255,255,255)" stop-opacity="0.2"/>
<stop offset="49.999%" stop-color="rgb(255,255,255)" stop-opacity="0.0"/>
<stop offset="50.001%" stop-color="rgb(0,0,0)" stop-opacity="0.0"/>
<stop offset="100%" stop-color="rgb(0,0,0)" stop-opacity="0.2"/>
</linearGradient>
</defs>
<g>
<g>
<rect x="0" y="0" width="720" height="158.5584" class="blue"/>
<path d="M 0 0 L 0 16.2358 L 0 16.2358 L 286.2748 79.2792 L 286.2748 79.2792 L 0 142.3226 L 0 142.3226 L 0 158.5584 L 73.7252 158.5584 L 360 95.515 L 360 95.515 L 646.2748 158.5584 L 720 158.5584 L 720 142.3226 L 720 142.3226 L 433.7252 79.2792 L 433.7252 79.2792 L 720 16.2358 L 720 0 L 646.2748 0 L 360 63.0434 L 73.7252 0 Z" class="white"/>
<g clip-path="url(#clip0)">
<path d="M 0 0 L 360 79.2792 L 0 79.2792 Z" class="red"/>
<path d="M 720 0 L 360 79.2792 L 360 0 Z" class="red"/>
<path d="M 0 158.5584 L 360 79.2792 L 360 158.5584 Z" class="red"/>
<path d="M 720 158.5584 L 360 79.2792 L 720 79.2792 Z" class="red"/>
</g>
<g>
<rect x="0" y="52.8528" width="720" height="52.8528" class="white"/>
<rect x="333.5736" y="0" width="52.8528" height="158.5584" class="white"/>
</g>
<g>
<rect x="0" y="63.4234" width="720" height="31.7117" class="red"/>
<rect x="344.1442" y="0" width="31.7117" height="158.5584" class="red"/>
</g>
</g>
<use xlink:href="#cs" transform="translate(360 79.2792) scale(52.8528 52.8528) rotate(0)" class="black"/>
<use xlink:href="#cf" transform="translate(360 79.2792) scale(52.8528 52.8528) rotate(0)" class="yellow"/>
<rect x="0" y="158.5584" width="720" height="201.4416" class="white"/>
<use xlink:href="#wave" transform="translate(0 158.5584) scale(720 201.4416) rotate(0)" class="blue"/>
<use xlink:href="#ss" transform="translate(360 360) scale(720 201.4416) rotate(0)" class="black"/>
<use xlink:href="#sf" transform="translate(360 360) scale(720 201.4416) rotate(0)" class="yellow"/>
</g>
<g>
<rect x="0" y="0" width="720" height="360" fill="url(#glaze)"/>
<path d="M 30 30 L 690 30 L 690 330 L 30 330 Z M 60 60 L 60 300 L 660 300 L 660 60 Z" fill="rgb(255,255,255)" opacity="0.4"/>
<path d="M 0 0 L 720 0 L 720 360 L 0 360 Z M 30 30 L 30 330 L 690 330 L 690 30 Z" fill="rgb(0,0,0)" opacity="0.4"/>
</g>
</svg>
