<?xml version="1.0"?>
<svg xmlns="http://www.w3.org/2000/svg" xmlns:xlink="http://www.w3.org/1999/xlink" version="1.1" width="720" height="360" viewBox="0 0 720 360">
<!-- Generated by Kreative Vexillo v1.0 -->
<style>
.black{fill:rgb(0,0,0);}
.red{fill:rgb(232,66,63);}
.white{fill:rgb(255,255,255);}
</style>
<defs>
<path id="e1" d="M -0.2514 -0.4066 C -0.26299998 -0.4154 -0.2789 -0.418 -0.2789 -0.418 S -0.2719 -0.42810002 -0.2435 -0.4219 C -0.2491 -0.437 -0.264 -0.4447 -0.264 -0.4447 S -0.2463 -0.4487 -0.2291 -0.4321 C -0.2296 -0.4508 -0.2432 -0.4663 -0.2432 -0.4663 S -0.22600001 -0.4682 -0.21090001 -0.4384 C -0.2062 -0.456 -0.2117 -0.4749 -0.2117 -0.4749 S -0.19340001 -0.4718 -0.18980001 -0.4348 C -0.17520002 -0.4124 -0.18730001 -0.3799 -0.1727 -0.34170002 C -0.1646 -0.32040003 -0.1342 -0.31250003 -0.099700004 -0.2973 C -0.058400005 -0.2791 -0.013400003 -0.25840002 -0.003500007 -0.24910001 C -6.0000713E-4 -0.24640001 -0.03270001 -0.21820001 -0.035200007 -0.16100001 C -0.057200007 -0.15160002 -0.06310001 -0.16260001 -0.06310001 -0.16260001 S -0.06910001 -0.16180001 -0.07100001 -0.15750001 C -0.08670001 -0.16800001 -0.08280001 -0.18170002 -0.09420001 -0.17360002 C -0.09690001 -0.17170002 -0.10710001 -0.19460002 -0.11190001 -0.18460003 C -0.12320001 -0.18780002 -0.121800005 -0.20150003 -0.12490001 -0.20230003 C -0.128 -0.20310003 -0.13470002 -0.19780003 -0.13630001 -0.20150003 C -0.13910002 -0.20790003 -0.14230001 -0.21530002 -0.14340001 -0.21640003 S -0.14610001 -0.21300003 -0.1509 -0.21480003 C -0.15570001 -0.21660003 -0.15810001 -0.22940002 -0.1623 -0.23130003 C -0.1711 -0.22810003 -0.1752 -0.24260002 -0.17570001 -0.24450003 C -0.1772 -0.24060002 -0.18900001 -0.23950003 -0.18710001 -0.24620003 C -0.1806 -0.2693 -0.21220002 -0.27530003 -0.2081 -0.29760003 C -0.2534 -0.30660003 -0.23990001 -0.38770002 -0.24880001 -0.38970003 C -0.26520002 -0.39330003 -0.27650002 -0.39240003 -0.27650002 -0.39240003 S -0.2744 -0.4056 -0.2514 -0.4066 Z M 0.0594 0.1313 C 0.0619 0.1216 0.0639 0.1109 0.0631 0.1092 C 0.0362 0.0503 0.0202 0.0464 0.0202 0.0464 S -0.0392 0.0327 -0.075 0.0499 C -0.082200006 0.0534 -0.1357 0.0862 -0.1252 0.088599995 C -0.1079 0.092599995 -0.1321 0.1041 -0.1359 0.1138 C -0.13980001 0.123399995 -0.1302 0.12109999 -0.1298 0.1223 C -0.1287 0.1252 -0.15380001 0.1503 -0.14760001 0.1516 C -0.12440001 0.15630001 -0.15810001 0.18020001 -0.1509 0.18190001 C -0.13090001 0.1868 -0.15540001 0.20760001 -0.1483 0.20860001 C -0.14580001 0.20900002 -0.1409 0.21020001 -0.13690001 0.21080002 C -0.13910002 0.21490002 -0.14500001 0.22670002 -0.1438 0.23890002 C -0.14320001 0.24450003 -0.1368 0.23380002 -0.13350001 0.24120001 C -0.15 0.25500003 -0.119200006 0.29450002 -0.11700001 0.31800002 C -0.12820001 0.31930003 -0.1263 0.30470002 -0.136 0.3005 C -0.1412 0.3102 -0.1518 0.3102 -0.16450001 0.307 C -0.17720002 0.30380002 -0.19190001 0.2974 -0.20540002 0.2973 C -0.23510002 0.2896 -0.24740002 0.3001 -0.25020003 0.3036 C -0.24930003 0.3039 -0.23890004 0.3064 -0.22400004 0.31300002 C -0.24920003 0.3149 -0.25370005 0.3307 -0.25370005 0.3307 S -0.24070005 0.3299 -0.22460005 0.3332 C -0.25080004 0.3468 -0.24710006 0.3619 -0.24710006 0.3619 S -0.23260006 0.3531 -0.21770005 0.3518 C -0.22580005 0.3581 -0.23240004 0.3716 -0.22750005 0.3813 C -0.22160006 0.3755 -0.21010005 0.3701 -0.20600004 0.3683 C -0.21150005 0.3813 -0.21070005 0.3908 -0.20460005 0.39769998 C -0.18830004 0.37469998 -0.18240005 0.37609997 -0.17770004 0.37649998 C -0.17510004 0.37669998 -0.16810004 0.37899998 -0.15770005 0.38009998 C -0.14910005 0.38099998 -0.13810004 0.3807 -0.12570004 0.38149998 C -0.09570004 0.38329998 -0.06100004 0.38429996 -0.03810004 0.36049998 C -0.04510004 0.30759996 -0.058000043 0.24869998 -0.04510004 0.20359997 C -0.0317 0.1566 0.0135 0.1274 0.0594 0.1313 Z M 0.251 0.3724 C 0.22749999 0.4249 0.16689998 0.43559998 0.1422 0.4412 C 0.12779999 0.4534 0.1336 0.4732 0.1317 0.4748 C 0.12969999 0.4765 0.115499996 0.4682 0.111999996 0.445 C 0.103599995 0.4437 0.092499994 0.4609 0.086399995 0.4691 C 0.07389999 0.4535 0.08889999 0.43 0.08889999 0.43 S 0.07259999 0.43400002 0.05689999 0.4492 C 0.052399993 0.4269 0.07459999 0.41120002 0.07459999 0.41120002 S 0.05629999 0.40890002 0.038399987 0.4174 C 0.042299986 0.3936 0.067399986 0.388 0.067399986 0.388 S 0.04289999 0.3759 0.032999985 0.3781 C 0.049699984 0.3576 0.08109999 0.3673 0.08109999 0.3673 S 0.09519999 0.35390002 0.12349999 0.357 C 0.15179999 0.3601 0.1554 0.3646 0.15669999 0.366 C 0.15789999 0.3674 0.16049999 0.3778 0.16159998 0.3814 C 0.16259998 0.3849 0.16609998 0.385 0.16769998 0.384 C 0.17519997 0.3385 0.13289997 0.3197 0.12529998 0.3007 C 0.12209997 0.3059 0.121299975 0.3068 0.121299975 0.3068 S 0.11459997 0.3071 0.11219998 0.2849 C 0.105499975 0.2829 0.111199975 0.2919 0.10919998 0.29360002 C 0.10719998 0.29540002 0.10359998 0.293 0.09589998 0.2675 C 0.094399974 0.2741 0.09469998 0.27510002 0.094399974 0.2764 C 0.081699975 0.2705 0.084299974 0.2494 0.084299974 0.2494 S 0.07919998 0.2539 0.07749997 0.2599 C 0.06439997 0.2495 0.07349997 0.2277 0.07349997 0.2277 S 0.06809997 0.2302 0.06369997 0.233 C 0.05779997 0.2325 0.06689997 0.2131 0.06219997 0.20799999 C 0.05829997 0.21139999 0.054399967 0.2093 0.05389997 0.20689999 C 0.05339997 0.20449999 0.063599974 0.1291 0.06879997 0.11499999 C 0.07179997 0.106999986 0.062499974 0.088499986 0.03829997 0.05259999 C 0.0198 0.0251 -0.0139 -0.0148 -0.0144 -0.0271 C -0.0147 -0.0331 -0.0147 -0.0345 -0.0136 -0.0362 C -0.0124 -0.037800003 -0.0112 -0.039 -0.0085 -0.038900003 C 0.039899997 -0.036500003 0.060599998 -0.058100004 0.068799995 -0.0879 C 0.0703 -0.0934 0.0654 -0.0941 0.060899995 -0.0846 C 0.0499 -0.0613 0.0357 -0.044 -0.022 -0.0429 C -0.0275 -0.042799998 -0.0423 -0.0539 -0.0429 -0.0402 C -0.0502 -0.0437 -0.0515 -0.0389 -0.066 -0.0482 C -0.0643 -0.0347 -0.0762 -0.0426 -0.087400004 -0.0444 C -0.09240001 -0.030499998 -0.11490001 -0.0546 -0.11840001 -0.038599998 C -0.12390001 -0.042799998 -0.13030002 -0.0415 -0.13430001 -0.0433 C -0.14220001 -0.0469 -0.1428 -0.0551 -0.1473 -0.0401 C -0.14860001 -0.0355 -0.1663 -0.0513 -0.16890001 -0.0509 C -0.17150001 -0.0505 -0.16950001 -0.0472 -0.1729 -0.045700002 C -0.18730001 -0.0397 -0.21790001 -0.060000002 -0.2389 -0.0816 C -0.2566 -0.099800006 -0.27 -0.1168 -0.2856 -0.112 C -0.2971 -0.113800004 -0.3071 -0.106300004 -0.3199 -0.103700005 C -0.32250002 -0.120000005 -0.3036 -0.1268 -0.2933 -0.1316 C -0.2962 -0.1366 -0.3135 -0.14160001 -0.3234 -0.1429 C -0.3182 -0.15740001 -0.2934 -0.155 -0.29119998 -0.15540001 C -0.29079998 -0.15920001 -0.30659997 -0.17060001 -0.32389998 -0.17680001 C -0.3101 -0.18900001 -0.2803 -0.17500001 -0.2803 -0.17500001 L -0.30609998 -0.20850001 C -0.30609998 -0.20850001 -0.29 -0.21670002 -0.2611 -0.18800001 C -0.2577 -0.19510001 -0.26819998 -0.2308 -0.26819998 -0.2308 S -0.24979998 -0.2301 -0.23549998 -0.1876 C -0.21319997 -0.1758 -0.20119998 -0.1363 -0.18159997 -0.1196 C -0.19829997 -0.111 -0.21599998 -0.1393 -0.21989998 -0.1345 C -0.21649998 -0.118999995 -0.18869999 -0.1126 -0.18569998 -0.111899994 C -0.13809998 -0.112399995 -0.03189999 -0.1604 0.008100018 -0.1629 C 0.010900018 -0.1631 0.010200018 -0.1655 0.010200018 -0.1655 S 0.009900018 -0.1668 0.007800018 -0.1666 C -0.004199982 -0.16510001 -0.02379998 -0.16 -0.02379998 -0.16 S -0.02729998 -0.1577 -0.02599998 -0.1648 C -0.02279998 -0.1826 -0.02169998 -0.2189 0.009300021 -0.2477 C 0.020700023 -0.2583 0.028600022 -0.2579 0.03650002 -0.2657 C 0.05050002 -0.27960002 0.08260003 -0.2813 0.11310002 -0.2822 C 0.20070001 -0.28460002 0.16630003 -0.3662 0.18930003 -0.38230002 C 0.19260003 -0.3846 0.19860002 -0.3941 0.22720003 -0.3833 C 0.22630003 -0.3886 0.20530003 -0.401 0.18610004 -0.3873 C 0.16290003 -0.3707 0.18320003 -0.3319 0.15730004 -0.3057 C 0.12720004 -0.2753 0.08600004 -0.2887 0.04980004 -0.2937 C 0.032500036 -0.29610002 0.019200038 -0.2948 0.015600037 -0.2951 C 0.004400037 -0.296 0.005700037 -0.3119 0.005700037 -0.3119 V -0.3119 C 0.005700037 -0.3119 0.0061000367 -0.3119 0.006800037 -0.3119 C 0.006800037 -0.31239998 0.006700037 -0.31289998 0.006700037 -0.3134 C 0.006700037 -0.3142 0.006800037 -0.3149 0.006800037 -0.3156 C 0.006500037 -0.31550002 0.006400037 -0.31550002 0.006400037 -0.31550002 C -0.004999963 -0.3138 -0.018199962 -0.31300002 -0.032199964 -0.31520003 C -0.09499996 -0.32490003 -0.06689996 -0.36600003 -0.06689996 -0.36600003 S -0.050699964 -0.34230003 -0.03289996 -0.33850002 C -0.015099961 -0.33460003 0.014300041 -0.34200004 0.03320004 -0.3424 C 0.04660004 -0.3427 0.07770004 -0.333 0.07770004 -0.333 S 0.07810004 -0.3536 0.06670004 -0.3594 C 0.055300042 -0.3653 0.03740004 -0.364 0.03740004 -0.364 H 0.03700004 C 0.03610004 -0.3596 0.033300042 -0.35029998 0.025400043 -0.343 C 0.020200042 -0.3499 0.019900043 -0.3593 0.020300042 -0.36429998 L 0.018100042 -0.36429998 C 0.017300041 -0.36099997 0.014700042 -0.35399997 0.0069000423 -0.34289998 C 4.0004216E-4 -0.35219997 8.000424E-4 -0.3604 0.0017000423 -0.36459997 L -0.0014999576 -0.36459997 C -0.0014999576 -0.36459997 -0.0036999576 -0.36769998 0.0022000424 -0.37979996 C 0.005300042 -0.38629997 -0.0054999576 -0.38919997 -9.995769E-5 -0.41679996 C 0.020900043 -0.41109997 0.019800043 -0.41259995 0.028700043 -0.41249996 C 0.057100043 -0.41249996 0.106000036 -0.43819997 0.14250004 -0.43629998 C 0.16840005 -0.4349 0.16800004 -0.40969998 0.18480004 -0.40019998 C 0.20150004 -0.39069998 0.22720005 -0.41419998 0.23760004 -0.37729996 C 0.24800004 -0.34039998 0.19860004 -0.34019998 0.19860004 -0.34019998 S 0.21730004 -0.33479998 0.22050004 -0.3031 C 0.22250004 -0.2832 0.20000003 -0.259 0.21830004 -0.23229998 C 0.21410005 -0.22599998 0.21050005 -0.23069999 0.20700005 -0.22809999 C 0.21640004 -0.21329999 0.21310005 -0.20009999 0.21910004 -0.19139999 C 0.21710004 -0.1882 0.20620005 -0.1971 0.20240004 -0.19539998 C 0.20220004 -0.19269998 0.20740004 -0.17149998 0.21120004 -0.16789998 C 0.20970005 -0.16429998 0.20060004 -0.16349998 0.19060004 -0.16739999 C 0.19130003 -0.166 0.19640003 -0.15509999 0.19050004 -0.144 C 0.18690003 -0.1475 0.18070003 -0.1478 0.17920004 -0.1504 C 0.17760004 -0.1484 0.18290004 -0.1348 0.17930004 -0.1308 C 0.17490004 -0.1345 0.16800004 -0.1356 0.16800004 -0.1356 S 0.1672 -0.0871 0.1695 -0.0722 C 0.17179999 -0.0572 0.1777 -0.016199999 0.18079999 -0.0066 C 0.1853 0.0072999997 0.21779999 0.0468 0.22479999 0.0678 C 0.23179999 0.0889 0.22349998 0.1058 0.22349998 0.1058 L 0.21389998 0.094900005 L 0.21569999 0.1083 C 0.21569999 0.1083 0.21189998 0.1154 0.20699999 0.1126 S 0.19889998 0.0942 0.19049999 0.0936 C 0.2041 0.1172 0.2022 0.1493 0.2022 0.1493 S 0.19999999 0.20989999 0.1997 0.2252 C 0.1987 0.28 0.2484 0.3561 0.251 0.3724 Z M 0.0208 -0.3112 C 0.0223 -0.3112 0.0239 -0.3111 0.025600001 -0.3111 C 0.025600001 -0.3142 0.026 -0.3168 0.026600001 -0.3191 C 0.0238 -0.3186 0.021000002 -0.318 0.018400002 -0.3175 C 0.018900001 -0.3164 0.019300003 -0.3152 0.019800002 -0.3139 C 0.0201 -0.313 0.0205 -0.3121 0.0208 -0.3112 Z M 0.075 -0.3194 C 0.075 -0.3194 0.0489 -0.32290003 0.042500004 -0.3221 C 0.041100003 -0.3219 0.038700003 -0.3215 0.035700005 -0.321 C 0.036900006 -0.3188 0.037900005 -0.3165 0.038900003 -0.314 C 0.039300002 -0.31300002 0.039800003 -0.312 0.040200002 -0.31100002 C 0.0502 -0.31080002 0.058900002 -0.31070003 0.060600005 -0.31070003 C 0.0736 -0.3106 0.075 -0.3194 0.075 -0.3194 Z M 0.1981 -0.4018 C 0.2227 -0.44280002 0.1692 -0.4542 0.15540001 -0.437 C 0.1749 -0.4338 0.177 -0.3964 0.1981 -0.4018 Z"/>
<path id="e2" d="M -0.2535 -0.3942 C -0.2606 -0.39519998 -0.26770002 -0.3958 -0.2711 -0.3958 C -0.26860002 -0.3989 -0.26310003 -0.4027 -0.2513 -0.4033 L -0.2511 -0.4033 C -0.2524 -0.4002 -0.2532 -0.3971 -0.2535 -0.3942 Z M -0.3166 -0.1079 C -0.3138 -0.1087 -0.3109 -0.1097 -0.3076 -0.1109 C -0.30159998 -0.1132 -0.2954 -0.1155 -0.28869998 -0.1154 C -0.2904 -0.1194 -0.29169998 -0.1236 -0.29259998 -0.12810001 C -0.2964 -0.1266 -0.3159 -0.1181 -0.3166 -0.1079 Z M -0.2938 -0.141 C -0.2938 -0.1447 -0.2935 -0.1483 -0.2928 -0.1518 C -0.2962 -0.1518 -0.31280002 -0.1516 -0.3179 -0.14510001 C -0.311 -0.14370002 -0.2996 -0.14060001 -0.2936 -0.13620001 C -0.2937 -0.1378 -0.2938 -0.1394 -0.2938 -0.141 Z M -0.3161 -0.1769 C -0.3066 -0.1727 -0.2953 -0.1662 -0.2904 -0.1604 C -0.28869998 -0.1645 -0.2847 -0.1703 -0.2832 -0.17230001 C -0.2881 -0.1744 -0.3046 -0.1806 -0.3161 -0.1769 Z M -0.2782 -0.1774 C -0.2747 -0.1802 -0.2668 -0.1847 -0.2642 -0.18609999 C -0.2816 -0.2032 -0.2938 -0.20609999 -0.3001 -0.20599999 C -0.2987 -0.2042 -0.2789 -0.1783 -0.2782 -0.1774 Z M -0.2394 -0.1882 C -0.2479 -0.21239999 -0.2575 -0.2216 -0.2633 -0.2251 C -0.2609 -0.21609999 -0.2572 -0.2012 -0.2572 -0.19229999 C -0.2572 -0.19029999 -0.2574 -0.18879999 -0.2578 -0.18749999 C -0.2548 -0.1878 -0.2451 -0.1888 -0.2394 -0.1882 Z M -0.1932 -0.4364 C -0.1932 -0.4364 -0.1932 -0.4364 -0.1932 -0.4364 C -0.1954 -0.4558 -0.202 -0.4648 -0.20680001 -0.4687 C -0.20610002 -0.4649 -0.2055 -0.4598 -0.2055 -0.4542 C -0.2055 -0.449 -0.206 -0.4433 -0.20750001 -0.4376 L -0.208 -0.43589997 C -0.2026 -0.4374 -0.1975 -0.4375 -0.1932 -0.4364 Z M -0.2483 -0.4085 C -0.2463 -0.4116 -0.2439 -0.41469997 -0.2409 -0.41759998 L -0.24409999 -0.41869998 C -0.2572 -0.42159998 -0.26529998 -0.42079997 -0.2701 -0.4193 C -0.2642 -0.4175 -0.2562 -0.4145 -0.24939999 -0.4093 L -0.2483 -0.4085 Z M 0.1921 -0.3609 C 0.1976 -0.3601 0.21000001 -0.3702 0.2045 -0.372 C 0.20220001 -0.37280002 0.2018 -0.3657 0.19420001 -0.3662 C 0.193 -0.3665 0.1894 -0.3645 0.1896 -0.3623 C 0.1896 -0.3612 0.1909 -0.3611 0.1921 -0.3609 Z M -0.2255 -0.4291 C -0.2211 -0.43150002 -0.2167 -0.43330002 -0.2124 -0.4345 L -0.21370001 -0.437 C -0.2213 -0.4522 -0.22940001 -0.4585 -0.23510002 -0.4611 C -0.23100002 -0.4544 -0.22590001 -0.44410002 -0.22560002 -0.4323 L -0.2255 -0.4291 Z M -0.2383 -0.4201 C -0.2373 -0.4212 -0.2329 -0.4246 -0.2298 -0.4266 C -0.2294 -0.4269 -0.229 -0.4271 -0.2286 -0.4273 L -0.2312 -0.4298 C -0.2393 -0.43760002 -0.2473 -0.4405 -0.2534 -0.4415 C -0.2434 -0.4338 -0.2389 -0.4216 -0.2383 -0.4201 Z M -0.2431 0.3021 C -0.2384 0.3036 -0.23120001 0.306 -0.2226 0.3098 L -0.2164 0.3125 C -0.21509999 0.3073 -0.2132 0.3028 -0.2105 0.2994 C -0.228 0.2958 -0.238 0.299 -0.2431 0.3021 Z M -0.2129 0.348 C -0.2131 0.34759998 -0.21339999 0.3471 -0.2136 0.34669998 C -0.2155 0.3423 -0.21669999 0.33769998 -0.2174 0.3331 L -0.2231 0.33609998 C -0.23750001 0.34359998 -0.2421 0.35119998 -0.24350001 0.35599998 C -0.23770002 0.3532 -0.2281 0.34929997 -0.21810001 0.34839997 L -0.2129 0.348 Z M 0.1154 0.4443 C 0.1154 0.44439998 0.1154 0.4445 0.1154 0.4445 C 0.1176 0.4593 0.124400005 0.4675 0.1287 0.4704 C 0.1287 0.46920002 0.1286 0.4671 0.1286 0.4671 C 0.1286 0.4609 0.1295 0.4519 0.1353 0.444 C 0.1298 0.4459 0.1228 0.4461 0.1154 0.4443 Z M 0.0849 0.454 C 0.0849 0.4573 0.085599996 0.4603 0.0868 0.463 C 0.0924 0.455 0.100600004 0.4439 0.1088 0.4419 C 0.1026 0.4397 0.0968 0.43620002 0.091900006 0.4316 C 0.0918 0.4319 0.0849 0.4428 0.0849 0.454 Z M 0.0751 0.4077 C 0.0751 0.4077 0.075899996 0.4078 0.0765 0.4079 C 0.0738 0.4019 0.0722 0.3961 0.0716 0.3905 C 0.0711 0.3906 0.070099995 0.39090002 0.068299994 0.39130002 C 0.06809999 0.39130002 0.049999993 0.39570004 0.043799996 0.41200003 C 0.06 0.4061 0.0745 0.4077 0.0751 0.4077 Z M 0.0822 0.42 C 0.0822 0.42 0.0822 0.42 0.0797 0.41529998 C 0.0797 0.41529998 0.0788 0.41349998 0.0783 0.41269997 C 0.078 0.41289997 0.0775 0.41329998 0.0767 0.41389996 C 0.0765 0.41399994 0.0606 0.42569995 0.0599 0.44219995 C 0.0724 0.43169993 0.0843 0.42779994 0.0873 0.42699996 C 0.0855 0.4249 0.0837 0.4226 0.0822 0.42 Z M 0.1926 -0.3549 C 0.1926 -0.3549 0.1892 -0.3545 0.1894 -0.3524 C 0.1896 -0.3502 0.1921 -0.3499 0.1921 -0.3499 S 0.20570001 -0.34600002 0.20920001 -0.3616 C 0.2069 -0.3541 0.1926 -0.3549 0.1926 -0.3549 Z M 0.1314 -0.3979 C 0.118700005 -0.399 0.093600005 -0.39569998 0.093600005 -0.39569998 S 0.13280001 -0.4141 0.13080001 -0.41619998 V -0.41619998 C 0.12940001 -0.41759998 0.086200014 -0.40139997 0.08530001 -0.39339998 C 0.08520001 -0.3927 0.08610001 -0.39069998 0.088400014 -0.39119998 C 0.09000001 -0.39159998 0.11150001 -0.3938 0.12790002 -0.3929 C 0.13430002 -0.39249998 0.13990001 -0.3911 0.14330003 -0.3897 C 0.14770003 -0.3879 0.15390003 -0.3886 0.15410003 -0.3906 C 0.1543 -0.3926 0.1384 -0.3973 0.1314 -0.3979 Z M 0.0715 0.3861 C 0.0715 0.3857 0.0714 0.3854 0.0714 0.3851 C 0.0714 0.3786 0.0734 0.3734 0.0772 0.3696 C 0.0684 0.368 0.053100005 0.3669 0.0417 0.3751 C 0.053200003 0.37719998 0.0675 0.38419998 0.0692 0.385 C 0.0691 0.3849 0.0706 0.3857 0.0715 0.3861 Z M -0.2029 0.3696 C -0.2052 0.375 -0.2063 0.3797 -0.2063 0.3838 C -0.2063 0.3868 -0.20560001 0.3895 -0.2044 0.3919 C -0.1952 0.3795 -0.1891 0.375 -0.1842 0.3736 C -0.1897 0.3714 -0.1954 0.36810002 -0.20030001 0.36380002 L -0.2029 0.3696 Z M -0.2113 0.351 L -0.2156 0.35430002 C -0.2213 0.35860002 -0.2258 0.36660004 -0.2258 0.37360004 C -0.2258 0.37420005 -0.22569999 0.37480003 -0.22559999 0.37530005 C -0.21859999 0.37010005 -0.20939998 0.36600006 -0.20729999 0.36510006 L -0.2015 0.36260006 C -0.2053 0.3593 -0.2087 0.3553 -0.2113 0.351 Z M 0.0077 -0.3195 C 0.0083 -0.3213 0.009 -0.3229 0.0097 -0.3241 L 0.0113 -0.3272 L 0.013900001 -0.32479998 C 0.014900001 -0.3238 0.015800001 -0.32259998 0.016600002 -0.32119998 C 0.020200001 -0.32189998 0.024200002 -0.3227 0.028 -0.3234 C 0.0282 -0.32389998 0.0284 -0.32439998 0.028600002 -0.32479998 L 0.030500002 -0.3288 L 0.0331 -0.32529998 C 0.0333 -0.32509997 0.0335 -0.32479998 0.033600003 -0.32449996 C 0.0373 -0.32519996 0.040400002 -0.32569996 0.042100005 -0.32589996 C 0.047800004 -0.32659996 0.06570001 -0.32449996 0.0731 -0.32359996 C 0.0731 -0.32359996 0.075500004 -0.32329997 0.0763 -0.32319996 C 0.0766 -0.32469997 0.0772 -0.32729995 0.0775 -0.32869995 C 0.0766 -0.32899994 0.0741 -0.32959995 0.0741 -0.32959995 C 0.067200005 -0.33159995 0.0439 -0.33829996 0.033400003 -0.33799994 C 0.026700003 -0.33789995 0.018500004 -0.33679995 0.009900004 -0.33569995 C -0.005599996 -0.33369994 -0.021699995 -0.33159995 -0.033699997 -0.33419994 C -0.047699995 -0.33729994 -0.060299996 -0.35089993 -0.066199996 -0.35819992 C -0.0676 -0.35479993 -0.06909999 -0.35049993 -0.06909999 -0.34569994 C -0.06909999 -0.34279993 -0.06859999 -0.34009993 -0.067499995 -0.33769995 C -0.06339999 -0.32819995 -0.051299997 -0.32179993 -0.031599995 -0.31879994 C -0.020099994 -0.31699994 -0.007899994 -0.31709993 0.005700007 -0.31909993 C 0.0057 -0.3191 0.0065 -0.3193 0.0077 -0.3195 Z M 0.0568 0.096 C 0.052500002 0.0863 0.0466 0.0774 0.0436 0.0722 C 0.021 0.0639 0.0055 0.0683 0.0055 0.0683 S 0.0481 0.0865 0.0568 0.096 Z M -0.2176 0.331 C -0.2182 0.3257 -0.21800001 0.3205 -0.21710001 0.3157 L -0.22370002 0.3162 C -0.23800002 0.3173 -0.24490002 0.32299998 -0.24800001 0.3272 C -0.24260001 0.3272 -0.23390001 0.3277 -0.2239 0.3298 L -0.2176 0.331 Z"/>
<path id="e3" d="M 0.0145 -0.3639 C 0.013599999 -0.361 0.011299999 -0.3558 0.0069999998 -0.3491 C 0.0050999997 -0.3532 0.0045 -0.3568 0.0045 -0.3597 C 0.0045 -0.3615 0.0047 -0.3629 0.0048999996 -0.364 C 0.0076 -0.3638 0.0111 -0.3641 0.0145 -0.3639 Z M 0.0237 -0.3641 C 0.0236 -0.3632 0.023500001 -0.3621 0.023500001 -0.3609 C 0.023500001 -0.35720003 0.024 -0.35250002 0.026 -0.3483 C 0.0305 -0.3538 0.0326 -0.36020002 0.0335 -0.3639 C 0.0301 -0.3639 0.0267 -0.3639 0.0237 -0.3641 Z M -0.2074 -0.4233 C -0.21499999 -0.4032 -0.20459999 -0.3813 -0.2012 -0.3596 C -0.19749999 -0.3359 -0.19919999 -0.3165 -0.2137 -0.31710002 C -0.2163 -0.31710002 -0.2162 -0.31410003 -0.2147 -0.31410003 C -0.2019 -0.31440002 -0.1987 -0.32060003 -0.1962 -0.32880002 C -0.1868 -0.3632 -0.2083 -0.3965 -0.2074 -0.4233 Z M 0.1268 -0.3876 C 0.1284 -0.3864 0.1295 -0.3845 0.1295 -0.38230002 C 0.1295 -0.37870002 0.1266 -0.3758 0.123 -0.3758 C 0.1194 -0.3758 0.116500005 -0.37870002 0.116500005 -0.38230002 C 0.116500005 -0.38470003 0.1177 -0.38670003 0.119600005 -0.3878 C 0.1137 -0.3865 0.1084 -0.38230002 0.1084 -0.3801 C 0.1084 -0.3774 0.1157 -0.37190002 0.122700006 -0.3716 C 0.1294 -0.3714 0.136 -0.3776 0.136 -0.3797 C 0.1361 -0.3815 0.1319 -0.3859 0.1268 -0.3876 Z M 0.012 -0.3229 C 0.0105 -0.3201 0.0093 -0.3167 0.0093 -0.313 C 0.0093 -0.3125 0.0093 -0.3119 0.0094 -0.3114 C 0.0116 -0.3114 0.014599999 -0.3113 0.018 -0.3112 C 0.0178 -0.3118 0.0176 -0.31239998 0.017299999 -0.313 C 0.0157 -0.317 0.0143 -0.3207 0.012 -0.3229 Z M 0.031 -0.3238 C 0.0299 -0.3216 0.028299998 -0.3172 0.0282 -0.3111 C 0.0313 -0.3111 0.0344 -0.31100002 0.0374 -0.31100002 C 0.0371 -0.31160003 0.0369 -0.31230003 0.0366 -0.3129 C 0.0349 -0.3168 0.0332 -0.3208 0.031 -0.3238 Z"/>
<linearGradient id="glaze" x1="0%" y1="0%" x2="100%" y2="100%">
<stop offset="0%" stop-color="rgb(255,255,255)" stop-opacity="0.2"/>
<stop offset="49.999%" stop-color="rgb(255,255,255)" stop-opacity="0.0"/>
<stop offset="50.001%" stop-color="rgb(0,0,0)" stop-opacity="0.0"/>
<stop offset="100%" stop-color="rgb(0,0,0)" stop-opacity="0.2"/>
</linearGradient>
</defs>
<g>
<rect x="0" y="0" width="720" height="360" class="white"/>
<use xlink:href="#e1" transform="translate(360 180) scale(360 360) rotate(0)" class="black"/>
<use xlink:href="#e2" transform="translate(360 180) scale(360 360) rotate(0)" class="red"/>
<use xlink:href="#e3" transform="translate(360 180) scale(360 360) rotate(0)" class="white"/>
</g>
<g>
<rect x="0" y="0" width="720" height="360" fill="url(#glaze)"/>
<path d="M 30 30 L 690 30 L 690 330 L 30 330 Z M 60 60 L 60 300 L 660 300 L 660 60 Z" fill="rgb(255,255,255)" opacity="0.4"/>
<path d="M 0 0 L 720 0 L 720 360 L 0 360 Z M 30 30 L 30 330 L 690 330 L 690 30 Z" fill="rgb(0,0,0)" opacity="0.4"/>
</g>
</svg>
