<?xml version="1.0"?>
<svg xmlns="http://www.w3.org/2000/svg" xmlns:xlink="http://www.w3.org/1999/xlink" version="1.1" width="720" height="360" viewBox="0 0 720 360">
<!-- Generated by Kreative Vexillo v1.0 -->
<style>
.green{fill:rgb(0,155,72);}
.red{fill:rgb(213,43,30);}
.white{fill:rgb(255,255,255);}
</style>
<defs>
<linearGradient id="glaze" x1="0%" y1="0%" x2="100%" y2="100%">
<stop offset="0%" stop-color="rgb(255,255,255)" stop-opacity="0.2"/>
<stop offset="49.999%" stop-color="rgb(255,255,255)" stop-opacity="0.0"/>
<stop offset="50.001%" stop-color="rgb(0,0,0)" stop-opacity="0.0"/>
<stop offset="100%" stop-color="rgb(0,0,0)" stop-opacity="0.2"/>
</linearGradient>
</defs>
<g>
<rect x="0" y="0" width="720" height="360" class="red"/>
<path d="M 0 0 L 0 30.9057 L 0 30.9057 L 298.1887 180 L 298.1887 180 L 0 329.0943 L 0 360 L 61.8113 360 L 360 210.9057 L 360 210.9057 L 658.1887 360 L 720 360 L 720 329.0943 L 720 329.0943 L 421.8113 180 L 421.8113 180 L 720 30.9057 L 720 0 L 658.1887 0 L 360 149.0943 L 360 149.0943 L 61.8113 0 Z" class="green"/>
<g>
<rect x="0" y="152.3571" width="720" height="55.2857" class="white"/>
<rect x="332.3571" y="0" width="55.2857" height="360" class="white"/>
</g>
</g>
<g>
<rect x="0" y="0" width="720" height="360" fill="url(#glaze)"/>
<path d="M 30 30 L 690 30 L 690 330 L 30 330 Z M 60 60 L 60 300 L 660 300 L 660 60 Z" fill="rgb(255,255,255)" opacity="0.4"/>
<path d="M 0 0 L 720 0 L 720 360 L 0 360 Z M 30 30 L 30 330 L 690 330 L 690 30 Z" fill="rgb(0,0,0)" opacity="0.4"/>
</g>
</svg>
