<?xml version="1.0"?>
<svg xmlns="http://www.w3.org/2000/svg" xmlns:xlink="http://www.w3.org/1999/xlink" version="1.1" width="720" height="360" viewBox="0 0 720 360">
<!-- Generated by Kreative Vexillo v1.0 -->
<style>
.red{fill:rgb(255,0,0);}
.white{fill:rgb(255,255,255);}
</style>
<defs>
<path id="petal" d="M 0.0 0.0 C -0.3509 -0.1483 -0.1953 -0.6053 0.1402 -0.5823 C 0.0723 -0.5474 0.06250001 -0.4823 0.1012 -0.422 C 0.1446 -0.3545 0.0972 -0.24579999 0.038499996 -0.21939999 C -0.057900004 -0.17599998 -0.077300005 -0.06019999 -1.0000542E-4 1.4901161E-8 Z"/>
<path id="star" d="M -0.0191 -0.3303 L -0.0388 -0.29930001 L -0.045900002 -0.33530003 L -0.0815 -0.34450004 L -0.0494 -0.36250004 L -0.0516 -0.39920005 L -0.024600001 -0.37420005 L 0.0096 -0.38770005 L -0.0057999995 -0.35430005 L 0.0175 -0.32590005 Z"/>
<path id="trace" d="M 0.0019 -0.0041 C -0.0405 -0.0259 -0.0748 -0.0713 -0.0897 -0.1255 C -0.1067 -0.18769999 -0.0969 -0.2546 -0.0628 -0.30900002 L -0.070199996 -0.3136 C -0.1057 -0.2572 -0.11579999 -0.1878 -0.09819999 -0.1232 C -0.082399994 -0.065799996 -0.047499992 -0.019500002 -0.0021999925 0.003700003 Z"/>
<linearGradient id="glaze" x1="0%" y1="0%" x2="100%" y2="100%">
<stop offset="0%" stop-color="rgb(255,255,255)" stop-opacity="0.2"/>
<stop offset="49.999%" stop-color="rgb(255,255,255)" stop-opacity="0.0"/>
<stop offset="50.001%" stop-color="rgb(0,0,0)" stop-opacity="0.0"/>
<stop offset="100%" stop-color="rgb(0,0,0)" stop-opacity="0.2"/>
</linearGradient>
</defs>
<g>
<rect x="0" y="0" width="720" height="360" class="red"/>
<g>
<use xlink:href="#petal" transform="translate(360 180) scale(180 180) rotate(0)" class="white"/>
<use xlink:href="#star" transform="translate(360 180) scale(180 180) rotate(0)" class="red"/>
<use xlink:href="#trace" transform="translate(360 180) scale(180 180) rotate(0)" class="red"/>
<use xlink:href="#petal" transform="translate(360 180) scale(180 180) rotate(72)" class="white"/>
<use xlink:href="#star" transform="translate(360 180) scale(180 180) rotate(72)" class="red"/>
<use xlink:href="#trace" transform="translate(360 180) scale(180 180) rotate(72)" class="red"/>
<use xlink:href="#petal" transform="translate(360 180) scale(180 180) rotate(144)" class="white"/>
<use xlink:href="#star" transform="translate(360 180) scale(180 180) rotate(144)" class="red"/>
<use xlink:href="#trace" transform="translate(360 180) scale(180 180) rotate(144)" class="red"/>
<use xlink:href="#petal" transform="translate(360 180) scale(180 180) rotate(216)" class="white"/>
<use xlink:href="#star" transform="translate(360 180) scale(180 180) rotate(216)" class="red"/>
<use xlink:href="#trace" transform="translate(360 180) scale(180 180) rotate(216)" class="red"/>
<use xlink:href="#petal" transform="translate(360 180) scale(180 180) rotate(288)" class="white"/>
<use xlink:href="#star" transform="translate(360 180) scale(180 180) rotate(288)" class="red"/>
<use xlink:href="#trace" transform="translate(360 180) scale(180 180) rotate(288)" class="red"/>
</g>
</g>
<g>
<rect x="0" y="0" width="720" height="360" fill="url(#glaze)"/>
<path d="M 30 30 L 690 30 L 690 330 L 30 330 Z M 60 60 L 60 300 L 660 300 L 660 60 Z" fill="rgb(255,255,255)" opacity="0.4"/>
<path d="M 0 0 L 720 0 L 720 360 L 0 360 Z M 30 30 L 30 330 L 690 330 L 690 30 Z" fill="rgb(0,0,0)" opacity="0.4"/>
</g>
</svg>
