<?xml version="1.0"?>
<svg xmlns="http://www.w3.org/2000/svg" xmlns:xlink="http://www.w3.org/1999/xlink" version="1.1" width="720" height="360" viewBox="0 0 720 360">
<!-- Generated by Kreative Vexillo v1.0 -->
<style>
.blue{fill:rgb(30,33,113);}
.green{fill:rgb(73,169,66);}
.orange{fill:rgb(251,181,104);}
.white{fill:rgb(255,255,255);}
</style>
<defs>
<path id="disc" d="M 0.5 0.0 A 0.5 0.5 0.0 0 0 -0.5 0.0 A 0.5 0.5 0.0 0 0 0.5 0.0 Z"/>
<path id="spoke" d="M 0.0 1.0 L 0.0343 0.4 C 0.0343 0.4 0.0 0.1143 0.0 0.1143 C 0.0 0.1143 -0.0343 0.4 -0.0343 0.4 L 0.0 1.0 Z"/>
<linearGradient id="glaze" x1="0%" y1="0%" x2="100%" y2="100%">
<stop offset="0%" stop-color="rgb(255,255,255)" stop-opacity="0.2"/>
<stop offset="49.999%" stop-color="rgb(255,255,255)" stop-opacity="0.0"/>
<stop offset="50.001%" stop-color="rgb(0,0,0)" stop-opacity="0.0"/>
<stop offset="100%" stop-color="rgb(0,0,0)" stop-opacity="0.2"/>
</linearGradient>
</defs>
<g>
<g>
<rect x="0" y="0" width="720" height="120" class="orange"/>
<rect x="0" y="120" width="720" height="120" class="white"/>
<rect x="0" y="240" width="720" height="120" class="green"/>
</g>
<ellipse cx="360" cy="180" rx="48" ry="48" class="blue"/>
<ellipse cx="360" cy="180" rx="42" ry="42" class="white"/>
<ellipse cx="360" cy="180" rx="8.4" ry="8.4" class="blue"/>
<g>
<use xlink:href="#spoke" transform="translate(360 180) scale(42 42) rotate(0)" class="blue"/>
<use xlink:href="#spoke" transform="translate(360 180) scale(42 42) rotate(15)" class="blue"/>
<use xlink:href="#spoke" transform="translate(360 180) scale(42 42) rotate(30)" class="blue"/>
<use xlink:href="#spoke" transform="translate(360 180) scale(42 42) rotate(45)" class="blue"/>
<use xlink:href="#spoke" transform="translate(360 180) scale(42 42) rotate(60)" class="blue"/>
<use xlink:href="#spoke" transform="translate(360 180) scale(42 42) rotate(75)" class="blue"/>
<use xlink:href="#spoke" transform="translate(360 180) scale(42 42) rotate(90)" class="blue"/>
<use xlink:href="#spoke" transform="translate(360 180) scale(42 42) rotate(105)" class="blue"/>
<use xlink:href="#spoke" transform="translate(360 180) scale(42 42) rotate(120)" class="blue"/>
<use xlink:href="#spoke" transform="translate(360 180) scale(42 42) rotate(135)" class="blue"/>
<use xlink:href="#spoke" transform="translate(360 180) scale(42 42) rotate(150)" class="blue"/>
<use xlink:href="#spoke" transform="translate(360 180) scale(42 42) rotate(165)" class="blue"/>
<use xlink:href="#spoke" transform="translate(360 180) scale(42 42) rotate(180)" class="blue"/>
<use xlink:href="#spoke" transform="translate(360 180) scale(42 42) rotate(195)" class="blue"/>
<use xlink:href="#spoke" transform="translate(360 180) scale(42 42) rotate(210)" class="blue"/>
<use xlink:href="#spoke" transform="translate(360 180) scale(42 42) rotate(225)" class="blue"/>
<use xlink:href="#spoke" transform="translate(360 180) scale(42 42) rotate(240)" class="blue"/>
<use xlink:href="#spoke" transform="translate(360 180) scale(42 42) rotate(255)" class="blue"/>
<use xlink:href="#spoke" transform="translate(360 180) scale(42 42) rotate(270)" class="blue"/>
<use xlink:href="#spoke" transform="translate(360 180) scale(42 42) rotate(285)" class="blue"/>
<use xlink:href="#spoke" transform="translate(360 180) scale(42 42) rotate(300)" class="blue"/>
<use xlink:href="#spoke" transform="translate(360 180) scale(42 42) rotate(315)" class="blue"/>
<use xlink:href="#spoke" transform="translate(360 180) scale(42 42) rotate(330)" class="blue"/>
<use xlink:href="#spoke" transform="translate(360 180) scale(42 42) rotate(345)" class="blue"/>
</g>
<g>
<use xlink:href="#disc" transform="translate(365.4821 221.6407) scale(4.8 4.8) rotate(0)" class="blue"/>
<use xlink:href="#disc" transform="translate(376.0727 218.8029) scale(4.8 4.8) rotate(0)" class="blue"/>
<use xlink:href="#disc" transform="translate(385.568 213.3208) scale(4.8 4.8) rotate(0)" class="blue"/>
<use xlink:href="#disc" transform="translate(393.3208 205.568) scale(4.8 4.8) rotate(0)" class="blue"/>
<use xlink:href="#disc" transform="translate(398.8029 196.0727) scale(4.8 4.8) rotate(0)" class="blue"/>
<use xlink:href="#disc" transform="translate(401.6407 185.4821) scale(4.8 4.8) rotate(0)" class="blue"/>
<use xlink:href="#disc" transform="translate(401.6407 174.5179) scale(4.8 4.8) rotate(0)" class="blue"/>
<use xlink:href="#disc" transform="translate(398.8029 163.9273) scale(4.8 4.8) rotate(0)" class="blue"/>
<use xlink:href="#disc" transform="translate(393.3208 154.432) scale(4.8 4.8) rotate(0)" class="blue"/>
<use xlink:href="#disc" transform="translate(385.568 146.6792) scale(4.8 4.8) rotate(0)" class="blue"/>
<use xlink:href="#disc" transform="translate(376.0727 141.1971) scale(4.8 4.8) rotate(0)" class="blue"/>
<use xlink:href="#disc" transform="translate(365.4821 138.3593) scale(4.8 4.8) rotate(0)" class="blue"/>
<use xlink:href="#disc" transform="translate(354.5179 138.3593) scale(4.8 4.8) rotate(0)" class="blue"/>
<use xlink:href="#disc" transform="translate(343.9273 141.1971) scale(4.8 4.8) rotate(0)" class="blue"/>
<use xlink:href="#disc" transform="translate(334.432 146.6792) scale(4.8 4.8) rotate(0)" class="blue"/>
<use xlink:href="#disc" transform="translate(326.6792 154.432) scale(4.8 4.8) rotate(0)" class="blue"/>
<use xlink:href="#disc" transform="translate(321.1971 163.9273) scale(4.8 4.8) rotate(0)" class="blue"/>
<use xlink:href="#disc" transform="translate(318.3593 174.5179) scale(4.8 4.8) rotate(0)" class="blue"/>
<use xlink:href="#disc" transform="translate(318.3593 185.4821) scale(4.8 4.8) rotate(0)" class="blue"/>
<use xlink:href="#disc" transform="translate(321.1971 196.0727) scale(4.8 4.8) rotate(0)" class="blue"/>
<use xlink:href="#disc" transform="translate(326.6792 205.568) scale(4.8 4.8) rotate(0)" class="blue"/>
<use xlink:href="#disc" transform="translate(334.432 213.3208) scale(4.8 4.8) rotate(0)" class="blue"/>
<use xlink:href="#disc" transform="translate(343.9273 218.8029) scale(4.8 4.8) rotate(0)" class="blue"/>
<use xlink:href="#disc" transform="translate(354.5179 221.6407) scale(4.8 4.8) rotate(0)" class="blue"/>
</g>
</g>
<g>
<rect x="0" y="0" width="720" height="360" fill="url(#glaze)"/>
<path d="M 30 30 L 690 30 L 690 330 L 30 330 Z M 60 60 L 60 300 L 660 300 L 660 60 Z" fill="rgb(255,255,255)" opacity="0.4"/>
<path d="M 0 0 L 720 0 L 720 360 L 0 360 Z M 30 30 L 30 330 L 690 330 L 690 30 Z" fill="rgb(0,0,0)" opacity="0.4"/>
</g>
</svg>
