<?xml version="1.0"?>
<svg xmlns="http://www.w3.org/2000/svg" xmlns:xlink="http://www.w3.org/1999/xlink" version="1.1" width="720" height="360" viewBox="0 0 720 360">
<!-- Generated by Kreative Vexillo v1.0 -->
<style>
.green{fill:rgb(0,153,0);}
.white{fill:rgb(255,255,255);}
</style>
<defs>
<path id="e" d="M 0.8342 -0.5137 L 0.6348 -0.4677 L 0.226 0.1053 L 0.1921 0.0709 L 0.5647 -0.4514 L -0.1752 -0.2807 C -0.0859 -0.2575 -0.0069 -0.205 0.049 -0.1315 L 0.0232 -0.0953 L 0.0232 -0.095 C -0.0436 -0.1897 -0.1538 -0.2516 -0.2781 -0.2516 C -0.4814 -0.2516 -0.64680004 -0.0862 -0.64680004 0.11720002 S -0.48140004 0.48600003 -0.27800003 0.48600003 C -0.13290003 0.48600003 -0.007100016 0.40170002 0.052999973 0.27960002 L 0.052999973 0.2797 L 0.081299976 0.30850002 L 0.0252 0.3869 C -0.012100002 0.42880002 -0.0576 0.4625 -0.1086 0.486 H 0.1211 L 0.1777 0.40670002 L 0.2427 0.47280002 L 0.3875 0.2697 L 0.3225 0.20359999 L 0.8342 -0.5137 Z M -0.2781 0.2391 C -0.34530002 0.2391 -0.4 0.18439999 -0.4 0.117199995 S -0.34530002 -0.004700005 -0.2781 -0.004700005 S -0.15620002 0.049999993 -0.15620002 0.117199995 S -0.2109 0.2391 -0.2781 0.2391 Z"/>
<linearGradient id="glaze" x1="0%" y1="0%" x2="100%" y2="100%">
<stop offset="0%" stop-color="rgb(255,255,255)" stop-opacity="0.2"/>
<stop offset="49.999%" stop-color="rgb(255,255,255)" stop-opacity="0.0"/>
<stop offset="50.001%" stop-color="rgb(0,0,0)" stop-opacity="0.0"/>
<stop offset="100%" stop-color="rgb(0,0,0)" stop-opacity="0.2"/>
</linearGradient>
</defs>
<g>
<rect x="0" y="0" width="720" height="360" class="green"/>
<use xlink:href="#e" transform="translate(360 180) scale(223.6893 223.6893) rotate(0)" class="white"/>
</g>
<g>
<rect x="0" y="0" width="720" height="360" fill="url(#glaze)"/>
<path d="M 30 30 L 690 30 L 690 330 L 30 330 Z M 60 60 L 60 300 L 660 300 L 660 60 Z" fill="rgb(255,255,255)" opacity="0.4"/>
<path d="M 0 0 L 720 0 L 720 360 L 0 360 Z M 30 30 L 30 330 L 690 330 L 690 30 Z" fill="rgb(0,0,0)" opacity="0.4"/>
</g>
</svg>
