<?xml version="1.0"?>
<svg xmlns="http://www.w3.org/2000/svg" xmlns:xlink="http://www.w3.org/1999/xlink" version="1.1" width="720" height="360" viewBox="0 0 720 360">
<!-- Generated by Kreative Vexillo v1.0 -->
<style>
.blue{fill:rgb(0,36,125);}
.red{fill:rgb(207,20,43);}
.white{fill:rgb(255,255,255);}
.yellow{fill:rgb(252,209,22);}
</style>
<defs>
<path id="star" d="M 0.0 -1.0 L 0.2245 -0.309 L 0.9511 -0.309 L 0.3633 0.118 L 0.5878 0.809 L 0.0 0.382 L -0.5878 0.809 L -0.3633 0.118 L -0.9511 -0.309 L -0.2245 -0.309 Z"/>
<clipPath id="clip0">
<path d="M 0 0 L 0 13.4164 L 0 13.4164 L 153.1672 90 L 0 166.5836 L 0 180 L 26.8328 180 L 180 103.4164 L 180 103.4164 L 333.1672 180 L 360 180 L 360 166.5836 L 206.8328 90 L 206.8328 90 L 360 13.4164 L 360 0 L 333.1672 0 L 180 76.5836 L 180 76.5836 L 26.8328 0 Z"/>
</clipPath>
<linearGradient id="glaze" x1="0%" y1="0%" x2="100%" y2="100%">
<stop offset="0%" stop-color="rgb(255,255,255)" stop-opacity="0.2"/>
<stop offset="49.999%" stop-color="rgb(255,255,255)" stop-opacity="0.0"/>
<stop offset="50.001%" stop-color="rgb(0,0,0)" stop-opacity="0.0"/>
<stop offset="100%" stop-color="rgb(0,0,0)" stop-opacity="0.2"/>
</linearGradient>
</defs>
<g>
<rect x="0" y="0" width="720" height="360" class="yellow"/>
<g>
<rect x="0" y="0" width="360" height="180" class="blue"/>
<path d="M 0 0 L 0 20.1246 L 0 20.1246 L 139.7508 90 L 139.7508 90 L 0 159.8754 L 0 180 L 40.2492 180 L 180 110.1246 L 180 110.1246 L 319.7508 180 L 360 180 L 360 159.8754 L 220.2492 90 L 220.2492 90 L 360 20.1246 L 360 0 L 319.7508 0 L 180 69.8754 L 180 69.8754 L 40.2492 0 Z" class="white"/>
<g clip-path="url(#clip0)">
<path d="M 0 0 L 180 90 L 0 90 Z" class="red"/>
<path d="M 360 0 L 180 90 L 180 0 Z" class="red"/>
<path d="M 0 180 L 180 90 L 180 180 Z" class="red"/>
<path d="M 360 180 L 180 90 L 360 90 Z" class="red"/>
</g>
<g>
<rect x="0" y="60" width="360" height="60" class="white"/>
<rect x="150" y="0" width="60" height="180" class="white"/>
</g>
<g>
<rect x="0" y="72" width="360" height="36" class="red"/>
<rect x="162" y="0" width="36" height="180" class="red"/>
</g>
</g>
<g>
<ellipse cx="180" cy="90" rx="30" ry="30" class="blue"/>
<use xlink:href="#star" transform="translate(180 90) scale(30 30) rotate(0)" class="yellow"/>
<use xlink:href="#star" transform="translate(75 91.062) scale(18 18) rotate(0)" class="yellow"/>
<use xlink:href="#star" transform="translate(285 91.062) scale(18 18) rotate(0)" class="yellow"/>
<use xlink:href="#star" transform="translate(180 31.062) scale(18 18) rotate(0)" class="yellow"/>
<use xlink:href="#star" transform="translate(180 151.062) scale(18 18) rotate(0)" class="yellow"/>
</g>
</g>
<g>
<rect x="0" y="0" width="720" height="360" fill="url(#glaze)"/>
<path d="M 30 30 L 690 30 L 690 330 L 30 330 Z M 60 60 L 60 300 L 660 300 L 660 60 Z" fill="rgb(255,255,255)" opacity="0.4"/>
<path d="M 0 0 L 720 0 L 720 360 L 0 360 Z M 30 30 L 30 330 L 690 330 L 690 30 Z" fill="rgb(0,0,0)" opacity="0.4"/>
</g>
</svg>
