<?xml version="1.0"?>
<svg xmlns="http://www.w3.org/2000/svg" xmlns:xlink="http://www.w3.org/1999/xlink" version="1.1" width="720" height="360" viewBox="0 0 720 360">
<!-- Generated by Kreative Vexillo v1.0 -->
<style>
.b{fill:rgb(15,71,175);}
.c{fill:rgb(137,197,227);}
.g{fill:rgb(7,137,48);}
.o{fill:rgb(235,119,17);}
.r{fill:rgb(218,18,26);}
.v{fill:rgb(116,44,100);}
.y{fill:rgb(252,221,9);}
</style>
<defs>
<linearGradient id="glaze" x1="0%" y1="0%" x2="100%" y2="100%">
<stop offset="0%" stop-color="rgb(255,255,255)" stop-opacity="0.2"/>
<stop offset="49.999%" stop-color="rgb(255,255,255)" stop-opacity="0.0"/>
<stop offset="50.001%" stop-color="rgb(0,0,0)" stop-opacity="0.0"/>
<stop offset="100%" stop-color="rgb(0,0,0)" stop-opacity="0.2"/>
</linearGradient>
</defs>
<g>
<g>
<rect x="0" y="0" width="720" height="51.4286" class="r"/>
<rect x="0" y="51.4286" width="720" height="51.4286" class="o"/>
<rect x="0" y="102.8571" width="720" height="51.4286" class="y"/>
<rect x="0" y="154.2857" width="720" height="51.4286" class="g"/>
<rect x="0" y="205.7143" width="720" height="51.4286" class="c"/>
<rect x="0" y="257.1429" width="720" height="51.4286" class="b"/>
<rect x="0" y="308.5714" width="720" height="51.4286" class="v"/>
</g>
</g>
<g>
<rect x="0" y="0" width="720" height="360" fill="url(#glaze)"/>
<path d="M 30 30 L 690 30 L 690 330 L 30 330 Z M 60 60 L 60 300 L 660 300 L 660 60 Z" fill="rgb(255,255,255)" opacity="0.4"/>
<path d="M 0 0 L 720 0 L 720 360 L 0 360 Z M 30 30 L 30 330 L 690 330 L 690 30 Z" fill="rgb(0,0,0)" opacity="0.4"/>
</g>
</svg>
