<?xml version="1.0"?>
<svg xmlns="http://www.w3.org/2000/svg" xmlns:xlink="http://www.w3.org/1999/xlink" version="1.1" width="720" height="360" viewBox="0 0 720 360">
<!-- Generated by Kreative Vexillo v1.0 -->
<style>
.green{fill:rgb(0,108,53);}
.white{fill:rgb(255,255,255);}
</style>
<defs>
<path id="shahada" d="M -0.2069 -0.5276 C -0.2085 -0.5276 -0.2108 -0.5268 -0.214 -0.5248 C -0.2213 -0.5199 -0.2358 -0.5048 -0.2362 -0.4874 C -0.23660001 -0.4776 -0.2385 -0.4776 -0.23210001 -0.4714 C -0.2275 -0.46469998 -0.22280002 -0.46539998 -0.21350001 -0.4703 C -0.2081 -0.4743 -0.2063 -0.4768 -0.2045 -0.4834 C -0.20230001 -0.49449998 -0.21620001 -0.4781 -0.21800001 -0.49049997 C -0.2211 -0.502 -0.21220002 -0.5067 -0.2037 -0.5179 C -0.2035 -0.5231 -0.2034 -0.5274 -0.2068 -0.5275 Z M -0.070700005 -0.5268 C -0.073300004 -0.52639997 -0.076500006 -0.52309996 -0.080900006 -0.515 C -0.08410001 -0.50659996 -0.0978 -0.49379998 -0.087900005 -0.46749997 C -0.0798 -0.45079997 -0.076500006 -0.42369998 -0.08010001 -0.39349997 C -0.085700005 -0.38489997 -0.087000005 -0.38199997 -0.09430001 -0.37339997 C -0.10460001 -0.36229998 -0.11580001 -0.36509997 -0.124400005 -0.36929998 C -0.1324 -0.37469998 -0.13870001 -0.37749997 -0.1424 -0.3947 C -0.1417 -0.42209998 -0.1401 -0.4669 -0.1451 -0.47649997 C -0.1525 -0.49119997 -0.1646 -0.48599997 -0.1698 -0.48149997 C -0.1948 -0.45869997 -0.2071 -0.42009997 -0.2147 -0.38939998 C -0.2216 -0.36699998 -0.229 -0.3735 -0.2342 -0.38249996 C -0.2468 -0.39429995 -0.2477 -0.48679996 -0.2629 -0.47159997 C -0.2873 -0.40179998 -0.2489 -0.32539997 -0.2223 -0.33279997 C -0.2031 -0.32479998 -0.1909 -0.36139998 -0.183 -0.40139997 C -0.1776 -0.41259998 -0.1735 -0.41389996 -0.1707 -0.40809998 C -0.1714 -0.35489997 -0.1669 -0.343 -0.1532 -0.32689998 C -0.1227 -0.30339998 -0.0974 -0.32389998 -0.095400006 -0.3259 C -0.09340001 -0.3279 -0.071600005 -0.3496 -0.071600005 -0.3496 C -0.066300005 -0.3552 -0.059300005 -0.35549998 -0.051800005 -0.35059997 C -0.044500005 -0.34399998 -0.045500007 -0.33259997 -0.029900005 -0.32469997 C -0.016800005 -0.31949997 0.011099996 -0.32339996 0.017599994 -0.33469996 C 0.026299994 -0.34959996 0.028399995 -0.35479996 0.032499995 -0.36039996 C 0.038699996 -0.36869997 0.049399994 -0.36499995 0.049399994 -0.36239997 C 0.048399996 -0.35779998 0.042199995 -0.35319996 0.046399996 -0.34489995 C 0.053799994 -0.33929995 0.055499997 -0.34289995 0.059899997 -0.34409994 C 0.075399995 -0.35149994 0.087 -0.38509995 0.087 -0.38509995 C 0.087699994 -0.39759994 0.0806 -0.39669994 0.076 -0.39409995 C 0.070099995 -0.39049995 0.069699995 -0.38919994 0.0638 -0.38559994 C 0.056199998 -0.38449994 0.0416 -0.37949994 0.0343 -0.39069995 C 0.026899999 -0.40419996 0.0268 -0.42309996 0.0212 -0.43669996 C 0.0212 -0.43769994 0.011299999 -0.45809996 0.020499999 -0.45939997 C 0.025099998 -0.45849997 0.035099998 -0.45599997 0.0366 -0.46429998 C 0.0414 -0.47239998 0.026100002 -0.49529997 0.015700001 -0.50689995 C 0.0067000017 -0.5167999 -0.0057999995 -0.51799995 -0.017899998 -0.50789994 C -0.026399998 -0.50009996 -0.025099996 -0.49139994 -0.026799997 -0.48309994 C -0.028999997 -0.47359994 -0.028499998 -0.46189994 -0.018899998 -0.44929993 C -0.010399997 -0.43259993 0.004900003 -0.41119993 -9.999797E-5 -0.38109994 C -9.999797E-5 -0.38109994 -0.008999998 -0.36669993 -0.024699997 -0.36859995 C -0.031199997 -0.36999995 -0.041899998 -0.37289995 -0.047599997 -0.41469994 C -0.0519 -0.44639993 -0.046499997 -0.49079993 -0.06 -0.51159996 C -0.063 -0.51939994 -0.0656 -0.52709997 -0.07 -0.5265 Z M -0.113800004 -0.52339995 C -0.11790001 -0.52299994 -0.1224 -0.51829994 -0.126 -0.50909996 C -0.1292 -0.50209993 -0.133 -0.46569997 -0.1324 -0.46569997 C -0.1349 -0.45489997 -0.12110001 -0.45029998 -0.114800006 -0.46419996 C -0.1054 -0.48969996 -0.10530001 -0.5006 -0.10470001 -0.5114 C -0.10620001 -0.5197 -0.1098 -0.5236 -0.113800004 -0.5233 Z M 0.045399994 -0.52049994 C 0.041199993 -0.52009994 0.037899993 -0.51769996 0.036599994 -0.51149994 C 0.034899995 -0.49699995 0.035799995 -0.48909995 0.038199995 -0.47699994 C 0.040099993 -0.46889994 0.051799994 -0.45539993 0.057599995 -0.44759995 C 0.0852 -0.41049996 0.1117 -0.37329996 0.1374 -0.33469996 C 0.1414 -0.30609995 0.1444 -0.27809995 0.1463 -0.25019997 C 0.1505 -0.18909997 0.1517 -0.112999976 0.1479 -0.048599973 C 0.1594 -0.048099972 0.1777 -0.06709997 0.1842 -0.09479997 C 0.1884 -0.13319997 0.18270001 -0.21149997 0.1823 -0.23419997 C 0.182 -0.24359997 0.1815 -0.25479996 0.1808 -0.26659998 C 0.2106 -0.21789998 0.2395 -0.16629998 0.2679 -0.10959998 C 0.2782 -0.11449998 0.276 -0.17279997 0.2699 -0.18099998 C 0.2472 -0.22989997 0.21579999 -0.27819997 0.2058 -0.2968 C 0.2022 -0.3035 0.1899 -0.3222 0.1753 -0.34379998 C 0.1726 -0.3746 0.1697 -0.40069997 0.16780001 -0.40859997 C 0.1631 -0.44119996 0.18120001 -0.40489998 0.17870001 -0.42379996 C 0.17280002 -0.45629996 0.15490001 -0.47839996 0.13370001 -0.50819993 C 0.12690002 -0.51789993 0.12700002 -0.5198999 0.11640001 -0.50579995 C 0.11010001 -0.49149996 0.11020001 -0.47959995 0.11200001 -0.46839994 C 0.10920001 -0.47239995 0.10580001 -0.47719994 0.10090001 -0.48309994 C 0.08260001 -0.49879995 0.08150001 -0.49969995 0.066300005 -0.5124999 C 0.061500005 -0.51589996 0.052400004 -0.5210999 0.045400005 -0.52049994 Z M 0.5174 -0.51559997 C 0.51540005 -0.51589996 0.5131 -0.51489997 0.51070005 -0.51119995 C 0.5059 -0.50699997 0.5008001 -0.49939996 0.50100005 -0.48969996 C 0.50220007 -0.47249997 0.5052 -0.45499995 0.50640005 -0.43779996 C 0.50680006 -0.43549997 0.50720006 -0.43319997 0.5077 -0.43089995 C 0.5059 -0.43329996 0.50420004 -0.43509996 0.5033 -0.43599996 C 0.4699 -0.47109997 0.5187 -0.44169995 0.49690002 -0.46889997 C 0.4785 -0.48909998 0.4731 -0.49549997 0.45740002 -0.50759995 C 0.44950002 -0.51269996 0.44470003 -0.52239996 0.44220003 -0.50579995 C 0.44120005 -0.49119994 0.44010004 -0.47429994 0.44110003 -0.46199995 C 0.44100004 -0.45519996 0.44810003 -0.44229996 0.45420003 -0.43469995 C 0.47650003 -0.40729997 0.49930003 -0.37809995 0.52220005 -0.34769994 C 0.52700007 -0.28559995 0.52830005 -0.22869994 0.5332 -0.16659994 C 0.5325 -0.13999994 0.52430004 -0.10469994 0.5166 -0.10139994 C 0.5166 -0.10139994 0.5048 -0.09459994 0.49690002 -0.10209994 C 0.4911 -0.10439994 0.46820003 -0.14049995 0.46820003 -0.14049995 C 0.45640004 -0.15129995 0.44860002 -0.14819995 0.44020003 -0.14049995 C 0.41710004 -0.11819995 0.40660003 -0.07639995 0.39100003 -0.04759995 C 0.38700002 -0.04119995 0.37560004 -0.03569995 0.36290002 -0.04809995 C 0.3307 -0.09209995 0.34950003 -0.15469995 0.34550002 -0.13859995 C 0.31680003 -0.10629995 0.32950002 -0.052699946 0.33600003 -0.041199945 C 0.34550002 -0.022299945 0.35310003 -0.010199945 0.37150002 -7.999465E-4 C 0.3883 0.011500053 0.4013 0.0038000536 0.40850002 -0.0047999467 C 0.42540002 -0.022299947 0.42560002 -0.06699994 0.43350002 -0.07579995 C 0.43910003 -0.09199995 0.453 -0.089199945 0.45980003 -0.08199995 C 0.46640003 -0.07249995 0.47410002 -0.06639995 0.48380002 -0.06119995 C 0.49950004 -0.047299948 0.5183 -0.044799946 0.5368 -0.057399947 C 0.54940003 -0.064499944 0.5576 -0.07369995 0.5651 -0.09189995 C 0.573 -0.11309995 0.5691 -0.22449994 0.56740004 -0.28639996 C 0.57930005 -0.26969996 0.591 -0.25259995 0.60270005 -0.23529996 C 0.60780007 -0.18089996 0.61010003 -0.12739995 0.60850006 -0.07609996 C 0.60730004 -0.06589996 0.64410007 -0.106599964 0.64390004 -0.12589997 C 0.64370006 -0.14279997 0.64390004 -0.15799996 0.64390004 -0.17229997 C 0.6618 -0.14379996 0.67910004 -0.11479996 0.69540006 -0.08539996 C 0.70550007 -0.090799965 0.70210004 -0.14809996 0.69570005 -0.15599996 C 0.6786001 -0.18469995 0.6567001 -0.21569996 0.63970006 -0.23979996 C 0.6363 -0.27009997 0.63180006 -0.30579996 0.62970006 -0.31679997 C 0.62650007 -0.33389997 0.62320006 -0.35949996 0.6183001 -0.37979996 C 0.6170001 -0.38769996 0.6129001 -0.41299996 0.61420006 -0.41539997 C 0.61620003 -0.42109996 0.6237001 -0.41519997 0.62750006 -0.42179996 C 0.63310003 -0.42789996 0.6082001 -0.49219996 0.59560007 -0.5106 C 0.5911001 -0.51879996 0.58290005 -0.516 0.5727001 -0.50259995 C 0.5633001 -0.49379995 0.5667001 -0.47369996 0.5703001 -0.45459995 C 0.5796001 -0.40589994 0.5880001 -0.35629994 0.5946001 -0.30679995 C 0.5824001 -0.32489994 0.56750005 -0.34689996 0.55280006 -0.36799994 C 0.55240005 -0.36999995 0.55090004 -0.37749994 0.55090004 -0.37759995 C 0.55090004 -0.37849995 0.54890007 -0.41739994 0.5472 -0.42669997 C 0.54690003 -0.43049997 0.546 -0.43159997 0.55 -0.43109995 C 0.5542 -0.42759994 0.55480003 -0.42739996 0.5574 -0.42619994 C 0.56159997 -0.42539993 0.5653 -0.43259993 0.5628 -0.43919995 C 0.54969996 -0.46329996 0.5366 -0.48759997 0.5236 -0.5117 C 0.52199996 -0.5133 0.5203 -0.51489997 0.5182 -0.51519996 Z M -0.7006999 -0.5143 C -0.7078999 -0.51449996 -0.71589994 -0.51 -0.7127999 -0.5013 C -0.7145999 -0.49659997 -0.69859993 -0.48049998 -0.6957999 -0.47169998 C -0.6932999 -0.46539998 -0.6982999 -0.4452 -0.6929999 -0.44329998 C -0.6881999 -0.4412 -0.6814999 -0.45729998 -0.6789999 -0.47219998 C -0.6775999 -0.48029998 -0.6786999 -0.5082 -0.6975999 -0.514 C -0.6985999 -0.5142 -0.69959986 -0.5143 -0.7005999 -0.5144 Z M 0.6869 -0.5141 C 0.68520004 -0.51390004 0.6832 -0.5113 0.68020004 -0.5047 C 0.67280006 -0.4925 0.67020005 -0.4708 0.6732 -0.45160002 C 0.6911 -0.3308 0.7043 -0.21380001 0.70710003 -0.1067 C 0.7056 -0.0965 0.70510006 -0.09110001 0.70040005 -0.0783 C 0.68990004 -0.0648 0.67820007 -0.047799997 0.66730005 -0.039699998 C 0.65630007 -0.031499997 0.633 -0.023799997 0.62540007 -0.017699998 C 0.60120004 -0.0036999974 0.6011001 0.012300001 0.62070006 0.012900002 C 0.65440005 0.009000002 0.69420004 0.0062000025 0.7217001 -0.035199996 C 0.7290001 -0.046799995 0.73770005 -0.0783 0.73810005 -0.0976 C 0.74070007 -0.21059999 0.73670006 -0.3211 0.71970004 -0.4027 C 0.71860003 -0.4107 0.71510005 -0.4289 0.71650004 -0.4313 C 0.71870005 -0.43690002 0.7297 -0.4307 0.7336 -0.4372 C 0.7394 -0.4431 0.7051 -0.4869 0.69310004 -0.5057 C 0.69070005 -0.5104 0.68920004 -0.5143 0.68710005 -0.5141 Z M 0.33370003 -0.5122 C 0.33230004 -0.512 0.33030003 -0.5098 0.32650003 -0.5048 C 0.31710002 -0.47400004 0.31380004 -0.4489 0.31740004 -0.42980003 C 0.34160003 -0.30370003 0.36630005 -0.18870004 0.36240005 -0.068700045 C 0.37390006 -0.06860004 0.38710004 -0.09490004 0.39280006 -0.12090005 C 0.39590007 -0.15680005 0.39070007 -0.17860004 0.38980007 -0.19970006 C 0.38890007 -0.22080006 0.36590007 -0.39180005 0.36130008 -0.40770006 C 0.35570008 -0.43780005 0.3836001 -0.41170007 0.3806001 -0.42920005 C 0.37100008 -0.45130005 0.3469001 -0.48350006 0.33940008 -0.50270003 C 0.3366001 -0.50780004 0.3362001 -0.5126 0.3339001 -0.51220006 Z M -0.52639997 -0.5098 C -0.5294 -0.5093 -0.5322 -0.5068 -0.5333 -0.5028 C -0.534 -0.5002 -0.5322 -0.4958 -0.5345 -0.4944 C -0.5359 -0.493 -0.5411 -0.4939 -0.5409 -0.5013 C -0.5409 -0.5036 -0.5426 -0.5061 -0.54359996 -0.5075 C -0.54459995 -0.5082 -0.54529995 -0.50839996 -0.54719996 -0.50839996 C -0.5495 -0.50829995 -0.5494 -0.50769997 -0.55069995 -0.50579995 C -0.5512999 -0.5038 -0.5519999 -0.50189996 -0.5519999 -0.49969995 C -0.5522999 -0.49709994 -0.5532999 -0.49619994 -0.5551999 -0.49579996 C -0.5572999 -0.49579996 -0.55679995 -0.49559996 -0.55859995 -0.49669996 C -0.55959994 -0.49779996 -0.5609 -0.49829996 -0.5609 -0.5002 C -0.5609 -0.50219995 -0.5614 -0.5054 -0.562 -0.5067 C -0.56289995 -0.5079 -0.56439996 -0.5085 -0.566 -0.509 C -0.575 -0.509 -0.57559997 -0.4986 -0.5751 -0.4947 C -0.5758 -0.49400002 -0.5761 -0.47570002 -0.5638 -0.4706 C -0.5473 -0.4628 -0.5165 -0.4661 -0.5178 -0.49260002 C -0.5178 -0.49490002 -0.5183 -0.50280005 -0.5185 -0.505 C -0.52019995 -0.5089 -0.5233 -0.5104 -0.5262 -0.5099 Z M -0.3056 -0.5095 C -0.31129998 -0.50920004 -0.31629997 -0.5076 -0.32059997 -0.5054 C -0.33149996 -0.495 -0.33409998 -0.4782 -0.32549998 -0.4678 C -0.3171 -0.4639 -0.30879998 -0.4554 -0.3144 -0.4508 C -0.338 -0.4256 -0.39949998 -0.3834 -0.4026 -0.3757 C -0.4026 -0.3756 -0.40269998 -0.3755 -0.40269998 -0.3754 C -0.40269998 -0.37530002 -0.40269998 -0.3752 -0.40269998 -0.37510002 C -0.40269998 -0.37510002 -0.40269998 -0.37500003 -0.40269998 -0.37500003 C -0.40269998 -0.37490004 -0.4026 -0.37480003 -0.4026 -0.37470004 C -0.4026 -0.37470004 -0.4025 -0.37460005 -0.4025 -0.37460005 C -0.4025 -0.37460005 -0.40240002 -0.37460005 -0.40240002 -0.37460005 C -0.40240002 -0.37460005 -0.40230003 -0.37450007 -0.40230003 -0.37450007 C -0.40230003 -0.37450007 -0.40220004 -0.37450007 -0.40220004 -0.37450007 C -0.40220004 -0.37450007 -0.40210006 -0.37440008 -0.40210006 -0.37440008 C -0.39900005 -0.3723001 -0.36050007 -0.37240008 -0.35620007 -0.3743001 C -0.35620007 -0.3743001 -0.35610008 -0.37440008 -0.35610008 -0.37440008 C -0.35610008 -0.37440008 -0.3560001 -0.37440008 -0.3560001 -0.37440008 C -0.3560001 -0.37440008 -0.3560001 -0.37450007 -0.3560001 -0.37450007 C -0.34280008 -0.37940007 -0.2800001 -0.45110005 -0.2800001 -0.45110005 C -0.2833001 -0.45390004 -0.2863001 -0.45590004 -0.2895001 -0.45870006 C -0.2930001 -0.46170005 -0.2926001 -0.46470007 -0.2895001 -0.46770006 C -0.27400008 -0.47670007 -0.2789001 -0.49670005 -0.2870001 -0.50570005 C -0.2937001 -0.5087001 -0.3001001 -0.50970006 -0.3057001 -0.50940007 Z M 0.27140003 -0.50920004 C 0.26970002 -0.50900006 0.26770005 -0.50650007 0.26470003 -0.49990004 C 0.25730002 -0.48770005 0.25220004 -0.46660003 0.25280002 -0.44680005 C 0.2689 -0.33550006 0.27380002 -0.23820005 0.28430003 -0.12690005 C 0.28520003 -0.11610004 0.28360003 -0.10050005 0.27640003 -0.09430005 C 0.24990003 -0.06670005 0.21180004 -0.032600045 0.17030004 -0.016900048 C 0.16580003 -0.011900048 0.18140003 0.009499952 0.20160004 0.009499952 C 0.23530005 0.0055999523 0.26490003 -0.013300048 0.29240006 -0.06310005 C 0.29970005 -0.07470005 0.31260008 -0.09960005 0.31300005 -0.118900046 C 0.31560007 -0.23190004 0.30730006 -0.31970006 0.29040006 -0.40140003 C 0.28930005 -0.40940002 0.29010007 -0.41880003 0.29140005 -0.42110002 C 0.29360005 -0.42370003 0.30100006 -0.42100003 0.30490005 -0.4275 C 0.31070006 -0.4334 0.28950006 -0.4821 0.27750006 -0.50090003 C 0.27510005 -0.50560004 0.27360007 -0.5094 0.27150005 -0.5091 Z M -0.62249994 -0.5058 C -0.62709993 -0.5053 -0.63149995 -0.5015 -0.63359994 -0.4964 C -0.63439995 -0.4786 -0.6344999 -0.4607 -0.63249993 -0.4443 C -0.62439996 -0.4155 -0.62179995 -0.3901 -0.61789995 -0.36049998 C -0.61679995 -0.32089996 -0.6407 -0.34339997 -0.63969994 -0.36299998 C -0.6341999 -0.38849998 -0.6356999 -0.42859998 -0.6405999 -0.43879998 C -0.6444999 -0.44899997 -0.6489999 -0.45149997 -0.6584999 -0.44979998 C -0.6659999 -0.45029998 -0.6853999 -0.42909998 -0.6908999 -0.394 C -0.6908999 -0.394 -0.6953999 -0.376 -0.6973999 -0.35999998 C -0.7000999 -0.3419 -0.7119999 -0.32909998 -0.7203999 -0.36249998 C -0.7275999 -0.3868 -0.7320999 -0.4466 -0.7440999 -0.4326 C -0.7475999 -0.3859 -0.7516999 -0.30369997 -0.7119999 -0.2952 C -0.6639999 -0.2906 -0.6904999 -0.3764 -0.6730999 -0.392 C -0.66979986 -0.3997 -0.66369987 -0.3998 -0.6631999 -0.3901 V -0.3172 C -0.6635999 -0.2935 -0.6479999 -0.2865 -0.6358999 -0.2816 C -0.6232999 -0.2826 -0.6149999 -0.2822 -0.6099999 -0.27 C -0.6079999 -0.22800002 -0.6059999 -0.1859 -0.6039999 -0.1439 C -0.6039999 -0.1439 -0.5748999 -0.13550001 -0.5734999 -0.2148 C -0.5720999 -0.2613 -0.5827999 -0.30040002 -0.57649994 -0.3094 C -0.57629997 -0.31829998 -0.5648999 -0.3187 -0.5569999 -0.3144 C -0.5443999 -0.3055 -0.5388999 -0.2947 -0.51939994 -0.299 C -0.48969993 -0.30719998 -0.47179994 -0.3216 -0.47139993 -0.3444 C -0.47309995 -0.36609998 -0.47559994 -0.3877 -0.48499992 -0.4094 C -0.48369992 -0.41329998 -0.49069992 -0.4236 -0.4893999 -0.42749998 C -0.48409992 -0.4191 -0.47599992 -0.41979998 -0.4740999 -0.42749998 C -0.47919992 -0.4441 -0.4869999 -0.4601 -0.4996999 -0.46699998 C -0.5101999 -0.47629997 -0.5255999 -0.47429997 -0.5311999 -0.45499998 C -0.5337999 -0.4328 -0.5230999 -0.4064 -0.5068999 -0.38489997 C -0.50349987 -0.37649998 -0.4986999 -0.36249998 -0.5007999 -0.34989998 C -0.5093999 -0.34499997 -0.5179999 -0.34699997 -0.5251999 -0.35459998 C -0.5251999 -0.35459998 -0.5487999 -0.37229997 -0.5487999 -0.3762 C -0.5424999 -0.4163 -0.5473999 -0.4209 -0.55089986 -0.4321 C -0.55329984 -0.4475 -0.56059986 -0.4523 -0.5664999 -0.4628 C -0.5723999 -0.4691 -0.5803999 -0.4691 -0.58429986 -0.4628 C -0.59469986 -0.4447 -0.5897999 -0.40579998 -0.5822999 -0.3884 C -0.57679987 -0.3724 -0.56849986 -0.3624 -0.5723999 -0.3624 C -0.5755999 -0.3534 -0.5823999 -0.35549998 -0.58729994 -0.3659 C -0.5943 -0.38750002 -0.59569997 -0.4196 -0.59569997 -0.4341 C -0.59779996 -0.4521 -0.6001 -0.4905 -0.6119 -0.50020003 C -0.61509997 -0.50450003 -0.6188 -0.50600004 -0.6224 -0.50560004 Z M -0.45389995 -0.5055 C -0.45629996 -0.5052 -0.45889995 -0.50380003 -0.46199995 -0.50310004 C -0.47219995 -0.49990004 -0.48179996 -0.49100003 -0.47869995 -0.47380003 C -0.46659994 -0.40050003 -0.45879996 -0.34450004 -0.44669995 -0.27120003 C -0.44479996 -0.26260003 -0.45199993 -0.25130004 -0.46129996 -0.25240004 C -0.47709996 -0.26310003 -0.48099995 -0.28470004 -0.50789994 -0.28380004 C -0.52739996 -0.28360003 -0.54959995 -0.26240003 -0.55239993 -0.24190003 C -0.5555999 -0.22570002 -0.55679995 -0.20810002 -0.55239993 -0.19390002 C -0.5386999 -0.17740002 -0.52229995 -0.17920002 -0.50789994 -0.18290001 C -0.49609995 -0.1878 -0.48629993 -0.19940001 -0.48209995 -0.1966 C -0.48209995 -0.1966 -0.48199996 -0.1966 -0.48199996 -0.1966 C -0.48199996 -0.1966 -0.48199996 -0.1965 -0.48199996 -0.1965 C -0.47939995 -0.192 -0.48219997 -0.15380001 -0.53779995 -0.124400005 C -0.57189995 -0.10910001 -0.59909993 -0.1054 -0.6137 -0.1333 C -0.6228 -0.1507 -0.613 -0.21700001 -0.6353 -0.2017 C -0.7012 -0.0318 -0.4809 -0.008100003 -0.45629996 -0.1947 C -0.45469996 -0.2 -0.44989997 -0.2052 -0.44639996 -0.20390001 C -0.44489995 -0.20330001 -0.44349995 -0.20120001 -0.44299996 -0.1974 C -0.44809997 -0.028500006 -0.6134 -0.016900003 -0.6415 -0.07000001 C -0.6485 -0.08250001 -0.6506 -0.110400006 -0.6512 -0.1271 C -0.6525 -0.1372 -0.655 -0.143 -0.6579 -0.1453 C -0.66459996 -0.1503 -0.67359996 -0.1372 -0.6755 -0.1144 C -0.67829996 -0.0961 -0.67749995 -0.091 -0.67749995 -0.0734 C -0.6687 0.059999995 -0.45589995 0.002700001 -0.42139995 -0.1075 C -0.40429994 -0.1645 -0.42169994 -0.20750001 -0.41599995 -0.21270001 C -0.41599995 -0.21270001 -0.41579995 -0.21280001 -0.41569996 -0.21280001 C -0.41559997 -0.21280001 -0.41549996 -0.21290001 -0.41539997 -0.21290001 C -0.41529998 -0.21290001 -0.41519997 -0.21300001 -0.41509998 -0.21300001 C -0.41489998 -0.21310002 -0.41459998 -0.21310002 -0.41429996 -0.21310002 C -0.39319998 -0.19040002 -0.36349997 -0.21020001 -0.35709995 -0.21810001 C -0.35429996 -0.22200002 -0.34729996 -0.22460002 -0.34249994 -0.2195 C -0.32599995 -0.2077 -0.29719993 -0.2132 -0.29109994 -0.2341 C -0.28759992 -0.2545 -0.28469995 -0.2755 -0.28399995 -0.29729998 C -0.29469994 -0.29399997 -0.30339995 -0.29149997 -0.30689996 -0.28779998 C -0.30769998 -0.28689998 -0.30829996 -0.2859 -0.30849996 -0.2848 C -0.30939996 -0.27879998 -0.31029996 -0.27269998 -0.31119996 -0.2667 C -0.31129995 -0.2662 -0.31149995 -0.2657 -0.31169996 -0.2653 C -0.31219995 -0.2646 -0.31289995 -0.2639 -0.31369996 -0.26340002 C -0.31749997 -0.26130003 -0.32409996 -0.26250002 -0.32449996 -0.268 C -0.32959998 -0.2912 -0.35059997 -0.2942 -0.36339995 -0.25820002 C -0.37199995 -0.25120002 -0.38759995 -0.24990001 -0.38929996 -0.2603 C -0.38719997 -0.28440002 -0.39689997 -0.2877 -0.41639996 -0.2763 C -0.42269996 -0.32410002 -0.42889994 -0.3697 -0.43509996 -0.41750002 C -0.42699996 -0.41770002 -0.41949996 -0.41180003 -0.41209996 -0.42110002 C -0.42009994 -0.44610003 -0.43709996 -0.49700004 -0.44669995 -0.50170004 C -0.44679993 -0.50170004 -0.44689995 -0.50180006 -0.44689995 -0.50180006 C -0.44729996 -0.5023001 -0.44779995 -0.50280005 -0.44829994 -0.50320005 C -0.44849995 -0.5033001 -0.44869995 -0.50360006 -0.44889995 -0.5037001 C -0.44909996 -0.5038001 -0.44939995 -0.50400007 -0.44949996 -0.5041001 C -0.44989997 -0.50430006 -0.45039997 -0.5045001 -0.45069996 -0.5046001 C -0.45159996 -0.5048001 -0.45239997 -0.5050001 -0.45329997 -0.5048001 Z M 0.20350006 -0.5051 C 0.19510007 -0.5053 0.18570006 -0.5 0.18940006 -0.48950002 C 0.18730006 -0.4837 0.20750007 -0.46420002 0.21080007 -0.45350003 C 0.21670006 -0.43710002 0.20630006 -0.42140004 0.21240006 -0.41910005 C 0.21800007 -0.41660005 0.22580007 -0.43610004 0.22880006 -0.45410004 C 0.23220006 -0.46870005 0.22180006 -0.49860004 0.20700006 -0.50470006 C 0.20590006 -0.50500005 0.20470007 -0.50500005 0.20350006 -0.5051001 Z M -0.30859992 -0.4871 C -0.3047999 -0.4875 -0.3000999 -0.484 -0.29779992 -0.479 C -0.2953999 -0.47370002 -0.29659992 -0.4686 -0.30049992 -0.4676 C -0.30449992 -0.4666 -0.3095999 -0.4702 -0.31199992 -0.4755 C -0.31439993 -0.48079997 -0.3131999 -0.486 -0.30919993 -0.487 C -0.30899993 -0.48709998 -0.30869994 -0.48709998 -0.30839992 -0.48709998 Z M 0.6414001 -0.4625 C 0.6337001 -0.4628 0.6253001 -0.4569 0.6286001 -0.44550002 C 0.6267001 -0.43930003 0.6450001 -0.41810003 0.6480001 -0.4065 C 0.6507001 -0.39830002 0.6439001 -0.37170002 0.64950013 -0.36920002 C 0.65460014 -0.36650002 0.66180015 -0.38750002 0.6645001 -0.40710002 C 0.6660001 -0.4178 0.6581001 -0.45530003 0.6446001 -0.462 C 0.6436001 -0.4623 0.6424001 -0.4625 0.6414001 -0.4625 Z M 0.11620009 -0.4495 C 0.11690009 -0.4464 0.11760009 -0.4432 0.11810009 -0.44 C 0.11970009 -0.4331 0.12100009 -0.4262 0.12250009 -0.4194 C 0.11640009 -0.4278 0.11140009 -0.4345 0.10930009 -0.43690002 C 0.09560009 -0.4532 0.10960009 -0.4476 0.11630009 -0.44950002 Z M 0.23720008 -0.39 C 0.23420008 -0.3895 0.23140009 -0.38689998 0.23030008 -0.3829 C 0.22960009 -0.3803 0.23160009 -0.376 0.22920008 -0.3746 C 0.22780009 -0.3732 0.22250009 -0.37399998 0.22270007 -0.3813 C 0.22270007 -0.3836 0.22100008 -0.3862 0.22000007 -0.3877 C 0.21900007 -0.3884 0.21830007 -0.3886 0.21640007 -0.3886 C 0.21410008 -0.3885 0.21420008 -0.3879 0.21290007 -0.38599998 C 0.21240008 -0.38399997 0.21170007 -0.3821 0.21170007 -0.37989998 C 0.21140006 -0.37729996 0.21050006 -0.37639996 0.20860007 -0.376 C 0.20650007 -0.376 0.20680007 -0.37579998 0.20510007 -0.3769 C 0.20410007 -0.378 0.20280008 -0.37849998 0.20280008 -0.3804 C 0.20280008 -0.3824 0.20230009 -0.3856 0.20170008 -0.3869 C 0.20080008 -0.3881 0.19930008 -0.38860002 0.19770008 -0.389 C 0.18870008 -0.389 0.18820009 -0.3788 0.18870008 -0.37489998 C 0.18800008 -0.3742 0.18760008 -0.3557 0.19980007 -0.35059997 C 0.21630007 -0.34279996 0.24720007 -0.3462 0.24590008 -0.37269998 C 0.24590008 -0.37499997 0.24530008 -0.38289997 0.24500008 -0.38509998 C 0.24330008 -0.38899997 0.24020007 -0.39049998 0.23730008 -0.39 Z M -0.31529993 -0.3845 C -0.31729993 -0.3847 -0.31999993 -0.384 -0.32299992 -0.3821 C -0.33759993 -0.3742 -0.3431999 -0.3509 -0.33409992 -0.3372 C -0.3255999 -0.3252 -0.3122999 -0.32959998 -0.3104999 -0.32959998 C -0.29619992 -0.32779998 -0.2876999 -0.35629997 -0.2876999 -0.35629997 C -0.2876999 -0.35629997 -0.2872999 -0.36429995 -0.3041999 -0.34919998 C -0.3112999 -0.34789997 -0.3122999 -0.35039997 -0.3140999 -0.35439998 C -0.31559992 -0.3618 -0.3152999 -0.36929998 -0.3117999 -0.37679997 C -0.31019992 -0.38129997 -0.3117999 -0.38409996 -0.3151999 -0.38439998 Z M 0.4657001 -0.3809 C 0.4576001 -0.3813 0.4490001 -0.3761 0.44680008 -0.365 C 0.44680008 -0.3585 0.4497001 -0.3549 0.4492001 -0.349 C 0.44840008 -0.3456 0.4449001 -0.3434 0.4366001 -0.3474 C 0.4379001 -0.3486 0.4312001 -0.358 0.4312001 -0.358 C 0.42470008 -0.3619 0.41610008 -0.3578 0.41050008 -0.35410002 C 0.40740007 -0.3485 0.40510008 -0.3388 0.4086001 -0.32900003 C 0.4179001 -0.31180003 0.4498001 -0.28250003 0.4650001 -0.28220004 C 0.46530008 -0.29770005 0.4668001 -0.31830004 0.4676001 -0.33110005 C 0.4680001 -0.33590004 0.46910012 -0.34130004 0.4737001 -0.34250006 C 0.4783001 -0.34370005 0.4864001 -0.33780006 0.4865001 -0.34290007 C 0.4857001 -0.35270005 0.48370013 -0.36730006 0.47810012 -0.37410006 C 0.47530013 -0.37830007 0.47060013 -0.38060006 0.46570012 -0.38080007 Z M -0.1807999 -0.327 C -0.1809999 -0.3269 -0.18119991 -0.3267 -0.1813999 -0.3266 C -0.1814999 -0.3265 -0.1816999 -0.32639998 -0.1817999 -0.3263 C -0.1833999 -0.3251 -0.1852999 -0.3223 -0.1894999 -0.3193 C -0.1966999 -0.3112 -0.1978999 -0.3055 -0.1974999 -0.2892 C -0.1970999 -0.2875 -0.1838999 -0.2508 -0.1726999 -0.22510001 C -0.1651999 -0.1983 -0.1581999 -0.16770001 -0.1632999 -0.13870001 C -0.1808999 -0.10040001 -0.21639991 -0.06610001 -0.2504999 -0.047500007 C -0.2678999 -0.04190001 -0.2829999 -0.043800008 -0.2869999 -0.04760001 C -0.2869999 -0.04760001 -0.2870999 -0.04770001 -0.2870999 -0.04770001 C -0.2970999 -0.054400012 -0.2972999 -0.06640001 -0.2966999 -0.06840001 C -0.2966999 -0.06840001 -0.2966999 -0.06850001 -0.2966999 -0.06850001 C -0.2966999 -0.06850001 -0.29659992 -0.068600014 -0.29659992 -0.068600014 C -0.26769993 -0.08870001 -0.23479992 -0.10500002 -0.20899993 -0.15920001 C -0.20139994 -0.17990002 -0.19909993 -0.19240001 -0.20659994 -0.22440001 C -0.20959994 -0.23630002 -0.21319994 -0.24620001 -0.22129993 -0.25460002 C -0.22129993 -0.25460002 -0.22119993 -0.2547 -0.22119993 -0.2547 C -0.21629994 -0.25710002 -0.20349993 -0.2477 -0.20159993 -0.2536 C -0.20459993 -0.2689 -0.21499993 -0.2895 -0.22669992 -0.3 C -0.23699991 -0.3093 -0.24819992 -0.3104 -0.25759992 -0.3019 C -0.26819992 -0.296 -0.2704999 -0.2748 -0.26529992 -0.2563 C -0.25959992 -0.2423 -0.24429992 -0.23990001 -0.23339991 -0.21180001 C -0.23339991 -0.21180001 -0.23339991 -0.2117 -0.23339991 -0.2117 C -0.23319991 -0.2099 -0.22969991 -0.19070001 -0.23509991 -0.18290001 C -0.23959991 -0.16900001 -0.2967999 -0.12390001 -0.30089992 -0.12110001 C -0.30089992 -0.12110001 -0.3011999 -0.120900005 -0.30129993 -0.12080001 C -0.30129993 -0.12080001 -0.30139992 -0.12070001 -0.30139992 -0.12070001 C -0.30139992 -0.12070001 -0.3014999 -0.12060001 -0.3014999 -0.12060001 C -0.3014999 -0.12060001 -0.3015999 -0.120500006 -0.3015999 -0.120500006 C -0.3015999 -0.120500006 -0.30169988 -0.120500006 -0.30169988 -0.120500006 C -0.30169988 -0.120500006 -0.30179986 -0.120500006 -0.30179986 -0.120500006 C -0.30179986 -0.120500006 -0.30189985 -0.12060001 -0.30189985 -0.12060001 C -0.30189985 -0.12060001 -0.30189985 -0.12070001 -0.30189985 -0.12070001 C -0.30189985 -0.12070001 -0.30199984 -0.12090001 -0.30199984 -0.12090001 C -0.30219984 -0.12200001 -0.30189985 -0.12490001 -0.30199984 -0.12950002 C -0.30239984 -0.13800001 -0.29889983 -0.15710002 -0.29909983 -0.16040002 C -0.29909983 -0.16040002 -0.29909983 -0.16050002 -0.29909983 -0.16050002 C -0.29909983 -0.16050002 -0.29919982 -0.16060002 -0.29919982 -0.16060002 C -0.29919982 -0.16060002 -0.29919982 -0.16070002 -0.29919982 -0.16070002 C -0.29919982 -0.16070002 -0.2992998 -0.16070002 -0.2992998 -0.16070002 C -0.3181998 -0.14850003 -0.32449982 -0.111000024 -0.3278998 -0.09990002 C -0.3757998 -0.06680002 -0.4301998 -0.04220002 -0.4614998 -0.008700021 C -0.4777998 0.016799979 -0.3490998 -0.03800002 -0.33409983 -0.04460002 C -0.33399984 -0.04450002 -0.33379984 -0.04430002 -0.33369982 -0.04420002 C -0.33089983 -0.04110002 -0.3305998 -0.030200021 -0.32209983 -0.020300021 C -0.30869985 -0.0022000205 -0.28029984 0.008999979 -0.25259984 0.0020999778 C -0.20619984 -0.014700022 -0.17939983 -0.046300024 -0.15219983 -0.08140002 C -0.14829983 -0.08710002 -0.14219983 -0.09150002 -0.13659984 -0.08710002 C -0.117899835 -0.04520002 -0.06399984 -0.015400022 0.005800158 -0.012300022 C 0.021900158 -0.031900022 0.0142001575 -0.041600022 0.007700158 -0.04570002 C 0.005700158 -0.04700002 -0.02699984 -0.05980002 -0.031999845 -0.07240002 C -0.035199843 -0.08420002 -0.027399845 -0.094700016 -0.011899846 -0.10250002 C 0.032900155 -0.10790002 0.076900154 -0.11390002 0.11950016 -0.12760001 C 0.11990016 -0.14190002 0.12840016 -0.16330001 0.13400015 -0.17260002 C 0.13790016 -0.17900002 0.14040016 -0.17970002 0.14140016 -0.18060002 C 0.14140016 -0.18060002 0.14150016 -0.18070002 0.14150016 -0.18070002 C 0.14150016 -0.18070002 0.14160016 -0.18080002 0.14160016 -0.18080002 C 0.14160016 -0.18080002 0.14170016 -0.18090002 0.14170016 -0.18090002 C 0.14170016 -0.18090002 0.14170016 -0.18110003 0.14170016 -0.18110003 C 0.14170016 -0.18140003 0.14170016 -0.18190002 0.14160016 -0.18230003 L 0.13440016 -0.18650003 L -0.008499846 -0.18710002 C -0.010299846 -0.18780002 -0.011599846 -0.18850002 -0.012399846 -0.18910003 C -0.012499846 -0.18920003 -0.012599845 -0.18930003 -0.012599845 -0.18930003 C -0.012599845 -0.18930003 -0.012699845 -0.18940003 -0.012699845 -0.18940003 C -0.012699845 -0.18940003 -0.012799845 -0.18950003 -0.012799845 -0.18950003 C -0.012799845 -0.18950003 -0.012899845 -0.18970004 -0.012899845 -0.18970004 C -0.012899845 -0.18970004 -0.012999845 -0.18980004 -0.012999845 -0.18980004 C -0.012999845 -0.18980004 -0.012999845 -0.18990004 -0.012999845 -0.18990004 C -0.012999845 -0.18990004 -0.013099845 -0.19000004 -0.013099845 -0.19000004 C -0.013099845 -0.19000004 -0.013099845 -0.19010004 -0.013099845 -0.19010004 C -0.013099845 -0.19010004 -0.013099845 -0.19020005 -0.013099845 -0.19020005 C -0.013099845 -0.19020005 -0.013099845 -0.19030005 -0.013099845 -0.19030005 C -0.013099845 -0.19030005 -0.013099845 -0.19040005 -0.013099845 -0.19040005 C -0.013099845 -0.19040005 -0.013099845 -0.19050005 -0.013099845 -0.19050005 C -0.013099845 -0.19050005 -0.013099845 -0.19060005 -0.013099845 -0.19060005 C -0.013099845 -0.19060005 -0.013099845 -0.19070005 -0.013099845 -0.19070005 C -0.013099845 -0.19070005 -0.013099845 -0.19080006 -0.013099845 -0.19080006 C -0.013099845 -0.19080006 -0.012999845 -0.19090006 -0.012999845 -0.19090006 C -0.012999845 -0.19100006 -0.012899845 -0.19110006 -0.012899845 -0.19110006 C -0.012199845 -0.19200006 -0.010499844 -0.19290006 -0.008399845 -0.19370006 C 0.025700156 -0.19830006 0.08630016 -0.20830005 0.09040016 -0.26660007 C 0.08980016 -0.29700008 0.07740016 -0.31680006 0.04020016 -0.32240006 C 0.012800159 -0.32030007 -0.0066998415 -0.29380006 -0.0035998411 -0.26460007 C -0.0048998413 -0.25680006 -8.998411E-4 -0.24130008 -0.008999841 -0.23960006 C -0.06149984 -0.23480006 -0.11879984 -0.20190006 -0.12079984 -0.17840007 C -0.12079984 -0.17840007 -0.12089984 -0.17840007 -0.12089984 -0.17840007 C -0.12089984 -0.17840007 -0.12099984 -0.17830007 -0.12099984 -0.17830007 C -0.12099984 -0.17830007 -0.121199846 -0.17820007 -0.121199846 -0.17820007 C -0.121199846 -0.17820007 -0.12139985 -0.17820007 -0.12139985 -0.17820007 C -0.12149985 -0.17820007 -0.12169985 -0.17810006 -0.12179985 -0.17810006 C -0.12179985 -0.17810006 -0.12189985 -0.17810006 -0.12189985 -0.17810006 C -0.12199985 -0.17810006 -0.122099854 -0.17810006 -0.122099854 -0.17810006 C -0.122099854 -0.17810006 -0.122199856 -0.17810006 -0.122199856 -0.17810006 C -0.12229986 -0.17810006 -0.12239986 -0.17810006 -0.12239986 -0.17810006 C -0.12249986 -0.17810006 -0.12279986 -0.17820007 -0.12289986 -0.17820007 C -0.12629986 -0.17910007 -0.13069986 -0.18480006 -0.12999986 -0.19270006 C -0.13199987 -0.23340006 -0.14519987 -0.27950007 -0.16599986 -0.31490004 C -0.17339987 -0.32230005 -0.17659986 -0.32530004 -0.17879985 -0.32570004 C -0.17889985 -0.32570004 -0.17899986 -0.32570004 -0.17899986 -0.32570004 C -0.17909986 -0.32570004 -0.17929986 -0.32570004 -0.17939986 -0.32570004 C -0.17939986 -0.32570004 -0.17949986 -0.32570004 -0.17949986 -0.32570004 C -0.17949986 -0.32570004 -0.17959987 -0.32570004 -0.17959987 -0.32570004 C -0.17959987 -0.32570004 -0.17969987 -0.32570004 -0.17969987 -0.32570004 Z M -0.043999895 -0.3055 C -0.046999894 -0.305 -0.049799897 -0.3025 -0.050899897 -0.2985 C -0.051599897 -0.2959 -0.049599897 -0.2915 -0.051999897 -0.2901 C -0.053399898 -0.2887 -0.0586999 -0.2895 -0.058499895 -0.29680002 C -0.058499895 -0.2991 -0.060199894 -0.30170003 -0.061199896 -0.3032 C -0.062199894 -0.3039 -0.06279989 -0.3041 -0.064699896 -0.3041 C -0.0669999 -0.30400002 -0.0670999 -0.3034 -0.0682999 -0.3015 C -0.0687999 -0.2995 -0.069499895 -0.2976 -0.069499895 -0.2954 C -0.06979989 -0.29279998 -0.07069989 -0.29189998 -0.072599895 -0.2915 C -0.07469989 -0.2915 -0.07419989 -0.2913 -0.07599989 -0.2924 C -0.076999895 -0.2935 -0.0783999 -0.294 -0.0783999 -0.29590002 C -0.0783999 -0.29790002 -0.078799896 -0.30110002 -0.0793999 -0.30240002 C -0.0802999 -0.3036 -0.081899896 -0.30410004 -0.0834999 -0.3045 C -0.0924999 -0.3045 -0.0929999 -0.29430002 -0.0924999 -0.29040003 C -0.093199894 -0.28970003 -0.0935999 -0.27120003 -0.081399895 -0.26610002 C -0.06489989 -0.2583 -0.025699895 -0.26290002 -0.035299893 -0.28820002 C -0.035299893 -0.29050002 -0.035899892 -0.2984 -0.036199894 -0.30060002 C -0.037899893 -0.3045 -0.040999893 -0.30600002 -0.043899894 -0.30550003 Z M 0.5079001 -0.2829 C 0.5075001 -0.283 0.50700015 -0.2829 0.5065001 -0.28280002 C 0.5065001 -0.28280002 0.43030012 -0.22860003 0.42840013 -0.22670002 C 0.42080012 -0.22000003 0.42460012 -0.19630003 0.42840013 -0.19910002 C 0.43390012 -0.19700001 0.51060015 -0.24900001 0.5092001 -0.2551 C 0.5125001 -0.2549 0.5142001 -0.28190002 0.5080001 -0.28300002 Z M 0.028100133 -0.27490002 C 0.031200133 -0.2752 0.035300132 -0.27420002 0.039200135 -0.27190003 C 0.044900134 -0.26860002 0.048400134 -0.26360002 0.048000135 -0.26000002 C 0.048000135 -0.25990003 0.048000135 -0.25970003 0.048000135 -0.2596 C 0.048000135 -0.25950003 0.047800135 -0.25930002 0.047800135 -0.2592 C 0.047800135 -0.25910002 0.047700133 -0.25890002 0.047700133 -0.2588 C 0.047700133 -0.2587 0.04760013 -0.2586 0.04760013 -0.2585 C 0.04760013 -0.25840002 0.04750013 -0.2583 0.04750013 -0.25820002 C 0.04730013 -0.25790003 0.04700013 -0.2576 0.04680013 -0.25730002 C 0.044100128 -0.2547 0.037700128 -0.2551 0.03180013 -0.2585 C 0.026200129 -0.26180002 0.022700127 -0.26680002 0.023000129 -0.27040002 C 0.023000129 -0.2705 0.023100128 -0.2707 0.023100128 -0.27080002 C 0.023200128 -0.27120003 0.023400128 -0.27170002 0.023600128 -0.272 C 0.023700127 -0.2721 0.023800127 -0.27240002 0.023900127 -0.2725 C 0.023900127 -0.2725 0.024000127 -0.2726 0.024000127 -0.2726 C 0.024200127 -0.2728 0.024400126 -0.2731 0.024600128 -0.2732 C 0.025500128 -0.2739 0.026800128 -0.2744 0.028200127 -0.2746 Z M -0.63949984 -0.26110002 C -0.67899984 -0.26040003 -0.73689985 -0.20930003 -0.73839986 -0.18100002 C -0.69669986 -0.20100002 -0.65579987 -0.22030002 -0.61339986 -0.24100003 C -0.62019986 -0.25120002 -0.61379987 -0.26040003 -0.63949984 -0.26110002 Z M -0.5114998 -0.24330002 C -0.50759983 -0.24330002 -0.5034998 -0.24130002 -0.5013998 -0.23590001 C -0.4993998 -0.23090002 -0.5012998 -0.22570002 -0.50369984 -0.22310002 C -0.50369984 -0.22310002 -0.50369984 -0.22300002 -0.50369984 -0.22300002 C -0.50369984 -0.22290002 -0.50379986 -0.22280002 -0.50379986 -0.22270001 C -0.50549984 -0.22060001 -0.51129985 -0.22140001 -0.5153999 -0.22140001 C -0.52039987 -0.22160001 -0.52289987 -0.22240001 -0.5258999 -0.2265 C -0.5272999 -0.231 -0.5229999 -0.23550001 -0.5209999 -0.2389 C -0.5209999 -0.2389 -0.5208999 -0.23900001 -0.5208999 -0.23900001 C -0.5206999 -0.23930001 -0.5202999 -0.2397 -0.5199999 -0.24000001 C -0.5184999 -0.2414 -0.5158999 -0.24270001 -0.5130999 -0.24300002 C -0.5125999 -0.24310002 -0.5119999 -0.24310002 -0.5114999 -0.24310002 Z M 0.49310023 -0.22760002 C 0.48610023 -0.22670002 0.47940022 -0.22010003 0.48250023 -0.20950001 C 0.48060024 -0.20330001 0.49200022 -0.18150002 0.4950002 -0.16990001 C 0.4977002 -0.16170001 0.49160022 -0.13840002 0.4971002 -0.13590002 C 0.5022002 -0.13320002 0.5157002 -0.14970002 0.5152002 -0.17050003 C 0.5167002 -0.18120003 0.5114002 -0.22060002 0.4979002 -0.22730002 C 0.49640018 -0.22770002 0.49460018 -0.22790001 0.49300018 -0.22770002 Z M -0.3600998 -0.18910003 C -0.36629978 -0.18870002 -0.3717998 -0.18530002 -0.3692998 -0.17660002 C -0.3696998 -0.17030002 -0.3517998 -0.16250002 -0.3506998 -0.14780003 C -0.3480998 -0.14170003 -0.35449982 -0.12240003 -0.3491998 -0.12050003 C -0.3442998 -0.11850003 -0.3374998 -0.13390003 -0.3348998 -0.14820004 C -0.33349982 -0.15610003 -0.3409998 -0.18350004 -0.3538998 -0.18840003 C -0.3558998 -0.18880004 -0.3579998 -0.18900003 -0.3599998 -0.18890002 Z M -0.10469979 -0.15420003 C -0.10419979 -0.15420003 -0.10379979 -0.15420003 -0.10329979 -0.15420003 C -0.10319979 -0.15420003 -0.103099786 -0.15420003 -0.10299979 -0.15420003 C -0.08709979 -0.14990003 -0.063599795 -0.14940003 -0.043199793 -0.14730003 C -0.026599793 -0.14620003 -0.018399792 -0.13330004 -0.03389979 -0.12780003 C -0.04919979 -0.122600034 -0.06399979 -0.11850003 -0.06399979 -0.096300036 C -0.061999787 -0.085300036 -0.062399786 -0.079600036 -0.06409979 -0.076900035 C -0.06419979 -0.07670003 -0.06449979 -0.076400034 -0.06459979 -0.07630003 C -0.06459979 -0.07630003 -0.06469979 -0.07620003 -0.06469979 -0.07620003 C -0.06469979 -0.07620003 -0.06479979 -0.07610003 -0.06479979 -0.07610003 C -0.06479979 -0.07610003 -0.064899795 -0.07600003 -0.064899795 -0.07600003 L -0.0649998 -0.075900026 C -0.0649998 -0.075900026 -0.0651998 -0.075800024 -0.0651998 -0.075800024 C -0.0653998 -0.07570002 -0.0656998 -0.07550003 -0.0658998 -0.075400025 C -0.0660998 -0.07530002 -0.0663998 -0.07530002 -0.066599794 -0.07530002 C -0.070199795 -0.07480002 -0.075499795 -0.07820002 -0.079499796 -0.080300026 C -0.08899979 -0.08710003 -0.115499794 -0.10350002 -0.1191998 -0.13880002 C -0.1196998 -0.14680003 -0.113799796 -0.15360002 -0.1041998 -0.15430002 Z M -0.72849977 -0.12710004 C -0.72949976 -0.12710004 -0.7314998 -0.12410004 -0.73409975 -0.12070004 C -0.7575998 -0.08330004 -0.75969976 -0.02740004 -0.74669975 -0.01070004 C -0.73979974 -0.00280004 -0.72839975 5.999608E-4 -0.72009975 -0.0018000398 C -0.70529974 -0.00820004 -0.6987997 -0.03810004 -0.7022998 -0.04900004 C -0.70719975 -0.05670004 -0.71109974 -0.05790004 -0.7159998 -0.05140004 C -0.7263998 -0.03030004 -0.7306998 -0.04470004 -0.7315998 -0.05650004 C -0.73319983 -0.07890004 -0.7309998 -0.09940004 -0.7285998 -0.11570004 C -0.7272998 -0.12410004 -0.72739977 -0.12700003 -0.7282998 -0.12690003 Z M 0.07210022 -0.07790004 C 0.07040022 -0.07800004 0.06850022 -0.077700034 0.06660022 -0.07680003 C 0.06620022 -0.07680003 0.049800217 -0.06570003 0.044500217 -0.057900034 C 0.04130022 -0.055400033 0.041600216 -0.053300034 0.04260022 -0.049000032 C 0.04510022 -0.04320003 0.049600217 -0.04500003 0.054600216 -0.047700033 C 0.061300218 -0.048600033 0.06450021 -0.044200033 0.06400022 -0.03620003 C 0.06090022 -0.026200032 0.06540022 -0.02250003 0.06540022 -0.021800032 C 0.06540022 -0.021200031 0.07180022 -0.015600031 0.07940022 -0.020000031 C 0.09540022 -0.026100032 0.10530022 -0.03200003 0.12760022 -0.03690003 C 0.13350022 -0.03700003 0.13310023 -0.052700028 0.12390022 -0.05330003 C 0.11180022 -0.05270003 0.10060022 -0.05210003 0.08850022 -0.04250003 C 0.08110022 -0.04080003 0.07980022 -0.04530003 0.07810022 -0.04940003 C 0.07620022 -0.05950003 0.08240022 -0.06660003 0.08110022 -0.07410003 C 0.081400216 -0.073800035 0.07730022 -0.07740003 0.07210022 -0.077700034 Z M 0.5847002 -0.058800038 C 0.5817002 -0.058700036 0.5786002 -0.058300037 0.57410026 -0.057900038 C 0.5692003 -0.05690004 0.56750023 -0.05470004 0.56660026 -0.048800036 C 0.56700027 -0.039800037 0.5725003 -0.040200036 0.57810026 -0.036700036 C 0.5814003 -0.032500036 0.58350027 -0.028800037 0.5779003 -0.021900035 C 0.5726003 -0.017000034 0.5687003 -0.014300035 0.56340027 -0.009400035 C 0.5609003 -0.005100035 0.55930024 0.0014999649 0.56700027 0.003599965 C 0.58130026 0.007599965 0.6142003 -0.013800035 0.6142003 -0.014300034 C 0.6195003 -0.018300034 0.6178003 -0.025900034 0.6173003 -0.025900034 C 0.6142003 -0.029500034 0.60720026 -0.027300034 0.60240024 -0.027900035 C 0.60020024 -0.027900035 0.59280026 -0.029000035 0.59630024 -0.035500035 C 0.59920025 -0.039600033 0.60030025 -0.042000033 0.6023002 -0.047000036 C 0.60450023 -0.051900037 0.6026002 -0.055200037 0.5946002 -0.057900034 C 0.5905002 -0.058600035 0.5877002 -0.058900032 0.5847002 -0.058800034 Z M 0.3705002 0.37479997 C 0.3705002 0.37479997 0.37040022 0.37489995 0.37040022 0.37489995 C 0.34670022 0.38099995 0.34740022 0.40559995 0.36270022 0.41639996 C 0.11230022 0.41639996 -0.27189976 0.41219994 -0.35429978 0.41219994 C -0.40039977 0.41219994 -0.5461998 0.40669996 -0.5490998 0.40669996 C -0.5177998 0.45239997 -0.4724998 0.46179995 -0.41319978 0.46269995 C -0.30199978 0.46269995 0.21330023 0.46129996 0.35990024 0.46129996 C 0.34950024 0.47979996 0.36080024 0.5096 0.36900023 0.51509994 C 0.36920023 0.51519996 0.36950022 0.51539993 0.36960024 0.51549995 C 0.36990023 0.5156999 0.37030023 0.51579994 0.37060022 0.51589996 C 0.3707002 0.51589996 0.3709002 0.51589996 0.37100023 0.51589996 C 0.38070023 0.5182 0.38500023 0.51119995 0.38830024 0.506 C 0.40400025 0.5074 0.49270025 0.50869995 0.50080025 0.50589997 C 0.50080025 0.50589997 0.50090027 0.50579995 0.50090027 0.50579995 C 0.5064003 0.5138999 0.5118003 0.52149993 0.52230024 0.52019995 C 0.54060024 0.51629996 0.55500025 0.5142999 0.55540025 0.47719994 C 0.55540025 0.47719994 0.55350024 0.41399994 0.51200026 0.41799995 C 0.50220025 0.41949996 0.47460026 0.42229995 0.47460026 0.42229995 C 0.44270027 0.41849995 0.41930026 0.41809994 0.38350025 0.41679996 C 0.38680026 0.41259995 0.39270025 0.39559996 0.38550025 0.38939998 C 0.38360026 0.38779998 0.38090026 0.38699996 0.37700024 0.38729998 C 0.37700024 0.38729998 0.37690026 0.38729998 0.37690026 0.38729998 C 0.37680027 0.38729998 0.37670025 0.38729998 0.37670025 0.38729998 C 0.37670025 0.38729998 0.37660027 0.3872 0.37660027 0.3872 C 0.37650028 0.3872 0.37630028 0.3871 0.37620026 0.3871 C 0.37600026 0.38700002 0.37580025 0.3867 0.37560025 0.3865 C 0.37560025 0.3864 0.37540025 0.3863 0.37540025 0.3863 C 0.37360024 0.38369998 0.37260026 0.3772 0.37140024 0.3755 C 0.37140024 0.3755 0.37130025 0.3754 0.37130025 0.3754 C 0.37130025 0.3754 0.37120026 0.37530002 0.37120026 0.37530002 C 0.37120026 0.37530002 0.37100026 0.37520003 0.37100026 0.37520003 C 0.37100026 0.37520003 0.37090027 0.37520003 0.37090027 0.37520003 C 0.37090027 0.37520003 0.3708003 0.37520003 0.3708003 0.37520003 Z M 0.3875002 0.46519998 C 0.3875002 0.46519998 0.38760018 0.46519998 0.38760018 0.46519998 C 0.4241002 0.46699998 0.4584002 0.46549997 0.49500018 0.46729997 C 0.5008002 0.47219998 0.4979002 0.48349997 0.49410018 0.48559996 C 0.49390018 0.48569995 0.4936002 0.48579997 0.49350017 0.48589996 C 0.4934002 0.48589996 0.49310017 0.48589996 0.49300018 0.48589996 C 0.4929002 0.48589996 0.49260017 0.48589996 0.4925002 0.48589996 C 0.48060018 0.48559996 0.47380018 0.48529994 0.46190017 0.48499995 C 0.46190017 0.48439994 0.4618002 0.48379996 0.46170017 0.48329994 C 0.45890018 0.47499993 0.43850017 0.47549993 0.43370017 0.48209995 C 0.4336002 0.48219994 0.43350017 0.48239994 0.43350017 0.48249996 C 0.43340018 0.48259994 0.43330017 0.48289996 0.43330017 0.48299995 C 0.43320018 0.48319995 0.43310016 0.48339996 0.43310016 0.48359996 C 0.43300018 0.48379996 0.43300018 0.48419997 0.43300018 0.48449996 C 0.43300018 0.48479995 0.43280017 0.48519996 0.4329002 0.48549995 C 0.4169002 0.48739994 0.4024002 0.48499995 0.3864002 0.48439994 C 0.3817002 0.47849995 0.38220018 0.46789995 0.3878002 0.46539995 Z"/>
<linearGradient id="glaze" x1="0%" y1="0%" x2="100%" y2="100%">
<stop offset="0%" stop-color="rgb(255,255,255)" stop-opacity="0.2"/>
<stop offset="49.999%" stop-color="rgb(255,255,255)" stop-opacity="0.0"/>
<stop offset="50.001%" stop-color="rgb(0,0,0)" stop-opacity="0.0"/>
<stop offset="100%" stop-color="rgb(0,0,0)" stop-opacity="0.2"/>
</linearGradient>
</defs>
<g>
<rect x="0" y="0" width="720" height="360" class="green"/>
<use xlink:href="#shahada" transform="translate(360 180) scale(180 180) rotate(0)" class="white"/>
</g>
<g>
<rect x="0" y="0" width="720" height="360" fill="url(#glaze)"/>
<path d="M 30 30 L 690 30 L 690 330 L 30 330 Z M 60 60 L 60 300 L 660 300 L 660 60 Z" fill="rgb(255,255,255)" opacity="0.4"/>
<path d="M 0 0 L 720 0 L 720 360 L 0 360 Z M 30 30 L 30 330 L 690 330 L 690 30 Z" fill="rgb(0,0,0)" opacity="0.4"/>
</g>
</svg>
