<?xml version="1.0"?>
<svg xmlns="http://www.w3.org/2000/svg" xmlns:xlink="http://www.w3.org/1999/xlink" version="1.1" width="720" height="360" viewBox="0 0 720 360">
<!-- Generated by Kreative Vexillo v1.0 -->
<style>
.blue{fill:rgb(0,28,90);}
.red{fill:rgb(193,19,61);}
.white{fill:rgb(255,255,255);}
</style>
<defs>
<path id="-glazearea" d="M 0.0 0.0 L 1.0 0.1875 L 0.7692308 0.5 L 1.0 0.8125 L 0.0 1.0 Z"/>
<path id="star" d="M 0.0 -1.0 L 0.2245 -0.309 L 0.9511 -0.309 L 0.3633 0.118 L 0.5878 0.809 L 0.0 0.382 L -0.5878 0.809 L -0.3633 0.118 L -0.9511 -0.309 L -0.2245 -0.309 Z"/>
<clipPath id="clip0">
<use xlink:href="#-glazearea" transform="translate(0 0) scale(720 360) rotate(0)"/>
</clipPath>
<linearGradient id="glaze" x1="0%" y1="0%" x2="100%" y2="100%">
<stop offset="0%" stop-color="rgb(255,255,255)" stop-opacity="0.2"/>
<stop offset="49.999%" stop-color="rgb(255,255,255)" stop-opacity="0.0"/>
<stop offset="50.001%" stop-color="rgb(0,0,0)" stop-opacity="0.0"/>
<stop offset="100%" stop-color="rgb(0,0,0)" stop-opacity="0.2"/>
</linearGradient>
</defs>
<g>
<g clip-path="url(#clip0)">
<rect x="0" y="0" width="720" height="360" class="white"/>
<path d="M 4.2003 -44.8035 L 4.2003 -44.8035 L 1444.2003 90.1965 L 1435.7997 179.8035 L -4.2003 44.8035 Z" class="red"/>
<path d="M 0 157.5 L 0 157.5 L 720 157.5 L 720 202.5 L 0 202.5 Z" class="red"/>
<path d="M -4.2003 315.1965 L -4.2003 315.1965 L 1435.7997 180.1965 L 1444.2003 269.8035 L 4.2003 404.8035 Z" class="red"/>
</g>
<path d="M 0 0 L 443.0769 180 L 0 360 Z" class="blue"/>
<ellipse cx="136.9183" cy="180" rx="66.7477" ry="66.7477" class="white"/>
<ellipse cx="136.9183" cy="180" rx="44.4984" ry="44.4984" class="red"/>
<g>
<use xlink:href="#star" transform="translate(160.6757 265.7673) scale(14.8328 14.8328) rotate(-195.4826)" class="white"/>
<use xlink:href="#star" transform="translate(120.1076 267.3948) scale(14.8328 14.8328) rotate(-169.112)" class="white"/>
<use xlink:href="#star" transform="translate(83.0383 250.8335) scale(14.8328 14.8328) rotate(-142.7413)" class="white"/>
<use xlink:href="#star" transform="translate(57.1825 219.5303) scale(14.8328 14.8328) rotate(-116.3707)" class="white"/>
<use xlink:href="#star" transform="translate(47.9214 180) scale(14.8328 14.8328) rotate(-90)" class="white"/>
<use xlink:href="#star" transform="translate(57.1825 140.4697) scale(14.8328 14.8328) rotate(-63.6293)" class="white"/>
<use xlink:href="#star" transform="translate(83.0383 109.1665) scale(14.8328 14.8328) rotate(-37.2587)" class="white"/>
<use xlink:href="#star" transform="translate(120.1076 92.6052) scale(14.8328 14.8328) rotate(-10.888)" class="white"/>
<use xlink:href="#star" transform="translate(160.6757 94.2327) scale(14.8328 14.8328) rotate(15.4826)" class="white"/>
</g>
<g>
<g>
<use xlink:href="#star" transform="translate(40.8107 272.6516) scale(14.8328 14.8328) rotate(-133.9511)" class="white"/>
<use xlink:href="#star" transform="translate(73.2844 297.353) scale(14.8328 14.8328) rotate(-151.5315)" class="white"/>
</g>
<g>
<use xlink:href="#star" transform="translate(40.8107 87.3484) scale(14.8328 14.8328) rotate(-46.0489)" class="white"/>
<use xlink:href="#star" transform="translate(73.2844 62.647) scale(14.8328 14.8328) rotate(-28.4685)" class="white"/>
</g>
</g>
<use xlink:href="#star" transform="translate(225.9152 180) scale(14.8328 14.8328) rotate(90)" class="white"/>
<use xlink:href="#star" transform="translate(314.9121 180) scale(14.8328 14.8328) rotate(90)" class="white"/>
<g>
<use xlink:href="#star" transform="translate(268.8457 159.5996) scale(14.8328 14.8328) rotate(81.2098)" class="white"/>
<use xlink:href="#star" transform="translate(268.8457 200.4004) scale(14.8328 14.8328) rotate(98.7902)" class="white"/>
</g>
</g>
<g>
<path d="M 0 0 L 720 67.5 L 553.8462 180 L 720 292.5 L 0 360 Z" fill="url(#glaze)"/>
<path d="M 60 65.8881 L 547.8192 111.6211 L 547.8192 111.6211 L 520.2067 130.3171 L 446.8289 180 L 520.2067 229.6829 L 547.8192 248.3789 L 547.8192 248.3789 L 60 294.1119 L 60 294.1119 L 60 65.8881 Z M 30 32.944 L 30 327.056 L 30 327.056 L 633.9096 270.4394 L 537.0264 204.8414 L 500.3376 180 L 537.0264 155.1586 L 633.9096 89.5606 L 633.9096 89.5606 L 30 32.944 Z M 30 327.056 L 30 327.056 L 30 327.056 L 30 327.056 Z" fill="rgb(255,255,255)" opacity="0.4"/>
<path d="M 30 32.944 L 633.9096 89.5606 L 633.9096 89.5606 L 537.0264 155.1586 L 500.3376 180 L 537.0264 204.8414 L 633.9096 270.4394 L 30 327.056 L 30 327.056 L 30 327.056 L 30 327.056 L 30 327.056 L 30 327.056 L 30 32.944 Z M 0 0 L 0 360 L 720 292.5 L 553.8462 180 L 720 67.5 L 0 0 Z" fill="rgb(0,0,0)" opacity="0.4"/>
</g>
</svg>
