<?xml version="1.0"?>
<svg xmlns="http://www.w3.org/2000/svg" xmlns:xlink="http://www.w3.org/1999/xlink" version="1.1" width="720" height="360" viewBox="0 0 720 360">
<!-- Generated by Kreative Vexillo v1.0 -->
<style>
.blue{fill:rgb(75,146,219);}
.green{fill:rgb(0,105,60);}
.white{fill:rgb(255,255,255);}
.yellow{fill:rgb(255,182,18);}
</style>
<defs>
<clipPath id="clip0">
<rect x="280" y="135" width="90" height="90"/>
</clipPath>
<linearGradient id="glaze" x1="0%" y1="0%" x2="100%" y2="100%">
<stop offset="0%" stop-color="rgb(255,255,255)" stop-opacity="0.2"/>
<stop offset="49.999%" stop-color="rgb(255,255,255)" stop-opacity="0.0"/>
<stop offset="50.001%" stop-color="rgb(0,0,0)" stop-opacity="0.0"/>
<stop offset="100%" stop-color="rgb(0,0,0)" stop-opacity="0.2"/>
</linearGradient>
</defs>
<g>
<rect x="0" y="0" width="720" height="360" class="green"/>
<path d="M 0 145 L 240 145 L 240 0 L 360 0 L 360 95 L 720 95 L 720 215 L 410 215 L 410 360 L 290 360 L 290 265 L 0 265 Z" class="white"/>
<path d="M 0 155 L 250 155 L 250 0 L 350 0 L 350 105 L 720 105 L 720 205 L 400 205 L 400 360 L 300 360 L 300 255 L 0 255 Z" class="yellow"/>
<path d="M 0 175 L 270 175 L 270 0 L 330 0 L 330 125 L 720 125 L 720 185 L 380 185 L 380 360 L 320 360 L 320 235 L 0 235 Z" class="white"/>
<path d="M 0 185 L 280 185 L 320 225 L 0 225 Z" class="blue"/>
<path d="M 280 0 L 320 0 L 320 135 L 280 175 Z" class="blue"/>
<path d="M 720 135 L 720 175 L 370 175 L 330 135 Z" class="blue"/>
<path d="M 330 360 L 330 225 L 370 185 L 370 360 Z" class="blue"/>
<g clip-path="url(#clip0)">
<ellipse cx="280" cy="135" rx="40" ry="40" class="blue"/>
<ellipse cx="370" cy="135" rx="40" ry="40" class="blue"/>
<ellipse cx="280" cy="225" rx="40" ry="40" class="blue"/>
<ellipse cx="370" cy="225" rx="40" ry="40" class="blue"/>
</g>
</g>
<g>
<rect x="0" y="0" width="720" height="360" fill="url(#glaze)"/>
<path d="M 30 30 L 690 30 L 690 330 L 30 330 Z M 60 60 L 60 300 L 660 300 L 660 60 Z" fill="rgb(255,255,255)" opacity="0.4"/>
<path d="M 0 0 L 720 0 L 720 360 L 0 360 Z M 30 30 L 30 330 L 690 330 L 690 30 Z" fill="rgb(0,0,0)" opacity="0.4"/>
</g>
</svg>
