<?xml version="1.0"?>
<svg xmlns="http://www.w3.org/2000/svg" xmlns:xlink="http://www.w3.org/1999/xlink" version="1.1" width="720" height="360" viewBox="0 0 720 360">
<!-- Generated by Kreative Vexillo v1.0 -->
<style>
.blue{fill:rgb(0,103,177);}
.red{fill:rgb(239,65,53);}
.white{fill:rgb(255,255,255);}
.yellow{fill:rgb(255,242,3);}
</style>
<defs>
<path id="star" d="M 0.0 -1.0 L 0.2245 -0.309 L 0.9511 -0.309 L 0.3633 0.118 L 0.5878 0.809 L 0.0 0.382 L -0.5878 0.809 L -0.3633 0.118 L -0.9511 -0.309 L -0.2245 -0.309 Z"/>
<linearGradient id="glaze" x1="0%" y1="0%" x2="100%" y2="100%">
<stop offset="0%" stop-color="rgb(255,255,255)" stop-opacity="0.2"/>
<stop offset="49.999%" stop-color="rgb(255,255,255)" stop-opacity="0.0"/>
<stop offset="50.001%" stop-color="rgb(0,0,0)" stop-opacity="0.0"/>
<stop offset="100%" stop-color="rgb(0,0,0)" stop-opacity="0.2"/>
</linearGradient>
</defs>
<g>
<g>
<rect x="0" y="0" width="720" height="120" class="yellow"/>
<rect x="0" y="120" width="720" height="120" class="blue"/>
<rect x="0" y="240" width="720" height="120" class="red"/>
</g>
<g>
<use xlink:href="#star" transform="translate(264.1335 213.6511) scale(15 15) rotate(-72)" class="white"/>
<use xlink:href="#star" transform="translate(281.1914 181.9522) scale(15 15) rotate(-51.4286)" class="white"/>
<use xlink:href="#star" transform="translate(308.2998 158.2684) scale(15 15) rotate(-30.8571)" class="white"/>
<use xlink:href="#star" transform="translate(342.0015 145.6199) scale(15 15) rotate(-10.2857)" class="white"/>
<use xlink:href="#star" transform="translate(377.9985 145.6199) scale(15 15) rotate(10.2857)" class="white"/>
<use xlink:href="#star" transform="translate(411.7002 158.2684) scale(15 15) rotate(30.8571)" class="white"/>
<use xlink:href="#star" transform="translate(438.8086 181.9522) scale(15 15) rotate(51.4286)" class="white"/>
<use xlink:href="#star" transform="translate(455.8665 213.6511) scale(15 15) rotate(72)" class="white"/>
</g>
</g>
<g>
<rect x="0" y="0" width="720" height="360" fill="url(#glaze)"/>
<path d="M 30 30 L 690 30 L 690 330 L 30 330 Z M 60 60 L 60 300 L 660 300 L 660 60 Z" fill="rgb(255,255,255)" opacity="0.4"/>
<path d="M 0 0 L 720 0 L 720 360 L 0 360 Z M 30 30 L 30 330 L 690 330 L 690 30 Z" fill="rgb(0,0,0)" opacity="0.4"/>
</g>
</svg>
