<?xml version="1.0"?>
<svg xmlns="http://www.w3.org/2000/svg" xmlns:xlink="http://www.w3.org/1999/xlink" version="1.1" width="720" height="360" viewBox="0 0 720 360">
<!-- Generated by Kreative Vexillo v1.0 -->
<style>
.black{fill:rgb(0,0,0);}
.gray{fill:rgb(68,68,68);}
.white{fill:rgb(255,255,255);}
</style>
<defs>
<path id="votgil" d="M 0.7778 -0.25 V -0.3056 H 0.3056 V -0.7778 H 0.24999999 V -0.30560002 H -0.25 V -0.7778 H -0.3056 V -0.30560002 H -0.7778 V -0.25000003 H -0.30560002 V 0.24999997 H -0.7778 V 0.30559996 H -0.30560002 V 0.77779996 H -0.25000003 V 0.3056 H 0.24999997 V 0.77779996 H 0.30559996 V 0.3056 H 0.77779996 V 0.24999999 H 0.3056 V -0.25 H 0.7778 Z M 0.25 0.25 H -0.25 V -0.25 H 0.25 V 0.25 Z M -0.151 0.0375 L -0.125 0.0278 L -0.0991 0.0179 C -0.098 0.0205 -0.0726 0.0833 0.0 0.0833 S 0.098 0.020500004 0.0991 0.017800003 L 0.15110001 0.0375 C 0.1495 0.0417 0.1117 0.1389 0.0 0.1389 S -0.1495 0.0417 -0.151 0.0375 Z M -0.1111 -0.0833 C -0.1111 -0.0986 -0.0987 -0.1111 -0.0833 -0.1111 S -0.0555 -0.0987 -0.0555 -0.0833 S -0.0679 -0.0555 -0.0833 -0.0555 S -0.1111 -0.068 -0.1111 -0.0833 Z M 0.0556 -0.0833 C 0.0556 -0.0986 0.067999996 -0.1111 0.083399996 -0.1111 S 0.1112 -0.0987 0.1112 -0.0833 S 0.098799996 -0.0555 0.083399996 -0.0555 S 0.0556 -0.068 0.0556 -0.0833 Z"/>
<linearGradient id="glaze" x1="0%" y1="0%" x2="100%" y2="100%">
<stop offset="0%" stop-color="rgb(255,255,255)" stop-opacity="0.2"/>
<stop offset="49.999%" stop-color="rgb(255,255,255)" stop-opacity="0.0"/>
<stop offset="50.001%" stop-color="rgb(0,0,0)" stop-opacity="0.0"/>
<stop offset="100%" stop-color="rgb(0,0,0)" stop-opacity="0.2"/>
</linearGradient>
</defs>
<g>
<g>
<rect x="0" y="0" width="108" height="360" class="gray"/>
<rect x="108" y="0" width="504" height="360" class="white"/>
<rect x="612" y="0" width="108" height="360" class="gray"/>
</g>
<use xlink:href="#votgil" transform="translate(360 180) scale(180 180) rotate(0)" class="black"/>
</g>
<g>
<rect x="0" y="0" width="720" height="360" fill="url(#glaze)"/>
<path d="M 30 30 L 690 30 L 690 330 L 30 330 Z M 60 60 L 60 300 L 660 300 L 660 60 Z" fill="rgb(255,255,255)" opacity="0.4"/>
<path d="M 0 0 L 720 0 L 720 360 L 0 360 Z M 30 30 L 30 330 L 690 330 L 690 30 Z" fill="rgb(0,0,0)" opacity="0.4"/>
</g>
</svg>
