<?xml version="1.0"?>
<svg xmlns="http://www.w3.org/2000/svg" xmlns:xlink="http://www.w3.org/1999/xlink" version="1.1" width="720" height="360" viewBox="0 0 720 360">
<!-- Generated by Kreative Vexillo v1.0 -->
<style>
.violet{fill:rgb(153,0,153);}
</style>
<defs>
<path id="-glazearea" d="M 0.0 0.0 L 1.0 0.25 L 1.0 0.75 L 0.0 1.0 Z"/>
<linearGradient id="glaze" x1="0%" y1="0%" x2="100%" y2="100%">
<stop offset="0%" stop-color="rgb(255,255,255)" stop-opacity="0.2"/>
<stop offset="49.999%" stop-color="rgb(255,255,255)" stop-opacity="0.0"/>
<stop offset="50.001%" stop-color="rgb(0,0,0)" stop-opacity="0.0"/>
<stop offset="100%" stop-color="rgb(0,0,0)" stop-opacity="0.2"/>
</linearGradient>
</defs>
<g>
<path d="M 0 0 L 720 90 L 720 270 L 0 360 Z" class="violet"/>
</g>
<g>
<path d="M 0 0 L 720 90 L 720 270 L 0 360 Z" fill="url(#glaze)"/>
<path d="M 60 67.9669 L 660 142.9669 L 660 142.9669 L 660 217.0331 L 660 217.0331 L 60 292.0331 L 60 292.0331 L 60 292.0331 L 60 292.0331 L 60 67.9669 Z M 30 33.9835 L 30 326.0165 L 30 326.0165 L 690 243.5165 L 690 243.5165 L 690 116.4835 L 30 33.9835 Z" fill="rgb(255,255,255)" opacity="0.4"/>
<path d="M 30 33.9835 L 690 116.4835 L 690 243.5165 L 690 243.5165 L 30 326.0165 L 30 326.0165 L 30 33.9835 Z M 0 0 L 0 360 L 720 270 L 720 90 L 0 0 Z" fill="rgb(0,0,0)" opacity="0.4"/>
</g>
</svg>
