<?xml version="1.0"?>
<svg xmlns="http://www.w3.org/2000/svg" xmlns:xlink="http://www.w3.org/1999/xlink" version="1.1" width="720" height="360" viewBox="0 0 720 360">
<!-- Generated by Kreative Vexillo v1.0 -->
<style>
.blue{fill:rgb(38,40,181);}
.white{fill:rgb(255,255,255);}
</style>
<defs>
<path id="s" d="M 0.0598 0.0396 C 0.13139999 0.0396 0.1928 0.015000001 0.23719999 -0.010600001 L 0.21959999 0.0536 C 0.1751 0.074599996 0.10949999 0.09729999 0.033599988 0.09729999 C -0.11500001 0.09729999 -0.114400014 0.039599992 -0.20170002 0.039599992 C -0.22280002 0.039599992 -0.24100001 0.04219999 -0.25660002 0.04589999 L -0.23590001 -0.029600006 C -0.22170001 -0.031100005 -0.20660001 -0.032000005 -0.19060001 -0.032000005 C -0.0882 -0.032 -0.0843 0.0396 0.0598 0.0396 Z M 0.4705 0.0278 C 0.4705 0.2426 0.2964 0.4167 0.0816 0.4167 C 0.073800005 0.4167 0.066 0.4165 0.058400005 0.416 L 0.058500007 0.3413 C 0.015000008 0.35520002 -0.032199994 0.36110002 -0.081599995 0.36110002 C -0.2964 0.36110002 -0.4705 0.18700002 -0.4705 -0.027799994 S -0.2964 -0.4167 -0.0816 -0.4167 C -0.07610001 -0.4167 -0.0706 -0.41660002 -0.0651 -0.41640002 L -0.0659 -0.33810002 C -0.020399999 -0.35390002 0.029300004 -0.3612 0.08150001 -0.3612 C 0.2964 -0.3611 0.4705 -0.187 0.4705 0.0278 Z M 0.3736 0.0295 C 0.3736 -0.14019999 0.236 -0.2778 0.066300005 -0.2778 C -0.03339999 -0.2778 -0.12179999 -0.2302 -0.1779 -0.15669999 C -0.1718 -0.15689999 -0.1657 -0.15709999 -0.1593 -0.15709999 C -0.054700002 -0.15709999 -0.050800003 -0.085499994 0.096300006 -0.085499994 C 0.1658 -0.085499994 0.22580001 -0.10769999 0.2705 -0.1319 L 0.2532 -0.0687 C 0.20799999 -0.0485 0.14359999 -0.027800001 0.0696 -0.027800001 C -0.082 -0.027800001 -0.081499994 -0.0855 -0.1706 -0.0855 C -0.19 -0.0855 -0.2071 -0.0834 -0.222 -0.0802 L -0.2211 -0.0836 H -0.2211 L -0.2087 -0.1287 L -0.2015 -0.1551 L -0.2015 -0.1551 L -0.16679999 -0.28170002 C -0.13769999 -0.30580002 -0.10499999 -0.3239 -0.06959999 -0.3366 C -0.2386 -0.3347 -0.3749 -0.1972 -0.3749 -0.0278 C -0.3749 0.1429 -0.2365 0.2813 -0.0659 0.2813 C 0.026 0.2813 0.1084 0.2412 0.165 0.17750001 C 0.12100001 0.19540001 0.0627 0.21200001 -0.0034999996 0.21200001 C -0.1551 0.21200001 -0.1546 0.1543 -0.2437 0.1543 C -0.2599 0.1543 -0.2744 0.1558 -0.2874 0.15810001 L -0.2671 0.08420001 C -0.256 0.08330001 -0.24450001 0.08280001 -0.2324 0.08280001 C -0.1278 0.08280001 -0.123900004 0.1544 0.023200005 0.1544 C 0.097200006 0.1544 0.1605 0.12920001 0.206 0.1032 L 0.1884 0.1674 C 0.1884 0.1674 0.1884 0.1674 0.1884 0.1674 L 0.1543 0.292 L 0.15200001 0.2937 C 0.12740001 0.3122 0.10060001 0.32630002 0.07200001 0.3368 C 0.2391 0.3336 0.3736 0.1973 0.3736 0.0295 Z"/>
<linearGradient id="glaze" x1="0%" y1="0%" x2="100%" y2="100%">
<stop offset="0%" stop-color="rgb(255,255,255)" stop-opacity="0.2"/>
<stop offset="49.999%" stop-color="rgb(255,255,255)" stop-opacity="0.0"/>
<stop offset="50.001%" stop-color="rgb(0,0,0)" stop-opacity="0.0"/>
<stop offset="100%" stop-color="rgb(0,0,0)" stop-opacity="0.2"/>
</linearGradient>
</defs>
<g>
<rect x="0" y="0" width="720" height="360" class="blue"/>
<use xlink:href="#s" transform="translate(360 180) scale(240 240) rotate(0)" class="white"/>
</g>
<g>
<rect x="0" y="0" width="720" height="360" fill="url(#glaze)"/>
<path d="M 30 30 L 690 30 L 690 330 L 30 330 Z M 60 60 L 60 300 L 660 300 L 660 60 Z" fill="rgb(255,255,255)" opacity="0.4"/>
<path d="M 0 0 L 720 0 L 720 360 L 0 360 Z M 30 30 L 30 330 L 690 330 L 690 30 Z" fill="rgb(0,0,0)" opacity="0.4"/>
</g>
</svg>
