<?xml version="1.0"?>
<svg xmlns="http://www.w3.org/2000/svg" xmlns:xlink="http://www.w3.org/1999/xlink" version="1.1" width="720" height="360" viewBox="0 0 720 360">
<!-- Generated by Kreative Vexillo v1.0 -->
<style>
.blue{fill:rgb(0,0,255);}
.white{fill:rgb(255,255,255);}
</style>
<defs>
<path id="-glazearea" d="M 0.0 0.0 L 1.0 0.0 L 0.75 0.5 L 1.0 1.0 L 0.0 1.0 Z"/>
<clipPath id="clip0">
<path d="M 0 0 L 720 0 L 540 180 L 720 360 L 0 360 Z"/>
</clipPath>
<linearGradient id="glaze" x1="0%" y1="0%" x2="100%" y2="100%">
<stop offset="0%" stop-color="rgb(255,255,255)" stop-opacity="0.2"/>
<stop offset="49.999%" stop-color="rgb(255,255,255)" stop-opacity="0.0"/>
<stop offset="50.001%" stop-color="rgb(0,0,0)" stop-opacity="0.0"/>
<stop offset="100%" stop-color="rgb(0,0,0)" stop-opacity="0.2"/>
</linearGradient>
</defs>
<g>
<g clip-path="url(#clip0)">
<g>
<rect x="0" y="0" width="360" height="360" class="white"/>
<rect x="360" y="0" width="360" height="360" class="blue"/>
</g>
</g>
</g>
<g>
<path d="M 0 0 L 720 0 L 540 180 L 720 360 L 0 360 Z" fill="url(#glaze)"/>
<path d="M 575.1472 60 L 497.5736 137.5736 L 455.1472 180 L 497.5736 222.4264 L 575.1472 300 L 60 300 L 60 60 Z M 30 30 L 30 330 L 647.5736 330 L 518.7868 201.2132 L 497.5736 180 L 518.7868 158.7868 L 647.5736 30 Z" fill="rgb(255,255,255)" opacity="0.4"/>
<path d="M 647.5736 30 L 518.7868 158.7868 L 497.5736 180 L 518.7868 201.2132 L 647.5736 330 L 30 330 L 30 30 Z M 0 0 L 0 360 L 720 360 L 540 180 L 720 0 Z" fill="rgb(0,0,0)" opacity="0.4"/>
</g>
</svg>
