<?xml version="1.0"?>
<svg xmlns="http://www.w3.org/2000/svg" xmlns:xlink="http://www.w3.org/1999/xlink" version="1.1" width="720" height="360" viewBox="0 0 720 360">
<!-- Generated by Kreative Vexillo v1.0 -->
<style>
.purple{fill:rgb(89,62,182);}
.white{fill:rgb(255,255,255);}
</style>
<defs>
<path id="s" d="M 0.9472 0.4769 V 0.3704 H 0.8083 V 0.4769 H 0.7361 V 0.3472 H 0.59720004 V 0.5602 H 0.55550003 L 0.5557 0.5323 H 0.5487 V 0.5061 H 0.545 L 0.5449 0.4833 H 0.5392 L 0.5389 0.4559 L 0.53360003 0.45610002 V 0.4332 H 0.52730006 L 0.52800006 0.4084 L 0.52220005 0.4081 V 0.38300002 H 0.5159001 L 0.51620007 0.35790002 H 0.51070005 V 0.33170003 H 0.5044001 V 0.31310004 L 0.50430006 0.31090003 L 0.49640006 0.31040004 L 0.49610007 0.33180004 H 0.48970008 V 0.35800004 H 0.4842001 L 0.48450008 0.38310003 H 0.47820008 V 0.40820003 L 0.4725001 0.40850002 L 0.4731001 0.43330002 H 0.4668001 V 0.4562 L 0.4615001 0.456 L 0.46120012 0.4834 H 0.4556001 L 0.45550013 0.5062 H 0.45170012 V 0.5324 H 0.44470012 L 0.44490013 0.5603 H 0.4056 V 0.3472 H 0.2667 V 0.47680002 H 0.1917 V 0.3704 H 0.0528 V 0.4769 H 0.0 V 0.52320004 H 0.0528 V 0.6251 H 0.1917 V 0.52320004 H 0.2667 V 0.6528 H 0.4056 V 0.6065 H 0.4454 L 0.4457 0.6377 L 0.4518 0.63740003 L 0.45189998 0.66340005 H 0.45559996 L 0.45569995 0.68850005 H 0.46119994 V 0.71550006 H 0.48919994 L 0.49169993 0.80590004 H 0.5101999 L 0.5113999 0.71550006 H 0.5392999 V 0.68850005 H 0.5447999 L 0.5449999 0.66340005 H 0.5486999 L 0.54879993 0.63740003 L 0.55489993 0.6377 L 0.5551999 0.6065 H 0.5972 V 0.6528 H 0.73609996 V 0.52320004 H 0.80829996 V 0.6251 H 0.94719994 V 0.52320004 H 0.99999994 V 0.47690004 H 0.9472 Z M 0.1639 0.5787 H 0.0806 V 0.4167 H 0.1639 V 0.5787 Z M 0.3778 0.6065 H 0.2945 V 0.3935 H 0.3778 V 0.6065 Z M 0.7083 0.6065 H 0.625 V 0.3935 H 0.7083 V 0.6065 Z M 0.9194 0.5787 H 0.8361 V 0.4167 H 0.9194 V 0.5787 Z"/>
<linearGradient id="glaze" x1="0%" y1="0%" x2="100%" y2="100%">
<stop offset="0%" stop-color="rgb(255,255,255)" stop-opacity="0.2"/>
<stop offset="49.999%" stop-color="rgb(255,255,255)" stop-opacity="0.0"/>
<stop offset="50.001%" stop-color="rgb(0,0,0)" stop-opacity="0.0"/>
<stop offset="100%" stop-color="rgb(0,0,0)" stop-opacity="0.2"/>
</linearGradient>
</defs>
<g>
<rect x="0" y="0" width="720" height="360" class="purple"/>
<use xlink:href="#s" transform="translate(0 0) scale(720 360) rotate(0)" class="white"/>
</g>
<g>
<rect x="0" y="0" width="720" height="360" fill="url(#glaze)"/>
<path d="M 30 30 L 690 30 L 690 330 L 30 330 Z M 60 60 L 60 300 L 660 300 L 660 60 Z" fill="rgb(255,255,255)" opacity="0.4"/>
<path d="M 0 0 L 720 0 L 720 360 L 0 360 Z M 30 30 L 30 330 L 690 330 L 690 30 Z" fill="rgb(0,0,0)" opacity="0.4"/>
</g>
</svg>
