<?xml version="1.0"?>
<svg xmlns="http://www.w3.org/2000/svg" xmlns:xlink="http://www.w3.org/1999/xlink" version="1.1" width="720" height="360" viewBox="0 0 720 360">
<!-- Generated by Kreative Vexillo v1.0 -->
<style>
.blue{fill:rgb(160,206,239);}
.magenta{fill:rgb(241,167,254);}
.pink{fill:rgb(244,184,222);}
.white{fill:rgb(255,255,255);}
</style>
<defs>
<linearGradient id="grad0" y1="0%" y2="100%" x1="0%" x2="0%">
<stop offset="0%" stop-color="rgb(160,206,239)"/>
<stop offset="100%" stop-color="rgb(244,184,222)"/>
</linearGradient>
<linearGradient id="glaze" x1="0%" y1="0%" x2="100%" y2="100%">
<stop offset="0%" stop-color="rgb(255,255,255)" stop-opacity="0.2"/>
<stop offset="49.999%" stop-color="rgb(255,255,255)" stop-opacity="0.0"/>
<stop offset="50.001%" stop-color="rgb(0,0,0)" stop-opacity="0.0"/>
<stop offset="100%" stop-color="rgb(0,0,0)" stop-opacity="0.2"/>
</linearGradient>
</defs>
<g>
<g>
<rect x="0" y="0" width="720" height="60" class="magenta"/>
<rect x="0" y="60" width="720" height="60" class="white"/>
<rect x="0" y="120" width="720" height="60" class="blue"/>
<rect x="0" y="180" width="720" height="60" class="pink"/>
<rect x="0" y="240" width="720" height="60" class="white"/>
<rect x="0" y="300" width="720" height="60" class="magenta"/>
</g>
<rect x="0" y="150" width="720" height="60" fill="url(#grad0)"/>
</g>
<g>
<rect x="0" y="0" width="720" height="360" fill="url(#glaze)"/>
<path d="M 30 30 L 690 30 L 690 330 L 30 330 Z M 60 60 L 60 300 L 660 300 L 660 60 Z" fill="rgb(255,255,255)" opacity="0.4"/>
<path d="M 0 0 L 720 0 L 720 360 L 0 360 Z M 30 30 L 30 330 L 690 330 L 690 30 Z" fill="rgb(0,0,0)" opacity="0.4"/>
</g>
</svg>
