<?xml version="1.0"?>
<svg xmlns="http://www.w3.org/2000/svg" xmlns:xlink="http://www.w3.org/1999/xlink" version="1.1" width="720" height="360" viewBox="0 0 720 360">
<!-- Generated by Kreative Vexillo v1.0 -->
<style>
.black{fill:rgb(0,0,0);}
.blue{fill:rgb(0,0,255);}
.green{fill:rgb(0,153,0);}
.orange{fill:rgb(255,153,0);}
.purple{fill:rgb(153,0,153);}
.red{fill:rgb(255,0,0);}
.white{fill:rgb(255,255,255);}
.yellow{fill:rgb(255,255,0);}
</style>
<defs>
<clipPath id="clip0">
<path d="M 0 0 L 360 180 L 0 360 Z"/>
</clipPath>
<clipPath id="clip1">
<path d="M 0 0 L 720 0 L 720 360 L 0 360 L 360 180 Z"/>
</clipPath>
<clipPath id="clip2">
<rect x="0" y="0" width="720" height="360"/>
</clipPath>
<clipPath id="clip3">
<path d="M 16.0997 -32.1994 L 16.0997 -32.1994 L 376.0997 147.8006 L 343.9003 212.1994 L -16.0997 32.1994 Z"/>
<path d="M 376.0997 212.1994 L 376.0997 212.1994 L 16.0997 392.1994 L -16.0997 327.8006 L 343.9003 147.8006 Z"/>
<path d="M 360 144 L 360 144 L 720 144 L 720 216 L 360 216 Z"/>
</clipPath>
<linearGradient id="glaze" x1="0%" y1="0%" x2="100%" y2="100%">
<stop offset="0%" stop-color="rgb(255,255,255)" stop-opacity="0.2"/>
<stop offset="49.999%" stop-color="rgb(255,255,255)" stop-opacity="0.0"/>
<stop offset="50.001%" stop-color="rgb(0,0,0)" stop-opacity="0.0"/>
<stop offset="100%" stop-color="rgb(0,0,0)" stop-opacity="0.2"/>
</linearGradient>
</defs>
<g>
<g>
<rect x="0" y="0" width="720" height="60" class="red"/>
<rect x="0" y="60" width="720" height="60" class="orange"/>
<rect x="0" y="120" width="720" height="60" class="yellow"/>
<rect x="0" y="180" width="720" height="60" class="green"/>
<rect x="0" y="240" width="720" height="60" class="blue"/>
<rect x="0" y="300" width="720" height="60" class="purple"/>
</g>
<g clip-path="url(#clip0)">
<path d="M 26.8328 -53.6656 L 26.8328 -53.6656 L 386.8328 126.3344 L 333.1672 233.6656 L -26.8328 53.6656 Z" class="black"/>
<path d="M 386.8328 233.6656 L 386.8328 233.6656 L 26.8328 413.6656 L -26.8328 306.3344 L 333.1672 126.3344 Z" class="black"/>
</g>
<g clip-path="url(#clip1)">
<path d="M 26.8328 -53.6656 L 26.8328 -53.6656 L 386.8328 126.3344 L 333.1672 233.6656 L -26.8328 53.6656 Z" class="white"/>
<path d="M 386.8328 233.6656 L 386.8328 233.6656 L 26.8328 413.6656 L -26.8328 306.3344 L 333.1672 126.3344 Z" class="white"/>
<path d="M 360 120 L 360 120 L 720 120 L 720 240 L 360 240 Z" class="white"/>
</g>
<g clip-path="url(#clip2)">
<g clip-path="url(#clip3)">
<g>
<rect x="0" y="0" width="720" height="60" class="red"/>
<rect x="0" y="60" width="720" height="60" class="orange"/>
<rect x="0" y="120" width="720" height="60" class="yellow"/>
<rect x="0" y="180" width="720" height="60" class="green"/>
<rect x="0" y="240" width="720" height="60" class="blue"/>
<rect x="0" y="300" width="720" height="60" class="purple"/>
</g>
</g>
</g>
</g>
<g>
<rect x="0" y="0" width="720" height="360" fill="url(#glaze)"/>
<path d="M 30 30 L 690 30 L 690 330 L 30 330 Z M 60 60 L 60 300 L 660 300 L 660 60 Z" fill="rgb(255,255,255)" opacity="0.4"/>
<path d="M 0 0 L 720 0 L 720 360 L 0 360 Z M 30 30 L 30 330 L 690 330 L 690 30 Z" fill="rgb(0,0,0)" opacity="0.4"/>
</g>
</svg>
