<?xml version="1.0"?>
<svg xmlns="http://www.w3.org/2000/svg" xmlns:xlink="http://www.w3.org/1999/xlink" version="1.1" width="720" height="360" viewBox="0 0 720 360">
<!-- Generated by Kreative Vexillo v1.0 -->
<style>
.black{fill:rgb(0,0,0);}
.white{fill:rgb(255,255,255);}
</style>
<defs>
<path id="v" d="M -0.1091 1.0 L -0.4666 0.0 H -0.2476 L 0.0055 0.7401 L 0.2504 0.0 H 0.46460003 L 0.1064 1.0 H -0.1091 Z"/>
<linearGradient id="glaze" x1="0%" y1="0%" x2="100%" y2="100%">
<stop offset="0%" stop-color="rgb(255,255,255)" stop-opacity="0.2"/>
<stop offset="49.999%" stop-color="rgb(255,255,255)" stop-opacity="0.0"/>
<stop offset="50.001%" stop-color="rgb(0,0,0)" stop-opacity="0.0"/>
<stop offset="100%" stop-color="rgb(0,0,0)" stop-opacity="0.2"/>
</linearGradient>
</defs>
<g>
<rect x="0" y="0" width="720" height="360" class="white"/>
<use xlink:href="#v" transform="translate(360 60) scale(240 240) rotate(0)" class="black"/>
</g>
<g>
<rect x="0" y="0" width="720" height="360" fill="url(#glaze)"/>
<path d="M 30 30 L 690 30 L 690 330 L 30 330 Z M 60 60 L 60 300 L 660 300 L 660 60 Z" fill="rgb(255,255,255)" opacity="0.4"/>
<path d="M 0 0 L 720 0 L 720 360 L 0 360 Z M 30 30 L 30 330 L 690 330 L 690 30 Z" fill="rgb(0,0,0)" opacity="0.4"/>
</g>
</svg>
