<?xml version="1.0"?>
<svg xmlns="http://www.w3.org/2000/svg" xmlns:xlink="http://www.w3.org/1999/xlink" version="1.1" width="720" height="360" viewBox="0 0 720 360">
<!-- Generated by Kreative Vexillo v1.0 -->
<style>
.black{fill:rgb(0,0,0);}
.blue{fill:rgb(12,28,140);}
.gold{fill:rgb(252,181,20);}
.green{fill:rgb(0,124,89);}
.red{fill:rgb(226,61,40);}
.white{fill:rgb(255,255,255);}
</style>
<defs>
<clipPath id="clip0">
<path d="M 0 0 L 360 180 L 0 360 Z"/>
</clipPath>
<clipPath id="clip1">
<path d="M 0 0 L 720 0 L 720 360 L 0 360 L 360 180 Z"/>
</clipPath>
<clipPath id="clip2">
<rect x="0" y="0" width="720" height="360"/>
</clipPath>
<linearGradient id="glaze" x1="0%" y1="0%" x2="100%" y2="100%">
<stop offset="0%" stop-color="rgb(255,255,255)" stop-opacity="0.2"/>
<stop offset="49.999%" stop-color="rgb(255,255,255)" stop-opacity="0.0"/>
<stop offset="50.001%" stop-color="rgb(0,0,0)" stop-opacity="0.0"/>
<stop offset="100%" stop-color="rgb(0,0,0)" stop-opacity="0.2"/>
</linearGradient>
</defs>
<g>
<g>
<rect x="0" y="0" width="720" height="180" class="red"/>
<rect x="0" y="180" width="720" height="180" class="blue"/>
</g>
<path d="M 0 0 L 360 180 L 0 360 Z" class="black"/>
<g clip-path="url(#clip0)">
<path d="M -26.8121 53.676 L 333.1879 233.676 L 386.8121 126.324 L 26.8121 -53.676 L -26.8121 53.676 Z" class="gold"/>
<path d="M 333.1879 126.324 L -26.8121 306.324 L 26.8121 413.676 L 386.8121 233.676 L 333.1879 126.324 Z" class="gold"/>
</g>
<g clip-path="url(#clip1)">
<path d="M -26.8121 53.676 L 333.1879 233.676 L 386.8121 126.324 L 26.8121 -53.676 L -26.8121 53.676 Z" class="white"/>
<path d="M 333.1879 126.324 L -26.8121 306.324 L 26.8121 413.676 L 386.8121 233.676 L 333.1879 126.324 Z" class="white"/>
<path d="M 360 240 L 720 240 L 720 120 L 360 120 L 360 240 Z" class="white"/>
</g>
<g clip-path="url(#clip2)">
<path d="M -16.0873 32.2056 L 343.9127 212.2056 L 376.0873 147.7944 L 16.0873 -32.2056 L -16.0873 32.2056 Z" class="green"/>
<path d="M 343.9127 147.7944 L -16.0873 327.7944 L 16.0873 392.2056 L 376.0873 212.2056 L 343.9127 147.7944 Z" class="green"/>
<path d="M 360 216 L 720 216 L 720 144 L 360 144 L 360 216 Z" class="green"/>
</g>
</g>
<g>
<rect x="0" y="0" width="720" height="360" fill="url(#glaze)"/>
<path d="M 30 30 L 690 30 L 690 330 L 30 330 Z M 60 60 L 60 300 L 660 300 L 660 60 Z" fill="rgb(255,255,255)" opacity="0.4"/>
<path d="M 0 0 L 720 0 L 720 360 L 0 360 Z M 30 30 L 30 330 L 690 330 L 690 30 Z" fill="rgb(0,0,0)" opacity="0.4"/>
</g>
</svg>
