<?xml version="1.0"?>
<svg xmlns="http://www.w3.org/2000/svg" xmlns:xlink="http://www.w3.org/1999/xlink" version="1.1" width="540" height="360" viewBox="0 0 540 360">
<!-- Generated by Kreative Vexillo v1.0 -->
<style>
.blue{fill:rgb(0,43,127);}
.red{fill:rgb(232,17,45);}
.white{fill:rgb(255,255,255);}
</style>
<defs>
<path id="star5" d="M 0.0 -1.0 L 0.261238 -0.359563 L 0.951057 -0.309017 L 0.422691 0.137341 L 0.587785 0.809017 L 0.0 0.444444 L -0.587785 0.809017 L -0.422691 0.137341 L -0.951057 -0.309017 L -0.261238 -0.359563 Z"/>
<path id="star7" d="M 0.0 -1.0 L 0.192837 -0.40043 L 0.781831 -0.62349 L 0.433301 -0.098898 L 0.974928 0.222521 L 0.34748 0.277106 L 0.433884 0.900969 L 0.0 0.444444 L -0.433884 0.900969 L -0.34748 0.277106 L -0.974928 0.222521 L -0.433301 -0.098898 L -0.781831 -0.62349 L -0.192837 -0.40043 Z"/>
<clipPath id="clip0">
<path d="M 0 0 L 0 14.4222 L 113.3667 90 L 113.3667 90 L 0 165.5778 L 0 180 L 21.6333 180 L 135 104.4222 L 135 104.4222 L 248.3667 180 L 270 180 L 270 165.5778 L 156.6333 90 L 156.6333 90 L 270 14.4222 L 270 0 L 248.3667 0 L 135 75.5778 L 135 75.5778 L 21.6333 0 Z"/>
</clipPath>
<linearGradient id="glaze" x1="0%" y1="0%" x2="100%" y2="100%">
<stop offset="0%" stop-color="rgb(255,255,255)" stop-opacity="0.2"/>
<stop offset="49.999%" stop-color="rgb(255,255,255)" stop-opacity="0.0"/>
<stop offset="50.001%" stop-color="rgb(0,0,0)" stop-opacity="0.0"/>
<stop offset="100%" stop-color="rgb(0,0,0)" stop-opacity="0.2"/>
</linearGradient>
</defs>
<g>
<rect x="0" y="0" width="540" height="360" class="blue"/>
<g>
<path d="M 0 0 L 0 21.6333 L 0 21.6333 L 102.55 90 L 102.55 90 L 0 158.3667 L 0 158.3667 L 0 180 L 32.45 180 L 135 111.6333 L 135 111.6333 L 237.55 180 L 270 180 L 270 158.3667 L 167.45 90 L 167.45 90 L 270 21.6333 L 270 0 L 237.55 0 L 135 68.3667 L 135 68.3667 L 135 68.3667 L 135 68.3667 L 32.45 0 Z" class="white"/>
<g clip-path="url(#clip0)">
<path d="M 0 0 L 135 90 L 0 90 Z" class="red"/>
<path d="M 270 0 L 135 90 L 135 0 Z" class="red"/>
<path d="M 0 180 L 135 90 L 135 180 Z" class="red"/>
<path d="M 270 180 L 135 90 L 270 90 Z" class="red"/>
</g>
<g>
<rect x="0" y="60" width="270" height="60" class="white"/>
<rect x="105" y="0" width="60" height="180" class="white"/>
</g>
<g>
<rect x="0" y="72" width="270" height="36" class="red"/>
<rect x="117" y="0" width="36" height="180" class="red"/>
</g>
</g>
<g>
<use xlink:href="#star7" transform="translate(135 270) scale(40.5 40.5) rotate(0)" class="white"/>
<use xlink:href="#star7" transform="translate(405 300) scale(19.2857 19.2857) rotate(0)" class="white"/>
<use xlink:href="#star7" transform="translate(337.5 157.5) scale(19.2857 19.2857) rotate(0)" class="white"/>
<use xlink:href="#star7" transform="translate(405 60) scale(19.2857 19.2857) rotate(0)" class="white"/>
<use xlink:href="#star7" transform="translate(465 133.5) scale(19.2857 19.2857) rotate(0)" class="white"/>
<use xlink:href="#star5" transform="translate(432 195) scale(11.25 11.25) rotate(0)" class="white"/>
</g>
</g>
<g>
<rect x="0" y="0" width="540" height="360" fill="url(#glaze)"/>
<path d="M 30 30 L 510 30 L 510 330 L 30 330 Z M 60 60 L 60 300 L 480 300 L 480 60 Z" fill="rgb(255,255,255)" opacity="0.4"/>
<path d="M 0 0 L 540 0 L 540 360 L 0 360 Z M 30 30 L 30 330 L 510 330 L 510 30 Z" fill="rgb(0,0,0)" opacity="0.4"/>
</g>
</svg>
