<?xml version="1.0"?>
<svg xmlns="http://www.w3.org/2000/svg" xmlns:xlink="http://www.w3.org/1999/xlink" version="1.1" width="540" height="360" viewBox="0 0 540 360">
<!-- Generated by Kreative Vexillo v1.0 -->
<style>
.black{fill:rgb(0,0,0);}
.blue{fill:rgb(38,139,204);}
.white{fill:rgb(255,255,255);}
</style>
<defs>
<path id="star" d="M 0.0 -1.0 L 0.2245 -0.309 L 0.9511 -0.309 L 0.3633 0.118 L 0.5878 0.809 L 0.0 0.382 L -0.5878 0.809 L -0.3633 0.118 L -0.9511 -0.309 L -0.2245 -0.309 Z"/>
<path id="wave" d="M 1.0 -0.1172 V -0.044600002 C 0.9507 -0.049100004 0.9427 -0.065500006 0.8672 -0.065500006 C 0.7795 -0.065500006 0.7928 -0.042700008 0.688 -0.042700008 S 0.59400004 -0.065500006 0.5062 -0.065500006 C 0.4185 -0.065500006 0.425 -0.042700008 0.32410002 -0.042700008 C 0.22320002 -0.042700008 0.23300001 -0.065500006 0.14530002 -0.065500006 C 0.06370001 -0.065500006 0.060900018 -0.046400007 1.4901161E-8 -0.043700006 V -0.1163 C 0.060900014 -0.119 0.06370001 -0.1381 0.14530002 -0.1381 C 0.23300001 -0.1381 0.22320002 -0.1153 0.32410002 -0.1153 C 0.425 -0.1153 0.4185 -0.1381 0.5062 -0.1381 C 0.5939 -0.1381 0.58320004 -0.1153 0.688 -0.1153 S 0.7795 -0.1381 0.8672 -0.1381 C 0.9427 -0.1382 0.9508 -0.1218 1.0 -0.1172 Z M 0.688 -0.0183 C 0.58320004 -0.0183 0.59400004 -0.041100003 0.5062 -0.041100003 C 0.4185 -0.041100003 0.425 -0.018300002 0.32410002 -0.018300002 C 0.22320002 -0.018300002 0.23300001 -0.041100003 0.14530002 -0.041100003 C 0.0637 -0.0412 0.0609 -0.022 0.0 -0.0193 V 0.0533 C 0.0609 0.0506 0.0637 0.0315 0.1453 0.0315 C 0.23300001 0.0315 0.2232 0.054300003 0.32410002 0.054300003 C 0.425 0.054300003 0.4185 0.031500004 0.5062 0.031500004 C 0.5939 0.031500004 0.58320004 0.054300003 0.688 0.054300003 S 0.7795 0.031500004 0.8672 0.031500004 C 0.9427 0.031500004 0.95070004 0.047900006 1.0 0.052500002 V -0.0202 C 0.9508 -0.024699999 0.9427 -0.0411 0.8672 -0.0411 C 0.7795 -0.0412 0.7928 -0.0183 0.688 -0.0183 Z M 0.688 0.0786 C 0.58320004 0.0786 0.59400004 0.0558 0.5062 0.0558 C 0.4185 0.0558 0.425 0.0786 0.32410002 0.0786 C 0.22320002 0.0786 0.23300001 0.0558 0.14530002 0.0558 C 0.06370001 0.0558 0.060900018 0.0749 1.4901161E-8 0.0776 V 0.15020001 C 0.060900014 0.14750001 0.06370001 0.12840001 0.14530002 0.12840001 C 0.23300001 0.12840001 0.22320002 0.15120001 0.32410002 0.15120001 C 0.425 0.15120001 0.4185 0.12840001 0.5062 0.12840001 C 0.5939 0.12840001 0.58320004 0.15120001 0.688 0.15120001 S 0.7795 0.12840001 0.8672 0.12840001 C 0.9427 0.12840001 0.95070004 0.1448 1.0 0.14940001 V 0.0768 C 0.9508 0.0722 0.9427 0.055800006 0.8672 0.055800006 C 0.7795 0.0558 0.7928 0.0786 0.688 0.0786 Z"/>
<linearGradient id="glaze" x1="0%" y1="0%" x2="100%" y2="100%">
<stop offset="0%" stop-color="rgb(255,255,255)" stop-opacity="0.2"/>
<stop offset="49.999%" stop-color="rgb(255,255,255)" stop-opacity="0.0"/>
<stop offset="50.001%" stop-color="rgb(0,0,0)" stop-opacity="0.0"/>
<stop offset="100%" stop-color="rgb(0,0,0)" stop-opacity="0.2"/>
</linearGradient>
</defs>
<g>
<g>
<rect x="0" y="0" width="270" height="360" class="black"/>
<rect x="270" y="0" width="270" height="360" class="blue"/>
</g>
<use xlink:href="#wave" transform="translate(0 180) scale(267.84 360) rotate(0)" class="white"/>
<use xlink:href="#star" transform="translate(341.28 138.6) scale(43.8599 43.8599) rotate(0)" class="black"/>
<use xlink:href="#star" transform="translate(405 210.6) scale(43.8599 43.8599) rotate(0)" class="black"/>
<use xlink:href="#star" transform="translate(468.72 138.6) scale(43.8599 43.8599) rotate(0)" class="black"/>
<use xlink:href="#star" transform="translate(341.28 138.6) scale(34.6194 34.6194) rotate(0)" class="white"/>
<use xlink:href="#star" transform="translate(405 210.6) scale(34.6194 34.6194) rotate(0)" class="white"/>
<use xlink:href="#star" transform="translate(468.72 138.6) scale(34.6194 34.6194) rotate(0)" class="white"/>
</g>
<g>
<rect x="0" y="0" width="540" height="360" fill="url(#glaze)"/>
<path d="M 30 30 L 510 30 L 510 330 L 30 330 Z M 60 60 L 60 300 L 480 300 L 480 60 Z" fill="rgb(255,255,255)" opacity="0.4"/>
<path d="M 0 0 L 540 0 L 540 360 L 0 360 Z M 30 30 L 30 330 L 510 330 L 510 30 Z" fill="rgb(0,0,0)" opacity="0.4"/>
</g>
</svg>
