<?xml version="1.0"?>
<svg xmlns="http://www.w3.org/2000/svg" xmlns:xlink="http://www.w3.org/1999/xlink" version="1.1" width="540" height="360" viewBox="0 0 540 360">
<!-- Generated by Kreative Vexillo v1.0 -->
<style>
.black{fill:rgb(0,0,0);}
.red{fill:rgb(232,66,63);}
.white{fill:rgb(255,255,255);}
.yellow{fill:rgb(255,215,48);}
</style>
<defs>
<path id="e1" d="M 0.2397 -0.0636 C 0.2397 -0.0636 0.1927 -0.2322 0.1772 -0.2403 C 0.1512 -0.254 0.1318 -0.2655 0.117400005 -0.275 C 0.1488 -0.2947 0.16950001 -0.3278 0.16950001 -0.3653 C 0.16950001 -0.4256 0.11590001 -0.4747 0.050000012 -0.4747 C -0.015899986 -0.4747 -0.069499984 -0.4256 -0.069499984 -0.3653 C -0.069499984 -0.3212 -0.040799983 -0.2831 4.0001422E-4 -0.2658 C -0.049199987 -0.1868 -0.1327 -0.1603 -0.20679998 -0.1518 L -0.2778 -0.15190001 L -0.28219998 -0.18990001 C -0.27179998 -0.1958 -0.26549998 -0.20520002 -0.2668 -0.21480002 C -0.26799998 -0.22420001 -0.2762 -0.23160002 -0.28739998 -0.23480001 L -0.3081 -0.41570002 C -0.30449998 -0.418 -0.30139998 -0.4207 -0.299 -0.42380002 C -0.295 -0.42900002 -0.2933 -0.4347 -0.294 -0.44040003 C -0.2959 -0.45530003 -0.3145 -0.46530002 -0.3354 -0.46260002 C -0.35639998 -0.46 -0.3719 -0.44570002 -0.36999997 -0.43080002 C -0.36879998 -0.42090002 -0.3602 -0.4133 -0.34839997 -0.4099 L -0.32609996 -0.22940001 C -0.33559996 -0.22340001 -0.34119996 -0.21450001 -0.34009996 -0.2053 C -0.33889997 -0.1962 -0.33129996 -0.18900001 -0.32069996 -0.1857 L -0.31649995 -0.1519 L -0.32449993 -0.1519 V -0.14719999 C -0.32449993 -0.144 -0.32269993 -0.13929999 -0.31789994 -0.13759999 C -0.31859994 -0.13639998 -0.31909993 -0.13489999 -0.31909993 -0.13329999 C -0.31909993 -0.1302 -0.31739992 -0.1274 -0.31489992 -0.12599999 C -0.3160999 -0.124599986 -0.31689993 -0.12269999 -0.31689993 -0.120599985 C -0.31689993 -0.117899984 -0.31559992 -0.11549999 -0.3135999 -0.113999985 C -0.31489992 -0.112699986 -0.3156999 -0.11079998 -0.3156999 -0.10879999 C -0.3156999 -0.10629999 -0.3143999 -0.10399999 -0.3123999 -0.102599986 C -0.3132999 -0.10139999 -0.3137999 -0.09999999 -0.3137999 -0.09839999 C -0.3137999 -0.09549999 -0.3118999 -0.09289999 -0.3091999 -0.09189999 L -0.2407999 0.4608 L -0.2081999 0.4571 L -0.2710999 -0.091500014 L -0.1802999 -0.09180001 L -0.06179989 -0.091500014 L -0.102099895 0.4026 L 0.050100103 0.4024 L -0.0208 0.0252 L -0.0122 0.0232 L 0.0611 0.4011 L 0.139 0.40170002 C 0.139 0.40170002 0.1411 0.40230003 0.1412 0.404 C 0.14130001 0.40570003 0.14 0.40800002 0.14 0.40800002 L 0.0924 0.4501 C 0.0924 0.4501 0.085599996 0.4575 0.0905 0.4674 C 0.0955 0.4772 0.106199995 0.47460002 0.107099995 0.4744 C 0.1217 0.47070003 0.14629999 0.458 0.16819999 0.44660002 C 0.19019999 0.43510002 0.20949998 0.42490003 0.21269998 0.42400002 C 0.21229997 0.42020002 0.15559998 -0.02639997 0.15559998 -0.02639997 S 0.19959998 -0.02459997 0.22399998 -0.02739997 C 0.2484 -0.0303 0.2397 -0.0636 0.2397 -0.0636 Z M -0.103 0.4096 C -0.0824 0.40969998 -0.046 0.40969998 -0.046 0.40969998 L -0.0473 0.44649997 C -0.0473 0.44649997 -0.051 0.45799997 -0.0638 0.45799997 H -0.16839999 C -0.1775 0.45799997 -0.18589999 0.45099998 -0.18589999 0.44079998 C -0.18589999 0.4306 -0.1792 0.4243 -0.16939999 0.42369998 C -0.1584 0.4232 -0.1167 0.429 -0.103 0.4096 Z"/>
<path id="e2" d="M -0.2783 -0.0915 C -0.24999999 0.1556 -0.21629998 0.44960004 -0.2162 0.4504 C -0.2174 0.45049998 -0.2331 0.45229998 -0.2342 0.4524 C -0.2343 0.4517 -0.2709 0.1559 -0.3015 -0.0915 H -0.2783 C -0.2783 -0.0915 -0.2783 -0.0915 -0.2783 -0.0915 Z M -0.3067 -0.2362 C -0.3026 -0.2367 -0.2986 -0.2367 -0.2949 -0.2363 C -0.3045 -0.3199 -0.312 -0.3853 -0.3151 -0.41210002 C -0.31930003 -0.4104 -0.32380003 -0.40910003 -0.32860002 -0.40850002 C -0.33280003 -0.40800002 -0.33690003 -0.40800002 -0.3409 -0.40840003 C -0.3375 -0.38110003 -0.3295 -0.31590003 -0.3192 -0.23290002 C -0.3153 -0.2345 -0.3111 -0.2356 -0.3067 -0.2362 Z M -0.2892 -0.1866 C -0.2926 -0.1854 -0.2962 -0.1845 -0.3 -0.184 C -0.3045 -0.1834 -0.3089 -0.1835 -0.31300002 -0.184 C -0.31170002 -0.1735 -0.3104 -0.1627 -0.30900002 -0.1518 L -0.2852 -0.1518 C -0.2866 -0.1637 -0.2879 -0.1753 -0.2892 -0.1866 Z M -0.3295 -0.4159 C -0.3191 -0.4172 -0.3098 -0.4219 -0.30479997 -0.4283 C -0.302 -0.4319 -0.30079997 -0.4357 -0.30129996 -0.4394 C -0.30269995 -0.45029998 -0.31759995 -0.4574 -0.33449996 -0.4552 C -0.35059994 -0.45319998 -0.36279994 -0.44349998 -0.36279994 -0.4332 C -0.36279994 -0.4327 -0.36279994 -0.4321 -0.36269996 -0.4316 C -0.3613 -0.4208 -0.3464 -0.4137 -0.3295 -0.4159 Z M -0.3009 -0.1914 C -0.28480002 -0.19350001 -0.2727 -0.2036 -0.27400002 -0.2139 C -0.2754 -0.2242 -0.2896 -0.231 -0.30580002 -0.2289 C -0.32110003 -0.2269 -0.33280003 -0.2177 -0.33280003 -0.2079 C -0.33280003 -0.20740001 -0.33280003 -0.2069 -0.33270004 -0.2063 C -0.3314 -0.196 -0.3171 -0.1893 -0.3009 -0.1914 Z M 0.0169 -0.0937 H 0.119100004 V -0.1624 H 0.0169 V -0.0937 Z M 0.05 -0.4677 C -0.011999998 -0.4677 -0.062400002 -0.42180002 -0.062400002 -0.36540002 C -0.062400002 -0.3239 -0.035000004 -0.28800002 0.0040999986 -0.272 C 0.008999999 -0.2804 0.0134999985 -0.2894 0.017699998 -0.29900002 C -0.0101000015 -0.30990002 -0.029600002 -0.33560002 -0.029600002 -0.36540002 C -0.029600002 -0.4052 0.004999999 -0.4375 0.047799997 -0.4375 C 0.0905 -0.4375 0.1252 -0.4052 0.1252 -0.36540002 C 0.1252 -0.3375 0.108100004 -0.3133 0.08320001 -0.30130002 L 0.08320001 -0.30110002 C 0.08770001 -0.29680002 0.096200004 -0.2896 0.11100001 -0.2795 C 0.1419 -0.2978 0.16250001 -0.3294 0.16250001 -0.36540002 C 0.1624 -0.4218 0.112 -0.4677 0.05 -0.4677 Z M -0.0166 -0.0937 H -0.0068999995 V -0.1624 H -0.0166 V -0.0937 Z M -0.003 -0.0937 H 0.012399999 V -0.1624 H -0.0030000005 V -0.0937 Z"/>
<path id="e3" d="M 0.0826 -0.301 C 0.0828 -0.3011 0.083 -0.3012 0.0832 -0.3013 L 0.077700004 -0.2595 H 0.0231 L 0.018199999 -0.2987 C 0.018399999 -0.29860002 0.018599998 -0.29860002 0.0188 -0.2985 L 0.029399998 -0.2732 H 0.0697 L 0.0826 -0.301 Z M -0.2787 -0.1062 C -0.27699998 -0.1062 -0.2756 -0.1075 -0.2756 -0.109000005 C -0.2756 -0.1106 -0.27699998 -0.11180001 -0.2787 -0.11180001 H -0.30789998 C -0.3096 -0.11180001 -0.311 -0.11050001 -0.311 -0.109000005 C -0.311 -0.1075 -0.3096 -0.1062 -0.30789998 -0.1062 H -0.2787 Z M -0.2783 -0.1011 H -0.30589998 C -0.30749997 -0.1011 -0.30879998 -0.099999994 -0.30879998 -0.0986 C -0.30879998 -0.0972 -0.30749997 -0.0961 -0.30589998 -0.0961 H -0.2783 C -0.2767 -0.0961 -0.27539998 -0.097200006 -0.27539998 -0.0986 C -0.2754 -0.1 -0.2767 -0.1011 -0.2783 -0.1011 Z M -0.2801 -0.1173 C -0.27839997 -0.1173 -0.27699998 -0.1188 -0.27699998 -0.120699994 C -0.27699998 -0.1226 -0.27839997 -0.12409999 -0.2801 -0.12409999 H -0.3089 C -0.3106 -0.12409999 -0.312 -0.12259999 -0.312 -0.120699994 C -0.312 -0.11879999 -0.3106 -0.1173 -0.3089 -0.1173 H -0.2801 Z M -0.2813 -0.1298 C -0.2795 -0.1298 -0.2781 -0.1314 -0.2781 -0.13340001 C -0.2781 -0.13540001 -0.2795 -0.13700001 -0.2813 -0.13700001 H -0.3111 C -0.31280002 -0.13700001 -0.3143 -0.13540001 -0.3143 -0.13340001 C -0.3143 -0.1315 -0.3129 -0.1298 -0.3111 -0.1298 H -0.2813 Z M 0.0886 -0.3472 C 0.0886 -0.3472 0.0898 -0.3351 0.088300005 -0.3271 C 0.0856 -0.3028 0.080000006 -0.2982 0.052200004 -0.29720002 C 0.019400004 -0.29600003 0.020000003 -0.29930001 0.014700003 -0.31260002 C 0.002600003 -0.34960002 0.007600003 -0.37800002 0.007600003 -0.37800002 S 0.0106000025 -0.39780003 0.0461 -0.39720002 C 0.0639 -0.39690003 0.0949 -0.4034 0.0887 -0.36560002 C 0.0874 -0.3577 0.0886 -0.3472 0.0886 -0.3472 Z M 0.0274 -0.3546 C 0.0274 -0.35720003 0.0253 -0.35930002 0.0227 -0.35930002 C 0.020100001 -0.35930002 0.018000001 -0.35720003 0.018000001 -0.3546 C 0.018000001 -0.352 0.020100001 -0.3499 0.0227 -0.3499 C 0.0253 -0.3499 0.0274 -0.352 0.0274 -0.3546 Z M 0.032 -0.3667 C 0.0344 -0.36499998 0.035400003 -0.36159998 0.035 -0.3565 C 0.0334 -0.3351 0.0336 -0.3289 0.0336 -0.3287 C 0.0336 -0.32750002 0.034599997 -0.3264 0.0359 -0.3264 L 0.055200003 -0.3257 C 0.056500003 -0.3257 0.056700002 -0.33040002 0.055400003 -0.33040002 C 0.055400003 -0.33040002 0.042000003 -0.32990003 0.038500004 -0.33010003 C 0.038500004 -0.33340004 0.038800005 -0.34170002 0.039700005 -0.35620004 C 0.039800007 -0.35700005 0.039800007 -0.35780004 0.039800007 -0.35850003 C 0.039800007 -0.36420003 0.040500008 -0.36830002 0.037100006 -0.37080002 C 0.029800005 -0.37620002 0.016600005 -0.3709 0.016100006 -0.37070003 C 0.014900006 -0.37020004 0.014400006 -0.36880004 0.014900006 -0.36760002 C 0.015400006 -0.36640003 0.017600007 -0.36550003 0.018800005 -0.36600003 C 0.0215 -0.3668 0.0281 -0.3695 0.032 -0.3667 Z M 0.061 -0.3121 C 0.061 -0.3141 0.0594 -0.3157 0.0575 -0.3157 H 0.0361 C 0.0341 -0.3157 0.0326 -0.3141 0.0326 -0.3121 C 0.0326 -0.3102 0.0342 -0.3085 0.0361 -0.3085 H 0.0575 C 0.0594 -0.3086 0.061 -0.3102 0.061 -0.3121 Z M 0.0701 -0.3546 C 0.0701 -0.35720003 0.068 -0.35930002 0.065400004 -0.35930002 C 0.0627 -0.35930002 0.060600005 -0.35720003 0.060600005 -0.3546 C 0.060600005 -0.352 0.0627 -0.3499 0.065400004 -0.3499 C 0.068 -0.3499 0.0701 -0.352 0.0701 -0.3546 Z M 0.0826 -0.37 C 0.0667 -0.3816 0.052899998 -0.3704 0.0528 -0.3703 C 0.0518 -0.36949998 0.0517 -0.368 0.0525 -0.36699998 C 0.053299997 -0.366 0.056199998 -0.3651 0.0572 -0.36589998 C 0.0575 -0.36609998 0.0654 -0.37049997 0.0675 -0.3701 C 0.071 -0.36949998 0.0753 -0.3682 0.0803 -0.3657 C 0.0815 -0.3651 0.0828 -0.3652 0.0836 -0.3662 C 0.0843 -0.3672 0.0836 -0.3692 0.0826 -0.37 Z M -0.3197 -0.1472 C -0.3197 -0.1452 -0.3184 -0.1416 -0.3139 -0.1416 H -0.27969998 V -0.1414 C -0.27609998 -0.1406 -0.27339998 -0.1373 -0.27339998 -0.13329999 C -0.27339998 -0.131 -0.27429998 -0.129 -0.27569997 -0.1275 C -0.27359998 -0.126 -0.27229998 -0.1235 -0.27229998 -0.120699994 C -0.27229998 -0.118499994 -0.2731 -0.11659999 -0.27439997 -0.1152 C -0.27239996 -0.1139 -0.27099997 -0.1116 -0.27099997 -0.109 C -0.27099997 -0.107 -0.27179998 -0.1052 -0.27309996 -0.1039 C -0.27159995 -0.1026 -0.27069995 -0.1007 -0.27069995 -0.0987 C -0.27069995 -0.098000005 -0.27079993 -0.0974 -0.27099994 -0.096700005 L -0.21959993 -0.09680001 L -0.22439994 -0.1472 L -0.3197 -0.1472 Z M 0.026 -0.0888 H -0.0055 C -0.0068 -0.0888 -0.0079 -0.0874 -0.0079 -0.0857 C -0.0079 -0.084 -0.0067999996 -0.0826 -0.0054999995 -0.0826 H 0.0195 C 0.0195 -0.0826 0.020100001 -0.0783 0.0183 -0.0782 C 0.0183 -0.0782 -0.009299999 -0.0777 -0.010499999 -0.0777 C -0.011699999 -0.0777 -0.0196 -0.084599994 -0.0196 -0.084599994 C -0.02 -0.085099995 -0.020200001 -0.08529999 -0.0205 -0.085499994 C -0.0208 -0.085999995 -0.0209 -0.08669999 -0.0209 -0.086799994 C -0.0209 -0.088199995 -0.0213 -0.089499995 -0.0229 -0.0896 C -0.0245 -0.0897 -0.0257 -0.0887 -0.0259 -0.087299995 C -0.0263 -0.08409999 -0.025700001 -0.0839 -0.025500001 -0.0835 C -0.025300002 -0.0831 -0.025000002 -0.0826 -0.015500002 -0.0731 C -0.0150000015 -0.0724 -0.013800002 -0.072 -0.013100002 -0.072 L 0.012099998 -0.0722 L 0.012299998 -0.0675 H -0.0134 C -0.014699999 -0.0675 -0.015899999 -0.0661 -0.015899999 -0.0644 C -0.015899999 -0.0627 -0.014799999 -0.061300002 -0.0134 -0.061300002 H 0.0125 L 0.0127 -0.057000004 H -0.0122 C -0.013499999 -0.057000004 -0.014699999 -0.055600002 -0.014699999 -0.053900003 C -0.014699999 -0.052200004 -0.013599999 -0.050800003 -0.0122 -0.050800003 H 0.013 L 0.0132 -0.0463 H -0.0106 C -0.011899999 -0.0463 -0.0131 -0.0449 -0.0131 -0.0432 C -0.0131 -0.041500002 -0.012 -0.040200002 -0.010600001 -0.040200002 H 0.0214 C 0.0215 -0.040200002 0.0216 -0.040300004 0.0218 -0.040300004 H 0.066 V -0.0404 L 0.0597 -0.0891 L 0.026 -0.0888 Z"/>
<linearGradient id="glaze" x1="0%" y1="0%" x2="100%" y2="100%">
<stop offset="0%" stop-color="rgb(255,255,255)" stop-opacity="0.2"/>
<stop offset="49.999%" stop-color="rgb(255,255,255)" stop-opacity="0.0"/>
<stop offset="50.001%" stop-color="rgb(0,0,0)" stop-opacity="0.0"/>
<stop offset="100%" stop-color="rgb(0,0,0)" stop-opacity="0.2"/>
</linearGradient>
</defs>
<g>
<rect x="0" y="0" width="540" height="360" class="red"/>
<use xlink:href="#e1" transform="translate(270 180) scale(360 360) rotate(0)" class="black"/>
<use xlink:href="#e2" transform="translate(270 180) scale(360 360) rotate(0)" class="yellow"/>
<use xlink:href="#e3" transform="translate(270 180) scale(360 360) rotate(0)" class="white"/>
</g>
<g>
<rect x="0" y="0" width="540" height="360" fill="url(#glaze)"/>
<path d="M 30 30 L 510 30 L 510 330 L 30 330 Z M 60 60 L 60 300 L 480 300 L 480 60 Z" fill="rgb(255,255,255)" opacity="0.4"/>
<path d="M 0 0 L 540 0 L 540 360 L 0 360 Z M 30 30 L 30 330 L 510 330 L 510 30 Z" fill="rgb(0,0,0)" opacity="0.4"/>
</g>
</svg>
