<?xml version="1.0"?>
<svg xmlns="http://www.w3.org/2000/svg" xmlns:xlink="http://www.w3.org/1999/xlink" version="1.1" width="540" height="360" viewBox="0 0 540 360">
<!-- Generated by Kreative Vexillo v1.0 -->
<style>
.blue{fill:rgb(0,56,147);}
.red{fill:rgb(207,32,39);}
.white{fill:rgb(255,255,255);}
.yellow{fill:rgb(247,209,22);}
</style>
<defs>
<path id="star" d="M 0.0 -1.0 L 0.2245 -0.309 L 0.9511 -0.309 L 0.3633 0.118 L 0.5878 0.809 L 0.0 0.382 L -0.5878 0.809 L -0.3633 0.118 L -0.9511 -0.309 L -0.2245 -0.309 Z"/>
<linearGradient id="glaze" x1="0%" y1="0%" x2="100%" y2="100%">
<stop offset="0%" stop-color="rgb(255,255,255)" stop-opacity="0.2"/>
<stop offset="49.999%" stop-color="rgb(255,255,255)" stop-opacity="0.0"/>
<stop offset="50.001%" stop-color="rgb(0,0,0)" stop-opacity="0.0"/>
<stop offset="100%" stop-color="rgb(0,0,0)" stop-opacity="0.2"/>
</linearGradient>
</defs>
<g>
<g>
<rect x="0" y="0" width="540" height="180" class="blue"/>
<rect x="0" y="180" width="540" height="30" class="white"/>
<rect x="0" y="210" width="540" height="30" class="red"/>
<rect x="0" y="240" width="540" height="30" class="white"/>
<rect x="0" y="270" width="540" height="90" class="blue"/>
</g>
<g>
<use xlink:href="#star" transform="translate(202.5 135) scale(18 18) rotate(0)" class="yellow"/>
<use xlink:href="#star" transform="translate(255.4007 152.1885) scale(18 18) rotate(0)" class="yellow"/>
<use xlink:href="#star" transform="translate(288.0951 197.1885) scale(18 18) rotate(0)" class="yellow"/>
<use xlink:href="#star" transform="translate(288.0951 252.8115) scale(18 18) rotate(0)" class="yellow"/>
<use xlink:href="#star" transform="translate(255.4007 297.8115) scale(18 18) rotate(0)" class="yellow"/>
<use xlink:href="#star" transform="translate(202.5 315) scale(18 18) rotate(0)" class="yellow"/>
<use xlink:href="#star" transform="translate(149.5993 297.8115) scale(18 18) rotate(0)" class="yellow"/>
<use xlink:href="#star" transform="translate(116.9049 252.8115) scale(18 18) rotate(0)" class="yellow"/>
<use xlink:href="#star" transform="translate(116.9049 197.1885) scale(18 18) rotate(0)" class="yellow"/>
<use xlink:href="#star" transform="translate(149.5993 152.1885) scale(18 18) rotate(0)" class="yellow"/>
</g>
</g>
<g>
<rect x="0" y="0" width="540" height="360" fill="url(#glaze)"/>
<path d="M 30 30 L 510 30 L 510 330 L 30 330 Z M 60 60 L 60 300 L 480 300 L 480 60 Z" fill="rgb(255,255,255)" opacity="0.4"/>
<path d="M 0 0 L 540 0 L 540 360 L 0 360 Z M 30 30 L 30 330 L 510 330 L 510 30 Z" fill="rgb(0,0,0)" opacity="0.4"/>
</g>
</svg>
