<?xml version="1.0"?>
<svg xmlns="http://www.w3.org/2000/svg" xmlns:xlink="http://www.w3.org/1999/xlink" version="1.1" width="540" height="360" viewBox="0 0 540 360">
<!-- Generated by Kreative Vexillo v1.0 -->
<style>
.blue{fill:rgb(0,36,125);}
.red{fill:rgb(207,20,43);}
.white{fill:rgb(255,255,255);}
</style>
<defs>
<clipPath id="clip0">
<path d="M 0 0 L 0 28.8444 L 0 28.8444 L 226.7334 180 L 226.7334 180 L 0 331.1556 L 0 331.1556 L 0 360 L 43.2666 360 L 270 208.8444 L 270 208.8444 L 496.7334 360 L 540 360 L 540 331.1556 L 313.2666 180 L 540 28.8444 L 540 0 L 496.7334 0 L 270 151.1556 L 270 151.1556 L 43.2666 0 Z"/>
</clipPath>
<linearGradient id="glaze" x1="0%" y1="0%" x2="100%" y2="100%">
<stop offset="0%" stop-color="rgb(255,255,255)" stop-opacity="0.2"/>
<stop offset="49.999%" stop-color="rgb(255,255,255)" stop-opacity="0.0"/>
<stop offset="50.001%" stop-color="rgb(0,0,0)" stop-opacity="0.0"/>
<stop offset="100%" stop-color="rgb(0,0,0)" stop-opacity="0.2"/>
</linearGradient>
</defs>
<g>
<rect x="0" y="0" width="540" height="360" class="blue"/>
<path d="M 0 0 L 0 43.2666 L 0 43.2666 L 205.1001 180 L 205.1001 180 L 0 316.7334 L 0 360 L 64.8999 360 L 270 223.2666 L 475.1001 360 L 540 360 L 540 316.7334 L 540 316.7334 L 334.8999 180 L 334.8999 180 L 540 43.2666 L 540 0 L 475.1001 0 L 270 136.7334 L 270 136.7334 L 64.8999 0 Z" class="white"/>
<g clip-path="url(#clip0)">
<path d="M 0 0 L 270 180 L 0 180 Z" class="red"/>
<path d="M 540 0 L 270 180 L 270 0 Z" class="red"/>
<path d="M 0 360 L 270 180 L 270 360 Z" class="red"/>
<path d="M 540 360 L 270 180 L 540 180 Z" class="red"/>
</g>
<g>
<rect x="0" y="120" width="540" height="120" class="white"/>
<rect x="210" y="0" width="120" height="360" class="white"/>
</g>
<g>
<rect x="0" y="144" width="540" height="72" class="red"/>
<rect x="234" y="0" width="72" height="360" class="red"/>
</g>
</g>
<g>
<rect x="0" y="0" width="540" height="360" fill="url(#glaze)"/>
<path d="M 30 30 L 510 30 L 510 330 L 30 330 Z M 60 60 L 60 300 L 480 300 L 480 60 Z" fill="rgb(255,255,255)" opacity="0.4"/>
<path d="M 0 0 L 540 0 L 540 360 L 0 360 Z M 30 30 L 30 330 L 510 330 L 510 30 Z" fill="rgb(0,0,0)" opacity="0.4"/>
</g>
</svg>
