<?xml version="1.0"?>
<svg xmlns="http://www.w3.org/2000/svg" xmlns:xlink="http://www.w3.org/1999/xlink" version="1.1" width="540" height="360" viewBox="0 0 540 360">
<!-- Generated by Kreative Vexillo v1.0 -->
<style>
.black{fill:rgb(0,0,0);}
.green{fill:rgb(0,158,82);}
.red{fill:rgb(239,64,68);}
.white{fill:rgb(255,255,255);}
</style>
<defs>
<path id="takbir" d="M -0.8818 0.3715 L -0.9077 0.34309998 L -0.8816 0.31499997 L -0.85550004 0.28689995 L -0.82960004 0.31529996 L -0.80370003 0.34369996 L -0.8298 0.37179998 L -0.8559 0.3999 L -0.8817 0.3715 Z M -1.0593 0.3572 C -1.0685999 0.3535 -1.0837 0.3413 -1.0935999 0.3296 C -1.1121999 0.30740002 -1.1164999 0.2971 -1.104 0.3044 C -1.0853 0.3153 -1.0483 0.3223 -1.0352 0.3176 C -0.9866 0.3 -0.9756 0.22950001 -1.0144 0.18470001 C -1.022 0.17590001 -1.0282 0.16570002 -1.0282 0.16200002 S -1.0201 0.15140001 -1.0102 0.14660001 C -0.9964 0.13990001 -0.9896 0.13270001 -0.9807 0.11500001 C -0.9717 0.09700001 -0.968 0.09310001 -0.9637 0.09700001 C -0.9575 0.10260001 -0.9367 0.15660001 -0.9367 0.16710001 C -0.9367 0.17260002 -0.9292 0.1738 -0.8951 0.1738 H -0.8535 L -0.86 0.1568 C -0.8636 0.14750001 -0.86950004 0.1349 -0.87310004 0.1289 C -0.87900007 0.119200006 -0.87900007 0.117400005 -0.87310004 0.11310001 C -0.86960006 0.110400006 -0.85810006 0.101600006 -0.8475 0.0935 C -0.83690006 0.0854 -0.827 0.07520001 -0.8255 0.0709 C -0.8218 0.0601 -0.7988 0.0291 -0.7945 0.0291 C -0.7926 0.0291 -0.791 0.0616 -0.791 0.1014 V 0.1737 H -0.2715 V -0.0335 L -0.28599998 -0.0432 L -0.30049998 -0.0529 L -0.31509998 -0.0408 L -0.3297 -0.028700002 V 0.1194 H -0.54789996 C -0.66789997 0.1194 -0.76609993 0.1194 -0.76609993 0.1176 C -0.76609993 0.116000004 -0.6574999 -0.043399997 -0.6441999 -0.061400004 C -0.6413999 -0.06510001 -0.6345999 -0.0753 -0.6289999 -0.08400001 S -0.61769986 -0.10080001 -0.6163999 -0.10210001 C -0.6149999 -0.103300005 -0.60939986 -0.11150001 -0.6038999 -0.12020001 C -0.5983999 -0.1289 -0.5918999 -0.1384 -0.5895999 -0.14130001 C -0.5871999 -0.14420001 -0.5478999 -0.2015 -0.5021999 -0.2687 S -0.41769987 -0.39090002 -0.4159999 -0.3911 C -0.41429988 -0.3911 -0.4118999 -0.3858 -0.4106999 -0.3789 C -0.4037999 -0.34109998 -0.3985999 -0.31989998 -0.3930999 -0.3082 C -0.3860999 -0.2933 -0.3901999 -0.2877 -0.4085999 -0.28710002 C -0.41729993 -0.28710002 -0.4372999 -0.2601 -0.53119993 -0.12340002 C -0.5928999 -0.033600017 -0.64399993 0.04159999 -0.64479995 0.043499976 S -0.58989996 0.047099978 -0.52119994 0.047099978 H -0.39619994 L -0.39619994 -0.0015000217 C -0.39619994 -0.028200021 -0.39479995 -0.052200023 -0.39309993 -0.054800022 C -0.38529992 -0.06680002 -0.30259994 -0.12960002 -0.29679993 -0.12800002 C -0.29319993 -0.12700002 -0.27109993 -0.11020002 -0.24769993 -0.09080002 L -0.20509994 -0.055500016 V 0.24599998 H -0.9269999 L -0.9341999 0.2751 C -0.94289994 0.31 -0.9570999 0.33519998 -0.97629994 0.3495 C -0.9944999 0.3628 -1.0352999 0.3665 -1.0593 0.357 Z M -0.15949994 0.011399984 C -0.15949994 -0.15270002 -0.15809995 -0.22440001 -0.15499994 -0.22650002 C -0.15249994 -0.22820002 -0.14179994 -0.21960002 -0.13109994 -0.20740002 S -0.10139994 -0.17570002 -0.08879994 -0.16400002 C -0.06889994 -0.14550002 -0.06689994 -0.14210002 -0.07299994 -0.13810001 C -0.09349994 -0.124600016 -0.09289994 -0.12880002 -0.09289994 0.027099982 V 0.17369998 H -0.05309994 C -0.01779994 0.17369998 -0.011299942 0.17239997 0.0051000603 0.16199997 C 0.025400061 0.14909998 0.02670006 0.15079997 0.01670006 0.17659996 C 0.012900059 0.18619996 0.008700059 0.20529996 0.0073000593 0.21899997 L 0.0048000594 0.24389997 L -0.07729994 0.24509998 L -0.15939993 0.24629998 V 0.011299983 Z M 0.2702 0.1852 C 0.27240002 0.119100004 0.27870002 0.096700005 0.3009 0.0754 C 0.3181 0.059 0.34260002 0.051300004 0.37100002 0.053200003 L 0.3923 0.054700002 L 0.39360002 0.027700001 C 0.3952 -0.006599998 0.39240003 -0.0188 0.3819 -0.022399997 C 0.3693 -0.026699997 0.37190002 -0.0409 0.3871 -0.051299997 C 0.3946 -0.056399997 0.4128 -0.0739 0.42760003 -0.09019999 S 0.45610002 -0.11989999 0.45780003 -0.11989999 S 0.46110004 -0.054599985 0.46110004 0.025300011 V 0.17050001 H 0.5195 V 0.021100014 C 0.5195 -0.10869999 0.5195 -0.12919998 0.5129 -0.13539998 C 0.5093 -0.13929999 0.5046 -0.14249998 0.5025 -0.14249998 C 0.4931 -0.14249998 0.4998 -0.16069998 0.5122 -0.16909999 C 0.5197 -0.17419998 0.5378 -0.1916 0.5526 -0.20779999 C 0.5673 -0.22399999 0.58100003 -0.23629999 0.58280003 -0.23499998 S 0.58620006 -0.14199999 0.58620006 -0.030999988 V 0.17060001 H 0.64460003 V -0.24229999 L 0.63420004 -0.25219998 C 0.62850004 -0.25759998 0.62380004 -0.26449996 0.62380004 -0.26749998 S 0.63680005 -0.2844 0.65260005 -0.29829997 S 0.6855 -0.32979998 0.69040006 -0.33739996 C 0.7117001 -0.36989996 0.7113001 -0.37479997 0.7113001 -0.05399996 V 0.24320003 H 0.26810008 L 0.27080008 0.18530004 Z M 0.3944 0.1409 V 0.1114 H 0.378 C 0.356 0.1114 0.336 0.1321 0.336 0.1549 V 0.1704 H 0.3944 V 0.14089999 Z M 0.7575 0.007400006 C 0.7575 -0.1573 0.7589 -0.22929999 0.76199996 -0.2314 C 0.76449996 -0.2331 0.77529997 -0.2245 0.78599995 -0.2122 C 0.79669994 -0.2 0.81579995 -0.1804 0.82839996 -0.1686 C 0.8483 -0.14999999 0.8504 -0.1466 0.8443 -0.1425 C 0.82379997 -0.12889999 0.8243 -0.1332 0.8243 0.023400009 V 0.17050001 H 0.86509997 C 0.90209997 0.17050001 0.9073 0.1694 0.92169994 0.1588 C 0.9304999 0.1523 0.93859994 0.1482 0.9398999 0.14950001 S 0.93889993 0.16070001 0.9348999 0.17140001 S 0.92639995 0.20210001 0.92499995 0.21580002 L 0.92239994 0.24080002 L 0.8399999 0.24200003 L 0.7575999 0.24320003 V 0.007400036 Z M 0.429 -0.2395 C 0.42159998 -0.2424 0.4132 -0.2476 0.4102 -0.251 C 0.4057 -0.2562 0.4079 -0.25669998 0.4244 -0.2541 C 0.4541 -0.24949999 0.4722 -0.2541 0.4888 -0.2735 L 0.5033 -0.2898 L 0.5235 -0.28199998 C 0.5346 -0.27769998 0.54620004 -0.27529997 0.5493 -0.27659997 C 0.55730003 -0.27999997 0.5718 -0.30499998 0.5704 -0.31299996 C 0.5686 -0.32269996 0.5768 -0.32119995 0.5819 -0.31089997 C 0.5919 -0.29069996 0.5835 -0.265 0.5645 -0.25719997 C 0.5552 -0.25339997 0.5462 -0.25329998 0.5311 -0.25719997 C 0.51259995 -0.26149997 0.50949997 -0.26109996 0.5014 -0.2528 C 0.48319998 -0.23419999 0.4555 -0.22929999 0.4289 -0.2399 Z M 0.47959998 -0.31440002 C 0.46949998 -0.3219 0.44829997 -0.36010003 0.4475 -0.3722 C 0.4475 -0.3826 0.44849998 -0.3858 0.4553 -0.3869 C 0.4672 -0.3888 0.4727 -0.3801 0.4819 -0.3452 C 0.4894 -0.3166 0.48860002 -0.3076 0.4796 -0.31440002 Z"/>
<linearGradient id="glaze" x1="0%" y1="0%" x2="100%" y2="100%">
<stop offset="0%" stop-color="rgb(255,255,255)" stop-opacity="0.2"/>
<stop offset="49.999%" stop-color="rgb(255,255,255)" stop-opacity="0.0"/>
<stop offset="50.001%" stop-color="rgb(0,0,0)" stop-opacity="0.0"/>
<stop offset="100%" stop-color="rgb(0,0,0)" stop-opacity="0.2"/>
</linearGradient>
</defs>
<g>
<g>
<rect x="0" y="0" width="540" height="120" class="red"/>
<rect x="0" y="120" width="540" height="120" class="white"/>
<rect x="0" y="240" width="540" height="120" class="black"/>
</g>
<use xlink:href="#takbir" transform="translate(270 180) scale(120 120) rotate(0)" class="green"/>
</g>
<g>
<rect x="0" y="0" width="540" height="360" fill="url(#glaze)"/>
<path d="M 30 30 L 510 30 L 510 330 L 30 330 Z M 60 60 L 60 300 L 480 300 L 480 60 Z" fill="rgb(255,255,255)" opacity="0.4"/>
<path d="M 0 0 L 540 0 L 540 360 L 0 360 Z M 30 30 L 30 330 L 510 330 L 510 30 Z" fill="rgb(0,0,0)" opacity="0.4"/>
</g>
</svg>
