<?xml version="1.0"?>
<svg xmlns="http://www.w3.org/2000/svg" xmlns:xlink="http://www.w3.org/1999/xlink" version="1.1" width="540" height="360" viewBox="0 0 540 360">
<!-- Generated by Kreative Vexillo v1.0 -->
<style>
.red{fill:rgb(255,0,0);}
.white{fill:rgb(255,255,255);}
</style>
<defs>
<path id="e" d="M 0.4584 0.5 C 0.32060003 0.5 0.20840001 0.3878 0.20840001 0.25 V -0.25 H 0.2917 V -2.0E-4 C 0.3429 -0.0389 0.375 -0.100200005 0.375 -0.1667 C 0.375 -0.2816 0.28149998 -0.375 0.1667 -0.375 C 0.1288 -0.375 0.093200006 -0.3648 0.06260001 -0.3471 C 0.06400001 -0.3453 0.06540001 -0.3435 0.06670001 -0.3417 C 0.1049 -0.2908 0.1251 -0.2303 0.1251 -0.1667 V 0.375 C 0.1251 0.4439 0.069000006 0.5 1.0000169E-4 0.5 C -0.068799995 0.5 -0.1249 0.4439 -0.1249 0.375 V -0.1667 C -0.1249 -0.23470001 -0.1015 -0.2973 -0.062299997 -0.347 C -0.0765 -0.3553 -0.0919 -0.362 -0.1082 -0.3667 C -0.1616 -0.3823 -0.21790001 -0.3761 -0.2667 -0.34939998 C -0.3155 -0.32259998 -0.3509 -0.2785 -0.3665 -0.22509998 C -0.3821 -0.17169999 -0.3759 -0.11539998 -0.34919998 -0.06659998 C -0.3347 -0.04 -0.3151 -0.0174 -0.2916 1.0E-4 V -0.25 H -0.2083 V 0.25 C -0.2083 0.38779998 -0.3204 0.5 -0.4583 0.5 V 0.4167 C -0.3664 0.4167 -0.2916 0.3419 -0.2916 0.25 V 0.0969 C -0.3469 0.0708 -0.3924 0.0282 -0.42229998 -0.026500002 C -0.45979998 -0.0948 -0.46839997 -0.1736 -0.4466 -0.2484 S -0.37519997 -0.385 -0.3068 -0.4225 C -0.2757 -0.43960002 -0.2423 -0.4507 -0.20820001 -0.45560002 V -0.5 H -0.124900006 V -0.4554 C -0.11150001 -0.4534 -0.09810001 -0.45049998 -0.08490001 -0.44669998 C -0.054100007 -0.43769997 -0.025400005 -0.42399997 2.9999018E-4 -0.40609998 C 0.03669999 -0.4315 0.07919999 -0.44879997 0.12509999 -0.4554 V -0.5 H 0.20839998 V -0.4554 C 0.3496 -0.4351 0.45839998 -0.31339997 0.45839998 -0.16669998 C 0.45839998 -0.10309997 0.4382 -0.042599976 0.4001 0.008300021 C 0.37129998 0.046700023 0.3344 0.07680002 0.2918 0.09690002 V 0.25 C 0.2918 0.3419 0.36659998 0.4167 0.4585 0.4167 V 0.5 Z M -1.0E-4 -0.2914 C -0.0261 -0.2566 -0.0416 -0.2134 -0.0416 -0.1667 V 0.375 C -0.0416 0.398 -0.0229 0.4167 1.0000169E-4 0.4167 S 0.041800003 0.398 0.041800003 0.375 V -0.1667 C 0.0417 -0.2126 0.0263 -0.2561 -1.0E-4 -0.2914 Z"/>
<linearGradient id="glaze" x1="0%" y1="0%" x2="100%" y2="100%">
<stop offset="0%" stop-color="rgb(255,255,255)" stop-opacity="0.2"/>
<stop offset="49.999%" stop-color="rgb(255,255,255)" stop-opacity="0.0"/>
<stop offset="50.001%" stop-color="rgb(0,0,0)" stop-opacity="0.0"/>
<stop offset="100%" stop-color="rgb(0,0,0)" stop-opacity="0.2"/>
</linearGradient>
</defs>
<g>
<rect x="0" y="0" width="540" height="360" class="white"/>
<use xlink:href="#e" transform="translate(270 180) scale(270 270) rotate(0)" class="red"/>
</g>
<g>
<rect x="0" y="0" width="540" height="360" fill="url(#glaze)"/>
<path d="M 30 30 L 510 30 L 510 330 L 30 330 Z M 60 60 L 60 300 L 480 300 L 480 60 Z" fill="rgb(255,255,255)" opacity="0.4"/>
<path d="M 0 0 L 540 0 L 540 360 L 0 360 Z M 30 30 L 30 330 L 510 330 L 510 30 Z" fill="rgb(0,0,0)" opacity="0.4"/>
</g>
</svg>
