<?xml version="1.0"?>
<svg xmlns="http://www.w3.org/2000/svg" xmlns:xlink="http://www.w3.org/1999/xlink" version="1.1" width="540" height="360" viewBox="0 0 540 360">
<!-- Generated by Kreative Vexillo v1.0 -->
<style>
.blue{fill:rgb(1,160,199);}
.white{fill:rgb(255,255,255);}
</style>
<defs>
<path id="e" d="M -0.8141 -0.3575 C -0.47280002 -0.3276 -0.2425 -0.4071 0.06889999 -0.472 C 0.3633 -0.5334 0.5179 -0.5455 0.81119996 -0.3498 C 0.52269995 -0.4048 0.38039997 -0.3673 -0.02000004 -0.2882 C -0.17620005 -0.2573 -0.29500005 -0.2193 -0.40550005 -0.213 C -0.5469 -0.2049 -0.7349 -0.281 -0.8141 -0.3575 L -0.8141 -0.3575 Z M -0.8076 0.3249 C -0.4731 0.3898 -0.236 0.2995 0.075399995 0.23449999 C 0.3698 0.1731 0.4741 0.13579999 0.81769997 0.36519998 C 0.55929995 0.3006 0.28399998 0.34449998 -0.0099000335 0.4274 C -0.06510003 0.443 -0.26190004 0.4869 -0.39900002 0.4869 C -0.5207 0.487 -0.7285 0.4014 -0.8076 0.3249 L -0.8076 0.3249 Z M 0.3855 -0.2851 C 0.2453 -0.2852 0.1059 -0.248 -0.0416 -0.219 C -0.3469 -0.1589 -0.5215 -0.095 -0.80759996 -0.1679 C -0.7543 -0.0653 -0.5754 0.0123 -0.4069 0.0027 C -0.39929998 0.0023 -0.3917 0.0017 -0.384 0.0012 L -0.3353 0.1094 C -0.4531 0.13139999 -0.5696 0.1397 -0.8141 0.1236 C -0.727 0.20089999 -0.5077 0.2778 -0.33920002 0.2682 C -0.22880003 0.2619 -0.18090002 0.24790001 -0.013400018 0.2108 C 0.4233 0.1139 0.5312 0.0943 0.8112 0.1408 C 0.6797 0.0045 0.5263 -0.0287 0.3668 -0.0212 L 0.3173 -0.1312 C 0.5275 -0.1709 0.6109 -0.16589999 0.8176 -0.1265 C 0.6668 -0.2472 0.5257 -0.2849 0.3855 -0.2851 L 0.3855 -0.2851 Z M 0.1353 -0.0935 L 0.1784 0.0022 C 0.1024 0.0161 0.0264 0.0336 -0.048000008 0.0482 C -0.08720001 0.0559 -0.12190001 0.0633 -0.1539 0.0703 L -0.1964 -0.024 C -0.13960001 -0.0342 -0.0774 -0.047 -0.0069999993 -0.062400002 C 0.0461 -0.074 0.0918 -0.0841 0.1353 -0.0935 Z"/>
<linearGradient id="glaze" x1="0%" y1="0%" x2="100%" y2="100%">
<stop offset="0%" stop-color="rgb(255,255,255)" stop-opacity="0.2"/>
<stop offset="49.999%" stop-color="rgb(255,255,255)" stop-opacity="0.0"/>
<stop offset="50.001%" stop-color="rgb(0,0,0)" stop-opacity="0.0"/>
<stop offset="100%" stop-color="rgb(0,0,0)" stop-opacity="0.2"/>
</linearGradient>
</defs>
<g>
<rect x="0" y="0" width="540" height="360" class="blue"/>
<use xlink:href="#e" transform="translate(270 180) scale(295.2 295.2) rotate(0)" class="white"/>
</g>
<g>
<rect x="0" y="0" width="540" height="360" fill="url(#glaze)"/>
<path d="M 30 30 L 510 30 L 510 330 L 30 330 Z M 60 60 L 60 300 L 480 300 L 480 60 Z" fill="rgb(255,255,255)" opacity="0.4"/>
<path d="M 0 0 L 540 0 L 540 360 L 0 360 Z M 30 30 L 30 330 L 510 330 L 510 30 Z" fill="rgb(0,0,0)" opacity="0.4"/>
</g>
</svg>
