<?xml version="1.0"?>
<svg xmlns="http://www.w3.org/2000/svg" xmlns:xlink="http://www.w3.org/1999/xlink" version="1.1" width="540" height="360" viewBox="0 0 540 360">
<!-- Generated by Kreative Vexillo v1.0 -->
<style>
.black{fill:rgb(0,0,0);}
.blue{fill:rgb(0,48,135);}
.red{fill:rgb(213,0,50);}
.white{fill:rgb(255,255,255);}
.yellow{fill:rgb(255,215,0);}
</style>
<defs>
<path id="compass" d="M 0.0 -45.0 L 25.980762 0.0 L 0.0 45.0 L -25.980762 0.0 Z M 45.0 0.0 L 0.0 25.980762 L -45.0 0.0 L 0.0 -25.980762 Z"/>
<path id="disc" d="M 0.5 0.0 A 0.5 0.5 0.0 0 0 -0.5 0.0 A 0.5 0.5 0.0 0 0 0.5 0.0 Z"/>
<path id="star" d="M 0.0 22.5 L -19.485573 -11.25 H 19.485569 Z M 0.0 -22.5 L 19.485573 11.25 H -19.485569 Z"/>
<linearGradient id="glaze" x1="0%" y1="0%" x2="100%" y2="100%">
<stop offset="0%" stop-color="rgb(255,255,255)" stop-opacity="0.2"/>
<stop offset="49.999%" stop-color="rgb(255,255,255)" stop-opacity="0.0"/>
<stop offset="50.001%" stop-color="rgb(0,0,0)" stop-opacity="0.0"/>
<stop offset="100%" stop-color="rgb(0,0,0)" stop-opacity="0.2"/>
</linearGradient>
</defs>
<g>
<rect x="0" y="0" width="540" height="360" class="blue"/>
<path d="M 0 0 L 540 0 L 0 360 Z" class="white"/>
<path d="M 0 0 L 225 0 L 0 150 Z" class="yellow"/>
<use xlink:href="#compass" transform="translate(150 155) scale(2 2) rotate(0)" class="black"/>
<use xlink:href="#disc" transform="translate(150 155) scale(155.8846 155.8846) rotate(0)" class="black"/>
<use xlink:href="#disc" transform="translate(150 155) scale(135 135) rotate(0)" class="white"/>
<use xlink:href="#star" transform="translate(150 155) scale(2 2) rotate(0)" class="red"/>
</g>
<g>
<rect x="0" y="0" width="540" height="360" fill="url(#glaze)"/>
<path d="M 30 30 L 510 30 L 510 330 L 30 330 Z M 60 60 L 60 300 L 480 300 L 480 60 Z" fill="rgb(255,255,255)" opacity="0.4"/>
<path d="M 0 0 L 540 0 L 540 360 L 0 360 Z M 30 30 L 30 330 L 510 330 L 510 30 Z" fill="rgb(0,0,0)" opacity="0.4"/>
</g>
</svg>
