<?xml version="1.0"?>
<svg xmlns="http://www.w3.org/2000/svg" xmlns:xlink="http://www.w3.org/1999/xlink" version="1.1" width="540" height="360" viewBox="0 0 540 360">
<!-- Generated by Kreative Vexillo v1.0 -->
<style>
.blue{fill:rgb(1,85,165);}
.red{fill:rgb(238,62,52);}
.white{fill:rgb(255,255,255);}
</style>
<defs>
<path id="seeblatt" d="M -0.0141 0.5106 C -0.30040002 0.47229996 -0.5141 0.22799999 -0.5141 -0.060800016 C -0.5142 -0.2185 -0.4022 -0.3465 -0.2642 -0.3465 C -0.15560001 -0.3476 -0.0635 -0.24020001 -0.049899995 -0.09650001 C -0.049899995 -0.07680001 -0.033899993 -0.06080001 -0.0141999945 -0.06080001 C 0.0055000056 -0.06080001 0.021500006 -0.07680001 0.021500006 -0.09650001 C 0.0351 -0.2402 0.1272 -0.3476 0.2358 -0.3465 C 0.3739 -0.3465 0.4858 -0.2186 0.4858 -0.060800016 C 0.4859 0.228 0.2722 0.4723 -0.0141 0.5106 Z"/>
<linearGradient id="glaze" x1="0%" y1="0%" x2="100%" y2="100%">
<stop offset="0%" stop-color="rgb(255,255,255)" stop-opacity="0.2"/>
<stop offset="49.999%" stop-color="rgb(255,255,255)" stop-opacity="0.0"/>
<stop offset="50.001%" stop-color="rgb(0,0,0)" stop-opacity="0.0"/>
<stop offset="100%" stop-color="rgb(0,0,0)" stop-opacity="0.2"/>
</linearGradient>
</defs>
<g>
<rect x="0" y="0" width="540" height="360" class="white"/>
<path d="M 385.7143 0 L 540 0 L 540 102.8571 Z" class="blue"/>
<path d="M 77.1429 0 L 231.4286 0 L 540 205.7143 L 540 308.5714 Z" class="blue"/>
<path d="M 0 154.2857 L 0 51.4286 L 462.8571 360 L 308.5714 360 Z" class="blue"/>
<path d="M 0 257.1429 L 154.2857 360 L 0 360 Z" class="blue"/>
<use xlink:href="#seeblatt" transform="translate(58.482 237.312) scale(74 74) rotate(33.6901)" class="red"/>
<use xlink:href="#seeblatt" transform="translate(152.064 299.7) scale(74 74) rotate(33.6901)" class="red"/>
<use xlink:href="#seeblatt" transform="translate(130.464 79.596) scale(74 74) rotate(33.6901)" class="red"/>
<use xlink:href="#seeblatt" transform="translate(274.482 175.608) scale(74 74) rotate(33.6901)" class="red"/>
<use xlink:href="#seeblatt" transform="translate(418.5 271.584) scale(74 74) rotate(33.6901)" class="red"/>
<use xlink:href="#seeblatt" transform="translate(396.9 51.516) scale(74 74) rotate(33.6901)" class="red"/>
<use xlink:href="#seeblatt" transform="translate(490.482 113.904) scale(74 74) rotate(33.6901)" class="red"/>
</g>
<g>
<rect x="0" y="0" width="540" height="360" fill="url(#glaze)"/>
<path d="M 30 30 L 510 30 L 510 330 L 30 330 Z M 60 60 L 60 300 L 480 300 L 480 60 Z" fill="rgb(255,255,255)" opacity="0.4"/>
<path d="M 0 0 L 540 0 L 540 360 L 0 360 Z M 30 30 L 30 330 L 510 330 L 510 30 Z" fill="rgb(0,0,0)" opacity="0.4"/>
</g>
</svg>
