<?xml version="1.0"?>
<svg xmlns="http://www.w3.org/2000/svg" xmlns:xlink="http://www.w3.org/1999/xlink" version="1.1" width="540" height="360" viewBox="0 0 540 360">
<!-- Generated by Kreative Vexillo v1.0 -->
<style>
.blue{fill:rgb(0,82,156);}
.white{fill:rgb(255,255,255);}
.yellow{fill:rgb(253,185,36);}
</style>
<defs>
<path id="star12" d="M 0.0 -1.0 L 0.12941 -0.482963 L 0.5 -0.866025 L 0.353553 -0.353553 L 0.866025 -0.5 L 0.482963 -0.12941 L 1.0 -0.0 L 0.482963 0.12941 L 0.866025 0.5 L 0.353553 0.353553 L 0.5 0.866025 L 0.12941 0.482963 L 0.0 1.0 L -0.12941 0.482963 L -0.5 0.866025 L -0.353553 0.353553 L -0.866025 0.5 L -0.482963 0.12941 L -1.0 0.0 L -0.482963 -0.12941 L -0.866025 -0.5 L -0.353553 -0.353553 L -0.5 -0.866025 L -0.12941 -0.482963 Z"/>
<linearGradient id="glaze" x1="0%" y1="0%" x2="100%" y2="100%">
<stop offset="0%" stop-color="rgb(255,255,255)" stop-opacity="0.2"/>
<stop offset="49.999%" stop-color="rgb(255,255,255)" stop-opacity="0.0"/>
<stop offset="50.001%" stop-color="rgb(0,0,0)" stop-opacity="0.0"/>
<stop offset="100%" stop-color="rgb(0,0,0)" stop-opacity="0.2"/>
</linearGradient>
</defs>
<g>
<g>
<rect x="0" y="0" width="540" height="165" class="blue"/>
<rect x="0" y="165" width="540" height="30" class="yellow"/>
<rect x="0" y="195" width="540" height="165" class="blue"/>
</g>
<use xlink:href="#star12" transform="translate(135 255) scale(60 60) rotate(0)" class="white"/>
</g>
<g>
<rect x="0" y="0" width="540" height="360" fill="url(#glaze)"/>
<path d="M 30 30 L 510 30 L 510 330 L 30 330 Z M 60 60 L 60 300 L 480 300 L 480 60 Z" fill="rgb(255,255,255)" opacity="0.4"/>
<path d="M 0 0 L 540 0 L 540 360 L 0 360 Z M 30 30 L 30 330 L 510 330 L 510 30 Z" fill="rgb(0,0,0)" opacity="0.4"/>
</g>
</svg>
