<?xml version="1.0"?>
<svg xmlns="http://www.w3.org/2000/svg" xmlns:xlink="http://www.w3.org/1999/xlink" version="1.1" width="540" height="360" viewBox="0 0 540 360">
<!-- Generated by Kreative Vexillo v1.0 -->
<style>
.green{fill:rgb(0,102,0);}
.red{fill:rgb(204,0,0);}
.white{fill:rgb(255,255,255);}
.yellow{fill:rgb(248,195,0);}
</style>
<defs>
<path id="crown" d="M 0.4 0.2438 C 0.41 0.2398 0.4194 0.2347 0.42810002 0.22839999 C 0.41590002 0.3499 0.23380002 0.3251 0.22030002 0.20699999 C 0.16310002 0.3074 0.03730002 0.2787 5.0002337E-4 0.15569998 H 1.00023375E-4 C -0.036699977 0.2787 -0.16249998 0.3074 -0.21969998 0.20699999 C -0.23329999 0.3251 -0.41539997 0.3499 -0.42749998 0.22839999 C -0.41879997 0.2346 -0.4094 0.23979999 -0.39939997 0.24379998 C -0.33179998 0.27069998 -0.25519997 0.23779999 -0.22829996 0.17019999 C -0.20769995 0.18959999 -0.18109995 0.2015 -0.15289995 0.204 C -0.08319995 0.2103 -0.021599948 0.15879999 -0.015299946 0.089099996 V -0.0111 C -0.015699945 -0.0255 -0.023599945 -0.038599998 -0.035999946 -0.045900002 C -0.055899948 -0.0575 -0.08139995 -0.0507 -0.09299995 -0.030800002 C -0.09969995 -0.0509 -0.09969995 -0.0726 -0.09299995 -0.092700005 C -0.07589995 -0.14430001 -0.020199947 -0.1722 0.031400047 -0.1551 C 0.08300005 -0.138 0.110900044 -0.0823 0.093800046 -0.030700006 C 0.08660004 -0.043100007 0.07340004 -0.051000006 0.059000045 -0.051400006 C 0.036000043 -0.052100006 0.016800046 -0.034000006 0.016100045 -0.011000007 V 0.089099996 C 0.022400046 0.1588 0.08400005 0.2103 0.15370005 0.204 C 0.18190005 0.2015 0.20840006 0.18959999 0.22910005 0.17019999 C 0.2558 0.2378 0.3324 0.2707 0.4 0.2438 Z M -0.137 0.3048 C -0.137 0.3048 -0.14989999 0.2971 -0.1766 0.3005 C -0.1805 0.2832 -0.19559999 0.2683 -0.2065 0.26090002 C -0.21689999 0.27230003 -0.2242 0.29340002 -0.2206 0.30870003 C -0.23969999 0.31220004 -0.2576 0.3248 -0.2576 0.3248 C -0.2132 0.3691 -0.1624 0.3597 -0.137 0.3048 Z M -0.137 0.3048 L -0.137 0.3048 L -0.137 0.3048 L -0.137 0.3048 Z M 0.0618 0.2986 C 0.0618 0.2986 0.0504 0.2889 0.023399998 0.2879 C 0.022399997 0.2702 0.009899997 0.2531 3.9999746E-4 0.244 C -0.0117000025 0.2536 -0.022400003 0.2732 -0.021300003 0.2888 C -0.040700004 0.2891 -0.0604 0.2987 -0.0604 0.2987 C -0.0239 0.3496 0.0278 0.3486 0.0618 0.2986 Z M 0.2072 0.261 C 0.1937 0.2685 0.18 0.2861 0.17850001 0.3017 C 0.15930001 0.2989 0.13830002 0.3051 0.13830002 0.3051 C 0.16610001 0.3613 0.21730003 0.3687 0.25890002 0.3249 C 0.25890002 0.3249 0.24920002 0.3134 0.22270001 0.30810001 C 0.2246 0.2904 0.2151 0.2715 0.2072 0.261 Z M -0.3321 0.3973 L -0.3143 0.45700002 C -0.108500004 0.3957 0.109100014 0.3957 0.315 0.45700002 L 0.3328 0.3973 C 0.1152 0.3326 -0.1147 0.3326 -0.3321 0.3973 Z M -0.03 -0.3568 L -0.048699997 -0.2992 L 3.0000135E-4 -0.3348 L 0.0493 -0.2992 L 0.0306 -0.3568 L 0.0796 -0.3924 H 0.018999998 L 3.0E-4 -0.45 L -0.0184 -0.3924 H -0.079 L -0.03 -0.3568 Z M -0.2635 -0.2942 L -0.2822 -0.23660001 L -0.2332 -0.2722 L -0.1842 -0.23659998 L -0.2029 -0.29419997 L -0.15390001 -0.32979998 H -0.2145 L -0.2332 -0.3874 L -0.2519 -0.3298 H -0.3125 L -0.2635 -0.2942 Z M -0.4344 -0.1233 L -0.4531 -0.0657 L -0.4041 -0.1013 L -0.3551 -0.0657 L -0.3738 -0.1233 L -0.3248 -0.1589 H -0.3854 L -0.4041 -0.2165 L -0.4228 -0.1589 H -0.4834 L -0.4344 -0.1233 Z M -0.4666 0.1322 L -0.4176 0.16780001 L -0.4363 0.11020001 L -0.3873 0.07460001 H -0.4479 L -0.4666 0.017 L -0.4853 0.074599996 H -0.5459 L -0.4969 0.110199995 L -0.51559997 0.1678 L -0.4666 0.1322 Z M 0.2035 -0.2942 L 0.1848 -0.23660001 L 0.2338 -0.27220002 L 0.2828 -0.23660001 L 0.2641 -0.2942 L 0.31309998 -0.3298 H 0.25249997 L 0.23379996 -0.3874 L 0.21509996 -0.3298 H 0.1544 L 0.2035 -0.2942 Z M 0.3744 -0.1233 L 0.3557 -0.0657 L 0.40469998 -0.1013 L 0.45369998 -0.0657 L 0.43499997 -0.1233 L 0.48399997 -0.1589 H 0.42339996 L 0.4046 -0.2165 L 0.3859 -0.1589 H 0.32529998 L 0.3744 -0.1233 Z M 0.4975 0.1102 L 0.5465 0.0746 H 0.4859 L 0.4672 0.017 L 0.4485 0.074599996 H 0.3879 L 0.4369 0.110199995 L 0.4182 0.1678 L 0.46719998 0.1322 L 0.5162 0.16780001 L 0.4975 0.1102 Z"/>
<linearGradient id="glaze" x1="0%" y1="0%" x2="100%" y2="100%">
<stop offset="0%" stop-color="rgb(255,255,255)" stop-opacity="0.2"/>
<stop offset="49.999%" stop-color="rgb(255,255,255)" stop-opacity="0.0"/>
<stop offset="50.001%" stop-color="rgb(0,0,0)" stop-opacity="0.0"/>
<stop offset="100%" stop-color="rgb(0,0,0)" stop-opacity="0.2"/>
</linearGradient>
</defs>
<g>
<g>
<rect x="0" y="0" width="540" height="102.8571" class="red"/>
<rect x="0" y="102.8571" width="540" height="154.2857" class="white"/>
<rect x="0" y="257.1429" width="540" height="102.8571" class="green"/>
</g>
<use xlink:href="#crown" transform="translate(270 180) scale(154.2857 154.2857) rotate(0)" class="yellow"/>
</g>
<g>
<rect x="0" y="0" width="540" height="360" fill="url(#glaze)"/>
<path d="M 30 30 L 510 30 L 510 330 L 30 330 Z M 60 60 L 60 300 L 480 300 L 480 60 Z" fill="rgb(255,255,255)" opacity="0.4"/>
<path d="M 0 0 L 540 0 L 540 360 L 0 360 Z M 30 30 L 30 330 L 510 330 L 510 30 Z" fill="rgb(0,0,0)" opacity="0.4"/>
</g>
</svg>
