<?xml version="1.0"?>
<svg xmlns="http://www.w3.org/2000/svg" xmlns:xlink="http://www.w3.org/1999/xlink" version="1.1" width="540" height="360" viewBox="0 0 540 360">
<!-- Generated by Kreative Vexillo v1.0 -->
<style>
.blue{fill:rgb(0,28,90);}
.red{fill:rgb(193,19,61);}
.white{fill:rgb(255,255,255);}
</style>
<defs>
<path id="-glazearea" d="M 0.0 0.0 L 1.0 0.1875 L 0.7692308 0.5 L 1.0 0.8125 L 0.0 1.0 Z"/>
<path id="star" d="M 0.0 -1.0 L 0.2245 -0.309 L 0.9511 -0.309 L 0.3633 0.118 L 0.5878 0.809 L 0.0 0.382 L -0.5878 0.809 L -0.3633 0.118 L -0.9511 -0.309 L -0.2245 -0.309 Z"/>
<clipPath id="clip0">
<use xlink:href="#-glazearea" transform="translate(0 0) scale(540 360) rotate(0)"/>
</clipPath>
<linearGradient id="glaze" x1="0%" y1="0%" x2="100%" y2="100%">
<stop offset="0%" stop-color="rgb(255,255,255)" stop-opacity="0.2"/>
<stop offset="49.999%" stop-color="rgb(255,255,255)" stop-opacity="0.0"/>
<stop offset="50.001%" stop-color="rgb(0,0,0)" stop-opacity="0.0"/>
<stop offset="100%" stop-color="rgb(0,0,0)" stop-opacity="0.2"/>
</linearGradient>
</defs>
<g>
<g clip-path="url(#clip0)">
<rect x="0" y="0" width="540" height="360" class="white"/>
<path d="M 5.5816 -44.6525 L 5.5816 -44.6525 L 1085.5815 90.3475 L 1074.4185 179.6525 L -5.5816 44.6525 Z" class="red"/>
<path d="M 0 157.5 L 0 157.5 L 540 157.5 L 540 202.5 L 0 202.5 Z" class="red"/>
<path d="M -5.5816 315.3475 L -5.5816 315.3475 L 1074.4185 180.3475 L 1085.5815 269.6525 L 5.5816 404.6525 Z" class="red"/>
</g>
<path d="M 0 0 L 332.3077 180 L 0 360 Z" class="blue"/>
<ellipse cx="102.6887" cy="180" rx="61.6132" ry="61.6132" class="white"/>
<ellipse cx="102.6887" cy="180" rx="41.0755" ry="41.0755" class="red"/>
<g>
<use xlink:href="#star" transform="translate(144.496 250.7173) scale(13.6918 13.6918) rotate(-210.5911)" class="white"/>
<use xlink:href="#star" transform="translate(103.3244 262.1485) scale(13.6918 13.6918) rotate(-180.4433)" class="white"/>
<use xlink:href="#star" transform="translate(61.9808 251.3558) scale(13.6918 13.6918) rotate(-150.2955)" class="white"/>
<use xlink:href="#star" transform="translate(31.6501 221.2588) scale(13.6918 13.6918) rotate(-120.1478)" class="white"/>
<use xlink:href="#star" transform="translate(20.5377 180) scale(13.6918 13.6918) rotate(-90)" class="white"/>
<use xlink:href="#star" transform="translate(31.6501 138.7412) scale(13.6918 13.6918) rotate(-59.8522)" class="white"/>
<use xlink:href="#star" transform="translate(61.9808 108.6442) scale(13.6918 13.6918) rotate(-29.7045)" class="white"/>
<use xlink:href="#star" transform="translate(103.3244 97.8515) scale(13.6918 13.6918) rotate(0.4433)" class="white"/>
<use xlink:href="#star" transform="translate(144.496 109.2827) scale(13.6918 13.6918) rotate(30.5911)" class="white"/>
</g>
<g>
<g>
<use xlink:href="#star" transform="translate(23.8868 274.7366) scale(13.6918 13.6918) rotate(-140.2463)" class="white"/>
<use xlink:href="#star" transform="translate(61.2404 296.0465) scale(13.6918 13.6918) rotate(-160.3448)" class="white"/>
</g>
<g>
<use xlink:href="#star" transform="translate(23.8868 85.2634) scale(13.6918 13.6918) rotate(-39.7537)" class="white"/>
<use xlink:href="#star" transform="translate(61.2404 63.9535) scale(13.6918 13.6918) rotate(-19.6552)" class="white"/>
</g>
</g>
<use xlink:href="#star" transform="translate(184.8397 180) scale(13.6918 13.6918) rotate(90)" class="white"/>
<use xlink:href="#star" transform="translate(266.9907 180) scale(13.6918 13.6918) rotate(90)" class="white"/>
<g>
<use xlink:href="#star" transform="translate(224.0247 158.4976) scale(13.6918 13.6918) rotate(79.9507)" class="white"/>
<use xlink:href="#star" transform="translate(224.0247 201.5024) scale(13.6918 13.6918) rotate(100.0493)" class="white"/>
</g>
</g>
<g>
<path d="M 0 0 L 540 67.5 L 415.3846 180 L 540 292.5 L 0 360 Z" fill="url(#glaze)"/>
<path d="M 60 67.9669 L 402.5187 110.7818 L 402.5187 110.7818 L 375.1784 135.4639 L 325.8462 180 L 375.1784 224.5361 L 402.5187 249.2182 L 402.5187 249.2182 L 60 292.0331 L 60 292.0331 L 60 67.9669 Z M 30 33.9835 L 30 326.0165 L 30 326.0165 L 471.2593 270.8591 L 471.2593 270.8591 L 395.2815 202.268 L 370.6154 180 L 395.2815 157.732 L 471.2593 89.1409 L 471.2593 89.1409 L 30 33.9835 Z" fill="rgb(255,255,255)" opacity="0.4"/>
<path d="M 30 33.9835 L 471.2593 89.1409 L 471.2593 89.1409 L 395.2815 157.732 L 370.6154 180 L 395.2815 202.268 L 471.2593 270.8591 L 471.2593 270.8591 L 30 326.0165 L 30 326.0165 L 30 33.9835 Z M 0 0 L 0 360 L 540 292.5 L 415.3846 180 L 540 67.5 L 0 0 Z" fill="rgb(0,0,0)" opacity="0.4"/>
</g>
</svg>
