<?xml version="1.0"?>
<svg xmlns="http://www.w3.org/2000/svg" xmlns:xlink="http://www.w3.org/1999/xlink" version="1.1" width="540" height="360" viewBox="0 0 540 360">
<!-- Generated by Kreative Vexillo v1.0 -->
<style>
.red{fill:rgb(255,0,0);}
</style>
<defs>
<path id="-glazearea" d="M 0.0 0.0 L 1.0 0.0 L 0.75 0.5 L 1.0 1.0 L 0.0 1.0 Z"/>
<clipPath id="clip0">
<path d="M 90 0 L 450 0 L 360 180 L 450 360 L 90 360 Z"/>
</clipPath>
<linearGradient id="glaze" x1="0%" y1="0%" x2="100%" y2="100%">
<stop offset="0%" stop-color="rgb(255,255,255)" stop-opacity="0.2"/>
<stop offset="49.999%" stop-color="rgb(255,255,255)" stop-opacity="0.0"/>
<stop offset="50.001%" stop-color="rgb(0,0,0)" stop-opacity="0.0"/>
<stop offset="100%" stop-color="rgb(0,0,0)" stop-opacity="0.2"/>
</linearGradient>
</defs>
<g>
<g clip-path="url(#clip0)">
<rect x="90" y="0" width="360" height="360" class="red"/>
</g>
</g>
<g>
<path d="M 90 0 L 450 0 L 360 180 L 450 360 L 90 360 Z" fill="url(#glaze)"/>
<path d="M 352.918 60 L 306.324 153.1879 L 292.9309 180 L 306.324 206.8121 L 352.918 300 L 150 300 L 150 60 Z M 120 30 L 120 330 L 401.459 330 L 333.162 193.4061 L 326.4655 180 L 333.162 166.5939 L 401.459 30 Z" fill="rgb(255,255,255)" opacity="0.4"/>
<path d="M 401.459 30 L 333.162 166.5939 L 326.4655 180 L 333.162 193.4061 L 401.459 330 L 120 330 L 120 30 Z M 90 0 L 90 360 L 450 360 L 360 180 L 450 0 Z" fill="rgb(0,0,0)" opacity="0.4"/>
</g>
</svg>
