<?xml version="1.0"?>
<svg xmlns="http://www.w3.org/2000/svg" xmlns:xlink="http://www.w3.org/1999/xlink" version="1.1" width="540" height="360" viewBox="0 0 540 360">
<!-- Generated by Kreative Vexillo v1.0 -->
<style>
.blue{fill:rgb(0,0,255);}
.white{fill:rgb(255,255,255);}
</style>
<defs>
<linearGradient id="glaze" x1="0%" y1="0%" x2="100%" y2="100%">
<stop offset="0%" stop-color="rgb(255,255,255)" stop-opacity="0.2"/>
<stop offset="49.999%" stop-color="rgb(255,255,255)" stop-opacity="0.0"/>
<stop offset="50.001%" stop-color="rgb(0,0,0)" stop-opacity="0.0"/>
<stop offset="100%" stop-color="rgb(0,0,0)" stop-opacity="0.2"/>
</linearGradient>
</defs>
<g>
<rect x="90" y="0" width="360" height="360" class="white"/>
<path d="M 192.8571 0 L 295.7143 0 L 90 205.7143 L 90 102.8571 Z" class="blue"/>
<path d="M 398.5714 0 L 450 0 L 450 51.4286 L 141.4286 360 L 90 360 L 90 308.5714 Z" class="blue"/>
<path d="M 450 154.2857 L 450 257.1429 L 347.1429 360 L 244.2857 360 Z" class="blue"/>
</g>
<g>
<rect x="90" y="0" width="360" height="360" fill="url(#glaze)"/>
<path d="M 120 30 L 420 30 L 420 330 L 120 330 Z M 150 60 L 150 300 L 390 300 L 390 60 Z" fill="rgb(255,255,255)" opacity="0.4"/>
<path d="M 90 0 L 450 0 L 450 360 L 90 360 Z M 120 30 L 120 330 L 420 330 L 420 30 Z" fill="rgb(0,0,0)" opacity="0.4"/>
</g>
</svg>
