<?xml version="1.0"?>
<svg xmlns="http://www.w3.org/2000/svg" xmlns:xlink="http://www.w3.org/1999/xlink" version="1.1" width="540" height="360" viewBox="0 0 540 360">
<!-- Generated by Kreative Vexillo v1.0 -->
<style>
.red{fill:rgb(255,0,0);}
.white{fill:rgb(255,255,255);}
</style>
<defs>
<linearGradient id="glaze" x1="0%" y1="0%" x2="100%" y2="100%">
<stop offset="0%" stop-color="rgb(255,255,255)" stop-opacity="0.2"/>
<stop offset="49.999%" stop-color="rgb(255,255,255)" stop-opacity="0.0"/>
<stop offset="50.001%" stop-color="rgb(0,0,0)" stop-opacity="0.0"/>
<stop offset="100%" stop-color="rgb(0,0,0)" stop-opacity="0.2"/>
</linearGradient>
</defs>
<g>
<rect x="90" y="0" width="360" height="360" class="red"/>
<path d="M 90 0 L 90 50.9117 L 90 50.9117 L 219.0883 180 L 219.0883 180 L 90 309.0883 L 90 309.0883 L 90 360 L 140.9117 360 L 270 230.9117 L 399.0883 360 L 450 360 L 450 309.0883 L 320.9117 180 L 450 50.9117 L 450 0 L 399.0883 0 L 270 129.0883 L 140.9117 0 Z" class="white"/>
</g>
<g>
<rect x="90" y="0" width="360" height="360" fill="url(#glaze)"/>
<path d="M 120 30 L 420 30 L 420 330 L 120 330 Z M 150 60 L 150 300 L 390 300 L 390 60 Z" fill="rgb(255,255,255)" opacity="0.4"/>
<path d="M 90 0 L 450 0 L 450 360 L 90 360 Z M 120 30 L 120 330 L 420 330 L 420 30 Z" fill="rgb(0,0,0)" opacity="0.4"/>
</g>
</svg>
