<?xml version="1.0"?>
<svg xmlns="http://www.w3.org/2000/svg" xmlns:xlink="http://www.w3.org/1999/xlink" version="1.1" width="540" height="360" viewBox="0 0 540 360">
<!-- Generated by Kreative Vexillo v1.0 -->
<style>
.black{fill:rgb(0,0,0);}
.blue{fill:rgb(0,0,255);}
.red{fill:rgb(255,0,0);}
.white{fill:rgb(255,255,255);}
</style>
<defs>
<path id="disc" d="M 0.5 0.0 A 0.5 0.5 0.0 0 0 -0.5 0.0 A 0.5 0.5 0.0 0 0 0.5 0.0 Z"/>
<path id="squel" d="M 0.0 -0.4366 C -0.049 -0.4366 -0.0967 -0.4166 -0.131 -0.3816 C -0.16479999 -0.3471 -0.18349999 -0.30159998 -0.18349999 -0.2532 C -0.18349999 -0.1521 -0.10119999 -0.06979999 -9.998679E-5 -0.06979999 C 0.023900013 -0.06979999 0.047300015 -0.07439999 0.069500014 -0.08349999 C 0.077100016 -0.08659999 0.084500015 -0.09019999 0.091600016 -0.09439999 L 0.09180002 -0.09409999 C 0.16810003 -0.138 0.26500002 -0.14119999 0.34650004 -0.09419999 C 0.38390005 -0.07259999 0.41450006 -0.04259999 0.43640006 -0.006799996 C 0.433 -0.2443 0.2385 -0.4366 0.0 -0.4366 Z M 0.0 -0.2021 C -0.0282 -0.2021 -0.0511 -0.225 -0.0511 -0.2532 S -0.0282 -0.3043 0.0 -0.3043 C 0.0282 -0.3043 0.0511 -0.28140002 0.0511 -0.2532 S 0.0282 -0.2021 0.0 -0.2021 Z"/>
<linearGradient id="glaze" x1="0%" y1="0%" x2="100%" y2="100%">
<stop offset="0%" stop-color="rgb(255,255,255)" stop-opacity="0.2"/>
<stop offset="49.999%" stop-color="rgb(255,255,255)" stop-opacity="0.0"/>
<stop offset="50.001%" stop-color="rgb(0,0,0)" stop-opacity="0.0"/>
<stop offset="100%" stop-color="rgb(0,0,0)" stop-opacity="0.2"/>
</linearGradient>
</defs>
<g>
<g>
<rect x="0" y="0" width="540" height="40" class="black"/>
<rect x="0" y="40" width="540" height="40" class="blue"/>
<rect x="0" y="80" width="540" height="40" class="black"/>
<rect x="0" y="120" width="540" height="40" class="blue"/>
<rect x="0" y="160" width="540" height="40" class="white"/>
<rect x="0" y="200" width="540" height="40" class="blue"/>
<rect x="0" y="240" width="540" height="40" class="black"/>
<rect x="0" y="280" width="540" height="40" class="blue"/>
<rect x="0" y="320" width="540" height="40" class="black"/>
</g>
<use xlink:href="#disc" transform="translate(270 180) scale(252 252) rotate(0)" class="white"/>
<use xlink:href="#squel" transform="translate(270 180) scale(252 252) rotate(120)" class="red"/>
<use xlink:href="#squel" transform="translate(270 180) scale(252 252) rotate(240)" class="red"/>
<use xlink:href="#squel" transform="translate(270 180) scale(252 252) rotate(360)" class="red"/>
</g>
<g>
<rect x="0" y="0" width="540" height="360" fill="url(#glaze)"/>
<path d="M 30 30 L 510 30 L 510 330 L 30 330 Z M 60 60 L 60 300 L 480 300 L 480 60 Z" fill="rgb(255,255,255)" opacity="0.4"/>
<path d="M 0 0 L 540 0 L 540 360 L 0 360 Z M 30 30 L 30 330 L 510 330 L 510 30 Z" fill="rgb(0,0,0)" opacity="0.4"/>
</g>
</svg>
