<?xml version="1.0"?>
<svg xmlns="http://www.w3.org/2000/svg" xmlns:xlink="http://www.w3.org/1999/xlink" version="1.1" width="540" height="360" viewBox="0 0 540 360">
<!-- Generated by Kreative Vexillo v1.0 -->
<style>
.black{fill:rgb(0,0,0);}
.blue{fill:rgb(0,0,255);}
.green{fill:rgb(0,153,0);}
.orange{fill:rgb(255,153,0);}
.purple{fill:rgb(153,0,153);}
.red{fill:rgb(255,0,0);}
.white{fill:rgb(255,255,255);}
.yellow{fill:rgb(255,255,0);}
</style>
<defs>
<clipPath id="clip0">
<path d="M 0 0 L 270 180 L 0 360 Z"/>
</clipPath>
<clipPath id="clip1">
<path d="M 0 0 L 540 0 L 540 360 L 0 360 L 270 180 Z"/>
</clipPath>
<clipPath id="clip2">
<rect x="0" y="0" width="540" height="360"/>
</clipPath>
<clipPath id="clip3">
<path d="M -19.9546 29.9636 L 250.0454 209.9635 L 289.9546 150.0365 L 19.9546 -29.9636 L -19.9546 29.9636 Z"/>
<path d="M 250.0454 150.0365 L -19.9546 330.0364 L 19.9546 389.9636 L 289.9546 209.9635 L 250.0454 150.0365 Z"/>
<path d="M 270 216 L 540 216 L 540 144 L 270 144 L 270 216 Z"/>
</clipPath>
<linearGradient id="glaze" x1="0%" y1="0%" x2="100%" y2="100%">
<stop offset="0%" stop-color="rgb(255,255,255)" stop-opacity="0.2"/>
<stop offset="49.999%" stop-color="rgb(255,255,255)" stop-opacity="0.0"/>
<stop offset="50.001%" stop-color="rgb(0,0,0)" stop-opacity="0.0"/>
<stop offset="100%" stop-color="rgb(0,0,0)" stop-opacity="0.2"/>
</linearGradient>
</defs>
<g>
<g>
<rect x="0" y="0" width="540" height="60" class="red"/>
<rect x="0" y="60" width="540" height="60" class="orange"/>
<rect x="0" y="120" width="540" height="60" class="yellow"/>
<rect x="0" y="180" width="540" height="60" class="green"/>
<rect x="0" y="240" width="540" height="60" class="blue"/>
<rect x="0" y="300" width="540" height="60" class="purple"/>
</g>
<g clip-path="url(#clip0)">
<path d="M -33.2576 49.9393 L 236.7424 229.9393 L 303.2576 130.0607 L 33.2576 -49.9393 L -33.2576 49.9393 Z" class="black"/>
<path d="M 236.7424 130.0607 L -33.2576 310.0608 L 33.2576 409.9392 L 303.2576 229.9393 L 236.7424 130.0607 Z" class="black"/>
</g>
<g clip-path="url(#clip1)">
<path d="M -33.2576 49.9393 L 236.7424 229.9393 L 303.2576 130.0607 L 33.2576 -49.9393 L -33.2576 49.9393 Z" class="white"/>
<path d="M 236.7424 130.0607 L -33.2576 310.0608 L 33.2576 409.9392 L 303.2576 229.9393 L 236.7424 130.0607 Z" class="white"/>
<path d="M 270 240 L 540 240 L 540 120 L 270 120 L 270 240 Z" class="white"/>
</g>
<g clip-path="url(#clip2)">
<g clip-path="url(#clip3)">
<g>
<rect x="0" y="0" width="540" height="60" class="red"/>
<rect x="0" y="60" width="540" height="60" class="orange"/>
<rect x="0" y="120" width="540" height="60" class="yellow"/>
<rect x="0" y="180" width="540" height="60" class="green"/>
<rect x="0" y="240" width="540" height="60" class="blue"/>
<rect x="0" y="300" width="540" height="60" class="purple"/>
</g>
</g>
</g>
</g>
<g>
<rect x="0" y="0" width="540" height="360" fill="url(#glaze)"/>
<path d="M 30 30 L 510 30 L 510 330 L 30 330 Z M 60 60 L 60 300 L 480 300 L 480 60 Z" fill="rgb(255,255,255)" opacity="0.4"/>
<path d="M 0 0 L 540 0 L 540 360 L 0 360 Z M 30 30 L 30 330 L 510 330 L 510 30 Z" fill="rgb(0,0,0)" opacity="0.4"/>
</g>
</svg>
