<?xml version="1.0"?>
<svg xmlns="http://www.w3.org/2000/svg" xmlns:xlink="http://www.w3.org/1999/xlink" version="1.1" width="540" height="360" viewBox="0 0 540 360">
<!-- Generated by Kreative Vexillo v1.0 -->
<style>
.black{fill:rgb(0,0,0);}
.blue{fill:rgb(0,26,152);}
.brown{fill:rgb(96,56,19);}
.green{fill:rgb(6,191,0);}
.orange{fill:rgb(238,156,0);}
.pink{fill:rgb(255,175,199);}
.purple{fill:rgb(118,0,137);}
.red{fill:rgb(212,6,6);}
.turquoise{fill:rgb(116,215,236);}
.white{fill:rgb(251,249,245);}
.yellow{fill:rgb(227,255,0);}
</style>
<defs>
<linearGradient id="glaze" x1="0%" y1="0%" x2="100%" y2="100%">
<stop offset="0%" stop-color="rgb(255,255,255)" stop-opacity="0.2"/>
<stop offset="49.999%" stop-color="rgb(255,255,255)" stop-opacity="0.0"/>
<stop offset="50.001%" stop-color="rgb(0,0,0)" stop-opacity="0.0"/>
<stop offset="100%" stop-color="rgb(0,0,0)" stop-opacity="0.2"/>
</linearGradient>
</defs>
<g>
<g>
<rect x="0" y="0" width="540" height="60" class="red"/>
<rect x="0" y="60" width="540" height="60" class="orange"/>
<rect x="0" y="120" width="540" height="60" class="yellow"/>
<rect x="0" y="180" width="540" height="60" class="green"/>
<rect x="0" y="240" width="540" height="60" class="blue"/>
<rect x="0" y="300" width="540" height="60" class="purple"/>
</g>
<path d="M 0 0 L 90 0 L 270 180 L 90 360 L 0 360 Z" class="black"/>
<path d="M 0 0 L 45 0 L 225 180 L 45 360 L 0 360 Z" class="brown"/>
<path d="M 0 0 L 180 180 L 0 360 Z" class="turquoise"/>
<path d="M 0 45 L 135 180 L 0 315 Z" class="pink"/>
<path d="M 0 90 L 90 180 L 0 270 Z" class="white"/>
</g>
<g>
<rect x="0" y="0" width="540" height="360" fill="url(#glaze)"/>
<path d="M 30 30 L 510 30 L 510 330 L 30 330 Z M 60 60 L 60 300 L 480 300 L 480 60 Z" fill="rgb(255,255,255)" opacity="0.4"/>
<path d="M 0 0 L 540 0 L 540 360 L 0 360 Z M 30 30 L 30 330 L 510 330 L 510 30 Z" fill="rgb(0,0,0)" opacity="0.4"/>
</g>
</svg>
