<?xml version="1.0"?>
<svg xmlns="http://www.w3.org/2000/svg" xmlns:xlink="http://www.w3.org/1999/xlink" version="1.1" width="540" height="360" viewBox="0 0 540 360">
<!-- Generated by Kreative Vexillo v1.0 -->
<style>
.blue{fill:rgb(0,102,255);}
.pink{fill:rgb(255,163,230);}
.purple{fill:rgb(231,103,255);}
.white{fill:rgb(255,255,255);}
</style>
<defs>
<path id="crown" d="M 0.5 0.1628 C 0.5 0.1628 0.40829998 0.1954 0.22479999 0.3933 C 0.22479999 0.3933 0.2223 0.3817 0.2223 0.3457 C 0.2223 0.2879 0.23429999 0.23269999 0.23429999 0.23269999 S 0.19169998 0.2539 0.09199999 0.35909998 L 0.0 0.0 L -0.0919 0.3592 C -0.19150001 0.2539 -0.23409998 0.2328 -0.23409998 0.2328 S -0.22209999 0.28800002 -0.22209999 0.3458 C -0.22209999 0.3817 -0.22469999 0.3934 -0.22469999 0.3934 C -0.4083 0.1954 -0.5 0.1628 -0.5 0.1628 S -0.32569999 0.36589998 -0.32569999 0.5632 C -0.32569999 0.6207 -0.33909997 0.6513 -0.33909997 0.6513 S -0.24329998 0.5957 2.9802322E-8 0.5957 C 0.24330004 0.5957 0.33910003 0.6513 0.33910003 0.6513 S 0.32570004 0.6207 0.32570004 0.5632 C 0.3257 0.3659 0.5 0.1628 0.5 0.1628 Z"/>
<path id="star" d="M 0.0 -1.0 L 0.2245 -0.309 L 0.9511 -0.309 L 0.3633 0.118 L 0.5878 0.809 L 0.0 0.382 L -0.5878 0.809 L -0.3633 0.118 L -0.9511 -0.309 L -0.2245 -0.309 Z"/>
<linearGradient id="glaze" x1="0%" y1="0%" x2="100%" y2="100%">
<stop offset="0%" stop-color="rgb(255,255,255)" stop-opacity="0.2"/>
<stop offset="49.999%" stop-color="rgb(255,255,255)" stop-opacity="0.0"/>
<stop offset="50.001%" stop-color="rgb(0,0,0)" stop-opacity="0.0"/>
<stop offset="100%" stop-color="rgb(0,0,0)" stop-opacity="0.2"/>
</linearGradient>
</defs>
<g>
<g>
<rect x="0" y="0" width="180" height="360" class="purple"/>
<rect x="180" y="0" width="180" height="360" class="white"/>
<rect x="360" y="0" width="180" height="360" class="blue"/>
</g>
<use xlink:href="#crown" transform="translate(270 144) scale(121.68 121.68) rotate(0)" class="pink"/>
<use xlink:href="#star" transform="translate(204.12 156.42) scale(4.5 4.5) rotate(0)" class="pink"/>
<use xlink:href="#star" transform="translate(236.7 164.88) scale(4.5 4.5) rotate(0)" class="pink"/>
<use xlink:href="#star" transform="translate(270 137.52) scale(4.5 4.5) rotate(0)" class="pink"/>
<use xlink:href="#star" transform="translate(303.3 164.88) scale(4.5 4.5) rotate(0)" class="pink"/>
<use xlink:href="#star" transform="translate(335.88 156.42) scale(4.5 4.5) rotate(0)" class="pink"/>
<use xlink:href="#star" transform="translate(242.28 210.96) scale(2.7 2.7) rotate(0)" class="white"/>
<use xlink:href="#star" transform="translate(248.94 209.52) scale(2.7 2.7) rotate(0)" class="white"/>
<use xlink:href="#star" transform="translate(255.78 208.44) scale(2.7 2.7) rotate(0)" class="white"/>
<use xlink:href="#star" transform="translate(262.98 207.72) scale(2.7 2.7) rotate(0)" class="white"/>
<use xlink:href="#star" transform="translate(270 207.18) scale(2.7 2.7) rotate(0)" class="white"/>
<use xlink:href="#star" transform="translate(277.02 207.72) scale(2.7 2.7) rotate(0)" class="white"/>
<use xlink:href="#star" transform="translate(284.22 208.44) scale(2.7 2.7) rotate(0)" class="white"/>
<use xlink:href="#star" transform="translate(291.06 209.52) scale(2.7 2.7) rotate(0)" class="white"/>
<use xlink:href="#star" transform="translate(297.72 210.96) scale(2.7 2.7) rotate(0)" class="white"/>
</g>
<g>
<rect x="0" y="0" width="540" height="360" fill="url(#glaze)"/>
<path d="M 30 30 L 510 30 L 510 330 L 30 330 Z M 60 60 L 60 300 L 480 300 L 480 60 Z" fill="rgb(255,255,255)" opacity="0.4"/>
<path d="M 0 0 L 540 0 L 540 360 L 0 360 Z M 30 30 L 30 330 L 510 330 L 510 30 Z" fill="rgb(0,0,0)" opacity="0.4"/>
</g>
</svg>
