<?xml version="1.0"?>
<svg xmlns="http://www.w3.org/2000/svg" xmlns:xlink="http://www.w3.org/1999/xlink" version="1.1" width="540" height="360" viewBox="0 0 540 360">
<!-- Generated by Kreative Vexillo v1.0 -->
<style>
.black{fill:rgb(0,0,0);}
.brown{fill:rgb(125,75,35);}
.green{fill:rgb(106,189,81);}
.red{fill:rgb(218,18,26);}
.yellow{fill:rgb(252,221,9);}
</style>
<defs>
<path id="disc" d="M 259.6006 130.0249 C 259.5879 201.59961 201.55269 259.61328 129.9766 259.5996 C 58.419495 259.58792 0.41409302 201.582 0.40089417 130.0249 C 0.38769418 58.4487 58.400894 0.41410828 129.9766 0.40090942 C 201.5528 0.38770944 259.5879 58.40091 259.6006 129.97661 C 259.6006 129.9927 259.6006 130.0088 259.6006 130.0249 Z"/>
<path id="fire" d="M 61.1914 111.6582 C 56.6807 112.286606 55.541 104.3179 55.8013 98.186005 C 55.8609 96.79391 59.4336 88.86761 59.4053 96.32561 C 59.3985 98.15671 60.7847 99.43551 61.4258 101.11471 C 63.1758 105.70011 66.1367 108.45261 64.8233 102.989204 C 63.79 98.6909 55.8125 84.229 77.4775 71.4761 C 86.875 65.9449 96.675705 63.954098 105.3642 54.372597 C 106.3173 53.322296 108.85249 49.375996 109.1132 54.607 C 109.184494 56.0211 107.9062 57.171497 106.6532 58.941498 C 105.4843 60.591896 103.5595 63.402897 108.5282 61.401897 C 112.5458 59.783195 115.4081 57.162197 118.6044 53.552795 C 123.2997 48.250595 128.7343 46.505898 138.7577 39.377995 C 141.90811 37.137295 146.5126 37.417595 141.33481 41.603596 C 139.7772 42.863396 139.5184 47.160194 137.8202 49.569897 C 136.53021 51.400497 131.53111 55.086998 138.1718 52.966896 C 144.7372 50.871197 148.5966 51.052296 160.5917 39.446396 C 163.1308 36.989895 164.5487 33.012295 174.72841 34.574795 C 180.53111 35.465393 185.619 35.686596 190.89832 32.114796 C 192.39151 31.104095 196.38272 28.182695 192.42082 34.105995 C 183.50192 47.443893 171.57312 41.168995 163.96082 49.646496 C 159.88762 54.183098 163.05061 52.696297 166.05852 50.272495 C 168.99602 47.905296 172.10641 46.088394 177.77531 48.164097 C 179.72551 48.878 181.56142 48.353096 183.51651 46.875496 C 187.17761 44.106495 186.26451 46.742695 185.2743 48.866695 C 183.74211 52.151894 180.4432 52.956497 177.1893 54.138195 C 174.5047 55.112797 175.6141 55.799294 177.8924 56.129894 C 183.38849 56.927296 192.3221 58.748993 193.9442 57.652794 C 196.0565 56.225094 197.3094 56.373493 194.7645 59.644493 C 191.2928 64.1049 185.0672 64.54679 178.3348 64.839294 C 174.43729 65.008194 169.1707 68.17619 164.3006 72.296295 C 160.4901 75.5199 160.8055 75.24159 163.3631 74.756294 C 164.69609 74.503395 168.8768 74.05119 164.8436 77.3847 C 163.3436 78.6244 160.5887 83.03999 158.326 85.210396 C 156.7957 86.67719 154.58481 87.82079 151.99791 88.6972 C 149.89832 89.4076 144.98521 89.3852 150.9432 90.9228 C 157.32211 92.5688 162.63661 91.7573 168.7303 89.971596 C 174.1785 88.3744 179.5477 90.8715 185.743 94.671295 C 189.34259 96.880295 192.911 99.58099 198.90019 97.73769 C 202.241 96.70889 204.7107 96.735695 200.38849 100.41149 C 195.30548 104.734695 188.30058 106.17959 179.4793 104.55799 C 175.72339 103.86759 171.9666 103.17759 168.2107 102.48719 C 164.6892 101.84019 161.2605 102.96329 168.0457 103.97839 C 176.2771 105.2094 181.7176 111.88559 191.327 114.24989 C 192.411 114.51699 193.4754 114.27239 194.5575 114.16689 C 196.47249 113.980896 200.3339 114.48229 195.96669 116.65229 C 192.0116 118.61709 189.59169 118.70209 182.46179 117.64639 C 180.22449 117.314896 177.9872 116.98329 175.75089 116.65229 C 173.19229 116.27339 171.72748 116.14889 175.33679 117.81199 C 180.5145 120.19819 183.32219 124.27049 191.8241 125.018486 C 195.92659 125.37978 195.21959 126.19379 192.40419 127.50388 C 188.11119 129.50148 183.1366 129.47308 178.15318 128.99458 C 174.86899 128.67969 173.49988 127.345184 167.96278 128.16649 C 163.25578 128.86429 162.92859 130.8848 153.79478 126.42679 C 149.34268 124.25389 148.24788 123.08989 146.00668 122.03669 C 143.71568 120.95999 140.83969 119.30619 143.93538 123.69339 C 146.56238 127.41649 147.03787 131.3653 156.03207 135.5391 C 159.62587 137.20709 160.57898 137.43169 155.94908 137.8575 C 143.77138 138.9825 143.59268 136.1388 138.88168 133.9649 C 135.39049 132.3536 132.29189 131.6094 128.02818 132.4747 C 125.627785 132.961 117.623886 134.9454 113.52918 138.1895 C 109.355385 141.4961 97.69718 137.9981 97.69718 137.9981 C 106.4824 121.1587 74.9951 111.416 61.1914 111.6582 L 61.1914 111.6582 Z"/>
<path id="thf" d="M 177.3828 250.8379 C 153.5752 260.24222 134.8828 260.5176 119.4658 259.3496 C 103.2939 247.1269 92.6308 237.41211 76.1445 225.55472 C 73.2939 223.61722 73.6191 223.65242 70.1064 223.91801 C 66.0039 224.22661 65.1347 222.55472 63.0478 220.77931 C 61.892498 219.79881 60.673798 218.87502 60.0234 220.53911 L 54.4047 235.46681 C 50.5414 232.86131 46.942802 229.81061 43.6239 226.87111 L 48.6879 209.39261 C 48.401802 206.02151 48.0224 202.77351 46.8495 199.5567 L 47.770897 185.5079 L 51.732796 177.3985 L 54.964195 175.4923 L 56.289894 171.2677 L 59.180492 170.9513 C 60.661892 164.66609 63.45299 157.85559 65.557495 151.32239 C 65.0059 141.1875 64.9082 131.2051 64.0625 120.9731 C 63.8701 118.6513 64.0107 116.6855 62.1396 114.79 C 60.0527 112.6762 59.9228 109.0117 63.799797 109.2656 C 80.0234 110.3271 87.5625 116.247505 101.2129 121.746605 C 109.509796 125.0884 120.1943 125.0518 108.9102 127.189 L 103.3448 128.2437 C 102.5177 128.40039 98.1544 127.9283 101.9971 129.1221 C 104.8272 130.001 105.666 130.8067 107.8555 131.28911 C 108.628 131.45901 114.7022 131.98831 107.7383 133.5157 C 103.6074 134.2637 101.264694 134.0919 98.8008 137.7774 C 92.2969 145.8575 82.389694 160.5079 82.3125 160.459 C 80.7715 164.6524 78.7988 167.8047 77.8457 171.5801 C 78.9272 172.19339 79.749 172.8086 80.39941 173.25589 C 82.93851 175.00589 84.77441 177.34969 86.0332 180.04889 C 87.7939 183.82619 87.291 187.3848 90.921906 192.34969 C 93.46001 195.82039 91.3076 198.63678 93.821304 202.74619 C 99.4307 211.91609 110.16801 215.72859 120.8311 221.79889 C 133.4658 228.9902 155.0977 229.5762 177.3828 250.8379 Z"/>
<path id="ths" d="M 132.3193 229.6816 C 133.789 229.6816 138.7431 233.1679 145.7841 242.5195 C 146.4364 243.3867 147.05661 244.4648 146.8427 244.8945 C 146.787 245.0058 146.6796 245.0664 146.539 245.0664 C 145.8632 245.0664 144.2421 243.66411 142.0917 241.21681 C 137.37491 235.84772 137.1513 235.64651 134.41591 233.1699 C 134.08781 232.873 133.72351 232.54291 133.3114 232.16791 C 132.2401 231.19331 131.6981 230.35931 131.8622 229.9355 C 131.9072 229.8184 132.0225 229.6816 132.3193 229.6816 Z M 177.5625 250.8906 C 177.5303 250.9238 177.4912 250.94719 177.4512 250.9668 C 177.4453 250.9707 177.4453 250.9785 177.4395 250.9805 C 161.8809 257.127 147.2549 259.9883 131.4092 259.9883 C 127.6812 259.9883 123.77049 259.8301 119.454094 259.5039 C 119.4248 259.5 119.396996 259.4902 119.3735 259.47272 C 112.397896 254.20122 106.4067 249.36331 100.6132 244.68362 C 92.8041 238.37703 85.4286 232.42192 76.0551 225.67972 L 75.5356 225.32622 C 73.3085 223.80081 73.3276 223.82622 70.395 224.05081 L 70.118095 224.07231 C 69.7875 224.09572 69.4687 224.1094 69.170296 224.1094 C 66.4135 224.1094 65.26309 223.0332 63.931496 221.78711 C 63.622395 221.49802 63.303596 221.1992 62.948597 220.89651 C 62.280098 220.33011 61.582397 219.77542 61.034496 219.77542 C 60.665398 219.77542 60.381695 220.04301 60.165794 220.59383 L 54.548096 235.52153 C 54.531494 235.56453 54.495895 235.59962 54.450897 235.61333 C 54.4074 235.62892 54.358097 235.62112 54.318596 235.59383 C 50.337597 232.91023 46.627197 229.73642 43.522194 226.98642 C 43.517796 226.98251 43.521194 226.97472 43.517292 226.97083 C 43.402092 226.86923 43.346394 226.70912 43.391293 226.55283 L 48.319492 209.31062 C 48.210594 208.31062 47.816093 207.22862 47.401493 206.83012 C 47.390793 206.82033 47.382492 206.80672 47.377094 206.79303 C 47.043095 205.92783 46.911293 204.74223 46.859493 203.89853 L 46.844894 203.62312 C 46.807293 202.89072 46.772095 202.19733 46.362995 201.48833 C 46.015797 200.42192 45.800995 199.42383 46.351795 196.93173 C 46.586197 195.87514 46.463596 195.08803 46.249294 194.00793 C 46.150696 192.98253 46.227295 192.24423 46.402096 191.23453 C 46.529495 190.49823 46.655495 189.63293 46.529095 188.70912 C 46.481194 187.87512 46.444595 187.06653 46.509094 186.26382 C 46.594494 185.25212 46.899193 184.59192 47.562294 183.98262 C 48.209793 183.00603 48.640896 181.42403 48.594994 180.15253 C 48.571095 179.49232 48.698994 179.29512 49.079895 178.71112 C 49.161396 178.58612 49.255196 178.44162 49.363094 178.26971 C 51.344994 176.22092 52.033493 175.81271 52.506195 175.81271 C 52.640495 175.81271 52.753796 175.84592 52.863094 175.87912 C 52.976894 175.91232 53.094494 175.94553 53.245396 175.94553 C 53.399696 175.94553 53.572094 175.91032 53.771797 175.83612 C 53.846996 175.72871 53.933395 175.64662 54.016895 175.56662 C 54.238094 175.35371 54.467094 175.13503 54.525696 174.37521 C 54.217094 173.30101 54.367496 172.27951 54.950996 171.49821 C 55.478798 170.79121 56.323997 170.36731 57.212196 170.36542 C 57.212696 170.36542 57.212696 170.36542 57.212696 170.36542 C 57.280598 170.36742 57.320095 170.36932 57.364098 170.37132 H 57.39 C 58.0472 170.44942 58.6229 170.56862 59.1068 170.71902 L 59.1737 170.51202 C 60.0956 166.73662 61.480297 162.74443 62.8597 158.84402 L 64.8631 152.49052 C 63.857697 148.28543 63.835796 143.24832 63.814796 138.37723 V 138.31863 C 63.814297 138.27173 63.847996 138.22884 63.894897 138.21904 L 64.8867 138.0 C 64.77441 135.0547 64.64841 132.0703 64.490204 129.064 L 63.629402 128.566 C 63.604504 128.55179 63.586903 128.52739 63.5806 128.49959 C 63.5694 128.44778 63.5572 128.39609 63.545002 128.34529 C 63.472702 128.04109 63.4039 127.753494 63.572803 127.56209 C 63.909203 127.17779 64.223206 126.48199 64.1656 125.79449 C 64.162704 125.75979 64.17831 125.725685 64.2061 125.70469 C 64.2339 125.68469 64.2696 125.67979 64.3013 125.69099 C 64.2022 124.12259 64.0904 122.55179 63.9605 120.98148 C 63.9351 120.67188 63.9151 120.36819 63.896 120.07038 C 63.7705 118.142685 63.6621 116.477585 62.0669 114.86188 C 60.817398 113.596275 60.278797 111.79548 60.7866 110.58018 C 61.171898 109.65828 62.1098 109.15098 63.427197 109.15098 C 63.549297 109.15098 63.675697 109.15538 63.806595 109.16368 C 75.688896 109.94098 82.9174 113.31948 91.287094 117.23158 C 94.38329 118.67888 97.58499 120.17498 101.25099 121.651985 C 104.13279 122.812584 107.243195 123.550385 109.74269 124.143684 C 112.63329 124.829185 113.910194 125.153984 113.89849 125.66859 C 113.88919 126.08999 113.05429 126.508385 108.92929 127.28969 L 103.36389 128.34439 C 103.22029 128.37129 102.981094 128.383 102.56259 128.383 C 102.41999 128.383 102.26909 128.3815 102.11579 128.3806 C 101.95859 128.3791 101.79889 128.3782 101.64359 128.3782 C 100.92729 128.3782 100.65429 128.4143 100.56159 128.4514 C 100.63919 128.5183 100.93269 128.6848 102.02739 129.0246 C 103.35749 129.4377 104.254486 129.8371 105.04599 130.1892 C 105.94589 130.59009 106.72279 130.93579 107.87749 131.1897 C 107.97269 131.2112 108.155785 131.2385 108.38729 131.2717 C 109.83259 131.4885 111.13099 131.7229 111.14799 132.2248 C 111.15829 132.52359 110.78229 132.9533 107.760284 133.61539 C 107.167984 133.7228 106.622086 133.80879 106.09479 133.89268 C 103.47319 134.31068 101.60799 134.61539 99.82479 136.61539 L 100.10899 138.53918 C 100.11389 138.57239 100.103096 138.60368 100.0797 138.62709 C 100.05679 138.6505 100.0235 138.6603 99.992294 138.65439 C 99.72569 138.61339 99.477196 138.59389 99.252594 138.59389 C 98.71349 138.59389 98.33509 138.71498 98.0368 138.90248 C 93.3278 144.88489 87.25459 153.59389 84.2453 157.90839 C 82.9182 159.81068 82.5432 160.3498 82.4064 160.50218 C 81.7702 162.23268 81.0602 163.77759 80.3737 165.27168 C 79.4689 167.24048 78.6042 169.14078 78.0363 171.21509 C 78.9074 171.70918 79.6154 172.20529 80.202805 172.61938 L 80.63151 172.92018 C 83.10321 174.62138 85.045105 176.96318 86.40401 179.87718 C 87.07001 181.30489 87.4128 182.67209 87.775604 184.12128 C 88.3811 186.53928 89.00751 189.03928 91.252205 192.10957 C 92.60081 193.95337 92.6975 195.66428 92.791306 197.31857 C 92.88161 198.92207 92.9754 200.58028 94.17071 202.53337 C 98.45491 209.53728 105.910904 213.41037 113.80401 217.50996 C 116.14531 218.72676 118.56671 219.98456 120.978806 221.35767 C 124.97681 223.63496 129.8401 225.21507 135.47101 227.04716 C 147.42902 230.93387 162.31181 235.77376 177.5491 250.31276 C 177.7119 250.4688 177.7188 250.7266 177.5625 250.8906 Z M 82.9751 159.3691 C 82.952194 159.3554 82.926796 159.34569 82.918 159.3203 C 82.303696 157.5098 80.6065 156.3613 78.8633 155.3906 C 76.5747 154.30469 74.88139 153.83589 73.244194 153.3828 C 72.8624 153.2773 72.480995 153.17189 72.091896 153.0605 C 71.698296 152.9902 71.3341 152.955 71.020096 152.955 C 69.4976 152.955 69.2662 153.79291 69.0206 154.6816 C 68.9601 154.90039 68.8976 155.12689 68.815 155.33789 C 68.5328 156.59569 68.1519 157.91989 67.783806 159.19919 C 67.03181 161.8086 66.25451 164.50969 66.244705 166.90228 C 66.211006 167.93748 66.351105 168.66788 67.08941 169.01358 L 67.95711 168.80067 C 67.98931 168.79088 68.01571 168.79088 68.05771 168.78897 C 72.71351 168.82217 75.75451 169.94917 77.85261 171.10927 C 78.42441 169.04286 79.28621 167.14836 80.18711 165.18736 C 80.87311 163.69327 81.58211 162.15027 82.21691 160.42366 L 82.24131 160.35725 H 82.26861 C 82.3486 160.2559 82.6045 159.8965 82.9751 159.3691 Z M 68.1025 169.6074 L 64.5229 170.48831 C 63.712803 170.81061 62.905205 171.13872 62.117603 171.47852 C 61.647404 171.60152 61.254303 171.65822 60.901302 171.65822 C 60.786102 171.65822 60.698204 171.63872 60.597603 171.62701 C 60.645004 171.70122 60.691402 171.78131 60.7358 171.86922 L 77.2407 174.40051 C 77.3174 173.53922 77.4541 172.72081 77.6367 171.92981 C 75.6221 170.7871 72.6792 169.6484 68.1025 169.6074 Z M 68.3545 142.3555 V 142.2578 C 68.3545 142.2578 68.3545 142.2578 68.354 142.2578 L 68.346695 142.3555 C 68.045395 142.3633 67.720695 142.8809 67.712395 143.8243 L 67.360794 148.3458 C 67.32169 148.5958 67.356895 148.7892 67.462395 148.9122 C 67.535194 148.99811 67.640594 149.045 67.76029 149.045 C 68.056694 149.045 68.37499 148.7735 68.38239 148.2735 L 68.85459 143.81259 C 68.91659 142.9278 68.688095 142.58018 68.58699 142.4708 C 68.5151 142.3945 68.437 142.3555 68.3545 142.3555 Z M 71.1489 142.6816 V 142.58 L 71.14011 142.6816 C 70.852005 142.6855 70.5229 142.99019 70.4614 143.83 L 70.110306 147.1171 C 70.121 147.6581 70.289505 147.9765 70.57371 147.9765 C 70.895004 147.9765 71.300804 147.5722 71.31591 147.1035 L 71.72461 143.9316 C 71.82571 143.53119 71.77101 143.166 71.57761 142.9179 C 71.4604 142.7676 71.3042 142.6816 71.1489 142.6816 Z M 72.0181 119.5098 C 72.127495 118.97861 71.9619 118.36671 71.5889 117.9009 C 71.337395 117.5869 71.0376 117.404305 70.7661 117.3999 L 70.7554 117.2993 V 117.3999 C 70.21 117.3999 69.8472 118.109406 69.7593 119.3457 L 69.5874 124.998505 C 69.5156 125.662605 69.6572 126.2422 69.975105 126.5966 C 70.143105 126.783104 70.347206 126.8862 70.550804 126.8862 C 71.0239 126.8862 71.591805 126.3169 71.63531 124.7119 L 72.0181 119.5098 Z M 68.8794 131.5898 L 68.6499 136.7988 C 68.5986 137.4433 68.7197 137.9746 68.9824 138.2578 C 69.104996 138.3906 69.250496 138.46089 69.4033 138.46089 C 69.854 138.46089 70.333496 137.8476 70.378395 136.67569 L 70.844696 131.6874 C 70.901794 131.05069 70.7846 130.5331 70.514595 130.2294 C 70.367096 130.0644 70.185 129.9745 69.98679 129.9696 L 69.97119 129.8719 H 69.97069 V 129.9696 C 69.4712 129.9697 68.936 130.5254 68.8794 131.5898 Z M 88.666 151.2559 C 86.5376 147.4297 78.9824 144.0157 75.8598 143.6934 C 75.8505 143.6934 75.841705 143.6914 75.8329 143.6875 C 75.3231 143.4883 74.937904 143.3965 74.62 143.3965 C 74.164406 143.3965 73.5419 143.5645 73.3954 145.0059 L 72.333405 149.3575 C 72.11471 150.41609 72.4643 150.6173 72.869 150.8497 C 72.949104 150.8966 73.0296 150.9435 73.1053 150.9942 C 74.0535 151.3419 75.0745 151.6993 76.1551 152.0762 C 80.0438 153.4375 84.0545 154.8418 85.3446 155.97461 C 86.3081 154.5977 87.4404 152.9844 88.666 151.2559 Z M 73.457 131.9473 V 131.8477 L 73.448204 131.9473 C 73.1416 131.9532 72.7431 132.3086 72.62981 133.29109 L 72.28561 137.422 C 72.239204 137.8888 72.32661 138.2697 72.5322 138.4962 C 72.75101 138.7403 73.0835 138.7384 73.3198 138.5001 C 73.5512 138.26381 73.6733 137.8497 73.663605 137.3321 L 74.2134 133.2657 C 74.2202 132.78911 74.089905 132.37311 73.8555 132.1348 C 73.7354 132.0117 73.5977 131.9473 73.457 131.9473 Z M 75.4321 118.2544 V 118.1538 L 75.4248 118.2544 C 74.9917 118.2598 74.6133 118.6865 74.386696 119.425804 L 73.5674 126.0288 C 73.4907 126.728004 73.6865 127.1113 73.8638 127.3091 C 74.0327 127.4976 74.2637 127.6011 74.5147 127.6011 C 75.026405 127.6011 75.630905 127.1773 75.827705 126.230995 L 76.381905 120.502495 C 76.547905 119.7549 76.435104 119.05329 76.081604 118.61289 C 75.8965 118.3818 75.666 118.2544 75.4321 118.2544 Z M 96.3472 140.752 C 96.3311 140.7481 96.3145 140.7442 96.301796 140.7325 C 89.8155 134.5645 79.94879 131.9981 77.079094 131.3575 C 77.077095 131.3575 77.07469 131.3575 77.072296 131.3575 C 76.972694 131.3575 76.854 131.33409 76.73879 131.3106 C 76.62059 131.28719 76.50929 131.26569 76.40139 131.26569 C 76.06249 131.26569 75.67679 131.49228 75.38479 133.18169 L 75.26419 138.2891 C 75.264694 138.38089 75.26369 138.4746 75.26319 138.56839 C 75.254395 139.5801 75.24659 140.53319 76.495094 141.03719 C 82.1123 143.04109 86.81249 145.13098 91.2783 147.60359 C 92.9604 145.2734 94.7012 142.9063 96.3472 140.752 Z M 63.1719 111.8936 C 64.7134 113.7237 66.1856 113.877 67.4439 113.877 C 67.6797 113.877 67.9156 113.8707 68.1509 113.864296 C 68.3882 113.857994 68.6255 113.85159 68.8628 113.85159 C 69.4233 113.85159 69.8555 113.88819 70.2642 113.970695 C 79.8379 116.6245 88.3145 120.2305 96.176796 123.6963 C 97.437996 124.252495 98.073296 124.8418 97.9649 125.3555 C 97.868195 125.8145 97.209496 126.0992 96.2462 126.0992 C 95.6368 126.0992 94.9806 125.9825 94.3483 125.761795 C 93.3454 125.411194 92.742294 125.00739 92.0441 124.5396 C 90.955696 123.8101 89.6007 122.9024 86.0329 121.783295 C 85.8752 121.7335 85.725296 121.708595 85.5881 121.708595 C 84.915695 121.708595 84.574394 122.30039 84.2444 122.872696 L 84.156 123.0255 C 83.2854 124.4454 83.019295 124.6407 82.861595 124.6407 C 82.8089 124.6407 82.7615 124.6178 82.728294 124.5758 C 82.5955 124.407295 82.69309 123.9205 82.93089 122.926895 C 82.96849 122.771095 83.00459 122.6188 83.03639 122.47959 C 83.228294 121.823395 83.209694 121.30089 82.98609 121.002495 C 82.87229 120.85059 82.706795 120.7671 82.520294 120.7671 C 82.15849 120.7671 81.7224 121.0899 81.59059 121.707 C 81.31669 122.9736 80.361595 127.1069 79.57689 127.1069 C 79.52469 127.1069 79.44749 127.089806 79.37429 127.009705 C 78.91579 126.5053 79.071594 123.7646 79.28349 121.5546 C 79.35189 120.466705 79.159996 120.0883 79.03939 119.9604 C 78.98519 119.902306 78.92659 119.874 78.86069 119.874 C 78.55259 119.874 78.11799 120.4682 77.96129 121.3525 L 77.490585 126.497 C 77.32308 127.5551 77.281586 128.5248 78.58729 128.84421 C 82.77529 129.86711 86.78849 131.6562 90.66929 133.38861 L 91.24689 133.64452 C 92.33819 134.30661 94.69269 134.80272 96.584785 135.20111 C 98.452484 135.5937 99.51939 135.83002 99.73908 136.12102 C 99.74938 136.13472 99.75618 136.15031 99.75858 136.16792 L 99.78588 136.35152 C 101.57298 134.41402 103.44748 134.10931 106.06278 133.69131 C 106.58918 133.60732 107.13358 133.52141 107.72048 133.41402 C 110.64378 132.77342 110.94898 132.37302 110.944084 132.23042 C 110.93138 131.85742 109.06129 131.58002 108.35768 131.47452 C 108.12188 131.43932 107.93578 131.41202 107.83378 131.38861 C 106.65898 131.13081 105.87288 130.7812 104.96318 130.37592 C 104.17708 130.02582 103.28548 129.62932 101.96708 129.21971 C 100.42168 128.73972 100.31428 128.56541 100.33718 128.41551 C 100.36548 128.22751 100.65848 128.17331 101.64378 128.17331 C 101.79958 128.17331 101.95969 128.1748 102.117386 128.1757 C 102.27019 128.1772 102.420586 128.1781 102.56268 128.1781 C 102.83168 128.1781 103.161285 128.1742 103.32588 128.1429 L 108.89128 127.088196 C 112.07048 126.4861 113.68668 126.007095 113.69448 125.663895 C 113.70278 125.29279 111.75648 124.830894 109.695984 124.342094 C 107.18968 123.74739 104.07048 123.00759 101.17499 121.841095 C 97.503586 120.3621 94.299484 118.864494 91.20089 117.4163 C 82.84979 113.5135 75.63739 110.142395 63.79319 109.3675 C 62.33079 109.2742 61.36599 109.7259 60.975792 110.6585 C 60.90599 110.8255 60.86399 111.0071 60.835693 111.1946 C 61.12039 110.894806 61.811794 111.097404 63.145294 111.8709 C 63.1553 111.877 63.1646 111.8848 63.1719 111.8936 Z M 64.5117 125.7725 C 64.95261 125.9463 65.4018 126.1509 65.9233 126.5157 L 65.8056 117.9713 C 65.2143 117.215 64.6367 117.0968 64.0248 116.9718 C 63.881702 116.943 63.733303 116.9103 63.586304 116.871704 C 63.948105 117.87511 64.0258 118.9205 64.0995 120.057205 C 64.119 120.35361 64.1386 120.6563 64.164406 120.964905 C 64.2969 122.5679 64.4111 124.1719 64.5117 125.7725 Z M 65.0898 137.9551 L 65.659096 137.8281 L 65.8036 129.82419 L 64.7015 129.1865 C 64.856 132.1367 64.979 135.0645 65.0898 137.9551 Z M 59.8115 169.4531 C 59.9516 169.44139 60.0898 169.4375 60.224102 169.4336 C 61.179703 169.40239 62.0049 169.3731 62.768 167.2188 C 64.496 162.38289 65.7216 158.01959 66.5146 153.879 C 66.695305 152.9708 66.684006 152.4337 66.4794 152.1837 C 66.369 152.0489 66.1952 151.9903 65.939804 152.0099 L 65.3002 152.41031 C 64.6649 154.32831 63.984802 156.27551 63.3124 158.17401 L 59.8115 169.4531 Z M 56.4976 174.5996 C 56.9585 174.6875 57.417 174.707 57.9966 174.707 C 58.274902 174.707 58.5894 174.7011 58.957 174.6972 H 58.973602 C 58.898903 173.9433 59.042404 173.49411 59.169903 173.09761 C 59.2456 172.86131 59.317802 172.63861 59.333504 172.37102 L 57.103504 172.15031 C 56.6357 172.8359 56.4937 173.2734 56.4976 174.5996 Z M 52.7231 181.8496 C 53.8535 182.418 55.767498 182.7148 58.412598 182.7305 C 60.101097 182.9532 61.7749 182.9532 63.437996 182.7325 C 63.442394 182.7325 63.446796 182.7305 63.451195 182.7305 C 63.457497 182.7305 63.464394 182.7325 63.470695 182.7325 C 63.777294 182.793 64.099594 182.8106 64.440895 182.83209 C 65.28069 182.88089 66.148895 182.93369 66.773895 183.61919 C 67.35639 184.25978 67.91599 184.58398 68.437 184.58209 C 69.428696 184.58209 70.04929 183.3926 70.129395 182.27159 C 70.1729 181.67389 69.86379 181.3868 69.436 180.9923 C 69.2924 180.86139 69.1445 180.7247 68.99609 180.56259 C 68.386696 179.93959 67.563995 179.63489 66.48339 179.63489 C 66.06489 179.63489 65.61519 179.6798 65.108894 179.77159 C 64.05029 180.129 62.961895 180.31259 61.888695 180.31259 C 61.083996 180.31259 60.259796 180.20909 59.439995 180.006 L 55.2065 178.125 C 54.776302 177.9336 54.3227 177.8359 53.8569 177.834 C 52.5625 177.834 51.3774 178.5957 51.1469 179.5684 C 50.9468 180.4141 51.521 181.2461 52.7231 181.8496 Z M 69.4404 194.2363 C 69.5063 194.4297 69.6079 194.52539 69.728 194.5605 C 69.7383 194.5136 69.772896 194.4765 69.8218 194.4765 C 70.3379 194.4765 71.248604 193.2206 71.249 192.6542 C 71.249 192.6093 71.2422 192.5468 71.209404 192.5097 C 71.18301 192.4785 71.1371 192.4648 71.073204 192.4648 C 71.02341 192.4648 70.9868 192.4257 70.9775 192.37889 C 70.832 192.39648 70.6494 192.45119 70.3974 192.58398 C 69.9141 192.998 69.7109 193.5527 69.4404 194.2363 Z M 49.1611 186.5176 C 49.194298 187.6953 50.204597 188.9903 51.0923 188.9903 C 51.1817 188.9903 51.2681 188.9766 51.3496 188.9493 C 51.360302 188.94539 51.3711 188.94339 51.3823 188.94339 C 51.3833 188.94339 51.3843 188.94339 51.3847 188.94339 L 60.1684 189.17189 C 62.5952 189.53519 63.6445 190.36919 65.4628 192.18748 C 65.9984 192.72269 66.5092 192.99408 66.9818 192.99408 C 68.3055 192.99408 69.0345 190.88278 69.0384 189.79878 C 69.0433 188.49019 67.8865 187.88858 66.661896 187.25188 C 66.00169 186.90817 65.319595 186.55458 64.7859 186.07217 C 63.643295 184.72447 61.556896 184.10347 58.209198 184.10347 H 58.169197 C 56.721897 184.10547 55.239998 184.21677 53.807396 184.32417 C 53.121395 184.37688 52.472897 184.42577 51.853794 184.45897 C 49.4648 184.5938 49.1411 185.8066 49.1611 186.5176 Z M 68.5698 199.1426 C 68.467705 198.9551 68.2583 198.9121 68.1006 198.9121 L 68.0943 198.8105 V 198.9121 C 67.9713 198.9121 67.8394 198.9355 67.7012 198.98239 C 66.7285 199.31049 66.339905 199.7558 66.4785 200.3808 C 66.6431 200.9121 67.0122 201.2597 67.417 201.2597 C 67.6592 201.2597 67.8784 201.1269 68.0342 200.8847 C 68.7329 199.8008 68.6699 199.3281 68.5698 199.1426 Z M 48.4639 193.9453 C 48.586903 194.83789 49.3819 195.7363 50.879402 195.7363 H 50.909702 C 50.910202 195.7363 50.9107 195.7363 50.9107 195.7363 C 50.9112 195.7363 50.9117 195.7363 50.9117 195.7363 C 50.9654 195.7363 56.2891 195.8027 58.792603 196.5625 C 60.358 197.0371 63.033802 198.7617 63.259403 198.9082 C 63.987904 199.1387 64.75011 198.8242 65.357506 198.0527 C 65.9781 197.26561 66.32191 196.1425 66.164604 195.4238 L 64.66701 193.91989 C 64.307106 193.69139 63.951706 193.4316 63.607906 193.17769 C 62.521008 192.37889 61.397007 191.55069 59.448708 191.24998 C 58.021507 191.08789 56.72701 191.00978 55.49611 191.00978 H 55.414608 C 53.54641 191.01569 51.85161 191.20898 50.23301 191.59958 C 48.8423 191.9922 48.3413 193.0605 48.4639 193.9453 Z M 50.2969 202.7676 L 52.2915 202.18169 C 52.3018 202.17778 52.312 202.17389 52.3232 202.17578 L 56.8901 202.29878 C 58.4091 202.07219 58.9629 201.07608 58.968697 200.22069 C 58.9755 199.20699 58.222595 198.0586 56.770496 197.81639 C 55.946796 197.91989 55.0254 197.9473 54.134796 197.97269 C 52.075195 198.03319 49.945297 198.09378 49.088898 199.13478 C 48.213898 200.20119 47.8985 201.34569 48.266098 202.12308 C 48.5771 202.7813 49.3462 203.0293 50.2969 202.7676 Z M 62.8965 208.1875 C 63.2105 207.5176 63.535698 206.8242 63.8823 206.0469 C 64.1426 205.2969 64.0654 204.625 63.9536 203.92781 H 63.9531 C 63.6479 203.56651 63.3481 203.39072 63.037098 203.39072 C 62.613297 203.39072 62.186996 203.71101 61.736298 204.04892 C 61.208496 204.44542 60.6103 204.89462 59.9004 204.89462 C 59.560097 204.89462 59.227097 204.79692 58.882797 204.59192 C 57.645496 204.17001 56.4824 203.95132 55.444798 203.95132 C 52.876396 203.95132 50.968697 205.26183 49.5478 207.98842 L 44.177696 226.77753 C 44.1494 226.875 44.0845 226.9492 44.0044 227.0 C 44.477097 227.418 44.975597 227.8516 45.4741 228.2832 L 50.9721 209.3457 C 51.4682 207.6777 52.3124 206.59961 53.1235 206.59961 C 53.4082 206.59961 53.6577 206.73631 53.8457 206.99411 C 54.329098 207.65431 54.319298 208.9882 53.819298 210.5644 L 47.6909 230.16211 C 48.4463 230.79102 49.2202 231.41411 50.0151 232.03911 L 56.966797 210.8809 C 57.803696 208.8262 58.6826 207.6036 59.320297 207.6036 C 59.479996 207.6036 59.6186 207.67981 59.7217 207.8224 C 60.1392 208.4044 59.9727 210.0275 59.286198 212.05681 L 52.092796 233.6271 C 52.830097 234.17201 53.570297 234.71501 54.329597 235.2306 L 59.220695 222.23651 C 59.307594 221.82242 59.398396 221.51971 59.473595 221.27751 C 59.585396 220.91621 59.660095 220.67401 59.644493 220.3088 C 59.31589 219.99431 59.224094 219.3264 59.246593 218.8381 C 59.270992 218.3029 59.420395 217.89081 59.646492 217.7346 C 60.06689 217.49051 60.09859 217.11351 60.13919 216.63501 C 60.14799 216.52951 60.15729 216.4241 60.17049 216.31471 C 60.7256 212.8223 61.6836 210.7773 62.8965 208.1875 Z M 125.5269 259.5547 C 124.4029 257.3692 122.9756 255.5606 121.590904 253.81248 C 120.94881 253.00198 120.284706 252.16408 119.66711 251.30658 L 114.99031 246.75388 C 113.28521 245.09958 111.53381 243.42378 109.84041 241.80467 C 103.87411 236.09567 97.70511 230.19138 92.372604 224.13867 L 83.528404 215.00388 C 83.23881 214.70308 82.69881 214.91988 82.3541 215.45117 C 82.152405 215.76367 81.5602 216.92776 82.4068 218.81247 C 82.8404 219.77727 83.3384 220.10738 84.4302 220.83006 C 84.8067 221.08006 85.2754 221.39056 85.8301 221.78906 C 87.0493 222.44336 87.6118 223.02147 87.4907 223.50197 C 87.373 223.96877 86.583496 224.24806 85.3779 224.24806 C 83.9824 224.24806 82.041 223.84766 80.8486 222.95316 C 78.3354 220.98445 78.957504 219.33795 79.5595 217.74615 C 79.853004 216.96886 80.1567 216.16606 80.1 215.32236 C 80.2343 214.12706 80.0824 213.29695 79.6366 212.76576 C 79.01009 212.01967 77.846596 211.94936 76.721596 211.88097 C 75.973595 211.83406 75.20059 211.78726 74.570694 211.54506 C 70.7186 210.33215 70.4135 207.34586 70.168396 204.94547 L 70.142494 204.69347 C 70.138596 203.99617 69.7812 203.64467 69.05119 203.54506 C 68.820694 203.56456 68.54189 203.59976 68.31729 203.88297 C 66.37349 206.86737 63.51509 212.38097 62.039993 216.73067 C 63.042393 218.07047 63.103493 219.49437 63.13769 220.65446 C 63.14059 220.65837 63.143993 220.66037 63.14699 220.66226 C 63.507793 220.97086 63.82959 221.27167 64.14109 221.56267 C 65.47799 222.81467 66.53469 223.80287 69.17039 223.80287 C 69.46139 223.80287 69.772484 223.78917 70.09469 223.76578 L 70.37159 223.74428 C 71.21139 223.67978 71.81839 223.63487 72.30809 223.63487 C 72.65379 223.63487 72.94039 223.66028 73.20749 223.71497 C 73.21969 223.70517 73.21869 223.68376 73.23529 223.67976 C 73.495094 223.60947 74.09079 223.23247 74.87009 222.64267 C 74.95649 222.57626 75.07909 222.54308 75.23479 222.54308 C 75.750885 222.54308 76.62099 222.92787 76.80459 223.32237 C 76.862686 223.44737 76.84899 223.57037 76.76649 223.66808 C 76.22159 224.31458 76.181984 225.08998 76.16739 225.38287 C 76.16739 225.38287 76.166885 225.38287 76.166885 225.38487 L 76.23089 225.42787 C 85.614685 232.17787 92.99359 238.13687 100.80559 244.44547 C 106.58778 249.11537 112.56589 253.94156 119.522385 259.20135 C 121.6113 259.3594 123.6025 259.4746 125.5269 259.5547 Z M 176.9268 250.8516 C 161.84381 236.48439 147.0821 231.68169 135.2178 227.8243 C 129.54451 225.97859 124.64461 224.3868 120.5742 222.06839 C 118.1753 220.70319 115.7612 219.4493 113.426704 218.23639 C 105.4296 214.08209 97.875404 210.1583 93.47211 202.96098 C 92.16991 200.83208 92.06591 198.99028 91.974106 197.36528 C 91.88331 195.75787 91.797806 194.24028 90.591805 192.59187 C 88.2524 189.39267 87.60641 186.81458 86.9819 184.32037 C 86.62891 182.91017 86.2954 181.58017 85.662605 180.22267 C 84.3662 177.44147 82.517105 175.21097 80.1675 173.59377 L 79.73151 173.28717 C 79.206604 172.91808 78.58011 172.48058 77.82181 172.03717 C 77.64061 172.83408 77.506905 173.65826 77.435104 174.52547 L 77.425804 174.63487 L 60.836906 172.09187 C 61.174805 172.88097 61.328106 173.98447 60.778305 174.75008 L 60.679207 174.89067 C 60.25781 175.49026 59.859905 176.05667 58.453106 176.05667 C 58.208008 176.05667 57.933605 176.03908 57.636707 176.00397 C 57.38521 176.36337 57.297306 176.61726 57.369106 176.77737 C 59.041508 177.49617 60.466805 177.83208 61.852505 177.83208 C 63.516605 177.83008 65.26021 177.35548 67.682106 176.24228 C 68.4184 175.86928 68.986305 175.68758 69.41401 175.68758 C 69.95701 175.68758 70.277306 175.99228 70.339806 176.57237 C 70.4184 177.35757 70.49171 177.72867 70.95801 178.51578 L 71.01221 178.60368 C 72.069305 180.34198 72.069305 180.34198 75.42631 180.42989 L 76.16701 180.44939 C 77.46971 180.53339 77.764206 180.68959 77.807106 180.89859 C 77.864204 181.17589 77.415504 181.41809 76.550804 181.8595 C 75.6304 182.3302 74.484406 182.91609 74.3701 183.547 C 73.915504 187.5802 73.4253 190.4044 73.0307 192.6759 C 72.229904 197.2872 71.8276 199.6036 72.9189 205.17981 C 74.0605 207.51772 74.83 208.8419 77.3076 208.89272 C 77.4458 208.90442 77.5718 208.90831 77.6933 208.90831 C 78.1743 208.90831 78.5781 208.8321 78.9687 208.7599 C 79.296295 208.6974 79.605896 208.63881 79.91499 208.63881 C 80.78369 208.63881 81.502396 209.13101 82.39549 210.3361 C 84.30419 212.9826 85.89499 214.7814 87.88619 216.5529 L 87.96379 216.6369 C 88.18839 216.8889 88.51699 217.2541 88.65619 217.3303 C 88.65769 217.23071 88.60099 216.9104 88.19529 215.9084 L 88.01269 215.5041 C 87.44339 214.23851 86.854485 212.9279 85.45309 211.09001 C 84.31828 209.24042 84.66449 207.97672 85.065384 206.51192 C 85.261185 205.80101 85.70458 205.14862 86.17329 204.45921 C 86.92329 203.35762 87.698685 202.21701 87.62639 200.64471 C 87.57119 199.43962 87.85149 198.39272 88.37639 197.84392 C 88.75479 197.44742 89.22019 197.41812 89.53559 197.76582 C 89.93699 198.20923 90.08539 199.17792 89.954094 200.49632 C 89.822296 201.82253 89.2671 203.05882 88.729996 204.25412 C 87.9043 206.09392 87.12399 207.83032 87.7876 209.83612 C 88.1123 210.78532 88.512695 211.68182 88.899895 212.54703 C 89.7334 214.40833 90.59519 216.33612 90.77689 218.96303 C 90.8082 219.06073 90.81889 219.13683 90.82959 219.21303 C 90.86519 219.46893 90.90239 219.73253 91.90769 220.90443 C 97.92629 228.08414 104.55269 234.94153 110.961395 241.57243 C 114.064896 244.78334 117.273895 248.10373 120.3735 251.42014 C 120.98679 252.03923 121.6103 252.65643 122.2373 253.27563 C 124.2261 255.24043 126.282196 257.27362 128.1787 259.64084 C 129.272 259.66623 130.35109 259.68182 131.4092 259.68182 C 135.10449 259.68182 138.73149 259.5197 142.3203 259.20334 C 131.0957 251.78925 123.274895 245.74043 116.9805 239.60963 C 107.7046 230.57443 107.8189 230.29323 107.886795 230.12523 C 107.9078 230.07443 107.9566 230.04323 108.01769 230.04323 C 108.44349 230.04323 111.23209 232.29913 116.12509 236.28732 C 118.76819 238.44162 121.50109 240.66823 123.73249 242.39862 C 130.6095 247.67592 137.3819 252.44353 148.07529 258.55093 C 157.6885 257.2188 167.127 254.6914 176.9268 250.8516 Z"/>
<linearGradient id="glaze" x1="0%" y1="0%" x2="100%" y2="100%">
<stop offset="0%" stop-color="rgb(255,255,255)" stop-opacity="0.2"/>
<stop offset="49.999%" stop-color="rgb(255,255,255)" stop-opacity="0.0"/>
<stop offset="50.001%" stop-color="rgb(0,0,0)" stop-opacity="0.0"/>
<stop offset="100%" stop-color="rgb(0,0,0)" stop-opacity="0.2"/>
</linearGradient>
</defs>
<g>
<rect x="0" y="0" width="540" height="360" class="green"/>
<use xlink:href="#disc" transform="translate(176.4 86.4) scale(0.72 0.72) rotate(0)" class="yellow"/>
<use xlink:href="#fire" transform="translate(176.4 86.4) scale(0.72 0.72) rotate(0)" class="red"/>
<use xlink:href="#thf" transform="translate(176.4 86.4) scale(0.72 0.72) rotate(0)" class="brown"/>
<use xlink:href="#ths" transform="translate(176.4 86.4) scale(0.72 0.72) rotate(0)" class="black"/>
</g>
<g>
<rect x="0" y="0" width="540" height="360" fill="url(#glaze)"/>
<path d="M 30 30 L 510 30 L 510 330 L 30 330 Z M 60 60 L 60 300 L 480 300 L 480 60 Z" fill="rgb(255,255,255)" opacity="0.4"/>
<path d="M 0 0 L 540 0 L 540 360 L 0 360 Z M 30 30 L 30 330 L 510 330 L 510 30 Z" fill="rgb(0,0,0)" opacity="0.4"/>
</g>
</svg>
