<?xml version="1.0"?>
<svg xmlns="http://www.w3.org/2000/svg" xmlns:xlink="http://www.w3.org/1999/xlink" version="1.1" width="480" height="360" viewBox="0 0 480 360">
<!-- Generated by Kreative Vexillo v1.0 -->
<style>
.orange{fill:rgb(254,101,0);}
.white{fill:rgb(255,255,255);}
</style>
<defs>
<path id="bowl" d="M 0.259 0.6361 L -0.2606 0.6361 L -0.2606 0.6552 C -0.2606 0.6552 -0.2364 0.7417 0.0037 0.7387 C 0.2488 0.7356 0.259 0.6542 0.259 0.6542 Z"/>
<path id="lhand" d="M -0.0051 0.9022 C -0.0131 0.8658 -0.0295 0.8071 -0.029 0.7931 C -0.043 0.7785 -0.049 0.7796 -0.0582 0.7745 C -0.0582 0.7745 -0.1754 0.7694 -0.1809 0.7642 C -0.2228 0.7249 -0.2539 0.6813 -0.2916 0.6446 C -0.2916 0.6446 -0.304 0.6489 -0.3041 0.6552 C -0.3043 0.6615 -0.2923 0.6697 -0.2923 0.6697 C -0.2973 0.6818 -0.2865 0.6961 -0.273 0.7109 C -0.273 0.7109 -0.2571 0.7519 -0.2465 0.7639 C -0.2161 0.7984 -0.1405 0.8497 -0.1192 0.8806 L -0.1165 0.9019 Z"/>
<path id="peak" d="M -0.2613 0.6176 L -0.1874 0.6162 L 0.0 0.2266 L 0.1866 0.6162 L 0.2606 0.6176 L 0.0 0.0859 Z"/>
<path id="rhand" d="M 0.0046 0.9022 C 0.0126 0.8658 0.0289 0.8071 0.0285 0.7931 C 0.0425 0.7785 0.0485 0.7796 0.0577 0.7745 C 0.0577 0.7745 0.1749 0.7694 0.1804 0.7642 C 0.2223 0.7249 0.2534 0.6813 0.2911 0.6446 C 0.2911 0.6446 0.3035 0.6489 0.3036 0.6552 C 0.3038 0.6615 0.2917 0.6697 0.2917 0.6697 C 0.2968 0.6818 0.286 0.6961 0.2725 0.7109 C 0.2725 0.7109 0.2566 0.7519 0.246 0.7639 C 0.2156 0.7984 0.14 0.8497 0.1187 0.8806 L 0.116 0.9019 Z"/>
<path id="xbar" d="M -0.1181 0.3843 H 0.122600004 V 0.4491 H -0.1181 Z"/>
<linearGradient id="glaze" x1="0%" y1="0%" x2="100%" y2="100%">
<stop offset="0%" stop-color="rgb(255,255,255)" stop-opacity="0.2"/>
<stop offset="49.999%" stop-color="rgb(255,255,255)" stop-opacity="0.0"/>
<stop offset="50.001%" stop-color="rgb(0,0,0)" stop-opacity="0.0"/>
<stop offset="100%" stop-color="rgb(0,0,0)" stop-opacity="0.2"/>
</linearGradient>
</defs>
<g>
<rect x="0" y="0" width="480" height="360" class="orange"/>
<use xlink:href="#lhand" transform="translate(140 0) scale(360 360) rotate(0)" class="white"/>
<use xlink:href="#rhand" transform="translate(140 0) scale(360 360) rotate(0)" class="white"/>
<use xlink:href="#bowl" transform="translate(140 0) scale(360 360) rotate(0)" class="white"/>
<use xlink:href="#peak" transform="translate(140 0) scale(360 360) rotate(0)" class="white"/>
<use xlink:href="#xbar" transform="translate(140 0) scale(360 360) rotate(0)" class="white"/>
</g>
<g>
<rect x="0" y="0" width="480" height="360" fill="url(#glaze)"/>
<path d="M 30 30 L 450 30 L 450 330 L 30 330 Z M 60 60 L 60 300 L 420 300 L 420 60 Z" fill="rgb(255,255,255)" opacity="0.4"/>
<path d="M 0 0 L 480 0 L 480 360 L 0 360 Z M 30 30 L 30 330 L 450 330 L 450 30 Z" fill="rgb(0,0,0)" opacity="0.4"/>
</g>
</svg>
