<?xml version="1.0"?>
<svg xmlns="http://www.w3.org/2000/svg" xmlns:xlink="http://www.w3.org/1999/xlink" version="1.1" width="480" height="360" viewBox="0 0 480 360">
<!-- Generated by Kreative Vexillo v1.0 -->
<style>
.blue{fill:rgb(0,56,101);}
.red{fill:rgb(186,12,47);}
.white{fill:rgb(255,255,255);}
.yellow{fill:rgb(255,164,0);}
</style>
<defs>
<clipPath id="clip0">
<path d="M 207.8461 15 L 464.4444 15 L 207.8461 145.359 Z"/>
</clipPath>
<clipPath id="clip1">
<path d="M 207.8461 345 L 464.4444 345 L 207.8461 214.641 Z"/>
</clipPath>
<clipPath id="clip2">
<path d="M 207.8461 164.604 L 395.5556 164.604 L 440 180 L 395.5556 195.396 L 207.8461 195.396 L 225.6239 180 Z"/>
</clipPath>
<linearGradient id="glaze" x1="0%" y1="0%" x2="100%" y2="100%">
<stop offset="0%" stop-color="rgb(255,255,255)" stop-opacity="0.2"/>
<stop offset="49.999%" stop-color="rgb(255,255,255)" stop-opacity="0.0"/>
<stop offset="50.001%" stop-color="rgb(0,0,0)" stop-opacity="0.0"/>
<stop offset="100%" stop-color="rgb(0,0,0)" stop-opacity="0.2"/>
</linearGradient>
</defs>
<g>
<rect x="0" y="0" width="480" height="360" class="white"/>
<rect x="17.7778" y="15" width="167.8461" height="330" class="blue"/>
<path d="M 8.7287 -10.0791 L 8.7287 -10.0791 L 216.5748 169.9209 L 199.1174 190.0791 L -8.7287 10.0791 Z" class="white"/>
<path d="M -8.7287 349.9209 L -8.7287 349.9209 L 199.1174 169.9209 L 216.5748 190.0791 L 8.7287 370.0791 Z" class="white"/>
<path d="M 0 166.6667 L 0 166.6667 L 207.8461 166.6667 L 207.8461 193.3333 L 0 193.3333 Z" class="white"/>
<g clip-path="url(#clip0)">
<path d="M 207.8461 0 L 207.8461 0 L 464.4444 0 L 464.4444 30 L 207.8461 30 Z" class="red"/>
<path d="M 471.2384 28.3732 L 471.2384 28.3732 L 214.64 158.7322 L 201.0521 131.9858 L 457.6505 1.6268 Z" class="red"/>
<path d="M 192.8461 145.359 L 192.8461 145.359 L 192.8461 15 L 222.8461 15 L 222.8461 145.359 Z" class="red"/>
</g>
<g clip-path="url(#clip1)">
<path d="M 207.8461 330 L 207.8461 330 L 464.4444 330 L 464.4444 360 L 207.8461 360 Z" class="red"/>
<path d="M 457.6505 358.3732 L 457.6505 358.3732 L 201.0521 228.0142 L 214.64 201.2678 L 471.2384 331.6268 Z" class="red"/>
<path d="M 222.8461 214.641 L 222.8461 214.641 L 222.8461 345 L 192.8461 345 L 192.8461 214.641 Z" class="red"/>
</g>
<path d="M 207.8461 164.604 L 395.5556 164.604 L 440 180 L 395.5556 195.396 L 207.8461 195.396 L 225.6239 180 Z" class="yellow"/>
<g clip-path="url(#clip2)">
<path d="M 207.8461 157.9373 L 207.8461 157.9373 L 395.5556 157.9373 L 395.5556 171.2707 L 207.8461 171.2707 Z" class="red"/>
<path d="M 397.7377 158.3046 L 397.7377 158.3046 L 442.1822 173.7006 L 437.8178 186.2994 L 393.3734 170.9034 Z" class="red"/>
<path d="M 442.1822 186.2994 L 442.1822 186.2994 L 397.7377 201.6954 L 393.3734 189.0966 L 437.8178 173.7006 Z" class="red"/>
<path d="M 395.5556 202.0627 L 395.5556 202.0627 L 207.8461 202.0627 L 207.8461 188.7293 L 395.5556 188.7293 Z" class="red"/>
<path d="M 207.8461 164.604 L 218.0296 164.604 L 235.8074 180 L 218.0296 195.396 L 207.8461 195.396 Z" class="red"/>
</g>
</g>
<g>
<rect x="0" y="0" width="480" height="360" fill="url(#glaze)"/>
<path d="M 30 30 L 450 30 L 450 330 L 30 330 Z M 60 60 L 60 300 L 420 300 L 420 60 Z" fill="rgb(255,255,255)" opacity="0.4"/>
<path d="M 0 0 L 480 0 L 480 360 L 0 360 Z M 30 30 L 30 330 L 450 330 L 450 30 Z" fill="rgb(0,0,0)" opacity="0.4"/>
</g>
</svg>
