<?xml version="1.0"?>
<svg xmlns="http://www.w3.org/2000/svg" xmlns:xlink="http://www.w3.org/1999/xlink" version="1.1" width="480" height="360" viewBox="0 0 480 360">
<!-- Generated by Kreative Vexillo v1.0 -->
<style>
.black{fill:rgb(0,0,0);}
.red{fill:rgb(232,66,63);}
.white{fill:rgb(255,255,255);}
</style>
<defs>
<path id="e1" d="M 0.0916 -0.2066 H -0.039499998 L -0.0374 -0.2153 C -0.013599999 -0.3175 -0.0288 -0.36339998 -0.0458 -0.384 C -0.059 -0.4 -0.0753 -0.4027 -0.0861 -0.4023 C -0.1039 -0.4017 -0.116 -0.396 -0.122899994 -0.385 C -0.11919999 -0.38549998 -0.11529999 -0.3858 -0.11129999 -0.3858 C -0.10389999 -0.3858 -0.09279999 -0.38480002 -0.08199999 -0.38 C -0.06679998 -0.3733 -0.048699986 -0.3577 -0.048699986 -0.32209998 C -0.048699986 -0.301 -0.055099986 -0.28419998 -0.06759998 -0.27199998 C -0.08589998 -0.25419998 -0.11189999 -0.25149998 -0.12569998 -0.25149998 C -0.12569998 -0.25149998 -0.12569998 -0.25149998 -0.12569998 -0.25149998 C -0.12669998 -0.25149998 -0.12759998 -0.25149998 -0.12839998 -0.25149998 C -0.19139999 -0.25309998 -0.21369998 -0.30949998 -0.21369998 -0.35729998 C -0.21369998 -0.3586 -0.21199998 -0.48799998 -0.068999976 -0.48799998 C -0.052799977 -0.48799998 -0.010999978 -0.48399997 0.025900021 -0.44669998 C 0.07120002 -0.40089998 0.09330002 -0.3225 0.09180002 -0.21349998 L 0.0916 -0.2066 Z M 0.1131 -0.1721 H -0.0594 V -0.2042 H 0.1131 V -0.1721 Z M 0.1466 -0.137 H -0.092800006 V -0.16909999 H 0.1466 V -0.137 Z M 0.1131 -0.102 H -0.0594 V -0.13409999 H 0.1131 V -0.102 Z M 0.0268 0.4901 L -0.032500003 0.2971 L -0.108500004 0.38880002 L -0.050500005 -0.09829998 H 0.1038 L 0.16229999 0.3887 L 0.08579999 0.2976 L 0.0268 0.4901 Z"/>
<path id="e2" d="M -0.0863 -0.409 C -0.1097 -0.4082 -0.1251 -0.39900002 -0.132 -0.38160002 L -0.1345 -0.37540004 L -0.12799999 -0.37710005 C -0.12309999 -0.37840006 -0.11719999 -0.37910005 -0.11119999 -0.37910005 C -0.10449999 -0.37910005 -0.09439999 -0.37820005 -0.08459999 -0.37390006 C -0.07119998 -0.36800006 -0.055299986 -0.35420007 -0.055299986 -0.32210004 C -0.055299986 -0.30290005 -0.060999986 -0.28770006 -0.07209998 -0.27680004 C -0.08869998 -0.26060003 -0.112699986 -0.25820005 -0.12549998 -0.25820005 C -0.12639998 -0.25820005 -0.12729998 -0.25820005 -0.12799998 -0.25820005 C -0.18619998 -0.25970006 -0.20679998 -0.31250006 -0.20679998 -0.35730004 C -0.20679998 -0.35850003 -0.20469998 -0.48130006 -0.06879999 -0.48130006 C -0.053399988 -0.48130006 -0.013799988 -0.47750005 0.02130001 -0.44200006 C 0.065200016 -0.39760005 0.08670001 -0.32070005 0.08520001 -0.21360005 L 0.08520001 -0.21320005 H -0.030799985 L -0.030699985 -0.21370004 C -0.0062999856 -0.31850004 -0.022499986 -0.36640006 -0.040399984 -0.38820004 C -0.0556 -0.4064 -0.0741 -0.4094 -0.0863 -0.409 Z M -0.0527 -0.1975 V -0.1788 H 0.1064 V -0.1975 H -0.0527 Z M -0.0861 -0.1624 V -0.1437 H 0.1399 V -0.1624 H -0.0861 Z M -0.0527 -0.1274 V -0.10869999 H 0.1064 V -0.1274 H -0.0527 Z M 0.1529 0.3671 L 0.0978 -0.0916 H -0.044599995 L -0.099199995 0.367 L -0.029699996 0.2833 L 0.026900005 0.4673 L 0.0829 0.2839 L 0.1529 0.3671 Z"/>
<path id="e4" d="M 0.0 -0.5 H 1.0 V 0.5 H 0.0 Z"/>
<path id="e5" d="M 0.5 0.0 V 1.0 H -0.5 V 0.0 Z"/>
<linearGradient id="glaze" x1="0%" y1="0%" x2="100%" y2="100%">
<stop offset="0%" stop-color="rgb(255,255,255)" stop-opacity="0.2"/>
<stop offset="49.999%" stop-color="rgb(255,255,255)" stop-opacity="0.0"/>
<stop offset="50.001%" stop-color="rgb(0,0,0)" stop-opacity="0.0"/>
<stop offset="100%" stop-color="rgb(0,0,0)" stop-opacity="0.2"/>
</linearGradient>
</defs>
<g>
<rect x="0" y="0" width="480" height="360" class="white"/>
<use xlink:href="#e1" transform="translate(120 180) scale(360 360) rotate(0)" class="black"/>
<use xlink:href="#e2" transform="translate(120 180) scale(360 360) rotate(0)" class="red"/>
<g>
<rect x="240" y="0" width="240" height="51.4286" class="red"/>
<rect x="240" y="51.4286" width="240" height="51.4286" class="white"/>
<rect x="240" y="102.8571" width="240" height="51.4286" class="red"/>
<rect x="240" y="154.2857" width="240" height="51.4286" class="white"/>
<rect x="240" y="205.7143" width="240" height="51.4286" class="red"/>
<rect x="240" y="257.1429" width="240" height="51.4286" class="white"/>
<rect x="240" y="308.5714" width="240" height="51.4286" class="red"/>
</g>
<g>
<use xlink:href="#e4" transform="translate(240 50.5671) scale(240 2.412) rotate(0)" class="black"/>
<use xlink:href="#e4" transform="translate(240 102.3403) scale(240 2.412) rotate(0)" class="black"/>
<use xlink:href="#e4" transform="translate(240 154.1134) scale(240 2.412) rotate(0)" class="black"/>
<use xlink:href="#e4" transform="translate(240 205.8866) scale(240 2.412) rotate(0)" class="black"/>
<use xlink:href="#e4" transform="translate(240 257.6597) scale(240 2.412) rotate(0)" class="black"/>
<use xlink:href="#e4" transform="translate(240 309.4329) scale(240 2.412) rotate(0)" class="black"/>
</g>
<use xlink:href="#e5" transform="translate(240 0) scale(2.412 360) rotate(0)" class="black"/>
</g>
<g>
<rect x="0" y="0" width="480" height="360" fill="url(#glaze)"/>
<path d="M 30 30 L 450 30 L 450 330 L 30 330 Z M 60 60 L 60 300 L 420 300 L 420 60 Z" fill="rgb(255,255,255)" opacity="0.4"/>
<path d="M 0 0 L 480 0 L 480 360 L 0 360 Z M 30 30 L 30 330 L 450 330 L 450 30 Z" fill="rgb(0,0,0)" opacity="0.4"/>
</g>
</svg>
