<?xml version="1.0"?>
<svg xmlns="http://www.w3.org/2000/svg" xmlns:xlink="http://www.w3.org/1999/xlink" version="1.1" width="480" height="360" viewBox="0 0 480 360">
<!-- Generated by Kreative Vexillo v1.0 -->
<style>
.blue{fill:rgb(0,62,126);}
.red{fill:rgb(239,65,53);}
.white{fill:rgb(255,255,255);}
</style>
<defs>
<path id="star" d="M 0.0 -1.0 L 0.2245 -0.309 L 0.9511 -0.309 L 0.3633 0.118 L 0.5878 0.809 L 0.0 0.382 L -0.5878 0.809 L -0.3633 0.118 L -0.9511 -0.309 L -0.2245 -0.309 Z"/>
<clipPath id="clip0">
<path d="M 0 0 L 0 15 L 0 15 L 100 90 L 0 165 L 0 165 L 0 180 L 20 180 L 120 105 L 120 105 L 220 180 L 240 180 L 240 165 L 140 90 L 240 15 L 240 0 L 220 0 L 120 75 L 120 75 L 120 75 L 120 75 L 120 75 L 120 75 L 20 0 Z"/>
</clipPath>
<linearGradient id="glaze" x1="0%" y1="0%" x2="100%" y2="100%">
<stop offset="0%" stop-color="rgb(255,255,255)" stop-opacity="0.2"/>
<stop offset="49.999%" stop-color="rgb(255,255,255)" stop-opacity="0.0"/>
<stop offset="50.001%" stop-color="rgb(0,0,0)" stop-opacity="0.0"/>
<stop offset="100%" stop-color="rgb(0,0,0)" stop-opacity="0.2"/>
</linearGradient>
</defs>
<g>
<rect x="0" y="0" width="480" height="360" class="blue"/>
<g>
<path d="M 0 0 L 0 22.5 L 0 22.5 L 90 90 L 0 157.5 L 0 157.5 L 0 180 L 30 180 L 120 112.5 L 120 112.5 L 210 180 L 240 180 L 240 157.5 L 150 90 L 240 22.5 L 240 0 L 210 0 L 120 67.5 L 120 67.5 L 30 0 Z" class="white"/>
<g clip-path="url(#clip0)">
<path d="M 0 0 L 120 90 L 0 90 Z" class="red"/>
<path d="M 240 0 L 120 90 L 120 0 Z" class="red"/>
<path d="M 0 180 L 120 90 L 120 180 Z" class="red"/>
<path d="M 240 180 L 120 90 L 240 90 Z" class="red"/>
</g>
<g>
<rect x="0" y="60" width="240" height="60" class="white"/>
<rect x="90" y="0" width="60" height="180" class="white"/>
</g>
<g>
<rect x="0" y="72" width="240" height="36" class="red"/>
<rect x="102" y="0" width="36" height="180" class="red"/>
</g>
</g>
<g>
<use xlink:href="#star" transform="translate(360 98.4) scale(18 18) rotate(0)" class="white"/>
<use xlink:href="#star" transform="translate(393.1897 105.4547) scale(18 18) rotate(24)" class="white"/>
<use xlink:href="#star" transform="translate(420.6406 125.3989) scale(18 18) rotate(48)" class="white"/>
<use xlink:href="#star" transform="translate(437.6062 154.7842) scale(18 18) rotate(72)" class="white"/>
<use xlink:href="#star" transform="translate(441.153 188.5295) scale(18 18) rotate(96)" class="white"/>
<use xlink:href="#star" transform="translate(430.6677 220.8) scale(18 18) rotate(120)" class="white"/>
<use xlink:href="#star" transform="translate(407.9633 246.0158) scale(18 18) rotate(144)" class="white"/>
<use xlink:href="#star" transform="translate(376.9656 259.8168) scale(18 18) rotate(168)" class="white"/>
<use xlink:href="#star" transform="translate(343.0344 259.8168) scale(18 18) rotate(192)" class="white"/>
<use xlink:href="#star" transform="translate(312.0367 246.0158) scale(18 18) rotate(216)" class="white"/>
<use xlink:href="#star" transform="translate(289.3323 220.8) scale(18 18) rotate(240)" class="white"/>
<use xlink:href="#star" transform="translate(278.847 188.5295) scale(18 18) rotate(264)" class="white"/>
<use xlink:href="#star" transform="translate(282.3938 154.7842) scale(18 18) rotate(288)" class="white"/>
<use xlink:href="#star" transform="translate(299.3594 125.3989) scale(18 18) rotate(312)" class="white"/>
<use xlink:href="#star" transform="translate(326.8103 105.4547) scale(18 18) rotate(336)" class="white"/>
</g>
</g>
<g>
<rect x="0" y="0" width="480" height="360" fill="url(#glaze)"/>
<path d="M 30 30 L 450 30 L 450 330 L 30 330 Z M 60 60 L 60 300 L 420 300 L 420 60 Z" fill="rgb(255,255,255)" opacity="0.4"/>
<path d="M 0 0 L 480 0 L 480 360 L 0 360 Z M 30 30 L 30 330 L 450 330 L 450 30 Z" fill="rgb(0,0,0)" opacity="0.4"/>
</g>
</svg>
