<?xml version="1.0"?>
<svg xmlns="http://www.w3.org/2000/svg" xmlns:xlink="http://www.w3.org/1999/xlink" version="1.1" width="480" height="360" viewBox="0 0 480 360">
<!-- Generated by Kreative Vexillo v1.0 -->
<style>
.black{fill:rgb(0,0,0);}
.green{fill:rgb(0,169,79);}
.yellow{fill:rgb(255,221,0);}
</style>
<defs>
<linearGradient id="glaze" x1="0%" y1="0%" x2="100%" y2="100%">
<stop offset="0%" stop-color="rgb(255,255,255)" stop-opacity="0.2"/>
<stop offset="49.999%" stop-color="rgb(255,255,255)" stop-opacity="0.0"/>
<stop offset="50.001%" stop-color="rgb(0,0,0)" stop-opacity="0.0"/>
<stop offset="100%" stop-color="rgb(0,0,0)" stop-opacity="0.2"/>
</linearGradient>
</defs>
<g>
<rect x="0" y="0" width="480" height="360" class="green"/>
<path d="M 0 0 L 240 180 L 0 360 Z" class="black"/>
<path d="M 480 0 L 240 180 L 480 360 Z" class="black"/>
<path d="M 0 0 L 0 37.5 L 0 37.5 L 190 180 L 190 180 L 0 322.5 L 0 322.5 L 0 360 L 50 360 L 240 217.5 L 240 217.5 L 430 360 L 480 360 L 480 322.5 L 290 180 L 480 37.5 L 480 0 L 430 0 L 240 142.5 L 240 142.5 L 50 0 Z" class="yellow"/>
</g>
<g>
<rect x="0" y="0" width="480" height="360" fill="url(#glaze)"/>
<path d="M 30 30 L 450 30 L 450 330 L 30 330 Z M 60 60 L 60 300 L 420 300 L 420 60 Z" fill="rgb(255,255,255)" opacity="0.4"/>
<path d="M 0 0 L 480 0 L 480 360 L 0 360 Z M 30 30 L 30 330 L 450 330 L 450 30 Z" fill="rgb(0,0,0)" opacity="0.4"/>
</g>
</svg>
