<?xml version="1.0"?>
<svg xmlns="http://www.w3.org/2000/svg" xmlns:xlink="http://www.w3.org/1999/xlink" version="1.1" width="480" height="360" viewBox="0 0 480 360">
<!-- Generated by Kreative Vexillo v1.0 -->
<style>
.blue{fill:rgb(20,94,112);}
.white{fill:rgb(255,255,255);}
</style>
<defs>
<path id="e" d="M 0.0 -0.5 L -0.1732 -0.19999999 L -0.115499996 -0.09999999 H -0.231 L -0.3176 -0.25 H -0.43310001 L -0.292 -0.0058 H 0.292 L 0.433 -0.25 H 0.3175 L 0.23089999 -0.099999994 H 0.1155 L 0.17320001 -0.19999999 L 0.0 -0.5 Z M 0.0 -0.3 L 0.0577 -0.20000002 L 0.0 -0.1 L -0.0577 -0.2 L 0.0 -0.3 Z M -0.292 0.0058 L -0.433 0.25 H -0.3175 L -0.23089999 0.099999994 H -0.11539999 L -0.1731 0.19999999 L 0.0 0.5 L 0.1732 0.19999999 L 0.115499996 0.09999999 H 0.231 L 0.3176 0.25 H 0.43310001 L 0.292 0.0058 H -0.292 Z M 0.0 0.1 L 0.0577 0.2 L 0.0 0.3 L -0.0577 0.20000002 L 0.0 0.1 Z"/>
<linearGradient id="glaze" x1="0%" y1="0%" x2="100%" y2="100%">
<stop offset="0%" stop-color="rgb(255,255,255)" stop-opacity="0.2"/>
<stop offset="49.999%" stop-color="rgb(255,255,255)" stop-opacity="0.0"/>
<stop offset="50.001%" stop-color="rgb(0,0,0)" stop-opacity="0.0"/>
<stop offset="100%" stop-color="rgb(0,0,0)" stop-opacity="0.2"/>
</linearGradient>
</defs>
<g>
<rect x="0" y="0" width="480" height="360" class="blue"/>
<use xlink:href="#e" transform="translate(240 180) scale(196.3636 196.3636) rotate(0)" class="white"/>
</g>
<g>
<rect x="0" y="0" width="480" height="360" fill="url(#glaze)"/>
<path d="M 30 30 L 450 30 L 450 330 L 30 330 Z M 60 60 L 60 300 L 420 300 L 420 60 Z" fill="rgb(255,255,255)" opacity="0.4"/>
<path d="M 0 0 L 480 0 L 480 360 L 0 360 Z M 30 30 L 30 330 L 450 330 L 450 30 Z" fill="rgb(0,0,0)" opacity="0.4"/>
</g>
</svg>
