<?xml version="1.0"?>
<svg xmlns="http://www.w3.org/2000/svg" xmlns:xlink="http://www.w3.org/1999/xlink" version="1.1" width="480" height="360" viewBox="0 0 480 360">
<!-- Generated by Kreative Vexillo v1.0 -->
<style>
.blue{fill:rgb(62,136,192);}
.white{fill:rgb(255,255,255);}
</style>
<defs>
<path id="e" d="M 0.8182 -0.4268 L 0.7446 -0.2319 L 0.4468 -0.1326 C 0.4281 -0.1847 0.40039998 -0.2331 0.365 -0.27569997 L 0.8182 -0.4268 Z M 0.7354 -0.2075 L 0.6617 0.0126 L 0.4742 0.049900003 C 0.47680002 -0.0053999983 0.4697 -0.060599998 0.4532 -0.11349999 L 0.7354 -0.2075 Z M -0.8182 -0.4268 L -0.12839997 -0.19690001 C -0.15729997 -0.19110002 -0.18359996 -0.17610002 -0.20329997 -0.1541 C -0.22569996 -0.1291 -0.24319997 -0.1002 -0.25509998 -0.0688 L -0.74459994 -0.23200001 L -0.8182 -0.4268 Z M -0.7354 -0.2075 L -0.26160002 -0.04959999 C -0.27830002 0.0070000105 -0.2763 0.06740001 -0.25570002 0.122700006 L -0.6617 -0.0126 L -0.7354 -0.2075 Z M -0.245 0.1476 C -0.2008 0.23789999 -0.11060001 0.29659998 -0.010100007 0.3003 V 0.4822 C -0.23750001 0.47709998 -0.4262 0.30470002 -0.4517 0.078700006 L -0.245 0.1476 Z M -0.3296 -0.2852 C -0.2759 -0.3418 -0.2085 -0.3836 -0.134 -0.4066 C -0.076400004 -0.4244 -0.028100006 -0.4644 0.0 -0.5177 C 0.0282 -0.4643 0.0764 -0.42440003 0.134 -0.4066 C 0.3739 -0.3326 0.5084 -0.0781 0.4343 0.1618 C 0.3767 0.3488 0.2057 0.4779 0.0101 0.4822 V 0.3003 C 0.1606 0.2947 0.2781 0.1682 0.2725 0.017700016 C 0.2701 -0.045899987 0.24560001 -0.10659999 0.20320001 -0.15399998 C 0.1531 -0.2102 0.0669 -0.215 0.0107 -0.1648 C 0.007 -0.1614 0.0034 -0.1578 0.0 -0.154 C -0.0154 -0.1724 -0.0353 -0.1864 -0.0578 -0.1946 L -0.3296 -0.2852 Z"/>
<linearGradient id="glaze" x1="0%" y1="0%" x2="100%" y2="100%">
<stop offset="0%" stop-color="rgb(255,255,255)" stop-opacity="0.2"/>
<stop offset="49.999%" stop-color="rgb(255,255,255)" stop-opacity="0.0"/>
<stop offset="50.001%" stop-color="rgb(0,0,0)" stop-opacity="0.0"/>
<stop offset="100%" stop-color="rgb(0,0,0)" stop-opacity="0.2"/>
</linearGradient>
</defs>
<g>
<rect x="0" y="0" width="480" height="360" class="blue"/>
<use xlink:href="#e" transform="translate(240 180) scale(216 216) rotate(0)" class="white"/>
</g>
<g>
<rect x="0" y="0" width="480" height="360" fill="url(#glaze)"/>
<path d="M 30 30 L 450 30 L 450 330 L 30 330 Z M 60 60 L 60 300 L 420 300 L 420 60 Z" fill="rgb(255,255,255)" opacity="0.4"/>
<path d="M 0 0 L 480 0 L 480 360 L 0 360 Z M 30 30 L 30 330 L 450 330 L 450 30 Z" fill="rgb(0,0,0)" opacity="0.4"/>
</g>
</svg>
