<?xml version="1.0"?>
<svg xmlns="http://www.w3.org/2000/svg" xmlns:xlink="http://www.w3.org/1999/xlink" version="1.1" width="480" height="360" viewBox="0 0 480 360">
<!-- Generated by Kreative Vexillo v1.0 -->
<style>
.red{fill:rgb(123,23,28);}
.white{fill:rgb(255,255,255);}
</style>
<defs>
<path id="e" d="M 0.0 -0.5037 L 0.1192 0.025 A 0.1222 0.1222 0.0 1 1 -0.1193 0.025 Z M -0.4443 0.0407 A 0.4444 0.4444 0.0 0 1 0.4443 0.0407 H 0.2553 A 0.2556 0.2556 0.0 0 0 -0.2553 0.0407 Z M -0.4443 0.063 A 0.4444 0.4444 0.0 0 0 0.4443 0.063 H 0.2553 A 0.2556 0.2556 0.0 0 1 -0.2553 0.063 Z"/>
<linearGradient id="glaze" x1="0%" y1="0%" x2="100%" y2="100%">
<stop offset="0%" stop-color="rgb(255,255,255)" stop-opacity="0.2"/>
<stop offset="49.999%" stop-color="rgb(255,255,255)" stop-opacity="0.0"/>
<stop offset="50.001%" stop-color="rgb(0,0,0)" stop-opacity="0.0"/>
<stop offset="100%" stop-color="rgb(0,0,0)" stop-opacity="0.2"/>
</linearGradient>
</defs>
<g>
<rect x="0" y="0" width="480" height="360" class="red"/>
<use xlink:href="#e" transform="translate(240 180) scale(270 270) rotate(0)" class="white"/>
</g>
<g>
<rect x="0" y="0" width="480" height="360" fill="url(#glaze)"/>
<path d="M 30 30 L 450 30 L 450 330 L 30 330 Z M 60 60 L 60 300 L 420 300 L 420 60 Z" fill="rgb(255,255,255)" opacity="0.4"/>
<path d="M 0 0 L 480 0 L 480 360 L 0 360 Z M 30 30 L 30 330 L 450 330 L 450 30 Z" fill="rgb(0,0,0)" opacity="0.4"/>
</g>
</svg>
