<?xml version="1.0"?>
<svg xmlns="http://www.w3.org/2000/svg" xmlns:xlink="http://www.w3.org/1999/xlink" version="1.1" width="480" height="360" viewBox="0 0 480 360">
<!-- Generated by Kreative Vexillo v1.0 -->
<style>
.blue{fill:rgb(0,86,162);}
.orange{fill:rgb(247,148,30);}
.white{fill:rgb(255,255,255);}
</style>
<defs>
<path id="star" d="M 0.157 0.021 L 0.5 0.0 L 0.157 -0.021 L 0.346 -0.093 L 0.146 -0.061 L 0.31 -0.179 L 0.125 -0.096 L 0.253 -0.253 L 0.096 -0.125 L 0.179 -0.31 L 0.061 -0.146 L 0.093 -0.346 L 0.021 -0.157 L 0.0 -0.5 L -0.021 -0.157 L -0.093 -0.346 L -0.061 -0.146 L -0.179 -0.31 L -0.096 -0.125 L -0.253 -0.253 L -0.125 -0.096 L -0.31 -0.179 L -0.146 -0.061 L -0.346 -0.093 L -0.157 -0.021 L -0.5 0.0 L -0.157 0.021 L -0.346 0.093 L -0.146 0.061 L -0.31 0.179 L -0.125 0.096 L -0.253 0.253 L -0.096 0.125 L -0.179 0.31 L -0.061 0.146 L -0.093 0.346 L -0.021 0.157 L 0.0 0.5 L 0.021 0.157 L 0.093 0.346 L 0.061 0.146 L 0.179 0.31 L 0.096 0.125 L 0.253 0.253 L 0.125 0.096 L 0.31 0.179 L 0.146 0.061 L 0.346 0.093 Z"/>
<linearGradient id="glaze" x1="0%" y1="0%" x2="100%" y2="100%">
<stop offset="0%" stop-color="rgb(255,255,255)" stop-opacity="0.2"/>
<stop offset="49.999%" stop-color="rgb(255,255,255)" stop-opacity="0.0"/>
<stop offset="50.001%" stop-color="rgb(0,0,0)" stop-opacity="0.0"/>
<stop offset="100%" stop-color="rgb(0,0,0)" stop-opacity="0.2"/>
</linearGradient>
</defs>
<g>
<rect x="0" y="0" width="480" height="360" class="blue"/>
<path d="M 0 342.72 L 480 5.76 L 480 111.6 L 0 351.36 Z" class="orange"/>
<path d="M 0 348.48 L 480 76.32 L 480 146.88 L 0 354.24 Z" class="white"/>
<use xlink:href="#star" transform="translate(92.64 132.12) scale(156.5616 156.5616) rotate(0)" class="white"/>
</g>
<g>
<rect x="0" y="0" width="480" height="360" fill="url(#glaze)"/>
<path d="M 30 30 L 450 30 L 450 330 L 30 330 Z M 60 60 L 60 300 L 420 300 L 420 60 Z" fill="rgb(255,255,255)" opacity="0.4"/>
<path d="M 0 0 L 480 0 L 480 360 L 0 360 Z M 30 30 L 30 330 L 450 330 L 450 30 Z" fill="rgb(0,0,0)" opacity="0.4"/>
</g>
</svg>
