<?xml version="1.0"?>
<svg xmlns="http://www.w3.org/2000/svg" xmlns:xlink="http://www.w3.org/1999/xlink" version="1.1" width="480" height="360" viewBox="0 0 480 360">
<!-- Generated by Kreative Vexillo v1.0 -->
<style>
.red{fill:rgb(210,0,0);}
.yellow{fill:rgb(255,230,0);}
</style>
<defs>
<linearGradient id="glaze" x1="0%" y1="0%" x2="100%" y2="100%">
<stop offset="0%" stop-color="rgb(255,255,255)" stop-opacity="0.2"/>
<stop offset="49.999%" stop-color="rgb(255,255,255)" stop-opacity="0.0"/>
<stop offset="50.001%" stop-color="rgb(0,0,0)" stop-opacity="0.0"/>
<stop offset="100%" stop-color="rgb(0,0,0)" stop-opacity="0.2"/>
</linearGradient>
</defs>
<g>
<rect x="0" y="0" width="480" height="360" class="red"/>
<path d="M 240 180 L 0 0 L 72 0 Z" class="yellow"/>
<path d="M 240 180 L 216 0 L 264 0 Z" class="yellow"/>
<path d="M 240 180 L 408 0 L 480 0 Z" class="yellow"/>
<path d="M 240 180 L 480 156 L 480 204 Z" class="yellow"/>
<path d="M 240 180 L 480 360 L 408 360 Z" class="yellow"/>
<path d="M 240 180 L 264 360 L 216 360 Z" class="yellow"/>
<path d="M 240 180 L 72 360 L 0 360 Z" class="yellow"/>
<path d="M 240 180 L 0 204 L 0 156 Z" class="yellow"/>
<ellipse cx="240" cy="180" rx="64.2857" ry="64.2857" class="red"/>
<ellipse cx="240" cy="180" rx="51.4286" ry="51.4286" class="yellow"/>
</g>
<g>
<rect x="0" y="0" width="480" height="360" fill="url(#glaze)"/>
<path d="M 30 30 L 450 30 L 450 330 L 30 330 Z M 60 60 L 60 300 L 420 300 L 420 60 Z" fill="rgb(255,255,255)" opacity="0.4"/>
<path d="M 0 0 L 480 0 L 480 360 L 0 360 Z M 30 30 L 30 330 L 450 330 L 450 30 Z" fill="rgb(0,0,0)" opacity="0.4"/>
</g>
</svg>
