<?xml version="1.0"?>
<svg xmlns="http://www.w3.org/2000/svg" xmlns:xlink="http://www.w3.org/1999/xlink" version="1.1" width="480" height="360" viewBox="0 0 480 360">
<!-- Generated by Kreative Vexillo v1.0 -->
<style>
.blue{fill:rgb(0,85,164);}
.green{fill:rgb(0,161,96);}
.red{fill:rgb(238,49,36);}
.white{fill:rgb(255,255,255);}
.yellow{fill:rgb(253,185,51);}
</style>
<defs>
<path id="disc" d="M 0.5 0.0 A 0.5 0.5 0.0 0 0 -0.5 0.0 A 0.5 0.5 0.0 0 0 0.5 0.0 Z"/>
<path id="star12" d="M 0.0 -1.0 L 0.155291 -0.579555 L 0.5 -0.866025 L 0.424264 -0.424264 L 0.866025 -0.5 L 0.579555 -0.155291 L 1.0 -0.0 L 0.579555 0.155291 L 0.866025 0.5 L 0.424264 0.424264 L 0.5 0.866025 L 0.155291 0.579555 L 0.0 1.0 L -0.155291 0.579555 L -0.5 0.866025 L -0.424264 0.424264 L -0.866025 0.5 L -0.579555 0.155291 L -1.0 0.0 L -0.579555 -0.155291 L -0.866025 -0.5 L -0.424264 -0.424264 L -0.5 -0.866025 L -0.155291 -0.579555 Z"/>
<clipPath id="clip0">
<rect x="0" y="0" width="480" height="360"/>
</clipPath>
<linearGradient id="glaze" x1="0%" y1="0%" x2="100%" y2="100%">
<stop offset="0%" stop-color="rgb(255,255,255)" stop-opacity="0.2"/>
<stop offset="49.999%" stop-color="rgb(255,255,255)" stop-opacity="0.0"/>
<stop offset="50.001%" stop-color="rgb(0,0,0)" stop-opacity="0.0"/>
<stop offset="100%" stop-color="rgb(0,0,0)" stop-opacity="0.2"/>
</linearGradient>
</defs>
<g>
<rect x="0" y="0" width="480" height="360" class="blue"/>
<path d="M 480 0 L 480 360 L 0 360 Z" class="green"/>
<g clip-path="url(#clip0)">
<path d="M 516 48 L 516 48 L 36 408 L -36 312 L 444 -48 Z" class="white"/>
<path d="M 507 36 L 507 36 L 27 396 L -27 324 L 453 -36 Z" class="red"/>
</g>
<use xlink:href="#star12" transform="translate(106.6667 96) scale(53.3333 53.3333) rotate(0)" class="yellow"/>
<use xlink:href="#disc" transform="translate(106.6667 96) scale(64 64) rotate(0)" class="blue"/>
<use xlink:href="#disc" transform="translate(106.6667 96) scale(53.3333 53.3333) rotate(0)" class="yellow"/>
</g>
<g>
<rect x="0" y="0" width="480" height="360" fill="url(#glaze)"/>
<path d="M 30 30 L 450 30 L 450 330 L 30 330 Z M 60 60 L 60 300 L 420 300 L 420 60 Z" fill="rgb(255,255,255)" opacity="0.4"/>
<path d="M 0 0 L 480 0 L 480 360 L 0 360 Z M 30 30 L 30 330 L 450 330 L 450 30 Z" fill="rgb(0,0,0)" opacity="0.4"/>
</g>
</svg>
