<?xml version="1.0"?>
<svg xmlns="http://www.w3.org/2000/svg" xmlns:xlink="http://www.w3.org/1999/xlink" version="1.1" width="480" height="360" viewBox="0 0 480 360">
<!-- Generated by Kreative Vexillo v1.0 -->
<style>
.blue{fill:rgb(0,36,125);}
.red{fill:rgb(207,20,43);}
.white{fill:rgb(255,255,255);}
.yellow{fill:rgb(252,209,22);}
</style>
<defs>
<path id="star" d="M 0.0 -1.0 L 0.2245 -0.309 L 0.9511 -0.309 L 0.3633 0.118 L 0.5878 0.809 L 0.0 0.382 L -0.5878 0.809 L -0.3633 0.118 L -0.9511 -0.309 L -0.2245 -0.309 Z"/>
<clipPath id="clip0">
<path d="M 0 0 L 0 15 L 0 15 L 100 90 L 0 165 L 0 165 L 0 180 L 20 180 L 120 105 L 120 105 L 220 180 L 240 180 L 240 165 L 140 90 L 240 15 L 240 0 L 220 0 L 120 75 L 120 75 L 120 75 L 120 75 L 120 75 L 120 75 L 20 0 Z"/>
</clipPath>
<linearGradient id="glaze" x1="0%" y1="0%" x2="100%" y2="100%">
<stop offset="0%" stop-color="rgb(255,255,255)" stop-opacity="0.2"/>
<stop offset="49.999%" stop-color="rgb(255,255,255)" stop-opacity="0.0"/>
<stop offset="50.001%" stop-color="rgb(0,0,0)" stop-opacity="0.0"/>
<stop offset="100%" stop-color="rgb(0,0,0)" stop-opacity="0.2"/>
</linearGradient>
</defs>
<g>
<rect x="0" y="0" width="480" height="360" class="yellow"/>
<g>
<rect x="0" y="0" width="240" height="180" class="blue"/>
<path d="M 0 0 L 0 22.5 L 0 22.5 L 90 90 L 0 157.5 L 0 157.5 L 0 180 L 30 180 L 120 112.5 L 120 112.5 L 210 180 L 240 180 L 240 157.5 L 150 90 L 240 22.5 L 240 0 L 210 0 L 120 67.5 L 120 67.5 L 30 0 Z" class="white"/>
<g clip-path="url(#clip0)">
<path d="M 0 0 L 120 90 L 0 90 Z" class="red"/>
<path d="M 240 0 L 120 90 L 120 0 Z" class="red"/>
<path d="M 0 180 L 120 90 L 120 180 Z" class="red"/>
<path d="M 240 180 L 120 90 L 240 90 Z" class="red"/>
</g>
<g>
<rect x="0" y="60" width="240" height="60" class="white"/>
<rect x="90" y="0" width="60" height="180" class="white"/>
</g>
<g>
<rect x="0" y="72" width="240" height="36" class="red"/>
<rect x="102" y="0" width="36" height="180" class="red"/>
</g>
</g>
<g>
<ellipse cx="120" cy="90" rx="30" ry="30" class="blue"/>
<use xlink:href="#star" transform="translate(120 90) scale(30 30) rotate(0)" class="yellow"/>
<use xlink:href="#star" transform="translate(45 91.062) scale(18 18) rotate(0)" class="yellow"/>
<use xlink:href="#star" transform="translate(195 91.062) scale(18 18) rotate(0)" class="yellow"/>
<use xlink:href="#star" transform="translate(120 31.062) scale(18 18) rotate(0)" class="yellow"/>
<use xlink:href="#star" transform="translate(120 151.062) scale(18 18) rotate(0)" class="yellow"/>
</g>
</g>
<g>
<rect x="0" y="0" width="480" height="360" fill="url(#glaze)"/>
<path d="M 30 30 L 450 30 L 450 330 L 30 330 Z M 60 60 L 60 300 L 420 300 L 420 60 Z" fill="rgb(255,255,255)" opacity="0.4"/>
<path d="M 0 0 L 480 0 L 480 360 L 0 360 Z M 30 30 L 30 330 L 450 330 L 450 30 Z" fill="rgb(0,0,0)" opacity="0.4"/>
</g>
</svg>
