<?xml version="1.0"?>
<svg xmlns="http://www.w3.org/2000/svg" xmlns:xlink="http://www.w3.org/1999/xlink" version="1.1" width="480" height="360" viewBox="0 0 480 360">
<!-- Generated by Kreative Vexillo v1.0 -->
<style>
.blue1{fill:rgb(0,35,125);}
.blue2{fill:rgb(66,189,222);}
.white{fill:rgb(255,255,255);}
</style>
<defs>
<path id="star" d="M 0.0 -1.0 L 0.2245 -0.309 L 0.9511 -0.309 L 0.3633 0.118 L 0.5878 0.809 L 0.0 0.382 L -0.5878 0.809 L -0.3633 0.118 L -0.9511 -0.309 L -0.2245 -0.309 Z"/>
<linearGradient id="glaze" x1="0%" y1="0%" x2="100%" y2="100%">
<stop offset="0%" stop-color="rgb(255,255,255)" stop-opacity="0.2"/>
<stop offset="49.999%" stop-color="rgb(255,255,255)" stop-opacity="0.0"/>
<stop offset="50.001%" stop-color="rgb(0,0,0)" stop-opacity="0.0"/>
<stop offset="100%" stop-color="rgb(0,0,0)" stop-opacity="0.2"/>
</linearGradient>
</defs>
<g>
<g>
<rect x="0" y="0" width="480" height="151.2" class="blue1"/>
<rect x="0" y="151.2" width="480" height="57.6" class="blue2"/>
<rect x="0" y="208.8" width="480" height="151.2" class="blue1"/>
</g>
<use xlink:href="#star" transform="translate(240 61.2) scale(24 24) rotate(0)" class="white"/>
<use xlink:href="#star" transform="translate(240 298.8) scale(24 24) rotate(180)" class="white"/>
<use xlink:href="#star" transform="translate(139.2 255.6) scale(24 24) rotate(0)" class="white"/>
<use xlink:href="#star" transform="translate(340.8 255.6) scale(24 24) rotate(0)" class="white"/>
<use xlink:href="#star" transform="translate(139.2 104.4) scale(24 24) rotate(180)" class="white"/>
<use xlink:href="#star" transform="translate(340.8 104.4) scale(24 24) rotate(180)" class="white"/>
</g>
<g>
<rect x="0" y="0" width="480" height="360" fill="url(#glaze)"/>
<path d="M 30 30 L 450 30 L 450 330 L 30 330 Z M 60 60 L 60 300 L 420 300 L 420 60 Z" fill="rgb(255,255,255)" opacity="0.4"/>
<path d="M 0 0 L 480 0 L 480 360 L 0 360 Z M 30 30 L 30 330 L 450 330 L 450 30 Z" fill="rgb(0,0,0)" opacity="0.4"/>
</g>
</svg>
