<?xml version="1.0"?>
<svg xmlns="http://www.w3.org/2000/svg" xmlns:xlink="http://www.w3.org/1999/xlink" version="1.1" width="480" height="360" viewBox="0 0 480 360">
<!-- Generated by Kreative Vexillo v1.0 -->
<style>
.blue{fill:rgb(179,221,242);}
.red{fill:rgb(255,0,0);}
.white{fill:rgb(255,255,255);}
</style>
<defs>
<path id="star" d="M 0.0 -1.0 L 0.183333 -0.317543 L 0.866025 -0.5 L 0.366667 -0.0 L 0.866025 0.5 L 0.183334 0.317543 L 0.0 1.0 L -0.183333 0.317543 L -0.866025 0.5 L -0.366667 0.0 L -0.866025 -0.5 L -0.183334 -0.317543 Z"/>
<linearGradient id="glaze" x1="0%" y1="0%" x2="100%" y2="100%">
<stop offset="0%" stop-color="rgb(255,255,255)" stop-opacity="0.2"/>
<stop offset="49.999%" stop-color="rgb(255,255,255)" stop-opacity="0.0"/>
<stop offset="50.001%" stop-color="rgb(0,0,0)" stop-opacity="0.0"/>
<stop offset="100%" stop-color="rgb(0,0,0)" stop-opacity="0.2"/>
</linearGradient>
</defs>
<g>
<g>
<rect x="0" y="0" width="480" height="60" class="white"/>
<rect x="0" y="60" width="480" height="60" class="blue"/>
<rect x="0" y="120" width="480" height="120" class="white"/>
<rect x="0" y="240" width="480" height="60" class="blue"/>
<rect x="0" y="300" width="480" height="60" class="white"/>
</g>
<use xlink:href="#star" transform="translate(100 180) scale(45 45) rotate(0)" class="red"/>
<use xlink:href="#star" transform="translate(193.3333 180) scale(45 45) rotate(0)" class="red"/>
<use xlink:href="#star" transform="translate(286.6667 180) scale(45 45) rotate(0)" class="red"/>
<use xlink:href="#star" transform="translate(380 180) scale(45 45) rotate(0)" class="red"/>
</g>
<g>
<rect x="0" y="0" width="480" height="360" fill="url(#glaze)"/>
<path d="M 30 30 L 450 30 L 450 330 L 30 330 Z M 60 60 L 60 300 L 420 300 L 420 60 Z" fill="rgb(255,255,255)" opacity="0.4"/>
<path d="M 0 0 L 480 0 L 480 360 L 0 360 Z M 30 30 L 30 330 L 450 330 L 450 30 Z" fill="rgb(0,0,0)" opacity="0.4"/>
</g>
</svg>
