<?xml version="1.0"?>
<svg xmlns="http://www.w3.org/2000/svg" xmlns:xlink="http://www.w3.org/1999/xlink" version="1.1" width="480" height="360" viewBox="0 0 480 360">
<!-- Generated by Kreative Vexillo v1.0 -->
<style>
.dkblue{fill:rgb(0,45,93);}
.ltblue{fill:rgb(82,201,232);}
.white{fill:rgb(255,255,255);}
</style>
<defs>
<path id="star8" d="M 0.5 0.207 L 1.0 0.0 L 0.5 -0.207 L 0.707 -0.707 L 0.207 -0.5 L 0.0 -1.0 L -0.207 -0.5 L -0.707 -0.707 L -0.5 -0.207 L -1.0 0.0 L -0.5 0.207 L -0.707 0.707 L -0.207 0.5 L 0.0 1.0 L 0.207 0.5 L 0.707 0.707 Z"/>
<linearGradient id="glaze" x1="0%" y1="0%" x2="100%" y2="100%">
<stop offset="0%" stop-color="rgb(255,255,255)" stop-opacity="0.2"/>
<stop offset="49.999%" stop-color="rgb(255,255,255)" stop-opacity="0.0"/>
<stop offset="50.001%" stop-color="rgb(0,0,0)" stop-opacity="0.0"/>
<stop offset="100%" stop-color="rgb(0,0,0)" stop-opacity="0.2"/>
</linearGradient>
</defs>
<g>
<rect x="0" y="0" width="480" height="360" class="ltblue"/>
<path d="M 0 0 L 276 0 L 174 180 L 276 360 L 0 360 Z" class="dkblue"/>
<use xlink:href="#star8" transform="translate(93.6923 180) scale(58 58) rotate(0)" class="white"/>
</g>
<g>
<rect x="0" y="0" width="480" height="360" fill="url(#glaze)"/>
<path d="M 30 30 L 450 30 L 450 330 L 30 330 Z M 60 60 L 60 300 L 420 300 L 420 60 Z" fill="rgb(255,255,255)" opacity="0.4"/>
<path d="M 0 0 L 480 0 L 480 360 L 0 360 Z M 30 30 L 30 330 L 450 330 L 450 30 Z" fill="rgb(0,0,0)" opacity="0.4"/>
</g>
</svg>
