<?xml version="1.0"?>
<svg xmlns="http://www.w3.org/2000/svg" xmlns:xlink="http://www.w3.org/1999/xlink" version="1.1" width="480" height="360" viewBox="0 0 480 360">
<!-- Generated by Kreative Vexillo v1.0 -->
<style>
.blue{fill:rgb(0,28,90);}
.red{fill:rgb(193,19,61);}
.white{fill:rgb(255,255,255);}
</style>
<defs>
<path id="-glazearea" d="M 0.0 0.0 L 1.0 0.1875 L 0.7692308 0.5 L 1.0 0.8125 L 0.0 1.0 Z"/>
<path id="star" d="M 0.0 -1.0 L 0.2245 -0.309 L 0.9511 -0.309 L 0.3633 0.118 L 0.5878 0.809 L 0.0 0.382 L -0.5878 0.809 L -0.3633 0.118 L -0.9511 -0.309 L -0.2245 -0.309 Z"/>
<clipPath id="clip0">
<use xlink:href="#-glazearea" transform="translate(0 0) scale(480 360) rotate(0)"/>
</clipPath>
<linearGradient id="glaze" x1="0%" y1="0%" x2="100%" y2="100%">
<stop offset="0%" stop-color="rgb(255,255,255)" stop-opacity="0.2"/>
<stop offset="49.999%" stop-color="rgb(255,255,255)" stop-opacity="0.0"/>
<stop offset="50.001%" stop-color="rgb(0,0,0)" stop-opacity="0.0"/>
<stop offset="100%" stop-color="rgb(0,0,0)" stop-opacity="0.2"/>
</linearGradient>
</defs>
<g>
<g clip-path="url(#clip0)">
<rect x="0" y="0" width="480" height="360" class="white"/>
<path d="M 6.2665 -44.5615 L 6.2665 -44.5615 L 966.2665 90.4385 L 953.7335 179.5616 L -6.2665 44.5615 Z" class="red"/>
<path d="M 0 157.5 L 0 157.5 L 480 157.5 L 480 202.5 L 0 202.5 Z" class="red"/>
<path d="M -6.2665 315.4384 L -6.2665 315.4384 L 953.7335 180.4384 L 966.2665 269.5616 L 6.2665 404.5616 Z" class="red"/>
</g>
<path d="M 0 0 L 295.3846 180 L 0 360 Z" class="blue"/>
<ellipse cx="91.2789" cy="180" rx="54.7673" ry="54.7673" class="white"/>
<ellipse cx="91.2789" cy="180" rx="36.5115" ry="36.5115" class="red"/>
<g>
<use xlink:href="#star" transform="translate(134.4277 238.9114) scale(12.1705 12.1705) rotate(-216.2204)" class="white"/>
<use xlink:href="#star" transform="translate(97.2182 252.7812) scale(12.1705 12.1705) rotate(-184.6653)" class="white"/>
<use xlink:href="#star" transform="translate(58.2523 245.1277) scale(12.1705 12.1705) rotate(-153.1102)" class="white"/>
<use xlink:href="#star" transform="translate(29.0532 218.2143) scale(12.1705 12.1705) rotate(-121.5551)" class="white"/>
<use xlink:href="#star" transform="translate(18.2558 180) scale(12.1705 12.1705) rotate(-90)" class="white"/>
<use xlink:href="#star" transform="translate(29.0532 141.7857) scale(12.1705 12.1705) rotate(-58.4449)" class="white"/>
<use xlink:href="#star" transform="translate(58.2523 114.8723) scale(12.1705 12.1705) rotate(-26.8898)" class="white"/>
<use xlink:href="#star" transform="translate(97.2182 107.2188) scale(12.1705 12.1705) rotate(4.6653)" class="white"/>
<use xlink:href="#star" transform="translate(134.4277 121.0886) scale(12.1705 12.1705) rotate(36.2204)" class="white"/>
</g>
<g>
<g>
<use xlink:href="#star" transform="translate(24.7378 267.0064) scale(12.1705 12.1705) rotate(-142.5918)" class="white"/>
<use xlink:href="#star" transform="translate(60.4051 285.0935) scale(12.1705 12.1705) rotate(-163.6286)" class="white"/>
</g>
<g>
<use xlink:href="#star" transform="translate(24.7378 92.9936) scale(12.1705 12.1705) rotate(-37.4082)" class="white"/>
<use xlink:href="#star" transform="translate(60.4051 74.9065) scale(12.1705 12.1705) rotate(-16.3714)" class="white"/>
</g>
</g>
<use xlink:href="#star" transform="translate(164.302 180) scale(12.1705 12.1705) rotate(90)" class="white"/>
<use xlink:href="#star" transform="translate(237.3251 180) scale(12.1705 12.1705) rotate(90)" class="white"/>
<g>
<use xlink:href="#star" transform="translate(198.9729 160.0044) scale(12.1705 12.1705) rotate(79.4816)" class="white"/>
<use xlink:href="#star" transform="translate(198.9729 199.9956) scale(12.1705 12.1705) rotate(100.5184)" class="white"/>
</g>
</g>
<g>
<path d="M 0 0 L 480 67.5 L 369.2308 180 L 480 292.5 L 0 360 Z" fill="url(#glaze)"/>
<path d="M 60 69.0279 L 353.6358 110.3204 L 353.6358 110.3204 L 326.4768 137.9037 L 285.0282 180 L 326.4768 222.0963 L 353.6358 249.6796 L 353.6358 249.6796 L 60 290.9721 L 60 290.9721 L 60 69.0279 Z M 30 34.5139 L 30 325.4861 L 30 325.4861 L 416.8179 271.0898 L 416.8179 271.0898 L 347.8538 201.0481 L 327.1295 180 L 347.8538 158.9519 L 416.8179 88.9102 L 416.8179 88.9102 L 30 34.5139 Z" fill="rgb(255,255,255)" opacity="0.4"/>
<path d="M 30 34.5139 L 416.8179 88.9102 L 416.8179 88.9102 L 347.8538 158.9519 L 327.1295 180 L 347.8538 201.0481 L 416.8179 271.0898 L 416.8179 271.0898 L 30 325.4861 L 30 325.4861 L 30 34.5139 Z M 0 0 L 0 360 L 480 292.5 L 369.2308 180 L 480 67.5 L 0 0 Z" fill="rgb(0,0,0)" opacity="0.4"/>
</g>
</svg>
