<?xml version="1.0"?>
<svg xmlns="http://www.w3.org/2000/svg" xmlns:xlink="http://www.w3.org/1999/xlink" version="1.1" width="480" height="360" viewBox="0 0 480 360">
<!-- Generated by Kreative Vexillo v1.0 -->
<style>
.blue{fill:rgb(36,74,165);}
.gold{fill:rgb(208,166,80);}
.white{fill:rgb(255,255,255);}
</style>
<defs>
<path id="kosovo" d="M -0.2894 -0.197 C -0.2894 -0.197 -0.2847 -0.20009999 -0.28300002 -0.2006 C -0.2813 -0.2006 -0.27530003 -0.20289999 -0.27530003 -0.20289999 C -0.27530003 -0.20289999 -0.27140003 -0.2049 -0.26940003 -0.2049 C -0.26720002 -0.2049 -0.26300004 -0.2026 -0.26170003 -0.2006 C -0.26040003 -0.1986 -0.25360003 -0.1952 -0.25360003 -0.1952 C -0.25360003 -0.1952 -0.24890003 -0.1936 -0.24800003 -0.1952 C -0.24800003 -0.1968 -0.24500002 -0.1979 -0.24290003 -0.1979 C -0.24070004 -0.1979 -0.24040003 -0.1999 -0.24040003 -0.2015 C -0.24040003 -0.2031 -0.24040003 -0.2051 -0.23790003 -0.2069 C -0.23620003 -0.2089 -0.23280004 -0.21 -0.23280004 -0.21 C -0.23280004 -0.21 -0.22810003 -0.212 -0.22770004 -0.2147 C -0.22770004 -0.2174 -0.22260004 -0.2194 -0.22000004 -0.2198 C -0.21750005 -0.2198 -0.22000004 -0.2214 -0.21320005 -0.2198 C -0.20640005 -0.2198 -0.20550005 -0.2214 -0.20510004 -0.2234 C -0.20510004 -0.2254 -0.20510004 -0.22739999 -0.20080005 -0.227 C -0.19650005 -0.227 -0.19440004 -0.227 -0.19440004 -0.229 C -0.19440004 -0.2313 -0.19050004 -0.2326 -0.19740005 -0.2344 C -0.20420004 -0.23640001 -0.20380005 -0.2344 -0.20420004 -0.238 C -0.20420004 -0.2411 -0.20420004 -0.2407 -0.20890005 -0.2411 C -0.21360005 -0.2411 -0.21110004 -0.2438 -0.21140005 -0.2462 C -0.21140005 -0.24849999 -0.21310005 -0.2498 -0.21390004 -0.2513 C -0.21390004 -0.2529 -0.21730004 -0.2529 -0.21730004 -0.2552 C -0.21730004 -0.2575 -0.21730004 -0.2588 -0.22030005 -0.2588 C -0.22280005 -0.2588 -0.22370005 -0.2588 -0.22370005 -0.2611 C -0.22370005 -0.2634 -0.22370005 -0.2654 -0.22070004 -0.2654 C -0.21820004 -0.2654 -0.21680003 -0.2674 -0.21730004 -0.2697 C -0.21730004 -0.27199998 -0.21730004 -0.2771 -0.21730004 -0.2771 L -0.21390004 -0.2811 C -0.21390004 -0.2811 -0.20370005 -0.2894 -0.20280005 -0.2909 C -0.20280005 -0.2925 -0.19850005 -0.2936 -0.19690005 -0.2909 C -0.19520006 -0.28779998 -0.19440006 -0.28689998 -0.19300005 -0.2855 C -0.19170004 -0.2839 -0.18790005 -0.2855 -0.18710005 -0.28669998 C -0.18710005 -0.28829998 -0.18580005 -0.29399997 -0.18360005 -0.2972 C -0.18130006 -0.3002 -0.17970005 -0.30179998 -0.17920005 -0.30429998 C -0.17920005 -0.30679998 -0.17750005 -0.30889997 -0.17480005 -0.30889997 C -0.17210005 -0.30889997 -0.17040005 -0.31249997 -0.17040005 -0.31449997 C -0.17040005 -0.31659997 -0.16930005 -0.31859997 -0.16600005 -0.31909996 C -0.16270006 -0.31909996 -0.16100006 -0.32159996 -0.15990005 -0.31909996 C -0.15880005 -0.31609997 -0.15760006 -0.31609997 -0.15550005 -0.31499997 C -0.15320006 -0.31399998 -0.14990005 -0.31249997 -0.14830005 -0.31399998 C -0.14660005 -0.31559998 -0.14580005 -0.31809998 -0.14330006 -0.31649998 C -0.14090006 -0.31489998 -0.13920006 -0.31649998 -0.13860005 -0.31949997 C -0.13860005 -0.32249996 -0.13750005 -0.32659996 -0.13750005 -0.32659996 C -0.13750005 -0.32659996 -0.13750005 -0.32869995 -0.13310005 -0.32869995 C -0.12920004 -0.32869995 -0.13200004 -0.33119994 -0.12980005 -0.33279994 C -0.12750006 -0.33439994 -0.12750006 -0.33579993 -0.12480005 -0.33489993 C -0.12210005 -0.33389995 -0.117600046 -0.33619994 -0.119800046 -0.33869994 C -0.12210005 -0.34119993 -0.12700005 -0.34529993 -0.124200046 -0.34839994 C -0.121500045 -0.35139993 -0.12030005 -0.35659993 -0.12310004 -0.35709995 C -0.12580004 -0.35709995 -0.12980004 -0.35709995 -0.13030005 -0.35959995 C -0.13030005 -0.36259994 -0.13200004 -0.36469996 -0.12860005 -0.36519995 C -0.12530005 -0.36519995 -0.119700044 -0.36519995 -0.118000045 -0.36729994 C -0.11630005 -0.36889994 -0.11080004 -0.36979994 -0.11080004 -0.37439993 C -0.11080004 -0.37899992 -0.109100044 -0.37949994 -0.10850004 -0.38199994 C -0.10850004 -0.38449994 -0.10850004 -0.38979995 -0.11020004 -0.39239994 C -0.11250004 -0.39489993 -0.11580004 -0.39859992 -0.11630004 -0.39999995 C -0.11630004 -0.40159994 -0.11900004 -0.40409994 -0.12240004 -0.40509996 C -0.12570004 -0.40609995 -0.12850004 -0.40669996 -0.12850004 -0.40919995 C -0.12850004 -0.41169995 -0.12620005 -0.40919995 -0.12620005 -0.41539994 C -0.12620005 -0.42199993 -0.13060005 -0.42299995 -0.13060005 -0.42299995 L -0.13730004 -0.42709994 C -0.13730004 -0.42709994 -0.14910005 -0.43019995 -0.15230004 -0.43019995 C -0.15550004 -0.43019995 -0.15910004 -0.43349996 -0.15550004 -0.43559995 C -0.15190004 -0.43769994 -0.15100004 -0.44149995 -0.15230004 -0.44439995 C -0.15370004 -0.44729996 -0.15460004 -0.44939995 -0.15960005 -0.45069996 C -0.16460004 -0.45199996 -0.16600005 -0.45319995 -0.16370004 -0.45609996 C -0.16140005 -0.45899996 -0.16100004 -0.46109995 -0.15820004 -0.45899996 C -0.15550004 -0.45689997 -0.15090004 -0.45609996 -0.14730003 -0.45769995 C -0.14370003 -0.45939997 -0.14230004 -0.46059996 -0.14050004 -0.45899996 C -0.13870004 -0.45729995 -0.13640004 -0.45569995 -0.13370004 -0.45899996 C -0.13100004 -0.46149996 -0.12600005 -0.46189997 -0.123700045 -0.46069998 C -0.12140004 -0.45939997 -0.11600004 -0.46069998 -0.11420005 -0.46069998 C -0.11240005 -0.46069998 -0.10870005 -0.46449998 -0.10870005 -0.46609998 C -0.10870005 -0.4678 -0.10640005 -0.47069997 -0.10420005 -0.47199997 C -0.10190005 -0.47329998 -0.09920005 -0.47739998 -0.09690005 -0.47739998 C -0.09460005 -0.47739998 -0.09370005 -0.47989997 -0.09370005 -0.4816 C -0.09370005 -0.4833 -0.09190005 -0.48659998 -0.09140005 -0.4879 C -0.09140005 -0.4892 -0.08640005 -0.49089998 -0.08320005 -0.4879 C -0.08000005 -0.4854 -0.075900055 -0.48459998 -0.075900055 -0.48459998 C -0.075900055 -0.48459998 -0.071400054 -0.48459998 -0.06910005 -0.48459998 C -0.06680005 -0.48459998 -0.06360005 -0.4863 -0.06050005 -0.48459998 C -0.057300054 -0.4825 -0.052800052 -0.4825 -0.052800052 -0.4825 C -0.052800052 -0.4825 -0.052800052 -0.4858 -0.052800052 -0.48749998 C -0.052800052 -0.4892 -0.052800052 -0.49209997 -0.052800052 -0.49339998 C -0.054600053 -0.49469998 -0.05690005 -0.49629998 -0.052800052 -0.49879998 C -0.04920005 -0.5013 -0.04920005 -0.5009 -0.04550005 -0.5009 C -0.04190005 -0.5009 -0.039600052 -0.5009 -0.03690005 -0.5009 C -0.03420005 -0.5009 -0.02960005 -0.49839997 -0.02960005 -0.49589998 C -0.02960005 -0.49339998 -0.02780005 -0.49169996 -0.02550005 -0.49049997 C -0.02320005 -0.48919997 -0.020500049 -0.48799998 -0.02140005 -0.48589998 C -0.02140005 -0.4838 -0.02140005 -0.48209998 -0.019600049 -0.48259997 C -0.016900048 -0.48259997 -0.01600005 -0.48129997 -0.01600005 -0.47929996 C -0.01600005 -0.47719997 -0.01600005 -0.47599995 -0.01240005 -0.47509995 C -0.00970005 -0.47509995 -0.008300049 -0.47259995 -0.008300049 -0.47049996 C -0.008300049 -0.46839997 -0.008300049 -0.46719995 -0.008300049 -0.46509996 C -0.008300049 -0.46299997 -0.0047000493 -0.45969996 -0.0047000493 -0.45969996 C -0.0047000493 -0.45969996 2.999506E-4 -0.45379996 -0.0061000492 -0.45679995 C -0.01250005 -0.45969996 -0.013800049 -0.46099997 -0.016100049 -0.46059996 C -0.018400049 -0.46059996 -0.019700048 -0.45889995 -0.019700048 -0.45889995 C -0.019700048 -0.45889995 -0.022900049 -0.45889995 -0.025200048 -0.45889995 C -0.027500048 -0.45889995 -0.029700048 -0.45429996 -0.025200048 -0.45349994 C -0.021600049 -0.45349994 -0.020200048 -0.45179993 -0.020200048 -0.44889995 C -0.020200048 -0.44599995 -0.021600047 -0.44679996 -0.023400048 -0.44469994 C -0.025200048 -0.44259995 -0.026600048 -0.44469994 -0.029800048 -0.44469994 C -0.03300005 -0.44469994 -0.03390005 -0.44219995 -0.03390005 -0.43969995 C -0.03390005 -0.43719995 -0.032500047 -0.43759996 -0.031200048 -0.43549994 C -0.029800048 -0.43339995 -0.027600048 -0.43299994 -0.025300048 -0.43549994 C -0.023000048 -0.43759993 -0.021200048 -0.43879995 -0.019800048 -0.43549994 C -0.018400049 -0.43169993 -0.016600048 -0.43169993 -0.013900048 -0.43169993 C -0.011200048 -0.43169993 -0.010300048 -0.43169993 -0.008000048 -0.43299994 C -0.005700048 -0.43429995 -0.003000048 -0.43299994 -0.002500048 -0.42969993 C -0.002500048 -0.42639992 1.9995216E-4 -0.42589992 0.002499952 -0.42469993 C 0.004799952 -0.42339993 0.006099952 -0.42259994 0.006599952 -0.42049992 C 0.006599952 -0.41839993 0.008399952 -0.41759992 0.010699952 -0.4187999 C 0.012999952 -0.4200999 0.016599953 -0.4208999 0.017999953 -0.4187999 C 0.019399952 -0.4170999 0.021599952 -0.4137999 0.021599952 -0.4137999 L 0.021599952 -0.4095999 L 0.030199952 -0.4066999 C 0.030199952 -0.4066999 0.030199952 -0.4045999 0.030199952 -0.4028999 C 0.030199952 -0.40119988 0.031599954 -0.4003999 0.033799954 -0.4007999 C 0.036099955 -0.4007999 0.040199954 -0.4007999 0.040199954 -0.4007999 C 0.040199954 -0.4007999 0.043399952 -0.4020999 0.043399952 -0.4045999 C 0.043399952 -0.4070999 0.044799954 -0.40789992 0.046999954 -0.40789992 C 0.049299955 -0.40789992 0.054299954 -0.4061999 0.055599954 -0.40789992 C 0.056999955 -0.4103999 0.061099954 -0.41119993 0.064199954 -0.4099999 C 0.06739996 -0.4086999 0.07559995 -0.40539992 0.07559995 -0.40539992 C 0.07559995 -0.40539992 0.07559995 -0.40539992 0.077399954 -0.40079993 C 0.080099955 -0.39659992 0.08509995 -0.39659992 0.08509995 -0.39659992 C 0.08509995 -0.39659992 0.08509995 -0.3927999 0.08649995 -0.39119992 C 0.08649995 -0.3894999 0.091499954 -0.38869992 0.09379995 -0.39119992 C 0.09609995 -0.39289993 0.09929995 -0.39499992 0.101999946 -0.39499992 C 0.10469995 -0.39499992 0.10649995 -0.39499992 0.10649995 -0.39669994 C 0.10649995 -0.39839995 0.10379995 -0.39959994 0.10379995 -0.40209994 C 0.10379995 -0.40459993 0.10649995 -0.40459993 0.10699995 -0.40709993 C 0.10699995 -0.40959993 0.11019995 -0.40709993 0.11199995 -0.40579993 C 0.11379995 -0.40449992 0.11609995 -0.4024999 0.11609995 -0.40079993 C 0.11609995 -0.39909992 0.119699955 -0.39329994 0.12199996 -0.39239994 C 0.12429996 -0.39239994 0.13019995 -0.39109993 0.13199995 -0.39239994 C 0.13379996 -0.39449993 0.13839996 -0.39529994 0.13789995 -0.39029995 C 0.13789995 -0.38529995 0.13649996 -0.38489994 0.13969995 -0.38319996 C 0.14289995 -0.38149995 0.14329995 -0.37569997 0.13969995 -0.37399995 C 0.13699995 -0.37229994 0.13609995 -0.37189996 0.13609995 -0.36899996 C 0.13609995 -0.36609995 0.13609995 -0.36269996 0.13749994 -0.36109996 C 0.13979994 -0.35939994 0.14109994 -0.35819995 0.14109994 -0.35649997 C 0.14109994 -0.35479996 0.14379995 -0.34729996 0.14379995 -0.34729996 C 0.14379995 -0.34729996 0.14519994 -0.33979997 0.14379995 -0.33809996 C 0.14379995 -0.33639994 0.14239995 -0.33349997 0.14649995 -0.33389995 C 0.15059994 -0.33389995 0.15149994 -0.33389995 0.15149994 -0.33099994 C 0.15149994 -0.32769993 0.15289994 -0.32639995 0.15149994 -0.32509995 C 0.14919995 -0.32379994 0.14789994 -0.31969994 0.15009995 -0.31879994 C 0.15239994 -0.31879994 0.15419994 -0.31669995 0.15459995 -0.31499994 C 0.15459995 -0.31329992 0.15869994 -0.31039995 0.16099995 -0.31209993 C 0.16329995 -0.31379995 0.16369995 -0.31459993 0.16549996 -0.31499994 C 0.16729996 -0.31499994 0.16869995 -0.31669995 0.16689995 -0.31879994 C 0.16509995 -0.32089993 0.16459996 -0.32299995 0.16689995 -0.32419994 C 0.16869995 -0.32549995 0.16959995 -0.32959995 0.16959995 -0.32959995 C 0.16959995 -0.32959995 0.17229995 -0.33339995 0.17549995 -0.32959995 C 0.17869994 -0.32579994 0.17909995 -0.32709995 0.18139994 -0.32709995 C 0.18369994 -0.32709995 0.18459994 -0.32499996 0.18459994 -0.32289994 C 0.18459994 -0.32079995 0.18909994 -0.32119992 0.18909994 -0.31789994 C 0.18909994 -0.31459993 0.18909994 -0.30659994 0.18909994 -0.30659994 C 0.18909994 -0.30659994 0.18909994 -0.30199996 0.19179994 -0.30029994 C 0.19449994 -0.29859993 0.19409993 -0.29819995 0.19179994 -0.29609993 C 0.19039994 -0.29399994 0.19179994 -0.29069993 0.19179994 -0.28899994 C 0.19179994 -0.28729993 0.19179994 -0.28649995 0.19039994 -0.28479993 C 0.18809995 -0.28309992 0.18719995 -0.28099993 0.18859994 -0.27849993 C 0.18999994 -0.27599993 0.18859994 -0.27429992 0.19309995 -0.27139995 C 0.19669995 -0.26849994 0.19629994 -0.26719993 0.19629994 -0.26509994 C 0.19629994 -0.26299995 0.19989994 -0.26009995 0.19989994 -0.25799996 C 0.19989994 -0.25589997 0.20259994 -0.25339997 0.20489994 -0.25299996 C 0.20719993 -0.25299996 0.20989993 -0.24879996 0.20989993 -0.24669996 C 0.20989993 -0.24459995 0.20989993 -0.23919997 0.20989993 -0.23919997 C 0.20989993 -0.23919997 0.20989993 -0.23789996 0.21219993 -0.23789996 C 0.21489993 -0.23789996 0.21669993 -0.23499995 0.21769993 -0.23789996 C 0.21769993 -0.24119996 0.22129993 -0.24169996 0.22319993 -0.24249996 C 0.22499993 -0.24249996 0.22869994 -0.24499996 0.23049994 -0.24379997 C 0.23229994 -0.24249996 0.23459993 -0.24249996 0.23639993 -0.24249996 C 0.23819993 -0.24249996 0.24689993 -0.24249996 0.24689993 -0.24249996 C 0.24689993 -0.24249996 0.24919993 -0.24249996 0.25049993 -0.23959996 C 0.25189993 -0.23629996 0.25599992 -0.23249996 0.25369993 -0.23079996 C 0.25139993 -0.22909996 0.25139993 -0.22579996 0.25369993 -0.22579996 C 0.25639993 -0.22579996 0.25919992 -0.22579996 0.25919992 -0.22369996 C 0.25919992 -0.22159995 0.25919992 -0.21989995 0.26189992 -0.22119996 C 0.2641999 -0.22249997 0.26549992 -0.22289996 0.26639992 -0.22119996 C 0.26639992 -0.21949996 0.26909992 -0.21949996 0.27139992 -0.21829996 C 0.2736999 -0.21699995 0.2745999 -0.21829996 0.27589992 -0.21959996 C 0.2772999 -0.22129996 0.2826999 -0.22289996 0.2826999 -0.22289996 C 0.2826999 -0.22289996 0.2899999 -0.22459996 0.2926999 -0.22289996 C 0.2953999 -0.22289996 0.2990999 -0.22039996 0.2990999 -0.22039996 C 0.2990999 -0.22039996 0.3008999 -0.21619996 0.2990999 -0.21369997 C 0.2990999 -0.21119997 0.2972999 -0.21159996 0.2990999 -0.20779997 C 0.2990999 -0.20399997 0.2990999 -0.20359997 0.2963999 -0.20399997 C 0.2945999 -0.20399997 0.2927999 -0.20399997 0.2927999 -0.20109996 C 0.2927999 -0.19779997 0.2909999 -0.19689997 0.2909999 -0.19399996 C 0.2909999 -0.19109996 0.2909999 -0.19149996 0.2891999 -0.19019996 C 0.2873999 -0.18889995 0.2868999 -0.18689996 0.2891999 -0.18639995 C 0.2918999 -0.18639995 0.2909999 -0.18309996 0.2909999 -0.18139996 C 0.2909999 -0.17969996 0.2909999 -0.17599995 0.2909999 -0.17599995 C 0.2909999 -0.17599995 0.2909999 -0.17389995 0.2882999 -0.17389995 C 0.2850999 -0.17389995 0.2823999 -0.17389995 0.2818999 -0.17219995 C 0.2818999 -0.17009994 0.2777999 -0.16679995 0.2818999 -0.16469996 C 0.2850999 -0.16259995 0.2841999 -0.16139996 0.2818999 -0.16049996 C 0.2800999 -0.16049996 0.2786999 -0.15549996 0.2818999 -0.15419996 C 0.2854999 -0.15289995 0.2850999 -0.15169996 0.2818999 -0.14999996 C 0.2795999 -0.14829996 0.2750999 -0.14709996 0.2750999 -0.14459996 C 0.2750999 -0.14209996 0.2750999 -0.14209996 0.2714999 -0.14169995 C 0.2687999 -0.14169995 0.2673999 -0.13789995 0.2714999 -0.13379996 C 0.2746999 -0.12959996 0.2755999 -0.13049996 0.2778999 -0.13049996 C 0.2801999 -0.13049996 0.2801999 -0.13379996 0.2801999 -0.13379996 C 0.2801999 -0.13379996 0.28789988 -0.13379996 0.29019988 -0.13379996 C 0.29249987 -0.13379996 0.29569986 -0.13379996 0.29749987 -0.13509996 C 0.29929987 -0.13639997 0.30429986 -0.13839996 0.30429986 -0.13509996 C 0.30429986 -0.13129996 0.30429986 -0.13179997 0.30749986 -0.13009997 C 0.30979985 -0.12839997 0.31019986 -0.13009997 0.31199986 -0.12719996 C 0.31379986 -0.124699965 0.31429985 -0.12719996 0.31559986 -0.12969996 C 0.31699985 -0.13259996 0.31969985 -0.13559996 0.32199985 -0.13219996 C 0.32429984 -0.12889996 0.32429984 -0.12969996 0.32699984 -0.12969996 C 0.32969984 -0.12969996 0.33059984 -0.12839995 0.33059984 -0.12639996 C 0.33059984 -0.124299966 0.33329985 -0.124299966 0.33649984 -0.124699965 C 0.33969983 -0.124699965 0.34009984 -0.122999966 0.34149984 -0.12089997 C 0.34289983 -0.11879997 0.34329984 -0.11919997 0.34509984 -0.11919997 C 0.34689984 -0.11919997 0.34869984 -0.11919997 0.35009983 -0.12089997 C 0.35149983 -0.12259997 0.35329983 -0.124699965 0.35509983 -0.12219997 C 0.35689983 -0.11969997 0.36059982 -0.12009997 0.36149982 -0.12219997 C 0.36149982 -0.12509997 0.3664998 -0.12759997 0.3687998 -0.124299966 C 0.3710998 -0.12099996 0.3728998 -0.12099996 0.3751998 -0.12049997 C 0.3774998 -0.12049997 0.38069978 -0.12049997 0.3819998 -0.11799997 C 0.38339978 -0.11589997 0.3878998 -0.11259997 0.3846998 -0.11009997 C 0.3814998 -0.10759997 0.3778998 -0.10419997 0.3805998 -0.10339997 C 0.3832998 -0.10339997 0.3850998 -0.10169997 0.3869998 -0.09959997 C 0.3887998 -0.097499974 0.39469978 -0.096699975 0.3974998 -0.096299976 C 0.4001998 -0.096299976 0.4024998 -0.096299976 0.4056998 -0.097999975 C 0.40889978 -0.10049997 0.41209978 -0.10049997 0.41159979 -0.097999975 C 0.41159979 -0.09469998 0.41299978 -0.090899974 0.41299978 -0.090899974 C 0.41299978 -0.090899974 0.41529977 -0.08549997 0.41529977 -0.083399974 C 0.41529977 -0.081299976 0.41529977 -0.080899976 0.41889977 -0.07839997 C 0.42299977 -0.07589997 0.42249978 -0.074199975 0.42569977 -0.07669997 C 0.42889977 -0.07919997 0.42979977 -0.08049997 0.42979977 -0.082599975 C 0.42979977 -0.08469997 0.42979977 -0.08929998 0.42979977 -0.08929998 C 0.42979977 -0.08929998 0.43429977 -0.08929998 0.43619975 -0.091399975 C 0.43799976 -0.092699975 0.44529974 -0.09639998 0.44709975 -0.09469998 C 0.44889975 -0.09299998 0.45119974 -0.09339998 0.45299974 -0.09469998 C 0.45479974 -0.09469998 0.45849973 -0.09469998 0.46029973 -0.09469998 C 0.46209973 -0.09469998 0.46529973 -0.09469998 0.46889973 -0.09719998 C 0.47249973 -0.10009997 0.47249973 -0.099299975 0.47479972 -0.09719998 C 0.47709972 -0.09509998 0.47709972 -0.09259997 0.47479972 -0.090899974 C 0.47339973 -0.089199975 0.47479972 -0.08549997 0.47799972 -0.08549997 C 0.4811997 -0.08549997 0.4820997 -0.08379997 0.4820997 -0.081699975 C 0.4820997 -0.07959998 0.4820997 -0.07669997 0.4820997 -0.07499997 C 0.4820997 -0.073299974 0.4820997 -0.072499976 0.4875997 -0.071199976 C 0.4925997 -0.069899976 0.4916997 -0.06699998 0.4925997 -0.06489997 C 0.4925997 -0.062799975 0.4925997 -0.061099973 0.4907997 -0.061099973 C 0.4880997 -0.061099973 0.4871997 -0.059799973 0.4866997 -0.057799973 C 0.4866997 -0.055699974 0.4821997 -0.054899972 0.4821997 -0.054899972 L 0.4780997 -0.054899972 C 0.4780997 -0.054899972 0.4753997 -0.054899972 0.4739997 -0.053199973 C 0.47259971 -0.051499974 0.4698997 -0.048199974 0.4716997 -0.045299973 C 0.47349972 -0.042399973 0.47349972 -0.040699974 0.4716997 -0.039399974 C 0.4698997 -0.038099974 0.4689997 -0.031899974 0.4671997 -0.033099975 C 0.4653997 -0.034399975 0.46309972 -0.033099975 0.46129972 -0.031799976 C 0.45949972 -0.031799976 0.45989972 -0.025099976 0.4635997 -0.022999976 C 0.4671997 -0.020899976 0.4680997 -0.017999977 0.4680997 -0.017999977 L 0.4721997 -0.011699976 C 0.4721997 -0.011699976 0.4707997 -0.010399977 0.4698997 -0.008399976 C 0.4698997 -0.0062999763 0.4662997 -0.0020999764 0.4698997 -0.0012999764 C 0.47259971 -0.0012999764 0.4712997 0.004100024 0.46849972 0.004100024 C 0.46579972 0.004100024 0.46259972 0.0028000236 0.46209973 0.006200024 C 0.46209973 0.009500024 0.46029973 0.008700024 0.45759973 0.008300024 C 0.45489973 0.008300024 0.44809973 0.006200024 0.44619972 0.009600024 C 0.4443997 0.012900024 0.44389972 0.014200024 0.44069973 0.013800023 C 0.43749973 0.013800023 0.43889973 0.018800024 0.44069973 0.020900022 C 0.44069973 0.023000022 0.44479972 0.025900021 0.44479972 0.025900021 C 0.44479972 0.025900021 0.44749972 0.028000021 0.44749972 0.03220002 C 0.44749972 0.03640002 0.44569972 0.03600002 0.44389972 0.03220002 C 0.44209972 0.02930002 0.43839973 0.02970002 0.43799973 0.03220002 C 0.43799973 0.03550002 0.43799973 0.04060002 0.43389973 0.04060002 C 0.43069974 0.04060002 0.42939973 0.04060002 0.42799973 0.04310002 C 0.42659974 0.04480002 0.42439973 0.04770002 0.42439973 0.04940002 C 0.42439973 0.05110002 0.42439973 0.05270002 0.42169973 0.05320002 C 0.41939974 0.05320002 0.41899973 0.05820002 0.41899973 0.05820002 C 0.41899973 0.05820002 0.41349974 0.05820002 0.41309974 0.06110002 C 0.41309974 0.06320002 0.41309974 0.06650002 0.40899974 0.067000024 C 0.40449974 0.067000024 0.40169975 0.07030003 0.40039974 0.072400026 C 0.39899975 0.074500024 0.39859974 0.07620002 0.40039974 0.07830003 C 0.40219975 0.08040003 0.40359974 0.08710003 0.40589973 0.08830003 C 0.40819973 0.08960003 0.40999973 0.090000026 0.40949973 0.09330003 C 0.40949973 0.096600026 0.40629974 0.09920003 0.40949973 0.09920003 C 0.41309974 0.09920003 0.41539973 0.09920003 0.41399974 0.10300003 C 0.41259974 0.10590003 0.41259974 0.106300026 0.40989974 0.10760003 C 0.40719974 0.10890003 0.40579975 0.10890003 0.40579975 0.11220004 C 0.40579975 0.11550003 0.40579975 0.11550003 0.40439975 0.11680004 C 0.40209976 0.11810004 0.40209976 0.11970004 0.40209976 0.12220004 C 0.40209976 0.12470004 0.40209976 0.12390004 0.39849976 0.12680005 C 0.39579976 0.12970005 0.39209977 0.12970005 0.38989976 0.12890005 C 0.38759977 0.12890005 0.38719976 0.12890005 0.38669977 0.12560005 C 0.38669977 0.12310006 0.38219976 0.12310006 0.37989977 0.12350006 C 0.37759978 0.12350006 0.37439978 0.12640005 0.37439978 0.12640005 C 0.37439978 0.12640005 0.3702998 0.12890005 0.3720998 0.13100006 C 0.3738998 0.13310006 0.3720998 0.13640006 0.3697998 0.13600005 C 0.3665998 0.13600005 0.35929978 0.13930005 0.3570998 0.13600005 C 0.3547998 0.13220005 0.3484998 0.12970005 0.3475998 0.13470004 C 0.3475998 0.13970004 0.3502998 0.13930005 0.3498998 0.14430004 C 0.3498998 0.14930004 0.3484998 0.14930004 0.3466998 0.15100004 C 0.3448998 0.15270004 0.3448998 0.15390004 0.3443998 0.15600003 C 0.3443998 0.15810004 0.3443998 0.16270003 0.3466998 0.16440003 C 0.3498998 0.16610003 0.3511998 0.17070003 0.3511998 0.17320003 C 0.3511998 0.17570002 0.3511998 0.17820002 0.3543998 0.17820002 C 0.3575998 0.17820002 0.3602998 0.17820002 0.3607998 0.17490003 C 0.3607998 0.17200002 0.3675998 0.17030002 0.36809978 0.17620003 C 0.36809978 0.18210003 0.36809978 0.18500003 0.37079978 0.18750003 C 0.37309977 0.19000003 0.37489977 0.19340003 0.37669978 0.19460003 C 0.37849978 0.19590004 0.38159978 0.20650002 0.38159978 0.20650002 C 0.37719977 0.20650002 0.37599978 0.21320002 0.3731998 0.21430002 C 0.3715998 0.21430002 0.36989978 0.21430002 0.3683998 0.21550003 C 0.3672998 0.21550003 0.3672998 0.21790002 0.3656998 0.21860002 C 0.3623998 0.22010002 0.3629998 0.21490002 0.3589998 0.21680002 C 0.3553998 0.21850002 0.35499978 0.22270001 0.34979978 0.22090001 C 0.34709978 0.22090001 0.3453998 0.20930001 0.34459978 0.20680001 C 0.34459978 0.20530002 0.34129977 0.20090002 0.34039977 0.19960001 C 0.33729976 0.19500001 0.33119977 0.19960001 0.32929978 0.19820002 C 0.32619977 0.19610001 0.32759976 0.19260001 0.3228998 0.19210002 C 0.31349978 0.19210002 0.3201998 0.19790001 0.31619978 0.19930002 C 0.30859977 0.20200002 0.30859977 0.19220002 0.30289978 0.19670002 C 0.30069977 0.19840002 0.30629978 0.19940002 0.30489978 0.20230003 C 0.30379978 0.20470002 0.29819977 0.20840003 0.2984998 0.21120003 C 0.2984998 0.21510004 0.3031998 0.21620002 0.3043998 0.21950004 C 0.3077998 0.22810003 0.3020998 0.23400003 0.29359978 0.22730003 C 0.2887998 0.22350003 0.2878998 0.21650003 0.2804998 0.21700004 C 0.27879977 0.21700004 0.2781998 0.21890004 0.27649978 0.21910004 C 0.27479976 0.21910004 0.27339977 0.21750005 0.27159977 0.21810004 C 0.26889977 0.21810004 0.27159977 0.22090004 0.27159977 0.22250004 C 0.27159977 0.22250004 0.26799977 0.22550005 0.26739976 0.22640005 C 0.26539975 0.22910005 0.26599976 0.23150004 0.26309976 0.23370005 C 0.26059976 0.23560005 0.25869977 0.23370005 0.25589976 0.23740005 C 0.25309977 0.24040006 0.25279975 0.24490005 0.24919976 0.24790005 C 0.24739976 0.24940005 0.24609977 0.24350005 0.24389976 0.24790005 C 0.24389976 0.24790005 0.24389976 0.24890006 0.24389976 0.24950005 C 0.24389976 0.25070006 0.24389976 0.25120005 0.24389976 0.25240004 C 0.24869977 0.26160005 0.23869976 0.26510003 0.23559976 0.27150005 C 0.23419976 0.27420005 0.23799975 0.27670005 0.23559976 0.27880004 C 0.23459975 0.28040004 0.23009975 0.28470004 0.22979976 0.28560004 C 0.22979976 0.28560004 0.22979976 0.28860003 0.22819977 0.28940004 C 0.22819977 0.28940004 0.22469977 0.28940004 0.22449976 0.29110005 C 0.22449976 0.29260007 0.22729976 0.29370007 0.22809976 0.29470006 C 0.22909977 0.29590005 0.22809976 0.29740006 0.22809976 0.29770005 C 0.23319976 0.30280006 0.23009977 0.30130005 0.23279977 0.30580005 C 0.23279977 0.30580005 0.23469977 0.30580005 0.23529977 0.30700004 C 0.23529977 0.30860004 0.23409976 0.30850005 0.23529977 0.31020004 C 0.23529977 0.31020004 0.23899977 0.31540003 0.23899977 0.31550002 C 0.23899977 0.31710002 0.23209977 0.3203 0.23049977 0.3203 C 0.22619978 0.3203 0.23419978 0.31140003 0.22719978 0.31140003 C 0.22409979 0.31140003 0.22389978 0.31840003 0.22309978 0.31910002 C 0.22309978 0.31910002 0.21989979 0.31910002 0.21919978 0.31910002 C 0.21469977 0.31910002 0.21169978 0.32470003 0.20989978 0.3253 C 0.20879978 0.3253 0.20629978 0.3253 0.20429978 0.3253 C 0.20249978 0.3253 0.20029978 0.3274 0.19859977 0.3274 C 0.19749977 0.3274 0.19689977 0.3274 0.19599977 0.3261 C 0.19399977 0.3249 0.19019978 0.32439998 0.18789977 0.32369998 C 0.18669976 0.32369998 0.18429977 0.32529998 0.18349977 0.32469997 C 0.18199977 0.32469997 0.18449977 0.32109997 0.18109977 0.31929997 C 0.18109977 0.31929997 0.17809977 0.31299996 0.17829977 0.31269997 C 0.17939977 0.30869997 0.18069977 0.30439997 0.18009977 0.30029997 C 0.18009977 0.29599997 0.17269976 0.29239997 0.17089976 0.28889996 C 0.16949977 0.28629994 0.16829976 0.27939996 0.16569977 0.27759996 C 0.16289976 0.27569997 0.16019976 0.27209997 0.15879977 0.26919997 C 0.15879977 0.26919997 0.15879977 0.26689997 0.15879977 0.26539996 C 0.15769976 0.26379997 0.15549977 0.26319996 0.15489976 0.26109996 C 0.15489976 0.25939995 0.15489976 0.25399998 0.15299976 0.25279996 C 0.15079975 0.25149995 0.13699976 0.24989995 0.13359976 0.24959996 C 0.13179976 0.24959996 0.13039976 0.24959996 0.12909976 0.24809997 C 0.12909976 0.24809997 0.12759976 0.24539997 0.12719975 0.24539997 C 0.12579976 0.24539997 0.124199755 0.24539997 0.122899756 0.24539997 C 0.121899754 0.24539997 0.120199755 0.24539997 0.119299755 0.24539997 C 0.114899755 0.24839997 0.11369976 0.25229996 0.10949975 0.25549996 C 0.105199754 0.25869995 0.100399755 0.25859997 0.09609975 0.26239997 C 0.09339975 0.26479998 0.09159975 0.27059996 0.08879975 0.27329996 C 0.087699756 0.27449995 0.08579975 0.27329996 0.085399754 0.27329996 C 0.08309975 0.27609995 0.07989976 0.27779996 0.07769975 0.28039995 C 0.07769975 0.28039995 0.07769975 0.28199995 0.07769975 0.28239995 L 0.07279975 0.28369996 C 0.07159975 0.28369996 0.06919975 0.28369996 0.06809975 0.28369996 C 0.06579975 0.28369996 0.06589975 0.28679997 0.058199752 0.28839996 C 0.058199752 0.28839996 0.05659975 0.28839996 0.05619975 0.28839996 C 0.05619975 0.28839996 0.05459975 0.28999996 0.05369975 0.29059997 C 0.05369975 0.29059997 0.05139975 0.29059997 0.05039975 0.29059997 C 0.04849975 0.29059997 0.04729975 0.29259998 0.04549975 0.29279998 C 0.04139975 0.29279998 0.034799747 0.2909 0.03159975 0.29279998 C 0.029699748 0.29279998 0.024299748 0.2995 0.02239975 0.30009997 C 0.02119975 0.30009997 0.02019975 0.30009997 0.01889975 0.30009997 C 0.01889975 0.30009997 0.01659975 0.30739996 0.016099751 0.30889997 C 0.016099751 0.30889997 0.007399751 0.31629997 0.006699751 0.31719998 C 0.005599751 0.31849998 0.005099751 0.3198 0.003699751 0.32119998 C 0.003699751 0.32119998 0.001299751 0.32299998 -2.0024879E-4 0.32299998 C -0.0020002488 0.32299998 -0.0047002486 0.3216 -0.006400249 0.32129997 C -0.009700249 0.32129997 -0.01960025 0.32129997 -0.02250025 0.32129997 C -0.02560025 0.32129997 -0.02470025 0.33069998 -0.03230025 0.33159998 C -0.03670025 0.33159998 -0.04080025 0.33299997 -0.045400247 0.33339998 C -0.045400247 0.33339998 -0.048600245 0.3315 -0.051300246 0.3322 C -0.052300245 0.3322 -0.05560025 0.33589998 -0.05560025 0.3369 L -0.05560025 0.33879998 C -0.05560025 0.33879998 -0.05560025 0.3403 -0.05560025 0.34039998 C -0.057300247 0.34239998 -0.061200246 0.3455 -0.062400248 0.3478 C -0.062400248 0.3478 -0.062400248 0.34919998 -0.063800246 0.3496 C -0.06480025 0.3496 -0.070000246 0.3523 -0.07050025 0.35329998 C -0.071700245 0.35639998 -0.066900246 0.35939997 -0.067300245 0.36059996 C -0.06870025 0.36469996 -0.07410025 0.36849996 -0.07580025 0.37229997 C -0.07580025 0.37389997 -0.07400025 0.37909997 -0.07410025 0.38089997 C -0.07410025 0.38579997 -0.07640025 0.39209998 -0.076100245 0.39689997 C -0.076100245 0.39689997 -0.076100245 0.40279996 -0.07510024 0.40329996 C -0.07510024 0.40329996 -0.07330024 0.40479997 -0.072500244 0.40559995 C -0.072500244 0.40559995 -0.06570024 0.41819996 -0.065500244 0.41939995 C -0.06440024 0.42809996 -0.077000245 0.42499995 -0.06970024 0.43369994 C -0.06860024 0.43509993 -0.067700244 0.43649992 -0.066400245 0.43769994 C -0.06480025 0.43929994 -0.055500247 0.44609994 -0.055400245 0.44679993 C -0.055400245 0.44809994 -0.062900245 0.44929993 -0.06430025 0.45069993 C -0.06790025 0.45429993 -0.07100025 0.46079993 -0.07450025 0.46449992 C -0.07670025 0.4667999 -0.07860025 0.46449992 -0.081400245 0.46959993 C -0.08240025 0.47159994 -0.081400245 0.47609994 -0.08260024 0.47729993 C -0.084400244 0.47919992 -0.08590025 0.47729993 -0.08770024 0.47729993 C -0.08770024 0.47729993 -0.08890024 0.47989994 -0.08970024 0.48049992 C -0.09170023 0.48229992 -0.109900236 0.49189994 -0.111600235 0.49109992 C -0.111600235 0.49109992 -0.11350024 0.4875999 -0.11360023 0.48669994 C -0.11360023 0.48569995 -0.11500023 0.48339993 -0.11590023 0.48259994 C -0.12060023 0.47859994 -0.12770024 0.47789994 -0.13230023 0.48259994 C -0.13340023 0.48389995 -0.13350023 0.48569995 -0.13500023 0.48699993 C -0.13750023 0.48909992 -0.14030023 0.49099994 -0.14270023 0.49309993 C -0.14270023 0.49309993 -0.14450023 0.49509993 -0.14510022 0.49499992 C -0.14690022 0.49499992 -0.15130022 0.48979992 -0.15250023 0.48839992 C -0.15450023 0.4859999 -0.16050023 0.48019993 -0.16100022 0.47749993 C -0.16100022 0.46819994 -0.16830023 0.45849994 -0.17130022 0.44939992 L -0.16680022 0.44939992 C -0.16170022 0.4458999 -0.16320021 0.4374999 -0.15400022 0.44079992 C -0.15290022 0.43919992 -0.15300022 0.43759993 -0.15080023 0.43639994 C -0.15080023 0.43639994 -0.14850023 0.43639994 -0.14810023 0.43479994 C -0.14500023 0.43009993 -0.14140023 0.41209993 -0.14460023 0.40749994 C -0.14740023 0.40329993 -0.15040022 0.40349993 -0.15270023 0.39659995 C -0.15270023 0.39469996 -0.15270023 0.39249995 -0.15270023 0.39039996 C -0.15270023 0.38869995 -0.15620023 0.37879997 -0.15670022 0.37809998 C -0.15670022 0.37809998 -0.15920022 0.3762 -0.15930022 0.37569997 C -0.15930022 0.37569997 -0.15930022 0.36409998 -0.15930022 0.36329997 C -0.16240022 0.35489997 -0.17270023 0.34959996 -0.17330022 0.34869996 C -0.17450023 0.34669995 -0.17580022 0.34409997 -0.17720023 0.34189996 C -0.17880023 0.33929995 -0.17880023 0.33789995 -0.17970023 0.33539996 C -0.17970023 0.33419997 -0.18170023 0.33329996 -0.18190023 0.33209994 C -0.18190023 0.32989994 -0.17590024 0.32529995 -0.17610024 0.32139996 C -0.17610024 0.32009995 -0.18010023 0.31639996 -0.17930023 0.31429997 C -0.17930023 0.31209996 -0.17450023 0.30719998 -0.17460023 0.30479997 C -0.17460023 0.30159998 -0.18080023 0.29449996 -0.18160023 0.29109997 C -0.18160023 0.28939995 -0.17920023 0.28809997 -0.17990023 0.28689995 C -0.17990023 0.28539994 -0.18710023 0.27969995 -0.18810023 0.27799997 C -0.18810023 0.27669996 -0.18570024 0.27509996 -0.18810023 0.27279997 C -0.19010024 0.27069998 -0.18810023 0.27139997 -0.18810023 0.26969996 C -0.18810023 0.26769996 -0.19110024 0.26589996 -0.19200024 0.26379997 C -0.19200024 0.26199996 -0.19820024 0.24239996 -0.19810024 0.24119997 C -0.19810024 0.23979998 -0.20060024 0.23869997 -0.20140024 0.23729996 C -0.20140024 0.23589997 -0.20250024 0.23329997 -0.20320024 0.23229997 C -0.20320024 0.23229997 -0.20930023 0.23039997 -0.21050024 0.22859997 C -0.21050024 0.22709997 -0.21160024 0.22229996 -0.21320024 0.21989997 C -0.21320024 0.21869996 -0.21520025 0.21989997 -0.21620025 0.21809997 C -0.21620025 0.21809997 -0.21620025 0.21629997 -0.21740025 0.21559997 C -0.21920025 0.21309997 -0.22290026 0.21559997 -0.22540025 0.20619997 C -0.22870025 0.20389998 -0.23180026 0.20189998 -0.23460026 0.19909997 C -0.23460026 0.19909997 -0.23460026 0.19789997 -0.23620026 0.19759998 C -0.23850025 0.19759998 -0.24190027 0.19629997 -0.24380025 0.19469997 C -0.24490026 0.19469997 -0.25100026 0.19469997 -0.25160027 0.19469997 C -0.25160027 0.19469997 -0.25300026 0.19169997 -0.25340027 0.19159998 C -0.25660026 0.19159998 -0.26180026 0.19159998 -0.26450026 0.18899998 C -0.26670027 0.18709998 -0.26710027 0.17799997 -0.27100027 0.17929998 C -0.27100027 0.17929998 -0.27200025 0.17929998 -0.27260026 0.17929998 C -0.27510026 0.17609999 -0.28370026 0.17559998 -0.28730026 0.17349999 C -0.28830025 0.17349999 -0.29160026 0.17349999 -0.29160026 0.17249998 C -0.29160026 0.17069998 -0.29160026 0.16929999 -0.29160026 0.16749999 C -0.29350024 0.16559999 -0.29480025 0.1634 -0.29610026 0.16209999 C -0.29940027 0.16209999 -0.29810026 0.16109999 -0.30020025 0.1598 C -0.30590025 0.1598 -0.30640024 0.1598 -0.31010026 0.1637 C -0.31010026 0.1637 -0.31280026 0.1647 -0.31400025 0.1654 C -0.31590024 0.1664 -0.31650025 0.1699 -0.31920025 0.1683 C -0.31920025 0.1683 -0.32070026 0.16690001 -0.32140025 0.1663 C -0.32300025 0.1649 -0.32390025 0.1663 -0.32470027 0.1632 C -0.32940027 0.16070001 -0.34220028 0.1694 -0.34530026 0.1632 C -0.34750026 0.162 -0.34900025 0.1632 -0.35090026 0.16160001 C -0.35090026 0.16160001 -0.34840026 0.15020001 -0.35770026 0.14590001 C -0.35550025 0.14420001 -0.35330027 0.14310001 -0.35120025 0.14150001 C -0.35120025 0.1403 -0.35120025 0.1386 -0.35120025 0.13740002 C -0.35120025 0.13560002 -0.35010025 0.13220002 -0.35120025 0.13090001 C -0.35120025 0.1296 -0.35290027 0.12860002 -0.35340026 0.1271 C -0.35340026 0.12560001 -0.35340026 0.12380001 -0.35340026 0.122200005 C -0.35340026 0.122200005 -0.35570025 0.1207 -0.35640025 0.1207 C -0.35880026 0.118700005 -0.36140025 0.1175 -0.36330026 0.115100004 C -0.36330026 0.115100004 -0.36330026 0.1136 -0.36470026 0.1132 C -0.36640027 0.1119 -0.37200025 0.110300004 -0.37170026 0.107700005 C -0.37170026 0.107700005 -0.37040025 0.107700005 -0.37010026 0.105900005 C -0.37010026 0.1049 -0.37010026 0.1035 -0.37010026 0.10260001 C -0.36750025 0.09900001 -0.36170027 0.10060001 -0.36260027 0.09400001 C -0.36260027 0.091100015 -0.36510026 0.08860001 -0.36570027 0.085400015 C -0.36670026 0.085400015 -0.36680028 0.08340002 -0.36770028 0.082700014 C -0.37340027 0.082700014 -0.3726003 0.07630002 -0.3746003 0.07500002 C -0.3806003 0.070900016 -0.38530028 0.07340002 -0.3786003 0.06540002 C -0.3786003 0.06280002 -0.3844003 0.05860002 -0.3858003 0.05710002 C -0.3882003 0.05480002 -0.3870003 0.05000002 -0.3880003 0.04750002 C -0.3880003 0.046200022 -0.39240032 0.044000022 -0.3937003 0.042300023 C -0.3937003 0.042300023 -0.3951003 0.039100025 -0.3956003 0.03870002 L -0.3956003 0.03870002 C -0.39430028 0.03870002 -0.3956003 0.035900023 -0.3956003 0.034600023 C -0.3956003 0.034600023 -0.3981003 0.034600023 -0.3987003 0.033600025 C -0.4042003 0.028700024 -0.4107003 0.026500024 -0.4179003 0.023700025 C -0.41980028 0.023700025 -0.4193003 0.021400025 -0.4209003 0.020700024 C -0.42230028 0.020700024 -0.4319003 0.015800025 -0.4326003 0.016000025 C -0.4337003 0.016000025 -0.43450028 0.011400025 -0.4353003 0.010000025 C -0.4353003 0.008700025 -0.4387003 0.006400025 -0.4387003 0.0063000247 C -0.4387003 0.0023000245 -0.44100028 0.0018000249 -0.44400027 -2.9997528E-4 C -0.44400027 -2.9997528E-4 -0.44400027 -0.0020999752 -0.44400027 -0.0026999754 C -0.44400027 -0.0026999754 -0.44200027 -0.010099975 -0.44160026 -0.011099976 C -0.44160026 -0.012599976 -0.43910027 -0.013899975 -0.43940026 -0.015599975 C -0.43940026 -0.018199975 -0.43940026 -0.022299975 -0.44110027 -0.024599975 C -0.44420028 -0.032799974 -0.44780028 -0.031699974 -0.44590026 -0.042399973 C -0.44590026 -0.044599973 -0.44590026 -0.045899972 -0.44450027 -0.047799975 C -0.44450027 -0.047799975 -0.44450027 -0.048999976 -0.44450027 -0.049199976 C -0.44350028 -0.049199976 -0.44060028 -0.051699977 -0.44010025 -0.052399974 C -0.43840024 -0.054699976 -0.43740025 -0.059899975 -0.43520024 -0.061599974 C -0.43360025 -0.06289998 -0.42910025 -0.06529997 -0.42830023 -0.066299975 C -0.42830023 -0.066299975 -0.42660022 -0.069799975 -0.42720023 -0.07079998 C -0.42880023 -0.07079998 -0.43040022 -0.07079998 -0.43200022 -0.07079998 C -0.43200022 -0.07079998 -0.43460023 -0.072399974 -0.43620023 -0.07269998 C -0.43620023 -0.07269998 -0.43740022 -0.07389998 -0.43740022 -0.07459998 L -0.43740022 -0.07459998 C -0.43920022 -0.07459998 -0.4413002 -0.07599998 -0.4429002 -0.07649998 C -0.4449002 -0.07649998 -0.44780022 -0.07649998 -0.4497002 -0.07859998 C -0.4533002 -0.08069998 -0.4574002 -0.08639998 -0.46090022 -0.08729998 C -0.4657002 -0.08829998 -0.46870023 -0.08729998 -0.47330022 -0.08729998 C -0.4763002 -0.08729998 -0.4763002 -0.08889998 -0.4786002 -0.08959998 C -0.4818002 -0.08959998 -0.4786002 -0.08789998 -0.4867002 -0.08959998 C -0.4867002 -0.08959998 -0.4867002 -0.092799984 -0.4867002 -0.09379998 C -0.4878002 -0.09379998 -0.4892002 -0.09379998 -0.4906002 -0.09379998 C -0.4966002 -0.09529998 -0.4943002 -0.100699976 -0.49590018 -0.10429998 C -0.49590018 -0.10429998 -0.49910018 -0.10429998 -0.5002002 -0.10429998 C -0.5002002 -0.10429998 -0.5002002 -0.10429998 -0.5002002 -0.10429998 L -0.5002002 -0.10429998 C -0.49920022 -0.105899975 -0.5028002 -0.10979998 -0.5027002 -0.11039998 C -0.5027002 -0.111699976 -0.4951002 -0.11279998 -0.4941002 -0.112899974 C -0.4941002 -0.112899974 -0.4941002 -0.114699975 -0.4941002 -0.115599975 C -0.4941002 -0.11769997 -0.4930002 -0.120399974 -0.4923002 -0.12229998 L -0.4923002 -0.12229998 C -0.49430022 -0.123499975 -0.4950002 -0.12509997 -0.4968002 -0.12649998 C -0.4968002 -0.12649998 -0.49540022 -0.12809998 -0.49520022 -0.12899998 C -0.4917002 -0.13869998 -0.4862002 -0.13099998 -0.4815002 -0.13999999 C -0.4815002 -0.13999999 -0.4797002 -0.14299999 -0.4792002 -0.14449999 L -0.4792002 -0.14449999 C -0.4792002 -0.14449999 -0.4770002 -0.14449999 -0.4761002 -0.14449999 C -0.4761002 -0.14449999 -0.4739002 -0.1458 -0.4728002 -0.14609998 L -0.47110018 -0.14609998 C -0.4622002 -0.14799999 -0.4643002 -0.15119998 -0.45920017 -0.15489998 C -0.45780018 -0.15489998 -0.4539002 -0.15629998 -0.45200017 -0.15689999 C -0.45010018 -0.15689999 -0.44730017 -0.15299998 -0.44370016 -0.15169999 C -0.44110015 -0.15069999 -0.43210018 -0.14879999 -0.43060017 -0.14789999 C -0.42870018 -0.14689998 -0.42830017 -0.14429998 -0.42660016 -0.14339998 C -0.42150015 -0.14069998 -0.42440015 -0.14529999 -0.41960016 -0.14339998 C -0.41460016 -0.14239998 -0.41050017 -0.13829999 -0.40590015 -0.13629998 C -0.40590015 -0.13629998 -0.40320015 -0.13629998 -0.40230015 -0.13629998 C -0.40080014 -0.13629998 -0.39290014 -0.13809998 -0.39210016 -0.13779998 C -0.39210016 -0.13779998 -0.38980016 -0.13659997 -0.38890016 -0.13639998 C -0.38780016 -0.13639998 -0.38690016 -0.13859999 -0.38610017 -0.13849999 C -0.38270018 -0.13849999 -0.38260016 -0.13659999 -0.37800017 -0.137 C -0.37800017 -0.137 -0.37560016 -0.14979999 -0.37350017 -0.1504 C -0.37220016 -0.1504 -0.36880016 -0.14739999 -0.36780018 -0.1472 C -0.36610016 -0.1472 -0.36780018 -0.1498 -0.36780018 -0.15 C -0.36780018 -0.15100001 -0.37060016 -0.15890001 -0.37050018 -0.1596 C -0.37050018 -0.1596 -0.36820018 -0.1596 -0.36720017 -0.1596 C -0.36470017 -0.1596 -0.36130017 -0.1611 -0.35950017 -0.1631 C -0.35950017 -0.1631 -0.35540017 -0.1689 -0.35530016 -0.1691 C -0.35530016 -0.1691 -0.35630015 -0.1722 -0.35530016 -0.17300001 C -0.35530016 -0.17300001 -0.35260016 -0.1745 -0.35160017 -0.1755 C -0.35010016 -0.177 -0.34990016 -0.1795 -0.34790018 -0.1805 C -0.33980018 -0.1805 -0.3370002 -0.1875 -0.32970017 -0.1883 C -0.32970017 -0.1883 -0.32770017 -0.1883 -0.32730016 -0.1883 L -0.32580015 -0.1859 C -0.32580015 -0.1859 -0.32050017 -0.1823 -0.31970015 -0.1826 C -0.31970015 -0.1826 -0.31870016 -0.18390001 -0.31800014 -0.1841 C -0.31650013 -0.1841 -0.31240013 -0.1864 -0.31200013 -0.1877 C -0.31200013 -0.1877 -0.31200013 -0.1892 -0.31200013 -0.19 C -0.31200013 -0.19 -0.30650014 -0.1944 -0.30580014 -0.1948 C -0.30400014 -0.1948 -0.30210015 -0.1948 -0.30030015 -0.1948 C -0.29930016 -0.1948 -0.29920015 -0.1928 -0.29800016 -0.19260001 C -0.29670015 -0.19260001 -0.29450014 -0.19260001 -0.29360014 -0.19260001 C -0.29260015 -0.19260001 -0.29210013 -0.19450001 -0.29090014 -0.19460002 Z"/>
<path id="star" d="M 0.0 -1.0 L 0.2245 -0.309 L 0.9511 -0.309 L 0.3633 0.118 L 0.5878 0.809 L 0.0 0.382 L -0.5878 0.809 L -0.3633 0.118 L -0.9511 -0.309 L -0.2245 -0.309 Z"/>
<linearGradient id="glaze" x1="0%" y1="0%" x2="100%" y2="100%">
<stop offset="0%" stop-color="rgb(255,255,255)" stop-opacity="0.2"/>
<stop offset="49.999%" stop-color="rgb(255,255,255)" stop-opacity="0.0"/>
<stop offset="50.001%" stop-color="rgb(0,0,0)" stop-opacity="0.0"/>
<stop offset="100%" stop-color="rgb(0,0,0)" stop-opacity="0.2"/>
</linearGradient>
</defs>
<g>
<rect x="0" y="0" width="480" height="360" class="blue"/>
<use xlink:href="#kosovo" transform="translate(244.8 210.6) scale(201.6 201.6) rotate(0)" class="gold"/>
<use xlink:href="#star" transform="translate(123.84 99) scale(19.2 19.2) rotate(0)" class="white"/>
<use xlink:href="#star" transform="translate(168.96 81.72) scale(19.2 19.2) rotate(0)" class="white"/>
<use xlink:href="#star" transform="translate(216 73.08) scale(19.2 19.2) rotate(0)" class="white"/>
<use xlink:href="#star" transform="translate(264 73.08) scale(19.2 19.2) rotate(0)" class="white"/>
<use xlink:href="#star" transform="translate(311.04 81.72) scale(19.2 19.2) rotate(0)" class="white"/>
<use xlink:href="#star" transform="translate(356.16 99) scale(19.2 19.2) rotate(0)" class="white"/>
</g>
<g>
<rect x="0" y="0" width="480" height="360" fill="url(#glaze)"/>
<path d="M 30 30 L 450 30 L 450 330 L 30 330 Z M 60 60 L 60 300 L 420 300 L 420 60 Z" fill="rgb(255,255,255)" opacity="0.4"/>
<path d="M 0 0 L 480 0 L 480 360 L 0 360 Z M 30 30 L 30 330 L 450 330 L 450 30 Z" fill="rgb(0,0,0)" opacity="0.4"/>
</g>
</svg>
