<?xml version="1.0"?>
<svg xmlns="http://www.w3.org/2000/svg" xmlns:xlink="http://www.w3.org/1999/xlink" version="1.1" width="480" height="360" viewBox="0 0 480 360">
<!-- Generated by Kreative Vexillo v1.0 -->
<style>
.blue{fill:rgb(0,0,204);}
.red{fill:rgb(255,0,0);}
.yellow{fill:rgb(255,255,0);}
</style>
<defs>
<linearGradient id="glaze" x1="0%" y1="0%" x2="100%" y2="100%">
<stop offset="0%" stop-color="rgb(255,255,255)" stop-opacity="0.2"/>
<stop offset="49.999%" stop-color="rgb(255,255,255)" stop-opacity="0.0"/>
<stop offset="50.001%" stop-color="rgb(0,0,0)" stop-opacity="0.0"/>
<stop offset="100%" stop-color="rgb(0,0,0)" stop-opacity="0.2"/>
</linearGradient>
</defs>
<g>
<rect x="0" y="0" width="480" height="360" class="blue"/>
<path d="M 0 0 L 0 31.1538 L 0 31.1538 L 198.4616 180 L 198.4616 180 L 0 328.8462 L 0 328.8462 L 0 360 L 41.5384 360 L 240 211.1538 L 240 211.1538 L 438.4616 360 L 480 360 L 480 328.8462 L 281.5384 180 L 480 31.1538 L 480 0 L 438.4615 0 L 240 148.8462 L 240 148.8462 L 41.5384 0 Z" class="yellow"/>
<g>
<rect x="0" y="155.0769" width="480" height="49.8462" class="yellow"/>
<rect x="215.0769" y="0" width="49.8462" height="360" class="yellow"/>
</g>
<path d="M 0 0 L 0 20.7692 L 0 20.7692 L 212.3077 180 L 212.3077 180 L 0 339.2308 L 0 339.2308 L 0 360 L 27.6923 360 L 240 200.7692 L 240 200.7692 L 240 200.7692 L 240 200.7692 L 240 200.7692 L 240 200.7692 L 452.3077 360 L 480 360 L 480 339.2308 L 267.6923 180 L 267.6923 180 L 480 20.7692 L 480 0 L 452.3077 0 L 240 159.2308 L 240 159.2308 L 27.6923 0 Z" class="red"/>
<g>
<rect x="0" y="163.3846" width="480" height="33.2308" class="red"/>
<rect x="223.3846" y="0" width="33.2308" height="360" class="red"/>
</g>
<ellipse cx="240" cy="180" rx="96.9231" ry="96.9231" class="yellow"/>
<ellipse cx="240" cy="180" rx="83.0769" ry="83.0769" class="red"/>
</g>
<g>
<rect x="0" y="0" width="480" height="360" fill="url(#glaze)"/>
<path d="M 30 30 L 450 30 L 450 330 L 30 330 Z M 60 60 L 60 300 L 420 300 L 420 60 Z" fill="rgb(255,255,255)" opacity="0.4"/>
<path d="M 0 0 L 480 0 L 480 360 L 0 360 Z M 30 30 L 30 330 L 450 330 L 450 30 Z" fill="rgb(0,0,0)" opacity="0.4"/>
</g>
</svg>
