<?xml version="1.0"?>
<svg xmlns="http://www.w3.org/2000/svg" xmlns:xlink="http://www.w3.org/1999/xlink" version="1.1" width="480" height="360" viewBox="0 0 480 360">
<!-- Generated by Kreative Vexillo v1.0 -->
<style>
.blue{fill:rgb(0,51,160);}
.orange{fill:rgb(242,168,0);}
.red{fill:rgb(217,0,18);}
.white{fill:rgb(255,255,255);}
</style>
<defs>
<path id="teeth" d="M 0.0 0.0 V 1.0 H -1.0 V 2.0 H -2.0 V 3.0 H -3.0 V 4.0 H -4.0 V 5.0 H -3.0 V 6.0 H -2.0 V 7.0 H -1.0 V 8.0 H 0.0 V 9.0 H -2.0 V 8.0 H -3.0 V 7.0 H -4.0 V 6.0 H -5.0 V 5.0 H -6.0 V 4.0 H -5.0 V 3.0 H -4.0 V 2.0 H -3.0 V 1.0 H -2.0 V 0.0 Z"/>
<linearGradient id="glaze" x1="0%" y1="0%" x2="100%" y2="100%">
<stop offset="0%" stop-color="rgb(255,255,255)" stop-opacity="0.2"/>
<stop offset="49.999%" stop-color="rgb(255,255,255)" stop-opacity="0.0"/>
<stop offset="50.001%" stop-color="rgb(0,0,0)" stop-opacity="0.0"/>
<stop offset="100%" stop-color="rgb(0,0,0)" stop-opacity="0.2"/>
</linearGradient>
</defs>
<g>
<g>
<rect x="0" y="0" width="480" height="120" class="red"/>
<rect x="0" y="120" width="480" height="120" class="blue"/>
<rect x="0" y="240" width="480" height="120" class="orange"/>
</g>
<use xlink:href="#teeth" transform="translate(480 0) scale(53.3333 40) rotate(0)" class="white"/>
</g>
<g>
<rect x="0" y="0" width="480" height="360" fill="url(#glaze)"/>
<path d="M 30 30 L 450 30 L 450 330 L 30 330 Z M 60 60 L 60 300 L 420 300 L 420 60 Z" fill="rgb(255,255,255)" opacity="0.4"/>
<path d="M 0 0 L 480 0 L 480 360 L 0 360 Z M 30 30 L 30 330 L 450 330 L 450 30 Z" fill="rgb(0,0,0)" opacity="0.4"/>
</g>
</svg>
