<?xml version="1.0"?>
<svg xmlns="http://www.w3.org/2000/svg" xmlns:xlink="http://www.w3.org/1999/xlink" version="1.1" width="480" height="360" viewBox="0 0 480 360">
<!-- Generated by Kreative Vexillo v1.0 -->
<style>
.green{fill:rgb(0,153,62);}
.red{fill:rgb(200,49,42);}
.white{fill:rgb(255,255,255);}
</style>
<defs>
<path id="hand" d="M -0.1373 0.0586 C -0.1373 0.0586 -0.1526 0.065 -0.1421 0.187 C -0.13360001 0.2874 -0.0978 0.3201 -0.0978 0.3201 L -0.082200006 0.38230002 L 0.066 0.38290003 C 0.066 0.38290003 0.0687 0.34440002 0.0744 0.33220002 C 0.0885 0.30230004 0.1444 0.26810002 0.1683 0.21650001 C 0.1941 0.18500002 0.1812 0.12080001 0.2329 0.058900014 C 0.2586 0.028100014 0.20279999 0.041200012 0.20279999 0.041200012 C 0.1722 0.061500013 0.1573 0.08530001 0.1496 0.10190001 C 0.1444 0.13390002 0.1204 0.16070001 0.118200004 0.13750002 C 0.118200004 0.13750002 0.109500006 0.09730002 0.08330001 0.019100018 C 0.08070001 -0.004099982 0.06950001 -0.08419998 0.06710001 -0.14539999 C 0.06540001 -0.18519999 0.030600011 -0.18759999 0.027600009 -0.14719999 L 0.023400009 0.013000011 L 0.015100009 -0.17199999 C 0.011600008 -0.22439998 -0.028099991 -0.21659999 -0.02979999 -0.1732 L -0.03149999 0.0194 L -0.03869999 -0.1673 C -0.049399987 -0.20300001 -0.07759999 -0.18180001 -0.07819999 -0.1432 L -0.08299999 0.03850001 C -0.08299999 0.03850001 -0.08909999 -0.06099999 -0.09039999 -0.102999985 C -0.09169999 -0.12829998 -0.12129999 -0.12639998 -0.124099985 -0.09029999 C -0.128 -0.0382 -0.1343 0.0045 -0.1373 0.0586 L -0.1373 0.0586 Z"/>
<path id="star" d="M 0.0 -1.0 L 0.2245 -0.309 L 0.9511 -0.309 L 0.3633 0.118 L 0.5878 0.809 L 0.0 0.382 L -0.5878 0.809 L -0.3633 0.118 L -0.9511 -0.309 L -0.2245 -0.309 Z"/>
<linearGradient id="glaze" x1="0%" y1="0%" x2="100%" y2="100%">
<stop offset="0%" stop-color="rgb(255,255,255)" stop-opacity="0.2"/>
<stop offset="49.999%" stop-color="rgb(255,255,255)" stop-opacity="0.0"/>
<stop offset="50.001%" stop-color="rgb(0,0,0)" stop-opacity="0.0"/>
<stop offset="100%" stop-color="rgb(0,0,0)" stop-opacity="0.2"/>
</linearGradient>
</defs>
<g>
<g>
<rect x="0" y="0" width="480" height="51.4286" class="green"/>
<rect x="0" y="51.4286" width="480" height="51.4286" class="white"/>
<rect x="0" y="102.8571" width="480" height="51.4286" class="green"/>
<rect x="0" y="154.2857" width="480" height="51.4286" class="white"/>
<rect x="0" y="205.7143" width="480" height="51.4286" class="green"/>
<rect x="0" y="257.1429" width="480" height="51.4286" class="white"/>
<rect x="0" y="308.5714" width="480" height="51.4286" class="green"/>
</g>
<rect x="0" y="0" width="274.2857" height="154.2857" class="red"/>
<g>
<use xlink:href="#star" transform="translate(42.4991 92.677) scale(12.0343 12.0343) rotate(0)" class="white"/>
<use xlink:href="#star" transform="translate(63.1893 56.8405) scale(12.0343 12.0343) rotate(0)" class="white"/>
<use xlink:href="#star" transform="translate(96.6668 32.5177) scale(12.0343 12.0343) rotate(0)" class="white"/>
<use xlink:href="#star" transform="translate(137.1429 23.9143) scale(12.0343 12.0343) rotate(0)" class="white"/>
<use xlink:href="#star" transform="translate(177.619 32.5177) scale(12.0343 12.0343) rotate(0)" class="white"/>
<use xlink:href="#star" transform="translate(211.0964 56.8405) scale(12.0343 12.0343) rotate(0)" class="white"/>
<use xlink:href="#star" transform="translate(231.7866 92.677) scale(12.0343 12.0343) rotate(0)" class="white"/>
</g>
<use xlink:href="#hand" transform="translate(137.1429 77.1429) scale(154.2857 154.2857) rotate(0)" class="white"/>
</g>
<g>
<rect x="0" y="0" width="480" height="360" fill="url(#glaze)"/>
<path d="M 30 30 L 450 30 L 450 330 L 30 330 Z M 60 60 L 60 300 L 420 300 L 420 60 Z" fill="rgb(255,255,255)" opacity="0.4"/>
<path d="M 0 0 L 480 0 L 480 360 L 0 360 Z M 30 30 L 30 330 L 450 330 L 450 30 Z" fill="rgb(0,0,0)" opacity="0.4"/>
</g>
</svg>
