<?xml version="1.0"?>
<svg xmlns="http://www.w3.org/2000/svg" xmlns:xlink="http://www.w3.org/1999/xlink" version="1.1" width="480" height="360" viewBox="0 0 480 360">
<!-- Generated by Kreative Vexillo v1.0 -->
<style>
.blue{fill:rgb(0,0,214);}
.green{fill:rgb(26,205,0);}
</style>
<defs>
<path id="glosa" d="M 0.7271 0.0516 L 1.0535 -0.6478 L 1.0379 -0.6551 L 0.55789995 0.3735 L 0.56409997 0.3764 L 0.5638 0.3769 C 0.617 0.4017 0.65139997 0.4556 0.65139997 0.5143 C 0.65139997 0.589 0.59699994 0.6512 0.5257 0.6635 V 0.5143 H 0.47429997 V 0.6635 C 0.40299997 0.6512 0.34859997 0.589 0.34859997 0.5143 C 0.34859997 0.4556 0.38299996 0.4017 0.43619996 0.3769 L 0.43589997 0.3764 L 0.4421 0.3735 L -0.0379 -0.6551 L -0.0535 -0.6478 L 0.2729 0.0516 C 0.10449998 0.1376 0.0 0.3079 0.0 0.4971 C 0.0 0.77279997 0.2243 0.9971 0.5 0.9971 S 1.0 0.77279997 1.0 0.4971 C 1.0 0.4014 0.9729 0.30839998 0.9216 0.22819999 C 0.8735 0.1529 0.8064 0.0921 0.7271 0.0516 Z M 0.5997 0.3247 L 0.6512 0.2143 C 0.7468 0.2644 0.81009996 0.3564 0.8232 0.4618 C 0.8054 0.4695 0.7923 0.4859 0.7894 0.5057 H 0.7141 C 0.7109 0.4295 0.6671 0.3602 0.5997 0.3247 Z M 0.9822 0.5229 C 0.9763 0.6354 0.93160003 0.7377 0.8614 0.817 L 0.8064 0.7665 C 0.8206 0.7454 0.8192 0.7172 0.8026 0.6977 C 0.82710004 0.65970004 0.84470004 0.6169 0.8535 0.57100004 C 0.8786 0.5676 0.8984 0.54800004 0.9022 0.52300006 H 0.9822 Z M 0.7141 0.5229 H 0.7893 C 0.7921 0.54139996 0.80370003 0.55689996 0.8197 0.5652 C 0.8117 0.6066 0.7957 0.6451 0.7736 0.67939997 C 0.7564 0.6749 0.7377 0.67859995 0.7233 0.69009995 L 0.6716 0.64259994 C 0.6968 0.6089 0.7123 0.5676 0.7141 0.5229 Z M 0.6607 0.6558 L 0.7117 0.7026 C 0.70110005 0.7183 0.69920003 0.738 0.7058 0.7551 C 0.6626 0.7904 0.6103 0.8148 0.5529 0.82420003 C 0.5477 0.81140006 0.538 0.80090004 0.52570003 0.7947 V 0.72690004 C 0.5793 0.7205 0.6268 0.6943 0.6607 0.6558 Z M 0.4743 0.727 V 0.7948 C 0.462 0.801 0.4523 0.81149995 0.44709998 0.8243 C 0.39299998 0.8154 0.3434 0.7932 0.30179998 0.7611 C 0.30929998 0.7434 0.3074 0.7227 0.2961 0.7064 L 0.3441 0.6611 C 0.3776 0.6967 0.4232 0.7208 0.4743 0.727 Z M 0.0979 0.5229 C 0.1017 0.5478 0.1215 0.5675 0.14660001 0.57089996 C 0.156 0.62009996 0.1755 0.66569996 0.2027 0.70559996 C 0.1887 0.7251 0.1885 0.75149995 0.20220001 0.77129996 L 0.1456 0.82469994 C 0.07140001 0.7444999 0.024000004 0.63909996 0.017800003 0.5228999 H 0.0979 L 0.0979 0.5229 Z M 0.2859 0.5229 C 0.28779998 0.57019997 0.305 0.6135 0.3328 0.6481 L 0.2843 0.6939 C 0.2687 0.6817 0.2482 0.6786 0.2301 0.685 C 0.206 0.6494 0.1888 0.6088 0.18040001 0.5652 C 0.19640002 0.557 0.20800002 0.54139996 0.21080002 0.5229 H 0.2859 L 0.2859 0.5229 Z M 0.286 0.5057 H 0.2107 C 0.2077 0.48589998 0.1947 0.4695 0.1769 0.46179998 C 0.1901 0.35669997 0.2534 0.26439998 0.3488 0.21429998 L 0.4003 0.32469997 C 0.3329 0.3602 0.2891 0.4295 0.286 0.5057 Z M 0.2802 0.0672 L 0.3343 0.1832 C 0.22780001 0.2385 0.15720001 0.3414 0.14280002 0.4583 C 0.11950002 0.4631 0.10140002 0.482 0.09790002 0.5057 H 0.0174 C 0.0173 0.5028 0.0172 0.5 0.0172 0.4971 C 0.0171 0.3146 0.1178 0.1503 0.2802 0.0672 Z M 0.1574 0.8371 L 0.2139 0.7838 C 0.2329 0.79870003 0.2592 0.8 0.2795 0.78720003 C 0.32660002 0.8238 0.3829 0.84900004 0.4443 0.8586 C 0.4481 0.87530005 0.45929998 0.88920003 0.4742 0.89680004 V 0.97940004 C 0.3507 0.9728 0.2393 0.9196 0.1574 0.8371 Z M 0.5257 0.9793 V 0.8967 C 0.5406 0.8891 0.55179995 0.87530005 0.5556 0.8585 C 0.62 0.8485 0.6787 0.8213 0.7271 0.78180003 C 0.7478 0.79580003 0.7753 0.7946 0.7947 0.7789 L 0.84970003 0.8294 C 0.7672 0.9163 0.653 0.9726 0.5257 0.9793 Z M 0.9826 0.5057 H 0.90209997 C 0.89849997 0.482 0.88049996 0.4631 0.85719997 0.4583 C 0.8429 0.3409 0.77239996 0.2385 0.66559994 0.1832 L 0.7196999 0.067200005 C 0.8797999 0.14930001 0.98269993 0.3169 0.98269993 0.4972 C 0.9829 0.5 0.9827 0.5028 0.9826 0.5057 Z"/>
<linearGradient id="glaze" x1="0%" y1="0%" x2="100%" y2="100%">
<stop offset="0%" stop-color="rgb(255,255,255)" stop-opacity="0.2"/>
<stop offset="49.999%" stop-color="rgb(255,255,255)" stop-opacity="0.0"/>
<stop offset="50.001%" stop-color="rgb(0,0,0)" stop-opacity="0.0"/>
<stop offset="100%" stop-color="rgb(0,0,0)" stop-opacity="0.2"/>
</linearGradient>
</defs>
<g>
<rect x="0" y="0" width="480" height="360" class="green"/>
<use xlink:href="#glosa" transform="translate(100 40) scale(280 280) rotate(0)" class="blue"/>
</g>
<g>
<rect x="0" y="0" width="480" height="360" fill="url(#glaze)"/>
<path d="M 30 30 L 450 30 L 450 330 L 30 330 Z M 60 60 L 60 300 L 420 300 L 420 60 Z" fill="rgb(255,255,255)" opacity="0.4"/>
<path d="M 0 0 L 480 0 L 480 360 L 0 360 Z M 30 30 L 30 330 L 450 330 L 450 30 Z" fill="rgb(0,0,0)" opacity="0.4"/>
</g>
</svg>
