<?xml version="1.0"?>
<svg xmlns="http://www.w3.org/2000/svg" xmlns:xlink="http://www.w3.org/1999/xlink" version="1.1" width="480" height="360" viewBox="0 0 480 360">
<!-- Generated by Kreative Vexillo v1.0 -->
<style>
.blue{fill:rgb(51,153,255);}
.white{fill:rgb(255,255,255);}
</style>
<defs>
<linearGradient id="glaze" x1="0%" y1="0%" x2="100%" y2="100%">
<stop offset="0%" stop-color="rgb(255,255,255)" stop-opacity="0.2"/>
<stop offset="49.999%" stop-color="rgb(255,255,255)" stop-opacity="0.0"/>
<stop offset="50.001%" stop-color="rgb(0,0,0)" stop-opacity="0.0"/>
<stop offset="100%" stop-color="rgb(0,0,0)" stop-opacity="0.2"/>
</linearGradient>
</defs>
<g>
<rect x="0" y="0" width="480" height="360" class="blue"/>
<path d="M 150.6262 180 L 329.3738 180 L 240 334.8 Z" class="white"/>
<path d="M 210.2087 180 L 240 25.2 L 269.7913 180 L 240 216 Z" class="white"/>
<path d="M 210.2087 283.2 L 33.6 334.8 L 180.4175 231.6 L 240 216 Z" class="white"/>
<path d="M 269.7913 283.2 L 446.4 334.8 L 299.5825 231.6 L 240 216 Z" class="white"/>
</g>
<g>
<rect x="0" y="0" width="480" height="360" fill="url(#glaze)"/>
<path d="M 30 30 L 450 30 L 450 330 L 30 330 Z M 60 60 L 60 300 L 420 300 L 420 60 Z" fill="rgb(255,255,255)" opacity="0.4"/>
<path d="M 0 0 L 480 0 L 480 360 L 0 360 Z M 30 30 L 30 330 L 450 330 L 450 30 Z" fill="rgb(0,0,0)" opacity="0.4"/>
</g>
</svg>
