<?xml version="1.0"?>
<svg xmlns="http://www.w3.org/2000/svg" xmlns:xlink="http://www.w3.org/1999/xlink" version="1.1" width="480" height="360" viewBox="0 0 480 360">
<!-- Generated by Kreative Vexillo v1.0 -->
<style>
.gold{fill:rgb(255,245,95);}
.purple{fill:rgb(102,0,102);}
</style>
<defs>
<path id="globe" d="M 0.5 0.0 C 0.2241 0.0 0.0 0.2241 0.0 0.5 S 0.2241 1.0 0.5 1.0 S 1.0 0.7759 1.0 0.5 S 0.7759 0.0 0.5 0.0 Z M 0.9492 0.4751 H 0.7871 C 0.7837 0.3896 0.7651 0.314 0.7407 0.249 C 0.7817 0.22749999 0.81200004 0.2055 0.8281 0.1924 C 0.8984 0.2676 0.9434 0.3662 0.9492 0.4751 Z M 0.5698 0.9443 C 0.5552 0.9468 0.54 0.9482 0.5249 0.9492 V 0.7383 C 0.5815 0.7422 0.63280004 0.7573 0.6758 0.77540004 C 0.6313 0.8745 0.5771 0.9365 0.5698 0.9443 Z M 0.7217 0.7974 C 0.7529 0.8145 0.7769 0.8311 0.79150003 0.8423 C 0.75 0.8779 0.7017 0.9058 0.6489 0.9243 C 0.6709 0.8936 0.6973 0.8506 0.7217 0.7974 Z M 0.3306 0.7725 C 0.3721 0.7554 0.4214 0.7417 0.47509998 0.73829997 V 0.9492 C 0.46 0.9482 0.4448 0.9468 0.4302 0.9443 C 0.4214 0.9341 0.3716 0.8716 0.3306 0.7725 Z M 0.3545 0.9258 C 0.3008 0.9072 0.251 0.8789 0.2085 0.8423 C 0.2241 0.8306 0.2505 0.812 0.2852 0.79399997 C 0.3081 0.8496 0.334 0.894 0.3545 0.9258 Z M 0.4302 0.0557 C 0.4448 0.0532 0.46 0.0518 0.4751 0.0508 V 0.2617 C 0.4214 0.2583 0.37260002 0.2446 0.33110002 0.2275 C 0.3716 0.1284 0.4214 0.0659 0.4302 0.0557 Z M 0.2852 0.2061 C 0.2505 0.188 0.2241 0.1694 0.2085 0.1577 C 0.251 0.1211 0.3008 0.0928 0.3545 0.074200004 C 0.334 0.106 0.3081 0.1504 0.2852 0.2061 Z M 0.6763 0.2246 C 0.6328 0.2427 0.5815 0.2578 0.5249 0.2617 V 0.0508 C 0.54 0.0518 0.5552 0.0532 0.5703 0.0557 C 0.5771 0.0635 0.6313 0.1255 0.6763 0.2246 Z M 0.6489 0.0757 C 0.7017 0.0942 0.75 0.1221 0.7915 0.1577 C 0.7769 0.1689 0.7529 0.1855 0.7217 0.2026 C 0.6973 0.1494 0.6709 0.1064 0.6489 0.0757 Z M 0.4751 0.3115 V 0.4751 H 0.2754 C 0.2783 0.4004 0.2935 0.3325 0.313 0.2744 C 0.3594 0.2935 0.4146 0.3086 0.4751 0.3115 Z M 0.4751 0.5249 V 0.68850005 C 0.4141 0.6914 0.3594 0.7065 0.313 0.7256 C 0.2935 0.6675 0.2783 0.5996 0.27539998 0.5249 H 0.4751 Z M 0.5249 0.6885 V 0.5249 H 0.7368 C 0.7339 0.6011 0.71680003 0.6699 0.6948 0.72900003 C 0.647 0.7085 0.5894 0.6919 0.5249 0.6885 Z M 0.5249 0.4751 V 0.3115 C 0.5894 0.30810001 0.647 0.2915 0.6953 0.27100003 C 0.7173 0.33010003 0.7339 0.39890003 0.73679996 0.47510004 H 0.5249 Z M 0.1719 0.1924 C 0.1895 0.2066 0.2222 0.2305 0.2671 0.2534 C 0.2451 0.3169 0.22850001 0.3916 0.2256 0.47509998 H 0.0508 C 0.0566 0.3662 0.1016 0.2676 0.1719 0.1924 Z M 0.0508 0.5249 H 0.22559999 C 0.2285 0.6084 0.24509999 0.6831 0.26709998 0.74660003 C 0.22219998 0.7695 0.18949997 0.7935 0.17189997 0.8076 C 0.1016 0.7324 0.0566 0.6338 0.0508 0.5249 Z M 0.8281 0.8076 C 0.812 0.7944 0.7817 0.7725 0.7407 0.751 C 0.7651 0.6861 0.7837 0.61039996 0.7871 0.52489996 H 0.94920003 C 0.9434 0.6338 0.8984 0.7324 0.8281 0.8076 Z"/>
<linearGradient id="glaze" x1="0%" y1="0%" x2="100%" y2="100%">
<stop offset="0%" stop-color="rgb(255,255,255)" stop-opacity="0.2"/>
<stop offset="49.999%" stop-color="rgb(255,255,255)" stop-opacity="0.0"/>
<stop offset="50.001%" stop-color="rgb(0,0,0)" stop-opacity="0.0"/>
<stop offset="100%" stop-color="rgb(0,0,0)" stop-opacity="0.2"/>
</linearGradient>
</defs>
<g>
<rect x="0" y="0" width="480" height="360" class="purple"/>
<rect x="0" y="0" width="180" height="180" class="gold"/>
<use xlink:href="#globe" transform="translate(22.5 22.5) scale(135 135) rotate(0)" class="purple"/>
</g>
<g>
<rect x="0" y="0" width="480" height="360" fill="url(#glaze)"/>
<path d="M 30 30 L 450 30 L 450 330 L 30 330 Z M 60 60 L 60 300 L 420 300 L 420 60 Z" fill="rgb(255,255,255)" opacity="0.4"/>
<path d="M 0 0 L 480 0 L 480 360 L 0 360 Z M 30 30 L 30 330 L 450 330 L 450 30 Z" fill="rgb(0,0,0)" opacity="0.4"/>
</g>
</svg>
