<?xml version="1.0"?>
<svg xmlns="http://www.w3.org/2000/svg" xmlns:xlink="http://www.w3.org/1999/xlink" version="1.1" width="480" height="360" viewBox="0 0 480 360">
<!-- Generated by Kreative Vexillo v1.0 -->
<style>
.indigo{fill:rgb(102,0,255);}
</style>
<defs>
<path id="-glazearea" d="M 0.0 0.0 L 1.0 0.0 L 0.75 0.5 L 1.0 1.0 L 0.0 1.0 Z"/>
<linearGradient id="glaze" x1="0%" y1="0%" x2="100%" y2="100%">
<stop offset="0%" stop-color="rgb(255,255,255)" stop-opacity="0.2"/>
<stop offset="49.999%" stop-color="rgb(255,255,255)" stop-opacity="0.0"/>
<stop offset="50.001%" stop-color="rgb(0,0,0)" stop-opacity="0.0"/>
<stop offset="100%" stop-color="rgb(0,0,0)" stop-opacity="0.2"/>
</linearGradient>
</defs>
<g>
<path d="M 0 0 L 480 0 L 360 180 L 480 360 L 0 360 Z" class="indigo"/>
</g>
<g>
<path d="M 0 0 L 480 0 L 360 180 L 480 360 L 0 360 Z" fill="url(#glaze)"/>
<path d="M 367.889 60 L 310.077 146.718 L 287.889 180 L 310.077 213.282 L 367.889 300 L 60 300 L 60 60 Z M 30 30 L 30 330 L 423.9445 330 L 335.0385 196.641 L 323.9445 180 L 335.0385 163.359 L 423.9445 30 Z" fill="rgb(255,255,255)" opacity="0.4"/>
<path d="M 423.9445 30 L 335.0385 163.359 L 323.9445 180 L 335.0385 196.641 L 423.9445 330 L 30 330 L 30 30 Z M 0 0 L 0 360 L 480 360 L 360 180 L 480 0 Z" fill="rgb(0,0,0)" opacity="0.4"/>
</g>
</svg>
