<?xml version="1.0"?>
<svg xmlns="http://www.w3.org/2000/svg" xmlns:xlink="http://www.w3.org/1999/xlink" version="1.1" width="480" height="360" viewBox="0 0 480 360">
<!-- Generated by Kreative Vexillo v1.0 -->
<style>
.indigo{fill:rgb(102,0,255);}
</style>
<defs>
<path id="-glazearea" d="M 0.0 0.0 L 1.0 0.25 L 1.0 0.75 L 0.0 1.0 Z"/>
<linearGradient id="glaze" x1="0%" y1="0%" x2="100%" y2="100%">
<stop offset="0%" stop-color="rgb(255,255,255)" stop-opacity="0.2"/>
<stop offset="49.999%" stop-color="rgb(255,255,255)" stop-opacity="0.0"/>
<stop offset="50.001%" stop-color="rgb(0,0,0)" stop-opacity="0.0"/>
<stop offset="100%" stop-color="rgb(0,0,0)" stop-opacity="0.2"/>
</linearGradient>
</defs>
<g>
<path d="M 0 0 L 480 90 L 480 270 L 0 360 Z" class="indigo"/>
</g>
<g>
<path d="M 0 0 L 480 90 L 480 270 L 0 360 Z" fill="url(#glaze)"/>
<path d="M 60 72.2956 L 420 139.7956 L 420 139.7956 L 420 220.2044 L 420 220.2044 L 60 287.7044 L 60 72.2956 Z M 30 36.1478 L 30 36.1478 L 30 323.8522 L 30 323.8522 L 450 245.1022 L 450 114.8978 L 450 114.8978 L 30 36.1478 L 30 36.1478 Z" fill="rgb(255,255,255)" opacity="0.4"/>
<path d="M 30 36.1478 L 30 36.1478 L 30 36.1478 L 450 114.8978 L 450 114.8978 L 450 245.1022 L 30 323.8522 L 30 323.8522 L 30 36.1478 L 30 36.1478 L 30 36.1478 Z M 0 0 L 0 360 L 480 270 L 480 90 L 0 0 Z" fill="rgb(0,0,0)" opacity="0.4"/>
</g>
</svg>
