<?xml version="1.0"?>
<svg xmlns="http://www.w3.org/2000/svg" xmlns:xlink="http://www.w3.org/1999/xlink" version="1.1" width="480" height="360" viewBox="0 0 480 360">
<!-- Generated by Kreative Vexillo v1.0 -->
<style>
.red{fill:rgb(255,0,0);}
</style>
<defs>
<path id="-glazearea" d="M 0.0 0.0 L 1.0 0.0 L 0.75 0.5 L 1.0 1.0 L 0.0 1.0 Z"/>
<clipPath id="clip0">
<path d="M 60 0 L 420 0 L 330 180 L 420 360 L 60 360 Z"/>
</clipPath>
<linearGradient id="glaze" x1="0%" y1="0%" x2="100%" y2="100%">
<stop offset="0%" stop-color="rgb(255,255,255)" stop-opacity="0.2"/>
<stop offset="49.999%" stop-color="rgb(255,255,255)" stop-opacity="0.0"/>
<stop offset="50.001%" stop-color="rgb(0,0,0)" stop-opacity="0.0"/>
<stop offset="100%" stop-color="rgb(0,0,0)" stop-opacity="0.2"/>
</linearGradient>
</defs>
<g>
<g clip-path="url(#clip0)">
<rect x="60" y="0" width="360" height="360" class="red"/>
</g>
</g>
<g>
<path d="M 60 0 L 420 0 L 330 180 L 420 360 L 60 360 Z" fill="url(#glaze)"/>
<path d="M 322.918 60 L 276.324 153.1879 L 262.9309 180 L 276.324 206.8121 L 322.918 300 L 120 300 L 120 60 Z M 90 30 L 90 330 L 371.459 330 L 303.162 193.4061 L 296.4655 180 L 303.162 166.5939 L 371.459 30 Z" fill="rgb(255,255,255)" opacity="0.4"/>
<path d="M 371.459 30 L 303.162 166.5939 L 296.4655 180 L 303.162 193.4061 L 371.459 330 L 90 330 L 90 30 Z M 60 0 L 60 360 L 420 360 L 330 180 L 420 0 Z" fill="rgb(0,0,0)" opacity="0.4"/>
</g>
</svg>
