<?xml version="1.0"?>
<svg xmlns="http://www.w3.org/2000/svg" xmlns:xlink="http://www.w3.org/1999/xlink" version="1.1" width="480" height="360" viewBox="0 0 480 360">
<!-- Generated by Kreative Vexillo v1.0 -->
<style>
.blue{fill:rgb(0,115,207);}
.white{fill:rgb(255,255,255);}
.yellow{fill:rgb(254,203,0);}
</style>
<defs>
<path id="disc" d="M 0.5 0.0 A 0.5 0.5 0.0 0 0 -0.5 0.0 A 0.5 0.5 0.0 0 0 0.5 0.0 Z"/>
<path id="s" d="M -0.2383 0.4647 V 0.0586 C -0.33179998 0.030700002 -0.4195 -0.013499998 -0.4971 -0.0718 C -0.512 -0.083000004 -0.51489997 -0.1039 -0.5035 -0.1185 C -0.49209997 -0.1331 -0.4707 -0.1359 -0.4558 -0.124800004 C -0.454 -0.1234 -0.45229998 -0.12190001 -0.4508 -0.1202 C -0.3826 -0.043899998 -0.2953 0.013800003 -0.19749999 0.0472 V 0.46469998 H -0.2383 Z M -0.1838 0.4647 V 0.0377 C -0.2988 5.00001E-4 -0.3992 -0.07079999 -0.47109997 -0.1662 C -0.48459998 -0.1839 -0.48079997 -0.20899999 -0.46269998 -0.2222 C -0.4446 -0.2354 -0.41899997 -0.2317 -0.4055 -0.214 C -0.4035 -0.2114 -0.4019 -0.2086 -0.4006 -0.2057 C -0.3525 -0.0952 -0.2589 -0.0097 -0.143 0.0297 V 0.4647 H -0.1838 Z M -0.1294 0.4647 V 0.0201 C -0.2746 -0.025700001 -0.3832 -0.1446 -0.41360003 -0.2909 C -0.42000002 -0.32189998 -0.3995 -0.3522 -0.36780003 -0.3584 S -0.30520004 -0.3446 -0.29880002 -0.3136 C -0.29760003 -0.308 -0.2973 -0.3022 -0.29790002 -0.2965 C -0.3125 -0.1575 -0.2248 -0.0277 -0.0885 0.0136 V 0.46469998 H -0.1294 Z M -0.0749 0.4647 V 0.0036 C -0.2273 -0.0369 -0.31730002 -0.1907 -0.27600002 -0.34 C -0.26160002 -0.39200002 -0.23210002 -0.4389 -0.19110003 -0.47500002 C -0.16310003 -0.49960002 -0.12010003 -0.49730003 -0.09500003 -0.4699 C -0.06990003 -0.44250003 -0.07220003 -0.40030003 -0.10020003 -0.3758 C -0.10300003 -0.37330002 -0.10600003 -0.3711 -0.10920003 -0.3691 C -0.2045 -0.3099 -0.2329 -0.1864 -0.1726 -0.093 C -0.1416 -0.0451 -0.0912 -0.0123 -0.034 -0.0028 V 0.4647 H -0.0749 Z M 0.2383 0.4647 V 0.0586 C 0.33179998 0.030700002 0.4195 -0.013499998 0.4971 -0.0718 C 0.512 -0.083000004 0.51489997 -0.1039 0.5035 -0.1185 C 0.49209997 -0.1331 0.4707 -0.1359 0.4558 -0.124800004 C 0.454 -0.1234 0.45229998 -0.12190001 0.4508 -0.1202 C 0.3825 -0.0439 0.2952 0.0138 0.1974 0.0472 V 0.46469998 H 0.2383 Z M 0.1838 0.4647 V 0.0377 C 0.2988 5.00001E-4 0.3992 -0.07079999 0.47109997 -0.1662 C 0.48459998 -0.1839 0.48079997 -0.20899999 0.46269998 -0.2222 C 0.4446 -0.2354 0.41899997 -0.2317 0.4055 -0.214 C 0.4035 -0.2114 0.4019 -0.2086 0.4006 -0.2057 C 0.3525 -0.0952 0.2589 -0.0097 0.143 0.0297 V 0.4647 H 0.1838 Z M 0.1294 0.4647 V 0.0201 C 0.2746 -0.025700001 0.3832 -0.1446 0.41369998 -0.2909 C 0.42009997 -0.32189998 0.39959997 -0.3522 0.36789998 -0.3584 C 0.3362 -0.3647 0.3053 -0.3446 0.29889998 -0.3136 C 0.2977 -0.308 0.29739997 -0.3022 0.29799998 -0.2965 C 0.3125 -0.1575 0.2248 -0.0277 0.0885 0.0136 V 0.46469998 H 0.1294 Z M 0.0749 0.4647 V 0.0036 C 0.2273 -0.0369 0.31730002 -0.1907 0.27600002 -0.34 C 0.26160002 -0.39200002 0.23210002 -0.4389 0.19110003 -0.47500002 C 0.16310003 -0.49960002 0.12010003 -0.49730003 0.09500003 -0.4699 C 0.06990003 -0.44250003 0.07220003 -0.40030003 0.10020003 -0.3758 C 0.10300003 -0.37330002 0.10600003 -0.3711 0.10920003 -0.3691 C 0.2045 -0.3099 0.2329 -0.1864 0.1726 -0.093 C 0.1416 -0.0451 0.0912 -0.0123 0.034 -0.0028 V 0.4647 H 0.0749 Z M -0.0204 -0.001 C -0.0068000006 2.9999996E-4 0.0068999995 2.9999996E-4 0.020499999 -0.001 V 0.4647 H -0.0204 V -0.001 Z"/>
<linearGradient id="glaze" x1="0%" y1="0%" x2="100%" y2="100%">
<stop offset="0%" stop-color="rgb(255,255,255)" stop-opacity="0.2"/>
<stop offset="49.999%" stop-color="rgb(255,255,255)" stop-opacity="0.0"/>
<stop offset="50.001%" stop-color="rgb(0,0,0)" stop-opacity="0.0"/>
<stop offset="100%" stop-color="rgb(0,0,0)" stop-opacity="0.2"/>
</linearGradient>
</defs>
<g>
<rect x="0" y="0" width="480" height="360" class="blue"/>
<use xlink:href="#s" transform="translate(240 180) scale(240 240) rotate(0)" class="white"/>
<use xlink:href="#disc" transform="translate(240 132) scale(38.4 38.4) rotate(0)" class="yellow"/>
</g>
<g>
<rect x="0" y="0" width="480" height="360" fill="url(#glaze)"/>
<path d="M 30 30 L 450 30 L 450 330 L 30 330 Z M 60 60 L 60 300 L 420 300 L 420 60 Z" fill="rgb(255,255,255)" opacity="0.4"/>
<path d="M 0 0 L 480 0 L 480 360 L 0 360 Z M 30 30 L 30 330 L 450 330 L 450 30 Z" fill="rgb(0,0,0)" opacity="0.4"/>
</g>
</svg>
