<?xml version="1.0"?>
<svg xmlns="http://www.w3.org/2000/svg" xmlns:xlink="http://www.w3.org/1999/xlink" version="1.1" width="480" height="360" viewBox="0 0 480 360">
<!-- Generated by Kreative Vexillo v1.0 -->
<style>
.black{fill:rgb(0,0,0);}
.blue{fill:rgb(0,0,255);}
.green{fill:rgb(0,153,0);}
.orange{fill:rgb(255,153,0);}
.purple{fill:rgb(153,0,153);}
.red{fill:rgb(255,0,0);}
.white{fill:rgb(255,255,255);}
.yellow{fill:rgb(255,255,0);}
</style>
<defs>
<clipPath id="clip0">
<path d="M 0 0 L 240 180 L 0 360 Z"/>
</clipPath>
<clipPath id="clip1">
<path d="M 0 0 L 480 0 L 480 360 L 0 360 L 240 180 Z"/>
</clipPath>
<clipPath id="clip2">
<rect x="0" y="0" width="480" height="360"/>
</clipPath>
<clipPath id="clip3">
<path d="M -21.578 28.8165 L 218.422 208.8165 L 261.578 151.1835 L 21.578 -28.8165 L -21.578 28.8165 Z"/>
<path d="M 218.422 151.1835 L -21.578 331.1835 L 21.578 388.8165 L 261.578 208.8165 L 218.422 151.1835 Z"/>
<path d="M 240 216 L 480 216 L 480 144 L 240 144 L 240 216 Z"/>
</clipPath>
<linearGradient id="glaze" x1="0%" y1="0%" x2="100%" y2="100%">
<stop offset="0%" stop-color="rgb(255,255,255)" stop-opacity="0.2"/>
<stop offset="49.999%" stop-color="rgb(255,255,255)" stop-opacity="0.0"/>
<stop offset="50.001%" stop-color="rgb(0,0,0)" stop-opacity="0.0"/>
<stop offset="100%" stop-color="rgb(0,0,0)" stop-opacity="0.2"/>
</linearGradient>
</defs>
<g>
<g>
<rect x="0" y="0" width="480" height="60" class="red"/>
<rect x="0" y="60" width="480" height="60" class="orange"/>
<rect x="0" y="120" width="480" height="60" class="yellow"/>
<rect x="0" y="180" width="480" height="60" class="green"/>
<rect x="0" y="240" width="480" height="60" class="blue"/>
<rect x="0" y="300" width="480" height="60" class="purple"/>
</g>
<g clip-path="url(#clip0)">
<path d="M -35.9634 48.0275 L 204.0366 228.0275 L 275.9633 131.9725 L 35.9634 -48.0275 L -35.9634 48.0275 Z" class="black"/>
<path d="M 204.0366 131.9725 L -35.9634 311.9725 L 35.9634 408.0275 L 275.9633 228.0275 L 204.0366 131.9725 Z" class="black"/>
</g>
<g clip-path="url(#clip1)">
<path d="M -35.9634 48.0275 L 204.0366 228.0275 L 275.9633 131.9725 L 35.9634 -48.0275 L -35.9634 48.0275 Z" class="white"/>
<path d="M 204.0366 131.9725 L -35.9634 311.9725 L 35.9634 408.0275 L 275.9633 228.0275 L 204.0366 131.9725 Z" class="white"/>
<path d="M 240 240 L 480 240 L 480 120 L 240 120 L 240 240 Z" class="white"/>
</g>
<g clip-path="url(#clip2)">
<g clip-path="url(#clip3)">
<g>
<rect x="0" y="0" width="480" height="60" class="red"/>
<rect x="0" y="60" width="480" height="60" class="orange"/>
<rect x="0" y="120" width="480" height="60" class="yellow"/>
<rect x="0" y="180" width="480" height="60" class="green"/>
<rect x="0" y="240" width="480" height="60" class="blue"/>
<rect x="0" y="300" width="480" height="60" class="purple"/>
</g>
</g>
</g>
</g>
<g>
<rect x="0" y="0" width="480" height="360" fill="url(#glaze)"/>
<path d="M 30 30 L 450 30 L 450 330 L 30 330 Z M 60 60 L 60 300 L 420 300 L 420 60 Z" fill="rgb(255,255,255)" opacity="0.4"/>
<path d="M 0 0 L 480 0 L 480 360 L 0 360 Z M 30 30 L 30 330 L 450 330 L 450 30 Z" fill="rgb(0,0,0)" opacity="0.4"/>
</g>
</svg>
