<?xml version="1.0"?>
<svg xmlns="http://www.w3.org/2000/svg" xmlns:xlink="http://www.w3.org/1999/xlink" version="1.1" width="480" height="360" viewBox="0 0 480 360">
<!-- Generated by Kreative Vexillo v1.0 -->
<style>
.black{fill:rgb(0,0,0);}
.blue{fill:rgb(32,132,254);}
.gold{fill:rgb(255,202,86);}
.red{fill:rgb(255,66,49);}
</style>
<defs>
<path id="infheart" d="M -0.5282 -0.3326 C -0.52089995 -0.3478 -0.5135 -0.3628 -0.50299996 -0.3762 C -0.48999995 -0.3928 -0.47539997 -0.4078 -0.45949996 -0.4218 C -0.44419995 -0.4353 -0.42699996 -0.44529998 -0.40969995 -0.4552 C -0.39859995 -0.4615 -0.38619995 -0.46589997 -0.37389994 -0.4698 C -0.35919994 -0.4745 -0.34429994 -0.4783 -0.32909995 -0.48139998 C -0.30289996 -0.4868 -0.27629995 -0.4892 -0.24989995 -0.4865 C -0.22199996 -0.4837 -0.19479996 -0.47689998 -0.16869995 -0.4657 C -0.15049995 -0.4579 -0.13289995 -0.4491 -0.11629995 -0.4386 C -0.09699995 -0.4264 -0.07849995 -0.4128 -0.06109995 -0.3977 C -0.047099948 -0.3855 -0.03419995 -0.3723 -0.021099951 -0.3592 C -0.013399951 -0.3515 -0.0066999514 -0.3427 9.0004876E-4 -0.3339 C 0.0032000488 -0.3344 0.005700049 -0.3351 0.0078000487 -0.3375 C 0.019000048 -0.351 0.030000048 -0.3646 0.042900052 -0.3763 C 0.06540005 -0.3966 0.08800005 -0.4169 0.113600045 -0.4336 C 0.13490005 -0.4474 0.15700005 -0.4591 0.18040004 -0.4683 C 0.20110005 -0.47640002 0.22260004 -0.48160002 0.24480005 -0.48490003 C 0.26270005 -0.48760003 0.28050005 -0.48740003 0.29820004 -0.48630002 C 0.31580004 -0.48520002 0.33330005 -0.48170003 0.35060003 -0.47770002 C 0.37180004 -0.47280002 0.39220002 -0.46550003 0.41170004 -0.45620003 C 0.43330005 -0.44590002 0.45270005 -0.43230003 0.47100005 -0.41660005 C 0.48440003 -0.40510005 0.49570006 -0.39200005 0.50640005 -0.37820005 C 0.51570004 -0.36620006 0.5238001 -0.35320005 0.5299001 -0.33930007 C 0.5311001 -0.33650008 0.5324001 -0.33410007 0.53440005 -0.33200008 C 0.535 -0.32440007 0.5393 -0.31800008 0.5418 -0.31120008 C 0.54730004 -0.29630008 0.5511 -0.2811001 0.5543 -0.26570007 C 0.5587 -0.24450007 0.5607 -0.22290006 0.5593 -0.20110008 C 0.5592 -0.19940008 0.5588 -0.19790009 0.5563 -0.19660008 C 0.5341 -0.21080008 0.5082 -0.21910009 0.48579997 -0.23170008 C 0.48179996 -0.26980007 0.47109997 -0.30330008 0.44939998 -0.33290008 C 0.44539997 -0.3407001 0.4394 -0.34710008 0.43369997 -0.35360008 C 0.42659998 -0.36160007 0.41759998 -0.3675001 0.40919995 -0.3739001 C 0.38859996 -0.38950008 0.36499995 -0.39920008 0.34019995 -0.40530008 C 0.32769996 -0.4084001 0.31499994 -0.41050008 0.30219996 -0.41240007 C 0.28129995 -0.41550007 0.26059997 -0.41490006 0.24049996 -0.41070005 C 0.20619996 -0.40350005 0.17439996 -0.38930005 0.14609995 -0.36820006 C 0.13139996 -0.35720006 0.11549996 -0.34760007 0.10399996 -0.33290005 C 0.09539996 -0.32910004 0.089799955 -0.32170004 0.083599955 -0.31510004 C 0.064699955 -0.29480004 0.046999954 -0.27360004 0.031499956 -0.25060004 C 0.023399957 -0.23860005 0.015899956 -0.22610004 0.008199956 -0.21380004 C 0.0067999563 -0.21150005 0.0051999562 -0.20960005 0.002299956 -0.20810004 C -0.0044000437 -0.21360004 -0.008200044 -0.22160004 -0.012700044 -0.22880003 C -0.024800044 -0.24830003 -0.037900046 -0.26700002 -0.052300043 -0.28490004 C -0.066100046 -0.30210003 -0.08080004 -0.31840003 -0.09740004 -0.33300003 C -0.10660004 -0.34100002 -0.11550004 -0.34950003 -0.12510005 -0.35690004 C -0.14610004 -0.37310004 -0.16850005 -0.38710004 -0.19310005 -0.39740002 C -0.21710005 -0.40750003 -0.24200004 -0.41360003 -0.26810005 -0.41410002 C -0.28860006 -0.41450003 -0.30870005 -0.4115 -0.32860005 -0.40730003 C -0.34920004 -0.40300003 -0.36870006 -0.39550003 -0.38690004 -0.38520002 C -0.41000003 -0.37210003 -0.42940003 -0.35470003 -0.44490004 -0.33300003 C -0.45700005 -0.31560004 -0.46530002 -0.29650003 -0.47180003 -0.27630004 C -0.48170003 -0.24560004 -0.48380002 -0.21410005 -0.48190004 -0.18230005 C -0.48080003 -0.16380005 -0.47770002 -0.14530005 -0.47310004 -0.12710005 C -0.46800002 -0.10670005 -0.46080005 -0.08710005 -0.45240003 -0.06790005 C -0.44710004 -0.055900045 -0.4401 -0.044500045 -0.43290004 -0.033400048 C -0.41630003 -0.0077000484 -0.39730003 0.016299952 -0.37830004 0.040299956 C -0.36330006 0.059299953 -0.34710005 0.077399954 -0.33150005 0.09579995 C -0.32510006 0.103399955 -0.31770006 0.11019995 -0.31170005 0.117999956 C -0.31500006 0.12589996 -0.32240003 0.12509996 -0.32830006 0.12639995 C -0.34210005 0.12959994 -0.35630006 0.13039994 -0.37030005 0.13239995 C -0.37890005 0.13359995 -0.38700005 0.13009995 -0.39570007 0.13059995 C -0.40740007 0.12029994 -0.41690007 0.10799994 -0.42630008 0.095799945 C -0.43810007 0.08049995 -0.4506001 0.065799944 -0.4621001 0.050199945 C -0.4785001 0.027799945 -0.49530008 0.005599946 -0.5087001 -0.018700052 C -0.5239001 -0.04610005 -0.53440005 -0.075500056 -0.54270005 -0.105700046 C -0.54800004 -0.12500004 -0.55060005 -0.14470005 -0.55310005 -0.16450004 C -0.55570006 -0.18500005 -0.5554001 -0.20540005 -0.5544 -0.22570005 C -0.55310005 -0.25230005 -0.54800004 -0.27860004 -0.5395 -0.30400005 C -0.5364 -0.3139 -0.532 -0.3231 -0.5282 -0.3326 Z M 0.2204 0.3181 C 0.2433 0.29680002 0.2649 0.274 0.2881 0.25300002 C 0.3069 0.23600002 0.3227 0.21600002 0.34080002 0.19830002 C 0.3549 0.18450002 0.3675 0.16940002 0.38070002 0.15480003 C 0.4009 0.13250002 0.42000002 0.10930003 0.439 0.086000025 C 0.46 0.060200024 0.4796 0.033500027 0.49830002 0.0059000254 C 0.515 -0.018699974 0.5271 -0.045399975 0.53760004 -0.07299998 C 0.5386 -0.075599976 0.53910005 -0.07789998 0.53830004 -0.079999976 C 0.535 -0.085199974 0.52980006 -0.08759998 0.5256 -0.09109998 C 0.514 -0.10089998 0.50130004 -0.10929998 0.48760003 -0.116099976 C 0.48400003 -0.11789998 0.48020002 -0.12069998 0.4753 -0.116499975 C 0.47050002 -0.099799976 0.4641 -0.08289997 0.4564 -0.06659998 C 0.447 -0.04669998 0.4356 -0.027999979 0.4222 -0.01049998 C 0.4081 0.00800002 0.3948 0.02710002 0.3798 0.04490002 C 0.3653 0.06210002 0.3509 0.07950002 0.336 0.096500024 C 0.32 0.11480002 0.3037 0.13280003 0.287 0.15030003 C 0.2668 0.17140003 0.2465 0.19260003 0.2252 0.21270002 C 0.20989999 0.22730002 0.1955 0.24280003 0.17999999 0.25720003 C 0.1592 0.27660003 0.1381 0.29570004 0.11669999 0.31440002 C 0.10819999 0.32180002 0.10059999 0.3305 0.090299994 0.3357 C 0.0883 0.34080002 0.08399999 0.3441 0.08009999 0.3472 C 0.057399992 0.365 0.035299994 0.3835 0.013799995 0.4027 C 0.010699995 0.4055 0.0070999954 0.40780002 0.002399995 0.4098 C -0.004700005 0.40739998 -0.009700005 0.4012 -0.015700005 0.3965 C -0.026300006 0.38799998 -0.036800005 0.3793 -0.046900004 0.3703 C -0.060000002 0.3587 -0.0741 0.3484 -0.086100005 0.3356 C -0.0891 0.33359998 -0.092300005 0.332 -0.094900005 0.3297 C -0.113800004 0.313 -0.133 0.29659998 -0.1514 0.2793 C -0.1674 0.2642 -0.1829 0.2486 -0.1991 0.2337 C -0.2087 0.2249 -0.2173 0.2151 -0.2271 0.20500001 C -0.253 0.21100001 -0.27719998 0.22140001 -0.3022 0.22660002 C -0.3037 0.23140003 -0.3029 0.23410001 -0.2999 0.23640002 C -0.2959 0.23950002 -0.2918 0.24280003 -0.28849998 0.24660002 C -0.27519998 0.2621 -0.2591 0.2748 -0.24509998 0.2896 C -0.23749998 0.2976 -0.22959998 0.3052 -0.22099997 0.31230003 C -0.21289997 0.31900004 -0.20479997 0.32630002 -0.19869997 0.3352 C -0.19759996 0.33580002 -0.19639997 0.33630002 -0.19539997 0.3371 C -0.18059997 0.3501 -0.16589996 0.3633 -0.15089998 0.3762 C -0.11799997 0.40449998 -0.085599974 0.43339998 -0.05159998 0.4603 C -0.03659998 0.4722 -0.022399979 0.485 -0.0064999796 0.4956 C 0.0012000203 0.5008 0.0070000207 0.5006 0.013800021 0.49449998 C 0.024800021 0.48439997 0.037400022 0.47629997 0.04880002 0.4667 C 0.06910002 0.44959998 0.09060002 0.4339 0.110700026 0.4166 C 0.13180003 0.39839998 0.15250003 0.3798 0.17320003 0.3611 C 0.18300003 0.3523 0.19140002 0.34149998 0.20340003 0.3353 C 0.2081 0.3284 0.2146 0.3235 0.2204 0.3181 Z M 0.1322 -0.0662 C 0.1731 -0.092300005 0.2153 -0.1164 0.261 -0.1336 C 0.2895 -0.1443 0.3183 -0.1538 0.3486 -0.1583 C 0.3677 -0.1611 0.3865 -0.1619 0.4057 -0.1589 C 0.442 -0.15329999 0.476 -0.1417 0.50769997 -0.1231 C 0.53419995 -0.1075 0.55789995 -0.0888 0.57409996 -0.062 C 0.59349996 -0.029999997 0.59639996 0.0031000003 0.5803 0.037299998 C 0.5697 0.0598 0.55319995 0.0777 0.5336 0.0924 C 0.50329995 0.1152 0.46959996 0.13159999 0.43249997 0.14 C 0.4182 0.1433 0.40659997 0.1483 0.39699998 0.1605 C 0.3825 0.1788 0.36569998 0.1952 0.35 0.2124 C 0.34919998 0.2133 0.3484 0.21450001 0.34939998 0.21620001 C 0.35209998 0.21900001 0.3559 0.2178 0.3593 0.2178 C 0.37199998 0.21800001 0.3847 0.2174 0.3974 0.21800001 C 0.4125 0.2187 0.42729998 0.2159 0.44169998 0.2125 C 0.4752 0.2046 0.5074 0.1928 0.5374 0.1756 C 0.5723 0.15560001 0.60400003 0.1316 0.6275 0.09830001 C 0.6487 0.06820001 0.6628 0.03570001 0.6615 -0.0020999908 C 0.6613 -0.007599991 0.6613 -0.013199991 0.6615 -0.01869999 C 0.66209996 -0.033899993 0.6586 -0.048399992 0.6536 -0.062499993 C 0.639 -0.10349999 0.61249995 -0.13579999 0.5785 -0.16219999 C 0.5528 -0.18209998 0.52459997 -0.19799998 0.49429998 -0.20969999 C 0.45869997 -0.22349998 0.42239997 -0.23369999 0.3836 -0.23149998 C 0.3752 -0.23099999 0.3667 -0.23149998 0.35819998 -0.23139998 C 0.35039997 -0.23119998 0.3426 -0.23109998 0.3349 -0.22949998 C 0.313 -0.22519998 0.2913 -0.22009999 0.26999998 -0.21329997 C 0.22689998 -0.19949998 0.18619998 -0.18059997 0.14669998 -0.15879998 C 0.10839998 -0.13759997 0.072099976 -0.113399975 0.03759998 -0.08629998 C 0.03009998 -0.080399975 0.02149998 -0.07539998 0.016599981 -0.06599998 C 0.032599982 -0.050499976 0.048399985 -0.035199977 0.06429998 -0.020099979 C 0.06509998 -0.019399978 0.06669998 -0.019499978 0.06879998 -0.019099979 C 0.0889 -0.0367 0.1102 -0.0521 0.1322 -0.0662 Z M -0.0751 0.0142 C -0.1116 0.0442 -0.15149999 0.0689 -0.19299999 0.0911 C -0.2047 0.0974 -0.21689999 0.1028 -0.22889999 0.1086 C -0.24669999 0.1172 -0.2652 0.1241 -0.2839 0.1304 C -0.3032 0.1368 -0.32299998 0.1417 -0.3432 0.1448 C -0.3643 0.1481 -0.3853 0.1482 -0.4062 0.1448 C -0.4283 0.1412 -0.4495 0.13440001 -0.4703 0.12580001 C -0.5024 0.11240001 -0.5312 0.094200015 -0.55439997 0.06800002 C -0.56429994 0.056900017 -0.57299995 0.04490002 -0.5785 0.030700017 C -0.58449996 0.015300017 -0.58599997 -3.9998256E-4 -0.5847 -0.016799983 C -0.5833 -0.03479998 -0.5769 -0.050499983 -0.5669 -0.065199986 C -0.5625 -0.07159998 -0.55770004 -0.07759999 -0.5526 -0.08439998 C -0.5618 -0.10939998 -0.56490004 -0.13589999 -0.5694 -0.16239998 C -0.575 -0.16119997 -0.57780004 -0.15849997 -0.5808 -0.15599997 C -0.59139997 -0.14729998 -0.6009 -0.13769998 -0.6099 -0.12739998 C -0.6224 -0.11319998 -0.6332 -0.09779998 -0.641 -0.08069998 C -0.6547 -0.05039998 -0.66169995 -0.01879998 -0.65669996 0.01480002 C -0.65379995 0.034500018 -0.6486 0.05350002 -0.63939995 0.07110002 C -0.62639993 0.096000016 -0.60919994 0.11770002 -0.58799994 0.13640001 C -0.5688999 0.15320002 -0.54819995 0.16750002 -0.52579993 0.17930001 C -0.49469993 0.1957 -0.46199992 0.20740001 -0.42739993 0.21450001 C -0.38839993 0.22250001 -0.35009992 0.2205 -0.31169993 0.2124 C -0.29199994 0.20820001 -0.27299994 0.2019 -0.25389993 0.1956 C -0.21729994 0.1837 -0.18279994 0.1675 -0.14919993 0.1492 C -0.12609993 0.1367 -0.10379993 0.12290001 -0.08189993 0.1084 C -0.061899934 0.0951 -0.042899933 0.08050001 -0.024099935 0.0657 C -0.019499935 0.0621 -0.0138999345 0.059100002 -0.010799935 0.0528 C -0.029199935 0.0381 -0.043699935 0.019699998 -0.062299937 0.0045999996 C -0.0674 0.0085 -0.0714 0.0112 -0.0751 0.0142 Z M -0.4506 -0.1464 C -0.4319 -0.154 -0.4121 -0.1578 -0.3922 -0.1604 C -0.3708 -0.1631 -0.3495 -0.15990001 -0.3284 -0.1556 C -0.30839998 -0.1516 -0.28899997 -0.1454 -0.2697 -0.1389 C -0.24599999 -0.1309 -0.2234 -0.1204 -0.2013 -0.1092 C -0.1713 -0.0939 -0.1424 -0.0765 -0.114599995 -0.0573 C -0.0865 -0.038000003 -0.059499994 -0.0172 -0.035199992 0.0066 C -0.010199992 0.0312 0.015200008 0.0551 0.043000005 0.0766 C 0.068900004 0.0967 0.09590001 0.115 0.123900004 0.1319 C 0.1439 0.144 0.16440001 0.155 0.1855 0.16499999 C 0.19999999 0.17199999 0.2145 0.17889999 0.2302 0.1846 C 0.2481 0.1665 0.2658 0.1487 0.2832 0.1311 C 0.281 0.1268 0.2779 0.1261 0.2753 0.1252 C 0.257 0.1194 0.23979999 0.1111 0.2224 0.103300005 C 0.1883 0.08800001 0.1564 0.06860001 0.12539999 0.048000004 C 0.09599999 0.028500004 0.06819999 0.0066000037 0.04249999 -0.017699998 C 0.026199989 -0.033099998 0.010699987 -0.0492 -0.006000012 -0.0642 C -0.016200013 -0.0733 -0.026800012 -0.0817 -0.03760001 -0.09 C -0.06450001 -0.1109 -0.092800006 -0.1296 -0.12210001 -0.1471 C -0.15690002 -0.1679 -0.19300002 -0.1859 -0.2306 -0.2008 C -0.2565 -0.211 -0.2829 -0.2195 -0.3103 -0.2252 C -0.3243 -0.2281 -0.3383 -0.2303 -0.3525 -0.23189999 C -0.3671 -0.23349999 -0.38169998 -0.23339999 -0.3963 -0.23239999 C -0.41279998 -0.23129998 -0.429 -0.22809999 -0.445 -0.22399999 C -0.45229998 -0.22209999 -0.46019998 -0.2209 -0.4668 -0.21589999 C -0.4674 -0.19229999 -0.4661 -0.16909999 -0.46040002 -0.14649999 C -0.4564 -0.1428 -0.4535 -0.1453 -0.4506 -0.1464 Z"/>
<linearGradient id="glaze" x1="0%" y1="0%" x2="100%" y2="100%">
<stop offset="0%" stop-color="rgb(255,255,255)" stop-opacity="0.2"/>
<stop offset="49.999%" stop-color="rgb(255,255,255)" stop-opacity="0.0"/>
<stop offset="50.001%" stop-color="rgb(0,0,0)" stop-opacity="0.0"/>
<stop offset="100%" stop-color="rgb(0,0,0)" stop-opacity="0.2"/>
</linearGradient>
</defs>
<g>
<g>
<rect x="0" y="0" width="480" height="120" class="blue"/>
<rect x="0" y="120" width="480" height="120" class="black"/>
<rect x="0" y="240" width="480" height="120" class="red"/>
</g>
<use xlink:href="#infheart" transform="translate(240 180) scale(216 216) rotate(0)" class="gold"/>
</g>
<g>
<rect x="0" y="0" width="480" height="360" fill="url(#glaze)"/>
<path d="M 30 30 L 450 30 L 450 330 L 30 330 Z M 60 60 L 60 300 L 420 300 L 420 60 Z" fill="rgb(255,255,255)" opacity="0.4"/>
<path d="M 0 0 L 480 0 L 480 360 L 0 360 Z M 30 30 L 30 330 L 450 330 L 450 30 Z" fill="rgb(0,0,0)" opacity="0.4"/>
</g>
</svg>
