<?xml version="1.0"?>
<svg xmlns="http://www.w3.org/2000/svg" xmlns:xlink="http://www.w3.org/1999/xlink" version="1.1" width="480" height="360" viewBox="0 0 480 360">
<!-- Generated by Kreative Vexillo v1.0 -->
<style>
.pink{fill:rgb(250,135,210);}
.red{fill:rgb(207,20,43);}
.white{fill:rgb(255,255,255);}
</style>
<defs>
<clipPath id="clip0">
<path d="M 0 0 L 0 30 L 0 30 L 200 180 L 0 330 L 0 360 L 40 360 L 240 210 L 440 360 L 480 360 L 480 330 L 280 180 L 480 30 L 480 0 L 440 0 L 240 150 L 240 150 L 40 0 Z"/>
</clipPath>
<linearGradient id="glaze" x1="0%" y1="0%" x2="100%" y2="100%">
<stop offset="0%" stop-color="rgb(255,255,255)" stop-opacity="0.2"/>
<stop offset="49.999%" stop-color="rgb(255,255,255)" stop-opacity="0.0"/>
<stop offset="50.001%" stop-color="rgb(0,0,0)" stop-opacity="0.0"/>
<stop offset="100%" stop-color="rgb(0,0,0)" stop-opacity="0.2"/>
</linearGradient>
</defs>
<g>
<rect x="0" y="0" width="480" height="360" class="pink"/>
<path d="M 0 0 L 0 45 L 180 180 L 0 315 L 0 315 L 0 360 L 60 360 L 240 225 L 420 360 L 480 360 L 480 315 L 480 315 L 300 180 L 480 45 L 480 0 L 420 0 L 240 135 L 60 0 Z" class="white"/>
<g clip-path="url(#clip0)">
<path d="M 0 0 L 240 180 L 0 180 Z" class="red"/>
<path d="M 480 0 L 240 180 L 240 0 Z" class="red"/>
<path d="M 0 360 L 240 180 L 240 360 Z" class="red"/>
<path d="M 480 360 L 240 180 L 480 180 Z" class="red"/>
</g>
<g>
<rect x="0" y="120" width="480" height="120" class="white"/>
<rect x="180" y="0" width="120" height="360" class="white"/>
</g>
<g>
<rect x="0" y="144" width="480" height="72" class="red"/>
<rect x="204" y="0" width="72" height="360" class="red"/>
</g>
</g>
<g>
<rect x="0" y="0" width="480" height="360" fill="url(#glaze)"/>
<path d="M 30 30 L 450 30 L 450 330 L 30 330 Z M 60 60 L 60 300 L 420 300 L 420 60 Z" fill="rgb(255,255,255)" opacity="0.4"/>
<path d="M 0 0 L 480 0 L 480 360 L 0 360 Z M 30 30 L 30 330 L 450 330 L 450 30 Z" fill="rgb(0,0,0)" opacity="0.4"/>
</g>
</svg>
