<?xml version="1.0"?>
<svg xmlns="http://www.w3.org/2000/svg" xmlns:xlink="http://www.w3.org/1999/xlink" version="1.1" width="480" height="360" viewBox="0 0 480 360">
<!-- Generated by Kreative Vexillo v1.0 -->
<style>
.c1{fill:rgb(231,82,107);}
.c2{fill:rgb(216,108,101);}
.c3{fill:rgb(183,165,93);}
.c4{fill:rgb(163,201,90);}
.c5{fill:rgb(146,229,85);}
</style>
<defs>
<linearGradient id="glaze" x1="0%" y1="0%" x2="100%" y2="100%">
<stop offset="0%" stop-color="rgb(255,255,255)" stop-opacity="0.2"/>
<stop offset="49.999%" stop-color="rgb(255,255,255)" stop-opacity="0.0"/>
<stop offset="50.001%" stop-color="rgb(0,0,0)" stop-opacity="0.0"/>
<stop offset="100%" stop-color="rgb(0,0,0)" stop-opacity="0.2"/>
</linearGradient>
</defs>
<g>
<g>
<rect x="0" y="0" width="480" height="72" class="c1"/>
<rect x="0" y="72" width="480" height="72" class="c2"/>
<rect x="0" y="144" width="480" height="72" class="c3"/>
<rect x="0" y="216" width="480" height="72" class="c4"/>
<rect x="0" y="288" width="480" height="72" class="c5"/>
</g>
</g>
<g>
<rect x="0" y="0" width="480" height="360" fill="url(#glaze)"/>
<path d="M 30 30 L 450 30 L 450 330 L 30 330 Z M 60 60 L 60 300 L 420 300 L 420 60 Z" fill="rgb(255,255,255)" opacity="0.4"/>
<path d="M 0 0 L 480 0 L 480 360 L 0 360 Z M 30 30 L 30 330 L 450 330 L 450 30 Z" fill="rgb(0,0,0)" opacity="0.4"/>
</g>
</svg>
