<?xml version="1.0"?>
<svg xmlns="http://www.w3.org/2000/svg" xmlns:xlink="http://www.w3.org/1999/xlink" version="1.1" width="480" height="360" viewBox="0 0 480 360">
<!-- Generated by Kreative Vexillo v1.0 -->
<style>
.black{fill:rgb(0,0,0);}
.green{fill:rgb(75,218,170);}
.purple{fill:rgb(191,120,188);}
.red{fill:rgb(247,84,104);}
.yellow{fill:rgb(247,236,106);}
</style>
<defs>
<linearGradient id="glaze" x1="0%" y1="0%" x2="100%" y2="100%">
<stop offset="0%" stop-color="rgb(255,255,255)" stop-opacity="0.2"/>
<stop offset="49.999%" stop-color="rgb(255,255,255)" stop-opacity="0.0"/>
<stop offset="50.001%" stop-color="rgb(0,0,0)" stop-opacity="0.0"/>
<stop offset="100%" stop-color="rgb(0,0,0)" stop-opacity="0.2"/>
</linearGradient>
</defs>
<g>
<g>
<rect x="0" y="0" width="240" height="360" class="red"/>
<rect x="240" y="0" width="240" height="360" class="green"/>
</g>
<path d="M -107.9344 0 L 587.9344 0 L 240 200.88 Z" class="yellow"/>
<path d="M 126.7239 266.28 L 240 70.08 L 353.2761 266.28 Z" class="black"/>
<path d="M 145.43 255.48 L 240 91.68 L 334.57 255.48 Z" class="purple"/>
<path d="M 133.377 190.08 L 133.377 190.08 L 346.623 190.08 L 346.623 200.88 L 133.377 200.88 Z" class="black"/>
</g>
<g>
<rect x="0" y="0" width="480" height="360" fill="url(#glaze)"/>
<path d="M 30 30 L 450 30 L 450 330 L 30 330 Z M 60 60 L 60 300 L 420 300 L 420 60 Z" fill="rgb(255,255,255)" opacity="0.4"/>
<path d="M 0 0 L 480 0 L 480 360 L 0 360 Z M 30 30 L 30 330 L 450 330 L 450 30 Z" fill="rgb(0,0,0)" opacity="0.4"/>
</g>
</svg>
