<?xml version="1.0"?>
<svg xmlns="http://www.w3.org/2000/svg" xmlns:xlink="http://www.w3.org/1999/xlink" version="1.1" width="360" height="360" viewBox="0 0 360 360">
<!-- Generated by Kreative Vexillo v1.0 -->
<style>
.blue{fill:rgb(0,152,212);}
.white{fill:rgb(255,255,255);}
</style>
<defs>
<path id="lozenge" d="M 0.9636 0.0 L 0.7424 0.0 L 1.0 0.95 L 1.0 1.0 L 0.7924 1.0 L 0.5212 0.0 L 0.3 0.0 L 0.5712 1.0 L 0.35 1.0 L 0.15 0.2625 L 0.0 0.1988 L 0.0 0.525 L 0.1288 1.0 L 0.35 1.0 L 0.0 0.8513 L 0.0 0.525 L 1.0 0.95 L 1.0 0.6238 L 0.15 0.2625 L 0.0788 0.0 L 0.3 0.0 L 1.0 0.2975 L 1.0 0.1344 Z"/>
<linearGradient id="glaze" x1="0%" y1="0%" x2="100%" y2="100%">
<stop offset="0%" stop-color="rgb(255,255,255)" stop-opacity="0.2"/>
<stop offset="49.999%" stop-color="rgb(255,255,255)" stop-opacity="0.0"/>
<stop offset="50.001%" stop-color="rgb(0,0,0)" stop-opacity="0.0"/>
<stop offset="100%" stop-color="rgb(0,0,0)" stop-opacity="0.2"/>
</linearGradient>
</defs>
<g>
<rect x="0" y="0" width="360" height="360" class="white"/>
<use xlink:href="#lozenge" transform="translate(0 0) scale(360 360) rotate(0)" class="blue"/>
</g>
<g>
<rect x="0" y="0" width="360" height="360" fill="url(#glaze)"/>
<path d="M 30 30 L 330 30 L 330 330 L 30 330 Z M 60 60 L 60 300 L 300 300 L 300 60 Z" fill="rgb(255,255,255)" opacity="0.4"/>
<path d="M 0 0 L 360 0 L 360 360 L 0 360 Z M 30 30 L 30 330 L 330 330 L 330 30 Z" fill="rgb(0,0,0)" opacity="0.4"/>
</g>
</svg>
