<?xml version="1.0"?>
<svg xmlns="http://www.w3.org/2000/svg" xmlns:xlink="http://www.w3.org/1999/xlink" version="1.1" width="360" height="360" viewBox="0 0 360 360">
<!-- Generated by Kreative Vexillo v1.0 -->
<style>
.blue{fill:rgb(0,36,125);}
.red{fill:rgb(207,20,43);}
.white{fill:rgb(255,255,255);}
</style>
<defs>
<clipPath id="clip0">
<path d="M 0 0 L 0 33.9411 L 146.0589 180 L 0 326.0589 L 0 360 L 33.9411 360 L 180 213.9411 L 326.0589 360 L 360 360 L 360 326.0589 L 213.9411 180 L 213.9411 180 L 360 33.9411 L 360 0 L 326.0589 0 L 180 146.0589 L 33.9411 0 Z"/>
</clipPath>
<linearGradient id="glaze" x1="0%" y1="0%" x2="100%" y2="100%">
<stop offset="0%" stop-color="rgb(255,255,255)" stop-opacity="0.2"/>
<stop offset="49.999%" stop-color="rgb(255,255,255)" stop-opacity="0.0"/>
<stop offset="50.001%" stop-color="rgb(0,0,0)" stop-opacity="0.0"/>
<stop offset="100%" stop-color="rgb(0,0,0)" stop-opacity="0.2"/>
</linearGradient>
</defs>
<g>
<rect x="0" y="0" width="360" height="360" class="blue"/>
<path d="M 0 0 L 0 50.9117 L 0 50.9117 L 129.0883 180 L 129.0883 180 L 0 309.0883 L 0 309.0883 L 0 360 L 50.9117 360 L 180 230.9117 L 309.0883 360 L 360 360 L 360 309.0883 L 230.9117 180 L 360 50.9117 L 360 0 L 309.0883 0 L 180 129.0883 L 180 129.0883 L 180 129.0883 L 180 129.0883 L 50.9117 0 Z" class="white"/>
<g clip-path="url(#clip0)">
<path d="M 0 0 L 180 180 L 0 180 Z" class="red"/>
<path d="M 360 0 L 180 180 L 180 0 Z" class="red"/>
<path d="M 0 360 L 180 180 L 180 360 Z" class="red"/>
<path d="M 360 360 L 180 180 L 360 180 Z" class="red"/>
</g>
<g>
<rect x="0" y="120" width="360" height="120" class="white"/>
<rect x="120" y="0" width="120" height="360" class="white"/>
</g>
<g>
<rect x="0" y="144" width="360" height="72" class="red"/>
<rect x="144" y="0" width="72" height="360" class="red"/>
</g>
</g>
<g>
<rect x="0" y="0" width="360" height="360" fill="url(#glaze)"/>
<path d="M 30 30 L 330 30 L 330 330 L 30 330 Z M 60 60 L 60 300 L 300 300 L 300 60 Z" fill="rgb(255,255,255)" opacity="0.4"/>
<path d="M 0 0 L 360 0 L 360 360 L 0 360 Z M 30 30 L 30 330 L 330 330 L 330 30 Z" fill="rgb(0,0,0)" opacity="0.4"/>
</g>
</svg>
