<?xml version="1.0"?>
<svg xmlns="http://www.w3.org/2000/svg" xmlns:xlink="http://www.w3.org/1999/xlink" version="1.1" width="360" height="360" viewBox="0 0 360 360">
<!-- Generated by Kreative Vexillo v1.0 -->
<style>
.blue{fill:rgb(0,43,127);}
.red{fill:rgb(232,17,45);}
.white{fill:rgb(255,255,255);}
</style>
<defs>
<path id="star5" d="M 0.0 -1.0 L 0.261238 -0.359563 L 0.951057 -0.309017 L 0.422691 0.137341 L 0.587785 0.809017 L 0.0 0.444444 L -0.587785 0.809017 L -0.422691 0.137341 L -0.951057 -0.309017 L -0.261238 -0.359563 Z"/>
<path id="star7" d="M 0.0 -1.0 L 0.192837 -0.40043 L 0.781831 -0.62349 L 0.433301 -0.098898 L 0.974928 0.222521 L 0.34748 0.277106 L 0.433884 0.900969 L 0.0 0.444444 L -0.433884 0.900969 L -0.34748 0.277106 L -0.974928 0.222521 L -0.433301 -0.098898 L -0.781831 -0.62349 L -0.192837 -0.40043 Z"/>
<clipPath id="clip0">
<path d="M 0 0 L 0 16.9706 L 73.0294 90 L 0 163.0294 L 0 180 L 16.9706 180 L 90 106.9706 L 163.0294 180 L 180 180 L 180 163.0294 L 106.9706 90 L 106.9706 90 L 180 16.9706 L 180 0 L 163.0294 0 L 90 73.0294 L 16.9706 0 Z"/>
</clipPath>
<linearGradient id="glaze" x1="0%" y1="0%" x2="100%" y2="100%">
<stop offset="0%" stop-color="rgb(255,255,255)" stop-opacity="0.2"/>
<stop offset="49.999%" stop-color="rgb(255,255,255)" stop-opacity="0.0"/>
<stop offset="50.001%" stop-color="rgb(0,0,0)" stop-opacity="0.0"/>
<stop offset="100%" stop-color="rgb(0,0,0)" stop-opacity="0.2"/>
</linearGradient>
</defs>
<g>
<rect x="0" y="0" width="360" height="360" class="blue"/>
<g>
<path d="M 0 0 L 0 25.4558 L 0 25.4558 L 64.5442 90 L 64.5442 90 L 0 154.5442 L 0 180 L 25.4558 180 L 90 115.4558 L 90 115.4558 L 154.5442 180 L 180 180 L 180 154.5442 L 115.4558 90 L 115.4558 90 L 180 25.4558 L 180 0 L 154.5442 0 L 90 64.5442 L 25.4558 0 Z" class="white"/>
<g clip-path="url(#clip0)">
<path d="M 0 0 L 90 90 L 0 90 Z" class="red"/>
<path d="M 180 0 L 90 90 L 90 0 Z" class="red"/>
<path d="M 0 180 L 90 90 L 90 180 Z" class="red"/>
<path d="M 180 180 L 90 90 L 180 90 Z" class="red"/>
</g>
<g>
<rect x="0" y="60" width="180" height="60" class="white"/>
<rect x="60" y="0" width="60" height="180" class="white"/>
</g>
<g>
<rect x="0" y="72" width="180" height="36" class="red"/>
<rect x="72" y="0" width="36" height="180" class="red"/>
</g>
</g>
<g>
<use xlink:href="#star7" transform="translate(90 270) scale(27 27) rotate(0)" class="white"/>
<use xlink:href="#star7" transform="translate(270 300) scale(12.8571 12.8571) rotate(0)" class="white"/>
<use xlink:href="#star7" transform="translate(225 157.5) scale(12.8571 12.8571) rotate(0)" class="white"/>
<use xlink:href="#star7" transform="translate(270 60) scale(12.8571 12.8571) rotate(0)" class="white"/>
<use xlink:href="#star7" transform="translate(310 133.5) scale(12.8571 12.8571) rotate(0)" class="white"/>
<use xlink:href="#star5" transform="translate(288 195) scale(7.5 7.5) rotate(0)" class="white"/>
</g>
</g>
<g>
<rect x="0" y="0" width="360" height="360" fill="url(#glaze)"/>
<path d="M 30 30 L 330 30 L 330 330 L 30 330 Z M 60 60 L 60 300 L 300 300 L 300 60 Z" fill="rgb(255,255,255)" opacity="0.4"/>
<path d="M 0 0 L 360 0 L 360 360 L 0 360 Z M 30 30 L 30 330 L 330 330 L 330 30 Z" fill="rgb(0,0,0)" opacity="0.4"/>
</g>
</svg>
