<?xml version="1.0"?>
<svg xmlns="http://www.w3.org/2000/svg" xmlns:xlink="http://www.w3.org/1999/xlink" version="1.1" width="360" height="360" viewBox="0 0 360 360">
<!-- Generated by Kreative Vexillo v1.0 -->
<style>
.blue{fill:rgb(0,56,184);}
.white{fill:rgb(255,255,255);}
</style>
<defs>
<linearGradient id="glaze" x1="0%" y1="0%" x2="100%" y2="100%">
<stop offset="0%" stop-color="rgb(255,255,255)" stop-opacity="0.2"/>
<stop offset="49.999%" stop-color="rgb(255,255,255)" stop-opacity="0.0"/>
<stop offset="50.001%" stop-color="rgb(0,0,0)" stop-opacity="0.0"/>
<stop offset="100%" stop-color="rgb(0,0,0)" stop-opacity="0.2"/>
</linearGradient>
</defs>
<g>
<g>
<rect x="0" y="0" width="360" height="33.75" class="white"/>
<rect x="0" y="33.75" width="360" height="56.25" class="blue"/>
<rect x="0" y="90" width="360" height="180" class="white"/>
<rect x="0" y="270" width="360" height="56.25" class="blue"/>
<rect x="0" y="326.25" width="360" height="33.75" class="white"/>
</g>
<path d="M 180 102.375 L 247.2252 218.8125 L 112.7748 218.8125 L 180 102.375 L 180 127.125 L 134.2089 206.4375 L 225.7911 206.4375 L 180 127.125 Z" class="blue"/>
<path d="M 180 257.625 L 112.7748 141.1875 L 247.2252 141.1875 L 180 257.625 L 180 232.875 L 225.7911 153.5625 L 134.2089 153.5625 L 180 232.875 Z" class="blue"/>
</g>
<g>
<rect x="0" y="0" width="360" height="360" fill="url(#glaze)"/>
<path d="M 30 30 L 330 30 L 330 330 L 30 330 Z M 60 60 L 60 300 L 300 300 L 300 60 Z" fill="rgb(255,255,255)" opacity="0.4"/>
<path d="M 0 0 L 360 0 L 360 360 L 0 360 Z M 30 30 L 30 330 L 330 330 L 330 30 Z" fill="rgb(0,0,0)" opacity="0.4"/>
</g>
</svg>
