<?xml version="1.0"?>
<svg xmlns="http://www.w3.org/2000/svg" xmlns:xlink="http://www.w3.org/1999/xlink" version="1.1" width="360" height="360" viewBox="0 0 360 360">
<!-- Generated by Kreative Vexillo v1.0 -->
<style>
.green{fill:rgb(0,89,76);}
.white{fill:rgb(255,255,255);}
</style>
<defs>
<path id="e" d="M 0.6155 0.0143 C 0.59239995 -0.08319999 0.4942 -0.14379999 0.39659998 -0.1207 C 0.31189996 -0.100600004 0.23569998 -0.056500003 0.17599998 0.006799996 C 0.12769999 0.058099996 0.084999986 0.114199996 0.04869999 0.1741 C 0.04179999 0.1714 0.03489999 0.1686 0.02809999 0.1656 C 0.08809999 0.0965 0.13569999 0.017100006 0.16859998 -0.0696 C 0.20689997 -0.1698 0.20759998 -0.2804 0.17049998 -0.3811 C 0.15369998 -0.4267 0.12019998 -0.463 0.07609998 -0.4834 C 0.031999975 -0.5038 -0.017400026 -0.5058 -0.06290002 -0.489 C -0.11270002 -0.4707 -0.15190002 -0.4316 -0.17050003 -0.3818 C -0.20740002 -0.2823 -0.20740002 -0.1727 -0.17050003 -0.07319999 C -0.15180002 -0.022599988 -0.111900024 0.016800016 -0.061000027 0.03490001 L -0.061000027 0.03490001 C -0.030800026 -0.00469999 -0.005400028 -0.04779999 0.0145999715 -0.093299985 C 0.004499972 -0.08989999 -0.006000029 -0.090199985 -0.015400028 -0.09359998 C -0.016200028 -0.09389998 -0.016900027 -0.094199985 -0.017600028 -0.09449998 C -0.017700028 -0.09449998 -0.017700028 -0.09449998 -0.017800028 -0.094599985 C -0.018500028 -0.09489998 -0.019100027 -0.09519999 -0.019700028 -0.095499985 C -0.020000027 -0.09559999 -0.020300029 -0.09579998 -0.020600028 -0.095999986 C -0.021000028 -0.09619999 -0.021400029 -0.096399985 -0.021700028 -0.09659999 C -0.022000028 -0.09679999 -0.022400029 -0.09699999 -0.022700028 -0.09719999 C -0.023000028 -0.097399995 -0.02330003 -0.09759999 -0.023600029 -0.097799994 C -0.024000028 -0.098 -0.02430003 -0.09819999 -0.024600029 -0.09849999 C -0.024900028 -0.098699994 -0.02520003 -0.09889999 -0.02550003 -0.09909999 C -0.025800029 -0.0993 -0.02620003 -0.099599995 -0.02650003 -0.09979999 C -0.026800029 -0.099999994 -0.02710003 -0.10019999 -0.02740003 -0.10049999 C -0.02770003 -0.10069999 -0.02800003 -0.10099999 -0.02830003 -0.101199985 C -0.02870003 -0.10149998 -0.02900003 -0.10179999 -0.02940003 -0.102099985 C -0.02960003 -0.10229999 -0.02990003 -0.102499984 -0.03010003 -0.10269999 C -0.030700032 -0.10319999 -0.03120003 -0.10369999 -0.03180003 -0.104299985 C -0.031900033 -0.10439999 -0.03200003 -0.10449999 -0.032100033 -0.10459998 C -0.032500032 -0.10509998 -0.033000033 -0.10549998 -0.033400033 -0.105999984 C -0.033500034 -0.106099986 -0.033700034 -0.10629998 -0.033800032 -0.10639998 C -0.03420003 -0.106899984 -0.03460003 -0.10729998 -0.035000034 -0.107799985 C -0.035100035 -0.107899986 -0.035200033 -0.10809998 -0.035400033 -0.108199984 C -0.035800032 -0.108699985 -0.03620003 -0.109199986 -0.036500033 -0.10969999 C -0.036600035 -0.10979999 -0.036700033 -0.109999985 -0.036800034 -0.110099986 C -0.037200034 -0.11059999 -0.037500035 -0.11109999 -0.037900034 -0.11169998 C -0.038000036 -0.111799985 -0.038100034 -0.11199998 -0.038200036 -0.11209998 C -0.038600035 -0.112699986 -0.038900036 -0.11319998 -0.039200034 -0.11379998 C -0.039300036 -0.11389998 -0.039400034 -0.11409998 -0.039400034 -0.11419998 C -0.039700035 -0.114799984 -0.040100034 -0.11539998 -0.040400032 -0.11599998 C -0.040500034 -0.11609998 -0.040500034 -0.116199985 -0.04060003 -0.11629998 C -0.040900033 -0.11699998 -0.041300032 -0.11769998 -0.04160003 -0.11839998 C -0.04160003 -0.11849998 -0.04170003 -0.11849998 -0.04170003 -0.11859998 C -0.042000033 -0.11939998 -0.04230003 -0.120099984 -0.042600032 -0.12089998 C -0.06820003 -0.18979998 -0.06820003 -0.26569998 -0.042600032 -0.33459997 C -0.038000032 -0.34699997 -0.028200032 -0.35679996 -0.015700031 -0.36139998 C -0.004300031 -0.3656 0.00799997 -0.36509997 0.01909997 -0.35999998 C 0.03009997 -0.35489997 0.03849997 -0.34579998 0.04269997 -0.3344 C 0.068399966 -0.2647 0.06789997 -0.1881 0.04139997 -0.118599996 C 0.0112999715 -0.039499998 -0.03350003 0.03230001 -0.09050003 0.0933 C -0.116400026 0.0726 -0.14050002 0.0493 -0.16220003 0.023699999 C -0.22320004 -0.048600003 -0.30410004 -0.0987 -0.39600003 -0.12110001 L -0.39640003 -0.12120001 C -0.44370005 -0.1324 -0.49240005 -0.12450001 -0.5338 -0.09900001 C -0.5751 -0.07350001 -0.6041 -0.033400007 -0.6153 0.013799995 C -0.6275 0.0654 -0.6167 0.1196 -0.5855 0.1626 C -0.5257 0.24489999 -0.43870002 0.30449998 -0.34039998 0.3306 C -0.25899997 0.3522 -0.17319998 0.3363 -0.104999974 0.287 C -0.095399976 0.2801 -0.08599997 0.273 -0.076799974 0.2656 C -0.06969997 0.2694 -0.06259997 0.2731 -0.055299975 0.2767 C -0.041799974 0.2834 -0.027999975 0.2897 -0.014199976 0.2954 C -0.014299976 0.29549998 -0.014299976 0.29569998 -0.014399976 0.2958 L -0.014399976 0.2958 C -0.050599977 0.3592 -0.07629998 0.428 -0.09039997 0.4997 H 0.06130003 C 0.07450003 0.44280002 0.09340003 0.38750002 0.11760003 0.3347 C 0.14580002 0.33999997 0.17440003 0.3434 0.20340003 0.345 L 0.20360003 0.345 C 0.27730003 0.3489 0.35140002 0.3341 0.41800004 0.3024 C 0.48460004 0.2706 0.54270005 0.2223 0.586 0.1625 C 0.6169 0.1201 0.6278 0.0659 0.6155 0.0143 Z M -0.3057 0.1993 C -0.3738 0.1812 -0.4341 0.1399 -0.4754 0.083000004 C -0.4832 0.0723 -0.4859 0.058700003 -0.4828 0.045800004 C -0.48000002 0.034 -0.47280002 0.024000004 -0.46240002 0.017600004 C -0.45510003 0.013100004 -0.44700003 0.010800004 -0.4386 0.010800004 C -0.4351 0.010800004 -0.4317 0.011200004 -0.4282 0.012000004 C -0.3646 0.027600003 -0.30870003 0.062200002 -0.2664 0.1123 L -0.2662 0.112500004 C -0.24430001 0.1382 -0.22070001 0.1621 -0.19550002 0.18400002 C -0.2287 0.2036 -0.2681 0.2092 -0.3057 0.1993 Z M 0.4754 0.0829 C 0.414 0.1675 0.3151 0.2147 0.2107 0.2093 C 0.2035 0.20889999 0.1963 0.2084 0.1892 0.2077 C 0.215 0.1698 0.2437 0.1339 0.2753 0.1003 C 0.3166 0.056399997 0.3694 0.025899999 0.4281 0.012000002 C 0.4525 0.006200002 0.477 0.0214 0.48279998 0.045700002 C 0.4859 0.0587 0.4832 0.0722 0.4754 0.0829 Z"/>
<linearGradient id="glaze" x1="0%" y1="0%" x2="100%" y2="100%">
<stop offset="0%" stop-color="rgb(255,255,255)" stop-opacity="0.2"/>
<stop offset="49.999%" stop-color="rgb(255,255,255)" stop-opacity="0.0"/>
<stop offset="50.001%" stop-color="rgb(0,0,0)" stop-opacity="0.0"/>
<stop offset="100%" stop-color="rgb(0,0,0)" stop-opacity="0.2"/>
</linearGradient>
</defs>
<g>
<rect x="0" y="0" width="360" height="360" class="green"/>
<use xlink:href="#e" transform="translate(180 180) scale(216 216) rotate(0)" class="white"/>
</g>
<g>
<rect x="0" y="0" width="360" height="360" fill="url(#glaze)"/>
<path d="M 30 30 L 330 30 L 330 330 L 30 330 Z M 60 60 L 60 300 L 300 300 L 300 60 Z" fill="rgb(255,255,255)" opacity="0.4"/>
<path d="M 0 0 L 360 0 L 360 360 L 0 360 Z M 30 30 L 30 330 L 330 330 L 330 30 Z" fill="rgb(0,0,0)" opacity="0.4"/>
</g>
</svg>
