<?xml version="1.0"?>
<svg xmlns="http://www.w3.org/2000/svg" xmlns:xlink="http://www.w3.org/1999/xlink" version="1.1" width="360" height="360" viewBox="0 0 360 360">
<!-- Generated by Kreative Vexillo v1.0 -->
<style>
.blue{fill:rgb(0,136,187);}
.white{fill:rgb(255,255,255);}
</style>
<defs>
<path id="e" d="M -0.81 0.5 L -0.2654 -0.3898 C -0.23 -0.4513 -0.1648 -0.5 -0.0853 -0.5 H 0.5898 L 0.4043 -0.2042 C 0.3668 -0.13929999 0.3055 -0.1006 0.201 -0.1006 H 0.0546 L -0.0216 0.0185 H 0.1733 C 0.2402 0.0185 0.26569998 0.0506 0.2358 0.1024 L -0.0067 0.5 H -0.1811 L 0.0291 0.1561 H -0.2177 C -0.2476 0.1561 -0.2583 0.13530001 -0.24000001 0.10350001 L -0.04820001 -0.1999 C -0.03500001 -0.2228 -0.0058000125 -0.2407 0.029199988 -0.2407 H 0.23479998 C 0.25329998 -0.2407 0.2749 -0.25660002 0.2857 -0.2752 L 0.3312 -0.35180002 H -0.0323 C -0.0801 -0.35180002 -0.1323 -0.32260004 -0.1517 -0.28900003 L -0.6356 0.5 H -0.81 Z M 0.6856 0.0238 L 0.4002 0.5 H 0.5746 L 0.86 0.0238 H 0.6856 Z M 0.3949 0.0238 L 0.1096 0.5 H 0.284 L 0.5694 0.023799986 H 0.3949 Z"/>
<linearGradient id="glaze" x1="0%" y1="0%" x2="100%" y2="100%">
<stop offset="0%" stop-color="rgb(255,255,255)" stop-opacity="0.2"/>
<stop offset="49.999%" stop-color="rgb(255,255,255)" stop-opacity="0.0"/>
<stop offset="50.001%" stop-color="rgb(0,0,0)" stop-opacity="0.0"/>
<stop offset="100%" stop-color="rgb(0,0,0)" stop-opacity="0.2"/>
</linearGradient>
</defs>
<g>
<rect x="0" y="0" width="360" height="360" class="blue"/>
<use xlink:href="#e" transform="translate(180 180) scale(185.8065 185.8065) rotate(0)" class="white"/>
</g>
<g>
<rect x="0" y="0" width="360" height="360" fill="url(#glaze)"/>
<path d="M 30 30 L 330 30 L 330 330 L 30 330 Z M 60 60 L 60 300 L 300 300 L 300 60 Z" fill="rgb(255,255,255)" opacity="0.4"/>
<path d="M 0 0 L 360 0 L 360 360 L 0 360 Z M 30 30 L 30 330 L 330 330 L 330 30 Z" fill="rgb(0,0,0)" opacity="0.4"/>
</g>
</svg>
