<?xml version="1.0"?>
<svg xmlns="http://www.w3.org/2000/svg" xmlns:xlink="http://www.w3.org/1999/xlink" version="1.1" width="360" height="360" viewBox="0 0 360 360">
<!-- Generated by Kreative Vexillo v1.0 -->
<style>
.purple{fill:rgb(75,0,130);}
.white{fill:rgb(255,255,255);}
</style>
<defs>
<path id="e" d="M 0.0 -0.5 L -0.0417 -0.4583 L -0.0417 -0.2465 C -0.1021 -0.2364 -0.1551 -0.2045 -0.1926 -0.1593 L -0.3761 -0.2653 L -0.433 -0.25 L -0.4178 -0.1931 L -0.2343 -0.0872 C -0.2445 -0.06 -0.25 -0.0307 -0.25 0.0 C -0.25 0.0307 -0.2445 0.06 -0.2343 0.0872 L -0.4178 0.1931 L -0.433 0.25 L -0.3761 0.2652 L -0.1926 0.1593 C -0.1551 0.2045 -0.1021 0.2364 -0.0417 0.2465 L -0.0417 0.4583 L 0.0 0.5 L 0.0417 0.4583 L 0.0417 0.2465 C 0.1021 0.2364 0.1551 0.2045 0.1926 0.1593 L 0.3761 0.2652 L 0.433 0.25 L 0.4178 0.1931 L 0.2343 0.0872 C 0.2445 0.06 0.25 0.0307 0.25 0.0 C 0.25 -0.0307 0.2445 -0.06 0.2343 -0.0872 L 0.4178 -0.1931 L 0.433 -0.25 L 0.3761 -0.2653 L 0.1926 -0.1593 C 0.1551 -0.2045 0.1021 -0.2364 0.0417 -0.2465 L 0.0417 -0.4583 L 0.0 -0.5 Z M 0.0 -0.1667 C 0.092 -0.1667 0.1667 -0.092 0.1667 0.0 C 0.1667 0.092 0.092 0.1667 0.0 0.1667 C -0.092 0.1667 -0.1667 0.092 -0.1667 0.0 C -0.1667 -0.092 -0.092 -0.1667 0.0 -0.1667 Z M 0.0 -0.0833 C -0.046 -0.0833 -0.0833 -0.046 -0.0833 0.0 C -0.0833 0.046 -0.046 0.0833 0.0 0.0833 C 0.046 0.0833 0.0833 0.046 0.0833 0.0 C 0.0833 -0.046 0.046 -0.0833 0.0 -0.0833 Z"/>
<linearGradient id="glaze" x1="0%" y1="0%" x2="100%" y2="100%">
<stop offset="0%" stop-color="rgb(255,255,255)" stop-opacity="0.2"/>
<stop offset="49.999%" stop-color="rgb(255,255,255)" stop-opacity="0.0"/>
<stop offset="50.001%" stop-color="rgb(0,0,0)" stop-opacity="0.0"/>
<stop offset="100%" stop-color="rgb(0,0,0)" stop-opacity="0.2"/>
</linearGradient>
</defs>
<g>
<rect x="0" y="0" width="360" height="360" class="purple"/>
<use xlink:href="#e" transform="translate(180 180) scale(240 240) rotate(0)" class="white"/>
</g>
<g>
<rect x="0" y="0" width="360" height="360" fill="url(#glaze)"/>
<path d="M 30 30 L 330 30 L 330 330 L 30 330 Z M 60 60 L 60 300 L 300 300 L 300 60 Z" fill="rgb(255,255,255)" opacity="0.4"/>
<path d="M 0 0 L 360 0 L 360 360 L 0 360 Z M 30 30 L 30 330 L 330 330 L 330 30 Z" fill="rgb(0,0,0)" opacity="0.4"/>
</g>
</svg>
