<?xml version="1.0"?>
<svg xmlns="http://www.w3.org/2000/svg" xmlns:xlink="http://www.w3.org/1999/xlink" version="1.1" width="360" height="360" viewBox="0 0 360 360">
<!-- Generated by Kreative Vexillo v1.0 -->
<style>
.red{fill:rgb(210,0,0);}
.yellow{fill:rgb(255,230,0);}
</style>
<defs>
<linearGradient id="glaze" x1="0%" y1="0%" x2="100%" y2="100%">
<stop offset="0%" stop-color="rgb(255,255,255)" stop-opacity="0.2"/>
<stop offset="49.999%" stop-color="rgb(255,255,255)" stop-opacity="0.0"/>
<stop offset="50.001%" stop-color="rgb(0,0,0)" stop-opacity="0.0"/>
<stop offset="100%" stop-color="rgb(0,0,0)" stop-opacity="0.2"/>
</linearGradient>
</defs>
<g>
<rect x="0" y="0" width="360" height="360" class="red"/>
<path d="M 180 180 L 0 0 L 54 0 Z" class="yellow"/>
<path d="M 180 180 L 162 0 L 198 0 Z" class="yellow"/>
<path d="M 180 180 L 306 0 L 360 0 Z" class="yellow"/>
<path d="M 180 180 L 360 162 L 360 198 Z" class="yellow"/>
<path d="M 180 180 L 360 360 L 306 360 Z" class="yellow"/>
<path d="M 180 180 L 198 360 L 162 360 Z" class="yellow"/>
<path d="M 180 180 L 54 360 L 0 360 Z" class="yellow"/>
<path d="M 180 180 L 0 198 L 0 162 Z" class="yellow"/>
<ellipse cx="180" cy="180" rx="64.2857" ry="64.2857" class="red"/>
<ellipse cx="180" cy="180" rx="51.4286" ry="51.4286" class="yellow"/>
</g>
<g>
<rect x="0" y="0" width="360" height="360" fill="url(#glaze)"/>
<path d="M 30 30 L 330 30 L 330 330 L 30 330 Z M 60 60 L 60 300 L 300 300 L 300 60 Z" fill="rgb(255,255,255)" opacity="0.4"/>
<path d="M 0 0 L 360 0 L 360 360 L 0 360 Z M 30 30 L 30 330 L 330 330 L 330 30 Z" fill="rgb(0,0,0)" opacity="0.4"/>
</g>
</svg>
