<?xml version="1.0"?>
<svg xmlns="http://www.w3.org/2000/svg" xmlns:xlink="http://www.w3.org/1999/xlink" version="1.1" width="360" height="360" viewBox="0 0 360 360">
<!-- Generated by Kreative Vexillo v1.0 -->
<style>
.black{fill:rgb(0,0,0);}
.red{fill:rgb(227,61,58);}
.white{fill:rgb(255,255,255);}
.yellow{fill:rgb(255,222,23);}
</style>
<defs>
<path id="bird" d="M -0.2853 -0.1301 C -0.3296 -0.0728 -0.4345 -0.1876 -0.5601 -0.1902 C -0.6857 -0.1929 -0.7747 -0.0699 -0.8113 -0.028 C -0.848 0.0139 -0.9657 0.2337 -0.9631 0.2573 C -0.9605 0.2808 -0.8898 0.1919 -0.8637 0.1762 C -0.8611 0.2076 -0.8925 0.2442 -0.8846 0.2547 C -0.8768 0.2651 -0.793 0.1919 -0.7642 0.1892 C -0.7564 0.2102 -0.7799 0.2311 -0.7721 0.2625 C -0.7616 0.273 -0.7145 0.2102 -0.6831 0.1971 C -0.6779 0.2207 -0.7119 0.2651 -0.6936 0.2939 C -0.6805 0.2965 -0.602 0.205 -0.5758 0.1945 C -0.5496 0.184 -0.5889 0.2808 -0.5758 0.2887 C -0.5522 0.273 -0.4789 0.1892 -0.4554 0.1788 C -0.4318 0.1683 -0.458 0.2861 -0.4475 0.2861 C -0.4188 0.2651 -0.3455 0.1657 -0.3376 0.15 C -0.3298 0.1343 -0.3455 0.3018 -0.2643 0.3908 C -0.1832 0.4798 -0.0602 0.5818 -0.0471 0.5818 C -0.0314 0.553 -0.0523 0.4928 -0.0393 0.4955 C -0.0026 0.5347 0.0654 0.5923 0.0811 0.5923 C 0.0968 0.5923 0.0707 0.5295 0.0916 0.5295 C 0.1335 0.5687 0.2539 0.7232 0.4894 0.7938 C 0.4737 0.7493 0.4397 0.7101 0.4371 0.6891 C 0.4528 0.6917 0.5077 0.7179 0.5182 0.7153 C 0.5287 0.7127 0.403 0.5583 0.4109 0.5373 C 0.4397 0.5347 0.4528 0.553 0.4632 0.5399 C 0.4502 0.519 0.3402 0.396 0.3402 0.3672 C 0.3402 0.3384 0.3743 0.3724 0.3847 0.3672 C 0.3952 0.362 0.3429 0.2521 0.3533 0.239 C 0.3638 0.2259 0.4789 0.3096 0.5077 0.3096 C 0.5365 0.3096 0.5156 0.2076 0.5287 0.2023 C 0.5418 0.1971 0.6386 0.2573 0.6595 0.2573 C 0.6805 0.2573 0.6779 0.2128 0.6857 0.218 C 0.6936 0.2233 0.9212 0.451 0.8427 0.7179 C 0.7642 0.909 0.6072 1.011 0.3769 0.9273 C 0.39 0.9482 0.513 1.0503 0.6464 1.0137 C 0.7799 0.977 0.9422 0.8723 0.9239 0.6106 C 0.9055 0.3489 0.8192 0.3123 0.8061 0.273 C 0.793 0.2337 0.827 0.2835 0.8558 0.2939 C 0.8846 0.3044 0.8506 0.239 0.8427 0.2102 C 0.8349 0.1814 0.9291 0.2704 0.9527 0.2782 C 0.9762 0.2861 0.8977 0.0636 0.8741 0.0479 C 0.8506 0.0322 0.8977 0.0531 0.9134 0.0584 C 0.9291 0.0636 0.7694 -0.185 0.7354 -0.185 C 0.7014 -0.185 0.7642 -0.1981 0.7825 -0.1981 C 0.8009 -0.1981 0.5993 -0.3604 0.5653 -0.3604 C 0.5313 -0.3604 0.6386 -0.4022 0.6491 -0.4049 C 0.6674 -0.4022 0.4161 -0.5383 0.1911 -0.4022 C 0.178 -0.4127 0.2971 -0.4951 0.301 -0.5305 C 0.3023 -0.5396 0.2617 -0.5593 0.2591 -0.5697 C 0.2565 -0.5802 0.3219 -0.6116 0.3245 -0.6352 C 0.3088 -0.6561 0.28 -0.6483 0.2643 -0.6535 C 0.2604 -0.6731 0.3193 -0.7215 0.3141 -0.7425 C 0.3101 -0.7542 0.2669 -0.7582 0.2565 -0.7503 C 0.246 -0.7425 0.284 -0.8053 0.2774 -0.8236 C 0.2722 -0.8314 0.2513 -0.8262 0.2303 -0.821 C 0.2172 -0.8236 0.2984 -0.9361 0.2827 -0.9518 C 0.267 -0.9675 0.0471 -0.8367 -0.034 -0.6901 C -0.1152 -0.5436 -0.0523 -0.4258 -0.0628 -0.3761 C -0.0733 -0.3263 -0.0864 -0.2766 -0.1204 -0.2766 C -0.1544 -0.2766 -0.2329 -0.329 -0.2591 -0.3551 C -0.2853 -0.3813 -0.2905 -0.3996 -0.3271 -0.4101 C -0.3638 -0.4206 -0.4475 -0.3891 -0.4789 -0.3865 C -0.5103 -0.3839 -0.6334 -0.4101 -0.6412 -0.4022 C -0.6491 -0.3944 -0.5208 -0.3473 -0.492 -0.3316 C -0.4632 -0.3159 -0.4606 -0.2949 -0.4397 -0.2818 C -0.4188 -0.2688 -0.2225 -0.2112 -0.2853 -0.1301 Z M 0.4816 0.239 C 0.5444 0.3018 0.9684 0.5844 0.9684 0.9299 C 0.9684 1.2754 0.6595 1.2649 0.5705 1.2544 C 0.67 1.3382 1.0469 1.3225 1.0469 0.9299 C 1.0469 0.5844 0.5601 0.239 0.4973 0.2076 C 0.4345 0.1762 0.4188 0.1762 0.4816 0.239 Z"/>
<path id="star" d="M 0.0 -1.0 L 0.2245 -0.309 L 0.9511 -0.309 L 0.3633 0.118 L 0.5878 0.809 L 0.0 0.382 L -0.5878 0.809 L -0.3633 0.118 L -0.9511 -0.309 L -0.2245 -0.309 Z"/>
<linearGradient id="glaze" x1="0%" y1="0%" x2="100%" y2="100%">
<stop offset="0%" stop-color="rgb(255,255,255)" stop-opacity="0.2"/>
<stop offset="49.999%" stop-color="rgb(255,255,255)" stop-opacity="0.0"/>
<stop offset="50.001%" stop-color="rgb(0,0,0)" stop-opacity="0.0"/>
<stop offset="100%" stop-color="rgb(0,0,0)" stop-opacity="0.2"/>
</linearGradient>
</defs>
<g>
<rect x="0" y="0" width="360" height="360" class="black"/>
<path d="M 0 0 L 360 0 L 360 360 Z" class="red"/>
<use xlink:href="#star" transform="translate(90 135) scale(18.75 18.75) rotate(0)" class="white"/>
<use xlink:href="#star" transform="translate(131.25 200) scale(18.75 18.75) rotate(0)" class="white"/>
<use xlink:href="#star" transform="translate(48.75 205) scale(18.75 18.75) rotate(0)" class="white"/>
<use xlink:href="#star" transform="translate(108.75 250) scale(9.375 9.375) rotate(0)" class="white"/>
<use xlink:href="#star" transform="translate(90 300) scale(18.75 18.75) rotate(0)" class="white"/>
<use xlink:href="#bird" transform="translate(240 115) scale(60 60) rotate(0)" class="yellow"/>
</g>
<g>
<rect x="0" y="0" width="360" height="360" fill="url(#glaze)"/>
<path d="M 30 30 L 330 30 L 330 330 L 30 330 Z M 60 60 L 60 300 L 300 300 L 300 60 Z" fill="rgb(255,255,255)" opacity="0.4"/>
<path d="M 0 0 L 360 0 L 360 360 L 0 360 Z M 30 30 L 30 330 L 330 330 L 330 30 Z" fill="rgb(0,0,0)" opacity="0.4"/>
</g>
</svg>
