<?xml version="1.0"?>
<svg xmlns="http://www.w3.org/2000/svg" xmlns:xlink="http://www.w3.org/1999/xlink" version="1.1" width="360" height="360" viewBox="0 0 360 360">
<!-- Generated by Kreative Vexillo v1.0 -->
<style>
.black{fill:rgb(0,0,0);}
.blue{fill:rgb(0,157,220);}
.green{fill:rgb(84,185,72);}
.yellow{fill:rgb(255,210,0);}
</style>
<defs>
<clipPath id="clip0">
<rect x="0" y="0" width="360" height="360"/>
</clipPath>
<linearGradient id="glaze" x1="0%" y1="0%" x2="100%" y2="100%">
<stop offset="0%" stop-color="rgb(255,255,255)" stop-opacity="0.2"/>
<stop offset="49.999%" stop-color="rgb(255,255,255)" stop-opacity="0.0"/>
<stop offset="50.001%" stop-color="rgb(0,0,0)" stop-opacity="0.0"/>
<stop offset="100%" stop-color="rgb(0,0,0)" stop-opacity="0.2"/>
</linearGradient>
</defs>
<g>
<path d="M 0 0 L 360 0 L 0 360 Z" class="green"/>
<path d="M 360 0 L 360 360 L 0 360 Z" class="blue"/>
<g clip-path="url(#clip0)">
<path d="M 410.3814 50.3814 L 410.3814 50.3814 L 50.3814 410.3814 L -50.3814 309.6186 L 309.6186 -50.3814 Z" class="yellow"/>
<path d="M 394.4715 34.4715 L 394.4715 34.4715 L 34.4715 394.4715 L -34.4715 325.5285 L 325.5285 -34.4715 Z" class="black"/>
</g>
</g>
<g>
<rect x="0" y="0" width="360" height="360" fill="url(#glaze)"/>
<path d="M 30 30 L 330 30 L 330 330 L 30 330 Z M 60 60 L 60 300 L 300 300 L 300 60 Z" fill="rgb(255,255,255)" opacity="0.4"/>
<path d="M 0 0 L 360 0 L 360 360 L 0 360 Z M 30 30 L 30 330 L 330 330 L 330 30 Z" fill="rgb(0,0,0)" opacity="0.4"/>
</g>
</svg>
