<?xml version="1.0"?>
<svg xmlns="http://www.w3.org/2000/svg" xmlns:xlink="http://www.w3.org/1999/xlink" version="1.1" width="360" height="360" viewBox="0 0 360 360">
<!-- Generated by Kreative Vexillo v1.0 -->
<style>
.black{fill:rgb(0,0,0);}
.red{fill:rgb(152,30,50);}
.white{fill:rgb(255,255,255);}
.yellow{fill:rgb(234,171,0);}
</style>
<defs>
<path id="hcross" d="M -0.5 0.5 V 0.98440003 C -0.5 1.2605001 -0.2762 1.4844 0.0 1.4844 S 0.5 1.2605001 0.5 0.98440003 V 0.5 H 0.9375 C 1.2137 0.5 1.4375 0.27609998 1.4375 0.0 S 1.2137 -0.5 0.9375 -0.5 H 0.5 V -0.98440003 C 0.5 -1.2605001 0.2762 -1.4844 0.0 -1.4844 S -0.5 -1.2605001 -0.5 -0.98440003 V -0.5 V 0.5 Z"/>
<path id="vcross" d="M 0.5 0.5 H 0.98440003 C 1.2606001 0.5 1.4844 0.27609998 1.4844 0.0 S 1.2606001 -0.5 0.98440003 -0.5 H 0.5 V -0.75 C 0.5 -1.0261 0.2762 -1.25 0.0 -1.25 S -0.5 -1.0261 -0.5 -0.75 V -0.5 H -0.98440003 C -1.2606001 -0.5 -1.4844 -0.27609998 -1.4844 0.0 S -1.2606001 0.5 -0.98440003 0.5 H -0.5 H 0.5 Z"/>
<clipPath id="clip0">
<path d="M 0 0 L 30 0 L 360 330 L 360 360 L 330 360 L 0 30 Z"/>
</clipPath>
<clipPath id="clip1">
<rect x="0" y="180" width="90" height="90"/>
<rect x="90" y="270" width="90" height="90"/>
<rect x="180" y="0" width="90" height="90"/>
<rect x="270" y="90" width="90" height="90"/>
</clipPath>
<clipPath id="clip2">
<rect x="90" y="180" width="90" height="90"/>
<rect x="0" y="270" width="90" height="90"/>
<rect x="270" y="0" width="90" height="90"/>
<rect x="180" y="90" width="90" height="90"/>
</clipPath>
<linearGradient id="glaze" x1="0%" y1="0%" x2="100%" y2="100%">
<stop offset="0%" stop-color="rgb(255,255,255)" stop-opacity="0.2"/>
<stop offset="49.999%" stop-color="rgb(255,255,255)" stop-opacity="0.0"/>
<stop offset="50.001%" stop-color="rgb(0,0,0)" stop-opacity="0.0"/>
<stop offset="100%" stop-color="rgb(0,0,0)" stop-opacity="0.2"/>
</linearGradient>
</defs>
<g>
<g>
<g>
<rect x="0" y="0" width="30" height="360" class="yellow"/>
<rect x="30" y="0" width="30" height="360" class="black"/>
<rect x="60" y="0" width="30" height="360" class="yellow"/>
<rect x="90" y="0" width="30" height="360" class="black"/>
<rect x="120" y="0" width="30" height="360" class="yellow"/>
<rect x="150" y="0" width="30" height="360" class="black"/>
<rect x="180" y="0" width="30" height="360" class="yellow"/>
<rect x="210" y="0" width="30" height="360" class="black"/>
<rect x="240" y="0" width="30" height="360" class="yellow"/>
<rect x="270" y="0" width="30" height="360" class="black"/>
<rect x="300" y="0" width="30" height="360" class="yellow"/>
<rect x="330" y="0" width="30" height="360" class="black"/>
</g>
<g clip-path="url(#clip0)">
<g>
<rect x="0" y="0" width="30" height="360" class="black"/>
<rect x="30" y="0" width="30" height="360" class="yellow"/>
<rect x="60" y="0" width="30" height="360" class="black"/>
<rect x="90" y="0" width="30" height="360" class="yellow"/>
<rect x="120" y="0" width="30" height="360" class="black"/>
<rect x="150" y="0" width="30" height="360" class="yellow"/>
<rect x="180" y="0" width="30" height="360" class="black"/>
<rect x="210" y="0" width="30" height="360" class="yellow"/>
<rect x="240" y="0" width="30" height="360" class="black"/>
<rect x="270" y="0" width="30" height="360" class="yellow"/>
<rect x="300" y="0" width="30" height="360" class="black"/>
<rect x="330" y="0" width="30" height="360" class="yellow"/>
</g>
</g>
</g>
<g>
<rect x="0" y="180" width="90" height="90" class="white"/>
<rect x="90" y="180" width="90" height="90" class="red"/>
<rect x="0" y="270" width="90" height="90" class="red"/>
<rect x="90" y="270" width="90" height="90" class="white"/>
</g>
<g>
<rect x="180" y="0" width="90" height="90" class="white"/>
<rect x="270" y="0" width="90" height="90" class="red"/>
<rect x="180" y="90" width="90" height="90" class="red"/>
<rect x="270" y="90" width="90" height="90" class="white"/>
</g>
<g clip-path="url(#clip1)">
<g>
<rect x="27" y="261.36" width="126" height="17.28" class="red"/>
<rect x="81.36" y="221.4" width="17.28" height="97.2" class="red"/>
</g>
<g>
<rect x="207" y="81.36" width="126" height="17.28" class="red"/>
<rect x="261.36" y="41.4" width="17.28" height="97.2" class="red"/>
</g>
<use xlink:href="#hcross" transform="translate(153 270) scale(17.28 17.28) rotate(0)" class="red"/>
<use xlink:href="#hcross" transform="translate(27 270) scale(17.28 17.28) rotate(180)" class="red"/>
<use xlink:href="#hcross" transform="translate(333 90) scale(17.28 17.28) rotate(0)" class="red"/>
<use xlink:href="#hcross" transform="translate(207 90) scale(17.28 17.28) rotate(180)" class="red"/>
<use xlink:href="#vcross" transform="translate(90 221.4) scale(17.28 17.28) rotate(0)" class="red"/>
<use xlink:href="#vcross" transform="translate(90 318.6) scale(17.28 17.28) rotate(180)" class="red"/>
<use xlink:href="#vcross" transform="translate(270 41.4) scale(17.28 17.28) rotate(0)" class="red"/>
<use xlink:href="#vcross" transform="translate(270 138.6) scale(17.28 17.28) rotate(180)" class="red"/>
</g>
<g clip-path="url(#clip2)">
<g>
<rect x="27" y="261.36" width="126" height="17.28" class="white"/>
<rect x="81.36" y="221.4" width="17.28" height="97.2" class="white"/>
</g>
<g>
<rect x="207" y="81.36" width="126" height="17.28" class="white"/>
<rect x="261.36" y="41.4" width="17.28" height="97.2" class="white"/>
</g>
<use xlink:href="#hcross" transform="translate(153 270) scale(17.28 17.28) rotate(0)" class="white"/>
<use xlink:href="#hcross" transform="translate(27 270) scale(17.28 17.28) rotate(180)" class="white"/>
<use xlink:href="#hcross" transform="translate(333 90) scale(17.28 17.28) rotate(0)" class="white"/>
<use xlink:href="#hcross" transform="translate(207 90) scale(17.28 17.28) rotate(180)" class="white"/>
<use xlink:href="#vcross" transform="translate(90 221.4) scale(17.28 17.28) rotate(0)" class="white"/>
<use xlink:href="#vcross" transform="translate(90 318.6) scale(17.28 17.28) rotate(180)" class="white"/>
<use xlink:href="#vcross" transform="translate(270 41.4) scale(17.28 17.28) rotate(0)" class="white"/>
<use xlink:href="#vcross" transform="translate(270 138.6) scale(17.28 17.28) rotate(180)" class="white"/>
</g>
</g>
<g>
<rect x="0" y="0" width="360" height="360" fill="url(#glaze)"/>
<path d="M 30 30 L 330 30 L 330 330 L 30 330 Z M 60 60 L 60 300 L 300 300 L 300 60 Z" fill="rgb(255,255,255)" opacity="0.4"/>
<path d="M 0 0 L 360 0 L 360 360 L 0 360 Z M 30 30 L 30 330 L 330 330 L 330 30 Z" fill="rgb(0,0,0)" opacity="0.4"/>
</g>
</svg>
