<?xml version="1.0"?>
<svg xmlns="http://www.w3.org/2000/svg" xmlns:xlink="http://www.w3.org/1999/xlink" version="1.1" width="360" height="360" viewBox="0 0 360 360">
<!-- Generated by Kreative Vexillo v1.0 -->
<style>
.blue{fill:rgb(8,31,64);}
.red{fill:rgb(194,31,50);}
.white{fill:rgb(255,255,255);}
.yellow{fill:rgb(234,171,34);}
</style>
<defs>
<path id="magnolia" d="M -0.2217 0.1616 C -0.214 0.1602 -0.2076 0.1591 -0.2015 0.15799999 C -0.2015 0.15689999 -0.2015 0.15599999 -0.2013 0.1548 C -0.20719999 0.1539 -0.2131 0.1521 -0.219 0.1523 C -0.2428 0.1532 -0.266 0.1503 -0.2886 0.1435 C -0.3079 0.1376 -0.3204 0.124400005 -0.3276 0.1063 C -0.3333 0.092199996 -0.3278 0.076799996 -0.3135 0.06639999 C -0.287 0.047099993 -0.2568 0.04029999 -0.2243 0.04119999 C -0.208 0.04169999 -0.195 0.05069999 -0.1803 0.05479999 C -0.1628 0.05929999 -0.1451 0.062999986 -0.1279 0.06749999 C -0.1243 0.06839999 -0.120400004 0.07109999 -0.11840001 0.07429999 C -0.113400005 0.08179999 -0.10910001 0.08999999 -0.10390001 0.09929999 C -0.12320001 0.09929999 -0.14160001 0.09929999 -0.1602 0.09929999 C -0.1604 0.10019999 -0.1604 0.10089999 -0.1607 0.10179999 C -0.15069999 0.10409999 -0.1407 0.10679999 -0.13049999 0.108199984 C -0.12259999 0.10929999 -0.114399984 0.10929999 -0.106499985 0.10799998 C -0.09919999 0.10689998 -0.09539998 0.109099984 -0.09179998 0.114799984 C -0.08949998 0.118399985 -0.08659998 0.121399984 -0.08339998 0.12549998 C -0.11289998 0.14249998 -0.14619997 0.14549997 -0.17889997 0.15339997 C -0.16779998 0.15999997 -0.14669997 0.15629998 -0.09109997 0.13959998 C -0.09749997 0.14959998 -0.12809998 0.16499998 -0.15189996 0.17109998 C -0.17569996 0.17749998 -0.19819996 0.17249997 -0.22179997 0.16179998 Z M -0.069299996 0.13939999 C -0.054599997 0.1451 -0.040699996 0.15049998 -0.026399996 0.15599999 C -0.030299995 0.1633 -0.034299996 0.17119999 -0.038399994 0.17909999 C -0.037699994 0.17979999 -0.036999993 0.18069999 -0.036399994 0.18139999 C -0.032999992 0.17869999 -0.028899994 0.17659998 -0.026399994 0.17349999 C -0.023199994 0.16939999 -0.021899994 0.1642 -0.018899994 0.16009998 C -0.017099993 0.15759999 -0.013199994 0.15669999 -0.010299994 0.15509999 C -0.009199994 0.15759999 -0.0066999937 0.16029999 -0.0070999935 0.16259998 C -0.008699994 0.17259999 -0.010699993 0.18229999 -0.012999994 0.19209999 C -0.0147999935 0.20069999 -0.017299995 0.2091 -0.019399993 0.218 C -0.007399993 0.2119 -0.0027999934 0.198 0.0022000074 0.1545 C 0.005100007 0.1538 0.008300007 0.1531 0.012900008 0.1522 C 0.014300007 0.161 0.015600008 0.1692 0.017000008 0.1783 C 0.024500009 0.1731 0.024500009 0.16669999 0.022900008 0.16059999 C 0.021100007 0.1529 0.023100007 0.1493 0.030800007 0.1459 C 0.043100007 0.1407 0.05440001 0.1334 0.06690001 0.1264 C 0.07100001 0.1328 0.07480001 0.1398 0.07980001 0.1459 C 0.08680001 0.1545 0.09520001 0.162 0.10250001 0.1704 C 0.10610001 0.17469999 0.110400006 0.17989999 0.1111 0.18509999 C 0.112500004 0.19369999 0.11220001 0.20279999 0.1106 0.21139999 C 0.1083 0.22249998 0.1022 0.23159999 0.09 0.23429999 C 0.062100004 0.24039999 0.034200005 0.24629998 0.0063000023 0.25219998 C -2.9999763E-4 0.25359997 -0.0070999973 0.25449997 -0.013399998 0.25669998 C 0.017000003 0.26209998 0.046500005 0.25469998 0.076000005 0.24879998 C 0.045600004 0.26669997 0.012900002 0.2774 -0.022699997 0.2774 C -0.045399997 0.2774 -0.090799995 0.2552 -0.1087 0.23519999 C -0.0842 0.24499999 -0.0626 0.2572 -0.037699997 0.25809997 C -0.037499998 0.25739998 -0.036999997 0.25649998 -0.036799997 0.25579998 C -0.039499998 0.25469998 -0.0422 0.25349998 -0.044699997 0.25239998 C -0.070099995 0.24129999 -0.095699996 0.23039998 -0.1209 0.21879998 C -0.1318 0.21379998 -0.1406 0.19719997 -0.139 0.18549998 C -0.1388 0.18319999 -0.137 0.18009998 -0.1354 0.17959999 C -0.109799996 0.17139998 -0.088 0.15619999 -0.069199994 0.13939999 Z M 0.08840001 0.13849999 C 0.1254 0.153 0.19710001 0.16279998 0.23040001 0.1537 C 0.22450002 0.15259999 0.21840002 0.1512 0.2125 0.1505 C 0.1857 0.148 0.1587 0.1467 0.1319 0.1435 C 0.1113 0.141 0.0936 0.1308 0.0773 0.1174 C 0.0888 0.1049 0.0995 0.0924 0.1113 0.0816 C 0.1154 0.0777 0.1231 0.0779 0.129 0.0761 C 0.1567 0.0679 0.1843 0.0589 0.212 0.0514 C 0.2333 0.0457 0.2549 0.0439 0.2767 0.0498 C 0.29889998 0.0559 0.3157 0.0693 0.32639998 0.08930001 C 0.34019998 0.115600005 0.32189998 0.1492 0.29209998 0.15280001 C 0.2805 0.1542 0.26869997 0.15480001 0.25579998 0.15570001 C 0.25779998 0.15840001 0.25919998 0.16020001 0.26059997 0.16210002 C 0.26039997 0.16260001 0.26009998 0.16320002 0.25969997 0.16350001 C 0.24039997 0.16870001 0.22109997 0.17480001 0.20139997 0.17850001 C 0.16709997 0.18490002 0.13429996 0.1808 0.10629997 0.1579 C 0.0997 0.1519 0.0943 0.1449 0.0884 0.1385 Z M 0.2281 -0.0741 C 0.2261 -0.065900005 0.2233 -0.058000002 0.2224 -0.0498 C 0.21579999 0.0033 0.17729999 0.0489 0.1255 0.0634 C 0.12499999 0.0636 0.12439999 0.0634 0.1235 0.0634 C 0.1197 0.0441 0.1006 0.0475 0.0879 0.0407 C 0.0997 0.0332 0.1111 0.0262 0.1226 0.0192 C 0.1222 0.018 0.1215 0.0171 0.121 0.016 C 0.1072 0.0219 0.0931 0.0278 0.0793 0.0337 C 0.1045 0.0071 0.1315 -0.0174 0.1517 -0.048 C 0.151 -0.0487 0.1503 -0.0496 0.1494 -0.0502 C 0.1206 -0.0217 0.092 0.0067 0.0632 0.0353 C 0.0625 0.0346 0.0616 0.0341 0.0609 0.0335 C 0.0614 0.0319 0.0618 0.0301 0.0625 0.0285 C 0.0782 -0.0031 0.0902 -0.0357 0.09 -0.0716 C 0.09 -0.0734 0.090500005 -0.0757 0.091400005 -0.0773 C 0.109500006 -0.1072 0.1318 -0.1331 0.1656 -0.14629999 C 0.1858 -0.15419999 0.2069 -0.1563 0.228 -0.15059999 C 0.2405 -0.14719999 0.2446 -0.14149998 0.243 -0.12839998 C 0.2421 -0.11959998 0.2394 -0.11119998 0.2373 -0.102499984 C 0.2364 -0.098599985 0.23529999 -0.094999984 0.2359 -0.09049998 C 0.2379 -0.09299998 0.2398 -0.095499985 0.242 -0.09839998 C 0.2538 -0.09229998 0.2572 -0.08119998 0.2579 -0.06979998 C 0.2602 -0.03739998 0.2584 -0.005099982 0.2452 0.025500014 C 0.2427 0.031600013 0.2391 0.033700015 0.23249999 0.034600016 C 0.2171 0.036900017 0.20159999 0.040700015 0.18509999 0.044100016 C 0.20169999 0.028700016 0.21599999 0.011900015 0.22529998 -0.008299984 C 0.23509999 -0.029399984 0.23049998 -0.051899984 0.23139998 -0.07359999 C 0.23049998 -0.07359999 0.22939998 -0.07379999 0.22819999 -0.07409999 Z M 0.1342 0.0083 C 0.1349 0.0092 0.1356 0.0103 0.13620001 0.0112 C 0.14230001 0.0095999995 0.1464 0.0054999995 0.14960001 9.999983E-5 C 0.14890002 -8.0000015E-4 0.14820002 -0.0017000001 0.14730002 -0.0028000001 C 0.14300002 0.0010999998 0.13850002 0.0046999995 0.13410002 0.0083 Z M -0.23719999 -0.010799999 C -0.22929999 -0.0050999993 -0.2218 0.0019000005 -0.21319999 0.0062000016 C -0.1889 0.018200003 -0.16399999 0.0293 -0.13919999 0.0405 C -0.13129999 0.0439 -0.13099998 0.0434 -0.12849998 0.0548 C -0.14079998 0.0523 -0.15249999 0.050300002 -0.16389999 0.0473 C -0.19929999 0.038 -0.2279 0.0183 -0.24969998 -0.011 C -0.26199996 -0.0273 -0.269 -0.0457 -0.26599997 -0.0664 C -0.26309997 -0.0873 -0.25219998 -0.0982 -0.23109998 -0.1002 C -0.20249999 -0.1029 -0.17599997 -0.094799995 -0.15009998 -0.08409999 C -0.14829998 -0.083399996 -0.14599998 -0.07959999 -0.14649998 -0.0777 C -0.15579997 -0.039799996 -0.14449997 -0.0075999945 -0.119099975 0.0203 C -0.12429997 0.031000001 -0.12249997 0.0319 -0.111199975 0.0344 C -0.10049997 0.036700003 -0.090099975 0.0414 -0.08059998 0.0467 C -0.069899976 0.0524 -0.06039998 0.0599 -0.050199978 0.0662 C -0.03769998 0.0739 -0.024099978 0.0723 -0.010999978 0.0691 C 0.0074 0.0648 0.0253 0.0598 0.0432 0.055 C 0.063 0.05 0.0825 0.0514 0.1015 0.0582 C 0.1102 0.0611 0.1104 0.0623 0.1047 0.0689 C 0.0866 0.09 0.068 0.1108 0.0439 0.1253 C 0.014 0.1435 -0.0176 0.1489 -0.0502 0.1337 C -0.0707 0.1244 -0.0834 0.1067 -0.0952 0.0886 C -0.106 0.072 -0.1165 0.0552 -0.1271 0.0389 C -0.1285 0.0369 -0.1305 0.035 -0.13280001 0.0341 C -0.16480002 0.0191 -0.1965 0.0044 -0.22850001 -0.010400001 C -0.2308 -0.011500001 -0.23300001 -0.012200001 -0.2353 -0.013100001 C -0.2362 -0.012400001 -0.2367 -0.011500001 -0.2371 -0.010800001 Z M 0.0377 -0.1574 C 0.020900002 -0.1721 0.0044 -0.1871 -0.011999998 -0.2023 C -0.029699998 -0.2186 -0.040799998 -0.2191 -0.0594 -0.2041 C -0.0605 -0.2032 -0.0617 -0.2023 -0.0626 -0.2014 C -0.1048 -0.1633 -0.1286 -0.115899995 -0.1361 -0.059599996 C -0.14 -0.030799996 -0.11179999 0.0159 -0.080299996 0.030900002 C -0.069699995 0.0361 -0.070199996 -0.0064000003 -0.027199995 -0.022299998 C -0.0108999945 -0.022399997 -0.0047999956 -0.012499997 0.022600006 0.020000003 C 0.04010001 -0.013999999 0.044000007 -0.034599997 0.038300008 -0.072799996 C 0.037400007 -0.079399996 0.034900006 -0.0857 0.03310001 -0.092099994 L 0.03540001 -0.0932 C 0.03860001 -0.0871 0.04270001 -0.0814 0.04490001 -0.0751 C 0.05150001 -0.056499995 0.048500013 -0.037699997 0.04580001 -0.019099995 C 0.0424 0.0039 0.0345 0.0252 0.0232 0.0454 C 0.0238 0.0463 0.0245 0.0472 0.0254 0.0481 C 0.0316 0.0445 0.0409 0.0422 0.0436 0.0365 C 0.0542 0.0152 0.0651 -0.0068 0.0719 -0.0295 C 0.0862 -0.0783 0.0774 -0.1223 0.0377 -0.1574 Z M -0.09210001 -0.1256 C -0.09800001 -0.1129 -0.10340001 -0.099999994 -0.10930001 -0.087299995 C -0.11020001 -0.0853 -0.11270001 -0.0839 -0.11450001 -0.0821 C -0.115200005 -0.084599994 -0.11720001 -0.0875 -0.116500005 -0.0896 C -0.110800005 -0.11 -0.101500005 -0.1284 -0.08770001 -0.1445 C -0.08540001 -0.147 -0.08380001 -0.1499 -0.08180001 -0.1527 C -0.080900006 -0.1518 -0.07980001 -0.1509 -0.07890001 -0.15020001 C -0.08340001 -0.142 -0.08820001 -0.1341 -0.09210001 -0.12570001 Z"/>
<path id="magnolia2" d="M -0.0708 0.0372 L -0.0576 0.0154 C -0.039499998 -0.0129 -0.021399997 -0.024 -0.0033 0.0028999997 L 0.0202 0.0271 C 0.0182 0.0353 0.0149 0.0408 0.0115 0.049 C -0.0136 0.0597 -0.0401 0.0571 -0.0539 0.0489 C -0.0593 0.0467 -0.0642 0.0447 -0.0708 0.0372 Z"/>
<path id="star" d="M 0.0 -1.0 L 0.2245 -0.309 L 0.9511 -0.309 L 0.3633 0.118 L 0.5878 0.809 L 0.0 0.382 L -0.5878 0.809 L -0.3633 0.118 L -0.9511 -0.309 L -0.2245 -0.309 Z"/>
<path id="star2" d="M 0.2176 -0.3739 L 0.001699999 -1.0001 L -0.2176 -0.3739 L 0.001699999 -0.053799987 Z M -0.4096 0.1758 L -0.5946 0.8089 L -0.0463 0.4367 V 0.0853 L -0.4096 0.17570001 Z M -0.2931 -0.3182 H -0.9511 L -0.4439 0.08880001 L -0.077199996 -0.0015999898 Z M 0.4438 0.0888 L 0.9511 -0.3182 H 0.293 L 0.07710001 -0.0015999973 L 0.4438 0.0889 Z M 0.4095 0.1758 L 0.046200007 0.08539999 V 0.43679997 L 0.59459996 0.809 Z"/>
<path id="text" d="M 0.2575 0.4157 L 0.2911 0.39049998 L 0.2983 0.39939997 L 0.2968 0.40039995 C 0.2938 0.39789996 0.2916 0.39689994 0.28989998 0.39669997 C 0.28819996 0.39669997 0.28569996 0.39789996 0.28219998 0.40039995 L 0.27899998 0.40289995 L 0.29979998 0.43029994 C 0.3013 0.43229994 0.30279997 0.43329993 0.3038 0.43329993 C 0.30479997 0.43329993 0.30679998 0.43229994 0.3092 0.43079993 L 0.3099 0.43179992 L 0.29259998 0.44489992 L 0.29189998 0.44389993 C 0.29439998 0.44189993 0.29559997 0.44019994 0.2959 0.43919992 C 0.2961 0.43819994 0.2954 0.43649992 0.29369998 0.43429992 L 0.27339998 0.40739992 L 0.26989996 0.40989992 C 0.26669997 0.41239992 0.26469997 0.41459993 0.26419997 0.4162999 C 0.26369998 0.41799992 0.26419997 0.42049992 0.26569998 0.4239999 L 0.26419997 0.4249999 Z M 0.24039999 0.4605 C 0.24329999 0.4624 0.24589999 0.4636 0.24849999 0.4641 C 0.253 0.4651 0.2572 0.4646 0.2611 0.4624 C 0.26319999 0.4612 0.26479998 0.45949998 0.2656 0.4576 C 0.2664 0.4557 0.2661 0.4535 0.26479998 0.4516 C 0.26349998 0.4497 0.26169997 0.44869998 0.2593 0.4482 C 0.2577 0.44799998 0.2546 0.44799998 0.2501 0.4482 L 0.24219999 0.4484 C 0.23979999 0.4484 0.23769999 0.4484 0.23619999 0.4479 C 0.2331 0.4472 0.23099999 0.4457 0.2294 0.4438 C 0.2276 0.4409 0.227 0.438 0.22809999 0.43490002 C 0.22909999 0.4318 0.23149998 0.4291 0.23519999 0.42690003 C 0.23679999 0.42590004 0.23889999 0.42520002 0.24119999 0.42470002 C 0.24379998 0.42400002 0.24509999 0.42370003 0.24539998 0.42350003 C 0.24619998 0.42300004 0.24669999 0.42250004 0.24669999 0.42200002 C 0.24669999 0.42150003 0.24669999 0.42080003 0.24639998 0.42010003 L 0.24769999 0.41940004 L 0.2571 0.43050003 L 0.2555 0.43150002 C 0.2521 0.4286 0.24839999 0.4271 0.2453 0.4271 C 0.2419 0.4271 0.239 0.4278 0.2366 0.429 C 0.2348 0.42999998 0.2335 0.4314 0.23269999 0.4331 C 0.23189999 0.4348 0.2322 0.43649998 0.23319998 0.43789998 C 0.23419999 0.4394 0.23559998 0.4403 0.23709999 0.44079998 C 0.23889999 0.44129997 0.24129999 0.44129997 0.24419999 0.44129997 L 0.2521 0.44079998 C 0.2571 0.44059998 0.2608 0.44079998 0.2634 0.44149998 C 0.266 0.44219998 0.2681 0.4437 0.2694 0.44589996 C 0.2715 0.44879997 0.2718 0.45189998 0.2704 0.45559996 C 0.26909998 0.45899996 0.2665 0.46209997 0.26229998 0.46429998 C 0.2602 0.46549997 0.25779998 0.46649998 0.2552 0.46699998 C 0.25259998 0.46769997 0.251 0.46799996 0.2507 0.46819997 C 0.2499 0.46869996 0.24939999 0.46919996 0.24939999 0.46969998 C 0.24939999 0.47019997 0.24939999 0.47089997 0.2497 0.4714 L 0.2481 0.47239998 L 0.23809999 0.46179998 Z M 0.19239998 0.4512 L 0.19289997 0.4524 C 0.19049998 0.4538 0.18909997 0.455 0.18859997 0.456 C 0.18809998 0.457 0.18859997 0.4586 0.18959998 0.4606 L 0.19899997 0.4793 C 0.20039997 0.4824 0.20209996 0.48459998 0.20399997 0.4858 C 0.20739996 0.488 0.21139997 0.488 0.21619996 0.4856 C 0.22149996 0.48299998 0.22439997 0.47959998 0.22439997 0.4755 C 0.22439997 0.47309998 0.22369997 0.4702 0.22179997 0.4664 L 0.21409997 0.4513 C 0.21239997 0.4482 0.21099998 0.4463 0.20979998 0.446 C 0.20859997 0.44550002 0.20669998 0.446 0.20429997 0.447 L 0.20379998 0.4458 L 0.21869998 0.4384 L 0.21919997 0.4396 C 0.21679997 0.44099998 0.21539997 0.4425 0.21509998 0.4437 C 0.21489997 0.44489998 0.21529998 0.44709998 0.21679997 0.4502 L 0.22449997 0.4653 C 0.22639997 0.4694 0.22739998 0.4727 0.22709997 0.4759 C 0.22659998 0.48139998 0.22279997 0.48569998 0.21579997 0.48929998 C 0.20879997 0.49289998 0.20309997 0.4931 0.19849998 0.49029997 C 0.196 0.4886 0.1938 0.486 0.1919 0.4824 L 0.1828 0.4641 C 0.1818 0.4619 0.18059999 0.4607 0.1797 0.4605 C 0.1787 0.4603 0.1768 0.4607 0.1744 0.4617 L 0.17390001 0.4605 Z M 0.14519998 0.5148 C 0.14749998 0.5136 0.14919998 0.5127 0.14939998 0.5118 C 0.14989997 0.5109 0.14939998 0.5092 0.14849998 0.5067 L 0.1386 0.4808 C 0.13790001 0.4787 0.13700001 0.4775 0.136 0.4771 C 0.1351 0.47660002 0.13340001 0.4769 0.13090001 0.4776 L 0.13040002 0.47640002 L 0.14870001 0.46940002 C 0.15240002 0.46800002 0.15600002 0.46730003 0.1588 0.46710002 C 0.16420001 0.46690002 0.16770001 0.469 0.16960001 0.47340003 C 0.17080002 0.47640002 0.17050001 0.47900003 0.16890001 0.4814 C 0.16730002 0.4837 0.16490002 0.48580003 0.16140002 0.488 L 0.18080002 0.4981 C 0.18200003 0.4988 0.18310001 0.499 0.18410002 0.4993 C 0.18500002 0.4993 0.18620002 0.4993 0.18760002 0.4988 L 0.18810001 0.5 L 0.17760001 0.504 L 0.15420002 0.4918 L 0.15140001 0.493 L 0.15580001 0.5047 C 0.15670002 0.5068 0.15740001 0.5082 0.15860002 0.5084 C 0.15950002 0.5086 0.16140002 0.5084 0.16400002 0.5077 L 0.16450001 0.50890005 L 0.14620002 0.5159001 Z M 0.15989998 0.4855 C 0.16289999 0.4829 0.16359998 0.4799 0.16249998 0.4761 C 0.16109999 0.47259998 0.15879998 0.471 0.15499999 0.4707 C 0.15309998 0.4707 0.15079999 0.4712 0.14799999 0.4721 C 0.14609998 0.4728 0.14499998 0.47329998 0.14469999 0.4737 C 0.14449999 0.47419998 0.14449999 0.4746 0.14469999 0.47559997 L 0.1503 0.49029997 C 0.155 0.48869997 0.15799999 0.48699996 0.1599 0.48539996 Z M 0.08289998 0.4894 L 0.12709998 0.4792 L 0.13089998 0.4892 L 0.12899998 0.4897 C 0.12709998 0.4867 0.12519997 0.4849 0.12329998 0.4842 C 0.12169998 0.4835 0.11849998 0.4837 0.113899976 0.4849 L 0.10959998 0.4858 L 0.119599976 0.5163 C 0.120399974 0.51860005 0.12119997 0.5199 0.12229998 0.5202 C 0.12339997 0.5204 0.12549998 0.5204 0.12879997 0.5197 L 0.12909998 0.5208 L 0.10619998 0.526 L 0.10589998 0.5249 C 0.109099984 0.52400005 0.11099998 0.5231 0.111799985 0.52220005 C 0.112299986 0.5213001 0.112299986 0.51970005 0.11149999 0.51720005 L 0.10179999 0.48740005 L 0.09749999 0.48830006 C 0.09319999 0.48920006 0.09049999 0.49060005 0.08909999 0.49170005 C 0.08779999 0.49310005 0.087199986 0.49530005 0.08749999 0.49880004 L 0.08559999 0.49930003 Z M 0.01599998 0.5377 C 0.01899998 0.5372 0.020899981 0.5365 0.02169998 0.5358 C 0.02249998 0.5351 0.02279998 0.5337 0.02249998 0.5311 L 0.0191 0.5028 C 0.0188 0.5004 0.0183 0.499 0.0172 0.4985 C 0.0161 0.4978 0.0161 0.4979 0.0161 0.4972 L 0.015800001 0.49600002 L 0.0542 0.49230003 L 0.055600002 0.5015 L 0.053400002 0.5017 C 0.0523 0.499 0.0509 0.4973 0.0496 0.4966 C 0.0482 0.4959 0.045 0.4959 0.0401 0.4964 L 0.0289 0.4976 C 0.0278 0.4976 0.026999999 0.4978 0.0267 0.4983 C 0.0264 0.4985 0.0264 0.4992 0.0264 0.5 L 0.0283 0.5142 L 0.0408 0.51299995 C 0.0443 0.5128 0.0465 0.5121 0.047300003 0.51109993 C 0.048100002 0.51019996 0.048700005 0.5084999 0.048900004 0.5058999 L 0.050800003 0.50569993 L 0.0527 0.52059996 L 0.050800003 0.52079993 C 0.0501 0.5184 0.049 0.5167 0.0479 0.516 C 0.0468 0.5153 0.0447 0.5151 0.0411 0.5156 L 0.0286 0.51680005 L 0.0305 0.53270006 C 0.0308 0.5339001 0.0313 0.5346001 0.0324 0.53480005 C 0.0335 0.535 0.0365 0.53480005 0.0417 0.5343 C 0.0471 0.5338 0.051200002 0.53290004 0.0537 0.5317 C 0.0561 0.5305 0.0583 0.52790004 0.06 0.5241 L 0.0622 0.52390003 L 0.0598 0.535 L 0.015699998 0.5393 Z M -0.03690002 0.4959 V 0.4972 C -0.03840002 0.4972 -0.039400022 0.4975 -0.04010002 0.4975 C -0.04130002 0.4978 -0.04180002 0.4985 -0.04180002 0.4996 C -0.04180002 0.5001 -0.04180002 0.5006 -0.04160002 0.5009 C -0.04140002 0.5014 -0.04140002 0.50189996 -0.041100018 0.5027 L -0.030400017 0.52959996 L -0.022400018 0.50969994 L -0.025900017 0.50109994 C -0.026600018 0.49949995 -0.027600018 0.49849993 -0.028900018 0.49799994 C -0.029600019 0.49769995 -0.030900018 0.49749994 -0.03240002 0.49749994 V 0.49619994 H -0.01230002 V 0.49749994 C -0.01430002 0.49749994 -0.01550002 0.49779993 -0.01630002 0.49779993 C -0.01750002 0.49829993 -0.018000022 0.49909994 -0.018000022 0.5001999 C -0.018000022 0.50069994 -0.018000022 0.5009999 -0.017800022 0.5011999 C -0.017600022 0.5014999 -0.017600022 0.5021999 -0.017100021 0.5029999 L -0.006400021 0.5296999 L 0.0018999791 0.5059999 C 0.0023999792 0.50469995 0.0028999792 0.5033999 0.0028999792 0.5022999 C 0.0028999792 0.5017999 0.0030999791 0.5012999 0.0030999791 0.5006999 C 0.0030999791 0.49939987 0.0023999792 0.49829987 0.001099979 0.49779987 C 3.9997906E-4 0.49749988 -6.00021E-4 0.49729988 -0.0021000209 0.49729988 V 0.49599987 L 0.012899979 0.4958999 V 0.4971999 C 0.011699979 0.49749988 0.010399979 0.4976999 0.009899979 0.4979999 C 0.00869998 0.49879992 0.008799979 0.4995999 0.007999979 0.5011999 L -2.142042E-8 0.5223999 L -0.0030000214 0.5304999 L -0.0077000214 0.54329985 H -0.008900021 L -0.012100021 0.5351999 L -0.02080002 0.51319987 L -0.03250002 0.54329985 H -0.033700023 L -0.039200023 0.5286999 L -0.045400023 0.51199985 C -0.047900025 0.50519985 -0.049900025 0.50099987 -0.050900023 0.49949986 C -0.05190002 0.49789986 -0.053600024 0.49709985 -0.055600025 0.49689984 V 0.49559984 Z M -0.13290003 0.5235 C -0.13020003 0.5237 -0.12850003 0.5237 -0.12760003 0.52330005 C -0.12660003 0.5228 -0.12590003 0.52140003 -0.12540004 0.51890004 L -0.119600035 0.49000004 C -0.119100034 0.48760003 -0.119100034 0.48610005 -0.11980004 0.48510003 C -0.120500036 0.48440003 -0.12200004 0.48340002 -0.12470004 0.48290002 L -0.124500036 0.48170003 L -0.105000034 0.48560002 C -0.098400034 0.48680001 -0.09310003 0.48900002 -0.08900003 0.49190003 C -0.08150003 0.49700004 -0.07880003 0.5041 -0.08050003 0.5131 C -0.081200026 0.5163 -0.08240003 0.5192 -0.08460003 0.52190006 C -0.086500034 0.5246 -0.089200035 0.52650005 -0.09260003 0.52800006 C -0.09480003 0.52900004 -0.09700003 0.52950007 -0.098900035 0.52970004 C -0.102800034 0.53020006 -0.10740004 0.5299 -0.11280003 0.52870005 L -0.13270003 0.52480006 Z M -0.11810003 0.52470005 C -0.11760003 0.52520007 -0.11640003 0.52570003 -0.114700034 0.52590007 C -0.10910004 0.5271001 -0.104200035 0.52690005 -0.10010003 0.5257001 C -0.094000034 0.5238001 -0.090100035 0.5189001 -0.08870003 0.5116001 C -0.087500036 0.50500005 -0.08870003 0.49940008 -0.09260003 0.49510008 C -0.09600003 0.49150008 -0.10090003 0.48900008 -0.10740003 0.4876001 C -0.10910003 0.48740008 -0.11010003 0.4871001 -0.11080003 0.48740008 C -0.111500025 0.4876001 -0.11180003 0.48810008 -0.112000026 0.48930007 L -0.118600026 0.5224001 C -0.11880003 0.5236001 -0.118600026 0.5243001 -0.118100025 0.52480006 Z M -0.16720003 0.47300005 C -0.16200003 0.47060004 -0.15600003 0.47040004 -0.14980003 0.47230005 C -0.14360003 0.47420004 -0.13910003 0.47780004 -0.13600004 0.48280007 C -0.13270004 0.48830006 -0.13200004 0.49420008 -0.13410003 0.5009001 C -0.13620004 0.50760007 -0.14030004 0.5123001 -0.14620003 0.5147001 C -0.15140003 0.5168001 -0.15710004 0.5171001 -0.16330004 0.51520014 C -0.16970004 0.5133001 -0.17450003 0.50950015 -0.17760004 0.5043001 C -0.18070003 0.49910012 -0.18120004 0.4931001 -0.17930004 0.48690012 C -0.17720003 0.4802001 -0.17310004 0.4757001 -0.16720004 0.47310013 Z M -0.17170003 0.50490004 C -0.16980003 0.50890005 -0.16690002 0.5116 -0.16270003 0.5127 C -0.15870003 0.51390004 -0.15490003 0.5134 -0.15080002 0.5113 C -0.14700001 0.50920004 -0.14410003 0.50490004 -0.14200002 0.49820003 C -0.13990001 0.49150002 -0.13990001 0.48610002 -0.14180002 0.48230004 C -0.14370002 0.47850004 -0.14680001 0.47590005 -0.15060002 0.47470003 C -0.15460001 0.47350004 -0.15870002 0.47400004 -0.16250002 0.47610003 C -0.16630003 0.47820002 -0.16920002 0.48280004 -0.17130002 0.48920003 C -0.17340003 0.49560001 -0.17340003 0.5008 -0.17180002 0.50490004 Z M -0.18990003 0.45850003 C -0.18770003 0.46020004 -0.18620002 0.46120003 -0.18600002 0.46140003 C -0.18500002 0.46190003 -0.18430002 0.46190003 -0.18380001 0.46190003 C -0.18330002 0.46170002 -0.1826 0.46140003 -0.18210001 0.46090004 L -0.18060002 0.46160004 L -0.18580002 0.47490004 L -0.18730001 0.47420004 C -0.18730001 0.47050005 -0.1878 0.46780005 -0.1888 0.46560004 C -0.1903 0.46190006 -0.1932 0.45920005 -0.1976 0.45730004 C -0.202 0.45530003 -0.2064 0.45530003 -0.21110001 0.45680004 C -0.21580002 0.45830005 -0.21940002 0.46240005 -0.22240001 0.46930003 C -0.2249 0.47490004 -0.22510001 0.48010004 -0.2231 0.48480004 C -0.2211 0.48950005 -0.2177 0.49270004 -0.213 0.49490005 C -0.2123 0.49510005 -0.2113 0.49560004 -0.2101 0.49590003 C -0.20889999 0.49610004 -0.20789999 0.49640003 -0.2067 0.49660003 C -0.205 0.49680004 -0.2038 0.49680004 -0.2033 0.49660003 C -0.2028 0.49640003 -0.2023 0.49610004 -0.2021 0.49540004 L -0.1979 0.48560005 C -0.1969 0.48310006 -0.19669999 0.48170006 -0.1972 0.48070005 C -0.1977 0.47970006 -0.1992 0.47870004 -0.2016 0.47750005 L -0.2011 0.47630006 L -0.18370001 0.48370007 L -0.1842 0.48490006 C -0.1859 0.48420006 -0.18710001 0.48420006 -0.1879 0.48420006 C -0.18910001 0.48440006 -0.19010001 0.48570007 -0.1911 0.48760006 L -0.1963 0.49960005 C -0.1965 0.50030005 -0.199 0.50030005 -0.2034 0.49980006 C -0.2078 0.49930006 -0.2117 0.49830005 -0.2154 0.49660006 C -0.222 0.49370006 -0.2269 0.48950008 -0.2299 0.48410007 C -0.2333 0.47800007 -0.2336 0.4718001 -0.2306 0.46540007 C -0.2281 0.45980006 -0.224 0.45560008 -0.2183 0.45340008 C -0.2119 0.45070007 -0.205 0.45120007 -0.1979 0.45410007 C -0.1947 0.45510006 -0.19229999 0.45660007 -0.19 0.4585001 Z M -0.3057 0.4404 C -0.3031 0.4418 -0.3013 0.4423 -0.3001 0.442 C -0.2989 0.4418 -0.2973 0.4401 -0.2954 0.4373 L -0.28 0.4139 L -0.2802 0.4125 C -0.2804 0.4111 -0.2809 0.40989998 -0.2814 0.4095 C -0.2819 0.4088 -0.2826 0.4081 -0.284 0.4074 L -0.2833 0.4065 L -0.27330002 0.41300002 L -0.2675 0.45340002 L -0.2558 0.4359 C -0.25390002 0.43310001 -0.25300002 0.4308 -0.2535 0.4294 C -0.25370002 0.4285 -0.2549 0.4271 -0.25700003 0.4254 L -0.25630003 0.4245 L -0.24250004 0.43359998 L -0.24320003 0.43449998 C -0.24550003 0.4333 -0.24740003 0.4326 -0.24860004 0.4331 C -0.24980004 0.4333 -0.25140002 0.43499997 -0.25330004 0.4378 L -0.27180004 0.46559998 L -0.27270004 0.4649 L -0.27950004 0.41869998 L -0.29330003 0.43899998 C -0.29520002 0.44179997 -0.29610002 0.4441 -0.29560003 0.4455 C -0.29540002 0.4464 -0.29420003 0.44779998 -0.29230002 0.4495 L -0.293 0.4504 L -0.3068 0.4413 Z M -0.3261 0.4245 C -0.3238 0.4261 -0.3222 0.427 -0.32099998 0.427 C -0.32009998 0.427 -0.3187 0.4261 -0.3173 0.4242 L -0.3003 0.4021 C -0.2989 0.4003 -0.2982 0.3989 -0.2985 0.3977 C -0.2987 0.3966 -0.2999 0.3952 -0.3022 0.3933 L -0.3015 0.3924 L -0.2854 0.405 L -0.2861 0.4059 C -0.2884 0.4043 -0.29 0.4034 -0.2912 0.4034 C -0.29230002 0.4034 -0.2935 0.4043 -0.2949 0.4062 L -0.3119 0.4283 C -0.31329998 0.4301 -0.31399998 0.4317 -0.3137 0.43269998 C -0.3135 0.43359998 -0.3121 0.43499997 -0.31 0.4371 L -0.3107 0.438 L -0.3268 0.4254 Z"/>
<linearGradient id="glaze" x1="0%" y1="0%" x2="100%" y2="100%">
<stop offset="0%" stop-color="rgb(255,255,255)" stop-opacity="0.2"/>
<stop offset="49.999%" stop-color="rgb(255,255,255)" stop-opacity="0.0"/>
<stop offset="50.001%" stop-color="rgb(0,0,0)" stop-opacity="0.0"/>
<stop offset="100%" stop-color="rgb(0,0,0)" stop-opacity="0.2"/>
</linearGradient>
</defs>
<g>
<g>
<rect x="0" y="0" width="78.2609" height="360" class="red"/>
<rect x="78.2609" y="0" width="15.6522" height="360" class="yellow"/>
<rect x="93.913" y="0" width="172.1739" height="360" class="blue"/>
<rect x="266.087" y="0" width="15.6522" height="360" class="yellow"/>
<rect x="281.7391" y="0" width="78.2609" height="360" class="red"/>
</g>
<use xlink:href="#star2" transform="translate(180 109.5652) scale(9.1565 9.1565) rotate(0)" class="yellow"/>
<g>
<use xlink:href="#star" transform="translate(198.2299 111.9652) scale(5.4728 5.4728) rotate(15)" class="white"/>
<use xlink:href="#star" transform="translate(161.7701 111.9652) scale(5.4728 5.4728) rotate(-15)" class="white"/>
<use xlink:href="#star" transform="translate(213.0671 117.8098) scale(5.4728 5.4728) rotate(28)" class="white"/>
<use xlink:href="#star" transform="translate(146.9329 117.8098) scale(5.4728 5.4728) rotate(-28)" class="white"/>
<use xlink:href="#star" transform="translate(226.2094 126.8422) scale(5.4728 5.4728) rotate(41)" class="white"/>
<use xlink:href="#star" transform="translate(133.7906 126.8422) scale(5.4728 5.4728) rotate(-41)" class="white"/>
<use xlink:href="#star" transform="translate(236.9829 138.5995) scale(5.4728 5.4728) rotate(54)" class="white"/>
<use xlink:href="#star" transform="translate(123.0171 138.5995) scale(5.4728 5.4728) rotate(-54)" class="white"/>
<use xlink:href="#star" transform="translate(244.8356 152.4789) scale(5.4728 5.4728) rotate(67)" class="white"/>
<use xlink:href="#star" transform="translate(115.1644 152.4789) scale(5.4728 5.4728) rotate(-67)" class="white"/>
<use xlink:href="#star" transform="translate(249.3647 167.7691) scale(5.4728 5.4728) rotate(80)" class="white"/>
<use xlink:href="#star" transform="translate(110.6353 167.7691) scale(5.4728 5.4728) rotate(-80)" class="white"/>
<use xlink:href="#star" transform="translate(250.3383 183.6863) scale(5.4728 5.4728) rotate(93)" class="white"/>
<use xlink:href="#star" transform="translate(109.6617 183.6863) scale(5.4728 5.4728) rotate(-93)" class="white"/>
<use xlink:href="#star" transform="translate(247.7063 199.4145) scale(5.4728 5.4728) rotate(106)" class="white"/>
<use xlink:href="#star" transform="translate(112.2937 199.4145) scale(5.4728 5.4728) rotate(-106)" class="white"/>
<use xlink:href="#star" transform="translate(241.6036 214.1475) scale(5.4728 5.4728) rotate(119)" class="white"/>
<use xlink:href="#star" transform="translate(118.3964 214.1475) scale(5.4728 5.4728) rotate(-119)" class="white"/>
<use xlink:href="#star" transform="translate(232.3432 227.1301) scale(5.4728 5.4728) rotate(132)" class="white"/>
<use xlink:href="#star" transform="translate(127.6568 227.1301) scale(5.4728 5.4728) rotate(-132)" class="white"/>
</g>
<use xlink:href="#text" transform="translate(180 180) scale(139.4609 139.4609) rotate(0)" class="white"/>
<use xlink:href="#magnolia" transform="translate(180 178.5913) scale(140.8696 140.8696) rotate(0)" class="white"/>
<use xlink:href="#magnolia2" transform="translate(180 178.5913) scale(140.8696 140.8696) rotate(0)" class="yellow"/>
</g>
<g>
<rect x="0" y="0" width="360" height="360" fill="url(#glaze)"/>
<path d="M 30 30 L 330 30 L 330 330 L 30 330 Z M 60 60 L 60 300 L 300 300 L 300 60 Z" fill="rgb(255,255,255)" opacity="0.4"/>
<path d="M 0 0 L 360 0 L 360 360 L 0 360 Z M 30 30 L 30 330 L 330 330 L 330 30 Z" fill="rgb(0,0,0)" opacity="0.4"/>
</g>
</svg>
