<?xml version="1.0"?>
<svg xmlns="http://www.w3.org/2000/svg" xmlns:xlink="http://www.w3.org/1999/xlink" version="1.1" width="360" height="360" viewBox="0 0 360 360">
<!-- Generated by Kreative Vexillo v1.0 -->
<style>
.red{fill:rgb(191,10,48);}
.yellow{fill:rgb(255,215,0);}
</style>
<defs>
<path id="zia" d="M 0.4784 0.0106 H 0.1737 C 0.17390001 0.0070999996 0.17410001 0.0034999996 0.17410001 0.0 S 0.17400001 -0.0071 0.1737 -0.0106 H 0.4784 C 0.4901 -0.0106 0.49969998 -0.0201 0.49969998 -0.0319 S 0.49019998 -0.0532 0.4784 -0.0532 H 0.1657 C 0.16330001 -0.0605 0.1605 -0.0677 0.15730001 -0.074499995 H 0.3934 C 0.40510002 -0.074499995 0.4147 -0.08399999 0.4147 -0.0958 C 0.4147 -0.107499994 0.4052 -0.1171 0.3934 -0.1171 H 0.12890002 C 0.12510002 -0.1212 0.121200025 -0.1252 0.11700002 -0.12900001 V -0.3934 C 0.11700002 -0.40510002 0.107500024 -0.4147 0.095700026 -0.4147 S 0.07440002 -0.4052 0.07440002 -0.3934 V -0.15730001 C 0.067500025 -0.1606 0.060400024 -0.16340001 0.053100023 -0.1657 V -0.4784 C 0.053100023 -0.4901 0.043600023 -0.49969998 0.031800024 -0.49969998 S 0.010500025 -0.49019998 0.010500025 -0.4784 V -0.1737 C 0.007000025 -0.17390001 0.003400025 -0.17410001 -9.9974684E-5 -0.17410001 C -0.0036999746 -0.17410001 -0.0071999747 -0.17400001 -0.010699974 -0.1737 V -0.4784 C -0.010699974 -0.4901 -0.020199973 -0.49969998 -0.031999975 -0.49969998 S -0.053299975 -0.49019998 -0.053299975 -0.4784 V -0.16569999 C -0.060599975 -0.1633 -0.06779997 -0.16049999 -0.074599974 -0.1573 V -0.3934 C -0.074599974 -0.40510002 -0.08409997 -0.4147 -0.09589997 -0.4147 C -0.107599966 -0.4147 -0.11719997 -0.4052 -0.11719997 -0.3934 V -0.1288 C -0.121299975 -0.125 -0.12529998 -0.12110001 -0.12909997 -0.116900004 H -0.3934 C -0.40510002 -0.116900004 -0.4147 -0.10740001 -0.4147 -0.09560001 C -0.4147 -0.08390001 -0.4052 -0.074300006 -0.3934 -0.074300006 H -0.15730001 C -0.1606 -0.06740001 -0.16340001 -0.060300007 -0.1657 -0.053000007 H -0.4784 C -0.4901 -0.053000007 -0.49969998 -0.043500006 -0.49969998 -0.031700008 S -0.49019998 -0.010400008 -0.4784 -0.010400008 H -0.1737 C -0.17390001 -0.0069000083 -0.17410001 -0.0033000084 -0.17410001 1.9999128E-4 S -0.17400001 0.0072999913 -0.1737 0.010799991 H -0.4784 C -0.4901 0.010799991 -0.49969998 0.02029999 -0.49969998 0.032099992 S -0.49019998 0.05339999 -0.4784 0.05339999 H -0.16569999 C -0.1633 0.060699992 -0.16049999 0.06789999 -0.1573 0.07469999 H -0.3934 C -0.40510002 0.07469999 -0.4147 0.08419999 -0.4147 0.095999986 S -0.4052 0.11729999 -0.3934 0.11729999 H -0.1288 C -0.125 0.12139999 -0.12110001 0.12539999 -0.116900004 0.12919998 V 0.3938 C -0.116900004 0.4055 -0.10740001 0.41509998 -0.09560001 0.41509998 C -0.08390001 0.41509998 -0.074300006 0.40559998 -0.074300006 0.3938 V 0.1573 C -0.06740001 0.16059999 -0.060300007 0.1634 -0.053000007 0.16569999 V 0.4784 C -0.053000007 0.4901 -0.043500006 0.49969998 -0.031700008 0.49969998 S -0.010400008 0.49019998 -0.010400008 0.4784 V 0.1737 C -0.0069000083 0.17390001 -0.0033000084 0.17410001 1.9999128E-4 0.17410001 C 0.0037999912 0.17410001 0.0072999913 0.17400001 0.010799991 0.1737 V 0.4784 C 0.010799991 0.4901 0.02029999 0.49969998 0.032099992 0.49969998 S 0.05339999 0.49019998 0.05339999 0.4784 V 0.1657 C 0.060699992 0.16330001 0.06789999 0.1605 0.07469999 0.15730001 V 0.3934 C 0.07469999 0.40510002 0.08419999 0.4147 0.095999986 0.4147 C 0.10769998 0.4147 0.11729999 0.4052 0.11729999 0.3934 V 0.12890002 C 0.12139999 0.12510002 0.12539999 0.121200025 0.12919998 0.11700002 H 0.3938 C 0.4055 0.11700002 0.41509998 0.107500024 0.41509998 0.095700026 S 0.40559998 0.07440002 0.3938 0.07440002 H 0.1573 C 0.16059999 0.067500025 0.1634 0.060400024 0.16569999 0.053100023 H 0.4784 C 0.4901 0.053100023 0.49969998 0.043600023 0.49969998 0.031800024 S 0.4902 0.0106 0.4784 0.0106 Z M 0.0 0.1475 C -0.0813 0.1475 -0.1475 0.08129999 -0.1475 0.0 C -0.1475 -0.0813 -0.08129999 -0.1475 0.0 -0.1475 C 0.0813 -0.1475 0.1475 -0.08129999 0.1475 0.0 C 0.1475 0.0813 0.0813 0.1475 0.0 0.1475 Z"/>
<linearGradient id="glaze" x1="0%" y1="0%" x2="100%" y2="100%">
<stop offset="0%" stop-color="rgb(255,255,255)" stop-opacity="0.2"/>
<stop offset="49.999%" stop-color="rgb(255,255,255)" stop-opacity="0.0"/>
<stop offset="50.001%" stop-color="rgb(0,0,0)" stop-opacity="0.0"/>
<stop offset="100%" stop-color="rgb(0,0,0)" stop-opacity="0.2"/>
</linearGradient>
</defs>
<g>
<rect x="0" y="0" width="360" height="360" class="yellow"/>
<use xlink:href="#zia" transform="translate(180 180) scale(180 180) rotate(0)" class="red"/>
</g>
<g>
<rect x="0" y="0" width="360" height="360" fill="url(#glaze)"/>
<path d="M 30 30 L 330 30 L 330 330 L 30 330 Z M 60 60 L 60 300 L 300 300 L 300 60 Z" fill="rgb(255,255,255)" opacity="0.4"/>
<path d="M 0 0 L 360 0 L 360 360 L 0 360 Z M 30 30 L 30 330 L 330 330 L 330 30 Z" fill="rgb(0,0,0)" opacity="0.4"/>
</g>
</svg>
