<?xml version="1.0"?>
<svg xmlns="http://www.w3.org/2000/svg" xmlns:xlink="http://www.w3.org/1999/xlink" version="1.1" width="360" height="360" viewBox="0 0 360 360">
<!-- Generated by Kreative Vexillo v1.0 -->
<style>
.blue{fill:rgb(0,28,90);}
.red{fill:rgb(193,19,61);}
.white{fill:rgb(255,255,255);}
</style>
<defs>
<path id="-glazearea" d="M 0.0 0.0 L 1.0 0.1875 L 0.7692308 0.5 L 1.0 0.8125 L 0.0 1.0 Z"/>
<path id="star" d="M 0.0 -1.0 L 0.2245 -0.309 L 0.9511 -0.309 L 0.3633 0.118 L 0.5878 0.809 L 0.0 0.382 L -0.5878 0.809 L -0.3633 0.118 L -0.9511 -0.309 L -0.2245 -0.309 Z"/>
<clipPath id="clip0">
<use xlink:href="#-glazearea" transform="translate(0 0) scale(360 360) rotate(0)"/>
</clipPath>
<linearGradient id="glaze" x1="0%" y1="0%" x2="100%" y2="100%">
<stop offset="0%" stop-color="rgb(255,255,255)" stop-opacity="0.2"/>
<stop offset="49.999%" stop-color="rgb(255,255,255)" stop-opacity="0.0"/>
<stop offset="50.001%" stop-color="rgb(0,0,0)" stop-opacity="0.0"/>
<stop offset="100%" stop-color="rgb(0,0,0)" stop-opacity="0.2"/>
</linearGradient>
</defs>
<g>
<g clip-path="url(#clip0)">
<rect x="0" y="0" width="360" height="360" class="white"/>
<path d="M 8.293 -44.2292 L 8.293 -44.2292 L 728.293 90.7708 L 711.707 179.2292 L -8.293 44.2292 Z" class="red"/>
<path d="M 0 157.5 L 0 157.5 L 360 157.5 L 360 202.5 L 0 202.5 Z" class="red"/>
<path d="M -8.293 315.7708 L -8.293 315.7708 L 711.707 180.7708 L 728.293 269.2292 L 8.293 404.2292 Z" class="red"/>
</g>
<path d="M 0 0 L 221.5385 180 L 0 360 Z" class="blue"/>
<ellipse cx="68.4591" cy="180" rx="41.0755" ry="41.0755" class="white"/>
<ellipse cx="68.4591" cy="180" rx="27.3837" ry="27.3837" class="red"/>
<g>
<use xlink:href="#star" transform="translate(109.3845 216.3947) scale(9.1279 9.1279) rotate(-228.3535)" class="white"/>
<use xlink:href="#star" transform="translate(81.4906 233.1944) scale(9.1279 9.1279) rotate(-193.7651)" class="white"/>
<use xlink:href="#star" transform="translate(48.9901 231.19) scale(9.1279 9.1279) rotate(-159.1768)" class="white"/>
<use xlink:href="#star" transform="translate(23.3719 211.0901) scale(9.1279 9.1279) rotate(-124.5884)" class="white"/>
<use xlink:href="#star" transform="translate(13.6918 180) scale(9.1279 9.1279) rotate(-90)" class="white"/>
<use xlink:href="#star" transform="translate(23.3719 148.9099) scale(9.1279 9.1279) rotate(-55.4116)" class="white"/>
<use xlink:href="#star" transform="translate(48.9901 128.81) scale(9.1279 9.1279) rotate(-20.8232)" class="white"/>
<use xlink:href="#star" transform="translate(81.4906 126.8056) scale(9.1279 9.1279) rotate(13.7651)" class="white"/>
<use xlink:href="#star" transform="translate(109.3845 143.6053) scale(9.1279 9.1279) rotate(48.3535)" class="white"/>
</g>
<g>
<g>
<use xlink:href="#star" transform="translate(24.4977 249.3987) scale(9.1279 9.1279) rotate(-147.6473)" class="white"/>
<use xlink:href="#star" transform="translate(55.192 261.0726) scale(9.1279 9.1279) rotate(-170.7062)" class="white"/>
</g>
<g>
<use xlink:href="#star" transform="translate(24.4977 110.6013) scale(9.1279 9.1279) rotate(-32.3527)" class="white"/>
<use xlink:href="#star" transform="translate(55.192 98.9274) scale(9.1279 9.1279) rotate(-9.2938)" class="white"/>
</g>
</g>
<use xlink:href="#star" transform="translate(123.2265 180) scale(9.1279 9.1279) rotate(90)" class="white"/>
<use xlink:href="#star" transform="translate(177.9938 180) scale(9.1279 9.1279) rotate(90)" class="white"/>
<g>
<use xlink:href="#star" transform="translate(148.9525 163.5803) scale(9.1279 9.1279) rotate(78.4705)" class="white"/>
<use xlink:href="#star" transform="translate(148.9525 196.4197) scale(9.1279 9.1279) rotate(101.5295)" class="white"/>
</g>
</g>
<g>
<path d="M 0 0 L 360 67.5 L 276.9231 180 L 360 292.5 L 0 360 Z" fill="url(#glaze)"/>
<path d="M 60 72.2956 L 254.8876 108.837 L 254.8876 108.837 L 228.6571 144.3574 L 202.3364 180 L 228.6571 215.6426 L 254.8876 251.163 L 254.8876 251.163 L 60 287.7044 L 60 72.2956 Z M 30 36.1478 L 30 323.8522 L 307.4438 271.8315 L 307.4438 271.8315 L 252.7901 197.8213 L 239.6298 180 L 252.7901 162.1787 L 307.4438 88.1685 L 307.4438 88.1685 L 30 36.1478 Z" fill="rgb(255,255,255)" opacity="0.4"/>
<path d="M 30 36.1478 L 307.4438 88.1685 L 307.4438 88.1685 L 252.7901 162.1787 L 239.6298 180 L 252.7901 197.8213 L 307.4438 271.8315 L 307.4438 271.8315 L 30 323.8522 L 30 36.1478 Z M 0 0 L 0 360 L 360 292.5 L 276.9231 180 L 360 67.5 L 0 0 Z" fill="rgb(0,0,0)" opacity="0.4"/>
</g>
</svg>
