<?xml version="1.0"?>
<svg xmlns="http://www.w3.org/2000/svg" xmlns:xlink="http://www.w3.org/1999/xlink" version="1.1" width="360" height="360" viewBox="0 0 360 360">
<!-- Generated by Kreative Vexillo v1.0 -->
<style>
.blue{fill:rgb(75,146,219);}
.green{fill:rgb(0,105,60);}
.white{fill:rgb(255,255,255);}
.yellow{fill:rgb(255,182,18);}
</style>
<defs>
<clipPath id="clip0">
<rect x="100" y="135" width="90" height="90"/>
</clipPath>
<linearGradient id="glaze" x1="0%" y1="0%" x2="100%" y2="100%">
<stop offset="0%" stop-color="rgb(255,255,255)" stop-opacity="0.2"/>
<stop offset="49.999%" stop-color="rgb(255,255,255)" stop-opacity="0.0"/>
<stop offset="50.001%" stop-color="rgb(0,0,0)" stop-opacity="0.0"/>
<stop offset="100%" stop-color="rgb(0,0,0)" stop-opacity="0.2"/>
</linearGradient>
</defs>
<g>
<rect x="0" y="0" width="360" height="360" class="green"/>
<path d="M 0 145 L 60 145 L 60 0 L 180 0 L 180 95 L 360 95 L 360 215 L 230 215 L 230 360 L 110 360 L 110 265 L 0 265 Z" class="white"/>
<path d="M 0 155 L 70 155 L 70 0 L 170 0 L 170 105 L 360 105 L 360 205 L 220 205 L 220 360 L 120 360 L 120 255 L 0 255 Z" class="yellow"/>
<path d="M 0 175 L 90 175 L 90 0 L 150 0 L 150 125 L 360 125 L 360 185 L 200 185 L 200 360 L 140 360 L 140 235 L 0 235 Z" class="white"/>
<path d="M 0 185 L 100 185 L 140 225 L 0 225 Z" class="blue"/>
<path d="M 100 0 L 140 0 L 140 135 L 100 175 Z" class="blue"/>
<path d="M 360 135 L 360 175 L 190 175 L 150 135 Z" class="blue"/>
<path d="M 150 360 L 150 225 L 190 185 L 190 360 Z" class="blue"/>
<g clip-path="url(#clip0)">
<ellipse cx="100" cy="135" rx="40" ry="40" class="blue"/>
<ellipse cx="190" cy="135" rx="40" ry="40" class="blue"/>
<ellipse cx="100" cy="225" rx="40" ry="40" class="blue"/>
<ellipse cx="190" cy="225" rx="40" ry="40" class="blue"/>
</g>
</g>
<g>
<rect x="0" y="0" width="360" height="360" fill="url(#glaze)"/>
<path d="M 30 30 L 330 30 L 330 330 L 30 330 Z M 60 60 L 60 300 L 300 300 L 300 60 Z" fill="rgb(255,255,255)" opacity="0.4"/>
<path d="M 0 0 L 360 0 L 360 360 L 0 360 Z M 30 30 L 30 330 L 330 330 L 330 30 Z" fill="rgb(0,0,0)" opacity="0.4"/>
</g>
</svg>
