<?xml version="1.0"?>
<svg xmlns="http://www.w3.org/2000/svg" xmlns:xlink="http://www.w3.org/1999/xlink" version="1.1" width="360" height="360" viewBox="0 0 360 360">
<!-- Generated by Kreative Vexillo v1.0 -->
<style>
.amber{fill:rgb(255,184,29);}
.blue{fill:rgb(7,29,73);}
.red{fill:rgb(170,2,0);}
.white{fill:rgb(255,255,255);}
</style>
<defs>
<path id="beehive" d="M 0.0 -0.455 L -0.394 -0.22700001 V 0.228 L 0.0 0.455 L 0.394 0.22800002 V -0.227 L 0.0 -0.455 Z M 0.375 0.216 L 0.0 0.433 L -0.375 0.216 V -0.217 L 0.0 -0.433 L 0.375 -0.216 V 0.216 Z M 0.136 -0.225 H -0.13499999 C -0.13999999 -0.225 -0.14299999 -0.23099999 -0.13899998 -0.235 C -0.1 -0.273 -0.052 -0.298 0.0 -0.298 S 0.101 -0.273 0.14 -0.23500001 C 0.144 -0.231 0.141 -0.225 0.136 -0.225 L 0.136 -0.225 Z M 0.198 -0.128 H -0.198 C -0.206 -0.128 -0.211 -0.136 -0.207 -0.143 C -0.199 -0.158 -0.19 -0.172 -0.181 -0.186 C -0.175 -0.19500001 -0.16399999 -0.2 -0.153 -0.2 H 0.15400001 C 0.16500002 -0.2 0.17500001 -0.19500001 0.18200001 -0.185 C 0.19 -0.173 0.199 -0.158 0.207 -0.144 C 0.21 -0.137 0.206 -0.128 0.198 -0.128 L 0.198 -0.128 Z M 0.233 -0.031 H -0.23400001 C -0.24100001 -0.031 -0.246 -0.038 -0.24400002 -0.044 C -0.24000002 -0.059 -0.23600002 -0.074 -0.23200002 -0.085999995 C -0.22900002 -0.09599999 -0.21900003 -0.103 -0.20800002 -0.103 H 0.20699997 C 0.21799996 -0.103 0.22799997 -0.096 0.23099998 -0.085999995 C 0.235 -0.074 0.24 -0.06 0.244 -0.044 C 0.245 -0.038 0.24 -0.031 0.233 -0.031 L 0.233 -0.031 Z M 0.254 0.065 H -0.255 C -0.261 0.065 -0.266 0.058999997 -0.265 0.052999996 C -0.26299998 0.039999995 -0.26 0.025999995 -0.257 0.0119999945 C -0.255 9.999946E-4 -0.244 -0.008000005 -0.233 -0.008000005 H 0.23200001 C 0.244 -0.008000005 0.254 -4.656613E-9 0.256 0.0119999945 C 0.259 0.026 0.262 0.04 0.265 0.053 C 0.266 0.06 0.261 0.065 0.254 0.065 L 0.254 0.065 Z M 0.048 0.163 C 0.042 0.163 0.038000003 0.158 0.038000003 0.15200001 C 0.038000003 0.142 0.034 0.13200001 0.027000003 0.12500001 C 0.02 0.118 0.01 0.114 0.0 0.114 C -0.021 0.114 -0.038 0.131 -0.038 0.152 C -0.038 0.15799999 -0.042 0.162 -0.048 0.162 H -0.271 C -0.277 0.162 -0.282 0.157 -0.281 0.15 C -0.28 0.141 -0.27699998 0.127 -0.27499998 0.11000001 C -0.273 0.099 -0.262 0.09 -0.25 0.09 H 0.25 C 0.262 0.09 0.272 0.09900001 0.274 0.111 C 0.27699998 0.128 0.27899998 0.141 0.28 0.151 C 0.281 0.15699999 0.276 0.16299999 0.27 0.16299999 L 0.048 0.163 L 0.048 0.163 Z"/>
<path id="hexagon" d="M 0.433 0.25 V -0.25 L 0.0 -0.5 L -0.433 -0.25 V 0.25 L 0.0 0.5 L 0.433 0.25 Z"/>
<path id="peaks" d="M -1.333 0.192 L -0.667 -0.192 L -0.583 -0.145 L -0.333 -0.289 L -0.25 -0.241 L 0.0 -0.385 L 0.25 -0.241 L 0.333 -0.289 L 0.583 -0.145 L 0.667 -0.192 L 1.333 0.192 L 0.333 0.192 L 0.0 0.385 L -0.333 0.192 Z"/>
<path id="star" d="M 0.0 0.226 L 0.016 0.274 H 0.066 L 0.024999999 0.304 L 0.041 0.35099998 L 0.0 0.322 L -0.041 0.351 L -0.025 0.30400002 L -0.066 0.27400002 H -0.015999999 L 0.0 0.226 Z"/>
<linearGradient id="glaze" x1="0%" y1="0%" x2="100%" y2="100%">
<stop offset="0%" stop-color="rgb(255,255,255)" stop-opacity="0.2"/>
<stop offset="49.999%" stop-color="rgb(255,255,255)" stop-opacity="0.0"/>
<stop offset="50.001%" stop-color="rgb(0,0,0)" stop-opacity="0.0"/>
<stop offset="100%" stop-color="rgb(0,0,0)" stop-opacity="0.2"/>
</linearGradient>
</defs>
<g>
<g>
<rect x="0" y="0" width="360" height="249.2308" class="blue"/>
<rect x="0" y="249.2308" width="360" height="110.7692" class="red"/>
</g>
<use xlink:href="#peaks" transform="translate(180 180) scale(360 360) rotate(0)" class="white"/>
<use xlink:href="#hexagon" transform="translate(180 180) scale(240 240) rotate(0)" class="blue"/>
<use xlink:href="#beehive" transform="translate(180 180) scale(240 240) rotate(0)" class="amber"/>
<use xlink:href="#star" transform="translate(180 180) scale(240 240) rotate(0)" class="white"/>
</g>
<g>
<rect x="0" y="0" width="360" height="360" fill="url(#glaze)"/>
<path d="M 30 30 L 330 30 L 330 330 L 30 330 Z M 60 60 L 60 300 L 300 300 L 300 60 Z" fill="rgb(255,255,255)" opacity="0.4"/>
<path d="M 0 0 L 360 0 L 360 360 L 0 360 Z M 30 30 L 30 330 L 330 330 L 330 30 Z" fill="rgb(0,0,0)" opacity="0.4"/>
</g>
</svg>
