<?xml version="1.0"?>
<svg xmlns="http://www.w3.org/2000/svg" xmlns:xlink="http://www.w3.org/1999/xlink" version="1.1" width="360" height="360" viewBox="0 0 360 360">
<!-- Generated by Kreative Vexillo v1.0 -->
<style>
.blue{fill:rgb(0,85,164);}
.red{fill:rgb(250,60,50);}
.white{fill:rgb(255,255,255);}
</style>
<defs>
<linearGradient id="glaze" x1="0%" y1="0%" x2="100%" y2="100%">
<stop offset="0%" stop-color="rgb(255,255,255)" stop-opacity="0.2"/>
<stop offset="49.999%" stop-color="rgb(255,255,255)" stop-opacity="0.0"/>
<stop offset="50.001%" stop-color="rgb(0,0,0)" stop-opacity="0.0"/>
<stop offset="100%" stop-color="rgb(0,0,0)" stop-opacity="0.2"/>
</linearGradient>
</defs>
<g>
<rect x="0" y="0" width="360" height="360" class="red"/>
<rect x="0" y="0" width="217.8" height="145.8" class="white"/>
<g>
<rect x="0" y="0" width="71.4" height="142.2" class="blue"/>
<rect x="71.4" y="0" width="71.4" height="142.2" class="white"/>
<rect x="142.8" y="0" width="71.4" height="142.2" class="red"/>
</g>
<rect x="262.4" y="154.4" width="51.2" height="51.2" class="white"/>
<path d="M 257.6 149.6 L 257.6 156.3882 L 281.2118 180 L 257.6 203.6118 L 257.6 210.4 L 264.3882 210.4 L 288 186.7882 L 288 186.7882 L 311.6118 210.4 L 318.4 210.4 L 318.4 203.6118 L 318.4 203.6118 L 294.7882 180 L 318.4 156.3882 L 318.4 149.6 L 311.6118 149.6 L 288 173.2118 L 264.3882 149.6 Z" class="red"/>
</g>
<g>
<rect x="0" y="0" width="360" height="360" fill="url(#glaze)"/>
<path d="M 30 30 L 330 30 L 330 330 L 30 330 Z M 60 60 L 60 300 L 300 300 L 300 60 Z" fill="rgb(255,255,255)" opacity="0.4"/>
<path d="M 0 0 L 360 0 L 360 360 L 0 360 Z M 30 30 L 30 330 L 330 330 L 330 30 Z" fill="rgb(0,0,0)" opacity="0.4"/>
</g>
</svg>
