<?xml version="1.0"?>
<svg xmlns="http://www.w3.org/2000/svg" xmlns:xlink="http://www.w3.org/1999/xlink" version="1.1" width="360" height="360" viewBox="0 0 360 360">
<!-- Generated by Kreative Vexillo v1.0 -->
<style>
.blue{fill:rgb(0,0,204);}
.red{fill:rgb(255,0,0);}
.yellow{fill:rgb(255,255,0);}
</style>
<defs>
<linearGradient id="glaze" x1="0%" y1="0%" x2="100%" y2="100%">
<stop offset="0%" stop-color="rgb(255,255,255)" stop-opacity="0.2"/>
<stop offset="49.999%" stop-color="rgb(255,255,255)" stop-opacity="0.0"/>
<stop offset="50.001%" stop-color="rgb(0,0,0)" stop-opacity="0.0"/>
<stop offset="100%" stop-color="rgb(0,0,0)" stop-opacity="0.2"/>
</linearGradient>
</defs>
<g>
<rect x="0" y="0" width="360" height="360" class="blue"/>
<path d="M 0 0 L 0 35.2466 L 144.7534 180 L 0 324.7534 L 0 324.7534 L 0 360 L 35.2466 360 L 180 215.2466 L 324.7534 360 L 360 360 L 360 324.7534 L 360 324.7534 L 215.2466 180 L 360 35.2466 L 360 0 L 324.7534 0 L 180 144.7534 L 35.2466 0 Z" class="yellow"/>
<g>
<rect x="0" y="155.0769" width="360" height="49.8462" class="yellow"/>
<rect x="155.0769" y="0" width="49.8462" height="360" class="yellow"/>
</g>
<path d="M 0 0 L 0 23.4977 L 0 23.4977 L 156.5023 180 L 156.5023 180 L 0 336.5023 L 0 336.5023 L 0 360 L 23.4977 360 L 180 203.4977 L 180 203.4977 L 180 203.4977 L 180 203.4977 L 180 203.4977 L 180 203.4977 L 336.5023 360 L 360 360 L 360 336.5023 L 360 336.5023 L 203.4977 180 L 203.4977 180 L 360 23.4977 L 360 0 L 336.5023 0 L 180 156.5023 L 23.4977 0 Z" class="red"/>
<g>
<rect x="0" y="163.3846" width="360" height="33.2308" class="red"/>
<rect x="163.3846" y="0" width="33.2308" height="360" class="red"/>
</g>
<ellipse cx="180" cy="180" rx="96.9231" ry="96.9231" class="yellow"/>
<ellipse cx="180" cy="180" rx="83.0769" ry="83.0769" class="red"/>
</g>
<g>
<rect x="0" y="0" width="360" height="360" fill="url(#glaze)"/>
<path d="M 30 30 L 330 30 L 330 330 L 30 330 Z M 60 60 L 60 300 L 300 300 L 300 60 Z" fill="rgb(255,255,255)" opacity="0.4"/>
<path d="M 0 0 L 360 0 L 360 360 L 0 360 Z M 30 30 L 30 330 L 330 330 L 330 30 Z" fill="rgb(0,0,0)" opacity="0.4"/>
</g>
</svg>
