<?xml version="1.0"?>
<svg xmlns="http://www.w3.org/2000/svg" xmlns:xlink="http://www.w3.org/1999/xlink" version="1.1" width="360" height="360" viewBox="0 0 360 360">
<!-- Generated by Kreative Vexillo v1.0 -->
<style>
.black{fill:rgb(89,89,89);}
.blue{fill:rgb(123,194,224);}
.green{fill:rgb(59,176,125);}
.red{fill:rgb(207,114,128);}
.white{fill:rgb(232,232,232);}
.yellow{fill:rgb(238,222,119);}
</style>
<defs>
<clipPath id="clip0">
<path d="M 0 0 L 360 360 L 0 360 Z"/>
</clipPath>
<clipPath id="clip1">
<path d="M 0 0 L 360 0 L 360 360 Z"/>
</clipPath>
<linearGradient id="glaze" x1="0%" y1="0%" x2="100%" y2="100%">
<stop offset="0%" stop-color="rgb(255,255,255)" stop-opacity="0.2"/>
<stop offset="49.999%" stop-color="rgb(255,255,255)" stop-opacity="0.0"/>
<stop offset="50.001%" stop-color="rgb(0,0,0)" stop-opacity="0.0"/>
<stop offset="100%" stop-color="rgb(0,0,0)" stop-opacity="0.2"/>
</linearGradient>
</defs>
<g>
<rect x="0" y="0" width="360" height="360" class="black"/>
<g clip-path="url(#clip0)">
<path d="M 63.6396 -63.6396 L 63.6396 -63.6396 L 423.6396 296.3604 L 296.3604 423.6396 L -63.6396 63.6396 Z" class="red"/>
<path d="M 38.1838 -38.1838 L 38.1838 -38.1838 L 398.1838 321.8162 L 321.8162 398.1838 L -38.1838 38.1838 Z" class="yellow"/>
</g>
<g clip-path="url(#clip1)">
<path d="M 63.6396 -63.6396 L 63.6396 -63.6396 L 423.6396 296.3604 L 296.3604 423.6396 L -63.6396 63.6396 Z" class="green"/>
<path d="M 38.1838 -38.1838 L 38.1838 -38.1838 L 398.1838 321.8162 L 321.8162 398.1838 L -38.1838 38.1838 Z" class="blue"/>
</g>
<path d="M 12.7279 -12.7279 L 12.7279 -12.7279 L 372.7279 347.2721 L 347.2721 372.7279 L -12.7279 12.7279 Z" class="white"/>
</g>
<g>
<rect x="0" y="0" width="360" height="360" fill="url(#glaze)"/>
<path d="M 30 30 L 330 30 L 330 330 L 30 330 Z M 60 60 L 60 300 L 300 300 L 300 60 Z" fill="rgb(255,255,255)" opacity="0.4"/>
<path d="M 0 0 L 360 0 L 360 360 L 0 360 Z M 30 30 L 30 330 L 330 330 L 330 30 Z" fill="rgb(0,0,0)" opacity="0.4"/>
</g>
</svg>
