<?xml version="1.0"?>
<svg xmlns="http://www.w3.org/2000/svg" xmlns:xlink="http://www.w3.org/1999/xlink" version="1.1" width="360" height="360" viewBox="0 0 360 360">
<!-- Generated by Kreative Vexillo v1.0 -->
<style>
.green{fill:rgb(0,153,0);}
</style>
<defs>
<path id="-glazearea" d="M 0.0 0.0 L 1.0 0.5 L 0.0 1.0 Z"/>
<linearGradient id="glaze" x1="0%" y1="0%" x2="100%" y2="100%">
<stop offset="0%" stop-color="rgb(255,255,255)" stop-opacity="0.2"/>
<stop offset="49.999%" stop-color="rgb(255,255,255)" stop-opacity="0.0"/>
<stop offset="50.001%" stop-color="rgb(0,0,0)" stop-opacity="0.0"/>
<stop offset="100%" stop-color="rgb(0,0,0)" stop-opacity="0.2"/>
</linearGradient>
</defs>
<g>
<path d="M 0 0 L 360 180 L 0 360 Z" class="green"/>
</g>
<g>
<path d="M 0 0 L 360 180 L 0 360 Z" fill="url(#glaze)"/>
<path d="M 60 97.082 L 225.8359 180 L 60 262.918 L 60 97.082 Z M 30 48.541 L 30 311.459 L 30 311.459 L 292.918 180 L 30 48.541 Z" fill="rgb(255,255,255)" opacity="0.4"/>
<path d="M 30 48.541 L 292.918 180 L 30 311.459 L 30 311.459 L 30 48.541 Z M 0 0 L 0 360 L 360 180 L 0 0 Z" fill="rgb(0,0,0)" opacity="0.4"/>
</g>
</svg>
