<?xml version="1.0"?>
<svg xmlns="http://www.w3.org/2000/svg" xmlns:xlink="http://www.w3.org/1999/xlink" version="1.1" width="360" height="360" viewBox="0 0 360 360">
<!-- Generated by Kreative Vexillo v1.0 -->
<style>
.dkgray{fill:rgb(102,102,102);}
</style>
<defs>
<path id="-glazearea" d="M 0.0 0.0 L 1.0 0.0 L 0.75 0.5 L 1.0 1.0 L 0.0 1.0 Z"/>
<linearGradient id="glaze" x1="0%" y1="0%" x2="100%" y2="100%">
<stop offset="0%" stop-color="rgb(255,255,255)" stop-opacity="0.2"/>
<stop offset="49.999%" stop-color="rgb(255,255,255)" stop-opacity="0.0"/>
<stop offset="50.001%" stop-color="rgb(0,0,0)" stop-opacity="0.0"/>
<stop offset="100%" stop-color="rgb(0,0,0)" stop-opacity="0.2"/>
</linearGradient>
</defs>
<g>
<path d="M 0 0 L 360 0 L 270 180 L 360 360 L 0 360 Z" class="dkgray"/>
</g>
<g>
<path d="M 0 0 L 360 0 L 270 180 L 360 360 L 0 360 Z" fill="url(#glaze)"/>
<path d="M 262.918 60 L 216.3344 153.1672 L 202.918 180 L 216.3344 206.8328 L 262.918 300 L 60 300 L 60 60 Z M 30 30 L 30 330 L 311.459 330 L 243.1672 193.4164 L 236.459 180 L 243.1672 166.5836 L 311.459 30 Z" fill="rgb(255,255,255)" opacity="0.4"/>
<path d="M 311.459 30 L 243.1672 166.5836 L 236.459 180 L 243.1672 193.4164 L 311.459 330 L 30 330 L 30 30 Z M 0 0 L 0 360 L 360 360 L 270 180 L 360 0 Z" fill="rgb(0,0,0)" opacity="0.4"/>
</g>
</svg>
