<?xml version="1.0"?>
<svg xmlns="http://www.w3.org/2000/svg" xmlns:xlink="http://www.w3.org/1999/xlink" version="1.1" width="360" height="360" viewBox="0 0 360 360">
<!-- Generated by Kreative Vexillo v1.0 -->
<style>
.red{fill:rgb(255,0,0);}
.white{fill:rgb(255,255,255);}
</style>
<defs>
<path id="-glazearea" d="M 0.0 0.0 L 1.0 0.25 L 1.0 0.75 L 0.0 1.0 Z"/>
<clipPath id="clip0">
<path d="M 0 0 L 360 90 L 360 270 L 0 360 Z"/>
</clipPath>
<linearGradient id="glaze" x1="0%" y1="0%" x2="100%" y2="100%">
<stop offset="0%" stop-color="rgb(255,255,255)" stop-opacity="0.2"/>
<stop offset="49.999%" stop-color="rgb(255,255,255)" stop-opacity="0.0"/>
<stop offset="50.001%" stop-color="rgb(0,0,0)" stop-opacity="0.0"/>
<stop offset="100%" stop-color="rgb(0,0,0)" stop-opacity="0.2"/>
</linearGradient>
</defs>
<g>
<g clip-path="url(#clip0)">
<rect x="0" y="0" width="360" height="360" class="red"/>
<g>
<rect x="0" y="135" width="360" height="90" class="white"/>
<rect x="135" y="0" width="90" height="360" class="white"/>
</g>
</g>
</g>
<g>
<path d="M 0 0 L 360 90 L 360 270 L 0 360 Z" fill="url(#glaze)"/>
<path d="M 60 76.8466 L 300 136.8466 L 300 223.1534 L 60 283.1534 L 60 283.1534 L 60 283.1534 L 60 283.1534 L 60 283.1534 L 60 283.1534 L 60 76.8466 Z M 30 38.4233 L 30 321.5767 L 30 321.5767 L 330 246.5767 L 330 113.4233 L 30 38.4233 Z" fill="rgb(255,255,255)" opacity="0.4"/>
<path d="M 30 38.4233 L 330 113.4233 L 330 246.5767 L 30 321.5767 L 30 321.5767 L 30 38.4233 Z M 0 0 L 0 360 L 360 270 L 360 90 L 0 0 Z" fill="rgb(0,0,0)" opacity="0.4"/>
</g>
</svg>
