<?xml version="1.0"?>
<svg xmlns="http://www.w3.org/2000/svg" xmlns:xlink="http://www.w3.org/1999/xlink" version="1.1" width="360" height="360" viewBox="0 0 360 360">
<!-- Generated by Kreative Vexillo v1.0 -->
<style>
.black{fill:rgb(0,0,0);}
.blue{fill:rgb(154,217,234);}
.pink{fill:rgb(254,174,201);}
.purple{fill:rgb(199,191,230);}
.yellow{fill:rgb(245,255,168);}
</style>
<defs>
<path id="star" d="M -0.2032 0.443 L -0.13069999 0.1252 H -0.4567 L -0.16299999 -0.016199991 L -0.3663 -0.2711 L -0.07259998 -0.12970002 L 0.0 -0.4475 L 0.0725 -0.1297 L 0.3662 -0.27109998 L 0.163 -0.0162 L 0.45670003 0.12519999 H 0.13070002 L 0.20320001 0.44299996 L 1.4901161E-8 0.18809995 L -0.2032 0.443 Z M 0.0129 0.172 L 0.16409999 0.3616 L 0.11019999 0.12520002 H 0.0502 L 0.0129 0.172 Z M -0.1101 0.1252 L -0.1641 0.36159998 L -0.01290001 0.17199998 L -0.05020001 0.12519997 H -0.1101 Z M -0.0245 0.1252 L 0.0 0.1559 L 0.0245 0.1252 H -0.0245 Z M 0.1261 0.1051 H 0.3686 L 0.15020001 -1.0000169E-4 L 0.112900004 0.046699997 L 0.1261 0.1051 Z M 0.0662 0.1051 H 0.1054 L 0.096700005 0.0668 L 0.0662 0.1051 Z M 0.0405 0.1051 L 0.091000006 0.0418 L 0.07300001 -0.037200004 L 0.0 -0.0724 L -0.073 -0.0373 L -0.091 0.0417 L -0.040499996 0.105000004 H 0.0405 Z M -0.1055 0.1051 H -0.0663 L -0.0968 0.0668 L -0.1055 0.1051 Z M -0.1261 0.1051 L -0.1128 0.046699997 L -0.15010001 -1.0000169E-4 L -0.3685 0.1051 H -0.1261 Z M -0.1316 -0.0091 L -0.10710001 0.0216 L -0.09620001 -0.026099999 L -0.1316 -0.0091 Z M 0.0962 -0.0261 L 0.107099995 0.021599999 L 0.13159999 -0.009100001 L 0.0962 -0.0261 Z M -0.1444 -0.0252 L -0.090399995 -0.051200002 L -0.077099994 -0.10960001 L -0.29549998 -0.2148 L -0.1444 -0.0252 Z M 0.0904 -0.0512 L 0.1444 -0.025199998 L 0.2956 -0.2148 L 0.0771 -0.1096 L 0.0904 -0.0512 Z M 0.0232 -0.0836 L 0.0673 -0.0624 L 0.0586 -0.1007 L 0.0232 -0.0836 Z M -0.0585 -0.1006 L -0.0672 -0.062299997 L -0.023099996 -0.0835 L -0.0585 -0.1006 Z M -0.0539 -0.1207 L 0.0 -0.0947 L 0.054 -0.1207 L 0.0 -0.3571 L -0.0539 -0.1207 Z"/>
<linearGradient id="glaze" x1="0%" y1="0%" x2="100%" y2="100%">
<stop offset="0%" stop-color="rgb(255,255,255)" stop-opacity="0.2"/>
<stop offset="49.999%" stop-color="rgb(255,255,255)" stop-opacity="0.0"/>
<stop offset="50.001%" stop-color="rgb(0,0,0)" stop-opacity="0.0"/>
<stop offset="100%" stop-color="rgb(0,0,0)" stop-opacity="0.2"/>
</linearGradient>
</defs>
<g>
<g>
<rect x="0" y="0" width="360" height="90" class="yellow"/>
<rect x="0" y="90" width="360" height="90" class="blue"/>
<rect x="0" y="180" width="360" height="90" class="purple"/>
<rect x="0" y="270" width="360" height="90" class="pink"/>
</g>
<use xlink:href="#star" transform="translate(180 180) scale(360 360) rotate(0)" class="black"/>
</g>
<g>
<rect x="0" y="0" width="360" height="360" fill="url(#glaze)"/>
<path d="M 30 30 L 330 30 L 330 330 L 30 330 Z M 60 60 L 60 300 L 300 300 L 300 60 Z" fill="rgb(255,255,255)" opacity="0.4"/>
<path d="M 0 0 L 360 0 L 360 360 L 0 360 Z M 30 30 L 30 330 L 330 330 L 330 30 Z" fill="rgb(0,0,0)" opacity="0.4"/>
</g>
</svg>
