<?xml version="1.0"?>
<svg xmlns="http://www.w3.org/2000/svg" xmlns:xlink="http://www.w3.org/1999/xlink" version="1.1" width="360" height="360" viewBox="0 0 360 360">
<!-- Generated by Kreative Vexillo v1.0 -->
<style>
.blue1{fill:rgb(177,212,254);}
.blue2{fill:rgb(118,186,253);}
.pink1{fill:rgb(254,118,171);}
.pink2{fill:rgb(254,177,207);}
.purple1{fill:rgb(199,118,253);}
.purple2{fill:rgb(136,74,182);}
</style>
<defs>
<path id="cat" d="M 0.4699 -0.0981 C 0.476 -0.0766 0.46850002 -0.060599998 0.44770002 -0.053099997 C 0.39370003 -0.033599995 0.33960003 -0.014499996 0.28550002 0.0047000013 C 0.28000003 0.0067000017 0.275 0.008100001 0.27380002 0.015600001 C 0.27170002 0.028700002 0.27100003 0.028800001 0.2842 0.029900001 C 0.3278 0.033400003 0.37150002 0.0368 0.4151 0.040200002 C 0.42200002 0.040700004 0.4289 0.041400004 0.43580002 0.0419 C 0.4496 0.0428 0.4611 0.051400002 0.46460003 0.0635 C 0.4683 0.0763 0.46390003 0.0886 0.45260003 0.0973 C 0.45150003 0.0981 0.45070004 0.0993 0.44980004 0.1003 C 0.44880006 0.1005 0.44780004 0.1008 0.44680005 0.100999996 C 0.44620004 0.1011 0.44560006 0.10129999 0.44500005 0.101399995 C 0.43390006 0.101399995 0.42290005 0.101399995 0.41190004 0.10129999 C 0.41110003 0.100999996 0.41040003 0.1006 0.40960005 0.100499995 C 0.36240005 0.0971 0.31530005 0.09369999 0.26810005 0.0905 C 0.25570005 0.0897 0.25570005 0.089899994 0.25190005 0.10169999 C 0.25120005 0.10289999 0.25070006 0.10419999 0.24990004 0.105399996 C 0.24620004 0.1109 0.24730004 0.11399999 0.25350004 0.1174 C 0.29500005 0.1397 0.33810005 0.15799999 0.38370004 0.17 C 0.39200005 0.1722 0.40040004 0.1744 0.40860003 0.1769 C 0.42630002 0.1823 0.43540004 0.1977 0.43080002 0.2139 C 0.42610002 0.2304 0.41050002 0.2383 0.3925 0.2338 C 0.3332 0.219 0.27640003 0.1978 0.22290002 0.1681 C 0.21950002 0.1662 0.21670002 0.1649 0.21340002 0.1684 C 0.17830002 0.2058 0.13250002 0.21970001 0.083700016 0.2262 C 0.028500017 0.2336 -0.026899986 0.2352 -0.08239998 0.2288 C -0.12729998 0.2236 -0.16799998 0.2078 -0.20369998 0.1801 C -0.21009998 0.1752 -0.21479997 0.1752 -0.22129998 0.17879999 C -0.25159997 0.19559999 -0.28239998 0.21179998 -0.31379998 0.22659999 C -0.33769998 0.23789999 -0.36239997 0.2472 -0.38729998 0.2557 C -0.40429997 0.2615 -0.42049998 0.2536 -0.4258 0.23769999 C -0.431 0.22219999 -0.4233 0.20579998 -0.407 0.20019999 C -0.3542 0.18219998 -0.3048 0.15699999 -0.256 0.1304 C -0.25010002 0.1272 -0.25 0.125 -0.2531 0.1193 C -0.2581 0.1101 -0.264 0.108 -0.2745 0.1097 C -0.3364 0.1199 -0.39830002 0.1302 -0.45970002 0.143 C -0.4871 0.14870001 -0.50810003 0.1303 -0.49960002 0.1022 C -0.49410003 0.0903 -0.48470002 0.0842 -0.47200003 0.082200006 C -0.41360003 0.07300001 -0.35530004 0.0636 -0.29730004 0.052100006 C -0.28620005 0.049900007 -0.28690004 0.050100006 -0.28850004 0.039100006 C -0.28990003 0.029300006 -0.29430005 0.027100006 -0.30380005 0.026600007 C -0.35580003 0.023500007 -0.40780005 0.019400008 -0.45980006 0.015700007 C -0.46480006 0.015300007 -0.46980006 0.015400006 -0.47480005 0.015100007 C -0.49300006 0.013900007 -0.50400007 9.0000685E-4 -0.5033001 -0.018799994 C -0.5027001 -0.036499992 -0.49070007 -0.048599996 -0.47260007 -0.047699995 C -0.44550008 -0.046399996 -0.41840008 -0.043799996 -0.39130008 -0.042199995 C -0.36470008 -0.040499996 -0.33810008 -0.039399996 -0.31150007 -0.037899993 C -0.30710006 -0.037699994 -0.30480006 -0.038699992 -0.3053001 -0.043899994 C -0.30690008 -0.061799996 -0.3080001 -0.079799995 -0.30780008 -0.097899996 C -0.30780008 -0.1425 -0.30790007 -0.187 -0.3028001 -0.23139998 C -0.30020007 -0.25419998 -0.2967001 -0.27699998 -0.28640008 -0.29799998 C -0.27180007 -0.31649998 -0.25660008 -0.318 -0.23850009 -0.30279997 C -0.23640008 -0.30099997 -0.23410009 -0.29959998 -0.2318001 -0.29799998 C -0.22630009 -0.2907 -0.2204001 -0.2837 -0.2153001 -0.27609998 C -0.1967001 -0.24829999 -0.1833001 -0.21779998 -0.1695001 -0.18749997 C -0.1625001 -0.17229997 -0.1625001 -0.17209998 -0.1479001 -0.18109997 C -0.0948001 -0.21409997 -0.036700107 -0.22409996 0.024599895 -0.21759996 C 0.058299895 -0.21399996 0.087999895 -0.20009996 0.1158999 -0.18159996 C 0.1277999 -0.17379996 0.1278999 -0.17379996 0.1301999 -0.18739995 C 0.1367999 -0.22519995 0.1443999 -0.26269996 0.15969989 -0.29809994 C 0.16639988 -0.30919993 0.1715999 -0.32119992 0.18139988 -0.33029994 C 0.19349988 -0.34139994 0.20589988 -0.34039995 0.21489988 -0.32659996 C 0.22089988 -0.31729996 0.22639988 -0.30769995 0.23219988 -0.29819995 C 0.26049986 -0.23439994 0.2679999 -0.16629995 0.27509987 -0.097999945 C 0.27519986 -0.08799995 0.27549988 -0.07809994 0.27539986 -0.068099946 C 0.27539986 -0.062299944 0.27749985 -0.060799945 0.28299987 -0.062699944 C 0.3022999 -0.06949995 0.32169986 -0.07589994 0.34109986 -0.082599945 C 0.35549986 -0.08749995 0.36979985 -0.09249994 0.38409987 -0.097499944 C 0.39909986 -0.102399945 0.41409987 -0.107299946 0.42909986 -0.11219995 C 0.4475 -0.1187 0.4594 -0.1145 0.4699 -0.0981 Z"/>
<linearGradient id="glaze" x1="0%" y1="0%" x2="100%" y2="100%">
<stop offset="0%" stop-color="rgb(255,255,255)" stop-opacity="0.2"/>
<stop offset="49.999%" stop-color="rgb(255,255,255)" stop-opacity="0.0"/>
<stop offset="50.001%" stop-color="rgb(0,0,0)" stop-opacity="0.0"/>
<stop offset="100%" stop-color="rgb(0,0,0)" stop-opacity="0.2"/>
</linearGradient>
</defs>
<g>
<g>
<rect x="0" y="0" width="360" height="72" class="pink1"/>
<rect x="0" y="72" width="360" height="72" class="pink2"/>
<rect x="0" y="144" width="360" height="72" class="purple1"/>
<rect x="0" y="216" width="360" height="72" class="blue1"/>
<rect x="0" y="288" width="360" height="72" class="blue2"/>
</g>
<use xlink:href="#cat" transform="translate(180 180) scale(324 324) rotate(0)" class="purple2"/>
</g>
<g>
<rect x="0" y="0" width="360" height="360" fill="url(#glaze)"/>
<path d="M 30 30 L 330 30 L 330 330 L 30 330 Z M 60 60 L 60 300 L 300 300 L 300 60 Z" fill="rgb(255,255,255)" opacity="0.4"/>
<path d="M 0 0 L 360 0 L 360 360 L 0 360 Z M 30 30 L 30 330 L 330 330 L 330 30 Z" fill="rgb(0,0,0)" opacity="0.4"/>
</g>
</svg>
