<?xml version="1.0"?>
<svg xmlns="http://www.w3.org/2000/svg" xmlns:xlink="http://www.w3.org/1999/xlink" version="1.1" width="360" height="360" viewBox="0 0 360 360">
<!-- Generated by Kreative Vexillo v1.0 -->
<style>
.blue{fill:rgb(132,187,255);}
.bv{fill:rgb(157,133,255);}
.orange{fill:rgb(254,183,130);}
.red{fill:rgb(252,102,146);}
.ro{fill:rgb(253,153,152);}
.violet{fill:rgb(164,47,254);}
.white{fill:rgb(255,255,255);}
.yellow{fill:rgb(252,254,166);}
</style>
<defs>
<path id="rainbow" d="M 0.0232 -0.4745 C -0.5587 -0.4788 -1.0681 -0.12020001 -1.0666 0.47460002 C -0.35549998 0.47460002 0.35549998 0.47460002 1.0666 0.47460002 C 1.0683 -0.1022 0.5538 -0.4706 0.0232 -0.4745 Z M 0.0036 0.402 L 0.071 0.26410002 L 0.2288 0.24050002 L 0.2295 0.24040002 L 0.1143 0.12890002 L 0.1407 -0.028499976 L 0.1408 -0.029199976 L -7.9999864E-4 0.04590002 L -0.1423 -0.027799983 L -0.14299999 -0.028099982 L -0.11529999 0.12980002 L -0.22909999 0.24160002 L -0.22959998 0.24210002 L -0.07089998 0.26450002 L -0.002399981 0.40190002 C -0.21389998 0.402 -0.4258 0.40170002 -0.6315 0.40050003 C -0.5246 0.050300032 -0.2044 -0.08909997 0.027099967 -0.08939996 C 0.28019997 -0.08969996 0.6034 0.06670004 0.65169996 0.40120003 C 0.441 0.4015 0.2226 0.402 0.0036 0.402 Z M 0.7228 0.4007 C 0.6534 0.0 0.2684 -0.14299998 0.025600016 -0.14299998 C -0.19649999 -0.14299998 -0.5907 -0.008199975 -0.69729996 0.4004 C -0.72269994 0.39920002 -0.74509996 0.40100002 -0.7624 0.40100002 C -0.71199995 -0.0048999786 -0.20679998 -0.1868 0.025100052 -0.18689996 C 0.27910006 -0.18699996 0.73190004 0.0025000423 0.77050006 0.40070003 C 0.748 0.4006 0.7398 0.4007 0.7228 0.4007 Z M 0.8387 0.4001 C 0.7604 -0.058699995 0.32520002 -0.23769999 0.02579999 -0.23640001 C -0.33830002 -0.23480001 -0.7419 -0.043300003 -0.8363 0.4012 C -0.8539 0.4005 -0.87130004 0.4011 -0.888 0.4014 C -0.7822 -0.1392 -0.30910003 -0.2919 0.025900006 -0.2929 C 0.3172 -0.2937 0.8389 -0.0934 0.8753 0.4 C 0.86 0.4009 0.8509 0.401 0.8387 0.4001 Z M 0.9435 0.3999 C 0.89199996 -0.16410002 0.31479996 -0.3501 0.02639997 -0.3508 C -0.22980002 -0.35140002 -0.85270005 -0.2468 -0.94890004 0.40080002 C -0.96400005 0.40070003 -0.9771 0.40050003 -0.99500006 0.4004 C -0.95910007 -0.14739999 -0.41140008 -0.42269996 0.026299894 -0.41089997 C 0.4862999 -0.39839998 0.96759987 -0.08919996 0.98589987 0.39990005 C 0.9729 0.402 0.9558 0.4019 0.9435 0.3999 Z"/>
<linearGradient id="glaze" x1="0%" y1="0%" x2="100%" y2="100%">
<stop offset="0%" stop-color="rgb(255,255,255)" stop-opacity="0.2"/>
<stop offset="49.999%" stop-color="rgb(255,255,255)" stop-opacity="0.0"/>
<stop offset="50.001%" stop-color="rgb(0,0,0)" stop-opacity="0.0"/>
<stop offset="100%" stop-color="rgb(0,0,0)" stop-opacity="0.2"/>
</linearGradient>
</defs>
<g>
<g>
<rect x="0" y="0" width="360" height="51.4286" class="red"/>
<rect x="0" y="51.4286" width="360" height="51.4286" class="ro"/>
<rect x="0" y="102.8571" width="360" height="51.4286" class="orange"/>
<rect x="0" y="154.2857" width="360" height="51.4286" class="yellow"/>
<rect x="0" y="205.7143" width="360" height="51.4286" class="blue"/>
<rect x="0" y="257.1429" width="360" height="51.4286" class="bv"/>
<rect x="0" y="308.5714" width="360" height="51.4286" class="violet"/>
</g>
<use xlink:href="#rainbow" transform="translate(180 180) scale(154.2857 154.2857) rotate(0)" class="white"/>
</g>
<g>
<rect x="0" y="0" width="360" height="360" fill="url(#glaze)"/>
<path d="M 30 30 L 330 30 L 330 330 L 30 330 Z M 60 60 L 60 300 L 300 300 L 300 60 Z" fill="rgb(255,255,255)" opacity="0.4"/>
<path d="M 0 0 L 360 0 L 360 360 L 0 360 Z M 30 30 L 30 330 L 330 330 L 330 30 Z" fill="rgb(0,0,0)" opacity="0.4"/>
</g>
</svg>
