<?xml version="1.0"?>
<svg xmlns="http://www.w3.org/2000/svg" xmlns:xlink="http://www.w3.org/1999/xlink" version="1.1" width="360" height="360" viewBox="0 0 360 360">
<!-- Generated by Kreative Vexillo v1.0 -->
<style>
.black{fill:rgb(0,0,0);}
.blue{fill:rgb(0,163,232);}
.green{fill:rgb(181,229,29);}
.orange{fill:rgb(255,201,13);}
.pink{fill:rgb(254,174,201);}
.red{fill:rgb(252,102,103);}
.turquoise{fill:rgb(154,217,234);}
.white{fill:rgb(255,255,255);}
</style>
<defs>
<linearGradient id="glaze" x1="0%" y1="0%" x2="100%" y2="100%">
<stop offset="0%" stop-color="rgb(255,255,255)" stop-opacity="0.2"/>
<stop offset="49.999%" stop-color="rgb(255,255,255)" stop-opacity="0.0"/>
<stop offset="50.001%" stop-color="rgb(0,0,0)" stop-opacity="0.0"/>
<stop offset="100%" stop-color="rgb(0,0,0)" stop-opacity="0.2"/>
</linearGradient>
</defs>
<g>
<g>
<rect x="0" y="0" width="360" height="40" class="black"/>
<rect x="0" y="40" width="360" height="40" class="turquoise"/>
<rect x="0" y="80" width="360" height="40" class="blue"/>
<rect x="0" y="120" width="360" height="40" class="green"/>
<rect x="0" y="160" width="360" height="40" class="white"/>
<rect x="0" y="200" width="360" height="40" class="orange"/>
<rect x="0" y="240" width="360" height="40" class="red"/>
<rect x="0" y="280" width="360" height="40" class="pink"/>
<rect x="0" y="320" width="360" height="40" class="black"/>
</g>
</g>
<g>
<rect x="0" y="0" width="360" height="360" fill="url(#glaze)"/>
<path d="M 30 30 L 330 30 L 330 330 L 30 330 Z M 60 60 L 60 300 L 300 300 L 300 60 Z" fill="rgb(255,255,255)" opacity="0.4"/>
<path d="M 0 0 L 360 0 L 360 360 L 0 360 Z M 30 30 L 30 330 L 330 330 L 330 30 Z" fill="rgb(0,0,0)" opacity="0.4"/>
</g>
</svg>
