<?xml version="1.0"?>
<svg xmlns="http://www.w3.org/2000/svg" xmlns:xlink="http://www.w3.org/1999/xlink" version="1.1" width="360" height="360" viewBox="0 0 360 360">
<!-- Generated by Kreative Vexillo v1.0 -->
<style>
.black{fill:rgb(0,0,0);}
.blue{fill:rgb(5,27,140);}
.brown{fill:rgb(144,83,8);}
.green{fill:rgb(5,249,6);}
.orange{fill:rgb(251,148,5);}
.pink{fill:rgb(244,182,229);}
.purple{fill:rgb(83,28,141);}
.purple2{fill:rgb(142,60,221);}
.red{fill:rgb(251,37,4);}
.turquoise{fill:rgb(125,211,247);}
.white{fill:rgb(255,255,255);}
.yellow{fill:rgb(251,251,6);}
</style>
<defs>
<linearGradient id="glaze" x1="0%" y1="0%" x2="100%" y2="100%">
<stop offset="0%" stop-color="rgb(255,255,255)" stop-opacity="0.2"/>
<stop offset="49.999%" stop-color="rgb(255,255,255)" stop-opacity="0.0"/>
<stop offset="50.001%" stop-color="rgb(0,0,0)" stop-opacity="0.0"/>
<stop offset="100%" stop-color="rgb(0,0,0)" stop-opacity="0.2"/>
</linearGradient>
</defs>
<g>
<g>
<rect x="0" y="0" width="360" height="60" class="red"/>
<rect x="0" y="60" width="360" height="60" class="orange"/>
<rect x="0" y="120" width="360" height="60" class="yellow"/>
<rect x="0" y="180" width="360" height="60" class="green"/>
<rect x="0" y="240" width="360" height="60" class="blue"/>
<rect x="0" y="300" width="360" height="60" class="purple"/>
</g>
<path d="M 0 0 L 160.65 0 L 340.65 180 L 160.65 360 L 0 360 Z" class="black"/>
<path d="M 0 0 L 122.85 0 L 302.85 180 L 122.85 360 L 0 360 Z" class="brown"/>
<path d="M 0 0 L 85.05 0 L 265.05 180 L 85.05 360 L 0 360 Z" class="turquoise"/>
<path d="M 0 0 L 47.25 0 L 227.25 180 L 47.25 360 L 0 360 Z" class="pink"/>
<path d="M 0 0 L 9.45 0 L 189.45 180 L 9.45 360 L 0 360 Z" class="white"/>
<path d="M 0 28.35 L 151.65 180 L 0 331.65 Z" class="yellow"/>
<ellipse cx="57.6" cy="180" rx="45" ry="45" class="purple2"/>
<ellipse cx="57.6" cy="180" rx="36" ry="36" class="yellow"/>
</g>
<g>
<rect x="0" y="0" width="360" height="360" fill="url(#glaze)"/>
<path d="M 30 30 L 330 30 L 330 330 L 30 330 Z M 60 60 L 60 300 L 300 300 L 300 60 Z" fill="rgb(255,255,255)" opacity="0.4"/>
<path d="M 0 0 L 360 0 L 360 360 L 0 360 Z M 30 30 L 30 330 L 330 330 L 330 30 Z" fill="rgb(0,0,0)" opacity="0.4"/>
</g>
</svg>
