<?xml version="1.0"?>
<svg xmlns="http://www.w3.org/2000/svg" xmlns:xlink="http://www.w3.org/1999/xlink" version="1.1" width="360" height="360" viewBox="0 0 360 360">
<!-- Generated by Kreative Vexillo v1.0 -->
<style>
.bband{fill:rgb(252,193,213);}
.blace{fill:rgb(254,203,220);}
.heart{fill:rgb(252,163,193);}
.mband{fill:rgb(253,226,233);}
.tband{fill:rgb(231,193,218);}
.tlace{fill:rgb(238,206,230);}
.white{fill:rgb(255,255,255);}
</style>
<defs>
<path id="button" d="M 0.5 0.0 A 0.5 0.5 0.0 0 0 -0.5 0.0 A 0.5 0.5 0.0 0 0 0.5 0.0 Z M -0.05 -0.1125 A 0.0625 0.0625 0.0 0 1 -0.175 -0.1125 A 0.0625 0.0625 0.0 0 1 -0.05 -0.1125 Z M 0.175 -0.1125 A 0.0625 0.0625 0.0 0 1 0.05 -0.1125 A 0.0625 0.0625 0.0 0 1 0.175 -0.1125 Z M -0.05 0.1125 A 0.0625 0.0625 0.0 0 1 -0.175 0.1125 A 0.0625 0.0625 0.0 0 1 -0.05 0.1125 Z M 0.175 0.1125 A 0.0625 0.0625 0.0 0 1 0.05 0.1125 A 0.0625 0.0625 0.0 0 1 0.175 0.1125 Z"/>
<path id="disc" d="M 0.5 0.0 A 0.5 0.5 0.0 0 0 -0.5 0.0 A 0.5 0.5 0.0 0 0 0.5 0.0 Z"/>
<path id="heart" d="M 0.0 0.5 C 0.0 0.5 -0.5 0.1 -0.5 -0.25 C -0.5 -0.39 -0.39 -0.5 -0.25 -0.5 C -0.09 -0.5 0.0 -0.3 0.0 -0.25 C 0.0 -0.3 0.09 -0.5 0.25 -0.5 C 0.39 -0.5 0.5 -0.39 0.5 -0.25 C 0.5 0.1 0.0 0.5 0.0 0.5 Z"/>
<clipPath id="clip0">
<use xlink:href="#heart" transform="translate(180 180) scale(155.52 144) rotate(0)"/>
</clipPath>
<linearGradient id="grad0" y1="0%" y2="100%" x1="0%" x2="0%">
<stop offset="0%" stop-color="rgb(252,163,193)"/>
<stop offset="100%" stop-color="rgb(254,203,220)"/>
</linearGradient>
<linearGradient id="glaze" x1="0%" y1="0%" x2="100%" y2="100%">
<stop offset="0%" stop-color="rgb(255,255,255)" stop-opacity="0.2"/>
<stop offset="49.999%" stop-color="rgb(255,255,255)" stop-opacity="0.0"/>
<stop offset="50.001%" stop-color="rgb(0,0,0)" stop-opacity="0.0"/>
<stop offset="100%" stop-color="rgb(0,0,0)" stop-opacity="0.2"/>
</linearGradient>
</defs>
<g>
<g>
<rect x="0" y="0" width="360" height="100" class="tband"/>
<rect x="0" y="100" width="360" height="160" class="mband"/>
<rect x="0" y="260" width="360" height="100" class="bband"/>
</g>
<g>
<use xlink:href="#disc" transform="translate(-4.3977 70.975) scale(19.35 19.35) rotate(0)" class="tlace"/>
<use xlink:href="#disc" transform="translate(-4.3977 289.025) scale(19.35 19.35) rotate(0)" class="blace"/>
<use xlink:href="#disc" transform="translate(13.1932 70.975) scale(19.35 19.35) rotate(0)" class="tlace"/>
<use xlink:href="#disc" transform="translate(13.1932 289.025) scale(19.35 19.35) rotate(0)" class="blace"/>
<use xlink:href="#disc" transform="translate(30.7841 70.975) scale(19.35 19.35) rotate(0)" class="tlace"/>
<use xlink:href="#disc" transform="translate(30.7841 289.025) scale(19.35 19.35) rotate(0)" class="blace"/>
<use xlink:href="#disc" transform="translate(48.375 70.975) scale(19.35 19.35) rotate(0)" class="tlace"/>
<use xlink:href="#disc" transform="translate(48.375 289.025) scale(19.35 19.35) rotate(0)" class="blace"/>
<use xlink:href="#disc" transform="translate(65.9659 70.975) scale(19.35 19.35) rotate(0)" class="tlace"/>
<use xlink:href="#disc" transform="translate(65.9659 289.025) scale(19.35 19.35) rotate(0)" class="blace"/>
<use xlink:href="#disc" transform="translate(83.5568 70.975) scale(19.35 19.35) rotate(0)" class="tlace"/>
<use xlink:href="#disc" transform="translate(83.5568 289.025) scale(19.35 19.35) rotate(0)" class="blace"/>
<use xlink:href="#disc" transform="translate(101.1477 70.975) scale(19.35 19.35) rotate(0)" class="tlace"/>
<use xlink:href="#disc" transform="translate(101.1477 289.025) scale(19.35 19.35) rotate(0)" class="blace"/>
<use xlink:href="#disc" transform="translate(118.7386 70.975) scale(19.35 19.35) rotate(0)" class="tlace"/>
<use xlink:href="#disc" transform="translate(118.7386 289.025) scale(19.35 19.35) rotate(0)" class="blace"/>
<use xlink:href="#disc" transform="translate(136.3295 70.975) scale(19.35 19.35) rotate(0)" class="tlace"/>
<use xlink:href="#disc" transform="translate(136.3295 289.025) scale(19.35 19.35) rotate(0)" class="blace"/>
<use xlink:href="#disc" transform="translate(153.9205 70.975) scale(19.35 19.35) rotate(0)" class="tlace"/>
<use xlink:href="#disc" transform="translate(153.9205 289.025) scale(19.35 19.35) rotate(0)" class="blace"/>
<use xlink:href="#disc" transform="translate(171.5114 70.975) scale(19.35 19.35) rotate(0)" class="tlace"/>
<use xlink:href="#disc" transform="translate(171.5114 289.025) scale(19.35 19.35) rotate(0)" class="blace"/>
<use xlink:href="#disc" transform="translate(189.1023 70.975) scale(19.35 19.35) rotate(0)" class="tlace"/>
<use xlink:href="#disc" transform="translate(189.1023 289.025) scale(19.35 19.35) rotate(0)" class="blace"/>
<use xlink:href="#disc" transform="translate(206.6932 70.975) scale(19.35 19.35) rotate(0)" class="tlace"/>
<use xlink:href="#disc" transform="translate(206.6932 289.025) scale(19.35 19.35) rotate(0)" class="blace"/>
<use xlink:href="#disc" transform="translate(224.2841 70.975) scale(19.35 19.35) rotate(0)" class="tlace"/>
<use xlink:href="#disc" transform="translate(224.2841 289.025) scale(19.35 19.35) rotate(0)" class="blace"/>
<use xlink:href="#disc" transform="translate(241.875 70.975) scale(19.35 19.35) rotate(0)" class="tlace"/>
<use xlink:href="#disc" transform="translate(241.875 289.025) scale(19.35 19.35) rotate(0)" class="blace"/>
<use xlink:href="#disc" transform="translate(259.4659 70.975) scale(19.35 19.35) rotate(0)" class="tlace"/>
<use xlink:href="#disc" transform="translate(259.4659 289.025) scale(19.35 19.35) rotate(0)" class="blace"/>
<use xlink:href="#disc" transform="translate(277.0568 70.975) scale(19.35 19.35) rotate(0)" class="tlace"/>
<use xlink:href="#disc" transform="translate(277.0568 289.025) scale(19.35 19.35) rotate(0)" class="blace"/>
<use xlink:href="#disc" transform="translate(294.6477 70.975) scale(19.35 19.35) rotate(0)" class="tlace"/>
<use xlink:href="#disc" transform="translate(294.6477 289.025) scale(19.35 19.35) rotate(0)" class="blace"/>
<use xlink:href="#disc" transform="translate(312.2386 70.975) scale(19.35 19.35) rotate(0)" class="tlace"/>
<use xlink:href="#disc" transform="translate(312.2386 289.025) scale(19.35 19.35) rotate(0)" class="blace"/>
<use xlink:href="#disc" transform="translate(329.8295 70.975) scale(19.35 19.35) rotate(0)" class="tlace"/>
<use xlink:href="#disc" transform="translate(329.8295 289.025) scale(19.35 19.35) rotate(0)" class="blace"/>
<use xlink:href="#disc" transform="translate(347.4205 70.975) scale(19.35 19.35) rotate(0)" class="tlace"/>
<use xlink:href="#disc" transform="translate(347.4205 289.025) scale(19.35 19.35) rotate(0)" class="blace"/>
<use xlink:href="#disc" transform="translate(365.0114 70.975) scale(19.35 19.35) rotate(0)" class="tlace"/>
<use xlink:href="#disc" transform="translate(365.0114 289.025) scale(19.35 19.35) rotate(0)" class="blace"/>
</g>
<g>
<rect x="0" y="74.2" width="360" height="3.225" class="tlace"/>
<rect x="0" y="77.425" width="360" height="3.225" class="tband"/>
<rect x="0" y="80.65" width="360" height="19.35" class="tlace"/>
</g>
<g>
<rect x="0" y="260" width="360" height="19.35" class="blace"/>
<rect x="0" y="279.35" width="360" height="3.225" class="bband"/>
<rect x="0" y="282.575" width="360" height="3.225" class="blace"/>
</g>
<g clip-path="url(#clip0)">
<rect x="0" y="108" width="360" height="144" fill="url(#grad0)"/>
<use xlink:href="#heart" transform="translate(180 180) scale(120.96 112) rotate(0)" class="heart"/>
</g>
<use xlink:href="#button" transform="translate(55.8 180) scale(85.68 85.68) rotate(0)" class="white"/>
<use xlink:href="#button" transform="translate(304.2 180) scale(85.68 85.68) rotate(0)" class="white"/>
</g>
<g>
<rect x="0" y="0" width="360" height="360" fill="url(#glaze)"/>
<path d="M 30 30 L 330 30 L 330 330 L 30 330 Z M 60 60 L 60 300 L 300 300 L 300 60 Z" fill="rgb(255,255,255)" opacity="0.4"/>
<path d="M 0 0 L 360 0 L 360 360 L 0 360 Z M 30 30 L 30 330 L 330 330 L 330 30 Z" fill="rgb(0,0,0)" opacity="0.4"/>
</g>
</svg>
