<?xml version="1.0"?>
<svg xmlns="http://www.w3.org/2000/svg" xmlns:xlink="http://www.w3.org/1999/xlink" version="1.1" width="360" height="360" viewBox="0 0 360 360">
<!-- Generated by Kreative Vexillo v1.0 -->
<style>
.blue{fill:rgb(106,159,182);}
.gray{fill:rgb(217,217,217);}
.purple{fill:rgb(180,153,194);}
.red{fill:rgb(227,0,0);}
.white{fill:rgb(255,255,255);}
.yellow{fill:rgb(253,255,155);}
</style>
<defs>
<linearGradient id="glaze" x1="0%" y1="0%" x2="100%" y2="100%">
<stop offset="0%" stop-color="rgb(255,255,255)" stop-opacity="0.2"/>
<stop offset="49.999%" stop-color="rgb(255,255,255)" stop-opacity="0.0"/>
<stop offset="50.001%" stop-color="rgb(0,0,0)" stop-opacity="0.0"/>
<stop offset="100%" stop-color="rgb(0,0,0)" stop-opacity="0.2"/>
</linearGradient>
</defs>
<g>
<g>
<rect x="0" y="0" width="72" height="360" class="blue"/>
<rect x="72" y="0" width="72" height="360" class="gray"/>
<rect x="144" y="0" width="72" height="360" class="white"/>
<rect x="216" y="0" width="72" height="360" class="yellow"/>
<rect x="288" y="0" width="72" height="360" class="purple"/>
</g>
<ellipse cx="180" cy="180" rx="75.6" ry="75.6" class="red"/>
<ellipse cx="180" cy="180" rx="68.4" ry="68.4" class="white"/>
</g>
<g>
<rect x="0" y="0" width="360" height="360" fill="url(#glaze)"/>
<path d="M 30 30 L 330 30 L 330 330 L 30 330 Z M 60 60 L 60 300 L 300 300 L 300 60 Z" fill="rgb(255,255,255)" opacity="0.4"/>
<path d="M 0 0 L 360 0 L 360 360 L 0 360 Z M 30 30 L 30 330 L 330 330 L 330 30 Z" fill="rgb(0,0,0)" opacity="0.4"/>
</g>
</svg>
