<?xml version="1.0"?>
<svg xmlns="http://www.w3.org/2000/svg" xmlns:xlink="http://www.w3.org/1999/xlink" version="1.1" width="360" height="360" viewBox="0 0 360 360">
<!-- Generated by Kreative Vexillo v1.0 -->
<style>
.band1{fill:rgb(215,44,0);}
.band2{fill:rgb(240,117,40);}
.band3{fill:rgb(255,155,87);}
.band4{fill:rgb(255,252,237);}
.band5{fill:rgb(255,205,136);}
.band6{fill:rgb(255,173,9);}
.band7{fill:rgb(161,111,0);}
</style>
<defs>
<linearGradient id="glaze" x1="0%" y1="0%" x2="100%" y2="100%">
<stop offset="0%" stop-color="rgb(255,255,255)" stop-opacity="0.2"/>
<stop offset="49.999%" stop-color="rgb(255,255,255)" stop-opacity="0.0"/>
<stop offset="50.001%" stop-color="rgb(0,0,0)" stop-opacity="0.0"/>
<stop offset="100%" stop-color="rgb(0,0,0)" stop-opacity="0.2"/>
</linearGradient>
</defs>
<g>
<g>
<rect x="0" y="0" width="360" height="51.4286" class="band1"/>
<rect x="0" y="51.4286" width="360" height="51.4286" class="band2"/>
<rect x="0" y="102.8571" width="360" height="51.4286" class="band3"/>
<rect x="0" y="154.2857" width="360" height="51.4286" class="band4"/>
<rect x="0" y="205.7143" width="360" height="51.4286" class="band5"/>
<rect x="0" y="257.1429" width="360" height="51.4286" class="band6"/>
<rect x="0" y="308.5714" width="360" height="51.4286" class="band7"/>
</g>
</g>
<g>
<rect x="0" y="0" width="360" height="360" fill="url(#glaze)"/>
<path d="M 30 30 L 330 30 L 330 330 L 30 330 Z M 60 60 L 60 300 L 300 300 L 300 60 Z" fill="rgb(255,255,255)" opacity="0.4"/>
<path d="M 0 0 L 360 0 L 360 360 L 0 360 Z M 30 30 L 30 330 L 330 330 L 330 30 Z" fill="rgb(0,0,0)" opacity="0.4"/>
</g>
</svg>
