<?xml version="1.0"?>
<svg xmlns="http://www.w3.org/2000/svg" xmlns:xlink="http://www.w3.org/1999/xlink" version="1.1" width="360" height="360" viewBox="0 0 360 360">
<!-- Generated by Kreative Vexillo v1.0 -->
<style>
.blue{fill:rgb(0,0,255);}
.green{fill:rgb(0,153,0);}
.orange{fill:rgb(255,153,0);}
.purple{fill:rgb(153,0,153);}
.red{fill:rgb(255,0,0);}
.usblue{fill:rgb(60,59,110);}
.uswhite{fill:rgb(255,255,255);}
.yellow{fill:rgb(255,255,0);}
</style>
<defs>
<path id="star" d="M 0.0 -1.0 L 0.2245 -0.309 L 0.9511 -0.309 L 0.3633 0.118 L 0.5878 0.809 L 0.0 0.382 L -0.5878 0.809 L -0.3633 0.118 L -0.9511 -0.309 L -0.2245 -0.309 Z"/>
<linearGradient id="glaze" x1="0%" y1="0%" x2="100%" y2="100%">
<stop offset="0%" stop-color="rgb(255,255,255)" stop-opacity="0.2"/>
<stop offset="49.999%" stop-color="rgb(255,255,255)" stop-opacity="0.0"/>
<stop offset="50.001%" stop-color="rgb(0,0,0)" stop-opacity="0.0"/>
<stop offset="100%" stop-color="rgb(0,0,0)" stop-opacity="0.2"/>
</linearGradient>
</defs>
<g>
<g>
<rect x="0" y="0" width="360" height="60" class="red"/>
<rect x="0" y="60" width="360" height="60" class="orange"/>
<rect x="0" y="120" width="360" height="60" class="yellow"/>
<rect x="0" y="180" width="360" height="60" class="green"/>
<rect x="0" y="240" width="360" height="60" class="blue"/>
<rect x="0" y="300" width="360" height="60" class="purple"/>
</g>
<rect x="0" y="0" width="254.0571" height="180" class="usblue"/>
<g>
<g>
<use xlink:href="#star" transform="translate(21.1714 18) scale(10.2857 10.2857) rotate(0)" class="uswhite"/>
<use xlink:href="#star" transform="translate(63.5143 18) scale(10.2857 10.2857) rotate(0)" class="uswhite"/>
<use xlink:href="#star" transform="translate(105.8571 18) scale(10.2857 10.2857) rotate(0)" class="uswhite"/>
<use xlink:href="#star" transform="translate(148.2 18) scale(10.2857 10.2857) rotate(0)" class="uswhite"/>
<use xlink:href="#star" transform="translate(190.5429 18) scale(10.2857 10.2857) rotate(0)" class="uswhite"/>
<use xlink:href="#star" transform="translate(232.8857 18) scale(10.2857 10.2857) rotate(0)" class="uswhite"/>
</g>
<g>
<use xlink:href="#star" transform="translate(21.1714 54) scale(10.2857 10.2857) rotate(0)" class="uswhite"/>
<use xlink:href="#star" transform="translate(63.5143 54) scale(10.2857 10.2857) rotate(0)" class="uswhite"/>
<use xlink:href="#star" transform="translate(105.8571 54) scale(10.2857 10.2857) rotate(0)" class="uswhite"/>
<use xlink:href="#star" transform="translate(148.2 54) scale(10.2857 10.2857) rotate(0)" class="uswhite"/>
<use xlink:href="#star" transform="translate(190.5429 54) scale(10.2857 10.2857) rotate(0)" class="uswhite"/>
<use xlink:href="#star" transform="translate(232.8857 54) scale(10.2857 10.2857) rotate(0)" class="uswhite"/>
</g>
<g>
<use xlink:href="#star" transform="translate(21.1714 90) scale(10.2857 10.2857) rotate(0)" class="uswhite"/>
<use xlink:href="#star" transform="translate(63.5143 90) scale(10.2857 10.2857) rotate(0)" class="uswhite"/>
<use xlink:href="#star" transform="translate(105.8571 90) scale(10.2857 10.2857) rotate(0)" class="uswhite"/>
<use xlink:href="#star" transform="translate(148.2 90) scale(10.2857 10.2857) rotate(0)" class="uswhite"/>
<use xlink:href="#star" transform="translate(190.5429 90) scale(10.2857 10.2857) rotate(0)" class="uswhite"/>
<use xlink:href="#star" transform="translate(232.8857 90) scale(10.2857 10.2857) rotate(0)" class="uswhite"/>
</g>
<g>
<use xlink:href="#star" transform="translate(21.1714 126) scale(10.2857 10.2857) rotate(0)" class="uswhite"/>
<use xlink:href="#star" transform="translate(63.5143 126) scale(10.2857 10.2857) rotate(0)" class="uswhite"/>
<use xlink:href="#star" transform="translate(105.8571 126) scale(10.2857 10.2857) rotate(0)" class="uswhite"/>
<use xlink:href="#star" transform="translate(148.2 126) scale(10.2857 10.2857) rotate(0)" class="uswhite"/>
<use xlink:href="#star" transform="translate(190.5429 126) scale(10.2857 10.2857) rotate(0)" class="uswhite"/>
<use xlink:href="#star" transform="translate(232.8857 126) scale(10.2857 10.2857) rotate(0)" class="uswhite"/>
</g>
<g>
<use xlink:href="#star" transform="translate(21.1714 162) scale(10.2857 10.2857) rotate(0)" class="uswhite"/>
<use xlink:href="#star" transform="translate(63.5143 162) scale(10.2857 10.2857) rotate(0)" class="uswhite"/>
<use xlink:href="#star" transform="translate(105.8571 162) scale(10.2857 10.2857) rotate(0)" class="uswhite"/>
<use xlink:href="#star" transform="translate(148.2 162) scale(10.2857 10.2857) rotate(0)" class="uswhite"/>
<use xlink:href="#star" transform="translate(190.5429 162) scale(10.2857 10.2857) rotate(0)" class="uswhite"/>
<use xlink:href="#star" transform="translate(232.8857 162) scale(10.2857 10.2857) rotate(0)" class="uswhite"/>
</g>
</g>
<g>
<g>
<use xlink:href="#star" transform="translate(42.3429 36) scale(10.2857 10.2857) rotate(0)" class="uswhite"/>
<use xlink:href="#star" transform="translate(84.6857 36) scale(10.2857 10.2857) rotate(0)" class="uswhite"/>
<use xlink:href="#star" transform="translate(127.0286 36) scale(10.2857 10.2857) rotate(0)" class="uswhite"/>
<use xlink:href="#star" transform="translate(169.3714 36) scale(10.2857 10.2857) rotate(0)" class="uswhite"/>
<use xlink:href="#star" transform="translate(211.7143 36) scale(10.2857 10.2857) rotate(0)" class="uswhite"/>
</g>
<g>
<use xlink:href="#star" transform="translate(42.3429 72) scale(10.2857 10.2857) rotate(0)" class="uswhite"/>
<use xlink:href="#star" transform="translate(84.6857 72) scale(10.2857 10.2857) rotate(0)" class="uswhite"/>
<use xlink:href="#star" transform="translate(127.0286 72) scale(10.2857 10.2857) rotate(0)" class="uswhite"/>
<use xlink:href="#star" transform="translate(169.3714 72) scale(10.2857 10.2857) rotate(0)" class="uswhite"/>
<use xlink:href="#star" transform="translate(211.7143 72) scale(10.2857 10.2857) rotate(0)" class="uswhite"/>
</g>
<g>
<use xlink:href="#star" transform="translate(42.3429 108) scale(10.2857 10.2857) rotate(0)" class="uswhite"/>
<use xlink:href="#star" transform="translate(84.6857 108) scale(10.2857 10.2857) rotate(0)" class="uswhite"/>
<use xlink:href="#star" transform="translate(127.0286 108) scale(10.2857 10.2857) rotate(0)" class="uswhite"/>
<use xlink:href="#star" transform="translate(169.3714 108) scale(10.2857 10.2857) rotate(0)" class="uswhite"/>
<use xlink:href="#star" transform="translate(211.7143 108) scale(10.2857 10.2857) rotate(0)" class="uswhite"/>
</g>
<g>
<use xlink:href="#star" transform="translate(42.3429 144) scale(10.2857 10.2857) rotate(0)" class="uswhite"/>
<use xlink:href="#star" transform="translate(84.6857 144) scale(10.2857 10.2857) rotate(0)" class="uswhite"/>
<use xlink:href="#star" transform="translate(127.0286 144) scale(10.2857 10.2857) rotate(0)" class="uswhite"/>
<use xlink:href="#star" transform="translate(169.3714 144) scale(10.2857 10.2857) rotate(0)" class="uswhite"/>
<use xlink:href="#star" transform="translate(211.7143 144) scale(10.2857 10.2857) rotate(0)" class="uswhite"/>
</g>
</g>
</g>
<g>
<rect x="0" y="0" width="360" height="360" fill="url(#glaze)"/>
<path d="M 30 30 L 330 30 L 330 330 L 30 330 Z M 60 60 L 60 300 L 300 300 L 300 60 Z" fill="rgb(255,255,255)" opacity="0.4"/>
<path d="M 0 0 L 360 0 L 360 360 L 0 360 Z M 30 30 L 30 330 L 330 330 L 330 30 Z" fill="rgb(0,0,0)" opacity="0.4"/>
</g>
</svg>
