<?xml version="1.0"?>
<svg xmlns="http://www.w3.org/2000/svg" xmlns:xlink="http://www.w3.org/1999/xlink" version="1.1" width="360" height="360" viewBox="0 0 360 360">
<!-- Generated by Kreative Vexillo v1.0 -->
<style>
.blue{fill:rgb(0,101,189);}
.green{fill:rgb(0,154,73);}
.orange{fill:rgb(255,121,0);}
.white{fill:rgb(255,255,255);}
</style>
<defs>
<clipPath id="clip0">
<path d="M 0 360 L 360 0 L 360 360 Z"/>
</clipPath>
<linearGradient id="glaze" x1="0%" y1="0%" x2="100%" y2="100%">
<stop offset="0%" stop-color="rgb(255,255,255)" stop-opacity="0.2"/>
<stop offset="49.999%" stop-color="rgb(255,255,255)" stop-opacity="0.0"/>
<stop offset="50.001%" stop-color="rgb(0,0,0)" stop-opacity="0.0"/>
<stop offset="100%" stop-color="rgb(0,0,0)" stop-opacity="0.2"/>
</linearGradient>
</defs>
<g>
<rect x="0" y="0" width="360" height="360" class="white"/>
<g>
<path d="M 0 0 L 360 0 L 0 360 Z" class="blue"/>
<path d="M 0 0 L 0 50.9117 L 0 50.9117 L 129.0883 180 L 129.0883 180 L 0 309.0883 L 0 309.0883 L 0 360 L 50.9117 360 L 180 230.9117 L 309.0883 360 L 360 360 L 360 309.0883 L 230.9117 180 L 360 50.9117 L 360 0 L 309.0883 0 L 180 129.0883 L 180 129.0883 L 180 129.0883 L 180 129.0883 L 50.9117 0 Z" class="white"/>
</g>
<g clip-path="url(#clip0)">
<g>
<rect x="0" y="0" width="120" height="360" class="green"/>
<rect x="120" y="0" width="120" height="360" class="white"/>
<rect x="240" y="0" width="120" height="360" class="orange"/>
</g>
</g>
</g>
<g>
<rect x="0" y="0" width="360" height="360" fill="url(#glaze)"/>
<path d="M 30 30 L 330 30 L 330 330 L 30 330 Z M 60 60 L 60 300 L 300 300 L 300 60 Z" fill="rgb(255,255,255)" opacity="0.4"/>
<path d="M 0 0 L 360 0 L 360 360 L 0 360 Z M 30 30 L 30 330 L 330 330 L 330 30 Z" fill="rgb(0,0,0)" opacity="0.4"/>
</g>
</svg>
