<?xml version="1.0"?>
<svg xmlns="http://www.w3.org/2000/svg" xmlns:xlink="http://www.w3.org/1999/xlink" version="1.1" width="360" height="360" viewBox="0 0 360 360">
<!-- Generated by Kreative Vexillo v1.0 -->
<style>
.green{fill:rgb(0,178,89);}
.red{fill:rgb(227,61,58);}
.white{fill:rgb(255,255,255);}
</style>
<defs>
<path id="star6" d="M 0.0 -1.0 L 0.288675 -0.5 L 0.866025 -0.5 L 0.57735 -0.0 L 0.866025 0.5 L 0.288675 0.5 L 0.0 1.0 L -0.288675 0.5 L -0.866025 0.5 L -0.57735 0.0 L -0.866025 -0.5 L -0.288675 -0.5 Z"/>
</defs>
<g>
<rect x="0" y="0" width="360" height="360" class="red"/>
<path d="M 0 0 L 180 180 L 0 360 Z" class="green"/>
<path d="M 360 360 L 180 180 L 360 0 Z" class="green"/>
<path d="M 0 0 L 0 31.8198 L 148.1802 180 L 148.1802 180 L 0 328.1802 L 0 360 L 31.8198 360 L 180 211.8198 L 180 211.8198 L 328.1802 360 L 360 360 L 360 328.1802 L 360 328.1802 L 211.8198 180 L 211.8198 180 L 360 31.8198 L 360 0 L 328.1802 0 L 180 148.1802 L 180 148.1802 L 31.8198 0 Z" class="white"/>
<ellipse cx="180" cy="180" rx="108" ry="108" class="white"/>
<use xlink:href="#star6" transform="translate(180 128.0385) scale(24.75 24.75) rotate(0)" class="green"/>
<use xlink:href="#star6" transform="translate(135 205.9808) scale(24.75 24.75) rotate(0)" class="green"/>
<use xlink:href="#star6" transform="translate(225 205.9808) scale(24.75 24.75) rotate(0)" class="green"/>
<use xlink:href="#star6" transform="translate(180 128.0385) scale(20.25 20.25) rotate(0)" class="red"/>
<use xlink:href="#star6" transform="translate(135 205.9808) scale(20.25 20.25) rotate(0)" class="red"/>
<use xlink:href="#star6" transform="translate(225 205.9808) scale(20.25 20.25) rotate(0)" class="red"/>
</g>
</svg>
