<?xml version="1.0"?>
<svg xmlns="http://www.w3.org/2000/svg" xmlns:xlink="http://www.w3.org/1999/xlink" version="1.1" width="360" height="360" viewBox="0 0 360 360">
<!-- Generated by Kreative Vexillo v1.0 -->
<style>
.black{fill:rgb(0,0,0);}
.blue{fill:rgb(0,48,135);}
.red{fill:rgb(213,0,50);}
.white{fill:rgb(255,255,255);}
.yellow{fill:rgb(255,215,0);}
</style>
<defs>
<path id="compass" d="M 0.0 -45.0 L 25.980762 0.0 L 0.0 45.0 L -25.980762 0.0 Z M 45.0 0.0 L 0.0 25.980762 L -45.0 0.0 L 0.0 -25.980762 Z"/>
<path id="disc" d="M 0.5 0.0 A 0.5 0.5 0.0 0 0 -0.5 0.0 A 0.5 0.5 0.0 0 0 0.5 0.0 Z"/>
<path id="star" d="M 0.0 22.5 L -19.485573 -11.25 H 19.485569 Z M 0.0 -22.5 L 19.485573 11.25 H -19.485569 Z"/>
</defs>
<g>
<rect x="0" y="0" width="360" height="360" class="blue"/>
<path d="M 0 0 L 360 0 L 0 360 Z" class="white"/>
<path d="M 0 0 L 150 0 L 0 150 Z" class="yellow"/>
<use xlink:href="#compass" transform="translate(100 155) scale(1.44 1.44) rotate(0)" class="black"/>
<use xlink:href="#disc" transform="translate(100 155) scale(112.2369 112.2369) rotate(0)" class="black"/>
<use xlink:href="#disc" transform="translate(100 155) scale(97.2 97.2) rotate(0)" class="white"/>
<use xlink:href="#star" transform="translate(100 155) scale(1.44 1.44) rotate(0)" class="red"/>
</g>
</svg>
