<?xml version="1.0"?>
<svg xmlns="http://www.w3.org/2000/svg" xmlns:xlink="http://www.w3.org/1999/xlink" version="1.1" width="360" height="360" viewBox="0 0 360 360">
<!-- Generated by Kreative Vexillo v1.0 -->
<style>
.blue{fill:rgb(0,56,101);}
.red{fill:rgb(186,12,47);}
.white{fill:rgb(255,255,255);}
.yellow{fill:rgb(255,164,0);}
</style>
<defs>
<clipPath id="clip0">
<path d="M 155.8846 15 L 348.3333 15 L 155.8846 145.359 Z"/>
</clipPath>
<clipPath id="clip1">
<path d="M 155.8846 345 L 348.3333 345 L 155.8846 214.641 Z"/>
</clipPath>
<clipPath id="clip2">
<path d="M 155.8846 164.604 L 296.6667 164.604 L 330 180 L 296.6667 195.396 L 155.8846 195.396 L 169.2179 180 Z"/>
</clipPath>
</defs>
<g>
<rect x="0" y="0" width="360" height="360" class="white"/>
<rect x="13.3333" y="15" width="125.8846" height="330" class="blue"/>
<path d="M 10.0791 -8.7287 L 10.0791 -8.7287 L 165.9636 171.2713 L 145.8055 188.7287 L -10.0791 8.7287 Z" class="white"/>
<path d="M -10.0791 351.2713 L -10.0791 351.2713 L 145.8055 171.2713 L 165.9636 188.7287 L 10.0791 368.7287 Z" class="white"/>
<path d="M 0 166.6667 L 0 166.6667 L 155.8846 166.6667 L 155.8846 193.3333 L 0 193.3333 Z" class="white"/>
<g clip-path="url(#clip0)">
<path d="M 155.8846 0 L 155.8846 0 L 348.3333 0 L 348.3333 30 L 155.8846 30 Z" class="red"/>
<path d="M 356.7456 27.4191 L 356.7456 27.4191 L 164.2969 157.778 L 147.4723 132.9399 L 339.921 2.5809 Z" class="red"/>
<path d="M 140.8846 145.359 L 140.8846 145.359 L 140.8846 15 L 170.8846 15 L 170.8846 145.359 Z" class="red"/>
</g>
<g clip-path="url(#clip1)">
<path d="M 155.8846 330 L 155.8846 330 L 348.3333 330 L 348.3333 360 L 155.8846 360 Z" class="red"/>
<path d="M 339.921 357.4191 L 339.921 357.4191 L 147.4723 227.0601 L 164.2969 202.222 L 356.7456 332.5809 Z" class="red"/>
<path d="M 170.8846 214.641 L 170.8846 214.641 L 170.8846 345 L 140.8846 345 L 140.8846 214.641 Z" class="red"/>
</g>
<path d="M 155.8846 164.604 L 296.6667 164.604 L 330 180 L 296.6667 195.396 L 155.8846 195.396 L 169.2179 180 Z" class="yellow"/>
<g clip-path="url(#clip2)">
<path d="M 155.8846 157.9373 L 155.8846 157.9373 L 296.6667 157.9373 L 296.6667 171.2707 L 155.8846 171.2707 Z" class="red"/>
<path d="M 299.4621 158.5517 L 299.4621 158.5517 L 332.7954 173.9477 L 327.2046 186.0523 L 293.8712 170.6563 Z" class="red"/>
<path d="M 332.7954 186.0523 L 332.7954 186.0523 L 299.4621 201.4483 L 293.8712 189.3437 L 327.2046 173.9477 Z" class="red"/>
<path d="M 296.6667 202.0627 L 296.6667 202.0627 L 155.8846 202.0627 L 155.8846 188.7293 L 296.6667 188.7293 Z" class="red"/>
<path d="M 155.8846 164.604 L 164.7037 164.604 L 178.0371 180 L 164.7037 195.396 L 155.8846 195.396 Z" class="red"/>
</g>
</g>
</svg>
