<?xml version="1.0"?>
<svg xmlns="http://www.w3.org/2000/svg" xmlns:xlink="http://www.w3.org/1999/xlink" version="1.1" width="360" height="360" viewBox="0 0 360 360">
<!-- Generated by Kreative Vexillo v1.0 -->
<style>
.red{fill:rgb(221,0,0);}
.white{fill:rgb(255,255,255);}
</style>
<g>
<g>
<rect x="0" y="0" width="360" height="45" class="red"/>
<rect x="0" y="45" width="360" height="45" class="white"/>
<rect x="0" y="90" width="360" height="45" class="red"/>
<rect x="0" y="135" width="360" height="45" class="white"/>
<rect x="0" y="180" width="360" height="45" class="red"/>
<rect x="0" y="225" width="360" height="45" class="white"/>
<rect x="0" y="270" width="360" height="45" class="red"/>
<rect x="0" y="315" width="360" height="45" class="white"/>
</g>
<g>
<rect x="45" y="0" width="45" height="45" class="white"/>
<rect x="45" y="45" width="45" height="45" class="red"/>
<rect x="45" y="90" width="45" height="45" class="white"/>
<rect x="45" y="135" width="45" height="45" class="red"/>
<rect x="45" y="180" width="45" height="45" class="white"/>
<rect x="45" y="225" width="45" height="45" class="red"/>
<rect x="45" y="270" width="45" height="45" class="white"/>
<rect x="45" y="315" width="45" height="45" class="red"/>
</g>
</g>
</svg>
