<?xml version="1.0"?>
<svg xmlns="http://www.w3.org/2000/svg" xmlns:xlink="http://www.w3.org/1999/xlink" version="1.1" width="360" height="360" viewBox="0 0 360 360">
<!-- Generated by Kreative Vexillo v1.0 -->
<style>
.red{fill:rgb(198,11,30);}
.white{fill:rgb(255,255,255);}
</style>
<defs>
<path id="star" d="M 0.0 -1.0 L 0.2245 -0.309 L 0.9511 -0.309 L 0.3633 0.118 L 0.5878 0.809 L 0.0 0.382 L -0.5878 0.809 L -0.3633 0.118 L -0.9511 -0.309 L -0.2245 -0.309 Z"/>
</defs>
<g>
<rect x="0" y="0" width="360" height="360" class="red"/>
<use xlink:href="#star" transform="translate(45 147.8571) scale(45 45) rotate(0)" class="white"/>
<use xlink:href="#star" transform="translate(135 147.8571) scale(45 45) rotate(0)" class="white"/>
<use xlink:href="#star" transform="translate(225 147.8571) scale(45 45) rotate(0)" class="white"/>
<use xlink:href="#star" transform="translate(315 147.8571) scale(45 45) rotate(0)" class="white"/>
<use xlink:href="#star" transform="translate(90 222.7629) scale(45 45) rotate(0)" class="white"/>
<use xlink:href="#star" transform="translate(180 222.7629) scale(45 45) rotate(0)" class="white"/>
<use xlink:href="#star" transform="translate(270 222.7629) scale(45 45) rotate(0)" class="white"/>
</g>
</svg>
