<?xml version="1.0"?>
<svg xmlns="http://www.w3.org/2000/svg" xmlns:xlink="http://www.w3.org/1999/xlink" version="1.1" width="360" height="360" viewBox="0 0 360 360">
<!-- Generated by Kreative Vexillo v1.0 -->
<style>
.blue{fill:rgb(8,41,140);}
.white{fill:rgb(255,255,255);}
</style>
<defs>
<path id="s" d="M 0.0513 -0.3791 L 0.0475 -0.34829998 L 0.0687 -0.37089998 L 0.0968 -0.35779998 L 0.0818 -0.38489997 L 0.103 -0.40749997 L 0.0725 -0.40159997 L 0.057499997 -0.42869997 L 0.053699996 -0.3979 L 0.023299996 -0.392 L 0.0513 -0.3791 Z M 0.113 -0.3654 L 0.1041 -0.33569998 L 0.12869999 -0.35459998 L 0.15419999 -0.33699998 L 0.14389999 -0.36619997 L 0.16849999 -0.38499996 L 0.13749999 -0.38419995 L 0.12719999 -0.41339993 L 0.11829999 -0.38369992 L 0.08729999 -0.3828999 L 0.113 -0.3654 Z M 0.1716 -0.3419 L 0.15799999 -0.31399998 L 0.1854 -0.32849997 L 0.2077 -0.30699998 L 0.2023 -0.33749998 L 0.2297 -0.35199997 L 0.199 -0.35639995 L 0.1936 -0.38689995 L 0.17999999 -0.35899994 L 0.1493 -0.36329994 L 0.1716 -0.3419 Z M 0.2255 -0.309 L 0.20750001 -0.28379998 L 0.23690002 -0.29359996 L 0.2554 -0.26869997 L 0.2551 -0.29969996 L 0.2845 -0.30949995 L 0.2549 -0.31879994 L 0.25460002 -0.34979993 L 0.23660001 -0.32459992 L 0.20700002 -0.33389992 L 0.2255 -0.309 Z M 0.2733 -0.2676 L 0.2514 -0.2457 L 0.282 -0.2506 L 0.29610002 -0.223 L 0.3009 -0.2536 L 0.33150002 -0.2584 L 0.30390003 -0.27249998 L 0.30880004 -0.3031 L 0.28690004 -0.2812 L 0.25930005 -0.2953 L 0.2733 -0.2676 Z M 0.3136 -0.219 L 0.2883 -0.201 L 0.3193 -0.2008 L 0.3287 -0.1712 L 0.3385 -0.20060001 L 0.36949998 -0.20030001 L 0.3446 -0.2187 L 0.35439998 -0.24810001 L 0.32909998 -0.2301 L 0.3042 -0.2485 L 0.3136 -0.219 Z M 0.3454 -0.1644 L 0.3175 -0.15079999 L 0.348 -0.14549999 L 0.3524 -0.11479999 L 0.3669 -0.1422 L 0.3974 -0.13679999 L 0.37579998 -0.1591 L 0.39029998 -0.1865 L 0.36239997 -0.17289999 L 0.34079996 -0.1952 L 0.3454 -0.1644 Z M 0.3677 -0.1053 L 0.338 -0.0965 L 0.3672 -0.0862 L 0.3665 -0.0552 L 0.38529998 -0.079799995 L 0.41449997 -0.06949999 L 0.39689997 -0.09499999 L 0.41569996 -0.11959999 L 0.38599995 -0.11079999 L 0.36839995 -0.1363 L 0.3677 -0.1053 Z M 0.38 -0.0433 L 0.3492 -0.039499998 L 0.37640002 -0.024499997 L 0.37060001 0.006000003 L 0.3932 -0.0151999965 L 0.4203 -1.9999687E-4 L 0.40710002 -0.028299998 L 0.42970002 -0.049499996 L 0.39890003 -0.045699995 L 0.38570005 -0.0738 L 0.38 -0.0433 Z M 0.382 0.0198 L 0.351 0.0185 L 0.37530002 0.0377 L 0.36450002 0.0668 L 0.3903 0.049599998 L 0.4146 0.0689 L 0.40620002 0.038999997 L 0.432 0.021799996 L 0.40100002 0.020499997 L 0.39260003 -0.009400003 L 0.382 0.0198 Z M 0.3735 0.0824 L 0.34309998 0.076000005 L 0.36389998 0.09900001 L 0.34849998 0.1259 L 0.37679997 0.1132 L 0.39759997 0.1362 L 0.39429995 0.105399996 L 0.42259994 0.0927 L 0.39219993 0.0863 L 0.38889992 0.0555 L 0.3735 0.0824 Z M 0.3549 0.1428 L 0.326 0.1315 L 0.3428 0.1576 L 0.3232 0.1816 L 0.3532 0.1737 L 0.3699 0.1998 L 0.3717 0.1688 L 0.4017 0.1609 L 0.3728 0.1496 L 0.3746 0.118599996 L 0.3549 0.1428 Z M 0.3265 0.1992 L 0.2999 0.1833 L 0.3121 0.21180001 L 0.2888 0.23220001 L 0.3197 0.22940001 L 0.3319 0.2579 L 0.3388 0.2277 L 0.3697 0.22489999 L 0.3431 0.20899999 L 0.35000002 0.17879999 L 0.3265 0.1992 Z M 0.2893 0.2503 L 0.2656 0.2302 L 0.273 0.26029998 L 0.2466 0.27659997 L 0.2775 0.27889997 L 0.2848 0.30899996 L 0.29659998 0.28029996 L 0.3275 0.28259996 L 0.3038 0.26249996 L 0.31559998 0.23379996 L 0.2893 0.2503 Z M 0.2441 0.2945 L 0.22410001 0.2708 L 0.2264 0.3017 L 0.19770001 0.3135 L 0.22780001 0.3209 L 0.2301 0.3518 L 0.2464 0.3254 L 0.2765 0.3328 L 0.25649998 0.3091 L 0.27279997 0.2827 L 0.2441 0.2945 Z M 0.1923 0.3306 L 0.1764 0.304 L 0.1736 0.3349 L 0.1434 0.3418 L 0.1719 0.354 L 0.1691 0.3849 L 0.1895 0.3616 L 0.21800001 0.3738 L 0.20210001 0.34710002 L 0.22250001 0.32380003 L 0.1923 0.3306 Z M 0.1353 0.3578 L 0.124 0.3289 L 0.1162 0.3589 L 0.0852 0.3607 L 0.1113 0.3774 L 0.1034 0.4074 L 0.1274 0.3878 L 0.15349999 0.4045 L 0.1422 0.3756 L 0.1662 0.356 L 0.1353 0.3578 Z M 0.0746 0.3752 L 0.06820001 0.3448 L 0.05550001 0.37309998 L 0.024700008 0.36979997 L 0.04770001 0.39059997 L 0.03500001 0.41889995 L 0.061900012 0.40349996 L 0.084900014 0.42429996 L 0.07850002 0.39389995 L 0.10540002 0.37849995 L 0.0746 0.3752 Z M 0.0118 0.3823 L 0.010500001 0.3513 L -0.0067 0.3771 L -0.0366 0.36879998 L -0.0173 0.3931 L -0.034500003 0.41889998 L -0.005400002 0.40809998 L 0.013799999 0.4324 L 0.012499999 0.4014 L 0.0416 0.3906 L 0.0118 0.3823 Z M -0.0513 0.3791 L -0.0475 0.34829998 L -0.0687 0.37089998 L -0.0968 0.35779998 L -0.0818 0.38489997 L -0.103 0.40749997 L -0.0725 0.40159997 L -0.057499997 0.42869997 L -0.053699996 0.3979 L -0.023299996 0.392 L -0.0513 0.3791 Z M -0.113 0.3654 L -0.1041 0.33569998 L -0.12869999 0.35459998 L -0.15429999 0.33699998 L -0.144 0.36619997 L -0.1686 0.38499996 L -0.13759999 0.38419995 L -0.1273 0.41339993 L -0.11839999 0.38369992 L -0.08739999 0.3828999 L -0.113 0.3654 Z M -0.1716 0.3419 L -0.15799999 0.31399998 L -0.1854 0.32849997 L -0.2077 0.30699998 L -0.2023 0.33749998 L -0.2297 0.35199997 L -0.199 0.35629997 L -0.1936 0.38679996 L -0.17999999 0.35889995 L -0.1493 0.36319995 L -0.1716 0.3419 Z M -0.2255 0.309 L -0.20750001 0.28379998 L -0.23690002 0.29359996 L -0.2554 0.26869997 L -0.2551 0.29969996 L -0.2845 0.30949995 L -0.2549 0.31889996 L -0.25460002 0.34989995 L -0.23660001 0.32469994 L -0.20700002 0.33399993 L -0.2255 0.309 Z M -0.2733 0.2676 L -0.2514 0.2457 L -0.282 0.2506 L -0.29610002 0.223 L -0.3009 0.2536 L -0.33150002 0.2584 L -0.30390003 0.27249998 L -0.30880004 0.3031 L -0.28690004 0.2812 L -0.25930005 0.2953 L -0.2733 0.2676 Z M -0.3136 0.219 L -0.2883 0.201 L -0.3193 0.2008 L -0.3287 0.1712 L -0.3385 0.20060001 L -0.36949998 0.20030001 L -0.3446 0.2187 L -0.35439998 0.24810001 L -0.32909998 0.2301 L -0.3042 0.2485 L -0.3136 0.219 Z M -0.3454 0.1644 L -0.3175 0.15079999 L -0.348 0.14549999 L -0.3524 0.11479999 L -0.3669 0.1422 L -0.3974 0.13679999 L -0.37579998 0.1591 L -0.39029998 0.1865 L -0.36239997 0.17289999 L -0.34079996 0.1952 L -0.3454 0.1644 Z M -0.3677 0.1053 L -0.338 0.0965 L -0.3672 0.0862 L -0.3665 0.0552 L -0.38529998 0.079799995 L -0.41449997 0.06949999 L -0.39689997 0.09499999 L -0.41569996 0.11959999 L -0.38599995 0.11079999 L -0.36839995 0.1363 L -0.3677 0.1053 Z M -0.38 0.0433 L -0.3492 0.039499998 L -0.37640002 0.024499997 L -0.37060001 -0.006000003 L -0.3932 0.0151999965 L -0.4203 1.9999687E-4 L -0.40710002 0.028299998 L -0.42970002 0.049499996 L -0.39890003 0.045699995 L -0.38570005 0.0738 L -0.38 0.0433 Z M -0.382 -0.0198 L -0.351 -0.0185 L -0.37530002 -0.0377 L -0.36450002 -0.0668 L -0.3903 -0.049599998 L -0.4146 -0.0689 L -0.40620002 -0.038999997 L -0.432 -0.021799996 L -0.40100002 -0.020499997 L -0.39260003 0.009400003 L -0.382 -0.0198 Z M -0.3735 -0.0824 L -0.34309998 -0.076000005 L -0.36389998 -0.09900001 L -0.34849998 -0.1259 L -0.37679997 -0.1132 L -0.39759997 -0.1362 L -0.39429995 -0.105399996 L -0.42259994 -0.0927 L -0.39219993 -0.0863 L -0.38889992 -0.0555 L -0.3735 -0.0824 Z M -0.3549 -0.1428 L -0.326 -0.1315 L -0.3428 -0.1576 L -0.3232 -0.1816 L -0.3532 -0.1737 L -0.3699 -0.1998 L -0.3717 -0.1688 L -0.4017 -0.1609 L -0.3728 -0.1496 L -0.3746 -0.118599996 L -0.3549 -0.1428 Z M -0.3265 -0.1992 L -0.2999 -0.1833 L -0.3121 -0.21180001 L -0.2888 -0.23220001 L -0.3197 -0.22940001 L -0.3319 -0.2579 L -0.3388 -0.2276 L -0.3697 -0.22479999 L -0.3431 -0.20889999 L -0.35000002 -0.17869999 L -0.3265 -0.1992 Z M -0.2893 -0.2503 L -0.2656 -0.2302 L -0.273 -0.26029998 L -0.2466 -0.27659997 L -0.2775 -0.27889997 L -0.2848 -0.30899996 L -0.29659998 -0.28029996 L -0.3275 -0.28259996 L -0.3038 -0.26249996 L -0.3155 -0.23379996 L -0.2893 -0.2503 Z M -0.2441 -0.2945 L -0.22410001 -0.2708 L -0.2264 -0.3017 L -0.19770001 -0.3135 L -0.22780001 -0.3209 L -0.2301 -0.3518 L -0.2464 -0.3254 L -0.2765 -0.3328 L -0.25649998 -0.3091 L -0.27279997 -0.2827 L -0.2441 -0.2945 Z M -0.1923 -0.3306 L -0.1764 -0.304 L -0.1736 -0.3349 L -0.1434 -0.3418 L -0.1719 -0.354 L -0.1691 -0.3849 L -0.1895 -0.3616 L -0.21800001 -0.3738 L -0.20210001 -0.34710002 L -0.22250001 -0.32380003 L -0.1923 -0.3306 Z M -0.1353 -0.3578 L -0.124 -0.3289 L -0.1162 -0.3589 L -0.0852 -0.3607 L -0.1113 -0.3774 L -0.1034 -0.4074 L -0.1274 -0.3878 L -0.15349999 -0.4045 L -0.1422 -0.3756 L -0.1662 -0.356 L -0.1353 -0.3578 Z M -0.0746 -0.3752 L -0.06820001 -0.3448 L -0.05550001 -0.37309998 L -0.024700008 -0.36979997 L -0.04770001 -0.39059997 L -0.03500001 -0.41889995 L -0.061900012 -0.40349996 L -0.084900014 -0.42429996 L -0.07850002 -0.39389995 L -0.10540002 -0.37849995 L -0.0746 -0.3752 Z M -0.0118 -0.3823 L -0.010500001 -0.3513 L 0.0067 -0.3771 L 0.0366 -0.36879998 L 0.0174 -0.3931 L 0.0346 -0.41889998 L 0.0055 -0.40809998 L -0.013700001 -0.4324 L -0.012400001 -0.4014 L -0.041500002 -0.3906 L -0.0118 -0.3823 Z M 0.0044 0.1289 C -0.0163 0.108100004 -0.035 0.0767 -0.0468 0.044000007 C -0.0475 0.04430001 -0.0482 0.044600006 -0.049 0.044800006 L -0.054399997 0.046400007 L -0.052599996 0.041100007 C -0.051699996 0.038500007 -0.050999995 0.036100008 -0.050199997 0.033700008 C -0.058699995 0.0065000076 -0.062299997 -0.02079999 -0.058099996 -0.042899992 C -0.036499996 -0.008599993 -0.038099997 0.0064000078 -0.049799997 0.04210001 C -0.016599998 0.032100007 -0.004599996 -0.030699994 -0.038599998 -0.057499994 C 0.0068000033 -0.045999993 0.0353 -0.027099993 0.0488 0.01180001 C 0.065699995 -0.03139999 0.015899997 -0.081499994 -0.011300001 -0.08389999 C 0.015199998 -0.109199986 0.062400002 -0.10009999 0.082 -0.07119999 C 0.0882 -0.10489999 0.015600003 -0.13459998 -0.011699997 -0.113199994 C -0.007799997 -0.16 0.021800004 -0.1873 0.049800005 -0.1845 C 0.015000004 -0.20719999 -0.030899998 -0.1743 -0.049299996 -0.12689999 C -0.049299996 -0.17629999 -0.0892 -0.23319998 -0.1318 -0.23239999 C -0.109799996 -0.21039999 -0.1051 -0.19359998 -0.083 -0.11719999 C -0.1182 -0.15289998 -0.1888 -0.1379 -0.1992 -0.12159999 C -0.1611 -0.12389999 -0.124000005 -0.11319999 -0.102000006 -0.09519999 C -0.15310001 -0.10109999 -0.1992 -0.038899988 -0.18010001 -0.012699984 C -0.16820002 -0.053899985 -0.1252 -0.07179998 -0.07950001 -0.057099983 C -0.11140001 -0.035199985 -0.12690002 0.016700014 -0.12000001 0.039600015 C -0.10440001 0.023600014 -0.08580001 -0.007699985 -0.06630001 -0.037999988 C -0.08130001 0.04280001 -0.034700014 0.13430001 0.00689999 0.17590001 C 0.03009999 0.19910002 0.06139999 0.22420001 0.08399999 0.23450002 H 0.1953 C 0.1074 0.2039 0.0523 0.1768 0.0044 0.1289 Z"/>
</defs>
<g>
<rect x="0" y="0" width="360" height="360" class="blue"/>
<use xlink:href="#s" transform="translate(180 180) scale(360 360) rotate(0)" class="white"/>
</g>
</svg>
