<?xml version="1.0"?>
<svg xmlns="http://www.w3.org/2000/svg" xmlns:xlink="http://www.w3.org/1999/xlink" version="1.1" width="360" height="360" viewBox="0 0 360 360">
<!-- Generated by Kreative Vexillo v1.0 -->
<style>
.green{fill:rgb(0,169,79);}
.red{fill:rgb(239,65,53);}
.yellow{fill:rgb(255,221,0);}
</style>
<defs>
<path id="kernel" d="M 67.749 150.41 C 72.253 158.8 81.014 167.93001 88.665 171.14 C 88.788 162.62 85.765 151.7 81.631004 143.0 L 67.74901 150.41 Z"/>
<path id="shell" d="M 60.112 121.63 C 66.641 135.23999 43.179 167.70999 82.268 175.31999 C 77.446 168.73999 74.337 157.87999 75.513 149.15999 C 83.714005 152.27998 92.343 161.40999 95.83 168.38998 C 106.06 131.23999 69.590004 133.49998 60.112003 121.62999 Z"/>
<path id="star" d="M 0.0 -1.0 L 0.2245 -0.309 L 0.9511 -0.309 L 0.3633 0.118 L 0.5878 0.809 L 0.0 0.382 L -0.5878 0.809 L -0.3633 0.118 L -0.9511 -0.309 L -0.2245 -0.309 Z"/>
</defs>
<g>
<rect x="0" y="0" width="360" height="360" class="red"/>
<rect x="48" y="48" width="264" height="264" class="yellow"/>
<path d="M 48 48 L 180 180 L 48 312 Z" class="green"/>
<path d="M 312 312 L 180 180 L 312 48 Z" class="green"/>
<ellipse cx="180" cy="180" rx="43.2" ry="43.2" class="red"/>
<use xlink:href="#star" transform="translate(180 180) scale(38.88 38.88) rotate(0)" class="yellow"/>
<use xlink:href="#star" transform="translate(108 26.28) scale(24 24) rotate(0)" class="yellow"/>
<use xlink:href="#star" transform="translate(180 26.28) scale(24 24) rotate(0)" class="yellow"/>
<use xlink:href="#star" transform="translate(252 26.28) scale(24 24) rotate(0)" class="yellow"/>
<use xlink:href="#star" transform="translate(108 338.28) scale(24 24) rotate(0)" class="yellow"/>
<use xlink:href="#star" transform="translate(180 338.28) scale(24 24) rotate(0)" class="yellow"/>
<use xlink:href="#star" transform="translate(252 338.28) scale(24 24) rotate(0)" class="yellow"/>
<use xlink:href="#kernel" transform="translate(0 0) scale(1.2 1.2) rotate(0)" class="red"/>
<use xlink:href="#shell" transform="translate(0 0) scale(1.2 1.2) rotate(0)" class="yellow"/>
</g>
</svg>
