<?xml version="1.0"?>
<svg xmlns="http://www.w3.org/2000/svg" xmlns:xlink="http://www.w3.org/1999/xlink" version="1.1" width="360" height="360" viewBox="0 0 360 360">
<!-- Generated by Kreative Vexillo v1.0 -->
<style>
.orange{fill:rgb(246,102,55);}
.white{fill:rgb(255,255,255);}
</style>
<defs>
<path id="e" d="M 0.0337 -0.4988 C 0.2775 -0.4826 0.4735 -0.2916 0.4975 -0.05 H 0.298 C 0.28640002 -0.19139999 0.22580001 -0.3228 0.1243 -0.42430001 C 0.0962 -0.4523 0.0659 -0.4772 0.0337 -0.4988 Z M 0.1975 -0.05 C 0.1774 -0.2514 0.0373 -0.418 -0.1501 -0.477 C -0.3376 -0.4181 -0.4775 -0.2517 -0.4975 -0.05 H 0.1975 Z M 0.298 0.05 C 0.28640002 0.19139999 0.22580001 0.3228 0.1243 0.42430001 C 0.096300006 0.4523 0.0659 0.47730002 0.033700004 0.49890003 C 0.2775 0.4826 0.4735 0.2916 0.4975 0.05 H 0.298 Z M 0.1975 0.05 H -0.4975 C -0.4775 0.2517 -0.3376 0.4181 -0.1501 0.477 C 0.0373 0.418 0.1774 0.2514 0.1975 0.05 Z"/>
</defs>
<g>
<rect x="0" y="0" width="360" height="360" class="orange"/>
<use xlink:href="#e" transform="translate(180 180) scale(300 300) rotate(0)" class="white"/>
</g>
</svg>
