<?xml version="1.0"?>
<svg xmlns="http://www.w3.org/2000/svg" xmlns:xlink="http://www.w3.org/1999/xlink" version="1.1" width="360" height="360" viewBox="0 0 360 360">
<!-- Generated by Kreative Vexillo v1.0 -->
<style>
.green{fill:rgb(14,109,70);}
.white{fill:rgb(255,255,255);}
.yellow{fill:rgb(255,166,0);}
</style>
<defs>
<path id="e1" d="M 0.0 -0.5 C 0.0 -0.5 -0.1107 -0.4255 -0.1176 -0.136 C -0.395 -0.2189 -0.5 -0.137 -0.5 -0.137 S -0.4634 -0.008699998 -0.19010001 0.0873 C -0.3548 0.3255 -0.3088 0.4507 -0.3088 0.4507 S -0.1758 0.4558 0.0 0.2254 C 0.1758 0.4558 0.3088 0.4507 0.3088 0.4507 S 0.35480002 0.3255 0.1902 0.087200016 C 0.4633 -0.0088 0.5 -0.1365 0.5 -0.1365 S 0.395 -0.2189 0.1175 -0.136 C 0.1107 -0.4255 0.0 -0.5 0.0 -0.5 H 0.0 Z"/>
<path id="e2" d="M 0.0 -0.1349 C -0.0887 -0.1349 -0.1609 -0.063300006 -0.1609 0.0255 C -0.1609 0.114199996 -0.0887 0.1864 0.0 0.1864 C 0.0887 0.1864 0.1609 0.114199996 0.1609 0.0255 S 0.0887 -0.1349 0.0 -0.1349 Z M 0.0 -0.0813 C 0.059 -0.0813 0.1067 -0.033499997 0.1067 0.025400005 C 0.1067 0.084400006 0.058900002 0.1327 0.0 0.1327 S -0.1067 0.0844 -0.1067 0.025399998 C -0.1067 -0.0335 -0.059 -0.0813 0.0 -0.0813 Z"/>
</defs>
<g>
<g>
<rect x="0" y="0" width="360" height="72" class="yellow"/>
<rect x="0" y="72" width="360" height="216" class="green"/>
<rect x="0" y="288" width="360" height="72" class="yellow"/>
</g>
<use xlink:href="#e1" transform="translate(144 180) scale(180 180) rotate(0)" class="white"/>
<use xlink:href="#e2" transform="translate(144 180) scale(180 180) rotate(0)" class="yellow"/>
</g>
</svg>
