<?xml version="1.0"?>
<svg xmlns="http://www.w3.org/2000/svg" xmlns:xlink="http://www.w3.org/1999/xlink" version="1.1" width="360" height="360" viewBox="0 0 360 360">
<!-- Generated by Kreative Vexillo v1.0 -->
<style>
.black{fill:rgb(0,0,0);}
.green{fill:rgb(0,169,79);}
.red{fill:rgb(239,65,53);}
.white{fill:rgb(255,255,255);}
.yellow{fill:rgb(255,221,0);}
</style>
<defs>
<path id="star" d="M 0.0 -1.0 L 0.2245 -0.309 L 0.9511 -0.309 L 0.3633 0.118 L 0.5878 0.809 L 0.0 0.382 L -0.5878 0.809 L -0.3633 0.118 L -0.9511 -0.309 L -0.2245 -0.309 Z"/>
<clipPath id="clip0">
<rect x="0" y="0" width="360" height="360"/>
</clipPath>
</defs>
<g>
<path d="M 0 360 L 0 0 L 360 0 Z" class="green"/>
<path d="M 360 0 L 360 360 L 0 360 Z" class="red"/>
<g clip-path="url(#clip0)">
<path d="M 306.5427 -53.4573 L -53.4573 306.5427 L 53.4573 413.4573 L 413.4573 53.4573 L 306.5427 -53.4573 Z" class="yellow"/>
<path d="M 321.8162 -38.1838 L -38.1838 321.8162 L 38.1838 398.1838 L 398.1838 38.1838 L 321.8162 -38.1838 Z" class="black"/>
</g>
<use xlink:href="#star" transform="translate(115.2 244.8) scale(50.4 50.4) rotate(-45)" class="white"/>
<use xlink:href="#star" transform="translate(252 108) scale(50.4 50.4) rotate(-45)" class="white"/>
</g>
</svg>
