<?xml version="1.0"?>
<svg xmlns="http://www.w3.org/2000/svg" xmlns:xlink="http://www.w3.org/1999/xlink" version="1.1" width="360" height="360" viewBox="0 0 360 360">
<!-- Generated by Kreative Vexillo v1.0 -->
<style>
.black{fill:rgb(0,0,0);}
.blue{fill:rgb(0,52,120);}
.red{fill:rgb(198,12,48);}
.white{fill:rgb(255,255,255);}
</style>
<defs>
<path id="earth" d="M -0.75 -0.5 L -0.0625 -0.5 L -0.0625 -0.25 L -0.75 -0.25 Z M 0.0625 -0.5 L 0.75 -0.5 L 0.75 -0.25 L 0.0625 -0.25 Z M -0.75 -0.125 L -0.0625 -0.125 L -0.0625 0.125 L -0.75 0.125 Z M 0.0625 -0.125 L 0.75 -0.125 L 0.75 0.125 L 0.0625 0.125 Z M -0.75 0.25 L -0.0625 0.25 L -0.0625 0.5 L -0.75 0.5 Z M 0.0625 0.25 L 0.75 0.25 L 0.75 0.5 L 0.0625 0.5 Z"/>
<path id="halfdisc" d="M 0.5 0.0 A 0.5 0.5 0.0 0 0 -0.5 0.0 Z"/>
<path id="moon" d="M -0.75 -0.5 L -0.0625 -0.5 L -0.0625 -0.25 L -0.75 -0.25 Z M 0.0625 -0.5 L 0.75 -0.5 L 0.75 -0.25 L 0.0625 -0.25 Z M -0.75 -0.125 L 0.75 -0.125 L 0.75 0.125 L -0.75 0.125 Z M -0.75 0.25 L -0.0625 0.25 L -0.0625 0.5 L -0.75 0.5 Z M 0.0625 0.25 L 0.75 0.25 L 0.75 0.5 L 0.0625 0.5 Z"/>
<path id="offsetdisc" d="M 0.0 0.0 A 0.25 0.25 0.0 0 0 -0.5 0.0 A 0.25 0.25 0.0 0 0 0.0 0.0 Z"/>
<path id="sky" d="M -0.75 -0.5 L 0.75 -0.5 L 0.75 -0.25 L -0.75 -0.25 Z M -0.75 -0.125 L 0.75 -0.125 L 0.75 0.125 L -0.75 0.125 Z M -0.75 0.25 L 0.75 0.25 L 0.75 0.5 L -0.75 0.5 Z"/>
<path id="sun" d="M -0.75 -0.5 L 0.75 -0.5 L 0.75 -0.25 L -0.75 -0.25 Z M -0.75 -0.125 L -0.0625 -0.125 L -0.0625 0.125 L -0.75 0.125 Z M 0.0625 -0.125 L 0.75 -0.125 L 0.75 0.125 L 0.0625 0.125 Z M -0.75 0.25 L 0.75 0.25 L 0.75 0.5 L -0.75 0.5 Z"/>
</defs>
<g>
<rect x="0" y="0" width="360" height="360" class="white"/>
<use xlink:href="#halfdisc" transform="translate(180 180) scale(180 180) rotate(45)" class="red"/>
<use xlink:href="#halfdisc" transform="translate(180 180) scale(180 180) rotate(225)" class="blue"/>
<use xlink:href="#offsetdisc" transform="translate(180 180) scale(180 180) rotate(45)" class="red"/>
<use xlink:href="#offsetdisc" transform="translate(180 180) scale(180 180) rotate(225)" class="blue"/>
<use xlink:href="#sky" transform="translate(63.3274 63.3274) scale(60 60) rotate(135)" class="black"/>
<use xlink:href="#earth" transform="translate(296.6726 296.6726) scale(60 60) rotate(135)" class="black"/>
<use xlink:href="#sun" transform="translate(63.3274 296.6726) scale(60 60) rotate(45)" class="black"/>
<use xlink:href="#moon" transform="translate(296.6726 63.3274) scale(60 60) rotate(45)" class="black"/>
</g>
</svg>
