<?xml version="1.0"?>
<svg xmlns="http://www.w3.org/2000/svg" xmlns:xlink="http://www.w3.org/1999/xlink" version="1.1" width="360" height="360" viewBox="0 0 360 360">
<!-- Generated by Kreative Vexillo v1.0 -->
<style>
.red{fill:rgb(210,0,0);}
.yellow{fill:rgb(255,230,0);}
</style>
<g>
<rect x="0" y="0" width="360" height="360" class="red"/>
<path d="M 180 180 L 0 0 L 54 0 Z" class="yellow"/>
<path d="M 180 180 L 162 0 L 198 0 Z" class="yellow"/>
<path d="M 180 180 L 306 0 L 360 0 Z" class="yellow"/>
<path d="M 180 180 L 360 162 L 360 198 Z" class="yellow"/>
<path d="M 180 180 L 360 360 L 306 360 Z" class="yellow"/>
<path d="M 180 180 L 198 360 L 162 360 Z" class="yellow"/>
<path d="M 180 180 L 54 360 L 0 360 Z" class="yellow"/>
<path d="M 180 180 L 0 198 L 0 162 Z" class="yellow"/>
<ellipse cx="180" cy="180" rx="64.2857" ry="64.2857" class="red"/>
<ellipse cx="180" cy="180" rx="51.4286" ry="51.4286" class="yellow"/>
</g>
</svg>
