<?xml version="1.0"?>
<svg xmlns="http://www.w3.org/2000/svg" xmlns:xlink="http://www.w3.org/1999/xlink" version="1.1" width="360" height="360" viewBox="0 0 360 360">
<!-- Generated by Kreative Vexillo v1.0 -->
<style>
.blue{fill:rgb(0,85,164);}
.green{fill:rgb(0,161,96);}
.red{fill:rgb(238,49,36);}
.white{fill:rgb(255,255,255);}
.yellow{fill:rgb(253,185,51);}
</style>
<defs>
<path id="disc" d="M 0.5 0.0 A 0.5 0.5 0.0 0 0 -0.5 0.0 A 0.5 0.5 0.0 0 0 0.5 0.0 Z"/>
<path id="star12" d="M 0.0 -1.0 L 0.155291 -0.579555 L 0.5 -0.866025 L 0.424264 -0.424264 L 0.866025 -0.5 L 0.579555 -0.155291 L 1.0 -0.0 L 0.579555 0.155291 L 0.866025 0.5 L 0.424264 0.424264 L 0.5 0.866025 L 0.155291 0.579555 L 0.0 1.0 L -0.155291 0.579555 L -0.5 0.866025 L -0.424264 0.424264 L -0.866025 0.5 L -0.579555 0.155291 L -1.0 0.0 L -0.579555 -0.155291 L -0.866025 -0.5 L -0.424264 -0.424264 L -0.5 -0.866025 L -0.155291 -0.579555 Z"/>
<clipPath id="clip0">
<rect x="0" y="0" width="360" height="360"/>
</clipPath>
</defs>
<g>
<rect x="0" y="0" width="360" height="360" class="blue"/>
<path d="M 360 0 L 360 360 L 0 360 Z" class="green"/>
<g clip-path="url(#clip0)">
<path d="M 317.5736 -42.4264 L -42.4264 317.5736 L 42.4264 402.4264 L 402.4264 42.4264 L 317.5736 -42.4264 Z" class="white"/>
<path d="M 328.1802 -31.8198 L -31.8198 328.1802 L 31.8198 391.8198 L 391.8198 31.8198 L 328.1802 -31.8198 Z" class="red"/>
</g>
<use xlink:href="#star12" transform="translate(80 96) scale(40 40) rotate(0)" class="yellow"/>
<use xlink:href="#disc" transform="translate(80 96) scale(48 48) rotate(0)" class="blue"/>
<use xlink:href="#disc" transform="translate(80 96) scale(40 40) rotate(0)" class="yellow"/>
</g>
</svg>
