<?xml version="1.0"?>
<svg xmlns="http://www.w3.org/2000/svg" xmlns:xlink="http://www.w3.org/1999/xlink" version="1.1" width="360" height="360" viewBox="0 0 360 360">
<!-- Generated by Kreative Vexillo v1.0 -->
<style>
.blue{fill:rgb(45,85,142);}
.red{fill:rgb(226,64,30);}
.white{fill:rgb(255,255,255);}
.yellow{fill:rgb(246,197,10);}
</style>
<defs>
<path id="lf" d="M 0.6215 0.424 C 0.623 0.4246 0.6246 0.42679998 0.6255 0.4296 C 0.6265 0.4328 0.6265 0.4369 0.62450004 0.4386 C 0.62430006 0.4387 0.6241 0.4387 0.62390006 0.4387 C 0.62240005 0.4387 0.6208001 0.4362 0.6201001 0.43289998 C 0.6192 0.4291 0.6199 0.4255 0.6215 0.424 Z M 0.165 0.8958 C 0.165 0.8958 0.165 0.8958 0.165 0.8958 C 0.1681 0.8958 0.1727 0.8918 0.17500001 0.8882 C 0.17660001 0.8847 0.17650001 0.88049996 0.17450002 0.8774 C 0.17360002 0.876 0.17150001 0.8736 0.16800001 0.87409997 C 0.16650002 0.87439996 0.16520001 0.87539995 0.1641 0.87729996 C 0.1614 0.88199997 0.1613 0.88979995 0.1629 0.8947 C 0.1637 0.8956 0.1644 0.8958 0.165 0.8958 Z M 0.4361 0.636 C 0.4362 0.636 0.4365 0.63589996 0.437 0.63549995 C 0.44120002 0.6295 0.4411 0.62079996 0.441 0.6123 C 0.44090003 0.6085 0.44090003 0.60469997 0.44120002 0.60099995 C 0.44110003 0.58059996 0.42650002 0.56549996 0.42000002 0.55969995 C 0.4187 0.55889994 0.41730002 0.5580999 0.41630003 0.5580999 C 0.41620004 0.5580999 0.41610003 0.5580999 0.41590002 0.5580999 C 0.4153 0.5582999 0.4153 0.5583999 0.4153 0.55859995 C 0.41500002 0.56009996 0.4165 0.56329995 0.41820002 0.56459993 L 0.41880003 0.56509995 L 0.41920003 0.56569993 C 0.42580003 0.5770999 0.42710003 0.59019995 0.42840004 0.60279995 C 0.42920005 0.61079997 0.43000004 0.61899996 0.43220004 0.62659997 L 0.43230003 0.6271 V 0.6276 C 0.4322 0.6319 0.435 0.636 0.4361 0.636 Z M 0.1662 0.8279 L 0.1662 0.8279 C 0.1695 0.8279 0.17119999 0.8265 0.1719 0.8233 L 0.172 0.8229 C 0.17330001 0.8192 0.17210001 0.8167 0.1712 0.8155 C 0.16970001 0.8133 0.16710001 0.8123 0.16450001 0.8129 L 0.16400002 0.813 L 0.16350003 0.813 C 0.16350003 0.813 0.16350003 0.813 0.16350003 0.813 C 0.16070002 0.813 0.15710002 0.8158 0.15580003 0.8191 C 0.15490003 0.82140005 0.15520003 0.8233 0.15670003 0.82500005 C 0.1591 0.8263 0.1629 0.8279 0.1662 0.8279 Z M 0.4855 0.8206 C 0.4883 0.8206 0.4902 0.8192 0.49150002 0.8163 L 0.4916 0.816 C 0.4929 0.81369996 0.4923 0.8118 0.4916 0.8106 C 0.4905 0.80869997 0.4882 0.8075 0.4862 0.8078 L 0.4857 0.8079 L 0.48520002 0.8079 C 0.48450002 0.8078 0.4837 0.8078 0.483 0.8079 L 0.48250002 0.8079 L 0.48200002 0.8078 C 0.4796 0.8073 0.47540003 0.8094 0.47410002 0.8122 C 0.47370002 0.813 0.47340003 0.8142 0.47460002 0.8157 C 0.4779 0.8186 0.4822 0.8206 0.4855 0.8206 Z M 0.5972 0.3767 C 0.597 0.3767 0.5969 0.3767 0.5969 0.3767 C 0.5969 0.3768 0.5967 0.37730002 0.59679997 0.3781 C 0.5969 0.3788 0.5972 0.3793 0.59739995 0.37960002 C 0.59739995 0.37960002 0.59749997 0.37960002 0.59749997 0.37950003 L 0.59769994 0.37940004 C 0.59809995 0.37920004 0.59809995 0.37850004 0.59809995 0.37830004 C 0.59809995 0.37740004 0.59769994 0.37670004 0.59749997 0.37660003 L 0.5972 0.3767 Z M 0.5785 0.3943 C 0.5797 0.3968 0.5808 0.39940003 0.5818 0.402 C 0.584 0.4073 0.58599997 0.4124 0.58919996 0.416 C 0.59029996 0.4154 0.59099996 0.4143 0.5915 0.4134 C 0.5933 0.4098 0.5931 0.4046 0.5911 0.4017 L 0.5907 0.40109998 C 0.58169997 0.38109997 0.57579994 0.35029998 0.58909994 0.32939997 L 0.59529996 0.3196 L 0.5961 0.3311 C 0.5973 0.3496 0.60649997 0.36789998 0.62409997 0.387 C 0.6246 0.3874 0.62479997 0.3875 0.62479997 0.3875 C 0.62539995 0.38709998 0.62759995 0.3836 0.6289 0.37669998 C 0.62979996 0.3724 0.63089997 0.3687 0.6344 0.3687 H 0.6361 L 0.6373 0.3701 C 0.63850003 0.3715 0.6386 0.3733 0.6379 0.3779 C 0.6373 0.3808 0.6367 0.3837 0.636 0.38660002 C 0.63259995 0.4016 0.62909997 0.4171 0.63619995 0.4293 C 0.63629997 0.4294 0.6363999 0.4295 0.6363999 0.4295 C 0.6373999 0.4287 0.63899994 0.42520002 0.63869995 0.4226 L 0.63859993 0.4221 L 0.63869995 0.4216 C 0.6399999 0.41140002 0.64479995 0.40300003 0.64939994 0.39490002 C 0.65339994 0.38780004 0.6571999 0.38120002 0.65879995 0.37340003 L 0.65889996 0.37290004 C 0.6662 0.35210004 0.66129994 0.32580003 0.6471 0.30880004 C 0.6382 0.30050004 0.62649995 0.29590005 0.61509997 0.29650003 C 0.5948 0.29830003 0.5768 0.31800002 0.5725 0.3433 C 0.5687 0.3605 0.5731 0.3779 0.5785 0.3943 Z M 0.5893 0.1832 C 0.5847 0.2 0.5893 0.22 0.6013 0.2341 C 0.6118 0.2466 0.6163 0.2623 0.6137 0.2771 C 0.6137 0.2776 0.6138 0.2779 0.6138 0.27809998 C 0.6146 0.278 0.6159 0.27729997 0.61649996 0.27609998 L 0.617 0.27529997 C 0.62329996 0.26809996 0.6331 0.25389996 0.62729996 0.24039997 L 0.6271 0.23989998 C 0.6256 0.23419997 0.6231 0.22869998 0.62049997 0.22279997 C 0.61579996 0.21229997 0.61099994 0.20139997 0.61179996 0.18889996 L 0.6119 0.18839997 C 0.6134 0.18139997 0.6185 0.17729998 0.62549996 0.17729998 C 0.6288 0.17729998 0.63229996 0.17829998 0.6353 0.18009998 C 0.6579 0.19339998 0.6572 0.22819997 0.6558 0.24249998 C 0.6548 0.24959998 0.6526 0.25629997 0.65059996 0.26279998 C 0.6475 0.27249998 0.64449996 0.2817 0.6453 0.29129997 C 0.64599997 0.29389998 0.6482 0.29549998 0.65 0.29549998 C 0.6504 0.29549998 0.6518 0.29549998 0.65269995 0.29299998 L 0.65279996 0.2927 C 0.66819996 0.25939998 0.67239994 0.22399999 0.6644 0.1956 C 0.65779996 0.17750001 0.64309996 0.1592 0.6252 0.1604 L 0.6239 0.1604 L 0.6211 0.1604 C 0.6199 0.1604 0.6186 0.1604 0.6174 0.1605 L 0.6172 0.1605 L 0.61700004 0.1605 C 0.6043 0.1593 0.5941 0.1722 0.5893 0.1832 Z M 0.2059 0.9257 C 0.2074 0.9239 0.20809999 0.9214 0.2078 0.91940004 L 0.2077 0.919 L 0.2077 0.9186 C 0.2078 0.915 0.2065 0.91120005 0.2045 0.9091 C 0.2034 0.908 0.20230001 0.90749997 0.201 0.9074 C 0.1999 0.9077 0.1985 0.90860003 0.19780001 0.9112 C 0.1967 0.91569996 0.1985 0.9223 0.20170002 0.9252 L 0.20230001 0.9259 C 0.2028 0.9267 0.20330001 0.9271 0.2037 0.9271 C 0.2042 0.9272 0.2051 0.9267 0.2059 0.9257 Z M 0.6069 0.852 L 0.6117 0.8632 C 0.6134 0.86730003 0.614 0.872 0.6146 0.8766 C 0.6158 0.8859 0.6169 0.8916 0.6223 0.8937 C 0.625 0.8948 0.62810004 0.8952 0.63130003 0.8957 C 0.637 0.89659995 0.6434 0.8975 0.64860004 0.90239996 C 0.64930004 0.90119994 0.64930004 0.89629996 0.6478 0.89269996 L 0.6477 0.89239997 C 0.6433 0.8781 0.6343 0.8673 0.6247 0.8559 C 0.61800003 0.848 0.6111 0.8398 0.606 0.8302 L 0.60580003 0.8297 C 0.60580003 0.8296 0.60310006 0.82019997 0.6053 0.8172 L 0.6064 0.8156 L 0.6097 0.81549996 L 0.6118 0.817 L 0.6122 0.8182 C 0.61630005 0.8318 0.62560004 0.8429 0.6358 0.8467 C 0.6363 0.8468 0.6366 0.8467 0.6368 0.8462 C 0.63809997 0.8443 0.63809997 0.839 0.6367 0.8354 L 0.6365 0.8346 C 0.6351 0.8249 0.6289 0.81799996 0.6223 0.8107 C 0.6143 0.8018 0.6061 0.7927 0.606 0.778 L 0.606 0.7777 L 0.606 0.7774 C 0.6066 0.77360004 0.6093 0.7733 0.61010003 0.7733 C 0.6133 0.7733 0.61410004 0.77599996 0.61520004 0.7798 C 0.61560005 0.7812 0.61640006 0.7839 0.6169 0.7846 L 0.61730003 0.785 L 0.6175 0.78540003 C 0.6221 0.7954 0.6289 0.80340004 0.6359 0.81170005 C 0.64210004 0.81900007 0.6484 0.82650006 0.6534 0.8356 C 0.6534 0.83540004 0.6534 0.8352 0.6535 0.83500004 C 0.6537 0.8324 0.6539 0.83000004 0.65430003 0.828 C 0.6552 0.8108 0.6528 0.7918 0.64680004 0.7701 L 0.6467 0.7698 C 0.6437 0.7539 0.646 0.7381 0.64890003 0.7218 C 0.64860004 0.7203 0.64820004 0.7203 0.64800006 0.7203 C 0.64620006 0.7203 0.64250004 0.7224 0.63970006 0.72510004 L 0.62990004 0.73450005 L 0.6334 0.7214 C 0.6366 0.70970005 0.6413 0.69490004 0.65000004 0.6844 L 0.65040004 0.6839 L 0.65090007 0.6836 C 0.65290004 0.6824 0.65520006 0.6818 0.65720004 0.6813 C 0.6614 0.6802 0.66290003 0.67969996 0.66330004 0.67649996 L 0.66340005 0.67609996 C 0.6643 0.6723 0.6635001 0.668 0.66120005 0.6651 C 0.66 0.66359997 0.65760005 0.66169995 0.6546 0.6627 L 0.6538 0.6629 C 0.6459 0.66349995 0.6398 0.6698 0.6334 0.67649996 C 0.62700003 0.68319994 0.6204 0.6902 0.611 0.69219995 L 0.61 0.6923999 L 0.60910004 0.6920999 C 0.59650004 0.68819994 0.58650005 0.67739993 0.57760006 0.66779995 L 0.5766001 0.66679996 L 0.5763001 0.6662 C 0.5727001 0.65819997 0.5710001 0.6479 0.5702001 0.64059997 L 0.5699001 0.6382 L 0.5720001 0.63699996 C 0.57620007 0.63449997 0.5806001 0.63409996 0.5849001 0.63369995 C 0.5888001 0.63329995 0.5924001 0.63299996 0.5954001 0.63109994 L 0.5962001 0.63069993 C 0.6103001 0.62569994 0.62440014 0.6090999 0.6230001 0.5881999 L 0.6230001 0.5878999 L 0.6230001 0.58759993 C 0.6244001 0.57299995 0.6216001 0.5587999 0.6149001 0.5465999 L 0.6146001 0.5458999 C 0.61440015 0.54529995 0.61400014 0.5442999 0.61360013 0.54339993 C 0.6121001 0.5399999 0.61040014 0.5361999 0.6124001 0.53309995 C 0.6131001 0.53209996 0.6146001 0.5304 0.6182001 0.53069997 C 0.62760013 0.5276 0.6347001 0.51659995 0.6354001 0.50359994 L 0.6354001 0.50319993 L 0.6361001 0.49899992 C 0.6388001 0.48219994 0.64160013 0.4647999 0.6530001 0.45219994 C 0.65380013 0.45069993 0.6539001 0.44939995 0.65310013 0.44809994 C 0.6519001 0.44599995 0.64890015 0.44439995 0.64630014 0.44439995 C 0.64570016 0.44439995 0.64520013 0.44449994 0.6448001 0.44459996 L 0.64450014 0.44469994 C 0.64060014 0.44569993 0.6369001 0.44759995 0.63300014 0.44959995 C 0.6278001 0.45229995 0.62240016 0.45499995 0.61620015 0.45579994 C 0.61360013 0.45759994 0.61360013 0.46139994 0.61380017 0.46729994 C 0.61400014 0.47269994 0.6142002 0.47829995 0.6106002 0.48209995 L 0.60470015 0.48839995 L 0.60410017 0.47979996 C 0.60230017 0.45209995 0.6085002 0.42549995 0.61560017 0.39839995 C 0.61660016 0.39439994 0.61620015 0.39099994 0.6147002 0.38899994 C 0.6136002 0.38759995 0.6118002 0.38679993 0.6093002 0.38679993 C 0.6078002 0.38819993 0.6071002 0.39159992 0.6064002 0.39489993 C 0.6058002 0.39799994 0.6051002 0.40119994 0.6037002 0.40399992 C 0.59910023 0.41859993 0.5979002 0.43449992 0.5968002 0.44999993 C 0.5963002 0.45739993 0.5957002 0.4649999 0.59480023 0.47239992 L 0.59420025 0.47739992 L 0.58960027 0.4753999 C 0.5843003 0.47309992 0.5796003 0.46949992 0.5750003 0.4658999 C 0.5685003 0.46089992 0.56230026 0.45609993 0.5554003 0.4555999 C 0.5549003 0.4566999 0.5556003 0.4583999 0.5593003 0.4629999 C 0.5607003 0.4647999 0.5621003 0.46649992 0.5630003 0.4682999 C 0.5705003 0.4799999 0.5709003 0.4934999 0.5713003 0.5066999 C 0.5716003 0.5169999 0.5719003 0.52659994 0.57530034 0.5352999 C 0.5756003 0.5357999 0.57580036 0.5359999 0.57580036 0.5359999 C 0.5763004 0.5358999 0.5781004 0.5347999 0.5791004 0.5341999 C 0.58000034 0.5335999 0.5809004 0.5330999 0.58180034 0.5326999 L 0.5842003 0.5315999 L 0.5860003 0.53359985 C 0.59290034 0.5409998 0.6024003 0.5530999 0.6079003 0.56849986 L 0.60800034 0.56889987 C 0.61060035 0.5790999 0.6082003 0.5900999 0.6018003 0.5983999 C 0.5956003 0.6062999 0.5866003 0.61019987 0.57780033 0.6084999 C 0.5526003 0.60369986 0.53870034 0.5772999 0.52760035 0.55299985 C 0.5185003 0.5347999 0.5091003 0.51749986 0.49500036 0.5074999 C 0.48820037 0.50559986 0.48100036 0.50529987 0.47470036 0.50529987 C 0.47240037 0.50529987 0.47000036 0.50529987 0.46770036 0.5053999 C 0.46530035 0.5053999 0.46300036 0.5054999 0.46060038 0.5054999 C 0.44880038 0.5054999 0.43630037 0.5043999 0.42530036 0.4967999 L 0.42470035 0.4962999 C 0.42110035 0.4923999 0.41830036 0.4903999 0.41650036 0.4903999 C 0.41620037 0.4903999 0.41520035 0.4903999 0.41380036 0.49229988 L 0.41340035 0.49279988 C 0.40620035 0.4996999 0.39770034 0.5036999 0.38950035 0.5074999 C 0.38650036 0.50889987 0.38340035 0.51029986 0.38040036 0.5118999 C 0.37950036 0.5128999 0.37940037 0.5136999 0.37950036 0.51429987 C 0.37980035 0.5171999 0.38370037 0.5211999 0.38730037 0.52359986 L 0.38760036 0.52379984 C 0.39230037 0.52739984 0.39710036 0.5308998 0.40230036 0.5344998 C 0.42280036 0.5488998 0.44400036 0.5637998 0.45190036 0.59129983 C 0.45670035 0.6004998 0.45470035 0.60999984 0.45170036 0.61899984 C 0.44430035 0.6529998 0.44720036 0.68879986 0.45000035 0.72349983 C 0.45030034 0.7269998 0.45060036 0.73039985 0.45080036 0.7337998 L 0.45100036 0.7362998 L 0.44870037 0.7373998 C 0.44630036 0.73859984 0.44420037 0.7418998 0.44410038 0.7447998 C 0.4440004 0.7470998 0.44520038 0.7480998 0.44610038 0.7486998 L 0.4463004 0.74889976 C 0.4483004 0.75029975 0.4506004 0.75099975 0.4539004 0.75099975 C 0.4559004 0.75099975 0.4580004 0.7507998 0.4600004 0.7504997 C 0.46100038 0.7503997 0.4620004 0.75029975 0.4630004 0.75019974 L 0.4666004 0.74989974 L 0.4670004 0.75349975 C 0.4677004 0.7593998 0.4710004 0.7654998 0.4735004 0.7654998 C 0.4742004 0.7654998 0.4749004 0.76509976 0.4754004 0.76469976 L 0.47590038 0.76439977 C 0.4767004 0.76399976 0.47780037 0.76289976 0.4788004 0.76189977 C 0.4810004 0.75969976 0.48360038 0.75719976 0.4871004 0.75719976 C 0.4893004 0.75719976 0.4913004 0.75819975 0.4932004 0.76009977 C 0.4955004 0.7619998 0.5006004 0.7622998 0.50220037 0.7605998 C 0.5027004 0.76009977 0.50290036 0.7593998 0.5030004 0.7583998 L 0.5024004 0.7570998 C 0.4986004 0.7494998 0.4939004 0.73999983 0.4982004 0.7305998 L 0.4986004 0.72969985 L 0.4994004 0.72909987 C 0.50370044 0.7259999 0.5093004 0.7241999 0.5153004 0.7241999 C 0.5177004 0.7241999 0.5201004 0.7244999 0.5223004 0.7249999 L 0.52380043 0.7253999 L 0.52460045 0.7266999 C 0.52750045 0.7312999 0.5280005 0.73659986 0.52860045 0.7416999 C 0.52900046 0.74559987 0.52940047 0.7492999 0.53080046 0.7524999 L 0.53110045 0.7532999 C 0.5334005 0.7648999 0.53960043 0.7742999 0.54840046 0.7798999 L 0.54900044 0.7803999 C 0.5514004 0.7827999 0.55450046 0.78449994 0.5578004 0.78629994 C 0.56300044 0.78919995 0.5683004 0.79219997 0.5718004 0.79809994 L 0.5722004 0.7986999 L 0.57230043 0.7993999 C 0.57390046 0.8098999 0.5708004 0.8193999 0.56780046 0.82859993 C 0.56550044 0.8356999 0.5633005 0.84229994 0.5632005 0.8492999 L 0.5632005 0.8496999 C 0.56210047 0.8590999 0.55620044 0.86559993 0.54870045 0.86559993 C 0.54770046 0.86559993 0.54660046 0.8654999 0.5456005 0.8651999 C 0.5453005 0.8651999 0.54510045 0.8651999 0.54480046 0.8651999 C 0.53900045 0.8651999 0.53470045 0.8636999 0.53220046 0.8607999 C 0.53080046 0.8591999 0.52920043 0.85629994 0.5298005 0.8516999 C 0.5310005 0.8355999 0.52150047 0.8162999 0.5068005 0.8142999 C 0.5041005 0.81529987 0.50210047 0.8183999 0.5000005 0.8215999 C 0.4970005 0.8261999 0.4936005 0.8313999 0.48710048 0.8325999 C 0.4857005 0.83289987 0.48540047 0.83469987 0.48540047 0.83529985 C 0.48530048 0.8365998 0.48580047 0.83819985 0.48710048 0.8386999 L 0.48780048 0.8390999 C 0.4891005 0.83999985 0.4918005 0.84179986 0.4909005 0.8447999 C 0.49070048 0.8454999 0.48980048 0.8476999 0.4866005 0.8476999 C 0.4857005 0.8476999 0.48460048 0.8474999 0.4832005 0.8472999 C 0.4821005 0.8470999 0.48080048 0.84689987 0.47970048 0.84689987 C 0.47990048 0.8508999 0.4796005 0.85499984 0.4794005 0.85899985 C 0.47900048 0.8670998 0.47860047 0.87469983 0.4811005 0.88119984 C 0.4822005 0.8821998 0.4832005 0.88229984 0.4838005 0.88229984 C 0.4875005 0.88229984 0.4925005 0.8774998 0.4958005 0.8742998 L 0.4973005 0.87289983 L 0.5030005 0.87769985 C 0.4998005 0.88239986 0.4991005 0.88949984 0.5035005 0.8932999 C 0.5052005 0.89459985 0.50860053 0.8939999 0.5123005 0.8929999 C 0.5148005 0.8922999 0.5174005 0.8915999 0.5201005 0.8915999 C 0.5242005 0.8915999 0.52750045 0.8932999 0.53000045 0.8966999 C 0.53180045 0.8981999 0.5334005 0.9001999 0.5349004 0.9020999 C 0.53720045 0.9048999 0.5398004 0.9081999 0.54180044 0.9081999 C 0.54180044 0.9081999 0.54180044 0.9081999 0.54180044 0.9081999 C 0.54540044 0.9049999 0.54870045 0.9009999 0.55190045 0.8970999 C 0.55470043 0.8937999 0.5575004 0.8902999 0.56050044 0.8872999 L 0.56660044 0.8912999 L 0.56590044 0.89289993 C 0.56480044 0.8955999 0.5622004 0.9020999 0.56330043 0.90419996 C 0.56340045 0.9043 0.5635004 0.90459996 0.5643004 0.90479994 C 0.5682004 0.90459996 0.5721004 0.90209997 0.57630044 0.8995999 C 0.5812004 0.8965999 0.5862004 0.8933999 0.59210044 0.8933999 C 0.5948004 0.8933999 0.5974004 0.8940999 0.5999004 0.89539987 C 0.60180044 0.89609987 0.6034004 0.8947999 0.60400045 0.8940999 C 0.60540044 0.89249986 0.6060004 0.8901999 0.60570043 0.8878999 L 0.60570043 0.88749987 L 0.60570043 0.88709986 C 0.6059004 0.8839999 0.60550046 0.87949985 0.60510045 0.87549984 C 0.60470045 0.87079984 0.60430044 0.8666998 0.60480046 0.8641998 L 0.6069 0.852 Z M 0.585 0.9256 C 0.58519995 0.92579997 0.58529997 0.9259 0.5854 0.9259 C 0.5854 0.9259 0.5857 0.9259 0.5862 0.9256 C 0.5898 0.9229 0.5974 0.91609997 0.5959 0.9092 C 0.594 0.90610003 0.5905 0.9058 0.589 0.9058 C 0.58849996 0.9058 0.5881 0.9058 0.5876 0.9059 L 0.5872 0.9059 C 0.5855 0.9059 0.584 0.9069 0.5829 0.9084 C 0.5816 0.9103 0.58129996 0.9129 0.5822 0.9153 L 0.58239996 0.9159 L 0.58239996 0.9166 C 0.5824 0.9201 0.5836 0.9242 0.585 0.9256 Z M 0.2475 0.5634 C 0.2475 0.56119996 0.2468 0.55999994 0.2465 0.5599 C 0.2457 0.56009996 0.2449 0.56159997 0.2447 0.5634 C 0.2444 0.56579995 0.2452 0.5675 0.2456 0.56769997 L 0.2456 0.56769997 C 0.2457 0.56769997 0.246 0.56759995 0.2463 0.5675 C 0.2468 0.5671 0.2475 0.5656 0.2475 0.5634 Z M 0.5128 0.9303 C 0.51369995 0.93119997 0.51449996 0.9318 0.5154 0.9321 C 0.5175 0.929 0.5191 0.9252 0.5208 0.9212 C 0.5222 0.918 0.5236 0.91459996 0.52529997 0.9116 C 0.52529997 0.9097 0.52449995 0.90749997 0.52299994 0.9058 C 0.52149993 0.9041 0.51969993 0.9031 0.51809996 0.9031 C 0.5178 0.9031 0.51759994 0.9031 0.51729995 0.90320003 L 0.51699996 0.90330005 C 0.5142 0.9038001 0.51179993 0.90540004 0.51009995 0.9078 C 0.5081 0.9107 0.5074 0.91440004 0.50819993 0.9181 L 0.50829995 0.9185 L 0.50829995 0.9189 C 0.5081 0.9227 0.51 0.9275 0.5128 0.9303 Z M 0.2196 0.5967 C 0.2202 0.5967 0.221 0.5966 0.2219 0.5957 C 0.2229 0.58930004 0.2207 0.5812 0.2165 0.57610005 C 0.2156 0.5755001 0.2144 0.57530004 0.2133 0.57540005 L 0.2131 0.57540005 L 0.2128 0.5754 C 0.2128 0.5754 0.2128 0.5754 0.2128 0.5754 C 0.2102 0.5754 0.2074 0.5777 0.2062 0.5809 C 0.20560001 0.5823 0.20470001 0.5859 0.2076 0.58860004 L 0.2078 0.5888 C 0.2123 0.5937 0.2167 0.5967 0.2196 0.5967 Z M 0.4578 0.8765 C 0.4605 0.8765 0.4645 0.8737 0.4683 0.8692 C 0.4693 0.86579996 0.46910003 0.8603 0.4674 0.8578 C 0.4666 0.8567 0.4659 0.8567 0.4652 0.8568 C 0.4618 0.85800004 0.4582 0.8621 0.4566 0.8667 C 0.4558 0.8689 0.4549 0.8729 0.4567 0.8764 C 0.457 0.8765 0.4574 0.8765 0.4578 0.8765 C 0.4578 0.8765 0.4578 0.8765 0.4578 0.8765 Z M 0.2758 0.9118 C 0.27699998 0.91160005 0.2801 0.9078 0.28129998 0.90360004 L 0.2817 0.90270007 C 0.2839 0.89900005 0.2844 0.8934001 0.2828 0.8903001 C 0.2821 0.8890001 0.28109998 0.8883001 0.2796 0.8882001 C 0.27899998 0.8881001 0.2787 0.8881001 0.2783 0.8881001 C 0.27659997 0.8886001 0.27539998 0.8897001 0.27449998 0.8916001 C 0.27199998 0.8967001 0.27299997 0.90550005 0.27539998 0.9114001 C 0.2756 0.9116 0.2757 0.9117 0.2758 0.9118 Z M 0.4271 0.6581 C 0.4283 0.656 0.4271 0.6504 0.4253 0.6467 C 0.4202 0.6354 0.417 0.6243 0.4156 0.6135 C 0.4104 0.6021 0.3981 0.5993 0.3863 0.5965 C 0.3848 0.5961 0.3833 0.5958 0.3819 0.5955 C 0.37820002 0.59499997 0.3754 0.5949 0.3725 0.5951 C 0.3516 0.59599996 0.3346 0.6088 0.3166 0.62229997 C 0.3069 0.6296 0.2968 0.6371 0.2862 0.6425 C 0.28359997 0.6441 0.28079998 0.6448 0.2776 0.6448 C 0.2747 0.6448 0.27199998 0.6442 0.2694 0.6436 C 0.2659 0.6429 0.2626 0.6422 0.2601 0.643 C 0.2572 0.6484 0.26070002 0.6559 0.2638 0.6626 C 0.2646 0.66429996 0.2653 0.6658 0.2659 0.6673 C 0.2695 0.67289996 0.2654 0.6774 0.2629 0.68009996 C 0.2617 0.68149996 0.2604 0.68279994 0.2601 0.68399996 L 0.25980002 0.68479997 C 0.2542 0.6961 0.24840002 0.70939994 0.24840002 0.7227 C 0.24910001 0.7237 0.2502 0.7243 0.25250003 0.7243 C 0.25410002 0.7243 0.25600004 0.72400004 0.2578 0.72370005 C 0.2601 0.72330004 0.26250002 0.72300005 0.26470003 0.72310007 C 0.26500002 0.72310007 0.26520002 0.72310007 0.26540002 0.72310007 C 0.26710004 0.72310007 0.2691 0.72230005 0.27120003 0.72150004 C 0.27380005 0.72050005 0.27640003 0.71940005 0.27930003 0.71940005 C 0.28000003 0.71940005 0.28070003 0.71950006 0.28140002 0.7196 L 0.28350002 0.72 L 0.2842 0.722 C 0.28680003 0.7295 0.2881 0.7376 0.2894 0.7454 C 0.2904 0.7514 0.2913 0.7576 0.29290003 0.7633 L 0.293 0.764 C 0.29340002 0.7693 0.29050002 0.7732 0.28800002 0.7767 C 0.2865 0.7788 0.2851 0.7807 0.2845 0.7827 L 0.28440002 0.7832 L 0.28410003 0.78360003 C 0.27950004 0.79130006 0.27560002 0.79980004 0.27180004 0.808 C 0.26800004 0.8162 0.26400003 0.8247 0.25940004 0.8326 L 0.25800005 0.835 L 0.25530005 0.8344 C 0.24770005 0.8326 0.23960005 0.8324 0.23210004 0.8324 L 0.22480004 0.8324 C 0.21760003 0.8324 0.20920004 0.8323 0.20120004 0.8305 L 0.20040004 0.83030003 L 0.19970004 0.8298 C 0.19670004 0.8275 0.19580004 0.824 0.19500004 0.8209 C 0.19440004 0.81850004 0.19380003 0.81630003 0.19250004 0.8154 L 0.19190004 0.815 L 0.19150004 0.8143 C 0.19000004 0.8121 0.18700004 0.8101 0.18490005 0.8101 C 0.18430005 0.8101 0.18340005 0.8101 0.18290004 0.81240004 C 0.18230005 0.82350004 0.17680004 0.83260006 0.17200004 0.8406 C 0.17190003 0.8414 0.17200004 0.842 0.17230004 0.8423 C 0.17260005 0.8426 0.17360005 0.8434 0.17760004 0.8434 C 0.17860004 0.8434 0.17950004 0.8434 0.18040004 0.8433 C 0.18160005 0.8433 0.18280004 0.84319997 0.18370004 0.8433 C 0.18670005 0.84349996 0.19020005 0.8437 0.19010004 0.84749997 C 0.19000004 0.85129994 0.18720004 0.85129994 0.18100004 0.8515 C 0.17780004 0.8515 0.17320004 0.85349995 0.17080005 0.85679996 C 0.16950004 0.85859996 0.16900004 0.86039996 0.16940005 0.8623 C 0.17010005 0.86289996 0.17100005 0.86319995 0.17250004 0.86359996 C 0.17500004 0.86439997 0.17840004 0.86539996 0.18070005 0.86929995 C 0.18410005 0.8719999 0.18520005 0.87619996 0.18610005 0.87969995 C 0.18730006 0.8841999 0.18790005 0.8856 0.18960005 0.88579994 L 0.19020005 0.88589996 C 0.19170004 0.88629997 0.19420004 0.88449997 0.19620004 0.88299996 C 0.19810005 0.88159996 0.19980004 0.8803 0.20180005 0.8799 L 0.21130005 0.87799996 L 0.20560004 0.88579994 C 0.20470004 0.8870999 0.20350003 0.8881999 0.20220004 0.88949996 C 0.20050004 0.8911 0.19800004 0.8935 0.19800004 0.89489996 C 0.19800004 0.89519995 0.19820005 0.89559996 0.19840005 0.89589995 C 0.20310006 0.89779997 0.20690005 0.9011 0.21060005 0.90419996 C 0.21260005 0.90589994 0.21460004 0.9076 0.21660005 0.909 C 0.22220005 0.9081 0.22660005 0.9018 0.23080005 0.8957 C 0.23230004 0.8936 0.23380005 0.8914 0.23530005 0.88949996 C 0.23730005 0.88479996 0.24030004 0.88379997 0.24240005 0.88379997 C 0.24570005 0.88379997 0.24850005 0.8864 0.25030005 0.88839996 C 0.25220004 0.89019996 0.25460005 0.89109993 0.25720006 0.89109993 C 0.26140007 0.89109993 0.26480007 0.88839996 0.26620007 0.88399994 L 0.26640007 0.88329995 L 0.26690006 0.88269997 C 0.27030006 0.87869996 0.27520007 0.87789994 0.27950007 0.87729996 C 0.28560007 0.8764 0.28770006 0.87569994 0.28820008 0.87119997 L 0.2888001 0.8666 L 0.29320008 0.8681 C 0.29500008 0.86869997 0.29720008 0.8681 0.29960006 0.8674 C 0.30220008 0.8666 0.30550006 0.8657 0.30850005 0.8663 L 0.30880004 0.8664 C 0.31130004 0.8671 0.31390005 0.8685 0.31640005 0.86980003 C 0.32080007 0.87210006 0.32520005 0.87450004 0.32810006 0.8726 C 0.32880005 0.8692 0.32620007 0.8656 0.32260007 0.8611 C 0.31990007 0.8578 0.31760007 0.8549 0.31740007 0.8516 L 0.31700006 0.8428 L 0.32360005 0.84860003 C 0.32910004 0.8535 0.33560005 0.85700005 0.34240004 0.8607 C 0.35310003 0.86660004 0.36420006 0.87270004 0.37180004 0.8843 C 0.37190002 0.8844 0.37200004 0.88449997 0.37210003 0.8846 C 0.37260002 0.8842 0.37360004 0.88269997 0.37330002 0.8808 L 0.37320003 0.8804 L 0.37320003 0.88 C 0.37380004 0.8674 0.36560002 0.858 0.35760003 0.8489 C 0.35580003 0.84690005 0.35410002 0.8449 0.35250002 0.843 L 0.35740003 0.8375 C 0.36010003 0.83919996 0.36230004 0.84169996 0.36450002 0.8441 C 0.3673 0.8472 0.37 0.8501 0.3727 0.8505 C 0.3763 0.8467 0.377 0.8398 0.3776 0.83309996 C 0.3779 0.83019996 0.37820002 0.82719994 0.37870002 0.82449996 C 0.37980002 0.8095 0.381 0.79399997 0.38500002 0.77919996 C 0.38570002 0.7696 0.38090003 0.76179993 0.37590003 0.75359994 C 0.37390003 0.75029993 0.37180004 0.74689996 0.37020004 0.7433999 L 0.36940002 0.74169993 L 0.37030002 0.73999995 C 0.37210003 0.73669994 0.37440002 0.73389995 0.37660003 0.73109996 C 0.37970003 0.7273 0.38260004 0.7237 0.38400003 0.71919996 L 0.38410002 0.71889997 C 0.3903 0.70399994 0.39720002 0.68719995 0.39870003 0.66989994 C 0.39840004 0.66859996 0.39810002 0.66859996 0.39760002 0.66859996 C 0.39640003 0.66859996 0.39450002 0.66919994 0.39290002 0.66969997 C 0.39130002 0.6702 0.3898 0.67069995 0.38830003 0.6709 C 0.38700002 0.6714 0.38580003 0.6717 0.38480002 0.6717 C 0.38250002 0.6717 0.3806 0.6704 0.38000003 0.6684 C 0.37930003 0.666 0.38070002 0.6634 0.3837 0.6616 C 0.38970003 0.6577 0.39670002 0.6558 0.40510002 0.6558 C 0.41230002 0.6558 0.4194 0.6572 0.4266 0.6588 C 0.4269 0.6585 0.427 0.6582 0.4271 0.6581 Z M 0.1722 0.5666 C 0.17279999 0.56710005 0.173 0.56710005 0.173 0.56710005 C 0.173 0.56710005 0.1733 0.56700003 0.17379999 0.56650007 C 0.1751 0.56500006 0.1758 0.56210005 0.17539999 0.55990005 C 0.17539999 0.55960006 0.17449999 0.5518001 0.17699999 0.549 C 0.17779998 0.54810005 0.17889999 0.54760003 0.18009998 0.54760003 C 0.18309999 0.54760003 0.18449998 0.55060005 0.18499997 0.5518 L 0.18529998 0.5524 L 0.18529998 0.5531 C 0.18579997 0.5613 0.18909998 0.5734 0.19599998 0.5741 C 0.19769998 0.57320005 0.19929998 0.5716 0.20109998 0.5701 C 0.20469998 0.5669 0.20869997 0.5632 0.21419998 0.5632 C 0.21559997 0.5632 0.21709998 0.5635 0.21849997 0.5639 L 0.21869998 0.564 C 0.22049998 0.5648 0.22259998 0.56520003 0.22449997 0.56520003 C 0.22899997 0.56520003 0.23159997 0.56310004 0.23219997 0.55910003 L 0.23219997 0.55880004 C 0.23329997 0.5536 0.23049997 0.55140007 0.22509997 0.5479 C 0.22219996 0.546 0.21919997 0.544 0.21699996 0.541 C 0.21139996 0.5338 0.21259996 0.5292 0.21459997 0.5266 L 0.21789996 0.5224 L 0.22159997 0.52860004 C 0.22369997 0.5321 0.22569996 0.53550005 0.22889997 0.53650004 L 0.22949997 0.5367 L 0.22999996 0.5371 C 0.23329996 0.53970003 0.23739997 0.5404 0.24179997 0.5411 C 0.24789996 0.5422 0.25479996 0.54330003 0.25989997 0.54980004 C 0.26439998 0.55420005 0.26289997 0.55960006 0.26189998 0.56320006 C 0.26149997 0.56460005 0.26109996 0.56600004 0.26099998 0.56720006 C 0.2616 0.5676001 0.26199996 0.5676001 0.26219997 0.5676001 C 0.26479998 0.5676001 0.26959997 0.56250006 0.27159998 0.55750006 C 0.27409998 0.55170006 0.27159998 0.5461001 0.2686 0.5396001 C 0.26529998 0.5324001 0.2616 0.5243001 0.26569998 0.51540005 L 0.26599997 0.5149 C 0.26669997 0.5138 0.26829997 0.51140004 0.27099997 0.51140004 C 0.27569997 0.51140004 0.27579996 0.5167 0.27579996 0.521 C 0.27579996 0.52210003 0.27579996 0.5237 0.27589995 0.5241 L 0.27599993 0.5244 C 0.27699992 0.5302 0.27919993 0.5356 0.28159994 0.5413 C 0.28359994 0.546 0.28559995 0.5509 0.28689992 0.5562 C 0.2871999 0.55660003 0.28739992 0.5568 0.28749993 0.5568 C 0.28849992 0.5568 0.29109994 0.5539 0.29159993 0.5509 L 0.29179993 0.55009997 C 0.29349995 0.5458 0.29469994 0.5409 0.29609993 0.5358 C 0.29969993 0.52199996 0.30389994 0.5064 0.31719995 0.49999997 L 0.31779996 0.49969998 L 0.31839997 0.4996 C 0.32379997 0.49899998 0.32439998 0.491 0.32469997 0.48139998 C 0.32469997 0.4802 0.32479995 0.4791 0.32479995 0.478 C 0.32429996 0.4743 0.32489994 0.4707 0.32559997 0.4671 C 0.32629997 0.4633 0.32689998 0.4597 0.32589996 0.4569 C 0.32209995 0.4559 0.31659997 0.4623 0.31339997 0.466 L 0.31309998 0.46629998 C 0.30839998 0.47269997 0.30539998 0.48099998 0.30259997 0.48909998 C 0.30039996 0.49529997 0.29809996 0.5017 0.29499996 0.50729996 L 0.29199997 0.51269996 L 0.28859997 0.50749993 C 0.27839997 0.49199992 0.27199996 0.47289994 0.27039996 0.45349994 C 0.27019995 0.45259994 0.26989996 0.45159996 0.26969996 0.45059994 C 0.26869997 0.44659993 0.26719996 0.44059995 0.26469997 0.44059995 C 0.26459998 0.44059995 0.26439998 0.44059995 0.26429996 0.44059995 C 0.25639996 0.44309995 0.25039995 0.44979995 0.24399996 0.45689994 C 0.23859996 0.46289995 0.23299995 0.46909994 0.22599995 0.47299993 C 0.22199996 0.47589993 0.21819995 0.47959992 0.21419995 0.48359993 C 0.20489995 0.49269992 0.19529995 0.50219995 0.18219994 0.50219995 C 0.18219994 0.50219995 0.18219994 0.50219995 0.18219994 0.50219995 C 0.18179993 0.50219995 0.18139994 0.50219995 0.18099993 0.50219995 L 0.18049994 0.50209993 C 0.16749994 0.49969992 0.16499995 0.48269993 0.16349994 0.47249994 L 0.16349994 0.47219995 C 0.16279994 0.46059996 0.15769994 0.44319993 0.14649993 0.44399995 C 0.14159994 0.44449994 0.13949993 0.44979995 0.13679993 0.45779994 C 0.13619994 0.45969993 0.13549992 0.46159995 0.13479993 0.46339995 L 0.13449992 0.46389994 C 0.13209993 0.46779993 0.12829992 0.46999994 0.124999925 0.47189993 C 0.11999992 0.47479993 0.11739992 0.47659993 0.117499925 0.48129994 C 0.117499925 0.48229992 0.117499925 0.48319992 0.117499925 0.48399994 C 0.11759993 0.48919994 0.11769993 0.49699995 0.110499926 0.49979994 C 0.10759993 0.50179994 0.10439993 0.50619996 0.10419992 0.50999993 C 0.10409992 0.51179993 0.104699925 0.5131999 0.105999924 0.5142999 C 0.11159992 0.51769996 0.11979993 0.5228999 0.122699924 0.5331999 C 0.12469992 0.53909993 0.12729992 0.5421999 0.12829992 0.5421999 C 0.12839992 0.5421999 0.12869993 0.5420999 0.12929992 0.5415999 C 0.12989992 0.5410999 0.13039993 0.5404999 0.13109992 0.53989995 C 0.13349992 0.53739995 0.13569993 0.53499997 0.13859992 0.53499997 C 0.13969992 0.53499997 0.14069992 0.5354 0.14159992 0.5361 L 0.14379993 0.5379 L 0.14269993 0.5405 C 0.14199993 0.5421 0.14089993 0.5438 0.13969992 0.5456 C 0.13809992 0.548 0.13549992 0.55189997 0.13589992 0.5535 C 0.13589992 0.5537 0.13609992 0.5539 0.13629992 0.5541 C 0.13819993 0.55429995 0.14019993 0.5545 0.14219992 0.55469996 C 0.1521 0.5557 0.1636 0.5567 0.1722 0.5666 Z M 0.1341 0.2384 C 0.13440001 0.2428 0.14070001 0.2493 0.146 0.2493 H 0.146 C 0.1471 0.2493 0.148 0.249 0.1488 0.2485 L 0.1496 0.24800001 L 0.1505 0.24790001 C 0.1543 0.2475 0.15709999 0.24370001 0.1582 0.24010001 C 0.1593 0.23650001 0.1593 0.23170002 0.15599999 0.22870001 C 0.15499999 0.22810002 0.15419999 0.22790001 0.15349999 0.22800002 C 0.15229999 0.22820002 0.15089999 0.22940001 0.1494 0.23070002 C 0.1471 0.2327 0.1443 0.2353 0.1402 0.2353 C 0.1395 0.2353 0.13880001 0.2352 0.1381 0.2351 C 0.1339 0.2358 0.134 0.2376 0.1341 0.2384 Z M 0.251 0.1133 C 0.2512 0.1133 0.2516 0.113400005 0.2519 0.113400005 C 0.2519 0.113400005 0.2519 0.113400005 0.2519 0.113400005 C 0.2543 0.113400005 0.2562 0.112100005 0.2577 0.109500006 C 0.2607 0.10430001 0.2607 0.0957 0.25779998 0.09060001 C 0.2562 0.0878 0.2541 0.086600006 0.25129998 0.0869 L 0.25109997 0.0869 L 0.25089997 0.0869 C 0.25089997 0.0869 0.25089997 0.0869 0.25089997 0.0869 C 0.24999997 0.0869 0.24979997 0.08710001 0.24959996 0.0873 C 0.24889997 0.0881 0.24809997 0.0903 0.24849996 0.096300006 L 0.24859996 0.0979 L 0.24759996 0.0991 C 0.24559996 0.1014 0.24499996 0.105000004 0.24609996 0.1084 C 0.247 0.111 0.2488 0.1129 0.251 0.1133 Z M 0.1596 0.0931 C 0.16260001 0.0936 0.16700001 0.0942 0.1693 0.099199995 C 0.17040001 0.10079999 0.1718 0.1015 0.1736 0.1015 H 0.1736 C 0.17660001 0.1015 0.18010001 0.0993 0.1817 0.0964 C 0.18300001 0.094 0.18290001 0.0917 0.1815 0.0894 C 0.1778 0.0844 0.1733 0.0816 0.1693 0.0818 C 0.1606 0.084 0.15630001 0.0872 0.1561 0.0916 C 0.1564 0.0925 0.157 0.0927 0.1596 0.0931 Z M 0.1248 0.1855 C 0.1265 0.1829 0.1285 0.1797 0.1319 0.1785 C 0.13509999 0.1767 0.1366 0.17379999 0.1358 0.1707 C 0.1351 0.1679 0.13260001 0.1651 0.1285 0.1651 C 0.1255 0.1662 0.1237 0.16919999 0.1228 0.1715 C 0.1206 0.1768 0.1206 0.1837 0.1227 0.1885 C 0.1233 0.1879 0.1242 0.1864 0.1248 0.1855 Z M 0.1406 0.1568 L 0.14109999 0.1573 C 0.1475 0.16489999 0.1468 0.1752 0.14619999 0.18419999 C 0.14609998 0.18499999 0.14609998 0.18589999 0.14599998 0.18669999 C 0.14689998 0.18689999 0.14789999 0.1871 0.14889999 0.18729998 C 0.15269999 0.18799998 0.15669999 0.18869998 0.15939999 0.19089998 L 0.16259998 0.19339998 L 0.15989998 0.19639999 C 0.15259998 0.20439999 0.15119998 0.20919998 0.15139998 0.21179998 C 0.15149999 0.21319997 0.15199998 0.21439998 0.15299998 0.21539998 C 0.16219999 0.21909998 0.16879998 0.22799999 0.17049998 0.23879997 C 0.17079999 0.23899998 0.17129998 0.23919998 0.17259999 0.23919998 C 0.17369999 0.23919998 0.17489998 0.23909998 0.17619999 0.23889998 C 0.17769998 0.23869997 0.1792 0.23859997 0.18069999 0.23859997 C 0.18859999 0.23859997 0.19079998 0.24379997 0.19129999 0.24829997 C 0.1925 0.25229996 0.1942 0.25629997 0.196 0.26049998 C 0.1997 0.26909998 0.20359999 0.27789998 0.20289999 0.28779998 L 0.20279999 0.2886 C 0.20079999 0.2953 0.19549999 0.2996 0.1891 0.2996 C 0.1863 0.2996 0.18349999 0.2987 0.1811 0.297 C 0.1809 0.29709998 0.1805 0.2977 0.1804 0.299 C 0.1803 0.301 0.1811 0.30339998 0.1821 0.3044 L 0.1825 0.3047 L 0.18280001 0.3051 C 0.1869 0.3116 0.19370002 0.3138 0.20090002 0.3161 C 0.20270002 0.3167 0.20440002 0.3172 0.20610002 0.31780002 L 0.20810002 0.31860003 L 0.20850003 0.32080004 C 0.21010002 0.33020005 0.21060003 0.34000003 0.21110003 0.34950003 C 0.21170002 0.35980004 0.21220003 0.37040004 0.21420002 0.38030005 C 0.21430002 0.38040003 0.21440002 0.38050005 0.21450002 0.38050005 C 0.21570003 0.38010004 0.21770002 0.37740004 0.22050002 0.37250006 L 0.22110002 0.37150007 C 0.22950001 0.3563001 0.23830003 0.34220007 0.25300002 0.33660007 C 0.2549 0.33550006 0.25700003 0.33470008 0.25900003 0.33390006 C 0.26490003 0.33170006 0.26710004 0.33040005 0.26690003 0.32600006 C 0.26650003 0.31330007 0.26800004 0.30110008 0.27140003 0.28970006 C 0.26970002 0.28230006 0.26560003 0.27580005 0.26130003 0.26900005 C 0.25820002 0.26420006 0.25510004 0.25920007 0.25270003 0.25380006 L 0.25250003 0.25330007 C 0.25070003 0.24640007 0.24830003 0.23950008 0.24570003 0.23230007 C 0.23920003 0.21390007 0.23240003 0.19500007 0.23700003 0.17430007 L 0.23720004 0.17380008 C 0.24020004 0.16600008 0.24540004 0.15990008 0.25030005 0.15390009 C 0.25680006 0.14610009 0.26300004 0.13870008 0.26390004 0.12840009 C 0.26320004 0.12360009 0.26010004 0.12290008 0.25280005 0.12220009 C 0.25010005 0.12200008 0.24730004 0.121700086 0.24490005 0.12090009 C 0.23930004 0.11980009 0.23640005 0.115100086 0.23400004 0.11130009 C 0.23120004 0.10680009 0.22980005 0.105000086 0.22720005 0.105400085 C 0.22030005 0.10640009 0.21790005 0.11740009 0.21670005 0.12550008 L 0.21650004 0.12650008 L 0.21590005 0.12730008 C 0.21480004 0.12870008 0.21350005 0.12940009 0.21200004 0.12940009 C 0.21090004 0.12940009 0.20980003 0.12900008 0.20900004 0.12810008 C 0.20740004 0.12640008 0.20730004 0.123900086 0.20740004 0.119500086 C 0.20740004 0.118600085 0.20740004 0.117200084 0.20740004 0.116800085 L 0.20720004 0.11610009 L 0.20730004 0.11560009 C 0.20780003 0.110600084 0.20580004 0.10460009 0.20240004 0.100600086 C 0.20060004 0.098400086 0.19840005 0.097000085 0.19640005 0.096600085 C 0.19380005 0.09770009 0.19140005 0.10040008 0.18890005 0.103200085 C 0.18460006 0.10810009 0.17960006 0.11360008 0.17160006 0.11270008 C 0.17100006 0.11260008 0.17060006 0.11260008 0.17030005 0.11260008 C 0.16810006 0.11260008 0.16610005 0.11360008 0.16450006 0.11550008 C 0.16220006 0.11820008 0.16130006 0.12220008 0.16190006 0.12600008 L 0.16200006 0.12640008 L 0.16200006 0.12680009 C 0.16180006 0.13000008 0.16470006 0.13430008 0.16680007 0.13740009 C 0.16850007 0.13990009 0.16980007 0.14180009 0.17020006 0.1438001 L 0.17190006 0.1520001 L 0.16460006 0.1478001 C 0.16250005 0.1466001 0.16050006 0.1449001 0.15850006 0.1432001 C 0.15530007 0.1405001 0.15170006 0.13750009 0.14880006 0.13750009 C 0.14810006 0.13750009 0.14710006 0.1376001 0.14560007 0.13890009 L 0.14520006 0.13920009 C 0.14190006 0.1414001 0.13840006 0.1464001 0.13820006 0.1510001 C 0.138 0.1535 0.1388 0.1554 0.1406 0.1568 Z M 0.1089 0.4582 C 0.11220001 0.4583 0.1162 0.4583 0.1197 0.461 C 0.1198 0.461 0.12 0.461 0.1201 0.461 C 0.122999996 0.461 0.1267 0.45749998 0.12799999 0.4534 C 0.12869999 0.45119998 0.12889999 0.44829997 0.12609999 0.4463 C 0.12259999 0.4439 0.11849999 0.4426 0.11459999 0.4429 C 0.11159999 0.4432 0.10689999 0.4456 0.10419999 0.4495 C 0.10259999 0.4518 0.10199999 0.4542 0.10239999 0.4565 C 0.1036 0.458 0.1053 0.4582 0.1089 0.4582 Z M 0.1511 0.5857 L 0.1512 0.5854 C 0.1519 0.5837 0.1528 0.58199996 0.1537 0.5803 C 0.15599999 0.576 0.1583 0.5717 0.1576 0.56769997 C 0.1542 0.5656 0.1497 0.5653 0.1453 0.5649 L 0.1451 0.5649 C 0.1436 0.56549996 0.1424 0.56689996 0.1417 0.569 C 0.1402 0.5738 0.1415 0.58100003 0.1445 0.5844 L 0.145 0.5851 C 0.146 0.587 0.1477 0.58779997 0.1488 0.58779997 C 0.1493 0.5879 0.1504 0.5879 0.1511 0.5857 Z M 0.0998 0.5251 C 0.095699996 0.52599996 0.091699995 0.5293 0.0889 0.53429997 C 0.0853 0.5408 0.0843 0.5487 0.0864 0.55469996 C 0.0868 0.5552 0.087000005 0.55529994 0.087000005 0.55529994 C 0.08800001 0.55529994 0.090500005 0.5529999 0.0921 0.54969996 L 0.092300005 0.54929996 C 0.0957 0.54389995 0.101100005 0.54279995 0.105500005 0.54199994 C 0.11000001 0.54109997 0.11230001 0.5404999 0.11350001 0.5375999 C 0.1133 0.53479993 0.11190001 0.53199995 0.109500006 0.5295999 C 0.1067 0.5268 0.1028 0.525 0.0998 0.5251 Z M 0.3482 0.2758 C 0.3505 0.2758 0.35279998 0.2757 0.3552 0.2756 C 0.36839998 0.2737 0.382 0.27199998 0.3951 0.27049997 C 0.4063 0.26919997 0.4178 0.26779997 0.429 0.26619998 C 0.4292 0.26619998 0.42949998 0.2661 0.4297 0.26559997 C 0.42999998 0.26479995 0.4297 0.26399997 0.4296 0.26379997 L 0.4288 0.26379997 C 0.422 0.26319996 0.41469997 0.26299995 0.40579998 0.26299995 C 0.39949998 0.26299995 0.3931 0.26309994 0.38689998 0.26329994 C 0.3807 0.26339993 0.37429997 0.26359993 0.36799997 0.26359993 C 0.35949996 0.26359993 0.35249996 0.26339993 0.34589997 0.26279992 L 0.34539998 0.26279992 L 0.34489998 0.26259992 C 0.3378 0.2599999 0.3295 0.2513999 0.32889998 0.24319991 C 0.32849997 0.23809992 0.33099997 0.23369992 0.33599997 0.23089992 L 0.33689997 0.23039992 L 0.33869997 0.23039992 C 0.34449998 0.23039992 0.34669995 0.22929992 0.34739998 0.22839992 C 0.34759998 0.22819991 0.34809998 0.22759992 0.3478 0.22579992 C 0.3439 0.21519992 0.334 0.20719992 0.3247 0.20719992 C 0.3243 0.20719992 0.32389998 0.20719992 0.3235 0.20719992 C 0.3151 0.20779991 0.307 0.21439992 0.3023 0.22459991 C 0.2981 0.23379992 0.2964 0.24719991 0.3042 0.25739992 C 0.3131 0.2696 0.3279 0.2758 0.3482 0.2758 Z M 0.4754 0.1499 C 0.4745 0.15100001 0.4741 0.1527 0.4747 0.15380001 C 0.4761 0.15640001 0.4835 0.1562 0.4827 0.1536 C 0.4817 0.1499 0.4773 0.1477 0.4754 0.1499 Z M 0.4871 0.1585 C 0.4882 0.1619 0.4927 0.1607 0.4933 0.1569 C 0.4937 0.1549 0.49289998 0.1539 0.491 0.1539 C 0.4872 0.1539 0.486 0.1554 0.4871 0.1585 Z M 0.4621 0.1479 C 0.4621 0.1493 0.4634 0.1505 0.4651 0.1505 C 0.4668 0.1505 0.46809998 0.1493 0.46809998 0.1479 C 0.46809998 0.1465 0.46679997 0.1453 0.4651 0.1453 C 0.4634 0.1453 0.4621 0.1464 0.4621 0.1479 Z M 0.2803 0.3235 C 0.2783 0.31820002 0.2766 0.3136 0.27859998 0.3095 L 0.27879998 0.30900002 L 0.27889997 0.30850002 C 0.28099996 0.29760003 0.28939998 0.2858 0.29949996 0.2858 C 0.30109996 0.2858 0.30269995 0.2861 0.30429995 0.2867 L 0.30479994 0.2869 L 0.30529994 0.2869 C 0.30709994 0.28710002 0.30889994 0.28860003 0.30979994 0.29070002 C 0.31029993 0.29180002 0.31079993 0.2939 0.30919993 0.29590002 C 0.30489993 0.3 0.30319992 0.3057 0.30439994 0.312 C 0.30579993 0.3197 0.31129995 0.3269 0.31779993 0.32950002 C 0.33789992 0.33830002 0.35569993 0.34010002 0.37049994 0.335 C 0.38899994 0.3316 0.40549994 0.3278 0.42089993 0.3233 L 0.42969993 0.3207 L 0.42159992 0.3164 C 0.41959992 0.3154 0.41699994 0.31489998 0.41319993 0.31489998 C 0.40989992 0.31489998 0.40629992 0.3153 0.40359992 0.31559998 L 0.4024999 0.31569996 L 0.4018999 0.31599995 C 0.3962999 0.31869996 0.3896999 0.31699994 0.3851999 0.31179994 C 0.3825999 0.30409995 0.3855999 0.29439995 0.3880999 0.28649995 L 0.3881999 0.28609994 C 0.3888999 0.28409994 0.3895999 0.28409994 0.3903999 0.28409994 C 0.3919999 0.28409994 0.3941999 0.28489995 0.3960999 0.28559995 C 0.3966999 0.28579995 0.3972999 0.28599995 0.3977999 0.28619996 L 0.39909992 0.28659996 L 0.40039992 0.28609997 C 0.4103999 0.28209996 0.42119992 0.28209996 0.43259993 0.28199998 C 0.43939993 0.28199998 0.44649994 0.2819 0.45339993 0.281 L 0.45559993 0.2807 L 0.45639995 0.2786 C 0.45889995 0.272 0.45929995 0.2644 0.45969996 0.257 C 0.45989996 0.2536 0.45999995 0.2503 0.46039996 0.2472 C 0.46179995 0.24249999 0.46089995 0.2374 0.45809996 0.2334 C 0.45549995 0.2298 0.45179996 0.2278 0.44769996 0.2277 L 0.44709995 0.2277 L 0.44659996 0.2279 C 0.44089997 0.2295 0.43529996 0.23189999 0.42989996 0.2342 C 0.42089996 0.238 0.41249996 0.2416 0.40339997 0.2421 C 0.40249997 0.2418 0.4015 0.2416 0.4006 0.2416 C 0.3962 0.2416 0.3938 0.24520001 0.392 0.24790001 C 0.3913 0.24890001 0.39069998 0.24980001 0.3901 0.25050002 L 0.3899 0.2508 C 0.3893 0.25160003 0.3888 0.25190002 0.3886 0.25190002 C 0.3875 0.25190002 0.3845 0.24880002 0.3821 0.24330002 L 0.38169998 0.24260002 C 0.37929997 0.23930003 0.3787 0.23490003 0.378 0.23030002 C 0.3771 0.22450003 0.3762 0.21860002 0.3719 0.21370003 C 0.3712 0.21270002 0.3703 0.21160002 0.3694 0.21050003 C 0.3645 0.20430003 0.3612 0.19960003 0.3644 0.19540003 C 0.3731 0.18610004 0.3838 0.18050003 0.3951 0.17460003 C 0.3989 0.17260003 0.4029 0.17050004 0.4067 0.16830003 C 0.4118 0.16590004 0.41599998 0.16220003 0.42 0.15860003 C 0.4249 0.15420003 0.42949998 0.15010004 0.43499997 0.14900003 L 0.43519998 0.14900003 C 0.44519997 0.15130003 0.45529997 0.15500003 0.46499997 0.15860003 C 0.47319996 0.16160004 0.48169997 0.16480003 0.49029997 0.16710003 C 0.49179998 0.16810003 0.49339998 0.16870002 0.49499997 0.16870002 C 0.49799997 0.16870002 0.5003 0.16690002 0.50219995 0.16520002 C 0.502 0.16520002 0.50179994 0.16520002 0.50159997 0.16510002 C 0.49909997 0.16410002 0.50399995 0.15840003 0.50659996 0.16200003 C 0.50679994 0.16230004 0.50679994 0.16250002 0.5067 0.16280003 C 0.50949997 0.16600002 0.5132 0.16660003 0.516 0.16700003 C 0.51739997 0.16720003 0.51869994 0.16740003 0.5197 0.16780002 C 0.5222 0.17190002 0.52599996 0.17190002 0.5273 0.17190002 C 0.5273 0.17190002 0.5273 0.17190002 0.5273 0.17190002 C 0.5279 0.17190002 0.5285 0.17190002 0.5291 0.17180002 C 0.5296 0.17180002 0.5301 0.17170002 0.5307 0.17170002 C 0.5331 0.17340001 0.5346 0.17750001 0.5343 0.18210001 C 0.53400004 0.18710001 0.53180003 0.19130002 0.5289 0.19240001 L 0.53120005 0.19950001 C 0.53660005 0.19800001 0.5411 0.1938 0.54550004 0.1897 C 0.54890007 0.18660001 0.55240005 0.1833 0.55590004 0.1817 C 0.55700004 0.18190001 0.55750006 0.1824 0.5579 0.18300001 C 0.5599 0.18570001 0.5599 0.19280002 0.5579 0.20050001 L 0.5578 0.2011 C 0.557 0.2115 0.5506 0.2203 0.5383 0.2281 L 0.538 0.2283 C 0.53569996 0.2301 0.5304 0.23470001 0.5316 0.23840001 C 0.5323 0.24040002 0.53429997 0.2415 0.5366 0.24100001 L 0.537 0.24090001 C 0.5391 0.24020001 0.5411 0.23900001 0.5433 0.23760001 C 0.5456 0.23620002 0.5485 0.23440002 0.5502 0.23440002 C 0.5505 0.23440002 0.551 0.23440002 0.5516 0.23520002 C 0.55189997 0.23890002 0.5505 0.24280001 0.54899997 0.24700002 C 0.54679996 0.25310004 0.54429996 0.25990003 0.54719996 0.26710004 C 0.55009997 0.27520004 0.55689996 0.27540004 0.56139994 0.27560005 C 0.56189996 0.27560005 0.5623999 0.27560005 0.56279993 0.27570003 C 0.5634999 0.27620003 0.5634999 0.27670002 0.56359994 0.27690002 C 0.5637999 0.27930003 0.56029993 0.28410003 0.55689996 0.2869 L 0.55649996 0.28730002 C 0.5523 0.2921 0.54649997 0.2948 0.5405 0.2948 C 0.5345 0.2948 0.5291 0.2921 0.5252 0.2872 L 0.5249 0.2868 L 0.5245 0.2865 C 0.5237 0.286 0.5224 0.2839 0.5216 0.28260002 C 0.5197 0.27960002 0.5182 0.27730003 0.5155 0.277 L 0.5111 0.2766 L 0.51129997 0.28100002 C 0.51189995 0.29240003 0.52119994 0.3014 0.53679997 0.3057 C 0.5398 0.30650002 0.5401 0.3093 0.53959996 0.3172 C 0.53929996 0.3211 0.53909993 0.3252 0.5401 0.32860002 C 0.5415 0.3352 0.5458 0.3366 0.5491 0.3366 C 0.5505 0.3366 0.55179995 0.3364 0.5531 0.3362 C 0.5541 0.336 0.55509996 0.3359 0.5559 0.3359 C 0.5566 0.3359 0.55679995 0.3359 0.5571 0.33650002 C 0.5573 0.34340003 0.552 0.3499 0.5467 0.35400003 C 0.5435 0.35490003 0.5403 0.35530004 0.5372 0.35530004 C 0.5318 0.35530004 0.52419996 0.35380003 0.51879996 0.34690005 L 0.51839995 0.34640005 L 0.51789993 0.34600005 C 0.51619995 0.34490004 0.5152999 0.34260005 0.5142999 0.34000003 C 0.51289994 0.33640003 0.51119995 0.33200005 0.5065999 0.32980004 L 0.5017999 0.32750005 L 0.50129986 0.33280003 C 0.49999985 0.34600002 0.50889987 0.35510004 0.5168999 0.36320004 C 0.51889986 0.36520004 0.5207999 0.36720005 0.52249986 0.36910003 C 0.52459985 0.37380004 0.52129984 0.37870005 0.5164999 0.38520002 C 0.5153999 0.38670003 0.51429987 0.38810003 0.5133999 0.38950002 C 0.5118999 0.39170003 0.5098999 0.39400002 0.5076999 0.39640003 C 0.5017999 0.40280002 0.49449992 0.41070002 0.4972999 0.42220002 C 0.4982999 0.42570004 0.5008999 0.4286 0.5030999 0.4311 C 0.50679994 0.4352 0.50789994 0.43690002 0.5069999 0.439 C 0.5023999 0.44120002 0.4956999 0.4392 0.4876999 0.4336 C 0.4810999 0.4289 0.4775999 0.42020002 0.4741999 0.4119 C 0.4727999 0.4084 0.4712999 0.40480003 0.4695999 0.4014 L 0.4671999 0.3967 L 0.4634999 0.40039998 C 0.4543999 0.40969998 0.4410999 0.41439998 0.4239999 0.41439998 C 0.4232999 0.41439998 0.4225999 0.41439998 0.4219999 0.41439998 C 0.4211999 0.4143 0.4203999 0.4143 0.4194999 0.4143 L 0.4158999 0.4143 C 0.4085999 0.4143 0.4067999 0.413 0.4064999 0.41009998 L 0.4069999 0.40829998 C 0.4102999 0.3956 0.4139999 0.3812 0.40819988 0.36709997 C 0.40769988 0.36599997 0.4071999 0.36459997 0.40659988 0.36319998 C 0.40419987 0.35709998 0.4012999 0.34949997 0.3940999 0.3487 L 0.39189988 0.34849998 L 0.39059988 0.35029998 C 0.38819987 0.35369998 0.3868999 0.3577 0.38569987 0.36159998 C 0.38459986 0.36519998 0.38349986 0.36859998 0.38169986 0.37109998 L 0.38129985 0.3719 C 0.37779984 0.3803 0.37109986 0.38599998 0.36289984 0.3876 C 0.36039984 0.388 0.35779983 0.389 0.35529983 0.3898 C 0.35119984 0.39130002 0.34689984 0.39270002 0.34399983 0.3916 C 0.34239984 0.3858 0.34529984 0.3788 0.34779984 0.37260002 C 0.34839985 0.3713 0.34889984 0.36990002 0.34939983 0.36870003 C 0.35249984 0.36370003 0.35349983 0.36 0.35229984 0.35780004 C 0.35159984 0.35650003 0.35019985 0.35570005 0.34869984 0.35570005 C 0.34719983 0.35570005 0.34589985 0.35650006 0.34489983 0.35720006 L 0.34469983 0.35740006 C 0.33239985 0.36800006 0.33139983 0.38740006 0.33049983 0.40300006 L 0.33029982 0.40730006 L 0.33459982 0.40690005 C 0.36079982 0.40460005 0.37879983 0.39620006 0.38979983 0.38120005 C 0.39269984 0.37740004 0.39659983 0.37430003 0.39859983 0.37430003 C 0.39879984 0.37430003 0.39919984 0.37430003 0.39979982 0.37540004 C 0.40119982 0.38370004 0.39849982 0.39170003 0.3955998 0.40020004 C 0.39279982 0.40850005 0.38989982 0.41710004 0.39079982 0.42640004 L 0.39119983 0.43060005 L 0.39529982 0.42970005 C 0.40429983 0.42770004 0.41439983 0.42720005 0.42409983 0.42680004 C 0.43049982 0.42650005 0.43709984 0.42620003 0.44339985 0.42550004 C 0.44739985 0.42600003 0.45129985 0.42440003 0.45459986 0.42290002 C 0.45779985 0.42150003 0.46049985 0.4203 0.46269986 0.42130002 C 0.46449986 0.42370003 0.46589985 0.42650002 0.46749985 0.4295 C 0.47069985 0.4357 0.47429985 0.44280002 0.48179984 0.446 L 0.48209983 0.4461 C 0.48409984 0.4468 0.48589984 0.4487 0.48669982 0.451 C 0.48709983 0.4523 0.48759982 0.4549 0.4858998 0.4576 C 0.4795998 0.4677 0.4790998 0.4828 0.4889998 0.4899 C 0.4898998 0.4912 0.4910998 0.4925 0.4923998 0.4937 C 0.4951998 0.4966 0.4960998 0.4978 0.49619982 0.4985 C 0.49389982 0.49879998 0.4914998 0.49899998 0.4889998 0.4992 C 0.48379982 0.49839997 0.4786998 0.4983 0.4741998 0.4983 C 0.4717998 0.4983 0.4693998 0.4983 0.46709982 0.49839997 C 0.46519983 0.49839997 0.46339983 0.49849996 0.4614998 0.49849996 C 0.45739982 0.49819997 0.45309982 0.49789995 0.4488998 0.49779996 L 0.4486998 0.49779996 L 0.4484998 0.49779996 C 0.4480998 0.49779996 0.4476998 0.49779996 0.4471998 0.49779996 C 0.4451998 0.49749997 0.4433998 0.49709997 0.4414998 0.49669996 C 0.4350998 0.49419996 0.4297998 0.48809996 0.4244998 0.48219997 C 0.4231998 0.48069996 0.4218998 0.47929996 0.42059982 0.47789997 L 0.4179998 0.47509998 L 0.41519982 0.4777 C 0.41429982 0.4785 0.41329983 0.4795 0.4122998 0.4804 C 0.4080998 0.4844 0.4032998 0.489 0.39869982 0.4921 L 0.39839983 0.4924 C 0.39049983 0.4991 0.38119984 0.5025 0.37129983 0.5063 C 0.35759982 0.5114 0.34349984 0.51669997 0.33369982 0.53069997 L 0.33329982 0.53139997 C 0.33259982 0.533 0.3310998 0.5344 0.3301998 0.5348 C 0.33009982 0.5346 0.33009982 0.5344 0.33009982 0.5342 C 0.32919982 0.5259 0.3312998 0.5179 0.33349982 0.5095 C 0.3357998 0.5007 0.33819982 0.49170002 0.3371998 0.48200002 C 0.3364998 0.47070003 0.3383998 0.45890003 0.3428998 0.4469 L 0.3449998 0.44140002 L 0.3390998 0.4419 C 0.3176998 0.44360003 0.2981998 0.46100003 0.2927998 0.48340002 L 0.2926998 0.48400003 C 0.2924998 0.48620003 0.2909998 0.48740003 0.2902998 0.48740003 C 0.2897998 0.48740003 0.28929982 0.48650002 0.2891998 0.48620003 C 0.2794998 0.46590003 0.2774998 0.43570003 0.2922998 0.41740003 C 0.29309982 0.41660002 0.2953998 0.41400003 0.2941998 0.41100004 C 0.2929998 0.40810004 0.2897998 0.40780005 0.2877998 0.40770003 C 0.28749982 0.40770003 0.2870998 0.40770003 0.28679982 0.40760005 C 0.2789998 0.40440005 0.2714998 0.40280005 0.26439983 0.40280005 C 0.25419983 0.40280005 0.24539983 0.40620005 0.23849982 0.41290006 L 0.23789982 0.41360006 C 0.23619983 0.41630006 0.23369983 0.41840005 0.23209983 0.41840005 C 0.23189983 0.41840005 0.23139983 0.41840005 0.23079982 0.41770005 C 0.22689982 0.40790007 0.22979982 0.39560005 0.23239982 0.38480005 C 0.23279983 0.38310003 0.23319982 0.38150004 0.23349983 0.38010004 C 0.23999983 0.35560003 0.26239982 0.34450004 0.27959982 0.34230006 L 0.28249982 0.34190005 L 0.28289983 0.33900005 C 0.2839 0.333 0.2821 0.3282 0.2803 0.3235 Z M 0.4665 0.1754 L 0.4686 0.1682 C 0.467 0.1676 0.4654 0.167 0.4638 0.1664 C 0.4573 0.1639 0.4505 0.1613 0.44370002 0.1597 L 0.44300002 0.1595 L 0.4422 0.1596 C 0.4389 0.1601 0.4341 0.16440001 0.43240002 0.1675 C 0.43120003 0.1698 0.43150002 0.1715 0.432 0.1726 L 0.4327 0.1742 L 0.43440002 0.17469999 C 0.43620002 0.17519999 0.43790004 0.1769 0.43980002 0.1786 C 0.44200003 0.1807 0.44420004 0.1828 0.44720003 0.1838 L 0.44870004 0.18429999 L 0.45010003 0.18349999 C 0.45200002 0.18239999 0.45380002 0.1811 0.45550004 0.17989999 C 0.4592 0.1772 0.4627 0.1747 0.4665 0.1754 Z M 0.4271 0.0763 C 0.4271 0.0759 0.4272 0.075500004 0.4278 0.075100005 C 0.4301 0.07530001 0.4325 0.07750001 0.4351 0.0798 C 0.4367 0.081300005 0.4384 0.0828 0.4403 0.084 C 0.4425 0.0862 0.4452 0.088199995 0.4479 0.0901 C 0.4551 0.095199995 0.4594 0.0987 0.4588 0.1051 C 0.4563 0.1108 0.4556 0.119399995 0.4588 0.1255 C 0.4606 0.12889999 0.4635 0.1311 0.4671 0.1317 C 0.4737 0.13389999 0.48119998 0.13139999 0.4861 0.1257 C 0.48999998 0.12109999 0.4917 0.114999995 0.4908 0.109 C 0.49019998 0.098699994 0.4995 0.095 0.5102 0.0918 C 0.51100004 0.0915 0.51170003 0.0914 0.51240003 0.0914 C 0.51780003 0.0914 0.522 0.1004 0.52510005 0.1069 C 0.52550006 0.1078 0.52590007 0.1087 0.5264 0.1095 L 0.5266 0.11 L 0.527 0.1104 C 0.5294 0.1129 0.5289 0.114199996 0.52570003 0.1189 C 0.5235 0.1222 0.52070004 0.1262 0.521 0.1314 C 0.5199 0.1381 0.5217 0.14500001 0.52580005 0.15 C 0.5296 0.15450001 0.53470004 0.1567 0.5403001 0.156 L 0.5411001 0.1558 C 0.5498001 0.1528 0.5555001 0.1429 0.5566001 0.1291 C 0.5583001 0.12889999 0.5600001 0.12869999 0.5617001 0.1286 C 0.5704001 0.1277 0.5793001 0.1268 0.5882001 0.124400005 L 0.5887001 0.1243 L 0.5891001 0.1241 C 0.5900001 0.1236 0.5909001 0.1233 0.59170014 0.1233 C 0.59390014 0.1233 0.59530014 0.1252 0.59580016 0.127 C 0.59610015 0.12820001 0.59640014 0.1312 0.5927002 0.1331 L 0.5921002 0.13340001 L 0.5916002 0.1339 C 0.59040016 0.1353 0.5891002 0.1359 0.58720016 0.1359 C 0.58570015 0.1359 0.5840002 0.1355 0.58220017 0.13520001 C 0.57920015 0.13460001 0.57570016 0.134 0.57280016 0.13460001 L 0.5718002 0.13480002 L 0.5711002 0.13550001 C 0.56600016 0.14000002 0.5633002 0.14630002 0.56060016 0.15250002 C 0.55800015 0.15850002 0.55560017 0.16410002 0.5514002 0.16740002 C 0.5461002 0.16670002 0.5408002 0.16430002 0.5353002 0.16190001 C 0.5310002 0.16000001 0.5265002 0.158 0.5219002 0.15680002 C 0.51060015 0.15180002 0.4988002 0.14800002 0.4875002 0.14440002 C 0.4725002 0.13960001 0.45690018 0.13460001 0.4428002 0.12670001 C 0.4370002 0.12340002 0.4391002 0.11520001 0.4421002 0.105700016 L 0.4427002 0.103900015 C 0.4457002 0.09610002 0.43990022 0.09180002 0.4364002 0.08920001 C 0.4353002 0.088400014 0.4343002 0.087600015 0.43360022 0.08690001 L 0.4332002 0.08650001 C 0.43 0.0843 0.4268 0.0791 0.4271 0.0763 Z M 0.5013 0.1126 C 0.50119996 0.1162 0.50229996 0.1181 0.50329995 0.1192 C 0.50439996 0.120299995 0.50579995 0.1209 0.50729996 0.1209 C 0.50969994 0.1209 0.51199996 0.119399995 0.51359993 0.1166 C 0.51649994 0.1146 0.51789993 0.111 0.51719993 0.1073 C 0.5163999 0.1033 0.51329994 0.1004 0.5095999 0.1002 L 0.5088999 0.1002 L 0.50819993 0.1004 C 0.5035 0.1019 0.501 0.1066 0.5013 0.1126 Z M 0.4494 0.1453 C 0.4508 0.1478 0.45380002 0.1464 0.45430002 0.1429 C 0.4546 0.1412 0.45380002 0.14 0.45250002 0.14 C 0.4497 0.14 0.448 0.1429 0.4494 0.1453 Z M 0.4388 0.1366 C 0.4365 0.1366 0.43580002 0.1386 0.4375 0.1406 C 0.4387 0.14199999 0.4411 0.14039999 0.4411 0.1382 C 0.4411 0.1373 0.44 0.1366 0.4388 0.1366 Z"/>
<path id="ls" d="M 0.4375 0.1406 C 0.4358 0.13859999 0.4365 0.1366 0.4388 0.1366 C 0.44 0.1366 0.4411 0.1373 0.4411 0.1382 C 0.4411 0.1404 0.4387 0.142 0.4375 0.1406 Z M 0.6669 0.6607 C 0.6705 0.6654 0.6719 0.67190003 0.6705 0.6779 C 0.6694 0.6862 0.6631 0.6878 0.65889996 0.68880004 C 0.65749997 0.6891 0.6562 0.68950003 0.65519994 0.69000006 C 0.64989996 0.69670004 0.6460999 0.70550007 0.64339995 0.7139 C 0.64479995 0.7134 0.64629996 0.71300006 0.64779997 0.71300006 C 0.64949995 0.71300006 0.6551 0.71360004 0.65629995 0.7214001 L 0.65639997 0.72200006 L 0.65629995 0.72260004 C 0.65349996 0.7383 0.6510999 0.75360006 0.65389997 0.7684001 C 0.6601 0.79100007 0.6626 0.81070006 0.6616 0.8288001 L 0.6615 0.8293001 C 0.6612 0.83090013 0.66099995 0.8333001 0.6608 0.8357001 C 0.6602 0.8431001 0.6597 0.8490001 0.6548 0.8490001 C 0.6513 0.8490001 0.6494 0.8453001 0.64779997 0.8414001 C 0.6468 0.8393001 0.64559996 0.83730006 0.64439994 0.8353001 C 0.64549994 0.83980006 0.64579993 0.84630007 0.64289993 0.85060006 C 0.6409999 0.85340005 0.63799995 0.8547001 0.63429993 0.85420007 L 0.63359994 0.8540001 C 0.63329995 0.8539001 0.63299996 0.8538001 0.63269997 0.8536001 C 0.64159995 0.8643001 0.6504 0.8755001 0.65489995 0.8900001 C 0.6565 0.8941001 0.6579 0.9021001 0.65479994 0.90670013 C 0.65299994 0.9094001 0.64979994 0.9106001 0.64619994 0.90970016 L 0.64509994 0.90940017 L 0.6442999 0.90860015 C 0.6405999 0.90460014 0.63579994 0.90390015 0.6301999 0.90310013 C 0.6266999 0.9026001 0.6231999 0.9020001 0.61959994 0.90070015 C 0.61609995 0.8994002 0.61359996 0.89720017 0.6118999 0.89460015 C 0.61129993 0.8962002 0.6103999 0.8976002 0.6092999 0.89880013 C 0.6068999 0.9015001 0.6037999 0.9030001 0.60049987 0.90290016 C 0.60139984 0.90380013 0.6020999 0.9048002 0.6026999 0.90600014 L 0.60299987 0.90680015 C 0.6059999 0.91790015 0.59649986 0.9271002 0.5904999 0.93160015 L 0.5901999 0.9318001 C 0.58859986 0.9328001 0.5868999 0.93330014 0.5852999 0.93330014 C 0.5831999 0.93330014 0.5811999 0.93240017 0.5795999 0.93080014 C 0.57609993 0.92720014 0.5749999 0.92090017 0.5748999 0.91720015 C 0.57399994 0.91440016 0.5738999 0.91150016 0.5745999 0.9088001 C 0.5711999 0.9106001 0.5675999 0.9120001 0.56359994 0.9120001 L 0.56319994 0.9120001 L 0.56279993 0.9119001 C 0.5590999 0.9111001 0.5572999 0.9090001 0.55639994 0.9073001 C 0.55579996 0.9062001 0.5555 0.9050001 0.55529994 0.9037001 C 0.5522999 0.90740013 0.5490999 0.91100013 0.5454999 0.9141001 L 0.54489994 0.91460013 L 0.5440999 0.9148001 C 0.54319996 0.9151001 0.5421999 0.9152001 0.54129994 0.9152001 C 0.53779995 0.9152001 0.53499997 0.9134001 0.5325999 0.91100013 C 0.5325999 0.9117001 0.5325999 0.9124001 0.5324999 0.9130001 L 0.5323999 0.9138001 L 0.5319999 0.9145001 C 0.5302999 0.9173001 0.52899987 0.9206001 0.5274999 0.92400014 C 0.5253999 0.92900014 0.52329993 0.93410015 0.5197999 0.93830013 L 0.5187999 0.93950015 L 0.5171999 0.93960017 C 0.5168999 0.93960017 0.51669985 0.93960017 0.51639986 0.93960017 C 0.51319987 0.93960017 0.5099999 0.93810016 0.50729984 0.9354002 C 0.50329983 0.93130016 0.50059986 0.9248002 0.50049984 0.9190002 C 0.49949986 0.91340023 0.50059986 0.9078002 0.50369984 0.9033002 C 0.50419986 0.9026002 0.50479984 0.90190023 0.5053998 0.90120023 C 0.50269985 0.9011002 0.5001998 0.90030026 0.49819982 0.89870024 C 0.4941998 0.8953002 0.49249983 0.89080024 0.4923998 0.88620025 C 0.48959982 0.88810027 0.48649982 0.88940024 0.48329982 0.88940024 S 0.47719982 0.88810027 0.47469983 0.88560027 L 0.47419983 0.88510025 L 0.47389984 0.88440025 C 0.47279984 0.88180023 0.47209984 0.87910026 0.47169983 0.8763003 C 0.46789983 0.88020027 0.46299982 0.88380027 0.45769984 0.88380027 C 0.45769984 0.88380027 0.45769984 0.88380027 0.45769984 0.88380027 C 0.45559984 0.88380027 0.45369983 0.88330024 0.45189983 0.88220024 L 0.45119983 0.88180023 L 0.45069984 0.88110024 C 0.44759983 0.8763002 0.44709983 0.87030023 0.44939983 0.86400026 C 0.45189983 0.85700023 0.45729983 0.85130024 0.46309984 0.8494003 L 0.46359983 0.84930027 C 0.46669984 0.8487003 0.46959984 0.84950024 0.47179982 0.8515003 C 0.4718998 0.84930027 0.47179982 0.84710026 0.47169983 0.84500027 C 0.47149983 0.84350026 0.47189984 0.84210026 0.47279984 0.84100026 C 0.47429985 0.83920026 0.47669983 0.8390003 0.47789985 0.83890027 C 0.47739986 0.8375003 0.47719985 0.83590025 0.47739986 0.8344003 C 0.47759986 0.8315003 0.47879985 0.8290003 0.48069987 0.8272003 C 0.47619987 0.8260003 0.47209987 0.8233003 0.46939987 0.8208003 L 0.46909988 0.8204003 C 0.46619987 0.8169003 0.46569988 0.8126003 0.46749988 0.8087003 C 0.4700999 0.8033003 0.47729987 0.7993003 0.4829999 0.8001003 C 0.4837999 0.8000003 0.4846999 0.8001003 0.4854999 0.8001003 C 0.49029988 0.79950035 0.49549988 0.8021003 0.49819988 0.8065003 C 0.4987999 0.8074003 0.49919987 0.80840033 0.4994999 0.8094003 C 0.50099987 0.80810034 0.50279987 0.8071003 0.5049999 0.8065003 L 0.5056999 0.80630034 L 0.50639987 0.80640036 C 0.5262999 0.80840033 0.5383999 0.83210033 0.53679985 0.8521004 C 0.53649986 0.8544004 0.53719985 0.85520035 0.5373998 0.8555004 C 0.5383998 0.8567004 0.5409998 0.8574004 0.54439986 0.8574004 C 0.54479986 0.8574004 0.54509985 0.8574004 0.54549986 0.8574004 L 0.54609984 0.8574004 L 0.5466998 0.8576004 C 0.5516998 0.8590004 0.5547998 0.8537004 0.55539984 0.8487004 C 0.5555998 0.8407004 0.55799985 0.8332004 0.56039983 0.8260004 C 0.5631998 0.8175004 0.56579983 0.8094004 0.5646998 0.8010004 C 0.56219983 0.7973004 0.5581998 0.79500043 0.5538998 0.7926004 C 0.55039984 0.7907004 0.5468998 0.7887004 0.5437998 0.7858004 C 0.53349984 0.7791004 0.5263998 0.7682004 0.5235998 0.7549004 C 0.5217998 0.7508004 0.5213998 0.7464004 0.52089983 0.7422004 C 0.5204998 0.7384004 0.5200998 0.7347004 0.5186998 0.73170036 C 0.5174998 0.7315004 0.51629984 0.7314004 0.5150998 0.7314004 C 0.5110998 0.7314004 0.50729984 0.73240036 0.50439984 0.7343004 C 0.50229985 0.7402004 0.50579983 0.74720037 0.5088998 0.7534004 L 0.5101998 0.75610036 L 0.5101998 0.75680035 C 0.5104998 0.76110035 0.5088998 0.7638004 0.5073998 0.76530033 C 0.5051998 0.76760036 0.5019998 0.76890033 0.4982998 0.76890033 C 0.49439982 0.76890033 0.4905998 0.76750034 0.4878998 0.76530033 L 0.48759982 0.76500034 C 0.48709983 0.76440036 0.4867998 0.76430035 0.4867998 0.76430035 C 0.4862998 0.76440036 0.48469982 0.76600033 0.48379982 0.76690036 C 0.48239982 0.76820034 0.48099983 0.76960033 0.4792998 0.7706004 C 0.4772998 0.7720004 0.4752998 0.77270037 0.4731998 0.77270037 C 0.4659998 0.77270037 0.4616998 0.7646004 0.4599998 0.7577004 C 0.4578998 0.75790036 0.4557998 0.7581004 0.4535998 0.7581004 C 0.44879982 0.7581004 0.4449998 0.7570004 0.4416998 0.75470036 C 0.4379998 0.75240034 0.4360998 0.74860036 0.4362998 0.74420035 C 0.4364998 0.73960036 0.4390998 0.73480034 0.4427998 0.73190033 C 0.4425998 0.72920036 0.4423998 0.72650033 0.4420998 0.72380036 C 0.4398998 0.69690037 0.4376998 0.66940033 0.4400998 0.64220035 C 0.4384998 0.64320034 0.4369998 0.6434004 0.4357998 0.6434004 C 0.4340998 0.6434004 0.4324998 0.64290035 0.43119982 0.64190036 C 0.43139982 0.6424004 0.43159983 0.64280033 0.43179983 0.64330035 C 0.43369982 0.6471003 0.43659982 0.65590036 0.43339983 0.66160035 C 0.43189982 0.66420037 0.42929983 0.66580033 0.42599982 0.66600037 L 0.42549983 0.66600037 L 0.42499983 0.66590035 C 0.41799983 0.6643003 0.41119984 0.66300035 0.40449983 0.66300035 C 0.40389982 0.66300035 0.40329984 0.66300035 0.40269983 0.66300035 C 0.40409982 0.66440034 0.40509984 0.66630036 0.40549982 0.66880035 L 0.4055998 0.6693004 L 0.4055998 0.6698004 C 0.4040998 0.6884004 0.3967998 0.70590043 0.3903998 0.7214004 C 0.38849983 0.7271004 0.38509983 0.7314004 0.38179982 0.7355004 C 0.3800998 0.7376004 0.3784998 0.7396004 0.37719983 0.7416004 C 0.37849984 0.7442004 0.38009983 0.7467004 0.38169983 0.7494004 C 0.38689983 0.7580004 0.39289984 0.7678004 0.39189982 0.7799004 L 0.39179984 0.78060037 C 0.38779983 0.79490036 0.38669983 0.8102004 0.38559985 0.82500035 L 0.38549986 0.82550037 C 0.38499987 0.82790035 0.38479987 0.8306004 0.38449988 0.8335004 C 0.38369986 0.8418004 0.38279986 0.85130036 0.37599987 0.8568004 L 0.37509987 0.8575004 L 0.37399986 0.8576004 C 0.37389988 0.8576004 0.37379986 0.8576004 0.37369987 0.8576004 C 0.37769988 0.86390036 0.38049987 0.87110037 0.38019988 0.87970036 C 0.3805999 0.8830004 0.37959987 0.88640034 0.37749988 0.8888004 C 0.37579986 0.8907004 0.37369987 0.8918004 0.37149987 0.8918004 C 0.36909986 0.8918004 0.36679986 0.8905004 0.36509988 0.8883004 C 0.35829988 0.87800044 0.34849986 0.87260044 0.33819988 0.86690044 C 0.33669987 0.86610043 0.33509988 0.86520046 0.3335999 0.86430043 C 0.3351999 0.86770046 0.3358999 0.87150043 0.3342999 0.87560046 L 0.3339999 0.8764005 L 0.3332999 0.87700045 C 0.3308999 0.87910044 0.3281999 0.88020045 0.32509992 0.88020045 C 0.3205999 0.88020045 0.31619993 0.8779004 0.31239992 0.87580043 C 0.31019992 0.8746004 0.3081999 0.8735004 0.30649993 0.87300044 C 0.30499992 0.87280047 0.30329993 0.87330043 0.30129993 0.8739004 C 0.29919994 0.8745004 0.29679993 0.8752004 0.29429993 0.8752004 C 0.29269993 0.8795004 0.28959993 0.88150036 0.28639993 0.8827004 C 0.28759992 0.8837004 0.28859994 0.8849004 0.28939992 0.8864004 C 0.29259992 0.8924004 0.29119992 0.9007004 0.28839993 0.9058004 C 0.28709993 0.9098004 0.28259993 0.91890043 0.27579993 0.91890043 C 0.27579993 0.91890043 0.27579993 0.91890043 0.27579993 0.91890043 C 0.27409992 0.91890043 0.27149993 0.91830045 0.26919994 0.9153004 L 0.26869994 0.9145004 C 0.26639995 0.90920043 0.26499996 0.9019004 0.26569995 0.8954004 C 0.26309994 0.8971004 0.25999996 0.8980004 0.25679997 0.8980004 C 0.25229996 0.8980004 0.24799997 0.89630044 0.24469997 0.89310044 L 0.24449997 0.89280045 C 0.24349996 0.89170045 0.24279997 0.89110047 0.24239996 0.89090043 C 0.24219996 0.8912004 0.24199995 0.89160043 0.24179997 0.8922004 L 0.24159996 0.8928004 L 0.24119996 0.8933004 C 0.23969996 0.8951004 0.23829995 0.8972004 0.23669995 0.8994004 C 0.23139995 0.90710044 0.22539996 0.9158004 0.21549995 0.9160004 L 0.21529995 0.9160004 C 0.21539995 0.9167004 0.21539995 0.9173004 0.21539995 0.9180004 C 0.21599995 0.9221004 0.21469995 0.9266004 0.21189995 0.9300004 C 0.20959996 0.9327004 0.20679995 0.9342004 0.20389995 0.9342004 C 0.20219995 0.9342004 0.19909994 0.9336004 0.19649994 0.9299004 C 0.19149995 0.9251004 0.18899995 0.91570044 0.19069995 0.9088004 C 0.19139995 0.9059004 0.19279996 0.9036004 0.19479994 0.9020004 C 0.19479994 0.9020004 0.19469994 0.9020004 0.19469994 0.9019004 L 0.19389994 0.9016004 L 0.19329995 0.90100044 C 0.19129995 0.89890045 0.19019996 0.8966004 0.19029994 0.8941004 C 0.19029994 0.8936004 0.19039994 0.89320046 0.19039994 0.89270043 C 0.18969995 0.89270043 0.18889995 0.8926004 0.18819994 0.89240044 C 0.18569994 0.89200044 0.18389994 0.89090043 0.18249993 0.8894004 C 0.18229993 0.88990045 0.18209992 0.8905004 0.18179993 0.89100045 L 0.18159993 0.89130044 C 0.17879993 0.8959004 0.17209993 0.90260047 0.16519994 0.90260047 C 0.16519994 0.90260047 0.16519994 0.90260047 0.16519994 0.90260047 C 0.16279994 0.90260047 0.15929994 0.90180045 0.15659994 0.89790046 L 0.15629993 0.89750046 L 0.15609993 0.89700043 C 0.15379994 0.8905004 0.15369993 0.87980044 0.15779993 0.8728004 C 0.15939993 0.8700004 0.16159993 0.8680004 0.16419993 0.8669004 C 0.16379993 0.8665004 0.16339993 0.8661004 0.16299993 0.8656004 L 0.16259992 0.8651004 L 0.16239992 0.8645004 C 0.16099992 0.8601004 0.16189992 0.8555004 0.16469991 0.8516004 C 0.16569991 0.85030043 0.16679992 0.8491004 0.16819991 0.8480004 C 0.16759992 0.8476004 0.16709991 0.84710044 0.16659991 0.8465004 C 0.16479991 0.8444004 0.16419992 0.8415004 0.16469991 0.8380004 L 0.16479991 0.8373004 L 0.16549991 0.8361004 C 0.16579992 0.8356004 0.1659999 0.8352004 0.16629991 0.8347004 C 0.16109991 0.8347004 0.15579991 0.8325004 0.15259992 0.8304004 L 0.15199992 0.8299004 C 0.14809991 0.8261004 0.14699993 0.82080036 0.14919992 0.8156004 C 0.15169992 0.8095004 0.15779991 0.8049004 0.16349992 0.8048004 C 0.16799992 0.8039004 0.17269993 0.8053004 0.17589992 0.8085004 C 0.17739992 0.8043004 0.18059993 0.80180043 0.18479992 0.80180043 C 0.18969992 0.80180043 0.19469993 0.80520046 0.19729993 0.80880046 C 0.20049992 0.81130046 0.20149992 0.81510043 0.20229992 0.81820047 C 0.20269993 0.81990045 0.20319992 0.8216005 0.20379992 0.82250047 C 0.21079992 0.82390046 0.21799992 0.8240005 0.22479992 0.8240005 L 0.23209992 0.8240005 C 0.23919992 0.8240005 0.24679992 0.8241005 0.2542999 0.8256005 C 0.2581999 0.8187005 0.26169991 0.8112005 0.2649999 0.8040005 C 0.2687999 0.7958005 0.2727999 0.78730047 0.2773999 0.77940047 C 0.27839988 0.7763005 0.2801999 0.7737005 0.2818999 0.77150047 C 0.2837999 0.76890045 0.2854999 0.7666005 0.2854999 0.76420045 C 0.2838999 0.75820047 0.2828999 0.75200045 0.2818999 0.74590045 C 0.2807999 0.73900044 0.2797999 0.73250043 0.2778999 0.7263005 C 0.2766999 0.72660047 0.27529988 0.7271005 0.27389988 0.7277005 C 0.27099988 0.7288005 0.26759988 0.73010045 0.2640999 0.72980046 C 0.2640999 0.72980046 0.2638999 0.72980046 0.2636999 0.72980046 C 0.26239988 0.72980046 0.2606999 0.73010045 0.25899988 0.7303005 C 0.2568999 0.7306005 0.2546999 0.7310005 0.25249988 0.7310005 C 0.24729988 0.7310005 0.24359988 0.7289005 0.24139988 0.72480047 L 0.24099988 0.72400045 L 0.24099988 0.7231005 C 0.24059987 0.7080005 0.24679987 0.6934005 0.25299987 0.6810005 C 0.2537999 0.6782005 0.25569987 0.6761005 0.25739986 0.6743005 C 0.26009986 0.6713005 0.25989985 0.6711005 0.25949985 0.6705005 L 0.25909984 0.6698005 C 0.25849983 0.6683005 0.25779983 0.66670054 0.25699985 0.6651005 C 0.25329986 0.6571005 0.24809985 0.6461005 0.25459984 0.6371005 L 0.255 0.6369 L 0.25599998 0.6365 C 0.258 0.63560003 0.2602 0.6352 0.26259997 0.6352 C 0.26539996 0.6352 0.26819998 0.6358 0.27079996 0.63640004 C 0.27319998 0.63690007 0.27539995 0.63740003 0.27749997 0.63740003 C 0.27939996 0.63740003 0.28089997 0.637 0.28229997 0.63610005 L 0.28259996 0.6359001 C 0.29269996 0.63080007 0.30249995 0.6234001 0.31199995 0.6163001 C 0.33009994 0.6027001 0.34889996 0.5887001 0.37209994 0.5876001 C 0.37529993 0.58740014 0.37879995 0.5876001 0.38299993 0.58810014 L 0.38339993 0.58820015 C 0.38489994 0.58860016 0.38639992 0.58890015 0.38789994 0.58930016 C 0.39959994 0.5920001 0.41399994 0.59530014 0.42119995 0.60820013 C 0.42099994 0.6067001 0.42089996 0.6052001 0.42069995 0.60360014 C 0.41949996 0.59150016 0.41829994 0.58000016 0.41279995 0.5701001 C 0.40959996 0.5672001 0.40689996 0.5617001 0.40779996 0.55720013 C 0.40839997 0.55450016 0.41009995 0.5524001 0.41269997 0.5514001 C 0.40779996 0.54760015 0.40269998 0.5441001 0.39769998 0.5405001 C 0.3927 0.5370001 0.38759997 0.5334001 0.38279998 0.5297001 C 0.38079998 0.5284001 0.3724 0.5225001 0.3717 0.5149001 C 0.3717 0.51440006 0.3716 0.5140001 0.3717 0.5135001 C 0.35959998 0.51800007 0.34829998 0.5228001 0.34039998 0.5339001 C 0.33859998 0.5378001 0.33439997 0.5416001 0.33009997 0.5416001 C 0.32869998 0.5416001 0.32399997 0.5411001 0.32289997 0.5343001 C 0.32179996 0.5244001 0.32419997 0.5154001 0.32649997 0.5067001 C 0.32689998 0.5053001 0.32719997 0.5039001 0.32759997 0.5025001 C 0.32589996 0.5047001 0.32339996 0.5063001 0.32009998 0.5068001 C 0.3103 0.5119001 0.30679998 0.52490014 0.30349997 0.53750014 C 0.30219996 0.54250014 0.30079997 0.54760015 0.29909998 0.55220014 C 0.2981 0.55790013 0.2932 0.56410015 0.28759998 0.56410015 C 0.28589997 0.56410015 0.28269997 0.56350017 0.2803 0.55940014 L 0.28 0.5589001 L 0.2799 0.5584001 C 0.27980003 0.5580001 0.2797 0.5577001 0.27960002 0.5574001 C 0.27940002 0.5584001 0.279 0.5593001 0.27860004 0.5603001 C 0.27630004 0.5659001 0.26990002 0.5750001 0.26230004 0.5750001 C 0.26030004 0.5750001 0.25720003 0.5743001 0.25460005 0.5710001 L 0.25400004 0.5702001 L 0.25390005 0.5693001 C 0.25310004 0.57120013 0.25190005 0.5728001 0.25020006 0.5739001 L 0.24990006 0.5741001 C 0.24850006 0.5748001 0.24710006 0.5752001 0.24570006 0.5752001 C 0.24570006 0.5752001 0.24570006 0.5752001 0.24570006 0.5752001 C 0.24140006 0.5752001 0.23820007 0.57180005 0.23740005 0.5666001 C 0.23740005 0.5666001 0.23740005 0.56650007 0.23740005 0.56650007 C 0.23460005 0.57080007 0.22950006 0.5731001 0.22320005 0.5727001 C 0.22840005 0.57980007 0.23080005 0.5900001 0.22900005 0.5982001 L 0.22880004 0.5990001 L 0.22830005 0.5997001 C 0.22600006 0.6026001 0.22300005 0.60420007 0.21960005 0.60420007 H 0.21960005 C 0.21320005 0.60420007 0.20660006 0.5986001 0.20230006 0.59400004 C 0.19890006 0.59070003 0.19740006 0.58620006 0.19830006 0.58150005 L 0.19790006 0.5817 L 0.19680005 0.5817 C 0.18950005 0.5817 0.18440005 0.5763 0.18130006 0.56890005 C 0.18080007 0.5698 0.18030006 0.57060003 0.17970006 0.57140005 C 0.17790006 0.57350004 0.17560007 0.57470006 0.17320006 0.57470006 C 0.17170006 0.57470006 0.16950005 0.57420003 0.16710006 0.57210004 L 0.16680005 0.57180005 C 0.16640005 0.5713 0.16590005 0.57080007 0.16540006 0.57030004 C 0.16510005 0.57540005 0.16260006 0.58000004 0.16050006 0.58400005 C 0.15970007 0.5856001 0.15890007 0.5870001 0.15830007 0.58840007 C 0.15670007 0.59290004 0.15330008 0.59550005 0.14900008 0.59550005 C 0.14900008 0.59550005 0.14900008 0.59550005 0.14900008 0.59550005 C 0.14500009 0.59550005 0.14110008 0.5931001 0.13880008 0.58930004 C 0.13430008 0.58390003 0.13250008 0.57420003 0.13480009 0.56700003 C 0.13540009 0.5651 0.13630009 0.56340003 0.13740009 0.56200004 C 0.13640009 0.5619 0.13540009 0.56180006 0.13450009 0.56170005 L 0.13380009 0.5616 L 0.1332001 0.5612 C 0.13020009 0.55950004 0.1291001 0.5572 0.12870009 0.55550003 C 0.12830009 0.55370003 0.12850009 0.5518 0.1290001 0.55 C 0.1248001 0.5503 0.1215001 0.5471 0.119200096 0.54330003 C 0.116100095 0.54770005 0.11110009 0.54870003 0.107300095 0.54940003 C 0.103300095 0.55020005 0.100700095 0.5508 0.0991001 0.5532 C 0.0969001 0.5577 0.0925001 0.5628 0.0873001 0.5628 C 0.0853001 0.5628 0.0825001 0.5621 0.0802001 0.5586 L 0.0798001 0.5578 C 0.0767001 0.5496 0.0778001 0.5392 0.082700096 0.5306 C 0.0867001 0.5236 0.09260009 0.5188 0.0990001 0.5177 L 0.0991001 0.5177 C 0.097600095 0.5155 0.0968001 0.51280004 0.0970001 0.50990003 C 0.0974001 0.503 0.1024001 0.49650005 0.1071001 0.49350002 L 0.1079001 0.49310002 C 0.110000096 0.49240002 0.110400096 0.4902 0.1103001 0.48430002 C 0.1103001 0.48340002 0.1103001 0.48240003 0.1103001 0.48150003 C 0.1101001 0.47460002 0.1135001 0.47080004 0.1174001 0.46810004 C 0.1174001 0.46810004 0.1173001 0.46810004 0.1173001 0.46810004 L 0.1165001 0.46790004 L 0.1159001 0.46730003 C 0.114400096 0.46590003 0.1124001 0.46580002 0.1092001 0.46580002 C 0.1052001 0.46570003 0.0997001 0.46570003 0.09620009 0.46030003 L 0.095800094 0.45980003 L 0.09560009 0.45920002 C 0.09440009 0.45450002 0.09540009 0.44970003 0.09830009 0.44540003 C 0.10190009 0.44020003 0.10830009 0.43630004 0.11420009 0.43560004 C 0.11490009 0.43560004 0.11530009 0.43550006 0.11580009 0.43550006 C 0.12090009 0.43550006 0.1262001 0.43720007 0.1306001 0.44030005 C 0.1323001 0.44140005 0.1336001 0.44290006 0.1345001 0.44450006 C 0.1370001 0.44040006 0.1405001 0.43730006 0.1460001 0.43670005 C 0.1466001 0.43670005 0.1470001 0.43660006 0.1475001 0.43660006 C 0.1644001 0.43660006 0.1703001 0.45860004 0.1712001 0.47170007 C 0.1725001 0.4804001 0.17440009 0.49320006 0.1819001 0.49490008 C 0.1821001 0.49490008 0.18240009 0.4948001 0.1825001 0.49490008 C 0.1926001 0.49490008 0.20070009 0.4869001 0.2093001 0.47840008 C 0.2134001 0.4743001 0.2177001 0.4702001 0.2222001 0.46690008 L 0.2226001 0.46670008 C 0.2286001 0.46340007 0.23360011 0.45790008 0.23880011 0.45200008 C 0.2457001 0.44440007 0.2528001 0.43650007 0.2628001 0.43350008 L 0.2632001 0.4334001 C 0.2639001 0.4333001 0.2645001 0.4332001 0.2652001 0.4332001 C 0.2708001 0.4332001 0.27370012 0.4374001 0.2754001 0.4420001 C 0.2766001 0.4318001 0.27980012 0.4221001 0.2856001 0.4140001 L 0.2851001 0.4138001 C 0.2782001 0.4109001 0.2714001 0.4094001 0.2653001 0.4094001 C 0.2572001 0.4094001 0.2503001 0.41200012 0.24480009 0.4171001 C 0.24220009 0.4210001 0.2379001 0.4249001 0.23290008 0.4249001 C 0.23090008 0.4249001 0.22790009 0.42420012 0.22540009 0.4209001 L 0.2249001 0.4201001 C 0.2197001 0.4079001 0.2230001 0.3941001 0.2259001 0.3820001 C 0.2263001 0.3804001 0.2267001 0.3788001 0.2270001 0.3772001 C 0.2271001 0.3770001 0.2271001 0.3767001 0.2272001 0.3765001 C 0.2245001 0.3812001 0.22050011 0.3880001 0.2148001 0.3880001 C 0.2130001 0.3880001 0.2104001 0.3873001 0.20810011 0.3841001 L 0.20760012 0.3834001 L 0.20740011 0.3826001 C 0.2052001 0.3719001 0.20460011 0.3606001 0.20400012 0.3498001 C 0.20350012 0.3413001 0.20310012 0.3325001 0.20180011 0.3241001 C 0.20090011 0.32380012 0.1999001 0.3235001 0.1990001 0.3232001 C 0.19130011 0.3207001 0.18260011 0.31790012 0.1771001 0.3093001 C 0.17370011 0.30580008 0.1724001 0.2991001 0.1742001 0.2944001 C 0.1758001 0.2904001 0.1797001 0.28840008 0.1840001 0.2895001 L 0.1848001 0.2897001 L 0.1854001 0.29020008 C 0.1866001 0.29120007 0.1880001 0.2917001 0.1895001 0.2917001 C 0.1924001 0.2917001 0.1948001 0.2897001 0.1959001 0.2865001 C 0.1963001 0.2786001 0.1930001 0.2711001 0.1896001 0.2631001 C 0.1877001 0.2588001 0.18580009 0.2543001 0.1845001 0.24970008 L 0.1844001 0.24900009 C 0.18410009 0.24600008 0.1834001 0.2458001 0.1812001 0.2458001 C 0.1801001 0.2458001 0.17890011 0.2459001 0.1775001 0.2461001 C 0.1760001 0.2463001 0.1745001 0.2464001 0.1730001 0.2464001 C 0.1696001 0.2464001 0.1670001 0.2454001 0.1652001 0.2434001 C 0.1628001 0.2497001 0.1580001 0.25410008 0.1524001 0.2551001 C 0.1505001 0.2562001 0.14840011 0.2567001 0.1462001 0.2567001 C 0.1462001 0.2567001 0.1462001 0.2567001 0.1462001 0.2567001 C 0.1374001 0.2567001 0.1274001 0.24750009 0.1269001 0.2388001 C 0.1267001 0.2365001 0.12710011 0.22880009 0.1380001 0.2273001 L 0.1388001 0.22720009 L 0.1396001 0.2274001 C 0.1399001 0.2275001 0.1402001 0.2275001 0.1405001 0.2275001 C 0.1418001 0.2275001 0.1432001 0.22630009 0.1448001 0.2248001 C 0.1461001 0.22360009 0.1476001 0.2223001 0.1493001 0.2214001 L 0.1488001 0.22100009 C 0.1460001 0.2185001 0.1444001 0.21530008 0.1442001 0.2117001 C 0.1439001 0.2068001 0.1463001 0.2012001 0.1513001 0.1949001 C 0.1499 0.195 0.1488 0.1948 0.1476 0.1946 C 0.1453 0.1942 0.14299999 0.1938 0.1409 0.193 L 0.1383 0.1921 L 0.1384 0.1894 C 0.1385 0.1876 0.1386 0.1857 0.13870001 0.1837 C 0.13870001 0.18339999 0.13870001 0.1831 0.13880001 0.1828 C 0.1377 0.1838 0.13650002 0.1846 0.1351 0.1854 L 0.13440001 0.1857 C 0.13350001 0.1859 0.13210002 0.1881 0.13120002 0.1896 C 0.12930001 0.19260001 0.12690002 0.1963 0.12250002 0.1963 C 0.12250002 0.1963 0.12250002 0.1963 0.12250002 0.1963 C 0.121000014 0.1963 0.11950002 0.1958 0.11810002 0.1949 L 0.11730002 0.19440001 L 0.11680002 0.19360001 C 0.11300002 0.18680002 0.112700015 0.17660001 0.11590002 0.16870001 C 0.11820002 0.1631 0.12210002 0.15920001 0.12690002 0.1578 L 0.12780002 0.1576 L 0.12840001 0.1576 C 0.12970002 0.1576 0.13090001 0.1577 0.13210002 0.158 C 0.13100001 0.1559 0.13050002 0.1535 0.13060002 0.1509 C 0.13090003 0.1437 0.13590002 0.1366 0.14070001 0.1333 C 0.14310001 0.1312 0.14580001 0.13010001 0.14870001 0.13010001 C 0.15100001 0.13010001 0.15310001 0.13080001 0.15520002 0.13180001 C 0.15470003 0.13020001 0.15440002 0.12860002 0.15450002 0.127 C 0.15360002 0.1211 0.15520002 0.115100004 0.15880002 0.110800005 C 0.16070002 0.108600006 0.16300002 0.10700001 0.16550002 0.106000006 C 0.16460001 0.10520001 0.16370001 0.104200006 0.16300002 0.10300001 L 0.16270001 0.10250001 C 0.16220002 0.10130001 0.16160001 0.101 0.15870002 0.100600004 C 0.15570001 0.1001 0.15070002 0.099400006 0.14890002 0.0935 L 0.14880002 0.093 L 0.14880002 0.0925 C 0.14860001 0.0838 0.15510002 0.0778 0.16800001 0.0746 L 0.1685 0.0745 C 0.1754 0.073800005 0.1824 0.077800006 0.1879 0.085200004 L 0.18800001 0.08540001 C 0.18930002 0.087400004 0.19000001 0.089600004 0.1902 0.09170001 C 0.1917 0.09070001 0.1932 0.08980001 0.19500001 0.08920001 L 0.1957 0.08900001 L 0.1964 0.08910001 C 0.2008 0.08940001 0.2049 0.09180001 0.2083 0.09580001 C 0.211 0.099000014 0.213 0.10310001 0.21409999 0.10730001 C 0.21659999 0.102600016 0.22029999 0.09880001 0.22619998 0.09790001 C 0.23209998 0.09710001 0.23559998 0.100300014 0.23819998 0.10380001 C 0.23839998 0.10070001 0.23939998 0.09780002 0.24109998 0.09540001 C 0.24089998 0.090600014 0.24129999 0.08550002 0.24429998 0.08220001 C 0.24599998 0.08040001 0.24829997 0.07950001 0.25089997 0.07950001 L 0.25099996 0.07950001 C 0.25669995 0.07910001 0.26139995 0.081800014 0.26439995 0.08700001 C 0.26859996 0.09430001 0.26859996 0.10590001 0.26429996 0.11340001 C 0.26369995 0.114500016 0.26299995 0.11540001 0.26229995 0.11630001 C 0.26679996 0.11780001 0.27069995 0.12090001 0.27149996 0.128 L 0.27149996 0.12840001 L 0.27149996 0.12880002 C 0.27049997 0.14170001 0.26319996 0.15040001 0.25609997 0.15890002 C 0.25139996 0.16460003 0.24689996 0.17000002 0.24429996 0.17650002 C 0.24029997 0.19490002 0.24659996 0.21280003 0.25279996 0.23000002 C 0.25529996 0.23700002 0.25789997 0.24420002 0.25969997 0.25140002 C 0.26179996 0.25620002 0.26459998 0.26060003 0.26759997 0.26530004 C 0.27229998 0.27270004 0.27709997 0.28030002 0.27899998 0.28950003 L 0.2792 0.29040003 C 0.28419998 0.28360003 0.2914 0.27870002 0.29979998 0.27870002 C 0.30209997 0.27870002 0.30449998 0.27910003 0.30679998 0.2799 C 0.31119996 0.28050002 0.31519997 0.28370002 0.31699997 0.2883 C 0.31889996 0.2928 0.31809998 0.29770002 0.31499997 0.30130002 L 0.31469998 0.3016 C 0.31149998 0.3045 0.31149998 0.30830002 0.3119 0.31100002 C 0.3128 0.31610003 0.31669998 0.32130003 0.32079998 0.323 C 0.33939996 0.33110002 0.35539997 0.3328 0.36839998 0.3282 L 0.369 0.328 C 0.3762 0.3267 0.38309997 0.3253 0.3897 0.3239 C 0.3858 0.32250002 0.3822 0.3199 0.3793 0.3163 L 0.3789 0.3158 L 0.3787 0.3152 C 0.37489998 0.3051 0.3784 0.2936 0.3812 0.2845 L 0.38129997 0.284 C 0.38189998 0.2823 0.38269997 0.2808 0.38369998 0.2797 C 0.3746 0.2808 0.36529997 0.282 0.3563 0.2833 L 0.356 0.2833 C 0.3534 0.28350002 0.3508 0.2836 0.3483 0.2836 C 0.3255 0.2836 0.30870003 0.2764 0.2982 0.2621 C 0.2901 0.25140002 0.289 0.23590001 0.2955 0.22170001 C 0.30130002 0.209 0.3118 0.20070001 0.323 0.19990002 C 0.3235 0.19990002 0.32410002 0.19980001 0.32470003 0.19980001 C 0.33740002 0.19980001 0.35010004 0.20980002 0.35500002 0.22370002 L 0.35520002 0.22430001 C 0.35600004 0.22880001 0.3546 0.23170002 0.35320002 0.23340002 C 0.3497 0.23750001 0.34350002 0.23810002 0.33890003 0.23810002 C 0.33650002 0.23970002 0.33630002 0.24140002 0.33640003 0.24280003 C 0.33680004 0.24760003 0.34250003 0.25370002 0.34710002 0.25560004 C 0.3533 0.25610003 0.36 0.25630003 0.36810002 0.25630003 C 0.3727 0.25630003 0.3774 0.25620005 0.38210002 0.25610003 C 0.37910002 0.25320002 0.377 0.24910003 0.37590003 0.24660003 C 0.37270004 0.24190003 0.37190002 0.23660003 0.37110004 0.23140003 C 0.37040004 0.22640003 0.36960003 0.22180003 0.36670005 0.21860003 L 0.36640006 0.21820003 C 0.36570007 0.21730003 0.36490005 0.21620002 0.36400005 0.21510004 C 0.35940006 0.20940003 0.35170007 0.19980003 0.35910004 0.19050004 L 0.35930005 0.19030003 C 0.36890006 0.18000004 0.38070005 0.17390004 0.39210004 0.16790003 C 0.39590004 0.16590002 0.39980003 0.16380003 0.40360004 0.16170003 L 0.40390003 0.16150002 C 0.40800002 0.15960002 0.41170004 0.15640002 0.41550002 0.15290003 C 0.421 0.14800003 0.42670003 0.14290002 0.43440002 0.14150003 L 0.43490002 0.14140002 L 0.43640003 0.14130002 L 0.43690002 0.14140002 C 0.44110003 0.14230002 0.44520003 0.14350003 0.44920003 0.14480002 C 0.44840002 0.14250003 0.45000005 0.14010002 0.45260003 0.14010002 C 0.45270002 0.14010002 0.45290002 0.14020002 0.45300004 0.14020002 C 0.44820005 0.13820001 0.44350004 0.13590002 0.43890005 0.13330002 C 0.42730007 0.12670001 0.43200004 0.11210002 0.43480006 0.10340002 L 0.43550006 0.10130002 C 0.43640006 0.09910002 0.43580005 0.09820002 0.43180007 0.095300026 C 0.43050006 0.094400026 0.42920005 0.093400024 0.42810008 0.09230003 C 0.4242001 0.08900003 0.41910008 0.08170003 0.41980007 0.075400025 C 0.42020008 0.07210003 0.42210007 0.06940003 0.42530006 0.067900024 L 0.42590007 0.06760003 L 0.42660007 0.067500025 C 0.43230006 0.067100026 0.43650007 0.07080002 0.44020006 0.074100025 C 0.44180006 0.07550003 0.44330007 0.07690003 0.44470006 0.07770003 L 0.44520006 0.078000024 L 0.44560006 0.07840002 C 0.44730008 0.080200024 0.44970006 0.082000025 0.45230007 0.083800025 C 0.45920008 0.088700026 0.46790007 0.094800025 0.46620008 0.10650003 L 0.4661001 0.10710003 L 0.4659001 0.10760003 C 0.4641001 0.11140003 0.46350008 0.11810003 0.4655001 0.121800035 C 0.46650007 0.12370004 0.46780008 0.12410004 0.4686001 0.12420004 L 0.4693001 0.12440004 C 0.47300008 0.12570004 0.47750008 0.12420004 0.4804001 0.12070004 C 0.48290008 0.11770004 0.4840001 0.11380004 0.48340008 0.10990004 L 0.48340008 0.10950004 C 0.48230007 0.09230004 0.4989001 0.08730005 0.50790006 0.08460005 C 0.50930005 0.084100045 0.5109001 0.08380005 0.51250005 0.08380005 C 0.52260005 0.08380005 0.52800006 0.09530005 0.53200006 0.10370005 C 0.53230006 0.104400046 0.53270006 0.10510005 0.53300005 0.10580005 C 0.53910005 0.11280005 0.53480005 0.11900005 0.53200006 0.123200044 C 0.53010005 0.12600005 0.52830005 0.12860005 0.52860004 0.13130005 L 0.52870005 0.13180004 L 0.52860004 0.13230003 C 0.52770007 0.13690004 0.5289 0.14190003 0.5317 0.14520003 C 0.5331 0.14690003 0.5356 0.14890003 0.5391 0.14860003 C 0.5463 0.14580002 0.5491 0.13490003 0.5494 0.12560003 L 0.5495 0.12240002 L 0.5527 0.12200002 C 0.5555 0.121700026 0.5582 0.12140002 0.561 0.12110002 C 0.5696 0.12020002 0.5778 0.119400024 0.5858 0.117300026 C 0.5877 0.116300024 0.5897 0.11580002 0.5916 0.11580002 C 0.5969 0.11580002 0.6016 0.11970002 0.6029 0.12520002 C 0.6043 0.13080002 0.60190004 0.13630001 0.5967 0.13940002 C 0.5941 0.14220002 0.591 0.14350002 0.5871 0.14350002 C 0.5848 0.14350002 0.5827 0.14300002 0.5806 0.14260001 C 0.57860005 0.14220001 0.57670003 0.14180002 0.5752 0.14190002 C 0.5719 0.14530002 0.5697 0.15030001 0.56740004 0.15550002 C 0.56430006 0.16260003 0.5612 0.16990003 0.55460006 0.17430003 L 0.55530006 0.17400002 L 0.5561001 0.17410003 C 0.55960006 0.17430003 0.56250006 0.17580003 0.5644001 0.17850003 C 0.5692001 0.18510002 0.5670001 0.19690003 0.56570005 0.20200002 C 0.56490004 0.21140002 0.56060004 0.21970002 0.55250007 0.22710001 C 0.55460006 0.22750002 0.55700004 0.22870001 0.55890006 0.23180002 L 0.55930007 0.23250002 L 0.5594001 0.23330002 C 0.56030005 0.23920001 0.5584001 0.24450001 0.5565001 0.24960002 C 0.5545001 0.2551 0.55280006 0.25980002 0.5547001 0.26450002 C 0.5558001 0.26760003 0.55740005 0.26790002 0.56220007 0.26810002 C 0.56310004 0.26810002 0.56400007 0.2682 0.56490004 0.2682 L 0.56570005 0.2683 L 0.56640005 0.2687 C 0.57030004 0.2709 0.57140005 0.2739 0.5716001 0.2761 C 0.5723001 0.28350002 0.5642001 0.29090002 0.56250006 0.2924 C 0.5579001 0.2976 0.55170006 0.301 0.54510003 0.3019 C 0.54840004 0.306 0.5479 0.3124 0.54760003 0.3175 C 0.54740006 0.3208 0.5472 0.3242 0.5478 0.3263 L 0.5479 0.3267 C 0.5483 0.3289 0.5488 0.3289 0.5496 0.3289 C 0.5504 0.3289 0.5513 0.3287 0.5523 0.32860002 C 0.55359995 0.32840002 0.5549 0.3282 0.5563 0.3282 C 0.5614 0.3282 0.56369996 0.3314 0.5647 0.3341 L 0.5649 0.3346 L 0.5649 0.3351 C 0.56589997 0.3482 0.5545 0.3576 0.5509 0.3602 L 0.55039996 0.3606 L 0.5498 0.3608 C 0.541 0.3633 0.5322 0.3631 0.5251 0.3603 C 0.52639997 0.3616 0.5276 0.363 0.5288 0.3643 L 0.52930003 0.365 C 0.53400004 0.3743 0.52750003 0.38300002 0.5228 0.38930002 C 0.52180004 0.3907 0.52080005 0.39200002 0.52000004 0.3932 C 0.51820004 0.396 0.51580006 0.3985 0.51350003 0.40100002 C 0.50790006 0.40710002 0.503 0.41240004 0.5048 0.4198 C 0.50530005 0.42150003 0.5072 0.42360002 0.509 0.42560002 C 0.5126 0.42960003 0.518 0.43550003 0.5133 0.44320002 L 0.5128 0.44400004 L 0.51199996 0.44450003 C 0.50659996 0.44780004 0.49979997 0.44780004 0.49209997 0.44420004 C 0.49289998 0.44540003 0.49349996 0.44660005 0.49399996 0.44800004 C 0.49549997 0.45240003 0.49489996 0.45720005 0.49239996 0.46100006 C 0.48859996 0.46720004 0.48689997 0.47880006 0.49389997 0.48350006 L 0.49459997 0.48400006 L 0.49499997 0.48470005 C 0.49549997 0.48550007 0.4967 0.48670006 0.49779996 0.48790005 C 0.50079995 0.49100006 0.50699997 0.49720004 0.5017 0.50350004 C 0.51559997 0.51460004 0.52489996 0.5317 0.53389996 0.54980004 C 0.54429996 0.57250005 0.55709994 0.59700006 0.57869995 0.60120004 C 0.5795999 0.6014 0.58049995 0.6014 0.5813999 0.6014 C 0.5864999 0.6014 0.5916999 0.59860003 0.5953999 0.5938 C 0.6002999 0.58750004 0.6021999 0.5787 0.6002999 0.5709 C 0.5956999 0.5582 0.5881999 0.5479 0.5819999 0.541 C 0.5799999 0.5422 0.5775999 0.5436 0.5748999 0.5436 C 0.5731999 0.5436 0.5698999 0.54300004 0.5677999 0.53870004 L 0.5676999 0.5385001 C 0.5636999 0.5285001 0.5633999 0.5177001 0.5630999 0.50710005 C 0.5626999 0.49440005 0.5623999 0.48240006 0.5558999 0.47240004 L 0.5555999 0.47190005 C 0.5550999 0.47080004 0.55389994 0.46930003 0.5526999 0.46780005 C 0.5492999 0.46350005 0.5429999 0.45540005 0.5507999 0.44900006 L 0.5517999 0.44820005 L 0.5533999 0.44820005 C 0.5633999 0.44820005 0.5712999 0.45430005 0.5788999 0.46010005 C 0.5817999 0.46230006 0.5845999 0.46450007 0.58729994 0.46620005 C 0.5878999 0.46070006 0.58829993 0.45510006 0.58869994 0.44960004 C 0.58939993 0.44080004 0.5899999 0.43180004 0.59129995 0.42290005 C 0.59009993 0.42340004 0.58889997 0.42370006 0.58759993 0.42370006 L 0.5860999 0.42380005 L 0.5849999 0.42280006 C 0.5797999 0.41800007 0.5770999 0.41130006 0.57439995 0.40480006 C 0.57329994 0.40220004 0.57229996 0.39970005 0.57119995 0.39740005 L 0.571 0.39690006 C 0.5652 0.37940004 0.56049997 0.36070007 0.5649 0.34180006 C 0.5697 0.31340006 0.5905 0.29110005 0.6143 0.28900006 C 0.6152 0.28900006 0.61590004 0.28890008 0.61660004 0.28890008 C 0.62380004 0.28890008 0.63110006 0.2906001 0.63790005 0.2938001 C 0.63780004 0.29340008 0.63760006 0.29300007 0.63750005 0.29250008 L 0.63740003 0.2920001 C 0.63640004 0.28080007 0.6398 0.27040008 0.643 0.2603001 C 0.6451 0.2538001 0.64710003 0.2477001 0.6479 0.2415001 C 0.64879996 0.23160009 0.6505 0.19790009 0.631 0.18640009 C 0.6292 0.18530008 0.627 0.18470009 0.625 0.18470009 C 0.6217 0.18470009 0.6196 0.18630008 0.6188 0.18970008 C 0.6182 0.20020008 0.6224 0.20970008 0.62689996 0.21980008 C 0.6295 0.22560008 0.6321 0.23150009 0.63379997 0.23770009 C 0.6408 0.2547001 0.62979996 0.27130008 0.6224 0.27990007 C 0.62049997 0.28330007 0.6167 0.28560007 0.6132 0.28560007 C 0.61120003 0.28560007 0.6093 0.28480005 0.6079 0.28340006 C 0.6068 0.28230006 0.60550004 0.28020006 0.6056 0.27660006 L 0.6057 0.27610007 C 0.60800004 0.26340008 0.6041 0.24980007 0.595 0.23890007 C 0.58150005 0.22280006 0.5762 0.20010006 0.5816 0.18090007 L 0.5818 0.18040007 C 0.58779997 0.16650008 0.60029995 0.15160008 0.6168 0.15280007 C 0.6181 0.15280007 0.6193 0.15270007 0.6206 0.15270007 L 0.6234 0.15270007 L 0.62439996 0.15270007 C 0.6249 0.15270007 0.6256 0.15260006 0.6263 0.15260006 C 0.64849997 0.15260006 0.66419995 0.17430006 0.6709 0.19290006 L 0.671 0.19310006 C 0.6795 0.22320007 0.6752 0.26040006 0.6591 0.29530007 C 0.6577 0.29930007 0.6547 0.30190006 0.6511 0.30250007 C 0.65139997 0.30280006 0.65169996 0.30300006 0.65199995 0.30330008 L 0.65229994 0.30360007 C 0.66819996 0.32240006 0.67359996 0.35170007 0.66559994 0.37490007 C 0.6636999 0.38370007 0.65949994 0.39120007 0.6553999 0.39840007 C 0.6509999 0.40610006 0.64689994 0.41330007 0.6456999 0.42190006 C 0.6459999 0.42600006 0.64439994 0.43090007 0.6417999 0.43380007 C 0.63969994 0.43620008 0.6373999 0.43670008 0.6358999 0.43670008 C 0.6350999 0.43670008 0.6339999 0.43650007 0.6328999 0.43600008 C 0.6325999 0.43830007 0.63169986 0.44050008 0.6304999 0.44220006 C 0.6340999 0.44040006 0.6378999 0.43860006 0.6418999 0.43760008 C 0.6430999 0.43720007 0.6443999 0.43700007 0.64569986 0.43700007 C 0.65109986 0.43700007 0.65649986 0.44010007 0.65899986 0.44450006 C 0.66109985 0.44820005 0.66099983 0.45250005 0.65859985 0.45640007 L 0.65819985 0.45700008 C 0.64809984 0.46800008 0.6454998 0.48440006 0.6428999 0.5002001 L 0.6421999 0.5043001 C 0.6411999 0.5207001 0.6315999 0.53460014 0.6188999 0.53820014 L 0.6188999 0.53820014 C 0.6191999 0.53900015 0.6195999 0.53980017 0.61979985 0.54040015 C 0.62019986 0.54140013 0.6206998 0.5424001 0.6209999 0.54330015 C 0.6281999 0.55660015 0.63129985 0.57210016 0.62979984 0.5880002 C 0.63119984 0.6096002 0.61799985 0.6304002 0.5983998 0.6376002 C 0.5939998 0.64030015 0.58919984 0.64070016 0.5849998 0.64110017 C 0.5822998 0.64140016 0.5796998 0.6416002 0.5773998 0.64240015 C 0.5781998 0.64860016 0.5796998 0.65640014 0.5823998 0.66250014 L 0.5824998 0.66260016 C 0.5904998 0.67120016 0.5995998 0.68090016 0.6097998 0.68450016 C 0.6163998 0.68270016 0.6217998 0.6771002 0.6273998 0.67120016 C 0.63439983 0.66390014 0.6415998 0.6563001 0.6521998 0.65530014 C 0.6579 0.6542 0.6633 0.6561 0.6669 0.6607 Z M 0.4799 0.1556 C 0.4822 0.1564 0.4846 0.1572 0.4869 0.15789999 C 0.4862 0.15509999 0.4874 0.1539 0.4909 0.1539 C 0.4928 0.1539 0.4936 0.1549 0.49330002 0.1569 C 0.49310002 0.158 0.49260002 0.1588 0.492 0.1594 C 0.4925 0.1595 0.4929 0.1597 0.4934 0.15980001 L 0.49420002 0.16000001 L 0.49480003 0.1605 C 0.49530002 0.16090001 0.49550003 0.16090001 0.49550003 0.16090001 C 0.49600002 0.16090001 0.49750003 0.15940002 0.49830002 0.15860002 C 0.499 0.15790002 0.4997 0.15720002 0.5005 0.15660001 C 0.49530002 0.15480001 0.49 0.15310001 0.4848 0.15140001 C 0.4832 0.15090002 0.48160002 0.15040001 0.48000002 0.14980002 C 0.4812 0.15060002 0.48220003 0.15190002 0.48270002 0.15340002 C 0.4831 0.1548 0.4816 0.1555 0.4799 0.1556 Z M 0.6054 0.3805 C 0.6057 0.3803 0.606 0.38009998 0.6063 0.38 L 0.6071 0.3796 L 0.608 0.3796 C 0.6081 0.3796 0.6081 0.3796 0.60819995 0.3796 C 0.60719997 0.37829998 0.60629994 0.37699997 0.60539997 0.3757 C 0.6057 0.3773 0.6057 0.379 0.6054 0.3805 Z M 0.6019 0.3705 C 0.5965 0.3619 0.59279996 0.3533 0.59059995 0.3447 C 0.58829993 0.3536 0.58839995 0.3637 0.59009993 0.37350002 C 0.59129995 0.37100002 0.5935999 0.36940002 0.5964999 0.36910003 C 0.5986 0.369 0.6004 0.3695 0.6019 0.3705 Z M 0.6266 0.3946 C 0.62570006 0.3949 0.62460005 0.3949 0.62350005 0.3948 C 0.62350005 0.3966 0.62320006 0.3986 0.62270004 0.40060002 C 0.62130004 0.4061 0.61990005 0.4115 0.6186 0.4169 C 0.6188 0.41680002 0.6189 0.4167 0.61910003 0.4167 L 0.61980003 0.41640002 H 0.62060004 C 0.62210006 0.41640002 0.62350005 0.41680002 0.6248 0.4174 C 0.6242 0.4099 0.6252 0.4021 0.6266 0.3946 Z M 0.6145 0.4487 C 0.6175 0.44840002 0.6204 0.4474 0.6234 0.4462 C 0.6195 0.446 0.61609995 0.4433 0.6141 0.43890002 C 0.6135 0.44240004 0.613 0.446 0.61249995 0.44950002 C 0.6126999 0.44940004 0.61289996 0.44930002 0.61309993 0.44920003 L 0.6137999 0.44890004 L 0.6145 0.4487 Z M 0.5975 0.3976 C 0.5977 0.3979 0.5978 0.3981 0.59800005 0.3984 C 0.59840006 0.397 0.59880006 0.3953 0.59910005 0.3937 C 0.5996001 0.3912 0.60010004 0.3886 0.6011 0.3862 C 0.5999 0.3869 0.59860003 0.3872 0.5974 0.3872 C 0.5974 0.3872 0.5974 0.3872 0.5974 0.3872 C 0.5958 0.3872 0.5944 0.3867 0.5932 0.3858 C 0.5943 0.39 0.5958 0.3939 0.5975 0.3976 Z M 0.4299 0.2736 C 0.42769998 0.2739 0.4254 0.27420002 0.4231 0.2745 C 0.4263 0.27440003 0.42949998 0.27440003 0.4327 0.27440003 C 0.43850002 0.27440003 0.4445 0.27430004 0.45020002 0.27370003 C 0.45170003 0.26860002 0.45200002 0.26250002 0.4523 0.25650004 C 0.45250002 0.25300002 0.45270002 0.24930003 0.45310003 0.24590003 L 0.45330003 0.24520004 C 0.45410004 0.24260004 0.45370004 0.23980004 0.45220003 0.23770005 C 0.45120004 0.23630005 0.4498 0.23530005 0.44830003 0.23520005 C 0.44320002 0.23670004 0.43830004 0.23880005 0.43300003 0.24100004 C 0.42360002 0.24500003 0.41380003 0.24910004 0.4031 0.24960004 L 0.4022 0.24960004 L 0.4014 0.24920003 C 0.401 0.24900003 0.4008 0.24900003 0.4008 0.24900003 C 0.4003 0.24920003 0.39909998 0.25100002 0.3985 0.25190002 C 0.39769998 0.2531 0.3969 0.25430003 0.39589998 0.25540003 C 0.39589998 0.25550002 0.3958 0.25550002 0.3958 0.25560004 C 0.3991 0.25550005 0.4024 0.25550005 0.4057 0.25550005 C 0.4147 0.25550005 0.4221 0.25580004 0.429 0.25630006 C 0.42909998 0.25630006 0.42929998 0.25630006 0.4294 0.25630006 C 0.4337 0.25630006 0.4369 0.25960007 0.4372 0.26420006 C 0.4375 0.2691 0.4344 0.2731 0.4299 0.2736 Z M 0.5091 0.1106 C 0.50990003 0.1102 0.50990003 0.109400004 0.5098 0.1088 C 0.5098 0.1086 0.5097 0.1084 0.50960004 0.1082 C 0.5091 0.1088 0.50890005 0.1097 0.5088 0.1107 L 0.5091 0.1106 Z M 0.3914 0.3692 C 0.3937 0.3676 0.39630002 0.3664 0.39900002 0.3664 C 0.39940003 0.3664 0.39990002 0.3664 0.4004 0.3665 C 0.40030003 0.3662 0.4002 0.36589998 0.4 0.3656 C 0.39880002 0.3626 0.3974 0.3588 0.39560002 0.357 C 0.39470002 0.35889998 0.39400002 0.3611 0.39330003 0.36339998 C 0.3928 0.3654 0.3922 0.3673 0.3914 0.3692 Z M 0.3986 0.421 C 0.40120003 0.4206 0.4038 0.4202 0.4065 0.4199 C 0.4036 0.4187 0.40100002 0.4165 0.4 0.4124 C 0.3992 0.4154 0.3987 0.4182 0.3986 0.421 Z M 0.4549 0.1712 C 0.4509 0.16970001 0.4469 0.1684 0.443 0.1673 C 0.4423 0.16770001 0.4412 0.16860001 0.44039997 0.1694 C 0.4421 0.17050001 0.44359997 0.172 0.44489998 0.17330001 C 0.44599998 0.17440002 0.44709998 0.17540002 0.44799998 0.17600001 C 0.44899997 0.17540002 0.45 0.17460002 0.45099998 0.17390001 C 0.4523 0.173 0.4536 0.172 0.4549 0.1712 Z M 0.4679 0.4149 C 0.46780002 0.4147 0.4677 0.4144 0.46760002 0.4142 C 0.4668 0.41230002 0.4661 0.4106 0.4654 0.4088 C 0.46350002 0.41030002 0.46150002 0.4117 0.4594 0.41300002 C 0.46 0.41290003 0.4607 0.41290003 0.4614 0.41290003 C 0.4637 0.41290003 0.4658 0.41350004 0.4678 0.41480002 L 0.4679 0.4149 Z M 0.3395 0.3971 L 0.3389 0.3967 C 0.3389 0.3974 0.3388 0.398 0.3388 0.3987 C 0.3398 0.3986 0.3409 0.3984 0.34190002 0.3983 C 0.341 0.3979 0.3402 0.3975 0.3395 0.3971 Z M 0.3989 0.2784 C 0.399 0.2784 0.3991 0.2785 0.3992 0.2785 C 0.4009 0.27789998 0.4027 0.2773 0.4044 0.2769 C 0.40199998 0.27719998 0.39949998 0.2775 0.3971 0.2778 C 0.3978 0.278 0.3983 0.2782 0.3989 0.2784 Z M 0.2894 0.4939 C 0.29000002 0.4952 0.29070002 0.4964 0.29140002 0.4976 C 0.29200003 0.49629998 0.29250002 0.49499997 0.293 0.49359998 C 0.2919 0.494 0.2906 0.4941 0.2894 0.4939 Z M 0.3306 0.4508 L 0.3315 0.4513 L 0.332 0.4522 C 0.33229998 0.4528 0.3326 0.4534 0.3329 0.454 C 0.3333 0.4525 0.3337 0.451 0.3342 0.44959998 C 0.3329 0.44989997 0.33159998 0.45029998 0.3303 0.45069999 C 0.3304 0.4506 0.3305 0.4507 0.3306 0.4508 Z M 0.5525 0.1752 L 0.5518 0.1751 C 0.54800004 0.1748 0.5443 0.17379999 0.5407 0.1725 C 0.5418 0.1754 0.5424 0.1788 0.5421 0.1825 C 0.5421 0.1826 0.5421 0.18280001 0.5421 0.18290001 C 0.5453 0.1799 0.5487 0.177 0.5525 0.1752 Z M 0.2758 0.3343 C 0.2756 0.3325 0.27499998 0.33060002 0.27429998 0.32860002 C 0.274 0.3314 0.2729 0.33350003 0.2715 0.3352 C 0.2729 0.3349 0.2743 0.3346 0.2758 0.3343 Z M 0.4528 0.1459 C 0.45610002 0.147 0.4594 0.14819999 0.4627 0.1494 C 0.4623 0.14899999 0.4621 0.1485 0.4621 0.1479 C 0.4621 0.1465 0.4634 0.1453 0.4651 0.1453 C 0.4668 0.1453 0.46809998 0.1465 0.46809998 0.1479 C 0.46809998 0.1492 0.4669 0.1503 0.46549997 0.1504 C 0.46639997 0.1507 0.46719998 0.151 0.46809998 0.1514 C 0.4703 0.1522 0.47249997 0.153 0.4748 0.1538 C 0.4748 0.1538 0.4748 0.1538 0.4748 0.1538 C 0.4743 0.1528 0.4746 0.151 0.4755 0.14989999 C 0.47599998 0.1494 0.4766 0.14909999 0.4772 0.14909999 C 0.4693 0.14649999 0.4614 0.14379999 0.4536 0.14039999 C 0.4542 0.14089999 0.4545 0.14179999 0.4544 0.14289999 C 0.4541 0.1442 0.4535 0.1453 0.4528 0.1459 Z M 0.2548 0.5551 L 0.25439999 0.5546 C 0.251 0.5502 0.24629998 0.5494 0.24079998 0.5484 C 0.23949997 0.5482 0.23819998 0.54789996 0.23679999 0.5477 C 0.23859999 0.5498 0.23979999 0.5524 0.24009998 0.5557 C 0.24119999 0.5543 0.24269998 0.5532 0.24459998 0.5526 L 0.24489999 0.5525 C 0.24549998 0.5524 0.2461 0.55230004 0.24659999 0.55230004 C 0.2503 0.55230004 0.25329998 0.55490005 0.25449997 0.55910003 C 0.25469998 0.5598 0.25479996 0.5604 0.25489998 0.5611 C 0.25489998 0.5611 0.25489998 0.561 0.25489998 0.561 C 0.256 0.5573 0.2561 0.5562 0.2548 0.5551 Z"/>
</defs>
<g>
<g>
<rect x="0" y="0" width="360" height="144" class="white"/>
<rect x="0" y="144" width="360" height="72" class="blue"/>
<rect x="0" y="216" width="360" height="144" class="yellow"/>
</g>
<use xlink:href="#ls" transform="translate(0 0) scale(360 360) rotate(0)" class="white"/>
<use xlink:href="#lf" transform="translate(0 0) scale(360 360) rotate(0)" class="red"/>
</g>
</svg>
