<?xml version="1.0"?>
<svg xmlns="http://www.w3.org/2000/svg" xmlns:xlink="http://www.w3.org/1999/xlink" version="1.1" width="360" height="360" viewBox="0 0 360 360">
<!-- Generated by Kreative Vexillo v1.0 -->
<style>
.blue{fill:rgb(0,82,156);}
.white{fill:rgb(255,255,255);}
.yellow{fill:rgb(253,185,36);}
</style>
<defs>
<path id="star12" d="M 0.0 -1.0 L 0.12941 -0.482963 L 0.5 -0.866025 L 0.353553 -0.353553 L 0.866025 -0.5 L 0.482963 -0.12941 L 1.0 -0.0 L 0.482963 0.12941 L 0.866025 0.5 L 0.353553 0.353553 L 0.5 0.866025 L 0.12941 0.482963 L 0.0 1.0 L -0.12941 0.482963 L -0.5 0.866025 L -0.353553 0.353553 L -0.866025 0.5 L -0.482963 0.12941 L -1.0 0.0 L -0.482963 -0.12941 L -0.866025 -0.5 L -0.353553 -0.353553 L -0.5 -0.866025 L -0.12941 -0.482963 Z"/>
</defs>
<g>
<g>
<rect x="0" y="0" width="360" height="165" class="blue"/>
<rect x="0" y="165" width="360" height="30" class="yellow"/>
<rect x="0" y="195" width="360" height="165" class="blue"/>
</g>
<use xlink:href="#star12" transform="translate(90 255) scale(60 60) rotate(0)" class="white"/>
</g>
</svg>
