<?xml version="1.0"?>
<svg xmlns="http://www.w3.org/2000/svg" xmlns:xlink="http://www.w3.org/1999/xlink" version="1.1" width="360" height="360" viewBox="0 0 360 360">
<!-- Generated by Kreative Vexillo v1.0 -->
<style>
.blue{fill:rgb(0,36,125);}
.red{fill:rgb(207,20,43);}
.white{fill:rgb(255,255,255);}
</style>
<defs>
<path id="star" d="M 0.0 -1.0 L 0.2245 -0.309 L 0.9511 -0.309 L 0.3633 0.118 L 0.5878 0.809 L 0.0 0.382 L -0.5878 0.809 L -0.3633 0.118 L -0.9511 -0.309 L -0.2245 -0.309 Z"/>
<clipPath id="clip0">
<path d="M 0 0 L 0 16.9706 L 73.0294 90 L 0 163.0294 L 0 180 L 16.9706 180 L 90 106.9706 L 163.0294 180 L 180 180 L 180 163.0294 L 106.9706 90 L 106.9706 90 L 180 16.9706 L 180 0 L 163.0294 0 L 90 73.0294 L 16.9706 0 Z"/>
</clipPath>
</defs>
<g>
<rect x="0" y="0" width="360" height="360" class="blue"/>
<g>
<path d="M 0 0 L 0 25.4558 L 0 25.4558 L 64.5442 90 L 64.5442 90 L 0 154.5442 L 0 154.5442 L 0 180 L 25.4558 180 L 90 115.4558 L 154.5442 180 L 180 180 L 180 154.5442 L 115.4558 90 L 180 25.4558 L 180 0 L 154.5442 0 L 90 64.5442 L 90 64.5442 L 90 64.5442 L 90 64.5442 L 25.4558 0 Z" class="white"/>
<g clip-path="url(#clip0)">
<path d="M 0 0 L 90 90 L 0 90 Z" class="red"/>
<path d="M 180 0 L 90 90 L 90 0 Z" class="red"/>
<path d="M 0 180 L 90 90 L 90 180 Z" class="red"/>
<path d="M 180 180 L 90 90 L 180 90 Z" class="red"/>
</g>
<g>
<rect x="0" y="60" width="180" height="60" class="white"/>
<rect x="60" y="0" width="60" height="180" class="white"/>
</g>
<g>
<rect x="0" y="72" width="180" height="36" class="red"/>
<rect x="72" y="0" width="36" height="180" class="red"/>
</g>
</g>
<g>
<use xlink:href="#star" transform="translate(270 288) scale(15.12 15.12) rotate(0)" class="white"/>
<use xlink:href="#star" transform="translate(228.6 156) scale(13.62 13.62) rotate(0)" class="white"/>
<use xlink:href="#star" transform="translate(270 72) scale(13.62 13.62) rotate(0)" class="white"/>
<use xlink:href="#star" transform="translate(303 134.4) scale(12.12 12.12) rotate(0)" class="white"/>
<use xlink:href="#star" transform="translate(270 288) scale(10.5 10.5) rotate(0)" class="red"/>
<use xlink:href="#star" transform="translate(228.6 156) scale(9 9) rotate(0)" class="red"/>
<use xlink:href="#star" transform="translate(270 72) scale(9 9) rotate(0)" class="red"/>
<use xlink:href="#star" transform="translate(303 134.4) scale(7.5 7.5) rotate(0)" class="red"/>
</g>
</g>
</svg>
