<?xml version="1.0"?>
<svg xmlns="http://www.w3.org/2000/svg" xmlns:xlink="http://www.w3.org/1999/xlink" version="1.1" width="360" height="360" viewBox="0 0 360 360">
<!-- Generated by Kreative Vexillo v1.0 -->
<style>
.blue{fill:rgb(179,221,242);}
.red{fill:rgb(255,0,0);}
.white{fill:rgb(255,255,255);}
</style>
<defs>
<path id="star" d="M 0.0 -1.0 L 0.183333 -0.317543 L 0.866025 -0.5 L 0.366667 -0.0 L 0.866025 0.5 L 0.183334 0.317543 L 0.0 1.0 L -0.183333 0.317543 L -0.866025 0.5 L -0.366667 0.0 L -0.866025 -0.5 L -0.183334 -0.317543 Z"/>
</defs>
<g>
<g>
<rect x="0" y="0" width="360" height="60" class="white"/>
<rect x="0" y="60" width="360" height="60" class="blue"/>
<rect x="0" y="120" width="360" height="120" class="white"/>
<rect x="0" y="240" width="360" height="60" class="blue"/>
<rect x="0" y="300" width="360" height="60" class="white"/>
</g>
<use xlink:href="#star" transform="translate(75 180) scale(37.8947 37.8947) rotate(0)" class="red"/>
<use xlink:href="#star" transform="translate(145 180) scale(37.8947 37.8947) rotate(0)" class="red"/>
<use xlink:href="#star" transform="translate(215 180) scale(37.8947 37.8947) rotate(0)" class="red"/>
<use xlink:href="#star" transform="translate(285 180) scale(37.8947 37.8947) rotate(0)" class="red"/>
</g>
</svg>
