<?xml version="1.0"?>
<svg xmlns="http://www.w3.org/2000/svg" xmlns:xlink="http://www.w3.org/1999/xlink" version="1.1" width="360" height="360" viewBox="0 0 360 360">
<!-- Generated by Kreative Vexillo v1.0 -->
<style>
.blue{fill:rgb(0,36,125);}
.red{fill:rgb(207,20,43);}
.white{fill:rgb(255,255,255);}
</style>
<defs>
<clipPath id="clip0">
<path d="M 0 0 L 0 17.0842 L 63.8014 90 L 0 162.9158 L 0 162.9158 L 0 180 L 14.9486 180 L 78.75 107.0842 L 78.75 107.0842 L 142.5514 180 L 157.5 180 L 157.5 162.9158 L 93.6986 90 L 157.5 17.0842 L 157.5 0 L 142.5514 0 L 78.75 72.9158 L 78.75 72.9158 L 14.9486 0 Z"/>
</clipPath>
</defs>
<g>
<g>
<rect x="0" y="0" width="360" height="45" class="white"/>
<rect x="0" y="45" width="360" height="45" class="red"/>
<rect x="0" y="90" width="360" height="45" class="blue"/>
<rect x="0" y="135" width="360" height="45" class="white"/>
<rect x="0" y="180" width="360" height="45" class="red"/>
<rect x="0" y="225" width="360" height="45" class="blue"/>
<rect x="0" y="270" width="360" height="45" class="white"/>
<rect x="0" y="315" width="360" height="45" class="red"/>
</g>
<g>
<rect x="0" y="0" width="157.5" height="180" class="blue"/>
<path d="M 0 0 L 0 25.6262 L 0 25.6262 L 56.327 90 L 56.327 90 L 0 154.3738 L 0 154.3738 L 0 180 L 22.423 180 L 78.75 115.6262 L 78.75 115.6262 L 135.0771 180 L 157.5 180 L 157.5 154.3738 L 101.173 90 L 101.173 90 L 157.5 25.6262 L 157.5 0 L 135.077 0 L 78.75 64.3738 L 22.423 0 Z" class="white"/>
<g clip-path="url(#clip0)">
<path d="M 0 0 L 78.75 90 L 0 90 Z" class="red"/>
<path d="M 157.5 0 L 78.75 90 L 78.75 0 Z" class="red"/>
<path d="M 0 180 L 78.75 90 L 78.75 180 Z" class="red"/>
<path d="M 157.5 180 L 78.75 90 L 157.5 90 Z" class="red"/>
</g>
<g>
<rect x="0" y="67.5" width="157.5" height="45" class="white"/>
<rect x="56.25" y="0" width="45" height="180" class="white"/>
</g>
<g>
<rect x="0" y="73.125" width="157.5" height="33.75" class="red"/>
<rect x="61.875" y="0" width="33.75" height="180" class="red"/>
</g>
</g>
</g>
</svg>
