<?xml version="1.0"?>
<svg xmlns="http://www.w3.org/2000/svg" xmlns:xlink="http://www.w3.org/1999/xlink" version="1.1" width="360" height="360" viewBox="0 0 360 360">
<!-- Generated by Kreative Vexillo v1.0 -->
<style>
.blue{fill:rgb(0,28,90);}
.red{fill:rgb(193,19,61);}
.white{fill:rgb(255,255,255);}
</style>
<defs>
<path id="-glazearea" d="M 0.0 0.0 L 1.0 0.1875 L 0.7692308 0.5 L 1.0 0.8125 L 0.0 1.0 Z"/>
<path id="star" d="M 0.0 -1.0 L 0.2245 -0.309 L 0.9511 -0.309 L 0.3633 0.118 L 0.5878 0.809 L 0.0 0.382 L -0.5878 0.809 L -0.3633 0.118 L -0.9511 -0.309 L -0.2245 -0.309 Z"/>
<clipPath id="clip0">
<use xlink:href="#-glazearea" transform="translate(0 0) scale(360 360) rotate(0)"/>
</clipPath>
</defs>
<g>
<g clip-path="url(#clip0)">
<rect x="0" y="0" width="360" height="360" class="white"/>
<path d="M 8.293 -44.2292 L 8.293 -44.2292 L 728.293 90.7708 L 711.707 179.2292 L -8.293 44.2292 Z" class="red"/>
<path d="M 0 157.5 L 0 157.5 L 360 157.5 L 360 202.5 L 0 202.5 Z" class="red"/>
<path d="M -8.293 315.7708 L -8.293 315.7708 L 711.707 180.7708 L 728.293 269.2292 L 8.293 404.2292 Z" class="red"/>
</g>
<path d="M 0 0 L 221.5385 180 L 0 360 Z" class="blue"/>
<ellipse cx="68.4591" cy="180" rx="41.0755" ry="41.0755" class="white"/>
<ellipse cx="68.4591" cy="180" rx="27.3837" ry="27.3837" class="red"/>
<g>
<use xlink:href="#star" transform="translate(109.3845 216.3947) scale(9.1279 9.1279) rotate(-228.3535)" class="white"/>
<use xlink:href="#star" transform="translate(81.4906 233.1944) scale(9.1279 9.1279) rotate(-193.7651)" class="white"/>
<use xlink:href="#star" transform="translate(48.9901 231.19) scale(9.1279 9.1279) rotate(-159.1768)" class="white"/>
<use xlink:href="#star" transform="translate(23.3719 211.0901) scale(9.1279 9.1279) rotate(-124.5884)" class="white"/>
<use xlink:href="#star" transform="translate(13.6918 180) scale(9.1279 9.1279) rotate(-90)" class="white"/>
<use xlink:href="#star" transform="translate(23.3719 148.9099) scale(9.1279 9.1279) rotate(-55.4116)" class="white"/>
<use xlink:href="#star" transform="translate(48.9901 128.81) scale(9.1279 9.1279) rotate(-20.8232)" class="white"/>
<use xlink:href="#star" transform="translate(81.4906 126.8056) scale(9.1279 9.1279) rotate(13.7651)" class="white"/>
<use xlink:href="#star" transform="translate(109.3845 143.6053) scale(9.1279 9.1279) rotate(48.3535)" class="white"/>
</g>
<g>
<g>
<use xlink:href="#star" transform="translate(24.4977 249.3987) scale(9.1279 9.1279) rotate(-147.6473)" class="white"/>
<use xlink:href="#star" transform="translate(55.192 261.0726) scale(9.1279 9.1279) rotate(-170.7062)" class="white"/>
</g>
<g>
<use xlink:href="#star" transform="translate(24.4977 110.6013) scale(9.1279 9.1279) rotate(-32.3527)" class="white"/>
<use xlink:href="#star" transform="translate(55.192 98.9274) scale(9.1279 9.1279) rotate(-9.2938)" class="white"/>
</g>
</g>
<use xlink:href="#star" transform="translate(123.2265 180) scale(9.1279 9.1279) rotate(90)" class="white"/>
<use xlink:href="#star" transform="translate(177.9938 180) scale(9.1279 9.1279) rotate(90)" class="white"/>
<g>
<use xlink:href="#star" transform="translate(148.9525 163.5803) scale(9.1279 9.1279) rotate(78.4705)" class="white"/>
<use xlink:href="#star" transform="translate(148.9525 196.4197) scale(9.1279 9.1279) rotate(101.5295)" class="white"/>
</g>
</g>
</svg>
