<?xml version="1.0"?>
<svg xmlns="http://www.w3.org/2000/svg" xmlns:xlink="http://www.w3.org/1999/xlink" version="1.1" width="360" height="360" viewBox="0 0 360 360">
<!-- Generated by Kreative Vexillo v1.0 -->
<style>
.blue{fill:rgb(0,85,164);}
.red{fill:rgb(250,60,50);}
.white{fill:rgb(255,255,255);}
</style>
<g>
<rect x="0" y="0" width="360" height="360" class="red"/>
<rect x="0" y="0" width="217.8" height="145.8" class="white"/>
<g>
<rect x="0" y="0" width="71.4" height="142.2" class="blue"/>
<rect x="71.4" y="0" width="71.4" height="142.2" class="white"/>
<rect x="142.8" y="0" width="71.4" height="142.2" class="red"/>
</g>
<rect x="262.4" y="154.4" width="51.2" height="51.2" class="white"/>
<path d="M 257.6 149.6 L 257.6 156.3882 L 281.2118 180 L 257.6 203.6118 L 257.6 210.4 L 264.3882 210.4 L 288 186.7882 L 288 186.7882 L 311.6118 210.4 L 318.4 210.4 L 318.4 203.6118 L 318.4 203.6118 L 294.7882 180 L 318.4 156.3882 L 318.4 149.6 L 311.6118 149.6 L 288 173.2118 L 264.3882 149.6 Z" class="red"/>
</g>
</svg>
