<?xml version="1.0"?>
<svg xmlns="http://www.w3.org/2000/svg" xmlns:xlink="http://www.w3.org/1999/xlink" version="1.1" width="360" height="360" viewBox="0 0 360 360">
<!-- Generated by Kreative Vexillo v1.0 -->
<style>
.blue{fill:rgb(0,0,255);}
.red{fill:rgb(255,0,0);}
.white{fill:rgb(255,255,255);}
</style>
<defs>
<path id="arrow" d="M 0.0 0.0 L 0.5 1.0 L 0.0 0.8 L -0.5 1.0 Z"/>
<path id="ring" d="M 0.5 0.0 A 0.5 0.5 0.0 0 0 -0.5 0.0 A 0.5 0.5 0.0 0 0 0.5 0.0 Z M 0.416667 0.0 A 0.416667 0.416667 0.0 0 1 -0.416667 0.0 A 0.416667 0.416667 0.0 0 1 0.416667 0.0 Z"/>
</defs>
<g>
<rect x="0" y="0" width="360" height="360" class="white"/>
<use xlink:href="#ring" transform="translate(134.262 180) scale(156.816 156.816) rotate(0)" class="blue"/>
<use xlink:href="#ring" transform="translate(225.738 180) scale(156.816 156.816) rotate(0)" class="blue"/>
<g>
<rect x="34.1415" y="173.466" width="291.717" height="13.068" class="red"/>
<rect x="173.466" y="31.302" width="13.068" height="297.396" class="red"/>
</g>
<use xlink:href="#arrow" transform="translate(180 11.7) scale(39.204 29.403) rotate(0)" class="red"/>
<use xlink:href="#arrow" transform="translate(180 348.3) scale(39.204 29.403) rotate(180)" class="red"/>
<use xlink:href="#arrow" transform="translate(19.44 180) scale(29.403 39.204) rotate(270)" class="red"/>
<use xlink:href="#arrow" transform="translate(340.56 180) scale(29.403 39.204) rotate(90)" class="red"/>
</g>
</svg>
