<?xml version="1.0"?>
<svg xmlns="http://www.w3.org/2000/svg" xmlns:xlink="http://www.w3.org/1999/xlink" version="1.1" width="360" height="360" viewBox="0 0 360 360">
<!-- Generated by Kreative Vexillo v1.0 -->
<style>
.black{fill:rgb(0,0,0);}
.blue{fill:rgb(0,0,255);}
.green{fill:rgb(0,153,0);}
.orange{fill:rgb(255,153,0);}
.purple{fill:rgb(153,0,153);}
.red{fill:rgb(255,0,0);}
.white{fill:rgb(255,255,255);}
.yellow{fill:rgb(255,255,0);}
</style>
<defs>
<clipPath id="clip0">
<path d="M 0 0 L 180 180 L 0 360 Z"/>
</clipPath>
<clipPath id="clip1">
<path d="M 0 0 L 360 0 L 360 360 L 0 360 L 180 180 Z"/>
</clipPath>
<clipPath id="clip2">
<rect x="0" y="0" width="360" height="360"/>
</clipPath>
<clipPath id="clip3">
<path d="M 25.4558 -25.4558 L 25.4558 -25.4558 L 205.4558 154.5442 L 154.5442 205.4558 L -25.4558 25.4558 Z"/>
<path d="M 205.4558 205.4558 L 205.4558 205.4558 L 25.4558 385.4558 L -25.4558 334.5442 L 154.5442 154.5442 Z"/>
<path d="M 180 144 L 180 144 L 360 144 L 360 216 L 180 216 Z"/>
</clipPath>
</defs>
<g>
<g>
<rect x="0" y="0" width="360" height="60" class="red"/>
<rect x="0" y="60" width="360" height="60" class="orange"/>
<rect x="0" y="120" width="360" height="60" class="yellow"/>
<rect x="0" y="180" width="360" height="60" class="green"/>
<rect x="0" y="240" width="360" height="60" class="blue"/>
<rect x="0" y="300" width="360" height="60" class="purple"/>
</g>
<g clip-path="url(#clip0)">
<path d="M 42.4264 -42.4264 L 42.4264 -42.4264 L 222.4264 137.5736 L 137.5736 222.4264 L -42.4264 42.4264 Z" class="black"/>
<path d="M 222.4264 222.4264 L 222.4264 222.4264 L 42.4264 402.4264 L -42.4264 317.5736 L 137.5736 137.5736 Z" class="black"/>
</g>
<g clip-path="url(#clip1)">
<path d="M 42.4264 -42.4264 L 42.4264 -42.4264 L 222.4264 137.5736 L 137.5736 222.4264 L -42.4264 42.4264 Z" class="white"/>
<path d="M 222.4264 222.4264 L 222.4264 222.4264 L 42.4264 402.4264 L -42.4264 317.5736 L 137.5736 137.5736 Z" class="white"/>
<path d="M 180 120 L 180 120 L 360 120 L 360 240 L 180 240 Z" class="white"/>
</g>
<g clip-path="url(#clip2)">
<g clip-path="url(#clip3)">
<g>
<rect x="0" y="0" width="360" height="60" class="red"/>
<rect x="0" y="60" width="360" height="60" class="orange"/>
<rect x="0" y="120" width="360" height="60" class="yellow"/>
<rect x="0" y="180" width="360" height="60" class="green"/>
<rect x="0" y="240" width="360" height="60" class="blue"/>
<rect x="0" y="300" width="360" height="60" class="purple"/>
</g>
</g>
</g>
</g>
</svg>
