<?xml version="1.0"?>
<svg xmlns="http://www.w3.org/2000/svg" xmlns:xlink="http://www.w3.org/1999/xlink" version="1.1" width="360" height="360" viewBox="0 0 360 360">
<!-- Generated by Kreative Vexillo v1.0 -->
<style>
.red{fill:rgb(255,0,0);}
.yellow{fill:rgb(255,255,0);}
</style>
<g>
<rect x="0" y="0" width="360" height="360" class="red"/>
<path d="M 0 0 L 0 63.6396 L 0 63.6396 L 116.3604 180 L 116.3604 180 L 0 296.3604 L 0 296.3604 L 0 360 L 63.6396 360 L 180 243.6396 L 180 243.6396 L 180 243.6396 L 180 243.6396 L 180 243.6396 L 180 243.6396 L 296.3604 360 L 360 360 L 360 296.3604 L 360 296.3604 L 243.6396 180 L 243.6396 180 L 360 63.6396 L 360 0 L 296.3604 0 L 180 116.3604 L 180 116.3604 L 180 116.3604 L 180 116.3604 L 180 116.3604 L 180 116.3604 L 63.6396 0 Z" class="yellow"/>
</g>
</svg>
