<?xml version="1.0"?>
<svg xmlns="http://www.w3.org/2000/svg" xmlns:xlink="http://www.w3.org/1999/xlink" version="1.1" width="360" height="360" viewBox="0 0 360 360">
<!-- Generated by Kreative Vexillo v1.0 -->
<style>
.blue{fill:rgb(0,101,189);}
.green{fill:rgb(0,154,73);}
.orange{fill:rgb(255,121,0);}
.white{fill:rgb(255,255,255);}
</style>
<defs>
<clipPath id="clip0">
<path d="M 0 360 L 360 0 L 360 360 Z"/>
</clipPath>
</defs>
<g>
<rect x="0" y="0" width="360" height="360" class="white"/>
<g>
<path d="M 0 0 L 360 0 L 0 360 Z" class="blue"/>
<path d="M 0 0 L 0 50.9117 L 129.0883 180 L 129.0883 180 L 0 309.0883 L 0 360 L 50.9117 360 L 180 230.9117 L 180 230.9117 L 180 230.9117 L 180 230.9117 L 180 230.9117 L 180 230.9117 L 309.0883 360 L 360 360 L 360 309.0883 L 360 309.0883 L 230.9117 180 L 230.9117 180 L 360 50.9117 L 360 0 L 309.0883 0 L 180 129.0883 L 180 129.0883 L 180 129.0883 L 180 129.0883 L 180 129.0883 L 180 129.0883 L 50.9117 0 Z" class="white"/>
</g>
<g clip-path="url(#clip0)">
<g>
<rect x="0" y="0" width="120" height="360" class="green"/>
<rect x="120" y="0" width="120" height="360" class="white"/>
<rect x="240" y="0" width="120" height="360" class="orange"/>
</g>
</g>
</g>
</svg>
