<?xml version="1.0"?>
<svg xmlns="http://www.w3.org/2000/svg" xmlns:xlink="http://www.w3.org/1999/xlink" version="1.1" width="720" height="360" viewBox="0 0 720 360">
<!-- Generated by Kreative Vexillo v1.0 -->
<style>
.brown{fill:rgb(128,32,0);}
.green{fill:rgb(0,128,0);}
.yellow{fill:rgb(255,224,0);}
</style>
<defs>
<path id="palm" d="M 1863.7 668.6 C 1865.9817 711.261 1861.693 767.738 1844.012 813.69995 C 1826.084 864.91595 1806.589 915.97 1807.554 969.00995 C 1779.052 978.70447 1749.677 907.332 1722.242 949.32196 C 1742.866 1007.33795 1790.481 1053.272 1823.1019 1105.542 C 1828.604 1121.747 1875.5399 1164.0599 1848.3829 1173.9 C 1779.8359 1150.4401 1763.221 1063.5901 1720.7029 1010.85004 C 1671.3229 922.093 1579.263 859.36005 1476.7029 855.03 C 1438.1788 856.0394 1312.9229 845.48206 1345.513 911.44904 C 1393.5099 944.08105 1452.653 965.359 1500.043 1001.986 C 1535.353 1005.28925 1599.353 1064.234 1595.622 1086.506 C 1533.5199 1061.353 1504.453 1031.207 1437.542 1004.748 C 1346.884 969.734 1221.4819 990.794 1171.292 1080.769 C 1161.9348 1104.202 1148.12 1172.5 1177.5468 1179.0071 C 1211.9308 1125.322 1261.1157 1065.3071 1333.9967 1081.4071 C 1391.2407 1085.8763 1270.1198 1188.0471 1316.4528 1167.4911 C 1331.1338 1160.9764 1365.0358 1138.722 1388.5548 1136.3981 C 1412.0728 1134.0741 1425.2078 1151.68 1443.0518 1154.1161 C 1478.7397 1158.9879 1488.5668 1173.9491 1485.2588 1182.6531 C 1481.3561 1192.9221 1470.0178 1184.1544 1433.7388 1195.6571 C 1415.5988 1201.4084 1406.1238 1217.3491 1384.9647 1224.6461 C 1363.8068 1231.9437 1319.7917 1232.4609 1303.3438 1225.9897 C 1245.7968 1200.9938 1151.4537 1205.3447 1133.5138 1277.4578 C 1133.4978 1309.1688 1105.2778 1273.954 1092.2358 1287.6538 C 1082.4563 1322.2568 1079.9269 1357.7858 1028.6028 1354.6438 C 997.44775 1387.3278 965.5428 1421.1708 925.9828 1444.4248 C 949.1978 1497.7089 1041.1827 1390.9088 1036.8828 1435.941 C 996.6728 1490.7731 1057.5718 1502.311 1084.2308 1460.107 C 1129.3188 1412.467 1185.1609 1354.477 1252.4408 1402.489 C 1284.4847 1432.658 1303.1047 1386.538 1326.2979 1389.008 C 1340.9099 1426.483 1359.2959 1390.8524 1375.8809 1380.258 C 1403.0309 1376.8756 1395.3918 1414.1681 1427.6519 1391.196 C 1491.9448 1348.645 1571.0419 1384.4 1633.8518 1342.999 C 1700.7039 1312.541 1643.2375 1367.531 1624.7859 1389.027 C 1595.4128 1445.997 1620.8862 1520.787 1557.1729 1556.167 C 1531.5798 1624.062 1587.4099 1713.567 1530.4658 1763.797 C 1522.1823 1795.293 1603.6998 1791.686 1626.5789 1804.629 C 1666.6688 1806.2167 1624.856 1712.871 1664.6328 1700.359 C 1717.9768 1733.378 1715.4788 1641.31 1704.4639 1612.912 C 1709.635 1548.36 1713.2781 1477.782 1745.3558 1419.312 C 1779.4579 1347.65 1811.0219 1448.498 1772.8468 1476.87 C 1751.1617 1542.766 1719.5968 1625.23 1768.9045 1686.51 C 1783.1156 1689.6903 1794.7836 1724.135 1813.1836 1734.722 S 1856.7146 1732.0377 1861.3016 1700.7001 C 1884.9026 1606.331 1873.0137 1504.8501 1906.7167 1413.0701 C 1930.5046 1384.64 1963.3197 1408.4861 1978.0717 1434.629 C 2025.3016 1489.462 2058.5017 1558.009 2115.6816 1603.189 C 2167.7446 1627.551 2213.7876 1664.3999 2237.7817 1717.999 C 2237.461 1759.352 2355.2317 1765.691 2320.0398 1719.7262 C 2286.2717 1674.9792 2308.5518 1630.2222 2342.755 1600.4662 C 2361.073 1604.9843 2355.659 1572.1772 2341.2966 1585.1542 C 2318.3015 1579.7297 2316.8306 1537.6422 2348.7932 1557.6472 C 2402.6292 1575.0262 2344.5962 1518.6852 2325.1382 1516.9573 C 2279.6182 1488.7423 2227.319 1456.2812 2204.9382 1407.2373 C 2264.1943 1407.8416 2325.7083 1439.8013 2386.2583 1419.9773 C 2434.7964 1395.0403 2484.0273 1422.0574 2500.9783 1464.8413 C 2538.4983 1458.854 2522.5022 1421.2273 2500.9783 1408.6953 C 2528.4214 1397.3704 2547.4004 1373.8903 2514.1252 1353.1803 C 2496.5513 1330.2463 2537.6912 1291.1283 2487.1243 1292.7583 C 2488.776 1254.1313 2473.5684 1218.7853 2431.4644 1205.4403 C 2389.2864 1169.7233 2265.5144 1258.0603 2269.1042 1177.5503 C 2256.6333 1133.7323 2319.3823 1171.6964 2336.9163 1149.8423 C 2355.0342 1103.6483 2250.5793 1108.1562 2285.0461 1072.3423 C 2307.5571 1057.8483 2413.196 1037.0283 2330.352 1021.5223 C 2289.0051 1032.8862 2253.52 1024.4712 2220.982 1004.0093 C 2191.325 1053.6123 2106.6418 977.0713 2121.73 1065.2603 C 2110.145 1098.4902 2034.452 1184.8302 2013.97 1118.6832 C 2031.392 1066.8383 2121.07 1049.8862 2093.261 979.9832 C 2088.9927 936.3472 2052.815 987.5719 2035.771 984.31824 C 2027.1401 957.15625 2061.874 925.14026 2086.083 918.69324 C 2134.121 955.64124 2135.576 872.0792 2181.261 878.87726 C 2214.616 871.4664 2170.49 857.15924 2161.187 850.8813 C 2170.3276 826.4653 2221.533 813.98926 2171.323 792.7873 C 2127.021 759.9153 2094.185 825.5073 2057.643 829.0053 C 2022.571 789.4103 2089.485 770.3773 2107.955 749.5263 C 2108.948 733.9833 2068.938 744.8369 2080.976 731.2973 C 2091.4321 712.6073 2162.277 711.2163 2129.101 683.1723 C 2079.136 666.0193 2014.6611 670.2963 1966.7211 692.51843 C 1936.5181 702.29584 1927.6321 770.5874 1901.5991 767.75543 C 1889.3591 737.3574 1905.5845 677.3834 1863.6821 668.58844 Z M 2099.95 1335.79 C 2138.022 1329.343 2100.758 1393.608 2082.45 1392.665 C 2084.0679 1369.573 2027.385 1371.796 2062.553 1351.677 C 2073.958 1344.3125 2086.665 1338.695 2099.95 1335.79 Z"/>
<path id="star5" d="M 0.0 -1.0 L 0.261238 -0.359563 L 0.951057 -0.309017 L 0.422691 0.137341 L 0.587785 0.809017 L 0.0 0.444444 L -0.587785 0.809017 L -0.422691 0.137341 L -0.951057 -0.309017 L -0.261238 -0.359563 Z"/>
<path id="star7" d="M 0.0 -1.0 L 0.192837 -0.40043 L 0.781831 -0.62349 L 0.433301 -0.098898 L 0.974928 0.222521 L 0.34748 0.277106 L 0.433884 0.900969 L 0.0 0.444444 L -0.433884 0.900969 L -0.34748 0.277106 L -0.974928 0.222521 L -0.433301 -0.098898 L -0.781831 -0.62349 L -0.192837 -0.40043 Z"/>
<path id="trunk" d="M 1654.1 2299.4 L 1928.77 2299.4 S 1941.168 2274.222 1926.0043 2261.6328 S 1851.7753 2246.2727 1867.7333 2201.7407 C 1900.5403 2110.1858 1905.1183 2138.4148 1925.7183 1920.9707 S 1956.2362 1362.4807 1956.2362 1362.4807 H 1916.5623 S 1924.1919 1468.5308 1901.3032 1606.6307 S 1871.5482 1756.9308 1846.3702 1862.9807 S 1817.3783 1978.1907 1794.4893 2039.9907 S 1769.3113 2104.8428 1733.4523 2162.0608 C 1697.5933 2219.2827 1710.5632 2197.9197 1690.7263 2232.2527 C 1680.8077 2249.4187 1668.6003 2244.8418 1661.9243 2257.3347 C 1655.2484 2269.8286 1654.1039 2299.3928 1654.1039 2299.3928 Z"/>
<linearGradient id="glaze" x1="0%" y1="0%" x2="100%" y2="100%">
<stop offset="0%" stop-color="rgb(255,255,255)" stop-opacity="0.2"/>
<stop offset="49.999%" stop-color="rgb(255,255,255)" stop-opacity="0.0"/>
<stop offset="50.001%" stop-color="rgb(0,0,0)" stop-opacity="0.0"/>
<stop offset="100%" stop-color="rgb(0,0,0)" stop-opacity="0.2"/>
</linearGradient>
</defs>
<g>
<rect x="0" y="0" width="720" height="360" class="green"/>
<ellipse cx="360" cy="180" rx="75" ry="75" class="yellow"/>
<ellipse cx="383.4" cy="180" rx="61.7143" ry="61.7143" class="green"/>
<g>
<use xlink:href="#star7" transform="translate(540 300) scale(25.7143 25.7143) rotate(0)" class="yellow"/>
<use xlink:href="#star7" transform="translate(450 157.5) scale(25.7143 25.7143) rotate(0)" class="yellow"/>
<use xlink:href="#star7" transform="translate(540 60) scale(25.7143 25.7143) rotate(0)" class="yellow"/>
<use xlink:href="#star7" transform="translate(620 133.5) scale(25.7143 25.7143) rotate(0)" class="yellow"/>
<use xlink:href="#star5" transform="translate(576 195) scale(15 15) rotate(0)" class="yellow"/>
</g>
<g>
<ellipse cx="123.5714" cy="105" rx="78.5714" ry="78.5714" class="yellow"/>
<use xlink:href="#trunk" transform="translate(0 0) scale(0.0714 0.0714) rotate(0)" class="brown"/>
<use xlink:href="#palm" transform="translate(0 0) scale(0.0714 0.0714) rotate(0)" class="green"/>
</g>
</g>
<g>
<rect x="0" y="0" width="720" height="360" fill="url(#glaze)"/>
<path d="M 30 30 L 690 30 L 690 330 L 30 330 Z M 60 60 L 60 300 L 660 300 L 660 60 Z" fill="rgb(255,255,255)" opacity="0.4"/>
<path d="M 0 0 L 720 0 L 720 360 L 0 360 Z M 30 30 L 30 330 L 690 330 L 690 30 Z" fill="rgb(0,0,0)" opacity="0.4"/>
</g>
</svg>
