<?xml version="1.0"?>
<svg xmlns="http://www.w3.org/2000/svg" xmlns:xlink="http://www.w3.org/1999/xlink" version="1.1" width="360" height="360" viewBox="0 0 360 360">
<!-- Generated by Kreative Vexillo v1.0 -->
<style>
.black{fill:rgb(0,0,0);}
.red{fill:rgb(255,0,0);}
.white{fill:rgb(255,255,255);}
</style>
<defs>
<path id="e1" d="M 0.2167 -0.2652 C 0.2157 -0.278 0.213 -0.29009998 0.2086 -0.3013 C 0.2182 -0.3082 0.224 -0.3195 0.2241 -0.33139998 C 0.2241 -0.35189998 0.2075 -0.36849996 0.1871 -0.36849996 C 0.1778 -0.36849996 0.1687 -0.36489996 0.1619 -0.35849997 C 0.1521 -0.36559996 0.1413 -0.37179998 0.1296 -0.37719998 C 0.1303 -0.37999997 0.1306 -0.38279998 0.1306 -0.3857 C 0.1306 -0.4062 0.11400001 -0.42279997 0.093600005 -0.42279997 C 0.0772 -0.42279997 0.0627 -0.41169998 0.058100004 -0.39619997 C 0.052700005 -0.39669997 0.047500003 -0.39699998 0.042400002 -0.39699998 C 0.035200004 -0.39709997 0.028000003 -0.3967 0.021000002 -0.396 C 0.016600002 -0.41189998 0.002100002 -0.4232 -0.014599998 -0.4232 C -0.014599998 -0.4232 -0.014599998 -0.4232 -0.014599998 -0.4232 C -0.034999996 -0.4232 -0.051599998 -0.4065 -0.051599998 -0.38610002 C -0.051599998 -0.38120002 -0.0506 -0.37640002 -0.0488 -0.37190002 C -0.06 -0.36620003 -0.0704 -0.36 -0.0799 -0.35360003 C -0.086899996 -0.3616 -0.0971 -0.36630002 -0.1077 -0.36630002 C -0.1281 -0.36630002 -0.14469999 -0.34960002 -0.14469999 -0.32920003 C -0.14469999 -0.31940004 -0.14079998 -0.31000003 -0.13399999 -0.30310002 C -0.14089999 -0.29380003 -0.14709999 -0.2838 -0.15229999 -0.27330002 C -0.15689999 -0.27530003 -0.16179998 -0.2763 -0.16679999 -0.2763 C -0.16679999 -0.2763 -0.16679999 -0.2763 -0.16679999 -0.2763 C -0.1872 -0.2763 -0.2038 -0.2596 -0.2038 -0.23920001 C -0.2038 -0.2211 -0.19109999 -0.20600002 -0.17369999 -0.20270002 C -0.1739 -0.20140001 -0.1741 -0.20020002 -0.17429999 -0.19890001 C -0.1765 -0.18250002 -0.17859998 -0.16680002 -0.18059999 -0.15160002 H -0.22269998 V -0.12370002 H -0.24939999 V -0.061300024 H -0.22269998 V -0.033400025 H -0.19489999 C -0.20069999 0.018299975 -0.20499998 0.061999973 -0.20869999 0.100599974 C -0.21919999 0.20749998 -0.22609998 0.27809995 -0.251 0.38399997 L -0.2523 0.38939998 L -0.247 0.38759997 C -0.22189999 0.37909997 -0.20089999 0.33569998 -0.1787 0.28969997 C -0.1696 0.27079996 -0.1602 0.25129998 -0.1507 0.23509997 L -0.10430001 0.42339998 L -0.09830001 0.42339998 L -0.04870001 0.22869998 C -0.03990001 0.24589998 -0.03200001 0.26599997 -0.024300009 0.2855 C -0.00630001 0.3313 0.012299992 0.3787 0.04419999 0.39209998 L 0.04929999 0.39429998 L 0.04839999 0.3888 C 0.0228 0.2339 0.0042 0.097 -0.009 -0.0335 H 0.0206 V -0.0614 H 0.0473 V -0.123799995 H 0.0206 V -0.15169999 H -0.019599998 C -0.022999998 -0.20269999 -0.012599998 -0.2207 0.004200002 -0.24989998 L 0.005600002 -0.2523 C 0.014900003 -0.2685 0.047300003 -0.2865 0.0789 -0.2865 C 0.097500004 -0.2865 0.13 -0.2795 0.1375 -0.2326 C 0.1404 -0.21450001 0.1376 -0.1999 0.1295 -0.1903 C 0.1229 -0.1825 0.1128 -0.17830001 0.1011 -0.17830001 C 0.0813 -0.17830001 0.0624 -0.18980001 0.053999998 -0.20680001 L 0.0523 -0.21020001 L 0.0072 -0.1744 L 0.010199999 -0.172 C 0.017099999 -0.1664 0.0232 -0.16000001 0.029199999 -0.15370001 C 0.0464 -0.13570002 0.0642 -0.11700001 0.100999996 -0.11700001 C 0.109 -0.11700001 0.117699996 -0.117900014 0.127 -0.11960001 C 0.1323 -0.105200015 0.1462 -0.09530001 0.16170001 -0.09530001 C 0.17160001 -0.09530001 0.18090001 -0.09920001 0.1879 -0.10620001 C 0.1949 -0.11320001 0.19870001 -0.12250001 0.19870001 -0.1324 C 0.19870001 -0.1409 0.1958 -0.1491 0.1904 -0.1557 C 0.1965 -0.1656 0.2018 -0.1778 0.2063 -0.192 C 0.20930001 -0.1912 0.2123 -0.1908 0.21540001 -0.1908 C 0.23580001 -0.1908 0.2524 -0.2075 0.2524 -0.2279 C 0.2524 -0.2481 0.2365 -0.2645 0.2167 -0.2652 Z"/>
<path id="e2" d="M -0.2434 -0.1176 H 0.0412 V -0.0675 H -0.2434 V -0.1176 Z M 0.0145 -0.0614 H -0.2166 V -0.0397 H 0.0145 V -0.0614 Z M -0.2166 -0.1238 H 0.0145 V -0.1455 H -0.2166 V -0.1238 Z M 0.1036 -0.1722 C 0.1089 -0.1704 0.1155 -0.16929999 0.12550001 -0.1695 C 0.1383 -0.1698 0.1507 -0.17539999 0.1596 -0.1848 C 0.17050001 -0.1963 0.17590001 -0.2133 0.1753 -0.2341 C 0.1755 -0.248 0.17130001 -0.263 0.1631 -0.2775 C 0.1533 -0.2947 0.14 -0.3097 0.1273 -0.3178 C 0.11119999 -0.3281 0.09459999 -0.3324 0.074599996 -0.3358 C 0.058599994 -0.3385 0.029499996 -0.3349 0.011699997 -0.3301 C -0.011500003 -0.3238 -0.034100004 -0.3123 -0.050100002 -0.2985 C -0.0665 -0.2844 -0.0766 -0.2706 -0.086 -0.249 C -0.1003 -0.21609999 -0.0994 -0.1899 -0.098500006 -0.1667 C -0.0983 -0.1615 -0.09810001 -0.15650001 -0.09810001 -0.1516 H -0.025700003 C -0.029100003 -0.2041 -0.018500004 -0.2227 -0.0011000037 -0.2528 L 2.9999623E-4 -0.2552 C 0.010399995 -0.2728 0.045199998 -0.2925 0.078899994 -0.2925 C 0.09949999 -0.2925 0.1353 -0.2848 0.1435 -0.23349999 C 0.1467 -0.2136 0.1434 -0.19729999 0.1341 -0.18629998 C 0.1268 -0.1777 0.116 -0.1728 0.1036 -0.1722 Z M 0.2154 -0.2591 C 0.21499999 -0.2591 0.2145 -0.2591 0.214 -0.259 L 0.21090001 -0.2588 L 0.2107 -0.2619 C 0.2099 -0.27600002 0.207 -0.2892 0.2019 -0.30130002 L 0.2009 -0.30370003 L 0.2031 -0.30510002 C 0.2122 -0.31070003 0.21779999 -0.32080004 0.21779999 -0.33150002 C 0.21779999 -0.34860003 0.204 -0.3625 0.18699999 -0.3625 C 0.1784 -0.3625 0.17019999 -0.3589 0.1644 -0.35250002 L 0.1625 -0.35050002 L 0.16029999 -0.35220003 C 0.14969999 -0.36010003 0.13769999 -0.36710003 0.124599986 -0.37290004 L 0.12209999 -0.37400004 L 0.12289999 -0.37660006 C 0.12379999 -0.37960005 0.12429999 -0.38270006 0.12429999 -0.38590005 C 0.12429999 -0.40300006 0.110499986 -0.41690004 0.09349999 -0.41690004 C 0.07909999 -0.41690004 0.06639999 -0.40660003 0.063399985 -0.39240003 L 0.06279998 -0.38970003 L 0.06009998 -0.39000002 C 0.053999983 -0.39060003 0.04799998 -0.391 0.042299982 -0.39110002 C 0.034399983 -0.3912 0.026599983 -0.39080003 0.018999983 -0.3898 L 0.016099982 -0.3894 L 0.015499982 -0.3922 C 0.012699982 -0.4067 -1.7695129E-8 -0.4172 -0.014700019 -0.4172 C -0.03170002 -0.4172 -0.045500018 -0.4033 -0.045500018 -0.3862 C -0.045500018 -0.3813 -0.044300016 -0.37640002 -0.042000018 -0.372 L -0.040600017 -0.36920002 L -0.043400016 -0.36780003 C -0.056300014 -0.36130002 -0.068200015 -0.35430002 -0.078800015 -0.34700003 L -0.08120002 -0.34530002 L -0.08300002 -0.34770003 C -0.08880002 -0.35550004 -0.09800002 -0.36020002 -0.10770002 -0.36020002 C -0.124700025 -0.36020002 -0.13850002 -0.3463 -0.13850002 -0.32920003 C -0.13850002 -0.32020003 -0.13460001 -0.31160003 -0.12780002 -0.30580002 L -0.12560001 -0.30390003 L -0.12740001 -0.30160004 C -0.13540001 -0.29120004 -0.14240001 -0.27980003 -0.14810002 -0.26790005 L -0.14950001 -0.26500005 L -0.15230002 -0.26650006 C -0.15670002 -0.26890007 -0.16180001 -0.27010006 -0.16680002 -0.27020004 C -0.18380003 -0.27020004 -0.19760002 -0.25630003 -0.19760002 -0.23920004 C -0.19760002 -0.22320004 -0.18560003 -0.21000004 -0.16980003 -0.20840004 L -0.16650003 -0.20810004 L -0.16700003 -0.20490004 C -0.16740003 -0.20270005 -0.16770002 -0.20040004 -0.16800003 -0.19820005 C -0.17020002 -0.18210004 -0.17220002 -0.16670005 -0.17420003 -0.15170005 H -0.104000024 C -0.104000024 -0.15650006 -0.10420003 -0.16150005 -0.104400024 -0.16660005 C -0.105300024 -0.19040005 -0.106200024 -0.21740004 -0.09140003 -0.25160006 C -0.081600025 -0.27410007 -0.07110003 -0.28860006 -0.053900026 -0.30330005 C -0.037200026 -0.31760004 -0.013800025 -0.32960007 0.010299973 -0.33610004 C 0.026199974 -0.34040004 0.056999974 -0.34510005 0.07579997 -0.34190005 C 0.09369997 -0.33890006 0.11279997 -0.33450004 0.13079998 -0.32310006 C 0.14449997 -0.31440005 0.15819998 -0.29890007 0.16849998 -0.28060007 C 0.17719997 -0.26510006 0.18169998 -0.24910007 0.18149997 -0.23420008 C 0.18219997 -0.21190007 0.17619997 -0.19330007 0.16419998 -0.18060008 C 0.15419997 -0.17010008 0.14019997 -0.16380008 0.12579998 -0.16340008 C 0.10759998 -0.16290009 0.099399984 -0.16700009 0.09139998 -0.17090008 C 0.08809999 -0.17250007 0.084999986 -0.17400007 0.08119998 -0.17530008 L 0.08129998 -0.17570008 C 0.06829998 -0.18030009 0.057099983 -0.18920009 0.050199986 -0.20080009 L 0.017099984 -0.17440009 C 0.023099985 -0.1692001 0.028499983 -0.16360009 0.033699982 -0.1581001 C 0.05079998 -0.1402001 0.066899985 -0.1233001 0.10099998 -0.1233001 C 0.10929998 -0.1233001 0.11849998 -0.1243001 0.12849998 -0.1264001 L 0.13129999 -0.1270001 L 0.13209999 -0.12420009 C 0.13579999 -0.11090009 0.14799999 -0.10170009 0.16179998 -0.10170009 C 0.16999999 -0.10170009 0.17779998 -0.10490009 0.18359998 -0.11080009 C 0.18939997 -0.11660009 0.19259998 -0.12440009 0.19259998 -0.13270009 C 0.19259998 -0.14050008 0.18969998 -0.14790009 0.18439998 -0.15370008 L 0.18279998 -0.15540008 L 0.18409999 -0.15740009 C 0.19079998 -0.16780008 0.19659999 -0.18110009 0.20139998 -0.19710009 L 0.20229998 -0.20020008 L 0.20529999 -0.19910008 C 0.20859998 -0.19800007 0.21199998 -0.19740008 0.21539998 -0.19740008 C 0.23239999 -0.19740008 0.24619998 -0.21130008 0.24619998 -0.22840008 C 0.2462 -0.2452 0.2324 -0.2591 0.2154 -0.2591 Z M -0.1887 -0.0335 C -0.1945 0.0185 -0.1988 0.062299997 -0.2026 0.1011 C -0.2129 0.2062 -0.21970001 0.2762 -0.24360001 0.3791 C -0.2229 0.3669 -0.20330001 0.3262 -0.1843 0.28689998 C -0.17390001 0.26529998 -0.1631 0.24299999 -0.1521 0.22539999 L -0.14819999 0.21919999 L -0.104499996 0.39659998 C -0.104899995 0.32009998 -0.106199995 0.09319997 -0.1077 -0.033500016 H -0.1887 Z M -0.1017 -0.0335 C -0.1001 0.0943 -0.0988 0.324 -0.0985 0.39850003 L -0.051 0.21190003 L -0.047199998 0.21860002 C -0.0367 0.23750001 -0.027499998 0.26070002 -0.018699998 0.2831 C -0.0021999981 0.32500002 0.014800003 0.36830002 0.0413 0.3837 C 0.0162 0.231 -0.0022 0.0956 -0.0152 -0.0335 H -0.1017 Z"/>
<linearGradient id="glaze" x1="0%" y1="0%" x2="100%" y2="100%">
<stop offset="0%" stop-color="rgb(255,255,255)" stop-opacity="0.2"/>
<stop offset="49.999%" stop-color="rgb(255,255,255)" stop-opacity="0.0"/>
<stop offset="50.001%" stop-color="rgb(0,0,0)" stop-opacity="0.0"/>
<stop offset="100%" stop-color="rgb(0,0,0)" stop-opacity="0.2"/>
</linearGradient>
</defs>
<g>
<rect x="0" y="0" width="360" height="360" class="white"/>
<use xlink:href="#e1" transform="translate(180 180) scale(360 360) rotate(0)" class="black"/>
<use xlink:href="#e2" transform="translate(180 180) scale(360 360) rotate(0)" class="red"/>
</g>
<g>
<rect x="0" y="0" width="360" height="360" fill="url(#glaze)"/>
<path d="M 30 30 L 330 30 L 330 330 L 30 330 Z M 60 60 L 60 300 L 300 300 L 300 60 Z" fill="rgb(255,255,255)" opacity="0.4"/>
<path d="M 0 0 L 360 0 L 360 360 L 0 360 Z M 30 30 L 30 330 L 330 330 L 330 30 Z" fill="rgb(0,0,0)" opacity="0.4"/>
</g>
</svg>
