<?xml version="1.0"?>
<svg xmlns="http://www.w3.org/2000/svg" xmlns:xlink="http://www.w3.org/1999/xlink" version="1.1" width="540" height="360" viewBox="0 0 540 360">
<!-- Generated by Kreative Vexillo v1.0 -->
<style>
.green{fill:rgb(0,105,63);}
.white{fill:rgb(255,255,255);}
</style>
<defs>
<path id="e" d="M 0.0 0.5 H -2.0E-4 C -0.2757 0.4999 -0.4999 0.2757 -0.5 2.0E-4 C -0.5001 -0.1334 -0.4481 -0.2589 -0.35369998 -0.3534 S -0.1338 -0.4999 -2.0E-4 -0.5 C 0.2756 -0.5 0.4999 -0.2758 0.5 -2.0E-4 V 2.0E-4 C 0.4999 0.2758 0.2756 0.5 0.0 0.5 Z M 0.0 -0.4326 C -0.1157 -0.4325 -0.2243 -0.3875 -0.306 -0.3058 C -0.3877 -0.2241 -0.4326 -0.11539999 -0.4326 1.00016594E-4 C -0.4325 0.23840001 -0.23849998 0.43240002 -2.0000339E-4 0.4325 L -3.3905962E-9 0.4662 V 0.4326 C 0.2384 0.4326 0.4325 0.23859999 0.4326 2.0000339E-4 V -1.999966E-4 C 0.4325 -0.2386 0.2384 -0.4326 0.0 -0.4326 Z M 0.2876 -0.202 V -0.2919 H 0.1641 V -0.3503 H 0.074200004 V -0.2919 H -0.049499996 V -0.202 V 0.2069 H -0.2113 V -0.202 H -0.1753 V 0.1732 H -0.0854 V -0.292 L -0.30110002 -0.2919 V -0.202 V 0.29689997 H 0.0404 V -0.202 H 0.0743 V -0.07620001 H 0.16420001 H 0.19780001 V 0.2069 H 0.1641 V -0.0402 H 0.074200004 V 0.2969 H 0.28750002 V -0.1661 H 0.1641 V -0.2021 H 0.2876 Z"/>
<linearGradient id="glaze" x1="0%" y1="0%" x2="100%" y2="100%">
<stop offset="0%" stop-color="rgb(255,255,255)" stop-opacity="0.2"/>
<stop offset="49.999%" stop-color="rgb(255,255,255)" stop-opacity="0.0"/>
<stop offset="50.001%" stop-color="rgb(0,0,0)" stop-opacity="0.0"/>
<stop offset="100%" stop-color="rgb(0,0,0)" stop-opacity="0.2"/>
</linearGradient>
</defs>
<g>
<rect x="0" y="0" width="540" height="360" class="white"/>
<use xlink:href="#e" transform="translate(270 180) scale(216 216) rotate(0)" class="green"/>
</g>
<g>
<rect x="0" y="0" width="540" height="360" fill="url(#glaze)"/>
<path d="M 30 30 L 510 30 L 510 330 L 30 330 Z M 60 60 L 60 300 L 480 300 L 480 60 Z" fill="rgb(255,255,255)" opacity="0.4"/>
<path d="M 0 0 L 540 0 L 540 360 L 0 360 Z M 30 30 L 30 330 L 510 330 L 510 30 Z" fill="rgb(0,0,0)" opacity="0.4"/>
</g>
</svg>
