<?xml version="1.0"?>
<svg xmlns="http://www.w3.org/2000/svg" xmlns:xlink="http://www.w3.org/1999/xlink" version="1.1" width="504" height="360" viewBox="0 0 504 360">
<!-- Generated by Kreative Vexillo v1.0 -->
<style>
.green{fill:rgb(21,153,57);}
.yellow{fill:rgb(255,255,1);}
</style>
<defs>
<path id="e" d="M -0.6989 -0.5135 H 0.0068 L -0.2259 -0.1712 H 0.45880002 L 0.2259 0.1712 H 0.9503 L 0.7187 0.4865 H -0.0083 L 0.2245 0.1441 H -0.4602 L -0.2274 -0.1982 H -0.93050003 L -0.6989 -0.5135 Z"/>
<linearGradient id="glaze" x1="0%" y1="0%" x2="100%" y2="100%">
<stop offset="0%" stop-color="rgb(255,255,255)" stop-opacity="0.2"/>
<stop offset="49.999%" stop-color="rgb(255,255,255)" stop-opacity="0.0"/>
<stop offset="50.001%" stop-color="rgb(0,0,0)" stop-opacity="0.0"/>
<stop offset="100%" stop-color="rgb(0,0,0)" stop-opacity="0.2"/>
</linearGradient>
</defs>
<g>
<rect x="0" y="0" width="504" height="360" class="green"/>
<use xlink:href="#e" transform="translate(252 180) scale(199.8 199.8) rotate(0)" class="yellow"/>
</g>
<g>
<rect x="0" y="0" width="504" height="360" fill="url(#glaze)"/>
<path d="M 30 30 L 474 30 L 474 330 L 30 330 Z M 60 60 L 60 300 L 444 300 L 444 60 Z" fill="rgb(255,255,255)" opacity="0.4"/>
<path d="M 0 0 L 504 0 L 504 360 L 0 360 Z M 30 30 L 30 330 L 474 330 L 474 30 Z" fill="rgb(0,0,0)" opacity="0.4"/>
</g>
</svg>
