<?xml version="1.0"?>
<svg xmlns="http://www.w3.org/2000/svg" xmlns:xlink="http://www.w3.org/1999/xlink" version="1.1" width="520" height="360" viewBox="0 0 520 360">
<!-- Generated by Kreative Vexillo v1.0 -->
<style>
.blue{fill:rgb(1,85,165);}
.red{fill:rgb(238,62,52);}
.white{fill:rgb(255,255,255);}
</style>
<defs>
<path id="seeblatt" d="M -0.0141 0.5106 C -0.30040002 0.47229996 -0.5141 0.22799999 -0.5141 -0.060800016 C -0.5142 -0.2185 -0.4022 -0.3465 -0.2642 -0.3465 C -0.15560001 -0.3476 -0.0635 -0.24020001 -0.049899995 -0.09650001 C -0.049899995 -0.07680001 -0.033899993 -0.06080001 -0.0141999945 -0.06080001 C 0.0055000056 -0.06080001 0.021500006 -0.07680001 0.021500006 -0.09650001 C 0.0351 -0.2402 0.1272 -0.3476 0.2358 -0.3465 C 0.3739 -0.3465 0.4858 -0.2186 0.4858 -0.060800016 C 0.4859 0.228 0.2722 0.4723 -0.0141 0.5106 Z"/>
<linearGradient id="glaze" x1="0%" y1="0%" x2="100%" y2="100%">
<stop offset="0%" stop-color="rgb(255,255,255)" stop-opacity="0.2"/>
<stop offset="49.999%" stop-color="rgb(255,255,255)" stop-opacity="0.0"/>
<stop offset="50.001%" stop-color="rgb(0,0,0)" stop-opacity="0.0"/>
<stop offset="100%" stop-color="rgb(0,0,0)" stop-opacity="0.2"/>
</linearGradient>
</defs>
<g>
<rect x="0" y="0" width="520" height="360" class="white"/>
<path d="M 371.4286 0 L 520 0 L 520 102.8571 Z" class="blue"/>
<path d="M 74.2857 0 L 222.8571 0 L 520 205.7143 L 520 308.5714 Z" class="blue"/>
<path d="M 0 154.2857 L 0 51.4286 L 445.7143 360 L 297.1429 360 Z" class="blue"/>
<path d="M 0 257.1429 L 148.5714 360 L 0 360 Z" class="blue"/>
<use xlink:href="#seeblatt" transform="translate(56.316 237.312) scale(74 74) rotate(34.6952)" class="red"/>
<use xlink:href="#seeblatt" transform="translate(146.432 299.7) scale(74 74) rotate(34.6952)" class="red"/>
<use xlink:href="#seeblatt" transform="translate(125.632 79.596) scale(74 74) rotate(34.6952)" class="red"/>
<use xlink:href="#seeblatt" transform="translate(264.316 175.608) scale(74 74) rotate(34.6952)" class="red"/>
<use xlink:href="#seeblatt" transform="translate(403 271.584) scale(74 74) rotate(34.6952)" class="red"/>
<use xlink:href="#seeblatt" transform="translate(382.2 51.516) scale(74 74) rotate(34.6952)" class="red"/>
<use xlink:href="#seeblatt" transform="translate(472.316 113.904) scale(74 74) rotate(34.6952)" class="red"/>
</g>
<g>
<rect x="0" y="0" width="520" height="360" fill="url(#glaze)"/>
<path d="M 30 30 L 490 30 L 490 330 L 30 330 Z M 60 60 L 60 300 L 460 300 L 460 60 Z" fill="rgb(255,255,255)" opacity="0.4"/>
<path d="M 0 0 L 520 0 L 520 360 L 0 360 Z M 30 30 L 30 330 L 490 330 L 490 30 Z" fill="rgb(0,0,0)" opacity="0.4"/>
</g>
</svg>
