<?xml version="1.0"?>
<svg xmlns="http://www.w3.org/2000/svg" xmlns:xlink="http://www.w3.org/1999/xlink" version="1.1" width="295" height="360" viewBox="0 0 295 360">
<!-- Generated by Kreative Vexillo v1.0 -->
<style>
.blue{fill:rgb(0,83,155);}
.red{fill:rgb(227,24,55);}
.white{fill:rgb(255,255,255);}
</style>
<defs>
<path id="-glazearea" d="M 0.0 0.0 L 1.0 0.5137 L 0.3687 0.5137 L 0.9615 1.0 L 0.0 1.0 Z"/>
<path id="moon" d="M -1.0 -0.4653 A 1.0 1.0 0.0 0 0 1.0 -0.4653 A 1.0745 1.0745 0.0 0 1 -1.0 -0.4653 Z"/>
<path id="ssun" d="M 0.72 0.0 L 0.981 -0.195 L 0.665 -0.276 L 0.831 -0.556 L 0.509 -0.509 L 0.556 -0.831 L 0.276 -0.665 L 0.195 -0.981 L 0.0 -0.72 L -0.195 -0.981 L -0.276 -0.665 L -0.556 -0.831 L -0.509 -0.509 L -0.831 -0.556 L -0.665 -0.276 L -0.981 -0.195 L -0.72 0.0 L -0.981 0.195 L -0.665 0.276 L -0.831 0.556 L -0.509 0.509 L -0.556 0.831 L -0.276 0.665 L -0.195 0.981 L 0.0 0.72 L 0.195 0.981 L 0.276 0.665 L 0.556 0.831 L 0.509 0.509 L 0.831 0.556 L 0.665 0.276 L 0.981 0.195 Z"/>
<path id="sun" d="M 1.0 0.0 L 0.581 -0.156 L 0.866 -0.5 L 0.425 -0.425 L 0.5 -0.866 L 0.156 -0.581 L 0.0 -1.0 L -0.156 -0.581 L -0.5 -0.866 L -0.425 -0.425 L -0.866 -0.5 L -0.581 -0.156 L -1.0 0.0 L -0.581 0.156 L -0.866 0.5 L -0.425 0.425 L -0.5 0.866 L -0.156 0.581 L 0.0 1.0 L 0.156 0.581 L 0.5 0.866 L 0.425 0.425 L 0.866 0.5 L 0.581 0.156 Z"/>
<clipPath id="clip0">
<rect x="0" y="0" width="295" height="157.5975"/>
</clipPath>
<linearGradient id="glaze" x1="0%" y1="0%" x2="100%" y2="100%">
<stop offset="0%" stop-color="rgb(255,255,255)" stop-opacity="0.2"/>
<stop offset="49.999%" stop-color="rgb(255,255,255)" stop-opacity="0.0"/>
<stop offset="50.001%" stop-color="rgb(0,0,0)" stop-opacity="0.0"/>
<stop offset="100%" stop-color="rgb(0,0,0)" stop-opacity="0.2"/>
</linearGradient>
</defs>
<g>
<path d="M -0.162 0 L 295.162 184.9378 L 108.7309 184.9378 L 283.7944 360 L -0.162 360 Z" class="blue"/>
<path d="M 10.4933 19.2511 L 258.0635 174.2844 L 83.0053 174.2844 L 258.0635 349.3446 L 10.4933 349.3446 Z" class="red"/>
<g clip-path="url(#clip0)">
<use xlink:href="#ssun" transform="translate(72.3859 139.094) scale(31.8669 31.8669) rotate(0)" class="white"/>
</g>
<use xlink:href="#moon" transform="translate(72.3859 139.094) scale(49.3069 49.3069) rotate(0)" class="white"/>
<use xlink:href="#sun" transform="translate(72.3859 261.8145) scale(52.9803 52.9803) rotate(0)" class="white"/>
</g>
<g>
<path d="M -0.162 0 L 295.162 184.932 L 108.724 184.932 L 283.792 360 L -0.162 360 Z" fill="url(#glaze)"/>
<path d="M 59.838 108.3651 L 86.2943 124.932 L 59.838 124.932 L 59.838 108.3651 Z M 59.838 220.8988 L 66.2975 227.3584 L 138.9392 300 L 59.838 300 L 59.838 220.8988 Z M 29.838 54.1825 L 29.838 330 L 211.3656 330 L 87.5107 206.1452 L 36.2975 154.932 L 190.7281 154.932 L 29.838 54.1825 Z" fill="rgb(255,255,255)" opacity="0.4"/>
<path d="M 29.838 54.1825 L 190.7281 154.932 L 36.2975 154.932 L 87.5107 206.1452 L 211.3656 330 L 29.838 330 L 29.838 54.1825 Z M -0.162 0 L -0.162 360 L 283.792 360 L 108.724 184.932 L 295.162 184.932 L -0.162 0 Z" fill="rgb(0,0,0)" opacity="0.4"/>
</g>
</svg>
