<?xml version="1.0"?>
<svg xmlns="http://www.w3.org/2000/svg" xmlns:xlink="http://www.w3.org/1999/xlink" version="1.1" width="916" height="360" viewBox="0 0 916 360">
<!-- Generated by Kreative Vexillo v1.0 -->
<style>
.maroon{fill:rgb(122,0,60);}
.white{fill:rgb(255,255,255);}
</style>
<defs>
<linearGradient id="glaze" x1="0%" y1="0%" x2="100%" y2="100%">
<stop offset="0%" stop-color="rgb(255,255,255)" stop-opacity="0.2"/>
<stop offset="49.999%" stop-color="rgb(255,255,255)" stop-opacity="0.0"/>
<stop offset="50.001%" stop-color="rgb(0,0,0)" stop-opacity="0.0"/>
<stop offset="100%" stop-color="rgb(0,0,0)" stop-opacity="0.2"/>
</linearGradient>
</defs>
<g>
<rect x="0" y="0" width="916" height="360" class="maroon"/>
<path d="M 0 0 L 261.7143 0 L 327.1429 20 L 261.7143 40 L 327.1429 60 L 261.7143 80 L 327.1429 100 L 261.7143 120 L 327.1429 140 L 261.7143 160 L 327.1429 180 L 261.7143 200 L 327.1429 220 L 261.7143 240 L 327.1429 260 L 261.7143 280 L 327.1429 300 L 261.7143 320 L 327.1429 340 L 261.7143 360 L 0 360 Z" class="white"/>
</g>
<g>
<rect x="0" y="0" width="916" height="360" fill="url(#glaze)"/>
<path d="M 30 30 L 886 30 L 886 330 L 30 330 Z M 60 60 L 60 300 L 856 300 L 856 60 Z" fill="rgb(255,255,255)" opacity="0.4"/>
<path d="M 0 0 L 916 0 L 916 360 L 0 360 Z M 30 30 L 30 330 L 886 330 L 886 30 Z" fill="rgb(0,0,0)" opacity="0.4"/>
</g>
</svg>
