<?xml version="1.0"?>
<svg xmlns="http://www.w3.org/2000/svg" xmlns:xlink="http://www.w3.org/1999/xlink" version="1.1" width="600" height="360" viewBox="0 0 600 360">
<!-- Generated by Kreative Vexillo v1.0 -->
<style>
.blue{fill:rgb(75,146,219);}
.green{fill:rgb(0,105,60);}
.white{fill:rgb(255,255,255);}
.yellow{fill:rgb(255,182,18);}
</style>
<defs>
<clipPath id="clip0">
<rect x="220" y="135" width="90" height="90"/>
</clipPath>
<linearGradient id="glaze" x1="0%" y1="0%" x2="100%" y2="100%">
<stop offset="0%" stop-color="rgb(255,255,255)" stop-opacity="0.2"/>
<stop offset="49.999%" stop-color="rgb(255,255,255)" stop-opacity="0.0"/>
<stop offset="50.001%" stop-color="rgb(0,0,0)" stop-opacity="0.0"/>
<stop offset="100%" stop-color="rgb(0,0,0)" stop-opacity="0.2"/>
</linearGradient>
</defs>
<g>
<rect x="0" y="0" width="600" height="360" class="green"/>
<path d="M 0 145 L 180 145 L 180 0 L 300 0 L 300 95 L 600 95 L 600 215 L 350 215 L 350 360 L 230 360 L 230 265 L 0 265 Z" class="white"/>
<path d="M 0 155 L 190 155 L 190 0 L 290 0 L 290 105 L 600 105 L 600 205 L 340 205 L 340 360 L 240 360 L 240 255 L 0 255 Z" class="yellow"/>
<path d="M 0 175 L 210 175 L 210 0 L 270 0 L 270 125 L 600 125 L 600 185 L 320 185 L 320 360 L 260 360 L 260 235 L 0 235 Z" class="white"/>
<path d="M 0 185 L 220 185 L 260 225 L 0 225 Z" class="blue"/>
<path d="M 220 0 L 260 0 L 260 135 L 220 175 Z" class="blue"/>
<path d="M 600 135 L 600 175 L 310 175 L 270 135 Z" class="blue"/>
<path d="M 270 360 L 270 225 L 310 185 L 310 360 Z" class="blue"/>
<g clip-path="url(#clip0)">
<ellipse cx="220" cy="135" rx="40" ry="40" class="blue"/>
<ellipse cx="310" cy="135" rx="40" ry="40" class="blue"/>
<ellipse cx="220" cy="225" rx="40" ry="40" class="blue"/>
<ellipse cx="310" cy="225" rx="40" ry="40" class="blue"/>
</g>
</g>
<g>
<rect x="0" y="0" width="600" height="360" fill="url(#glaze)"/>
<path d="M 30 30 L 570 30 L 570 330 L 30 330 Z M 60 60 L 60 300 L 540 300 L 540 60 Z" fill="rgb(255,255,255)" opacity="0.4"/>
<path d="M 0 0 L 600 0 L 600 360 L 0 360 Z M 30 30 L 30 330 L 570 330 L 570 30 Z" fill="rgb(0,0,0)" opacity="0.4"/>
</g>
</svg>
