<?xml version="1.0"?>
<svg xmlns="http://www.w3.org/2000/svg" xmlns:xlink="http://www.w3.org/1999/xlink" version="1.1" width="360" height="360" viewBox="0 0 360 360">
<!-- Generated by Kreative Vexillo v1.0 -->
<style>
.blue{fill:rgb(0,0,255);}
.green{fill:rgb(0,255,0);}
</style>
<defs>
<path id="-glazearea" d="M 0.0 0.0 L 1.0 0.0 L 0.75 0.5 L 1.0 1.0 L 0.0 1.0 Z"/>
<clipPath id="clip0">
<path d="M 0 0 L 360 0 L 270 180 L 360 360 L 0 360 Z"/>
</clipPath>
<linearGradient id="glaze" x1="0%" y1="0%" x2="100%" y2="100%">
<stop offset="0%" stop-color="rgb(255,255,255)" stop-opacity="0.2"/>
<stop offset="49.999%" stop-color="rgb(255,255,255)" stop-opacity="0.0"/>
<stop offset="50.001%" stop-color="rgb(0,0,0)" stop-opacity="0.0"/>
<stop offset="100%" stop-color="rgb(0,0,0)" stop-opacity="0.2"/>
</linearGradient>
</defs>
<g>
<g clip-path="url(#clip0)">
<g>
<rect x="0" y="0" width="60" height="360" class="green"/>
<rect x="60" y="0" width="60" height="360" class="blue"/>
<rect x="120" y="0" width="60" height="360" class="green"/>
<rect x="180" y="0" width="60" height="360" class="blue"/>
<rect x="240" y="0" width="60" height="360" class="green"/>
<rect x="300" y="0" width="60" height="360" class="blue"/>
</g>
</g>
</g>
<g>
<path d="M 0 0 L 360 0 L 270 180 L 360 360 L 0 360 Z" fill="url(#glaze)"/>
<path d="M 262.918 60 L 216.324 153.1879 L 202.9309 180 L 216.324 206.8121 L 262.918 300 L 60 300 L 60 60 Z M 30 30 L 30 330 L 311.459 330 L 243.162 193.4061 L 236.4654 180 L 243.162 166.5939 L 311.459 30 Z" fill="rgb(255,255,255)" opacity="0.4"/>
<path d="M 311.459 30 L 243.162 166.5939 L 236.4654 180 L 243.162 193.4061 L 311.459 330 L 30 330 L 30 30 Z M 0 0 L 0 360 L 360 360 L 270 180 L 360 0 Z" fill="rgb(0,0,0)" opacity="0.4"/>
</g>
</svg>
