<?xml version="1.0"?>
<svg xmlns="http://www.w3.org/2000/svg" xmlns:xlink="http://www.w3.org/1999/xlink" version="1.1" width="509" height="360" viewBox="0 0 509 360">
<!-- Generated by Kreative Vexillo v1.0 -->
<style>
.blue{fill:rgb(0,0,255);}
.green{fill:rgb(62,194,97);}
.purple{fill:rgb(153,102,204);}
.red{fill:rgb(255,0,0);}
.yellow{fill:rgb(255,255,0);}
</style>
<defs>
<path id="star" d="M 0.0 -1.0 L 0.2245 -0.309 L 0.9511 -0.309 L 0.3633 0.118 L 0.5878 0.809 L 0.0 0.382 L -0.5878 0.809 L -0.3633 0.118 L -0.9511 -0.309 L -0.2245 -0.309 Z"/>
<linearGradient id="glaze" x1="0%" y1="0%" x2="100%" y2="100%">
<stop offset="0%" stop-color="rgb(255,255,255)" stop-opacity="0.2"/>
<stop offset="49.999%" stop-color="rgb(255,255,255)" stop-opacity="0.0"/>
<stop offset="50.001%" stop-color="rgb(0,0,0)" stop-opacity="0.0"/>
<stop offset="100%" stop-color="rgb(0,0,0)" stop-opacity="0.2"/>
</linearGradient>
</defs>
<g>
<g>
<rect x="0" y="0" width="254.5" height="360" class="blue"/>
<rect x="254.5" y="0" width="254.5" height="360" class="yellow"/>
</g>
<path d="M 0 0 L 509 0 L 254.5 180 Z" class="purple"/>
<path d="M 509 360 L 0 360 L 254.5 180 Z" class="red"/>
<use xlink:href="#star" transform="translate(254.5 187.632) scale(72 72) rotate(0)" class="green"/>
</g>
<g>
<rect x="0" y="0" width="509" height="360" fill="url(#glaze)"/>
<path d="M 30 30 L 479 30 L 479 330 L 30 330 Z M 60 60 L 60 300 L 449 300 L 449 60 Z" fill="rgb(255,255,255)" opacity="0.4"/>
<path d="M 0 0 L 509 0 L 509 360 L 0 360 Z M 30 30 L 30 330 L 479 330 L 479 30 Z" fill="rgb(0,0,0)" opacity="0.4"/>
</g>
</svg>
