<?xml version="1.0"?>
<svg xmlns="http://www.w3.org/2000/svg" xmlns:xlink="http://www.w3.org/1999/xlink" version="1.1" width="540" height="360" viewBox="0 0 540 360">
<!-- Generated by Kreative Vexillo v1.0 -->
<style>
.black{fill:rgb(0,0,0);}
.blue{fill:rgb(24,24,107);}
.red{fill:rgb(231,0,57);}
.white{fill:rgb(255,255,255);}
</style>
<defs>
<path id="heart" d="M 0.0 0.5 C 0.0 0.5 -0.5 0.06 -0.5 -0.25 C -0.5 -0.39 -0.39 -0.5 -0.25 -0.5 C -0.11 -0.5 0.0 -0.3 0.0 -0.3 C 0.0 -0.3 0.11 -0.5 0.25 -0.5 C 0.39 -0.5 0.5 -0.39 0.5 -0.25 C 0.5 0.06 0.0 0.5 0.0 0.5 Z"/>
<linearGradient id="glaze" x1="0%" y1="0%" x2="100%" y2="100%">
<stop offset="0%" stop-color="rgb(255,255,255)" stop-opacity="0.2"/>
<stop offset="49.999%" stop-color="rgb(255,255,255)" stop-opacity="0.0"/>
<stop offset="50.001%" stop-color="rgb(0,0,0)" stop-opacity="0.0"/>
<stop offset="100%" stop-color="rgb(0,0,0)" stop-opacity="0.2"/>
</linearGradient>
</defs>
<g>
<g>
<rect x="0" y="0" width="540" height="40" class="black"/>
<rect x="0" y="40" width="540" height="40" class="blue"/>
<rect x="0" y="80" width="540" height="40" class="black"/>
<rect x="0" y="120" width="540" height="40" class="blue"/>
<rect x="0" y="160" width="540" height="40" class="white"/>
<rect x="0" y="200" width="540" height="40" class="blue"/>
<rect x="0" y="240" width="540" height="40" class="black"/>
<rect x="0" y="280" width="540" height="40" class="blue"/>
<rect x="0" y="320" width="540" height="40" class="black"/>
</g>
<use xlink:href="#heart" transform="translate(131.04 95.04) scale(138.96 138.96) rotate(-40)" class="red"/>
</g>
<g>
<rect x="0" y="0" width="540" height="360" fill="url(#glaze)"/>
<path d="M 30 30 L 510 30 L 510 330 L 30 330 Z M 60 60 L 60 300 L 480 300 L 480 60 Z" fill="rgb(255,255,255)" opacity="0.4"/>
<path d="M 0 0 L 540 0 L 540 360 L 0 360 Z M 30 30 L 30 330 L 510 330 L 510 30 Z" fill="rgb(0,0,0)" opacity="0.4"/>
</g>
</svg>
