<?xml version="1.0"?>
<svg xmlns="http://www.w3.org/2000/svg" xmlns:xlink="http://www.w3.org/1999/xlink" version="1.1" width="480" height="360" viewBox="0 0 480 360">
<!-- Generated by Kreative Vexillo v1.0 -->
<style>
.pink{fill:rgb(225,47,130);}
.white{fill:rgb(255,255,255);}
</style>
<defs>
<path id="disc" d="M 0.5 0.0 A 0.5 0.5 0.0 0 0 -0.5 0.0 A 0.5 0.5 0.0 0 0 0.5 0.0 Z"/>
<path id="sixty" d="M -0.0361 -0.2253 H -0.27539998 C -0.27539998 -0.2701 -0.27589998 -0.2983 -0.2769 -0.31 C -0.27789998 -0.3217 -0.2826 -0.3315 -0.2911 -0.3394 C -0.2996 -0.3473 -0.3112 -0.3513 -0.3258 -0.3513 C -0.338 -0.3513 -0.3481 -0.3475 -0.356 -0.34 C -0.3639 -0.3325 -0.3684 -0.3228 -0.3696 -0.3109 C -0.3708 -0.299 -0.3714 -0.275 -0.3714 -0.239 V -0.08559999 C -0.3592 -0.11139999 -0.3412 -0.13069999 -0.3175 -0.14359999 C -0.2938 -0.15649998 -0.26459998 -0.16289999 -0.22979999 -0.16289999 C -0.18599999 -0.16289999 -0.14729998 -0.151 -0.11369999 -0.12719998 C -0.080099985 -0.10339998 -0.058799986 -0.07489998 -0.049699984 -0.041599974 C -0.040599983 -0.008299973 -0.036099985 0.036700025 -0.036099985 0.09340003 V 0.17010003 C -0.036099985 0.23750004 -0.038699985 0.28760004 -0.043799985 0.32050002 C -0.048899986 0.35340002 -0.06269999 0.38380003 -0.084999986 0.41180003 C -0.10729998 0.43970004 -0.1379 0.46140003 -0.17679998 0.47690004 C -0.21569999 0.49240005 -0.26099998 0.5001 -0.31269997 0.5001 C -0.3771 0.5001 -0.42979997 0.49120003 -0.47089997 0.4733 C -0.51199996 0.4555 -0.5437 0.4298 -0.566 0.39630002 C -0.5883 0.3628 -0.6013 0.3276 -0.6051 0.29080003 C -0.60889995 0.25390005 -0.61069995 0.18240003 -0.61069995 0.07620004 V -0.056999967 C -0.61069995 -0.17159997 -0.60899997 -0.24809997 -0.60569996 -0.28679997 C -0.6022999 -0.32549995 -0.5886 -0.36199996 -0.5645 -0.39649996 C -0.54039997 -0.43099996 -0.5075 -0.45679995 -0.46589997 -0.47409996 C -0.42419997 -0.49139997 -0.37619996 -0.49999997 -0.32169998 -0.49999997 C -0.2546 -0.49999997 -0.19949998 -0.48909998 -0.15649998 -0.46729997 C -0.113499984 -0.44549996 -0.08259998 -0.41479996 -0.06409998 -0.37509996 C -0.0454 -0.3355 -0.0361 -0.2856 -0.0361 -0.2253 Z M -0.2754 0.0749 C -0.2754 0.0408 -0.27920002 0.0174 -0.2867 0.0046999976 C -0.2942 -0.008000002 -0.3064 -0.014300002 -0.32340002 -0.014300002 C -0.34000003 -0.014300002 -0.3521 -0.008300002 -0.3598 0.0037999991 C -0.3675 0.015899999 -0.3713 0.0396 -0.3713 0.074899994 V 0.2491 C -0.3713 0.2915 -0.36760002 0.3193 -0.3603 0.3323 C -0.35300002 0.3454 -0.3409 0.3519 -0.3239 0.3519 C -0.3136 0.3519 -0.303 0.34690002 -0.2919 0.33670002 C -0.2808 0.32660002 -0.2753 0.29930001 -0.2753 0.25500003 V 0.0749 Z M 0.6107 -0.1552 V 0.1658 C 0.6107 0.2387 0.6068 0.29180002 0.5989 0.3251 C 0.591 0.35840002 0.57460004 0.38950002 0.5497 0.4185 C 0.5248 0.4474 0.49480003 0.4682 0.45970002 0.4809 C 0.4246 0.49359998 0.3853 0.49989998 0.34180003 0.49989998 C 0.28450003 0.49989998 0.23690003 0.4933 0.19900003 0.48 C 0.16110003 0.4667 0.13090003 0.44599998 0.10840003 0.4179 C 0.08590003 0.3897 0.069900036 0.3601 0.06040003 0.329 C 0.05090003 0.2979 0.04620003 0.2484 0.04620003 0.18069999 V -0.15520002 C 0.04620003 -0.24360001 0.05380003 -0.30980003 0.06900003 -0.3538 C 0.084200025 -0.3978 0.11440003 -0.4331 0.15960002 -0.4596 C 0.20480002 -0.4861 0.2596 -0.4994 0.324 -0.4994 C 0.3765 -0.4994 0.4235 -0.49019998 0.465 -0.4718 C 0.5065 -0.4534 0.5375 -0.4309 0.558 -0.4043 C 0.57850003 -0.3777 0.59250003 -0.34780002 0.59980005 -0.3145 C 0.6071 -0.2812 0.6107 -0.2281 0.6107 -0.1552 Z M 0.3714 -0.236 C 0.3714 -0.28710002 0.3689 -0.3191 0.364 -0.33200002 C 0.35909998 -0.3449 0.3475 -0.35130003 0.3294 -0.35130003 C 0.3116 -0.35130003 0.2999 -0.34450004 0.2941 -0.33080003 C 0.2884 -0.31710002 0.2855 -0.28550002 0.2855 -0.23600003 V 0.23369998 C 0.2855 0.28959998 0.2882 0.32329997 0.29349998 0.33479998 C 0.29879996 0.34629998 0.31039998 0.35199997 0.32809997 0.35199997 S 0.35749996 0.34529996 0.36299998 0.33179998 C 0.36849996 0.31829998 0.37129998 0.288 0.37129998 0.2408 V -0.236 Z"/>
<clipPath id="clip0">
<rect x="0" y="0" width="480" height="360"/>
</clipPath>
<linearGradient id="glaze" x1="0%" y1="0%" x2="100%" y2="100%">
<stop offset="0%" stop-color="rgb(255,255,255)" stop-opacity="0.2"/>
<stop offset="49.999%" stop-color="rgb(255,255,255)" stop-opacity="0.0"/>
<stop offset="50.001%" stop-color="rgb(0,0,0)" stop-opacity="0.0"/>
<stop offset="100%" stop-color="rgb(0,0,0)" stop-opacity="0.2"/>
</linearGradient>
</defs>
<g>
<rect x="0" y="0" width="480" height="360" class="pink"/>
<g clip-path="url(#clip0)">
<path d="M 4.428 -5.904 L 4.428 -5.904 L 484.428 354.096 L 475.572 365.904 L -4.428 5.904 Z" class="white"/>
<path d="M -4.428 354.096 L -4.428 354.096 L 475.572 -5.904 L 484.428 5.904 L 4.428 365.904 Z" class="white"/>
</g>
<use xlink:href="#disc" transform="translate(240 180) scale(199.08 199.08) rotate(0)" class="white"/>
<use xlink:href="#disc" transform="translate(240 180) scale(169.56 169.56) rotate(0)" class="pink"/>
<use xlink:href="#sixty" transform="translate(240 180) scale(90 90) rotate(0)" class="white"/>
</g>
<g>
<rect x="0" y="0" width="480" height="360" fill="url(#glaze)"/>
<path d="M 30 30 L 450 30 L 450 330 L 30 330 Z M 60 60 L 60 300 L 420 300 L 420 60 Z" fill="rgb(255,255,255)" opacity="0.4"/>
<path d="M 0 0 L 480 0 L 480 360 L 0 360 Z M 30 30 L 30 330 L 450 330 L 450 30 Z" fill="rgb(0,0,0)" opacity="0.4"/>
</g>
</svg>
