<?xml version="1.0"?>
<svg xmlns="http://www.w3.org/2000/svg" xmlns:xlink="http://www.w3.org/1999/xlink" version="1.1" width="655" height="360" viewBox="0 0 655 360">
<!-- Generated by Kreative Vexillo v1.0 -->
<style>
.blue{fill:rgb(0,101,189);}
.green{fill:rgb(0,154,73);}
.orange{fill:rgb(255,121,0);}
.white{fill:rgb(255,255,255);}
</style>
<defs>
<clipPath id="clip0">
<path d="M 0 360 L 655 0 L 655 360 Z"/>
</clipPath>
<linearGradient id="glaze" x1="0%" y1="0%" x2="100%" y2="100%">
<stop offset="0%" stop-color="rgb(255,255,255)" stop-opacity="0.2"/>
<stop offset="49.999%" stop-color="rgb(255,255,255)" stop-opacity="0.0"/>
<stop offset="50.001%" stop-color="rgb(0,0,0)" stop-opacity="0.0"/>
<stop offset="100%" stop-color="rgb(0,0,0)" stop-opacity="0.2"/>
</linearGradient>
</defs>
<g>
<rect x="0" y="0" width="655" height="360" class="white"/>
<g>
<path d="M 0 0 L 655 0 L 0 360 Z" class="blue"/>
<path d="M 0 0 L 0 41.0791 L 0 41.0791 L 252.7588 180 L 252.7588 180 L 0 318.9209 L 0 318.9209 L 0 360 L 74.7412 360 L 327.5 221.0791 L 327.5 221.0791 L 327.5 221.0791 L 327.5 221.0791 L 327.5 221.0791 L 327.5 221.0791 L 580.2588 360 L 655 360 L 655 318.9209 L 402.2412 180 L 402.2412 180 L 655 41.0791 L 655 0 L 580.2588 0 L 327.5 138.9209 L 327.5 138.9209 L 327.5 138.9209 L 327.5 138.9209 L 327.5 138.9209 L 327.5 138.9209 L 74.7412 0 Z" class="white"/>
</g>
<g clip-path="url(#clip0)">
<g>
<rect x="0" y="0" width="218.3333" height="360" class="green"/>
<rect x="218.3333" y="0" width="218.3333" height="360" class="white"/>
<rect x="436.6667" y="0" width="218.3333" height="360" class="orange"/>
</g>
</g>
</g>
<g>
<rect x="0" y="0" width="655" height="360" fill="url(#glaze)"/>
<path d="M 30 30 L 625 30 L 625 330 L 30 330 Z M 60 60 L 60 300 L 595 300 L 595 60 Z" fill="rgb(255,255,255)" opacity="0.4"/>
<path d="M 0 0 L 655 0 L 655 360 L 0 360 Z M 30 30 L 30 330 L 625 330 L 625 30 Z" fill="rgb(0,0,0)" opacity="0.4"/>
</g>
</svg>
