<?xml version="1.0"?>
<svg xmlns="http://www.w3.org/2000/svg" xmlns:xlink="http://www.w3.org/1999/xlink" version="1.1" width="566" height="360" viewBox="0 0 566 360">
<!-- Generated by Kreative Vexillo v1.0 -->
<style>
.red{fill:rgb(255,0,0);}
</style>
<defs>
<path id="-glazearea" d="M 0.0 0.0 L 1.0 0.5 L 0.0 1.0 Z"/>
<linearGradient id="glaze" x1="0%" y1="0%" x2="100%" y2="100%">
<stop offset="0%" stop-color="rgb(255,255,255)" stop-opacity="0.2"/>
<stop offset="49.999%" stop-color="rgb(255,255,255)" stop-opacity="0.0"/>
<stop offset="50.001%" stop-color="rgb(0,0,0)" stop-opacity="0.0"/>
<stop offset="100%" stop-color="rgb(0,0,0)" stop-opacity="0.2"/>
</linearGradient>
</defs>
<g>
<path d="M 0 0 L 566 180 L 0 360 Z" class="red"/>
</g>
<g>
<path d="M 0 0 L 566 180 L 0 360 Z" fill="url(#glaze)"/>
<path d="M 60 82.0423 L 368.0224 180 L 60 277.9577 L 60 277.9577 L 60 82.0423 Z M 30 41.0212 L 30 318.9788 L 467.0112 180 L 467.0112 180 L 30 41.0212 Z" fill="rgb(255,255,255)" opacity="0.4"/>
<path d="M 30 41.0212 L 467.0112 180 L 467.0112 180 L 30 318.9788 L 30 41.0212 Z M 0 0 L 0 360 L 566 180 L 0 0 Z" fill="rgb(0,0,0)" opacity="0.4"/>
</g>
</svg>
