<?xml version="1.0"?>
<svg xmlns="http://www.w3.org/2000/svg" xmlns:xlink="http://www.w3.org/1999/xlink" version="1.1" width="640" height="360" viewBox="0 0 640 360">
<!-- Generated by Kreative Vexillo v1.0 -->
<style>
.green{fill:rgb(0,178,89);}
.red{fill:rgb(227,61,58);}
.white{fill:rgb(255,255,255);}
</style>
<defs>
<path id="star6" d="M 0.0 -1.0 L 0.288675 -0.5 L 0.866025 -0.5 L 0.57735 -0.0 L 0.866025 0.5 L 0.288675 0.5 L 0.0 1.0 L -0.288675 0.5 L -0.866025 0.5 L -0.57735 0.0 L -0.866025 -0.5 L -0.288675 -0.5 Z"/>
</defs>
<g>
<rect x="0" y="0" width="640" height="360" class="red"/>
<path d="M 0 0 L 320 180 L 0 360 Z" class="green"/>
<path d="M 640 360 L 320 180 L 640 0 Z" class="green"/>
<path d="M 0 0 L 0 25.8153 L 0 25.8153 L 274.1061 180 L 274.1061 180 L 0 334.1847 L 0 334.1847 L 0 360 L 45.8939 360 L 320 205.8153 L 320 205.8153 L 320 205.8153 L 320 205.8153 L 320 205.8153 L 320 205.8153 L 594.1061 360 L 640 360 L 640 334.1847 L 365.8939 180 L 365.8939 180 L 640 25.8153 L 640 0 L 594.1061 0 L 320 154.1847 L 320 154.1847 L 320 154.1847 L 320 154.1847 L 320 154.1847 L 320 154.1847 L 45.8939 0 Z" class="white"/>
<ellipse cx="320" cy="180" rx="108" ry="108" class="white"/>
<use xlink:href="#star6" transform="translate(320 128.0385) scale(24.75 24.75) rotate(0)" class="green"/>
<use xlink:href="#star6" transform="translate(275 205.9808) scale(24.75 24.75) rotate(0)" class="green"/>
<use xlink:href="#star6" transform="translate(365 205.9808) scale(24.75 24.75) rotate(0)" class="green"/>
<use xlink:href="#star6" transform="translate(320 128.0385) scale(20.25 20.25) rotate(0)" class="red"/>
<use xlink:href="#star6" transform="translate(275 205.9808) scale(20.25 20.25) rotate(0)" class="red"/>
<use xlink:href="#star6" transform="translate(365 205.9808) scale(20.25 20.25) rotate(0)" class="red"/>
</g>
</svg>
