<?xml version="1.0"?>
<svg xmlns="http://www.w3.org/2000/svg" xmlns:xlink="http://www.w3.org/1999/xlink" version="1.1" width="640" height="360" viewBox="0 0 640 360">
<!-- Generated by Kreative Vexillo v1.0 -->
<style>
.black{fill:rgb(0,0,0);}
.red{fill:rgb(232,66,63);}
.white{fill:rgb(255,255,255);}
</style>
<defs>
<path id="e1" d="M 0.1172 -0.441 C 0.12990001 -0.45830002 0.1789 -0.4469 0.1564 -0.4058 C 0.137 -0.4003 0.1351 -0.4378 0.1172 -0.441 Z M 0.205 0.3699 C 0.18349999 0.42249998 0.12779999 0.4333 0.1052 0.43879998 C 0.092 0.45099998 0.0973 0.47089997 0.0955 0.47259998 C 0.0937 0.4743 0.0807 0.466 0.0775 0.44269997 C 0.069800004 0.44139996 0.059600003 0.45859998 0.054 0.46679997 C 0.0425 0.45119998 0.056300003 0.42769998 0.056300003 0.42769998 S 0.041300002 0.43159997 0.026900003 0.44689998 C 0.022800002 0.42459998 0.0432 0.40879998 0.0432 0.40879998 S 0.026500002 0.40649998 0.010000002 0.41499996 C 0.013500001 0.39109996 0.0366 0.38559997 0.0366 0.38559997 S 0.0141 0.37339997 0.0050000027 0.37559998 C 0.020400003 0.35509998 0.049100004 0.36479998 0.049100004 0.36479998 S 0.062000006 0.3514 0.088 0.35449997 C 0.114 0.35759997 0.117300004 0.36219996 0.1185 0.36359996 C 0.1196 0.36509997 0.122 0.37539995 0.123 0.37889996 C 0.124000005 0.38239998 0.1272 0.38249996 0.1286 0.38159996 C 0.1355 0.33599997 0.096 0.31579995 0.0891 0.29679996 C 0.086100005 0.30199996 0.0854 0.30289996 0.0854 0.30289996 S 0.0792 0.30319995 0.0771 0.28089994 C 0.071 0.27889994 0.0762 0.28789994 0.0744 0.28969994 C 0.0726 0.29149994 0.0693 0.28909993 0.062200002 0.26349995 C 0.060900003 0.27019995 0.061100002 0.27109995 0.060900003 0.27239993 C 0.049200002 0.26649994 0.0516 0.24529994 0.0516 0.24529994 S 0.046800002 0.24979994 0.045300003 0.25579995 C 0.033200003 0.24539995 0.041600004 0.22349995 0.041600004 0.22349995 S 0.036600005 0.22599995 0.032600004 0.22889996 C 0.027300004 0.22839996 0.035500005 0.20899996 0.031200005 0.20389995 C 0.027600005 0.20729995 0.024000004 0.20509996 0.023600005 0.20269994 C 0.023100005 0.20029995 0.033200003 0.12619995 0.037900005 0.11189994 C 0.040600006 0.10389994 0.033500005 0.08539994 0.011200005 0.049399942 C -0.0059 0.022 -0.0355 -0.0146 -0.0359 -0.027 C -0.0362 -0.033 -0.0362 -0.0344 -0.0352 -0.0361 C -0.0342 -0.0378 -0.0331 -0.0389 -0.0306 -0.0388 C 0.0139 -0.0364 0.0302 -0.0614 0.0378 -0.0913 C 0.0392 -0.0968 0.0346 -0.097500004 0.030499998 -0.088 C 0.028299998 -0.0829 0.021799998 -0.0499 -0.0229 -0.0481 C -0.0279 -0.0479 -0.0413 -0.053 -0.0419 -0.0393 C -0.0485 -0.042799998 -0.0511 -0.031299997 -0.0644 -0.040599998 C -0.062800005 -0.027099997 -0.0697 -0.030299999 -0.08 -0.0321 C -0.0846 -0.018199999 -0.1039 -0.0323 -0.107099995 -0.016199999 C -0.1121 -0.020399999 -0.11799999 -0.013699999 -0.1217 -0.015499999 C -0.12889999 -0.0191 -0.12889999 -0.023899999 -0.1329 -0.008899999 C -0.1341 -0.004399999 -0.154 -0.014799999 -0.1547 -0.013099998 C -0.1647 0.012600001 -0.2234 -0.0191 -0.22659999 -0.021499999 C -0.22969998 -0.023799999 -0.262 -0.0473 -0.2737 -0.038399998 C -0.284 -0.036799997 -0.2902 -0.026999999 -0.3003 -0.020999998 C -0.3076 -0.035399996 -0.2937 -0.0471 -0.2864 -0.054399997 C -0.2904 -0.058199998 -0.3067 -0.057899997 -0.3155 -0.056299996 C -0.31559998 -0.0711 -0.2938 -0.076 -0.29209998 -0.07699999 C -0.2929 -0.08059999 -0.3099 -0.08669999 -0.3266 -0.08749999 C -0.3187 -0.10279999 -0.28899997 -0.098299995 -0.28899997 -0.098299995 L -0.32129997 -0.121999994 C -0.32129997 -0.121999994 -0.31019998 -0.13419999 -0.27669996 -0.11579999 C -0.27609995 -0.12329999 -0.29609996 -0.15339999 -0.29609996 -0.15339999 S -0.28029996 -0.15789999 -0.25479996 -0.12269999 C -0.23219997 -0.11809999 -0.20959996 -0.08489999 -0.18779996 -0.07509999 C -0.19919996 -0.06239999 -0.21399996 -0.07969999 -0.22489996 -0.07799999 C -0.1736 -0.0324 -0.1179 -0.1396 -0.0209 -0.1638 C -0.019 -0.1649 -0.019 -0.1664 -0.019 -0.1664 S -0.019199999 -0.16770001 -0.0212 -0.1675 C -0.0322 -0.16600001 -0.047399998 -0.1605 -0.047399998 -0.1605 S -0.050599996 -0.15820001 -0.049399998 -0.16530001 C -0.0464 -0.18310001 -0.0455 -0.2222 -0.016999997 -0.25100002 C -0.0064999973 -0.26160002 8.0000237E-4 -0.2612 0.008000003 -0.2691 C 0.020800002 -0.28300002 0.0502 -0.2847 0.078200005 -0.2856 C 0.1586 -0.28800002 0.127 -0.3698 0.1481 -0.38590002 C 0.15110001 -0.3882 0.1566 -0.3977 0.18290001 -0.3869 C 0.18210001 -0.3922 0.16280001 -0.4046 0.14520001 -0.39090002 C 0.12390001 -0.3743 0.14250001 -0.33540002 0.11870001 -0.30910003 C 0.091100015 -0.27870002 0.053300016 -0.29210004 0.02000001 -0.29710004 C 0.0042000115 -0.29950005 -0.00809999 -0.29820004 -0.011399988 -0.29850003 C -0.021699987 -0.29950002 -0.02049999 -0.31530002 -0.02049999 -0.31530002 S -0.02009999 -0.31530002 -0.01939999 -0.31530002 C -0.01939999 -0.3158 -0.01949999 -0.3163 -0.01949999 -0.3169 C -0.01949999 -0.31770003 -0.01939999 -0.31840003 -0.01939999 -0.31910002 C -0.019699989 -0.31900004 -0.019799989 -0.31900004 -0.019799989 -0.31900004 C -0.030299988 -0.31730002 -0.042399988 -0.31650004 -0.05519999 -0.31870005 C -0.11279999 -0.32850003 -0.08699999 -0.36770004 -0.08699999 -0.36770004 S -0.07219999 -0.34400004 -0.05579999 -0.34010005 C -0.03939999 -0.33620006 -0.012499992 -0.34360006 0.0049000084 -0.34400004 C 0.017200008 -0.34420004 0.04570001 -0.33460003 0.04570001 -0.33460003 S 0.04610001 -0.35720003 0.03560001 -0.36310002 C 0.025100011 -0.36900002 0.008700009 -0.3677 0.008700009 -0.3677 L 0.008300009 -0.3677 C 0.007500009 -0.3632 0.0049000094 -0.354 -0.0022999905 -0.3466 C -0.0070999907 -0.3535 -0.0072999904 -0.3629 -0.0069999904 -0.368 L -0.00899999 -0.368 C -0.00979999 -0.3647 -0.01219999 -0.3577 -0.019299991 -0.3466 C -0.025299992 -0.3559 -0.024899991 -0.3641 -0.02409999 -0.3683 L -0.026999991 -0.36839998 C -0.026999991 -0.36839998 -0.028999992 -0.3715 -0.023599992 -0.38359997 C -0.02069999 -0.39009997 -0.03069999 -0.39299998 -0.025699992 -0.42059997 C -0.006399991 -0.41489998 -0.007399991 -0.41639996 7.000081E-4 -0.41629997 C 0.026800008 -0.41629997 0.071600005 -0.44209996 0.105100006 -0.44009995 C 0.1288 -0.43869996 0.1285 -0.41349995 0.1439 -0.40389997 C 0.1593 -0.39439997 0.18280001 -0.41799998 0.19240001 -0.38099998 C 0.2019 -0.34399998 0.15670002 -0.34379998 0.15670002 -0.34379998 S 0.17390001 -0.33839998 0.17670001 -0.30659997 C 0.17850001 -0.28669998 0.1579 -0.25969997 0.1747 -0.23299998 C 0.1709 -0.22669998 0.1675 -0.23139998 0.16430001 -0.22879998 C 0.1729 -0.21399999 0.16990001 -0.20069999 0.1754 -0.19209999 C 0.1737 -0.1889 0.1636 -0.19789998 0.1601 -0.19609998 C 0.1599 -0.19339998 0.1647 -0.17219998 0.1682 -0.16859998 C 0.1668 -0.16499998 0.1585 -0.16419998 0.1494 -0.16819997 C 0.14999999 -0.16669998 0.1547 -0.15579997 0.1493 -0.14469998 C 0.146 -0.14819998 0.14029999 -0.14849998 0.1389 -0.15109998 C 0.1374 -0.14909998 0.1423 -0.13549998 0.139 -0.13149998 C 0.1349 -0.13519998 0.1286 -0.13629998 0.1286 -0.13629998 S 0.1278 -0.090599984 0.12990001 -0.07559998 C 0.13200001 -0.060599983 0.1374 -0.024199985 0.1403 -0.014499985 C 0.1444 -5.99985E-4 0.17430001 0.040300015 0.1807 0.06140002 C 0.18710001 0.08240002 0.1795 0.099500015 0.1795 0.099500015 L 0.1706 0.08860002 L 0.1723 0.10200001 C 0.1723 0.10200001 0.1688 0.109200016 0.1643 0.10630001 C 0.1599 0.10350001 0.15689999 0.08790001 0.14919999 0.087200016 C 0.1617 0.11080001 0.16 0.14630002 0.16 0.14630002 S 0.15799999 0.20700002 0.1577 0.22230002 C 0.1569 0.2774 0.2025 0.3537 0.205 0.3699 Z M -0.0063 -0.315 C -0.0049 -0.315 -0.0034 -0.3149 -0.0019 -0.3149 C -0.0019 -0.31800002 -0.0015 -0.32070002 -0.001 -0.3229 C -0.0035 -0.3224 -0.0061000003 -0.3218 -0.0084999995 -0.3213 C -0.008099999 -0.3201 -0.0075999997 -0.3189 -0.0071999994 -0.3177 C -0.0069 -0.3168 -0.0066 -0.3159 -0.0063 -0.315 Z M 0.0434 -0.3232 C 0.0434 -0.3232 0.0195 -0.3267 0.013600001 -0.3259 C 0.012400001 -0.32569999 0.010200001 -0.32529998 0.007500001 -0.32479998 C 0.008500001 -0.32259998 0.009500002 -0.3202 0.010500001 -0.3178 C 0.010900001 -0.3168 0.0113 -0.3157 0.011700001 -0.3148 C 0.020800002 -0.3146 0.028800001 -0.3145 0.0303 -0.3145 C 0.042 -0.3144 0.0434 -0.3232 0.0434 -0.3232 Z M -0.3009 -0.3664 C -0.3009 -0.3664 -0.291 -0.3682 -0.2763 -0.3661 C -0.26830003 -0.365 -0.27220002 -0.2802 -0.23160002 -0.2754 C -0.23300001 -0.2533 -0.20140001 -0.25620002 -0.20500001 -0.23300001 C -0.20600002 -0.22630002 -0.19570002 -0.2284 -0.19480002 -0.23230001 C -0.19420002 -0.23040001 -0.18920001 -0.21670002 -0.18180002 -0.2205 C -0.17790002 -0.21900001 -0.17460002 -0.20670001 -0.17020002 -0.2054 C -0.16580002 -0.20400001 -0.16290002 -0.2072 -0.16180003 -0.2062 C -0.16070002 -0.2052 -0.15720002 -0.1982 -0.15420003 -0.1923 C -0.15240003 -0.1888 -0.14710003 -0.1946 -0.14430003 -0.194 C -0.14150003 -0.19350001 -0.14150003 -0.18 -0.13120003 -0.1779 C -0.12800004 -0.1881 -0.11610003 -0.1673 -0.11390003 -0.1693 C -0.10470003 -0.1782 -0.10680003 -0.1645 -0.09200003 -0.15560001 C -0.09070003 -0.15990001 -0.083400026 -0.16080001 -0.083400026 -0.16080001 S -0.07710002 -0.1507 -0.058700025 -0.16170001 C -0.053400025 -0.21790001 -0.033600025 -0.24490002 -0.029200025 -0.2504 C -0.040000025 -0.2572 -0.100900024 -0.2791 -0.13880002 -0.2909 C -0.17110002 -0.30089998 -0.19570002 -0.3057 -0.20490003 -0.3258 C -0.22140002 -0.3619 -0.21390003 -0.3946 -0.22890003 -0.4152 C -0.23560002 -0.451 -0.25200003 -0.4524 -0.25200003 -0.4524 S -0.24530004 -0.4344 -0.24780004 -0.4168 C -0.26390004 -0.4446 -0.27880004 -0.4412 -0.27880004 -0.4412 S -0.26540005 -0.4272 -0.26320004 -0.4091 C -0.27990004 -0.4238 -0.29500005 -0.4183 -0.29500005 -0.4183 S -0.28120005 -0.412 -0.27480006 -0.3978 C -0.30030006 -0.4014 -0.30550006 -0.3909 -0.30550006 -0.3909 S -0.29140007 -0.3897 -0.28030005 -0.38219997 C -0.3004 -0.3794 -0.3009 -0.3664 -0.3009 -0.3664 Z M 0.0292 0.1264 C 0.031400003 0.11669999 0.0333 0.107999995 0.0326 0.1063 C 0.0078 0.0472 -0.0069 0.0406 -0.0069 0.0406 S -0.0614 0.027500002 -0.094299994 0.044800002 C -0.100899994 0.0483 -0.14999999 0.08320001 -0.14039999 0.0856 C -0.12449999 0.0895 -0.1467 0.101100005 -0.1502 0.110800005 C -0.1537 0.120500006 -0.145 0.118200004 -0.14459999 0.11940001 C -0.14359999 0.12230001 -0.16659999 0.1474 -0.1609 0.14870001 C -0.1396 0.15340002 -0.1705 0.1773 -0.1638 0.1791 C -0.1455 0.184 -0.168 0.20480001 -0.1614 0.20590001 C -0.15910001 0.20620002 -0.15460001 0.20750001 -0.15100001 0.20810002 C -0.15300001 0.21220002 -0.15840001 0.22400002 -0.15730001 0.23620002 C -0.15680002 0.24180003 -0.1509 0.23100002 -0.14790002 0.23850001 C -0.16300002 0.2524 -0.13470002 0.2919 -0.13280001 0.3154 C -0.143 0.3167 -0.14130001 0.30220002 -0.15020001 0.2979 C -0.15500002 0.3076 -0.1647 0.3076 -0.1763 0.3044 C -0.1879 0.3012 -0.20140001 0.29479998 -0.21380001 0.2947 C -0.24100001 0.28689998 -0.2524 0.29749998 -0.2549 0.30089998 C -0.2541 0.30119997 -0.24450001 0.30369997 -0.2309 0.3103 C -0.254 0.31219998 -0.2581 0.32799998 -0.2581 0.32799998 S -0.2462 0.32719997 -0.2314 0.33049998 C -0.2554 0.3442 -0.2521 0.3593 -0.2521 0.3593 S -0.23879999 0.3505 -0.2251 0.3493 C -0.2325 0.35549998 -0.2386 0.3691 -0.2341 0.3789 C -0.2287 0.37309998 -0.2182 0.36769998 -0.2144 0.36589998 C -0.21949999 0.3789 -0.21869999 0.3884 -0.21309999 0.3954 C -0.19809999 0.3723 -0.19279999 0.37379998 -0.18839999 0.3741 C -0.18599999 0.3743 -0.17959999 0.3766 -0.17009999 0.3778 C -0.16219999 0.3787 -0.15219998 0.3784 -0.14069998 0.3791 C -0.11319998 0.3809 -0.08139998 0.38189998 -0.060299985 0.3581 C -0.06679998 0.3051 -0.07849999 0.2461 -0.06679998 0.2009 C -0.0545 0.1537 -0.013 0.1225 0.0292 0.1264 Z"/>
<path id="e2" d="M -0.2802 -0.3856 C -0.28710002 -0.3899 -0.2948 -0.392 -0.30040002 -0.3931 C -0.2962 -0.3951 -0.289 -0.3969 -0.27670002 -0.3956 L -0.27370003 -0.3949 C -0.27600002 -0.39159998 -0.27780002 -0.3883 -0.27920002 -0.3849 L -0.2802 -0.3856 Z M -0.2789 -0.1134 C -0.2995 -0.12459999 -0.311 -0.123799995 -0.3165 -0.1219 C -0.3147 -0.1206 -0.2892 -0.1018 -0.28820002 -0.1011 C -0.2861 -0.1047 -0.2806 -0.1113 -0.2789 -0.1134 Z M -0.2804 -0.3794 C -0.291 -0.3774 -0.2955 -0.3729 -0.2973 -0.36960003 C -0.2942 -0.37000003 -0.2877 -0.37030002 -0.2811 -0.37020004 C -0.2813 -0.37310004 -0.28100002 -0.37630004 -0.2802 -0.37950003 L -0.2804 -0.3794 Z M -0.292 -0.0955 C -0.2968 -0.096 -0.31329998 -0.0969 -0.3219 -0.0899 C -0.3123 -0.0888 -0.30040002 -0.086 -0.2942 -0.082 C -0.2941 -0.0865 -0.2925 -0.0932 -0.292 -0.0955 Z M -0.2992 -0.0249 C -0.2971 -0.0265 -0.2949 -0.0283 -0.2924 -0.0306 C -0.2881 -0.0346 -0.28350002 -0.0387 -0.2777 -0.0407 C -0.2805 -0.043899998 -0.2832 -0.0475 -0.2854 -0.0515 C -0.2883 -0.0488 -0.3021 -0.0348 -0.2992 -0.0249 Z M -0.2897 -0.0629 C -0.2909 -0.0664 -0.2918 -0.07 -0.2924 -0.0735 C -0.2954 -0.0725 -0.3096 -0.0673 -0.3119 -0.0596 C -0.30539998 -0.060399998 -0.2945 -0.0608 -0.2879 -0.0585 C -0.2886 -0.06 -0.2892 -0.0615 -0.2897 -0.0629 Z M -0.2927 -0.1517 C -0.2874 -0.14400001 -0.2791 -0.1312 -0.2759 -0.12280001 C -0.2752 -0.120900005 -0.27490002 -0.11940001 -0.27470002 -0.118200004 C -0.27220002 -0.119500004 -0.2642 -0.123600006 -0.25910002 -0.124800004 C -0.2751 -0.1448 -0.2866 -0.1503 -0.2927 -0.1517 Z M -0.2714 -0.3974 C -0.2706 -0.39859998 -0.26700002 -0.4024 -0.2644 -0.40469998 C -0.26410002 -0.40499997 -0.2637 -0.4053 -0.26340002 -0.4055 L -0.26610002 -0.4077 C -0.2743 -0.4146 -0.282 -0.4167 -0.2876 -0.417 C -0.2776 -0.4105 -0.2722 -0.3989 -0.2714 -0.3974 Z M 0.1508 -0.3648 C 0.1558 -0.364 0.1672 -0.3741 0.1622 -0.37600002 C 0.1601 -0.37680003 0.1597 -0.3697 0.15280001 -0.3702 C 0.1517 -0.3704 0.14840001 -0.3685 0.14850001 -0.36630002 C 0.1486 -0.3651 0.1497 -0.365 0.1508 -0.3648 Z M -0.245 -0.4179 L -0.24520001 -0.41619998 C -0.2405 -0.41829997 -0.23590001 -0.4191 -0.2318 -0.4184 C -0.2318 -0.4184 -0.2318 -0.4184 -0.2318 -0.4184 C -0.23640001 -0.4375 -0.24350001 -0.4455 -0.2484 -0.4488 C -0.2473 -0.4451 -0.246 -0.44009998 -0.24530001 -0.4345 C -0.2446 -0.4294 -0.2444 -0.4237 -0.245 -0.4179 Z M -0.2607 -0.408 C -0.257 -0.41079998 -0.25309998 -0.4131 -0.24939999 -0.4147 L -0.25079998 -0.417 C -0.2595 -0.43129998 -0.26759997 -0.4367 -0.2731 -0.4388 C -0.2686 -0.43260002 -0.26279998 -0.4228 -0.2611 -0.4111 L -0.2607 -0.408 Z M -0.224 0.31 C -0.2228 0.3048 -0.221 0.3003 -0.2186 0.2969 C -0.23460001 0.29320002 -0.2438 0.2965 -0.2485 0.29950002 C -0.2442 0.30100003 -0.2376 0.3034 -0.2297 0.30730003 L -0.224 0.31 Z M 0.1513 -0.3588 C 0.1513 -0.3588 0.1482 -0.3584 0.1484 -0.3563 C 0.1486 -0.3541 0.15089999 -0.3538 0.15089999 -0.3538 S 0.1634 -0.3499 0.16659999 -0.3656 C 0.1644 -0.358 0.1513 -0.3588 0.1513 -0.3588 Z M 0.0501 0.4176 C 0.0501 0.4176 0.0501 0.4176 0.0479 0.4129 C 0.0479 0.4129 0.047 0.411 0.046699997 0.4102 C 0.046399996 0.4105 0.0459 0.4108 0.045099996 0.4114 C 0.044899996 0.4116 0.030399997 0.42319998 0.029799996 0.4398 C 0.041399997 0.4292 0.052199997 0.4254 0.054899998 0.4245 C 0.053 0.4226 0.0515 0.4203 0.0501 0.4176 Z M 0.0435 0.4054 C 0.0435 0.4054 0.0442 0.4055 0.0448 0.4056 C 0.0424 0.3996 0.0409 0.39380002 0.040299997 0.3882 C 0.039799996 0.3883 0.038999997 0.38860002 0.037299998 0.3889 C 0.0371 0.3889 0.020499999 0.3934 0.014799997 0.4097 C 0.0297 0.4037 0.043 0.4053 0.0435 0.4054 Z M 0.0588 0.4294 C 0.0588 0.4296 0.0524 0.4405 0.0524 0.4518 C 0.0524 0.4551 0.053 0.4581 0.0542 0.4608 C 0.0594 0.4528 0.0668 0.44169998 0.0743 0.4398 C 0.0686 0.4375 0.0633 0.434 0.058799997 0.42949998 L 0.0588 0.4294 Z M 0.0402 0.3837 C 0.0402 0.38340002 0.0402 0.38300002 0.0402 0.38270003 C 0.0402 0.37630004 0.042 0.37110004 0.0455 0.36710003 C 0.0374 0.36550003 0.0233 0.36450002 0.012899999 0.37270004 C 0.023399998 0.37480003 0.0366 0.38180003 0.038099997 0.38260004 C 0.038 0.3825 0.0393 0.3832 0.0402 0.3837 Z M 0.0952 -0.4019 C 0.0836 -0.403 0.060500003 -0.3997 0.060500003 -0.3997 S 0.0965 -0.4181 0.09460001 -0.4202 C 0.09340001 -0.42159998 0.053800005 -0.4053 0.052900005 -0.3973 C 0.052800003 -0.3966 0.053700004 -0.3946 0.055700004 -0.3951 C 0.057200003 -0.3955 0.0768 -0.3978 0.091900006 -0.3968 C 0.09780001 -0.3964 0.102900006 -0.395 0.106000006 -0.39360002 C 0.11010001 -0.39180002 0.11570001 -0.3925 0.11590001 -0.39450002 C 0.1162 -0.3966 0.1016 -0.4013 0.0952 -0.4019 Z M 0.0805 0.442 C 0.0805 0.4421 0.0805 0.4422 0.0805 0.4422 C 0.082499996 0.4571 0.0888 0.4652 0.0927 0.4682 C 0.0927 0.467 0.0927 0.4648 0.0927 0.4648 C 0.0927 0.4586 0.093499996 0.4496 0.098799996 0.4417 C 0.0937 0.4436 0.0873 0.4438 0.0805 0.442 Z M -0.0184 -0.3233 C -0.017900001 -0.3251 -0.0172 -0.3267 -0.0166 -0.328 L -0.0150999995 -0.33110002 L -0.012699999 -0.3287 C -0.011799999 -0.32770002 -0.010999999 -0.3265 -0.010199999 -0.3251 C -0.0068999995 -0.3258 -0.0031999992 -0.32660002 3.0000042E-4 -0.3273 C 5.0000043E-4 -0.3278 7.0000044E-4 -0.3283 9.0000045E-4 -0.3287 L 0.0027000005 -0.3327 L 0.0051000006 -0.3292 C 0.005300001 -0.3289 0.0054000006 -0.3287 0.0056000007 -0.3284 C 0.009000001 -0.32909998 0.0118 -0.32959998 0.013300001 -0.32979998 C 0.0185 -0.33049998 0.034900002 -0.3284 0.0417 -0.3275 C 0.0417 -0.3275 0.0438 -0.3272 0.044600002 -0.32709998 C 0.044900004 -0.3286 0.0454 -0.33119997 0.045700002 -0.33259997 C 0.044800002 -0.33289996 0.042500004 -0.33349997 0.042500004 -0.33349997 C 0.036200006 -0.33549997 0.014800005 -0.34209996 0.0051000044 -0.34189996 C -9.999955E-4 -0.34179997 -0.008499996 -0.34069997 -0.016499996 -0.33959997 C -0.030799996 -0.33759996 -0.045499995 -0.33549997 -0.056499995 -0.33809996 C -0.0694 -0.34119996 -0.0809 -0.35479996 -0.08629999 -0.36209995 C -0.08759999 -0.35879993 -0.08889999 -0.35429993 -0.08889999 -0.34959996 C -0.08889999 -0.34669995 -0.08839999 -0.34399995 -0.08739999 -0.34149995 C -0.08359999 -0.33189994 -0.07249999 -0.32559997 -0.05439999 -0.32249996 C -0.04379999 -0.32069996 -0.03259999 -0.32079995 -0.02009999 -0.32279995 C -0.0201 -0.3229 -0.0195 -0.3231 -0.0184 -0.3233 Z M -0.2207 0.3455 C -0.2209 0.3451 -0.2211 0.3446 -0.22129999 0.3442 C -0.22309999 0.3398 -0.2242 0.3351 -0.22469999 0.33049998 L -0.22989999 0.33349997 C -0.24309999 0.34099996 -0.24729998 0.34869996 -0.24859999 0.35349998 C -0.24329999 0.3507 -0.23449999 0.34669998 -0.22529998 0.34589997 L -0.2207 0.3455 Z M 0.0267 0.093 C 0.022799999 0.0833 0.0174 0.0744 0.014599999 0.0692 C -0.0063000005 0.060900003 -0.020500002 0.0653 -0.020500002 0.0653 S 0.0187 0.0835 0.0267 0.093 Z M -0.2193 0.3485 L -0.22320001 0.35180002 C -0.2284 0.35620004 -0.2326 0.36410004 -0.2326 0.37120003 C -0.2326 0.37180004 -0.2325 0.37230003 -0.2324 0.37290004 C -0.226 0.36770004 -0.2175 0.36360005 -0.2156 0.36270005 L -0.2103 0.36020005 C -0.2138 0.3568 -0.2169 0.3529 -0.2193 0.3485 Z M -0.225 0.3285 C -0.22549999 0.32320002 -0.2253 0.318 -0.2245 0.3132 L -0.2306 0.3137 C -0.2437 0.3148 -0.25 0.3205 -0.2529 0.3247 C -0.24790001 0.3247 -0.24000001 0.3252 -0.2308 0.3273 L -0.225 0.3285 Z M -0.2116 0.3672 C -0.21370001 0.3726 -0.2147 0.3773 -0.2147 0.3814 C -0.2147 0.3845 -0.2141 0.38709998 -0.213 0.3895 C -0.2045 0.3771 -0.199 0.3726 -0.1945 0.3712 C -0.1996 0.3689 -0.2047 0.3656 -0.2093 0.3614 L -0.2116 0.3672 Z"/>
<path id="e3" d="M -0.2434 -0.4025 C -0.24159999 -0.3763 -0.21949999 -0.3456 -0.2244 -0.3112 C -0.2259 -0.303 -0.228 -0.29659998 -0.2392 -0.2953 C -0.2405 -0.29520002 -0.2409 -0.2981 -0.2386 -0.2983 C -0.22580001 -0.299 -0.2262 -0.3181 -0.2317 -0.3409 C -0.2368 -0.3617 -0.2481 -0.3822 -0.2434 -0.4025 Z M 0.091 -0.3916 C 0.0925 -0.39040002 0.0934 -0.3885 0.0934 -0.38630003 C 0.0934 -0.38270003 0.0907 -0.37980002 0.087400004 -0.37980002 C 0.08410001 -0.37980002 0.08140001 -0.38270003 0.08140001 -0.38630003 C 0.08140001 -0.38870004 0.08250001 -0.39070004 0.084300004 -0.39190003 C 0.0789 -0.39060003 0.0741 -0.38640004 0.0741 -0.38420004 C 0.0741 -0.38150004 0.0807 -0.37600005 0.0872 -0.37570003 C 0.0934 -0.37550002 0.0995 -0.38170004 0.0995 -0.38380003 C 0.0995 -0.3854 0.0956 -0.3899 0.091 -0.3916 Z M -0.0208 -0.3679 C -0.021 -0.3668 -0.0212 -0.36540002 -0.0212 -0.36360002 C -0.0212 -0.3607 -0.0207 -0.35700002 -0.0189 -0.35300002 C -0.015 -0.35970002 -0.0128999995 -0.365 -0.012 -0.36780003 C -0.0152 -0.368 -0.0185 -0.3677 -0.0208 -0.3679 Z M -0.0037 -0.368 C -0.0038 -0.3671 -0.0038 -0.366 -0.0038 -0.3648 C -0.0038 -0.36110002 -0.0033 -0.3564 -0.0015 -0.3522 C 0.0026 -0.3577 0.0045999996 -0.3641 0.0054 -0.3678 C 0.0022 -0.3678 -9.0E-4 -0.3678 -0.0037 -0.368 Z M -0.0144 -0.3267 C -0.0157 -0.3239 -0.0169 -0.3204 -0.0169 -0.3168 C -0.0169 -0.3163 -0.0169 -0.3157 -0.0168 -0.3152 C -0.014799999 -0.3152 -0.0121 -0.3151 -0.0089 -0.3151 C -0.009099999 -0.31570002 -0.0093 -0.3163 -0.0095 -0.31680003 C -0.0109 -0.3208 -0.0123 -0.3245 -0.0144 -0.3267 Z M 0.003 -0.3276 C 0.0019999999 -0.3254 5.000001E-4 -0.321 5.000001E-4 -0.3149 C 0.0033 -0.3149 0.0062 -0.31480002 0.009000001 -0.31480002 C 0.0087 -0.31540003 0.0085 -0.31610003 0.008200001 -0.3167 C 0.0067 -0.3206 0.0051 -0.3246 0.003 -0.3276 Z"/>
<path id="r" d="M -5.0E-4 0.1711 C -0.0069 0.1614 0.0015999998 0.1593 0.0046 0.15920001 C 0.0825 0.15680002 0.0872 0.09740001 0.0876 0.090700015 C 0.0893 0.057800014 0.061 0.041300014 0.0427 0.035200015 C 0.0245 0.029200014 -0.0158 0.028400015 -0.0158 0.028400015 L -0.0709 0.030700015 H -0.0868 L -0.12650001 0.025500014 C -0.12650001 0.025500014 -0.12820001 0.025700014 -0.12840001 0.026300015 C -0.12850001 0.026800014 -0.12810001 0.027500015 -0.12780002 0.027900014 C -0.12580001 0.032200016 -0.10240002 0.035800014 -0.100400016 0.042500015 C -0.09650002 0.055900015 -0.10100002 0.2741 -0.10100002 0.2741 S -0.10540002 0.2967 -0.13390002 0.299 C -0.13360001 0.2993 -0.13390002 0.3019 -0.13390002 0.3019 H -0.03110002 L -0.03110002 0.2991 C -0.03110002 0.2991 -0.054300018 0.29520002 -0.057200022 0.28100002 C -0.060100023 0.26680002 -0.058300022 0.16210002 -0.058300022 0.16210002 S -0.05580002 0.15960002 -0.05430002 0.16040002 C -0.052800022 0.16120002 -0.05030002 0.16500002 -0.05030002 0.16500002 S 0.03389998 0.29400003 0.10259998 0.29980004 C 0.10839998 0.29890004 0.12079998 0.29690003 0.12589997 0.29590005 C 0.0505 0.2453 0.0058 0.1808 -5.0E-4 0.1711 Z M -0.0574 0.1507 C -0.0635 0.1382 -0.0585 0.043700002 -0.0585 0.043700002 S -0.047 0.036700003 -0.019299999 0.0357 C 0.032300003 0.0339 0.0403 0.089 0.0403 0.089 S 0.0443 0.099300005 0.0363 0.1207 C 0.0284 0.1421 -0.0086 0.1485 -0.0086 0.1485 S -0.0458 0.1533 -0.0574 0.1507 Z"/>
<path id="v" d="M 0.2023 0.0204 V 0.023300001 C 0.2023 0.023300001 0.199 0.023900002 0.1921 0.024400001 C 0.1647 0.024300002 0.1535 0.0505 0.1535 0.0505 L 0.0375 0.3098 C 0.0375 0.3098 0.0363 0.3105 0.0346 0.3104 C 0.0361 0.3025 -0.0703 0.06570001 -0.083000004 0.045900017 S -0.1267 0.022100016 -0.1267 0.022100016 V 0.0193 L 0.0057 0.0199 V 0.0227 H -0.0016999999 C -0.0016999999 0.0227 -0.0339 0.022400001 -0.030699998 0.0454 C -0.027499998 0.0683 0.054000005 0.2521 0.054000005 0.2521 S 0.116500005 0.0896 0.1279 0.05669999 C 0.1393 0.02379999 0.108 0.023899991 0.108 0.023899991 H 0.0966 V 0.02099999 L 0.2023 0.0204 Z"/>
</defs>
<g>
<rect x="0" y="0" width="640" height="360" class="white"/>
<use xlink:href="#e1" transform="translate(320 180) scale(360 360) rotate(0)" class="black"/>
<use xlink:href="#e2" transform="translate(320 180) scale(360 360) rotate(0)" class="red"/>
<use xlink:href="#e3" transform="translate(320 180) scale(360 360) rotate(0)" class="white"/>
<use xlink:href="#v" transform="translate(96 180) scale(360 360) rotate(0)" class="black"/>
<use xlink:href="#r" transform="translate(544 180) scale(360 360) rotate(0)" class="black"/>
</g>
</svg>
