<?xml version="1.0"?>
<svg xmlns="http://www.w3.org/2000/svg" xmlns:xlink="http://www.w3.org/1999/xlink" version="1.1" width="640" height="360" viewBox="0 0 640 360">
<!-- Generated by Kreative Vexillo v1.0 -->
<style>
.blue{fill:rgb(0,33,173);}
.green{fill:rgb(28,138,66);}
.white{fill:rgb(255,255,255);}
.yellow{fill:rgb(255,198,57);}
</style>
<defs>
<path id="bird" d="M 0.7559 0.1951 C 0.74770004 0.1627 0.67450005 0.092999995 0.6194 0.04859999 C 0.6063 0.03959999 0.5977 0.044999987 0.59940004 0.05769999 C 0.60630006 0.06909999 0.61140007 0.08169999 0.61820006 0.09309999 C 0.6201001 0.10069999 0.6237001 0.10609999 0.62560004 0.11369999 C 0.62560004 0.11369999 0.6262 0.12679999 0.6273 0.12799999 C 0.6444 0.1469 0.6467 0.16289999 0.6467 0.16289999 C 0.6566 0.18199998 0.6654 0.1959 0.68270004 0.21149999 C 0.70210004 0.22369999 0.68780005 0.2616 0.68840003 0.28179997 C 0.68840003 0.29459998 0.6793 0.29299998 0.67130005 0.29149997 C 0.6082001 0.23359998 0.5458001 0.23339997 0.49070007 0.21659997 C 0.46920007 0.21429998 0.46880007 0.22459997 0.47580007 0.23029996 C 0.51430005 0.27149996 0.55050004 0.29949996 0.59810007 0.32289997 C 0.6061001 0.32789996 0.61410004 0.33279997 0.62210006 0.33779997 C 0.6312001 0.34539998 0.64040005 0.35299996 0.6495001 0.36069995 C 0.67060006 0.37439996 0.67240006 0.38699996 0.67240006 0.38809994 C 0.67300004 0.41379994 0.6592001 0.43379992 0.65520006 0.44179994 C 0.64800006 0.46909994 0.63350004 0.47379994 0.63350004 0.47379994 C 0.51580006 0.55319995 0.45400006 0.57379997 0.26310003 0.54919994 C 0.26020002 0.5476999 0.24200003 0.55069995 0.26310003 0.5583999 C 0.31170002 0.5745999 0.43100002 0.6005999 0.5465 0.5458999 C 0.57420003 0.5264999 0.5928 0.5327999 0.6128 0.52119994 C 0.6458 0.5008999 0.6929 0.47549993 0.7014 0.47269994 C 0.72709996 0.45899993 0.7991 0.44359994 0.8157 0.42979994 C 0.8347 0.42829993 0.8545 0.42579994 0.8558 0.40939996 C 0.862 0.40529996 0.87119997 0.40829995 0.87799996 0.39499995 C 0.89309996 0.39239994 0.89059997 0.38699996 0.89059997 0.38699996 C 0.8868 0.37629998 0.8727 0.37189996 0.86259997 0.36409998 C 0.84769994 0.35909998 0.83739996 0.35759997 0.82659996 0.36299998 C 0.8231999 0.3645 0.81969994 0.36599997 0.8163 0.36759996 C 0.8163 0.36759996 0.8003 0.36529997 0.8003 0.36419997 C 0.7647 0.36219996 0.7682 0.24439996 0.7556 0.19519997 Z"/>
<path id="eye" d="M 0.8393 0.388 A 0.0088 0.0055 15.947 0 1 0.8225 0.38270003 A 0.0088 0.0055 15.947 0 1 0.8393 0.388 Z"/>
<path id="island" d="M -0.3054 -0.2246 C -0.2712 -0.1777 -0.21940002 -0.09900001 -0.17770001 -0.119500004 C -0.14520001 -0.1194 -0.12840001 -0.1171 -0.12400001 -0.09550001 C -0.04730001 -0.08240001 0.08169998 -0.114800006 0.16189998 -0.2193 C 0.16189998 -0.2193 0.16869998 -0.2184 0.16629998 -0.2581 C 0.16669999 -0.2754 0.18999998 -0.2719 0.19049999 -0.2663 C 0.19369999 -0.2577 0.19319999 -0.2513 0.19749999 -0.2511 C 0.2074 -0.2544 0.22089998 -0.27650002 0.2322 -0.2906 C 0.23529999 -0.2968 0.23359999 -0.3033 0.2343 -0.3111 C 0.2403 -0.3258 0.2552 -0.3226 0.2583 -0.3149 C 0.2611 -0.30990002 0.2612 -0.3061 0.264 -0.3012 C 0.2791 -0.2911 0.3064 -0.3005 0.3085 -0.3005 C 0.3112 -0.3128 0.3191 -0.31170002 0.3191 -0.31170002 C 0.3292 -0.31390002 0.3252 -0.31300002 0.3319 -0.30960003 C 0.326 -0.24310002 0.345 -0.24020003 0.3434 -0.20610002 C 0.3441 -0.16800001 0.3319 -0.15720001 0.3319 -0.14270002 C 0.3358 -0.12500001 0.3919 -0.12430002 0.3721 -0.10930002 C 0.3547 -0.10000002 0.37219998 -0.082700014 0.346 -0.07590002 C 0.26999998 -0.037300017 0.2554 -0.0043000206 0.2554 -0.0043000206 S 0.2363 0.031699978 0.2342 0.031699978 C 0.2215 0.055699978 0.2054 0.042599976 0.1964 0.05439998 C 0.1919 0.06909998 0.1869 0.10179998 0.1958 0.11869998 C 0.20030001 0.14199999 0.19520001 0.15469998 0.1897 0.17809999 C 0.18470001 0.2268 0.16540001 0.23409998 0.1631 0.2512 C 0.1542 0.2694 0.165 0.3552 0.15650001 0.3552 C 0.09990001 0.3563 0.056600012 0.3444 0.034200013 0.3399 C 0.056000013 0.24589999 0.047500014 0.1633 0.047500014 0.15479998 C 0.041900016 0.087599985 -0.053199984 0.103899986 -0.067799985 0.094999984 C -0.07989998 0.092399985 -0.08739999 0.08259998 -0.09169999 0.078399986 C -0.10509999 0.07689998 -0.11019999 0.073899984 -0.12359999 0.07249998 C -0.13029999 0.07579999 -0.12629999 0.07929999 -0.14119999 0.08389998 C -0.17909999 0.088499986 -0.1959 0.05079998 -0.1959 0.05079998 C -0.19409999 0.03809998 -0.2812 0.05339998 -0.3286 0.04239998 C -0.348 0.05319998 -0.3565 0.08529998 -0.3724 0.08899998 C -0.3728 0.098899975 -0.39859998 0.080899976 -0.40379998 0.07109998 C -0.40489998 0.04269998 -0.37899998 0.03009998 -0.37899998 0.03009998 C -0.35849997 0.015599981 -0.34629998 0.013299981 -0.33639997 0.0032999814 C -0.33139998 -0.02140002 -0.33389997 -0.03970002 -0.32339996 -0.05830002 C -0.31449997 -0.07250002 -0.30129996 -0.06580002 -0.29239997 -0.072200015 C -0.28279996 -0.07860001 -0.27869996 -0.120200016 -0.28759998 -0.13160002 C -0.28759998 -0.13160002 -0.32599998 -0.16630003 -0.32809997 -0.16840002 C -0.34059995 -0.20420001 -0.31349996 -0.22730002 -0.30569997 -0.22470002 Z"/>
<path id="star" d="M 0.0 -1.0 L 0.2245 -0.309 L 0.9511 -0.309 L 0.3633 0.118 L 0.5878 0.809 L 0.0 0.382 L -0.5878 0.809 L -0.3633 0.118 L -0.9511 -0.309 L -0.2245 -0.309 Z"/>
<path id="star7" d="M 0.0 -1.0 L 0.192837 -0.40043 L 0.781831 -0.62349 L 0.433301 -0.098898 L 0.974928 0.222521 L 0.34748 0.277106 L 0.433884 0.900969 L 0.0 0.444444 L -0.433884 0.900969 L -0.34748 0.277106 L -0.974928 0.222521 L -0.433301 -0.098898 L -0.781831 -0.62349 L -0.192837 -0.40043 Z"/>
</defs>
<g>
<rect x="0" y="0" width="640" height="360" class="blue"/>
<path d="M 0 0 L 640 0 L 640 360 Z" class="green"/>
<ellipse cx="320" cy="180" rx="65.0304" ry="65.0304" class="yellow"/>
<use xlink:href="#island" transform="translate(320 180) scale(130.0608 130.0608) rotate(0)" class="green"/>
<use xlink:href="#bird" transform="translate(320 0) scale(320 320) rotate(0)" class="yellow"/>
<use xlink:href="#eye" transform="translate(320 0) scale(320 320) rotate(0)" class="green"/>
<use xlink:href="#star7" transform="translate(112.64 118.8) scale(22.4 22.4) rotate(0)" class="white"/>
<use xlink:href="#star7" transform="translate(181.76 180) scale(22.4 22.4) rotate(0)" class="white"/>
<use xlink:href="#star7" transform="translate(40.96 208.8) scale(22.4 22.4) rotate(0)" class="white"/>
<use xlink:href="#star" transform="translate(140.8 230.4) scale(16 16) rotate(0)" class="white"/>
<use xlink:href="#star7" transform="translate(114.56 313.2) scale(22.4 22.4) rotate(0)" class="white"/>
</g>
</svg>
