<?xml version="1.0"?>
<svg xmlns="http://www.w3.org/2000/svg" xmlns:xlink="http://www.w3.org/1999/xlink" version="1.1" width="640" height="360" viewBox="0 0 640 360">
<!-- Generated by Kreative Vexillo v1.0 -->
<style>
.blue{fill:rgb(0,182,222);}
.green{fill:rgb(0,161,96);}
.red{fill:rgb(239,65,53);}
.yellow{fill:rgb(255,242,0);}
</style>
<defs>
<path id="star" d="M -0.3804 -0.1244 H -0.0898 L -0.024099998 -0.3266 L -0.006599998 -0.27269998 L -0.1021 0.021200031 L -0.1305 6.0003065E-4 L -0.100700006 -0.09109997 H -0.3345 L -0.3804 -0.1244 M -0.2351 0.3228 L -0.1453 0.04640001 L -0.3173 -0.0786 H -0.2606 L -0.010600001 0.10300001 L -0.039 0.123600006 L -0.117 0.067 L -0.1892 0.2895 L -0.2351 0.3228 M 0.2351 0.3228 L 0.0 0.15200001 L -0.172 0.277 L -0.15450001 0.2231 L 0.09549999 0.041500002 L 0.1063 0.0748 L 0.028299995 0.1314 L 0.2175 0.2689 L 0.2351 0.3228 M 0.3804 -0.1244 L 0.1453 0.046400003 L 0.211 0.2486 L 0.1651 0.21530001 L 0.06959999 -0.078600004 H 0.1046 L 0.1344 0.013099998 L 0.3236 -0.124400005 H 0.3804 M 0.0 -0.4008 L 0.0898 -0.12439999 H 0.3024 L 0.2565 -0.09109999 H -0.0524 L -0.0416 -0.12439999 H 0.0548 L -0.0175 -0.3468 L 0.0 -0.4008 Z M 0.0083 0.4008 H -0.0084 V 0.18409999 H 0.0083 V 0.4008 Z M 0.3778 0.1323 L 0.17169999 0.0653 L 0.17689998 0.0494 L 0.383 0.1164 L 0.3778 0.1323 Z M -0.3778 0.1323 L -0.383 0.1165 L -0.17689998 0.049499996 L -0.17179999 0.0654 L -0.3778 0.1323 Z M 0.1145 -0.1426 L 0.101 -0.1524 L 0.22839999 -0.32770002 L 0.2419 -0.31790003 L 0.1145 -0.1426 Z M -0.1145 -0.1426 L -0.2419 -0.3179 L -0.22839999 -0.3277 L -0.100999996 -0.15239999 L -0.1145 -0.1426 Z"/>
</defs>
<g>
<g>
<rect x="0" y="0" width="640" height="120" class="green"/>
<rect x="0" y="120" width="640" height="120" class="yellow"/>
<rect x="0" y="240" width="640" height="120" class="red"/>
</g>
<ellipse cx="320" cy="180" rx="120" ry="120" class="blue"/>
<use xlink:href="#star" transform="translate(320 180) scale(240 240) rotate(0)" class="yellow"/>
</g>
</svg>
