<?xml version="1.0"?>
<svg xmlns="http://www.w3.org/2000/svg" xmlns:xlink="http://www.w3.org/1999/xlink" version="1.1" width="640" height="360" viewBox="0 0 640 360">
<!-- Generated by Kreative Vexillo v1.0 -->
<style>
.blue{fill:rgb(0,57,173);}
.brown{fill:rgb(165,74,0);}
.green{fill:rgb(4,110,36);}
.white{fill:rgb(255,255,255);}
</style>
<defs>
<path id="cup" d="M 0.1107 0.0557 C 0.110599995 0.0546 0.11009999 0.053600002 0.1091 0.0531 C 0.0778 0.0335 0.041199997 0.023100002 0.003200002 0.023100002 C -0.0387 0.023100002 -0.0813 0.036000002 -0.1079 0.0568 C -0.1086 0.0574 -0.109 0.0582 -0.1091 0.059 C -0.1093 0.0589 -0.1094 0.0588 -0.1096 0.0587 C -0.1196 0.1407 -0.0612 0.1834 0.0019000024 0.2244 C 0.0621 0.1847 0.1141 0.1435 0.1104 0.0573 C 0.1106 0.0568 0.1107 0.0563 0.1107 0.0557 Z M 0.0038 0.0881 C -0.012999999 0.0881 -0.0301 0.0858 -0.0469 0.0812 C -0.0215 0.073400006 0.012699999 0.067200005 0.0411 0.0706 C 0.0429 0.0709 0.0446 0.0695 0.0448 0.067700006 C 0.044999998 0.065900005 0.0437 0.06420001 0.041899998 0.064 C 0.009099998 0.060000002 -0.031 0.0684 -0.0575 0.0776 C -0.0577 0.077700004 -0.057800002 0.077800006 -0.0579 0.0779 C -0.0617 0.0767 -0.0655 0.0753 -0.0692 0.0738 C -0.0331 0.058799997 0.0069999993 0.0545 0.059700005 0.06 C 0.061500005 0.0602 0.063200004 0.0589 0.06340001 0.057 C 0.06360001 0.0552 0.062300008 0.0535 0.06040001 0.0533 C 0.0037000105 0.0474 -0.03899999 0.0526 -0.07769999 0.070199996 C -0.07999999 0.069199994 -0.08239999 0.0681 -0.08469999 0.066999994 C -0.04649999 0.049799994 -0.0037999898 0.042399995 0.033000015 0.04659999 C 0.034800015 0.04679999 0.036500014 0.04549999 0.036700014 0.04369999 C 0.036900014 0.04189999 0.035600014 0.04019999 0.033800013 0.03999999 C -0.004999988 0.03549999 -0.050199986 0.043599993 -0.09009998 0.06219999 C -0.090699986 0.062499993 -0.09119998 0.06299999 -0.091499984 0.06359999 C -0.094199985 0.062199987 -0.096899986 0.06069999 -0.09959999 0.05919999 C -0.07869999 0.04449999 -0.04199999 0.029899988 0.0034000129 0.029899988 C 0.038500015 0.029899988 0.07230001 0.03899999 0.10160001 0.05629999 C 0.0733 0.0771 0.0397 0.0881 0.0038 0.0881 Z"/>
<path id="leaves" d="M -0.1293 -0.3324 C -0.1393 -0.32909998 -0.1865 -0.2907 -0.2122 -0.27089998 L -0.2235 -0.28989998 L -0.2376 -0.27659997 L -0.2455 -0.28989998 C -0.26319999 -0.28089997 -0.273 -0.24719998 -0.2862 -0.22679996 L -0.29509997 -0.23949997 L -0.30039996 -0.20919997 L -0.31609997 -0.21969996 C -0.31739998 -0.19619997 -0.31139997 -0.15729997 -0.31969997 -0.14529997 C -0.32399997 -0.14169997 -0.33359998 -0.16179997 -0.34029996 -0.17009997 C -0.34349996 -0.12849997 -0.33469996 -0.09209997 -0.33329996 -0.071199976 C -0.33859995 -0.071199976 -0.34599996 -0.081699975 -0.35389996 -0.094399974 C -0.34889996 -0.07219997 -0.33589995 -0.034399975 -0.34009996 -0.021399975 C -0.34489995 -0.020899976 -0.35359997 -0.029799975 -0.36089996 -0.041999973 C -0.35369995 -0.021699972 -0.34159994 0.009300027 -0.34179994 0.014700025 C -0.34749994 0.021700025 -0.35889995 0.010400025 -0.36459994 0.0047000255 C -0.36069995 0.023700025 -0.33709994 0.041900024 -0.33789995 0.053700022 C -0.34219995 0.05780002 -0.35439995 0.051700022 -0.36119995 0.050700024 C -0.34889996 0.07740002 -0.32589996 0.095200025 -0.30849993 0.10680002 C -0.30769992 0.11210002 -0.32459992 0.11150002 -0.33139992 0.11430002 C -0.31009993 0.13940002 -0.2691999 0.16390002 -0.24279991 0.17870003 L -0.2588999 0.18940003 C -0.20999989 0.21630004 -0.1534999 0.24070004 -0.08689989 0.24480003 C -0.15379989 0.26940003 -0.21939988 0.30140004 -0.23279989 0.33370003 C -0.2031999 0.32910004 -0.1663999 0.31770003 -0.12749988 0.32010004 C -0.099999875 0.29260004 -0.08529988 0.25770003 0.001400128 0.25730005 C 0.06790013 0.25700006 0.09870013 0.29050004 0.12470013 0.32320005 C 0.15020013 0.31780005 0.19130012 0.32800004 0.22420013 0.33490005 C 0.21590012 0.29680005 0.13560012 0.27000004 0.08230013 0.24370006 C 0.13420013 0.23990005 0.18690012 0.23040006 0.25150013 0.18900006 C 0.23710012 0.18940006 0.23340014 0.18680006 0.23350012 0.18000005 C 0.25880012 0.16700006 0.30500013 0.14010005 0.31730014 0.114100054 C 0.30980015 0.11620005 0.30310014 0.112800054 0.30060014 0.10740005 C 0.32320014 0.09250005 0.34680015 0.077200055 0.35410014 0.052600052 C 0.34610015 0.056200054 0.33510014 0.059900053 0.33170015 0.053100053 C 0.34160015 0.038300052 0.36160016 0.022000054 0.35990015 3.000535E-4 C 0.35420015 0.009300053 0.34180015 0.018300053 0.33620015 0.014700053 C 0.34080014 0.0016000532 0.35280016 -0.019399947 0.35440016 -0.037599944 C 0.35010016 -0.023799945 0.34020016 -0.021499943 0.33340016 -0.022599943 C 0.33330017 -0.034099944 0.33890015 -0.05969994 0.34650016 -0.08909994 C 0.34150016 -0.08199994 0.33250016 -0.07059994 0.32500017 -0.071199946 C 0.32880017 -0.09949995 0.33400017 -0.12889995 0.33290017 -0.16929995 C 0.32630017 -0.15709995 0.31970018 -0.14899994 0.31310016 -0.14689994 C 0.30750015 -0.15329994 0.31440017 -0.19429994 0.30860016 -0.22009994 C 0.30520016 -0.20889995 0.29920015 -0.20609994 0.29330015 -0.20739993 L 0.28860015 -0.24059993 L 0.27760014 -0.22379993 C 0.26420015 -0.25849992 0.25090015 -0.28099993 0.23880014 -0.29109994 L 0.23110014 -0.27529994 L 0.21520014 -0.28919995 L 0.20340014 -0.27079993 C 0.17030013 -0.30569994 0.14780013 -0.31559992 0.124200135 -0.33149993 C 0.12980014 -0.31379995 0.16020013 -0.28389993 0.17800014 -0.26059994 C 0.16930014 -0.26129994 0.15490013 -0.26549995 0.14620014 -0.26159993 C 0.15900013 -0.24949993 0.17500013 -0.23649994 0.19500014 -0.22439992 L 0.17790014 -0.22039993 C 0.19230014 -0.20399994 0.21490014 -0.18829992 0.22210014 -0.16949993 L 0.20180014 -0.17329994 C 0.21190014 -0.15779994 0.22720014 -0.14709994 0.23960014 -0.12229994 C 0.23570013 -0.11759994 0.22760014 -0.11619994 0.21640013 -0.12379994 C 0.23150013 -0.096599944 0.24190013 -0.06779994 0.24420013 -0.045599945 L 0.22980012 -0.057599947 C 0.23160012 -0.029099947 0.23920012 0.008900054 0.23860012 0.027900055 C 0.23350012 0.030400055 0.22840013 0.018700056 0.22330011 0.008300055 C 0.22160012 0.040500056 0.21530011 0.059200056 0.20860012 0.06860006 L 0.20200011 0.055800058 C 0.19880012 0.08110006 0.19230011 0.09700006 0.1867001 0.11040006 L 0.1794001 0.086900055 C 0.17190011 0.10730006 0.1650001 0.13960005 0.1551001 0.14550006 L 0.14380011 0.12880006 C 0.13600011 0.14420006 0.12910011 0.16720006 0.118900105 0.17550007 L 0.11160011 0.16140006 C 0.08310011 0.19750006 0.06490011 0.23330006 0.0013001114 0.23600006 C -0.068499885 0.23440006 -0.08979989 0.19100006 -0.11979989 0.15730006 L -0.12599988 0.17670006 L -0.14859988 0.13320005 L -0.16269988 0.14620005 L -0.18479988 0.082800046 L -0.19269988 0.108300045 L -0.20779988 0.062300045 L -0.21479988 0.06640004 L -0.23009989 0.010100044 L -0.24479988 0.028000044 L -0.23739988 -0.056399956 L -0.24989988 -0.047199957 L -0.22419988 -0.124599956 L -0.24599987 -0.122399956 C -0.23199987 -0.13019995 -0.22079988 -0.15429996 -0.20929988 -0.17699996 L -0.23119988 -0.16769996 C -0.22009988 -0.18369997 -0.20559987 -0.19999996 -0.18469988 -0.21839997 L -0.19159988 -0.22649997 C -0.18789987 -0.24059997 -0.16089988 -0.2503 -0.14889988 -0.26689997 L -0.18309988 -0.26149997 C -0.16659988 -0.28379998 -0.12939988 -0.31929997 -0.12909988 -0.33209997 L -0.1293 -0.3324 Z"/>
<path id="stars" d="M -0.0135 -0.3111 L -0.0297 -0.32230002 H -0.0097 L -0.0035 -0.34230003 L 0.0027 -0.32230002 H 0.0227 L 0.007700001 -0.3111 L 0.012700001 -0.2911 L -0.0034999996 -0.30359998 L -0.0197 -0.2911 L -0.0135 -0.3111 Z M -0.0904 -0.2697 L -0.074200004 -0.28219998 L -0.058000006 -0.2697 L -0.06300001 -0.2897 L -0.048000008 -0.3009 H -0.068 L -0.074200004 -0.32090002 L -0.080400005 -0.3009 H -0.1004 L -0.0842 -0.2897 L -0.0904 -0.2697 Z M -0.1456 -0.246 L -0.1294 -0.23480001 L -0.1356 -0.21490002 L -0.1194 -0.22740002 L -0.1032 -0.21490002 L -0.108200006 -0.23480001 L -0.093200006 -0.246 H -0.11320001 L -0.11940001 -0.26590002 L -0.12560001 -0.24600002 H -0.1456 Z M -0.133 -0.1572 L -0.1168 -0.14469999 L -0.121800005 -0.16459998 L -0.106800005 -0.17579998 H -0.1268 L -0.133 -0.19569997 L -0.1392 -0.17579998 H -0.1592 L -0.14299999 -0.16459998 L -0.14919999 -0.14469999 L -0.133 -0.1572 Z M -0.1092 -0.087 L -0.093 -0.074499995 L -0.098000005 -0.094399996 L -0.083000004 -0.1056 H -0.103 L -0.1092 -0.1255 L -0.1154 -0.10559999 H -0.1354 L -0.1192 -0.09439999 L -0.12539999 -0.07449999 L -0.1092 -0.087 Z M -0.0732 -0.0622 L -0.057000004 -0.051 L -0.063200004 -0.0311 L -0.047000006 -0.0436 L -0.030800005 -0.031100001 L -0.035800006 -0.051 L -0.020800006 -0.0622 H -0.040800005 L -0.047000006 -0.0821 L -0.053200006 -0.062199995 H -0.0732 Z M 0.0295 -0.0521 L 0.0233 -0.0321 L 0.039499998 -0.0446 L 0.055699997 -0.0321 L 0.050699998 -0.0521 L 0.065699995 -0.0633 H 0.045699995 L 0.039499994 -0.083299994 L 0.033299994 -0.0633 H 0.013299994 L 0.0295 -0.0521 Z M 0.1085 -0.1041 L 0.102299996 -0.1241 L 0.096099995 -0.104100004 H 0.07619999 L 0.09239999 -0.09290001 L 0.08619999 -0.07290001 L 0.10239999 -0.085400015 L 0.11859999 -0.07290001 L 0.113599986 -0.09290001 L 0.12859999 -0.104100004 H 0.1085 Z M 0.13 -0.1742 L 0.123799995 -0.1942 L 0.117599994 -0.1742 H 0.0976 L 0.1138 -0.163 L 0.107599996 -0.143 L 0.123799995 -0.15550001 L 0.14 -0.143 L 0.135 -0.163 L 0.15 -0.1742 H 0.13 Z M 0.1064 -0.2359 L 0.1002 -0.216 L 0.116399996 -0.22850001 L 0.1326 -0.216 L 0.1276 -0.2359 L 0.1426 -0.2471 H 0.122600004 L 0.1164 -0.267 L 0.1102 -0.2471 H 0.09020001 L 0.1064 -0.2359 Z M 0.0533 -0.268 L 0.0695 -0.2805 L 0.0857 -0.268 L 0.080699995 -0.28800002 L 0.095699996 -0.29920003 H 0.075799994 L 0.06959999 -0.31920004 L 0.06339999 -0.29920003 H 0.043399993 L 0.059599996 -0.28800002 L 0.0533 -0.268 Z M 0.3575 0.0489 C 0.359 0.0502 0.35959998 0.0522 0.359 0.0541 C 0.3517 0.0787 0.32999998 0.0941 0.3082 0.108500004 C 0.3104 0.1098 0.3132 0.1101 0.3161 0.1093 C 0.318 0.1088 0.32 0.109400004 0.3213 0.1109 C 0.3226 0.1124 0.3228 0.1145 0.322 0.1163 C 0.3095 0.1427 0.2664 0.1686 0.2394 0.18270001 C 0.2402 0.1832 0.24249999 0.1841 0.249 0.1841 C 0.2498 0.1841 0.2507 0.1841 0.2515 0.1841 C 0.25370002 0.1839 0.2558 0.1855 0.25640002 0.1876 S 0.25620002 0.1921 0.25430003 0.19330001 C 0.19840002 0.2292 0.15150003 0.24180001 0.10120003 0.24710001 C 0.10750003 0.25 0.11410003 0.25300002 0.12090003 0.256 C 0.17070003 0.27830002 0.22220004 0.30130002 0.22930002 0.3339 C 0.22970003 0.33560002 0.22920002 0.3373 0.22800002 0.3385 C 0.22710001 0.33949998 0.22580001 0.34 0.22450002 0.34 C 0.22420001 0.34 0.22380002 0.34 0.22350001 0.33990002 C 0.21980001 0.3391 0.21590002 0.33830002 0.21200001 0.3375 C 0.18870002 0.3325 0.16230002 0.32680002 0.14160001 0.32680002 C 0.13570002 0.32680002 0.13040002 0.3273 0.12600002 0.3282 C 0.124100015 0.32860002 0.12220002 0.32790002 0.121100016 0.3264 C 0.09430002 0.29270002 0.06500001 0.2624 0.0026000142 0.2624 L 0.0017000142 0.2624 C -0.06889999 0.2627 -0.089299984 0.2857 -0.110899985 0.31 C -0.114899985 0.3146 -0.11909998 0.3193 -0.123599984 0.3237 C -0.124599986 0.3247 -0.12599999 0.3253 -0.12739998 0.32520002 C -0.13079998 0.32500002 -0.13429998 0.32490003 -0.13789998 0.32490003 C -0.16169998 0.32490003 -0.18499997 0.32970002 -0.20559998 0.33390003 C -0.21479999 0.33580002 -0.22339998 0.33760002 -0.23159999 0.33880004 C -0.23339999 0.33910003 -0.23519999 0.33840004 -0.23629999 0.33690006 C -0.2374 0.33550006 -0.23769999 0.33360004 -0.23699999 0.33190006 C -0.22599998 0.30530006 -0.1827 0.27710006 -0.108299986 0.24790007 C -0.17069998 0.23990007 -0.22209999 0.21530007 -0.2609 0.19390006 C -0.2624 0.19310006 -0.2634 0.19150007 -0.2635 0.18970007 S -0.2627 0.18630007 -0.2613 0.18530007 L -0.252 0.17910007 C -0.2921 0.15610006 -0.3193 0.13600007 -0.33490002 0.11760007 C -0.3359 0.11640007 -0.33630002 0.11470007 -0.3359 0.11320007 C -0.3355 0.11160007 -0.3344 0.110400066 -0.33290002 0.10980007 C -0.32990003 0.10860007 -0.32590002 0.10800007 -0.3217 0.10740007 C -0.32050002 0.107200064 -0.31890002 0.10700007 -0.3174 0.10670007 C -0.3337 0.09510007 -0.35390002 0.07790007 -0.36540002 0.05300007 C -0.36620003 0.05130007 -0.36600003 0.04940007 -0.36490002 0.04790007 C -0.36380002 0.04640007 -0.36200002 0.04570007 -0.36020002 0.04590007 C -0.35770002 0.04620007 -0.35490003 0.04710007 -0.35200003 0.048000067 C -0.34910002 0.048900068 -0.34580004 0.049900066 -0.3433 0.050200067 C -0.3449 0.046200067 -0.34890002 0.04080007 -0.35290003 0.03550007 C -0.35950002 0.026700068 -0.36700004 0.016600069 -0.36920002 0.0058000684 C -0.36960003 0.0036000684 -0.3686 0.0014000684 -0.36670002 4.0006824E-4 S -0.36240003 -2.9993174E-4 -0.36080003 0.0013000682 C -0.35830003 0.003800068 -0.35130003 0.010800068 -0.34710002 0.011900068 C -0.34890002 0.004800068 -0.35520002 -0.012199932 -0.35950002 -0.024099931 C -0.3616 -0.02979993 -0.36360002 -0.035399932 -0.36540002 -0.04029993 C -0.36630002 -0.04269993 -0.36510003 -0.04539993 -0.3628 -0.04649993 C -0.3605 -0.04759993 -0.3577 -0.04679993 -0.3564 -0.04449993 C -0.3517 -0.03669993 -0.3472 -0.03159993 -0.344 -0.02879993 C -0.3443 -0.039599933 -0.3494 -0.058499932 -0.3533 -0.07299993 C -0.3553 -0.08039993 -0.3572 -0.08729993 -0.3585 -0.09329993 C -0.359 -0.095699936 -0.3578 -0.09809993 -0.3555 -0.09899993 C -0.35320002 -0.09989993 -0.3506 -0.099099934 -0.3494 -0.096999936 C -0.34500003 -0.089899935 -0.34170002 -0.085099936 -0.33920002 -0.081999935 C -0.33960003 -0.08529994 -0.34010002 -0.08889993 -0.34070003 -0.09269994 C -0.34350002 -0.11289994 -0.34740004 -0.14059994 -0.34510005 -0.17049994 C -0.34490004 -0.17249994 -0.34350005 -0.17429994 -0.34160003 -0.17489994 C -0.33960003 -0.17549993 -0.33750004 -0.17479993 -0.33620003 -0.17319994 C -0.33390003 -0.17029993 -0.33150002 -0.16649994 -0.32890004 -0.16239993 C -0.32700005 -0.15929994 -0.32410005 -0.15479994 -0.32190004 -0.15199994 C -0.31930003 -0.16079994 -0.32000005 -0.17789994 -0.32060003 -0.19199994 C -0.32100004 -0.20169994 -0.32140005 -0.21179995 -0.32090002 -0.21989994 C -0.32080004 -0.22169994 -0.31970003 -0.22329994 -0.31810004 -0.22409993 C -0.31650004 -0.22489993 -0.31460002 -0.22479993 -0.31310004 -0.22379993 L -0.30380005 -0.21759993 L -0.29990005 -0.24029993 C -0.29960006 -0.24229993 -0.29800007 -0.24389993 -0.29610005 -0.24429992 C -0.29410005 -0.24469993 -0.29210004 -0.24389991 -0.29090005 -0.24229991 L -0.28650004 -0.23589991 C -0.28370005 -0.2408999 -0.28110003 -0.24639991 -0.27830005 -0.2519999 C -0.26980004 -0.2693999 -0.26110005 -0.28739992 -0.24770005 -0.2941999 C -0.24540006 -0.2953999 -0.24250005 -0.29459992 -0.24110004 -0.29229993 L -0.23640004 -0.28429994 L -0.22680004 -0.29329994 C -0.22570004 -0.29429993 -0.22420004 -0.29479995 -0.22270004 -0.29459995 C -0.22120005 -0.29439995 -0.21990004 -0.29349995 -0.21910004 -0.29219994 L -0.21070005 -0.27809995 C -0.20620005 -0.28159997 -0.20120005 -0.28549996 -0.19600005 -0.28969994 C -0.16290006 -0.31569993 -0.13880005 -0.33439994 -0.13090006 -0.33699995 C -0.13030006 -0.33719996 -0.12960005 -0.33729994 -0.12900005 -0.33719996 C -0.12630005 -0.33699995 -0.12410005 -0.33479995 -0.12410005 -0.33209994 C -0.124300055 -0.32269993 -0.13670005 -0.30799994 -0.15690005 -0.28499994 C -0.16180004 -0.27949995 -0.16670005 -0.27379993 -0.17120005 -0.26859993 L -0.14970005 -0.27199993 C -0.14770004 -0.27229992 -0.14570005 -0.27139992 -0.14470005 -0.26969993 C -0.14360005 -0.26799992 -0.14370005 -0.26579994 -0.14490005 -0.26419994 C -0.15080005 -0.25589994 -0.15970005 -0.24959995 -0.16820005 -0.24349993 C -0.17590004 -0.23799993 -0.18320005 -0.23279993 -0.18590005 -0.22759993 L -0.18090005 -0.22179994 C -0.17910005 -0.21969993 -0.17930005 -0.21659994 -0.18140005 -0.21479994 C -0.19500005 -0.20279995 -0.20630005 -0.19139995 -0.21580005 -0.17979994 L -0.21120004 -0.18179995 C -0.20930004 -0.18259995 -0.20700005 -0.18219995 -0.20560004 -0.18059994 C -0.20420004 -0.17909995 -0.20380004 -0.17679994 -0.20480004 -0.17489994 L -0.20770004 -0.16909994 C -0.21530004 -0.15389994 -0.22270004 -0.13929994 -0.23110004 -0.12909994 L -0.22460003 -0.12979993 C -0.22290003 -0.12999994 -0.22130004 -0.12929994 -0.22020003 -0.12799993 C -0.21910003 -0.12669992 -0.21880004 -0.12489993 -0.21940003 -0.123299934 L -0.24020003 -0.060799934 C -0.23860003 -0.061899934 -0.23660003 -0.061999936 -0.23490003 -0.060999934 C -0.23320003 -0.059999935 -0.23220003 -0.058199935 -0.23240003 -0.056199934 L -0.23840003 0.012100067 L -0.23400003 0.006700067 C -0.23280002 0.005300067 -0.23090003 0.0046000667 -0.22910003 0.005000067 C -0.22730003 0.0054000667 -0.22580004 0.0068000667 -0.22530003 0.008600067 L -0.21180002 0.058600068 L -0.21050002 0.05780007 C -0.20920001 0.05700007 -0.20760001 0.05690007 -0.20620002 0.05740007 C -0.20480002 0.05790007 -0.20370002 0.05910007 -0.20320001 0.06050007 L -0.19300002 0.09160007 L -0.18970002 0.08110007 C -0.18910003 0.07900007 -0.18720002 0.07760007 -0.18500002 0.07760007 C -0.18290001 0.07760007 -0.18090002 0.07890007 -0.18020001 0.08100007 L -0.1606 0.13720007 L -0.15210001 0.12930007 C -0.15100001 0.12820007 -0.14940001 0.12780008 -0.14780001 0.12810007 C -0.14630002 0.12840007 -0.14490001 0.12930007 -0.14420001 0.13070007 L -0.1271 0.16360007 L -0.12460001 0.15570007 C -0.12410001 0.15400007 -0.12260001 0.15270007 -0.120900005 0.15230007 C -0.119100004 0.15190007 -0.117300004 0.15250008 -0.116100006 0.15390007 C -0.11100001 0.15970007 -0.106000006 0.16580006 -0.10130001 0.17170008 C -0.07720001 0.20150007 -0.05440001 0.22970007 0.0012999922 0.23100008 C 0.054199994 0.22870009 0.074099995 0.20240009 0.09709999 0.17190008 C 0.10049999 0.16740008 0.10389999 0.16290008 0.10749999 0.15830007 C 0.10859999 0.15700006 0.11019999 0.15620007 0.11189999 0.15640007 C 0.113599986 0.15660007 0.11509999 0.15760008 0.11589999 0.15910007 L 0.11989999 0.16690007 C 0.12439999 0.16060007 0.12839998 0.15100007 0.13209999 0.14230007 C 0.13439998 0.13690007 0.13669999 0.13140006 0.13909999 0.12660007 C 0.13989998 0.12500007 0.14149998 0.12400007 0.14319998 0.12390007 C 0.14499998 0.12380007 0.14669998 0.12460007 0.14769998 0.12610006 L 0.15559998 0.13770007 C 0.16009998 0.13070007 0.16469999 0.11600006 0.16819999 0.104600064 C 0.17029999 0.09790006 0.17239998 0.09110007 0.17449999 0.085200064 C 0.17519999 0.08320007 0.17719999 0.081800066 0.1793 0.08190006 C 0.1814 0.08200006 0.18329999 0.08340006 0.1839 0.08540006 L 0.18699999 0.09550006 C 0.1909 0.08500006 0.19459999 0.07220006 0.19669999 0.05520006 C 0.197 0.05300006 0.1986 0.05130006 0.20079999 0.050900057 C 0.20289999 0.050500058 0.20509999 0.051600058 0.20609999 0.053500056 L 0.20849998 0.058100056 C 0.21239999 0.049200058 0.21669999 0.033900056 0.21809998 0.008100055 C 0.21819998 0.0058000553 0.21989998 0.0039000553 0.22209997 0.003500055 C 0.22429997 0.003000055 0.22659998 0.004100055 0.22759998 0.006200055 L 0.22899997 0.0090000555 C 0.23009998 0.011300055 0.23159997 0.014300056 0.23309997 0.017000057 C 0.23239997 0.007700057 0.23089996 -0.0037999433 0.22929996 -0.015799943 C 0.22739996 -0.029899944 0.22549996 -0.04449994 0.22469996 -0.05729994 C 0.22459996 -0.059299942 0.22559996 -0.06119994 0.22739996 -0.06209994 C 0.22919996 -0.06299994 0.23129997 -0.06279994 0.23289996 -0.061499942 L 0.23699996 -0.05809994 C 0.23289996 -0.07709994 0.22399996 -0.09949994 0.21189997 -0.12139994 C 0.21079996 -0.123399936 0.21119997 -0.12589994 0.21289997 -0.12749994 S 0.21719997 -0.12919994 0.21909997 -0.12799993 C 0.22459997 -0.12429993 0.22849996 -0.12349993 0.23069997 -0.12349993 C 0.23159997 -0.12349993 0.23239997 -0.12359993 0.23309997 -0.12379993 C 0.22629997 -0.13639992 0.21869996 -0.14489993 0.21139997 -0.15319993 C 0.20639998 -0.15889993 0.20159997 -0.16429992 0.19759998 -0.17049992 C 0.19649997 -0.17219992 0.19649997 -0.17429993 0.19759998 -0.17599992 C 0.19869998 -0.17769992 0.20069997 -0.17849992 0.20269997 -0.17809993 L 0.21289997 -0.17619993 C 0.20729996 -0.18469992 0.19869997 -0.19279993 0.19029997 -0.20069993 C 0.18469997 -0.20599993 0.17899998 -0.21139993 0.17409997 -0.21699992 C 0.17289996 -0.21829993 0.17259997 -0.22019991 0.17309996 -0.22179992 S 0.17499997 -0.22469993 0.17669997 -0.22509992 L 0.18209997 -0.22639993 C 0.16819997 -0.23559994 0.15519997 -0.24589993 0.14269997 -0.25769994 C 0.14149997 -0.25879994 0.14089997 -0.26049992 0.14119998 -0.26219994 C 0.14149998 -0.26379994 0.14249998 -0.26519993 0.14409998 -0.26589993 C 0.14719997 -0.26729992 0.15099998 -0.26799992 0.15559998 -0.26799992 C 0.15909998 -0.26799992 0.16269998 -0.2675999 0.16619998 -0.26709992 C 0.16219999 -0.2718999 0.15799998 -0.27679992 0.15379998 -0.28169993 C 0.13819999 -0.29979992 0.12349998 -0.31689993 0.11939998 -0.32979992 C 0.11879998 -0.33179992 0.11949998 -0.33399993 0.12119998 -0.3352999 C 0.12289998 -0.33659992 0.12519997 -0.33659992 0.12699997 -0.3353999 C 0.13219997 -0.33189988 0.13729997 -0.3286999 0.14269997 -0.3253999 C 0.16039997 -0.3142999 0.17869997 -0.3028999 0.20269997 -0.27859992 L 0.21109997 -0.29169992 C 0.21189997 -0.2928999 0.21319997 -0.29369992 0.21459997 -0.2939999 C 0.21599996 -0.2941999 0.21749997 -0.2937999 0.21859996 -0.29279992 L 0.22959995 -0.2831999 L 0.23439996 -0.2930999 C 0.23509996 -0.2944999 0.23629996 -0.29549992 0.23779996 -0.2957999 C 0.23929995 -0.2960999 0.24089995 -0.29569992 0.24209996 -0.29479992 C 0.25419995 -0.28469992 0.26659995 -0.26439992 0.27879995 -0.23449993 L 0.28449994 -0.24319993 C 0.28559995 -0.24489993 0.28769994 -0.24579993 0.28979993 -0.24529994 C 0.29179993 -0.24479994 0.29339993 -0.24319993 0.29369992 -0.24109994 L 0.29779992 -0.21229994 C 0.30089992 -0.21349995 0.3027999 -0.21779995 0.3038999 -0.22139995 C 0.3045999 -0.22359994 0.3066999 -0.22509995 0.3088999 -0.22489995 C 0.3111999 -0.22479995 0.31309992 -0.22319995 0.3135999 -0.22099994 C 0.31669992 -0.20719995 0.31629992 -0.18919994 0.31599993 -0.17479995 C 0.31589994 -0.16799995 0.31569993 -0.15929995 0.31619993 -0.15409994 C 0.31939992 -0.15679994 0.32349992 -0.16199994 0.32859993 -0.17139994 C 0.32969993 -0.17339994 0.33199993 -0.17439994 0.33419994 -0.17389993 C 0.33639994 -0.17339994 0.33799994 -0.17139994 0.33799994 -0.16919993 C 0.33889994 -0.13419993 0.33509994 -0.10669993 0.33169994 -0.08239993 C 0.33149993 -0.08109993 0.33139995 -0.07989993 0.33119994 -0.078699924 C 0.33389995 -0.080899924 0.33769995 -0.08479992 0.34259996 -0.09169993 C 0.34399995 -0.093699925 0.34659997 -0.09439993 0.34879994 -0.09339993 C 0.35099995 -0.092399925 0.35209996 -0.08989993 0.35149994 -0.087599926 C 0.34269994 -0.053599924 0.33959994 -0.036199927 0.33879995 -0.027299926 C 0.34269994 -0.027999926 0.34719995 -0.030699925 0.34979996 -0.038899925 C 0.35059997 -0.041299924 0.35299996 -0.042799924 0.35549995 -0.042299926 C 0.35799995 -0.041799925 0.35969996 -0.039499927 0.35949996 -0.036999926 C 0.35829997 -0.023299925 0.35179996 -0.008499926 0.34649995 0.0035000741 C 0.34559995 0.005400074 0.34479994 0.007300074 0.34399995 0.009200074 C 0.34799996 0.007000074 0.35279995 0.0027000736 0.35579994 -0.0020999266 C 0.35689995 -0.0038999266 0.35909995 -0.0047999267 0.36119995 -0.0042999266 C 0.36329994 -0.0037999265 0.36479995 -0.0019999265 0.36499995 2.0007323E-4 C 0.36639994 0.018500075 0.35479996 0.032600075 0.34459996 0.045000073 C 0.34259996 0.047500074 0.34059995 0.049900074 0.33879995 0.05220007 C 0.34079996 0.052300073 0.34479997 0.051600073 0.35209996 0.04840007 C 0.354 0.0473 0.356 0.0476 0.3575 0.0489 Z M 0.3453 0.0611 C 0.343 0.0616 0.341 0.061899997 0.3391 0.061899997 C 0.3317 0.061899997 0.3286 0.0578 0.3274 0.055299997 C 0.3266 0.053699996 0.3268 0.051799998 0.3277 0.0503 C 0.3303 0.0464 0.3335 0.042499997 0.3369 0.038399998 C 0.3429 0.030999998 0.3491 0.0235 0.3525 0.015299998 C 0.3482 0.018399999 0.3435 0.020499999 0.3394 0.020499999 C 0.3372 0.020499999 0.3353 0.02 0.33359998 0.0189 C 0.3317 0.0176 0.3308 0.015199999 0.33159998 0.012999999 C 0.33299997 0.0089 0.3351 0.0041999994 0.33729997 -8.000005E-4 C 0.33979997 -0.0064000003 0.34249997 -0.012600001 0.34479997 -0.019000001 C 0.34149995 -0.017700002 0.33839998 -0.017400002 0.33649996 -0.017400002 C 0.33519995 -0.017400002 0.33389995 -0.017500002 0.33269995 -0.017700002 C 0.33029994 -0.0181 0.32849994 -0.020200001 0.32849994 -0.022600003 C 0.32839996 -0.031100003 0.33119994 -0.047300003 0.33679995 -0.07080001 C 0.33289996 -0.067700006 0.32919994 -0.066300005 0.32559994 -0.066300005 C 0.32559994 -0.066300005 0.32559994 -0.066300005 0.32559994 -0.066300005 C 0.32529995 -0.066300005 0.32489994 -0.066300005 0.32459995 -0.066300005 C 0.32319996 -0.06640001 0.32199994 -0.0671 0.32109994 -0.06820001 S 0.31989995 -0.07060001 0.31999993 -0.072000004 C 0.32049993 -0.076000005 0.32109994 -0.08010001 0.32169995 -0.0842 C 0.32459995 -0.105000004 0.32759994 -0.1264 0.32799995 -0.1526 C 0.32349995 -0.147 0.31909996 -0.1437 0.31459996 -0.14230001 C 0.31269997 -0.14170001 0.31069997 -0.14230001 0.30939996 -0.1438 C 0.30559996 -0.1482 0.30559996 -0.15720001 0.30599996 -0.1754 C 0.30619997 -0.1848 0.30639997 -0.1958 0.30569997 -0.2058 C 0.30219996 -0.20289999 0.29849997 -0.2023 0.29599997 -0.2023 C 0.29479998 -0.2023 0.29359996 -0.2024 0.29239997 -0.2027 C 0.29039997 -0.20310001 0.28879997 -0.20480001 0.28849998 -0.2069 L 0.2857 -0.2269 L 0.282 -0.22119999 C 0.28100002 -0.21959999 0.2791 -0.21869999 0.2773 -0.21899998 C 0.2754 -0.21919999 0.2738 -0.22039998 0.2732 -0.22219998 C 0.26 -0.25659996 0.24870001 -0.27409998 0.2405 -0.283 L 0.2358 -0.27339998 C 0.2351 -0.27199998 0.2338 -0.27099997 0.2323 -0.27069998 C 0.2308 -0.2704 0.2292 -0.27079996 0.228 -0.27179998 L 0.2165 -0.2819 L 0.2078 -0.26839998 C 0.207 -0.26709998 0.2056 -0.2663 0.2041 -0.2661 C 0.2026 -0.2659 0.20109999 -0.2665 0.2 -0.2676 C 0.1752 -0.2937 0.15650001 -0.3056 0.1386 -0.3168 C 0.14490001 -0.3081 0.1533 -0.2983 0.16160001 -0.28869998 C 0.16880001 -0.2803 0.1762 -0.2717 0.18220001 -0.26389998 C 0.18340002 -0.26229998 0.18360001 -0.2602 0.18260002 -0.25849998 S 0.17980002 -0.25579998 0.17780001 -0.25589997 C 0.17530002 -0.25609997 0.17260002 -0.25649998 0.16960001 -0.25699997 C 0.1657 -0.25759998 0.1614 -0.25829998 0.15750001 -0.25849998 C 0.17020002 -0.24729998 0.18340002 -0.23759998 0.19770001 -0.22899997 C 0.19940001 -0.22789997 0.20040001 -0.22589998 0.2001 -0.22389998 C 0.1998 -0.22189997 0.1983 -0.22029997 0.1963 -0.21979998 L 0.1877 -0.21779998 C 0.1908 -0.21469998 0.194 -0.21159998 0.1974 -0.20839998 C 0.2094 -0.19709998 0.2218 -0.18539998 0.227 -0.17159998 C 0.2276 -0.16989999 0.2273 -0.16799998 0.2262 -0.16659999 C 0.225 -0.1652 0.2232 -0.16459998 0.2214 -0.16489999 L 0.2138 -0.16629998 C 0.2155 -0.16429998 0.2173 -0.16219999 0.2192 -0.16009998 C 0.2273 -0.15099998 0.23640001 -0.14059998 0.24430001 -0.12479998 C 0.24520001 -0.12299998 0.2449 -0.12089998 0.24370001 -0.11939998 C 0.24000001 -0.11499998 0.23400001 -0.11299998 0.2275 -0.11409998 C 0.2395 -0.08989998 0.2473 -0.06579998 0.2494 -0.046499982 C 0.24960001 -0.044499982 0.2486 -0.04249998 0.2468 -0.04159998 C 0.245 -0.040599983 0.24280001 -0.04089998 0.2412 -0.04219998 L 0.236 -0.04659998 C 0.237 -0.03719998 0.2383 -0.02729998 0.2396 -0.017599981 C 0.2419 1.8626451E-8 0.2442 0.01660002 0.2438 0.02760002 C 0.2437 0.02940002 0.2427 0.03110002 0.241 0.03190002 C 0.23979999 0.032500017 0.2386 0.03280002 0.2374 0.03280002 C 0.2333 0.03280002 0.23009999 0.029800018 0.2271 0.025400018 C 0.2241 0.05050002 0.218 0.06400002 0.2129 0.07110002 C 0.2119 0.07250002 0.2102 0.07330002 0.2085 0.07320002 C 0.207 0.073100016 0.2056 0.07230002 0.2047 0.07100002 C 0.20109999 0.08880001 0.1959 0.10140002 0.1915 0.11190002 C 0.1907 0.11380002 0.18869999 0.11510002 0.18669999 0.11500002 C 0.18459998 0.114900015 0.18279998 0.113500014 0.18219998 0.11150002 L 0.17949998 0.10280002 C 0.17909998 0.10420002 0.17859998 0.10560002 0.17819998 0.10710002 C 0.17229998 0.12620002 0.16669998 0.14420001 0.15789998 0.14940003 C 0.15559998 0.15070003 0.15269998 0.15010002 0.15119998 0.14790003 L 0.14479998 0.13850003 C 0.14379998 0.14080003 0.14279997 0.14320004 0.14169998 0.14570004 C 0.13609998 0.15880004 0.13039999 0.17240004 0.122299984 0.17890003 C 0.121099986 0.17980003 0.11959998 0.18020004 0.11809999 0.17990004 C 0.116599984 0.17960003 0.11539999 0.17860003 0.11469999 0.17730004 L 0.11099999 0.17010003 C 0.109099984 0.17250003 0.10729998 0.17500003 0.10549998 0.17740004 C 0.08199999 0.20860004 0.059699982 0.23800004 0.0017999858 0.24050003 C -0.058900014 0.23910004 -0.08420002 0.20780003 -0.108700015 0.17750004 C -0.11160001 0.17400004 -0.114500016 0.17040004 -0.11740001 0.16680004 L -0.12080001 0.17760004 C -0.12140001 0.17950004 -0.12310001 0.18090004 -0.12510002 0.18110004 C -0.12710002 0.18130004 -0.12900002 0.18020004 -0.13000001 0.17840004 L -0.14960001 0.14070004 L -0.15890001 0.14930004 C -0.16010001 0.15040004 -0.16190001 0.15090004 -0.16350001 0.15050004 C -0.16510001 0.15010004 -0.16650002 0.14890005 -0.16700001 0.14730005 L -0.18410002 0.098300055 L -0.18750001 0.109300055 C -0.18810001 0.11140005 -0.19010001 0.112800054 -0.19220002 0.112800054 C -0.19220002 0.112800054 -0.19220002 0.112800054 -0.19220002 0.112800054 C -0.19440001 0.112800054 -0.19630001 0.11140005 -0.19700003 0.10940006 L -0.21010002 0.069300056 L -0.21170002 0.07030006 C -0.21300003 0.071100056 -0.21470003 0.07120006 -0.21610002 0.070600055 C -0.21750002 0.07000005 -0.21860002 0.068800054 -0.21900003 0.06730005 L -0.23170003 0.020300053 L -0.24020003 0.030700054 C -0.24160002 0.032400053 -0.24390003 0.033000056 -0.24600002 0.032200053 C -0.24800003 0.031400055 -0.24930002 0.029300053 -0.24910001 0.027100053 L -0.24270001 -0.046299946 L -0.24630001 -0.043699946 C -0.24810001 -0.042399947 -0.2504 -0.042399947 -0.2522 -0.043699946 C -0.254 -0.044999946 -0.2547 -0.047299948 -0.254 -0.049299948 L -0.23070002 -0.11939995 L -0.24480002 -0.11799995 C -0.24720001 -0.117799945 -0.24940002 -0.11919995 -0.25010002 -0.12149995 C -0.2508 -0.12379995 -0.24980001 -0.12619995 -0.24780002 -0.12739995 C -0.23760003 -0.13309996 -0.22830002 -0.14999995 -0.21930002 -0.16769995 L -0.22870001 -0.16369995 C -0.23070002 -0.16279995 -0.23310001 -0.16339995 -0.2345 -0.16509995 C -0.2359 -0.16679995 -0.236 -0.16929995 -0.23470001 -0.17109995 C -0.22320001 -0.18749994 -0.20930001 -0.20299995 -0.1911 -0.21939994 L -0.1948 -0.22379994 C -0.19590001 -0.22499995 -0.1963 -0.22669995 -0.1958 -0.22829995 C -0.19330001 -0.23769994 -0.18360001 -0.24469994 -0.1733 -0.25199994 C -0.1696 -0.25469995 -0.1658 -0.25729993 -0.16239999 -0.26019993 L -0.18169999 -0.25719994 C -0.1837 -0.25689995 -0.18569998 -0.25779995 -0.18679999 -0.25949994 C -0.18789999 -0.26119995 -0.18769999 -0.26339993 -0.18649998 -0.26509994 C -0.18059999 -0.27309993 -0.17209998 -0.28269994 -0.16379999 -0.29209995 C -0.15639998 -0.30049995 -0.14729999 -0.31079996 -0.14109999 -0.31909996 C -0.1546 -0.30939996 -0.17439999 -0.29379997 -0.18919998 -0.28219998 C -0.19619998 -0.2767 -0.20289998 -0.2715 -0.20849998 -0.26709998 C -0.20959999 -0.26619998 -0.21109998 -0.2659 -0.21249998 -0.2661 C -0.21389997 -0.26639998 -0.21509998 -0.2672 -0.21589997 -0.26839998 L -0.22399998 -0.28199998 L -0.23359998 -0.27299997 C -0.23469998 -0.27199998 -0.23619998 -0.27149996 -0.23769997 -0.27169997 C -0.23919997 -0.27189997 -0.24049997 -0.27279997 -0.24129997 -0.27409998 L -0.24659997 -0.28289998 C -0.25509998 -0.27599996 -0.26209998 -0.26169997 -0.26879996 -0.24789998 C -0.27279997 -0.23969997 -0.27689996 -0.23119998 -0.28139997 -0.22419998 C -0.28229997 -0.22279999 -0.28379998 -0.22189999 -0.28549996 -0.22189999 C -0.28709996 -0.22189999 -0.28869995 -0.22269998 -0.28969997 -0.22399999 L -0.29159996 -0.2268 L -0.29479995 -0.2085 C -0.29509994 -0.2068 -0.29619995 -0.2054 -0.29779994 -0.2048 C -0.29939994 -0.2041 -0.30109996 -0.2043 -0.30249995 -0.2052 L -0.31059995 -0.2106 C -0.31059995 -0.205 -0.31029996 -0.1989 -0.31009996 -0.19260001 C -0.30929995 -0.17170002 -0.30849996 -0.15190001 -0.31489995 -0.14260001 C -0.31519994 -0.14220001 -0.31549996 -0.14190002 -0.31579995 -0.14160001 C -0.31699994 -0.14060001 -0.31849995 -0.14000002 -0.32009995 -0.14000002 C -0.32009995 -0.14000002 -0.32009995 -0.14000002 -0.32009995 -0.14000002 C -0.32519996 -0.14000002 -0.32919994 -0.14530002 -0.33519995 -0.15480001 C -0.33549994 -0.13200001 -0.33259994 -0.11140001 -0.33019996 -0.09430002 C -0.32899997 -0.08560002 -0.32789996 -0.07810002 -0.32749996 -0.071700014 C -0.32739997 -0.07030001 -0.32789996 -0.06900001 -0.32889995 -0.06790002 C -0.32989994 -0.066900015 -0.33109996 -0.06630002 -0.33259994 -0.06630002 C -0.33559993 -0.06630002 -0.33869994 -0.06790002 -0.34179994 -0.07080002 C -0.33629996 -0.05040002 -0.33129993 -0.030100022 -0.33459994 -0.020000022 C -0.33519995 -0.018100021 -0.33689994 -0.016700022 -0.33889994 -0.016600022 C -0.34129995 -0.016400022 -0.34379995 -0.017200023 -0.34629995 -0.018700022 C -0.33919996 6.999783E-4 -0.33589995 0.010699978 -0.33599994 0.014799979 C -0.33599994 0.015899979 -0.33639994 0.016899979 -0.33709994 0.01779998 C -0.34029993 0.02179998 -0.34539995 0.02279998 -0.35039994 0.02099998 C -0.34839994 0.02389998 -0.34629995 0.026699979 -0.34429994 0.02939998 C -0.33749995 0.03849998 -0.33159995 0.04639998 -0.33199996 0.05409998 C -0.33209994 0.055299982 -0.33259997 0.05649998 -0.33349997 0.05739998 C -0.33539996 0.05929998 -0.33809996 0.06019998 -0.34139997 0.06019998 C -0.34419996 0.06019998 -0.34729996 0.05949998 -0.35039997 0.05869998 C -0.33769998 0.07929998 -0.31869996 0.09349998 -0.30479997 0.10279998 C -0.30359998 0.10359998 -0.3029 0.10479998 -0.30259997 0.10619998 C -0.30229998 0.10809998 -0.30279997 0.10999998 -0.30389997 0.11159998 C -0.30669996 0.11539998 -0.31269997 0.11629998 -0.3196 0.11729998 C -0.32 0.11739998 -0.3204 0.11739998 -0.3209 0.117499985 C -0.3044 0.13439998 -0.2776 0.15309998 -0.2394 0.17449999 C -0.2379 0.17539999 -0.2369 0.17689998 -0.2368 0.17869999 C -0.2367 0.18039998 -0.2376 0.18209998 -0.239 0.18309999 L -0.2482 0.18919998 C -0.2067 0.21149999 -0.15169999 0.23599999 -0.0855 0.24009998 C -0.0831 0.24019998 -0.0812 0.24199998 -0.0809 0.24439998 S -0.0819 0.24899998 -0.0841 0.24979998 C -0.1567 0.2765 -0.2049 0.30369997 -0.22209999 0.32729998 C -0.2172 0.32639998 -0.21209998 0.32529998 -0.20689999 0.3243 C -0.18589999 0.32 -0.16209999 0.31509998 -0.13719998 0.31509998 C -0.13419998 0.31509998 -0.13129999 0.31519997 -0.12839998 0.3153 C -0.12469998 0.31149998 -0.12129998 0.3076 -0.11759998 0.30359998 C -0.09549998 0.2787 -0.07259998 0.253 0.00250002 0.25259998 L 0.0034000198 0.25259998 C 0.06870002 0.25259998 0.10090002 0.2846 0.12780002 0.318 C 0.13220002 0.3173 0.13710001 0.31689999 0.14240001 0.31689999 C 0.1641 0.31689999 0.19110002 0.3227 0.21490002 0.32779998 C 0.21580002 0.32799998 0.21660002 0.32819998 0.21750002 0.3284 C 0.20460002 0.3042 0.15870002 0.2837 0.11780002 0.2654 C 0.104800016 0.25959998 0.09260002 0.2541 0.08120002 0.24849999 C 0.07920002 0.24749999 0.07810002 0.2453 0.07850002 0.24309999 S 0.08080002 0.23919998 0.08300002 0.2391 C 0.13530001 0.23529999 0.18210003 0.22569999 0.23750001 0.19279999 C 0.23560001 0.19209999 0.23410001 0.19109999 0.23290001 0.18989998 C 0.23060001 0.18759999 0.22950001 0.18449998 0.22950001 0.18039998 C 0.22950001 0.17849998 0.23060001 0.17679998 0.23220001 0.17599998 C 0.2507 0.16649999 0.2926 0.14319998 0.30940002 0.119699985 C 0.30390003 0.11849999 0.29930001 0.114899985 0.29700002 0.109999985 C 0.29590002 0.107799985 0.29670003 0.10509998 0.29880002 0.10369998 L 0.2998 0.102999985 C 0.3172 0.0906 0.3359 0.0782 0.3453 0.0611 Z M 0.1074 0.0559 C 0.0286 0.0064999983 -0.06469999 0.0274 -0.1058 0.0594 C -0.0417 0.0981 0.0422 0.1072 0.1074 0.0559 Z"/>
</defs>
<g>
<rect x="0" y="0" width="640" height="360" class="blue"/>
<use xlink:href="#leaves" transform="translate(320 180) scale(360 360) rotate(0)" class="green"/>
<use xlink:href="#stars" transform="translate(320 180) scale(360 360) rotate(0)" class="white"/>
<use xlink:href="#cup" transform="translate(320 180) scale(360 360) rotate(0)" class="brown"/>
</g>
</svg>
