<?xml version="1.0"?>
<svg xmlns="http://www.w3.org/2000/svg" xmlns:xlink="http://www.w3.org/1999/xlink" version="1.1" width="640" height="360" viewBox="0 0 640 360">
<!-- Generated by Kreative Vexillo v1.0 -->
<style>
.red{fill:rgb(255,0,0);}
.white{fill:rgb(255,255,255);}
</style>
<defs>
<path id="cross" d="M 0.4892 0.0 C 0.4892 -0.0594 0.49289998 -0.118 0.5 -0.1755 C 0.38 -0.15280001 0.2571 -0.1381 0.132 -0.132 C 0.1381 -0.2571 0.1529 -0.38 0.1755 -0.5 C 0.118 -0.4929 0.0594 -0.4892 0.0 -0.4892 S -0.118 -0.4929 -0.1755 -0.5 C -0.15280001 -0.38 -0.1381 -0.2571 -0.132 -0.132 C -0.2571 -0.1381 -0.38 -0.1529 -0.5 -0.1755 C -0.4929 -0.118 -0.4892 -0.0594 -0.4892 0.0 S -0.4929 0.118 -0.5 0.1755 C -0.38 0.15280001 -0.2571 0.1381 -0.132 0.132 C -0.1381 0.2571 -0.1529 0.38 -0.1755 0.5 C -0.118 0.4929 -0.0594 0.4892 0.0 0.4892 S 0.118 0.4929 0.1755 0.5 C 0.15280001 0.38 0.1381 0.2571 0.132 0.132 C 0.2571 0.1381 0.38 0.1529 0.5 0.1755 C 0.4929 0.118 0.4892 0.0594 0.4892 0.0 Z"/>
</defs>
<g>
<rect x="0" y="0" width="640" height="360" class="white"/>
<g>
<rect x="0" y="144" width="640" height="72" class="red"/>
<rect x="284" y="0" width="72" height="360" class="red"/>
</g>
<use xlink:href="#cross" transform="translate(142 72) scale(72 72) rotate(0)" class="red"/>
<use xlink:href="#cross" transform="translate(498 72) scale(72 72) rotate(0)" class="red"/>
<use xlink:href="#cross" transform="translate(142 288) scale(72 72) rotate(0)" class="red"/>
<use xlink:href="#cross" transform="translate(498 288) scale(72 72) rotate(0)" class="red"/>
</g>
</svg>
