<?xml version="1.0"?>
<svg xmlns="http://www.w3.org/2000/svg" xmlns:xlink="http://www.w3.org/1999/xlink" version="1.1" width="640" height="360" viewBox="0 0 640 360">
<!-- Generated by Kreative Vexillo v1.0 -->
<style>
.blue{fill:rgb(0,43,127);}
.red{fill:rgb(232,17,45);}
.white{fill:rgb(255,255,255);}
</style>
<defs>
<path id="star5" d="M 0.0 -1.0 L 0.261238 -0.359563 L 0.951057 -0.309017 L 0.422691 0.137341 L 0.587785 0.809017 L 0.0 0.444444 L -0.587785 0.809017 L -0.422691 0.137341 L -0.951057 -0.309017 L -0.261238 -0.359563 Z"/>
<path id="star7" d="M 0.0 -1.0 L 0.192837 -0.40043 L 0.781831 -0.62349 L 0.433301 -0.098898 L 0.974928 0.222521 L 0.34748 0.277106 L 0.433884 0.900969 L 0.0 0.444444 L -0.433884 0.900969 L -0.34748 0.277106 L -0.974928 0.222521 L -0.433301 -0.098898 L -0.781831 -0.62349 L -0.192837 -0.40043 Z"/>
<clipPath id="clip0">
<path d="M 0 0 L 0 13.7682 L 0 13.7682 L 135.5232 90 L 0 166.2318 L 0 166.2318 L 0 180 L 24.4767 180 L 160 103.7682 L 160 103.7682 L 295.5232 180 L 320 180 L 320 166.2318 L 184.4768 90 L 184.4768 90 L 320 13.7682 L 320 0 L 295.5232 0 L 160 76.2318 L 160 76.2318 L 24.4767 0 Z"/>
</clipPath>
</defs>
<g>
<rect x="0" y="0" width="640" height="360" class="blue"/>
<g>
<path d="M 0 0 L 0 20.6523 L 0 20.6523 L 123.2849 90 L 123.2849 90 L 0 159.3478 L 0 159.3478 L 0 180 L 36.7151 180 L 160 110.6523 L 160 110.6523 L 283.2849 180 L 320 180 L 320 159.3477 L 196.7151 90 L 196.7151 90 L 320 20.6523 L 320 0 L 283.2849 0 L 160 69.3477 L 160 69.3477 L 160 69.3477 L 160 69.3477 L 160 69.3477 L 160 69.3477 L 36.7151 0 Z" class="white"/>
<g clip-path="url(#clip0)">
<path d="M 0 0 L 160 90 L 0 90 Z" class="red"/>
<path d="M 320 0 L 160 90 L 160 0 Z" class="red"/>
<path d="M 0 180 L 160 90 L 160 180 Z" class="red"/>
<path d="M 320 180 L 160 90 L 320 90 Z" class="red"/>
</g>
<g>
<rect x="0" y="60" width="320" height="60" class="white"/>
<rect x="130" y="0" width="60" height="180" class="white"/>
</g>
<g>
<rect x="0" y="72" width="320" height="36" class="red"/>
<rect x="142" y="0" width="36" height="180" class="red"/>
</g>
</g>
<g>
<use xlink:href="#star7" transform="translate(160 270) scale(48 48) rotate(0)" class="white"/>
<use xlink:href="#star7" transform="translate(480 300) scale(22.8571 22.8571) rotate(0)" class="white"/>
<use xlink:href="#star7" transform="translate(400 157.5) scale(22.8571 22.8571) rotate(0)" class="white"/>
<use xlink:href="#star7" transform="translate(480 60) scale(22.8571 22.8571) rotate(0)" class="white"/>
<use xlink:href="#star7" transform="translate(551.1111 133.5) scale(22.8571 22.8571) rotate(0)" class="white"/>
<use xlink:href="#star5" transform="translate(512 195) scale(13.3333 13.3333) rotate(0)" class="white"/>
</g>
</g>
</svg>
