<?xml version="1.0"?>
<svg xmlns="http://www.w3.org/2000/svg" xmlns:xlink="http://www.w3.org/1999/xlink" version="1.1" width="640" height="360" viewBox="0 0 640 360">
<!-- Generated by Kreative Vexillo v1.0 -->
<style>
.black{fill:rgb(0,0,0);}
.green{fill:rgb(0,169,79);}
.yellow{fill:rgb(255,221,0);}
</style>
<g>
<rect x="0" y="0" width="640" height="360" class="green"/>
<path d="M 0 0 L 320 180 L 0 360 Z" class="black"/>
<path d="M 640 0 L 320 180 L 640 360 Z" class="black"/>
<path d="M 0 0 L 0 34.4204 L 0 34.4204 L 258.8081 180 L 258.8081 180 L 0 325.5796 L 0 325.5796 L 0 360 L 61.1919 360 L 320 214.4204 L 320 214.4204 L 578.8081 360 L 640 360 L 640 325.5796 L 381.1919 180 L 381.1919 180 L 640 34.4204 L 640 0 L 578.8081 0 L 320 145.5796 L 320 145.5796 L 61.1919 0 Z" class="yellow"/>
</g>
</svg>
