<?xml version="1.0"?>
<svg xmlns="http://www.w3.org/2000/svg" xmlns:xlink="http://www.w3.org/1999/xlink" version="1.1" width="640" height="360" viewBox="0 0 640 360">
<!-- Generated by Kreative Vexillo v1.0 -->
<style>
.blue{fill:rgb(20,94,112);}
.white{fill:rgb(255,255,255);}
</style>
<defs>
<path id="e" d="M 0.0 -0.5 L -0.1732 -0.19999999 L -0.115499996 -0.09999999 H -0.231 L -0.3176 -0.25 H -0.43310001 L -0.292 -0.0058 H 0.292 L 0.433 -0.25 H 0.3175 L 0.23089999 -0.099999994 H 0.1155 L 0.17320001 -0.19999999 L 0.0 -0.5 Z M 0.0 -0.3 L 0.0577 -0.20000002 L 0.0 -0.1 L -0.0577 -0.2 L 0.0 -0.3 Z M -0.292 0.0058 L -0.433 0.25 H -0.3175 L -0.23089999 0.099999994 H -0.11539999 L -0.1731 0.19999999 L 0.0 0.5 L 0.1732 0.19999999 L 0.115499996 0.09999999 H 0.231 L 0.3176 0.25 H 0.43310001 L 0.292 0.0058 H -0.292 Z M 0.0 0.1 L 0.0577 0.2 L 0.0 0.3 L -0.0577 0.20000002 L 0.0 0.1 Z"/>
</defs>
<g>
<rect x="0" y="0" width="640" height="360" class="blue"/>
<use xlink:href="#e" transform="translate(320 180) scale(196.3636 196.3636) rotate(0)" class="white"/>
</g>
</svg>
