<?xml version="1.0"?>
<svg xmlns="http://www.w3.org/2000/svg" xmlns:xlink="http://www.w3.org/1999/xlink" version="1.1" width="640" height="360" viewBox="0 0 640 360">
<!-- Generated by Kreative Vexillo v1.0 -->
<style>
.red{fill:rgb(237,28,36);}
.white{fill:rgb(255,255,255);}
</style>
<defs>
<path id="e" d="M -0.0014 -0.2504 C -0.082 -0.2886 -0.099300005 -0.4036 -0.037 -0.4587 C -0.0241 -0.4702 -0.003800001 -0.47800002 0.014399998 -0.4758 C 0.049799997 -0.4716 0.0757 -0.4411 0.0708 -0.40420002 C 0.067499995 -0.38020003 0.052 -0.36110002 0.031299997 -0.35230002 C -0.0019000024 -0.33810002 -0.011500005 -0.29110003 0.021399997 -0.26350003 C 0.030599996 -0.25510004 0.043299995 -0.25560004 0.040099997 -0.24510004 C 0.037 -0.2347 0.0155 -0.2424 -0.0014 -0.2504 M 0.1737 -0.4315 C 0.2218 -0.36089998 0.1869 -0.258 0.109400004 -0.2391 C 0.093200006 -0.23519999 0.0732 -0.2377 0.058800004 -0.2479 C 0.030800004 -0.2673 0.021200005 -0.3066 0.041300006 -0.3363 C 0.056000005 -0.3577 0.07390001 -0.3649 0.09920001 -0.3653 C 0.12870002 -0.3657 0.15140001 -0.3963 0.14870001 -0.4244 C 0.14780001 -0.4352 0.13310002 -0.451 0.143 -0.4574 C 0.1501 -0.4623 0.1637 -0.4464 0.1737 -0.4315 M 0.0014 0.2504 C 0.082 0.2886 0.099300005 0.4036 0.037 0.4587 C 0.0241 0.4702 0.003800001 0.47800002 -0.014399998 0.4758 C -0.049799997 0.4716 -0.0757 0.4411 -0.0708 0.40420002 C -0.067499995 0.38020003 -0.052 0.36110002 -0.031299997 0.35230002 C 0.0019000024 0.33810002 0.011500005 0.29110003 -0.021399997 0.26350003 C -0.030599996 0.25510004 -0.043299995 0.25560004 -0.040099997 0.24510004 C -0.037 0.2347 -0.0155 0.2424 0.0014 0.2504 M -0.1737 0.4315 C -0.2218 0.36089998 -0.1869 0.258 -0.109400004 0.2391 C -0.093200006 0.23519999 -0.0732 0.2377 -0.058800004 0.2479 C -0.030800004 0.2673 -0.021200005 0.3066 -0.041300006 0.3363 C -0.056000005 0.3577 -0.07390001 0.3649 -0.09920001 0.3653 C -0.12870002 0.3657 -0.15140001 0.3963 -0.14870001 0.4244 C -0.14780001 0.4352 -0.13310002 0.451 -0.143 0.4574 C -0.1501 0.4623 -0.1637 0.4464 -0.1737 0.4315 M 0.2504 -0.0014 C 0.2886 -0.082 0.4036 -0.099300005 0.4587 -0.037 C 0.4702 -0.0241 0.47800002 -0.003800001 0.4758 0.014399998 C 0.4716 0.049799997 0.4411 0.0757 0.40420002 0.0708 C 0.38020003 0.067499995 0.36110002 0.052 0.35230002 0.031299997 C 0.33810002 -0.0019000024 0.29110003 -0.011500005 0.26350003 0.021399997 C 0.25510004 0.030599996 0.25560004 0.043299995 0.24510004 0.040099997 C 0.2347 0.037 0.2424 0.0155 0.2504 -0.0014 M 0.4315 0.1737 C 0.36089998 0.2218 0.258 0.1869 0.2391 0.109400004 C 0.23519999 0.093200006 0.2377 0.0732 0.2479 0.058800004 C 0.2673 0.030800004 0.3066 0.021200005 0.3363 0.041300006 C 0.3577 0.056000005 0.3649 0.07390001 0.3653 0.09920001 C 0.3657 0.12870002 0.3963 0.15140001 0.4244 0.14870001 C 0.4352 0.14780001 0.451 0.13310002 0.4574 0.143 C 0.4623 0.1501 0.4464 0.1637 0.4315 0.1737 M -0.2504 0.0014 C -0.2886 0.082 -0.4036 0.099300005 -0.4587 0.037 C -0.4702 0.0241 -0.47800002 0.003800001 -0.4758 -0.014399998 C -0.4716 -0.049799997 -0.4411 -0.0757 -0.40420002 -0.0708 C -0.38020003 -0.067499995 -0.36110002 -0.052 -0.35230002 -0.031299997 C -0.33810002 0.0019000024 -0.29110003 0.011500005 -0.26350003 -0.021399997 C -0.25510004 -0.030599996 -0.25560004 -0.043299995 -0.24510004 -0.040099997 C -0.2347 -0.037 -0.2424 -0.0155 -0.2504 0.0014 M -0.4315 -0.1737 C -0.36089998 -0.2218 -0.258 -0.1869 -0.2391 -0.109400004 C -0.23519999 -0.093200006 -0.2377 -0.0732 -0.2479 -0.058800004 C -0.2673 -0.030800004 -0.3066 -0.021200005 -0.3363 -0.041300006 C -0.3577 -0.056000005 -0.3649 -0.07390001 -0.3653 -0.09920001 C -0.3657 -0.12870002 -0.3963 -0.15140001 -0.4244 -0.14870001 C -0.4352 -0.14780001 -0.451 -0.13310002 -0.4574 -0.143 C -0.4623 -0.1501 -0.4464 -0.1637 -0.4315 -0.1737 M 0.176 -0.178 C 0.146 -0.262 0.21509999 -0.3556 0.2982 -0.3505 C 0.3154 -0.3495 0.33540002 -0.3407 0.3466 -0.3263 C 0.3687 -0.2983 0.3654 -0.2584 0.3358 -0.2358 C 0.31649998 -0.2211 0.29209998 -0.2186 0.2712 -0.227 C 0.2376 -0.2404 0.1977 -0.214 0.2015 -0.1712 C 0.2021 -0.1588 0.2114 -0.15010001 0.2017 -0.14490001 C 0.1921 -0.1397 0.1824 -0.1604 0.176 -0.178 M 0.4279 -0.1823 C 0.41189998 -0.098400004 0.3146 -0.050300002 0.24639998 -0.091800004 C 0.23219998 -0.1005 0.21989998 -0.1164 0.21679999 -0.1338 C 0.21069999 -0.1674 0.23179999 -0.2019 0.2669 -0.2087 C 0.2925 -0.21350001 0.3102 -0.2059 0.32840002 -0.1883 C 0.3495 -0.1677 0.38720003 -0.1733 0.4052 -0.1951 C 0.4122 -0.2034 0.41300002 -0.225 0.42450002 -0.2225 C 0.433 -0.2208 0.4315 -0.1999 0.4279 -0.1823 M -0.176 0.178 C -0.146 0.262 -0.21509999 0.3556 -0.2982 0.3505 C -0.3154 0.3495 -0.3353 0.3407 -0.3466 0.3263 C -0.3687 0.2983 -0.3654 0.2584 -0.3358 0.2358 C -0.31649998 0.2211 -0.29209998 0.2186 -0.2712 0.227 C -0.2376 0.2404 -0.1977 0.214 -0.2015 0.1712 C -0.2021 0.1588 -0.2114 0.15010001 -0.2017 0.14490001 C -0.1921 0.1397 -0.1824 0.1604 -0.176 0.178 M -0.4279 0.1823 C -0.41189998 0.098400004 -0.3146 0.050300002 -0.24639998 0.091800004 C -0.23219998 0.1005 -0.21989998 0.1164 -0.21679999 0.1338 C -0.21069999 0.1674 -0.23179999 0.2019 -0.2669 0.2087 C -0.2925 0.21350001 -0.3102 0.2059 -0.32840002 0.1883 C -0.3495 0.1677 -0.38720003 0.1733 -0.4052 0.1951 C -0.4122 0.2034 -0.41300002 0.225 -0.42450002 0.2225 C -0.433 0.2208 -0.4315 0.1999 -0.4279 0.1823 M 0.178 0.176 C 0.262 0.146 0.3556 0.21509999 0.3505 0.2982 C 0.3495 0.3154 0.3407 0.3353 0.3263 0.3466 C 0.2983 0.3687 0.2584 0.3654 0.2358 0.3358 C 0.2211 0.31649998 0.2186 0.29209998 0.227 0.2712 C 0.2404 0.2376 0.214 0.1977 0.1712 0.2015 C 0.1588 0.2021 0.15010001 0.2114 0.14490001 0.2017 C 0.1397 0.1921 0.1604 0.1824 0.178 0.176 M 0.1823 0.4279 C 0.098400004 0.41189998 0.050300002 0.3146 0.091800004 0.24639998 C 0.1005 0.23219998 0.1164 0.21989998 0.1338 0.21679999 C 0.1674 0.21069999 0.2019 0.23179999 0.2087 0.2669 C 0.21350001 0.2925 0.2059 0.3102 0.1883 0.32840002 C 0.1677 0.3495 0.1733 0.38720003 0.1951 0.4052 C 0.2034 0.4122 0.225 0.41300002 0.2225 0.42450002 C 0.2208 0.433 0.1999 0.4315 0.1823 0.4279 M -0.178 -0.176 C -0.262 -0.146 -0.3556 -0.21509999 -0.3505 -0.2982 C -0.3495 -0.3154 -0.3407 -0.33540002 -0.3263 -0.3466 C -0.2983 -0.3687 -0.2584 -0.3654 -0.2358 -0.3358 C -0.2211 -0.31649998 -0.2186 -0.29209998 -0.227 -0.2712 C -0.2404 -0.2376 -0.214 -0.1977 -0.1712 -0.2015 C -0.1588 -0.2021 -0.15010001 -0.2114 -0.14490001 -0.2017 C -0.1397 -0.1921 -0.1604 -0.1824 -0.178 -0.176 M -0.1823 -0.4279 C -0.098400004 -0.41189998 -0.050300002 -0.3146 -0.091800004 -0.24639998 C -0.1005 -0.23219998 -0.1164 -0.21989998 -0.1338 -0.21679999 C -0.1674 -0.21069999 -0.2019 -0.23179999 -0.2087 -0.2669 C -0.21350001 -0.2925 -0.2059 -0.3102 -0.1883 -0.32840002 C -0.1677 -0.3495 -0.1733 -0.38720003 -0.1951 -0.4052 C -0.2034 -0.4122 -0.225 -0.41300002 -0.2225 -0.42450002 C -0.2208 -0.433 -0.1999 -0.4315 -0.1823 -0.4279"/>
</defs>
<g>
<rect x="0" y="0" width="640" height="360" class="white"/>
<use xlink:href="#e" transform="translate(320 180) scale(270 270) rotate(0)" class="red"/>
</g>
</svg>
