<?xml version="1.0"?>
<svg xmlns="http://www.w3.org/2000/svg" xmlns:xlink="http://www.w3.org/1999/xlink" version="1.1" width="640" height="360" viewBox="0 0 640 360">
<!-- Generated by Kreative Vexillo v1.0 -->
<style>
.blue{fill:rgb(0,93,170);}
.red{fill:rgb(238,49,36);}
.white{fill:rgb(255,255,255);}
.yellow{fill:rgb(255,221,0);}
</style>
<defs>
<path id="star14" d="M 0.0 -1.0 L 0.089008 -0.389971 L 0.433884 -0.900969 L 0.249396 -0.312733 L 0.781831 -0.62349 L 0.360388 -0.173553 L 0.974928 -0.222521 L 0.4 -0.0 L 0.974928 0.222521 L 0.360388 0.173553 L 0.781831 0.62349 L 0.249396 0.312733 L 0.433884 0.900969 L 0.089008 0.389971 L 0.0 1.0 L -0.089008 0.389971 L -0.433884 0.900969 L -0.249396 0.312733 L -0.781831 0.62349 L -0.360388 0.173553 L -0.974928 0.222521 L -0.4 0.0 L -0.974928 -0.222521 L -0.360388 -0.173553 L -0.781831 -0.62349 L -0.249396 -0.312733 L -0.433884 -0.900969 L -0.089008 -0.389971 Z"/>
</defs>
<g>
<g>
<rect x="0" y="0" width="640" height="25.7143" class="red"/>
<rect x="0" y="25.7143" width="640" height="25.7143" class="white"/>
<rect x="0" y="51.4286" width="640" height="25.7143" class="red"/>
<rect x="0" y="77.1429" width="640" height="25.7143" class="white"/>
<rect x="0" y="102.8571" width="640" height="25.7143" class="red"/>
<rect x="0" y="128.5714" width="640" height="25.7143" class="white"/>
<rect x="0" y="154.2857" width="640" height="25.7143" class="red"/>
<rect x="0" y="180" width="640" height="25.7143" class="white"/>
<rect x="0" y="205.7143" width="640" height="25.7143" class="red"/>
<rect x="0" y="231.4286" width="640" height="25.7143" class="white"/>
<rect x="0" y="257.1429" width="640" height="25.7143" class="red"/>
<rect x="0" y="282.8571" width="640" height="25.7143" class="white"/>
<rect x="0" y="308.5714" width="640" height="25.7143" class="red"/>
<rect x="0" y="334.2857" width="640" height="25.7143" class="white"/>
</g>
<rect x="0" y="0" width="320" height="205.7143" class="blue"/>
<ellipse cx="115" cy="102.8571" rx="77.1429" ry="77.1429" class="yellow"/>
<ellipse cx="134.2857" cy="102.8571" rx="70.7143" ry="70.7143" class="blue"/>
<use xlink:href="#star14" transform="translate(198.5714 102.8571) scale(64.2857 64.2857) rotate(0)" class="yellow"/>
</g>
</svg>
