<?xml version="1.0"?>
<svg xmlns="http://www.w3.org/2000/svg" xmlns:xlink="http://www.w3.org/1999/xlink" version="1.1" width="640" height="360" viewBox="0 0 640 360">
<!-- Generated by Kreative Vexillo v1.0 -->
<style>
.green{fill:rgb(0,133,63);}
.white{fill:rgb(255,255,255);}
</style>
<defs>
<path id="tree" d="M 0.0083 -0.4986 C 0.0062999995 -0.4768 0.0042999997 -0.4551 0.0022999998 -0.43330002 C -0.0051 -0.4322 -0.0124 -0.4311 -0.0198 -0.43 C -0.0198 -0.43 -0.0044 -0.4214 -0.0018000007 -0.4127 C -0.0018000007 -0.4113 -0.0018000007 -0.4102 -0.0018000007 -0.4093 C -0.0018000007 -0.4093 -0.0018000007 -0.4093 -0.0018000007 -0.4093 C -0.0062000006 -0.4059 -0.0194 -0.4075 -0.0194 -0.4075 C -0.0194 -0.4075 -0.0020000003 -0.3928 -6.0000084E-4 -0.3875 C -6.0000084E-4 -0.3875 -6.0000084E-4 -0.3875 -6.0000084E-4 -0.3875 C -6.0000084E-4 -0.3875 -6.0000084E-4 -0.3875 -6.0000084E-4 -0.3875 C -6.0000084E-4 -0.3875 -6.0000084E-4 -0.3875 -6.0000084E-4 -0.3875 C -6.0000084E-4 -0.3875 -6.0000084E-4 -0.3875 -6.0000084E-4 -0.3875 C -0.004700001 -0.38369998 -0.024 -0.3827 -0.024 -0.3827 S -0.0025999993 -0.3674 -0.0011999998 -0.3588 C 2.3283064E-10 -0.35099998 -0.0011999998 -0.3464 -0.0011999998 -0.3456 C -0.0026999998 -0.34690002 -0.037199996 -0.3759 -0.0595 -0.36740002 C -0.0606 -0.36740002 -0.061300002 -0.36630002 -0.0615 -0.3657 C -0.0615 -0.3657 -0.0615 -0.3657 -0.0615 -0.3657 C -0.0599 -0.3609 -0.0284 -0.35590002 -0.006500002 -0.3369 C -0.006500002 -0.3321 -0.06910001 -0.352 -0.0714 -0.3396 C -0.0695 -0.33609998 -0.0046000034 -0.3267 1.9999593E-4 -0.3183 C -0.023700004 -0.3183 -0.0731 -0.3236 -0.0714 -0.3157 C -0.076400004 -0.3066 -0.024800003 -0.3117 -0.0031000003 -0.30429998 C 0.0031999997 -0.29709998 0.0025999998 -0.29109997 -0.008400001 -0.29029998 C -0.0293 -0.3002 -0.076 -0.3076 -0.0761 -0.29489997 C -0.0761 -0.29489997 -0.0761 -0.29489997 -0.0761 -0.29489997 C -0.0761 -0.29489997 -0.0761 -0.29489997 -0.0761 -0.29489997 C -0.0761 -0.29489997 -0.0761 -0.29489997 -0.0761 -0.29489997 C -0.0761 -0.29489997 -0.0761 -0.29489997 -0.0761 -0.29489997 C -0.0708 -0.29229996 -0.0273 -0.29359996 -0.010899998 -0.28279996 C -0.034099996 -0.27749997 -0.1129 -0.29349995 -0.1134 -0.28569996 C -0.1112 -0.28209996 -0.098699994 -0.26619998 -0.0773 -0.26679996 C -0.055899996 -0.26679996 -0.006299995 -0.25809994 -0.002899997 -0.25149995 C -0.002899997 -0.25149995 -0.002899997 -0.25149995 -0.002899997 -0.25149995 C -0.004399997 -0.24689995 -0.0682 -0.26569995 -0.0928 -0.25409997 C -0.1183 -0.24209997 -0.0198 -0.24939996 -0.0036999956 -0.23469996 C 0.012400005 -0.21999997 -0.035799995 -0.23609996 -0.035799995 -0.23609996 C -0.035799995 -0.23609996 -0.1028 -0.24539995 -0.112799995 -0.24069996 C -0.12279999 -0.23599996 -0.1343 -0.22539996 -0.1343 -0.22539996 S -0.1276 -0.21209995 -0.12089999 -0.21479996 C -0.11989999 -0.21479996 -0.11919999 -0.21479996 -0.11879999 -0.21479996 C -0.11879999 -0.21479996 -0.11879999 -0.21479996 -0.11879999 -0.21479996 C -0.11879999 -0.21479996 -0.11879999 -0.21479996 -0.11879999 -0.21479996 C -0.11879999 -0.21479996 -0.11879999 -0.21479996 -0.11879999 -0.21479996 C -0.11879999 -0.21479996 -0.11879999 -0.21479996 -0.11879999 -0.21479996 C -0.11879999 -0.21479996 -0.11879999 -0.21479996 -0.11879999 -0.21479996 C -0.11879999 -0.21479996 -0.11879999 -0.21479996 -0.11879999 -0.21479996 C -0.11879999 -0.21279995 -0.123399995 -0.20699996 -0.123399995 -0.20699996 S -0.029599994 -0.18439996 -0.0087999925 -0.16439995 C 0.012000008 -0.14439996 -0.12799999 -0.19569996 -0.12799999 -0.19569996 C -0.12799999 -0.19569996 -0.18429999 -0.17509995 -0.124699995 -0.17369996 C -0.1313 -0.16399996 -0.12189999 -0.15809996 -0.1214 -0.15769996 C -0.1214 -0.15769996 -0.022199996 -0.13699996 -0.012199998 -0.12099996 C -0.0021999981 -0.10499996 -0.0799 -0.13629997 -0.0973 -0.14499997 C -0.1141 -0.15339996 -0.1609 -0.14059997 -0.16350001 -0.13669996 C -0.16350001 -0.13669996 -0.16350001 -0.13669996 -0.16350001 -0.13669996 C -0.16350001 -0.13669996 -0.16350001 -0.13669996 -0.16350001 -0.13669996 C -0.16350001 -0.13669996 -0.16350001 -0.13669996 -0.16350001 -0.13669996 C -0.16350001 -0.13669996 -0.16350001 -0.13669996 -0.16350001 -0.13669996 C -0.16350001 -0.13669996 -0.16350001 -0.13669996 -0.16350001 -0.13669996 C -0.16350001 -0.13669996 -0.16350001 -0.13669996 -0.16350001 -0.13669996 C -0.16350001 -0.13669996 -0.16350001 -0.13669996 -0.16350001 -0.13669996 C -0.16350001 -0.13669996 -0.16350001 -0.13669996 -0.16350001 -0.13669996 C -0.16350001 -0.13669996 -0.16350001 -0.13669996 -0.16350001 -0.13669996 C -0.1605 -0.13339996 -0.13960001 -0.12889996 -0.13900001 -0.12329996 C -0.13900001 -0.12329996 -0.13900001 -0.12329996 -0.13900001 -0.12329996 C -0.13900001 -0.12329996 -0.13900001 -0.12329996 -0.13900001 -0.12329996 C -0.14160001 -0.11819996 -0.16650002 -0.11609995 -0.1676 -0.111299954 C -0.1676 -0.111299954 -0.1676 -0.111299954 -0.1676 -0.111299954 C -0.1676 -0.105999954 -0.0423 -0.07999995 -0.0088 -0.051999953 S -0.1073 -0.085299954 -0.1073 -0.085299954 S -0.0999 -0.075299956 -0.1073 -0.072599955 C -0.1147 -0.069899954 -0.1408 -0.10989995 -0.1837 -0.085299954 C -0.1915 -0.075199954 -0.14629999 -0.06709995 -0.13479999 -0.065999955 C -0.1387 -0.055999957 -0.1422 -0.052599955 -0.12609999 -0.042599954 C -0.12429999 -0.041499954 -0.12339999 -0.040799953 -0.12299999 -0.040499955 C -0.12299999 -0.040499955 -0.12299999 -0.040499955 -0.12299999 -0.040499955 L -0.12299999 -0.040499955 C -0.12299999 -0.040499955 -0.12299999 -0.040499955 -0.12299999 -0.040499955 C -0.12299999 -0.040499955 -0.12299999 -0.040499955 -0.12299999 -0.040499955 C -0.12299999 -0.040499955 -0.12299999 -0.040499955 -0.12299999 -0.040499955 C -0.12299999 -0.040499955 -0.12299999 -0.040499955 -0.12299999 -0.040499955 C -0.1255 -0.040499955 -0.15439999 -0.055599958 -0.15739998 -0.056299955 C -0.15739998 -0.056299955 -0.15739998 -0.056299955 -0.15739998 -0.056299955 C -0.15739998 -0.056299955 -0.15739998 -0.056299955 -0.15739998 -0.056299955 C -0.15739998 -0.054999955 -0.15409999 -0.038899954 -0.15409999 -0.038899954 C -0.16889998 -0.050899953 -0.18689999 -0.054499954 -0.20369999 -0.042199954 C -0.20369999 -0.042199954 -0.20369999 -0.029999955 -0.18699999 -0.022899954 C -0.19649999 -0.003599953 -0.17629999 -0.009599954 -0.1441 0.008400047 C -0.1919 -0.003999953 -0.19569999 0.019100048 -0.1616 0.024400048 S -0.033599988 0.033100046 -0.011500001 0.06170005 C -0.006800001 0.06770005 -0.0056000007 0.07080005 -0.006500001 0.07180005 C -0.010200001 0.07510005 -0.0441 0.050700054 -0.049000002 0.049800053 C -0.049000002 0.049800053 -0.049000002 0.049800053 -0.049000002 0.049800053 C -0.049000002 0.049800053 -0.049000002 0.049800053 -0.049000002 0.049800053 C -0.049000002 0.049800053 -0.049000002 0.049800053 -0.049000002 0.049800053 C -0.050200004 0.052500054 -0.051300004 0.064000055 -0.051300004 0.064000055 C -0.06560001 0.055800054 -0.078700006 0.048400056 -0.095800005 0.044900056 C -0.097100005 0.047600057 -0.0969 0.051300056 -0.09820001 0.054000057 C -0.11370001 0.042900056 -0.1272 0.035100058 -0.1498 0.034000058 C -0.1498 0.03760006 -0.1516 0.04110006 -0.1525 0.044700056 C -0.1525 0.044700056 -0.17130001 0.021400057 -0.2081 0.044700056 C -0.22870001 0.059400056 -0.1304 0.050000057 -0.114300005 0.06730006 C -0.09820001 0.08460006 -0.111 0.08730006 -0.111 0.08730006 C -0.124400005 0.08240006 -0.1377 0.07760006 -0.15110001 0.07270006 C -0.15110001 0.07270006 -0.19870001 0.06400006 -0.21210001 0.07470006 C -0.22550002 0.08540006 -0.016500011 0.11130006 -0.010500014 0.14000006 C -0.006400014 0.15550005 -0.059600014 0.12370006 -0.105600014 0.11010006 C -0.107400015 0.11520006 -0.109200016 0.12030006 -0.11100002 0.12540007 C -0.11210002 0.12430006 -0.12990001 0.10710007 -0.14980002 0.10410006 C -0.14980002 0.10410006 -0.14980002 0.10410006 -0.14980002 0.10410006 C -0.14980002 0.10410006 -0.14980002 0.10410006 -0.14980002 0.10410006 C -0.14980002 0.10630006 -0.14570002 0.12190007 -0.14570002 0.12190007 C -0.14570002 0.12190007 -0.19720003 0.09790006 -0.22340003 0.11050007 C -0.24950002 0.12320007 -0.13230002 0.12980007 -0.121600024 0.14180008 C -0.12040003 0.14310008 -0.119900025 0.14410007 -0.12000003 0.14470008 C -0.12000003 0.14470008 -0.12000003 0.14470008 -0.12000003 0.14470008 C -0.12260003 0.14850008 -0.15750003 0.13450009 -0.16100003 0.14140008 C -0.16500002 0.14940009 -0.22190003 0.12680009 -0.22130004 0.13740009 C -0.22130004 0.1481001 -0.21320003 0.15400009 -0.21320003 0.15400009 C -0.21320003 0.15400009 -0.09460003 0.16530009 -0.090600036 0.17930008 C -0.086600035 0.19330008 -0.15630004 0.17130008 -0.15630004 0.17130008 S -0.16300003 0.18120009 -0.15770003 0.18590008 C -0.15770003 0.18590008 -0.15770003 0.18590008 -0.15770003 0.18590008 C -0.15770003 0.18590008 -0.15770003 0.18590008 -0.15770003 0.18590008 C -0.15770003 0.18590008 -0.15770003 0.18590008 -0.15770003 0.18590008 C -0.16010003 0.18590008 -0.19790003 0.16050008 -0.19420004 0.17940007 C -0.20900004 0.17360008 -0.24710004 0.15540007 -0.24180004 0.16940007 C -0.23650004 0.18320006 -0.13700004 0.20280007 -0.13410005 0.20340008 C -0.13670005 0.20340008 -0.17880005 0.20710008 -0.17690006 0.21810007 C -0.23330006 0.18390007 -0.23320006 0.20440008 -0.23190007 0.20600007 C -0.23190007 0.20600007 -0.23190007 0.20600007 -0.23190007 0.20600007 C -0.23510006 0.20600007 -0.30440006 0.18830007 -0.24930006 0.21800007 C -0.21970007 0.23390007 -0.21250007 0.24010007 -0.21240006 0.24250007 C -0.21240006 0.24250007 -0.21240006 0.24250007 -0.21240006 0.24250007 C -0.21240006 0.24250007 -0.21240006 0.24250007 -0.21240006 0.24250007 C -0.21240006 0.24250007 -0.21240006 0.24250007 -0.21240006 0.24250007 C -0.21240006 0.24250007 -0.21240006 0.24250007 -0.21240006 0.24250007 C -0.21240006 0.24250007 -0.21240006 0.24250007 -0.21240006 0.24250007 C -0.21240006 0.24250007 -0.21240006 0.24250007 -0.21240006 0.24250007 C -0.21240006 0.24250007 -0.21240006 0.24250007 -0.21240006 0.24250007 C -0.21240006 0.24250007 -0.21240006 0.24250007 -0.21240006 0.24250007 C -0.21350007 0.24250007 -0.21630007 0.24250007 -0.21710007 0.24250007 C -0.21710007 0.24250007 -0.21710007 0.24250007 -0.21710007 0.24250007 C -0.21710007 0.24250007 -0.21710007 0.24250007 -0.21710007 0.24250007 L -0.21710007 0.24250007 C -0.21710007 0.24370007 -0.21200007 0.25540006 -0.21220008 0.25750005 C -0.21220008 0.25750005 -0.21220008 0.25750005 -0.21220008 0.25750005 C -0.21220008 0.25750005 -0.21220008 0.25750005 -0.21220008 0.25750005 C -0.21220008 0.25750005 -0.21220008 0.25750005 -0.21220008 0.25750005 C -0.21220008 0.25750005 -0.21220008 0.25750005 -0.21220008 0.25750005 C -0.21220008 0.25750005 -0.21220008 0.25750005 -0.21220008 0.25750005 C -0.21220008 0.25750005 -0.21220008 0.25750005 -0.21220008 0.25750005 C -0.21460007 0.25750005 -0.25120008 0.23750006 -0.26370007 0.23620005 C -0.27640006 0.23490004 -0.33670008 0.25280005 -0.27240008 0.28080004 S -0.16860008 0.27410004 -0.13310008 0.27810004 C -0.09760007 0.28210005 -0.08080008 0.28810003 -0.08420008 0.29940003 C -0.087600075 0.31070003 -0.12050007 0.26230004 -0.15520008 0.30420002 C -0.19460008 0.2964 -0.22140008 0.29200003 -0.20100008 0.32080004 C -0.26540008 0.29690003 -0.30470008 0.32810003 -0.22360007 0.34080005 C -0.14390007 0.34310004 -0.09500007 0.32150003 -0.09500007 0.32150003 C -0.09500007 0.32150003 -0.08160007 0.34620005 -0.06210007 0.32890004 C -0.04360007 0.31240004 -0.042100072 0.33340004 -0.04140007 0.33540004 C -0.04140007 0.33540004 -0.04140007 0.33540004 -0.04140007 0.33540004 C -0.04140007 0.33540004 -0.04140007 0.33540004 -0.04140007 0.33540004 C -0.04140007 0.33540004 -0.04140007 0.33540004 -0.04140007 0.33540004 C -0.04000007 0.33540004 -0.022700071 0.32740006 -0.022700071 0.32740006 C -0.021100072 0.32740006 -0.019500071 0.32740006 -0.018000072 0.32740006 V 0.48730004 C 0.0036999285 0.48730004 0.025299927 0.48730004 0.04689993 0.48730004 C 0.04689993 0.48730004 0.02609993 0.34810004 0.03749993 0.32950002 C 0.04849993 0.31140003 0.058999933 0.31340003 0.05959993 0.31350002 C 0.05959993 0.31350002 0.10179993 0.32610002 0.106499925 0.32410002 C 0.106499925 0.32410002 0.106499925 0.32410002 0.106499925 0.32410002 C 0.106499925 0.32410002 0.106499925 0.32410002 0.106499925 0.32410002 C 0.106499925 0.32410002 0.106499925 0.32410002 0.106499925 0.32410002 C 0.106499925 0.32410002 0.106499925 0.32410002 0.106499925 0.32410002 C 0.10989992 0.321 0.106499925 0.30870003 0.12789993 0.3106 C 0.13449994 0.3082 0.13199992 0.29770002 0.13629992 0.2951 C 0.13629992 0.2951 0.13629992 0.2951 0.13629992 0.2951 C 0.13629992 0.2951 0.13629992 0.2951 0.13629992 0.2951 C 0.13629992 0.2951 0.13629992 0.2951 0.13629992 0.2951 C 0.14299992 0.2951 0.27229995 0.331 0.30039993 0.2964 C 0.29299992 0.2771 0.26749992 0.2951 0.26079994 0.2964 C 0.25479993 0.2964 0.22929995 0.28440002 0.21459994 0.2964 C 0.20119993 0.28640002 0.14029995 0.2798 0.14029995 0.2798 C 0.13229994 0.2718 0.28569996 0.2838 0.29439995 0.2778 C 0.31249994 0.2598 0.26089996 0.2618 0.25289994 0.2678 C 0.23859994 0.2591 0.22069994 0.25980002 0.20969994 0.2658 C 0.20449995 0.2533 0.15459993 0.2587 0.12699994 0.2552 C 0.11809994 0.25 0.119599946 0.2471 0.12559995 0.2438 C 0.18339995 0.2462 0.24099995 0.2538 0.29909995 0.2512 C 0.31479996 0.23079999 0.27929994 0.2232 0.25759995 0.24049999 C 0.24479996 0.21959999 0.21869995 0.24049999 0.20129995 0.23779999 C 0.18389995 0.23579998 0.19189996 0.21449998 0.21399996 0.21779999 C 0.23609996 0.22109999 0.27559996 0.2164 0.28299996 0.20639999 C 0.29039997 0.19639999 0.27859998 0.1863 0.24209997 0.19579999 C 0.22979997 0.1838 0.20259997 0.19579999 0.18989997 0.19979998 C 0.17299996 0.19039999 0.13359997 0.19849998 0.12019996 0.20179999 C 0.107099965 0.19369999 0.18919995 0.18049999 0.18919995 0.18049999 C 0.22089995 0.18049999 0.23879996 0.17449999 0.24879995 0.17179999 C 0.29669994 0.14629999 0.24879995 0.14359999 0.22299995 0.16209999 C 0.20739995 0.14999999 0.19259995 0.16309999 0.17849994 0.1678 C 0.16529994 0.1722 0.14089994 0.17539999 0.13789994 0.1741 C 0.13789994 0.1741 0.13789994 0.1741 0.13789994 0.1741 C 0.13789994 0.1741 0.13789994 0.1741 0.13789994 0.1741 L 0.13789994 0.1741 C 0.13789994 0.1741 0.13789994 0.1741 0.13789994 0.1741 C 0.13789994 0.1741 0.13789994 0.1741 0.13789994 0.1741 C 0.13789994 0.1741 0.13789994 0.1741 0.13789994 0.1741 C 0.13989994 0.17109999 0.17599994 0.14899999 0.17599994 0.14899999 C 0.17599994 0.14899999 0.22289994 0.14559999 0.23229994 0.14429998 C 0.23799995 0.14429998 0.25799993 0.13409999 0.25799993 0.13059999 C 0.25799993 0.1284 0.24949993 0.12859999 0.22419992 0.13499999 C 0.20139992 0.137 0.18799992 0.13499999 0.17929992 0.13639998 C 0.16529992 0.13499999 0.15939993 0.13349998 0.15819992 0.13219999 C 0.15819992 0.13219999 0.15819992 0.13219999 0.15819992 0.13219999 C 0.15819992 0.13219999 0.15819992 0.13219999 0.15819992 0.13219999 C 0.15819992 0.13219999 0.15819992 0.13219999 0.15819992 0.13219999 C 0.16159992 0.12949999 0.18379992 0.12749998 0.18379992 0.12749998 C 0.18379992 0.12749998 0.25149992 0.12129998 0.2558999 0.11779998 C 0.2558999 0.11779998 0.2558999 0.11779998 0.2558999 0.11779998 C 0.2558999 0.11779998 0.2558999 0.11779998 0.2558999 0.11779998 C 0.2558999 0.11779998 0.2558999 0.11779998 0.2558999 0.11779998 C 0.2572999 0.09029998 0.1984999 0.102999985 0.1968999 0.10319998 C 0.1968999 0.08389998 0.1437999 0.10319998 0.1412999 0.10319998 C 0.1412999 0.10319998 0.1412999 0.10319998 0.1412999 0.10319998 C 0.13899991 0.10189998 0.1379999 0.10039998 0.1377999 0.09919998 C 0.1377999 0.09919998 0.1377999 0.09819998 0.1377999 0.09769998 C 0.13909991 0.09369998 0.1471999 0.09059998 0.1471999 0.09059998 C 0.1618999 0.086999975 0.1839999 0.08589998 0.1896999 0.081299976 C 0.1896999 0.081299976 0.2312999 0.081299976 0.2361999 0.069899976 C 0.2259999 0.041899975 0.1481999 0.07489998 0.1376999 0.079899974 C 0.1355999 0.079899974 0.1342999 0.079899974 0.13369991 0.07849997 C 0.13029991 0.07349997 0.14719991 0.057199974 0.1476999 0.056599975 C 0.1476999 0.056599975 0.1476999 0.056599975 0.1476999 0.056599975 C 0.1502999 0.056599975 0.2123999 0.052699976 0.24209991 0.012699973 C 0.24419992 -0.012000028 0.2065999 0.026699973 0.2065999 0.026699973 C 0.2037999 -0.005400026 0.1656999 0.028699974 0.1435999 0.031399973 C 0.121499896 0.034099974 0.1207999 0.021399973 0.1362999 0.019399973 C 0.1516999 0.017399972 0.1690999 0.019399973 0.1777999 -0.0046000276 C 0.1864999 -0.027900027 0.21269989 -0.0032000276 0.2173999 -0.011900028 C 0.2218999 -0.020300027 0.2087999 -0.027400028 0.2079999 -0.027900029 C 0.2079999 -0.027900029 0.2273999 -0.04790003 0.1958999 -0.04730003 C 0.16469991 -0.04730003 0.1243999 -0.05120003 0.1235999 -0.05130003 C 0.1255999 -0.05130003 0.1572999 -0.06390003 0.1871999 -0.06330003 C 0.2179999 -0.06330003 0.2012999 -0.08530003 0.1717999 -0.08530003 C 0.14229989 -0.08530003 0.1268999 -0.095300026 0.1268999 -0.095300026 C 0.1435999 -0.10150003 0.1603999 -0.10770003 0.1770999 -0.11400002 C 0.1759999 -0.11870002 0.1748999 -0.12330002 0.1737999 -0.12800002 C 0.1737999 -0.12800002 0.20329991 -0.15130001 0.1616999 -0.14600003 C 0.120199904 -0.14070003 0.115499906 -0.14000003 0.115499906 -0.14000003 C 0.115499906 -0.14000003 0.033699907 -0.12750003 0.031799905 -0.12730002 C 0.031799905 -0.12730002 0.031799905 -0.12730002 0.031799905 -0.12730002 C 0.031799905 -0.12730002 0.022899905 -0.12990002 0.021399904 -0.13300003 C 0.021399904 -0.13300003 0.021399904 -0.13300003 0.021399904 -0.13300003 C 0.021399904 -0.13300003 0.021399904 -0.13300003 0.021399904 -0.13300003 C 0.021399904 -0.13300003 0.021399904 -0.13300003 0.021399904 -0.13300003 C 0.021399904 -0.13460003 0.024299905 -0.13640003 0.030699905 -0.13800003 C 0.052099906 -0.14330003 0.1278999 -0.15860003 0.1392999 -0.15460002 C 0.1407999 -0.15460002 0.1417999 -0.15460002 0.1424999 -0.15460002 C 0.14679989 -0.15840003 0.13259989 -0.18290003 0.097699896 -0.18640003 C 0.057499897 -0.19040002 0.032799892 -0.17640002 0.032799892 -0.17640002 S 0.006599892 -0.18580002 0.030799892 -0.19380002 C 0.054899894 -0.20180002 0.09309989 -0.19110002 0.09309989 -0.19110002 C 0.09309989 -0.19110002 0.13599989 -0.20380002 0.10039989 -0.20910001 C 0.06489989 -0.21440001 0.05369989 -0.2043 0.037399888 -0.2037 C 0.030899888 -0.21180001 0.09309989 -0.21370001 0.09699988 -0.2203 C 0.09039988 -0.2323 0.051899884 -0.2203 0.029399887 -0.2203 C 0.019799886 -0.2243 0.019199885 -0.2309 0.029399887 -0.235 C 0.05239989 -0.235 0.07399988 -0.235 0.09699988 -0.235 C 0.09699988 -0.2472 0.09699988 -0.2617 0.09699988 -0.2739 C 0.06779988 -0.2792 0.033599883 -0.27 0.017199881 -0.2708 C 0.021599881 -0.2841 0.08459988 -0.28759998 0.09159988 -0.29119998 C 0.10609988 -0.3092 0.03119988 -0.29119998 0.029399883 -0.29119998 C 0.016099883 -0.2932 0.016899884 -0.3015 0.025299883 -0.3065 C 0.044699885 -0.3087 0.088299885 -0.3037 0.08499988 -0.3168 C 0.082499884 -0.3291 0.05479988 -0.3225 0.04339988 -0.3198 C 0.031999882 -0.3171 0.015299881 -0.3198 0.015299881 -0.3198 C 0.00799988 -0.32959998 0.08099988 -0.3256 0.08029988 -0.3331 C 0.079299875 -0.3417 0.033999875 -0.3358 0.018599875 -0.3351 C 0.006699875 -0.3432 0.07429987 -0.3486 0.077499874 -0.3497 C 0.077499874 -0.3497 0.077499874 -0.3497 0.077499874 -0.3497 C 0.07999987 -0.3718 0.030599874 -0.3497 0.021199875 -0.3497 C 0.019599875 -0.3497 0.018399876 -0.3497 0.017499875 -0.3508 C 0.017499875 -0.3508 0.017499875 -0.3508 0.017499875 -0.3508 C 0.014299875 -0.3545 0.017499875 -0.3631 0.017499875 -0.3631 S 0.035099875 -0.371 0.036199875 -0.37289998 C 0.036199875 -0.37289998 0.036199875 -0.37289998 0.036199875 -0.37289998 C 0.036199875 -0.37289998 0.036199875 -0.37289998 0.036199875 -0.37289998 C 0.036199875 -0.37289998 0.036199875 -0.37289998 0.036199875 -0.37289998 C 0.036199875 -0.37289998 0.036199875 -0.37289998 0.036199875 -0.37289998 C 0.036199875 -0.37289998 0.036199875 -0.37289998 0.036199875 -0.37289998 C 0.034099877 -0.37449998 0.021999875 -0.37849998 0.020399876 -0.37859997 C 0.020399876 -0.37859997 0.020399876 -0.37859997 0.020399876 -0.37859997 C 0.020399876 -0.37859997 0.020399876 -0.37859997 0.020399876 -0.37859997 C 0.020399876 -0.37859997 0.020399876 -0.37859997 0.020399876 -0.37859997 C 0.020399876 -0.37859997 0.020399876 -0.37859997 0.020399876 -0.37859997 C 0.020399876 -0.38049996 0.020399876 -0.39369997 0.020399876 -0.39369997 S 0.034399875 -0.40409997 0.035199877 -0.40819997 C 0.035199877 -0.40819997 0.035199877 -0.40819997 0.035199877 -0.40819997 C 0.035199877 -0.40819997 0.035199877 -0.40819997 0.035199877 -0.40819997 C 0.035199877 -0.40819997 0.035199877 -0.40819997 0.035199877 -0.40819997 C 0.035199877 -0.40819997 0.035199877 -0.40819997 0.035199877 -0.40819997 C 0.035199877 -0.40819997 0.035199877 -0.40819997 0.035199877 -0.40819997 C 0.035199877 -0.40819997 0.035199877 -0.40819997 0.035199877 -0.40819997 C 0.035199877 -0.40819997 0.035199877 -0.40819997 0.035199877 -0.40819997 C 0.035199877 -0.40819997 0.035199877 -0.40819997 0.035199877 -0.40819997 C 0.035199877 -0.40819997 0.035199877 -0.40819997 0.035199877 -0.40819997 C 0.035199877 -0.40819997 0.035199877 -0.40819997 0.035199877 -0.40819997 C 0.035199877 -0.40819997 0.035199877 -0.40819997 0.035199877 -0.40819997 C 0.035199877 -0.40819997 0.035199877 -0.40819997 0.035199877 -0.40819997 C 0.035199877 -0.40819997 0.035199877 -0.40819997 0.035199877 -0.40819997 C 0.031699877 -0.40989998 0.017099876 -0.40489995 0.017099876 -0.40489995 C 0.017099876 -0.40929997 0.017099876 -0.41379994 0.017099876 -0.41819996 C 0.017099876 -0.41819996 0.029899877 -0.41959995 0.031199876 -0.42559996 C 0.031199876 -0.42559996 0.031199876 -0.42559996 0.031199876 -0.42659995 C 0.031199876 -0.42659995 0.031199876 -0.42659995 0.031199876 -0.42659995 C 0.031199876 -0.42659995 0.031199876 -0.42659995 0.031199876 -0.42659995 C 0.031199876 -0.42659995 0.031199876 -0.42659995 0.031199876 -0.42659995 C 0.028299876 -0.43029994 0.016399875 -0.43089995 0.016399875 -0.43089995 C 0.014199875 -0.45419994 0.0118998755 -0.47749996 0.0096998755 -0.50079995 Z M -0.0036000004 -0.2703 L -0.0036000004 -0.2611 C -0.0036000004 -0.2611 -0.0186 -0.2611 -0.0214 -0.2642 C -0.0214 -0.2642 -0.0214 -0.2642 -0.0214 -0.2642 C -0.0214 -0.2642 -0.0214 -0.2642 -0.0214 -0.2642 C -0.0214 -0.2642 -0.0214 -0.2642 -0.0214 -0.2642 C -0.0214 -0.2642 -0.0214 -0.2642 -0.0214 -0.2642 C -0.0214 -0.2642 -0.0214 -0.2642 -0.0214 -0.2642 C -0.0214 -0.2642 -0.0214 -0.2642 -0.0214 -0.2642 C -0.0214 -0.2642 -0.0214 -0.2642 -0.0214 -0.2642 C -0.0214 -0.2642 -0.0214 -0.2642 -0.0214 -0.2642 C -0.0214 -0.2642 -0.0214 -0.2642 -0.0214 -0.2642 C -0.0214 -0.2642 -0.0214 -0.2642 -0.0214 -0.2642 C -0.0214 -0.2642 -0.0214 -0.2642 -0.0214 -0.2642 C -0.0214 -0.2642 -0.0214 -0.2642 -0.0214 -0.2642 C -0.0214 -0.2642 -0.0214 -0.2642 -0.0214 -0.2642 C -0.0214 -0.2642 -0.0214 -0.2642 -0.0214 -0.2642 C -0.0214 -0.2642 -0.0214 -0.2642 -0.0214 -0.2642 C -0.0214 -0.2642 -0.0214 -0.2642 -0.0214 -0.2642 C -0.0214 -0.2642 -0.0214 -0.2642 -0.0214 -0.2642 C -0.016400002 -0.26770002 -0.0063000005 -0.2676 -0.0043 -0.2682 C -0.0043 -0.2682 -0.0043 -0.2682 -0.0043 -0.2682 C -0.0043 -0.2682 -0.0043 -0.2682 -0.0043 -0.2682 C -0.0043 -0.2682 -0.0043 -0.2682 -0.0043 -0.2682 C -0.0043 -0.2682 -0.0043 -0.2682 -0.0043 -0.2682 Z M 0.017699998 -0.2581 C 0.017699998 -0.2581 0.047599997 -0.2581 0.050199997 -0.2541 C 0.050199997 -0.2541 0.050199997 -0.2541 0.050199997 -0.2541 C 0.050199997 -0.2541 0.050199997 -0.2541 0.050199997 -0.2541 C 0.050199997 -0.2541 0.050199997 -0.2541 0.050199997 -0.2541 C 0.050199997 -0.2541 0.050199997 -0.2541 0.050199997 -0.2541 C 0.050199997 -0.2541 0.050199997 -0.2541 0.050199997 -0.2541 C 0.047999997 -0.24939999 0.018199995 -0.2465 0.018199995 -0.2465 L 0.018199995 -0.2591 Z M 0.015999997 -0.24000001 C 0.015999997 -0.24000001 0.015999997 -0.24000001 0.015999997 -0.24000001 C 0.015999997 -0.24000001 0.015999997 -0.24000001 0.015999997 -0.24000001 C 0.017699998 -0.24000001 0.029899996 -0.24000001 0.031399995 -0.2371 C 0.031399995 -0.2371 0.031399995 -0.2371 0.031399995 -0.2371 C 0.031399995 -0.2371 0.031399995 -0.2371 0.031399995 -0.2371 C 0.031399995 -0.2371 0.031399995 -0.2371 0.031399995 -0.2371 C 0.031399995 -0.2371 0.031399995 -0.2371 0.031399995 -0.2371 C 0.031399995 -0.2371 0.031399995 -0.2371 0.031399995 -0.2371 C 0.031399995 -0.2371 0.031399995 -0.2371 0.031399995 -0.2371 C 0.031399995 -0.2371 0.031399995 -0.2371 0.031399995 -0.2371 C 0.031399995 -0.2371 0.031399995 -0.2371 0.031399995 -0.2371 C 0.031399995 -0.2371 0.031399995 -0.2371 0.031399995 -0.2371 C 0.031399995 -0.2371 0.031399995 -0.2371 0.031399995 -0.2371 C 0.031399995 -0.2371 0.031399995 -0.2371 0.031399995 -0.2371 C 0.031399995 -0.2371 0.031399995 -0.2371 0.031399995 -0.2371 C 0.031399995 -0.2371 0.031399995 -0.2371 0.031399995 -0.2371 C 0.028899996 -0.23400001 0.017599996 -0.2332 0.017099995 -0.2332 C 0.017099995 -0.2332 0.017099995 -0.2332 0.017099995 -0.2332 C 0.017099995 -0.2332 0.017099995 -0.2332 0.017099995 -0.2332 C 0.017099995 -0.2332 0.017099995 -0.2332 0.017099995 -0.2332 C 0.017099995 -0.2342 0.016099995 -0.2409 0.016099995 -0.2409 Z M -0.0737 -0.2159 C -0.064100005 -0.2159 -0.045 -0.2141 -0.009300001 -0.2043 C -0.009300001 -0.2043 -0.009300001 -0.1943 -0.009300001 -0.1928 C -0.009300001 -0.1928 -0.009300001 -0.1928 -0.009300001 -0.1928 C -0.009300001 -0.1928 -0.009300001 -0.1928 -0.009300001 -0.1928 C -0.009300001 -0.1928 -0.009300001 -0.1928 -0.009300001 -0.1928 C -0.009300001 -0.1928 -0.0744 -0.2115 -0.0803 -0.2112 C -0.0803 -0.2112 -0.0803 -0.2112 -0.0803 -0.2112 C -0.0803 -0.2112 -0.0803 -0.2112 -0.0803 -0.2112 C -0.0803 -0.2112 -0.0803 -0.2112 -0.0803 -0.2112 C -0.0803 -0.2112 -0.0803 -0.2112 -0.0803 -0.2112 C -0.0803 -0.2112 -0.0803 -0.2112 -0.0803 -0.2112 C -0.0803 -0.2112 -0.0803 -0.2112 -0.0803 -0.2112 C -0.0803 -0.2112 -0.0803 -0.2112 -0.0803 -0.2112 C -0.0803 -0.2112 -0.0803 -0.2112 -0.0803 -0.2112 C -0.0803 -0.2112 -0.0803 -0.2112 -0.0803 -0.2112 C -0.0803 -0.2112 -0.0803 -0.2112 -0.0803 -0.2112 C -0.0803 -0.2112 -0.0803 -0.2112 -0.0803 -0.2112 C -0.0803 -0.2112 -0.0803 -0.2112 -0.0803 -0.2112 C -0.0803 -0.2112 -0.0803 -0.2112 -0.0803 -0.2112 C -0.0803 -0.2112 -0.0803 -0.2112 -0.0803 -0.2112 C -0.0803 -0.2112 -0.0803 -0.2112 -0.0803 -0.2112 C -0.0793 -0.2122 -0.0768 -0.2131 -0.072100006 -0.2134 Z M -0.040300004 -0.1886 C -0.030000005 -0.1886 -0.0054000057 -0.1831 -0.0040000044 -0.1834 C -0.0040000044 -0.1814 -0.0029000044 -0.17220001 -0.0040000044 -0.1703 C -0.0040000044 -0.1703 -0.0040000044 -0.1703 -0.0040000044 -0.1703 C -0.0040000044 -0.1703 -0.0040000044 -0.1703 -0.0040000044 -0.1703 C -0.0040000044 -0.1703 -0.0040000044 -0.1703 -0.0040000044 -0.1703 C -0.0040000044 -0.1703 -0.0040000044 -0.1703 -0.0040000044 -0.1703 C -0.0040000044 -0.1703 -0.0040000044 -0.1703 -0.0040000044 -0.1703 C -0.0040000044 -0.1703 -0.0040000044 -0.1703 -0.0040000044 -0.1703 C -0.0040000044 -0.1703 -0.0040000044 -0.1703 -0.0040000044 -0.1703 C -0.0061000045 -0.1703 -0.042500004 -0.1823 -0.043800004 -0.187 C -0.043800004 -0.187 -0.043800004 -0.187 -0.043800004 -0.187 C -0.043800004 -0.187 -0.043800004 -0.187 -0.043800004 -0.187 C -0.043800004 -0.187 -0.043800004 -0.187 -0.043800004 -0.187 C -0.043800004 -0.187 -0.043800004 -0.187 -0.043800004 -0.187 C -0.043800004 -0.187 -0.041700006 -0.187 -0.039800003 -0.187 Z M 0.060899995 -0.16330001 C 0.0707 -0.16330001 0.0777 -0.16330001 0.0751 -0.1597 C 0.0681 -0.1516 0.019599997 -0.14500001 0.019599997 -0.14500001 L 0.019599997 -0.1597 C 0.020599997 -0.1597 0.045299996 -0.163 0.061799996 -0.16330001 Z M -0.0778 -0.117300004 C -0.0696 -0.117300004 -0.050399996 -0.1132 -0.0075999945 -0.0952 L -0.0075999945 -0.0846 C -0.0075999945 -0.0846 -0.08 -0.1064 -0.082499996 -0.11 C -0.083699994 -0.1118 -0.0861 -0.1168 -0.078099996 -0.1172 Z M 0.064 -0.101500005 C 0.0662 -0.101500005 0.0678 -0.101500005 0.0683 -0.101500005 C 0.0683 -0.101500005 0.0683 -0.101500005 0.0683 -0.101500005 C 0.0683 -0.101500005 0.0683 -0.101500005 0.0683 -0.101500005 C 0.0683 -0.101500005 0.0683 -0.101500005 0.0683 -0.101500005 C 0.0683 -0.101500005 0.0683 -0.101500005 0.0683 -0.10030001 C 0.0616 -0.092800006 0.025400002 -0.085300006 0.025400002 -0.085300006 S 0.025400002 -0.0948 0.025400002 -0.09510001 C 0.025400002 -0.09510001 0.025400002 -0.09510001 0.025400002 -0.09510001 C 0.027 -0.09510001 0.053600002 -0.10210001 0.0644 -0.10270001 Z M -0.0947 -0.100200005 C -0.083900005 -0.100200005 -0.0595 -0.09510001 -0.0047999993 -0.0693 C -0.0047999993 -0.0693 -0.0047999993 -0.060200002 -0.0047999993 -0.059300005 C -0.0047999993 -0.059300005 -0.0047999993 -0.059300005 -0.0047999993 -0.059300005 C -0.007999999 -0.060300004 -0.103199996 -0.093600005 -0.103199996 -0.093600005 C -0.103199996 -0.093600005 -0.1047 -0.099700004 -0.0949 -0.100200005 Z M 0.086399995 -0.058600005 C 0.0892 -0.058600005 0.091 -0.058600005 0.0914 -0.058600005 C 0.0914 -0.058600005 0.0914 -0.058600005 0.0914 -0.058600005 C 0.0914 -0.058600005 0.0914 -0.058600005 0.0914 -0.057500005 C 0.0828 -0.049800005 0.027799994 -0.040400006 0.025799997 -0.040200002 C 0.025799997 -0.040200002 0.025799997 -0.040200002 0.025799997 -0.040200002 C 0.025799997 -0.040200002 0.025799997 -0.040200002 0.025799997 -0.040200002 C 0.025799997 -0.040200002 0.025799997 -0.040200002 0.025799997 -0.040200002 C 0.025799997 -0.040200002 0.025799997 -0.040200002 0.025799997 -0.040200002 C 0.025799997 -0.040200002 0.025799997 -0.040200002 0.025799997 -0.040200002 C 0.025799997 -0.040200002 0.025799997 -0.040200002 0.025799997 -0.040200002 C 0.025799997 -0.042000003 0.025799997 -0.0483 0.025799997 -0.049200002 C 0.025799997 -0.049200002 0.025799997 -0.049200002 0.025799997 -0.049200002 C 0.025799997 -0.049200002 0.025799997 -0.049200002 0.025799997 -0.049200002 C 0.025799997 -0.049200002 0.025799997 -0.049200002 0.025799997 -0.049200002 C 0.025799997 -0.049200002 0.025799997 -0.049200002 0.025799997 -0.049200002 C 0.029299997 -0.049200002 0.071499996 -0.0586 0.0863 -0.059200004 Z M -0.0753 -0.034400005 C -0.0589 -0.034400005 -0.009300001 -0.012600005 -0.0068999976 -0.011900004 C -0.0068999976 -0.011900004 -0.0068999976 -0.011900004 -0.0068999976 -0.011900004 C -0.0068999976 -0.010900004 -0.0068999976 -0.0027000038 -0.0068999976 -0.0014000041 C -0.0068999976 -0.0014000041 -0.0068999976 -0.0014000041 -0.0068999976 -0.0014000041 C -0.0068999976 -0.0014000041 -0.0068999976 -0.0014000041 -0.0068999976 -0.0014000041 C -0.008199997 -0.0014000041 -0.0762 -0.030200005 -0.0793 -0.027900003 C -0.0812 -0.032300003 -0.0793 -0.034300003 -0.0749 -0.034500003 Z M 0.071 -0.028500006 C 0.0744 -0.028500006 0.076900005 -0.028500006 0.077700004 -0.028500006 C 0.077700004 -0.028500006 0.077700004 -0.028500006 0.077700004 -0.028500006 C 0.077700004 -0.028500006 0.077700004 -0.028500006 0.077700004 -0.028500006 C 0.077700004 -0.028500006 0.077700004 -0.028500006 0.077700004 -0.028500006 C 0.077700004 -0.028500006 0.077700004 -0.028500006 0.077700004 -0.028500006 C 0.077700004 -0.028500006 0.077700004 -0.028500006 0.077700004 -0.028500006 C 0.077700004 -0.028500006 0.077700004 -0.028500006 0.077700004 -0.028500006 C 0.0727 -0.024000006 0.025800005 -0.014800006 0.025800005 -0.014800006 S 0.025800005 -0.023400005 0.025800005 -0.024300005 C 0.027100004 -0.024300005 0.057400003 -0.029100005 0.0713 -0.029700005 Z M 0.067200005 0.0013999939 C 0.0705 0.0013999939 0.0728 0.0013999939 0.073400006 0.0013999939 L 0.073400006 0.0013999939 C 0.073400006 0.0013999939 0.073400006 0.0013999939 0.073400006 0.0013999939 C 0.073400006 0.0013999939 0.073400006 0.0013999939 0.073400006 0.0013999939 C 0.073400006 0.0013999939 0.073400006 0.0013999939 0.073400006 0.0013999939 C 0.073400006 0.0013999939 0.073400006 0.0013999939 0.073400006 0.0013999939 C 0.073400006 0.0013999939 0.073400006 0.0013999939 0.073400006 0.0013999939 C 0.073400006 0.0013999939 0.073400006 0.0013999939 0.073400006 0.0013999939 C 0.073400006 0.0013999939 0.073400006 0.0013999939 0.073400006 0.0013999939 C 0.06830001 0.005699994 0.028600007 0.014099994 0.028600007 0.014099994 S 0.027500007 0.004599994 0.027500007 0.0042999936 C 0.028600007 0.0042999936 0.055200007 1.999936E-4 0.06760001 -3.0000648E-4 Z M -0.10049999 0.003799994 C -0.09089999 0.003799994 -0.06719999 0.007099994 -0.008499987 0.028299993 L -0.006499987 0.039699994 C -0.006499987 0.039699994 -0.10409999 0.008399993 -0.10689999 0.007399995 C -0.10689999 0.007399995 -0.10689999 0.007399995 -0.10689999 0.007399995 C -0.10689999 0.007399995 -0.10689999 0.007399995 -0.10689999 0.007399995 C -0.10689999 0.007399995 -0.10689999 0.007399995 -0.10689999 0.006199995 C -0.10689999 0.006199995 -0.10459999 0.0043999953 -0.100899994 0.0041999947 Z M 0.028100014 0.028599994 C 0.029300014 0.028599994 0.045600012 0.028599994 0.048700012 0.031899996 C 0.048700012 0.031899996 0.048700012 0.031899996 0.048700012 0.031899996 C 0.048700012 0.031899996 0.048700012 0.031899996 0.048700012 0.031899996 C 0.048700012 0.031899996 0.048700012 0.031899996 0.048700012 0.031899996 C 0.048700012 0.031899996 0.048700012 0.031899996 0.048700012 0.031899996 C 0.048700012 0.031899996 0.048700012 0.031899996 0.048700012 0.031899996 C 0.048700012 0.031899996 0.048700012 0.031899996 0.048700012 0.031899996 C 0.048700012 0.031899996 0.048700012 0.031899996 0.048700012 0.031899996 C 0.048700012 0.031899996 0.048700012 0.031899996 0.048700012 0.031899996 C 0.048700012 0.031899996 0.048700012 0.031899996 0.048700012 0.031899996 C 0.048700012 0.031899996 0.048700012 0.031899996 0.048700012 0.031899996 C 0.048700012 0.031899996 0.048700012 0.031899996 0.048700012 0.031899996 C 0.048700012 0.031899996 0.048700012 0.031899996 0.048700012 0.031899996 C 0.048700012 0.031899996 0.048700012 0.031899996 0.048700012 0.031899996 C 0.04620001 0.035799995 0.029100012 0.037299998 0.029100012 0.037299998 S 0.029100012 0.029599998 0.027900012 0.027299998 Z M 0.06770001 0.050899994 C 0.07150001 0.050899994 0.07420001 0.050899994 0.074800014 0.052299995 C 0.074800014 0.052299995 0.074800014 0.054199994 0.072700016 0.055599995 C 0.058700018 0.066999994 0.028100017 0.069299996 0.028100017 0.069299996 V 0.056699995 C 0.028100017 0.056699995 0.028100017 0.056699995 0.028100017 0.056699995 C 0.029800018 0.056699995 0.054900017 0.051099993 0.06760002 0.050799996 Z M 0.10660002 0.062599994 C 0.111400016 0.062599994 0.113500014 0.062599994 0.11420002 0.06429999 C 0.11420002 0.06429999 0.11420002 0.06429999 0.11420002 0.06429999 C 0.11420002 0.06429999 0.11420002 0.06429999 0.11420002 0.06429999 C 0.11420002 0.065699995 0.11250002 0.067499995 0.11130002 0.06859999 C 0.10650002 0.07309999 0.030500025 0.09699999 0.030500025 0.09699999 S 0.030500025 0.08109999 0.030500025 0.079699986 C 0.07490002 0.06629999 0.09670003 0.061899986 0.106700025 0.061599985 Z M 0.057400018 0.107599996 C 0.062200017 0.107599996 0.066000015 0.107599996 0.06710002 0.108799994 C 0.06710002 0.108799994 0.06710002 0.108799994 0.06710002 0.108799994 C 0.06710002 0.108799994 0.06710002 0.108799994 0.06710002 0.108799994 C 0.06710002 0.108799994 0.06710002 0.108799994 0.06710002 0.108799994 C 0.06710002 0.108799994 0.06710002 0.108799994 0.06710002 0.108799994 C 0.06710002 0.108799994 0.06710002 0.108799994 0.06710002 0.108799994 C 0.06060002 0.1151 0.029000018 0.11609999 0.029000018 0.11609999 V 0.10819999 C 0.034900017 0.10819999 0.048100017 0.10609999 0.057400018 0.10569999 Z M 0.08900002 0.1205 C 0.09050002 0.1205 0.09140002 0.1205 0.091500014 0.1205 C 0.091500014 0.1205 0.091500014 0.1205 0.091500014 0.1205 C 0.091500014 0.1205 0.091500014 0.1205 0.09000001 0.122099996 C 0.077400014 0.131 0.02990001 0.14019999 0.02990001 0.14019999 S 0.02990001 0.13399999 0.02990001 0.1325 C 0.03120001 0.1325 0.076600015 0.12009999 0.088000014 0.119799994 Z M 0.11560002 0.1304 C 0.12120002 0.1304 0.12550002 0.1304 0.12790002 0.1329 C 0.12790002 0.1329 0.12790002 0.1329 0.12790002 0.1329 C 0.12790002 0.1329 0.12790002 0.1329 0.12790002 0.1329 C 0.12790002 0.1329 0.12790002 0.1329 0.12790002 0.1329 C 0.12790002 0.1329 0.12790002 0.1329 0.12790002 0.1329 C 0.12790002 0.1346 0.12410002 0.1428 0.11160002 0.1463 C 0.096000016 0.14490001 0.029900022 0.16440001 0.028600022 0.1647 C 0.028600022 0.1647 0.028600022 0.1647 0.028600022 0.1647 C 0.028600022 0.1647 0.028600022 0.1647 0.028600022 0.1647 C 0.028600022 0.1635 0.028600022 0.1567 0.028600022 0.1567 C 0.05140002 0.1431 0.09280002 0.1304 0.11480002 0.1302 Z M -0.053699985 0.1686 C -0.053699985 0.1686 -0.053699985 0.1686 -0.053699985 0.1686 C -0.025099985 0.17169999 -0.014399987 0.18229999 -0.011399984 0.1866 C -0.017099984 0.1966 -0.062299985 0.1742 -0.057599984 0.1695 C -0.057599984 0.1695 -0.055899985 0.1695 -0.054199982 0.1695 Z M 0.11030002 0.1705 C 0.11140002 0.1705 0.11250002 0.1705 0.11320002 0.1705 C 0.11320002 0.1705 0.11320002 0.1705 0.11320002 0.1705 C 0.11320002 0.1705 0.11320002 0.1715 0.11320002 0.1722 C 0.11020002 0.1768 0.09480002 0.1748 0.093800016 0.17469999 C 0.093800016 0.17469999 0.103500016 0.16929999 0.10900001 0.16909999 Z M 0.04900002 0.2014 C 0.05110002 0.2014 0.05290002 0.2014 0.053900022 0.2014 C 0.053900022 0.2014 0.053900022 0.2014 0.053900022 0.2014 C 0.053900022 0.2014 0.053900022 0.2014 0.053900022 0.2014 C 0.053900022 0.2014 0.053900022 0.2014 0.053900022 0.2014 C 0.053900022 0.2014 0.053900022 0.2014 0.053900022 0.2014 C 0.053900022 0.2014 0.053900022 0.2027 0.053900022 0.20359999 C 0.049400024 0.21199998 0.029800022 0.20889999 0.029800022 0.20889999 V 0.203 C 0.029800022 0.203 0.029800022 0.203 0.029800022 0.203 C 0.030900022 0.203 0.04170002 0.20009999 0.04860002 0.1998 Z M -0.06679998 0.2235 C -0.060799982 0.2235 -0.055499982 0.2271 -0.049899984 0.2303 C -0.037599985 0.2278 -0.012199983 0.2323 -0.012199983 0.2323 V 0.2434 C -0.012199983 0.2434 -0.012199983 0.2434 -0.012199983 0.2434 C -0.012199983 0.2434 -0.012199983 0.2434 -0.012199983 0.2434 C -0.014499983 0.2434 -0.044199985 0.2434 -0.050799984 0.2383 C -0.056199983 0.2383 -0.07149999 0.2303 -0.07269999 0.2262 C -0.07269999 0.2262 -0.07269999 0.2262 -0.07269999 0.2262 C -0.07269999 0.2262 -0.07269999 0.2262 -0.07269999 0.2262 C -0.07269999 0.2262 -0.07269999 0.2262 -0.07269999 0.2262 C -0.07269999 0.2262 -0.07269999 0.2262 -0.07269999 0.2262 C -0.07269999 0.2262 -0.07269999 0.2262 -0.07269999 0.2262 C -0.07269999 0.2262 -0.07269999 0.2262 -0.07269999 0.2262 C -0.07269999 0.2262 -0.07269999 0.2262 -0.07269999 0.2262 C -0.07059999 0.2251 -0.06849999 0.2245 -0.06659999 0.2244 Z M 0.06300002 0.229 C 0.06760003 0.229 0.06960002 0.23020001 0.06600002 0.2353 C 0.055900022 0.2495 0.02980002 0.2437 0.02980002 0.2437 L 0.02870002 0.2349 C 0.03790002 0.2349 0.05470002 0.2295 0.06300002 0.229 Z M -0.034599975 0.2578 C -0.023999974 0.2578 -0.012599975 0.2615 -0.012599975 0.2615 C -0.012599975 0.2615 -0.006899975 0.2726 -0.012599975 0.2762 C -0.012599975 0.2762 -0.012599975 0.2762 -0.012599975 0.2762 C -0.018499974 0.2793 -0.046599977 0.2738 -0.048299976 0.2625 C -0.044999976 0.25899997 -0.040099975 0.2577 -0.034899976 0.25739998 Z M -0.14349997 0.2633 C -0.13379997 0.2633 -0.12309997 0.2686 -0.12179997 0.2692 C -0.12179997 0.2692 -0.12179997 0.2692 -0.12179997 0.2692 C -0.12179997 0.2692 -0.12179997 0.27989998 -0.12179997 0.27989998 S -0.14089997 0.2746 -0.14699997 0.26389998 C -0.14579996 0.26389998 -0.14449997 0.26389998 -0.14319997 0.26389998 Z M 0.04040003 0.2647 C 0.05120003 0.2647 0.06420003 0.2671 0.06610003 0.2708 C 0.06610003 0.2708 0.06610003 0.2724 0.06610003 0.2732 C 0.06080003 0.2796 0.030500032 0.2732 0.030500032 0.2732 V 0.2654 C 0.033200033 0.2654 0.036900032 0.2642 0.040900033 0.2642 Z"/>
</defs>
<g>
<g>
<rect x="0" y="0" width="194.7826" height="360" class="green"/>
<rect x="194.7826" y="0" width="250.4348" height="360" class="white"/>
<rect x="445.2174" y="0" width="194.7826" height="360" class="green"/>
</g>
<use xlink:href="#tree" transform="translate(320 180) scale(313.0435 313.0435) rotate(0)" class="green"/>
</g>
</svg>
