<?xml version="1.0"?>
<svg xmlns="http://www.w3.org/2000/svg" xmlns:xlink="http://www.w3.org/1999/xlink" version="1.1" width="640" height="360" viewBox="0 0 640 360">
<!-- Generated by Kreative Vexillo v1.0 -->
<style>
.red{fill:rgb(218,18,26);}
.white{fill:rgb(255,255,255);}
</style>
<g>
<g>
<rect x="0" y="0" width="106.6667" height="90" class="red"/>
<rect x="106.6667" y="0" width="106.6667" height="90" class="white"/>
<rect x="213.3333" y="0" width="106.6667" height="90" class="red"/>
<rect x="320" y="0" width="106.6667" height="90" class="white"/>
<rect x="426.6667" y="0" width="106.6667" height="90" class="red"/>
<rect x="533.3333" y="0" width="106.6667" height="90" class="white"/>
</g>
<g>
<rect x="0" y="90" width="106.6667" height="90" class="white"/>
<rect x="106.6667" y="90" width="106.6667" height="90" class="red"/>
<rect x="213.3333" y="90" width="106.6667" height="90" class="white"/>
<rect x="320" y="90" width="106.6667" height="90" class="red"/>
<rect x="426.6667" y="90" width="106.6667" height="90" class="white"/>
<rect x="533.3333" y="90" width="106.6667" height="90" class="red"/>
</g>
<g>
<rect x="0" y="180" width="106.6667" height="90" class="red"/>
<rect x="106.6667" y="180" width="106.6667" height="90" class="white"/>
<rect x="213.3333" y="180" width="106.6667" height="90" class="red"/>
<rect x="320" y="180" width="106.6667" height="90" class="white"/>
<rect x="426.6667" y="180" width="106.6667" height="90" class="red"/>
<rect x="533.3333" y="180" width="106.6667" height="90" class="white"/>
</g>
<g>
<rect x="0" y="270" width="106.6667" height="90" class="white"/>
<rect x="106.6667" y="270" width="106.6667" height="90" class="red"/>
<rect x="213.3333" y="270" width="106.6667" height="90" class="white"/>
<rect x="320" y="270" width="106.6667" height="90" class="red"/>
<rect x="426.6667" y="270" width="106.6667" height="90" class="white"/>
<rect x="533.3333" y="270" width="106.6667" height="90" class="red"/>
</g>
</g>
</svg>
