<?xml version="1.0"?>
<svg xmlns="http://www.w3.org/2000/svg" xmlns:xlink="http://www.w3.org/1999/xlink" version="1.1" width="640" height="360" viewBox="0 0 640 360">
<!-- Generated by Kreative Vexillo v1.0 -->
<style>
.blue{fill:rgb(0,121,193);}
.green{fill:rgb(0,169,79);}
.white{fill:rgb(255,255,255);}
.yellow{fill:rgb(255,196,37);}
</style>
<defs>
<path id="star" d="M 0.0 -1.0 L 0.2245 -0.309 L 0.9511 -0.309 L 0.3633 0.118 L 0.5878 0.809 L 0.0 0.382 L -0.5878 0.809 L -0.3633 0.118 L -0.9511 -0.309 L -0.2245 -0.309 Z"/>
<clipPath id="clip0">
<rect x="0" y="0" width="640" height="360"/>
</clipPath>
</defs>
<g>
<path d="M 0 0 L 640 0 L 0 360 Z" class="blue"/>
<path d="M 640 0 L 640 360 L 0 360 Z" class="green"/>
<g clip-path="url(#clip0)">
<path d="M 648.8247 15.6884 L 648.8247 15.6884 L 8.8247 375.6884 L -8.8247 344.3116 L 631.1753 -15.6884 Z" class="yellow"/>
</g>
<use xlink:href="#star" transform="translate(48 49.5) scale(36 36) rotate(0)" class="white"/>
<use xlink:href="#star" transform="translate(176 49.5) scale(36 36) rotate(0)" class="white"/>
<use xlink:href="#star" transform="translate(112 110.7) scale(36 36) rotate(0)" class="white"/>
<use xlink:href="#star" transform="translate(48 171.9) scale(36 36) rotate(0)" class="white"/>
<use xlink:href="#star" transform="translate(176 171.9) scale(36 36) rotate(0)" class="white"/>
</g>
</svg>
