<?xml version="1.0"?>
<svg xmlns="http://www.w3.org/2000/svg" xmlns:xlink="http://www.w3.org/1999/xlink" version="1.1" width="640" height="360" viewBox="0 0 640 360">
<!-- Generated by Kreative Vexillo v1.0 -->
<style>
.red{fill:rgb(239,65,53);}
.white{fill:rgb(255,255,255);}
</style>
<defs>
<path id="star" d="M 0.0 -1.0 L 0.2245 -0.309 L 0.9511 -0.309 L 0.3633 0.118 L 0.5878 0.809 L 0.0 0.382 L -0.5878 0.809 L -0.3633 0.118 L -0.9511 -0.309 L -0.2245 -0.309 Z"/>
</defs>
<g>
<g>
<rect x="0" y="0" width="640" height="180" class="red"/>
<rect x="0" y="180" width="640" height="180" class="white"/>
</g>
<ellipse cx="113.75" cy="90" rx="66.25" ry="66.25" class="white"/>
<ellipse cx="150" cy="90" rx="72.5" ry="72.5" class="red"/>
<g>
<use xlink:href="#star" transform="translate(150 52) scale(16 16) rotate(0)" class="white"/>
<use xlink:href="#star" transform="translate(186.1401 78.2574) scale(16 16) rotate(0)" class="white"/>
<use xlink:href="#star" transform="translate(172.3358 120.7426) scale(16 16) rotate(0)" class="white"/>
<use xlink:href="#star" transform="translate(127.6642 120.7426) scale(16 16) rotate(0)" class="white"/>
<use xlink:href="#star" transform="translate(113.8599 78.2574) scale(16 16) rotate(0)" class="white"/>
</g>
</g>
</svg>
