<?xml version="1.0"?>
<svg xmlns="http://www.w3.org/2000/svg" xmlns:xlink="http://www.w3.org/1999/xlink" version="1.1" width="640" height="360" viewBox="0 0 640 360">
<!-- Generated by Kreative Vexillo v1.0 -->
<style>
.blue{fill:rgb(0,73,144);}
.ltblue{fill:rgb(80,145,205);}
.red{fill:rgb(227,24,55);}
.white{fill:rgb(255,255,255);}
.yellow{fill:rgb(255,210,0);}
</style>
<defs>
<path id="star" d="M 0.0 -1.0 L 0.2245 -0.309 L 0.9511 -0.309 L 0.3633 0.118 L 0.5878 0.809 L 0.0 0.382 L -0.5878 0.809 L -0.3633 0.118 L -0.9511 -0.309 L -0.2245 -0.309 Z"/>
<clipPath id="clip0">
<path d="M 0 0 L 0 13.7682 L 0 13.7682 L 135.5233 90 L 0 166.2318 L 0 180 L 24.4767 180 L 160 103.7682 L 160 103.7682 L 295.5233 180 L 320 180 L 320 166.2318 L 320 166.2318 L 184.4767 90 L 320 13.7682 L 320 0 L 295.5233 0 L 160 76.2318 L 160 76.2318 L 24.4767 0 Z"/>
</clipPath>
</defs>
<g>
<rect x="0" y="0" width="640" height="360" class="ltblue"/>
<g>
<rect x="0" y="0" width="320" height="180" class="blue"/>
<path d="M 0 0 L 0 20.6523 L 0 20.6523 L 123.2849 90 L 123.2849 90 L 0 159.3477 L 0 159.3477 L 0 180 L 36.7151 180 L 160 110.6523 L 283.2849 180 L 320 180 L 320 159.3477 L 196.7151 90 L 196.7151 90 L 320 20.6523 L 320 0 L 283.2849 0 L 160 69.3477 L 36.7151 0 Z" class="white"/>
<g clip-path="url(#clip0)">
<path d="M 0 0 L 160 90 L 0 90 Z" class="red"/>
<path d="M 320 0 L 160 90 L 160 0 Z" class="red"/>
<path d="M 0 180 L 160 90 L 160 180 Z" class="red"/>
<path d="M 320 180 L 160 90 L 320 90 Z" class="red"/>
</g>
<g>
<rect x="0" y="60" width="320" height="60" class="white"/>
<rect x="130" y="0" width="60" height="180" class="white"/>
</g>
<g>
<rect x="0" y="72" width="320" height="36" class="red"/>
<rect x="142" y="0" width="36" height="180" class="red"/>
</g>
</g>
<g>
<use xlink:href="#star" transform="translate(344.1811 324.5962) scale(26.6667 26.6667) rotate(0)" class="yellow"/>
<use xlink:href="#star" transform="translate(420.2803 302.7096) scale(26.6667 26.6667) rotate(180)" class="yellow"/>
<use xlink:href="#star" transform="translate(420.2803 229.5194) scale(26.6667 26.6667) rotate(180)" class="yellow"/>
<use xlink:href="#star" transform="translate(487.4829 284.2106) scale(26.6667 26.6667) rotate(180)" class="yellow"/>
<use xlink:href="#star" transform="translate(487.4829 124.9625) scale(26.6667 26.6667) rotate(180)" class="yellow"/>
<use xlink:href="#star" transform="translate(531.4355 234.0274) scale(26.6667 26.6667) rotate(0)" class="yellow"/>
<use xlink:href="#star" transform="translate(543.9616 103.2466) scale(26.6667 26.6667) rotate(180)" class="yellow"/>
<use xlink:href="#star" transform="translate(588.1792 192.9326) scale(26.6667 26.6667) rotate(0)" class="yellow"/>
<use xlink:href="#star" transform="translate(588.1792 52.4916) scale(26.6667 26.6667) rotate(0)" class="yellow"/>
</g>
</g>
</svg>
