<?xml version="1.0"?>
<svg xmlns="http://www.w3.org/2000/svg" xmlns:xlink="http://www.w3.org/1999/xlink" version="1.1" width="640" height="360" viewBox="0 0 640 360">
<!-- Generated by Kreative Vexillo v1.0 -->
<style>
.blue{fill:rgb(0,36,125);}
.red{fill:rgb(207,20,43);}
.white{fill:rgb(255,255,255);}
</style>
<defs>
<clipPath id="clip0">
<path d="M 0 0 L 0 27.5363 L 0 27.5363 L 271.0465 180 L 0 332.4637 L 0 332.4637 L 0 360 L 48.9535 360 L 320 207.5363 L 320 207.5363 L 591.0465 360 L 640 360 L 640 332.4636 L 368.9535 180 L 368.9535 180 L 640 27.5364 L 640 0 L 591.0465 0 L 320 152.4637 L 320 152.4637 L 48.9535 0 Z"/>
</clipPath>
</defs>
<g>
<rect x="0" y="0" width="640" height="360" class="blue"/>
<path d="M 0 0 L 0 41.3045 L 0 41.3045 L 246.5698 180 L 246.5698 180 L 0 318.6955 L 0 318.6955 L 0 360 L 73.4302 360 L 320 221.3045 L 320 221.3045 L 566.5698 360 L 640 360 L 640 318.6955 L 393.4302 180 L 393.4302 180 L 640 41.3045 L 640 0 L 566.5698 0 L 320 138.6955 L 320 138.6955 L 320 138.6955 L 320 138.6955 L 320 138.6955 L 320 138.6955 L 73.4302 0 Z" class="white"/>
<g clip-path="url(#clip0)">
<path d="M 0 0 L 320 180 L 0 180 Z" class="red"/>
<path d="M 640 0 L 320 180 L 320 0 Z" class="red"/>
<path d="M 0 360 L 320 180 L 320 360 Z" class="red"/>
<path d="M 640 360 L 320 180 L 640 180 Z" class="red"/>
</g>
<g>
<rect x="0" y="120" width="640" height="120" class="white"/>
<rect x="260" y="0" width="120" height="360" class="white"/>
</g>
<g>
<rect x="0" y="144" width="640" height="72" class="red"/>
<rect x="284" y="0" width="72" height="360" class="red"/>
</g>
</g>
</svg>
