<?xml version="1.0"?>
<svg xmlns="http://www.w3.org/2000/svg" xmlns:xlink="http://www.w3.org/1999/xlink" version="1.1" width="640" height="360" viewBox="0 0 640 360">
<!-- Generated by Kreative Vexillo v1.0 -->
<style>
.blue{fill:rgb(0,36,125);}
.red{fill:rgb(207,20,43);}
.white{fill:rgb(255,255,255);}
</style>
<defs>
<clipPath id="clip0">
<path d="M 0 0 L 0 13.3741 L 119.1959 90 L 119.1959 90 L 0 166.6259 L 0 166.6259 L 0 180 L 20.8041 180 L 140 103.3741 L 140 103.3741 L 259.1959 180 L 280 180 L 280 166.6259 L 160.8041 90 L 280 13.3741 L 280 0 L 259.1959 0 L 140 76.6259 L 20.8041 0 Z"/>
</clipPath>
</defs>
<g>
<g>
<rect x="0" y="0" width="640" height="45" class="white"/>
<rect x="0" y="45" width="640" height="45" class="red"/>
<rect x="0" y="90" width="640" height="45" class="blue"/>
<rect x="0" y="135" width="640" height="45" class="white"/>
<rect x="0" y="180" width="640" height="45" class="red"/>
<rect x="0" y="225" width="640" height="45" class="blue"/>
<rect x="0" y="270" width="640" height="45" class="white"/>
<rect x="0" y="315" width="640" height="45" class="red"/>
</g>
<g>
<rect x="0" y="0" width="280" height="180" class="blue"/>
<path d="M 0 0 L 0 20.0611 L 108.7938 90 L 108.7938 90 L 0 159.9389 L 0 180 L 31.2062 180 L 140 110.0611 L 140 110.0611 L 248.7938 180 L 280 180 L 280 159.9389 L 171.2062 90 L 171.2062 90 L 280 20.0611 L 280 0 L 248.7938 0 L 140 69.9389 L 140 69.9389 L 140 69.9389 L 140 69.9389 L 31.2062 0 Z" class="white"/>
<g clip-path="url(#clip0)">
<path d="M 0 0 L 140 90 L 0 90 Z" class="red"/>
<path d="M 280 0 L 140 90 L 140 0 Z" class="red"/>
<path d="M 0 180 L 140 90 L 140 180 Z" class="red"/>
<path d="M 280 180 L 140 90 L 280 90 Z" class="red"/>
</g>
<g>
<rect x="0" y="67.5" width="280" height="45" class="white"/>
<rect x="117.5" y="0" width="45" height="180" class="white"/>
</g>
<g>
<rect x="0" y="73.125" width="280" height="33.75" class="red"/>
<rect x="123.125" y="0" width="33.75" height="180" class="red"/>
</g>
</g>
</g>
</svg>
