<?xml version="1.0"?>
<svg xmlns="http://www.w3.org/2000/svg" xmlns:xlink="http://www.w3.org/1999/xlink" version="1.1" width="640" height="360" viewBox="0 0 640 360">
<!-- Generated by Kreative Vexillo v1.0 -->
<style>
.blue{fill:rgb(0,28,90);}
.red{fill:rgb(193,19,61);}
.white{fill:rgb(255,255,255);}
</style>
<defs>
<path id="-glazearea" d="M 0.0 0.0 L 1.0 0.1875 L 0.7692308 0.5 L 1.0 0.8125 L 0.0 1.0 Z"/>
<path id="star" d="M 0.0 -1.0 L 0.2245 -0.309 L 0.9511 -0.309 L 0.3633 0.118 L 0.5878 0.809 L 0.0 0.382 L -0.5878 0.809 L -0.3633 0.118 L -0.9511 -0.309 L -0.2245 -0.309 Z"/>
<clipPath id="clip0">
<use xlink:href="#-glazearea" transform="translate(0 0) scale(640 360) rotate(0)"/>
</clipPath>
</defs>
<g>
<g clip-path="url(#clip0)">
<rect x="0" y="0" width="640" height="360" class="white"/>
<path d="M 4.7199 -44.7518 L 4.7199 -44.7518 L 1284.72 90.2482 L 1275.28 179.7518 L -4.7199 44.7518 Z" class="red"/>
<path d="M 0 157.5 L 0 157.5 L 640 157.5 L 640 202.5 L 0 202.5 Z" class="red"/>
<path d="M -4.7199 315.2482 L -4.7199 315.2482 L 1275.28 180.2482 L 1284.72 269.7518 L 4.7199 404.7518 Z" class="red"/>
</g>
<path d="M 0 0 L 393.8462 180 L 0 360 Z" class="blue"/>
<ellipse cx="121.7052" cy="180" rx="66.7477" ry="66.7477" class="white"/>
<ellipse cx="121.7052" cy="180" rx="44.4984" ry="44.4984" class="red"/>
<g>
<use xlink:href="#star" transform="translate(154.859 262.591) scale(14.8328 14.8328) rotate(-201.8716)" class="white"/>
<use xlink:href="#star" transform="translate(112.2537 268.4936) scale(14.8328 14.8328) rotate(-173.9037)" class="white"/>
<use xlink:href="#star" transform="translate(71.8561 253.726) scale(14.8328 14.8328) rotate(-145.9358)" class="white"/>
<use xlink:href="#star" transform="translate(43.1022 221.7375) scale(14.8328 14.8328) rotate(-117.9679)" class="white"/>
<use xlink:href="#star" transform="translate(32.7083 180) scale(14.8328 14.8328) rotate(-90)" class="white"/>
<use xlink:href="#star" transform="translate(43.1022 138.2625) scale(14.8328 14.8328) rotate(-62.0321)" class="white"/>
<use xlink:href="#star" transform="translate(71.8561 106.274) scale(14.8328 14.8328) rotate(-34.0642)" class="white"/>
<use xlink:href="#star" transform="translate(112.2537 91.5064) scale(14.8328 14.8328) rotate(-6.0963)" class="white"/>
<use xlink:href="#star" transform="translate(154.859 97.409) scale(14.8328 14.8328) rotate(21.8716)" class="white"/>
</g>
<g>
<g>
<use xlink:href="#star" transform="translate(30.0045 277.0154) scale(14.8328 14.8328) rotate(-136.6132)" class="white"/>
<use xlink:href="#star" transform="translate(65.8339 301.2411) scale(14.8328 14.8328) rotate(-155.2584)" class="white"/>
</g>
<g>
<use xlink:href="#star" transform="translate(30.0045 82.9846) scale(14.8328 14.8328) rotate(-43.3868)" class="white"/>
<use xlink:href="#star" transform="translate(65.8339 58.7589) scale(14.8328 14.8328) rotate(-24.7416)" class="white"/>
</g>
</g>
<use xlink:href="#star" transform="translate(210.702 180) scale(14.8328 14.8328) rotate(90)" class="white"/>
<use xlink:href="#star" transform="translate(299.6989 180) scale(14.8328 14.8328) rotate(90)" class="white"/>
<g>
<use xlink:href="#star" transform="translate(253.4373 158.3746) scale(14.8328 14.8328) rotate(80.6774)" class="white"/>
<use xlink:href="#star" transform="translate(253.4373 201.6254) scale(14.8328 14.8328) rotate(99.3226)" class="white"/>
</g>
</g>
</svg>
