<?xml version="1.0"?>
<svg xmlns="http://www.w3.org/2000/svg" xmlns:xlink="http://www.w3.org/1999/xlink" version="1.1" width="640" height="360" viewBox="0 0 640 360">
<!-- Generated by Kreative Vexillo v1.0 -->
<style>
.blue{fill:rgb(75,146,219);}
.green{fill:rgb(0,105,60);}
.white{fill:rgb(255,255,255);}
.yellow{fill:rgb(255,182,18);}
</style>
<defs>
<clipPath id="clip0">
<rect x="240" y="135" width="90" height="90"/>
</clipPath>
</defs>
<g>
<rect x="0" y="0" width="640" height="360" class="green"/>
<path d="M 0 145 L 200 145 L 200 0 L 320 0 L 320 95 L 640 95 L 640 215 L 370 215 L 370 360 L 250 360 L 250 265 L 0 265 Z" class="white"/>
<path d="M 0 155 L 210 155 L 210 0 L 310 0 L 310 105 L 640 105 L 640 205 L 360 205 L 360 360 L 260 360 L 260 255 L 0 255 Z" class="yellow"/>
<path d="M 0 175 L 230 175 L 230 0 L 290 0 L 290 125 L 640 125 L 640 185 L 340 185 L 340 360 L 280 360 L 280 235 L 0 235 Z" class="white"/>
<path d="M 0 185 L 240 185 L 280 225 L 0 225 Z" class="blue"/>
<path d="M 240 0 L 280 0 L 280 135 L 240 175 Z" class="blue"/>
<path d="M 640 135 L 640 175 L 330 175 L 290 135 Z" class="blue"/>
<path d="M 290 360 L 290 225 L 330 185 L 330 360 Z" class="blue"/>
<g clip-path="url(#clip0)">
<ellipse cx="240" cy="135" rx="40" ry="40" class="blue"/>
<ellipse cx="330" cy="135" rx="40" ry="40" class="blue"/>
<ellipse cx="240" cy="225" rx="40" ry="40" class="blue"/>
<ellipse cx="330" cy="225" rx="40" ry="40" class="blue"/>
</g>
</g>
</svg>
