<?xml version="1.0"?>
<svg xmlns="http://www.w3.org/2000/svg" xmlns:xlink="http://www.w3.org/1999/xlink" version="1.1" width="640" height="360" viewBox="0 0 640 360">
<!-- Generated by Kreative Vexillo v1.0 -->
<style>
.blue{fill:rgb(0,51,102);}
.white{fill:rgb(255,255,255);}
</style>
<defs>
<path id="crescent" d="M 0.1661 0.3734 C 0.0815 0.6554 0.4216 0.8833 0.6533 0.6788 C 0.8963 0.4237 0.6251 0.0791 0.3435 0.1891 C 0.5491 0.1537 0.6716 0.3912 0.5334 0.5394 C 0.3999 0.6757 0.1565 0.5861 0.1661 0.3734 Z"/>
<path id="palm" d="M 0.0751 -0.3308 C 0.0697 -0.3283 0.0658 -0.321 0.0635 -0.3152 C 0.0581 -0.2992 0.0525 -0.2831 0.0471 -0.2671 C 0.0443 -0.2599 0.0415 -0.2526 0.0387 -0.2454 C 0.0335 -0.2461 0.0408 -0.2551 0.0404 -0.2589 C 0.0421 -0.2667 0.0459 -0.2744 0.0463 -0.2824 C 0.0449 -0.2884 0.0464 -0.2962 0.0434 -0.3011 C 0.039 -0.2908 0.0333 -0.281 0.0295 -0.2705 C 0.0266 -0.2579 0.0228 -0.2456 0.0212 -0.2327 C 0.0202 -0.2261 0.019 -0.2195 0.0169 -0.2131 C 0.0115 -0.2136 0.0129 -0.223 0.0098 -0.2269 C 0.007 -0.2359 0.0012 -0.2437 -0.0029 -0.2522 C -0.005 -0.2543 -0.0099 -0.2691 -0.0098 -0.2609 C -0.0102 -0.2549 -0.0107 -0.249 -0.0112 -0.243 C -0.023 -0.2651 -0.0349 -0.2872 -0.0467 -0.3093 C -0.0458 -0.3022 -0.0468 -0.2944 -0.0442 -0.2876 C -0.0384 -0.2752 -0.0332 -0.2626 -0.0277 -0.2501 C -0.0306 -0.2474 -0.0312 -0.2519 -0.0326 -0.2537 C -0.0435 -0.2731 -0.0545 -0.2924 -0.0654 -0.3117 C -0.0699 -0.3086 -0.0668 -0.3029 -0.0673 -0.2984 C -0.0655 -0.2921 -0.0614 -0.2865 -0.0585 -0.2806 C -0.0534 -0.2709 -0.048 -0.2612 -0.0427 -0.2516 C -0.0465 -0.2474 -0.0486 -0.2593 -0.0513 -0.262 C -0.0612 -0.2792 -0.071 -0.2964 -0.0812 -0.3134 C -0.0857 -0.3119 -0.0871 -0.3086 -0.0863 -0.3043 C -0.0871 -0.2999 -0.0853 -0.2963 -0.0828 -0.2928 C -0.0751 -0.2795 -0.0674 -0.2663 -0.0596 -0.2531 C -0.0623 -0.25 -0.0631 -0.2545 -0.0646 -0.2563 C -0.077 -0.2759 -0.0894 -0.2956 -0.1019 -0.3152 C -0.1049 -0.3166 -0.1092 -0.3202 -0.1082 -0.3142 C -0.1096 -0.3067 -0.1014 -0.3014 -0.0988 -0.2949 C -0.0877 -0.2778 -0.0763 -0.2606 -0.0653 -0.2436 C -0.0676 -0.2405 -0.0687 -0.2445 -0.0702 -0.2462 C -0.0771 -0.2561 -0.0841 -0.266 -0.0911 -0.2759 C -0.0937 -0.2766 -0.0971 -0.2783 -0.0961 -0.2741 C -0.0963 -0.2714 -0.097 -0.2685 -0.0947 -0.2665 C -0.0835 -0.2498 -0.0721 -0.2331 -0.0611 -0.2163 C -0.0575 -0.2089 -0.0542 -0.2014 -0.0505 -0.1942 C -0.0441 -0.1876 -0.0377 -0.1811 -0.0313 -0.1745 C -0.0359 -0.1708 -0.0406 -0.1825 -0.0451 -0.1846 C -0.0499 -0.1901 -0.0564 -0.1944 -0.0592 -0.2014 C -0.0625 -0.2066 -0.0644 -0.2127 -0.0695 -0.2165 C -0.0752 -0.2208 -0.0795 -0.2285 -0.0861 -0.2304 C -0.0882 -0.2258 -0.0865 -0.2152 -0.0801 -0.2116 C -0.0795 -0.2099 -0.0706 -0.2039 -0.0755 -0.2051 C -0.0851 -0.2061 -0.0941 -0.2095 -0.1031 -0.2128 C -0.1085 -0.2076 -0.0901 -0.2034 -0.1004 -0.2013 C -0.1079 -0.2012 -0.1137 -0.208 -0.1205 -0.2105 C -0.1375 -0.2198 -0.155 -0.2284 -0.1724 -0.2369 C -0.176 -0.238 -0.1796 -0.2391 -0.1832 -0.2402 C -0.1842 -0.2339 -0.1744 -0.2321 -0.1711 -0.2276 C -0.1579 -0.2205 -0.1444 -0.2138 -0.1311 -0.2066 C -0.1315 -0.2026 -0.1351 -0.2056 -0.1375 -0.206 C -0.1623 -0.214 -0.1871 -0.222 -0.2118 -0.2299 C -0.216 -0.2309 -0.2153 -0.2287 -0.2136 -0.2259 C -0.2132 -0.2227 -0.21 -0.2225 -0.2074 -0.2216 C -0.188 -0.2151 -0.1686 -0.2085 -0.1491 -0.202 C -0.1484 -0.1989 -0.1477 -0.1958 -0.147 -0.1927 C -0.1515 -0.1964 -0.1558 -0.2005 -0.1619 -0.2009 C -0.1745 -0.2041 -0.1876 -0.2014 -0.2004 -0.2013 C -0.2073 -0.2029 -0.2082 -0.1974 -0.2013 -0.1962 C -0.1959 -0.1919 -0.1888 -0.1943 -0.1824 -0.194 C -0.1721 -0.1943 -0.1617 -0.1946 -0.1513 -0.195 C -0.1495 -0.1891 -0.1614 -0.1931 -0.1619 -0.1883 C -0.1631 -0.1826 -0.1523 -0.1826 -0.1485 -0.1837 C -0.1425 -0.1836 -0.1384 -0.1924 -0.1334 -0.1909 C -0.1347 -0.1853 -0.1446 -0.184 -0.1457 -0.1782 C -0.1465 -0.1724 -0.1345 -0.1741 -0.1311 -0.1766 C -0.1271 -0.1799 -0.1203 -0.1849 -0.1199 -0.176 C -0.1188 -0.168 -0.1082 -0.1711 -0.1024 -0.1684 C -0.0922 -0.1668 -0.0817 -0.1662 -0.0715 -0.1645 C -0.0618 -0.1601 -0.052 -0.1557 -0.0423 -0.1513 C -0.0443 -0.1458 -0.0529 -0.1541 -0.0573 -0.1538 C -0.0647 -0.1558 -0.0714 -0.16 -0.0792 -0.1601 C -0.086 -0.1613 -0.0927 -0.1612 -0.0995 -0.1604 C -0.12 -0.1587 -0.1405 -0.1573 -0.161 -0.1554 C -0.1801 -0.1522 -0.1992 -0.1491 -0.2182 -0.1459 C -0.223 -0.1444 -0.2336 -0.1416 -0.2235 -0.1396 C -0.2019 -0.1407 -0.1803 -0.1425 -0.1587 -0.1441 C -0.1571 -0.1403 -0.1618 -0.1416 -0.1641 -0.141 C -0.182 -0.1392 -0.2 -0.1374 -0.218 -0.1356 C -0.2235 -0.1315 -0.2309 -0.1292 -0.2339 -0.1225 C -0.233 -0.113 -0.2211 -0.1217 -0.2152 -0.1211 C -0.1996 -0.1237 -0.1842 -0.1262 -0.1692 -0.131 C -0.1647 -0.1306 -0.1536 -0.1386 -0.1529 -0.1328 C -0.1698 -0.1276 -0.1868 -0.1223 -0.2039 -0.1176 C -0.2075 -0.1167 -0.2112 -0.1159 -0.2148 -0.115 C -0.2159 -0.1063 -0.2026 -0.1114 -0.1973 -0.11 C -0.1854 -0.1128 -0.1741 -0.1176 -0.1624 -0.1209 C -0.1561 -0.1214 -0.1467 -0.1287 -0.1421 -0.1257 C -0.1462 -0.1216 -0.1555 -0.1194 -0.1614 -0.116 C -0.1734 -0.1108 -0.1856 -0.1059 -0.1974 -0.0999 C -0.2051 -0.0921 -0.1892 -0.0928 -0.1852 -0.0969 C -0.1727 -0.1026 -0.1603 -0.1087 -0.1479 -0.1149 C -0.1449 -0.1124 -0.1493 -0.1112 -0.1509 -0.1095 C -0.1579 -0.104 -0.1648 -0.0983 -0.1726 -0.094 C -0.1756 -0.0916 -0.1806 -0.0907 -0.1811 -0.0863 C -0.1743 -0.0824 -0.1677 -0.0871 -0.1616 -0.0902 C -0.1455 -0.1006 -0.1292 -0.1108 -0.1129 -0.1207 C -0.1058 -0.1239 -0.0985 -0.1266 -0.0914 -0.1295 C -0.0886 -0.1267 -0.0931 -0.1259 -0.0948 -0.1243 C -0.1027 -0.119 -0.1107 -0.1137 -0.1185 -0.1084 C -0.1272 -0.0995 -0.1349 -0.0897 -0.1451 -0.0825 C -0.1499 -0.0785 -0.1547 -0.075 -0.1585 -0.0706 C -0.1659 -0.0631 -0.1736 -0.0559 -0.181 -0.0483 C -0.1833 -0.0407 -0.1882 -0.0336 -0.1876 -0.0254 C -0.1875 -0.0166 -0.1885 -0.0077 -0.1877 0.0011 C -0.1868 0.0047 -0.1847 0.013 -0.184 0.0047 C -0.1836 9.0E-4 -0.181 -0.0121 -0.1782 -0.003 C -0.1766 5.0E-4 -0.1751 0.0108 -0.1733 0.009 C -0.1706 0.0037 -0.1701 -0.0037 -0.1658 -0.0078 C -0.162 -0.0055 -0.1589 0.0 -0.1553 -0.0064 C -0.1506 -0.0118 -0.1513 -0.0199 -0.149 -0.0265 C -0.147 -0.035 -0.145 -0.0435 -0.143 -0.0521 C -0.1394 -0.0531 -0.1402 -0.0487 -0.1393 -0.0464 C -0.1382 -0.0412 -0.137 -0.0359 -0.1358 -0.0307 C -0.1279 -0.0341 -0.1311 -0.0448 -0.1286 -0.0516 C -0.1281 -0.0567 -0.1265 -0.0701 -0.121 -0.0599 C -0.1178 -0.0522 -0.1089 -0.0611 -0.1092 -0.0667 C -0.1073 -0.0755 -0.1056 -0.0844 -0.1038 -0.0933 C -0.1014 -0.089 -0.0989 -0.0848 -0.0965 -0.0806 C -0.0882 -0.081 -0.0853 -0.0893 -0.0799 -0.0942 C -0.0751 -0.0993 -0.0708 -0.1051 -0.0654 -0.1094 C -0.0593 -0.1126 -0.0536 -0.1168 -0.0473 -0.1195 C -0.0412 -0.1138 -0.0504 -0.1062 -0.0539 -0.1013 C -0.0617 -0.0917 -0.0713 -0.0838 -0.0794 -0.0745 C -0.0826 -0.0708 -0.0877 -0.0677 -0.0863 -0.0622 C -0.0822 -0.0603 -0.078 -0.0587 -0.0739 -0.0568 C -0.0801 -0.0537 -0.0868 -0.051 -0.0925 -0.0473 C -0.098 -0.0425 -0.104 -0.0382 -0.1099 -0.0337 C -0.1114 -0.0295 -0.1124 -0.0248 -0.1062 -0.0265 C -0.1017 -0.0273 -0.0897 -0.0254 -0.0992 -0.021 C -0.108 -0.0152 -0.1183 -0.0116 -0.1271 -0.0058 C -0.1295 -0.0026 -0.1361 0.0025 -0.1281 0.0023 C -0.1228 0.0015 -0.1148 -0.0066 -0.1109 -0.0025 C -0.1165 0.0037 -0.1237 0.0097 -0.1298 0.0158 C -0.1329 0.0182 -0.1398 0.0249 -0.1358 0.0268 C -0.1261 0.0222 -0.1193 0.0135 -0.111 0.0069 C -0.1081 0.0023 -0.1003 -0.0018 -0.1028 0.0071 C -0.1124 0.0191 -0.1216 0.0313 -0.1315 0.043 C -0.1305 0.0546 -0.123 0.0396 -0.1193 0.0365 C -0.1136 0.0297 -0.1082 0.0224 -0.1007 0.0174 C -0.0981 0.0168 -0.0912 0.007 -0.0908 0.011 C -0.091 0.0144 -0.0899 0.0181 -0.0928 0.0207 C -0.0987 0.0287 -0.1027 0.0379 -0.1076 0.0466 C -0.1084 0.0503 -0.1092 0.0611 -0.1038 0.056 C -0.0974 0.044 -0.0895 0.0328 -0.0844 0.02 C -0.0792 0.0091 -0.0757 -0.0026 -0.0714 -0.0138 C -0.0677 -0.0193 -0.0659 -0.0174 -0.0664 -0.0117 C -0.0658 -0.0064 -0.066 0.005 -0.0624 0.0058 C -0.0557 -0.0094 -0.0473 -0.0239 -0.0402 -0.0389 C -0.0377 -0.0463 -0.0348 -0.0535 -0.0317 -0.0606 C -0.0279 -0.061 -0.0296 -0.0568 -0.0293 -0.0544 C -0.0295 -0.0496 -0.0287 -0.0445 -0.0296 -0.0398 C -0.0338 -0.0279 -0.0369 -0.0156 -0.0427 -0.0044 C -0.0462 0.0029 -0.0511 0.0094 -0.0545 0.0167 C -0.0579 0.0211 -0.0566 0.0211 -0.0528 0.0185 C -0.046 0.0154 -0.0415 0.0096 -0.0368 0.0041 C -0.0294 -0.0018 -0.0349 0.0116 -0.0366 0.0145 C -0.0406 0.0258 -0.0432 0.0378 -0.0478 0.049 C -0.0478 0.0524 -0.049 0.0602 -0.0447 0.0542 C -0.0365 0.0479 -0.0336 0.0377 -0.0287 0.029 C -0.0257 0.0333 -0.0202 0.0358 -0.0175 0.0305 C -0.0179 0.0238 -0.021 0.0168 -0.018 0.0103 C -0.015 -5.0E-4 -0.0126 -0.0114 -0.0109 -0.0225 C -0.0101 -0.0292 -0.0096 -0.0359 -0.0088 -0.0426 C -0.0051 -0.0445 -0.0067 -0.0386 -0.0064 -0.0364 C -0.0064 -0.0313 -0.0064 -0.0261 -0.0064 -0.021 C -0.0027 -0.0206 0.004 -0.0271 0.0059 -0.0229 C 0.0022 -0.0197 -0.0034 -0.0177 -0.0067 -0.0143 C -0.0069 -0.01 -0.007 -0.0057 -0.0072 -0.0015 C -0.0026 -0.0042 0.0019 -0.007 0.0065 -0.0098 C 0.0097 -0.0075 0.0054 -0.0059 0.004 -0.0041 C 2.0E-4 -6.0E-4 -0.0035 0.0029 -0.0072 0.0064 C -0.0073 0.0094 -0.0074 0.0124 -0.0074 0.0155 C -0.0043 0.0145 -0.0011 0.0135 0.0021 0.0125 C 0.0047 0.0155 2.0E-4 0.0161 -0.0017 0.0177 C -0.0038 0.0196 -0.0085 0.0199 -0.0078 0.0236 C -0.008 0.0328 -0.0084 0.042 -0.0087 0.0513 C -0.0071 0.048 -0.0012 0.04 -0.0021 0.0396 C -0.004 0.0433 -0.011 0.0436 -0.0062 0.0397 C -0.0042 0.0373 0.0066 0.0296 0.0027 0.0373 C -0.001 0.0426 -0.0042 0.0498 -0.0081 0.0542 C -0.0092 0.0541 -0.0106 0.062 -0.0072 0.0604 C -0.0044 0.0623 0.0042 0.0632 -0.0017 0.0665 C -0.0043 0.069 -0.0075 0.0713 -0.0096 0.074 C -0.0094 0.0817 -0.0114 0.0946 -0.0099 0.0991 C -0.0076 0.0959 -1.0E-4 0.0901 -0.0017 0.0886 C -0.0048 0.0901 -0.0145 0.0894 -0.0077 0.0869 C -0.0036 0.0854 0.0078 0.0849 5.0E-4 0.0914 C -0.0034 0.0984 -0.0127 0.1005 -0.0109 0.1082 C -0.0109 0.1138 -0.0132 0.1172 -0.0063 0.1162 C 0.0015 0.1155 0.0021 0.1232 -0.005 0.1252 C -0.0099 0.1281 -0.0141 0.1279 -0.0112 0.1344 C -0.0097 0.1386 8.0E-4 0.1415 -0.0018 0.1459 C -0.0022 0.1409 -0.0033 0.1478 -0.006 0.1428 C -0.0094 0.1402 -0.0137 0.1338 -0.0123 0.1422 C -0.0129 0.1583 -0.0135 0.1743 -0.0142 0.1903 C -0.0108 0.1893 -0.005 0.1939 -0.0049 0.1961 C -0.0083 0.1992 -0.0165 0.1854 -0.0144 0.1964 C -0.0142 0.2013 -0.0155 0.2104 -0.0145 0.2127 C -0.0129 0.2113 -0.0103 0.2152 -0.0083 0.2159 C -0.006 0.2175 -0.0037 0.2191 -0.0014 0.2207 C -0.0026 0.2246 -0.0053 0.2206 -0.0075 0.2195 C -0.01 0.2178 -0.0126 0.216 -0.0151 0.2143 C -0.0145 0.2208 -0.0174 0.2328 -0.0147 0.2362 C -0.0118 0.2384 -0.0039 0.2447 -0.0041 0.2482 C -0.008 0.2493 -0.0136 0.2377 -0.016 0.2384 C -0.0164 0.2481 -0.0167 0.2578 -0.0171 0.2676 C -0.0131 0.2689 -0.0048 0.2742 -0.0027 0.2776 C -0.0064 0.2807 -0.0141 0.2691 -0.0173 0.2706 C -0.0178 0.2784 -0.0174 0.2865 -0.0185 0.2942 C -0.02 0.2999 -0.0044 0.2985 -0.0078 0.3043 C -0.0135 0.3024 -0.0215 0.2942 -0.0215 0.3048 C -0.0228 0.3132 -0.0305 0.3219 -0.0245 0.3299 C -0.0222 0.3364 -0.0148 0.3391 -0.0092 0.3424 C -0.0027 0.3414 0.0036 0.3382 0.0104 0.3379 C 0.0204 0.3364 0.0306 0.3358 0.0406 0.3342 C 0.0448 0.3311 0.05 0.3282 0.0437 0.3243 C 0.0386 0.3181 0.0398 0.3092 0.0369 0.3021 C 0.0369 0.2964 0.0357 0.2939 0.0306 0.298 C 0.0267 0.2988 0.0205 0.3073 0.0182 0.302 C 0.0242 0.2991 0.0295 0.2954 0.0355 0.2926 C 0.0348 0.2851 0.0334 0.2776 0.0335 0.27 C 0.0288 0.2731 0.0218 0.2794 0.0172 0.2786 C 0.0191 0.2743 0.0282 0.2725 0.032 0.268 C 0.0348 0.268 0.033 0.264 0.0335 0.2616 C 0.0334 0.2551 0.0333 0.2485 0.0333 0.242 C 0.0289 0.2469 0.0236 0.2505 0.017 0.2515 C 0.012 0.2472 0.0245 0.2488 0.0261 0.2451 C 0.0291 0.2417 0.0347 0.2396 0.0332 0.2343 C 0.0331 0.2285 0.0331 0.2227 0.033 0.2169 C 0.0292 0.2195 0.0221 0.2287 0.0184 0.2249 C 0.0224 0.2213 0.0311 0.2178 0.033 0.2125 C 0.0329 0.2049 0.0328 0.1974 0.0327 0.1899 C 0.0286 0.1954 0.0229 0.1992 0.0161 0.201 C 0.0128 0.2047 0.0061 0.2014 0.0128 0.1996 C 0.0194 0.1974 0.026 0.195 0.0301 0.1891 C 0.0338 0.1871 0.0325 0.1836 0.0326 0.1799 C 0.0326 0.1746 0.0325 0.1692 0.0325 0.1638 C 0.0246 0.1708 0.0176 0.1784 0.0098 0.1855 C 0.0057 0.1812 0.0174 0.1774 0.0191 0.1731 C 0.0229 0.1685 0.0295 0.164 0.0325 0.1601 C 0.0324 0.1542 0.0323 0.1483 0.0323 0.1425 C 0.0293 0.1452 0.0245 0.1487 0.0306 0.1454 C 0.0333 0.1485 0.0285 0.1488 0.0265 0.1502 C 0.0237 0.1515 0.0209 0.1528 0.0182 0.1541 C 0.0153 0.1486 0.0275 0.146 0.03 0.1412 C 0.0333 0.142 0.0321 0.1389 0.0322 0.1357 C 0.0322 0.1316 0.0321 0.1275 0.0321 0.1234 C 0.028 0.1309 0.0199 0.1266 0.0134 0.1252 C 0.0086 0.1248 0.0131 0.1233 0.0151 0.1222 C 0.0202 0.1194 0.0254 0.1166 0.0305 0.1139 C 0.0334 0.1168 0.0286 0.1173 0.0267 0.1188 C 0.0236 0.1204 0.0206 0.122 0.0176 0.1236 C 0.0233 0.1268 0.0303 0.1248 0.032 0.1192 C 0.032 0.1094 0.0317 0.0998 0.0313 0.09 C 0.0268 0.0945 0.0242 0.0994 0.0186 0.1015 C 0.0212 0.1003 0.032 0.1018 0.0247 0.1037 C 0.0206 0.1046 0.0066 0.1051 0.0164 0.0998 C 0.0214 0.0978 0.0246 0.0942 0.0277 0.09 C 0.0315 0.0878 0.0315 0.0864 0.031 0.0819 C 0.0307 0.0759 0.0305 0.0699 0.0302 0.0638 C 0.0279 0.0667 0.0182 0.0743 0.0207 0.0743 C 0.0236 0.0725 0.035 0.072 0.0282 0.0753 C 0.0239 0.075 0.0144 0.081 0.0129 0.0757 C 0.019 0.0722 0.0234 0.0668 0.0285 0.062 C 0.0315 0.0624 0.0295 0.058 0.0299 0.0553 C 0.0291 0.0372 0.0284 0.0191 0.0277 0.001 C 0.0248 0.0035 0.0129 0.0132 0.0173 0.0036 C 0.0202 2.0E-4 0.0232 -0.0056 0.0264 -0.0068 C 0.0285 -0.0079 0.0266 -0.0118 0.0271 -0.0141 C 0.0276 -0.0196 0.0242 -0.0243 0.0226 -0.0294 C 0.0224 -0.0315 0.0185 -0.0351 0.0219 -0.0357 C 0.0255 -0.0327 0.0272 -0.0244 0.0301 -0.0194 C 0.0345 -0.0091 0.0396 9.0E-4 0.0435 0.0114 C 0.0457 0.0202 0.048 0.0289 0.0483 0.0379 C 0.0505 0.0371 0.0547 0.0384 0.0545 0.035 C 0.0551 0.0316 0.0575 0.0281 0.0554 0.0248 C 0.0456 -0.0017 0.0345 -0.0277 0.0242 -0.054 C 0.0267 -0.0565 0.0275 -0.0531 0.0284 -0.051 C 0.0344 -0.0391 0.0383 -0.0262 0.0433 -0.0138 C 0.0484 -4.0E-4 0.0537 0.013 0.0598 0.026 C 0.0692 0.0205 0.0615 0.0107 0.0601 0.0028 C 0.0557 -0.0118 0.0498 -0.0258 0.0447 -0.0401 C 0.0432 -0.0426 0.0399 -0.0438 0.0377 -0.0458 C 0.0345 -0.0482 0.0312 -0.0506 0.028 -0.053 C 0.0306 -0.058 0.0365 -0.0492 0.0406 -0.0488 C 0.0476 -0.0414 0.0493 -0.0527 0.0555 -0.054 C 0.0572 -0.0476 0.0454 -0.0425 0.0517 -0.0351 C 0.0562 -0.0197 0.0603 -0.0041 0.0663 0.0108 C 0.0673 0.0135 0.0683 0.0162 0.0693 0.0189 C 0.0672 0.0218 0.0701 0.0343 0.0743 0.0311 C 0.0757 0.0244 0.08 0.0177 0.0763 0.0109 C 0.071 -0.0096 0.0636 -0.0295 0.0574 -0.0498 C 0.0575 -0.0572 0.0621 -0.0466 0.0626 -0.0435 C 0.0697 -0.0241 0.0774 -0.0049 0.0837 0.0147 C 0.0824 0.0205 0.0824 0.0327 0.09 0.0258 C 0.0903 0.0181 0.0909 0.0102 0.0877 0.0029 C 0.0812 -0.0144 0.076 -0.0323 0.0702 -0.0499 C 0.0669 -0.0463 0.0607 -0.0497 0.0597 -0.0537 C 0.0608 -0.0624 0.0536 -0.0622 0.0471 -0.0616 C 0.0442 -0.0619 0.0521 -0.066 0.053 -0.0675 C 0.0565 -0.0694 0.064 -0.0753 0.0568 -0.0769 C 0.0545 -0.078 0.0522 -0.0791 0.0498 -0.0801 C 0.0533 -0.0861 0.0569 -0.0919 0.0614 -0.0971 C 0.0643 -0.1022 0.0621 -0.1114 0.0567 -0.1146 C 0.0527 -0.1168 0.0531 -0.1218 0.0516 -0.1255 C 0.0495 -0.1277 0.0516 -0.1319 0.0532 -0.1288 C 0.0543 -0.1252 0.0553 -0.1217 0.0563 -0.1181 C 0.0623 -0.1149 0.0651 -0.1097 0.0649 -0.103 C 0.0677 -0.0968 0.0605 -0.0931 0.0578 -0.0884 C 0.0562 -0.0861 0.0549 -0.0836 0.0534 -0.0813 C 0.0567 -0.0797 0.0601 -0.0783 0.0634 -0.0766 C 0.0641 -0.0703 0.0533 -0.0662 0.0541 -0.0641 C 0.0646 -0.0669 0.0582 -0.0523 0.0661 -0.0511 C 0.0688 -0.0511 0.0712 -0.0538 0.0737 -0.0549 C 0.0782 -0.054 0.0718 -0.0519 0.0729 -0.0499 C 0.0813 -0.0269 0.09 -0.0039 0.098 0.0192 C 0.0973 0.0275 0.1052 0.0286 0.1102 0.0321 C 0.1109 0.0365 0.113 0.045 0.1177 0.0432 C 0.1179 0.0312 0.1186 0.0193 0.1187 0.0074 C 0.1193 0.0033 0.1124 -0.0065 0.1181 -0.007 C 0.1213 0.0023 0.1255 0.0114 0.1277 0.021 C 0.1292 0.0272 0.1261 0.0373 0.1351 0.0382 C 0.139 0.0398 0.136 0.0255 0.1402 0.0294 C 0.1425 0.0313 0.1448 0.0331 0.1472 0.035 C 0.1566 0.0352 0.1496 0.0248 0.1497 0.0195 C 0.1468 0.0122 0.144 0.0047 0.141 -0.0027 C 0.1454 -0.0045 0.1386 -0.0021 0.1399 -0.0068 C 0.1389 -0.0141 0.1342 -0.0196 0.1299 -0.0253 C 0.1281 -0.0292 0.1282 -0.0338 0.1249 -0.0283 C 0.1209 -0.025 0.1227 -0.0195 0.1255 -0.016 C 0.13 -0.009 0.1296 4.0E-4 0.1353 0.0067 C 0.1378 0.0108 0.1411 0.015 0.1402 0.0201 C 0.1405 0.0224 0.1407 0.0271 0.1377 0.0248 C 0.1373 0.0209 0.1388 0.0165 0.1363 0.0134 C 0.1333 0.0075 0.129 0.0037 0.1278 -0.0029 C 0.1265 -0.0096 0.1227 -0.0153 0.1199 -0.0214 C 0.1206 -0.0229 0.1105 -0.0206 0.1113 -0.0237 C 0.1141 -0.0241 0.1136 -0.0254 0.1183 -0.0243 C 0.1219 -0.0273 0.1218 -0.033 0.1194 -0.0368 C 0.1147 -0.0474 0.1074 -0.0566 0.1021 -0.0669 C 0.1008 -0.0736 0.1034 -0.0819 0.097 -0.0865 C 0.0904 -0.093 0.087 -0.1017 0.0833 -0.11 C 0.079 -0.116 0.0721 -0.1195 0.0671 -0.1249 C 0.0644 -0.124 0.0543 -0.1237 0.0593 -0.1267 C 0.0663 -0.1295 0.0711 -0.1255 0.0755 -0.1208 C 0.0806 -0.1169 0.0859 -0.1128 0.0876 -0.1064 C 0.0908 -0.0988 0.0949 -0.0919 0.1007 -0.0861 C 0.1059 -0.0813 0.1032 -0.0735 0.1046 -0.0673 C 0.1109 -0.0559 0.1194 -0.0454 0.1236 -0.0329 C 0.1227 -0.0274 0.1251 -0.0346 0.1277 -0.034 C 0.1275 -0.0402 0.1297 -0.0485 0.1257 -0.0543 C 0.1215 -0.0621 0.1166 -0.0696 0.1128 -0.0775 C 0.1102 -0.0832 0.107 -0.0903 0.104 -0.0965 C 0.1009 -0.1036 0.0965 -0.1101 0.0922 -0.1165 C 0.0965 -0.121 0.0987 -0.1083 0.1019 -0.106 C 0.1093 -0.093 0.1139 -0.0786 0.122 -0.0659 C 0.1243 -0.0604 0.1293 -0.0555 0.1304 -0.0496 C 0.1312 -0.046 0.129 -0.0346 0.1318 -0.0355 C 0.1333 -0.0383 0.1347 -0.041 0.1362 -0.0438 C 0.1385 -0.0449 0.143 -0.0442 0.1435 -0.0467 C 0.1443 -0.0544 0.1366 -0.0601 0.1358 -0.0677 C 0.1336 -0.078 0.1294 -0.0878 0.1243 -0.097 C 0.1188 -0.1091 0.1107 -0.1199 0.1063 -0.1325 C 0.1051 -0.1399 0.1111 -0.1305 0.1112 -0.1271 C 0.1155 -0.1174 0.1217 -0.1087 0.1261 -0.0991 C 0.1303 -0.0912 0.1343 -0.0833 0.1366 -0.0747 C 0.1381 -0.0666 0.1415 -0.059 0.1457 -0.0519 C 0.1464 -0.0487 0.1456 -0.0462 0.1484 -0.0459 C 0.1497 -0.0429 0.1435 -0.0444 0.1459 -0.0398 C 0.1466 -0.037 0.1452 -0.0262 0.143 -0.0323 C 0.1432 -0.0374 0.1456 -0.0456 0.1384 -0.0417 C 0.1364 -0.0401 0.1357 -0.0369 0.1342 -0.0346 C 0.133 -0.0316 0.1284 -0.0318 0.1315 -0.0275 C 0.1356 -0.0214 0.141 -0.016 0.1421 -0.0085 C 0.1429 -0.0018 0.1485 0.0027 0.1519 0.0086 C 0.1555 0.0123 0.1598 0.0238 0.1635 0.0218 C 0.1651 0.0146 0.1589 0.0098 0.1566 0.0036 C 0.1517 -0.0069 0.1472 -0.0176 0.1425 -0.0282 C 0.1463 -0.0255 0.1512 -0.0239 0.1534 -0.0193 C 0.1621 -0.0077 0.1707 0.004 0.1796 0.0155 C 0.189 0.02 0.1833 0.0083 0.1804 0.0046 C 0.1732 -0.0099 0.1634 -0.0228 0.1549 -0.0366 C 0.1531 -0.0384 0.1472 -0.0476 0.1527 -0.0447 C 0.1624 -0.0328 0.172 -0.0209 0.1817 -0.009 C 0.185 -0.0067 0.1909 -0.0049 0.1889 -0.0104 C 0.1806 -0.0256 0.1701 -0.0393 0.1608 -0.0539 C 0.1512 -0.0676 0.143 -0.0823 0.1343 -0.0967 C 0.1389 -0.1004 0.1449 -0.0911 0.1499 -0.0899 C 0.1581 -0.0854 0.1653 -0.0798 0.172 -0.0734 C 0.1832 -0.0636 0.1939 -0.0533 0.2056 -0.0441 C 0.2114 -0.0409 0.2159 -0.0354 0.2222 -0.0333 C 0.2223 -0.0354 0.2158 -0.0433 0.2185 -0.0432 C 0.2251 -0.0414 0.2312 -0.0387 0.2373 -0.0356 C 0.2413 -0.0337 0.254 -0.0289 0.2477 -0.0371 C 0.2456 -0.0413 0.236 -0.0435 0.2376 -0.048 C 0.2394 -0.049 0.2423 -0.0459 0.2445 -0.0454 C 0.2496 -0.0423 0.2553 -0.0409 0.2611 -0.0401 C 0.2696 -0.0405 0.2643 -0.0494 0.2585 -0.0494 C 0.2453 -0.0565 0.2322 -0.0637 0.219 -0.0709 C 0.2218 -0.0764 0.2307 -0.0676 0.2358 -0.0679 C 0.2388 -0.0689 0.2499 -0.0666 0.246 -0.0718 C 0.2444 -0.0738 0.241 -0.0739 0.2386 -0.0751 C 0.2206 -0.0816 0.2026 -0.0881 0.1845 -0.0947 C 0.1769 -0.0998 0.169 -0.1048 0.1613 -0.1099 C 0.1625 -0.1147 0.1702 -0.1086 0.1741 -0.1091 C 0.1808 -0.1073 0.1876 -0.1058 0.1946 -0.1059 C 0.1991 -0.1058 0.2086 -0.1047 0.2102 -0.1054 C 0.2072 -0.107 0.1941 -0.1108 0.2016 -0.1129 C 0.2054 -0.1131 0.2172 -0.1133 0.2071 -0.1137 C 0.1999 -0.1145 0.1925 -0.1142 0.1855 -0.1161 C 0.1864 -0.1187 0.19 -0.1177 0.1947 -0.1172 C 0.1998 -0.1155 0.2101 -0.1185 0.2121 -0.1142 C 0.2172 -0.1126 0.226 -0.1146 0.2326 -0.1142 C 0.2416 -0.115 0.2515 -0.1138 0.2599 -0.116 C 0.2629 -0.1206 0.2717 -0.1221 0.2715 -0.128 C 0.2709 -0.1336 0.2709 -0.1393 0.2699 -0.1447 C 0.2681 -0.1467 0.2677 -0.1509 0.2645 -0.1511 C 0.256 -0.1525 0.2479 -0.1548 0.2398 -0.1577 C 0.223 -0.1581 0.2061 -0.158 0.1894 -0.159 C 0.184 -0.1593 0.1775 -0.1544 0.1713 -0.1547 C 0.1616 -0.1538 0.1518 -0.1546 0.1425 -0.1516 C 0.1389 -0.1488 0.1338 -0.1528 0.1396 -0.1535 C 0.1468 -0.1555 0.1541 -0.1568 0.1616 -0.1566 C 0.1692 -0.1569 0.1769 -0.1575 0.1839 -0.1606 C 0.1883 -0.1635 0.1892 -0.1585 0.1901 -0.164 C 0.194 -0.1655 0.2067 -0.1644 0.2037 -0.1686 C 0.1881 -0.1681 0.1724 -0.1679 0.1568 -0.1676 C 0.1512 -0.1681 0.144 -0.1647 0.1384 -0.162 C 0.1319 -0.1593 0.1373 -0.166 0.1413 -0.1661 C 0.1482 -0.1702 0.1569 -0.1692 0.1636 -0.1737 C 0.1741 -0.1786 0.184 -0.1848 0.1942 -0.1902 C 0.1969 -0.1925 0.2043 -0.1962 0.1965 -0.197 C 0.1903 -0.1984 0.1837 -0.1948 0.1774 -0.1948 C 0.169 -0.1933 0.1774 -0.2006 0.1805 -0.202 C 0.1903 -0.2071 0.2 -0.2126 0.2093 -0.2184 C 0.2123 -0.2207 0.2211 -0.2222 0.2183 -0.226 C 0.2103 -0.2234 0.2024 -0.2196 0.1943 -0.2173 C 0.1915 -0.2167 0.179 -0.2151 0.1852 -0.22 C 0.1972 -0.2279 0.209 -0.2361 0.2209 -0.2442 C 0.2249 -0.2495 0.222 -0.2497 0.2172 -0.2475 C 0.2117 -0.2458 0.2076 -0.2413 0.2025 -0.2387 C 0.2007 -0.2356 0.1909 -0.233 0.1961 -0.2383 C 0.2014 -0.243 0.2066 -0.2477 0.2122 -0.2521 C 0.215 -0.256 0.2178 -0.2653 0.2102 -0.2609 C 0.2053 -0.2583 0.199 -0.2579 0.1956 -0.2532 C 0.1896 -0.2469 0.1834 -0.2406 0.1774 -0.2343 C 0.1731 -0.2384 0.1844 -0.2429 0.1857 -0.2473 C 0.1906 -0.2529 0.1958 -0.2583 0.2002 -0.2643 C 0.2011 -0.2693 0.2014 -0.2727 0.1964 -0.2693 C 0.1939 -0.2683 0.1915 -0.2672 0.1891 -0.2662 C 0.1898 -0.2611 0.179 -0.2558 0.1756 -0.2508 C 0.1698 -0.2458 0.162 -0.2437 0.1569 -0.2379 C 0.1528 -0.2422 0.164 -0.2455 0.1669 -0.2481 C 0.175 -0.252 0.1805 -0.2595 0.1871 -0.2655 C 0.1799 -0.264 0.1716 -0.2643 0.1674 -0.2572 C 0.1566 -0.2469 0.146 -0.2362 0.1349 -0.2262 C 0.1214 -0.2168 0.1076 -0.2076 0.0937 -0.1988 C 0.0873 -0.1962 0.0783 -0.1983 0.0753 -0.1907 C 0.07 -0.1832 0.0637 -0.1765 0.0578 -0.1695 C 0.0641 -0.1709 0.0702 -0.1695 0.0759 -0.1667 C 0.0814 -0.1647 0.0861 -0.1609 0.0914 -0.1585 C 0.0902 -0.1533 0.083 -0.1493 0.0773 -0.1502 C 0.0737 -0.1503 0.0705 -0.1528 0.067 -0.1538 C 0.0674 -0.1579 0.0709 -0.1546 0.0732 -0.154 C 0.0778 -0.1515 0.084 -0.1525 0.0874 -0.1566 C 0.0857 -0.1602 0.0763 -0.1639 0.0708 -0.1659 C 0.0659 -0.1689 0.0602 -0.1668 0.0549 -0.1668 C 0.0485 -0.1653 0.0566 -0.1709 0.0576 -0.1731 C 0.0646 -0.181 0.0713 -0.1891 0.0774 -0.1978 C 0.0769 -0.2041 0.084 -0.2086 0.0864 -0.2145 C 0.0933 -0.2247 0.0969 -0.2367 0.1022 -0.2478 C 0.1044 -0.2525 0.1033 -0.2579 0.1038 -0.2629 C 0.1037 -0.2656 0.1046 -0.2685 0.1037 -0.2711 C 0.0988 -0.262 0.0937 -0.253 0.089 -0.2438 C 0.0831 -0.2435 0.0884 -0.2527 0.09 -0.2551 C 0.0945 -0.2642 0.0996 -0.2731 0.1038 -0.2822 C 0.1039 -0.286 0.104 -0.2898 0.1041 -0.2937 C 0.1004 -0.2969 0.0985 -0.2858 0.0955 -0.2831 C 0.0889 -0.2722 0.0828 -0.2609 0.076 -0.2502 C 0.0753 -0.2466 0.0681 -0.244 0.071 -0.2491 C 0.0808 -0.2671 0.0908 -0.285 0.1008 -0.3028 C 0.1049 -0.3099 0.1036 -0.3182 0.1041 -0.3261 C 0.1003 -0.3322 0.0976 -0.3228 0.0945 -0.3204 C 0.0905 -0.3154 0.0891 -0.309 0.086 -0.3035 C 0.0811 -0.2928 0.076 -0.2821 0.071 -0.2715 C 0.0654 -0.2738 0.0742 -0.2821 0.0743 -0.2868 C 0.0791 -0.2993 0.0839 -0.3117 0.0887 -0.3241 C 0.0863 -0.3291 0.0809 -0.316 0.0783 -0.3129 C 0.0738 -0.3027 0.0685 -0.2929 0.0634 -0.2829 C 0.058 -0.2853 0.0667 -0.2936 0.0665 -0.2981 C 0.0691 -0.3056 0.0725 -0.3131 0.0751 -0.3205 C 0.0747 -0.3233 0.0787 -0.3306 0.0751 -0.3308 Z M 0.1097 -0.1954 C 0.111 -0.1904 0.1035 -0.1882 0.1004 -0.1843 C 0.0966 -0.1829 0.0827 -0.1795 0.0887 -0.1764 C 0.0926 -0.1785 0.0966 -0.1805 0.1005 -0.1826 C 0.1055 -0.1778 0.1131 -0.1727 0.1125 -0.1655 C 0.1077 -0.1643 0.1098 -0.1748 0.1041 -0.1758 C 0.1015 -0.1803 0.0982 -0.1792 0.0946 -0.1767 C 0.0918 -0.1752 0.089 -0.1738 0.0862 -0.1722 C 0.0815 -0.1786 0.0867 -0.1838 0.0935 -0.1845 C 0.1002 -0.1856 0.1041 -0.1913 0.1091 -0.1952 L 0.1092 -0.1953 L 0.1097 -0.1954 Z M 0.1453 -0.1815 C 0.1458 -0.1759 0.136 -0.1784 0.1333 -0.1737 C 0.129 -0.1716 0.1247 -0.1652 0.1208 -0.1652 C 0.1166 -0.1661 0.1259 -0.1702 0.1274 -0.1725 C 0.1328 -0.1768 0.1382 -0.1807 0.1453 -0.1815 Z M 0.191 -0.1596 C 0.1899 -0.1586 0.1907 -0.1588 0.191 -0.1596 Z M 0.062 -0.1542 C 0.0678 -0.152 0.074 -0.1506 0.079 -0.1465 C 0.0854 -0.1443 0.0857 -0.137 0.0875 -0.1315 C 0.0877 -0.1279 0.0846 -0.1166 0.0814 -0.119 C 0.0827 -0.1242 0.0873 -0.1307 0.0834 -0.1366 C 0.0829 -0.1432 0.0761 -0.145 0.0715 -0.1482 C 0.068 -0.1494 0.0646 -0.1506 0.0611 -0.1518 C 0.0614 -0.1526 0.0617 -0.1534 0.062 -0.1542 Z M 0.2264 -0.1535 C 0.2383 -0.1531 0.2503 -0.1525 0.2621 -0.1514 C 0.2634 -0.15 0.2597 -0.1499 0.2602 -0.1492 C 0.245 -0.1499 0.2297 -0.1518 0.2144 -0.1505 C 0.2072 -0.1514 0.201 -0.1459 0.1937 -0.1475 C 0.1899 -0.1467 0.181 -0.1488 0.1871 -0.1504 C 0.194 -0.1496 0.2011 -0.1495 0.2076 -0.1525 C 0.2137 -0.1536 0.2202 -0.1529 0.2264 -0.1535 Z M 0.2082 -0.1436 C 0.2205 -0.1419 0.2328 -0.1408 0.2451 -0.1409 C 0.253 -0.1405 0.2621 -0.1413 0.2691 -0.14 C 0.2679 -0.1348 0.257 -0.1398 0.2524 -0.1383 C 0.2386 -0.1384 0.2248 -0.1384 0.2112 -0.1407 C 0.2086 -0.1406 0.2078 -0.1411 0.2082 -0.1436 Z M 0.2215 -0.1299 C 0.2265 -0.1246 0.2337 -0.1237 0.241 -0.1249 C 0.2495 -0.1254 0.2583 -0.1231 0.2666 -0.1263 C 0.2738 -0.127 0.266 -0.1222 0.2623 -0.1227 C 0.2539 -0.1209 0.2453 -0.1233 0.2369 -0.1222 C 0.2301 -0.1198 0.2246 -0.1255 0.2198 -0.1268 C 0.2161 -0.1246 0.2122 -0.1242 0.2081 -0.1245 C 0.2022 -0.1245 0.1963 -0.1245 0.1904 -0.1245 C 0.1892 -0.1284 0.1937 -0.1266 0.1961 -0.127 C 0.202 -0.127 0.2079 -0.1269 0.2137 -0.1271 C 0.2163 -0.1281 0.2188 -0.1294 0.2215 -0.1299 Z M -0.0191 -0.1219 C -0.0129 -0.1194 -0.024 -0.1133 -0.0222 -0.1093 C -0.022 -0.1051 -0.0215 -0.1021 -0.0195 -0.1079 C -0.0186 -0.1106 -0.0178 -0.1134 -0.0168 -0.116 C -0.0143 -0.112 -0.0111 -0.1097 -0.0064 -0.1096 C -0.0043 -0.1062 -0.0034 -0.0984 -0.0013 -0.1056 C 7.0E-4 -0.1093 0.0022 -0.1136 0.005 -0.1167 C 0.0095 -0.1141 0.0043 -0.1049 0.0057 -0.1001 C 0.0053 -0.0927 0.0069 -0.0852 0.0058 -0.0778 C 0.0065 -0.0733 0.0021 -0.062 0.01 -0.0674 C 0.0127 -0.0687 0.0131 -0.0725 0.0147 -0.075 C 0.0178 -0.0808 0.0167 -0.088 0.0186 -0.0941 C 0.0245 -0.0957 0.0192 -0.0779 0.0248 -0.0835 C 0.0265 -0.0895 0.022 -0.0946 0.0215 -0.1013 C 0.0215 -0.1052 0.0215 -0.1091 0.0215 -0.1131 C 0.0254 -0.1143 0.0237 -0.1098 0.024 -0.1074 C 0.0237 -0.1027 0.0242 -0.098 0.0263 -0.0936 C 0.0328 -0.0901 0.0317 -0.1021 0.0369 -0.1045 C 0.0425 -0.1068 0.0393 -0.1184 0.045 -0.1172 C 0.0445 -0.11 0.0405 -0.104 0.0355 -0.0991 C 0.0335 -0.0957 0.0325 -0.0874 0.0267 -0.0908 C 0.0309 -0.0864 0.0261 -0.0773 0.0209 -0.0789 C 0.0197 -0.0827 0.0196 -0.0872 0.019 -0.0806 C 0.0188 -0.0751 0.015 -0.0708 0.013 -0.0658 C 0.0083 -0.0632 -3.0E-4 -0.0604 0.0029 -0.0692 C 0.0034 -0.0787 0.0041 -0.0882 0.003 -0.0976 C 0.0028 -0.1007 0.0045 -0.1105 0.003 -0.1086 C 8.0E-4 -0.1041 -0.0013 -0.0996 -0.0035 -0.0952 C -0.0062 -0.0993 -0.0051 -0.1088 -0.0115 -0.1079 C -0.015 -0.1086 -0.0163 -0.1128 -0.0172 -0.107 C -0.0187 -0.1053 -0.0207 -0.0958 -0.0235 -0.1001 C -0.0242 -0.1054 -0.0238 -0.1135 -0.0298 -0.1071 C -0.0309 -0.1114 -0.0319 -0.1156 -0.033 -0.1199 C -0.0294 -0.122 -0.0301 -0.1172 -0.0291 -0.115 C -0.0293 -0.1078 -0.0216 -0.1148 -0.0207 -0.1186 C -0.0202 -0.1197 -0.0196 -0.1208 -0.0191 -0.1219 Z M 0.0796 -0.09 C 0.0863 -0.0764 0.0934 -0.063 0.1006 -0.0496 C 0.1045 -0.0401 0.1092 -0.0308 0.1108 -0.0206 C 0.1093 -0.0158 0.1207 -0.0092 0.1151 -0.0079 C 0.109 -0.0128 0.1083 -0.0204 0.1066 -0.0275 C 0.1026 -0.04 0.0968 -0.052 0.0904 -0.0635 C 0.0857 -0.0718 0.0818 -0.0803 0.0775 -0.0887 C 0.0782 -0.0892 0.0789 -0.0896 0.0796 -0.09 Z M 0.0659 -0.0751 C 0.0723 -0.0744 0.0601 -0.0677 0.068 -0.067 C 0.0722 -0.0663 0.0711 -0.0605 0.0748 -0.0595 C 0.0843 -0.059 0.0738 -0.0456 0.0835 -0.0475 C 0.0881 -0.0439 0.0833 -0.0344 0.0905 -0.032 C 0.0966 -0.0291 0.0949 -0.0219 0.0977 -0.0169 C 0.0984 -0.0131 0.1006 -0.0137 0.1032 -0.0156 C 0.1052 -0.0169 0.1091 -0.0189 0.1083 -0.0153 C 0.1049 -0.0136 0.1015 -0.0119 0.0981 -0.0102 C 0.0954 -0.0155 0.093 -0.0209 0.0924 -0.0269 C 0.087 -0.0309 0.0822 -0.0354 0.083 -0.0427 C 0.0843 -0.0483 0.0736 -0.0426 0.0764 -0.0497 C 0.0801 -0.0568 0.0718 -0.0559 0.0701 -0.0607 C 0.0696 -0.0656 0.0624 -0.0648 0.062 -0.069 C 0.0632 -0.0711 0.0647 -0.0731 0.0659 -0.0751 Z M 0.0274 -0.0057 C 0.0264 -0.0026 0.0163 0.0068 0.0238 8.0E-4 C 0.0276 -0.0015 0.0282 0.0 0.0275 -0.0051 L 0.0274 -0.0056 L 0.0274 -0.0057 Z M 0.0259 0.0166 C 0.0332 0.0178 0.0169 0.0248 0.0204 0.025 C 0.0225 0.0235 0.0271 0.0237 0.0247 0.0263 C 0.0212 0.0274 0.0176 0.0285 0.0141 0.0296 C 0.0115 0.024 0.0231 0.0211 0.0258 0.0167 L 0.0259 0.0166 Z M 0.0267 0.0407 C 0.0327 0.0409 0.0234 0.0469 0.0217 0.0495 C 0.0152 0.0548 0.0295 0.0442 0.0283 0.0495 C 0.0256 0.0514 0.0157 0.0576 0.0122 0.0542 C 0.0165 0.0493 0.0227 0.0461 0.0267 0.0407 Z M -0.0092 0.0623 C -0.0095 0.0669 -0.0104 0.0726 -0.006 0.0669 C -0.0011 0.0639 -0.0065 0.064 -0.0092 0.0623 Z M -0.0113 0.118 C -0.0114 0.1223 -0.0131 0.1291 -0.0074 0.1237 C -0.0031 0.1219 0.0 0.1186 -0.0068 0.1186 C -0.0083 0.1184 -0.0098 0.1182 -0.0113 0.118 Z M -0.0124 0.1651 C -0.0086 0.1675 0.0011 0.168 9.0E-4 0.1724 C -0.0019 0.1719 -0.0119 0.1696 -0.0124 0.1663 C -0.0124 0.1659 -0.0124 0.1655 -0.0124 0.1651 Z M -0.0297 0.3241 C -0.0446 0.3245 -0.0595 0.3241 -0.0743 0.3246 C -0.0807 0.3287 -0.0881 0.3314 -0.0931 0.3373 C -0.0969 0.3426 -0.0868 0.3472 -0.0815 0.346 C -0.0789 0.3477 -0.0695 0.3443 -0.0711 0.3492 C -0.0736 0.3564 -0.0816 0.3576 -0.0869 0.362 C -0.0902 0.3687 -0.0824 0.3772 -0.0766 0.3707 C -0.0731 0.3674 -0.0701 0.367 -0.0677 0.3711 C -0.0636 0.3743 -0.0705 0.3828 -0.0617 0.3823 C -0.0559 0.3794 -0.0507 0.3743 -0.0453 0.3705 C -0.0417 0.3659 -0.0358 0.3607 -0.0335 0.3694 C -0.0282 0.374 -0.0216 0.3728 -0.0153 0.3724 C -0.0075 0.3722 0.0011 0.3711 0.0055 0.3638 C 0.0128 0.3603 0.0197 0.3674 0.0234 0.3731 C 0.0283 0.3763 0.0365 0.3767 0.034 0.3686 C 0.0321 0.3632 0.0337 0.3576 0.0402 0.361 C 0.0472 0.3624 0.0526 0.3677 0.0594 0.3696 C 0.059 0.3644 0.0589 0.3548 0.066 0.3613 C 0.072 0.3657 0.0783 0.3699 0.0856 0.3718 C 0.0858 0.3688 0.085 0.3655 0.086 0.3626 C 0.0907 0.3578 0.1 0.3719 0.098 0.3612 C 0.0989 0.3575 0.0939 0.3494 0.099 0.3499 C 0.1061 0.3529 0.1136 0.355 0.1212 0.3564 C 0.1162 0.348 0.1072 0.3434 0.0996 0.3379 C 0.0922 0.3348 0.0845 0.3324 0.0764 0.3325 C 0.0677 0.3317 0.0588 0.3321 0.0503 0.3308 C 0.0466 0.3282 0.0472 0.3305 0.0479 0.3313 C 0.0428 0.3387 0.0336 0.3372 0.0259 0.3386 C 0.015 0.3397 0.0041 0.3407 -0.0062 0.3446 C -0.0133 0.3455 -0.0195 0.3393 -0.0247 0.3349 C -0.0269 0.3318 -0.028 0.3277 -0.0297 0.3241 Z"/>
</defs>
<g>
<rect x="0" y="0" width="640" height="360" class="blue"/>
<use xlink:href="#crescent" transform="translate(0 0) scale(180 180) rotate(0)" class="white"/>
<use xlink:href="#palm" transform="translate(320 180) scale(360 360) rotate(0)" class="white"/>
</g>
</svg>
