<?xml version="1.0"?>
<svg xmlns="http://www.w3.org/2000/svg" xmlns:xlink="http://www.w3.org/1999/xlink" version="1.1" width="640" height="360" viewBox="0 0 640 360">
<!-- Generated by Kreative Vexillo v1.0 -->
<style>
.blue{fill:rgb(0,0,255);}
.red{fill:rgb(255,0,0);}
.white{fill:rgb(255,255,255);}
</style>
<defs>
<path id="arrow" d="M 0.0 0.0 L 0.5 1.0 L 0.0 0.8 L -0.5 1.0 Z"/>
<path id="ring" d="M 0.5 0.0 A 0.5 0.5 0.0 0 0 -0.5 0.0 A 0.5 0.5 0.0 0 0 0.5 0.0 Z M 0.416667 0.0 A 0.416667 0.416667 0.0 0 1 -0.416667 0.0 A 0.416667 0.416667 0.0 0 1 0.416667 0.0 Z"/>
</defs>
<g>
<rect x="0" y="0" width="640" height="360" class="white"/>
<use xlink:href="#ring" transform="translate(250.7 180) scale(237.6 237.6) rotate(0)" class="blue"/>
<use xlink:href="#ring" transform="translate(389.3 180) scale(237.6 237.6) rotate(0)" class="blue"/>
<g>
<rect x="56.835" y="170.1" width="526.33" height="19.8" class="red"/>
<rect x="310.1" y="41.4" width="19.8" height="277.2" class="red"/>
</g>
<use xlink:href="#arrow" transform="translate(320 11.7) scale(59.4 44.55) rotate(0)" class="red"/>
<use xlink:href="#arrow" transform="translate(320 348.3) scale(59.4 44.55) rotate(180)" class="red"/>
<use xlink:href="#arrow" transform="translate(34.56 180) scale(44.55 59.4) rotate(270)" class="red"/>
<use xlink:href="#arrow" transform="translate(605.44 180) scale(44.55 59.4) rotate(90)" class="red"/>
</g>
</svg>
