<?xml version="1.0"?>
<svg xmlns="http://www.w3.org/2000/svg" xmlns:xlink="http://www.w3.org/1999/xlink" version="1.1" width="640" height="360" viewBox="0 0 640 360">
<!-- Generated by Kreative Vexillo v1.0 -->
<style>
.black{fill:rgb(89,89,89);}
.blue{fill:rgb(123,194,224);}
.green{fill:rgb(59,176,125);}
.red{fill:rgb(207,114,128);}
.white{fill:rgb(232,232,232);}
.yellow{fill:rgb(238,222,119);}
</style>
<defs>
<clipPath id="clip0">
<path d="M 0 0 L 640 360 L 0 360 Z"/>
</clipPath>
<clipPath id="clip1">
<path d="M 0 0 L 640 0 L 640 360 Z"/>
</clipPath>
</defs>
<g>
<rect x="0" y="0" width="640" height="360" class="black"/>
<g clip-path="url(#clip0)">
<path d="M 44.1235 -78.4418 L 44.1235 -78.4418 L 684.1235 281.5582 L 595.8765 438.4418 L -44.1235 78.4418 Z" class="red"/>
<path d="M 26.4741 -47.0651 L 26.4741 -47.0651 L 666.4741 312.9349 L 613.5259 407.0651 L -26.4741 47.0651 Z" class="yellow"/>
</g>
<g clip-path="url(#clip1)">
<path d="M 44.1235 -78.4418 L 44.1235 -78.4418 L 684.1235 281.5582 L 595.8765 438.4418 L -44.1235 78.4418 Z" class="green"/>
<path d="M 26.4741 -47.0651 L 26.4741 -47.0651 L 666.4741 312.9349 L 613.5259 407.0651 L -26.4741 47.0651 Z" class="blue"/>
</g>
<path d="M 8.8247 -15.6884 L 8.8247 -15.6884 L 648.8247 344.3116 L 631.1753 375.6884 L -8.8247 15.6884 Z" class="white"/>
</g>
</svg>
