<?xml version="1.0"?>
<svg xmlns="http://www.w3.org/2000/svg" xmlns:xlink="http://www.w3.org/1999/xlink" version="1.1" width="640" height="360" viewBox="0 0 640 360">
<!-- Generated by Kreative Vexillo v1.0 -->
<style>
.blue{fill:rgb(0,110,182);}
.white{fill:rgb(255,255,255);}
</style>
<defs>
<path id="swan" d="M -3.0E-4 0.4277 C -0.1513 0.4277 -0.28399998 0.3495 -0.3601 0.23130001 H 0.3385 L 0.2448 0.1518 S 0.20210001 0.16600001 0.1575 0.16600001 H 0.069 C 0.048299998 0.16600001 0.0413 0.16330001 0.031999998 0.1428 L -0.2044 -0.37609997 C -0.1438 -0.40899998 -0.074300006 -0.42779997 -5.0000846E-4 -0.42779997 C 0.2357 -0.42779997 0.42720002 -0.23629998 0.42720002 -9.995699E-5 C 0.42720002 0.23610005 0.23570003 0.42760006 -4.9999356E-4 0.42760006 M -4.9999356E-4 -0.5000999 C -0.10649999 -0.5000999 -0.2048 -0.4670999 -0.2857 -0.4107999 C -0.2857 -0.4106999 -0.0361 0.13810012 -0.030799985 0.14960012 C -0.024999985 0.16230012 -0.016499985 0.16590011 -0.016499985 0.16590011 H -0.016499985 H -0.060999986 C -0.08169998 0.16590011 -0.08869998 0.16320011 -0.09799999 0.1427001 L -0.33319998 -0.37339988 C -0.3491 -0.35919988 -0.36409998 -0.3439999 -0.37809998 -0.32789987 C -0.30579996 -0.16889988 -0.16629998 0.13770014 -0.16089998 0.14960012 C -0.15509999 0.16230012 -0.14659998 0.16590011 -0.14659998 0.16590011 H -0.19109997 C -0.21179998 0.16590011 -0.21879998 0.16320011 -0.22809997 0.1427001 L -0.41829997 -0.27479988 C -0.43189996 -0.2541999 -0.44399998 -0.23249988 -0.45439997 -0.20989987 C -0.38219997 -0.05119987 -0.2952 0.14020014 -0.2909 0.14960012 C -0.28509998 0.16230012 -0.2766 0.16590011 -0.2766 0.16590011 H -0.3211 C -0.3418 0.16590011 -0.3488 0.16320011 -0.3581 0.1427001 L -0.48299998 -0.13149989 C -0.4924 -0.09699988 -0.49809998 -0.060999885 -0.49989998 -0.023999885 C -0.4574 0.06940012 -0.4236 0.14380011 -0.42099997 0.14960012 C -0.41519997 0.16230012 -0.4067 0.16590011 -0.4067 0.16590011 H -0.45119998 C -0.4613 0.16590011 -0.46809998 0.16520011 -0.47349998 0.16220011 C -0.40609998 0.3586001 -0.2198 0.4998001 -4.9999356E-4 0.4998001 C 0.27560002 0.4998001 0.4995 0.27590007 0.4995 -1.9991398E-4 C 0.4995 -0.27629992 0.27560002 -0.5001999 -4.9999356E-4 -0.5001999"/>
</defs>
<g>
<rect x="0" y="0" width="640" height="360" class="blue"/>
<use xlink:href="#swan" transform="translate(320 180) scale(216 216) rotate(0)" class="white"/>
</g>
</svg>
