<?xml version="1.0"?>
<svg xmlns="http://www.w3.org/2000/svg" xmlns:xlink="http://www.w3.org/1999/xlink" version="1.1" width="640" height="360" viewBox="0 0 640 360">
<!-- Generated by Kreative Vexillo v1.0 -->
<style>
.black{fill:rgb(0,0,0);}
.green{fill:rgb(105,243,105);}
</style>
<defs>
<path id="trans" d="M 0.0158 0.2539 H 0.116 V 0.3051 L 0.0158 0.3047 L 0.015399999 0.4114 L -0.034 0.4118 V 0.3056 L -0.13589999 0.30519998 L -0.1363 0.2532 L -0.033999994 0.2536 V 0.1897 C -0.0808 0.18480001 -0.121599995 0.165 -0.1563 0.13030002 C -0.1968 0.08950001 -0.217 0.04070002 -0.217 -0.016299978 C -0.217 -0.07089998 -0.19979998 -0.11749998 -0.1654 -0.15589997 L -0.20359999 -0.19449997 L -0.2756 -0.12169997 L -0.31199998 -0.15859997 L -0.24049997 -0.23099998 L -0.3154 -0.3063 L -0.3141 -0.3072 L -0.3319 -0.32500002 V -0.23740003 L -0.3822 -0.23740003 V -0.4113 L -0.2066 -0.4117 V -0.361 H -0.29979998 L -0.20349997 -0.2665 L -0.13369998 -0.3367 L -0.097699985 -0.3007 L -0.16839999 -0.23000002 L -0.1281 -0.18880002 C -0.093399994 -0.21310002 -0.052799992 -0.22520003 -0.006299995 -0.22520003 C 0.015700005 -0.22520003 0.035200004 -0.22220002 0.052200004 -0.21630003 C 0.0693 -0.21040003 0.09120001 -0.19870003 0.1181 -0.18140003 L 0.29540002 -0.35870004 H 0.15750003 V -0.4091 H 0.3818 L 0.3822 -0.1828 H 0.3315 V -0.3267 L 0.1537 -0.1472 C 0.1713 -0.1197 0.18329999 -0.0969 0.18969999 -0.078700006 C 0.1961 -0.060500003 0.19919999 -0.039800007 0.19919999 -0.016700007 C 0.19919999 0.040299993 0.17869999 0.089099996 0.13759999 0.12989998 C 0.10259999 0.16459998 0.06199999 0.18449998 0.015799992 0.18969998 L 0.0158 0.2539 L 0.0158 0.2539 Z M -0.0093 -0.1724 C -0.0518 -0.1724 -0.0881 -0.1573 -0.1183 -0.12709999 C -0.1485 -0.096899986 -0.1636 -0.060699992 -0.1636 -0.018499993 C -0.1636 0.025400009 -0.1486 0.06220001 -0.118499994 0.091900006 C -0.08839999 0.12150001 -0.051199995 0.1363 -0.0065999925 0.1363 C 0.034700006 0.1363 0.07040001 0.1209 0.10050001 0.0901 C 0.1306 0.059299998 0.1456 0.022799999 0.1456 -0.0194 C 0.1456 -0.0607 0.1302 -0.0966 0.099400006 -0.1269 C 0.0685 -0.1572 0.0323 -0.1724 -0.0093 -0.1724 Z"/>
</defs>
<g>
<rect x="0" y="0" width="640" height="360" class="green"/>
<use xlink:href="#trans" transform="translate(320 180) scale(360 360) rotate(0)" class="black"/>
</g>
</svg>
