<?xml version="1.0"?>
<svg xmlns="http://www.w3.org/2000/svg" xmlns:xlink="http://www.w3.org/1999/xlink" version="1.1" width="640" height="360" viewBox="0 0 640 360">
<!-- Generated by Kreative Vexillo v1.0 -->
<style>
.blue{fill:rgb(0,0,255);}
.green{fill:rgb(0,153,0);}
.orange{fill:rgb(255,153,0);}
.purple{fill:rgb(153,0,153);}
.red{fill:rgb(255,0,0);}
.white{fill:rgb(255,255,255);}
.yellow{fill:rgb(255,255,0);}
</style>
<defs>
<path id="petal" d="M 0.0 0.0 C -0.3509 -0.1483 -0.1953 -0.6053 0.1402 -0.5823 C 0.0723 -0.5474 0.06250001 -0.4823 0.1012 -0.422 C 0.1446 -0.3545 0.0972 -0.24579999 0.038499996 -0.21939999 C -0.057900004 -0.17599998 -0.077300005 -0.06019999 -1.0000542E-4 1.4901161E-8 Z"/>
<path id="star" d="M -0.0191 -0.3303 L -0.0388 -0.29930001 L -0.045900002 -0.33530003 L -0.0815 -0.34450004 L -0.0494 -0.36250004 L -0.0516 -0.39920005 L -0.024600001 -0.37420005 L 0.0096 -0.38770005 L -0.0057999995 -0.35430005 L 0.0175 -0.32590005 Z"/>
<path id="trace" d="M 0.0019 -0.0041 C -0.0405 -0.0259 -0.0748 -0.0713 -0.0897 -0.1255 C -0.1067 -0.18769999 -0.0969 -0.2546 -0.0628 -0.30900002 L -0.070199996 -0.3136 C -0.1057 -0.2572 -0.11579999 -0.1878 -0.09819999 -0.1232 C -0.082399994 -0.065799996 -0.047499992 -0.019500002 -0.0021999925 0.003700003 Z"/>
</defs>
<g>
<g>
<rect x="0" y="0" width="640" height="60" class="red"/>
<rect x="0" y="60" width="640" height="60" class="orange"/>
<rect x="0" y="120" width="640" height="60" class="yellow"/>
<rect x="0" y="180" width="640" height="60" class="green"/>
<rect x="0" y="240" width="640" height="60" class="blue"/>
<rect x="0" y="300" width="640" height="60" class="purple"/>
</g>
<g>
<use xlink:href="#petal" transform="translate(320 180) scale(180 180) rotate(0)" class="white"/>
<use xlink:href="#star" transform="translate(320 180) scale(180 180) rotate(0)" class="orange"/>
<use xlink:href="#trace" transform="translate(320 180) scale(180 180) rotate(0)" class="purple"/>
</g>
<g>
<use xlink:href="#petal" transform="translate(320 180) scale(180 180) rotate(72)" class="white"/>
<use xlink:href="#star" transform="translate(320 180) scale(180 180) rotate(72)" class="green"/>
<use xlink:href="#trace" transform="translate(320 180) scale(180 180) rotate(72)" class="blue"/>
</g>
<g>
<use xlink:href="#petal" transform="translate(320 180) scale(180 180) rotate(144)" class="white"/>
<use xlink:href="#star" transform="translate(320 180) scale(180 180) rotate(144)" class="purple"/>
<use xlink:href="#trace" transform="translate(320 180) scale(180 180) rotate(144)" class="red"/>
</g>
<g>
<use xlink:href="#petal" transform="translate(320 180) scale(180 180) rotate(216)" class="white"/>
<use xlink:href="#star" transform="translate(320 180) scale(180 180) rotate(216)" class="blue"/>
<use xlink:href="#trace" transform="translate(320 180) scale(180 180) rotate(216)" class="orange"/>
</g>
<g>
<use xlink:href="#petal" transform="translate(320 180) scale(180 180) rotate(288)" class="white"/>
<use xlink:href="#star" transform="translate(320 180) scale(180 180) rotate(288)" class="red"/>
<use xlink:href="#trace" transform="translate(320 180) scale(180 180) rotate(288)" class="green"/>
</g>
</g>
</svg>
