<?xml version="1.0"?>
<svg xmlns="http://www.w3.org/2000/svg" xmlns:xlink="http://www.w3.org/1999/xlink" version="1.1" width="640" height="360" viewBox="0 0 640 360">
<!-- Generated by Kreative Vexillo v1.0 -->
<style>
.blue{fill:rgb(0,101,189);}
.green{fill:rgb(0,154,73);}
.orange{fill:rgb(255,121,0);}
.white{fill:rgb(255,255,255);}
</style>
<defs>
<clipPath id="clip0">
<path d="M 0 360 L 640 0 L 640 360 Z"/>
</clipPath>
</defs>
<g>
<rect x="0" y="0" width="640" height="360" class="white"/>
<g>
<path d="M 0 0 L 640 0 L 0 360 Z" class="blue"/>
<path d="M 0 0 L 0 41.3045 L 0 41.3045 L 246.5698 180 L 246.5698 180 L 0 318.6955 L 0 318.6955 L 0 360 L 73.4302 360 L 320 221.3045 L 320 221.3045 L 566.5698 360 L 640 360 L 640 318.6955 L 393.4302 180 L 640 41.3045 L 640 0 L 566.5698 0 L 320 138.6955 L 320 138.6955 L 73.4302 0 Z" class="white"/>
</g>
<g clip-path="url(#clip0)">
<g>
<rect x="0" y="0" width="213.3333" height="360" class="green"/>
<rect x="213.3333" y="0" width="213.3333" height="360" class="white"/>
<rect x="426.6667" y="0" width="213.3333" height="360" class="orange"/>
</g>
</g>
</g>
</svg>
