<?xml version="1.0"?>
<svg xmlns="http://www.w3.org/2000/svg" xmlns:xlink="http://www.w3.org/1999/xlink" version="1.1" width="640" height="360" viewBox="0 0 640 360">
<!-- Generated by Kreative Vexillo v1.0 -->
<style>
.black{fill:rgb(0,0,0);}
.blue{fill:rgb(12,28,140);}
.gold{fill:rgb(252,181,20);}
.green{fill:rgb(0,124,89);}
.red{fill:rgb(226,61,40);}
.white{fill:rgb(255,255,255);}
</style>
<defs>
<clipPath id="clip0">
<path d="M 0 0 L 320 180 L 0 360 Z"/>
</clipPath>
<clipPath id="clip1">
<path d="M 0 0 L 640 0 L 640 360 L 0 360 L 320 180 Z"/>
</clipPath>
<clipPath id="clip2">
<rect x="0" y="0" width="640" height="360"/>
</clipPath>
</defs>
<g>
<g>
<rect x="0" y="0" width="640" height="180" class="red"/>
<rect x="0" y="180" width="640" height="180" class="blue"/>
</g>
<path d="M 0 0 L 320 180 L 0 360 Z" class="black"/>
<g clip-path="url(#clip0)">
<path d="M -29.4136 52.2957 L 290.5864 232.2957 L 349.4136 127.7043 L 29.4136 -52.2957 L -29.4136 52.2957 Z" class="gold"/>
<path d="M 290.5864 127.7043 L -29.4136 307.7043 L 29.4136 412.2957 L 349.4136 232.2957 L 290.5864 127.7043 Z" class="gold"/>
</g>
<g clip-path="url(#clip1)">
<path d="M -29.4136 52.2957 L 290.5864 232.2957 L 349.4136 127.7043 L 29.4136 -52.2957 L -29.4136 52.2957 Z" class="white"/>
<path d="M 290.5864 127.7043 L -29.4136 307.7043 L 29.4136 412.2957 L 349.4136 232.2957 L 290.5864 127.7043 Z" class="white"/>
<path d="M 320 240 L 640 240 L 640 120 L 320 120 L 320 240 Z" class="white"/>
</g>
<g clip-path="url(#clip2)">
<path d="M -17.6482 31.3774 L 302.3518 211.3774 L 337.6482 148.6226 L 17.6482 -31.3774 L -17.6482 31.3774 Z" class="green"/>
<path d="M 302.3518 148.6226 L -17.6482 328.6226 L 17.6482 391.3774 L 337.6482 211.3774 L 302.3518 148.6226 Z" class="green"/>
<path d="M 320 216 L 640 216 L 640 144 L 320 144 L 320 216 Z" class="green"/>
</g>
</g>
</svg>
