<?xml version="1.0"?>
<svg xmlns="http://www.w3.org/2000/svg" xmlns:xlink="http://www.w3.org/1999/xlink" version="1.1" width="540" height="360" viewBox="0 0 540 360">
<!-- Generated by Kreative Vexillo v1.0 -->
<style>
.black{fill:rgb(0,0,0);}
.red{fill:rgb(227,24,55);}
.yellow{fill:rgb(255,221,0);}
</style>
<defs>
<path id="emblem" d="M -0.1712 -0.2356 H 0.17109999 L -0.10590002 -0.0344 L 0.0 -0.36 L 0.1058 -0.034400016 L -0.1712 -0.2356 Z M 0.1774 0.3988 L 0.12669998 0.3689 C 0.07449998 0.3869 0.017699987 0.3941 -0.04080002 0.3879 C -0.11660002 0.3799 -0.18830001 0.35 -0.24730001 0.3017 L -0.30440003 0.37129998 C -0.27970004 0.39159998 -0.2535 0.4089 -0.22640002 0.42339998 L -0.24520002 0.4587 C -0.21520002 0.4748 -0.18360002 0.4878 -0.15100002 0.4977 L -0.13940002 0.4595 C -0.10910002 0.46870002 -0.07820002 0.47480002 -0.047100022 0.4778 L -0.05100002 0.5176 C -0.017100021 0.5209 0.016999982 0.5209 0.050899975 0.5176 L 0.046999976 0.4778 C 0.078199975 0.4747 0.10909998 0.4686 0.13929997 0.4595 L 0.15089998 0.49780002 C 0.16699998 0.4929 0.18289998 0.48720002 0.19839998 0.48080003 L 0.1774 0.3988 Z M 0.5175 0.051 C 0.5208 0.017099999 0.5208 -0.017000005 0.5175 -0.050899997 L 0.4777 -0.047 C 0.4746 -0.0782 0.4685 -0.1091 0.4594 -0.13929999 L 0.4977 -0.15089999 C 0.4878 -0.18349999 0.4747 -0.21499999 0.4587 -0.24509999 L 0.4235 -0.22629999 C 0.4089 -0.2537 0.3914 -0.27999997 0.3712 -0.30449998 L 0.4021 -0.3299 C 0.3805 -0.3562 0.3563 -0.3804 0.32999998 -0.402 L 0.30459997 -0.3711 C 0.30449998 -0.3712 0.30439997 -0.3712 0.30439997 -0.3713 C 0.27999997 -0.39130002 0.25389996 -0.4086 0.22639996 -0.42330003 L 0.24529997 -0.45860004 C 0.21529996 -0.47470003 0.18369997 -0.48770005 0.15109996 -0.49760005 L 0.13949996 -0.45930004 C 0.11049996 -0.46810004 0.080699965 -0.47420004 0.050299965 -0.47740003 L 0.040899966 -0.38790002 C 0.25509998 -0.36540002 0.41049996 -0.17350003 0.38799995 0.04069999 C 0.37699994 0.14479998 0.32599995 0.23499998 0.25189996 0.2977 L 0.36149997 0.3737 C 0.37579995 0.3599 0.38939998 0.3453 0.40209997 0.3299 L 0.37119997 0.30449998 C 0.37129995 0.3044 0.37129995 0.3044 0.37139997 0.30429998 C 0.39169997 0.27959996 0.40899998 0.25339997 0.42349997 0.22629997 L 0.45879996 0.24509998 C 0.47489995 0.21509998 0.48789996 0.18349998 0.49779996 0.15089998 L 0.45959997 0.13929997 C 0.46879998 0.108999975 0.47489998 0.07809997 0.47789997 0.046999976 L 0.5175 0.051 Z M 0.5639 0.5793 C 0.5484 0.5541 0.5293 0.53569996 0.5043 0.5135 C 0.4793 0.4913 0.4449 0.4669 0.4193 0.4421 L 0.3707 0.4991 C 0.3686 0.5015 0.3694 0.50699997 0.372 0.5075 C 0.4266 0.5168 0.44370002 0.5362 0.4654 0.5547 C 0.4947 0.5844 0.50670004 0.62020004 0.5258 0.63350004 C 0.5611 0.658 0.5866 0.6162 0.5639 0.5793 Z M 0.436 0.4887 C 0.4323 0.4887 0.42929998 0.4857 0.42929998 0.482 S 0.43229997 0.47529998 0.436 0.47529998 S 0.4427 0.47829998 0.4427 0.482 S 0.4397 0.4887 0.436 0.4887 Z M 0.4855 0.5318 C 0.48180002 0.5318 0.4788 0.52879995 0.4788 0.5251 S 0.4818 0.5184 0.4855 0.5184 C 0.4892 0.5184 0.49220002 0.52140003 0.49220002 0.5251 S 0.4892 0.5318 0.4855 0.5318 Z M 0.5289 0.576 C 0.5252 0.576 0.52220005 0.57299995 0.52220005 0.5693 S 0.52520007 0.5626 0.5289 0.5626 S 0.5356 0.56560004 0.5356 0.5693 S 0.5326 0.576 0.5289 0.576 Z M 0.2364 0.3525 C 0.13329999 0.27989998 0.02669999 0.2048 -0.06289999 0.1204 C -0.06489999 0.118499994 -0.06499999 0.1153 -0.063099995 0.113299996 C -0.061199997 0.1113 -0.057999995 0.1112 -0.055999994 0.11309999 C 0.03310001 0.19709998 0.1394 0.2719 0.24220002 0.34429997 C 0.29310003 0.38009998 0.34570003 0.41719997 0.39540002 0.45479998 L 0.40910003 0.4387 C 0.23780003 0.31629997 -0.16759995 0.034699976 -0.17269996 -0.06790003 C -0.25269997 0.08839996 -0.15129995 0.18169996 -0.08589996 0.21889997 C 0.08040004 0.31349996 0.19080004 0.37579995 0.36440006 0.49119997 L 0.38890007 0.46239996 C 0.3394 0.4251 0.2871 0.3882 0.2364 0.3525 Z"/>
</defs>
<g>
<g>
<rect x="0" y="0" width="540" height="180" class="red"/>
<rect x="0" y="180" width="540" height="180" class="black"/>
</g>
<use xlink:href="#emblem" transform="translate(270 180) scale(180 180) rotate(0)" class="yellow"/>
</g>
</svg>
