<?xml version="1.0"?>
<svg xmlns="http://www.w3.org/2000/svg" xmlns:xlink="http://www.w3.org/1999/xlink" version="1.1" width="540" height="360" viewBox="0 0 540 360">
<!-- Generated by Kreative Vexillo v1.0 -->
<style>
.green{fill:rgb(0,178,89);}
.red{fill:rgb(227,61,58);}
.white{fill:rgb(255,255,255);}
</style>
<defs>
<path id="star6" d="M 0.0 -1.0 L 0.288675 -0.5 L 0.866025 -0.5 L 0.57735 -0.0 L 0.866025 0.5 L 0.288675 0.5 L 0.0 1.0 L -0.288675 0.5 L -0.866025 0.5 L -0.57735 0.0 L -0.866025 -0.5 L -0.288675 -0.5 Z"/>
</defs>
<g>
<rect x="0" y="0" width="540" height="360" class="red"/>
<path d="M 0 0 L 270 180 L 0 360 Z" class="green"/>
<path d="M 540 360 L 270 180 L 540 0 Z" class="green"/>
<path d="M 0 0 L 0 27.0416 L 229.4375 180 L 229.4375 180 L 0 332.9584 L 0 332.9584 L 0 360 L 40.5625 360 L 270 207.0416 L 499.4375 360 L 540 360 L 540 332.9584 L 310.5625 180 L 310.5625 180 L 540 27.0416 L 540 0 L 499.4376 0 L 270 152.9584 L 40.5624 0 Z" class="white"/>
<ellipse cx="270" cy="180" rx="108" ry="108" class="white"/>
<use xlink:href="#star6" transform="translate(270 128.0385) scale(24.75 24.75) rotate(0)" class="green"/>
<use xlink:href="#star6" transform="translate(225 205.9808) scale(24.75 24.75) rotate(0)" class="green"/>
<use xlink:href="#star6" transform="translate(315 205.9808) scale(24.75 24.75) rotate(0)" class="green"/>
<use xlink:href="#star6" transform="translate(270 128.0385) scale(20.25 20.25) rotate(0)" class="red"/>
<use xlink:href="#star6" transform="translate(225 205.9808) scale(20.25 20.25) rotate(0)" class="red"/>
<use xlink:href="#star6" transform="translate(315 205.9808) scale(20.25 20.25) rotate(0)" class="red"/>
</g>
</svg>
