<?xml version="1.0"?>
<svg xmlns="http://www.w3.org/2000/svg" xmlns:xlink="http://www.w3.org/1999/xlink" version="1.1" width="540" height="360" viewBox="0 0 540 360">
<!-- Generated by Kreative Vexillo v1.0 -->
<style>
.green{fill:rgb(74,166,87);}
.red{fill:rgb(200,49,62);}
.white{fill:rgb(255,255,255);}
</style>
<defs>
<path id="ornament" d="M 0.1741 0.0 L 0.1741 0.0164 L 0.1303 0.0164 L 0.1303 0.0328 L 0.086899996 0.0328 L 0.086899996 0.0492 L 0.043499995 0.0492 L 0.043499995 0.0656 L 9.999424E-5 0.0656 L 9.999424E-5 0.082 L 0.043499995 0.082 L 0.043499995 0.098400004 L 0.086899996 0.098400004 L 0.086899996 0.114800006 L 0.1303 0.114800006 L 0.1303 0.1313 L 0.1741 0.1313 L 0.1741 0.1477 L 0.2175 0.1477 L 0.2175 0.16409999 L 0.2609 0.16409999 L 0.2609 0.1477 L 0.30429998 0.1477 L 0.30429998 0.1313 L 0.34769997 0.1313 L 0.34769997 0.114800006 L 0.39109996 0.114800006 L 0.39109996 0.098400004 L 0.43449995 0.098400004 L 0.43449995 0.082 L 0.47789994 0.082 L 0.47789994 0.0656 L 0.43449995 0.0656 L 0.43449995 0.0492 L 0.39109996 0.0492 L 0.39109996 0.032799996 L 0.34769997 0.032799996 L 0.34769997 0.016399996 L 0.30429998 0.016399996 L 0.30429998 -3.7252903E-9 L 0.17399998 -3.7252903E-9 Z M 0.47820002 0.0 L 0.47820002 0.0328 L 0.49570003 0.0328 L 0.50450003 0.0328 L 0.522 0.0328 L 0.522 0.0 L 0.50450003 0.0 L 0.49570003 0.0 L 0.47820002 0.0 Z M 0.69570005 0.0 L 0.69570005 0.0164 L 0.65230006 0.0164 L 0.65230006 0.0328 L 0.60890007 0.0328 L 0.60890007 0.0492 L 0.5655001 0.0492 L 0.5655001 0.0656 L 0.5221001 0.0656 L 0.5221001 0.082 L 0.5655001 0.082 L 0.5655001 0.098400004 L 0.60890007 0.098400004 L 0.60890007 0.114800006 L 0.65230006 0.114800006 L 0.65230006 0.1313 L 0.69570005 0.1313 L 0.69570005 0.1477 L 0.73910004 0.1477 L 0.73910004 0.16409999 L 0.7825 0.16409999 L 0.7825 0.1477 L 0.8259 0.1477 L 0.8259 0.1313 L 0.8697 0.1313 L 0.8697 0.114800006 L 0.9131 0.114800006 L 0.9131 0.098400004 L 0.9565 0.098400004 L 0.9565 0.082 L 0.9999 0.082 L 0.9999 0.0656 L 0.9565 0.0656 L 0.9565 0.0492 L 0.9131 0.0492 L 0.9131 0.032799996 L 0.8697 0.032799996 L 0.8697 0.016399996 L 0.8259 0.016399996 L 0.8259 -3.7252903E-9 L 0.6956 0.0 Z M 0.0 0.0164 L 0.0 0.0328 L 0.0434 0.0328 L 0.0434 0.0164 L 0.0 0.0164 Z M 0.9566 0.0164 L 0.9566 0.0328 L 1.0 0.0328 L 1.0 0.0164 L 0.9566 0.0164 Z M 0.2175 0.0328 L 0.2609 0.0328 L 0.2609 0.0492 L 0.30429998 0.0492 L 0.30429998 0.0656 L 0.34769997 0.0656 L 0.34769997 0.082 L 0.30429998 0.082 L 0.30429998 0.098400004 L 0.2609 0.098400004 L 0.2609 0.114800006 L 0.21749999 0.114800006 L 0.21749999 0.098400004 L 0.17409998 0.098400004 L 0.17409998 0.082 L 0.13029999 0.082 L 0.13029999 0.0656 L 0.17409998 0.0656 L 0.17409998 0.0492 L 0.21749999 0.0492 L 0.21749999 0.032799996 Z M 0.7391 0.0328 L 0.78249997 0.0328 L 0.78249997 0.0492 L 0.82589996 0.0492 L 0.82589996 0.0656 L 0.86969995 0.0656 L 0.86969995 0.082 L 0.82589996 0.082 L 0.82589996 0.098400004 L 0.78249997 0.098400004 L 0.78249997 0.114800006 L 0.7391 0.114800006 L 0.7391 0.098400004 L 0.6957 0.098400004 L 0.6957 0.082 L 0.6523 0.082 L 0.6523 0.0656 L 0.6957 0.0656 L 0.6957 0.0492 L 0.7391 0.0492 L 0.7391 0.032799996 Z M 0.2175 0.0656 L 0.2175 0.082 L 0.2609 0.082 L 0.2609 0.0656 L 0.21749999 0.0656 Z M 0.7391 0.0656 L 0.7391 0.082 L 0.78249997 0.082 L 0.78249997 0.0656 L 0.7391 0.0656 Z M 0.0 0.1147 L 0.0 0.1312 L 0.0434 0.1312 L 0.0434 0.114700004 L 0.0 0.114700004 Z M 0.4781 0.1147 L 0.4781 0.1475 L 0.49560001 0.1475 L 0.5044 0.1475 L 0.5219 0.1475 L 0.5219 0.11469999 L 0.5044 0.11469999 L 0.49560001 0.11469999 L 0.4781 0.11469999 Z M 0.9565 0.1147 L 0.9565 0.1312 L 0.9999 0.1312 L 0.9999 0.114700004 L 0.9565 0.114700004 Z M 0.0869 0.1476 L 0.0869 0.16399999 L 0.043500002 0.16399999 L 0.043500002 0.18039998 L 1.0000169E-4 0.18039998 L 1.0000169E-4 0.19679998 L 0.043500002 0.19679998 L 0.043500002 0.21319997 L 0.0869 0.21319997 L 0.0869 0.22959997 L 0.1303 0.22959997 L 0.1303 0.21319997 L 0.1741 0.21319997 L 0.1741 0.19679998 L 0.2175 0.19679998 L 0.2175 0.18039998 L 0.1741 0.18039998 L 0.1741 0.16399999 L 0.1303 0.16399999 L 0.1303 0.1476 L 0.086899996 0.1476 Z M 0.3478 0.1476 L 0.3478 0.16399999 L 0.3044 0.16399999 L 0.3044 0.18039998 L 0.261 0.18039998 L 0.261 0.19679998 L 0.3044 0.19679998 L 0.3044 0.21319997 L 0.3478 0.21319997 L 0.3478 0.22959997 L 0.39119998 0.22959997 L 0.39119998 0.21319997 L 0.43459997 0.21319997 L 0.43459997 0.19679998 L 0.47799996 0.19679998 L 0.47799996 0.18039998 L 0.43459997 0.18039998 L 0.43459997 0.16399999 L 0.39119998 0.16399999 L 0.39119998 0.1476 L 0.3478 0.1476 Z M 0.6087 0.1476 L 0.6087 0.16399999 L 0.5653 0.16399999 L 0.5653 0.18039998 L 0.5219 0.18039998 L 0.5219 0.19679998 L 0.5653 0.19679998 L 0.5653 0.21319997 L 0.6087 0.21319997 L 0.6087 0.22959997 L 0.65209997 0.22959997 L 0.65209997 0.21319997 L 0.69549996 0.21319997 L 0.69549996 0.19679998 L 0.73889995 0.19679998 L 0.73889995 0.18039998 L 0.69549996 0.18039998 L 0.69549996 0.16399999 L 0.65209997 0.16399999 L 0.65209997 0.1476 L 0.6087 0.1476 Z M 0.86959994 0.1476 L 0.86959994 0.16399999 L 0.82579994 0.16399999 L 0.82579994 0.18039998 L 0.78239995 0.18039998 L 0.78239995 0.19679998 L 0.82579994 0.19679998 L 0.82579994 0.21319997 L 0.86959994 0.21319997 L 0.86959994 0.22959997 L 0.9129999 0.22959997 L 0.9129999 0.21319997 L 0.9563999 0.21319997 L 0.9563999 0.19679998 L 0.9997999 0.19679998 L 0.9997999 0.18039998 L 0.9563999 0.18039998 L 0.9563999 0.16399999 L 0.9129999 0.16399999 L 0.9129999 0.1476 L 0.86959994 0.1476 Z M 0.08679992 0.1804 L 0.13019992 0.1804 L 0.13019992 0.1968 L 0.08679992 0.1968 L 0.08679992 0.1804 Z M 0.3476999 0.1804 L 0.3910999 0.1804 L 0.3910999 0.1968 L 0.3476999 0.1968 L 0.3476999 0.1804 Z M 0.6085999 0.1804 L 0.6519999 0.1804 L 0.6519999 0.1968 L 0.6085999 0.1968 L 0.6085999 0.1804 Z M 0.8694999 0.1804 L 0.9128999 0.1804 L 0.9128999 0.1968 L 0.8694999 0.1968 L 0.8694999 0.1804 Z M 0.21729994 0.2132 L 0.21729994 0.2296 L 0.17389993 0.2296 L 0.17389993 0.24599999 L 0.13009994 0.24599999 L 0.13009994 0.2624 L 0.08669993 0.2624 L 0.08669993 0.2788 L 0.043299932 0.2788 L 0.043299932 0.29520002 L -1.0006875E-4 0.29520002 L -1.0006875E-4 0.328 L 0.043299932 0.328 L 0.043299932 0.34440002 L 0.08669993 0.34440002 L 0.08669993 0.36080003 L 0.13009994 0.36080003 L 0.13009994 0.37730002 L 0.17389993 0.37730002 L 0.17389993 0.36080003 L 0.21729994 0.36080003 L 0.21729994 0.34440002 L 0.26069993 0.34440002 L 0.26069993 0.328 L 0.17379993 0.328 L 0.17379993 0.3116 L 0.30409992 0.3116 L 0.30409992 0.328 L 0.3474999 0.328 L 0.3474999 0.34440002 L 0.3908999 0.34440002 L 0.3908999 0.36080003 L 0.3474999 0.36080003 L 0.3474999 0.37730002 L 0.30409992 0.37730002 L 0.30409992 0.39370003 L 0.26069993 0.39370003 L 0.26069993 0.41010004 L 0.21729992 0.41010004 L 0.21729992 0.42650005 L 0.17389992 0.42650005 L 0.17389992 0.44290006 L 0.13009992 0.44290006 L 0.13009992 0.42650005 L 0.08669992 0.42650005 L 0.08669992 0.41010004 L 0.043299917 0.41010004 L 0.043299917 0.39370003 L -1.0008365E-4 0.39370003 L -1.0008365E-4 0.44290003 L 0.043299917 0.44290003 L 0.043299917 0.45930004 L 0.08669992 0.45930004 L 0.08669992 0.47570005 L 0.13009992 0.47570005 L 0.13009992 0.49210006 L 0.17389992 0.49210006 L 0.17389992 0.50200003 L 0.17389992 0.50850004 L 0.13009992 0.50850004 L 0.13009992 0.5249 L 0.08669992 0.5249 L 0.08669992 0.5413 L 0.043299917 0.5413 L 0.043299917 0.5577 L -1.0008365E-4 0.5577 L -1.0008365E-4 0.6069 L 0.043299917 0.6069 L 0.043299917 0.5905 L 0.08669992 0.5905 L 0.08669992 0.5741 L 0.13009992 0.5741 L 0.13009992 0.55770004 L 0.17389992 0.55770004 L 0.17389992 0.5741 L 0.21729992 0.5741 L 0.21729992 0.5905 L 0.26069993 0.5905 L 0.26069993 0.6069 L 0.30409992 0.6069 L 0.30409992 0.62329996 L 0.3474999 0.62329996 L 0.3474999 0.63979995 L 0.3908999 0.63979995 L 0.3908999 0.65619993 L 0.3474999 0.65619993 L 0.3474999 0.6725999 L 0.30409992 0.6725999 L 0.30409992 0.6889999 L 0.17379992 0.6889999 L 0.17379992 0.6725999 L 0.26069993 0.6725999 L 0.26069993 0.65619993 L 0.21729992 0.65619993 L 0.21729992 0.63979995 L 0.17389992 0.63979995 L 0.17389992 0.62329996 L 0.13009992 0.62329996 L 0.13009992 0.63979995 L 0.08669992 0.63979995 L 0.08669992 0.65619993 L 0.043299917 0.65619993 L 0.043299917 0.6725999 L -1.0008365E-4 0.6725999 L -1.0008365E-4 0.70539993 L 0.043299917 0.70539993 L 0.043299917 0.7217999 L 0.08669992 0.7217999 L 0.08669992 0.7381999 L 0.13009992 0.7381999 L 0.13009992 0.75459987 L 0.17389992 0.75459987 L 0.17389992 0.77099985 L 0.21729992 0.77099985 L 0.21729992 0.7873998 L 0.26069993 0.7873998 L 0.26069993 0.77099985 L 0.30409992 0.77099985 L 0.30409992 0.75459987 L 0.3474999 0.75459987 L 0.3474999 0.7381999 L 0.3908999 0.7381999 L 0.3908999 0.7217999 L 0.4342999 0.7217999 L 0.4342999 0.70539993 L 0.47769988 0.70539993 L 0.47769988 0.68899995 L 0.5039999 0.68899995 L 0.5214999 0.68899995 L 0.5214999 0.70539993 L 0.56489986 0.70539993 L 0.56489986 0.7217999 L 0.60829985 0.7217999 L 0.60829985 0.7381999 L 0.65169984 0.7381999 L 0.65169984 0.75459987 L 0.69509983 0.75459987 L 0.69509983 0.77099985 L 0.7384998 0.77099985 L 0.7384998 0.7873998 L 0.7818998 0.7873998 L 0.7818998 0.77099985 L 0.8252998 0.77099985 L 0.8252998 0.75459987 L 0.8690998 0.75459987 L 0.8690998 0.7381999 L 0.9124998 0.7381999 L 0.9124998 0.7217999 L 0.9558998 0.7217999 L 0.9558998 0.70539993 L 0.99929976 0.70539993 L 0.99929976 0.6725999 L 0.9558998 0.6725999 L 0.9558998 0.65619993 L 0.9124998 0.65619993 L 0.9124998 0.63979995 L 0.8690998 0.63979995 L 0.8690998 0.62329996 L 0.8252998 0.62329996 L 0.8252998 0.63979995 L 0.7818998 0.63979995 L 0.7818998 0.65619993 L 0.7384998 0.65619993 L 0.7384998 0.6725999 L 0.8253998 0.6725999 L 0.8253998 0.6889999 L 0.69509983 0.6889999 L 0.69509983 0.6725999 L 0.65169984 0.6725999 L 0.65169984 0.65619993 L 0.60829985 0.65619993 L 0.60829985 0.63979995 L 0.65169984 0.63979995 L 0.65169984 0.62329996 L 0.69509983 0.62329996 L 0.69509983 0.6069 L 0.7384998 0.6069 L 0.7384998 0.5905 L 0.7818998 0.5905 L 0.7818998 0.5741 L 0.8252998 0.5741 L 0.8252998 0.55770004 L 0.8690998 0.55770004 L 0.8690998 0.5741 L 0.9124998 0.5741 L 0.9124998 0.5905 L 0.9558998 0.5905 L 0.9558998 0.6069 L 0.99929976 0.6069 L 0.99929976 0.5577 L 0.9558998 0.5577 L 0.9558998 0.5413 L 0.9124998 0.5413 L 0.9124998 0.5249 L 0.8690998 0.5249 L 0.8690998 0.50850004 L 0.8252998 0.50850004 L 0.8252998 0.49860004 L 0.8252998 0.49210003 L 0.8690998 0.49210003 L 0.8690998 0.47570002 L 0.9124998 0.47570002 L 0.9124998 0.4593 L 0.9558998 0.4593 L 0.9558998 0.4429 L 0.99929976 0.4429 L 0.99929976 0.3937 L 0.9558998 0.3937 L 0.9558998 0.4101 L 0.9124998 0.4101 L 0.9124998 0.42650002 L 0.8690998 0.42650002 L 0.8690998 0.44290003 L 0.8252998 0.44290003 L 0.8252998 0.42650002 L 0.7818998 0.42650002 L 0.7818998 0.4101 L 0.7384998 0.4101 L 0.7384998 0.3937 L 0.69509983 0.3937 L 0.69509983 0.3773 L 0.65169984 0.3773 L 0.65169984 0.3608 L 0.60829985 0.3608 L 0.60829985 0.3444 L 0.65169984 0.3444 L 0.65169984 0.32799998 L 0.69509983 0.32799998 L 0.69509983 0.31159997 L 0.8253998 0.31159997 L 0.8253998 0.32799998 L 0.7384998 0.32799998 L 0.7384998 0.3444 L 0.7818998 0.3444 L 0.7818998 0.3608 L 0.8252998 0.3608 L 0.8252998 0.3773 L 0.8690998 0.3773 L 0.8690998 0.3608 L 0.9124998 0.3608 L 0.9124998 0.3444 L 0.9558998 0.3444 L 0.9558998 0.32799998 L 0.99929976 0.32799998 L 0.99929976 0.2952 L 0.9558998 0.2952 L 0.9558998 0.27879998 L 0.9124998 0.27879998 L 0.9124998 0.26239997 L 0.8690998 0.26239997 L 0.8690998 0.24599998 L 0.8252998 0.24599998 L 0.8252998 0.22959998 L 0.7818998 0.22959998 L 0.7818998 0.21319999 L 0.7384998 0.21319999 L 0.7384998 0.22959998 L 0.69509983 0.22959998 L 0.69509983 0.24599998 L 0.65169984 0.24599998 L 0.65169984 0.26239997 L 0.60829985 0.26239997 L 0.60829985 0.27879998 L 0.56489986 0.27879998 L 0.56489986 0.2952 L 0.5214999 0.2952 L 0.5214999 0.3116 L 0.5039999 0.3116 L 0.4777999 0.3116 L 0.4777999 0.2952 L 0.4343999 0.2952 L 0.4343999 0.27879998 L 0.3909999 0.27879998 L 0.3909999 0.26239997 L 0.34759992 0.26239997 L 0.34759992 0.24599998 L 0.30419993 0.24599998 L 0.30419993 0.22959998 L 0.26079994 0.22959998 L 0.26079994 0.21319999 L 0.21739994 0.21319999 Z M 0.47789994 0.2296 L 0.47789994 0.2624 L 0.49539995 0.2624 L 0.5042 0.2624 L 0.52169997 0.2624 L 0.52169997 0.2296 L 0.5042 0.2296 L 0.49539998 0.2296 L 0.47789997 0.2296 Z M 0.0 0.2459 L 0.0 0.2623 L 0.0434 0.2623 L 0.0434 0.24590002 L 0.0 0.24590002 Z M 0.9566 0.2459 L 0.9566 0.2623 L 1.0 0.2623 L 1.0 0.24590002 L 0.9566 0.24590002 Z M 0.0 0.3606 L 0.0 0.3771 L 0.0434 0.3771 L 0.0434 0.3606 L 0.0 0.3606 Z M 0.9566 0.3606 L 0.9566 0.3771 L 1.0 0.3771 L 1.0 0.3606 L 0.9566 0.3606 Z M 0.47820002 0.3771 L 0.50450003 0.3771 L 0.522 0.3771 L 0.522 0.3935 L 0.5654 0.3935 L 0.5654 0.4099 L 0.6088 0.4099 L 0.6088 0.42630002 L 0.6522 0.42630002 L 0.6522 0.44270003 L 0.6956 0.44270003 L 0.6956 0.45910004 L 0.73899996 0.45910004 L 0.73899996 0.49840003 L 0.73899996 0.541 L 0.6956 0.541 L 0.6956 0.5574 L 0.6522 0.5574 L 0.6522 0.57379997 L 0.6088 0.57379997 L 0.6088 0.59019995 L 0.5654 0.59019995 L 0.5654 0.6065999 L 0.522 0.6065999 L 0.522 0.6229999 L 0.50450003 0.6229999 L 0.47830003 0.6229999 L 0.47830003 0.6065999 L 0.43490005 0.6065999 L 0.43490005 0.59019995 L 0.39150006 0.59019995 L 0.39150006 0.57379997 L 0.34810007 0.57379997 L 0.34810007 0.5574 L 0.30470008 0.5574 L 0.30470008 0.541 L 0.2613001 0.541 L 0.2613001 0.4984 L 0.2613001 0.4591 L 0.30470008 0.4591 L 0.30470008 0.4427 L 0.34810007 0.4427 L 0.34810007 0.4263 L 0.39150006 0.4263 L 0.39150006 0.40989998 L 0.43490005 0.40989998 L 0.43490005 0.39349997 L 0.47830003 0.39349997 L 0.47830003 0.37709996 Z M 0.47820002 0.40989998 L 0.47820002 0.4263 L 0.50450003 0.4263 L 0.522 0.4263 L 0.522 0.40989998 L 0.50450003 0.40989998 L 0.47830003 0.40989998 Z M 0.39130002 0.44269997 L 0.39130002 0.47549996 L 0.4347 0.47549996 L 0.4347 0.49189997 L 0.4781 0.49189997 L 0.4781 0.49839997 L 0.4781 0.50829995 L 0.4347 0.50829995 L 0.4347 0.5246999 L 0.39130002 0.5246999 L 0.39130002 0.55749995 L 0.4347 0.55749995 L 0.4347 0.54109997 L 0.4781 0.54109997 L 0.4781 0.5247 L 0.5044 0.5247 L 0.5219 0.5247 L 0.5219 0.54109997 L 0.5653 0.54109997 L 0.5653 0.55749995 L 0.6087 0.55749995 L 0.6087 0.5246999 L 0.5653 0.5246999 L 0.5653 0.50829995 L 0.5219 0.50829995 L 0.5219 0.49839994 L 0.5219 0.49189994 L 0.5653 0.49189994 L 0.5653 0.47549993 L 0.6087 0.47549993 L 0.6087 0.44269994 L 0.5653 0.44269994 L 0.5653 0.45909995 L 0.5219 0.45909995 L 0.5219 0.47549996 L 0.5044 0.47549996 L 0.47820002 0.47549996 L 0.47820002 0.45909995 L 0.43480003 0.45909995 L 0.43480003 0.44269994 L 0.39140004 0.44269994 Z M 0.30440003 0.49189997 L 0.30440003 0.49839997 L 0.30440003 0.50829995 L 0.34780002 0.50829995 L 0.34780002 0.49839994 L 0.34780002 0.49189994 L 0.30440003 0.49189994 Z M 0.6522 0.49189997 L 0.6522 0.49839997 L 0.6522 0.50829995 L 0.6956 0.50829995 L 0.6956 0.49839994 L 0.6956 0.49189994 L 0.6522 0.49189994 Z M 0.4781 0.57379997 L 0.4781 0.59019995 L 0.5044 0.59019995 L 0.5219 0.59019995 L 0.5219 0.57379997 L 0.5044 0.57379997 L 0.47820002 0.57379997 Z M 0.0 0.6229 L 0.0 0.6394 L 0.0434 0.6394 L 0.0434 0.6229 L 0.0 0.6229 Z M 0.9566 0.6229 L 0.9566 0.6394 L 1.0 0.6394 L 1.0 0.6229 L 0.9566 0.6229 Z M 0.0 0.7377 L 0.0 0.75409997 L 0.0434 0.75409997 L 0.0434 0.7377 L 0.0 0.7377 Z M 0.4781 0.7377 L 0.4781 0.7705 L 0.5044 0.7705 L 0.5219 0.7705 L 0.5219 0.7377 L 0.5044 0.7377 L 0.47820002 0.7377 Z M 0.9565 0.7377 L 0.9565 0.75409997 L 0.9999 0.75409997 L 0.9999 0.7377 L 0.9565 0.7377 Z M 0.08679998 0.7705 L 0.08679998 0.7869 L 0.04339998 0.7869 L 0.04339998 0.80329996 L -2.2351742E-8 0.80329996 L -2.2351742E-8 0.81969994 L 0.04339998 0.81969994 L 0.04339998 0.8360999 L 0.08679998 0.8360999 L 0.08679998 0.8524999 L 0.13019998 0.8524999 L 0.13019998 0.8360999 L 0.17399998 0.8360999 L 0.17399998 0.81969994 L 0.21739998 0.81969994 L 0.21739998 0.80329996 L 0.17399998 0.80329996 L 0.17399998 0.7869 L 0.13019998 0.7869 L 0.13019998 0.7705 L 0.08679998 0.7705 Z M 0.34769997 0.7705 L 0.34769997 0.7869 L 0.30429998 0.7869 L 0.30429998 0.80329996 L 0.2609 0.80329996 L 0.2609 0.81969994 L 0.30429998 0.81969994 L 0.30429998 0.8360999 L 0.34769997 0.8360999 L 0.34769997 0.8524999 L 0.39109996 0.8524999 L 0.39109996 0.8360999 L 0.43449995 0.8360999 L 0.43449995 0.81969994 L 0.47789994 0.81969994 L 0.47789994 0.80329996 L 0.43449995 0.80329996 L 0.43449995 0.7869 L 0.39109996 0.7869 L 0.39109996 0.7705 L 0.34769997 0.7705 Z M 0.60859996 0.7705 L 0.60859996 0.7869 L 0.5652 0.7869 L 0.5652 0.80329996 L 0.5218 0.80329996 L 0.5218 0.81969994 L 0.5652 0.81969994 L 0.5652 0.8360999 L 0.60859996 0.8360999 L 0.60859996 0.8524999 L 0.65199995 0.8524999 L 0.65199995 0.8360999 L 0.69539994 0.8360999 L 0.69539994 0.81969994 L 0.7387999 0.81969994 L 0.7387999 0.80329996 L 0.69539994 0.80329996 L 0.69539994 0.7869 L 0.65199995 0.7869 L 0.65199995 0.7705 L 0.60859996 0.7705 Z M 0.8694999 0.7705 L 0.8694999 0.7869 L 0.8256999 0.7869 L 0.8256999 0.80329996 L 0.78229994 0.80329996 L 0.78229994 0.81969994 L 0.8256999 0.81969994 L 0.8256999 0.8360999 L 0.8694999 0.8360999 L 0.8694999 0.8524999 L 0.9128999 0.8524999 L 0.9128999 0.8360999 L 0.9562999 0.8360999 L 0.9562999 0.81969994 L 0.9996999 0.81969994 L 0.9996999 0.80329996 L 0.9562999 0.80329996 L 0.9562999 0.7869 L 0.9128999 0.7869 L 0.9128999 0.7705 L 0.8694999 0.7705 Z M 0.0866999 0.8033 L 0.13009991 0.8033 L 0.13009991 0.8197 L 0.0866999 0.8197 L 0.0866999 0.8033 Z M 0.3475999 0.8033 L 0.39099988 0.8033 L 0.39099988 0.8197 L 0.3475999 0.8197 L 0.3475999 0.8033 Z M 0.6084999 0.8033 L 0.6518999 0.8033 L 0.6518999 0.8197 L 0.6084999 0.8197 L 0.6084999 0.8033 Z M 0.8693999 0.8033 L 0.9127999 0.8033 L 0.9127999 0.8197 L 0.8693999 0.8197 L 0.8693999 0.8033 Z M 0.21719992 0.83610004 L 0.21719992 0.8525 L 0.17379992 0.8525 L 0.17379992 0.8689 L 0.12999992 0.8689 L 0.12999992 0.8854 L 0.086599916 0.8854 L 0.086599916 0.9018 L 0.043199915 0.9018 L 0.043199915 0.91819996 L -2.0008534E-4 0.91819996 L -2.0008534E-4 0.93459994 L 0.043199915 0.93459994 L 0.043199915 0.9509999 L 0.086599916 0.9509999 L 0.086599916 0.9673999 L 0.12999992 0.9673999 L 0.12999992 0.9837999 L 0.17379992 0.9837999 L 0.17379992 1.0001999 L 0.30409992 1.0001999 L 0.30409992 0.98379993 L 0.3474999 0.98379993 L 0.3474999 0.96739995 L 0.3908999 0.96739995 L 0.3908999 0.951 L 0.4342999 0.951 L 0.4342999 0.9346 L 0.47769988 0.9346 L 0.47769988 0.9182 L 0.4342999 0.9182 L 0.4342999 0.90180004 L 0.3908999 0.90180004 L 0.3908999 0.88540006 L 0.3474999 0.88540006 L 0.3474999 0.86890006 L 0.30409992 0.86890006 L 0.30409992 0.8525001 L 0.26069993 0.8525001 L 0.26069993 0.8361001 L 0.21729992 0.8361001 Z M 0.7387999 0.83610004 L 0.7387999 0.8525 L 0.69539994 0.8525 L 0.69539994 0.8689 L 0.65199995 0.8689 L 0.65199995 0.8854 L 0.60859996 0.8854 L 0.60859996 0.9018 L 0.5652 0.9018 L 0.5652 0.91819996 L 0.5218 0.91819996 L 0.5218 0.93459994 L 0.5652 0.93459994 L 0.5652 0.9509999 L 0.60859996 0.9509999 L 0.60859996 0.9673999 L 0.65199995 0.9673999 L 0.65199995 0.9837999 L 0.69539994 0.9837999 L 0.69539994 1.0001999 L 0.8256999 1.0001999 L 0.8256999 0.98379993 L 0.8694999 0.98379993 L 0.8694999 0.96739995 L 0.9128999 0.96739995 L 0.9128999 0.951 L 0.9562999 0.951 L 0.9562999 0.9346 L 0.9996999 0.9346 L 0.9996999 0.9182 L 0.9562999 0.9182 L 0.9562999 0.90180004 L 0.9128999 0.90180004 L 0.9128999 0.88540006 L 0.8694999 0.88540006 L 0.8694999 0.86890006 L 0.8256999 0.86890006 L 0.8256999 0.8525001 L 0.78229994 0.8525001 L 0.78229994 0.8361001 L 0.73889995 0.8361001 Z M 0.47789994 0.8525 L 0.47789994 0.88530004 L 0.5041999 0.88530004 L 0.5216999 0.88530004 L 0.5216999 0.8525 L 0.5041999 0.8525 L 0.47799993 0.8525 Z M 0.0 0.8688 L 0.0 0.8853 L 0.0434 0.8853 L 0.0434 0.8688 L 0.0 0.8688 Z M 0.9566 0.8688 L 0.9566 0.8853 L 1.0 0.8853 L 1.0 0.8688 L 0.9566 0.8688 Z M 0.2175 0.8853 L 0.2609 0.8853 L 0.2609 0.90169996 L 0.30429998 0.90169996 L 0.30429998 0.91809994 L 0.34769997 0.91809994 L 0.34769997 0.9344999 L 0.30429998 0.9344999 L 0.30429998 0.9508999 L 0.2609 0.9508999 L 0.2609 0.9672999 L 0.21749999 0.9672999 L 0.21749999 0.9508999 L 0.17409998 0.9508999 L 0.17409998 0.9344999 L 0.13029999 0.9344999 L 0.13029999 0.91809994 L 0.17409998 0.91809994 L 0.17409998 0.90169996 L 0.21749999 0.90169996 L 0.21749999 0.8853 Z M 0.7391 0.8853 L 0.78249997 0.8853 L 0.78249997 0.90169996 L 0.82589996 0.90169996 L 0.82589996 0.91809994 L 0.86969995 0.91809994 L 0.86969995 0.9344999 L 0.82589996 0.9344999 L 0.82589996 0.9508999 L 0.78249997 0.9508999 L 0.78249997 0.9672999 L 0.7391 0.9672999 L 0.7391 0.9508999 L 0.6957 0.9508999 L 0.6957 0.9344999 L 0.6523 0.9344999 L 0.6523 0.91809994 L 0.6957 0.91809994 L 0.6957 0.90169996 L 0.7391 0.90169996 L 0.7391 0.8853 Z M 0.21749997 0.9181 L 0.21749997 0.9345 L 0.26089996 0.9345 L 0.26089996 0.9181 L 0.21749996 0.9181 Z M 0.7391 0.9181 L 0.7391 0.9345 L 0.78249997 0.9345 L 0.78249997 0.9181 L 0.7391 0.9181 Z M 0.0 0.9672 L 0.0 0.98359996 L 0.0434 0.98359996 L 0.0434 0.9672 L 0.0 0.9672 Z M 0.4781 0.9672 L 0.4781 1.0 L 0.5044 1.0 L 0.5219 1.0 L 0.5219 0.9672 L 0.5044 0.9672 L 0.47820002 0.9672 Z M 0.9565 0.9672 L 0.9565 0.98359996 L 0.9999 0.98359996 L 0.9999 0.9672 L 0.9565 0.9672 Z"/>
</defs>
<g>
<g>
<rect x="0" y="0" width="540" height="240" class="red"/>
<rect x="0" y="240" width="540" height="120" class="green"/>
</g>
<g>
<rect x="0" y="0" width="80" height="360" class="white"/>
</g>
<use xlink:href="#ornament" transform="translate(0 0) scale(80 360) rotate(0)" class="red"/>
</g>
</svg>
