<?xml version="1.0"?>
<svg xmlns="http://www.w3.org/2000/svg" xmlns:xlink="http://www.w3.org/1999/xlink" version="1.1" width="540" height="360" viewBox="0 0 540 360">
<!-- Generated by Kreative Vexillo v1.0 -->
<style>
.blue{fill:rgb(0,56,101);}
.red{fill:rgb(186,12,47);}
.white{fill:rgb(255,255,255);}
.yellow{fill:rgb(255,164,0);}
</style>
<defs>
<clipPath id="clip0">
<path d="M 233.8269 15 L 522.5 15 L 233.8269 145.359 Z"/>
</clipPath>
<clipPath id="clip1">
<path d="M 233.8269 345 L 522.5 345 L 233.8269 214.641 Z"/>
</clipPath>
<clipPath id="clip2">
<path d="M 233.8269 164.604 L 445 164.604 L 495 180 L 445 195.396 L 233.8269 195.396 L 253.8269 180 Z"/>
</clipPath>
</defs>
<g>
<rect x="0" y="0" width="540" height="360" class="white"/>
<rect x="20" y="15" width="188.8269" height="330" class="blue"/>
<path d="M 8.1333 -10.5654 L 8.1333 -10.5654 L 241.9601 169.4346 L 225.6936 190.5654 L -8.1333 10.5654 Z" class="white"/>
<path d="M -8.1333 349.4346 L -8.1333 349.4346 L 225.6936 169.4346 L 241.9601 190.5654 L 8.1333 370.5654 Z" class="white"/>
<path d="M 0 166.6667 L 0 166.6667 L 233.8269 166.6667 L 233.8269 193.3333 L 0 193.3333 Z" class="white"/>
<g clip-path="url(#clip0)">
<path d="M 233.8269 0 L 233.8269 0 L 522.5 0 L 522.5 30 L 233.8269 30 Z" class="red"/>
<path d="M 528.6734 28.6707 L 528.6734 28.6707 L 240.0003 159.0297 L 227.6534 131.6883 L 516.3266 1.3293 Z" class="red"/>
<path d="M 218.8269 145.359 L 218.8269 145.359 L 218.8269 15 L 248.8269 15 L 248.8269 145.359 Z" class="red"/>
</g>
<g clip-path="url(#clip1)">
<path d="M 233.8269 330 L 233.8269 330 L 522.5 330 L 522.5 360 L 233.8269 360 Z" class="red"/>
<path d="M 516.3266 358.6707 L 516.3266 358.6707 L 227.6534 228.3117 L 240.0003 200.9703 L 528.6734 331.3293 Z" class="red"/>
<path d="M 248.8269 214.641 L 248.8269 214.641 L 248.8269 345 L 218.8269 345 L 218.8269 214.641 Z" class="red"/>
</g>
<path d="M 233.8269 164.604 L 445 164.604 L 495 180 L 445 195.396 L 233.8269 195.396 L 253.8269 180 Z" class="yellow"/>
<g clip-path="url(#clip2)">
<path d="M 233.8269 157.9373 L 233.8269 157.9373 L 445 157.9373 L 445 171.2707 L 233.8269 171.2707 Z" class="red"/>
<path d="M 446.9619 158.2325 L 446.9619 158.2325 L 496.9619 173.6285 L 493.0381 186.3715 L 443.0381 170.9754 Z" class="red"/>
<path d="M 496.9619 186.3715 L 496.9619 186.3715 L 446.9619 201.7675 L 443.0381 189.0246 L 493.0381 173.6285 Z" class="red"/>
<path d="M 445 202.0627 L 445 202.0627 L 233.8269 202.0627 L 233.8269 188.7293 L 445 188.7293 Z" class="red"/>
<path d="M 233.8269 164.604 L 244.7559 164.604 L 264.7559 180 L 244.7559 195.396 L 233.8269 195.396 Z" class="red"/>
</g>
</g>
</svg>
