<?xml version="1.0"?>
<svg xmlns="http://www.w3.org/2000/svg" xmlns:xlink="http://www.w3.org/1999/xlink" version="1.1" width="540" height="360" viewBox="0 0 540 360">
<!-- Generated by Kreative Vexillo v1.0 -->
<style>
.black{fill:rgb(0,0,0);}
.red{fill:rgb(232,66,63);}
.white{fill:rgb(255,255,255);}
.yellow{fill:rgb(255,215,48);}
</style>
<defs>
<path id="e1" d="M -0.3703 -0.4599 C -0.3693 -0.4655 -0.3648 -0.4659 -0.3629 -0.46629998 C -0.36229998 -0.46639997 -0.3017 -0.47629997 -0.2643 -0.3798 C -0.22689998 -0.28329998 -0.20279999 -0.2729 -0.20279999 -0.2729 S -0.2523 -0.2595 -0.2215 -0.19999999 C -0.2341 -0.20319998 -0.2943 -0.2304 -0.3123 -0.34139997 C -0.3285 -0.44139996 -0.364 -0.45069999 -0.3655 -0.45129997 C -0.3669 -0.4518 -0.3714 -0.4542 -0.3703 -0.4599 Z M 0.2229 -0.1999 C 0.23550001 -0.2031 0.2957 -0.23030001 0.31370002 -0.3413 C 0.32990003 -0.4413 0.36550003 -0.45060003 0.36690003 -0.4512 C 0.36830002 -0.45180002 0.37270004 -0.4542 0.37170002 -0.4598 C 0.37070003 -0.4654 0.36620003 -0.46580002 0.3643 -0.4662 C 0.3637 -0.46629998 0.3032 -0.47619998 0.2657 -0.3797 L 0.20420001 -0.2728 C 0.2041 -0.2728 0.2536 -0.2594 0.2229 -0.1999 Z M 0.2283 -0.1867 C 0.2283 -0.1867 0.2515 -0.1426 0.238 -0.0787 C 0.2398 -0.0757 0.2655 -0.0533 0.3115 -0.0681 C 0.35750002 -0.0828 0.3599 -0.13589999 0.4 -0.1489 C 0.3746 -0.1915 0.3174 -0.2457 0.2283 -0.1867 Z M -0.2271 -0.1885 C -0.31620002 -0.2475 -0.3734 -0.1932 -0.39880002 -0.1507 C -0.3587 -0.1377 -0.35630003 -0.0846 -0.31030002 -0.069900006 C -0.26430002 -0.055200007 -0.23860002 -0.0776 -0.23680001 -0.08050001 C -0.2503 -0.1444 -0.2271 -0.1885 -0.2271 -0.1885 Z M -0.1252 0.191 C -0.116100006 0.1913 -0.0898 0.1699 -0.0864 0.1605 C -0.0796 0.1421 -0.0756 0.117300004 -0.0756 0.117300004 L -0.0761 -0.07179999 L -0.2239 -0.1724 C -0.2239 -0.1724 -0.2612 -0.0933 -0.18270001 0.026999995 C -0.2097 0.06629999 -0.16700001 0.10169999 -0.16160001 0.111499995 C -0.1504 0.1318 -0.1305 0.1909 -0.1252 0.191 Z M -0.0905 0.3245 C -0.0905 0.3245 -0.0919 0.3566 -0.0726 0.3566 H 0.0667 C 0.0919 0.3566 0.0887 0.3245 0.0887 0.3245 H -0.0905 Z M 0.2243 -0.1724 L 0.0765 -0.0718 L 0.076 0.1173 C 0.076 0.1173 0.08 0.14209999 0.086799994 0.16049999 C 0.090299994 0.16979998 0.11649999 0.19119999 0.1256 0.19099998 C 0.1309 0.19079998 0.15079999 0.13169998 0.162 0.111399986 C 0.1674 0.101599984 0.2101 0.06619999 0.1831 0.026899986 C 0.2617 -0.0934 0.2243 -0.1724 0.2243 -0.1724 Z M 0.1521 0.2661 C 0.1477 0.2835 0.14199999 0.295 0.1366 0.30269998 C 0.1399 0.31419998 0.1417 0.3261 0.1417 0.33839998 C 0.1417 0.41269997 0.0778 0.47309998 -6.9999695E-4 0.47309998 C -0.0792 0.47309998 -0.1431 0.41269997 -0.1431 0.33839998 C -0.1431 0.32549998 -0.14119999 0.3128 -0.13749999 0.30079997 C -0.14249998 0.29319996 -0.1476 0.28209996 -0.15169999 0.26619998 C -0.16409999 0.21799998 -0.15169999 0.20979998 -0.14099999 0.20579997 C -0.13889998 0.20499997 -0.121099986 0.20699997 -0.093799986 0.18079996 C -0.08689999 0.17429996 -0.07539999 0.15989996 -0.07469998 0.15719996 C -0.06919998 0.13639997 -0.067299984 0.11379996 -0.067799985 0.07819996 C -0.06839999 0.03689996 -0.06799999 -0.076400034 -0.06799999 -0.076400034 L -0.22219999 -0.18330003 C -0.22219999 -0.18330003 -0.21769999 -0.19280003 -0.20989999 -0.20000003 C -0.2109 -0.20130004 -0.2119 -0.20260003 -0.21299998 -0.20410003 C -0.24219999 -0.24540003 -0.21039999 -0.263 -0.19419998 -0.26750004 C -0.19529998 -0.27110004 -0.19599998 -0.27500004 -0.19599998 -0.27910003 C -0.19599998 -0.29990003 -0.17899998 -0.31680003 -0.15799998 -0.31680003 C -0.15299998 -0.31680003 -0.14819998 -0.31580004 -0.14379998 -0.31400004 C -0.13889998 -0.32920003 -0.12459998 -0.34030005 -0.10759997 -0.34030005 C -0.099299975 -0.34030005 -0.09159997 -0.33760005 -0.085299976 -0.33300006 C -0.07849997 -0.34320006 -0.06689998 -0.35000005 -0.053599976 -0.35000005 C -0.046799976 -0.35000005 -0.040399976 -0.34820005 -0.034799978 -0.34500006 C -0.024099978 -0.33890006 0.0010000207 -0.34960005 0.0010000207 -0.34960005 S 0.021400021 -0.33680004 0.02960002 -0.34280005 C 0.03590002 -0.34730005 0.043600023 -0.35000005 0.05190002 -0.35000005 C 0.06550002 -0.35000005 0.07740002 -0.34290007 0.08410002 -0.33220005 C 0.09060002 -0.33700004 0.09860002 -0.33990005 0.10730002 -0.33990005 C 0.12450002 -0.33990005 0.13900003 -0.32900006 0.14400002 -0.31390005 C 0.14830002 -0.31550005 0.15290003 -0.31640005 0.15770002 -0.31640005 C 0.17900002 -0.31640005 0.19630001 -0.29950005 0.19630001 -0.27860004 C 0.19630001 -0.27460003 0.19570002 -0.27080002 0.19450001 -0.26720002 C 0.21090001 -0.26240003 0.24220002 -0.24520002 0.21360001 -0.20470002 C 0.2125 -0.20310003 0.21130002 -0.20160003 0.21020001 -0.20010002 C 0.21810001 -0.19290002 0.22270001 -0.18320002 0.22270001 -0.18320002 L 0.0685 -0.0764 C 0.0685 -0.0764 0.0689 0.036800005 0.068299994 0.0782 C 0.06779999 0.1137 0.069699995 0.1363 0.07519999 0.15720001 C 0.07589999 0.15990001 0.08749999 0.17430001 0.09429999 0.1808 C 0.12159999 0.207 0.13939999 0.20500001 0.1415 0.20580001 C 0.1521 0.2097 0.1645 0.218 0.1521 0.2661 Z M 0.1007 0.3384 C 0.1007 0.3314 0.0998 0.3245 0.0982 0.3177 H -0.0995 C -0.1012 0.3244 -0.102 0.3314 -0.102 0.3384 C -0.102 0.3901 -0.0565 0.4322 -5.9999526E-4 0.4322 C 0.0552 0.4321 0.1007 0.3901 0.1007 0.3384 Z"/>
<path id="e2" d="M -0.0905 0.3177 H 0.0885 V 0.3245 H -0.0905 C -0.0905 0.3245 -0.0905 0.32549998 -0.0905 0.3271 H -0.0905 V 0.3177 Z M -0.0823 0.2315 C -0.0763 0.2336 -0.0732 0.24340001 -0.0721 0.24689999 C -0.0705 0.2518 -0.0694 0.2555 -0.0687 0.2584 L -0.0643 0.2671 C -0.062200002 0.2712 -0.0634 0.2759 -0.0668 0.27760002 L -0.075399995 0.28190002 C -0.07619999 0.28230003 -0.077099994 0.28250003 -0.078099996 0.28250003 C -0.0792 0.28250003 -0.080299996 0.28220004 -0.0813 0.28170002 C -0.082899995 0.28370002 -0.0845 0.28570002 -0.0859 0.28770003 C -0.0835 0.28920004 -0.0809 0.29000002 -0.0781 0.29000002 C -0.076000005 0.29000002 -0.07390001 0.28950003 -0.072000004 0.28860003 L -0.0634 0.28430003 C -0.0563 0.28070003 -0.0537 0.27150002 -0.0576 0.26370004 L -0.0748 0.22940004 C -0.0776 0.22390004 -0.0831 0.22030003 -0.0888 0.22030003 C -0.0909 0.22030003 -0.092999995 0.22080003 -0.094799995 0.22170003 L -0.10339999 0.22600003 C -0.106599994 0.22760002 -0.10909999 0.23050003 -0.11029999 0.23410003 C -0.11159999 0.23810002 -0.11129999 0.24270003 -0.10929999 0.24670003 L -0.107799985 0.24970004 C -0.105999984 0.24780004 -0.10409998 0.24590003 -0.10219999 0.24400003 L -0.102599986 0.24330004 C -0.10369998 0.24110004 -0.103899986 0.23860003 -0.10319999 0.23650004 C -0.10279999 0.23530003 -0.10199999 0.23370004 -0.10009999 0.23280004 L -0.091499984 0.22850004 C -0.090699986 0.22810003 -0.089799985 0.22790004 -0.08879998 0.22790004 C -0.0864 0.2278 -0.0839 0.2292 -0.0823 0.2315 Z M -0.0896 -0.072 L -0.1003 -0.0795 C -0.1056 -0.0752 -0.1125 -0.0725 -0.1201 -0.0725 C -0.1369 -0.0725 -0.1505 -0.0853 -0.1505 -0.1012 C -0.1505 -0.1053 -0.1495 -0.1091 -0.1479 -0.1126 L -0.1586 -0.12 C -0.1617 -0.1143 -0.1636 -0.10789999 -0.1636 -0.1011 C -0.1636 -0.078499995 -0.1441 -0.0602 -0.1201 -0.0602 C -0.1083 -0.0602 -0.0975 -0.0647 -0.0896 -0.072 Z M 0.1473 -0.1126 C 0.149 -0.1091 0.1499 -0.1052 0.1499 -0.1011 C 0.1499 -0.0852 0.1363 -0.072399996 0.119500004 -0.072399996 C 0.1119 -0.072399996 0.105000004 -0.0751 0.099700004 -0.079399996 L 0.089 -0.071899995 C 0.0968 -0.0646 0.107700005 -0.060099997 0.119500004 -0.060099997 C 0.1435 -0.060099997 0.163 -0.0784 0.163 -0.100999996 C 0.163 -0.1078 0.1612 -0.114199996 0.158 -0.119899996 L 0.1473 -0.1126 Z M 0.3916 -0.1547 C 0.3901 -0.1555 0.354 -0.1734 0.3327 -0.1734 C 0.31950003 -0.1734 0.29810002 -0.1632 0.2809 -0.155 C 0.2721 -0.1508 0.2611 -0.1456 0.2586 -0.14570001 C 0.2503 -0.1463 0.2422 -0.1463 0.2418 -0.1463 C 0.2412 -0.1463 0.24059999 -0.1461 0.2401 -0.1459 C 0.23619999 -0.1715 0.22819999 -0.1868 0.22819999 -0.1868 C 0.22889999 -0.18720001 0.2295 -0.1876 0.2302 -0.18810001 C 0.22809999 -0.19250001 0.22549999 -0.1965 0.2227 -0.2001 C 0.2308 -0.21100001 0.233 -0.2263 0.233 -0.23650001 C 0.233 -0.24040002 0.2323 -0.2442 0.2311 -0.24780001 C 0.2305 -0.2495 0.22979999 -0.25100002 0.22899999 -0.2525 C 0.22109999 -0.2683 0.20409998 -0.2729 0.20409998 -0.2729 L 0.20479998 -0.2742 C 0.20469998 -0.2742 0.20459998 -0.27429998 0.20449997 -0.27429998 C 0.20199998 -0.27529997 0.19909997 -0.27449998 0.19759998 -0.2724 L 0.19569997 -0.2724 C 0.19539997 -0.27069998 0.19499998 -0.269 0.19449997 -0.2674 C 0.19529997 -0.2672 0.19609997 -0.2669 0.19689997 -0.26659998 L 0.19689997 -0.26659998 C 0.19739996 -0.26639998 0.19789997 -0.26619998 0.19849996 -0.26599997 C 0.19849996 -0.26599997 0.19849996 -0.26599997 0.19859996 -0.26599997 C 0.19909996 -0.26579997 0.19959997 -0.26559997 0.20019996 -0.26539996 C 0.20029996 -0.26539996 0.20029996 -0.26539996 0.20039997 -0.26529998 C 0.20089996 -0.26509997 0.20139997 -0.26489997 0.20189996 -0.26469997 C 0.20199996 -0.26469997 0.20209996 -0.26459998 0.20219997 -0.26459998 C 0.20269996 -0.26439998 0.20319997 -0.26419997 0.20359996 -0.26389998 C 0.20369996 -0.2638 0.20379996 -0.2638 0.20389996 -0.26369998 C 0.20439996 -0.26349998 0.20479997 -0.26319999 0.20529996 -0.26299998 C 0.20539996 -0.2629 0.20559996 -0.2629 0.20569997 -0.26279998 C 0.20609997 -0.26259997 0.20659997 -0.26229998 0.20699997 -0.26209998 C 0.20719998 -0.262 0.20729998 -0.26189998 0.20749997 -0.2618 C 0.20789997 -0.2616 0.20829996 -0.2613 0.20879997 -0.26099998 C 0.20899998 -0.2609 0.20909998 -0.26079997 0.20929997 -0.2607 C 0.20969997 -0.2604 0.21009997 -0.2602 0.21049997 -0.25989997 C 0.21069998 -0.2598 0.21089998 -0.25959998 0.21099997 -0.25949997 C 0.21139997 -0.25919998 0.21179996 -0.25899997 0.21209997 -0.25869995 C 0.21229997 -0.25859997 0.21249998 -0.25839996 0.21269996 -0.25829995 C 0.21309997 -0.25799996 0.21339996 -0.25769994 0.21379997 -0.25739995 C 0.21399997 -0.25719994 0.21419998 -0.25709996 0.21439996 -0.25689995 C 0.21489996 -0.25649995 0.21539997 -0.25599995 0.21589996 -0.25549996 C 0.21619996 -0.25519997 0.21659996 -0.25489995 0.21689996 -0.25459996 C 0.21709996 -0.25439996 0.21729997 -0.25419995 0.21749996 -0.25399995 C 0.21779996 -0.25369996 0.21809995 -0.25339994 0.21839996 -0.25299996 C 0.21859996 -0.25279996 0.21879996 -0.25259995 0.21889995 -0.25229996 C 0.21919996 -0.25199997 0.21939994 -0.25159997 0.21969995 -0.25129998 C 0.21989995 -0.25109997 0.21999995 -0.25079998 0.22019994 -0.25059998 C 0.22039995 -0.25019997 0.22069994 -0.24989998 0.22089994 -0.24949998 C 0.22109994 -0.24929997 0.22119994 -0.24899998 0.22139993 -0.24869998 C 0.22159994 -0.24829997 0.22179994 -0.24799998 0.22199993 -0.24759997 C 0.22209993 -0.24729997 0.22229993 -0.24709998 0.22239994 -0.24679998 C 0.22259994 -0.24639997 0.22279994 -0.24599998 0.22299993 -0.24559997 C 0.22309993 -0.24529997 0.22319993 -0.24499997 0.22339994 -0.24469997 C 0.22359994 -0.24429996 0.22369994 -0.24389997 0.22389993 -0.24349996 C 0.22399993 -0.24319996 0.22409993 -0.24289997 0.22419994 -0.24259996 C 0.22429994 -0.24219996 0.22449994 -0.24179997 0.22459994 -0.24129996 C 0.22469994 -0.24099995 0.22469994 -0.24069996 0.22479995 -0.24029996 C 0.22489995 -0.23989995 0.22499995 -0.23939995 0.22509995 -0.23899995 C 0.22519995 -0.23869994 0.22519995 -0.23829995 0.22519995 -0.23799995 C 0.22529995 -0.23749995 0.22529995 -0.23709995 0.22529995 -0.23659995 C 0.22529995 -0.23619995 0.22529995 -0.23589996 0.22539996 -0.23549995 C 0.22539996 -0.23499995 0.22539996 -0.23449995 0.22539996 -0.23409995 C 0.22539996 -0.23369995 0.22539996 -0.23339996 0.22539996 -0.23299995 C 0.22539996 -0.23249996 0.22529995 -0.23199995 0.22529995 -0.23149996 C 0.22529995 -0.23109995 0.22519995 -0.23069996 0.22519995 -0.23029995 C 0.22509995 -0.22979996 0.22509995 -0.22929995 0.22499995 -0.22869995 C 0.22489995 -0.22829995 0.22489995 -0.22789995 0.22479995 -0.22749995 C 0.22469994 -0.22699995 0.22459994 -0.22639994 0.22439994 -0.22589995 C 0.22429994 -0.22549994 0.22419994 -0.22509995 0.22409993 -0.22459994 C 0.22389993 -0.22399995 0.22379993 -0.22349994 0.22359994 -0.22289994 C 0.22349994 -0.22249994 0.22329994 -0.22199994 0.22319993 -0.22159994 C 0.22299993 -0.22099994 0.22269994 -0.22039993 0.22249994 -0.21979994 C 0.22229993 -0.21939993 0.22219993 -0.21889994 0.22199994 -0.21849993 C 0.22169994 -0.21789993 0.22139995 -0.21719992 0.22109994 -0.21659993 C 0.22089994 -0.21609993 0.22069994 -0.21569993 0.22049995 -0.21519993 C 0.22019994 -0.21449994 0.21979995 -0.21379994 0.21939994 -0.21309993 C 0.21919994 -0.21269992 0.21889995 -0.21219993 0.21869995 -0.21179992 C 0.21829994 -0.21099992 0.21779995 -0.21019992 0.21729995 -0.20939992 C 0.21709995 -0.20899992 0.21689995 -0.20859993 0.21659996 -0.20819992 C 0.21579996 -0.20699991 0.21499996 -0.20579992 0.21419996 -0.20459992 C 0.21349996 -0.20359991 0.21279997 -0.20269991 0.21209995 -0.20169991 C 0.21169995 -0.20109992 0.21119995 -0.20059991 0.21079995 -0.19999991 C 0.18249995 -0.16479991 0.15169995 -0.18389991 0.15169995 -0.18389991 S 0.14639995 -0.18669991 0.14239995 -0.17899992 C 0.13829996 -0.17129992 0.13509995 -0.16719991 0.12699994 -0.16359991 C 0.11889994 -0.1599999 0.09899995 -0.1704999 0.09249994 -0.1684999 C 0.08599994 -0.1664999 0.07669994 -0.1526999 0.068999946 -0.1518999 C 0.061299946 -0.1510999 0.047499947 -0.1603999 0.037299946 -0.1595999 C 0.027099945 -0.1587999 0.037799947 -0.1510999 0.0012999475 -0.1506999 C -0.035300054 -0.1510999 -0.026300052 -0.1587999 -0.036400054 -0.1595999 C -0.046500053 -0.1603999 -0.060400054 -0.1510999 -0.06810005 -0.1518999 C -0.07580005 -0.1526999 -0.08520005 -0.1664999 -0.09170005 -0.1684999 C -0.098200046 -0.1704999 -0.11810005 -0.1599999 -0.12620005 -0.16359991 C -0.13430005 -0.16729991 -0.13760005 -0.1712999 -0.14160004 -0.1789999 C -0.14570004 -0.1866999 -0.15100004 -0.1838999 -0.15100004 -0.1838999 S -0.18080004 -0.1639999 -0.20920004 -0.1998999 L -0.20920004 -0.1998999 C -0.20950004 -0.2001999 -0.20970003 -0.2005999 -0.21000004 -0.2008999 C -0.21080004 -0.2018999 -0.21150003 -0.2028999 -0.21230003 -0.2038999 C -0.21320003 -0.20519991 -0.21400003 -0.2063999 -0.21480003 -0.20769991 C -0.21510004 -0.20809992 -0.21530002 -0.20849991 -0.21550003 -0.20889992 C -0.21600002 -0.20969991 -0.21650003 -0.21059991 -0.21700002 -0.21139991 C -0.21730003 -0.2118999 -0.21750002 -0.21229991 -0.21770002 -0.2127999 C -0.21810003 -0.2134999 -0.21850002 -0.2141999 -0.21880002 -0.21489991 C -0.21900003 -0.2153999 -0.21920003 -0.21579991 -0.21940002 -0.2162999 C -0.21970002 -0.2169999 -0.22000001 -0.21759991 -0.22030002 -0.21829991 C -0.22050002 -0.2187999 -0.22060002 -0.21919991 -0.22080001 -0.21959992 C -0.22110002 -0.22019991 -0.2213 -0.22089992 -0.22150001 -0.22149992 C -0.22170001 -0.22189993 -0.22180001 -0.22239992 -0.22190002 -0.22279993 C -0.22210002 -0.22339992 -0.22230002 -0.22399993 -0.22250001 -0.22459993 C -0.22260001 -0.22499993 -0.22270001 -0.22539993 -0.22280002 -0.22579993 C -0.22290002 -0.22639993 -0.22310002 -0.22699994 -0.22320002 -0.22749993 C -0.22330002 -0.22789994 -0.22330002 -0.22829993 -0.22340003 -0.22869994 C -0.22350003 -0.22929993 -0.22360003 -0.22979994 -0.22370003 -0.23039994 C -0.22370003 -0.23079994 -0.22380003 -0.23119994 -0.22380003 -0.23149994 C -0.22380003 -0.23199993 -0.22390004 -0.23259994 -0.22390004 -0.23309994 C -0.22390004 -0.23349994 -0.22390004 -0.23379993 -0.22390004 -0.23419994 C -0.22390004 -0.23469993 -0.22390004 -0.23519994 -0.22390004 -0.23569994 C -0.22390004 -0.23609994 -0.22380003 -0.23639993 -0.22380003 -0.23669994 C -0.22380003 -0.23719993 -0.22370003 -0.23769994 -0.22370003 -0.23819993 C -0.22370003 -0.23849994 -0.22360003 -0.23889993 -0.22350003 -0.23919994 C -0.22340003 -0.23969993 -0.22330002 -0.24009994 -0.22320002 -0.24059993 C -0.22310002 -0.24089994 -0.22300002 -0.24119993 -0.22300002 -0.24159993 C -0.22290002 -0.24199994 -0.22280002 -0.24249993 -0.22260001 -0.24289994 C -0.22250001 -0.24319994 -0.22240001 -0.24349993 -0.22230001 -0.24379994 C -0.2222 -0.24419995 -0.222 -0.24459994 -0.22180001 -0.24509995 C -0.22170001 -0.24539995 -0.22150001 -0.24569994 -0.22140001 -0.24599995 C -0.2212 -0.24639995 -0.221 -0.24679995 -0.22080001 -0.24719995 C -0.22070001 -0.24749996 -0.2205 -0.24779995 -0.22030002 -0.24799995 C -0.22010002 -0.24839996 -0.21990001 -0.24869995 -0.21970002 -0.24909995 C -0.21950002 -0.24939996 -0.21940002 -0.24959995 -0.21920003 -0.24989995 C -0.21900003 -0.25019994 -0.21870004 -0.25059995 -0.21850003 -0.25089994 C -0.21830003 -0.25119993 -0.21810003 -0.25139993 -0.21790004 -0.25169995 C -0.21770003 -0.25199994 -0.21740004 -0.25229996 -0.21720004 -0.25259995 C -0.21700004 -0.25289994 -0.21680003 -0.25309995 -0.21650004 -0.25339997 C -0.21620004 -0.25369996 -0.21600005 -0.25399998 -0.21570005 -0.25429997 C -0.21550004 -0.25449997 -0.21520005 -0.25479996 -0.21500005 -0.25499997 C -0.21470004 -0.25529996 -0.21450005 -0.25549996 -0.21420005 -0.25579998 C -0.21390004 -0.25599998 -0.21370006 -0.25629997 -0.21340005 -0.25649998 C -0.21310005 -0.25669998 -0.21290006 -0.25699997 -0.21260005 -0.25719997 C -0.21230005 -0.25739998 -0.21200006 -0.25769997 -0.21180005 -0.25789997 C -0.21150005 -0.25809997 -0.21130006 -0.25829998 -0.21100006 -0.25849998 C -0.21070005 -0.25869998 -0.21040006 -0.25899997 -0.21010005 -0.25919998 C -0.20980005 -0.25939998 -0.20960006 -0.25959998 -0.20930006 -0.2598 C -0.20900005 -0.26 -0.20860006 -0.2602 -0.20830005 -0.26049998 C -0.20800005 -0.2607 -0.20780006 -0.26079997 -0.20750006 -0.26099998 C -0.20710005 -0.26119998 -0.20680006 -0.26139998 -0.20640005 -0.2616 C -0.20620005 -0.26169997 -0.20590006 -0.26189998 -0.20570005 -0.262 C -0.20530005 -0.2622 -0.20490006 -0.2624 -0.20460005 -0.2626 C -0.20440005 -0.2627 -0.20420004 -0.2628 -0.20400006 -0.2629 C -0.20360005 -0.2631 -0.20320006 -0.2633 -0.20280005 -0.2635 C -0.20260005 -0.2636 -0.20240004 -0.2637 -0.20220006 -0.2638 C -0.20180005 -0.264 -0.20140006 -0.2642 -0.20090005 -0.2644 C -0.20070004 -0.2645 -0.20060004 -0.2645 -0.20040005 -0.2646 C -0.20000005 -0.2648 -0.19950005 -0.26500002 -0.19910005 -0.26520002 C -0.19900005 -0.26520002 -0.19890004 -0.2653 -0.19870004 -0.2653 C -0.19820005 -0.2655 -0.19780004 -0.2657 -0.19730005 -0.2658 C -0.19720004 -0.2658 -0.19710004 -0.2659 -0.19700004 -0.2659 C -0.19650005 -0.2661 -0.19600004 -0.26619998 -0.19560005 -0.26639998 C -0.19560005 -0.26639998 -0.19550005 -0.26639998 -0.19550005 -0.26639998 C -0.19500005 -0.26659998 -0.19450004 -0.26669997 -0.19400005 -0.26689997 C -0.19370005 -0.26699996 -0.19340006 -0.26709998 -0.19300005 -0.26719996 C -0.19350004 -0.26889998 -0.19390005 -0.27059996 -0.19420005 -0.27229998 L -0.19520006 -0.27229998 C -0.19680005 -0.27409998 -0.19940005 -0.2749 -0.20180005 -0.27389997 C -0.20220006 -0.27369997 -0.20270005 -0.27349997 -0.20310006 -0.27329996 C -0.20220006 -0.27269995 -0.20170006 -0.27249995 -0.20170006 -0.27249995 S -0.20190006 -0.27239996 -0.20230006 -0.27229995 L -0.20310006 -0.27229995 C -0.21710005 -0.26689994 -0.22670005 -0.25819993 -0.23050006 -0.24749994 C -0.23180006 -0.24379994 -0.23240006 -0.23999995 -0.23240006 -0.23599994 C -0.23240006 -0.22569995 -0.22880006 -0.21189994 -0.22010006 -0.19939995 C -0.22270006 -0.19619995 -0.22500005 -0.19259995 -0.22690006 -0.18869995 C -0.22660005 -0.18849994 -0.22630006 -0.18829994 -0.22600006 -0.18809995 C -0.22600006 -0.18809995 -0.23400006 -0.17279994 -0.23790005 -0.14719996 C -0.23840004 -0.14749996 -0.23900005 -0.14759997 -0.23960005 -0.14759997 C -0.23990005 -0.14759997 -0.24810004 -0.14759997 -0.25640005 -0.14699997 C -0.25640005 -0.14699997 -0.25640005 -0.14699997 -0.25650004 -0.14699997 C -0.25910005 -0.14699997 -0.27000004 -0.15219997 -0.27870002 -0.15629996 C -0.29590002 -0.16449997 -0.31740004 -0.17469996 -0.33050004 -0.17469996 C -0.35180002 -0.17469996 -0.38790002 -0.15679996 -0.38940004 -0.15599996 C -0.39130002 -0.15509996 -0.39200005 -0.15279996 -0.39110005 -0.15089996 C -0.39020005 -0.14899996 -0.38790005 -0.14829996 -0.38600004 -0.14919996 C -0.38560003 -0.14939997 -0.35000002 -0.16709997 -0.33040005 -0.16709997 C -0.31890005 -0.16709997 -0.29750004 -0.15689997 -0.28180006 -0.14939997 C -0.26810005 -0.14289996 -0.26050007 -0.13939996 -0.25630006 -0.13939996 C -0.25610006 -0.13939996 -0.25600007 -0.13939996 -0.25580007 -0.13939996 C -0.24780007 -0.13999996 -0.23960006 -0.13999996 -0.23950008 -0.13999996 C -0.23920007 -0.13999996 -0.23900008 -0.13999996 -0.23870008 -0.14009996 C -0.24050008 -0.12339996 -0.24040008 -0.102999955 -0.23560008 -0.080099955 C -0.23570009 -0.07989995 -0.23600009 -0.07949995 -0.23640008 -0.07909995 C -0.23630008 -0.07849995 -0.23620008 -0.077899955 -0.23610008 -0.077399954 C -0.23560008 -0.07449996 -0.23310007 -0.07249995 -0.23030008 -0.07249995 C -0.23000008 -0.07249995 -0.22970009 -0.07249995 -0.22930008 -0.072599955 C -0.22810008 -0.07279996 -0.22710007 -0.07329995 -0.22630008 -0.07409996 C -0.24000007 -0.13539995 -0.22270007 -0.17209995 -0.22270007 -0.17209995 L -0.0761 -0.0718 L -0.0756 0.1173 C -0.0756 0.1173 -0.0796 0.14209999 -0.0864 0.16049999 C -0.0898 0.16979998 -0.1159 0.19099998 -0.1251 0.19099998 C -0.1258 0.19229999 -0.1259 0.19389999 -0.12550001 0.19539998 C -0.12470001 0.19789998 -0.12240001 0.19949998 -0.11990001 0.19949998 C -0.11970001 0.19949998 -0.11950001 0.19949998 -0.11930001 0.19949998 C -0.11220001 0.19589998 -0.10360001 0.19019999 -0.09380001 0.18069997 C -0.08690001 0.17419997 -0.07540001 0.15979998 -0.07470001 0.15709998 C -0.06920001 0.13629998 -0.067300014 0.11369997 -0.067800015 0.07809997 C -0.06840002 0.036799975 -0.06800002 -0.07650002 -0.06800002 -0.07650002 L -0.22220002 -0.18340002 C -0.22220002 -0.18340002 -0.22000003 -0.18800002 -0.21610002 -0.19320002 C -0.19200002 -0.16440003 -0.16390002 -0.16840002 -0.15010002 -0.17470002 C -0.15010002 -0.17470002 -0.15010002 -0.17470002 -0.15010002 -0.17460002 C -0.14540002 -0.16570002 -0.14090002 -0.16000003 -0.13060002 -0.15530002 C -0.12320002 -0.15200002 -0.11370002 -0.15470003 -0.10460002 -0.15730003 C -0.10140002 -0.15820003 -0.09680002 -0.15950003 -0.09490002 -0.15960002 C -0.09360002 -0.15890002 -0.09060002 -0.15610002 -0.08860002 -0.15430002 C -0.083200015 -0.14930002 -0.077100016 -0.14360002 -0.06990002 -0.14280002 C -0.06420002 -0.14220002 -0.05820002 -0.14450002 -0.05190002 -0.14680001 C -0.04700002 -0.14860001 -0.041400023 -0.1508 -0.03800002 -0.15050001 C -0.03800002 -0.15050001 -0.03730002 -0.15040001 -0.03730002 -0.15040001 C -0.03730002 -0.15040001 -0.03670002 -0.14990002 -0.03670002 -0.14990002 C -0.03140002 -0.14540002 -0.02500002 -0.14180002 2.99979E-4 -0.14150003 C 0.02619998 -0.14180003 0.03209998 -0.14570002 0.03679998 -0.15030003 C 0.03679998 -0.15030003 0.03679998 -0.15030003 0.03689998 -0.15040003 C 0.03699998 -0.15040003 0.03709998 -0.15040003 0.03709998 -0.15040003 C 0.04049998 -0.15070003 0.04609998 -0.14860003 0.05099998 -0.14670002 C 0.05729998 -0.14430003 0.063299984 -0.14210002 0.068999976 -0.14270003 C 0.07619998 -0.14350003 0.08229998 -0.14920004 0.08769998 -0.15420003 C 0.089699976 -0.15600003 0.09259998 -0.15880004 0.094099976 -0.15950003 C 0.09599998 -0.15940003 0.100599974 -0.15810004 0.10379998 -0.15720004 C 0.112899974 -0.15460004 0.12239998 -0.15190004 0.12979998 -0.15520003 C 0.14019997 -0.15990004 0.14459997 -0.16560003 0.14929998 -0.17450003 C 0.14929998 -0.17460003 0.14929998 -0.17460003 0.14929998 -0.17460003 C 0.15779997 -0.17110004 0.18969998 -0.16450003 0.21659997 -0.19290003 C 0.22039998 -0.18780003 0.22259997 -0.18330003 0.22259997 -0.18330003 L 0.22009997 -0.18160003 C 0.22009997 -0.18160003 0.22009997 -0.18160003 0.22009997 -0.18160003 C 0.22009997 -0.18160003 0.22009997 -0.18160003 0.22009997 -0.18160003 L 0.0685 -0.0764 C 0.0685 -0.0764 0.0689 0.036800005 0.068299994 0.0782 C 0.06779999 0.1137 0.069699995 0.1363 0.07519999 0.15720001 C 0.07589999 0.15990001 0.08749999 0.17430001 0.09429999 0.1808 C 0.10419999 0.1903 0.11279999 0.19600001 0.11989999 0.19960001 C 0.12229999 0.19940001 0.12439999 0.19790001 0.12509999 0.19550002 C 0.12559998 0.19400002 0.12539999 0.19240002 0.12469999 0.19100001 C 0.11479999 0.18990001 0.09019999 0.16960001 0.08679999 0.1606 C 0.085799985 0.1579 0.084899984 0.1551 0.083999984 0.15220001 C 0.082799986 0.14870001 0.081799984 0.14490001 0.080999985 0.14110002 C 0.07779998 0.12830003 0.07599998 0.11730002 0.07599998 0.11730002 L 0.07649998 -0.07179998 L 0.22289999 -0.17149997 C 0.2232 -0.17179997 0.22349998 -0.17209996 0.22379999 -0.17249997 C 0.22379999 -0.17239997 0.22389999 -0.17229997 0.22389999 -0.17219996 L 0.2243 -0.17249997 C 0.2243 -0.17249997 0.2414 -0.13629997 0.2281 -0.07569997 C 0.229 -0.07429997 0.2304 -0.07329997 0.2321 -0.07299997 C 0.2324 -0.07289997 0.23269999 -0.07289997 0.2331 -0.07289997 C 0.2359 -0.07289997 0.2383 -0.074899964 0.23889999 -0.07769997 C 0.2384 -0.07819997 0.23809999 -0.07859997 0.23799999 -0.07879996 C 0.24289998 -0.10169996 0.24299999 -0.122099966 0.24109998 -0.13879997 C 0.24139999 -0.13869996 0.24159998 -0.13869996 0.24189998 -0.13869996 C 0.24199998 -0.13869996 0.2501 -0.13869996 0.25809997 -0.13819997 C 0.25829998 -0.13819997 0.25839996 -0.13819997 0.25859997 -0.13819997 C 0.26279998 -0.13819997 0.27039996 -0.14169997 0.28409997 -0.14819998 C 0.29979998 -0.15569997 0.32119995 -0.16589998 0.33269995 -0.16589998 C 0.35219994 -0.16589998 0.38789997 -0.14819998 0.38819996 -0.14799997 C 0.39009994 -0.14709997 0.39229995 -0.14779997 0.39329997 -0.14969997 C 0.3943 -0.1515 0.3935 -0.1538 0.3916 -0.1547 Z M 0.1019 0.226 L 0.0932 0.2217 C 0.091299996 0.2208 0.0893 0.2203 0.0872 0.2203 C 0.0814 0.2203 0.0759 0.2239 0.0732 0.22940001 L 0.0559 0.2637 C 0.054 0.2674 0.0536 0.27150002 0.0546 0.2754 C 0.0557 0.27940002 0.0582 0.28260002 0.0617 0.2843 L 0.0703 0.2886 C 0.0722 0.2895 0.0742 0.29 0.0764 0.29 C 0.0764 0.29 0.0764 0.29 0.0764 0.29 C 0.0792 0.29 0.081999995 0.2891 0.0844 0.28759998 C 0.083 0.2855 0.0814 0.2835 0.079799995 0.28159997 C 0.07869999 0.28219998 0.077599995 0.28249997 0.0764 0.28249997 C 0.075399995 0.28249997 0.074499995 0.28229997 0.073699996 0.28189996 L 0.0651 0.27759996 C 0.0635 0.27679995 0.0624 0.27529997 0.0619 0.27339995 C 0.0614 0.27129996 0.0616 0.26909995 0.0626 0.26699996 L 0.0647 0.26289997 C 0.0647 0.25929996 0.0661 0.25389996 0.0712 0.24569997 C 0.0742 0.24069998 0.0766 0.23749997 0.0786 0.23539998 L 0.08 0.23269998 C 0.0815 0.22969997 0.0843 0.22779998 0.0872 0.22779998 C 0.0881 0.22779998 0.0891 0.22799999 0.0899 0.22839998 L 0.0986 0.23269998 C 0.1 0.23339997 0.1011 0.23469998 0.1017 0.23639998 C 0.1024 0.23849998 0.1022 0.24099998 0.101 0.24319997 L 0.1008 0.24369997 C 0.1027 0.24549997 0.1046 0.24739997 0.1064 0.24939997 L 0.1078 0.24659997 C 0.109799996 0.24259998 0.1102 0.23799998 0.108899996 0.23399997 C 0.1076 0.2305 0.1051 0.2277 0.1019 0.226 Z"/>
<path id="e3" d="M 0.1342 0.3384 C 0.1342 0.40850002 0.07370001 0.4656 -5.9999526E-4 0.4656 C -0.074899994 0.4656 -0.1354 0.40850002 -0.1354 0.3384 C -0.1354 0.2994 -0.116799995 0.2631 -0.0844 0.2388 C -0.0837 0.2393 -0.081599995 0.2414 -0.0792 0.2492 C -0.0762 0.2588 -0.0752 0.2628 -0.075 0.2645 C -0.097 0.2836 -0.109500006 0.3105 -0.109500006 0.3384 C -0.109500006 0.3943 -0.060700007 0.4397 -6.000027E-4 0.4397 C 0.059499998 0.4397 0.1083 0.3943 0.1083 0.3384 C 0.1083 0.3098 0.0952 0.2825 0.0723 0.2633 C 0.0722 0.2623 0.0722 0.2585 0.0776 0.2497 C 0.0812 0.2438 0.083500005 0.2412 0.0847 0.24 C 0.1162 0.2642 0.1342 0.3 0.1342 0.3384 Z M 0.0367 0.3185 C 0.028699998 0.3185 -0.0187 0.3186 -0.0399 0.3186 C -0.042200003 0.3267 -0.0434 0.3357 -0.0434 0.3451 C -0.0434 0.3816 -0.0247 0.41109997 -0.001600001 0.41109997 C 0.021499999 0.41109997 0.0402 0.38159996 0.0402 0.3451 C 0.0403 0.3357 0.039 0.3266 0.0367 0.3185"/>
</defs>
<g>
<rect x="0" y="0" width="540" height="360" class="yellow"/>
<use xlink:href="#e1" transform="translate(270 180) scale(360 360) rotate(0)" class="black"/>
<use xlink:href="#e2" transform="translate(270 180) scale(360 360) rotate(0)" class="white"/>
<use xlink:href="#e3" transform="translate(270 180) scale(360 360) rotate(0)" class="red"/>
</g>
</svg>
