<?xml version="1.0"?>
<svg xmlns="http://www.w3.org/2000/svg" xmlns:xlink="http://www.w3.org/1999/xlink" version="1.1" width="540" height="360" viewBox="0 0 540 360">
<!-- Generated by Kreative Vexillo v1.0 -->
<style>
.red{fill:rgb(171,55,72);}
.white{fill:rgb(255,255,255);}
</style>
<defs>
<path id="e" d="M 0.0837 -0.4933 C -0.054800004 -0.461 -0.1409 -0.3226 -0.10869999 -0.18399999 C -0.0764 -0.0455 0.062 0.0406 0.2006 0.0083 S 0.4252 -0.16239999 0.393 -0.301 C 0.3917 -0.3065 0.3903 -0.3119 0.3886 -0.3173 C 0.4534 -0.103899986 0.3329 0.1216 0.119399995 0.18640003 C 0.0062 0.2208 -0.1164 0.2038 -0.216 0.1399 C -0.07540001 0.3244 0.18819998 0.3599 0.37259996 0.2193 C 0.42619997 0.17840001 0.46919996 0.1253 0.49789995 0.0643 C 0.46239996 0.3382 0.21159995 0.53139997 -0.06220007 0.4959 C -0.336 0.4604 -0.5292 0.2096 -0.4937 -0.0643 C -0.4582 -0.3381 -0.2074 -0.53139997 0.06640002 -0.4959 C 0.0722 -0.4951 0.0779 -0.4943 0.0837 -0.4933 Z"/>
</defs>
<g>
<rect x="0" y="0" width="540" height="360" class="red"/>
<use xlink:href="#e" transform="translate(270 180) scale(216 216) rotate(0)" class="white"/>
</g>
</svg>
