<?xml version="1.0"?>
<svg xmlns="http://www.w3.org/2000/svg" xmlns:xlink="http://www.w3.org/1999/xlink" version="1.1" width="540" height="360" viewBox="0 0 540 360">
<!-- Generated by Kreative Vexillo v1.0 -->
<style>
.black{fill:rgb(0,0,0);}
.green{fill:rgb(35,158,70);}
.red{fill:rgb(231,0,19);}
.white{fill:rgb(255,255,255);}
</style>
<defs>
<path id="crescent" d="M 0.707241 -0.707214 A 1.0 1.0 0.0 1 0 0.707214 0.707214 A 0.833333 0.833333 0.0 1 1 0.707214 -0.707214 Z"/>
<path id="star" d="M 0.0 -1.0 L 0.2245 -0.309 L 0.9511 -0.309 L 0.3633 0.118 L 0.5878 0.809 L 0.0 0.382 L -0.5878 0.809 L -0.3633 0.118 L -0.9511 -0.309 L -0.2245 -0.309 Z"/>
</defs>
<g>
<g>
<rect x="0" y="0" width="540" height="90" class="red"/>
<rect x="0" y="90" width="540" height="180" class="black"/>
<rect x="0" y="270" width="540" height="90" class="green"/>
</g>
<use xlink:href="#crescent" transform="translate(270 180) scale(45 45) rotate(0)" class="white"/>
<use xlink:href="#star" transform="translate(328.905 180) scale(33.4507 33.4507) rotate(-90)" class="white"/>
</g>
</svg>
