<?xml version="1.0"?>
<svg xmlns="http://www.w3.org/2000/svg" xmlns:xlink="http://www.w3.org/1999/xlink" version="1.1" width="540" height="360" viewBox="0 0 540 360">
<!-- Generated by Kreative Vexillo v1.0 -->
<style>
.blue{fill:rgb(0,86,162);}
.orange{fill:rgb(247,148,30);}
.white{fill:rgb(255,255,255);}
</style>
<defs>
<path id="star" d="M 0.157 0.021 L 0.5 0.0 L 0.157 -0.021 L 0.346 -0.093 L 0.146 -0.061 L 0.31 -0.179 L 0.125 -0.096 L 0.253 -0.253 L 0.096 -0.125 L 0.179 -0.31 L 0.061 -0.146 L 0.093 -0.346 L 0.021 -0.157 L 0.0 -0.5 L -0.021 -0.157 L -0.093 -0.346 L -0.061 -0.146 L -0.179 -0.31 L -0.096 -0.125 L -0.253 -0.253 L -0.125 -0.096 L -0.31 -0.179 L -0.146 -0.061 L -0.346 -0.093 L -0.157 -0.021 L -0.5 0.0 L -0.157 0.021 L -0.346 0.093 L -0.146 0.061 L -0.31 0.179 L -0.125 0.096 L -0.253 0.253 L -0.096 0.125 L -0.179 0.31 L -0.061 0.146 L -0.093 0.346 L -0.021 0.157 L 0.0 0.5 L 0.021 0.157 L 0.093 0.346 L 0.061 0.146 L 0.179 0.31 L 0.096 0.125 L 0.253 0.253 L 0.125 0.096 L 0.31 0.179 L 0.146 0.061 L 0.346 0.093 Z"/>
</defs>
<g>
<rect x="0" y="0" width="540" height="360" class="blue"/>
<path d="M 0 342.72 L 540 5.76 L 540 111.6 L 0 351.36 Z" class="orange"/>
<path d="M 0 348.48 L 540 76.32 L 540 146.88 L 0 354.24 Z" class="white"/>
<use xlink:href="#star" transform="translate(104.22 132.12) scale(176.1318 176.1318) rotate(0)" class="white"/>
</g>
</svg>
