<?xml version="1.0"?>
<svg xmlns="http://www.w3.org/2000/svg" xmlns:xlink="http://www.w3.org/1999/xlink" version="1.1" width="540" height="360" viewBox="0 0 540 360">
<!-- Generated by Kreative Vexillo v1.0 -->
<style>
.red{fill:rgb(210,0,0);}
.yellow{fill:rgb(255,230,0);}
</style>
<g>
<rect x="0" y="0" width="540" height="360" class="red"/>
<path d="M 270 180 L 0 0 L 81 0 Z" class="yellow"/>
<path d="M 270 180 L 243 0 L 297 0 Z" class="yellow"/>
<path d="M 270 180 L 459 0 L 540 0 Z" class="yellow"/>
<path d="M 270 180 L 540 153 L 540 207 Z" class="yellow"/>
<path d="M 270 180 L 540 360 L 459 360 Z" class="yellow"/>
<path d="M 270 180 L 297 360 L 243 360 Z" class="yellow"/>
<path d="M 270 180 L 81 360 L 0 360 Z" class="yellow"/>
<path d="M 270 180 L 0 207 L 0 153 Z" class="yellow"/>
<ellipse cx="270" cy="180" rx="64.2857" ry="64.2857" class="red"/>
<ellipse cx="270" cy="180" rx="51.4286" ry="51.4286" class="yellow"/>
</g>
</svg>
