<?xml version="1.0"?>
<svg xmlns="http://www.w3.org/2000/svg" xmlns:xlink="http://www.w3.org/1999/xlink" version="1.1" width="540" height="360" viewBox="0 0 540 360">
<!-- Generated by Kreative Vexillo v1.0 -->
<style>
.red{fill:rgb(218,18,26);}
.white{fill:rgb(255,255,255);}
</style>
<g>
<g>
<rect x="0" y="0" width="90" height="90" class="red"/>
<rect x="90" y="0" width="90" height="90" class="white"/>
<rect x="180" y="0" width="90" height="90" class="red"/>
<rect x="270" y="0" width="90" height="90" class="white"/>
<rect x="360" y="0" width="90" height="90" class="red"/>
<rect x="450" y="0" width="90" height="90" class="white"/>
</g>
<g>
<rect x="0" y="90" width="90" height="90" class="white"/>
<rect x="90" y="90" width="90" height="90" class="red"/>
<rect x="180" y="90" width="90" height="90" class="white"/>
<rect x="270" y="90" width="90" height="90" class="red"/>
<rect x="360" y="90" width="90" height="90" class="white"/>
<rect x="450" y="90" width="90" height="90" class="red"/>
</g>
<g>
<rect x="0" y="180" width="90" height="90" class="red"/>
<rect x="90" y="180" width="90" height="90" class="white"/>
<rect x="180" y="180" width="90" height="90" class="red"/>
<rect x="270" y="180" width="90" height="90" class="white"/>
<rect x="360" y="180" width="90" height="90" class="red"/>
<rect x="450" y="180" width="90" height="90" class="white"/>
</g>
<g>
<rect x="0" y="270" width="90" height="90" class="white"/>
<rect x="90" y="270" width="90" height="90" class="red"/>
<rect x="180" y="270" width="90" height="90" class="white"/>
<rect x="270" y="270" width="90" height="90" class="red"/>
<rect x="360" y="270" width="90" height="90" class="white"/>
<rect x="450" y="270" width="90" height="90" class="red"/>
</g>
</g>
</svg>
