<?xml version="1.0"?>
<svg xmlns="http://www.w3.org/2000/svg" xmlns:xlink="http://www.w3.org/1999/xlink" version="1.1" width="540" height="360" viewBox="0 0 540 360">
<!-- Generated by Kreative Vexillo v1.0 -->
<style>
.black{fill:rgb(0,0,0);}
.red{fill:rgb(249,0,0);}
.yellow{fill:rgb(253,253,0);}
</style>
<defs>
<path id="lf" d="M 0.1702 0.858 C 0.17410001 0.8541 0.1742 0.85279995 0.17130001 0.8427 C 0.17050001 0.8398 0.17130001 0.8389 0.17690001 0.83640003 C 0.18050002 0.8348 0.18630001 0.8334 0.1897 0.8334 C 0.19870001 0.8334 0.20050001 0.8323 0.20230001 0.8257 C 0.20320001 0.82229996 0.2055 0.8188 0.20760001 0.8174 C 0.21130002 0.815 0.22070001 0.8143 0.22630002 0.8161 C 0.22900002 0.8169 0.22930002 0.8163 0.22930002 0.8106 C 0.22930002 0.8042 0.23380002 0.7944 0.23670003 0.7944 C 0.23760003 0.7944 0.23780003 0.7888 0.23730002 0.77959996 C 0.23650002 0.7668 0.23680003 0.7642 0.23920003 0.76 C 0.24100003 0.75699997 0.24360003 0.75479996 0.24620003 0.7543 C 0.2517 0.7532 0.2524 0.7518 0.24980003 0.7468 C 0.24710003 0.7416 0.24170002 0.7364 0.23700003 0.7347 L 0.23340003 0.73340005 L 0.23810004 0.72810006 C 0.24070004 0.72510004 0.24480003 0.72240007 0.24730004 0.72190005 C 0.25130004 0.72110003 0.25180003 0.72040004 0.25180003 0.71580005 C 0.25180003 0.70930004 0.24590003 0.702 0.23780003 0.6984 L 0.23200004 0.6958 L 0.23890004 0.6909 C 0.24270004 0.68820006 0.24580003 0.6854 0.24580003 0.6847 C 0.24580003 0.684 0.24000004 0.6835 0.23300004 0.6835 C 0.21890004 0.6835 0.21470004 0.685 0.20760004 0.6924 C 0.20520005 0.6949 0.20280004 0.69699997 0.20230004 0.69699997 C 0.20180005 0.69699997 0.20140004 0.6928 0.20140004 0.68759996 C 0.20140004 0.67129993 0.19320004 0.6629 0.17810005 0.66349995 C 0.17430004 0.6636999 0.16960005 0.6643999 0.16750005 0.66519994 L 0.16380005 0.6665999 L 0.16380005 0.65059996 C 0.16380005 0.6417999 0.16330005 0.63199997 0.16260004 0.62889993 L 0.16140004 0.62319994 L 0.16710004 0.62709993 C 0.17020003 0.6291999 0.17330004 0.6309999 0.17390004 0.6309999 C 0.18240003 0.6309999 0.14890003 0.5788999 0.11950004 0.5461999 C 0.09700004 0.52119994 0.08930004 0.5079999 0.08700004 0.4904999 C 0.08650004 0.4864999 0.08550004 0.48249993 0.084900044 0.48159993 C 0.08430004 0.4807999 0.08330005 0.47779992 0.082700044 0.47489992 C 0.07990004 0.4618999 0.062100045 0.43469992 0.052500043 0.42879993 C 0.049600042 0.4270999 0.045700043 0.42409992 0.043700043 0.42229992 L 0.04010004 0.41889992 L 0.03780004 0.42239994 C 0.03650004 0.42429993 0.03510004 0.42779994 0.03450004 0.42999995 C 0.03390004 0.43229994 0.03100004 0.43689996 0.02800004 0.44019994 L 0.02250004 0.44629994 L 0.01350004 0.44159994 C 0.0085000405 0.43899992 0.0034000408 0.43589994 0.0020000404 0.43459994 C -0.0011999595 0.43179995 -0.0030999598 0.43289992 -0.00419996 0.43819994 C -0.00499996 0.44199994 -0.0111999605 0.45319992 -0.01639996 0.46039993 C -0.01849996 0.4631999 -0.017999958 0.46439993 -0.009799959 0.47689992 C 0.001100041 0.49349993 0.004500041 0.49669993 0.01920004 0.5043999 C 0.03630004 0.5132999 0.04380004 0.5191999 0.05130004 0.5297999 C 0.06830004 0.55369985 0.07350004 0.5801999 0.07020004 0.6261999 C 0.06830004 0.6519999 0.07010004 0.6744999 0.07530004 0.6894999 C 0.084000036 0.71479994 0.08500004 0.7284999 0.07880004 0.7363999 C 0.07500004 0.7411999 0.07710004 0.7424999 0.08280004 0.73879987 C 0.08520004 0.73719984 0.08900004 0.73589987 0.09130004 0.73589987 C 0.09350004 0.73589987 0.09580004 0.73519987 0.09630004 0.73429984 C 0.09830004 0.73109984 0.10010004 0.7352998 0.098600045 0.73949987 C 0.09760004 0.74229985 0.095600046 0.74379987 0.092500046 0.74439985 C 0.08610005 0.7456998 0.08200005 0.7513999 0.08200005 0.7592999 C 0.08200005 0.7671999 0.08380005 0.76849985 0.08910005 0.7646999 C 0.09140005 0.76309985 0.09630005 0.7603999 0.100000046 0.7586999 C 0.10990004 0.7541999 0.11520004 0.7479999 0.11610004 0.7398999 L 0.11690004 0.7331999 L 0.12220004 0.7367999 C 0.13100004 0.7426999 0.13990004 0.7410999 0.16210005 0.7295999 C 0.16640005 0.7273999 0.18140005 0.7278999 0.18650004 0.73049986 C 0.19240004 0.7334999 0.19660005 0.7380999 0.20070004 0.7460999 C 0.20360005 0.75169986 0.20390004 0.7542999 0.20340005 0.76639986 C 0.20280005 0.77899987 0.20220004 0.7812999 0.19650005 0.7923999 C 0.19310005 0.79909986 0.18830004 0.80659986 0.18580005 0.8090999 C 0.18170005 0.81319994 0.18030004 0.8135999 0.16740005 0.8144999 C 0.15150005 0.8154999 0.14360005 0.8130999 0.13730004 0.80529994 C 0.13290004 0.7997999 0.12780005 0.79719996 0.12400004 0.7983999 C 0.12050004 0.7994999 0.11770004 0.8040999 0.118800044 0.8068999 C 0.1197 0.8086 0.1388 0.8183 0.142 0.8183 C 0.1442 0.8183 0.14410001 0.8202 0.1419 0.8225 C 0.1392 0.82519996 0.13250001 0.8247 0.125 0.821 C 0.1171 0.8172 0.1111 0.8183 0.109 0.824 C 0.107999995 0.8267 0.1085 0.8282 0.1114 0.8309 C 0.1134 0.83280003 0.1162 0.83680004 0.1174 0.8398 C 0.1201 0.8464 0.1248 0.8472 0.1274 0.8415 C 0.1296 0.8368 0.1425 0.8303 0.15 0.8303 C 0.1551 0.8303 0.1558 0.8307 0.1553 0.83349997 C 0.1549 0.83589995 0.1526 0.8375 0.14600001 0.83989996 C 0.13220002 0.84489995 0.13090001 0.85129994 0.14330001 0.85339993 C 0.1464 0.85389996 0.1509 0.85599995 0.1534 0.85809994 C 0.1593 0.863 0.1652 0.8629 0.1702 0.858 L 0.1702 0.858 Z M -0.1395 0.8292 C -0.13900001 0.828 -0.1403 0.82320005 -0.14240001 0.8187 C -0.14710002 0.8085 -0.1474 0.8018 -0.14330001 0.8018 C -0.14160001 0.8018 -0.13960001 0.8035 -0.13840002 0.80590004 C -0.13680002 0.80930007 -0.13530003 0.8101 -0.13020001 0.8105 C -0.119300015 0.81130004 -0.10970001 0.80340004 -0.09820001 0.78400004 C -0.09000001 0.77010006 -0.078600004 0.7609 -0.078600004 0.7681 C -0.078600004 0.7719 -0.07520001 0.76970005 -0.0706 0.763 C -0.0683 0.7596 -0.065400004 0.75670004 -0.0643 0.75670004 S -0.061300002 0.7555 -0.0603 0.75390005 C -0.0576 0.7501001 -0.0526 0.74770004 -0.0475 0.74770004 C -0.044099998 0.74770004 -0.042799998 0.74670005 -0.0412 0.74280006 C -0.0384 0.73630005 -0.0333 0.73090005 -0.021100001 0.72190005 C -0.009400002 0.71320003 -0.0073000016 0.7102001 -0.010000002 0.70650005 C -0.011500002 0.7045001 -0.012700002 0.70430005 -0.015600001 0.70540005 C -0.019100001 0.7067 -0.019600002 0.7063 -0.022300001 0.69990003 C -0.0248 0.694 -0.025300002 0.68950003 -0.025300002 0.67120004 C -0.025300002 0.65050006 -0.025100002 0.64900005 -0.021100001 0.6406 C -0.013300002 0.6241 0.003899999 0.60950005 0.0221 0.6038 C 0.0285 0.6018 0.045199998 0.6016 0.048699997 0.6035 C 0.0501 0.6042 0.0536 0.60510004 0.056499995 0.6054 C 0.061299995 0.60590005 0.061799996 0.6056 0.062199995 0.60160005 C 0.062699996 0.59740007 0.062599994 0.59730005 0.056699995 0.59830004 C 0.049899995 0.59940004 0.044399995 0.59720004 0.038599994 0.59110004 C 0.035299994 0.58750004 0.035099994 0.58650005 0.036099993 0.57610005 C 0.036999993 0.56670004 0.03669999 0.56380004 0.034299992 0.55840003 C 0.029699992 0.54810005 0.028199993 0.54740006 0.009299992 0.54740006 C -0.008900009 0.54740006 -0.019400008 0.5501 -0.03440001 0.5587001 C -0.054600008 0.5703001 -0.06390001 0.5835001 -0.08840001 0.6356001 C -0.09210001 0.6434001 -0.097 0.64910007 -0.10170001 0.6507001 C -0.10300001 0.6512001 -0.10270001 0.65270007 -0.10080001 0.6561001 L -0.0979 0.6607 H -0.104200006 C -0.109500006 0.6607 -0.11130001 0.6616 -0.1155 0.6661 C -0.118300006 0.669 -0.1206 0.6725 -0.1206 0.67370003 S -0.122 0.6786 -0.1236 0.6818 C -0.1278 0.6901 -0.1275 0.6911 -0.1211 0.6899 L -0.115600005 0.6889 L -0.11660001 0.6943 L -0.11760001 0.6997 L -0.10890001 0.6988 C -0.09960001 0.69790006 -0.091900006 0.6998 -0.091900006 0.70320004 C -0.091900006 0.70430005 -0.09370001 0.70690006 -0.095800005 0.70890003 C -0.10300001 0.7156 -0.10610001 0.72380006 -0.11000001 0.74630004 C -0.11270001 0.762 -0.1199 0.77360004 -0.13000001 0.77870005 C -0.13570002 0.78150004 -0.1465 0.7814 -0.15490001 0.7785001 C -0.16020001 0.77660006 -0.16470002 0.7763001 -0.17550002 0.7771001 C -0.19160002 0.7783001 -0.19390002 0.7774001 -0.19870003 0.7688001 C -0.20330003 0.7607001 -0.20900002 0.75760007 -0.21460003 0.7603001 C -0.21990003 0.7628001 -0.22110003 0.7698001 -0.21640003 0.7712001 C -0.21460003 0.7718001 -0.21100003 0.77420014 -0.20830002 0.7766001 C -0.20560002 0.7790001 -0.20070003 0.78180015 -0.19750002 0.7829001 C -0.19320002 0.7843001 -0.19150002 0.7857001 -0.19120002 0.7884001 C -0.19070002 0.79180014 -0.19100001 0.7920001 -0.19830002 0.7912001 C -0.20460002 0.7906001 -0.20710002 0.7894001 -0.21270002 0.7842001 C -0.21640003 0.78080004 -0.22000003 0.77800006 -0.22060002 0.77800006 C -0.22120002 0.77800006 -0.22330002 0.7792001 -0.22520003 0.7807 C -0.22820003 0.78300005 -0.22850002 0.7842 -0.22770002 0.7895 C -0.22610003 0.7992 -0.22510003 0.80009997 -0.21880002 0.7971 C -0.21220002 0.794 -0.21010002 0.7939 -0.20450002 0.7968 C -0.20210002 0.79800004 -0.19660002 0.7993 -0.19230002 0.7996 C -0.18420002 0.8002 -0.18080002 0.80300003 -0.18250002 0.8074 C -0.18380003 0.8107 -0.19490002 0.81009996 -0.20420001 0.80619997 C -0.21190001 0.803 -0.21230002 0.803 -0.21420002 0.8056 C -0.21590002 0.8079 -0.21570002 0.80939996 -0.21310002 0.8157 C -0.20920001 0.8251 -0.20430002 0.8265 -0.19140002 0.8216 C -0.18660001 0.8198 -0.17980002 0.8183 -0.17630002 0.8182 C -0.17140003 0.8181 -0.16940002 0.8173 -0.16770002 0.8146 C -0.16650002 0.8127 -0.16540003 0.8101 -0.16540003 0.8089 C -0.16540003 0.8067 -0.16110003 0.8035 -0.15800002 0.8035 C -0.15530002 0.8035 -0.15620002 0.813 -0.15940002 0.8178 C -0.16260001 0.82269996 -0.16330002 0.8276 -0.16100001 0.82989997 C -0.16020001 0.8307 -0.15520002 0.8314 -0.14980002 0.8315 C -0.1426 0.8314 -0.1401 0.8309 -0.1395 0.8292 Z M 0.2514 0.6032 C 0.252 0.5962 0.25149998 0.59220004 0.2499 0.58900005 L 0.2477 0.5845001 L 0.2547 0.5836001 C 0.2621 0.5826001 0.2735 0.5760001 0.2721 0.5736001 C 0.2716 0.5728001 0.2696 0.5722001 0.2675 0.5722001 H 0.26380002 L 0.26680002 0.5663001 C 0.26850003 0.5630001 0.2698 0.5577001 0.2698 0.5545001 C 0.2698 0.5473001 0.27400002 0.5416001 0.28100002 0.5392001 C 0.28480002 0.53790015 0.28640002 0.53640014 0.28710002 0.53320014 C 0.2876 0.53080016 0.28930002 0.5284001 0.29090002 0.52790016 C 0.2939 0.5269002 0.30040002 0.51970017 0.29920003 0.51850015 C 0.29880002 0.51810014 0.29590002 0.5194001 0.29280004 0.52130014 C 0.28690004 0.52490014 0.28780004 0.52490014 0.26210004 0.5237001 C 0.25710005 0.52350014 0.25650004 0.5230001 0.25560004 0.5183001 C 0.25420004 0.51090014 0.24580003 0.4987001 0.23810004 0.4929001 C 0.21700004 0.4771001 0.20860004 0.4704001 0.20550004 0.4667001 C 0.20200004 0.4626001 0.19830003 0.4624001 0.19990003 0.4665001 C 0.20130002 0.4702001 0.19290003 0.4689001 0.18310003 0.4640001 C 0.17230003 0.4586001 0.16430002 0.4503001 0.15890002 0.4387001 C 0.15570003 0.4318001 0.15490003 0.42800012 0.15490003 0.41810012 C 0.15480003 0.40430012 0.15250003 0.3990001 0.14840002 0.40310013 C 0.14490002 0.40660015 0.14520003 0.42660013 0.14880003 0.43730015 C 0.15510003 0.45580015 0.16660003 0.46760014 0.19900003 0.48860013 C 0.22900003 0.50810015 0.24240004 0.52540016 0.24390003 0.5470001 C 0.24480003 0.5599001 0.24170002 0.5690001 0.23310003 0.5779001 C 0.22360003 0.5879001 0.21710002 0.59060013 0.20280002 0.59060013 C 0.18890002 0.59060013 0.17820002 0.58670014 0.16820002 0.5779001 C 0.15730001 0.5683001 0.14970002 0.5629001 0.14820002 0.5639001 C 0.14630002 0.56510013 0.16610003 0.59310013 0.17160001 0.59710014 C 0.18010001 0.60320014 0.18840002 0.60500014 0.21120001 0.60570014 C 0.22980002 0.60620016 0.23390001 0.60680014 0.23930001 0.6095001 C 0.24280001 0.6113001 0.246 0.6135001 0.24660002 0.6144001 C 0.2486 0.6175 0.2506 0.6129 0.2514 0.6032 L 0.2514 0.6032 Z M 0.0604 0.5861 C 0.0644 0.5821 0.0612 0.566 0.053200003 0.5495 C 0.046400003 0.5354 0.0395 0.5274 0.036300004 0.5301 C 0.0329 0.5329 0.033600003 0.53679997 0.039300002 0.5476 C 0.042200003 0.553 0.044600002 0.5585 0.044600002 0.55979997 C 0.044600002 0.56109995 0.0454 0.56439996 0.046400003 0.5671 C 0.047800004 0.5711 0.047800004 0.5728 0.046400003 0.5751 C 0.043800004 0.5793 0.044200003 0.5852 0.0472 0.587 C 0.0512 0.5893 0.0576 0.5889 0.0604 0.5861 Z M -0.1792 0.5693 C -0.175 0.5663 -0.1704 0.5591 -0.17019999 0.5554 C -0.17009999 0.5538 -0.16819999 0.55270004 -0.1643 0.552 C -0.1574 0.5509 -0.1468 0.5428 -0.1365 0.5309 C -0.1271 0.52 -0.1118 0.5073 -0.1088 0.5079 C -0.1075 0.5082 -0.106 0.51 -0.1055 0.5121 C -0.105 0.5142 -0.103999995 0.5158 -0.103199996 0.5158 C -0.100999996 0.5158 -0.092099994 0.5001 -0.090399995 0.4933 C -0.08759999 0.4824 -0.08759999 0.4824 -0.084 0.4869 C -0.0822 0.4892 -0.08 0.491 -0.0792 0.491 C -0.0774 0.491 -0.0733 0.4819 -0.0718 0.4745 C -0.0703 0.4669 -0.0662 0.4596 -0.0577 0.4489 L -0.0502 0.4395 L -0.0534 0.4341 C -0.0552 0.4311 -0.057099998 0.4282 -0.0576 0.4275 S -0.060799997 0.4296 -0.0635 0.43350002 C -0.0702 0.4433 -0.079 0.4494 -0.086600006 0.4496 C -0.092300005 0.4497 -0.092700005 0.4494 -0.09470001 0.4435 C -0.09580001 0.4401 -0.09840001 0.43580002 -0.10040001 0.4339 L -0.10410001 0.4305 L -0.10940001 0.4345 C -0.12120001 0.4435 -0.1288 0.45360002 -0.13960001 0.4744 C -0.1542 0.50270003 -0.16510001 0.514 -0.1805 0.517 C -0.1871 0.51820004 -0.1945 0.51500005 -0.2028 0.50740004 C -0.2086 0.50200003 -0.21010001 0.50140005 -0.2157 0.50180006 C -0.2212 0.50220007 -0.2221 0.50280005 -0.2225 0.50600004 C -0.2229 0.50900006 -0.2214 0.51100004 -0.215 0.51580006 C -0.2041 0.52410007 -0.2016 0.52540004 -0.197 0.52550006 C -0.19309999 0.5256001 -0.1904 0.52900004 -0.192 0.5317001 C -0.1925 0.5325001 -0.196 0.53310007 -0.1999 0.53310007 C -0.2059 0.53310007 -0.2083 0.5321001 -0.2159 0.5263001 C -0.22590001 0.5188001 -0.2288 0.5182001 -0.2332 0.52260005 C -0.2371 0.52650005 -0.237 0.52800006 -0.2324 0.53340006 C -0.2303 0.53590006 -0.2286 0.53910005 -0.2286 0.54060006 C -0.2286 0.5421001 -0.22749999 0.54440004 -0.2262 0.5457001 C -0.2236 0.5483001 -0.2157 0.54890007 -0.2143 0.54660004 C -0.21380001 0.54580003 -0.21020001 0.54480004 -0.2063 0.5443 S -0.19590001 0.5424 -0.1919 0.5411 C -0.1843 0.5388 -0.1804 0.5399 -0.1804 0.54440004 C -0.1804 0.54740006 -0.1933 0.5525 -0.2007 0.5525 C -0.2118 0.5525 -0.2137 0.55950004 -0.2037 0.5636 C -0.2008 0.5648 -0.19790001 0.5669 -0.1974 0.5683 C -0.1956 0.5739 -0.1863 0.5744 -0.1792 0.5693 L -0.1792 0.5693 Z M -0.0273 0.4568 C -0.0205 0.4512 -0.0188 0.44910002 -0.015700001 0.4422 C -0.009800001 0.42900002 -0.011000002 0.4171 -0.019500002 0.4059 C -0.024100002 0.3998 -0.022000002 0.3983 -0.013400002 0.4016 C -0.005400002 0.4046 -0.003200002 0.407 0.0023999969 0.4187 C 0.007299997 0.42880002 0.011899997 0.4327 0.019199997 0.433 C 0.023699997 0.4332 0.024199996 0.4327 0.027599998 0.4242 C 0.031199997 0.4152 0.031699996 0.4029 0.028799998 0.396 C 0.027099997 0.3919 0.030699998 0.3928 0.034999996 0.3975 C 0.037099995 0.3998 0.040899996 0.405 0.0435 0.4091 C 0.049799997 0.419 0.0586 0.4238 0.0708 0.424 C 0.0773 0.42409998 0.081 0.42339998 0.0839 0.42139998 C 0.0896 0.41759998 0.089099996 0.41599998 0.0822 0.41599998 C 0.0753 0.41599998 0.0677 0.41129997 0.0629 0.40409997 C 0.0563 0.39439997 0.059 0.37329996 0.0687 0.35859996 C 0.0719 0.35369995 0.0837 0.34389997 0.0864 0.34389997 C 0.0872 0.34389997 0.088800006 0.34679997 0.09 0.35029995 C 0.0912 0.35379997 0.093100004 0.35689995 0.0943 0.35709995 C 0.0955 0.35729995 0.0988 0.35429996 0.1016 0.35039994 C 0.106 0.34419996 0.106699996 0.34209993 0.1068 0.33419994 C 0.1068 0.32919994 0.106199995 0.32389992 0.1055 0.32229993 C 0.1043 0.31979993 0.1046 0.31959993 0.1078 0.32079992 C 0.1194 0.3248999 0.1271 0.31979993 0.1355 0.30229992 L 0.1407 0.29139993 L 0.13769999 0.28639993 C 0.13399999 0.28039992 0.1336 0.26749992 0.1369 0.26119992 C 0.1381 0.2587999 0.14089999 0.25549993 0.1431 0.25379992 L 0.14709999 0.2506999 L 0.14459999 0.24199991 C 0.14009999 0.22609991 0.14159998 0.21249992 0.14859998 0.20549992 C 0.15389998 0.20019992 0.15289998 0.19829991 0.14399998 0.19709992 L 0.13789998 0.19629993 L 0.13869998 0.18559992 C 0.13929997 0.17699993 0.13889998 0.17319992 0.13629998 0.16639993 C 0.13179998 0.15439993 0.13009998 0.15339993 0.121899985 0.15749992 C 0.112699986 0.16209993 0.106999986 0.16229993 0.106499985 0.15819992 C 0.106099986 0.15559992 0.107799985 0.15419993 0.11549999 0.15049993 C 0.12689999 0.14509992 0.13709998 0.13529992 0.13949999 0.12739992 C 0.1405 0.12419992 0.14089999 0.12119992 0.1405 0.12079992 S 0.1369 0.12149992 0.13329999 0.123199925 C 0.12859999 0.12549992 0.12449999 0.12619993 0.11839999 0.12589993 C 0.10819999 0.12539993 0.10369999 0.12669992 0.10239999 0.13059993 C 0.10109999 0.13459992 0.09989999 0.13429993 0.096899986 0.12899993 C 0.09409998 0.12399993 0.092799984 0.123399936 0.07499999 0.11789993 C 0.05969999 0.113199934 0.059499986 0.113199934 0.05519999 0.11779993 C 0.051399987 0.12189993 0.05169999 0.12219993 0.061299987 0.12369993 C 0.06709999 0.124699935 0.07149999 0.12879993 0.078299984 0.13929993 C 0.080599986 0.14289993 0.08439998 0.14689992 0.08679999 0.14829993 C 0.08919999 0.14969993 0.09119999 0.15159993 0.09119999 0.15269993 C 0.09119999 0.15559994 0.084899984 0.15489992 0.08069999 0.15159993 C 0.07599999 0.14789993 0.074399985 0.14789993 0.06829999 0.15159993 C 0.062399987 0.15519993 0.059999987 0.15529993 0.053799987 0.15219992 C 0.049099986 0.14979993 0.044599988 0.14329992 0.044599988 0.13879992 C 0.044599988 0.13749991 0.04289999 0.13579991 0.040799987 0.13499992 C 0.037199985 0.13359992 0.037099987 0.13339992 0.039299987 0.12999992 L 0.04159999 0.12639992 L 0.02799999 0.12449992 C 0.017799988 0.122999914 0.01349999 0.122999914 0.010699989 0.12419992 C 0.0061 0.1265 0.0061 0.1277 0.0108 0.1351 C 0.014900001 0.14160001 0.0155 0.1481 0.0129 0.15910001 C 0.011 0.1675 0.012700001 0.16910002 0.0248 0.1703 C 0.0469 0.1726 0.0671 0.1769 0.0763 0.1814 C 0.0868 0.1865 0.0902 0.1939 0.0902 0.2117 C 0.0902 0.2249 0.0899 0.2266 0.085599996 0.2342 C 0.082399994 0.23990001 0.078899994 0.2436 0.0743 0.2462 C 0.068399996 0.2496 0.0661 0.25 0.0519 0.25 C 0.0388 0.25 0.0339 0.2492 0.0229 0.2458 C 0.0105 0.2419 0.0094 0.24170001 0.006000001 0.244 C 9.313226E-10 0.248 0.001300001 0.2514 0.009700001 0.2534 C 0.013700001 0.25439999 0.022600003 0.2584 0.0295 0.2624 C 0.0404 0.2687 0.043 0.2696 0.0506 0.2696 C 0.0581 0.2696 0.06 0.269 0.0654 0.2647 L 0.071499996 0.2598 V 0.2649 C 0.071499996 0.2731 0.066 0.277 0.0536 0.2777 C 0.044299997 0.2782 0.042999998 0.2787 0.040099997 0.28260002 C 0.031699996 0.29400003 0.018199997 0.2948 -0.008800004 0.28550002 C -0.044100005 0.2734 -0.055300005 0.27150002 -0.066 0.2759 C -0.0769 0.2804 -0.0815 0.287 -0.083000004 0.3005 L -0.083900005 0.3088 L -0.0868 0.3039 C -0.0899 0.2985 -0.0971 0.2943 -0.1027 0.2943 C -0.1062 0.2943 -0.1162 0.29869998 -0.120900005 0.3024 C -0.12330001 0.30429998 -0.12330001 0.3049 -0.1198 0.3121 C -0.1177 0.3164 -0.1161 0.3204 -0.1161 0.3211 S -0.1144 0.3242 -0.112399995 0.32639998 L -0.10869999 0.3304 L -0.10079999 0.32599998 C -0.09639999 0.32359996 -0.08879999 0.32039997 -0.08389999 0.3189 C -0.073099986 0.31559998 -0.06399999 0.3107 -0.05919999 0.3056 C -0.055599988 0.3017 -0.047199987 0.3002 -0.047199987 0.3035 C -0.047199987 0.3103 -0.061299987 0.32029998 -0.07959999 0.3266 C -0.08619999 0.32889998 -0.09289999 0.33139998 -0.09449999 0.3322 C -0.10259999 0.3363 -0.10859999 0.34579998 -0.11089999 0.35819998 C -0.111499995 0.3615 -0.11399999 0.3681 -0.11639999 0.373 C -0.11879999 0.3779 -0.12039999 0.3822 -0.11999999 0.3827 S -0.11659999 0.38099998 -0.11349999 0.378 C -0.10849999 0.37309998 -0.10699999 0.3725 -0.10019999 0.3725 C -0.094699994 0.3725 -0.09139999 0.3734 -0.08859999 0.3756 L -0.08459999 0.37870002 L -0.090699986 0.3842 C -0.095999986 0.389 -0.09699999 0.39090002 -0.098099984 0.3987 C -0.09889998 0.4037 -0.09969998 0.4091 -0.09999999 0.4107 C -0.100299984 0.4125 -0.09969999 0.41349998 -0.098599985 0.4133 C -0.09739999 0.41300002 -0.09669998 0.4149 -0.09669998 0.4189 C -0.09669998 0.42330003 -0.09559998 0.4262 -0.092399985 0.4298 C -0.09009998 0.4325 -0.08769999 0.4359 -0.087199986 0.4374 C -0.08339999 0.4478 -0.06439999 0.4246 -0.061399985 0.4059 C -0.060799986 0.4024 -0.059599984 0.3995 -0.058599986 0.3995 C -0.054299988 0.3996 -0.052499987 0.4027 -0.051399987 0.41210002 C -0.050299987 0.4216 -0.049099986 0.42450002 -0.042299986 0.43530002 C -0.040199988 0.43860003 -0.038899984 0.44380003 -0.038399987 0.4507 C -0.0375 0.4626 -0.0356 0.4637 -0.0273 0.4568 L -0.0273 0.4568 Z M 0.1962 0.3993 C 0.2013 0.3971 0.21 0.3907 0.2192 0.38250002 C 0.2388 0.36490002 0.2432 0.36270002 0.2589 0.36270002 C 0.26569998 0.36270002 0.2713 0.36220002 0.2713 0.3616 C 0.2713 0.361 0.2688 0.3587 0.2658 0.35630003 C 0.2609 0.35250002 0.2591 0.3521 0.2489 0.3521 C 0.2368 0.3521 0.2305 0.35410002 0.2171 0.36220002 C 0.2094 0.3668 0.20639999 0.36730003 0.204 0.36440003 C 0.20019999 0.35990003 0.22309999 0.34610003 0.23719999 0.34430003 C 0.2454 0.34330004 0.2518 0.33740002 0.2518 0.33080003 C 0.2518 0.32650003 0.244 0.31830004 0.2399 0.31830004 C 0.2367 0.31830004 0.2163 0.33170003 0.21139999 0.33690003 C 0.20859998 0.33990002 0.20729999 0.34040004 0.20579998 0.33910003 C 0.20469998 0.33820003 0.20379998 0.33630005 0.20379998 0.33480003 C 0.20379998 0.33170003 0.21489997 0.32110003 0.22199997 0.31740004 C 0.23069997 0.31290004 0.23799998 0.30640003 0.24219997 0.29900002 C 0.24559997 0.29320002 0.24629997 0.29000002 0.24639997 0.28130004 C 0.24649997 0.27190003 0.24599996 0.27000004 0.24229997 0.26520005 C 0.23999998 0.26220006 0.23759997 0.25970006 0.23699997 0.25970006 S 0.23589997 0.26400006 0.23579997 0.26920006 C 0.23559996 0.28600004 0.22579996 0.29700005 0.20859997 0.29980007 C 0.20509997 0.30040008 0.20209996 0.30250007 0.19839998 0.30700007 C 0.19379997 0.31270006 0.19309998 0.31450006 0.19299997 0.32220006 C 0.19289997 0.33120006 0.19029997 0.34090006 0.18769997 0.34180006 C 0.18689997 0.34210005 0.18509997 0.34140006 0.18359998 0.34040007 C 0.18139997 0.33880007 0.18119998 0.33780006 0.18269998 0.33360007 C 0.18519998 0.3265001 0.18389998 0.30840006 0.18069997 0.30520007 C 0.17829998 0.30280006 0.17809997 0.30280006 0.17809997 0.30610007 C 0.17809997 0.31350008 0.17319998 0.32550007 0.16609998 0.33560008 C 0.14949998 0.3590001 0.14669998 0.36670008 0.14959998 0.38080007 C 0.15139998 0.38930008 0.15839998 0.39750007 0.16759998 0.40150008 C 0.1747 0.4046 0.1859 0.4038 0.1962 0.3993 Z M -0.1706 0.3464 C -0.171 0.34289998 -0.1718 0.3383 -0.1724 0.336 C -0.1733 0.3326 -0.1728 0.3316 -0.1697 0.3302 C -0.1664 0.32869998 -0.1651 0.32909998 -0.159 0.3338 C -0.14809999 0.3421 -0.1277 0.3531 -0.12269999 0.35329998 C -0.11899999 0.35349998 -0.11809999 0.35289997 -0.11769999 0.34979996 C -0.11739999 0.34769997 -0.11659999 0.34539998 -0.115799986 0.34459996 C -0.11329999 0.34199995 -0.114399984 0.33809996 -0.11869998 0.33379996 C -0.120999984 0.33149996 -0.12419999 0.32619995 -0.12569998 0.32199997 C -0.12719998 0.31789997 -0.13039999 0.31159997 -0.13269998 0.30799997 C -0.13499998 0.30439997 -0.13689998 0.30129996 -0.13689998 0.30089998 S -0.13489997 0.29919997 -0.13239998 0.2979 C -0.12449998 0.2938 -0.12679997 0.2918 -0.14519997 0.2871 C -0.16339996 0.28239998 -0.17849997 0.2724 -0.18829997 0.2584 C -0.19299997 0.2516 -0.19319996 0.2507 -0.19329996 0.23679999 C -0.19339997 0.22479999 -0.19389996 0.22169998 -0.19619997 0.21919999 C -0.19919997 0.21589999 -0.20589997 0.21509999 -0.20849997 0.21769999 C -0.21029997 0.21949999 -0.20769997 0.2358 -0.20469996 0.24139999 C -0.20239997 0.24579999 -0.20359996 0.24919999 -0.20749997 0.24919999 C -0.21179996 0.24919999 -0.21509996 0.24319999 -0.21649997 0.23319998 C -0.21739997 0.22629999 -0.21849997 0.22389999 -0.22199997 0.22109999 C -0.22759998 0.21659999 -0.23229997 0.21669999 -0.23639998 0.22129999 C -0.23819998 0.2233 -0.24179998 0.22569999 -0.24449998 0.22659999 C -0.24959998 0.22829999 -0.25239998 0.2323 -0.24919999 0.23329999 C -0.24819998 0.23359999 -0.24489999 0.2346 -0.24179998 0.23559998 C -0.23829998 0.23669998 -0.23279998 0.24089998 -0.22679998 0.24699998 C -0.21599998 0.25809997 -0.21559998 0.2589 -0.21809998 0.26189998 C -0.21969998 0.26389998 -0.22039998 0.26379997 -0.22389998 0.26169997 C -0.22609997 0.26029998 -0.23119998 0.25559998 -0.23539998 0.25119996 C -0.24219997 0.24389996 -0.24359998 0.24309996 -0.24919997 0.24309996 C -0.25399998 0.24309996 -0.25579998 0.24379995 -0.2571 0.24619995 C -0.258 0.24789995 -0.2584 0.25029996 -0.2579 0.25149995 C -0.2574 0.25269994 -0.2582 0.25609994 -0.2596 0.25909996 L -0.26220003 0.26449996 L -0.25700003 0.26879996 C -0.25100002 0.27379996 -0.24920003 0.27399996 -0.24410003 0.27069995 C -0.24070004 0.26849994 -0.24010004 0.26849994 -0.23660004 0.27079993 L -0.23280004 0.27329993 L -0.23910004 0.27889994 C -0.24450004 0.28369993 -0.24530004 0.28509992 -0.24440004 0.28859994 C -0.24290004 0.29439995 -0.23090003 0.30189994 -0.22400004 0.30129993 C -0.21950004 0.30089992 -0.21800004 0.29969993 -0.21310003 0.29219994 C -0.20760003 0.28379995 -0.20460004 0.28209993 -0.20020004 0.28489995 C -0.19850004 0.28599995 -0.19850004 0.28669995 -0.20020004 0.28949994 C -0.20210004 0.29259995 -0.20160003 0.29339993 -0.19320004 0.30099994 L -0.18420003 0.30909994 L -0.18460004 0.32649994 L -0.18500005 0.34389994 L -0.17950004 0.35139993 C -0.17410004 0.35869992 -0.17400004 0.35879993 -0.17180005 0.35569993 C -0.1706 0.3537 -0.1701 0.3506 -0.1706 0.3464 Z M 0.2708 0.335 C 0.2753 0.32970002 0.27539998 0.31960002 0.271 0.31350002 C 0.2683 0.30980003 0.2682 0.3088 0.2699 0.3077 C 0.27109998 0.307 0.2728 0.3064 0.2737 0.3064 C 0.2768 0.3064 0.2923 0.2911 0.2953 0.2852 C 0.3006 0.2748 0.2984 0.2523 0.2921 0.2523 C 0.2913 0.2523 0.29070002 0.2549 0.29070002 0.2581 C 0.29070002 0.2702 0.27800003 0.2807 0.26330003 0.2808 C 0.25940004 0.2808 0.25620005 0.2811 0.25620005 0.2813 C 0.25620005 0.2866 0.25210005 0.3007 0.24930005 0.30470002 L 0.24560004 0.31010002 L 0.25160006 0.3154 C 0.25860006 0.3215 0.26130006 0.3276 0.26000005 0.3346 C 0.25950006 0.3373 0.25950006 0.3402 0.26000005 0.341 C 0.2613 0.3429 0.2667 0.34 0.2708 0.335 L 0.2708 0.335 Z M 0.0767 0.2325 C 0.0797 0.2274 0.0797 0.2231 0.0768 0.2207 C 0.073800005 0.2182 0.07 0.2199 0.07 0.2237 C 0.07 0.2254 0.0687 0.2296 0.067 0.233 C 0.065400004 0.2364 0.0644 0.23969999 0.0648 0.2403 C 0.0661 0.2423 0.0741 0.237 0.0767 0.2325 Z M -0.017 0.2157 C -0.017 0.2146 -0.0183 0.2125 -0.0198 0.2111 C -0.0254 0.2061 -0.0243 0.1947 -0.0178 0.1893 C -0.014599999 0.1866 -0.0162 0.1847 -0.021699999 0.1847 C -0.027499998 0.1847 -0.034999996 0.19219999 -0.034999996 0.1981 C -0.034999996 0.2046 -0.030699996 0.2115 -0.024699997 0.2146 C -0.0181 0.2182 -0.017 0.2183 -0.017 0.2157 Z M 0.0797 0.1974 C 0.0781 0.1944 0.0753 0.191 0.0734 0.18980001 C 0.070199996 0.1877 0.07 0.1878 0.07 0.1913 C 0.07 0.1972 0.0727 0.2027 0.0764 0.2041 C 0.0817 0.2061 0.083 0.2035 0.0797 0.1974 Z M 0.0677 0.1418 C 0.0703 0.135 0.060999997 0.1309 0.0559 0.1366 C 0.0537 0.139 0.0536 0.14 0.0551 0.1419 C 0.0576 0.1449 0.0665 0.1449 0.0677 0.1418 Z"/>
<path id="ls" d="M 0.134 0.87 C 0.13350001 0.8687 0.1331 0.866 0.1331 0.8641 C 0.1331 0.8601 0.1261 0.8538 0.123 0.85499996 C 0.1206 0.85589993 0.11350001 0.8526 0.110700004 0.84919995 C 0.108200006 0.8461 0.1018 0.8461999 0.0983 0.84929997 C 0.0957 0.85169995 0.0956 0.8515 0.0956 0.8466 C 0.0956 0.8438 0.0965 0.8401 0.0976 0.8385 S 0.099599995 0.8323 0.099599995 0.8284 C 0.099599995 0.8234 0.100499995 0.81990004 0.102699995 0.8169 C 0.1065 0.8119 0.1059 0.8108 0.0991 0.8108 C 0.0963 0.8108 0.0941 0.8101 0.0941 0.8093 C 0.0941 0.8067 0.1 0.8018 0.1031 0.8018 C 0.1047 0.8018 0.1083 0.7995 0.1111 0.7967 C 0.118700005 0.7891 0.1251 0.7875 0.1333 0.791 C 0.13690001 0.79260004 0.1421 0.7963 0.1448 0.7993 C 0.1506 0.8058 0.15560001 0.80730003 0.1638 0.8051 C 0.1672 0.80420005 0.1717 0.80380005 0.17390001 0.8043 C 0.17740001 0.805 0.17860001 0.80410004 0.18290001 0.7981 C 0.1905 0.7874 0.19450001 0.7756 0.19450001 0.7638 C 0.19460002 0.74990004 0.19090001 0.7426 0.18160002 0.7386 C 0.17540002 0.73590004 0.17420001 0.73590004 0.16780002 0.7378 C 0.16400002 0.739 0.15610002 0.7421 0.15030003 0.7447 C 0.14160003 0.7487 0.13840002 0.7494 0.13150002 0.7489 L 0.12320002 0.7483 L 0.11930002 0.7546 C 0.11620002 0.75949997 0.11310002 0.76199996 0.10510002 0.7658 C 0.09260002 0.7717 0.08960002 0.7742 0.08960002 0.7787 C 0.08960002 0.78139997 0.08900002 0.782 0.08700002 0.7812 C 0.07950002 0.7786 0.07320002 0.7676 0.07310002 0.7573 L 0.07310002 0.7511 L 0.065700024 0.7504 C 0.061600026 0.75 0.056600023 0.7486 0.054600023 0.7473 C 0.049800023 0.74420005 0.045400023 0.7328 0.046800025 0.72720003 L 0.047900025 0.72300005 L 0.049900025 0.7278001 C 0.052300025 0.73350006 0.056100026 0.7358001 0.063100025 0.7358001 C 0.073600024 0.7358001 0.07750002 0.7251001 0.07260002 0.7100001 C 0.06610002 0.6901001 0.06420002 0.6828001 0.06240002 0.6713001 C 0.06020002 0.6572001 0.05980002 0.6350001 0.06150002 0.6253001 C 0.06250002 0.6198001 0.06220002 0.6188001 0.05900002 0.6167001 C 0.05700002 0.61540014 0.05090002 0.61360013 0.04540002 0.6127001 C 0.007900018 0.6067001 -0.021699984 0.63800013 -0.017599981 0.6794001 C -0.016399981 0.6920001 -0.014899981 0.6952001 -0.010499981 0.6953001 C -0.006499981 0.6954001 -0.0029999814 0.6978001 -6.999811E-4 0.70230013 C 0.004200019 0.7115001 -3.999811E-4 0.7183001 -0.022499982 0.7349001 C -0.033099983 0.74290013 -0.035299983 0.7477001 -0.030899983 0.7536001 C -0.026399983 0.7596001 -0.023699984 0.7608001 -0.018499982 0.75880015 C -0.011199981 0.75600016 -0.013199981 0.75960016 -0.020899981 0.76310015 C -0.02919998 0.76680017 -0.03589998 0.76600015 -0.04249998 0.7604002 C -0.047899984 0.7558002 -0.050999984 0.7562002 -0.05519998 0.76180017 C -0.057699982 0.7652002 -0.05829998 0.7680002 -0.05809998 0.7751002 C -0.05779998 0.78440017 -0.05899998 0.78500015 -0.06269998 0.7777002 C -0.06359998 0.77580017 -0.06519998 0.7741002 -0.06609998 0.7738002 C -0.06849998 0.7730002 -0.07279998 0.7802002 -0.076499976 0.7914002 L -0.07979998 0.8012002 L -0.08219998 0.7954002 C -0.08349998 0.7922002 -0.08459999 0.7879002 -0.08459999 0.7858002 C -0.08459999 0.7826002 -0.084999986 0.78230023 -0.08679999 0.7839002 C -0.087999985 0.7849002 -0.091099985 0.7894002 -0.09359999 0.7937002 C -0.10179999 0.8081002 -0.11749999 0.8199002 -0.12849998 0.8199002 C -0.13069999 0.8199002 -0.13099998 0.8208002 -0.13019998 0.8257002 C -0.12899998 0.8332002 -0.13129999 0.8374002 -0.13829999 0.8404002 C -0.14139998 0.8417002 -0.14519998 0.8449002 -0.14689998 0.8475002 C -0.15109998 0.8540002 -0.15509999 0.85450023 -0.15509999 0.8486002 C -0.15509999 0.84480023 -0.15619999 0.8434002 -0.16179998 0.8401002 C -0.16549999 0.83800024 -0.16979998 0.8339002 -0.17139998 0.83120024 C -0.17429999 0.82630026 -0.17449997 0.82620025 -0.18089998 0.82760024 C -0.18449998 0.82840025 -0.19059998 0.83010024 -0.19449998 0.83130026 C -0.20249999 0.8339003 -0.20879999 0.83310026 -0.21619998 0.8286003 C -0.22099999 0.8257003 -0.22099999 0.8257003 -0.22389998 0.8286003 C -0.22679998 0.8315003 -0.22679998 0.8315003 -0.22759998 0.8285003 C -0.22799999 0.82690024 -0.22759998 0.8218003 -0.22669998 0.81730026 C -0.22499998 0.8092003 -0.22499998 0.8091003 -0.22939998 0.80550027 C -0.23429997 0.80150026 -0.23899998 0.80080026 -0.24179998 0.80360025 C -0.24449998 0.8063002 -0.24409997 0.79580027 -0.24129999 0.79210025 C -0.24009998 0.7905002 -0.23909998 0.78780025 -0.23909998 0.78600025 S -0.23849998 0.7822003 -0.23779997 0.78140026 S -0.23599997 0.77850026 -0.23539998 0.77660024 C -0.23459998 0.7739003 -0.23499997 0.7732002 -0.23749998 0.7732002 C -0.24169998 0.7732002 -0.24139999 0.77080023 -0.23679999 0.7668002 C -0.23469998 0.7650002 -0.23119998 0.7617002 -0.22889999 0.7596002 C -0.22059998 0.75180024 -0.21629998 0.7501002 -0.20619999 0.7505002 C -0.20229998 0.7507002 -0.19099998 0.7614002 -0.19099998 0.7650002 C -0.19099998 0.7681002 -0.18469998 0.7692002 -0.17429999 0.7681002 C -0.16749999 0.7673002 -0.16229999 0.7678002 -0.15289998 0.7702002 C -0.14169998 0.7730002 -0.13989998 0.7731002 -0.13529998 0.7712002 C -0.13249998 0.77000016 -0.12899998 0.76780015 -0.12759998 0.7663002 C -0.123699985 0.7620002 -0.11939999 0.7507002 -0.11819998 0.7417002 C -0.11689998 0.7321002 -0.11359998 0.7202002 -0.11049998 0.7145002 C -0.105899975 0.7059002 -0.109899975 0.7048002 -0.12069998 0.7116002 C -0.12779997 0.71610016 -0.13669997 0.7192002 -0.14209998 0.7191002 C -0.14489998 0.7191002 -0.14479998 0.7188002 -0.14129998 0.71610016 C -0.13919997 0.7145001 -0.13649997 0.7123002 -0.13519998 0.71130013 C -0.13269998 0.70930016 -0.12719998 0.7011001 -0.12799998 0.70060015 C -0.12829998 0.7004002 -0.13189998 0.6994001 -0.13599998 0.69840014 C -0.14439997 0.69630015 -0.15019998 0.6922001 -0.14489998 0.6922001 C -0.14009997 0.6922001 -0.13289998 0.6832001 -0.12919998 0.6727001 C -0.12679999 0.6656001 -0.12419998 0.6614001 -0.119699985 0.65740013 L -0.113599986 0.65180016 L -0.11729999 0.65040016 C -0.12389999 0.64790016 -0.12699999 0.6430002 -0.12699999 0.6351002 C -0.12699999 0.6261002 -0.12219999 0.6201002 -0.11509999 0.62020016 L -0.110499986 0.62020016 L -0.11459999 0.62330014 C -0.1226 0.629 -0.1184 0.6426 -0.1089 0.6426 C -0.1058 0.6426 -0.0951 0.6333 -0.0951 0.6306 C -0.0951 0.6299 -0.0914 0.62149996 -0.087 0.612 C -0.068299994 0.5724 -0.052799996 0.5554 -0.0246 0.5439 C -0.0157 0.5403 0.0045000017 0.5373 0.016600002 0.53790003 C 0.023900002 0.53830004 0.024000002 0.5382 0.025400002 0.53300005 C 0.026200002 0.53010005 0.027900001 0.52650005 0.029200003 0.52500004 C 0.031500004 0.5224 0.031400003 0.52210003 0.027900003 0.51930004 C 0.025900003 0.5177 0.018600002 0.51370007 0.011900002 0.5105001 C -0.0014999975 0.5041001 -0.008199997 0.49720007 -0.019799998 0.47780007 C -0.022899998 0.47270006 -0.026299998 0.46840006 -0.027299998 0.46840006 C -0.028399998 0.46840006 -0.0312 0.46940005 -0.0336 0.47060007 C -0.0382 0.47300008 -0.0561 0.47550008 -0.0561 0.47370008 C -0.0561 0.47310007 -0.0547 0.47120008 -0.0531 0.46940008 C -0.051400002 0.46760008 -0.0494 0.46350008 -0.0485 0.4603001 C -0.0438 0.44300008 -0.0582 0.46080008 -0.0656 0.4815001 C -0.0678 0.4876001 -0.0722 0.4973001 -0.0754 0.5031001 C -0.080800004 0.5129001 -0.081300005 0.5134001 -0.082200006 0.5097001 C -0.083500005 0.5046001 -0.0864 0.5047001 -0.088700004 0.5100001 C -0.089700006 0.51230013 -0.0943 0.5185001 -0.0988 0.5239001 C -0.103300005 0.5292001 -0.1071 0.53450006 -0.1071 0.5355001 S -0.1078 0.5374001 -0.108600006 0.5374001 S -0.11010001 0.5341001 -0.11010001 0.53000015 C -0.11010001 0.5259001 -0.110800005 0.52210015 -0.111700006 0.5216001 C -0.112600006 0.5211001 -0.12150001 0.52860016 -0.1316 0.5384001 C -0.1454 0.55180013 -0.1515 0.5567001 -0.15650001 0.5584001 C -0.1614 0.5600001 -0.16360001 0.5617001 -0.165 0.5651001 C -0.16800001 0.57220006 -0.17650001 0.5795001 -0.18360001 0.58110005 C -0.19010001 0.58260006 -0.20070001 0.58080006 -0.20250002 0.57790005 C -0.20400001 0.5755001 -0.20860001 0.5763 -0.21150002 0.57940006 C -0.21530002 0.58360004 -0.21680002 0.58190006 -0.21680002 0.57360005 C -0.21680002 0.56960005 -0.21750002 0.56430006 -0.21840002 0.56170005 C -0.21970002 0.5579001 -0.22090001 0.55700004 -0.22430001 0.55700004 C -0.22730002 0.55700004 -0.23020001 0.55530006 -0.23390001 0.5515 C -0.23900001 0.5463 -0.23940001 0.5461 -0.24340001 0.5481 C -0.2457 0.5492 -0.24800001 0.5504 -0.2486 0.5507 C -0.2505 0.5516 -0.24980001 0.546 -0.2475 0.5414 C -0.2463 0.53900003 -0.2453 0.5345 -0.2453 0.5314 C -0.2453 0.52390003 -0.24319999 0.5187 -0.2384 0.51420003 C -0.2338 0.50990003 -0.2347 0.50740004 -0.2409 0.50740004 C -0.2475 0.50740004 -0.2462 0.50500005 -0.2382 0.50200003 C -0.23429999 0.50060004 -0.2304 0.49860004 -0.2296 0.49760002 C -0.2268 0.4943 -0.2215 0.49230003 -0.2153 0.49230003 C -0.2077 0.49230003 -0.20429999 0.49400005 -0.19639999 0.5016 C -0.19129999 0.5065 -0.18919998 0.50750005 -0.18399999 0.5076 C -0.17199999 0.5078 -0.16169998 0.4973 -0.14789999 0.4709 C -0.13759999 0.4512 -0.13449998 0.4465 -0.12539998 0.4365 C -0.12119998 0.43190002 -0.11769998 0.4277 -0.11769998 0.4273 C -0.11769998 0.4269 -0.11909998 0.4262 -0.12069998 0.4258 C -0.12399998 0.4249 -0.12479998 0.4217 -0.121799976 0.4217 C -0.12069997 0.4217 -0.11749998 0.4192 -0.11449998 0.4161 C -0.11009998 0.4115 -0.10869998 0.40829998 -0.10659998 0.3985 C -0.10519998 0.3919 -0.10339998 0.3858 -0.10249998 0.3847 C -0.101499975 0.3834 -0.101499975 0.3825 -0.10269998 0.3818 C -0.10369998 0.3812 -0.10709998 0.3833 -0.11069998 0.3867 C -0.12269998 0.3982 -0.13459998 0.4027 -0.14319998 0.3991 C -0.14749998 0.3973 -0.14929998 0.3946 -0.14609998 0.3946 C -0.14519998 0.3946 -0.14129998 0.3916 -0.13729998 0.3879 C -0.12939999 0.3805 -0.12269998 0.3691 -0.124099985 0.3654 C -0.124599986 0.36409998 -0.12919998 0.361 -0.13439998 0.35849997 C -0.14519998 0.35329998 -0.14809997 0.35159996 -0.15459998 0.3469 C -0.16119999 0.34219998 -0.16259998 0.3426 -0.16259998 0.3495 C -0.16259998 0.3557 -0.16309997 0.3569 -0.17099997 0.3693 L -0.17569998 0.3766 L -0.17819998 0.3704 C -0.17959997 0.367 -0.18349998 0.36040002 -0.18699998 0.3558 L -0.19339998 0.3474 V 0.33040002 V 0.31340003 L -0.20059998 0.30720004 L -0.20779999 0.30100006 L -0.21229999 0.30530006 C -0.21629998 0.30910006 -0.2179 0.30960006 -0.22609998 0.30970007 C -0.23119998 0.30970007 -0.23689999 0.31060007 -0.23869999 0.31160006 C -0.24269998 0.31390005 -0.2507 0.31400007 -0.25199997 0.31180006 C -0.25249997 0.31090006 -0.25149998 0.30860007 -0.24969998 0.30670005 L -0.24639998 0.30320004 L -0.2503 0.29750004 C -0.2528 0.29380006 -0.25419998 0.28970003 -0.25419998 0.28610003 C -0.25419998 0.28220004 -0.25489998 0.28040004 -0.25629997 0.28040004 C -0.26029998 0.28040004 -0.26879996 0.27070004 -0.27059996 0.26420003 C -0.27219996 0.25830004 -0.27269995 0.25790003 -0.27739996 0.25790003 C -0.28179997 0.25790003 -0.28229997 0.25750002 -0.28159997 0.25470003 C -0.28109998 0.25290003 -0.27829996 0.25050002 -0.27509996 0.24910003 C -0.26889998 0.24640003 -0.26139995 0.23720002 -0.25959995 0.23010004 C -0.25899994 0.22760004 -0.25739995 0.22440003 -0.25599995 0.22280003 C -0.25359994 0.22020003 -0.25369996 0.21980003 -0.25769997 0.21670003 C -0.26099998 0.21410003 -0.26149997 0.21300003 -0.25989997 0.21180004 C -0.25599998 0.20880003 -0.25239998 0.20840004 -0.24739997 0.21050003 C -0.24289997 0.21240003 -0.24169996 0.21240003 -0.23759997 0.21030003 C -0.23449998 0.20870003 -0.23099998 0.20830002 -0.22699997 0.20890003 C -0.22069997 0.20990004 -0.21889997 0.20750004 -0.22339997 0.20380004 C -0.22459997 0.20280004 -0.22569996 0.20130004 -0.22569996 0.20060004 C -0.22569996 0.19820005 -0.21719997 0.19920005 -0.21349996 0.20210004 C -0.21149996 0.20360003 -0.20699996 0.20530003 -0.20349996 0.20570004 C -0.19599997 0.20670004 -0.19079995 0.20980003 -0.18709996 0.21540004 C -0.18499996 0.21860003 -0.18449996 0.22210003 -0.18489996 0.23310004 C -0.18529996 0.24640004 -0.18519996 0.24700004 -0.18049996 0.25340003 C -0.17789996 0.25700003 -0.17359996 0.26190004 -0.17109996 0.26430002 C -0.16539995 0.2696 -0.15049995 0.2768 -0.14239997 0.27830002 C -0.13909997 0.27890003 -0.13169996 0.2813 -0.12589997 0.28370002 C -0.11619997 0.28770003 -0.11479997 0.28790003 -0.10829997 0.28620002 C -0.10239997 0.2847 -0.10029997 0.28480002 -0.09509997 0.2869 L -0.08889997 0.28930002 L -0.08659997 0.28370002 C -0.08359997 0.27650002 -0.07929997 0.2718 -0.07179997 0.268 C -0.061499972 0.2626 -0.039499972 0.26410002 -0.02069997 0.2714 C -0.0083 0.2767 0.0147 0.2838 0.0181 0.2838 C 0.023400001 0.2838 0.0325 0.2795 0.0325 0.277 C 0.0325 0.27600002 0.0278 0.27220002 0.022 0.2687 C 0.013 0.2633 0.0101 0.2623 0.0021000002 0.2619 L -0.0072999997 0.2615 L -0.0069999998 0.255 C -0.0063 0.242 9.0E-4 0.2327 0.0104 0.2327 C 0.0124 0.2327 0.0154 0.231 0.0172 0.2289 C 0.0215 0.2239 0.0236 0.2241 0.0225 0.2295 C 0.021200001 0.2359 0.0241 0.2364 0.0286 0.2304 C 0.0308 0.22749999 0.0332 0.2252 0.0339 0.2252 C 0.0346 0.2252 0.0354 0.2277 0.0357 0.2308 C 0.0365 0.241 0.048 0.2433 0.0553 0.2348 C 0.058900002 0.2306 0.0628 0.21949999 0.0614 0.2172 C 0.0603 0.2154 0.0347 0.21679999 0.029399998 0.2189 C 0.018199999 0.2234 0.0014999993 0.2269 -0.008900002 0.2269 C -0.022600003 0.227 -0.0318 0.22299999 -0.038900003 0.21419999 C -0.0428 0.2093 -0.043500002 0.20719999 -0.043400005 0.19989999 C -0.043400005 0.18679999 -0.036700003 0.17799999 -0.025500005 0.17629999 C -0.018200004 0.17519999 -0.012400005 0.17719999 -0.007400004 0.18259999 C -0.002800004 0.18759999 -0.002600004 0.1918 -0.006900004 0.1924 C -0.008700004 0.1927 -0.011500005 0.19469999 -0.013100004 0.1969 C -0.015900005 0.2007 -0.016000004 0.2012 -0.013600004 0.2048 C -0.009200004 0.21149999 -0.004300004 0.2114 0.030899998 0.2033 C 0.0371 0.2019 0.0466 0.2003 0.0519 0.1998 S 0.061499998 0.19849999 0.0614 0.1981 C 0.0613 0.1977 0.0607 0.1955 0.0601 0.1932 C 0.058000002 0.18480001 0.0463 0.18030001 0.0381 0.18470001 C 0.0357 0.18600002 0.0352 0.18730001 0.0359 0.19070001 C 0.0364 0.1932 0.0361 0.19510001 0.0352 0.19510001 C 0.0328 0.19510001 0.0263 0.18800001 0.0263 0.18530001 C 0.0263 0.18380001 0.0253 0.18310001 0.0237 0.1834 C 0.0219 0.18370001 0.0208 0.1858 0.0203 0.18990001 L 0.0195 0.19590001 L 0.0154 0.19180001 C 0.0131 0.18950002 0.011299999 0.1861 0.011299999 0.18400002 C 0.011299999 0.18190001 0.009399999 0.17840001 0.0067999996 0.17580001 L 0.0022999998 0.17130001 L 0.0031999997 0.15630001 C 0.0039999997 0.14260001 0.0037999996 0.14080001 8.9999964E-4 0.13610001 C -0.0034000005 0.12920001 -0.0032000004 0.12370001 0.0014999997 0.11930001 C 0.0064999997 0.11460001 0.011499999 0.113800004 0.0286 0.11500001 L 0.0429 0.11590001 L 0.0477 0.11130001 C 0.0546 0.10470001 0.059 0.104100004 0.0717 0.10790001 C 0.0777 0.10970001 0.0853 0.11190001 0.088599995 0.11280001 S 0.096099995 0.11530001 0.098 0.11650001 C 0.1006 0.11810001 0.1021 0.11820001 0.1046 0.11680001 C 0.1065 0.11580001 0.110599995 0.11550001 0.1148 0.11600001 C 0.1253 0.11740001 0.1311 0.11560001 0.1374 0.10920001 C 0.1436 0.10280001 0.147 0.102000006 0.14930001 0.10630001 C 0.15300001 0.11320001 0.149 0.13010001 0.14080001 0.14150001 C 0.13610001 0.14800002 0.13580002 0.149 0.13780001 0.15130001 C 0.1421 0.15610002 0.1463 0.16950001 0.1463 0.17840001 C 0.1463 0.1869 0.1464 0.18720001 0.1515 0.1897 C 0.1584 0.193 0.1639 0.20050001 0.1652 0.20830001 C 0.1662 0.21450001 0.1642 0.21730001 0.16229999 0.2124 C 0.16099998 0.20910001 0.15579998 0.2097 0.15319999 0.21350001 C 0.14869998 0.21990001 0.15079999 0.2414 0.15679999 0.2494 C 0.16049999 0.2545 0.16059999 0.2552 0.15749998 0.2552 C 0.15309998 0.2552 0.14679998 0.2611 0.14419998 0.2674 C 0.14119998 0.2749 0.14209998 0.2805 0.14739998 0.2861 C 0.15039998 0.2894 0.15089998 0.2908 0.14959997 0.2926 C 0.14799997 0.2949 0.14709997 0.2967 0.13939998 0.3133 C 0.13509998 0.32250002 0.12879997 0.3283 0.12159997 0.3296 C 0.116899975 0.3305 0.11639997 0.33110002 0.11639997 0.3355 C 0.11639997 0.3422 0.11309998 0.3495 0.106799975 0.3571 C 0.10389998 0.36060002 0.09999997 0.3661 0.09819998 0.3693 C 0.094499975 0.37600002 0.09239998 0.3768 0.09239998 0.3718 C 0.09239998 0.36990002 0.089999974 0.3657 0.08709998 0.3624 L 0.08189998 0.35639998 L 0.078199975 0.36089998 C 0.071599975 0.36889997 0.068499975 0.37739998 0.068499975 0.38729998 C 0.068499975 0.39859998 0.07179998 0.4039 0.080399975 0.40649998 C 0.08629998 0.40829998 0.08889998 0.40769997 0.098899975 0.40249997 C 0.10079998 0.4015 0.10009997 0.41399997 0.09789997 0.41929996 C 0.095299974 0.42549995 0.08909997 0.42999995 0.079999976 0.43229997 C 0.07609998 0.43329996 0.07299998 0.43459997 0.07299998 0.43529996 S 0.075999975 0.44139996 0.07969998 0.44739997 C 0.087399974 0.45999998 0.092299975 0.47249997 0.09699998 0.49159998 C 0.10109998 0.50829995 0.10659998 0.5176 0.12339998 0.5365 C 0.13319997 0.54749995 0.13699998 0.55079997 0.13909999 0.55009997 C 0.14309998 0.5488 0.15259999 0.5542 0.17019999 0.56759995 C 0.1872 0.58049995 0.19399999 0.5832 0.20599999 0.58199996 C 0.22449999 0.58009994 0.23679999 0.56469995 0.23449999 0.5459 C 0.23229998 0.5275 0.219 0.5117 0.19019999 0.49359998 C 0.16799998 0.47959998 0.15239999 0.4644 0.14419998 0.44879997 C 0.13829999 0.43759996 0.13829999 0.43749997 0.13829999 0.42029998 C 0.13829999 0.40649998 0.13879998 0.40199998 0.14099999 0.39799997 C 0.14349999 0.39329997 0.14359999 0.39249998 0.1414 0.38609996 C 0.1364 0.37129995 0.14019999 0.35549995 0.153 0.33839998 C 0.1674 0.31909996 0.1683 0.31719998 0.1682 0.30459997 C 0.1681 0.29719996 0.1672 0.29169998 0.1656 0.28849998 C 0.16250001 0.28249997 0.16250001 0.28199998 0.1658 0.28199998 C 0.16860001 0.28199998 0.1825 0.2905 0.1826 0.2923 C 0.1826 0.29279998 0.1843 0.29529998 0.18630001 0.2977 C 0.18930002 0.30139998 0.1903 0.30179998 0.1922 0.3002 C 0.19340001 0.2992 0.1949 0.2963 0.1955 0.2938 C 0.1964 0.2899 0.197 0.28939998 0.2001 0.2902 C 0.2054 0.2915 0.2192 0.2871 0.22330001 0.2827 C 0.22600001 0.2798 0.22700001 0.2768 0.2274 0.2696 C 0.2279 0.2611 0.22760001 0.2597 0.22330001 0.2539 C 0.22070001 0.25039998 0.2187 0.2472 0.2187 0.24679999 C 0.2187 0.24469998 0.22940001 0.24649999 0.2363 0.2497 C 0.24340001 0.253 0.24810001 0.25779998 0.2541 0.2679 C 0.2553 0.2699 0.2577 0.2706 0.2633 0.27069998 C 0.2722 0.27079996 0.2783 0.26799998 0.2812 0.26229998 C 0.2836 0.25759998 0.2841 0.24369998 0.2818 0.24229999 C 0.2785 0.24029998 0.2803 0.23699999 0.2848 0.23699999 C 0.29209998 0.23699999 0.3033 0.24899998 0.3065 0.2602 C 0.3089 0.2685 0.3089 0.2699 0.3067 0.2787 C 0.304 0.2898 0.2967 0.3006 0.28779998 0.3067 C 0.28179997 0.3109 0.2817 0.311 0.28269997 0.3181 C 0.28419998 0.32930002 0.28239998 0.3353 0.27569997 0.34170002 L 0.26969996 0.3474 L 0.27349997 0.351 C 0.28069997 0.3578 0.28399998 0.36920002 0.28029996 0.375 C 0.27909997 0.3769 0.27809995 0.3767 0.27299997 0.3739 C 0.25959998 0.3664 0.24509998 0.3708 0.22619997 0.3881 C 0.21009997 0.4028 0.20569997 0.40579998 0.19469997 0.4096 C 0.18659997 0.41239998 0.18299997 0.41279998 0.17379998 0.412 L 0.16269998 0.4111 L 0.16359998 0.421 C 0.16489999 0.4345 0.17199998 0.44640002 0.18289998 0.4535 C 0.18919998 0.4576 0.19009998 0.4568 0.19009998 0.4478 C 0.19009998 0.4373 0.19459999 0.4277 0.19959998 0.42760003 C 0.20029998 0.42760003 0.20049998 0.42930004 0.19989999 0.4313 C 0.19859998 0.4365 0.20309998 0.4496 0.20859998 0.45670003 C 0.21109998 0.45990002 0.21999998 0.46760002 0.22829999 0.47370002 C 0.2366 0.47980002 0.24629998 0.48770002 0.24989998 0.4911 C 0.2564 0.4973 0.2622 0.5065 0.2622 0.51060003 C 0.2622 0.51280004 0.267 0.51430005 0.2787 0.5155 C 0.2846 0.5161 0.2862 0.5156 0.2911 0.5115 C 0.2958 0.5076 0.2967 0.5059 0.2967 0.5011 C 0.2967 0.4979 0.2957 0.4946 0.2945 0.4935 C 0.2933 0.4925 0.2926 0.49109998 0.29299998 0.4904 C 0.2943 0.4883 0.3029 0.49249998 0.3067 0.4969 C 0.3132 0.5046 0.3108 0.5198 0.30159998 0.5293 C 0.29989997 0.5311 0.3002 0.5318 0.3042 0.53429997 C 0.3089 0.5373 0.3103 0.5398 0.3069 0.5394 C 0.30449998 0.5391 0.3041 0.541 0.3051 0.5467 C 0.3056 0.5492 0.3051 0.5532 0.3041 0.5557 L 0.30220002 0.5602 L 0.3017 0.5571 C 0.3007 0.5509 0.2956 0.5466 0.2892 0.5466 C 0.2824 0.5466 0.2788 0.5498 0.2788 0.5557 C 0.2788 0.5596 0.2793 0.5601 0.2834 0.5601 C 0.2924 0.5601 0.2978 0.5658 0.296 0.5737 C 0.2948 0.579 0.2935 0.5793 0.2915 0.5747 C 0.289 0.569 0.2855 0.5699 0.2798 0.5778 C 0.2756 0.5836 0.2728 0.5858 0.2668 0.5879 C 0.2609 0.59 0.2593 0.5912 0.2602 0.593 C 0.2617 0.5962 0.26139998 0.6028 0.2592 0.6125 C 0.2574 0.6206 0.2576 0.62740004 0.25980002 0.63240004 C 0.2619 0.6373 0.2578 0.6352 0.24810001 0.62640005 C 0.23640001 0.6158001 0.23090002 0.6140001 0.21040002 0.6140001 C 0.20180002 0.6140001 0.19120002 0.6133001 0.18700002 0.61240005 C 0.18280002 0.6115001 0.17900002 0.61100006 0.17870001 0.61130005 C 0.17840001 0.61160004 0.17900002 0.61370003 0.18020001 0.6158 C 0.18130001 0.61800003 0.18270001 0.6218 0.18320002 0.62420005 C 0.18450002 0.63030005 0.19170001 0.6380001 0.19620001 0.6380001 C 0.19980001 0.6380001 0.19980001 0.6381001 0.19680001 0.64040005 C 0.19450001 0.64220005 0.1913 0.64260006 0.18370001 0.64210004 L 0.17360002 0.64140004 V 0.64720005 C 0.17360002 0.6528 0.17380002 0.65300006 0.17870001 0.65300006 C 0.19110002 0.65300006 0.20340002 0.66080004 0.20770001 0.67140007 C 0.21010001 0.67740005 0.21160002 0.6779001 0.21800001 0.6755001 C 0.2202 0.6747001 0.22780001 0.6738001 0.23480001 0.6736001 L 0.24750002 0.6733001 L 0.2531 0.6668001 L 0.2587 0.6603001 L 0.26040003 0.6651001 C 0.26180002 0.6690001 0.26150003 0.6713001 0.25920004 0.67750007 C 0.25760004 0.68170005 0.25450003 0.6870001 0.25230002 0.6894001 L 0.24830003 0.69360006 L 0.25380003 0.69970006 C 0.25680003 0.70300007 0.25930002 0.70710003 0.25930002 0.70870006 C 0.25930002 0.7103001 0.26000002 0.7120001 0.26080003 0.71250004 S 0.26230004 0.7153 0.26230004 0.71760005 C 0.26230004 0.7199001 0.26360005 0.7235001 0.26530004 0.72560006 C 0.26690003 0.72770005 0.26790005 0.7297001 0.26740003 0.73020005 S 0.26290002 0.7307001 0.25840002 0.73020005 C 0.24940002 0.7293001 0.24760002 0.7314001 0.25320002 0.7365 C 0.25900003 0.7418 0.26510003 0.76430005 0.26070002 0.76430005 C 0.25980002 0.76430005 0.2576 0.76330006 0.25570002 0.762 C 0.25250003 0.75990003 0.25190002 0.76000005 0.24860002 0.7626 C 0.24550003 0.7651 0.24510002 0.7667 0.24530002 0.7743 C 0.24550003 0.7833 0.24870002 0.793 0.25290003 0.7978 C 0.25610003 0.8014 0.25370005 0.80370003 0.24540004 0.80480003 C 0.24010004 0.80550003 0.23890004 0.80630004 0.23850004 0.80920005 C 0.23760004 0.81570005 0.23980005 0.82290006 0.24450004 0.82820004 L 0.24910004 0.8334001 H 0.24250004 C 0.23740004 0.8334001 0.23440003 0.83230007 0.22950004 0.82870007 C 0.22530004 0.8256001 0.22120003 0.82390004 0.21760005 0.8238001 C 0.21240005 0.8236001 0.21210004 0.8239001 0.21210004 0.8281001 C 0.21210004 0.8306001 0.21150005 0.8335001 0.21090004 0.8345001 C 0.20850004 0.8382001 0.20000003 0.8415001 0.19110003 0.84230006 L 0.18210003 0.8431001 L 0.18260002 0.84880006 C 0.18400002 0.86500007 0.16900001 0.87450004 0.15130001 0.8687001 C 0.14380002 0.8662001 0.13780001 0.8672001 0.13780001 0.8709001 C 0.1376 0.8733 0.135 0.8726 0.134 0.87 L 0.134 0.87 Z"/>
</defs>
<g>
<rect x="0" y="0" width="540" height="360" class="yellow"/>
<use xlink:href="#ls" transform="translate(180 0) scale(360 360) rotate(0)" class="black"/>
<use xlink:href="#lf" transform="translate(180 0) scale(360 360) rotate(0)" class="red"/>
</g>
</svg>
