<?xml version="1.0"?>
<svg xmlns="http://www.w3.org/2000/svg" xmlns:xlink="http://www.w3.org/1999/xlink" version="1.1" width="540" height="360" viewBox="0 0 540 360">
<!-- Generated by Kreative Vexillo v1.0 -->
<style>
.blue{fill:rgb(0,121,193);}
.green{fill:rgb(0,169,79);}
.white{fill:rgb(255,255,255);}
.yellow{fill:rgb(255,196,37);}
</style>
<defs>
<path id="star" d="M 0.0 -1.0 L 0.2245 -0.309 L 0.9511 -0.309 L 0.3633 0.118 L 0.5878 0.809 L 0.0 0.382 L -0.5878 0.809 L -0.3633 0.118 L -0.9511 -0.309 L -0.2245 -0.309 Z"/>
<clipPath id="clip0">
<rect x="0" y="0" width="540" height="360"/>
</clipPath>
</defs>
<g>
<path d="M 0 0 L 540 0 L 0 360 Z" class="blue"/>
<path d="M 540 0 L 540 360 L 0 360 Z" class="green"/>
<g clip-path="url(#clip0)">
<path d="M 530.0227 -14.9818 L -9.9773 345.0182 L 9.9773 374.9818 L 549.9773 14.9818 L 530.0227 -14.9818 Z" class="yellow"/>
</g>
<use xlink:href="#star" transform="translate(40.5 49.5) scale(36 36) rotate(0)" class="white"/>
<use xlink:href="#star" transform="translate(148.5 49.5) scale(36 36) rotate(0)" class="white"/>
<use xlink:href="#star" transform="translate(94.5 110.7) scale(36 36) rotate(0)" class="white"/>
<use xlink:href="#star" transform="translate(40.5 171.9) scale(36 36) rotate(0)" class="white"/>
<use xlink:href="#star" transform="translate(148.5 171.9) scale(36 36) rotate(0)" class="white"/>
</g>
</svg>
