<?xml version="1.0"?>
<svg xmlns="http://www.w3.org/2000/svg" xmlns:xlink="http://www.w3.org/1999/xlink" version="1.1" width="540" height="360" viewBox="0 0 540 360">
<!-- Generated by Kreative Vexillo v1.0 -->
<style>
.blue{fill:rgb(0,73,144);}
.ltblue{fill:rgb(80,145,205);}
.red{fill:rgb(227,24,55);}
.white{fill:rgb(255,255,255);}
.yellow{fill:rgb(255,210,0);}
</style>
<defs>
<path id="star" d="M 0.0 -1.0 L 0.2245 -0.309 L 0.9511 -0.309 L 0.3633 0.118 L 0.5878 0.809 L 0.0 0.382 L -0.5878 0.809 L -0.3633 0.118 L -0.9511 -0.309 L -0.2245 -0.309 Z"/>
<clipPath id="clip0">
<path d="M 0 0 L 0 14.4222 L 113.3667 90 L 113.3667 90 L 0 165.5778 L 0 180 L 21.6333 180 L 135 104.4222 L 135 104.4222 L 248.3667 180 L 270 180 L 270 165.5778 L 156.6333 90 L 156.6333 90 L 270 14.4222 L 270 0 L 248.3667 0 L 135 75.5778 L 135 75.5778 L 21.6333 0 Z"/>
</clipPath>
</defs>
<g>
<rect x="0" y="0" width="540" height="360" class="ltblue"/>
<g>
<rect x="0" y="0" width="270" height="180" class="blue"/>
<path d="M 0 0 L 0 21.6333 L 0 21.6333 L 102.55 90 L 102.55 90 L 0 158.3667 L 0 158.3667 L 0 180 L 32.45 180 L 135 111.6333 L 135 111.6333 L 237.55 180 L 270 180 L 270 158.3667 L 167.45 90 L 167.45 90 L 270 21.6333 L 270 0 L 237.55 0 L 135 68.3667 L 135 68.3667 L 135 68.3667 L 135 68.3667 L 32.45 0 Z" class="white"/>
<g clip-path="url(#clip0)">
<path d="M 0 0 L 135 90 L 0 90 Z" class="red"/>
<path d="M 270 0 L 135 90 L 135 0 Z" class="red"/>
<path d="M 0 180 L 135 90 L 135 180 Z" class="red"/>
<path d="M 270 180 L 135 90 L 270 90 Z" class="red"/>
</g>
<g>
<rect x="0" y="60" width="270" height="60" class="white"/>
<rect x="105" y="0" width="60" height="180" class="white"/>
</g>
<g>
<rect x="0" y="72" width="270" height="36" class="red"/>
<rect x="117" y="0" width="36" height="180" class="red"/>
</g>
</g>
<g>
<use xlink:href="#star" transform="translate(290.4028 324.5962) scale(22.5 22.5) rotate(0)" class="yellow"/>
<use xlink:href="#star" transform="translate(354.6115 302.7096) scale(22.5 22.5) rotate(180)" class="yellow"/>
<use xlink:href="#star" transform="translate(354.6115 229.5194) scale(22.5 22.5) rotate(180)" class="yellow"/>
<use xlink:href="#star" transform="translate(411.3137 284.2106) scale(22.5 22.5) rotate(180)" class="yellow"/>
<use xlink:href="#star" transform="translate(411.3137 124.9625) scale(22.5 22.5) rotate(180)" class="yellow"/>
<use xlink:href="#star" transform="translate(448.3987 234.0274) scale(22.5 22.5) rotate(0)" class="yellow"/>
<use xlink:href="#star" transform="translate(458.9676 103.2466) scale(22.5 22.5) rotate(180)" class="yellow"/>
<use xlink:href="#star" transform="translate(496.2762 192.9326) scale(22.5 22.5) rotate(0)" class="yellow"/>
<use xlink:href="#star" transform="translate(496.2762 52.4916) scale(22.5 22.5) rotate(0)" class="yellow"/>
</g>
</g>
</svg>
