<?xml version="1.0"?>
<svg xmlns="http://www.w3.org/2000/svg" xmlns:xlink="http://www.w3.org/1999/xlink" version="1.1" width="540" height="360" viewBox="0 0 540 360">
<!-- Generated by Kreative Vexillo v1.0 -->
<style>
.blue{fill:rgb(0,36,125);}
.red{fill:rgb(207,20,43);}
.white{fill:rgb(255,255,255);}
</style>
<defs>
<clipPath id="clip0">
<path d="M 0 0 L 0 28.8444 L 0 28.8444 L 226.7334 180 L 0 331.1556 L 0 331.1556 L 0 360 L 43.2666 360 L 270 208.8444 L 496.7334 360 L 540 360 L 540 331.1556 L 313.2666 180 L 540 28.8444 L 540 0 L 496.7334 0 L 270 151.1556 L 43.2666 0 Z"/>
</clipPath>
</defs>
<g>
<rect x="0" y="0" width="540" height="360" class="blue"/>
<path d="M 0 0 L 0 43.2666 L 205.1001 180 L 205.1001 180 L 0 316.7334 L 0 316.7334 L 0 360 L 64.8999 360 L 270 223.2666 L 270 223.2666 L 475.1001 360 L 540 360 L 540 316.7334 L 334.8999 180 L 540 43.2666 L 540 0 L 475.1 0 L 270 136.7334 L 270 136.7334 L 64.8999 0 Z" class="white"/>
<g clip-path="url(#clip0)">
<path d="M 0 0 L 270 180 L 0 180 Z" class="red"/>
<path d="M 540 0 L 270 180 L 270 0 Z" class="red"/>
<path d="M 0 360 L 270 180 L 270 360 Z" class="red"/>
<path d="M 540 360 L 270 180 L 540 180 Z" class="red"/>
</g>
<g>
<rect x="0" y="120" width="540" height="120" class="white"/>
<rect x="210" y="0" width="120" height="360" class="white"/>
</g>
<g>
<rect x="0" y="144" width="540" height="72" class="red"/>
<rect x="234" y="0" width="72" height="360" class="red"/>
</g>
</g>
</svg>
