<?xml version="1.0"?>
<svg xmlns="http://www.w3.org/2000/svg" xmlns:xlink="http://www.w3.org/1999/xlink" version="1.1" width="540" height="360" viewBox="0 0 540 360">
<!-- Generated by Kreative Vexillo v1.0 -->
<style>
.blue{fill:rgb(0,36,125);}
.red{fill:rgb(207,20,43);}
.white{fill:rgb(255,255,255);}
</style>
<defs>
<clipPath id="clip0">
<path d="M 0 0 L 0 14.1433 L 0 14.1433 L 99.562 90 L 0 165.8567 L 0 165.8567 L 0 180 L 18.563 180 L 118.125 104.1433 L 118.125 104.1433 L 217.687 180 L 236.25 180 L 236.25 165.8567 L 136.688 90 L 136.688 90 L 236.25 14.1433 L 236.25 0 L 217.687 0 L 118.125 75.8567 L 118.125 75.8567 L 118.125 75.8567 L 118.125 75.8567 L 118.125 75.8567 L 118.125 75.8567 L 18.563 0 Z"/>
</clipPath>
</defs>
<g>
<g>
<rect x="0" y="0" width="540" height="45" class="white"/>
<rect x="0" y="45" width="540" height="45" class="red"/>
<rect x="0" y="90" width="540" height="45" class="blue"/>
<rect x="0" y="135" width="540" height="45" class="white"/>
<rect x="0" y="180" width="540" height="45" class="red"/>
<rect x="0" y="225" width="540" height="45" class="blue"/>
<rect x="0" y="270" width="540" height="45" class="white"/>
<rect x="0" y="315" width="540" height="45" class="red"/>
</g>
<g>
<rect x="0" y="0" width="236.25" height="180" class="blue"/>
<path d="M 0 0 L 0 21.2149 L 0 21.2149 L 90.2805 90 L 90.2805 90 L 0 158.7851 L 0 180 L 27.8446 180 L 118.125 111.2149 L 208.4055 180 L 236.25 180 L 236.25 158.7851 L 145.9695 90 L 145.9695 90 L 236.25 21.2149 L 236.25 0 L 208.4055 0 L 118.125 68.7851 L 27.8445 0 Z" class="white"/>
<g clip-path="url(#clip0)">
<path d="M 0 0 L 118.125 90 L 0 90 Z" class="red"/>
<path d="M 236.25 0 L 118.125 90 L 118.125 0 Z" class="red"/>
<path d="M 0 180 L 118.125 90 L 118.125 180 Z" class="red"/>
<path d="M 236.25 180 L 118.125 90 L 236.25 90 Z" class="red"/>
</g>
<g>
<rect x="0" y="67.5" width="236.25" height="45" class="white"/>
<rect x="95.625" y="0" width="45" height="180" class="white"/>
</g>
<g>
<rect x="0" y="73.125" width="236.25" height="33.75" class="red"/>
<rect x="101.25" y="0" width="33.75" height="180" class="red"/>
</g>
</g>
</g>
</svg>
