<?xml version="1.0"?>
<svg xmlns="http://www.w3.org/2000/svg" xmlns:xlink="http://www.w3.org/1999/xlink" version="1.1" width="540" height="360" viewBox="0 0 540 360">
<!-- Generated by Kreative Vexillo v1.0 -->
<style>
.blue{fill:rgb(75,146,219);}
.green{fill:rgb(0,105,60);}
.white{fill:rgb(255,255,255);}
.yellow{fill:rgb(255,182,18);}
</style>
<defs>
<clipPath id="clip0">
<rect x="190" y="135" width="90" height="90"/>
</clipPath>
</defs>
<g>
<rect x="0" y="0" width="540" height="360" class="green"/>
<path d="M 0 145 L 150 145 L 150 0 L 270 0 L 270 95 L 540 95 L 540 215 L 320 215 L 320 360 L 200 360 L 200 265 L 0 265 Z" class="white"/>
<path d="M 0 155 L 160 155 L 160 0 L 260 0 L 260 105 L 540 105 L 540 205 L 310 205 L 310 360 L 210 360 L 210 255 L 0 255 Z" class="yellow"/>
<path d="M 0 175 L 180 175 L 180 0 L 240 0 L 240 125 L 540 125 L 540 185 L 290 185 L 290 360 L 230 360 L 230 235 L 0 235 Z" class="white"/>
<path d="M 0 185 L 190 185 L 230 225 L 0 225 Z" class="blue"/>
<path d="M 190 0 L 230 0 L 230 135 L 190 175 Z" class="blue"/>
<path d="M 540 135 L 540 175 L 280 175 L 240 135 Z" class="blue"/>
<path d="M 240 360 L 240 225 L 280 185 L 280 360 Z" class="blue"/>
<g clip-path="url(#clip0)">
<ellipse cx="190" cy="135" rx="40" ry="40" class="blue"/>
<ellipse cx="280" cy="135" rx="40" ry="40" class="blue"/>
<ellipse cx="190" cy="225" rx="40" ry="40" class="blue"/>
<ellipse cx="280" cy="225" rx="40" ry="40" class="blue"/>
</g>
</g>
</svg>
