<?xml version="1.0"?>
<svg xmlns="http://www.w3.org/2000/svg" xmlns:xlink="http://www.w3.org/1999/xlink" version="1.1" width="540" height="360" viewBox="0 0 540 360">
<!-- Generated by Kreative Vexillo v1.0 -->
<style>
.blue{fill:rgb(0,103,177);}
.red{fill:rgb(239,65,53);}
.white{fill:rgb(255,255,255);}
.yellow{fill:rgb(255,242,3);}
</style>
<defs>
<path id="star" d="M 0.0 -1.0 L 0.2245 -0.309 L 0.9511 -0.309 L 0.3633 0.118 L 0.5878 0.809 L 0.0 0.382 L -0.5878 0.809 L -0.3633 0.118 L -0.9511 -0.309 L -0.2245 -0.309 Z"/>
</defs>
<g>
<g>
<rect x="0" y="0" width="540" height="120" class="yellow"/>
<rect x="0" y="120" width="540" height="120" class="blue"/>
<rect x="0" y="240" width="540" height="120" class="red"/>
</g>
<g>
<use xlink:href="#star" transform="translate(174.1335 213.6511) scale(15 15) rotate(-72)" class="white"/>
<use xlink:href="#star" transform="translate(191.1914 181.9522) scale(15 15) rotate(-51.4286)" class="white"/>
<use xlink:href="#star" transform="translate(218.2998 158.2684) scale(15 15) rotate(-30.8571)" class="white"/>
<use xlink:href="#star" transform="translate(252.0015 145.6199) scale(15 15) rotate(-10.2857)" class="white"/>
<use xlink:href="#star" transform="translate(287.9985 145.6199) scale(15 15) rotate(10.2857)" class="white"/>
<use xlink:href="#star" transform="translate(321.7002 158.2684) scale(15 15) rotate(30.8571)" class="white"/>
<use xlink:href="#star" transform="translate(348.8086 181.9522) scale(15 15) rotate(51.4286)" class="white"/>
<use xlink:href="#star" transform="translate(365.8665 213.6511) scale(15 15) rotate(72)" class="white"/>
</g>
</g>
</svg>
