<?xml version="1.0"?>
<svg xmlns="http://www.w3.org/2000/svg" xmlns:xlink="http://www.w3.org/1999/xlink" version="1.1" width="540" height="360" viewBox="0 0 540 360">
<!-- Generated by Kreative Vexillo v1.0 -->
<style>
.blue{fill:rgb(0,0,204);}
.red{fill:rgb(255,0,0);}
.yellow{fill:rgb(255,255,0);}
</style>
<g>
<rect x="0" y="0" width="540" height="360" class="blue"/>
<path d="M 0 0 L 0 29.9538 L 0 29.9538 L 225.0693 180 L 0 330.0462 L 0 360 L 44.9307 360 L 270 209.9538 L 270 209.9538 L 270 209.9538 L 270 209.9538 L 270 209.9538 L 270 209.9538 L 495.0693 360 L 540 360 L 540 330.0462 L 314.9307 180 L 314.9307 180 L 540 29.9538 L 540 0 L 495.0693 0 L 270 150.0462 L 270 150.0462 L 44.9307 0 Z" class="yellow"/>
<g>
<rect x="0" y="155.0769" width="540" height="49.8462" class="yellow"/>
<rect x="245.0769" y="0" width="49.8462" height="360" class="yellow"/>
</g>
<path d="M 0 0 L 0 19.9692 L 0 19.9692 L 240.0462 180 L 240.0462 180 L 0 340.0308 L 0 340.0308 L 0 360 L 29.9538 360 L 270 199.9692 L 270 199.9692 L 510.0462 360 L 540 360 L 540 340.0308 L 299.9538 180 L 299.9538 180 L 540 19.9692 L 540 0 L 510.0462 0 L 270 160.0308 L 270 160.0308 L 29.9538 0 Z" class="red"/>
<g>
<rect x="0" y="163.3846" width="540" height="33.2308" class="red"/>
<rect x="253.3846" y="0" width="33.2308" height="360" class="red"/>
</g>
<ellipse cx="270" cy="180" rx="96.9231" ry="96.9231" class="yellow"/>
<ellipse cx="270" cy="180" rx="83.0769" ry="83.0769" class="red"/>
</g>
</svg>
