<?xml version="1.0"?>
<svg xmlns="http://www.w3.org/2000/svg" xmlns:xlink="http://www.w3.org/1999/xlink" version="1.1" width="540" height="360" viewBox="0 0 540 360">
<!-- Generated by Kreative Vexillo v1.0 -->
<style>
.black{fill:rgb(0,0,0);}
.white{fill:rgb(255,255,255);}
</style>
<defs>
<path id="text1" d="M -0.5458 -0.4526 H -0.42499995 C -0.40489995 -0.4526 -0.38939995 -0.4469 -0.37859994 -0.4355 C -0.36779994 -0.42409998 -0.36239994 -0.41 -0.36239994 -0.39319998 C -0.36239994 -0.37909997 -0.36619994 -0.36699998 -0.37389994 -0.35689998 C -0.37899995 -0.35019997 -0.38649994 -0.34489998 -0.39639995 -0.34089997 C -0.38139996 -0.33679998 -0.37039995 -0.32969996 -0.36329994 -0.31969997 C -0.35619995 -0.30969998 -0.35269994 -0.29699996 -0.35269994 -0.2819 C -0.35269994 -0.2695 -0.35519993 -0.2584 -0.36029994 -0.24849999 C -0.36529994 -0.23859999 -0.37219995 -0.23079999 -0.38099995 -0.2251 C -0.38639995 -0.2215 -0.39459994 -0.2189 -0.40549996 -0.2173 C -0.41999996 -0.21509999 -0.42969996 -0.214 -0.43439996 -0.214 H -0.5458 V -0.4526 Z M -0.4807 -0.3591 H -0.45259997 C -0.44249997 -0.3591 -0.43549997 -0.36110002 -0.43159997 -0.365 C -0.42769998 -0.36900002 -0.42569998 -0.3747 -0.42569998 -0.3822 C -0.42569998 -0.38910002 -0.42769998 -0.3946 -0.43159997 -0.3985 C -0.43549997 -0.4024 -0.44239998 -0.4044 -0.45219997 -0.4044 H -0.48069996 V -0.3591 Z M -0.4807 -0.2653 H -0.44779998 C -0.4367 -0.2653 -0.42889997 -0.2676 -0.4243 -0.2721 C -0.4197 -0.2766 -0.4175 -0.2827 -0.4175 -0.2902 C -0.4175 -0.29729998 -0.41979998 -0.3029 -0.4243 -0.30719998 C -0.4288 -0.31149998 -0.4367 -0.31359997 -0.44799998 -0.31359997 H -0.48079997 V -0.2653 Z M -0.319 -0.4526 H -0.2545 V -0.2727 H -0.15380001 V -0.21390001 H -0.31910002 V -0.4526 Z M 0.004 -0.2534 H -0.069299996 L -0.0795 -0.214 H -0.14539999 L -0.066899985 -0.4526 H 0.0035000145 L 0.08200002 -0.214 H 0.01440002 L 0.004 -0.2534 Z M -0.0094 -0.305 L -0.0324 -0.3908 L -0.055200003 -0.305 H -0.0094 Z M 0.2363 -0.3117 L 0.2929 -0.2922 C 0.2891 -0.2741 0.2831 -0.2589 0.275 -0.2468 C 0.26680002 -0.23460001 0.2567 -0.2255 0.2446 -0.2193 C 0.2325 -0.2131 0.2171 -0.21000001 0.19839999 -0.21000001 C 0.1757 -0.21000001 0.1572 -0.21380001 0.14279999 -0.2213 C 0.12839998 -0.2288 0.11599999 -0.2421 0.10549998 -0.2611 C 0.095099986 -0.2801 0.089799985 -0.3044 0.089799985 -0.334 C 0.089799985 -0.3735 0.098999985 -0.40379998 0.11739998 -0.42499998 S 0.16179998 -0.45679998 0.19539998 -0.45679998 C 0.22169998 -0.45679998 0.24239999 -0.45069999 0.25739998 -0.43859997 C 0.27249998 -0.42639998 0.28359997 -0.40779996 0.2909 -0.38259998 L 0.2339 -0.3681 C 0.23189999 -0.37539998 0.2298 -0.3807 0.2276 -0.3841 C 0.22399999 -0.3897 0.21959999 -0.39409998 0.2144 -0.3971 C 0.2092 -0.4001 0.2033 -0.4017 0.1969 -0.4017 C 0.1823 -0.4017 0.17109999 -0.39499998 0.1633 -0.3815 C 0.1574 -0.37150002 0.1545 -0.35590002 0.1545 -0.3345 C 0.1545 -0.30810001 0.15799999 -0.2899 0.16499999 -0.28010002 C 0.17199999 -0.27030003 0.1819 -0.26540002 0.19459999 -0.26540002 C 0.20689999 -0.26540002 0.21629998 -0.26940003 0.22259998 -0.27730003 C 0.2288 -0.2851 0.2334 -0.2966 0.2363 -0.3117 Z M 0.3244 -0.4526 H 0.3889 V -0.3624 L 0.4565 -0.4526 H 0.5423 L 0.46609998 -0.3625 L 0.54569995 -0.21400002 H 0.46619996 L 0.42219996 -0.31210002 L 0.38889995 -0.27220002 V -0.21400002 H 0.3244 V -0.4526 Z"/>
<path id="text2" d="M -0.525 -0.1193 H -0.45169997 V 0.060600005 H -0.3372 V 0.11940001 H -0.525 V -0.1193 Z M -0.301 -0.1193 H -0.22749999 V 0.1193 H -0.301 V -0.1193 Z M -0.1982 -0.1193 H -0.1215 L -0.068100005 0.0524 L -0.015400004 -0.1193 H 0.058999997 L -0.029100005 0.1193 H -0.108600006 L -0.1982 -0.1193 Z M 0.0829 -0.1193 H 0.2794 V -0.068399996 H 0.1564 V -0.030499995 H 0.2705 V 0.018200006 H 0.1564 V 0.0652 H 0.283 V 0.119200006 H 0.0829 V -0.1193 Z M 0.3097 0.0404 L 0.3795 0.036 C 0.381 0.047399998 0.3841 0.056099996 0.3887 0.062 C 0.39630002 0.0717 0.407 0.0765 0.42110002 0.0765 C 0.43160003 0.0765 0.43960002 0.074 0.4453 0.0691 C 0.451 0.0642 0.45380002 0.058399998 0.45380002 0.0519 C 0.45380002 0.0457 0.45110002 0.0402 0.44570002 0.0353 C 0.44030002 0.0304 0.42780003 0.0258 0.4081 0.021500003 C 0.3759 0.014200002 0.35300002 0.0046000034 0.3393 -0.0074999966 C 0.3255 -0.019499997 0.3186 -0.034899995 0.3186 -0.0536 C 0.3186 -0.0659 0.3221 -0.0774 0.3292 -0.0884 C 0.3363 -0.0993 0.3469 -0.1079 0.3611 -0.114099994 C 0.3753 -0.120299995 0.3947 -0.1235 0.4195 -0.1235 C 0.44979998 -0.1235 0.4729 -0.1178 0.4889 -0.1065 C 0.5048 -0.0952 0.5143 -0.0771 0.5173 -0.0524 L 0.44820002 -0.0483 C 0.44640002 -0.059 0.44250003 -0.0669 0.43660003 -0.0717 C 0.43070003 -0.0766 0.42260003 -0.078999996 0.41220003 -0.078999996 C 0.40370002 -0.078999996 0.39730003 -0.077199996 0.39290002 -0.07349999 C 0.38860002 -0.06989999 0.3864 -0.06539999 0.3864 -0.06019999 C 0.3864 -0.05639999 0.3882 -0.052999992 0.3917 -0.04989999 C 0.3952 -0.04679999 0.4034 -0.043799993 0.4163 -0.04109999 C 0.4484 -0.03419999 0.4713 -0.027099991 0.4852 -0.019999992 C 0.4991 -0.012899992 0.5092 -0.004099991 0.5155 0.0064000078 C 0.5218 0.016900007 0.52500004 0.028700007 0.52500004 0.04170001 C 0.52500004 0.05700001 0.52080005 0.07110001 0.51240003 0.08400001 C 0.504 0.09690001 0.49220002 0.1067 0.4771 0.113400005 C 0.462 0.12010001 0.4429 0.1234 0.42000002 0.1234 C 0.37960002 0.1234 0.3517 0.115600005 0.3361 0.1 C 0.3205 0.0843 0.3117 0.0645 0.3097 0.0404 Z"/>
<path id="text3" d="M -0.5458 0.214 H -0.47569996 L -0.44869995 0.3592 L -0.42189994 0.214 H -0.35179994 V 0.4526 H -0.39549994 V 0.27060002 L -0.42909995 0.4526 H -0.46859995 L -0.50219995 0.27060002 V 0.4526 H -0.5458999 V 0.214 Z M -0.2117 0.4132 H -0.27220002 L -0.2806 0.4526 H -0.335 L -0.2701 0.214 H -0.2119 L -0.1471 0.4526 H -0.20289999 L -0.2117 0.4132 Z M -0.2227 0.3617 L -0.2417 0.2759 L -0.26049998 0.3617 H -0.2227 Z M -0.159 0.214 H 0.0031000078 V 0.2729 H -0.051299993 V 0.4526 H -0.1046 V 0.2729 H -0.159 V 0.214 Z M 0.0151 0.214 H 0.1772 V 0.2729 H 0.1228 V 0.4526 H 0.0695 V 0.2729 H 0.015099999 V 0.214 Z M 0.2012 0.214 H 0.3441 V 0.2649 H 0.2546 V 0.3028 H 0.3376 V 0.3515 H 0.2546 V 0.3985 H 0.3466 V 0.4525 H 0.20109999 V 0.214 Z M 0.3761 0.4526 V 0.214 H 0.465 C 0.4815 0.214 0.4941 0.216 0.5028 0.2199 C 0.5115 0.2238 0.5185 0.23099999 0.5239 0.24159999 C 0.52919996 0.25219998 0.5319 0.2651 0.5319 0.2803 C 0.5319 0.2935 0.5299 0.305 0.5258 0.3146 C 0.52169997 0.3242 0.5161 0.332 0.509 0.338 C 0.5044 0.3418 0.4982 0.3449 0.4903 0.3474 C 0.4967 0.3503 0.5013 0.3533 0.5042 0.3562 C 0.50619996 0.3582 0.509 0.3623 0.51269996 0.3687 C 0.5164 0.3751 0.5189 0.3801 0.52019995 0.3835 L 0.54599994 0.4526 H 0.48579994 L 0.45729995 0.3797 C 0.45369995 0.3703 0.45049995 0.3641 0.44759995 0.3613 C 0.44379994 0.3576 0.43939996 0.3558 0.43449995 0.3558 H 0.42979994 V 0.4526 H 0.3761 Z M 0.4297 0.3107 H 0.4522 C 0.4546 0.3107 0.45929998 0.3096 0.4663 0.3074 C 0.46980003 0.3064 0.4727 0.30389997 0.47500002 0.2999 C 0.47720003 0.2959 0.47840002 0.2913 0.47840002 0.2861 C 0.47840002 0.2784 0.47660002 0.2725 0.47310004 0.2684 C 0.46960002 0.26430002 0.46290004 0.26220003 0.45320004 0.26220003 H 0.42980003 V 0.3107 Z"/>
</defs>
<g>
<rect x="0" y="0" width="540" height="360" class="black"/>
<g>
<rect x="73.5" y="120" width="393" height="120" class="white"/>
</g>
<use xlink:href="#text1" transform="translate(270 180) scale(360 360) rotate(0)" class="white"/>
<use xlink:href="#text2" transform="translate(270 180) scale(360 360) rotate(0)" class="black"/>
<use xlink:href="#text3" transform="translate(270 180) scale(360 360) rotate(0)" class="white"/>
</g>
</svg>
