<?xml version="1.0"?>
<svg xmlns="http://www.w3.org/2000/svg" xmlns:xlink="http://www.w3.org/1999/xlink" version="1.1" width="540" height="360" viewBox="0 0 540 360">
<!-- Generated by Kreative Vexillo v1.0 -->
<style>
.black{fill:rgb(0,0,0);}
.orange{fill:rgb(255,183,0);}
.purple{fill:rgb(145,0,140);}
</style>
<defs>
<path id="babel" d="M 180.188 153.851 C 179.754 153.416 183.804 144.997 184.889 144.12599 L 185.68501 143.4 L 221.05602 140.06299 C 240.514 138.249 258.88602 136.50598 261.851 136.14299 C 264.81702 135.853 268.72302 135.635 270.531 135.70699 L 273.786 135.77899 L 275.95602 139.91599 C 277.11304 142.16699 277.90903 144.19899 277.76404 144.34398 C 277.186 144.78 180.55 154.215 180.188 153.851 Z M 256.571 122.064 C 256.86102 121.846 256.643 120.831 256.21002 119.814 L 255.342 118.0 H 232.991 H 210.64 L 209.989 118.871 C 209.121 119.96 206.734 126.056 207.023 126.346 C 207.458 126.708 256.138 122.499 256.571 122.064 Z M 229.664 164.375 C 263.081 161.037 290.496 158.278 290.641 158.206 S 289.628 155.59299 288.108 152.54599 L 285.433 147.02899 L 280.29703 147.101 C 277.54703 147.174 262.35803 148.409 246.66203 149.93199 C 186.77103 155.73799 171.72504 157.262 170.64102 157.624 L 169.41202 157.986 L 167.24202 163.213 C 166.01202 166.11499 164.85503 169.02 164.63802 169.817 L 164.20401 171.125 L 166.518 170.762 C 167.819 170.544 196.246 167.641 229.664 164.375 Z M 233.208 136.507 C 251.87 134.692 267.27698 133.167 267.421 132.95 C 267.56598 132.804 266.914 130.845 265.90198 128.596 L 264.093 124.45899 L 260.477 124.676994 C 258.452 124.82199 256.56998 124.967995 256.28098 125.03999 C 255.99197 125.11199 244.49098 126.05599 230.74797 127.07199 C 217.00497 128.15999 204.20197 129.176 202.17697 129.467 L 198.56097 129.976 L 196.96898 133.386 C 196.10098 135.272 195.16098 137.595 194.87097 138.612 L 194.43697 140.426 L 196.89597 140.064 C 198.199 139.845 214.546 138.249 233.208 136.507 Z M 467.974 236.803 L 457.151 233.247 C 427.56702 223.305 391.90698 215.467 354.005 210.459 L 338.742 208.428 L 335.99402 200.879 C 334.47403 196.742 332.739 192.896 332.23203 192.316 L 331.22003 191.29999 L 329.26703 191.44598 C 328.18204 191.51799 325.50604 191.66298 323.33603 191.80798 C 321.16504 191.95398 279.35703 195.50899 230.38803 199.64598 C 181.49203 203.78297 136.35603 207.55598 130.20703 207.99298 C 91.365036 210.82298 38.561028 220.98299 6.5180283 231.79698 L 0.0 233.9 L 0.0070 290.0 H 468.0 L 467.974 236.803 Z M 319.573 189.558 C 319.791 189.34 318.49 185.93 316.681 182.083 L 313.426 174.971 L 308.796 174.89899 C 306.26498 174.82599 301.41898 175.04399 298.01898 175.40698 C 294.62 175.84299 276.39197 177.58498 257.51297 179.39899 C 184.16696 186.36499 135.05298 191.22699 134.90897 191.51799 C 132.81096 195.72699 128.83296 205.379 129.12196 205.66899 C 129.555 206.104 318.995 190.066 319.573 189.558 Z M 165.722 185.566 C 201.671 182.083 295.124 173.083 299.682 172.648 C 302.358 172.429 304.673 171.995 304.818 171.777 C 305.179 171.19699 301.49 161.97899 300.25998 160.528 C 299.17697 159.221 299.538 159.221 289.339 160.528 C 278.634 161.979 159.719 173.882 156.31898 173.882 H 153.56999 L 150.676 180.195 L 147.782 186.582 L 149.012 186.8 C 149.736 186.944 157.259 186.364 165.722 185.566 Z"/>
<path id="sky" d="M 467.997 0.0 H 0.0 V 221.246 L 0.868 220.884 C 6.004 218.99901 28.716 211.894 37.251 209.502 C 58.878998 203.63 100.759995 195.293 120.073 193.118 C 122.46 192.828 124.558 192.39299 124.701996 192.177 C 124.919 191.88701 124.268 189.059 123.327995 185.798 C 118.119995 167.746 118.119995 146.0 123.399994 127.732 C 131.50099 99.676 152.478 75.174 180.471 61.112 C 188.573 56.98 203.401 52.05 213.021 50.309 L 220.254 48.933 C 220.254 48.933 231.401 47.876 234.359 47.876 C 237.099 47.876 248.46399 48.933 248.46399 48.933 L 255.69699 50.309 C 279.27798 54.661 301.702 66.257996 317.759 82.28 C 325.355 89.892 328.827 94.169 334.396 103.085 C 349.732 127.66 354.216 159.411 346.115 187.249 C 345.175 190.51 344.754 193.726 344.74 193.7 C 344.74698 193.718 345.918 194.082 346.91 194.28 C 352.75 195.44 390.599 201.6 416.64 207.762 C 426.18802 210.01099 451.432 217.984 461.341 221.898 C 464.23502 223.05899 467.999 223.928 467.999 224.00099 L 467.997 0.0 Z"/>
<clipPath id="clip0">
<rect x="0" y="0" width="540" height="360"/>
</clipPath>
</defs>
<g>
<rect x="0" y="0" width="540" height="360" class="orange"/>
<g clip-path="url(#clip0)">
<use xlink:href="#sky" transform="translate(-20.4828 0) scale(1.2414 1.2414) rotate(0)" class="purple"/>
<use xlink:href="#babel" transform="translate(-20.4828 0) scale(1.2414 1.2414) rotate(0)" class="black"/>
</g>
</g>
</svg>
