<?xml version="1.0"?>
<svg xmlns="http://www.w3.org/2000/svg" xmlns:xlink="http://www.w3.org/1999/xlink" version="1.1" width="540" height="360" viewBox="0 0 540 360">
<!-- Generated by Kreative Vexillo v1.0 -->
<style>
.black{fill:rgb(89,89,89);}
.blue{fill:rgb(123,194,224);}
.green{fill:rgb(59,176,125);}
.red{fill:rgb(207,114,128);}
.white{fill:rgb(232,232,232);}
.yellow{fill:rgb(238,222,119);}
</style>
<defs>
<clipPath id="clip0">
<path d="M 0 0 L 540 360 L 0 360 Z"/>
</clipPath>
<clipPath id="clip1">
<path d="M 0 0 L 540 0 L 540 360 Z"/>
</clipPath>
</defs>
<g>
<rect x="0" y="0" width="540" height="360" class="black"/>
<g clip-path="url(#clip0)">
<path d="M 49.923 -74.8845 L 49.923 -74.8845 L 589.923 285.1155 L 490.077 434.8845 L -49.923 74.8845 Z" class="red"/>
<path d="M 29.9538 -44.9307 L 29.9538 -44.9307 L 569.9538 315.0693 L 510.0462 404.9307 L -29.9538 44.9307 Z" class="yellow"/>
</g>
<g clip-path="url(#clip1)">
<path d="M 49.923 -74.8845 L 49.923 -74.8845 L 589.923 285.1155 L 490.077 434.8845 L -49.923 74.8845 Z" class="green"/>
<path d="M 29.9538 -44.9307 L 29.9538 -44.9307 L 569.9538 315.0693 L 510.0462 404.9307 L -29.9538 44.9307 Z" class="blue"/>
</g>
<path d="M 9.9846 -14.9769 L 9.9846 -14.9769 L 549.9846 345.0231 L 530.0154 374.9769 L -9.9846 14.9769 Z" class="white"/>
</g>
</svg>
