<?xml version="1.0"?>
<svg xmlns="http://www.w3.org/2000/svg" xmlns:xlink="http://www.w3.org/1999/xlink" version="1.1" width="540" height="360" viewBox="0 0 540 360">
<!-- Generated by Kreative Vexillo v1.0 -->
<style>
.blue{fill:rgb(0,61,165);}
.turquoise{fill:rgb(0,174,199);}
.white{fill:rgb(255,255,255);}
</style>
<defs>
<path id="palm" d="M 0.542 0.1603 C 0.542 0.1603 0.4587 0.1229 0.2901 0.1224 C 0.12140001 0.1219 -0.057799995 0.1683 -0.1568 0.1672 C -0.2558 0.166 -0.28509998 0.166 -0.34420002 0.1548 C -0.34420002 0.1548 -0.2547 0.18439999 -0.15970002 0.1933 C -0.06470002 0.2022 0.15519999 0.15869999 0.26489997 0.15179999 C 0.3773 0.1447 0.4646 0.1448 0.542 0.1603 M -0.1196 -0.1405 C -0.1196 -0.1405 -0.1242 -0.1581 -0.1472 -0.1556 C -0.1472 -0.1556 -0.1324 -0.162 -0.126 -0.1585 C -0.1196 -0.1549 -0.1179 -0.1542 -0.1196 -0.1405 M -0.175 -0.1717 C -0.175 -0.1717 -0.1699 -0.1734 -0.1678 -0.1725 C -0.1678 -0.1725 -0.16409999 -0.1618 -0.1572 -0.1579 C -0.1571 -0.1579 -0.1696 -0.1586 -0.175 -0.1717 M -0.1016 -0.1549 C -0.1105 -0.1667 -0.1244 -0.1708 -0.1302 -0.1709 C -0.1361 -0.171 -0.1498 -0.1596 -0.1498 -0.1596 C -0.1534 -0.16600001 -0.1516 -0.1709 -0.1516 -0.1709 C -0.14500001 -0.1701 -0.13960001 -0.1676 -0.13960001 -0.1676 C -0.1421 -0.1761 -0.1462 -0.1798 -0.1462 -0.1798 C -0.1329 -0.1833 -0.1171 -0.1718 -0.1171 -0.1718 C -0.1315 -0.1908 -0.1498 -0.194 -0.1535 -0.1943 C -0.15720001 -0.1946 -0.1622 -0.1889 -0.1622 -0.1889 C -0.18800001 -0.18879999 -0.19500001 -0.17449999 -0.19500001 -0.17449999 C -0.1842 -0.15769999 -0.1621 -0.15379998 -0.1621 -0.15379998 C -0.201 -0.15799998 -0.2001 -0.12759998 -0.2001 -0.12759998 L -0.1641 -0.14629999 C -0.1779 -0.06639999 -0.23380001 -0.03069999 -0.23820001 -0.025999986 C -0.24260001 -0.021299986 -0.23990001 -0.016399985 -0.23320001 -0.015599986 C -0.22950001 -0.015199985 -0.2249 -0.012199986 -0.21260001 -0.026599985 C -0.16600001 -0.08119999 -0.15990001 -0.13099998 -0.15850002 -0.14379999 L -0.15780002 -0.1431 C -0.15380003 -0.1337 -0.15660001 -0.12519999 -0.15580001 -0.118999995 C -0.15500002 -0.112799995 -0.14130002 -0.0994 -0.14130002 -0.0994 S -0.13370003 -0.114 -0.13500002 -0.1227 C -0.13620003 -0.1315 -0.15300003 -0.1479 -0.15300003 -0.1479 C -0.12710002 -0.1527 -0.12570003 -0.109400004 -0.12570003 -0.109400004 C -0.11570003 -0.1211 -0.117700025 -0.1337 -0.117700025 -0.1337 S -0.0969 -0.1487 -0.1016 -0.1549"/>
<path id="sail" d="M 0.0043 0.5291 C -0.016999999 0.5291 -0.0384 0.5278 -0.0598 0.5252 L -0.0543 0.48040003 C 0.1403 0.5043 0.3328 0.40410003 0.42479998 0.23100002 L 0.46469998 0.2522 C 0.41489998 0.3458 0.33889997 0.4212 0.24479999 0.4701 C 0.1698 0.5091 0.0878 0.5291 0.0043 0.5291 Z M -0.1171 0.2088 C -0.0861 0.2141 -0.054700002 0.2265 0.037100002 0.2244 C 0.12889999 0.2223 0.3028 0.2005 0.37 0.1909 C 0.4373 0.1813 0.5974 0.1856 0.5974 0.1856 C 0.5752 0.1798 0.469 0.163 0.3728 0.1654 C 0.2766 0.1678 0.1901 0.1859 0.06829998 0.1989 C -0.0534 0.2121 -0.1171 0.2088 -0.1171 0.2088 M -0.3833 0.117 C -0.2263 -0.109 -0.20140001 -0.38850003 -0.20140001 -0.38850003 C 0.13099998 -0.21290003 0.4484 0.118199944 0.4484 0.118199944 S 0.3676 0.098799944 0.2902 0.09919994 C 0.2128 0.09959994 0.11129999 0.098899946 -0.0616 0.13239995 C -0.2147 0.1621 -0.3833 0.117 -0.3833 0.117"/>
<path id="star" d="M 0.0 -1.0 L 0.2245 -0.309 L 0.9511 -0.309 L 0.3633 0.118 L 0.5878 0.809 L 0.0 0.382 L -0.5878 0.809 L -0.3633 0.118 L -0.9511 -0.309 L -0.2245 -0.309 Z"/>
</defs>
<g>
<rect x="0" y="0" width="540" height="360" class="blue"/>
<use xlink:href="#sail" transform="translate(270 180) scale(226.8 226.8) rotate(0)" class="turquoise"/>
<use xlink:href="#palm" transform="translate(270 180) scale(226.8 226.8) rotate(0)" class="white"/>
<g>
<use xlink:href="#star" transform="translate(233.0806 287.2218) scale(9 9) rotate(199)" class="white"/>
<use xlink:href="#star" transform="translate(214.504 278.8927) scale(9 9) rotate(209.3)" class="white"/>
<use xlink:href="#star" transform="translate(197.7161 267.3762) scale(9 9) rotate(219.6)" class="white"/>
<use xlink:href="#star" transform="translate(183.2579 253.0436) scale(9 9) rotate(229.9)" class="white"/>
<use xlink:href="#star" transform="translate(171.5954 236.3568) scale(9 9) rotate(240.2)" class="white"/>
<use xlink:href="#star" transform="translate(163.1045 217.8537) scale(9 9) rotate(250.5)" class="white"/>
<use xlink:href="#star" transform="translate(158.0587 198.1305) scale(9 9) rotate(260.8)" class="white"/>
<use xlink:href="#star" transform="translate(156.6209 177.823) scale(9 9) rotate(271.1)" class="white"/>
<use xlink:href="#star" transform="translate(158.8372 157.5857) scale(9 9) rotate(281.4)" class="white"/>
<use xlink:href="#star" transform="translate(164.6364 138.0707) scale(9 9) rotate(291.7)" class="white"/>
<use xlink:href="#star" transform="translate(173.8313 119.9072) scale(9 9) rotate(302)" class="white"/>
<use xlink:href="#star" transform="translate(186.1258 103.6804) scale(9 9) rotate(312.3)" class="white"/>
<use xlink:href="#star" transform="translate(201.1236 89.9134) scale(9 9) rotate(322.6)" class="white"/>
<use xlink:href="#star" transform="translate(218.3412 79.0499) scale(9 9) rotate(332.9)" class="white"/>
<use xlink:href="#star" transform="translate(237.2238 71.44) scale(9 9) rotate(343.2)" class="white"/>
<use xlink:href="#star" transform="translate(257.1628 67.329) scale(9 9) rotate(353.5)" class="white"/>
<use xlink:href="#star" transform="translate(277.5155 66.8493) scale(9 9) rotate(363.8)" class="white"/>
<use xlink:href="#star" transform="translate(297.6259 70.0165) scale(9 9) rotate(374.1)" class="white"/>
<use xlink:href="#star" transform="translate(316.846 76.7285) scale(9 9) rotate(384.4)" class="white"/>
<use xlink:href="#star" transform="translate(334.5563 86.7689) scale(9 9) rotate(394.7)" class="white"/>
<use xlink:href="#star" transform="translate(350.1859 99.8141) scale(9 9) rotate(405)" class="white"/>
<use xlink:href="#star" transform="translate(363.2311 115.4437) scale(9 9) rotate(415.3)" class="white"/>
<use xlink:href="#star" transform="translate(373.2715 133.154) scale(9 9) rotate(425.6)" class="white"/>
<use xlink:href="#star" transform="translate(379.9835 152.3741) scale(9 9) rotate(435.9)" class="white"/>
<use xlink:href="#star" transform="translate(383.1507 172.4845) scale(9 9) rotate(446.2)" class="white"/>
<use xlink:href="#star" transform="translate(382.671 192.8372) scale(9 9) rotate(456.5)" class="white"/>
</g>
</g>
</svg>
