<?xml version="1.0"?>
<svg xmlns="http://www.w3.org/2000/svg" xmlns:xlink="http://www.w3.org/1999/xlink" version="1.1" width="540" height="360" viewBox="0 0 540 360">
<!-- Generated by Kreative Vexillo v1.0 -->
<style>
.blue{fill:rgb(0,73,144);}
.white{fill:rgb(255,255,255);}
</style>
<defs>
<path id="compass" d="M 0.0012 0.5283 V 0.0036 L 0.096 0.098400004 L 0.4675 0.0157 C 0.4716 0.0157 0.4716 0.019499999 0.4675 0.019499999 L 0.1199 0.13 L 0.0012 0.5283 Z M 0.0683 0.4019 C 0.2344 0.3745 0.3687 0.2443 0.4003 0.07459998 L 0.36879998 0.08669998 C 0.33699998 0.22839998 0.22239998 0.343 0.076299995 0.37449998 L 0.0683 0.4019 Z"/>
</defs>
<g>
<rect x="0" y="0" width="540" height="360" class="blue"/>
<use xlink:href="#compass" transform="translate(270 180) scale(171 171) rotate(0)" class="white"/>
<use xlink:href="#compass" transform="translate(270 180) scale(171 171) rotate(90)" class="white"/>
<use xlink:href="#compass" transform="translate(270 180) scale(171 171) rotate(180)" class="white"/>
<use xlink:href="#compass" transform="translate(270 180) scale(171 171) rotate(270)" class="white"/>
<path d="M 267.984 78 L 267.984 78 L 267.984 36 L 272.016 36 L 272.016 78 Z" class="white"/>
<path d="M 272.016 282 L 272.016 282 L 272.016 324 L 267.984 324 L 267.984 282 Z" class="white"/>
<path d="M 168 182.016 L 168 182.016 L 36 182.016 L 36 177.984 L 168 177.984 Z" class="white"/>
<path d="M 372 177.984 L 372 177.984 L 504 177.984 L 504 182.016 L 372 182.016 Z" class="white"/>
</g>
</svg>
