<?xml version="1.0"?>
<svg xmlns="http://www.w3.org/2000/svg" xmlns:xlink="http://www.w3.org/1999/xlink" version="1.1" width="540" height="360" viewBox="0 0 540 360">
<!-- Generated by Kreative Vexillo v1.0 -->
<style>
.black{fill:rgb(0,0,0);}
.blue{fill:rgb(0,26,152);}
.brown{fill:rgb(96,56,19);}
.green{fill:rgb(6,191,0);}
.orange{fill:rgb(238,156,0);}
.pink{fill:rgb(255,175,199);}
.purple{fill:rgb(118,0,137);}
.red{fill:rgb(212,6,6);}
.turquoise{fill:rgb(116,215,236);}
.white{fill:rgb(251,249,245);}
.yellow{fill:rgb(227,255,0);}
</style>
<g>
<g>
<rect x="0" y="0" width="540" height="60" class="red"/>
<rect x="0" y="60" width="540" height="60" class="orange"/>
<rect x="0" y="120" width="540" height="60" class="yellow"/>
<rect x="0" y="180" width="540" height="60" class="green"/>
<rect x="0" y="240" width="540" height="60" class="blue"/>
<rect x="0" y="300" width="540" height="60" class="purple"/>
</g>
<path d="M 0 0 L 90 0 L 270 180 L 90 360 L 0 360 Z" class="black"/>
<path d="M 0 0 L 45 0 L 225 180 L 45 360 L 0 360 Z" class="brown"/>
<path d="M 0 0 L 180 180 L 0 360 Z" class="turquoise"/>
<path d="M 0 45 L 135 180 L 0 315 Z" class="pink"/>
<path d="M 0 90 L 90 180 L 0 270 Z" class="white"/>
</g>
</svg>
