<?xml version="1.0"?>
<svg xmlns="http://www.w3.org/2000/svg" xmlns:xlink="http://www.w3.org/1999/xlink" version="1.1" width="540" height="360" viewBox="0 0 540 360">
<!-- Generated by Kreative Vexillo v1.0 -->
<style>
.black{fill:rgb(0,0,0);}
.pink{fill:rgb(255,176,255);}
.white{fill:rgb(255,255,255);}
.yellow{fill:rgb(255,255,128);}
</style>
<defs>
<path id="dblmale" d="M 0.1739 -0.1922 V -0.1433 H 0.2992 L 0.1964 -0.0408 C 0.153 -0.0736 0.1062 -0.090100005 0.056199998 -0.090100005 C 0.052599996 -0.090100005 0.049 -0.09 0.045499995 -0.0899 C 0.038099997 -0.1153 0.026199995 -0.1401 0.0092999935 -0.16440001 L 0.11579999 -0.2696 V -0.14660001 H 0.1647 V -0.3504 H -0.0476 V -0.3015 H 0.077700004 L -0.0251 -0.199 C -0.0685 -0.2318 -0.1153 -0.2483 -0.16530001 -0.2483 C -0.2266 -0.2483 -0.2787 -0.227 -0.3217 -0.18450001 C -0.36470002 -0.1419 -0.3862 -0.09030001 -0.3862 -0.029400006 C -0.3862 0.031899992 -0.3648 0.08409999 -0.32200003 0.1273 C -0.27920002 0.1705 -0.22750002 0.19209999 -0.16690002 0.19209999 C -0.16330002 0.19209999 -0.15970002 0.19199999 -0.15610002 0.19189999 C -0.14620002 0.22679998 -0.12770002 0.258 -0.100400016 0.28559998 C -0.057600014 0.32879996 -0.005900018 0.35039997 0.054699987 0.35039997 C 0.11549999 0.35039997 0.16759998 0.32859996 0.2109 0.28509998 C 0.25419998 0.24159998 0.2759 0.18939999 0.2759 0.12849998 C 0.2759 0.081799984 0.26090002 0.036899984 0.2309 -0.006100014 L 0.33740002 -0.111300014 V 0.011699989 H 0.38630003 V -0.1922 H 0.1739 Z M -0.166 0.1433 C -0.21339999 0.1433 -0.2538 0.1266 -0.2872 0.0932 C -0.3206 0.0598 -0.3373 0.0194 -0.3373 -0.028000005 C -0.3373 -0.07540001 -0.3206 -0.11580001 -0.2872 -0.1492 C -0.2538 -0.1826 -0.2134 -0.1993 -0.16600001 -0.1993 C -0.11860001 -0.1993 -0.078200005 -0.1826 -0.044800006 -0.1492 C -0.025000006 -0.12940001 -0.011200007 -0.10720001 -0.003100004 -0.082600005 C -0.039400004 -0.07310001 -0.07180001 -0.054300003 -0.1002 -0.026200004 C -0.1432 0.016399994 -0.1647 0.067999996 -0.1647 0.12889999 C -0.1647 0.13379999 -0.1645 0.13849999 -0.1643 0.1433 C -0.1648 0.1432 -0.1654 0.1433 -0.166 0.1433 Z M 0.0053 -0.028 C 0.0053 0.0194 -0.011399999 0.059800003 -0.0448 0.0932 C -0.065699995 0.114099994 -0.0893 0.1284 -0.1156 0.1363 C -0.1157 0.1343 -0.1157 0.1323 -0.1157 0.1303 C -0.1157 0.0829 -0.099 0.042499997 -0.0656 0.009099998 C -0.0447 -0.011800002 -0.0211 -0.026100002 0.0051999986 -0.034 C 0.0052 -0.032 0.0053 -0.0301 0.0053 -0.028 Z M 0.1767 0.2514 C 0.1433 0.2848 0.1029 0.3015 0.055499993 0.3015 S -0.03230001 0.2848 -0.06570001 0.2514 C -0.08550001 0.23159999 -0.09940001 0.2092 -0.10750001 0.1845 C -0.07150001 0.17469999 -0.039200008 0.1556 -0.010800011 0.12689999 C 0.032499988 0.08339999 0.054199986 0.031199984 0.054199986 -0.029700011 C 0.054199986 -0.033500012 0.053899985 -0.037300013 0.053699985 -0.04110001 C 0.054299984 -0.04110001 0.054899987 -0.04110001 0.055399984 -0.04110001 C 0.10279998 -0.04110001 0.14319998 -0.02440001 0.17659998 0.008999988 C 0.20999998 0.042399988 0.22669998 0.082799986 0.22669998 0.1302 C 0.2268 0.1776 0.2101 0.218 0.1767 0.2514 Z"/>
</defs>
<g>
<g>
<rect x="0" y="0" width="540" height="120" class="pink"/>
<rect x="0" y="120" width="540" height="120" class="white"/>
<rect x="0" y="240" width="540" height="120" class="yellow"/>
</g>
<use xlink:href="#dblmale" transform="translate(267.3 181.8) scale(120 120) rotate(0)" class="black"/>
</g>
</svg>
