<?xml version="1.0"?>
<svg xmlns="http://www.w3.org/2000/svg" xmlns:xlink="http://www.w3.org/1999/xlink" version="1.1" width="540" height="360" viewBox="0 0 540 360">
<!-- Generated by Kreative Vexillo v1.0 -->
<style>
.blue{fill:rgb(0,101,189);}
.green{fill:rgb(0,154,73);}
.orange{fill:rgb(255,121,0);}
.white{fill:rgb(255,255,255);}
</style>
<defs>
<clipPath id="clip0">
<path d="M 0 360 L 540 0 L 540 360 Z"/>
</clipPath>
</defs>
<g>
<rect x="0" y="0" width="540" height="360" class="white"/>
<g>
<path d="M 0 0 L 540 0 L 0 360 Z" class="blue"/>
<path d="M 0 0 L 0 43.2666 L 0 43.2666 L 205.1001 180 L 205.1001 180 L 0 316.7334 L 0 316.7334 L 0 360 L 64.8999 360 L 270 223.2666 L 270 223.2666 L 475.1001 360 L 540 360 L 540 316.7334 L 334.8999 180 L 334.8999 180 L 540 43.2666 L 540 0 L 475.1001 0 L 270 136.7334 L 270 136.7334 L 270 136.7334 L 270 136.7334 L 64.8999 0 Z" class="white"/>
</g>
<g clip-path="url(#clip0)">
<g>
<rect x="0" y="0" width="180" height="360" class="green"/>
<rect x="180" y="0" width="180" height="360" class="white"/>
<rect x="360" y="0" width="180" height="360" class="orange"/>
</g>
</g>
</g>
</svg>
