<?xml version="1.0"?>
<svg xmlns="http://www.w3.org/2000/svg" xmlns:xlink="http://www.w3.org/1999/xlink" version="1.1" width="640" height="360" viewBox="0 0 640 360">
<!-- Generated by Kreative Vexillo v1.0 -->
<style>
.blue{fill:rgb(0,56,101);}
.red{fill:rgb(186,12,47);}
.white{fill:rgb(255,255,255);}
.yellow{fill:rgb(255,164,0);}
</style>
<defs>
<clipPath id="clip0">
<path d="M 277.1281 15 L 619.2593 15 L 277.1281 145.359 Z"/>
</clipPath>
<clipPath id="clip1">
<path d="M 277.1281 345 L 619.2593 345 L 277.1281 214.641 Z"/>
</clipPath>
<clipPath id="clip2">
<path d="M 277.1281 164.604 L 527.4074 164.604 L 586.6667 180 L 527.4074 195.396 L 277.1281 195.396 L 300.8318 180 Z"/>
</clipPath>
<linearGradient id="glaze" x1="0%" y1="0%" x2="100%" y2="100%">
<stop offset="0%" stop-color="rgb(255,255,255)" stop-opacity="0.2"/>
<stop offset="49.999%" stop-color="rgb(255,255,255)" stop-opacity="0.0"/>
<stop offset="50.001%" stop-color="rgb(0,0,0)" stop-opacity="0.0"/>
<stop offset="100%" stop-color="rgb(0,0,0)" stop-opacity="0.2"/>
</linearGradient>
</defs>
<g>
<rect x="0" y="0" width="640" height="360" class="white"/>
<rect x="23.7037" y="15" width="223.7948" height="330" class="blue"/>
<path d="M 7.2627 -11.1817 L 7.2627 -11.1817 L 284.3909 168.8183 L 269.8654 191.1817 L -7.2627 11.1817 Z" class="white"/>
<path d="M -7.2627 348.8183 L -7.2627 348.8183 L 269.8654 168.8183 L 284.3909 191.1817 L 7.2627 371.1817 Z" class="white"/>
<path d="M 0 166.6667 L 0 166.6667 L 277.1281 166.6667 L 277.1281 193.3333 L 0 193.3333 Z" class="white"/>
<g clip-path="url(#clip0)">
<path d="M 277.1281 0 L 277.1281 0 L 619.2593 0 L 619.2593 30 L 277.1281 30 Z" class="red"/>
<path d="M 624.6 29.017 L 624.6 29.017 L 282.4689 159.376 L 271.7874 131.342 L 613.9185 0.983 Z" class="red"/>
<path d="M 262.1281 145.359 L 262.1281 145.359 L 262.1281 15 L 292.1281 15 L 292.1281 145.359 Z" class="red"/>
</g>
<g clip-path="url(#clip1)">
<path d="M 277.1281 330 L 277.1281 330 L 619.2593 330 L 619.2593 360 L 277.1281 360 Z" class="red"/>
<path d="M 613.9185 359.017 L 613.9185 359.017 L 271.7874 228.658 L 282.4689 200.624 L 624.6 330.983 Z" class="red"/>
<path d="M 292.1281 214.641 L 292.1281 214.641 L 292.1281 345 L 262.1281 345 L 262.1281 214.641 Z" class="red"/>
</g>
<path d="M 277.1281 164.604 L 527.4074 164.604 L 586.6667 180 L 527.4074 195.396 L 277.1281 195.396 L 300.8318 180 Z" class="yellow"/>
<g clip-path="url(#clip2)">
<path d="M 277.1281 157.9373 L 277.1281 157.9373 L 527.4074 157.9373 L 527.4074 171.2707 L 277.1281 171.2707 Z" class="red"/>
<path d="M 529.0838 158.1515 L 529.0838 158.1515 L 588.3431 173.5475 L 584.9903 186.4525 L 525.731 171.0564 Z" class="red"/>
<path d="M 588.3431 186.4525 L 588.3431 186.4525 L 529.0838 201.8485 L 525.731 188.9436 L 584.9903 173.5475 Z" class="red"/>
<path d="M 527.4074 202.0627 L 527.4074 202.0627 L 277.1281 202.0627 L 277.1281 188.7293 L 527.4074 188.7293 Z" class="red"/>
<path d="M 277.1281 164.604 L 289.3672 164.604 L 313.0709 180 L 289.3672 195.396 L 277.1281 195.396 Z" class="red"/>
</g>
</g>
<g>
<rect x="0" y="0" width="640" height="360" fill="url(#glaze)"/>
<path d="M 30 30 L 610 30 L 610 330 L 30 330 Z M 60 60 L 60 300 L 580 300 L 580 60 Z" fill="rgb(255,255,255)" opacity="0.4"/>
<path d="M 0 0 L 640 0 L 640 360 L 0 360 Z M 30 30 L 30 330 L 610 330 L 610 30 Z" fill="rgb(0,0,0)" opacity="0.4"/>
</g>
</svg>
