<?xml version="1.0"?>
<svg xmlns="http://www.w3.org/2000/svg" xmlns:xlink="http://www.w3.org/1999/xlink" version="1.1" width="640" height="360" viewBox="0 0 640 360">
<!-- Generated by Kreative Vexillo v1.0 -->
<style>
.black{fill:rgb(0,0,0);}
.red{fill:rgb(232,66,63);}
.yellow{fill:rgb(255,215,48);}
</style>
<defs>
<path id="e1" d="M -0.3121 -0.2275 C -0.308 -0.2275 -0.3035 -0.22790001 -0.2987 -0.2284 C -0.2933 -0.2289 -0.2876 -0.22950001 -0.282 -0.22950001 C -0.2766 -0.22950001 -0.272 -0.22900002 -0.2679 -0.22790001 C -0.269 -0.22610001 -0.27519998 -0.21990001 -0.2756 -0.21700001 C -0.27089998 -0.20230001 -0.25579998 -0.2124 -0.24279998 -0.2089 C -0.22979999 -0.2055 -0.20709997 -0.1776 -0.20709997 -0.1776 L -0.18119997 -0.1471 C -0.18119997 -0.1471 -0.16879997 -0.135 -0.15889996 -0.120400004 C -0.14629996 -0.101900004 -0.14989996 -0.059000004 -0.14489996 -0.051800005 C -0.14129996 -0.046700004 -0.13569996 -0.028400006 -0.12569997 -0.024200005 C -0.11519997 -0.019800005 -0.10459997 -0.036200006 -0.10459997 -0.036800005 C -0.10459997 -0.041300006 -0.107599966 -0.045200005 -0.107599966 -0.049200006 S -0.10259996 -0.061300006 -0.09849997 -0.068 C -0.092999965 -0.0768 -0.116399966 -0.1304 -0.11779997 -0.13620001 C -0.11799997 -0.14620002 -0.12179997 -0.15550001 -0.12179997 -0.15550001 S -0.13009997 -0.16790001 -0.13309997 -0.17090002 C -0.13609998 -0.17390002 -0.14619997 -0.17710002 -0.14869997 -0.17840001 C -0.15129997 -0.17970002 -0.17769997 -0.2081 -0.18189996 -0.21210001 C -0.18609996 -0.2161 -0.21939996 -0.24170001 -0.22399996 -0.24130002 C -0.23169996 -0.24680002 -0.24289995 -0.27550003 -0.26549995 -0.2754 C -0.27859995 -0.2827 -0.30239993 -0.2992 -0.31269994 -0.3079 C -0.31349996 -0.3086 -0.31449994 -0.30900002 -0.31559995 -0.30900002 C -0.31819996 -0.30900002 -0.32129994 -0.30900002 -0.32579994 -0.28640002 C -0.32809994 -0.28770003 -0.32959995 -0.2887 -0.33019996 -0.2892 C -0.33109996 -0.2902 -0.33229995 -0.29070002 -0.33349997 -0.29070002 C -0.33439997 -0.29070002 -0.33659998 -0.29040003 -0.33789998 -0.28750002 C -0.341 -0.2806 -0.34089997 -0.24780002 -0.32709998 -0.23230003 C -0.3232 -0.2281 -0.3171 -0.2275 -0.3121 -0.2275 Z M -0.3147 -0.2998 C -0.306 -0.2929 -0.2886 -0.2804 -0.2751 -0.2723 C -0.2771 -0.2697 -0.28039998 -0.2655 -0.2823 -0.2631 C -0.296 -0.27019998 -0.3096 -0.2774 -0.3189 -0.2826 C -0.3175 -0.2895 -0.3159 -0.2962 -0.3147 -0.2998 Z M -0.3317 -0.2813 C -0.3227 -0.2757 -0.301 -0.26430002 -0.2829 -0.2549 L -0.2807 -0.237 C -0.2811 -0.237 -0.2816 -0.237 -0.282 -0.237 C -0.28800002 -0.237 -0.29410002 -0.23640001 -0.2994 -0.2359 C -0.304 -0.2354 -0.3084 -0.235 -0.3121 -0.235 C -0.317 -0.235 -0.32 -0.2358 -0.3214 -0.2373 C -0.3317 -0.2489 -0.3327 -0.2724 -0.3317 -0.2813 Z M 0.4374 -0.0217 C 0.4384 -0.0502 0.4145 -0.052 0.39940003 -0.037299998 C 0.39840004 -0.039499998 0.37440002 -0.056099996 0.35900003 -0.020899998 C 0.32580003 -0.025199998 0.33020002 0.0035000015 0.33020002 0.0035000015 S 0.30310002 -0.0024999985 0.30560002 0.0339 C 0.29340002 0.0357 0.2951 0.0438 0.2951 0.0438 S 0.30020002 0.0949 0.2538 0.1039 C 0.236 0.0767 0.1855 0.0627 0.1499 0.0455 C 0.1267 0.0344 0.1107 0.021 0.1134 0.0162 C 0.1282 -0.0098 0.122499995 -0.0153 0.122499995 -0.0153 S 0.1479 -0.0268 0.14359999 -0.042099997 C 0.16829999 -0.0492 0.16079998 -0.0679 0.1652 -0.073 C 0.1696 -0.078099996 0.19119999 -0.0756 0.181 -0.1024 C 0.1792 -0.107 0.15249999 -0.1157 0.1424 -0.1291 C 0.14039999 -0.1291 0.13859999 -0.12889999 0.13859999 -0.12889999 S 0.13769999 -0.1477 0.1293 -0.14829999 C 0.1209 -0.14889999 0.108799994 -0.1352 0.0986 -0.13559999 C 0.0937 -0.13579999 0.078 -0.13639998 0.0738 -0.13699998 C 0.0696 -0.13759997 0.054199997 -0.12589999 0.054199997 -0.12589999 S 0.0201 -0.1332 0.0104 -0.1151 C -0.0146 -0.12619999 -0.0271 -0.106 -0.0271 -0.106 S -0.059 -0.1153 -0.0644 -0.08 C -0.100700006 -0.074 -0.0985 -0.0565 -0.0977 -0.048699997 C -0.0969 -0.040799998 -0.0932 -0.040699996 -0.0959 -0.032699995 C -0.109 -0.029499995 -0.1223 -0.015199995 -0.1223 -0.015199995 S -0.2005 -0.026899993 -0.2198 -0.030899994 C -0.24509999 -0.036199994 -0.24849999 -0.040499993 -0.2533 -0.044399995 C -0.2581 -0.048299994 -0.27 -0.049399994 -0.28680003 -0.039899997 C -0.29410002 -0.0358 -0.31290004 -0.015899997 -0.33130002 0.001000002 C -0.35340002 0.021300003 -0.37590003 0.041500002 -0.39380002 0.041100003 C -0.404 0.040900003 -0.4216 0.056500003 -0.42240003 0.06910001 C -0.42590004 0.07060001 -0.42900002 0.07190001 -0.4304 0.07260001 C -0.4334 0.07410001 -0.4372 0.0803 -0.44790003 0.09950001 C -0.45160002 0.10620001 -0.45630002 0.11460001 -0.45760003 0.11600001 C -0.45890003 0.11730001 -0.45930004 0.11910001 -0.4586 0.120600015 C -0.4573 0.12360001 -0.4537 0.12360001 -0.451 0.12360001 C -0.4459 0.12360001 -0.4372 0.12270001 -0.4296 0.12180001 C -0.4316 0.13010001 -0.4309 0.13130002 -0.4305 0.13210002 C -0.4299 0.13310002 -0.429 0.13380001 -0.4278 0.13410002 C -0.4258 0.13450003 -0.4237 0.13480002 -0.4215 0.13480002 C -0.3985 0.13480002 -0.3693 0.11020002 -0.3678 0.10600002 C -0.3671 0.10430002 -0.3673 0.10240002 -0.3706 0.08440002 C -0.37109998 0.08160002 -0.3717 0.07830002 -0.3723 0.07510002 C -0.3704 0.07430002 -0.3692 0.07350002 -0.3693 0.072700016 C -0.3695 0.067300014 -0.3659 0.06440002 -0.3659 0.06440002 S -0.351 0.086200014 -0.3384 0.06680002 C -0.32590002 0.04750002 -0.3088 0.01720002 -0.3088 0.01720002 S -0.29360002 -0.006899981 -0.2737 -0.0015999805 C -0.2538 0.0037000193 -0.1547 0.01980002 -0.1387 0.04070002 C -0.1361 0.04410002 -0.14209999 0.055600017 -0.13509999 0.065100014 C -0.13 0.07200001 -0.116799995 0.06890001 -0.11349999 0.07330001 C -0.107999995 0.08030001 -0.09419999 0.11550001 -0.05859999 0.088000014 C -0.049699992 0.10680001 0.07630001 0.14360002 0.06570001 0.14090002 C 0.016100008 0.12920001 0.01950001 0.14530002 0.009800009 0.14150001 C 1.0000914E-4 0.1377 -0.02519999 0.12430001 -0.03339999 0.1526 C -0.053799994 0.14760001 -0.06339999 0.1488 -0.07739999 0.1746 C -0.080199994 0.17590001 -0.11439999 0.1817 -0.10559999 0.21560001 C -0.1265 0.22700001 -0.12109999 0.24440001 -0.102199994 0.26360002 C -0.1046 0.28210002 -0.1099 0.29690003 -0.075399995 0.3009 C -0.0734 0.3039 -0.0694 0.31710002 -0.040099993 0.3156 C -0.034599993 0.32430002 -0.04109999 0.3283 -0.04109999 0.3283 S -0.12009999 0.38120002 -0.1547 0.383 C -0.1687 0.38369998 -0.168 0.38459998 -0.1717 0.38759997 C -0.1751 0.39039996 -0.184 0.40979996 -0.1851 0.4123 C -0.18640001 0.4122 -0.1878 0.4122 -0.1893 0.4122 C -0.1938 0.4122 -0.1973 0.4125 -0.1975 0.4125 L -0.19860001 0.41259998 L -0.19950001 0.41329998 C -0.24880001 0.45009997 -0.2468 0.45329997 -0.2448 0.45639998 C -0.2435 0.45839998 -0.2413 0.45999998 -0.2259 0.45999998 C -0.22369999 0.45999998 -0.2214 0.45999998 -0.2192 0.4599 C -0.2247 0.4676 -0.2243 0.4696 -0.2241 0.47059998 C -0.22379999 0.4721 -0.22279999 0.47339997 -0.2214 0.4739 C -0.2138 0.47709998 -0.20539999 0.47869998 -0.1963 0.47869998 C -0.1765 0.47869998 -0.15709999 0.4707 -0.1518 0.4649 C -0.1472 0.4599 -0.1474 0.4414 -0.14840001 0.42729998 C -0.1473 0.42619997 -0.1464 0.42469996 -0.14580001 0.42249998 C -0.14400001 0.4163 -0.13080001 0.4112 -0.1288 0.42949998 C -0.1286 0.43139997 -0.11710001 0.429 -0.116100006 0.42749998 C -0.1075 0.41459998 -0.101 0.3954 -0.06390001 0.3814 C -0.03320001 0.3698 0.02319999 0.3513 0.02759999 0.3486 C 0.03189999 0.3459 0.03409999 0.33 0.03019999 0.3248 C 0.02629999 0.31960002 0.016499989 0.30740002 0.016499989 0.30740002 S 0.04159999 0.29920003 0.05159999 0.29580003 C 0.05209999 0.29660004 0.05269999 0.29750004 0.05329999 0.29820004 C 0.05669999 0.30240005 0.06079999 0.30480003 0.06539999 0.30520004 C 0.06639999 0.30530003 0.06729999 0.30530003 0.06819999 0.30530003 C 0.078999996 0.30530003 0.087799996 0.30010003 0.09349999 0.29530004 C 0.09919999 0.29790005 0.10539999 0.29910004 0.11129999 0.29910004 C 0.11129999 0.29910004 0.11129999 0.29910004 0.11129999 0.29910004 C 0.12169999 0.29910004 0.1317 0.29580003 0.13919999 0.29040003 C 0.1422 0.29130003 0.14819999 0.29110003 0.16829999 0.28990003 C 0.1766 0.28940004 0.19209999 0.31780005 0.22199999 0.28950003 C 0.22819999 0.30460003 0.26369998 0.31070003 0.26999998 0.28930002 C 0.3049 0.30710003 0.31789997 0.27250004 0.31539997 0.26670003 C 0.31969997 0.26650003 0.31969997 0.26610002 0.32169998 0.26240003 C 0.33839998 0.27090004 0.34069997 0.28700003 0.34849998 0.30820003 C 0.35739997 0.33230004 0.36609998 0.35940003 0.36609998 0.35940003 S 0.36769998 0.37050003 0.36549997 0.37190002 C 0.36119998 0.3747 0.35679996 0.38430002 0.35889998 0.39530003 C 0.3548 0.39750004 0.35129997 0.40010002 0.34829998 0.40230003 C 0.3469 0.40340003 0.34309998 0.40620002 0.3374 0.43470004 C 0.33679998 0.43750003 0.332 0.46190006 0.33359998 0.46570003 C 0.33389997 0.46650004 0.33499998 0.46820003 0.3378 0.46820003 C 0.34059998 0.46820003 0.3479 0.46570003 0.3556 0.46270004 C 0.3551 0.46730003 0.3555 0.46790004 0.356 0.46850005 C 0.3565 0.46920004 0.3576 0.47030005 0.3598 0.47030005 C 0.3598 0.47030005 0.3598 0.47030005 0.3598 0.47030005 C 0.36720002 0.47030005 0.4149 0.44830006 0.41750002 0.42980003 C 0.41880003 0.42020002 0.41480002 0.40450004 0.4108 0.39220002 C 0.4115 0.39000002 0.4124 0.38810003 0.4135 0.3873 C 0.41590002 0.3855 0.42900002 0.3799 0.4286 0.377 C 0.4282 0.37420002 0.42470002 0.3697 0.4194 0.3641 C 0.4133 0.36180001 0.4099 0.35430002 0.40510002 0.3517 C 0.397 0.3475 0.36940002 0.26500002 0.3666 0.2526 C 0.3637 0.24030001 0.3747 0.20900002 0.3565 0.20570001 C 0.34 0.2027 0.3335 0.2195 0.323 0.2107 C 0.32000002 0.2078 0.3298 0.2054 0.32180002 0.19430001 C 0.32040003 0.19240001 0.31370002 0.18540001 0.30160004 0.1879 C 0.30590004 0.16370001 0.27500004 0.1615 0.27500004 0.1615 S 0.27980003 0.1496 0.26070005 0.121400006 C 0.31110004 0.12460001 0.30610004 0.10750001 0.31430006 0.105500005 C 0.31860006 0.1045 0.35530007 0.11580001 0.35930008 0.090500005 C 0.36470008 0.090500005 0.3910001 0.09420001 0.39680007 0.0679 C 0.42420006 0.0741 0.42950007 0.044700004 0.42950007 0.044700004 S 0.4664001 0.038300004 0.44850007 0.011800002 C 0.4632 0.0012 0.4643 -0.0188 0.4374 -0.0217 Z M -0.4485 0.116 C -0.4467 0.1129 -0.4443 0.1087 -0.44120002 0.103099994 C -0.43670002 0.0949 -0.4291 0.08129999 -0.4268 0.07919999 C -0.42540002 0.078499995 -0.4224 0.077199996 -0.419 0.075799994 C -0.4181 0.076299995 -0.417 0.076799996 -0.4158 0.077199996 C -0.4216 0.094299994 -0.42520002 0.1059 -0.4275 0.11389999 C -0.4344 0.1149 -0.4428 0.1158 -0.4485 0.116 Z M -0.4214 0.1273 C -0.42200002 0.1273 -0.4225 0.1273 -0.42310002 0.12719999 C -0.42170003 0.11999999 -0.41540003 0.09989999 -0.4083 0.07879999 C -0.3993 0.079799995 -0.38770002 0.078899994 -0.3795 0.077199996 C -0.3791 0.07969999 -0.3785 0.082499996 -0.3779 0.08579999 C -0.3767 0.092099994 -0.3752 0.10039999 -0.3749 0.10329999 C -0.3791 0.1078 -0.4028 0.1273 -0.4214 0.1273 Z M -0.2255 0.4525 C -0.2301 0.4525 -0.2331 0.4524 -0.2351 0.4522 C -0.2286 0.4458 -0.2116 0.4321 -0.1955 0.4201 C -0.1942 0.42000002 -0.1917 0.4199 -0.1889 0.4199 C -0.1875 0.4199 -0.1862 0.4199 -0.18509999 0.42 C -0.18479998 0.42029998 -0.1846 0.4206 -0.18419999 0.4209 C -0.19789998 0.435 -0.20689999 0.44509998 -0.2128 0.45229998 C -0.2167 0.4524 -0.2212 0.4525 -0.2255 0.4525 Z M -0.1569 0.4599 C -0.15980001 0.463 -0.176 0.4712 -0.1958 0.4712 C -0.2028 0.4712 -0.20940001 0.4701 -0.21530001 0.468 C -0.21130002 0.4612 -0.1947 0.44259998 -0.17670001 0.424 C -0.17050001 0.4263 -0.16210002 0.4288 -0.1553 0.4294 C -0.1546 0.444 -0.1549 0.4575 -0.1569 0.4599 Z M 0.1088 0.2004 C 0.1042 0.2057 0.0972 0.2091 0.094500005 0.2091 L 0.0943 0.20809999 L 0.0934 0.20789999 C 0.096 0.18939999 0.0873 0.16639999 0.0719 0.14869998 C 0.0901 0.1508 0.1155 0.1928 0.1088 0.2004 Z M 0.0686 0.298 C 0.0679 0.298 0.0672 0.298 0.0664 0.29790002 C 0.063999996 0.29770002 0.061699998 0.2962 0.0596 0.29360002 C 0.0534 0.2858 0.050499998 0.27 0.0525 0.2542 C 0.054899998 0.2354 0.078999996 0.21820001 0.087799996 0.2152 C 0.0879 0.216 0.088 0.2169 0.088199995 0.21790001 C 0.080199994 0.2248 0.072 0.238 0.0733 0.2626 C 0.07399999 0.2764 0.0795 0.2856 0.087 0.29140002 C 0.082 0.295 0.0757 0.298 0.0686 0.298 Z M 0.1117 0.2919 C 0.1048 0.2919 0.0822 0.28980002 0.0808 0.2623 C 0.0792 0.23130001 0.0937 0.22180001 0.1003 0.21910001 C 0.0986 0.22340001 0.0986 0.23040001 0.111 0.23830001 C 0.0979 0.26430002 0.1318 0.2702 0.1318 0.2702 S 0.1325 0.27960002 0.1344 0.28530002 C 0.1282 0.2893 0.12 0.2919 0.1117 0.2919 Z M 0.4062 0.4031 C 0.40899998 0.41300002 0.41099998 0.423 0.4102 0.42920002 C 0.4087 0.44050002 0.3755 0.45830002 0.3634 0.46230003 C 0.36490002 0.45290002 0.3702 0.42890003 0.3754 0.40610003 C 0.3912 0.4101 0.4015 0.4063 0.4062 0.4031 Z M 0.3572 0.4544 C 0.3506 0.4571 0.3447 0.4593 0.3411 0.4603 C 0.3423 0.4482 0.349 0.4128 0.35300002 0.4088 C 0.35610002 0.4065 0.35950002 0.404 0.3634 0.402 C 0.365 0.4027 0.36650002 0.40330002 0.368 0.4039 C 0.3621 0.4298 0.3589 0.4452 0.3572 0.4544 Z M -0.0608 -0.1553 C -0.030800002 -0.15110001 0.016899996 -0.16780001 0.021200001 -0.1712 C 0.0203 -0.15020001 -0.015000001 -0.15640001 -0.0198 -0.1527 C -0.0068999995 -0.14490001 -0.0018000007 -0.12930001 0.0075000003 -0.1332 C 0.0165 -0.13700001 0.0272 -0.14060001 0.0379 -0.1497 C 0.0686 -0.1507 0.077 -0.13870001 0.0933 -0.1407 C 0.1096 -0.1427 0.1361 -0.16059999 0.1361 -0.16059999 S 0.1406 -0.1426 0.14289999 -0.1389 C 0.15179999 -0.1245 0.18239999 -0.1129 0.1934 -0.0951 C 0.1989 -0.0861 0.1998 -0.073300004 0.2101 -0.0794 C 0.21769999 -0.083900005 0.22289999 -0.1001 0.2219 -0.117400005 C 0.2216 -0.122600004 0.2215 -0.1278 0.2198 -0.1329 C 0.2174 -0.1401 0.213 -0.1433 0.2082 -0.1472 C 0.20189999 -0.1524 0.19909999 -0.155 0.1953 -0.157 C 0.1962 -0.1578 0.1971 -0.1586 0.198 -0.1593 L 0.1995 -0.1602 C 0.2147 -0.1688 0.23359999 -0.1706 0.24679999 -0.1706 C 0.2582 -0.1706 0.2665 -0.16929999 0.26659998 -0.1692 L 0.2756 -0.16770001 L 0.2703 -0.17510001 C 0.2699 -0.17570001 0.2634 -0.18460001 0.2515 -0.19150001 C 0.263 -0.19540001 0.27510002 -0.19800001 0.28660002 -0.1975 C 0.31180003 -0.1966 0.32990003 -0.1903 0.34040004 -0.1788 C 0.34860003 -0.1699 0.35230005 -0.1576 0.35160005 -0.1422 C 0.35080004 -0.124199994 0.33930004 -0.12009999 0.33430004 -0.11919999 C 0.32600003 -0.117599994 0.31770003 -0.12099999 0.31500003 -0.12699999 C 0.30950004 -0.13929999 0.32040003 -0.1457 0.32170004 -0.14639999 L 0.32640004 -0.14889999 L 0.32250005 -0.15249999 C 0.31270006 -0.16149999 0.30140007 -0.16469999 0.29080003 -0.16139999 C 0.28220004 -0.15869999 0.27470005 -0.1519 0.27160004 -0.1442 C 0.26440004 -0.145 0.25730005 -0.14299999 0.25170004 -0.1384 C 0.24600004 -0.1337 0.24260004 -0.1269 0.24210005 -0.11930001 C 0.24160005 -0.11180001 0.24410005 -0.10430001 0.24910004 -0.09830001 C 0.25020003 -0.09690001 0.25150004 -0.09560001 0.25290003 -0.09440001 C 0.24800004 -0.08410001 0.24970004 -0.07140001 0.25770003 -0.061700013 C 0.26290002 -0.055400014 0.27000004 -0.05130001 0.27770004 -0.05020001 C 0.28430003 -0.049200013 0.29070005 -0.050500013 0.29610005 -0.053800013 C 0.29680005 -0.052700013 0.29760006 -0.051600013 0.29850006 -0.050500013 C 0.30370006 -0.044200014 0.31100005 -0.040100012 0.31900007 -0.03920001 C 0.32020006 -0.03910001 0.32140008 -0.039000012 0.32260007 -0.039000012 C 0.32940006 -0.039000012 0.33590007 -0.041300014 0.34110007 -0.045600012 C 0.34440008 -0.048300013 0.34700006 -0.05170001 0.34880006 -0.055500012 C 0.36320007 -0.04420001 0.38430005 -0.04590001 0.39710006 -0.059800014 C 0.40470007 -0.06810001 0.40800005 -0.07950001 0.40600005 -0.09040001 C 0.40630004 -0.09040001 0.40660006 -0.09050001 0.40690005 -0.09050001 C 0.41860005 -0.09210001 0.42890006 -0.097700015 0.43520004 -0.10590001 C 0.43980002 -0.11200001 0.44190004 -0.11910001 0.44100004 -0.12600002 C 0.44020003 -0.13190001 0.43730006 -0.13730001 0.43280005 -0.14160001 C 0.44360006 -0.15040001 0.44930005 -0.16410002 0.44750005 -0.17780001 C 0.44580004 -0.19010001 0.43850005 -0.20080002 0.42750004 -0.20700002 C 0.42970005 -0.21290001 0.43050003 -0.21920002 0.42960003 -0.22550002 C 0.42700002 -0.24470001 0.41030002 -0.25890002 0.39030004 -0.25990003 C 0.39100003 -0.26310003 0.39120004 -0.26630002 0.39080003 -0.26950005 C 0.38970003 -0.27750003 0.38510004 -0.28460005 0.37780002 -0.28930005 C 0.37070003 -0.29390004 0.36180001 -0.29580006 0.35290003 -0.29460004 C 0.34550002 -0.29360005 0.33860004 -0.29050004 0.33330002 -0.28580004 C 0.32510003 -0.30020005 0.30800003 -0.30860004 0.29040003 -0.30620003 C 0.27930003 -0.30470002 0.26930004 -0.29920003 0.26240003 -0.29090002 C 0.25280002 -0.29590002 0.24120003 -0.29780003 0.22930002 -0.2962 C 0.22550002 -0.2957 0.22180003 -0.2948 0.21820003 -0.2936 C 0.21990003 -0.29799998 0.22080003 -0.3028 0.22080003 -0.30769998 C 0.22080003 -0.32259998 0.21250002 -0.33609998 0.19980003 -0.34249997 C 0.20350003 -0.34949997 0.20540003 -0.35729998 0.20540003 -0.36539996 C 0.20540003 -0.39009994 0.18750003 -0.41039997 0.16470003 -0.41249996 C 0.17030004 -0.42309996 0.17030004 -0.43549997 0.16420004 -0.44539997 C 0.15980004 -0.45269996 0.15260004 -0.45789996 0.14390004 -0.45999998 C 0.13510004 -0.46209997 0.12540004 -0.4608 0.11720004 -0.45639998 C 0.11630004 -0.45939997 0.11500004 -0.4622 0.11320004 -0.46479997 C 0.102900036 -0.47979996 0.08100004 -0.48259997 0.06430004 -0.47109997 C 0.06360004 -0.47059998 0.06300004 -0.4701 0.062300038 -0.46959996 C 0.051000036 -0.48089996 0.031900037 -0.48199996 0.017000038 -0.47169995 C 0.013400039 -0.46919996 0.010400038 -0.46619996 0.007800038 -0.46279997 C -0.0021999618 -0.46669996 -0.013199962 -0.46549997 -0.021799963 -0.45959997 C -0.033499964 -0.45149997 -0.038099963 -0.43629998 -0.033499964 -0.42249998 C -0.040099964 -0.42169997 -0.046099965 -0.4188 -0.050799966 -0.4141 C -0.056299966 -0.4085 -0.059399966 -0.401 -0.05929997 -0.3928 C -0.05929997 -0.38390002 -0.055499967 -0.37510002 -0.049099967 -0.3684 C -0.059199966 -0.35660002 -0.058499966 -0.3386 -0.047099967 -0.3273 C -0.040299967 -0.3206 -0.030899966 -0.31750003 -0.021799967 -0.31870002 C -0.023099966 -0.30980003 -0.020299967 -0.30100003 -0.013999967 -0.2948 C -0.0026999665 -0.28370002 0.016200034 -0.28440002 0.028100034 -0.29650003 C 0.029000035 -0.29740003 0.029900035 -0.2984 0.030700034 -0.29940003 C 0.041200034 -0.29030004 0.056300033 -0.28960004 0.06690004 -0.29820004 C 0.07670004 -0.30620003 0.07940004 -0.32030004 0.07370004 -0.33210003 C 0.08020004 -0.33820003 0.08300004 -0.34560004 0.08170004 -0.35350004 C 0.08000004 -0.36330003 0.07180004 -0.37230003 0.061100043 -0.37590003 C 0.050800044 -0.37930003 0.040400043 -0.37710002 0.032600045 -0.36970004 L 0.028400045 -0.36570004 L 0.033700045 -0.36340004 C 0.037600044 -0.36170003 0.039900046 -0.35900003 0.040300045 -0.35570005 C 0.040600047 -0.35270005 0.039300047 -0.34970003 0.036800046 -0.34770006 C 0.035300046 -0.34710005 0.033900045 -0.34650007 0.032700047 -0.34570006 C 0.030500047 -0.34510005 0.028100047 -0.34510005 0.025400046 -0.34570006 C 0.020900046 -0.34670004 0.017800046 -0.34880006 0.015700046 -0.35230005 C 0.0105000455 -0.36100006 0.0138000455 -0.37490004 0.014500046 -0.37770006 C 0.017200045 -0.38180006 0.037700046 -0.40990007 0.07500005 -0.39120007 C 0.075700045 -0.39090008 0.076600045 -0.39050007 0.07780005 -0.39000008 C 0.084600054 -0.3872001 0.09880005 -0.38150007 0.10720005 -0.3644001 C 0.11310005 -0.35230008 0.11480005 -0.3369001 0.11260005 -0.31840008 C 0.10640005 -0.32370007 0.10120005 -0.32610008 0.10100005 -0.32610008 L 0.094200045 -0.32910007 L 0.095900044 -0.32180008 C 0.096000046 -0.32160008 0.100800045 -0.2996001 0.09220004 -0.27690008 L 0.09110004 -0.27510008 C 0.08890004 -0.27150008 0.08640004 -0.26810008 0.08360004 -0.26470008 C 0.059200037 -0.27290007 0.043100037 -0.24890009 0.042000037 -0.23890008 C 0.0283 -0.2445 -0.0128 -0.2122 -0.0128 -0.2122 S -0.022 -0.2119 -0.0262 -0.21350001 C -0.0304 -0.2151 -0.0334 -0.21120001 -0.0334 -0.21120001 L -0.0383 -0.20140001 C -0.0383 -0.20140001 -0.0386 -0.20140001 -0.0405 -0.19910002 C -0.0452 -0.19170001 -0.0383 -0.17920002 -0.0383 -0.17920002 S 0.012 -0.1758 0.0127 -0.1783 C 0.0137 -0.1776 0.015 -0.1769 0.015 -0.1769 S -0.012200001 -0.1742 -0.033099998 -0.1766 C -0.036999997 -0.17709999 -0.040599998 -0.1777 -0.043799996 -0.1786 C -0.0643 -0.1842 -0.0659 -0.2152 -0.0699 -0.2172 C -0.07 -0.2173 -0.070199996 -0.2173 -0.0703 -0.2173 C -0.0755 -0.2175 -0.1005 -0.1893 -0.080299996 -0.1645 C -0.0762 -0.1593 -0.0692 -0.1565 -0.0608 -0.1553 Z M 0.2576 -0.1777 C 0.2545 -0.1779 0.2509 -0.1781 0.2469 -0.1781 C 0.2345 -0.1781 0.21740001 -0.17660001 0.20220001 -0.1699 C 0.19980001 -0.1746 0.19710001 -0.1793 0.19430001 -0.1839 C 0.1948 -0.1843 0.19530001 -0.1846 0.19590001 -0.185 C 0.20510001 -0.1895 0.2141 -0.1919 0.2227 -0.1919 C 0.2387 -0.1918 0.2507 -0.1839 0.2576 -0.1777 Z M 0.1319 -0.285 C 0.13589999 -0.2877 0.14039999 -0.2893 0.1445 -0.2893 C 0.1469 -0.2893 0.1503 -0.28869998 0.1526 -0.2861 C 0.15460001 -0.2838 0.1548 -0.2809 0.15460001 -0.2789 C 0.1544 -0.2765 0.1536 -0.2741 0.15240002 -0.2717 C 0.14550002 -0.271 0.13840002 -0.2685 0.13190001 -0.2644 C 0.1329 -0.272 0.1329 -0.2789 0.1319 -0.285 Z M 0.1559 -0.2642 C 0.1602 -0.2642 0.1663 -0.2632 0.1705 -0.2583 C 0.17629999 -0.2514 0.1753 -0.2396 0.168 -0.2288 C 0.1671 -0.2281 0.1662 -0.2274 0.1653 -0.22659999 C 0.1646 -0.226 0.1639 -0.22539999 0.1633 -0.22479999 C 0.15329999 -0.2358 0.1424 -0.24589999 0.13129999 -0.2546 C 0.139 -0.2607 0.1478 -0.2642 0.1559 -0.2642 Z M 0.1735 -0.2235 C 0.1803 -0.2283 0.1879 -0.2311 0.1944 -0.2311 C 0.1977 -0.2311 0.2024 -0.2304 0.20539999 -0.2268 C 0.2118 -0.2192 0.2066 -0.2038 0.19389999 -0.19309999 C 0.19269998 -0.19209999 0.1915 -0.19119999 0.19019999 -0.19029999 C 0.18389998 -0.19999999 0.17679998 -0.20939998 0.16919999 -0.21829998 C 0.1707 -0.2199 0.1722 -0.2216 0.1735 -0.2235 Z M 0.1798 -0.2356 C 0.1812 -0.23979999 0.18180001 -0.2439 0.1817 -0.2479 C 0.18380001 -0.24859999 0.1859 -0.249 0.1879 -0.249 C 0.19010001 -0.249 0.1932 -0.2485 0.19520001 -0.2461 C 0.19690001 -0.24409999 0.19710001 -0.24139999 0.19700001 -0.23959999 C 0.19700001 -0.23929998 0.19690001 -0.23889999 0.19680001 -0.23859999 C 0.19600001 -0.23869999 0.19520001 -0.23869999 0.19440001 -0.23869999 C 0.1897 -0.2386 0.1847 -0.2376 0.1798 -0.2356 Z M 0.2082 -0.1975 C 0.21129999 -0.2019 0.2135 -0.2064 0.2147 -0.2108 C 0.217 -0.2116 0.2193 -0.21210001 0.2214 -0.21210001 C 0.22379999 -0.21210001 0.2271 -0.21160002 0.22929999 -0.20900002 C 0.2314 -0.20650002 0.23179999 -0.20280002 0.2306 -0.19880003 C 0.2281 -0.19920003 0.2254 -0.19940002 0.2226 -0.19940002 C 0.2179 -0.1994 0.2131 -0.1987 0.2082 -0.1975 Z M 0.2303 -0.2888 C 0.24159999 -0.2903 0.2529 -0.2882 0.26139998 -0.2829 L 0.26439998 -0.28100002 L 0.26639998 -0.28390002 C 0.27209997 -0.29200003 0.2812 -0.29740003 0.29129997 -0.29870003 C 0.30749997 -0.30090004 0.32319996 -0.29210004 0.32859996 -0.27790004 L 0.33099997 -0.27170005 L 0.33509997 -0.27690005 C 0.33939996 -0.28240004 0.34629998 -0.28610006 0.35379997 -0.28710005 C 0.36099997 -0.28810003 0.36799997 -0.28660005 0.37359998 -0.28290004 C 0.37899998 -0.27940002 0.38239998 -0.27420002 0.3832 -0.26840004 C 0.38369998 -0.26470006 0.3831 -0.26100004 0.38149998 -0.25750005 L 0.37879997 -0.25170004 L 0.38519996 -0.25220004 C 0.40359998 -0.25360003 0.41969997 -0.24140003 0.42199996 -0.22440004 C 0.42279997 -0.21850005 0.42179996 -0.21240005 0.41909996 -0.20680004 L 0.41739994 -0.20330004 L 0.42089996 -0.20170005 C 0.43129995 -0.19700004 0.43829995 -0.18770005 0.43979996 -0.17670004 C 0.44139996 -0.16430004 0.43539995 -0.15180004 0.42439997 -0.14490004 L 0.41949996 -0.14180005 L 0.42429996 -0.13850005 C 0.42949995 -0.13490005 0.43269995 -0.13020004 0.43339995 -0.12480005 C 0.43409994 -0.11990005 0.43259993 -0.11490005 0.42909995 -0.11030005 C 0.42409995 -0.10370005 0.41539994 -0.09900005 0.40569994 -0.097800046 C 0.40419993 -0.09760004 0.40279993 -0.09750005 0.40109995 -0.09750005 L 0.39599994 -0.09740005 L 0.39749995 -0.09260005 C 0.40059996 -0.08290005 0.39819995 -0.07230005 0.39139995 -0.06480005 C 0.38079995 -0.053300045 0.36299995 -0.052300047 0.35159996 -0.06270005 C 0.35089996 -0.06330005 0.35029995 -0.063900046 0.34979996 -0.06450005 L 0.34499997 -0.06990005 L 0.34329996 -0.06290005 C 0.34219995 -0.05830005 0.33969995 -0.05430005 0.33609995 -0.051300053 C 0.33149996 -0.04750005 0.32569996 -0.045900054 0.31969994 -0.04660005 C 0.31359994 -0.047300052 0.30809996 -0.050400052 0.30419993 -0.05520005 C 0.30279994 -0.057000052 0.30159992 -0.05890005 0.30069992 -0.06090005 L 0.29839993 -0.06590005 L 0.29449993 -0.06190005 L 0.29419994 -0.06170005 C 0.28989995 -0.05820005 0.28439996 -0.05680005 0.27869993 -0.05760005 C 0.27279994 -0.05850005 0.26739994 -0.06160005 0.26339993 -0.06650005 C 0.25689992 -0.074500054 0.25579992 -0.085500054 0.2607999 -0.09330005 L 0.26279992 -0.09640005 L 0.2596999 -0.09850005 C 0.2578999 -0.09970005 0.2561999 -0.10130005 0.2547999 -0.10300005 C 0.2510999 -0.107500054 0.2491999 -0.11320005 0.2494999 -0.11880005 C 0.2497999 -0.12430005 0.2522999 -0.12920006 0.2562999 -0.13250005 C 0.2608999 -0.13630006 0.2669999 -0.13760005 0.2730999 -0.13620006 L 0.2767999 -0.13530006 L 0.2775999 -0.13900006 C 0.2788999 -0.14460006 0.2844999 -0.15160006 0.2927999 -0.15410006 C 0.2976999 -0.15560006 0.3050999 -0.15590006 0.3134999 -0.14980006 C 0.3078999 -0.14480007 0.3025999 -0.13570006 0.3078999 -0.12380006 C 0.3119999 -0.11450006 0.3236999 -0.109400064 0.33549988 -0.111600064 C 0.34619987 -0.11360006 0.3579999 -0.12260006 0.3588999 -0.14170006 C 0.3596999 -0.15920006 0.3552999 -0.17330006 0.3456999 -0.18380006 C 0.3337999 -0.19680005 0.3138999 -0.20390005 0.2865999 -0.20490006 C 0.2714999 -0.20550005 0.2556999 -0.20140006 0.2414999 -0.19580005 C 0.2402999 -0.19620006 0.2389999 -0.19670005 0.2376999 -0.19700006 C 0.2384999 -0.19990006 0.2386999 -0.20280005 0.23829989 -0.20550005 C 0.2584999 -0.21510005 0.2838999 -0.21900006 0.3073999 -0.21510005 C 0.3318999 -0.21110006 0.3507999 -0.19920005 0.3606999 -0.18150005 C 0.3781999 -0.15020004 0.3707999 -0.12970005 0.3647999 -0.12030005 C 0.3568999 -0.107800044 0.3425999 -0.100400046 0.32859987 -0.10140005 C 0.31589988 -0.10230005 0.30569988 -0.10970005 0.29999986 -0.12220005 L 0.29309985 -0.11910005 C 0.29989985 -0.10410005 0.31259984 -0.09490005 0.32799986 -0.09380005 C 0.32899985 -0.09370005 0.32999986 -0.09370005 0.33099985 -0.09370005 C 0.34679985 -0.09370005 0.36229986 -0.10230005 0.37109986 -0.11620005 C 0.37799987 -0.12710005 0.38659987 -0.15050006 0.36719987 -0.18520005 C 0.35619986 -0.20500004 0.33529988 -0.21820006 0.30849987 -0.22260004 C 0.28369987 -0.22660004 0.25699988 -0.22260004 0.23549987 -0.21250004 C 0.23519987 -0.21290004 0.23489988 -0.21330003 0.23459987 -0.21370004 C 0.23139988 -0.21740004 0.22659987 -0.21940005 0.22099987 -0.21940005 C 0.21909986 -0.21940005 0.21719986 -0.21910004 0.21529986 -0.21870005 C 0.21519986 -0.22350006 0.21369986 -0.22790006 0.21069986 -0.23140006 C 0.20879985 -0.23360005 0.20649986 -0.23530006 0.20379986 -0.23640005 C 0.20389986 -0.23710005 0.20409986 -0.23790005 0.20409986 -0.23860005 C 0.20449987 -0.24330005 0.20329987 -0.24750005 0.20049986 -0.25070006 C 0.19859986 -0.25290006 0.19619986 -0.25440004 0.19329986 -0.25530005 C 0.19319986 -0.26240003 0.19619986 -0.26940006 0.20209986 -0.27540004 C 0.2095 -0.2827 0.2194 -0.2874 0.2303 -0.2888 Z M 0.0807 -0.3972 C 0.0797 -0.3976 0.079 -0.3979 0.0784 -0.39819998 C 0.033 -0.4209 0.008100003 -0.38179997 0.007799998 -0.38149998 L 0.007499998 -0.38109997 L 0.007399998 -0.38059998 C 0.007199998 -0.37979996 0.0017999983 -0.36129996 0.009199998 -0.34879997 C 0.0123999985 -0.3435 0.017299999 -0.33999997 0.023799999 -0.33859998 C 0.0279 -0.33769998 0.031799998 -0.33779997 0.0354 -0.33889997 L 0.0359 -0.33909997 L 0.0364 -0.33939996 C 0.0374 -0.34009996 0.038700003 -0.34069997 0.040000003 -0.34119996 L 0.040500004 -0.34139997 L 0.040900003 -0.34169996 C 0.045900002 -0.34529996 0.048600003 -0.35109997 0.047900002 -0.35689995 C 0.0474 -0.36109996 0.0454 -0.36479995 0.042000003 -0.36759993 C 0.048600003 -0.37139994 0.0551 -0.37029994 0.058800004 -0.36909994 C 0.066700004 -0.36649993 0.0731 -0.35969993 0.074300006 -0.35259995 C 0.07530001 -0.34669995 0.07270001 -0.34109995 0.06660001 -0.33639994 L 0.06390001 -0.33429995 L 0.06570001 -0.33139995 C 0.07130001 -0.32229996 0.06980001 -0.31069994 0.062100008 -0.30439994 C 0.053700007 -0.29749992 0.04060001 -0.29919994 0.033000007 -0.30809993 L 0.029500008 -0.31219992 L 0.026800007 -0.30749992 C 0.025700007 -0.3054999 0.024300007 -0.3036999 0.022700006 -0.3020999 C 0.0137000065 -0.29299992 -4.9999356E-4 -0.29229993 -0.008799994 -0.30049992 C -0.014499994 -0.30609992 -0.016199995 -0.31469992 -0.013199994 -0.3228999 L -0.010399994 -0.33049992 L -0.017999995 -0.32779992 C -0.026199996 -0.32479993 -0.035599995 -0.32689992 -0.041899994 -0.33319992 C -0.050799996 -0.3420999 -0.050999995 -0.35639992 -0.042299993 -0.36519992 C -0.04219999 -0.3652999 -0.041999992 -0.3654999 -0.041799992 -0.36559993 C -0.04149999 -0.36579993 -0.04129999 -0.36599994 -0.04109999 -0.36619994 L -0.038099993 -0.36909994 L -0.041199993 -0.37179995 C -0.041899994 -0.37239996 -0.042599995 -0.37299994 -0.043199994 -0.37369993 C -0.048599996 -0.37899992 -0.051699996 -0.38619992 -0.051799994 -0.39329994 C -0.051799994 -0.39939994 -0.049599994 -0.40509993 -0.045499995 -0.40919995 C -0.041099995 -0.41369995 -0.034899995 -0.41589996 -0.028099995 -0.41559994 L -0.021499995 -0.41529995 L -0.024599995 -0.42119995 C -0.030699994 -0.43279994 -0.027699996 -0.44679993 -0.017599996 -0.45389995 C -0.010399996 -0.45879996 -8.999966E-4 -0.45929995 0.0073000044 -0.45519996 L 0.010400005 -0.45369995 L 0.012200004 -0.45659995 C 0.014500004 -0.46029994 0.017600004 -0.46349996 0.021200005 -0.46599996 C 0.034000006 -0.47479996 0.050600007 -0.47329995 0.058800004 -0.46249995 L 0.061300006 -0.45919994 L 0.06430001 -0.46209994 C 0.06580001 -0.46349993 0.06710001 -0.46459994 0.06840001 -0.46549994 C 0.08160001 -0.47459993 0.09880001 -0.47259992 0.10680001 -0.46109992 C 0.10900001 -0.45789993 0.11030001 -0.4543999 0.11060001 -0.45049992 L 0.11130001 -0.4437999 L 0.11670001 -0.4478999 C 0.11750001 -0.44849992 0.11820001 -0.4489999 0.11900001 -0.4494999 C 0.12600002 -0.4537999 0.13430001 -0.4551999 0.1419 -0.4532999 C 0.1486 -0.4516999 0.1541 -0.4476999 0.1575 -0.4420999 C 0.1631 -0.4328999 0.162 -0.4208999 0.1545 -0.4116999 L 0.14899999 -0.4048999 L 0.15799999 -0.4055999 C 0.1589 -0.40569988 0.15969999 -0.40569988 0.16059999 -0.40569988 C 0.181 -0.40569988 0.19759999 -0.38789988 0.19759999 -0.36599988 C 0.19759999 -0.3577999 0.1953 -0.34999987 0.19099998 -0.34339988 L 0.18839999 -0.33939987 L 0.19289999 -0.33779988 C 0.20489998 -0.33349988 0.21299998 -0.3216999 0.21299998 -0.3083999 C 0.21299998 -0.3012999 0.21069999 -0.2945999 0.20659998 -0.28909987 C 0.20309998 -0.28699988 0.19989999 -0.28449988 0.19699998 -0.28169987 C 0.18979998 -0.27449986 0.18609998 -0.26589987 0.18599999 -0.25709987 C 0.18409999 -0.25699988 0.18219998 -0.25659987 0.1802 -0.25599986 C 0.1793 -0.25889987 0.1779 -0.26159987 0.1759 -0.26389986 C 0.1721 -0.26839986 0.1665 -0.27119985 0.1601 -0.27209985 C 0.161 -0.27429986 0.16149999 -0.27659985 0.1617 -0.27889985 C 0.1621 -0.28389984 0.1608 -0.28829986 0.15789999 -0.29159984 C 0.1547 -0.29539984 0.14979999 -0.29749984 0.1441 -0.29749984 C 0.14299999 -0.29749984 0.1418 -0.29739985 0.1406 -0.29719985 C 0.1531 -0.35939986 0.129 -0.39049983 0.112399995 -0.40389985 C 0.081999995 -0.42839986 0.039199993 -0.42719984 0.014399998 -0.41359985 C -0.0045000017 -0.40319985 -0.014100002 -0.38609985 -0.011900002 -0.36669984 L -0.0044000023 -0.36749986 C -0.0063000023 -0.38399985 0.0016999976 -0.39799985 0.017999997 -0.40699986 C 0.040599998 -0.41939986 0.079799995 -0.42049986 0.107599996 -0.39799985 C 0.1339 -0.37679985 0.1424 -0.34049985 0.13229999 -0.29469985 C 0.13139999 -0.29429984 0.13049999 -0.29379985 0.12959999 -0.29329985 C 0.12709999 -0.30119985 0.12319999 -0.30759984 0.118899986 -0.31249985 C 0.12249999 -0.33509985 0.12069999 -0.35389984 0.113599986 -0.36849985 C 0.1045 -0.3876 0.0878 -0.3944 0.0807 -0.3972 Z M 0.1044 -0.3157 C 0.114 -0.309 0.1304 -0.2924 0.1234 -0.26049998 C 0.1155 -0.26619998 0.1074 -0.27109998 0.0994 -0.27519998 C 0.1054 -0.2913 0.1053 -0.3067 0.1044 -0.3157 Z M 0.0957 -0.2686 C 0.1339 -0.24929999 0.1733 -0.20889999 0.19530001 -0.16659999 C 0.1931 -0.1652 0.19130002 -0.16359998 0.1896 -0.16209999 C 0.1888 -0.16139999 0.18800001 -0.1607 0.18720001 -0.15999998 C 0.17950001 -0.18239999 0.15660001 -0.21129999 0.13340001 -0.23209998 C 0.11550001 -0.24809998 0.097200006 -0.25899997 0.09050001 -0.2616 C 0.0923 -0.2639 0.0941 -0.2662 0.0957 -0.2686 Z M 0.0708 -0.2327 C 0.0725 -0.2334 0.0755 -0.23380001 0.0762 -0.23380001 C 0.0768 -0.23380001 0.0836 -0.2328 0.0851 -0.2327 C 0.091400005 -0.2319 0.1049 -0.2228 0.1023 -0.20650001 C 0.101900004 -0.20390001 0.0957 -0.21290001 0.0917 -0.21800001 C 0.091900006 -0.2141 0.0895 -0.21030001 0.0855 -0.20870002 C 0.0805 -0.20670001 0.075 -0.20890002 0.073 -0.21370001 C 0.0711 -0.21840002 0.0736 -0.2239 0.0786 -0.22580001 C 0.078899994 -0.22590001 0.0792 -0.22600001 0.0795 -0.22610001 C 0.0777 -0.22680001 0.076 -0.22730002 0.0747 -0.22710001 C 0.0735 -0.2283 0.0677 -0.2314 0.0708 -0.2327 Z M -0.0047 -0.2005 L -0.0064 -0.1971 L -0.009199999 -0.1943 L -0.013799999 -0.1915 H -0.016599998 L -0.018299999 -0.1926 L -0.019399999 -0.19489999 L -0.017699998 -0.1977 L -0.011999998 -0.20279999 L -0.007999998 -0.2039 L -0.004599998 -0.2022 V -0.2005 Z"/>
<path id="e2" d="M -0.0808 -0.1915 C -0.081199996 -0.18949999 -0.0814 -0.1875 -0.0814 -0.1855 C -0.0814 -0.1795 -0.0793 -0.1739 -0.0751 -0.1688 C -0.060499996 -0.1506 -0.0015999973 -0.1674 0.0176 -0.1741 C -9.999983E-5 -0.1688 -0.0335 -0.1701 -0.046499997 -0.17289999 C -0.0616 -0.1758 -0.07089999 -0.1959 -0.072799996 -0.20709999 C -0.0758 -0.2038 -0.0793 -0.1982 -0.0808 -0.1915"/>
<linearGradient id="glaze" x1="0%" y1="0%" x2="100%" y2="100%">
<stop offset="0%" stop-color="rgb(255,255,255)" stop-opacity="0.2"/>
<stop offset="49.999%" stop-color="rgb(255,255,255)" stop-opacity="0.0"/>
<stop offset="50.001%" stop-color="rgb(0,0,0)" stop-opacity="0.0"/>
<stop offset="100%" stop-color="rgb(0,0,0)" stop-opacity="0.2"/>
</linearGradient>
</defs>
<g>
<rect x="0" y="0" width="640" height="360" class="yellow"/>
<use xlink:href="#e1" transform="translate(320 180) scale(360 360) rotate(0)" class="black"/>
<use xlink:href="#e2" transform="translate(320 180) scale(360 360) rotate(0)" class="red"/>
</g>
<g>
<rect x="0" y="0" width="640" height="360" fill="url(#glaze)"/>
<path d="M 30 30 L 610 30 L 610 330 L 30 330 Z M 60 60 L 60 300 L 580 300 L 580 60 Z" fill="rgb(255,255,255)" opacity="0.4"/>
<path d="M 0 0 L 640 0 L 640 360 L 0 360 Z M 30 30 L 30 330 L 610 330 L 610 30 Z" fill="rgb(0,0,0)" opacity="0.4"/>
</g>
</svg>
