<?xml version="1.0"?>
<svg xmlns="http://www.w3.org/2000/svg" xmlns:xlink="http://www.w3.org/1999/xlink" version="1.1" width="640" height="360" viewBox="0 0 640 360">
<!-- Generated by Kreative Vexillo v1.0 -->
<style>
.black{fill:rgb(0,0,0);}
.green{fill:rgb(22,167,78);}
.white{fill:rgb(255,255,255);}
.yellow{fill:rgb(255,215,48);}
</style>
<defs>
<path id="tf" d="M -0.701 -0.3963 V -0.39319998 C -0.69259995 -0.39259997 -0.68649995 -0.3913 -0.68289995 -0.3893 C -0.6758999 -0.3856 -0.6723 -0.3784 -0.6723 -0.368 V -0.2112 C -0.6723 -0.2006 -0.676 -0.1934 -0.6834 -0.1895 C -0.6871 -0.1875 -0.6931 -0.18640001 -0.701 -0.186 V -0.18280001 H -0.5186 C -0.5179 -0.18670002 -0.50729996 -0.24530001 -0.5063 -0.2509 H -0.51079994 C -0.5203999 -0.2266 -0.53209996 -0.2098 -0.54539996 -0.20109999 C -0.55899996 -0.19219999 -0.576 -0.18769999 -0.59599996 -0.18769999 C -0.60749996 -0.18769999 -0.61509997 -0.189 -0.61929995 -0.1916 C -0.62389994 -0.1944 -0.62619996 -0.19999999 -0.62619996 -0.20809999 V -0.36119998 C -0.62619996 -0.37499997 -0.62369996 -0.38349998 -0.61849993 -0.38729998 C -0.61399996 -0.39069998 -0.6054999 -0.39249998 -0.5931999 -0.39319998 V -0.39619997 H -0.70109993 V -0.3963 L -0.701 -0.3963 Z M -0.4855 -0.3963 V -0.39319998 C -0.4768 -0.3927 -0.4706 -0.39149997 -0.4668 -0.3895 C -0.4596 -0.3858 -0.456 -0.37849998 -0.456 -0.368 V -0.2111 C -0.456 -0.2005 -0.4598 -0.19319999 -0.4672 -0.1893 C -0.4711 -0.1873 -0.4774 -0.1863 -0.4855 -0.1859 V -0.18280001 H -0.3776 V -0.18580002 C -0.3869 -0.18610002 -0.39400002 -0.18760002 -0.3991 -0.19070001 C -0.405 -0.19420001 -0.4079 -0.20120001 -0.4079 -0.21120001 V -0.36810002 C -0.4079 -0.37870002 -0.40420002 -0.386 -0.397 -0.3898 C -0.3932 -0.3917 -0.3867 -0.3928 -0.3776 -0.3934 V -0.3964 H -0.4855 Z M -0.3591 -0.3963 V -0.39319998 C -0.3508 -0.39259997 -0.3449 -0.3913 -0.3413 -0.3893 C -0.3346 -0.3856 -0.33110002 -0.3784 -0.33110002 -0.368 V -0.2111 C -0.33110002 -0.2005 -0.3348 -0.1933 -0.342 -0.1895 C -0.3457 -0.1875 -0.3515 -0.18640001 -0.3591 -0.186 V -0.18280001 H -0.2579 C -0.2311 -0.18280001 -0.2094 -0.18830001 -0.1935 -0.19900002 C -0.1776 -0.20970002 -0.1699 -0.22320002 -0.1699 -0.24040002 C -0.1699 -0.25880003 -0.178 -0.2727 -0.1946 -0.2831 C -0.2031 -0.2883 -0.2133 -0.2922 -0.2249 -0.2944 L -0.22700001 -0.2948 V -0.30220002 L -0.22480002 -0.30260003 C -0.21390001 -0.30460003 -0.20370002 -0.30940002 -0.19430003 -0.31700003 C -0.18510002 -0.32440004 -0.18070002 -0.33410004 -0.18070002 -0.34680003 C -0.18070002 -0.36770004 -0.19190001 -0.38180003 -0.21490002 -0.38980004 C -0.22720002 -0.39410004 -0.24310002 -0.39630005 -0.26200002 -0.39630005 H -0.3591 V -0.3963 Z M -0.2851 -0.3736 C -0.2851 -0.38030002 -0.28350002 -0.3851 -0.2802 -0.3879 C -0.277 -0.39069998 -0.2718 -0.392 -0.2643 -0.392 C -0.25039998 -0.392 -0.2409 -0.3872 -0.23589998 -0.3779 C -0.23109998 -0.3691 -0.22879998 -0.3582 -0.22879998 -0.3455 C -0.22879998 -0.3281 -0.23249999 -0.31579998 -0.23999998 -0.3087 C -0.24749997 -0.3016 -0.26139998 -0.2981 -0.28249997 -0.2981 H -0.28519997 V -0.3736 Z M -0.2851 -0.2098 V -0.29360002 L -0.2825 -0.2937 C -0.2641 -0.29410002 -0.2509 -0.2919 -0.2421 -0.287 C -0.2275 -0.2789 -0.2202 -0.2627 -0.2202 -0.2387 C -0.2202 -0.2228 -0.2235 -0.2102 -0.2301 -0.2014 C -0.2368 -0.1924 -0.2484 -0.18779999 -0.2647 -0.18779999 C -0.2732 -0.18779999 -0.2791 -0.1906 -0.2823 -0.1961 C -0.2841 -0.1991 -0.285 -0.2036 -0.2851 -0.2098 M -0.1437 -0.3963 V -0.39319998 C -0.13530001 -0.39259997 -0.12920001 -0.3913 -0.12560001 -0.3893 C -0.11850001 -0.3856 -0.114800006 -0.3784 -0.114800006 -0.368 V -0.2111 C -0.114800006 -0.2008 -0.118300006 -0.1937 -0.1253 -0.1898 C -0.12910001 -0.18759999 -0.1354 -0.1864 -0.1437 -0.18589999 V -0.1827 H 0.0408 C 0.041500002 -0.1865 0.0519 -0.239 0.053000003 -0.2446 H 0.048900004 C 0.038800005 -0.22309999 0.027000004 -0.20809999 0.013900004 -0.2 C 5.0000474E-4 -0.1918 -0.017099995 -0.1876 -0.038199995 -0.1876 C -0.049899995 -0.1876 -0.057399996 -0.189 -0.061499994 -0.1918 C -0.065799996 -0.1948 -0.067999996 -0.20019999 -0.067999996 -0.208 V -0.2891 H -0.065299995 C -0.046199996 -0.2891 -0.032699995 -0.285 -0.024999995 -0.27699998 C -0.017699994 -0.26929998 -0.012999995 -0.2568 -0.010499995 -0.23899998 H -0.007199995 V -0.34279996 H -0.010699995 C -0.0141999945 -0.32509997 -0.019299995 -0.31289995 -0.025899995 -0.30589998 C -0.032999996 -0.29839998 -0.045899995 -0.29479998 -0.065299995 -0.295 L -0.067899995 -0.295 V -0.3726 C -0.067899995 -0.37969998 -0.066199996 -0.38439998 -0.0628 -0.387 C -0.059499998 -0.3895 -0.053099997 -0.39069998 -0.042299997 -0.39069998 C -0.015499998 -0.39069998 0.002600003 -0.38669997 0.013100002 -0.37859997 C 0.023000002 -0.37079996 0.030100003 -0.3566 0.0344 -0.33639997 H 0.0379 V -0.39619997 L -0.1437 -0.3963 Z M 0.0729 -0.3963 V -0.3931 C 0.082899995 -0.3921 0.089499995 -0.3903 0.09289999 -0.3877 C 0.098299995 -0.3833 0.10079999 -0.37469998 0.10079999 -0.3613 V -0.2179 C 0.10079999 -0.205 0.09859999 -0.19669999 0.09399999 -0.1926 C 0.08999999 -0.1889 0.08289999 -0.1867 0.07289999 -0.18599999 V -0.1829 H 0.17609999 V -0.18599999 C 0.16549999 -0.18669999 0.15829998 -0.189 0.15439999 -0.19319999 C 0.1501 -0.1977 0.14799999 -0.2058 0.14799999 -0.218 V -0.3741 C 0.14799999 -0.3799 0.14979999 -0.3842 0.15309998 -0.3869 C 0.15639998 -0.38950002 0.16229999 -0.3907 0.17179999 -0.3907 C 0.18879999 -0.3907 0.20069999 -0.384 0.20719999 -0.3707 C 0.21079999 -0.363 0.2127 -0.3526 0.2127 -0.3397 C 0.2127 -0.31800002 0.2078 -0.30440003 0.1977 -0.2982 C 0.1881 -0.2922 0.17269999 -0.2892 0.15079999 -0.28890002 C 0.15079999 -0.28890002 0.14889999 -0.28890002 0.1484 -0.28890002 C 0.14909999 -0.2881 0.1532 -0.2829 0.1532 -0.2829 S 0.2264 -0.18490002 0.228 -0.1828 H 0.2916 V -0.1856 C 0.28959998 -0.1859 0.28739998 -0.18609999 0.28579998 -0.1868 C 0.28329998 -0.1877 0.281 -0.18980001 0.27889997 -0.1927 L 0.20749997 -0.2882 L 0.21169996 -0.289 C 0.22279996 -0.291 0.23349996 -0.2958 0.24349996 -0.3031 C 0.25649998 -0.3128 0.26279998 -0.32569999 0.26279998 -0.3426 C 0.26279998 -0.3654 0.25069997 -0.38079998 0.22569998 -0.38959998 C 0.21269998 -0.394 0.19529998 -0.39619997 0.17409998 -0.39619997 H 0.0729 V -0.3963 Z M 0.2986 -0.3963 C 0.2986 -0.39159998 0.2983 -0.3412 0.2983 -0.3365 H 0.3026 C 0.3052 -0.359 0.31419998 -0.375 0.3299 -0.3836 C 0.3387 -0.3883 0.3513 -0.3909 0.3675 -0.3914 L 0.3702 -0.3915 V -0.218 C 0.3702 -0.20529999 0.3678 -0.1969 0.363 -0.1924 C 0.35860002 -0.1883 0.3503 -0.1862 0.3383 -0.18589999 V -0.18289998 H 0.4486 V -0.18579999 C 0.4362 -0.18609999 0.4279 -0.18809998 0.4235 -0.19229999 C 0.4188 -0.1968 0.4165 -0.20519999 0.4165 -0.218 V -0.3915 L 0.4192 -0.3914 C 0.4357 -0.391 0.4484 -0.38840002 0.4569 -0.3836 C 0.4716 -0.3752 0.4806 -0.3592 0.484 -0.3365 H 0.48839998 C 0.48839998 -0.3412 0.4881 -0.39159998 0.4881 -0.3963 H 0.2986 Z M 0.6367 -0.4759 L 0.63659996 -0.4759 C 0.63479996 -0.4747 0.63319993 -0.4731 0.6317 -0.4712 C 0.6317 -0.4712 0.6037 -0.4367 0.5937 -0.4244 H 0.6041 C 0.6055 -0.42520002 0.6468 -0.4526 0.6468 -0.4526 C 0.65059996 -0.4551 0.6536 -0.4575 0.6555 -0.4597 C 0.6572 -0.46159998 0.658 -0.4642 0.658 -0.4676 C 0.658 -0.4709 0.657 -0.4736 0.6548 -0.4759 C 0.6526 -0.4781 0.6499 -0.4792 0.6461 -0.4792 C 0.6428 -0.4792 0.6396 -0.4782 0.6367 -0.4759 M 0.511 -0.3963 V -0.39319998 C 0.51949996 -0.39259997 0.52559996 -0.3913 0.52919996 -0.3893 C 0.53629994 -0.3856 0.53989995 -0.3784 0.53989995 -0.368 V -0.2111 C 0.53989995 -0.2008 0.53639996 -0.1937 0.52959996 -0.1898 C 0.52559996 -0.18759999 0.5193 -0.1864 0.51109993 -0.18589999 V -0.1827 H 0.6955999 C 0.6963999 -0.1865 0.7066999 -0.239 0.7078999 -0.2446 H 0.7037999 C 0.6935999 -0.22309999 0.6818999 -0.20809999 0.6686999 -0.2 C 0.65519994 -0.1918 0.6376999 -0.1876 0.6165999 -0.1876 C 0.60489994 -0.1876 0.59729993 -0.189 0.5932999 -0.1918 C 0.58909994 -0.1948 0.58689994 -0.20019999 0.58689994 -0.208 V -0.2891 H 0.5895999 C 0.60879993 -0.2891 0.6222999 -0.285 0.6298999 -0.27699998 C 0.63719994 -0.26929998 0.64189994 -0.2568 0.64439994 -0.23899998 H 0.64769995 V -0.34279996 H 0.64419997 C 0.6407 -0.32509997 0.6357 -0.31289995 0.62909997 -0.30589998 C 0.62189996 -0.29839998 0.60899997 -0.29479998 0.5897 -0.295 L 0.587 -0.295 V -0.3726 C 0.587 -0.37969998 0.5887 -0.38439998 0.592 -0.387 C 0.5952 -0.3895 0.6017 -0.39069998 0.6125 -0.39069998 C 0.6393 -0.39069998 0.6574 -0.38669997 0.6678 -0.37859997 C 0.6777 -0.37079996 0.6848 -0.3566 0.6891 -0.33639997 H 0.6926 V -0.39619997 L 0.511 -0.3963 L 0.511 -0.3963 Z M -0.2005 -0.1037 V -0.1006 C -0.192 -0.0999 -0.18599999 -0.098699994 -0.1823 -0.0967 C -0.1752 -0.092999995 -0.1716 -0.0858 -0.1716 -0.075399995 V 0.0815 C -0.1716 0.091800004 -0.1751 0.098900005 -0.182 0.1028 C -0.1859 0.105 -0.19219999 0.106199995 -0.2005 0.106599994 V 0.109799996 H -0.016000003 C -0.015200003 0.106 -0.004900003 0.053499997 -0.0038000029 0.047899995 H -0.007900003 C -0.018100005 0.0694 -0.029800003 0.0844 -0.043000005 0.092499994 C -0.056400005 0.10069999 -0.07390001 0.104899995 -0.095000006 0.104899995 C -0.1067 0.104899995 -0.114300005 0.10349999 -0.11840001 0.1007 C -0.122600004 0.0977 -0.124800004 0.092199996 -0.124800004 0.0845 V 0.0033 H -0.1221 C -0.103 0.0033 -0.08940001 0.0074 -0.081700005 0.0154 C -0.0745 0.0231 -0.069800004 0.0356 -0.06730001 0.0534 H -0.06390001 V -0.0503 H -0.06740001 C -0.07100001 -0.0326 -0.076000005 -0.020399999 -0.08260001 -0.0134 C -0.089800015 -0.0058999998 -0.10270001 -0.0022999998 -0.12210001 -0.0024999995 L -0.12480001 -0.0024999995 V -0.0801 C -0.12480001 -0.0872 -0.12310001 -0.0918 -0.11980001 -0.0945 C -0.116500005 -0.096999995 -0.11000001 -0.0981 -0.09930001 -0.0981 C -0.07250001 -0.0981 -0.054400012 -0.0942 -0.04400001 -0.085999995 C -0.03410001 -0.0782 -0.02690001 -0.063999996 -0.022700012 -0.043799996 H -0.019200012 V -0.1037 H -0.20060001 V -0.1037 Z M 0.019 -0.1037 C 0.0189 -0.099 0.0187 -0.048599996 0.0187 -0.043799996 H 0.0231 C 0.0257 -0.0664 0.0347 -0.082399994 0.0504 -0.0909 C 0.0592 -0.095699996 0.0718 -0.098299995 0.088 -0.098699994 L 0.0908 -0.098799996 V 0.0746 C 0.0908 0.0873 0.0884 0.0957 0.0836 0.100200005 C 0.0792 0.10430001 0.0709 0.10650001 0.0589 0.1067 V 0.1097 H 0.1691 V 0.1067 C 0.1568 0.106400006 0.14840001 0.1043 0.1441 0.100200005 C 0.13929999 0.0957 0.137 0.0873 0.137 0.07450001 V -0.0988 L 0.1397 -0.0987 C 0.15609999 -0.0983 0.1688 -0.0957 0.17729999 -0.090900004 C 0.19199999 -0.0825 0.20099999 -0.0666 0.20439999 -0.043800004 H 0.20879999 C 0.20879999 -0.048500005 0.20849998 -0.09900001 0.20849998 -0.103700005 H 0.019 V -0.1037 Z M -0.575 0.1889 V 0.19219999 C -0.5653 0.1935 -0.5585 0.19569999 -0.5546 0.19899999 C -0.5503 0.20279999 -0.5482 0.21089998 -0.5482 0.22399999 V 0.3674 C -0.5482 0.3796 -0.5502 0.38779998 -0.5544 0.39209998 C -0.5582 0.39599997 -0.5651 0.39829996 -0.57500005 0.39929998 V 0.40249997 H -0.47300005 V 0.39939997 C -0.48310006 0.39869997 -0.49010006 0.39659998 -0.49430004 0.39269996 C -0.49880004 0.38849995 -0.50100005 0.38019997 -0.50100005 0.36739996 V 0.30419996 H -0.49830005 C -0.47920004 0.30419996 -0.46460006 0.30369997 -0.45490006 0.30289996 C -0.44540006 0.30209994 -0.43580005 0.29959995 -0.42620006 0.29579997 C -0.41390008 0.29039997 -0.40490007 0.28319997 -0.39960006 0.27439997 C -0.39420006 0.26549998 -0.39150006 0.25589997 -0.39150006 0.24579996 C -0.39150006 0.22479996 -0.39820006 0.21049996 -0.41180006 0.20189996 C -0.42570007 0.19329996 -0.44640005 0.18889996 -0.47340006 0.18889996 H -0.57490003 L -0.575 0.1889 Z M -0.501 0.2084 C -0.501 0.203 -0.4991 0.1991 -0.49539998 0.1971 C -0.4922 0.1954 -0.4872 0.1945 -0.48029998 0.1945 C -0.4653 0.1945 -0.45489997 0.1995 -0.44939998 0.2095 C -0.44429997 0.2189 -0.44159997 0.2314 -0.44159997 0.2466 C -0.44159997 0.2691 -0.44719997 0.2842 -0.45819998 0.2912 C -0.4651 0.2956 -0.4782 0.298 -0.49819997 0.2983 L -0.5009 0.29839998 L -0.501 0.2084 Z M -0.2978 0.1842 C -0.2991 0.1875 -0.3688 0.36 -0.3688 0.36 C -0.37460002 0.37440002 -0.37910002 0.38340002 -0.38230002 0.3878 C -0.38700002 0.3942 -0.3932 0.39790002 -0.40060002 0.3991 V 0.40240002 H -0.33990002 V 0.3993 C -0.3461 0.3991 -0.3512 0.3985 -0.3546 0.39740002 C -0.3639 0.39420003 -0.36580002 0.3887 -0.36580002 0.38470003 C -0.36580002 0.38060004 -0.3643 0.37430003 -0.3614 0.36560002 C -0.36130002 0.36560002 -0.3515 0.3386 -0.3515 0.3386 H -0.2751 L -0.2663 0.3599 L -0.262 0.3712 C -0.2602 0.37669998 -0.2593 0.3808 -0.2593 0.38369998 C -0.2593 0.39049998 -0.2615 0.39479998 -0.2659 0.39659998 C -0.2692 0.39799997 -0.2756 0.39889997 -0.285 0.39939997 V 0.40249997 H -0.1856 V 0.39939997 C -0.1925 0.39889997 -0.1981 0.39599997 -0.2021 0.39039996 C -0.20629999 0.38459995 -0.21229999 0.37239996 -0.2206 0.35289997 C -0.2206 0.35289997 -0.2852 0.20039997 -0.2921 0.18419997 H -0.29790002 V 0.1842 Z M -0.3171 0.2508 H -0.3112 L -0.2778 0.33130002 H -0.3486 L -0.3171 0.2508 Z M -0.1878 0.1889 C -0.1878 0.1936 -0.18810001 0.24399999 -0.18810001 0.2488 H -0.18370001 C -0.18120001 0.2262 -0.17220001 0.2102 -0.15650001 0.2017 C -0.14770001 0.197 -0.135 0.1944 -0.118900016 0.1939 L -0.11610001 0.1938 V 0.36720002 C -0.11610001 0.3799 -0.118400015 0.3883 -0.123300016 0.39290002 C -0.12770002 0.39710003 -0.13600002 0.39920002 -0.14800002 0.39940003 V 0.40240002 H -0.03770002 V 0.39940003 C -0.05000002 0.39910004 -0.05840002 0.397 -0.06280002 0.39290002 C -0.06750002 0.38850003 -0.06980002 0.38000003 -0.06980002 0.36720002 V 0.1938 L -0.06710002 0.1939 C -0.05060002 0.1944 -0.037900016 0.197 -0.029400017 0.2017 C -0.014800017 0.21000001 -0.005800016 0.226 -0.0023000166 0.24880001 H 0.0021999832 C 0.0021999832 0.244 0.0018999833 0.19360001 0.0018999833 0.18890001 H -0.18770002 L -0.1878 0.1889 Z M 0.0253 0.1889 V 0.19209999 C 0.0353 0.19319999 0.042 0.195 0.0453 0.19759999 C 0.0507 0.20189999 0.0533 0.21059999 0.0533 0.22399999 V 0.3674 C 0.0533 0.3803 0.0511 0.38849998 0.0465 0.3927 C 0.042400002 0.39639997 0.0353 0.3985 0.025300002 0.39929998 V 0.4024 H 0.1285 V 0.39929998 C 0.1179 0.39859998 0.1108 0.3963 0.1068 0.39209998 C 0.1025 0.38759997 0.1004 0.37949997 0.1004 0.36729997 V 0.2111 C 0.1004 0.2053 0.1021 0.2009 0.1054 0.1983 C 0.10870001 0.1956 0.1146 0.1945 0.1241 0.1945 C 0.1411 0.1945 0.1531 0.2013 0.1596 0.2145 C 0.1632 0.22219999 0.165 0.2326 0.165 0.2455 C 0.165 0.2672 0.16010001 0.28079998 0.15 0.287 C 0.1404 0.293 0.125 0.296 0.1031 0.2963 H 0.1007 C 0.1013 0.2971 0.105399996 0.3023 0.105399996 0.3023 S 0.1785 0.4003 0.1801 0.40240002 H 0.2437 V 0.3995 C 0.2417 0.39920002 0.2396 0.39900002 0.2379 0.39830002 C 0.23550001 0.39740002 0.2331 0.39540002 0.23110001 0.39240003 L 0.1597 0.29690003 L 0.1639 0.29610002 C 0.1751 0.29400003 0.1858 0.28930002 0.1958 0.282 C 0.2087 0.2723 0.2151 0.2594 0.2151 0.2425 C 0.2151 0.21980001 0.2029 0.2044 0.178 0.1956 C 0.165 0.1912 0.1477 0.18890001 0.12650001 0.18890001 H 0.0253 V 0.1889 Z M 0.2588 0.1889 V 0.19199999 C 0.2676 0.19259998 0.2737 0.19379999 0.2776 0.19579999 C 0.2848 0.1995 0.2884 0.2067 0.2884 0.2173 V 0.3742 C 0.2884 0.3848 0.2846 0.39209998 0.2771 0.396 C 0.2732 0.398 0.2669 0.399 0.2589 0.3994 V 0.4025 H 0.3669 V 0.3995 C 0.3576 0.39920002 0.3504 0.39760002 0.3454 0.3946 C 0.3395 0.391 0.3364 0.3841 0.3364 0.3741 V 0.2172 C 0.3364 0.2065 0.3401 0.1992 0.3474 0.1955 C 0.3512 0.1936 0.35770002 0.19240001 0.3669 0.1919 V 0.1888 H 0.2588 Z M 0.3846 0.1889 V 0.19199999 C 0.393 0.19269998 0.3991 0.19389999 0.4027 0.1959 C 0.4098 0.1995 0.4135 0.2067 0.4135 0.2172 V 0.3741 C 0.4135 0.3844 0.41 0.3915 0.403 0.3954 C 0.3992 0.3976 0.3928 0.3988 0.38459998 0.3992 V 0.4024 H 0.569 C 0.5698 0.39859998 0.5801 0.34609997 0.5813 0.3405 H 0.5772 C 0.5671 0.362 0.5553 0.377 0.54219997 0.3851 C 0.52879995 0.3933 0.51119995 0.3975 0.49009997 0.3975 C 0.47839996 0.3975 0.47079995 0.3961 0.46679997 0.3933 C 0.46249998 0.3903 0.46029997 0.3849 0.46029997 0.3771 V 0.296 H 0.46289998 C 0.48209998 0.296 0.49569997 0.3 0.5032 0.308 C 0.5105 0.3157 0.5152 0.3283 0.5177 0.346 H 0.521 V 0.2422 H 0.51750004 C 0.51400006 0.2599 0.50890005 0.2721 0.5023 0.27920002 C 0.49520004 0.2867 0.4823 0.2903 0.4629 0.29000002 H 0.4603 V 0.21250002 C 0.4603 0.20540002 0.462 0.20070001 0.4654 0.19810002 C 0.4686 0.19560002 0.4751 0.19450001 0.4858 0.19450001 C 0.5126 0.19450001 0.53069997 0.1985 0.5411 0.20650001 C 0.551 0.2143 0.55810004 0.22850001 0.56240004 0.24870001 H 0.5659 V 0.1888 H 0.38460004 L 0.3846 0.1889 L 0.3846 0.1889 Z"/>
<path id="ts" d="M -0.7103 -0.4056 V -0.3844 L -0.70400006 -0.384 C -0.69310004 -0.3834 -0.68890005 -0.3819 -0.68740004 -0.3811 C -0.68490005 -0.3797 -0.68170005 -0.377 -0.68170005 -0.368 V -0.2112 C -0.68170005 -0.20199999 -0.6851001 -0.1992 -0.68770003 -0.1978 C -0.6894 -0.197 -0.69360006 -0.1955 -0.7038 -0.1951 L -0.7103 -0.19479999 V -0.17339998 H -0.51070005 L -0.49500003 -0.26029998 H -0.517 L -0.5187 -0.25599998 C -0.5277 -0.23259999 -0.5384 -0.21679997 -0.5504 -0.20899999 C -0.56240004 -0.2012 -0.57780004 -0.19719999 -0.5959 -0.19719999 C -0.6089 -0.19719999 -0.6131 -0.19889998 -0.6143 -0.19969998 C -0.6158 -0.20059998 -0.6168 -0.20369998 -0.6168 -0.20829998 V -0.3613 C -0.6168 -0.37629998 -0.6135 -0.3795 -0.6129 -0.37989998 C -0.6114 -0.38099998 -0.6063 -0.38359997 -0.5902 -0.3841 L -0.5837 -0.3843 V -0.4057 H -0.7104 V -0.4056 L -0.7103 -0.4056 Z M -0.4948 -0.4056 V -0.38430002 L -0.4884 -0.38400003 C -0.4771 -0.38350004 -0.4727 -0.38200003 -0.47100002 -0.38110003 C -0.46850002 -0.37980002 -0.46530002 -0.37710002 -0.46530002 -0.3679 V -0.21100001 C -0.46530002 -0.2018 -0.46880004 -0.19890001 -0.47140002 -0.1975 C -0.47310004 -0.1967 -0.4776 -0.19520001 -0.4882 -0.1949 L -0.4947 -0.1948 V -0.1733 H -0.36810002 V -0.1949 H -0.37480003 C -0.38580003 -0.1949 -0.39140004 -0.19690001 -0.39410004 -0.1985 C -0.39700004 -0.20030001 -0.39840004 -0.2044 -0.39840004 -0.21090001 V -0.3678 C -0.39840004 -0.377 -0.39510003 -0.3798 -0.39260003 -0.3811 C -0.39100003 -0.3819 -0.38650003 -0.3833 -0.37450004 -0.3838 L -0.36810005 -0.3841 V -0.40539998 H -0.49470004 V -0.4056 Z M -0.3685 -0.4056 V -0.3844 L -0.3622 -0.384 C -0.3515 -0.3834 -0.34739998 -0.3819 -0.3459 -0.3811 C -0.3445 -0.3803 -0.3405 -0.3781 -0.3405 -0.368 V -0.2111 C -0.3405 -0.20189999 -0.3439 -0.1991 -0.3464 -0.1977 C -0.348 -0.1969 -0.35209998 -0.1954 -0.3621 -0.195 L -0.3685 -0.19469999 V -0.17329998 H -0.2579 C -0.2291 -0.17329998 -0.2057 -0.17929998 -0.1882 -0.19109999 C -0.1698 -0.20349999 -0.16049999 -0.21999998 -0.16049999 -0.24019998 C -0.16049999 -0.2618 -0.17019999 -0.27879998 -0.18949999 -0.29079998 C -0.19449998 -0.29389998 -0.20019999 -0.29649997 -0.20609999 -0.29869998 C -0.19999999 -0.30149996 -0.19409999 -0.30499998 -0.18849999 -0.30949998 C -0.17719999 -0.3187 -0.17139998 -0.33119997 -0.17139998 -0.34659997 C -0.17139998 -0.37169996 -0.18499999 -0.38909996 -0.21179998 -0.39839998 C -0.22519998 -0.40309998 -0.24209999 -0.40539998 -0.26199996 -0.40539998 H -0.36849996 V -0.4056 L -0.3685 -0.4056 Z M -0.2758 -0.3736 C -0.2758 -0.3779 -0.2749 -0.3801 -0.27409998 -0.3808 C -0.27369997 -0.3811 -0.27159998 -0.3826 -0.2643 -0.3826 C -0.25399998 -0.3826 -0.24739999 -0.37960002 -0.24409999 -0.37350002 C -0.2401 -0.36600003 -0.23809999 -0.35660002 -0.23809999 -0.34550002 C -0.23809999 -0.33080003 -0.2409 -0.32070002 -0.2464 -0.31550002 C -0.2498 -0.3122 -0.2577 -0.30840003 -0.2758 -0.3077 V -0.37370002 L -0.2758 -0.3736 Z M -0.2741 -0.2007 L -0.2742 -0.2008 C -0.2746 -0.2015 -0.2757 -0.2039 -0.2758 -0.21000001 V -0.2842 C -0.2627 -0.284 -0.2529 -0.2822 -0.24669999 -0.2788 C -0.23519999 -0.2723 -0.22959998 -0.2592 -0.22959998 -0.23860002 C -0.22959998 -0.22470002 -0.23229998 -0.21410002 -0.23759998 -0.20690002 C -0.24249998 -0.20040001 -0.25149998 -0.19710001 -0.26459998 -0.19710001 C -0.272 -0.1971 -0.2736 -0.1998 -0.2741 -0.2007 M -0.1531 -0.4056 V -0.3844 L -0.1467 -0.384 C -0.13569999 -0.3834 -0.13159999 -0.3819 -0.13 -0.381 C -0.1274 -0.3797 -0.12409999 -0.37690002 -0.12409999 -0.3679 V -0.21100001 C -0.12409999 -0.20210001 -0.1274 -0.1992 -0.12969999 -0.19790001 C -0.13139999 -0.19690001 -0.13579999 -0.19530001 -0.1466 -0.19500001 L -0.153 -0.1947 V -0.1733 H 0.0485 L 0.0644 -0.2539 H 0.043 L 0.0412 -0.24999999 C 0.0317 -0.22939998 0.0208 -0.2153 0.008900002 -0.20799999 C -0.0029999986 -0.20069999 -0.018899998 -0.197 -0.0383 -0.197 C -0.0516 -0.197 -0.0554 -0.1989 -0.056199998 -0.1995 C -0.058299996 -0.20099999 -0.058599997 -0.20549999 -0.058599997 -0.20809999 V -0.2795 C -0.0459 -0.2788 -0.036699995 -0.2759 -0.031799998 -0.27060002 C -0.0257 -0.26420003 -0.021699999 -0.2524 -0.019499999 -0.23550002 L -0.018799998 -0.22970003 H 0.0022 V -0.35220003 H -0.0183 L -0.0194 -0.34670004 C -0.0233 -0.32560003 -0.0288 -0.31630003 -0.032700002 -0.31230003 C -0.037 -0.30770004 -0.0461 -0.30520004 -0.058700003 -0.30460003 V -0.37260002 C -0.058700003 -0.3774 -0.057700004 -0.3792 -0.0573 -0.37950003 C -0.0572 -0.37960002 -0.054700002 -0.38120005 -0.0425 -0.38120005 C -0.0182 -0.38120005 -0.001600001 -0.37780005 0.0069999993 -0.37110004 C 0.015399999 -0.36450005 0.0216 -0.35140005 0.0255 -0.33230004 L 0.0265 -0.32690004 H 0.0471 V -0.40540004 H -0.1531 Z M 0.0636 -0.4056 V -0.38450003 L 0.069800004 -0.38400003 C 0.0834 -0.38280004 0.086600006 -0.38070002 0.0872 -0.38030005 C 0.0886 -0.37920004 0.0917 -0.37520003 0.0917 -0.36120003 V -0.21790004 C 0.0917 -0.20400004 0.088800006 -0.20030004 0.088 -0.19950004 C 0.0864 -0.19810005 0.0821 -0.19570003 0.07 -0.19510004 L 0.0637 -0.19480003 V -0.17350003 H 0.1856 V -0.19490004 L 0.17909999 -0.19520004 C 0.16639999 -0.19570003 0.1625 -0.19850004 0.16139999 -0.19970004 C 0.16019998 -0.20090005 0.15759999 -0.20500004 0.15759999 -0.21800004 V -0.26160005 C 0.17439999 -0.23910004 0.22349998 -0.17350005 0.22349998 -0.17350005 H 0.30119997 V -0.19410005 L 0.29489997 -0.19450006 C 0.29269996 -0.19470006 0.29079998 -0.19500005 0.28949997 -0.19560006 C 0.28909996 -0.19570006 0.28819996 -0.19620006 0.28679997 -0.19820006 C 0.28669998 -0.19830006 0.23979998 -0.26100007 0.22339997 -0.28290007 C 0.23239997 -0.28580007 0.24109997 -0.28960007 0.24939996 -0.29560006 C 0.26469997 -0.30710006 0.27249995 -0.32290006 0.27249995 -0.34260005 C 0.27249995 -0.36950004 0.25789994 -0.38830006 0.22919995 -0.39850006 C 0.21499994 -0.40330005 0.19659995 -0.40570006 0.17449994 -0.40570006 L 0.0636 -0.4056 Z M 0.1574 -0.3741 C 0.1574 -0.376 0.1577 -0.3786 0.1589 -0.3796 C 0.159 -0.37969998 0.16129999 -0.3814 0.17179999 -0.3814 C 0.18519999 -0.3814 0.19379999 -0.37669998 0.19879998 -0.36659998 C 0.20179999 -0.36029997 0.20329998 -0.35129997 0.20329998 -0.33979997 C 0.20329998 -0.32209998 0.19969998 -0.31049997 0.19269998 -0.30629998 C 0.18569998 -0.30189997 0.17359999 -0.29939997 0.15739998 -0.29869998 V -0.3741 Z M 0.2892 -0.4056 L 0.2888 -0.3271 H 0.3109 L 0.3114 -0.3332 C 0.31329998 -0.3542 0.3207 -0.3679 0.3342 -0.37530002 C 0.3405 -0.37870002 0.34939998 -0.38070002 0.3608 -0.3815 V -0.21790001 C 0.3608 -0.2045 0.3578 -0.20030001 0.3566 -0.1991 C 0.35529998 -0.1979 0.35059997 -0.19500001 0.3356 -0.19500001 H 0.329 V -0.17340001 H 0.458 V -0.19500002 H 0.4513 C 0.4359 -0.19500002 0.4312 -0.19780003 0.4299 -0.19900002 C 0.4287 -0.20020002 0.4258 -0.20430002 0.4258 -0.21790001 V -0.3815 C 0.4373 -0.3807 0.4463 -0.3786 0.45229998 -0.37530002 C 0.46469998 -0.36820003 0.47239998 -0.35390002 0.4752 -0.33280003 L 0.476 -0.32700002 H 0.49780002 L 0.49740002 -0.40550002 L 0.2892 -0.4056 Z M 0.6311 -0.4835 C 0.6287 -0.4818 0.6263 -0.4796 0.6242 -0.477 L 0.574 -0.415 H 0.6069 L 0.6519 -0.4448 C 0.6565 -0.4477 0.65999997 -0.4506 0.66249996 -0.4535 C 0.66559994 -0.4571 0.66719997 -0.4619 0.66719997 -0.4677 C 0.66719997 -0.4734 0.66529995 -0.4784 0.66139996 -0.48250002 C 0.6576 -0.48650002 0.6522 -0.4887 0.64599997 -0.4887 C 0.6408 -0.4886 0.6358 -0.4869 0.6311 -0.4835 M 0.5016 -0.4056 V -0.3844 L 0.508 -0.384 C 0.51890004 -0.3834 0.5231 -0.3819 0.5246 -0.381 C 0.52720004 -0.3797 0.5306 -0.37690002 0.5306 -0.3679 V -0.21100001 C 0.5306 -0.20210001 0.5273 -0.1992 0.52500004 -0.19790001 C 0.52320004 -0.19690001 0.51890004 -0.19530001 0.50820005 -0.19500001 L 0.50170004 -0.1947 V -0.1733 H 0.70330006 L 0.71930003 -0.2539 H 0.6977 L 0.6958 -0.24999999 C 0.6863 -0.22939998 0.67550004 -0.2153 0.6637 -0.20799999 C 0.65169996 -0.20069999 0.63589996 -0.197 0.61649996 -0.197 C 0.60309994 -0.197 0.5994 -0.1989 0.59849995 -0.1995 C 0.59639996 -0.20099999 0.5961 -0.20549999 0.5961 -0.20809999 V -0.2795 C 0.6088 -0.2788 0.618 -0.2759 0.62289995 -0.27060002 C 0.62899995 -0.26420003 0.63319993 -0.2524 0.6352999 -0.23550002 L 0.6359999 -0.22970003 H 0.6568999 V -0.35220003 H 0.6363999 L 0.6352999 -0.34670004 C 0.6313999 -0.32560003 0.6258999 -0.31630003 0.62209994 -0.31230003 C 0.6176999 -0.30770004 0.6086999 -0.30520004 0.5960999 -0.30460003 V -0.37260002 C 0.5960999 -0.3774 0.5970999 -0.3792 0.5974999 -0.37950003 C 0.5975999 -0.37960002 0.6001999 -0.38120005 0.6122999 -0.38120005 C 0.6365999 -0.38120005 0.6531999 -0.37780005 0.6617999 -0.37110004 C 0.6702999 -0.36450005 0.6764999 -0.35140005 0.6802999 -0.33230004 L 0.68129987 -0.32690004 H 0.70179987 V -0.40540004 H 0.5016 L 0.5016 -0.4056 Z M -0.2099 -0.1131 V -0.091800004 L -0.2036 -0.09150001 C -0.19260001 -0.090900004 -0.1884 -0.08940001 -0.1869 -0.08850001 C -0.1842 -0.08710001 -0.18090001 -0.084400006 -0.18090001 -0.07540001 V 0.0815 C -0.18090001 0.0904 -0.1841 0.0933 -0.18660001 0.0946 C -0.18830001 0.0956 -0.19270001 0.0972 -0.20340002 0.0976 L -0.20980002 0.0978 V 0.119200006 H -0.0083 L 0.0075 0.0386 H -0.013900001 L -0.015700001 0.0425 C -0.025200002 0.0631 -0.0361 0.0773 -0.047900002 0.0845 C -0.059800003 0.0918 -0.0757 0.0955 -0.095 0.0955 C -0.1083 0.0955 -0.1121 0.0936 -0.1129 0.093 C -0.114999995 0.0915 -0.115399994 0.087000005 -0.115399994 0.0845 V 0.0131 C -0.10259999 0.0138 -0.093499996 0.0167 -0.088599995 0.0219 C -0.082499996 0.0283 -0.0782 0.040200002 -0.07619999 0.057000004 L -0.0755 0.062800005 H -0.054699995 V -0.0597 H -0.07519999 L -0.076299995 -0.054300003 C -0.080299996 -0.033200003 -0.0857 -0.023900002 -0.0896 -0.019900002 C -0.094 -0.015300002 -0.103 -0.012800002 -0.1156 -0.012200002 V -0.0802 C -0.1156 -0.085 -0.114599995 -0.0868 -0.114199996 -0.0871 C -0.114099994 -0.0872 -0.111499995 -0.0888 -0.0994 -0.0888 C -0.0751 -0.0888 -0.0585 -0.0854 -0.0499 -0.0787 C -0.0414 -0.0721 -0.0352 -0.059 -0.031499997 -0.039899997 L -0.030399997 -0.034499995 H -0.009899996 V -0.113 H -0.21000001 V -0.1131 L -0.2099 -0.1131 Z M 0.0097 -0.1131 L 0.0094 -0.0345 H 0.0315 L 0.0321 -0.040599998 C 0.0339 -0.0616 0.0413 -0.075399995 0.0548 -0.0827 C 0.0611 -0.0861 0.0699 -0.0881 0.0813 -0.0889 V 0.0746 C 0.0813 0.088 0.0784 0.0922 0.077199996 0.0934 C 0.075899996 0.0946 0.0712 0.097500004 0.056299996 0.097500004 H 0.049599998 V 0.119100004 H 0.17859998 V 0.0975 H 0.17199999 C 0.1566 0.0975 0.15179999 0.094699994 0.15059999 0.093499996 C 0.14929998 0.0923 0.14649999 0.088199995 0.14649999 0.074599996 V -0.089 C 0.15799999 -0.0882 0.167 -0.086100005 0.17289999 -0.0828 C 0.1853 -0.0757 0.19309999 -0.0614 0.19579999 -0.040400002 L 0.19659999 -0.034500003 H 0.21849999 L 0.21809998 -0.1131 L 0.0097 -0.1131 Z M -0.5844 0.1796 V 0.2005 L -0.5784 0.2012 C -0.5665 0.2025 -0.5622 0.2048 -0.5608 0.20609999 C -0.5605 0.20639999 -0.5576 0.20929998 -0.5576 0.22399999 V 0.3674 C -0.5576 0.3805 -0.5601 0.38439998 -0.5612 0.38549998 C -0.5623 0.38669997 -0.5662 0.38939998 -0.57820004 0.3902 L -0.58440006 0.39069998 V 0.41189998 H -0.46360004 V 0.39049998 L -0.47000003 0.3902 C -0.48190004 0.3897 -0.48630002 0.38729998 -0.48780003 0.3858 C -0.48870003 0.385 -0.49160004 0.38120002 -0.49160004 0.3674 V 0.3136 C -0.47560003 0.31350002 -0.46280003 0.3131 -0.45410004 0.3123 C -0.44370005 0.3114 -0.43320003 0.3087 -0.42270005 0.30449998 C -0.40830004 0.2981 -0.39800006 0.28969997 -0.39160004 0.2792 C -0.38540006 0.2688 -0.38220003 0.25759998 -0.38220003 0.24579999 C -0.38220003 0.2216 -0.39050004 0.20419998 -0.40690005 0.19399999 C -0.42230004 0.18439999 -0.44470006 0.17949998 -0.47340006 0.17949998 H -0.5844 Z M -0.4917 0.2084 C -0.4917 0.2068 -0.4914 0.20549999 -0.491 0.2053 C -0.49019998 0.20480001 -0.48749998 0.20380001 -0.4804 0.20380001 C -0.4689 0.20380001 -0.4615 0.2071 -0.4578 0.214 C -0.45340002 0.222 -0.4512 0.233 -0.4512 0.2466 C -0.4512 0.2657 -0.4553 0.2781 -0.46350002 0.2833 C -0.46680003 0.2854 -0.4744 0.28800002 -0.4918 0.2887 L -0.4917 0.2084 Z M -0.3041 0.1748 L -0.3774 0.3565 C -0.3842 0.3732 -0.38790002 0.3798 -0.3897 0.3823 C -0.3933 0.38729998 -0.39769998 0.38979998 -0.4036 0.3902 L -0.4098 0.39069998 V 0.41189998 H -0.3304 V 0.39029998 L -0.33699998 0.3902 C -0.3453 0.3901 -0.3496 0.3893 -0.35169998 0.3886 C -0.35639998 0.387 -0.35639998 0.38529998 -0.35639998 0.3848 C -0.35639998 0.38309997 -0.3559 0.3787 -0.3525 0.36879998 C -0.3525 0.36879998 -0.34759998 0.35529998 -0.34489998 0.34809998 H -0.28129998 C -0.2792 0.35329998 -0.2749 0.36369997 -0.2749 0.36369997 L -0.2708 0.37439996 C -0.2688 0.38039997 -0.2687 0.38299996 -0.2687 0.38379997 C -0.2687 0.38679996 -0.2693 0.38789997 -0.26950002 0.38799998 C -0.2707 0.38849998 -0.2748 0.3897 -0.28800002 0.3902 L -0.2944 0.39049998 V 0.41189998 H -0.1763 V 0.39 L -0.1832 0.3902 C -0.1883 0.3904 -0.192 0.38869998 -0.1947 0.385 C -0.1972 0.38149998 -0.2023 0.3725 -0.2121 0.3493 L -0.286 0.1748 H -0.3043 V 0.1748 H -0.3041 Z M -0.314 0.2686 C -0.30780002 0.2835 -0.2966 0.3105 -0.29180002 0.322 H -0.33490002 C -0.3305 0.3106 -0.3199 0.2836 -0.314 0.2686 M -0.1972 0.1796 L -0.1976 0.2581 H -0.1754 L -0.17490001 0.252 C -0.17300001 0.23110001 -0.16560002 0.2173 -0.15200001 0.2099 C -0.14580001 0.20650001 -0.1368 0.2045 -0.12550001 0.2037 V 0.36720002 C -0.12550001 0.3806 -0.12840001 0.38480002 -0.1297 0.38610002 C -0.13100001 0.3873 -0.1357 0.39010003 -0.1507 0.39010003 H -0.1574 V 0.41180003 H -0.028400004 V 0.39010003 H -0.035000004 C -0.050400004 0.39010003 -0.055000003 0.38730004 -0.056300003 0.38610002 C -0.057500005 0.38490003 -0.0604 0.38070002 -0.0604 0.36710003 V 0.2037 C -0.0489 0.2045 -0.0399 0.20660001 -0.034 0.2099 C -0.021500003 0.21700001 -0.013800003 0.23120001 -0.011000002 0.2523 L -0.010300002 0.2581 H 0.011599998 L 0.011299998 0.1796 L -0.1972 0.1796 Z M 0.0159 0.1796 V 0.2007 L 0.022100002 0.2012 C 0.035600003 0.2024 0.038900003 0.20449999 0.039400004 0.2049 C 0.040800005 0.206 0.044000003 0.21 0.044000003 0.22399999 V 0.3674 C 0.044000003 0.3813 0.041200005 0.385 0.040300004 0.3858 C 0.038700003 0.3872 0.034300003 0.3896 0.022400005 0.39020002 L 0.016000004 0.3905 V 0.4118 H 0.13790001 V 0.3904 L 0.1315 0.3901 C 0.11880001 0.3896 0.114800006 0.3869 0.1137 0.3857 C 0.1126 0.38439998 0.11 0.3803 0.11 0.36729997 V 0.32369998 C 0.1268 0.3462 0.1758 0.41179997 0.1758 0.41179997 H 0.25349998 V 0.39119998 L 0.24729998 0.39069998 C 0.24499999 0.3906 0.24309999 0.39009997 0.24189998 0.3897 C 0.24149998 0.3896 0.24049999 0.389 0.23919998 0.387 C 0.23909998 0.3869 0.19219998 0.3242 0.17589998 0.30229998 C 0.18479998 0.29939997 0.19359998 0.29559997 0.20179999 0.28959998 C 0.217 0.27809998 0.22479999 0.26239997 0.22479999 0.24249998 C 0.22479999 0.21569997 0.2103 0.19689998 0.18159999 0.18669999 C 0.16749999 0.1818 0.14909999 0.17949998 0.12689999 0.17949998 H 0.0159 V 0.1796 Z M 0.1098 0.2111 C 0.1098 0.2091 0.11000001 0.2067 0.11130001 0.2056 C 0.11140001 0.20549999 0.11370001 0.2038 0.12420001 0.2038 C 0.13780001 0.2038 0.1462 0.2085 0.15120001 0.21859999 C 0.15420002 0.22489999 0.15580001 0.234 0.15580001 0.24539998 C 0.15580001 0.26309997 0.15220001 0.27459997 0.14520001 0.27889997 C 0.13810001 0.28319997 0.12610002 0.28569996 0.10990001 0.28649998 V 0.2111 Z M 0.2494 0.1796 V 0.2009 L 0.2558 0.20120001 C 0.2671 0.2017 0.27150002 0.20320001 0.2732 0.20410001 C 0.27560002 0.20540002 0.2789 0.2081 0.2789 0.21730001 V 0.37420002 C 0.2789 0.38340002 0.27539998 0.38630003 0.2728 0.3876 C 0.27109998 0.3885 0.2666 0.3899 0.256 0.39020002 L 0.2495 0.39040002 V 0.4119 H 0.37620002 V 0.39020002 H 0.3695 C 0.35860002 0.39020002 0.3529 0.3882 0.3502 0.38660002 C 0.3473 0.3849 0.3459 0.38070002 0.3459 0.37420002 V 0.2173 C 0.3459 0.20809999 0.3492 0.2053 0.3517 0.204 C 0.35320002 0.2032 0.3578 0.20179999 0.3698 0.2013 L 0.3762 0.20099999 V 0.17969999 L 0.2494 0.1796 Z M 0.3752 0.1796 V 0.2009 L 0.3816 0.20120001 C 0.39249998 0.2018 0.3967 0.20330001 0.3982 0.20410001 C 0.4009 0.2055 0.4041 0.20830001 0.4041 0.21720001 V 0.37410003 C 0.4041 0.38300002 0.4008 0.38580003 0.3985 0.38720003 C 0.39679998 0.38810003 0.3924 0.38980004 0.3816 0.39010003 L 0.3751 0.39030004 V 0.41180003 H 0.5767 L 0.5926 0.33110002 H 0.5712 L 0.5694 0.33490002 C 0.5599 0.35560003 0.549 0.3697 0.53720003 0.37700003 C 0.5252 0.38430002 0.50930005 0.38800004 0.49000004 0.38800004 C 0.47670004 0.38800004 0.47290003 0.38610005 0.47210005 0.38550004 C 0.47000006 0.38400003 0.46970004 0.37950003 0.46970004 0.37690005 V 0.30550003 C 0.48240003 0.30630004 0.49160004 0.30910003 0.49650005 0.31440002 C 0.50250006 0.3208 0.5066 0.33260003 0.5088 0.34950003 L 0.5095 0.35540003 H 0.5303 V 0.23290002 H 0.5098 L 0.5088 0.23830003 C 0.50490004 0.2594 0.49940002 0.26870003 0.49550003 0.2727 C 0.4911 0.27740002 0.48210004 0.2799 0.46950004 0.28050002 V 0.2126 C 0.46950004 0.2077 0.47060004 0.2059 0.47100005 0.2056 C 0.47110003 0.20549999 0.47360006 0.2039 0.48570004 0.2039 C 0.51000005 0.2039 0.5267 0.20729999 0.53520006 0.21399999 C 0.54370004 0.22069998 0.54980004 0.2338 0.5536001 0.25289997 L 0.5547001 0.25829998 H 0.5752001 V 0.17969999 H 0.3752 V 0.1796 L 0.3752 0.1796 Z"/>
<linearGradient id="glaze" x1="0%" y1="0%" x2="100%" y2="100%">
<stop offset="0%" stop-color="rgb(255,255,255)" stop-opacity="0.2"/>
<stop offset="49.999%" stop-color="rgb(255,255,255)" stop-opacity="0.0"/>
<stop offset="50.001%" stop-color="rgb(0,0,0)" stop-opacity="0.0"/>
<stop offset="100%" stop-color="rgb(0,0,0)" stop-opacity="0.2"/>
</linearGradient>
</defs>
<g>
<g>
<rect x="0" y="0" width="640" height="180" class="white"/>
<rect x="0" y="180" width="640" height="180" class="green"/>
</g>
<use xlink:href="#ts" transform="translate(320 90) scale(180 180) rotate(0)" class="black"/>
<use xlink:href="#tf" transform="translate(320 90) scale(180 180) rotate(0)" class="yellow"/>
</g>
<g>
<rect x="0" y="0" width="640" height="360" fill="url(#glaze)"/>
<path d="M 30 30 L 610 30 L 610 330 L 30 330 Z M 60 60 L 60 300 L 580 300 L 580 60 Z" fill="rgb(255,255,255)" opacity="0.4"/>
<path d="M 0 0 L 640 0 L 640 360 L 0 360 Z M 30 30 L 30 330 L 610 330 L 610 30 Z" fill="rgb(0,0,0)" opacity="0.4"/>
</g>
</svg>
