<?xml version="1.0"?>
<svg xmlns="http://www.w3.org/2000/svg" xmlns:xlink="http://www.w3.org/1999/xlink" version="1.1" width="640" height="360" viewBox="0 0 640 360">
<!-- Generated by Kreative Vexillo v1.0 -->
<style>
.blue{fill:rgb(0,62,126);}
.red{fill:rgb(239,65,53);}
.white{fill:rgb(255,255,255);}
</style>
<defs>
<path id="star" d="M 0.0 -1.0 L 0.2245 -0.309 L 0.9511 -0.309 L 0.3633 0.118 L 0.5878 0.809 L 0.0 0.382 L -0.5878 0.809 L -0.3633 0.118 L -0.9511 -0.309 L -0.2245 -0.309 Z"/>
<clipPath id="clip0">
<path d="M 0 0 L 0 13.7682 L 135.5233 90 L 0 166.2318 L 0 166.2318 L 0 180 L 24.4767 180 L 160 103.7682 L 160 103.7682 L 160 103.7682 L 160 103.7682 L 160 103.7682 L 160 103.7682 L 295.5233 180 L 320 180 L 320 166.2318 L 184.4767 90 L 184.4767 90 L 320 13.7682 L 320 0 L 295.5233 0 L 160 76.2318 L 160 76.2318 L 160 76.2318 L 160 76.2318 L 160 76.2318 L 160 76.2318 L 24.4767 0 Z"/>
</clipPath>
<linearGradient id="glaze" x1="0%" y1="0%" x2="100%" y2="100%">
<stop offset="0%" stop-color="rgb(255,255,255)" stop-opacity="0.2"/>
<stop offset="49.999%" stop-color="rgb(255,255,255)" stop-opacity="0.0"/>
<stop offset="50.001%" stop-color="rgb(0,0,0)" stop-opacity="0.0"/>
<stop offset="100%" stop-color="rgb(0,0,0)" stop-opacity="0.2"/>
</linearGradient>
</defs>
<g>
<rect x="0" y="0" width="640" height="360" class="blue"/>
<g>
<path d="M 0 0 L 0 20.6523 L 0 20.6523 L 123.2849 90 L 123.2849 90 L 0 159.3478 L 0 159.3478 L 0 180 L 36.7151 180 L 160 110.6522 L 160 110.6522 L 283.2849 180 L 320 180 L 320 159.3478 L 196.7151 90 L 320 20.6522 L 320 0 L 283.2849 0 L 160 69.3478 L 160 69.3478 L 36.7151 0 Z" class="white"/>
<g clip-path="url(#clip0)">
<path d="M 0 0 L 160 90 L 0 90 Z" class="red"/>
<path d="M 320 0 L 160 90 L 160 0 Z" class="red"/>
<path d="M 0 180 L 160 90 L 160 180 Z" class="red"/>
<path d="M 320 180 L 160 90 L 320 90 Z" class="red"/>
</g>
<g>
<rect x="0" y="60" width="320" height="60" class="white"/>
<rect x="130" y="0" width="60" height="180" class="white"/>
</g>
<g>
<rect x="0" y="72" width="320" height="36" class="red"/>
<rect x="142" y="0" width="36" height="180" class="red"/>
</g>
</g>
<g>
<use xlink:href="#star" transform="translate(480 71.2) scale(24 24) rotate(0)" class="white"/>
<use xlink:href="#star" transform="translate(524.2529 80.6063) scale(24 24) rotate(24)" class="white"/>
<use xlink:href="#star" transform="translate(560.8542 107.1986) scale(24 24) rotate(48)" class="white"/>
<use xlink:href="#star" transform="translate(583.4749 146.379) scale(24 24) rotate(72)" class="white"/>
<use xlink:href="#star" transform="translate(588.204 191.3727) scale(24 24) rotate(96)" class="white"/>
<use xlink:href="#star" transform="translate(574.2236 234.4) scale(24 24) rotate(120)" class="white"/>
<use xlink:href="#star" transform="translate(543.951 268.021) scale(24 24) rotate(144)" class="white"/>
<use xlink:href="#star" transform="translate(502.6208 286.4225) scale(24 24) rotate(168)" class="white"/>
<use xlink:href="#star" transform="translate(457.3792 286.4225) scale(24 24) rotate(192)" class="white"/>
<use xlink:href="#star" transform="translate(416.049 268.021) scale(24 24) rotate(216)" class="white"/>
<use xlink:href="#star" transform="translate(385.7764 234.4) scale(24 24) rotate(240)" class="white"/>
<use xlink:href="#star" transform="translate(371.796 191.3727) scale(24 24) rotate(264)" class="white"/>
<use xlink:href="#star" transform="translate(376.5251 146.379) scale(24 24) rotate(288)" class="white"/>
<use xlink:href="#star" transform="translate(399.1458 107.1986) scale(24 24) rotate(312)" class="white"/>
<use xlink:href="#star" transform="translate(435.7471 80.6063) scale(24 24) rotate(336)" class="white"/>
</g>
</g>
<g>
<rect x="0" y="0" width="640" height="360" fill="url(#glaze)"/>
<path d="M 30 30 L 610 30 L 610 330 L 30 330 Z M 60 60 L 60 300 L 580 300 L 580 60 Z" fill="rgb(255,255,255)" opacity="0.4"/>
<path d="M 0 0 L 640 0 L 640 360 L 0 360 Z M 30 30 L 30 330 L 610 330 L 610 30 Z" fill="rgb(0,0,0)" opacity="0.4"/>
</g>
</svg>
