<?xml version="1.0"?>
<svg xmlns="http://www.w3.org/2000/svg" xmlns:xlink="http://www.w3.org/1999/xlink" version="1.1" width="640" height="360" viewBox="0 0 640 360">
<!-- Generated by Kreative Vexillo v1.0 -->
<style>
.green{fill:rgb(0,155,72);}
.red{fill:rgb(213,43,30);}
.white{fill:rgb(255,255,255);}
</style>
<defs>
<linearGradient id="glaze" x1="0%" y1="0%" x2="100%" y2="100%">
<stop offset="0%" stop-color="rgb(255,255,255)" stop-opacity="0.2"/>
<stop offset="49.999%" stop-color="rgb(255,255,255)" stop-opacity="0.0"/>
<stop offset="50.001%" stop-color="rgb(0,0,0)" stop-opacity="0.0"/>
<stop offset="100%" stop-color="rgb(0,0,0)" stop-opacity="0.2"/>
</linearGradient>
</defs>
<g>
<rect x="0" y="0" width="640" height="360" class="red"/>
<path d="M 0 0 L 0 31.716 L 0 31.716 L 263.6161 180 L 263.6161 180 L 0 328.284 L 0 360 L 56.3839 360 L 320 211.716 L 320 211.716 L 320 211.716 L 320 211.716 L 320 211.716 L 320 211.716 L 583.6161 360 L 640 360 L 640 328.284 L 376.3839 180 L 376.3839 180 L 640 31.716 L 640 0 L 583.6161 0 L 320 148.284 L 320 148.284 L 320 148.284 L 320 148.284 L 320 148.284 L 320 148.284 L 56.3839 0 Z" class="green"/>
<g>
<rect x="0" y="152.3571" width="640" height="55.2857" class="white"/>
<rect x="292.3571" y="0" width="55.2857" height="360" class="white"/>
</g>
</g>
<g>
<rect x="0" y="0" width="640" height="360" fill="url(#glaze)"/>
<path d="M 30 30 L 610 30 L 610 330 L 30 330 Z M 60 60 L 60 300 L 580 300 L 580 60 Z" fill="rgb(255,255,255)" opacity="0.4"/>
<path d="M 0 0 L 640 0 L 640 360 L 0 360 Z M 30 30 L 30 330 L 610 330 L 610 30 Z" fill="rgb(0,0,0)" opacity="0.4"/>
</g>
</svg>
