<?xml version="1.0"?>
<svg xmlns="http://www.w3.org/2000/svg" xmlns:xlink="http://www.w3.org/1999/xlink" version="1.1" width="640" height="360" viewBox="0 0 640 360">
<!-- Generated by Kreative Vexillo v1.0 -->
<style>
.purple{fill:rgb(101,0,101);}
.yellow{fill:rgb(254,214,28);}
</style>
<defs>
<path id="e" d="M 0.6649 -0.2553 L 0.43010002 -0.25489998 C 0.3306 -0.4169 0.2008 -0.4979 0.0 -0.5 C -0.183 -0.5 -0.343 -0.4017 -0.4301 -0.255 L -0.6649 -0.2554 L 0.0 0.1383 L 0.6649 -0.2553 L 0.6649 -0.2553 L 0.6649 -0.2553 H 0.6649 Z M -0.247 -0.289 L -0.0624 -0.1797 V -0.37510002 C -0.042099997 -0.3785 -0.0213 -0.38030002 0.0 -0.38030002 S 0.0421 -0.3785 0.0624 -0.37510002 V -0.17970002 L 0.2471 -0.28900003 C 0.2787 -0.26200002 0.3058 -0.22980003 0.32709998 -0.19390003 L 0.0 -3.0E-4 L -0.327 -0.1939 C -0.3057 -0.2299 -0.2786 -0.262 -0.247 -0.289 Z M 0.3782 -0.0401 C 0.3796 -0.0269 0.3803 -0.013500001 0.3803 0.0 C 0.3803 0.1755 0.26139998 0.3232 0.099699974 0.367 L 0.0 0.1809 L -0.0997 0.3671 C -0.2614 0.3232 -0.3803 0.1755 -0.3803 0.0 C -0.3803 -0.0136 -0.3796 -0.0269 -0.3782 -0.0401 L -0.4887 -0.1055 C -0.496 -0.071499996 -0.5 -0.036199994 -0.5 1.0000169E-4 C -0.5 0.2762 -0.27609998 0.5001 0.0 0.5001 C 0.2761 0.5001 0.5 0.2762 0.5 1.00016594E-4 C 0.5 -0.036099985 0.4961 -0.07139999 0.4887 -0.10549998 L 0.3782 -0.0401 L 0.3782 -0.0401 Z"/>
<linearGradient id="glaze" x1="0%" y1="0%" x2="100%" y2="100%">
<stop offset="0%" stop-color="rgb(255,255,255)" stop-opacity="0.2"/>
<stop offset="49.999%" stop-color="rgb(255,255,255)" stop-opacity="0.0"/>
<stop offset="50.001%" stop-color="rgb(0,0,0)" stop-opacity="0.0"/>
<stop offset="100%" stop-color="rgb(0,0,0)" stop-opacity="0.2"/>
</linearGradient>
</defs>
<g>
<rect x="0" y="0" width="640" height="360" class="purple"/>
<use xlink:href="#e" transform="translate(320 180) scale(216 216) rotate(0)" class="yellow"/>
</g>
<g>
<rect x="0" y="0" width="640" height="360" fill="url(#glaze)"/>
<path d="M 30 30 L 610 30 L 610 330 L 30 330 Z M 60 60 L 60 300 L 580 300 L 580 60 Z" fill="rgb(255,255,255)" opacity="0.4"/>
<path d="M 0 0 L 640 0 L 640 360 L 0 360 Z M 30 30 L 30 330 L 610 330 L 610 30 Z" fill="rgb(0,0,0)" opacity="0.4"/>
</g>
</svg>
