<?xml version="1.0"?>
<svg xmlns="http://www.w3.org/2000/svg" xmlns:xlink="http://www.w3.org/1999/xlink" version="1.1" width="640" height="360" viewBox="0 0 640 360">
<!-- Generated by Kreative Vexillo v1.0 -->
<style>
.green{fill:rgb(0,169,79);}
.red{fill:rgb(239,65,53);}
.white{fill:rgb(255,255,255);}
</style>
<defs>
<path id="tree" d="M -0.0136 -0.5 C -0.0351 -0.4548 -0.0755 -0.4232 -0.1142 -0.3933 C -0.1205 -0.3878 -0.1363 -0.377 -0.1249 -0.3688 C -0.115 -0.3798 -0.0881 -0.3653 -0.1037 -0.3535 C -0.1178 -0.3403 -0.1371 -0.3355 -0.1527 -0.3247 C -0.1665 -0.3172 -0.1805 -0.3094 -0.1914 -0.2979 C -0.1922 -0.2799 -0.1692 -0.2899 -0.1599 -0.2824 C -0.1477 -0.2694 -0.165 -0.2475 -0.181 -0.2525 C -0.2013 -0.2519 -0.2154 -0.234 -0.2231 -0.2168 C -0.2391 -0.1922 -0.2693 -0.1849 -0.2934 -0.1708 C -0.3071 -0.1628 -0.3205 -0.1539 -0.3333 -0.1446 C -0.3498 -0.1333 -0.3354 -0.1109 -0.3179 -0.1164 C -0.2989 -0.1183 -0.2818 -0.1332 -0.2622 -0.1289 C -0.2443 -0.1226 -0.2393 -0.0994 -0.2454 -0.0831 C -0.2499 -0.0701 -0.2608 -0.0609 -0.2695 -0.0507 C -0.2837 -0.0364 -0.3023 -0.0271 -0.3218 -0.0226 C -0.3407 -0.0163 -0.3577 -0.0047 -0.3701 0.0109 C -0.3845 0.0254 -0.3988 0.0401 -0.4153 0.0522 C -0.4205 0.0655 -0.4058 0.0769 -0.3935 0.0765 C -0.3676 0.0749 -0.3497 0.0537 -0.3276 0.0428 C -0.3093 0.0346 -0.2878 0.0543 -0.2923 0.0734 C -0.2937 0.0919 -0.3111 0.1013 -0.3265 0.107 C -0.3719 0.1298 -0.4113 0.1629 -0.4463 0.1994 C -0.4535 0.2142 -0.4734 0.2099 -0.4841 0.2201 C -0.4911 0.2332 -0.4736 0.24 -0.4631 0.2387 C -0.4182 0.2333 -0.3763 0.2143 -0.3366 0.1934 C -0.3219 0.1864 -0.308 0.1771 -0.2927 0.1715 C -0.2783 0.1679 -0.2582 0.1742 -0.2556 0.1906 C -0.2556 0.2079 -0.2728 0.2175 -0.2864 0.2242 C -0.3283 0.2463 -0.3742 0.2584 -0.419 0.273 C -0.4358 0.2683 -0.4484 0.2981 -0.43 0.3035 C -0.4106 0.3102 -0.3899 0.3048 -0.37 0.3039 C -0.3085 0.2945 -0.2547 0.2612 -0.1972 0.2397 C -0.1733 0.2319 -0.1451 0.2428 -0.1333 0.2652 C -0.1214 0.2852 -0.1225 0.3114 -0.135 0.3308 C -0.1548 0.3731 -0.1848 0.4119 -0.2251 0.4362 C -0.2504 0.4488 -0.28 0.4536 -0.3017 0.4728 C -0.3218 0.4794 -0.2916 0.5065 -0.2873 0.485 C -0.2752 0.4685 -0.254 0.4636 -0.2347 0.4629 C -0.2057 0.4598 -0.1749 0.4544 -0.1524 0.4344 C -0.1322 0.4187 -0.1123 0.397 -0.0849 0.3967 C -0.0697 0.3985 -0.0547 0.4107 -0.0393 0.4032 C -0.0259 0.3971 -0.0047 0.4007 -0.0012 0.4173 C 0.0052 0.4366 0.0252 0.4454 0.041 0.4558 C 0.0467 0.4638 0.0658 0.4846 0.0702 0.4663 C 0.0666 0.4533 0.0717 0.4333 0.0888 0.4376 C 0.1038 0.4383 0.118 0.4438 0.1329 0.4447 C 0.1528 0.4488 0.1694 0.4625 0.1807 0.4789 C 0.1884 0.4896 0.2055 0.508 0.2181 0.4938 C 0.2259 0.4791 0.211 0.4668 0.1988 0.4616 C 0.181 0.4506 0.1658 0.4359 0.1503 0.422 C 0.1274 0.4007 0.1076 0.3735 0.104 0.3415 C 0.099 0.3097 0.1016 0.2772 0.1058 0.2454 C 0.111 0.2249 0.1372 0.2138 0.1555 0.2246 C 0.1812 0.2364 0.2068 0.2532 0.2363 0.2514 C 0.2789 0.2523 0.3227 0.2441 0.3643 0.2565 C 0.4049 0.2692 0.4339 0.3035 0.4734 0.3183 C 0.4822 0.3236 0.4935 0.3185 0.4967 0.3091 C 0.5007 0.3006 0.4979 0.2897 0.4897 0.2849 C 0.444 0.2387 0.3814 0.2163 0.3285 0.1802 C 0.3118 0.1759 0.3087 0.1491 0.3242 0.1414 C 0.3444 0.1266 0.3731 0.1335 0.3911 0.1487 C 0.4062 0.1576 0.4233 0.1642 0.4412 0.1642 C 0.4594 0.1585 0.4506 0.1321 0.4342 0.1302 C 0.4046 0.1134 0.3834 0.086 0.3578 0.0643 C 0.343 0.0518 0.3269 0.0391 0.307 0.0367 C 0.2962 0.0347 0.2851 0.0343 0.2741 0.035 C 0.2638 0.0238 0.2775 0.0067 0.2908 0.0081 C 0.3045 0.009 0.3181 0.01 0.3318 0.0081 C 0.347 0.007 0.3623 0.0054 0.3776 0.0053 C 0.39 0.0137 0.4147 -8.0E-4 0.4035 -0.0153 C 0.3913 -0.026 0.3737 -0.0251 0.3591 -0.0305 C 0.3335 -0.0389 0.3075 -0.0457 0.2811 -0.051 C 0.2627 -0.0521 0.265 -0.0764 0.2812 -0.0791 C 0.2918 -0.0831 0.301 -0.0749 0.3112 -0.0736 C 0.3286 -0.0699 0.3465 -0.07 0.3639 -0.0662 C 0.3787 -0.0734 0.3673 -0.095 0.3539 -0.0962 C 0.3225 -0.1075 0.2953 -0.1278 0.2687 -0.1475 C 0.2394 -0.1696 0.2127 -0.1951 0.183 -0.2167 C 0.1723 -0.2234 0.1546 -0.2253 0.1518 -0.2401 C 0.1508 -0.2537 0.1668 -0.2599 0.1781 -0.2567 C 0.1943 -0.252 0.2093 -0.2437 0.2257 -0.2396 C 0.2386 -0.2374 0.2519 -0.2336 0.2643 -0.2352 C 0.2801 -0.2451 0.2576 -0.2515 0.2494 -0.2549 C 0.2284 -0.2663 0.2097 -0.2814 0.1908 -0.2958 C 0.1748 -0.3094 0.2043 -0.3155 0.2145 -0.3102 C 0.2315 -0.3031 0.2334 -0.3279 0.2207 -0.3341 C 0.2058 -0.3405 0.1929 -0.351 0.1793 -0.3603 C 0.1548 -0.3777 0.127 -0.3915 0.0968 -0.3954 C 0.063 -0.3988 0.0315 -0.4182 0.0135 -0.4471 C 0.0024 -0.4636 -0.0058 -0.4818 -0.0136 -0.5 Z M -0.1247 -0.3103 C -0.1072 -0.3098 -0.1099 -0.2784 -0.1271 -0.2805 C -0.1437 -0.2816 -0.1427 -0.3137 -0.1247 -0.3103 Z M 0.0397 -0.2934 C 0.0566 -0.2965 0.0602 -0.2655 0.0433 -0.2641 C 0.0256 -0.2609 0.0191 -0.2954 0.0397 -0.2934 Z M -0.0085 -0.2894 C 0.0087 -0.286 0.0057 -0.2561 -0.0117 -0.2558 C -0.0244 -0.253 -0.038 -0.2443 -0.0509 -0.2508 C -0.0613 -0.2618 -0.0462 -0.2782 -0.0346 -0.2818 C -0.0256 -0.2836 -0.0174 -0.2876 -0.0085 -0.2894 Z M 0.1023 -0.2893 C 0.1189 -0.2832 0.1131 -0.254 0.0956 -0.2543 C 0.0791 -0.2521 0.0714 -0.2797 0.0868 -0.2862 C 0.0918 -0.288 0.097 -0.2895 0.1023 -0.2893 Z M -0.0846 -0.2561 C -0.0724 -0.2445 -0.0796 -0.2221 -0.0946 -0.2168 C -0.1054 -0.2107 -0.1202 -0.1965 -0.132 -0.2082 C -0.1384 -0.2225 -0.1223 -0.2333 -0.1129 -0.2413 C -0.1044 -0.2478 -0.0951 -0.2538 -0.0846 -0.2561 Z M 0.0546 -0.1914 C 0.072 -0.1832 0.0631 -0.1518 0.044 -0.1537 C 0.0283 -0.1577 0.0303 -0.1847 0.0462 -0.1868 C 0.0492 -0.188 0.0519 -0.1896 0.0546 -0.1914 Z M -8.0E-4 -0.1883 C 0.0155 -0.1807 0.0031 -0.1534 -0.0134 -0.1574 C -0.0304 -0.1594 -0.0301 -0.1893 -0.0113 -0.1866 C -0.0077 -0.1868 -0.0041 -0.1869 -8.0E-4 -0.1883 Z M 0.1185 -0.1727 C 0.1364 -0.1782 0.1579 -0.1598 0.1521 -0.1411 C 0.1441 -0.1267 0.1244 -0.1248 0.1103 -0.1302 C 0.0941 -0.131 0.0832 -0.1554 0.0977 -0.1657 C 0.1036 -0.1702 0.1112 -0.1721 0.1185 -0.1727 Z M -0.1456 -0.168 C -0.1308 -0.1761 -0.1151 -0.1519 -0.1277 -0.1412 C -0.136 -0.129 -0.1574 -0.124 -0.1668 -0.1376 C -0.1746 -0.1509 -0.162 -0.1732 -0.1456 -0.168 Z M -0.2138 -0.1566 C -0.197 -0.1543 -0.1861 -0.139 -0.1799 -0.1245 C -0.1784 -0.1069 -0.2044 -0.0972 -0.2158 -0.11 C -0.2286 -0.1181 -0.2398 -0.1346 -0.2331 -0.1499 C -0.229 -0.156 -0.2207 -0.1585 -0.2138 -0.1566 Z M 0.1943 -0.0927 C 0.2125 -0.0975 0.2257 -0.0684 0.21 -0.0579 C 0.1958 -0.0449 0.168 -0.0621 0.1754 -0.0806 C 0.1791 -0.0875 0.1865 -0.092 0.1943 -0.0927 Z M -0.0374 -0.0595 C -0.0221 -0.0576 -0.027 -0.0311 -0.0412 -0.032 C -0.0563 -0.0348 -0.0528 -0.061 -0.0374 -0.0595 Z M -0.1148 -0.0455 C -0.1023 -0.0543 -0.0863 -0.0328 -0.0966 -0.0228 C -0.109 -0.014 -0.1251 -0.0352 -0.1148 -0.0455 Z M 0.0083 -0.0429 C 0.0227 -0.0341 0.0313 -0.0178 0.0331 -0.0013 C 0.0262 0.0141 -5.0E-4 0.0104 -0.0035 -0.006 C -0.0088 -0.019 -0.0039 -0.0356 0.0083 -0.0429 Z M 0.0513 -0.0174 C 0.0698 -0.022 0.0632 0.0168 0.0476 0.0033 C 0.0425 -0.0028 0.0453 -0.0129 0.0513 -0.0174 Z M -0.2185 0.0097 C -0.2062 0.0061 -0.1882 0.0099 -0.1848 0.024 C -0.1834 0.0373 -0.198 0.0442 -0.2087 0.0475 C -0.2258 0.0528 -0.2426 0.0615 -0.261 0.0603 C -0.2749 0.0524 -0.2798 0.0362 -0.2848 0.0221 C -0.2714 0.0096 -0.2518 0.0133 -0.2352 0.0102 C -0.2297 0.0099 -0.2241 0.0097 -0.2185 0.0097 Z M 0.1999 0.0706 C 0.2156 0.0629 0.2325 0.0878 0.2194 0.0994 C 0.2029 0.1184 0.1713 0.1219 0.1516 0.106 C 0.1492 0.0892 0.166 0.0771 0.1808 0.0747 C 0.1871 0.0729 0.1933 0.0703 0.1999 0.0706 Z M 0.2882 0.0897 C 0.306 0.0866 0.3201 0.1121 0.3073 0.1253 C 0.2953 0.1434 0.2665 0.1482 0.2501 0.1333 C 0.2437 0.1182 0.2567 0.1025 0.2705 0.0977 C 0.2765 0.0951 0.2821 0.0919 0.2882 0.0897 Z M -0.1556 0.1168 C -0.1391 0.1151 -0.1239 0.1315 -0.1261 0.1478 C -0.1141 0.1596 -0.1353 0.1815 -0.1472 0.1693 C -0.1577 0.1566 -0.1577 0.1393 -0.1617 0.1241 C -0.1619 0.1207 -0.1594 0.1163 -0.1556 0.1168 Z M -0.0287 0.1263 C -0.0117 0.1189 0.0104 0.1393 0.0011 0.1566 C -0.0055 0.1707 -0.0314 0.166 -0.0305 0.1496 C -0.0306 0.1418 -0.0312 0.1338 -0.0287 0.1263 Z M -0.0905 0.1373 C -0.0733 0.1334 -0.0576 0.1556 -0.0671 0.1704 C -0.0842 0.1719 -0.0931 0.1517 -0.0905 0.1373 Z"/>
<linearGradient id="glaze" x1="0%" y1="0%" x2="100%" y2="100%">
<stop offset="0%" stop-color="rgb(255,255,255)" stop-opacity="0.2"/>
<stop offset="49.999%" stop-color="rgb(255,255,255)" stop-opacity="0.0"/>
<stop offset="50.001%" stop-color="rgb(0,0,0)" stop-opacity="0.0"/>
<stop offset="100%" stop-color="rgb(0,0,0)" stop-opacity="0.2"/>
</linearGradient>
</defs>
<g>
<g>
<rect x="0" y="0" width="640" height="90" class="red"/>
<rect x="0" y="90" width="640" height="180" class="white"/>
<rect x="0" y="270" width="640" height="90" class="red"/>
</g>
<use xlink:href="#tree" transform="translate(320 180) scale(180 180) rotate(0)" class="green"/>
</g>
<g>
<rect x="0" y="0" width="640" height="360" fill="url(#glaze)"/>
<path d="M 30 30 L 610 30 L 610 330 L 30 330 Z M 60 60 L 60 300 L 580 300 L 580 60 Z" fill="rgb(255,255,255)" opacity="0.4"/>
<path d="M 0 0 L 640 0 L 640 360 L 0 360 Z M 30 30 L 30 330 L 610 330 L 610 30 Z" fill="rgb(0,0,0)" opacity="0.4"/>
</g>
</svg>
