<?xml version="1.0"?>
<svg xmlns="http://www.w3.org/2000/svg" xmlns:xlink="http://www.w3.org/1999/xlink" version="1.1" width="640" height="360" viewBox="0 0 640 360">
<!-- Generated by Kreative Vexillo v1.0 -->
<style>
.blue{fill:rgb(60,59,110);}
.red{fill:rgb(178,34,52);}
.white{fill:rgb(255,255,255);}
</style>
<defs>
<path id="star" d="M 0.0 -1.0 L 0.2245 -0.309 L 0.9511 -0.309 L 0.3633 0.118 L 0.5878 0.809 L 0.0 0.382 L -0.5878 0.809 L -0.3633 0.118 L -0.9511 -0.309 L -0.2245 -0.309 Z"/>
<linearGradient id="glaze" x1="0%" y1="0%" x2="100%" y2="100%">
<stop offset="0%" stop-color="rgb(255,255,255)" stop-opacity="0.2"/>
<stop offset="49.999%" stop-color="rgb(255,255,255)" stop-opacity="0.0"/>
<stop offset="50.001%" stop-color="rgb(0,0,0)" stop-opacity="0.0"/>
<stop offset="100%" stop-color="rgb(0,0,0)" stop-opacity="0.2"/>
</linearGradient>
</defs>
<g>
<g>
<rect x="0" y="0" width="640" height="32.7273" class="red"/>
<rect x="0" y="32.7273" width="640" height="32.7273" class="white"/>
<rect x="0" y="65.4545" width="640" height="32.7273" class="red"/>
<rect x="0" y="98.1818" width="640" height="32.7273" class="white"/>
<rect x="0" y="130.9091" width="640" height="32.7273" class="red"/>
<rect x="0" y="163.6364" width="640" height="32.7273" class="white"/>
<rect x="0" y="196.3636" width="640" height="32.7273" class="red"/>
<rect x="0" y="229.0909" width="640" height="32.7273" class="white"/>
<rect x="0" y="261.8182" width="640" height="32.7273" class="red"/>
<rect x="0" y="294.5455" width="640" height="32.7273" class="white"/>
<rect x="0" y="327.2727" width="640" height="32.7273" class="red"/>
</g>
<rect x="0" y="0" width="163.6364" height="163.6364" class="blue"/>
<use xlink:href="#star" transform="translate(81.8182 81.8182) scale(54.5455 54.5455) rotate(0)" class="white"/>
</g>
<g>
<rect x="0" y="0" width="640" height="360" fill="url(#glaze)"/>
<path d="M 30 30 L 610 30 L 610 330 L 30 330 Z M 60 60 L 60 300 L 580 300 L 580 60 Z" fill="rgb(255,255,255)" opacity="0.4"/>
<path d="M 0 0 L 640 0 L 640 360 L 0 360 Z M 30 30 L 30 330 L 610 330 L 610 30 Z" fill="rgb(0,0,0)" opacity="0.4"/>
</g>
</svg>
