<?xml version="1.0"?>
<svg xmlns="http://www.w3.org/2000/svg" xmlns:xlink="http://www.w3.org/1999/xlink" version="1.1" width="640" height="360" viewBox="0 0 640 360">
<!-- Generated by Kreative Vexillo v1.0 -->
<style>
.red{fill:rgb(210,0,0);}
.yellow{fill:rgb(255,230,0);}
</style>
<defs>
<linearGradient id="glaze" x1="0%" y1="0%" x2="100%" y2="100%">
<stop offset="0%" stop-color="rgb(255,255,255)" stop-opacity="0.2"/>
<stop offset="49.999%" stop-color="rgb(255,255,255)" stop-opacity="0.0"/>
<stop offset="50.001%" stop-color="rgb(0,0,0)" stop-opacity="0.0"/>
<stop offset="100%" stop-color="rgb(0,0,0)" stop-opacity="0.2"/>
</linearGradient>
</defs>
<g>
<rect x="0" y="0" width="640" height="360" class="red"/>
<path d="M 320 180 L 0 0 L 96 0 Z" class="yellow"/>
<path d="M 320 180 L 288 0 L 352 0 Z" class="yellow"/>
<path d="M 320 180 L 544 0 L 640 0 Z" class="yellow"/>
<path d="M 320 180 L 640 148 L 640 212 Z" class="yellow"/>
<path d="M 320 180 L 640 360 L 544 360 Z" class="yellow"/>
<path d="M 320 180 L 352 360 L 288 360 Z" class="yellow"/>
<path d="M 320 180 L 96 360 L 0 360 Z" class="yellow"/>
<path d="M 320 180 L 0 212 L 0 148 Z" class="yellow"/>
<ellipse cx="320" cy="180" rx="64.2857" ry="64.2857" class="red"/>
<ellipse cx="320" cy="180" rx="51.4286" ry="51.4286" class="yellow"/>
</g>
<g>
<rect x="0" y="0" width="640" height="360" fill="url(#glaze)"/>
<path d="M 30 30 L 610 30 L 610 330 L 30 330 Z M 60 60 L 60 300 L 580 300 L 580 60 Z" fill="rgb(255,255,255)" opacity="0.4"/>
<path d="M 0 0 L 640 0 L 640 360 L 0 360 Z M 30 30 L 30 330 L 610 330 L 610 30 Z" fill="rgb(0,0,0)" opacity="0.4"/>
</g>
</svg>
