<?xml version="1.0"?>
<svg xmlns="http://www.w3.org/2000/svg" xmlns:xlink="http://www.w3.org/1999/xlink" version="1.1" width="640" height="360" viewBox="0 0 640 360">
<!-- Generated by Kreative Vexillo v1.0 -->
<style>
.blue{fill:rgb(1,66,156);}
.red{fill:rgb(238,24,24);}
.yellow{fill:rgb(255,214,0);}
</style>
<defs>
<path id="wave" d="M -0.0833 -0.5 Q 0.0 -0.1875 0.0834 -0.5 T 0.25010002 -0.5 T 0.41680002 -0.5 T 0.5835 -0.5 T 0.75020003 -0.5 T 0.91690004 -0.5 T 1.0836 -0.5 V 0.5 Q 1.0003 0.8125 0.91690004 0.5 T 0.75020003 0.5 T 0.5835 0.5 T 0.41680002 0.5 T 0.25010002 0.5 T 0.08340001 0.5 T -0.083299994 0.5 Z"/>
<linearGradient id="glaze" x1="0%" y1="0%" x2="100%" y2="100%">
<stop offset="0%" stop-color="rgb(255,255,255)" stop-opacity="0.2"/>
<stop offset="49.999%" stop-color="rgb(255,255,255)" stop-opacity="0.0"/>
<stop offset="50.001%" stop-color="rgb(0,0,0)" stop-opacity="0.0"/>
<stop offset="100%" stop-color="rgb(0,0,0)" stop-opacity="0.2"/>
</linearGradient>
</defs>
<g>
<g>
<rect x="0" y="0" width="640" height="72" class="red"/>
<rect x="0" y="72" width="640" height="216" class="yellow"/>
<rect x="0" y="288" width="640" height="72" class="red"/>
</g>
<use xlink:href="#wave" transform="translate(0 180) scale(640 72) rotate(0)" class="blue"/>
</g>
<g>
<rect x="0" y="0" width="640" height="360" fill="url(#glaze)"/>
<path d="M 30 30 L 610 30 L 610 330 L 30 330 Z M 60 60 L 60 300 L 580 300 L 580 60 Z" fill="rgb(255,255,255)" opacity="0.4"/>
<path d="M 0 0 L 640 0 L 640 360 L 0 360 Z M 30 30 L 30 330 L 610 330 L 610 30 Z" fill="rgb(0,0,0)" opacity="0.4"/>
</g>
</svg>
