<?xml version="1.0"?>
<svg xmlns="http://www.w3.org/2000/svg" xmlns:xlink="http://www.w3.org/1999/xlink" version="1.1" width="640" height="360" viewBox="0 0 640 360">
<!-- Generated by Kreative Vexillo v1.0 -->
<style>
.black{fill:rgb(0,0,0);}
.blue{fill:rgb(22,74,179);}
.red{fill:rgb(190,42,51);}
.white{fill:rgb(255,255,255);}
</style>
<defs>
<path id="koru" d="M 0.0 0.5 A 0.5 0.5 0.0 1 0 -0.5 0.0 L -10.0 0.0 L -10.0 0.5 Z"/>
<linearGradient id="glaze" x1="0%" y1="0%" x2="100%" y2="100%">
<stop offset="0%" stop-color="rgb(255,255,255)" stop-opacity="0.2"/>
<stop offset="49.999%" stop-color="rgb(255,255,255)" stop-opacity="0.0"/>
<stop offset="50.001%" stop-color="rgb(0,0,0)" stop-opacity="0.0"/>
<stop offset="100%" stop-color="rgb(0,0,0)" stop-opacity="0.2"/>
</linearGradient>
</defs>
<g>
<rect x="0" y="0" width="640" height="360" class="white"/>
<path d="M 0 0 L 410 0 L 50 360 L 0 360 Z" class="blue"/>
<path d="M 436.3604 0 L 563.6396 0 L 203.6396 360 L 76.3604 360 Z" class="red"/>
<path d="M 590 0 L 640 0 L 640 360 L 230 360 Z" class="black"/>
<use xlink:href="#koru" transform="translate(230 90) scale(90 90) rotate(-45)" class="white"/>
<use xlink:href="#koru" transform="translate(410 270) scale(90 90) rotate(135)" class="white"/>
</g>
<g>
<rect x="0" y="0" width="640" height="360" fill="url(#glaze)"/>
<path d="M 30 30 L 610 30 L 610 330 L 30 330 Z M 60 60 L 60 300 L 580 300 L 580 60 Z" fill="rgb(255,255,255)" opacity="0.4"/>
<path d="M 0 0 L 640 0 L 640 360 L 0 360 Z M 30 30 L 30 330 L 610 330 L 610 30 Z" fill="rgb(0,0,0)" opacity="0.4"/>
</g>
</svg>
