<?xml version="1.0"?>
<svg xmlns="http://www.w3.org/2000/svg" xmlns:xlink="http://www.w3.org/1999/xlink" version="1.1" width="640" height="360" viewBox="0 0 640 360">
<!-- Generated by Kreative Vexillo v1.0 -->
<style>
.blue{fill:rgb(0,36,125);}
.red{fill:rgb(207,20,43);}
.white{fill:rgb(255,255,255);}
</style>
<defs>
<path id="star" d="M 0.0 -1.0 L 0.2245 -0.309 L 0.9511 -0.309 L 0.3633 0.118 L 0.5878 0.809 L 0.0 0.382 L -0.5878 0.809 L -0.3633 0.118 L -0.9511 -0.309 L -0.2245 -0.309 Z"/>
<clipPath id="clip0">
<path d="M 0 0 L 0 13.7682 L 0 13.7682 L 135.5232 90 L 0 166.2318 L 0 166.2318 L 0 180 L 24.4767 180 L 160 103.7682 L 160 103.7682 L 295.5232 180 L 320 180 L 320 166.2318 L 184.4768 90 L 184.4768 90 L 320 13.7682 L 320 0 L 295.5232 0 L 160 76.2318 L 160 76.2318 L 24.4767 0 Z"/>
</clipPath>
<linearGradient id="glaze" x1="0%" y1="0%" x2="100%" y2="100%">
<stop offset="0%" stop-color="rgb(255,255,255)" stop-opacity="0.2"/>
<stop offset="49.999%" stop-color="rgb(255,255,255)" stop-opacity="0.0"/>
<stop offset="50.001%" stop-color="rgb(0,0,0)" stop-opacity="0.0"/>
<stop offset="100%" stop-color="rgb(0,0,0)" stop-opacity="0.2"/>
</linearGradient>
</defs>
<g>
<rect x="0" y="0" width="640" height="360" class="blue"/>
<g>
<path d="M 0 0 L 0 20.6523 L 0 20.6523 L 123.2849 90 L 123.2849 90 L 0 159.3478 L 0 159.3478 L 0 180 L 36.7151 180 L 160 110.6523 L 160 110.6523 L 283.2849 180 L 320 180 L 320 159.3477 L 196.7151 90 L 196.7151 90 L 320 20.6523 L 320 0 L 283.2849 0 L 160 69.3477 L 160 69.3477 L 160 69.3477 L 160 69.3477 L 160 69.3477 L 160 69.3477 L 36.7151 0 Z" class="white"/>
<g clip-path="url(#clip0)">
<path d="M 0 0 L 160 90 L 0 90 Z" class="red"/>
<path d="M 320 0 L 160 90 L 160 0 Z" class="red"/>
<path d="M 0 180 L 160 90 L 160 180 Z" class="red"/>
<path d="M 320 180 L 160 90 L 320 90 Z" class="red"/>
</g>
<g>
<rect x="0" y="60" width="320" height="60" class="white"/>
<rect x="130" y="0" width="60" height="180" class="white"/>
</g>
<g>
<rect x="0" y="72" width="320" height="36" class="red"/>
<rect x="142" y="0" width="36" height="180" class="red"/>
</g>
</g>
<g>
<use xlink:href="#star" transform="translate(480 288) scale(26.88 26.88) rotate(0)" class="white"/>
<use xlink:href="#star" transform="translate(406.4 156) scale(24.2133 24.2133) rotate(0)" class="white"/>
<use xlink:href="#star" transform="translate(480 72) scale(24.2133 24.2133) rotate(0)" class="white"/>
<use xlink:href="#star" transform="translate(538.6667 134.4) scale(21.5467 21.5467) rotate(0)" class="white"/>
<use xlink:href="#star" transform="translate(480 288) scale(18.6667 18.6667) rotate(0)" class="red"/>
<use xlink:href="#star" transform="translate(406.4 156) scale(16 16) rotate(0)" class="red"/>
<use xlink:href="#star" transform="translate(480 72) scale(16 16) rotate(0)" class="red"/>
<use xlink:href="#star" transform="translate(538.6667 134.4) scale(13.3333 13.3333) rotate(0)" class="red"/>
</g>
</g>
<g>
<rect x="0" y="0" width="640" height="360" fill="url(#glaze)"/>
<path d="M 30 30 L 610 30 L 610 330 L 30 330 Z M 60 60 L 60 300 L 580 300 L 580 60 Z" fill="rgb(255,255,255)" opacity="0.4"/>
<path d="M 0 0 L 640 0 L 640 360 L 0 360 Z M 30 30 L 30 330 L 610 330 L 610 30 Z" fill="rgb(0,0,0)" opacity="0.4"/>
</g>
</svg>
