<?xml version="1.0"?>
<svg xmlns="http://www.w3.org/2000/svg" xmlns:xlink="http://www.w3.org/1999/xlink" version="1.1" width="640" height="360" viewBox="0 0 640 360">
<!-- Generated by Kreative Vexillo v1.0 -->
<style>
.blue{fill:rgb(0,56,168);}
.red{fill:rgb(206,17,38);}
.white{fill:rgb(255,255,255);}
.yellow{fill:rgb(252,209,22);}
</style>
<defs>
<path id="ray" d="M 0.0 -1.0 L -0.061512 -0.938488 L 0.0 0.0 L 0.061512 -0.938488 L 0.0 -1.0 Z M -0.117794 -0.894736 L -0.16799 -0.844542 L 0.0 0.0 L -0.117794 -0.894736 Z M 0.117796 -0.894736 L 0.167992 -0.84454 L 0.0 0.0 L 0.117796 -0.894736 Z"/>
<path id="star" d="M 0.0 -1.0 L 0.2245 -0.309 L 0.9511 -0.309 L 0.3633 0.118 L 0.5878 0.809 L 0.0 0.382 L -0.5878 0.809 L -0.3633 0.118 L -0.9511 -0.309 L -0.2245 -0.309 Z"/>
<linearGradient id="glaze" x1="0%" y1="0%" x2="100%" y2="100%">
<stop offset="0%" stop-color="rgb(255,255,255)" stop-opacity="0.2"/>
<stop offset="49.999%" stop-color="rgb(255,255,255)" stop-opacity="0.0"/>
<stop offset="50.001%" stop-color="rgb(0,0,0)" stop-opacity="0.0"/>
<stop offset="100%" stop-color="rgb(0,0,0)" stop-opacity="0.2"/>
</linearGradient>
</defs>
<g>
<g>
<rect x="0" y="0" width="640" height="180" class="blue"/>
<rect x="0" y="180" width="640" height="180" class="red"/>
</g>
<path d="M 0 0 L 311.7691 180 L 0 360 Z" class="white"/>
<use xlink:href="#star" transform="translate(28 48.4974) scale(20 20) rotate(-30)" class="yellow"/>
<use xlink:href="#star" transform="translate(28 311.5026) scale(20 20) rotate(-150)" class="yellow"/>
<use xlink:href="#star" transform="translate(255.7691 180) scale(20 20) rotate(90)" class="yellow"/>
<g>
<use xlink:href="#ray" transform="translate(112 180) scale(76 76) rotate(0)" class="yellow"/>
<use xlink:href="#ray" transform="translate(112 180) scale(76 76) rotate(45)" class="yellow"/>
<use xlink:href="#ray" transform="translate(112 180) scale(76 76) rotate(90)" class="yellow"/>
<use xlink:href="#ray" transform="translate(112 180) scale(76 76) rotate(135)" class="yellow"/>
<use xlink:href="#ray" transform="translate(112 180) scale(76 76) rotate(180)" class="yellow"/>
<use xlink:href="#ray" transform="translate(112 180) scale(76 76) rotate(225)" class="yellow"/>
<use xlink:href="#ray" transform="translate(112 180) scale(76 76) rotate(270)" class="yellow"/>
<use xlink:href="#ray" transform="translate(112 180) scale(76 76) rotate(315)" class="yellow"/>
</g>
<ellipse cx="112" cy="180" rx="36" ry="36" class="yellow"/>
</g>
<g>
<rect x="0" y="0" width="640" height="360" fill="url(#glaze)"/>
<path d="M 30 30 L 610 30 L 610 330 L 30 330 Z M 60 60 L 60 300 L 580 300 L 580 60 Z" fill="rgb(255,255,255)" opacity="0.4"/>
<path d="M 0 0 L 640 0 L 640 360 L 0 360 Z M 30 30 L 30 330 L 610 330 L 610 30 Z" fill="rgb(0,0,0)" opacity="0.4"/>
</g>
</svg>
