<?xml version="1.0"?>
<svg xmlns="http://www.w3.org/2000/svg" xmlns:xlink="http://www.w3.org/1999/xlink" version="1.1" width="640" height="360" viewBox="0 0 640 360">
<!-- Generated by Kreative Vexillo v1.0 -->
<style>
.blue{fill:rgb(25,57,138);}
.red{fill:rgb(238,49,36);}
.white{fill:rgb(255,255,255);}
</style>
<defs>
<path id="ray" d="M -0.266667 0.0 L 0.0 -1.0 L 0.266667 0.0 Z"/>
<linearGradient id="glaze" x1="0%" y1="0%" x2="100%" y2="100%">
<stop offset="0%" stop-color="rgb(255,255,255)" stop-opacity="0.2"/>
<stop offset="49.999%" stop-color="rgb(255,255,255)" stop-opacity="0.0"/>
<stop offset="50.001%" stop-color="rgb(0,0,0)" stop-opacity="0.0"/>
<stop offset="100%" stop-color="rgb(0,0,0)" stop-opacity="0.2"/>
</linearGradient>
</defs>
<g>
<rect x="0" y="0" width="640" height="360" class="red"/>
<rect x="0" y="0" width="320" height="180" class="blue"/>
<g>
<use xlink:href="#ray" transform="translate(160 90) scale(67.5 67.5) rotate(0)" class="white"/>
<use xlink:href="#ray" transform="translate(160 90) scale(67.5 67.5) rotate(30)" class="white"/>
<use xlink:href="#ray" transform="translate(160 90) scale(67.5 67.5) rotate(60)" class="white"/>
<use xlink:href="#ray" transform="translate(160 90) scale(67.5 67.5) rotate(90)" class="white"/>
<use xlink:href="#ray" transform="translate(160 90) scale(67.5 67.5) rotate(120)" class="white"/>
<use xlink:href="#ray" transform="translate(160 90) scale(67.5 67.5) rotate(150)" class="white"/>
<use xlink:href="#ray" transform="translate(160 90) scale(67.5 67.5) rotate(180)" class="white"/>
<use xlink:href="#ray" transform="translate(160 90) scale(67.5 67.5) rotate(210)" class="white"/>
<use xlink:href="#ray" transform="translate(160 90) scale(67.5 67.5) rotate(240)" class="white"/>
<use xlink:href="#ray" transform="translate(160 90) scale(67.5 67.5) rotate(270)" class="white"/>
<use xlink:href="#ray" transform="translate(160 90) scale(67.5 67.5) rotate(300)" class="white"/>
<use xlink:href="#ray" transform="translate(160 90) scale(67.5 67.5) rotate(330)" class="white"/>
</g>
<ellipse cx="160" cy="90" rx="38.2301" ry="38.2301" class="blue"/>
<ellipse cx="160" cy="90" rx="34.0487" ry="34.0487" class="white"/>
</g>
<g>
<rect x="0" y="0" width="640" height="360" fill="url(#glaze)"/>
<path d="M 30 30 L 610 30 L 610 330 L 30 330 Z M 60 60 L 60 300 L 580 300 L 580 60 Z" fill="rgb(255,255,255)" opacity="0.4"/>
<path d="M 0 0 L 640 0 L 640 360 L 0 360 Z M 30 30 L 30 330 L 610 330 L 610 30 Z" fill="rgb(0,0,0)" opacity="0.4"/>
</g>
</svg>
