<?xml version="1.0"?>
<svg xmlns="http://www.w3.org/2000/svg" xmlns:xlink="http://www.w3.org/1999/xlink" version="1.1" width="640" height="360" viewBox="0 0 640 360">
<!-- Generated by Kreative Vexillo v1.0 -->
<style>
.black{fill:rgb(0,0,0);}
.red{fill:rgb(152,30,50);}
.white{fill:rgb(255,255,255);}
.yellow{fill:rgb(234,171,0);}
</style>
<defs>
<path id="hcross" d="M -0.5 0.5 V 0.98440003 C -0.5 1.2605001 -0.2762 1.4844 0.0 1.4844 S 0.5 1.2605001 0.5 0.98440003 V 0.5 H 0.9375 C 1.2137 0.5 1.4375 0.27609998 1.4375 0.0 S 1.2137 -0.5 0.9375 -0.5 H 0.5 V -0.98440003 C 0.5 -1.2605001 0.2762 -1.4844 0.0 -1.4844 S -0.5 -1.2605001 -0.5 -0.98440003 V -0.5 V 0.5 Z"/>
<path id="vcross" d="M 0.5 0.5 H 0.98440003 C 1.2606001 0.5 1.4844 0.27609998 1.4844 0.0 S 1.2606001 -0.5 0.98440003 -0.5 H 0.5 V -0.75 C 0.5 -1.0261 0.2762 -1.25 0.0 -1.25 S -0.5 -1.0261 -0.5 -0.75 V -0.5 H -0.98440003 C -1.2606001 -0.5 -1.4844 -0.27609998 -1.4844 0.0 S -1.2606001 0.5 -0.98440003 0.5 H -0.5 H 0.5 Z"/>
<clipPath id="clip0">
<path d="M 0 0 L 53.3333 0 L 640 330 L 640 360 L 586.6667 360 L 0 30 Z"/>
</clipPath>
<clipPath id="clip1">
<rect x="0" y="180" width="160" height="90"/>
<rect x="160" y="270" width="160" height="90"/>
<rect x="320" y="0" width="160" height="90"/>
<rect x="480" y="90" width="160" height="90"/>
</clipPath>
<clipPath id="clip2">
<rect x="160" y="180" width="160" height="90"/>
<rect x="0" y="270" width="160" height="90"/>
<rect x="480" y="0" width="160" height="90"/>
<rect x="320" y="90" width="160" height="90"/>
</clipPath>
<linearGradient id="glaze" x1="0%" y1="0%" x2="100%" y2="100%">
<stop offset="0%" stop-color="rgb(255,255,255)" stop-opacity="0.2"/>
<stop offset="49.999%" stop-color="rgb(255,255,255)" stop-opacity="0.0"/>
<stop offset="50.001%" stop-color="rgb(0,0,0)" stop-opacity="0.0"/>
<stop offset="100%" stop-color="rgb(0,0,0)" stop-opacity="0.2"/>
</linearGradient>
</defs>
<g>
<g>
<g>
<rect x="0" y="0" width="53.3333" height="360" class="yellow"/>
<rect x="53.3333" y="0" width="53.3333" height="360" class="black"/>
<rect x="106.6667" y="0" width="53.3333" height="360" class="yellow"/>
<rect x="160" y="0" width="53.3333" height="360" class="black"/>
<rect x="213.3333" y="0" width="53.3333" height="360" class="yellow"/>
<rect x="266.6667" y="0" width="53.3333" height="360" class="black"/>
<rect x="320" y="0" width="53.3333" height="360" class="yellow"/>
<rect x="373.3333" y="0" width="53.3333" height="360" class="black"/>
<rect x="426.6667" y="0" width="53.3333" height="360" class="yellow"/>
<rect x="480" y="0" width="53.3333" height="360" class="black"/>
<rect x="533.3333" y="0" width="53.3333" height="360" class="yellow"/>
<rect x="586.6667" y="0" width="53.3333" height="360" class="black"/>
</g>
<g clip-path="url(#clip0)">
<g>
<rect x="0" y="0" width="53.3333" height="360" class="black"/>
<rect x="53.3333" y="0" width="53.3333" height="360" class="yellow"/>
<rect x="106.6667" y="0" width="53.3333" height="360" class="black"/>
<rect x="160" y="0" width="53.3333" height="360" class="yellow"/>
<rect x="213.3333" y="0" width="53.3333" height="360" class="black"/>
<rect x="266.6667" y="0" width="53.3333" height="360" class="yellow"/>
<rect x="320" y="0" width="53.3333" height="360" class="black"/>
<rect x="373.3333" y="0" width="53.3333" height="360" class="yellow"/>
<rect x="426.6667" y="0" width="53.3333" height="360" class="black"/>
<rect x="480" y="0" width="53.3333" height="360" class="yellow"/>
<rect x="533.3333" y="0" width="53.3333" height="360" class="black"/>
<rect x="586.6667" y="0" width="53.3333" height="360" class="yellow"/>
</g>
</g>
</g>
<g>
<rect x="0" y="180" width="160" height="90" class="white"/>
<rect x="160" y="180" width="160" height="90" class="red"/>
<rect x="0" y="270" width="160" height="90" class="red"/>
<rect x="160" y="270" width="160" height="90" class="white"/>
</g>
<g>
<rect x="320" y="0" width="160" height="90" class="white"/>
<rect x="480" y="0" width="160" height="90" class="red"/>
<rect x="320" y="90" width="160" height="90" class="red"/>
<rect x="480" y="90" width="160" height="90" class="white"/>
</g>
<g clip-path="url(#clip1)">
<g>
<rect x="48" y="258.48" width="224" height="23.04" class="red"/>
<rect x="148.48" y="221.4" width="23.04" height="97.2" class="red"/>
</g>
<g>
<rect x="368" y="78.48" width="224" height="23.04" class="red"/>
<rect x="468.48" y="41.4" width="23.04" height="97.2" class="red"/>
</g>
<use xlink:href="#hcross" transform="translate(272 270) scale(23.04 23.04) rotate(0)" class="red"/>
<use xlink:href="#hcross" transform="translate(48 270) scale(23.04 23.04) rotate(180)" class="red"/>
<use xlink:href="#hcross" transform="translate(592 90) scale(23.04 23.04) rotate(0)" class="red"/>
<use xlink:href="#hcross" transform="translate(368 90) scale(23.04 23.04) rotate(180)" class="red"/>
<use xlink:href="#vcross" transform="translate(160 221.4) scale(23.04 23.04) rotate(0)" class="red"/>
<use xlink:href="#vcross" transform="translate(160 318.6) scale(23.04 23.04) rotate(180)" class="red"/>
<use xlink:href="#vcross" transform="translate(480 41.4) scale(23.04 23.04) rotate(0)" class="red"/>
<use xlink:href="#vcross" transform="translate(480 138.6) scale(23.04 23.04) rotate(180)" class="red"/>
</g>
<g clip-path="url(#clip2)">
<g>
<rect x="48" y="258.48" width="224" height="23.04" class="white"/>
<rect x="148.48" y="221.4" width="23.04" height="97.2" class="white"/>
</g>
<g>
<rect x="368" y="78.48" width="224" height="23.04" class="white"/>
<rect x="468.48" y="41.4" width="23.04" height="97.2" class="white"/>
</g>
<use xlink:href="#hcross" transform="translate(272 270) scale(23.04 23.04) rotate(0)" class="white"/>
<use xlink:href="#hcross" transform="translate(48 270) scale(23.04 23.04) rotate(180)" class="white"/>
<use xlink:href="#hcross" transform="translate(592 90) scale(23.04 23.04) rotate(0)" class="white"/>
<use xlink:href="#hcross" transform="translate(368 90) scale(23.04 23.04) rotate(180)" class="white"/>
<use xlink:href="#vcross" transform="translate(160 221.4) scale(23.04 23.04) rotate(0)" class="white"/>
<use xlink:href="#vcross" transform="translate(160 318.6) scale(23.04 23.04) rotate(180)" class="white"/>
<use xlink:href="#vcross" transform="translate(480 41.4) scale(23.04 23.04) rotate(0)" class="white"/>
<use xlink:href="#vcross" transform="translate(480 138.6) scale(23.04 23.04) rotate(180)" class="white"/>
</g>
</g>
<g>
<rect x="0" y="0" width="640" height="360" fill="url(#glaze)"/>
<path d="M 30 30 L 610 30 L 610 330 L 30 330 Z M 60 60 L 60 300 L 580 300 L 580 60 Z" fill="rgb(255,255,255)" opacity="0.4"/>
<path d="M 0 0 L 640 0 L 640 360 L 0 360 Z M 30 30 L 30 330 L 610 330 L 610 30 Z" fill="rgb(0,0,0)" opacity="0.4"/>
</g>
</svg>
