<?xml version="1.0"?>
<svg xmlns="http://www.w3.org/2000/svg" xmlns:xlink="http://www.w3.org/1999/xlink" version="1.1" width="640" height="360" viewBox="0 0 640 360">
<!-- Generated by Kreative Vexillo v1.0 -->
<style>
.blue{fill:rgb(0,50,113);}
.white{fill:rgb(255,255,255);}
.yellow{fill:rgb(254,197,0);}
</style>
<defs>
<path id="anchor" d="M -0.0556 -0.4066 C -0.0556 -0.4223 -0.049799997 -0.437 -0.0393 -0.4481 C -0.034199998 -0.4535 -0.028199999 -0.4577 -0.021599999 -0.4606 C -0.0201 -0.4613 -0.019199999 -0.46179998 -0.018599998 -0.4622 L -0.018699998 -0.44629997 C -0.021799998 -0.44449997 -0.023399998 -0.44259998 -0.025299998 -0.44019997 C -0.025899999 -0.43949997 -0.026499998 -0.43869996 -0.027199998 -0.43789998 C -0.0348 -0.429 -0.038999997 -0.4173 -0.038999997 -0.40479997 C -0.038999997 -0.37989998 -0.021899996 -0.36179996 0.0018000044 -0.36179996 C 0.025400005 -0.36179996 0.042600006 -0.37989995 0.042600006 -0.40479997 C 0.042600006 -0.41729996 0.038400006 -0.42909998 0.030800005 -0.43789998 C 0.030100005 -0.4387 0.029500006 -0.43949997 0.028900005 -0.44019997 C 0.027000004 -0.44259998 0.025400005 -0.44449997 0.022300005 -0.44629997 L 0.022200005 -0.4622 C 0.022800006 -0.46179998 0.023700004 -0.4613 0.025200006 -0.4606 C 0.031800006 -0.45769998 0.037800007 -0.4535 0.042900003 -0.4481 C 0.053400002 -0.437 0.059200004 -0.4223 0.059200004 -0.4066 C 0.059200004 -0.3748 0.032900006 -0.348 0.0018000044 -0.348 C -0.0293 -0.348 -0.0556 -0.3749 -0.0556 -0.4066 Z M -0.0338 -0.4048 C -0.0338 -0.4048 -0.0338 -0.4048 -0.0338 -0.4048 C -0.0338 -0.3829 -0.018799998 -0.3669 0.0018000007 -0.3669 C 0.022400001 -0.3669 0.0374 -0.38279998 0.0374 -0.4048 C 0.0374 -0.40489998 0.0374 -0.40489998 0.0374 -0.405 C 0.0262 -0.4056 0.014899999 -0.4059 0.0036000013 -0.4059 C -0.0088 -0.4059 -0.0213 -0.4054 -0.0338 -0.4048 Z M 0.3403 -0.0547 C 0.34 -0.0545 0.3112 -0.0325 0.2863 -0.021599997 C 0.2611 -0.010599997 0.1889 0.018800002 0.18810001 0.019100003 L 0.1808 0.022100003 L 0.2415 0.037600003 C 0.2229 0.052 0.1471 0.1102 0.11890001 0.123 C 0.09490001 0.1345 0.07320001 0.1406 0.05600001 0.1406 C 0.03330001 0.1406 0.020700008 0.1299 0.020700008 0.11049999 C 0.020700008 0.08009999 0.023200007 -0.2215 0.024100007 -0.32529998 C 0.011700007 -0.32469997 -1.9999221E-4 -0.3243 -0.010999994 -0.3243 C -0.013199994 -0.3243 -0.0152999945 -0.3243 -0.017499994 -0.32439998 C -0.018399995 -0.22419998 -0.020799994 0.052900016 -0.020799994 0.07700002 C -0.020799994 0.10290002 -0.020799994 0.13830002 -0.043599993 0.13830002 C -0.043599993 0.13830002 -0.043599993 0.13830002 -0.043599993 0.13830002 C -0.04569999 0.13830002 -0.04789999 0.13800001 -0.050399993 0.13750002 C -0.056599993 0.13610002 -0.06299999 0.13500002 -0.06979999 0.13380001 C -0.09819999 0.12880002 -0.1336 0.12250002 -0.18039998 0.089800015 C -0.22099999 0.061400015 -0.23279998 0.049400017 -0.23619998 0.045200016 L -0.17559998 0.024600016 L -0.18499997 0.022700015 C -0.18549997 0.022600016 -0.23939997 0.011400015 -0.27489996 -0.013899986 C -0.31079996 -0.039499983 -0.33999997 -0.061799984 -0.34029996 -0.062099986 L -0.34409997 -0.06499998 L -0.34439996 -0.060199983 C -0.34449995 -0.05789998 -0.34789997 -0.0034999847 -0.32959995 0.037400015 C -0.31139994 0.07810001 -0.27489996 0.11560001 -0.27449995 0.11600001 L -0.27009994 0.12050001 V 0.07200001 C -0.25729993 0.084000014 -0.22019994 0.11820001 -0.20489994 0.12750001 C -0.19709994 0.13230002 -0.17989993 0.14020002 -0.15989994 0.14930001 C -0.13259993 0.16190001 -0.10159993 0.17610002 -0.08489993 0.18670002 C -0.056399934 0.20480001 -0.003399931 0.25620002 -0.0028999299 0.2567 L -9.999298E-4 0.2585 L 8.000701E-4 0.25660002 C 0.0014000701 0.256 0.056600068 0.19750002 0.09210008 0.18310001 C 0.12730008 0.16880001 0.17550008 0.14630002 0.19810008 0.13100001 C 0.21660008 0.118400015 0.26000008 0.07770001 0.27410007 0.06450001 V 0.1286 L 0.27870005 0.1231 C 0.28030005 0.1211 0.31910005 0.0742 0.33010006 0.040699996 C 0.34100005 0.007399995 0.34460005 -0.0502 0.34480006 -0.052600004 L 0.34510005 -0.0582 L 0.3403 -0.0547 Z M 0.1938 -0.3477 V -0.3842 C 0.18270001 -0.38660002 0.1278 -0.398 0.0642 -0.4032 C 0.0624 -0.3702 0.034599997 -0.3429 0.0018000007 -0.3429 C -0.030899998 -0.3429 -0.0586 -0.37 -0.060599998 -0.4029 C -0.123799995 -0.3975 -0.17899999 -0.3864 -0.1902 -0.38410002 L -0.1902 -0.35130003 C -0.1751 -0.34820002 -0.0803 -0.32950002 -0.010900006 -0.32950002 C 0.059 -0.3295 0.1762 -0.3453 0.1938 -0.3477 Z M -0.0134 -0.4691 L -0.013499999 -0.446 V -0.4108 C -0.0077999993 -0.411 -0.0020999992 -0.411 0.0036000013 -0.411 C 0.008100001 -0.411 0.012600001 -0.41090003 0.017100003 -0.4108 V -0.4456 L 0.017000003 -0.469 L 0.017100003 -0.469 V -0.5 H -0.013499998 V -0.4691 L -0.0134 -0.4691 Z"/>
<path id="banner" d="M -0.1214 0.4572 C -0.123399995 0.4623 -0.1244 0.4633 -0.1303 0.4635 C -0.1509 0.4643 -0.2052 0.46449998 -0.26389998 0.4508 C -0.3304 0.4353 -0.39669997 0.3978 -0.41149998 0.38910002 C -0.40009996 0.3851 -0.38109997 0.3813 -0.36279997 0.3776 C -0.35079998 0.3752 -0.33829996 0.3727 -0.32819998 0.3702 C -0.32739997 0.37 -0.3268 0.36920002 -0.32689998 0.36830002 L -0.33439997 0.30890003 C -0.32249996 0.31900004 -0.28129998 0.35150003 -0.24129997 0.35680002 C -0.22799997 0.35860002 -0.21239997 0.36170003 -0.19689998 0.36510003 V 0.40950003 C -0.19909999 0.41720003 -0.18369998 0.42310002 -0.16429998 0.43060005 C -0.1451 0.438 -0.1214 0.4471 -0.1214 0.4572 Z M 0.1864 0.4044 C 0.1894 0.4044 0.1918 0.4053 0.1935 0.40629998 V 0.29279998 C 0.1926 0.2923 0.1908 0.2914 0.1881 0.2914 C 0.18609999 0.2914 0.184 0.29189998 0.1819 0.29279998 C 0.1489 0.30719998 0.0685 0.33439997 0.0 0.33439997 C -0.0684 0.33439997 -0.1489 0.30719995 -0.1819 0.29279998 C -0.1841 0.29189998 -0.18609999 0.2914 -0.1881 0.2914 C -0.1908 0.2914 -0.1926 0.2923 -0.1935 0.29279998 V 0.40629998 C -0.1918 0.4053 -0.1894 0.4044 -0.1864 0.4044 C -0.1848 0.4044 -0.1831 0.40469998 -0.1814 0.4052 C -0.1813 0.4052 -0.1812 0.4053 -0.1811 0.4053 C -0.1279 0.4217 -0.053399995 0.44129997 -1.0000169E-4 0.44129997 C 0.0418 0.44129997 0.106199995 0.42849997 0.1813 0.40519997 C 0.183 0.4047 0.1847 0.4044 0.1864 0.4044 Z M 0.3628 0.3777 C 0.3508 0.3753 0.3383 0.3728 0.3282 0.3703 C 0.3274 0.3701 0.32680002 0.3693 0.3269 0.3684 L 0.3344 0.30900002 C 0.3225 0.31910002 0.2813 0.35160002 0.2413 0.3569 C 0.228 0.3587 0.2124 0.36180001 0.19690001 0.3652 V 0.40960002 C 0.19910002 0.41730002 0.18370001 0.4232 0.16430001 0.4307 C 0.14520001 0.438 0.12140001 0.4471 0.12140001 0.4572 C 0.12340001 0.4623 0.12440001 0.4633 0.13030002 0.4635 C 0.15090002 0.4643 0.20520002 0.46449998 0.2639 0.4508 C 0.3305 0.4353 0.39670002 0.3978 0.4115 0.38910002 C 0.4001 0.3852 0.3812 0.3814 0.3628 0.3777 Z M -0.1824 0.4085 C -0.1825 0.4085 -0.1826 0.4084 -0.18270001 0.4084 C -0.18390001 0.408 -0.1852 0.4079 -0.18640001 0.4079 C -0.1904 0.4079 -0.19290002 0.4099 -0.19370002 0.4106 C -0.19370002 0.4106 -0.19370002 0.4107 -0.19370002 0.4107 L -0.17400001 0.42319998 C -0.17040001 0.4247 -0.1666 0.4261 -0.1631 0.42749998 C -0.1454 0.43429998 -0.12730001 0.4412 -0.1207 0.45009997 C -0.120400004 0.44439998 -0.120400004 0.43569997 -0.120400004 0.4261 C -0.1424 0.4205 -0.1637 0.4143 -0.1824 0.4085 Z M 0.163 0.4274 C 0.1665 0.426 0.1703 0.4246 0.17390001 0.4231 L 0.19360001 0.4106 C 0.19360001 0.4106 0.19360001 0.41050002 0.19360001 0.41050002 C 0.19280002 0.40980002 0.19030002 0.40780002 0.18640001 0.40780002 C 0.1851 0.40780002 0.18380001 0.40800002 0.18240002 0.40840003 C 0.16380002 0.41420004 0.14240003 0.42030004 0.12030002 0.42590004 C 0.120200016 0.43550006 0.12030002 0.44410005 0.120600015 0.44990003 C 0.1272 0.4411 0.1453 0.4342 0.163 0.4274 Z"/>
<path id="star" d="M 0.0 -1.0 L 0.2245 -0.309 L 0.9511 -0.309 L 0.3633 0.118 L 0.5878 0.809 L 0.0 0.382 L -0.5878 0.809 L -0.3633 0.118 L -0.9511 -0.309 L -0.2245 -0.309 Z"/>
<path id="text" d="M 0.1146 0.3283 C 0.134 0.323 0.1533 0.3171 0.1725 0.3109 C 0.1728 0.3169 0.173 0.3228 0.1731 0.3288 C 0.1609 0.3326 0.1487 0.3363 0.1365 0.3398 C 0.1365 0.34420002 0.1366 0.3486 0.1366 0.353 C 0.148 0.34969997 0.1593 0.34629998 0.1707 0.34289998 C 0.1708 0.34859997 0.1708 0.35439998 0.1708 0.36009997 C 0.1594 0.36339998 0.148 0.36669996 0.1366 0.36989996 C 0.1366 0.37539995 0.1365 0.38089997 0.1365 0.38639995 C 0.1491 0.38289994 0.1617 0.37929997 0.1743 0.37579995 C 0.1742 0.38219994 0.174 0.38869995 0.1737 0.39519995 C 0.1539 0.40039995 0.1342 0.40599996 0.1144 0.41119996 C 0.1147 0.3836 0.1148 0.356 0.1146 0.3283 L 0.1146 0.3283 Z M 0.025 0.346 C 0.0374 0.34489998 0.0498 0.343 0.0621 0.34059998 C 0.0701 0.33909997 0.0761 0.3399 0.0801 0.3435 C 0.0815 0.3448 0.0827 0.34629998 0.0836 0.3482 C 0.0852 0.3515 0.0861 0.3558 0.086 0.361 C 0.086 0.3661 0.085200004 0.3708 0.083500005 0.3749 C 0.0825 0.37750003 0.0811 0.3799 0.079500005 0.382 C 0.07520001 0.3876 0.0687 0.3914 0.059800006 0.393 C 0.055800006 0.3937 0.051700007 0.3944 0.047700007 0.395 C 0.047700007 0.4052 0.047600005 0.4154 0.047400005 0.42560002 C 0.040000007 0.4266 0.032500006 0.4275 0.025000006 0.42810002 C 0.0253 0.4007 0.0254 0.3733 0.025 0.346 L 0.025 0.346 Z M 0.0477 0.3783 C 0.0495 0.37800002 0.0513 0.3777 0.053099997 0.3774 C 0.057399996 0.3767 0.060399998 0.37530002 0.062099997 0.37330002 C 0.0638 0.3713 0.0647 0.3689 0.0647 0.36620003 C 0.0647 0.36360002 0.0639 0.36160004 0.0624 0.36000004 C 0.0609 0.35850003 0.0581 0.35810006 0.053899996 0.35880005 C 0.051799998 0.35920006 0.049699996 0.35950005 0.047599997 0.35980004 C 0.0477 0.3661 0.0477 0.3722 0.0477 0.3783 L 0.0477 0.3783 Z M -0.0796 0.3787 C -0.0797 0.3653 -0.0764 0.35549998 -0.0699 0.34939998 C -0.0633 0.3432 -0.0543 0.3412 -0.042499997 0.34289998 C -0.030499997 0.3446 -0.021199998 0.3489 -0.014599998 0.3566 C -0.007999998 0.3642 -0.0046999976 0.3744 -0.0046999976 0.38759997 C -0.0046999976 0.39709997 -0.006199998 0.40499997 -0.009099998 0.41099998 C -0.011999997 0.417 -0.016099997 0.42159998 -0.021499999 0.42459998 C -0.026899999 0.42759997 -0.0335 0.42869997 -0.0415 0.42769998 C -0.049599998 0.4267 -0.0563 0.42409998 -0.061699998 0.42029998 C -0.066999994 0.4164 -0.0713 0.41089997 -0.0747 0.40389997 C -0.0779 0.3967 -0.0796 0.3883 -0.0796 0.3787 L -0.0796 0.3787 Z M -0.0576 0.3831 C -0.0576 0.3914 -0.056199998 0.3976 -0.0535 0.4016 C -0.0508 0.4056 -0.0471 0.408 -0.042400002 0.4086 C -0.037600003 0.4092 -0.0339 0.4078 -0.0313 0.4046 C -0.028700002 0.40129998 -0.027400002 0.3951 -0.027400002 0.386 C -0.027400002 0.3783 -0.028800001 0.37260002 -0.031600002 0.3688 C -0.034300003 0.36490002 -0.038100004 0.36270002 -0.0428 0.3621 C -0.047300003 0.3615 -0.0509 0.36270002 -0.053600002 0.3659 C -0.0562 0.369 -0.0576 0.3748 -0.0576 0.3831 L -0.0576 0.3831 Z M -0.1754 0.3096 C -0.1683 0.3121 -0.1612 0.3146 -0.1541 0.31689999 C -0.1543 0.3265 -0.15450001 0.3362 -0.15450001 0.3459 C -0.14660001 0.3484 -0.1386 0.3508 -0.1307 0.3532 C -0.1307 0.34359998 -0.1307 0.334 -0.1306 0.32439998 C -0.1234 0.32649997 -0.116100006 0.3286 -0.10880001 0.33049998 C -0.10880001 0.35789996 -0.10870001 0.38539997 -0.10840001 0.413 C -0.11570001 0.4111 -0.12300001 0.40919998 -0.13030002 0.4071 C -0.13050002 0.39589998 -0.13060002 0.3847 -0.13070002 0.3735 C -0.13870002 0.3712 -0.14660002 0.36879998 -0.15460002 0.3664 C -0.15450002 0.3777 -0.15430002 0.389 -0.15400003 0.4003 C -0.16120003 0.3982 -0.16840003 0.396 -0.17560002 0.3939 C -0.1768 0.3654 -0.1767 0.3373 -0.1754 0.3096 L -0.1754 0.3096 Z"/>
<linearGradient id="glaze" x1="0%" y1="0%" x2="100%" y2="100%">
<stop offset="0%" stop-color="rgb(255,255,255)" stop-opacity="0.2"/>
<stop offset="49.999%" stop-color="rgb(255,255,255)" stop-opacity="0.0"/>
<stop offset="50.001%" stop-color="rgb(0,0,0)" stop-opacity="0.0"/>
<stop offset="100%" stop-color="rgb(0,0,0)" stop-opacity="0.2"/>
</linearGradient>
</defs>
<g>
<rect x="0" y="0" width="640" height="360" class="white"/>
<g>
<use xlink:href="#star" transform="translate(289.5491 303.544) scale(24.8276 24.8276) rotate(-166.1538)" class="yellow"/>
<use xlink:href="#star" transform="translate(235.6234 275.2415) scale(24.8276 24.8276) rotate(-138.4615)" class="yellow"/>
<use xlink:href="#star" transform="translate(201.0272 225.1204) scale(24.8276 24.8276) rotate(-110.7692)" class="yellow"/>
<use xlink:href="#star" transform="translate(193.6864 164.6627) scale(24.8276 24.8276) rotate(-83.0769)" class="yellow"/>
<use xlink:href="#star" transform="translate(215.2824 107.7187) scale(24.8276 24.8276) rotate(-55.3846)" class="yellow"/>
<use xlink:href="#star" transform="translate(260.868 67.3334) scale(24.8276 24.8276) rotate(-27.6923)" class="yellow"/>
<use xlink:href="#star" transform="translate(320 52.7586) scale(24.8276 24.8276) rotate(0)" class="yellow"/>
<use xlink:href="#star" transform="translate(379.132 67.3334) scale(24.8276 24.8276) rotate(27.6923)" class="yellow"/>
<use xlink:href="#star" transform="translate(424.7176 107.7187) scale(24.8276 24.8276) rotate(55.3846)" class="yellow"/>
<use xlink:href="#star" transform="translate(446.3136 164.6627) scale(24.8276 24.8276) rotate(83.0769)" class="yellow"/>
<use xlink:href="#star" transform="translate(438.9728 225.1204) scale(24.8276 24.8276) rotate(110.7692)" class="yellow"/>
<use xlink:href="#star" transform="translate(404.3766 275.2415) scale(24.8276 24.8276) rotate(138.4615)" class="yellow"/>
<use xlink:href="#star" transform="translate(350.4509 303.544) scale(24.8276 24.8276) rotate(166.1538)" class="yellow"/>
</g>
<use xlink:href="#anchor" transform="translate(320 180) scale(180 180) rotate(0)" class="yellow"/>
<use xlink:href="#banner" transform="translate(320 180) scale(180 180) rotate(0)" class="blue"/>
<use xlink:href="#text" transform="translate(320 180) scale(180 180) rotate(0)" class="yellow"/>
</g>
<g>
<rect x="0" y="0" width="640" height="360" fill="url(#glaze)"/>
<path d="M 30 30 L 610 30 L 610 330 L 30 330 Z M 60 60 L 60 300 L 580 300 L 580 60 Z" fill="rgb(255,255,255)" opacity="0.4"/>
<path d="M 0 0 L 640 0 L 640 360 L 0 360 Z M 30 30 L 30 330 L 610 330 L 610 30 Z" fill="rgb(0,0,0)" opacity="0.4"/>
</g>
</svg>
