<?xml version="1.0"?>
<svg xmlns="http://www.w3.org/2000/svg" xmlns:xlink="http://www.w3.org/1999/xlink" version="1.1" width="640" height="360" viewBox="0 0 640 360">
<!-- Generated by Kreative Vexillo v1.0 -->
<style>
.blue{fill:rgb(0,85,164);}
.red{fill:rgb(250,60,50);}
.white{fill:rgb(255,255,255);}
</style>
<defs>
<linearGradient id="glaze" x1="0%" y1="0%" x2="100%" y2="100%">
<stop offset="0%" stop-color="rgb(255,255,255)" stop-opacity="0.2"/>
<stop offset="49.999%" stop-color="rgb(255,255,255)" stop-opacity="0.0"/>
<stop offset="50.001%" stop-color="rgb(0,0,0)" stop-opacity="0.0"/>
<stop offset="100%" stop-color="rgb(0,0,0)" stop-opacity="0.2"/>
</linearGradient>
</defs>
<g>
<rect x="0" y="0" width="640" height="360" class="red"/>
<rect x="0" y="0" width="217.8" height="145.8" class="white"/>
<g>
<rect x="0" y="0" width="71.4" height="142.2" class="blue"/>
<rect x="71.4" y="0" width="71.4" height="142.2" class="white"/>
<rect x="142.8" y="0" width="71.4" height="142.2" class="red"/>
</g>
<rect x="370.4" y="122.4" width="115.2" height="115.2" class="white"/>
<path d="M 359.6 111.6 L 359.6 126.8735 L 412.7265 180 L 359.6 233.1265 L 359.6 248.4 L 374.8735 248.4 L 428 195.2735 L 481.1265 248.4 L 496.4 248.4 L 496.4 233.1265 L 443.2735 180 L 496.4 126.8735 L 496.4 111.6 L 481.1265 111.6 L 428 164.7265 L 374.8735 111.6 Z" class="red"/>
</g>
<g>
<rect x="0" y="0" width="640" height="360" fill="url(#glaze)"/>
<path d="M 30 30 L 610 30 L 610 330 L 30 330 Z M 60 60 L 60 300 L 580 300 L 580 60 Z" fill="rgb(255,255,255)" opacity="0.4"/>
<path d="M 0 0 L 640 0 L 640 360 L 0 360 Z M 30 30 L 30 330 L 610 330 L 610 30 Z" fill="rgb(0,0,0)" opacity="0.4"/>
</g>
</svg>
