<?xml version="1.0"?>
<svg xmlns="http://www.w3.org/2000/svg" xmlns:xlink="http://www.w3.org/1999/xlink" version="1.1" width="640" height="360" viewBox="0 0 640 360">
<!-- Generated by Kreative Vexillo v1.0 -->
<style>
.blue{fill:rgb(0,0,204);}
.red{fill:rgb(255,0,0);}
.yellow{fill:rgb(255,255,0);}
</style>
<defs>
<linearGradient id="glaze" x1="0%" y1="0%" x2="100%" y2="100%">
<stop offset="0%" stop-color="rgb(255,255,255)" stop-opacity="0.2"/>
<stop offset="49.999%" stop-color="rgb(255,255,255)" stop-opacity="0.0"/>
<stop offset="50.001%" stop-color="rgb(0,0,0)" stop-opacity="0.0"/>
<stop offset="100%" stop-color="rgb(0,0,0)" stop-opacity="0.2"/>
</linearGradient>
</defs>
<g>
<rect x="0" y="0" width="640" height="360" class="blue"/>
<path d="M 0 0 L 0 28.5954 L 0 28.5954 L 269.1637 180 L 269.1637 180 L 0 331.4046 L 0 331.4046 L 0 360 L 50.8363 360 L 320 208.5954 L 589.1637 360 L 640 360 L 640 331.4046 L 370.8363 180 L 370.8363 180 L 640 28.5954 L 640 0 L 589.1637 0 L 320 151.4046 L 50.8363 0 Z" class="yellow"/>
<g>
<rect x="0" y="155.0769" width="640" height="49.8462" class="yellow"/>
<rect x="295.0769" y="0" width="49.8462" height="360" class="yellow"/>
</g>
<path d="M 0 0 L 0 19.0636 L 0 19.0636 L 286.1091 180 L 286.1091 180 L 0 340.9364 L 0 340.9364 L 0 360 L 33.8909 360 L 320 199.0636 L 320 199.0636 L 606.1091 360 L 640 360 L 640 340.9364 L 353.8909 180 L 353.8909 180 L 640 19.0636 L 640 0 L 606.1091 0 L 320 160.9364 L 320 160.9364 L 33.8909 0 Z" class="red"/>
<g>
<rect x="0" y="163.3846" width="640" height="33.2308" class="red"/>
<rect x="303.3846" y="0" width="33.2308" height="360" class="red"/>
</g>
<ellipse cx="320" cy="180" rx="96.9231" ry="96.9231" class="yellow"/>
<ellipse cx="320" cy="180" rx="83.0769" ry="83.0769" class="red"/>
</g>
<g>
<rect x="0" y="0" width="640" height="360" fill="url(#glaze)"/>
<path d="M 30 30 L 610 30 L 610 330 L 30 330 Z M 60 60 L 60 300 L 580 300 L 580 60 Z" fill="rgb(255,255,255)" opacity="0.4"/>
<path d="M 0 0 L 640 0 L 640 360 L 0 360 Z M 30 30 L 30 330 L 610 330 L 610 30 Z" fill="rgb(0,0,0)" opacity="0.4"/>
</g>
</svg>
