<?xml version="1.0"?>
<svg xmlns="http://www.w3.org/2000/svg" xmlns:xlink="http://www.w3.org/1999/xlink" version="1.1" width="640" height="360" viewBox="0 0 640 360">
<!-- Generated by Kreative Vexillo v1.0 -->
<style>
.downvote{fill:rgb(148,148,255);}
.upvote{fill:rgb(255,139,96);}
.white{fill:rgb(255,255,255);}
</style>
<defs>
<path id="arrow" d="M 0.0 -0.5 L 0.522 0.022 H 0.16 V 0.5 H -0.16 V 0.022 H -0.522 Z"/>
<path id="knockout" d="M 0.0 -0.5 L 0.522 0.022 H -0.522 Z"/>
<linearGradient id="glaze" x1="0%" y1="0%" x2="100%" y2="100%">
<stop offset="0%" stop-color="rgb(255,255,255)" stop-opacity="0.2"/>
<stop offset="49.999%" stop-color="rgb(255,255,255)" stop-opacity="0.0"/>
<stop offset="50.001%" stop-color="rgb(0,0,0)" stop-opacity="0.0"/>
<stop offset="100%" stop-color="rgb(0,0,0)" stop-opacity="0.2"/>
</linearGradient>
</defs>
<g>
<g>
<rect x="0" y="0" width="640" height="120" class="upvote"/>
<rect x="0" y="120" width="640" height="120" class="white"/>
<rect x="0" y="240" width="640" height="120" class="downvote"/>
</g>
<use xlink:href="#knockout" transform="translate(289.94 135) scale(185.4 185.4) rotate(0)" class="white"/>
<use xlink:href="#knockout" transform="translate(350.06 225) scale(185.4 185.4) rotate(180)" class="white"/>
<use xlink:href="#arrow" transform="translate(289.94 135) scale(149.4 149.4) rotate(0)" class="upvote"/>
<use xlink:href="#arrow" transform="translate(350.06 225) scale(149.4 149.4) rotate(180)" class="downvote"/>
</g>
<g>
<rect x="0" y="0" width="640" height="360" fill="url(#glaze)"/>
<path d="M 30 30 L 610 30 L 610 330 L 30 330 Z M 60 60 L 60 300 L 580 300 L 580 60 Z" fill="rgb(255,255,255)" opacity="0.4"/>
<path d="M 0 0 L 640 0 L 640 360 L 0 360 Z M 30 30 L 30 330 L 610 330 L 610 30 Z" fill="rgb(0,0,0)" opacity="0.4"/>
</g>
</svg>
