<?xml version="1.0"?>
<svg xmlns="http://www.w3.org/2000/svg" xmlns:xlink="http://www.w3.org/1999/xlink" version="1.1" width="640" height="360" viewBox="0 0 640 360">
<!-- Generated by Kreative Vexillo v1.0 -->
<style>
.black{fill:rgb(19,19,19);}
.blue{fill:rgb(0,0,191);}
.cyan{fill:rgb(0,191,191);}
.green{fill:rgb(0,191,0);}
.i{fill:rgb(0,31,77);}
.magenta{fill:rgb(191,0,191);}
.pluge{fill:rgb(29,29,29);}
.q{fill:rgb(51,0,107);}
.red{fill:rgb(191,0,0);}
.superblack{fill:rgb(9,9,9);}
.superwhite{fill:rgb(255,255,255);}
.white{fill:rgb(191,191,191);}
.yellow{fill:rgb(191,191,0);}
</style>
<defs>
<linearGradient id="glaze" x1="0%" y1="0%" x2="100%" y2="100%">
<stop offset="0%" stop-color="rgb(255,255,255)" stop-opacity="0.2"/>
<stop offset="49.999%" stop-color="rgb(255,255,255)" stop-opacity="0.0"/>
<stop offset="50.001%" stop-color="rgb(0,0,0)" stop-opacity="0.0"/>
<stop offset="100%" stop-color="rgb(0,0,0)" stop-opacity="0.2"/>
</linearGradient>
</defs>
<g>
<rect x="0" y="0" width="640" height="360" class="black"/>
<g>
<rect x="0" y="0" width="91.4286" height="240" class="white"/>
<rect x="91.4286" y="0" width="91.4286" height="240" class="yellow"/>
<rect x="182.8571" y="0" width="91.4286" height="240" class="cyan"/>
<rect x="274.2857" y="0" width="91.4286" height="240" class="green"/>
<rect x="365.7143" y="0" width="91.4286" height="240" class="magenta"/>
<rect x="457.1429" y="0" width="91.4286" height="240" class="red"/>
<rect x="548.5714" y="0" width="91.4286" height="240" class="blue"/>
</g>
<g>
<rect x="0" y="240" width="91.4286" height="30" class="blue"/>
<rect x="91.4286" y="240" width="91.4286" height="30" class="black"/>
<rect x="182.8571" y="240" width="91.4286" height="30" class="magenta"/>
<rect x="274.2857" y="240" width="91.4286" height="30" class="black"/>
<rect x="365.7143" y="240" width="91.4286" height="30" class="cyan"/>
<rect x="457.1429" y="240" width="91.4286" height="30" class="black"/>
<rect x="548.5714" y="240" width="91.4286" height="30" class="white"/>
</g>
<g>
<rect x="0" y="270" width="114.2857" height="90" class="i"/>
<rect x="114.2857" y="270" width="114.2857" height="90" class="superwhite"/>
<rect x="228.5714" y="270" width="114.2857" height="90" class="q"/>
<rect x="342.8571" y="270" width="114.2857" height="90" class="black"/>
</g>
<g>
<rect x="457.1429" y="270" width="30.4762" height="90" class="superblack"/>
<rect x="487.619" y="270" width="30.4762" height="90" class="black"/>
<rect x="518.0952" y="270" width="30.4762" height="90" class="pluge"/>
</g>
</g>
<g>
<rect x="0" y="0" width="640" height="360" fill="url(#glaze)"/>
<path d="M 30 30 L 610 30 L 610 330 L 30 330 Z M 60 60 L 60 300 L 580 300 L 580 60 Z" fill="rgb(255,255,255)" opacity="0.4"/>
<path d="M 0 0 L 640 0 L 640 360 L 0 360 Z M 30 30 L 30 330 L 610 330 L 610 30 Z" fill="rgb(0,0,0)" opacity="0.4"/>
</g>
</svg>
