<?xml version="1.0"?>
<svg xmlns="http://www.w3.org/2000/svg" xmlns:xlink="http://www.w3.org/1999/xlink" version="1.1" width="640" height="360" viewBox="0 0 640 360">
<!-- Generated by Kreative Vexillo v1.0 -->
<style>
.blue{fill:rgb(0,83,255);}
.white{fill:rgb(255,255,255);}
</style>
<defs>
<path id="e" d="M 0.2857 -0.2143 L 0.5 -0.4286 L 0.4286 -0.5 L 0.2143 -0.2857 L 0.0 -0.5 L -0.2143 -0.2857 L -0.4286 -0.5 L -0.5 -0.4286 L -0.2857 -0.2143 L -0.5 0.0 L -0.2857 0.2143 L -0.5 0.4286 L -0.4286 0.5 L -0.2143 0.2857 L 0.0 0.5 L 0.2143 0.2857 L 0.4286 0.5 L 0.5 0.4286 L 0.2857 0.2143 L 0.5 0.0 L 0.2857 -0.2143 Z M 0.0 0.3571 L -0.3571 0.0 L 0.0 -0.3571 L 0.3571 0.0 L 0.0 0.3571 Z"/>
<linearGradient id="glaze" x1="0%" y1="0%" x2="100%" y2="100%">
<stop offset="0%" stop-color="rgb(255,255,255)" stop-opacity="0.2"/>
<stop offset="49.999%" stop-color="rgb(255,255,255)" stop-opacity="0.0"/>
<stop offset="50.001%" stop-color="rgb(0,0,0)" stop-opacity="0.0"/>
<stop offset="100%" stop-color="rgb(0,0,0)" stop-opacity="0.2"/>
</linearGradient>
</defs>
<g>
<rect x="0" y="0" width="640" height="360" class="blue"/>
<use xlink:href="#e" transform="translate(320 180) scale(280 280) rotate(0)" class="white"/>
</g>
<g>
<rect x="0" y="0" width="640" height="360" fill="url(#glaze)"/>
<path d="M 30 30 L 610 30 L 610 330 L 30 330 Z M 60 60 L 60 300 L 580 300 L 580 60 Z" fill="rgb(255,255,255)" opacity="0.4"/>
<path d="M 0 0 L 640 0 L 640 360 L 0 360 Z M 30 30 L 30 330 L 610 330 L 610 30 Z" fill="rgb(0,0,0)" opacity="0.4"/>
</g>
</svg>
