<?xml version="1.0"?>
<svg xmlns="http://www.w3.org/2000/svg" xmlns:xlink="http://www.w3.org/1999/xlink" version="1.1" width="640" height="360" viewBox="0 0 640 360">
<!-- Generated by Kreative Vexillo v1.0 -->
<style>
.black{fill:rgb(0,0,0);}
.chocolate{fill:rgb(96,64,67);}
.red{fill:rgb(255,0,27);}
.strawberry{fill:rgb(225,97,126);}
.vanilla{fill:rgb(255,248,196);}
</style>
<defs>
<path id="heart" d="M 0.4299 -0.429 C 0.4175 -0.4396 0.4041 -0.4493 0.3899 -0.4579 C 0.3898 -0.45799997 0.3897 -0.45799997 0.3896 -0.4581 C 0.3892 -0.45839998 0.3887 -0.45859998 0.3883 -0.4589 C 0.3466 -0.4843 0.2939 -0.5019 0.2336 -0.4998 C 0.22350001 -0.4995 0.21350001 -0.4986 0.20320001 -0.4971 C 0.19740002 -0.49629998 0.19170001 -0.4953 0.1861 -0.4942 C 0.1403 -0.4852 0.10390001 -0.4675 0.0724 -0.4436 C 0.044300005 -0.4227 0.020500004 -0.3973 2.0000339E-4 -0.3697 C -0.020199997 -0.3973 -0.043999996 -0.42270002 -0.0721 -0.4436 C -0.1034 -0.4676 -0.1399 -0.4852 -0.1856 -0.4943 C -0.1912 -0.4954 -0.1969 -0.4964 -0.2027 -0.4972 C -0.2027 -0.4972 -0.2027 -0.4972 -0.2027 -0.4972 C -0.213 -0.49870002 -0.223 -0.49960002 -0.2331 -0.4999 C -0.2934 -0.50200003 -0.346 -0.48430002 -0.38779998 -0.45900002 C -0.38829997 -0.45870003 -0.38869998 -0.4584 -0.38919997 -0.4582 C -0.38919997 -0.4582 -0.38929996 -0.45810002 -0.38929996 -0.45810002 C -0.40349996 -0.44950002 -0.41689995 -0.43980002 -0.42929995 -0.42920002 C -0.49769995 -0.37090003 -0.54449993 -0.26950002 -0.52259994 -0.14180002 C -0.51689994 -0.10880002 -0.50719994 -0.07890002 -0.49439994 -0.051400013 C -0.43799993 0.075799994 -0.32629994 0.15239999 -0.23219994 0.24329999 C -0.14689994 0.3186 -0.06509994 0.3987 -0.0018999428 0.49609998 C -0.0011999428 0.4976 -3.9994274E-4 0.49879998 4.000573E-4 0.4996 C 0.0012000573 0.49879998 0.0020000571 0.4976 0.0027000573 0.49609998 C 0.06590006 0.39869997 0.14770006 0.3186 0.23300005 0.24329999 C 0.32710004 0.1523 0.43880004 0.07579999 0.49520004 -0.051500022 C 0.508 -0.079000026 0.5177 -0.108900025 0.52340007 -0.14190003 C 0.5451 -0.2693 0.4983 -0.3707 0.4299 -0.429 Z"/>
<linearGradient id="glaze" x1="0%" y1="0%" x2="100%" y2="100%">
<stop offset="0%" stop-color="rgb(255,255,255)" stop-opacity="0.2"/>
<stop offset="49.999%" stop-color="rgb(255,255,255)" stop-opacity="0.0"/>
<stop offset="50.001%" stop-color="rgb(0,0,0)" stop-opacity="0.0"/>
<stop offset="100%" stop-color="rgb(0,0,0)" stop-opacity="0.2"/>
</linearGradient>
</defs>
<g>
<g>
<rect x="0" y="0" width="640" height="72" class="black"/>
<rect x="0" y="72" width="640" height="72" class="strawberry"/>
<rect x="0" y="144" width="640" height="72" class="vanilla"/>
<rect x="0" y="216" width="640" height="72" class="chocolate"/>
<rect x="0" y="288" width="640" height="72" class="black"/>
</g>
<use xlink:href="#heart" transform="translate(320 180) scale(144 144) rotate(0)" class="red"/>
</g>
<g>
<rect x="0" y="0" width="640" height="360" fill="url(#glaze)"/>
<path d="M 30 30 L 610 30 L 610 330 L 30 330 Z M 60 60 L 60 300 L 580 300 L 580 60 Z" fill="rgb(255,255,255)" opacity="0.4"/>
<path d="M 0 0 L 640 0 L 640 360 L 0 360 Z M 30 30 L 30 330 L 610 330 L 610 30 Z" fill="rgb(0,0,0)" opacity="0.4"/>
</g>
</svg>
