<?xml version="1.0"?>
<svg xmlns="http://www.w3.org/2000/svg" xmlns:xlink="http://www.w3.org/1999/xlink" version="1.1" width="640" height="360" viewBox="0 0 640 360">
<!-- Generated by Kreative Vexillo v1.0 -->
<style>
.band1{fill:rgb(4,153,184);}
.band2{fill:rgb(57,214,200);}
.band3{fill:rgb(115,234,211);}
.band4{fill:rgb(160,230,238);}
.band5{fill:rgb(154,176,233);}
.band6{fill:rgb(151,152,238);}
</style>
<defs>
<linearGradient id="glaze" x1="0%" y1="0%" x2="100%" y2="100%">
<stop offset="0%" stop-color="rgb(255,255,255)" stop-opacity="0.2"/>
<stop offset="49.999%" stop-color="rgb(255,255,255)" stop-opacity="0.0"/>
<stop offset="50.001%" stop-color="rgb(0,0,0)" stop-opacity="0.0"/>
<stop offset="100%" stop-color="rgb(0,0,0)" stop-opacity="0.2"/>
</linearGradient>
</defs>
<g>
<g>
<rect x="0" y="0" width="640" height="60" class="band1"/>
<rect x="0" y="60" width="640" height="60" class="band2"/>
<rect x="0" y="120" width="640" height="60" class="band3"/>
<rect x="0" y="180" width="640" height="60" class="band4"/>
<rect x="0" y="240" width="640" height="60" class="band5"/>
<rect x="0" y="300" width="640" height="60" class="band6"/>
</g>
</g>
<g>
<rect x="0" y="0" width="640" height="360" fill="url(#glaze)"/>
<path d="M 30 30 L 610 30 L 610 330 L 30 330 Z M 60 60 L 60 300 L 580 300 L 580 60 Z" fill="rgb(255,255,255)" opacity="0.4"/>
<path d="M 0 0 L 640 0 L 640 360 L 0 360 Z M 30 30 L 30 330 L 610 330 L 610 30 Z" fill="rgb(0,0,0)" opacity="0.4"/>
</g>
</svg>
