<?xml version="1.0"?>
<svg xmlns="http://www.w3.org/2000/svg" xmlns:xlink="http://www.w3.org/1999/xlink" version="1.1" width="640" height="360" viewBox="0 0 640 360">
<!-- Generated by Kreative Vexillo v1.0 -->
<style>
.black{fill:rgb(0,0,0);}
.blue{fill:rgb(0,0,255);}
.green{fill:rgb(0,153,0);}
.orange{fill:rgb(255,153,0);}
.purple{fill:rgb(153,0,153);}
.red{fill:rgb(255,0,0);}
.white{fill:rgb(255,255,255);}
.yellow{fill:rgb(255,255,0);}
</style>
<defs>
<clipPath id="clip0">
<path d="M 0 0 L 320 180 L 0 360 Z"/>
</clipPath>
<clipPath id="clip1">
<path d="M 0 0 L 640 0 L 640 360 L 0 360 L 320 180 Z"/>
</clipPath>
<clipPath id="clip2">
<rect x="0" y="0" width="640" height="360"/>
</clipPath>
<clipPath id="clip3">
<path d="M -17.6482 31.3774 L 302.3518 211.3774 L 337.6482 148.6226 L 17.6482 -31.3774 L -17.6482 31.3774 Z"/>
<path d="M 302.3518 148.6226 L -17.6482 328.6226 L 17.6482 391.3774 L 337.6482 211.3774 L 302.3518 148.6226 Z"/>
<path d="M 320 216 L 640 216 L 640 144 L 320 144 L 320 216 Z"/>
</clipPath>
<linearGradient id="glaze" x1="0%" y1="0%" x2="100%" y2="100%">
<stop offset="0%" stop-color="rgb(255,255,255)" stop-opacity="0.2"/>
<stop offset="49.999%" stop-color="rgb(255,255,255)" stop-opacity="0.0"/>
<stop offset="50.001%" stop-color="rgb(0,0,0)" stop-opacity="0.0"/>
<stop offset="100%" stop-color="rgb(0,0,0)" stop-opacity="0.2"/>
</linearGradient>
</defs>
<g>
<g>
<rect x="0" y="0" width="640" height="60" class="red"/>
<rect x="0" y="60" width="640" height="60" class="orange"/>
<rect x="0" y="120" width="640" height="60" class="yellow"/>
<rect x="0" y="180" width="640" height="60" class="green"/>
<rect x="0" y="240" width="640" height="60" class="blue"/>
<rect x="0" y="300" width="640" height="60" class="purple"/>
</g>
<g clip-path="url(#clip0)">
<path d="M -29.4136 52.2957 L 290.5864 232.2957 L 349.4136 127.7043 L 29.4136 -52.2957 L -29.4136 52.2957 Z" class="black"/>
<path d="M 290.5864 127.7043 L -29.4136 307.7043 L 29.4136 412.2957 L 349.4136 232.2957 L 290.5864 127.7043 Z" class="black"/>
</g>
<g clip-path="url(#clip1)">
<path d="M -29.4136 52.2957 L 290.5864 232.2957 L 349.4136 127.7043 L 29.4136 -52.2957 L -29.4136 52.2957 Z" class="white"/>
<path d="M 290.5864 127.7043 L -29.4136 307.7043 L 29.4136 412.2957 L 349.4136 232.2957 L 290.5864 127.7043 Z" class="white"/>
<path d="M 320 240 L 640 240 L 640 120 L 320 120 L 320 240 Z" class="white"/>
</g>
<g clip-path="url(#clip2)">
<g clip-path="url(#clip3)">
<g>
<rect x="0" y="0" width="640" height="60" class="red"/>
<rect x="0" y="60" width="640" height="60" class="orange"/>
<rect x="0" y="120" width="640" height="60" class="yellow"/>
<rect x="0" y="180" width="640" height="60" class="green"/>
<rect x="0" y="240" width="640" height="60" class="blue"/>
<rect x="0" y="300" width="640" height="60" class="purple"/>
</g>
</g>
</g>
</g>
<g>
<rect x="0" y="0" width="640" height="360" fill="url(#glaze)"/>
<path d="M 30 30 L 610 30 L 610 330 L 30 330 Z M 60 60 L 60 300 L 580 300 L 580 60 Z" fill="rgb(255,255,255)" opacity="0.4"/>
<path d="M 0 0 L 640 0 L 640 360 L 0 360 Z M 30 30 L 30 330 L 610 330 L 610 30 Z" fill="rgb(0,0,0)" opacity="0.4"/>
</g>
</svg>
