<?xml version="1.0"?>
<svg xmlns="http://www.w3.org/2000/svg" xmlns:xlink="http://www.w3.org/1999/xlink" version="1.1" width="640" height="360" viewBox="0 0 640 360">
<!-- Generated by Kreative Vexillo v1.0 -->
<style>
.blue{fill:rgb(0,0,255);}
.yellow{fill:rgb(255,255,0);}
</style>
<defs>
<clipPath id="clip0">
<rect x="0" y="0" width="640" height="360"/>
</clipPath>
<linearGradient id="glaze" x1="0%" y1="0%" x2="100%" y2="100%">
<stop offset="0%" stop-color="rgb(255,255,255)" stop-opacity="0.2"/>
<stop offset="49.999%" stop-color="rgb(255,255,255)" stop-opacity="0.0"/>
<stop offset="50.001%" stop-color="rgb(0,0,0)" stop-opacity="0.0"/>
<stop offset="100%" stop-color="rgb(0,0,0)" stop-opacity="0.2"/>
</linearGradient>
</defs>
<g>
<rect x="0" y="0" width="640" height="360" class="blue"/>
<g clip-path="url(#clip0)">
<path d="M 662.0618 39.2209 L 662.0618 39.2209 L 22.0618 399.2209 L -22.0618 320.7791 L 617.9382 -39.2209 Z" class="yellow"/>
</g>
</g>
<g>
<rect x="0" y="0" width="640" height="360" fill="url(#glaze)"/>
<path d="M 30 30 L 610 30 L 610 330 L 30 330 Z M 60 60 L 60 300 L 580 300 L 580 60 Z" fill="rgb(255,255,255)" opacity="0.4"/>
<path d="M 0 0 L 640 0 L 640 360 L 0 360 Z M 30 30 L 30 330 L 610 330 L 610 30 Z" fill="rgb(0,0,0)" opacity="0.4"/>
</g>
</svg>
