<?xml version="1.0"?>
<svg xmlns="http://www.w3.org/2000/svg" xmlns:xlink="http://www.w3.org/1999/xlink" version="1.1" width="640" height="360" viewBox="0 0 640 360">
<!-- Generated by Kreative Vexillo v1.0 -->
<style>
.gold{fill:rgb(243,221,109);}
.red{fill:rgb(159,8,7);}
</style>
<defs>
<path id="spqr" d="M 0.5844 0.0335 C 0.5842 0.0335 0.584 0.033600003 0.5839 0.0337 C 0.58199996 0.0357 0.61259997 0.074 0.6227 0.0823 C 0.6286 0.0871 0.6389 0.093 0.6455 0.0954 C 0.6521 0.0978 0.6613 0.0997 0.6663 0.0999 C 0.6762 0.1069 0.6894 0.116 0.7057 0.1271 C 0.6935 0.12380001 0.67929995 0.12240001 0.6673 0.123600006 C 0.6504 0.1254 0.61109996 0.13700001 0.60649997 0.14160001 C 0.60529995 0.14280002 0.61439997 0.1447 0.62689996 0.14590001 C 0.6392999 0.14710002 0.6568999 0.1491 0.66589993 0.15040001 C 0.68349993 0.15280001 0.72269994 0.1518 0.7304999 0.14870001 C 0.73209995 0.14810002 0.7332999 0.14750001 0.7339999 0.14680001 C 0.7468999 0.15650001 0.7591999 0.16690001 0.77079993 0.17810002 C 0.75399995 0.17040002 0.7340999 0.16700003 0.70879996 0.16700003 C 0.6805 0.16710003 0.67359996 0.16980003 0.68819994 0.17510003 C 0.6937999 0.17720003 0.71009994 0.18450002 0.7242999 0.19150002 C 0.7384999 0.19850002 0.75749993 0.20560002 0.7664999 0.20750003 C 0.7754999 0.20940003 0.7894999 0.21100003 0.79759985 0.21120003 L 0.8016999 0.21130003 C 0.8048999 0.21510004 0.8078999 0.21900003 0.81089985 0.22290003 C 0.81889987 0.23310003 0.82639986 0.24370003 0.8332999 0.25460005 C 0.8240999 0.24710006 0.8131999 0.24040005 0.80129987 0.23530005 C 0.78139985 0.22680005 0.7470999 0.21780005 0.7445999 0.22050005 C 0.74409986 0.22100005 0.7524999 0.22860005 0.76319987 0.23740005 C 0.77399987 0.24620005 0.7894999 0.25910005 0.79769987 0.26600006 C 0.81269985 0.27860007 0.8412999 0.29620007 0.8509999 0.29880005 C 0.8539999 0.29960006 0.8563999 0.30010006 0.8581999 0.30030006 C 0.8664999 0.31800005 0.8735999 0.33630008 0.8793999 0.35510007 C 0.8761999 0.35060006 0.8722999 0.34590006 0.8671999 0.34040007 C 0.8534999 0.32560006 0.8438999 0.31840008 0.8223999 0.30690008 C 0.8072999 0.29880008 0.7949999 0.2933001 0.7949999 0.29460007 C 0.7949999 0.29590008 0.7990999 0.30120006 0.8039999 0.30650008 C 0.8138999 0.31710008 0.8276999 0.33760008 0.8356999 0.35340008 C 0.84159994 0.36500007 0.86459994 0.3885001 0.88069993 0.39950007 C 0.88609993 0.40320006 0.88969994 0.40530008 0.89189994 0.40600008 C 0.89669997 0.4321001 0.89919996 0.4587001 0.89919996 0.48530006 C 0.89759994 0.47500005 0.895 0.46420008 0.89159995 0.45500007 C 0.8853 0.43790007 0.88119996 0.43200007 0.8637999 0.41470006 C 0.8524999 0.40350005 0.8402999 0.39110005 0.83659995 0.38730007 L 0.82989997 0.38030007 L 0.8318 0.38730007 C 0.8515 0.45630008 0.8634 0.48360008 0.8854 0.51040006 C 0.8938 0.5206001 0.8961 0.5231001 0.8977 0.521 C 0.897 0.52900004 0.8962 0.537 0.8951 0.5449 C 0.893 0.561 0.8898 0.577 0.8858 0.5927 C 0.8862 0.5784 0.8842 0.563 0.8797 0.5503 C 0.8746 0.53610003 0.8418 0.4804 0.8398 0.4826 C 0.838 0.4846 0.8442 0.5752 0.847 0.587 C 0.8505 0.602 0.8612 0.6257 0.8678 0.6332 C 0.8694 0.635 0.8709 0.6365 0.8719 0.6374 C 0.86310005 0.6605 0.8524 0.68289995 0.8398 0.704 C 0.8442 0.685 0.8452 0.6615 0.8415 0.63989997 C 0.8344 0.599 0.8225 0.5714 0.8224 0.5958 C 0.8224 0.5999 0.81869996 0.61829996 0.8142 0.6367 C 0.8014 0.68899995 0.8009 0.7078 0.81189996 0.7363 L 0.81429994 0.7423 C 0.80279994 0.75769997 0.79019994 0.77229995 0.7767999 0.7858 C 0.7769999 0.7854 0.7770999 0.78499997 0.77729994 0.78459996 C 0.78419995 0.7696 0.7879999 0.73359996 0.78569996 0.7054 L 0.78389996 0.68189996 L 0.77189994 0.70479995 C 0.7652999 0.71739995 0.75719994 0.7315999 0.75389993 0.73649997 C 0.7394999 0.75719994 0.73489994 0.7721 0.7333999 0.80209994 L 0.7321999 0.82439995 C 0.7277999 0.82769996 0.7232999 0.831 0.71869993 0.83409995 C 0.70719993 0.84209996 0.69539994 0.8493999 0.68319994 0.85599995 C 0.69909996 0.83689994 0.71129996 0.80859995 0.7160999 0.77769995 L 0.7182999 0.76339996 L 0.70159996 0.7793 C 0.64989996 0.8289 0.636 0.8477 0.6328 0.87229997 C 0.6324 0.8753 0.6321 0.8774 0.6321 0.87899995 C 0.61399996 0.8856 0.5956 0.89079994 0.5767 0.8946 C 0.579 0.8936 0.5811 0.89239997 0.58349997 0.891 C 0.59999996 0.8811 0.62649995 0.8465 0.6307 0.82939994 L 0.6324 0.82229996 L 0.61899996 0.8289 C 0.6116 0.8325 0.59769994 0.83809996 0.5882 0.84129995 S 0.5663 0.85029995 0.5607 0.8540999 C 0.548 0.8626999 0.5285 0.8873999 0.5285 0.8949999 C 0.5285 0.89939994 0.5296 0.9003999 0.541 0.8998999 C 0.5132 0.9028999 0.4851 0.9027999 0.4572 0.8996999 C 0.4576 0.8996999 0.4581 0.8996999 0.45859998 0.8996999 L 0.47689998 0.8999999 L 0.47269997 0.8895999 C 0.46279997 0.86529994 0.44699997 0.8522999 0.41259998 0.8402999 C 0.40229997 0.8366999 0.38849998 0.8310999 0.3821 0.8276999 L 0.3703 0.8214999 L 0.3721 0.8279999 C 0.3781 0.84869987 0.40919998 0.8855999 0.4274 0.8950999 C 0.4179 0.8932999 0.4085 0.8910999 0.3991 0.88849986 C 0.3894 0.88589984 0.3797 0.88299984 0.3702 0.87959987 C 0.37060001 0.87769985 0.37060001 0.87489986 0.3702 0.87129986 C 0.3678 0.8498999 0.3601 0.8383999 0.32230002 0.80009985 L 0.2856 0.76309985 L 0.28730002 0.7750999 C 0.28820002 0.7816999 0.2921 0.79719985 0.29580003 0.8095999 C 0.30200002 0.8298999 0.31110004 0.84649986 0.32300004 0.85909986 C 0.30440006 0.84939986 0.28660005 0.83819985 0.26970005 0.8254999 L 0.27110004 0.8196999 C 0.27630004 0.79799986 0.26570004 0.7593999 0.24670005 0.7308999 C 0.24280004 0.72499985 0.23510005 0.71139985 0.22960004 0.70059985 L 0.21970004 0.68109983 L 0.21880004 0.71739984 C 0.21830004 0.73769987 0.21930003 0.7599998 0.22100005 0.76819986 C 0.22270004 0.77639985 0.22710004 0.78579986 0.23310004 0.79479986 C 0.21580005 0.7783999 0.19980004 0.7603999 0.18540004 0.74119985 C 0.18690003 0.74229985 0.18800004 0.7427999 0.18850003 0.7424998 C 0.19320004 0.7394998 0.19920003 0.71199983 0.19920003 0.6938998 C 0.19920003 0.6823998 0.19560003 0.66099983 0.18970004 0.6365998 C 0.18450004 0.6150998 0.18010004 0.59379977 0.18000004 0.5891998 C 0.17980003 0.5809998 0.17960003 0.5809998 0.17450003 0.5924998 C 0.16840003 0.6061998 0.15840003 0.65339977 0.15840003 0.6688998 C 0.15840003 0.6747998 0.16050003 0.6891998 0.16300003 0.7006998 C 0.16410004 0.7056998 0.16510004 0.7097998 0.16630003 0.7134998 C 0.15500003 0.6955998 0.14510003 0.6768998 0.13660003 0.6573998 C 0.10110003 0.57759976 0.09250003 0.48569977 0.109500036 0.39959976 C 0.109500036 0.40849975 0.11020003 0.40849975 0.124000035 0.39859977 C 0.14140004 0.38619977 0.15910004 0.36599976 0.17710003 0.33839977 C 0.18610004 0.32459977 0.19730003 0.30869976 0.20200004 0.30289978 S 0.21000004 0.29239976 0.20920004 0.29239976 C 0.20380004 0.29239976 0.15620004 0.32029977 0.14640003 0.32919976 C 0.13320003 0.34109977 0.123100035 0.35459977 0.11680003 0.36829975 C 0.12320003 0.34499976 0.13160004 0.32229975 0.14180003 0.30059975 C 0.14240003 0.30079976 0.14300004 0.30079976 0.14390004 0.30079976 C 0.15660004 0.30069977 0.20110004 0.27329975 0.22390004 0.25139976 C 0.22920004 0.24629976 0.24000004 0.23709975 0.24790004 0.23099975 C 0.26400003 0.21859975 0.26210004 0.21759975 0.23500004 0.22409976 C 0.20570004 0.23119976 0.17940004 0.24539976 0.16170004 0.26269975 C 0.17250004 0.24459976 0.18470004 0.22759975 0.19820005 0.21149975 H 0.20510004 C 0.22760004 0.21139975 0.25290003 0.20479976 0.27680004 0.19269975 C 0.28880003 0.18659975 0.30450004 0.17939974 0.31170005 0.17659974 C 0.32920006 0.16989975 0.32390004 0.16709974 0.29400006 0.16699974 C 0.26440006 0.16689974 0.24420005 0.17079975 0.22670007 0.18089974 C 0.23960006 0.16829973 0.25330007 0.15659975 0.26770008 0.14579974 C 0.26780006 0.14609975 0.26810008 0.14629973 0.2683001 0.14659974 C 0.2692001 0.14759974 0.2746001 0.14929974 0.2802001 0.15039974 C 0.2967001 0.15369974 0.31570008 0.15319975 0.3476001 0.14879975 C 0.3641001 0.14649975 0.3820001 0.14459975 0.3876001 0.14459975 C 0.3932001 0.14459975 0.3979001 0.14369975 0.3979001 0.14249974 C 0.3979001 0.14129974 0.3871001 0.13659975 0.3740001 0.13209975 C 0.3440001 0.121799745 0.3118001 0.12069975 0.2900001 0.12919974 C 0.30640012 0.11679974 0.31930012 0.10709974 0.3289001 0.09949975 C 0.3300001 0.09999975 0.3318001 0.09999975 0.3345001 0.09999975 C 0.3547001 0.09999975 0.37070012 0.091899745 0.3910001 0.07099975 C 0.4122001 0.049299747 0.4246001 0.030399747 0.41500008 0.034399748 C 0.4122001 0.03559975 0.4014001 0.038699746 0.3910001 0.04149975 C 0.3483001 0.05279975 0.33420008 0.06399975 0.3286001 0.09099975 C 0.3286001 0.091099754 0.32850012 0.091199756 0.32850012 0.09129975 C 0.3121001 0.10159975 0.29170012 0.11509975 0.27900013 0.12379975 C 0.27950013 0.12329975 0.28010014 0.12269975 0.28060013 0.12209975 C 0.29640013 0.10569975 0.30400014 0.09089975 0.31090012 0.06369975 L 0.31580013 0.044399753 L 0.31000012 0.047499754 C 0.30680013 0.049199753 0.29690012 0.055599753 0.28810012 0.061799753 C 0.25360012 0.08569975 0.23580012 0.115799755 0.24180013 0.14009975 C 0.24280013 0.14409974 0.24420013 0.14739975 0.24480014 0.14739975 C 0.24570014 0.14739975 0.24710013 0.14699975 0.24880013 0.14619975 C 0.20220013 0.18409975 0.16370013 0.23229975 0.13620013 0.28749973 C 0.14060013 0.27549973 0.14330013 0.2611997 0.14330013 0.24729973 C 0.14330013 0.23049973 0.14130013 0.21989973 0.13410012 0.19739974 L 0.124900125 0.16889973 L 0.11720012 0.19229972 C 0.09640012 0.25529972 0.09560012 0.27529973 0.11320012 0.30579972 L 0.11880012 0.31549972 L 0.124800116 0.30819973 C 0.12640011 0.30629975 0.12800011 0.30409974 0.12950012 0.30169973 C 0.11870012 0.32559973 0.10990012 0.35069972 0.10340012 0.37669975 C 0.103200115 0.37149975 0.10260012 0.36649975 0.10150012 0.36159974 C 0.09760012 0.34459975 0.08680011 0.31829974 0.081200115 0.31199974 C 0.07910012 0.30969974 0.073200114 0.30059972 0.06810012 0.29189974 C 0.059100118 0.27649975 0.058900118 0.27629974 0.058800116 0.28489974 C 0.058800116 0.28979975 0.057700116 0.30769974 0.056600116 0.32469973 C 0.053200115 0.37459973 0.061900117 0.40459973 0.08370012 0.41819972 C 0.08980012 0.42199972 0.092700124 0.42359972 0.09470012 0.42249972 C 0.09190012 0.44279972 0.09030012 0.46369973 0.09030012 0.4847997 C 0.09030012 0.48719972 0.09040012 0.48969972 0.09040012 0.4920997 C 0.08370012 0.47349972 0.056300122 0.4317997 0.04520012 0.4238997 C 0.04150012 0.4212997 0.034100123 0.41549972 0.02870012 0.4108997 C 0.02120012 0.4044997 0.01940012 0.4036997 0.020800121 0.4077997 C 0.021900121 0.4106997 0.024600122 0.4244997 0.026800122 0.4383997 C 0.034800123 0.4879997 0.04890012 0.5162997 0.07370012 0.5330997 C 0.08190012 0.5385997 0.09030012 0.5431997 0.092300124 0.5431997 C 0.09290013 0.5431997 0.09340012 0.5428997 0.09390012 0.54219973 C 0.09690012 0.5658997 0.10190012 0.58899975 0.10840012 0.61119974 C 0.09970012 0.5970997 0.08900012 0.58459973 0.07890012 0.57829976 C 0.07370012 0.57499975 0.06210012 0.5672998 0.05340012 0.56099975 C 0.04460012 0.55479974 0.03180012 0.54629976 0.024700122 0.54219973 L 0.0118001215 0.5345997 L 0.028100122 0.56809974 C 0.03700012 0.58649975 0.04850012 0.60829973 0.05380012 0.61639977 C 0.06550012 0.6343998 0.08500012 0.64999974 0.10450012 0.6570998 C 0.121000126 0.66309977 0.12530012 0.6643998 0.12550013 0.65879977 C 0.13650012 0.68459976 0.14990012 0.70909977 0.16530013 0.73189974 C 0.15920013 0.7252997 0.15290013 0.71929973 0.14780013 0.71549976 C 0.13070013 0.70279974 0.10020013 0.68859977 0.08260013 0.6850998 C 0.07420013 0.6833998 0.06270013 0.6801998 0.057100132 0.6779998 C 0.042700134 0.6723998 0.04210013 0.67279977 0.05130013 0.6830998 C 0.055800132 0.6880998 0.06480013 0.6995998 0.07150013 0.7085998 C 0.08380013 0.7253998 0.111800134 0.7500998 0.12820013 0.7587998 C 0.13320012 0.76149976 0.14490013 0.7653998 0.15410013 0.7673998 C 0.16330014 0.7694998 0.17320013 0.7706998 0.17620014 0.7699998 C 0.17920014 0.7692998 0.18380013 0.7687998 0.18650013 0.7686998 C 0.19050013 0.7686998 0.19090013 0.76809984 0.18820013 0.7625998 C 0.25260013 0.8415998 0.34390014 0.8957998 0.44730014 0.9096998 C 0.43700013 0.9116998 0.42660013 0.9144998 0.41830015 0.9176998 C 0.40400016 0.92319983 0.32440016 0.9629998 0.32440016 0.96449983 C 0.32440016 0.96609986 0.37720016 0.9632998 0.39400017 0.9607998 C 0.41790017 0.9571998 0.44920018 0.9464998 0.4620002 0.93759984 C 0.46730018 0.9338998 0.4758002 0.92589986 0.4809002 0.91979986 L 0.4866002 0.91289985 C 0.4911002 0.91299987 0.4956002 0.91319984 0.5001002 0.91319984 C 0.5051002 0.91319984 0.5101002 0.9130998 0.5150002 0.91289985 L 0.5292002 0.9263998 C 0.5446002 0.9410998 0.5497002 0.9441998 0.5696002 0.9503998 C 0.6029002 0.96089983 0.60560024 0.9613998 0.6414002 0.9635998 C 0.6594002 0.9646998 0.67560023 0.9657998 0.67750025 0.9659998 C 0.67940027 0.96619976 0.6809003 0.96589977 0.6809003 0.9650998 C 0.6809003 0.9632998 0.65680027 0.9509998 0.6482003 0.9483998 C 0.64450026 0.9472998 0.6371003 0.9432998 0.6317003 0.93959975 C 0.61360025 0.92709976 0.5805003 0.9149997 0.5538003 0.90939975 C 0.7032003 0.88889974 0.8273003 0.78429973 0.8812003 0.64249974 C 0.87850034 0.6502997 0.8766003 0.6566997 0.8766003 0.65829974 C 0.8766003 0.6638997 0.8805003 0.66379976 0.8974003 0.6573998 C 0.9168003 0.65009975 0.9350003 0.6365998 0.9461003 0.6211998 C 0.9555003 0.60809976 0.99120027 0.5370998 0.9883003 0.5370998 C 0.9865003 0.5370998 0.9519003 0.5590998 0.9307003 0.5736998 C 0.9083003 0.58909976 0.8957003 0.6045998 0.8862003 0.6286998 C 0.8962003 0.5995998 0.9032003 0.5690998 0.9069003 0.5375998 C 0.90780026 0.5456998 0.9127003 0.5432998 0.92830026 0.5336998 C 0.95300025 0.5185998 0.9686003 0.4885998 0.97600025 0.4419998 C 0.97810024 0.4286998 0.98100024 0.4145998 0.98250026 0.4105998 C 0.98400027 0.4065998 0.98420024 0.4033998 0.9830003 0.4033998 C 0.9791003 0.4033998 0.9381003 0.4461998 0.9285003 0.4602998 C 0.9187003 0.47479978 0.9127003 0.48899978 0.9095003 0.5059998 C 0.9098003 0.4987998 0.9100003 0.4915998 0.9100003 0.4842998 C 0.9100003 0.34449983 0.8459003 0.22029981 0.7469003 0.14199981 C 0.7519003 0.14459981 0.7569003 0.14629981 0.7583003 0.14589982 C 0.7623003 0.14479981 0.7633003 0.12489982 0.75990033 0.11349982 C 0.75560033 0.09859982 0.73190033 0.07199982 0.71000034 0.05749982 C 0.69920033 0.05029982 0.6898003 0.04479982 0.68930036 0.04529982 C 0.68780035 0.04679982 0.69680035 0.080299824 0.7020004 0.09229982 C 0.70650035 0.10259982 0.72020036 0.11969982 0.73240036 0.13109982 C 0.72520036 0.12589982 0.71790034 0.12099982 0.71040034 0.11629982 C 0.70300037 0.11279982 0.68880033 0.10479982 0.67480034 0.09689982 C 0.6751003 0.09609982 0.67530036 0.09519982 0.67530036 0.093999825 C 0.67530036 0.07429983 0.65520036 0.053599827 0.6287004 0.045899827 C 0.61920035 0.043099828 0.6054004 0.038899828 0.5982004 0.036599826 C 0.5917 0.0349 0.5861 0.0335 0.5844 0.0335 L 0.5844 0.0335 Z M 0.789 0.0903 L 0.78999996 0.12650001 C 0.79089993 0.15890001 0.79179996 0.16450001 0.7984 0.1791 C 0.8028 0.1887 0.8111 0.20050001 0.8188 0.20770001 C 0.82589996 0.21440001 0.8326 0.21990001 0.8336 0.21990001 C 0.83779997 0.22000001 0.84169996 0.19550002 0.8402 0.17880002 C 0.8379 0.15370002 0.8298 0.13820001 0.7995 0.102600016 L 0.789 0.0903 Z M 0.2123 0.0914 L 0.1948 0.1131 C 0.1852 0.125 0.1742 0.1413 0.17040001 0.14919999 C 0.16260001 0.1652 0.16020001 0.18849999 0.16430001 0.20799999 C 0.1657 0.2145 0.16800001 0.2198 0.16950001 0.2198 C 0.171 0.2198 0.17870001 0.21329999 0.18670002 0.2053 C 0.20880002 0.1828 0.21840002 0.1496 0.21420002 0.1097 L 0.2123 0.0914 L 0.2123 0.0914 Z M 0.8799 0.1747 C 0.87839997 0.1746 0.87479997 0.1815 0.87039995 0.19330001 C 0.86289996 0.2132 0.8619999 0.21900001 0.8619 0.24630001 C 0.8617 0.2748 0.86219996 0.278 0.8695 0.29230002 C 0.8738 0.3007 0.8786 0.3093 0.8803 0.31140003 C 0.88269997 0.31450003 0.8842 0.31410003 0.88809997 0.30920002 C 0.8951 0.30030003 0.904 0.2741 0.90389997 0.2623 C 0.90379995 0.24910001 0.8925 0.20680001 0.88049996 0.17530002 C 0.8802 0.175 0.8801 0.1747 0.8799 0.1747 Z M 0.9438 0.2785 L 0.932 0.29729998 C 0.9255 0.3076 0.91609997 0.32419997 0.9113 0.33409998 C 0.9031 0.35109997 0.9026 0.3541 0.9026 0.38149998 C 0.9026 0.40009996 0.90389997 0.413 0.9061 0.41699997 C 0.908 0.42039996 0.91029996 0.42329997 0.9112 0.42329997 C 0.9166 0.42329997 0.93079996 0.41089997 0.9356 0.40189996 C 0.9474 0.37999997 0.9503 0.35329998 0.94619995 0.30559996 L 0.9438 0.2785 L 0.9438 0.2785 Z M 0.1717 0.3832 C 0.1704 0.38369998 0.16 0.3935 0.1474 0.4059 C 0.120900005 0.4319 0.11250001 0.4456 0.105000004 0.476 C 0.102000006 0.48810002 0.101100005 0.4986 0.102400005 0.5088 C 0.10340001 0.517 0.10520001 0.52370006 0.106300004 0.52370006 C 0.1088 0.52370006 0.1337 0.48970005 0.1412 0.47610006 C 0.1461 0.46730006 0.1543 0.44310006 0.1676 0.39910007 C 0.17 0.39120007 0.172 0.38410008 0.172 0.38330007 C 0.1719 0.3832 0.1718 0.3831 0.1717 0.3832 L 0.1717 0.3832 Z M 0.2517 0.3869 C 0.23520002 0.3871 0.22190002 0.3915 0.21210001 0.4002 C 0.20240001 0.4088 0.19720002 0.4206 0.19710001 0.4348 C 0.19680001 0.4437 0.19910002 0.4525 0.20380001 0.4615 C 0.20860001 0.47059998 0.2175 0.4804 0.2306 0.4913 L 0.2419 0.5006 C 0.2419 0.5006 0.242 0.5006 0.242 0.5006 C 0.2525 0.509 0.2597 0.5164 0.2637 0.5225 C 0.26770002 0.52849996 0.26970002 0.53529996 0.26950002 0.5431 C 0.26950002 0.5431 0.26950002 0.5432 0.26950002 0.5432 C 0.26950002 0.55090004 0.26700002 0.5575 0.26150003 0.56380004 C 0.25620005 0.5698 0.24820003 0.573 0.23680003 0.5734 C 0.22870003 0.57350004 0.22160003 0.57170004 0.21510004 0.568 C 0.20890003 0.56450003 0.20490004 0.55880004 0.20290004 0.5503 C 0.20260003 0.5487 0.20250003 0.5474 0.20240004 0.54580003 C 0.20230004 0.5442 0.20230004 0.5428 0.20230004 0.5417 C 0.20230004 0.5403 0.20210004 0.5393 0.20150004 0.5382 C 0.20110004 0.5375 0.20040004 0.5367 0.19960004 0.5364 C 0.19880004 0.53610003 0.19820005 0.536 0.19760004 0.536 C 0.19590004 0.536 0.19410004 0.53720003 0.19340004 0.5387 C 0.19280005 0.53999996 0.19270004 0.5412 0.19250004 0.5427 C 0.19250004 0.5427 0.19250004 0.5428 0.19250004 0.5428 C 0.19230004 0.5449 0.19210003 0.5483 0.19180004 0.5529 C 0.19150004 0.5576 0.19130005 0.56310004 0.19120005 0.5695 C 0.19110005 0.57290006 0.19120005 0.5751 0.19200005 0.57720006 C 0.19280005 0.57940006 0.19470005 0.58080006 0.19690004 0.58180004 C 0.20230004 0.58440006 0.20770004 0.58620006 0.21360004 0.58720005 C 0.21940003 0.58830005 0.22540005 0.5888001 0.23140004 0.5888001 C 0.23840004 0.5888001 0.24540004 0.58800006 0.25210005 0.5863001 C 0.25890005 0.5846001 0.26510006 0.5817001 0.27080005 0.5778001 C 0.27090004 0.5778001 0.27090004 0.5777001 0.27100006 0.5777001 C 0.27970007 0.5710001 0.28580007 0.5635001 0.28900006 0.55500007 C 0.29200006 0.54700005 0.29350007 0.5400001 0.29340005 0.53410006 C 0.29340005 0.53410006 0.29340005 0.53400004 0.29340005 0.53400004 S 0.29340005 0.5339 0.29340005 0.5339 C 0.29370004 0.5237 0.29110005 0.5138 0.28580004 0.5044 C 0.28040004 0.4948 0.27030003 0.48450002 0.25570005 0.47300002 L 0.24870005 0.46760002 C 0.23710005 0.4586 0.22910005 0.45110002 0.22500005 0.44550002 C 0.22090006 0.4399 0.21920006 0.4343 0.21940005 0.42810002 C 0.21960005 0.41950002 0.22220005 0.4133 0.22730005 0.40890002 C 0.23250005 0.40440002 0.23880005 0.40210003 0.24710006 0.402 C 0.25810006 0.40240002 0.26540005 0.40440002 0.26900005 0.407 C 0.27120006 0.4086 0.27290004 0.41 0.27390006 0.4111 C 0.27500007 0.4122 0.27550006 0.4131 0.27550006 0.4131 C 0.27560005 0.4133 0.27560005 0.4134 0.27570006 0.4136 C 0.27630007 0.4149 0.27700007 0.4167 0.27750006 0.419 C 0.27810007 0.4214 0.27830008 0.42339998 0.27850005 0.4249 C 0.27860004 0.4262 0.27890006 0.4272 0.27940005 0.4282 C 0.28010005 0.42970002 0.28210005 0.4309 0.28360006 0.4309 C 0.28460005 0.4309 0.28580007 0.4304 0.28650007 0.4296 C 0.28720006 0.4289 0.28750005 0.4281 0.28780007 0.4274 C 0.28830007 0.4258 0.28840008 0.4242 0.28840008 0.4221 C 0.28840008 0.4137 0.2886001 0.4074 0.28890008 0.4032 C 0.28920007 0.3989 0.28930008 0.3965 0.28940007 0.3959 C 0.28940007 0.3959 0.28940007 0.39580002 0.28940007 0.39580002 C 0.28940007 0.39460003 0.28910008 0.39300004 0.28770006 0.39200002 C 0.28640005 0.39100003 0.28510004 0.39090002 0.28390005 0.39090002 C 0.28320006 0.39090002 0.28210005 0.39090002 0.28090006 0.3907 C 0.27970007 0.3905 0.27800006 0.39020002 0.27580005 0.38970003 C 0.27260005 0.3889 0.26910004 0.38830003 0.26520005 0.38790002 C 0.261 0.3872 0.2566 0.3869 0.2517 0.3869 L 0.2517 0.3869 Z M 0.5324 0.3869 C 0.5091 0.3874 0.4898 0.39290002 0.4747 0.4038 C 0.4598 0.4145 0.4487 0.42760003 0.4416 0.44300002 C 0.4346 0.4582 0.43109998 0.4731 0.43109998 0.4875 C 0.431 0.5033 0.43449998 0.51890004 0.4414 0.5341 C 0.4483 0.5495 0.45929998 0.56229997 0.4741 0.5725 C 0.48909998 0.5828 0.5082 0.5881 0.5316 0.58849996 C 0.5316 0.58849996 0.5317 0.58849996 0.5317 0.58849996 C 0.5388 0.58839995 0.5461 0.5876 0.5535 0.58599997 C 0.5602 0.58449996 0.5657 0.5825 0.5705 0.5803 L 0.6113 0.60289997 C 0.6315 0.6142 0.6501 0.62259996 0.6671 0.6282 C 0.68410003 0.63379997 0.70030004 0.6366 0.7156 0.6366 C 0.7156 0.6366 0.71570003 0.6366 0.71570003 0.6366 C 0.73440003 0.6363 0.75070006 0.6343 0.7645 0.6304 C 0.7781 0.6266 0.7885 0.6228 0.796 0.6192 C 0.796 0.6192 0.796 0.6191 0.796 0.6191 C 0.7969 0.61859995 0.7977 0.61829996 0.7986 0.6171 C 0.7986 0.6171 0.79870003 0.6171 0.79870003 0.6171 C 0.79950005 0.6161 0.7997 0.6148 0.7997 0.6139 C 0.7997 0.6128 0.799 0.6117 0.7985 0.6111 C 0.7978 0.6103 0.7964 0.6096 0.7953 0.6095 C 0.7952 0.6095 0.7952 0.6095 0.79510003 0.6095 C 0.79440004 0.6095 0.7936 0.60969996 0.79270005 0.61 C 0.79200006 0.6102 0.79150003 0.6104 0.79080003 0.6107 C 0.79080003 0.6107 0.7907 0.6107 0.7907 0.6107 C 0.7821 0.61410004 0.7735 0.61660004 0.7649 0.6181 C 0.75630003 0.6196 0.74880004 0.6203 0.7426 0.6202 C 0.7425 0.6202 0.74240005 0.6202 0.74230003 0.6202 C 0.73660004 0.6207 0.72440004 0.6195 0.70640004 0.6162 C 0.68880004 0.613 0.66630006 0.60459995 0.63890004 0.5911 L 0.5917 0.5668 C 0.60010004 0.5608 0.6085 0.5521 0.6171 0.5396 C 0.6273 0.5248 0.6328 0.5062 0.6336 0.48380002 C 0.6336 0.48370004 0.6336 0.48370004 0.6336 0.48360002 C 0.633 0.45380002 0.6233 0.43 0.6046 0.41300002 C 0.586 0.3961 0.5618 0.38740003 0.53260005 0.3871 C 0.5325 0.3869 0.5325 0.3869 0.5324 0.3869 Z M 0.3082 0.3903 C 0.3065 0.3903 0.3052 0.3905 0.3039 0.39110002 C 0.3024 0.39180002 0.3012 0.39370003 0.3012 0.39540002 C 0.3012 0.39540002 0.3012 0.3955 0.3012 0.3955 C 0.3012 0.3966 0.3022 0.3983 0.3032 0.39900002 C 0.30400002 0.3995 0.3051 0.39990002 0.3061 0.39990002 C 0.3072 0.39990002 0.3086 0.4 0.31030002 0.40010002 C 0.31190002 0.4002 0.3131 0.4004 0.314 0.40060002 C 0.314 0.40060002 0.3141 0.40060002 0.3141 0.40060002 C 0.3177 0.4013 0.3196 0.40260002 0.3205 0.40390003 C 0.32149997 0.40540004 0.3222 0.40820003 0.3223 0.41200003 C 0.3223 0.41200003 0.3223 0.41210002 0.3223 0.41210002 C 0.3225 0.4153 0.3227 0.42040002 0.32279998 0.42720002 C 0.32289997 0.43410003 0.32279998 0.4469 0.32279998 0.46570003 V 0.50960004 C 0.32279998 0.5217 0.32279998 0.5324001 0.3227 0.54170007 C 0.3226 0.55100006 0.3223 0.5583001 0.3217 0.5634001 C 0.3213 0.5669001 0.3206 0.56970006 0.31980002 0.5718001 C 0.31910002 0.5735001 0.31820002 0.5742001 0.3167 0.5745001 C 0.31570002 0.57470006 0.3145 0.5750001 0.3132 0.5752001 C 0.312 0.57540005 0.3109 0.57540005 0.3099 0.57540005 C 0.3099 0.57540005 0.3098 0.57540005 0.3098 0.57540005 C 0.3086 0.57540005 0.3074 0.57570004 0.30629998 0.57680005 C 0.3058 0.5773001 0.30479997 0.57860005 0.30479997 0.58000004 C 0.30479997 0.58160007 0.30599996 0.5835 0.30749997 0.5842 C 0.30879998 0.5848 0.3101 0.58500004 0.31179997 0.58500004 C 0.31609997 0.58500004 0.32099998 0.58480006 0.32639998 0.58460003 C 0.33169997 0.58440006 0.3347 0.5842 0.3356 0.5842 C 0.3356 0.5842 0.3358 0.5842 0.3358 0.5842 C 0.33679998 0.5842 0.3402 0.5844 0.3463 0.58460003 C 0.3525 0.5848 0.3592 0.58500004 0.36650002 0.58500004 C 0.36810002 0.58500004 0.3695 0.58480006 0.37090003 0.58410007 C 0.37220004 0.5834001 0.37340003 0.58160007 0.37340003 0.58000004 C 0.37340003 0.58000004 0.37340003 0.5799 0.37340003 0.5799 C 0.37340003 0.5799 0.37340003 0.5798 0.37340003 0.5798 C 0.37330005 0.57850003 0.37250003 0.5773 0.37200004 0.5768 C 0.37090003 0.5757 0.36970004 0.5755 0.36850002 0.5754 C 0.36850002 0.5754 0.36840004 0.5754 0.36840004 0.5754 C 0.36730003 0.5754 0.36570004 0.5753 0.36360005 0.5751 C 0.36140004 0.57490003 0.35950005 0.5748 0.35770005 0.5745 C 0.35470006 0.574 0.35330003 0.573 0.35250005 0.5715 C 0.35150006 0.5695 0.35080004 0.5668 0.35060006 0.5635 C 0.35060006 0.5635 0.35050008 0.5634 0.35050008 0.5634 C 0.34990007 0.55819994 0.34970006 0.551 0.3495001 0.54169995 C 0.3494001 0.53239995 0.3493001 0.52169997 0.3493001 0.5095999 V 0.4071 C 0.3493001 0.4062 0.34940007 0.4055 0.34960008 0.4051 C 0.3504001 0.4048 0.35170007 0.40429997 0.35340008 0.4041 C 0.35520008 0.4039 0.35710007 0.4038 0.35910007 0.4038 C 0.35920006 0.4038 0.35930008 0.4038 0.35940006 0.4038 C 0.36190006 0.40350002 0.36660007 0.4039 0.37290007 0.405 C 0.37850007 0.406 0.38450006 0.4093 0.39100006 0.4154 C 0.39710006 0.4221 0.40080005 0.4287 0.40230006 0.4352 C 0.40390006 0.4422 0.40450007 0.4477 0.40420005 0.45160002 C 0.40420005 0.45160002 0.40420005 0.4517 0.40420005 0.4517 C 0.40390006 0.4628 0.40020004 0.4716 0.39270005 0.4787 C 0.38520005 0.4857 0.37580004 0.48920003 0.36400005 0.48950002 C 0.36130005 0.48950002 0.35960007 0.4896 0.35800004 0.49010003 C 0.35700005 0.49040002 0.35590005 0.49100003 0.35530004 0.49190003 S 0.35440004 0.49400002 0.35440004 0.49490002 C 0.35440004 0.49490002 0.35440004 0.495 0.35440004 0.495 C 0.35450003 0.4964 0.35580003 0.4982 0.35700005 0.4988 C 0.35770005 0.4991 0.35860005 0.49940002 0.35960007 0.4995 C 0.35970005 0.4995 0.35970005 0.4995 0.35980007 0.4995 C 0.35990006 0.4995 0.36000007 0.4996 0.36010006 0.4996 C 0.36090007 0.49969998 0.36170006 0.4998 0.36260006 0.4998 C 0.36370006 0.4998 0.36470005 0.4998 0.36530006 0.4998 C 0.38390005 0.4995 0.39940006 0.49379998 0.41130006 0.4825 C 0.42310005 0.47129998 0.42940006 0.4561 0.42970008 0.4375 C 0.42970008 0.4374 0.42970008 0.4374 0.42970008 0.4373 C 0.42950007 0.4302 0.42800006 0.4238 0.4251001 0.4182 C 0.42250007 0.4129 0.4196001 0.4089 0.4165001 0.4059 C 0.4164001 0.4058 0.4163001 0.4056 0.4162001 0.4055 L 0.4161001 0.40559998 C 0.41360012 0.4026 0.4094001 0.39999998 0.40250012 0.39659998 C 0.39480013 0.39279997 0.3834001 0.3909 0.36790013 0.39049998 C 0.36790013 0.39049998 0.36780015 0.39049998 0.36780015 0.39049998 C 0.36180013 0.39049998 0.35570014 0.39069998 0.34970015 0.3909 C 0.34370014 0.3911 0.33940014 0.3913 0.33640015 0.3913 C 0.33510014 0.3913 0.33160016 0.3911 0.32580015 0.3909 C 0.32 0.3905 0.3142 0.3904 0.3082 0.3903 L 0.3082 0.3903 Z M 0.6317 0.3903 C 0.63 0.3903 0.62869996 0.3905 0.6274 0.39110002 C 0.6259 0.39180002 0.6247 0.39370003 0.6247 0.39540002 C 0.6247 0.39540002 0.6247 0.3955 0.6247 0.3955 C 0.6247 0.3966 0.6257 0.3983 0.6267 0.39900002 C 0.6275 0.3995 0.6286 0.39990002 0.6296 0.39990002 C 0.6307 0.39990002 0.6321 0.4 0.63379997 0.40010002 C 0.6354 0.4002 0.63659996 0.4004 0.6375 0.40060002 C 0.6375 0.40060002 0.6376 0.40060002 0.6376 0.40060002 C 0.6412 0.4013 0.6431 0.40260002 0.644 0.40390003 C 0.645 0.40540004 0.6457 0.40820003 0.6458 0.41200003 C 0.6458 0.41200003 0.6458 0.41210002 0.6458 0.41210002 C 0.64599997 0.4153 0.6462 0.42040002 0.6463 0.42720002 C 0.64640003 0.43410003 0.6463 0.4469 0.6463 0.46570003 V 0.50960004 C 0.6463 0.5217 0.6463 0.5324001 0.6462 0.54170007 C 0.6461 0.55100006 0.6458 0.5583001 0.6452 0.5634001 C 0.6448 0.5669001 0.6441 0.56970006 0.6433 0.5718001 C 0.6426 0.5735001 0.6418 0.5742001 0.6402 0.5745001 C 0.63920003 0.57470006 0.638 0.5750001 0.63670003 0.5752001 C 0.6355 0.57540005 0.6344 0.57540005 0.6334 0.57540005 C 0.6334 0.57540005 0.6333 0.57540005 0.6333 0.57540005 C 0.6321 0.57540005 0.6309 0.57570004 0.6298 0.57680005 C 0.6293 0.5773001 0.6283 0.57860005 0.6283 0.58000004 C 0.6283 0.58160007 0.62950003 0.5835 0.631 0.5842 C 0.63229996 0.5848 0.6336 0.58500004 0.6353 0.58500004 C 0.6396 0.58500004 0.6444 0.58480006 0.6498 0.58460003 C 0.65500003 0.58440006 0.6578 0.5842 0.6586 0.5842 C 0.6586 0.5842 0.65889996 0.5842 0.65889996 0.5842 C 0.65989995 0.5842 0.6633 0.5844 0.66929996 0.58460003 C 0.6755 0.5848 0.68219995 0.58500004 0.6895 0.58500004 C 0.6911 0.58500004 0.6925 0.58480006 0.6939 0.58410007 C 0.69519997 0.5834001 0.6964 0.58160007 0.6964 0.58000004 C 0.6964 0.58000004 0.6964 0.5799 0.6964 0.5799 C 0.6964 0.5799 0.6964 0.5798 0.6964 0.5798 C 0.69629997 0.57850003 0.6955 0.5773 0.695 0.5768 C 0.6939 0.5757 0.69269997 0.5755 0.6915 0.5754 C 0.6915 0.5754 0.6914 0.5754 0.6914 0.5754 C 0.6903 0.5754 0.6887 0.5753 0.68659997 0.5751 C 0.68439996 0.57490003 0.6824 0.5748 0.6806 0.5745 C 0.67759997 0.574 0.6763 0.573 0.6755 0.5715 C 0.6745 0.5695 0.6738 0.5668 0.67359996 0.5635 C 0.67359996 0.5635 0.67349994 0.5634 0.67349994 0.5634 C 0.67289996 0.55819994 0.6726999 0.551 0.67249995 0.54169995 C 0.67239994 0.53239995 0.6723 0.52169997 0.6723 0.5095999 V 0.50469995 L 0.7018 0.50519997 C 0.7021 0.50519997 0.7021 0.50519997 0.7022 0.50519997 C 0.7025 0.50539994 0.7027 0.50549996 0.7029 0.5057 C 0.7055 0.5092 0.70919997 0.5144 0.7141 0.5212 C 0.7191 0.52820003 0.7244 0.5353 0.7298 0.5424 C 0.7368 0.5518 0.7429 0.5595 0.7481 0.5657 C 0.75339997 0.57199997 0.75879997 0.5768 0.7644 0.57989997 C 0.76780003 0.5818 0.7715 0.58309996 0.77570003 0.5839 C 0.78000003 0.5847 0.7856 0.5851 0.7925 0.5851 H 0.81020004 C 0.8126 0.5851 0.81430006 0.5849 0.8158 0.5844 C 0.8166 0.5841 0.8175 0.5837 0.81810004 0.5829 C 0.81880003 0.5821 0.8191 0.5809 0.8191 0.58 C 0.8191 0.5789 0.81820005 0.5773 0.8173 0.5767 C 0.81630003 0.576 0.8151 0.5757 0.814 0.57559997 C 0.8139 0.57559997 0.8139 0.57559997 0.81380004 0.57559997 C 0.81320006 0.57559997 0.81210005 0.57559997 0.8104 0.57549995 C 0.8089 0.57539994 0.807 0.5753 0.8047 0.5749 C 0.8046 0.5749 0.8046 0.57479995 0.80450004 0.57479995 C 0.8019 0.5746 0.79800004 0.57339996 0.79300004 0.57109994 C 0.78840005 0.56899995 0.78260005 0.56459993 0.77590007 0.55779994 C 0.7688001 0.5500999 0.76100004 0.5407999 0.75240004 0.5300999 C 0.74430007 0.5198999 0.73530006 0.5084999 0.7257 0.49629992 C 0.73590004 0.48649994 0.7435 0.4769999 0.748 0.46769992 C 0.75280005 0.45789993 0.7551 0.4480999 0.75500005 0.4383999 C 0.75500005 0.4383999 0.75500005 0.43829992 0.75500005 0.43829992 C 0.75470006 0.42919993 0.75250006 0.42139992 0.7483001 0.41499993 C 0.74430007 0.40899992 0.7405001 0.40469992 0.7365001 0.40199992 C 0.72950006 0.39719993 0.7217001 0.39399993 0.71340007 0.39249992 C 0.7053001 0.3909999 0.69720006 0.39029992 0.6891001 0.39049992 C 0.6846001 0.39049992 0.6792001 0.39069992 0.6725001 0.39089993 C 0.66590005 0.39109993 0.66170007 0.39129993 0.65980005 0.39129993 C 0.65980005 0.39129993 0.65970004 0.39129993 0.65970004 0.39129993 C 0.65870005 0.39129993 0.65540004 0.39109993 0.6495 0.39089993 C 0.6438 0.3905 0.6378 0.3904 0.6317 0.3903 L 0.6317 0.3903 Z M 0.5269 0.4014 C 0.5282 0.4014 0.5295 0.4014 0.5308 0.4014 C 0.55039996 0.4015 0.5671 0.4089 0.58129996 0.424 C 0.5954 0.43899998 0.60289997 0.461 0.60359997 0.4905 C 0.60319996 0.5141 0.59889996 0.5315 0.5912 0.5432 C 0.5833 0.55520004 0.5744 0.5632 0.5644 0.5672 C 0.554 0.5714 0.5452 0.5732 0.5378 0.5729 C 0.5378 0.5729 0.5377 0.5729 0.5377 0.5729 C 0.5155 0.5726 0.4976 0.5644 0.4832 0.548 C 0.46890002 0.53169996 0.4614 0.5092 0.4609 0.48029998 C 0.46130002 0.45349997 0.468 0.434 0.4808 0.42099997 C 0.4929 0.4087 0.5081 0.4022 0.5269 0.4014 L 0.5269 0.4014 Z M 0.6827 0.4044 C 0.6843 0.4043 0.6861 0.4044 0.68799996 0.4044 C 0.70079994 0.40449998 0.7104 0.4085 0.71739995 0.4165 C 0.7244 0.4245 0.7279999 0.436 0.72819996 0.4512 C 0.72809994 0.46040002 0.72669995 0.468 0.72409993 0.4741 C 0.7214999 0.48029998 0.7181999 0.4846 0.7142999 0.4872 C 0.7116999 0.489 0.70899993 0.48999998 0.70619994 0.4906 C 0.70309997 0.4912 0.70019996 0.4914 0.6974 0.4914 C 0.6974 0.4914 0.69729996 0.4914 0.69729996 0.4914 C 0.69179994 0.4914 0.6867 0.4911 0.682 0.4903 C 0.6773 0.4896 0.67399997 0.4886 0.6726 0.4878 C 0.67209995 0.4875 0.6724 0.4878 0.6724 0.4875 C 0.6724 0.4875 0.6724 0.48740003 0.6724 0.48740003 V 0.4059 C 0.6724 0.4057 0.6723 0.4057 0.6723 0.4057 C 0.6723 0.4057 0.6724 0.4057 0.67249995 0.4057 C 0.67349994 0.4054 0.67539996 0.4051 0.67819995 0.4048 C 0.6796 0.4047 0.6811 0.4045 0.6827 0.4044 L 0.6827 0.4044 Z M 0.163 0.4849 C 0.1584 0.48499998 0.12830001 0.5357 0.123 0.5536 C 0.1158 0.5774 0.116000004 0.6027 0.1233 0.62270004 C 0.1289 0.6381 0.1291 0.63830006 0.1344 0.6333 C 0.14109999 0.6271 0.14919999 0.6111 0.1546 0.5937 C 0.15769999 0.5836 0.16319999 0.5185 0.1636 0.4861 C 0.1636 0.4853 0.1634 0.4849 0.163 0.4849 L 0.163 0.4849 Z M 0.9581 0.6752 C 0.95600003 0.6753 0.9523 0.6762 0.947 0.678 C 0.9404 0.6802 0.92840004 0.6834 0.92020005 0.68509996 C 0.89820004 0.68979996 0.8615 0.7097 0.84360003 0.72659993 C 0.8306 0.7387999 0.814 0.76159996 0.814 0.7670999 C 0.814 0.76789993 0.81740004 0.7690999 0.8215 0.76969993 C 0.8356 0.77189994 0.8671 0.76439995 0.8797 0.75569993 C 0.9131 0.73279995 0.92190003 0.7243999 0.9378 0.70019996 C 0.943 0.6924 0.9504 0.6838 0.9543 0.68119997 C 0.9604 0.6772 0.9616 0.6751 0.9581 0.6752 L 0.9581 0.6752 Z M 0.1107 0.7979 C 0.108799994 0.79800004 0.107599996 0.7981 0.1072 0.79840004 C 0.106699996 0.79870003 0.12 0.8087 0.1366 0.82040006 C 0.1666 0.84160006 0.1747 0.8457001 0.206 0.8557001 C 0.2247 0.8616001 0.2529 0.8609001 0.2691 0.8540001 L 0.2789 0.8498001 L 0.2682 0.8402001 C 0.2624 0.8350001 0.24960001 0.82670015 0.23990001 0.8219001 S 0.2203 0.8121001 0.21800001 0.81080014 C 0.2102 0.8068 0.1289 0.7974 0.1107 0.7979 L 0.1107 0.7979 Z M 0.8883 0.7989 C 0.8807 0.7988 0.8646 0.7998 0.835 0.8024 C 0.79819995 0.8056 0.773 0.8134 0.7506 0.8286 C 0.73039997 0.8423 0.7256 0.848 0.7306 0.8523 C 0.7327 0.8541 0.7398 0.8567 0.7463 0.858 C 0.7703 0.8628 0.791 0.8599 0.8215 0.8473 C 0.83460003 0.8419 0.8906 0.8055 0.8937 0.8004 C 0.8944 0.7995 0.8928 0.799 0.8883 0.7989 L 0.8883 0.7989 Z M 0.6886 0.8832 C 0.6704 0.8832 0.635 0.8908 0.6243 0.8969 C 0.6192 0.8998 0.637 0.9122 0.6565 0.9194 C 0.66709995 0.92329997 0.6785 0.9249 0.6968 0.9249 C 0.7191 0.925 0.7273 0.9235 0.7615 0.9132 C 0.7963 0.9027 0.7996 0.9012 0.7917 0.8994 C 0.7495 0.8902 0.7053 0.8832 0.6886 0.8832 L 0.6886 0.8832 Z M 0.3124 0.8838 C 0.298 0.88390005 0.28280002 0.8855 0.2676 0.8887 C 0.2531 0.8917 0.2323 0.8956 0.2213 0.89750004 L 0.20130001 0.901 L 0.21310002 0.90440005 C 0.21960002 0.90630007 0.23720002 0.91160005 0.2522 0.91620004 C 0.29930001 0.93090004 0.3502 0.92660004 0.3731 0.90610003 L 0.38180003 0.89820004 L 0.37480003 0.8949 C 0.3585 0.8873 0.3365 0.8835 0.3124 0.8838 L 0.3124 0.8838 Z"/>
<linearGradient id="glaze" x1="0%" y1="0%" x2="100%" y2="100%">
<stop offset="0%" stop-color="rgb(255,255,255)" stop-opacity="0.2"/>
<stop offset="49.999%" stop-color="rgb(255,255,255)" stop-opacity="0.0"/>
<stop offset="50.001%" stop-color="rgb(0,0,0)" stop-opacity="0.0"/>
<stop offset="100%" stop-color="rgb(0,0,0)" stop-opacity="0.2"/>
</linearGradient>
</defs>
<g>
<rect x="0" y="0" width="640" height="360" class="red"/>
<use xlink:href="#spqr" transform="translate(200 60) scale(240 240) rotate(0)" class="gold"/>
</g>
<g>
<rect x="0" y="0" width="640" height="360" fill="url(#glaze)"/>
<path d="M 30 30 L 610 30 L 610 330 L 30 330 Z M 60 60 L 60 300 L 580 300 L 580 60 Z" fill="rgb(255,255,255)" opacity="0.4"/>
<path d="M 0 0 L 640 0 L 640 360 L 0 360 Z M 30 30 L 30 330 L 610 330 L 610 30 Z" fill="rgb(0,0,0)" opacity="0.4"/>
</g>
</svg>
