<?xml version="1.0"?>
<svg xmlns="http://www.w3.org/2000/svg" xmlns:xlink="http://www.w3.org/1999/xlink" version="1.1" width="640" height="360" viewBox="0 0 640 360">
<!-- Generated by Kreative Vexillo v1.0 -->
<style>
.blue{fill:rgb(0,101,189);}
.green{fill:rgb(0,154,73);}
.orange{fill:rgb(255,121,0);}
.white{fill:rgb(255,255,255);}
</style>
<defs>
<clipPath id="clip0">
<path d="M 0 360 L 640 0 L 640 360 Z"/>
</clipPath>
<linearGradient id="glaze" x1="0%" y1="0%" x2="100%" y2="100%">
<stop offset="0%" stop-color="rgb(255,255,255)" stop-opacity="0.2"/>
<stop offset="49.999%" stop-color="rgb(255,255,255)" stop-opacity="0.0"/>
<stop offset="50.001%" stop-color="rgb(0,0,0)" stop-opacity="0.0"/>
<stop offset="100%" stop-color="rgb(0,0,0)" stop-opacity="0.2"/>
</linearGradient>
</defs>
<g>
<rect x="0" y="0" width="640" height="360" class="white"/>
<g>
<path d="M 0 0 L 640 0 L 0 360 Z" class="blue"/>
<path d="M 0 0 L 0 41.3045 L 0 41.3045 L 246.5698 180 L 246.5698 180 L 0 318.6955 L 0 318.6955 L 0 360 L 73.4302 360 L 320 221.3045 L 320 221.3045 L 566.5698 360 L 640 360 L 640 318.6955 L 393.4302 180 L 393.4302 180 L 640 41.3045 L 640 0 L 566.5698 0 L 320 138.6955 L 320 138.6955 L 320 138.6955 L 320 138.6955 L 320 138.6955 L 320 138.6955 L 73.4302 0 Z" class="white"/>
</g>
<g clip-path="url(#clip0)">
<g>
<rect x="0" y="0" width="213.3333" height="360" class="green"/>
<rect x="213.3333" y="0" width="213.3333" height="360" class="white"/>
<rect x="426.6667" y="0" width="213.3333" height="360" class="orange"/>
</g>
</g>
</g>
<g>
<rect x="0" y="0" width="640" height="360" fill="url(#glaze)"/>
<path d="M 30 30 L 610 30 L 610 330 L 30 330 Z M 60 60 L 60 300 L 580 300 L 580 60 Z" fill="rgb(255,255,255)" opacity="0.4"/>
<path d="M 0 0 L 640 0 L 640 360 L 0 360 Z M 30 30 L 30 330 L 610 330 L 610 30 Z" fill="rgb(0,0,0)" opacity="0.4"/>
</g>
</svg>
