<?xml version="1.0"?>
<svg xmlns="http://www.w3.org/2000/svg" xmlns:xlink="http://www.w3.org/1999/xlink" version="1.1" width="640" height="360" viewBox="0 0 640 360">
<!-- Generated by Kreative Vexillo v1.0 -->
<style>
.b{fill:rgb(123,150,158);}
.g{fill:rgb(138,176,156);}
.n{fill:rgb(171,85,0);}
.o{fill:rgb(218,114,72);}
.r{fill:rgb(255,153,128);}
.v{fill:rgb(161,113,124);}
.y{fill:rgb(252,221,100);}
</style>
<defs>
<linearGradient id="glaze" x1="0%" y1="0%" x2="100%" y2="100%">
<stop offset="0%" stop-color="rgb(255,255,255)" stop-opacity="0.2"/>
<stop offset="49.999%" stop-color="rgb(255,255,255)" stop-opacity="0.0"/>
<stop offset="50.001%" stop-color="rgb(0,0,0)" stop-opacity="0.0"/>
<stop offset="100%" stop-color="rgb(0,0,0)" stop-opacity="0.2"/>
</linearGradient>
</defs>
<g>
<g>
<rect x="0" y="0" width="91.4286" height="51.4286" class="g"/>
<rect x="91.4286" y="0" width="91.4286" height="51.4286" class="y"/>
<rect x="182.8571" y="0" width="91.4286" height="51.4286" class="o"/>
<rect x="274.2857" y="0" width="91.4286" height="51.4286" class="r"/>
<rect x="365.7143" y="0" width="91.4286" height="51.4286" class="n"/>
<rect x="457.1429" y="0" width="91.4286" height="51.4286" class="v"/>
<rect x="548.5714" y="0" width="91.4286" height="51.4286" class="b"/>
</g>
<g>
<rect x="0" y="51.4286" width="91.4286" height="51.4286" class="b"/>
<rect x="91.4286" y="51.4286" width="91.4286" height="51.4286" class="g"/>
<rect x="182.8571" y="51.4286" width="91.4286" height="51.4286" class="y"/>
<rect x="274.2857" y="51.4286" width="91.4286" height="51.4286" class="o"/>
<rect x="365.7143" y="51.4286" width="91.4286" height="51.4286" class="r"/>
<rect x="457.1429" y="51.4286" width="91.4286" height="51.4286" class="n"/>
<rect x="548.5714" y="51.4286" width="91.4286" height="51.4286" class="v"/>
</g>
<g>
<rect x="0" y="102.8571" width="91.4286" height="51.4286" class="v"/>
<rect x="91.4286" y="102.8571" width="91.4286" height="51.4286" class="b"/>
<rect x="182.8571" y="102.8571" width="91.4286" height="51.4286" class="g"/>
<rect x="274.2857" y="102.8571" width="91.4286" height="51.4286" class="y"/>
<rect x="365.7143" y="102.8571" width="91.4286" height="51.4286" class="o"/>
<rect x="457.1429" y="102.8571" width="91.4286" height="51.4286" class="r"/>
<rect x="548.5714" y="102.8571" width="91.4286" height="51.4286" class="n"/>
</g>
<g>
<rect x="0" y="154.2857" width="91.4286" height="51.4286" class="n"/>
<rect x="91.4286" y="154.2857" width="91.4286" height="51.4286" class="v"/>
<rect x="182.8571" y="154.2857" width="91.4286" height="51.4286" class="b"/>
<rect x="274.2857" y="154.2857" width="91.4286" height="51.4286" class="g"/>
<rect x="365.7143" y="154.2857" width="91.4286" height="51.4286" class="y"/>
<rect x="457.1429" y="154.2857" width="91.4286" height="51.4286" class="o"/>
<rect x="548.5714" y="154.2857" width="91.4286" height="51.4286" class="r"/>
</g>
<g>
<rect x="0" y="205.7143" width="91.4286" height="51.4286" class="r"/>
<rect x="91.4286" y="205.7143" width="91.4286" height="51.4286" class="n"/>
<rect x="182.8571" y="205.7143" width="91.4286" height="51.4286" class="v"/>
<rect x="274.2857" y="205.7143" width="91.4286" height="51.4286" class="b"/>
<rect x="365.7143" y="205.7143" width="91.4286" height="51.4286" class="g"/>
<rect x="457.1429" y="205.7143" width="91.4286" height="51.4286" class="y"/>
<rect x="548.5714" y="205.7143" width="91.4286" height="51.4286" class="o"/>
</g>
<g>
<rect x="0" y="257.1429" width="91.4286" height="51.4286" class="o"/>
<rect x="91.4286" y="257.1429" width="91.4286" height="51.4286" class="r"/>
<rect x="182.8571" y="257.1429" width="91.4286" height="51.4286" class="n"/>
<rect x="274.2857" y="257.1429" width="91.4286" height="51.4286" class="v"/>
<rect x="365.7143" y="257.1429" width="91.4286" height="51.4286" class="b"/>
<rect x="457.1429" y="257.1429" width="91.4286" height="51.4286" class="g"/>
<rect x="548.5714" y="257.1429" width="91.4286" height="51.4286" class="y"/>
</g>
<g>
<rect x="0" y="308.5714" width="91.4286" height="51.4286" class="y"/>
<rect x="91.4286" y="308.5714" width="91.4286" height="51.4286" class="o"/>
<rect x="182.8571" y="308.5714" width="91.4286" height="51.4286" class="r"/>
<rect x="274.2857" y="308.5714" width="91.4286" height="51.4286" class="n"/>
<rect x="365.7143" y="308.5714" width="91.4286" height="51.4286" class="v"/>
<rect x="457.1429" y="308.5714" width="91.4286" height="51.4286" class="b"/>
<rect x="548.5714" y="308.5714" width="91.4286" height="51.4286" class="g"/>
</g>
</g>
<g>
<rect x="0" y="0" width="640" height="360" fill="url(#glaze)"/>
<path d="M 30 30 L 610 30 L 610 330 L 30 330 Z M 60 60 L 60 300 L 580 300 L 580 60 Z" fill="rgb(255,255,255)" opacity="0.4"/>
<path d="M 0 0 L 640 0 L 640 360 L 0 360 Z M 30 30 L 30 330 L 610 330 L 610 30 Z" fill="rgb(0,0,0)" opacity="0.4"/>
</g>
</svg>
