<?xml version="1.0"?>
<svg xmlns="http://www.w3.org/2000/svg" xmlns:xlink="http://www.w3.org/1999/xlink" version="1.1" width="640" height="360" viewBox="0 0 640 360">
<!-- Generated by Kreative Vexillo v1.0 -->
<style>
.black{fill:rgb(0,0,0);}
.blue{fill:rgb(12,28,140);}
.gold{fill:rgb(252,181,20);}
.green{fill:rgb(0,124,89);}
.red{fill:rgb(226,61,40);}
.white{fill:rgb(255,255,255);}
</style>
<defs>
<clipPath id="clip0">
<path d="M 0 0 L 320 180 L 0 360 Z"/>
</clipPath>
<clipPath id="clip1">
<path d="M 0 0 L 640 0 L 640 360 L 0 360 L 320 180 Z"/>
</clipPath>
<clipPath id="clip2">
<rect x="0" y="0" width="640" height="360"/>
</clipPath>
<linearGradient id="glaze" x1="0%" y1="0%" x2="100%" y2="100%">
<stop offset="0%" stop-color="rgb(255,255,255)" stop-opacity="0.2"/>
<stop offset="49.999%" stop-color="rgb(255,255,255)" stop-opacity="0.0"/>
<stop offset="50.001%" stop-color="rgb(0,0,0)" stop-opacity="0.0"/>
<stop offset="100%" stop-color="rgb(0,0,0)" stop-opacity="0.2"/>
</linearGradient>
</defs>
<g>
<g>
<rect x="0" y="0" width="640" height="180" class="red"/>
<rect x="0" y="180" width="640" height="180" class="blue"/>
</g>
<path d="M 0 0 L 320 180 L 0 360 Z" class="black"/>
<g clip-path="url(#clip0)">
<path d="M 29.4157 -52.2945 L 29.4157 -52.2945 L 349.4157 127.7055 L 290.5843 232.2945 L -29.4157 52.2945 Z" class="gold"/>
<path d="M 349.4157 232.2945 L 349.4157 232.2945 L 29.4157 412.2945 L -29.4157 307.7055 L 290.5843 127.7055 Z" class="gold"/>
</g>
<g clip-path="url(#clip1)">
<path d="M 29.4157 -52.2945 L 29.4157 -52.2945 L 349.4157 127.7055 L 290.5843 232.2945 L -29.4157 52.2945 Z" class="white"/>
<path d="M 349.4157 232.2945 L 349.4157 232.2945 L 29.4157 412.2945 L -29.4157 307.7055 L 290.5843 127.7055 Z" class="white"/>
<path d="M 320 120 L 320 120 L 640 120 L 640 240 L 320 240 Z" class="white"/>
</g>
<g clip-path="url(#clip2)">
<path d="M 17.6494 -31.3767 L 17.6494 -31.3767 L 337.6494 148.6233 L 302.3506 211.3767 L -17.6494 31.3767 Z" class="green"/>
<path d="M 337.6494 211.3767 L 337.6494 211.3767 L 17.6494 391.3767 L -17.6494 328.6233 L 302.3506 148.6233 Z" class="green"/>
<path d="M 320 144 L 320 144 L 640 144 L 640 216 L 320 216 Z" class="green"/>
</g>
</g>
<g>
<rect x="0" y="0" width="640" height="360" fill="url(#glaze)"/>
<path d="M 30 30 L 610 30 L 610 330 L 30 330 Z M 60 60 L 60 300 L 580 300 L 580 60 Z" fill="rgb(255,255,255)" opacity="0.4"/>
<path d="M 0 0 L 640 0 L 640 360 L 0 360 Z M 30 30 L 30 330 L 610 330 L 610 30 Z" fill="rgb(0,0,0)" opacity="0.4"/>
</g>
</svg>
