<?xml version="1.0"?>
<svg xmlns="http://www.w3.org/2000/svg" xmlns:xlink="http://www.w3.org/1999/xlink" version="1.1" width="576" height="360" viewBox="0 0 576 360">
<!-- Generated by Kreative Vexillo v1.0 -->
<style>
.black{fill:rgb(0,0,0);}
.red{fill:rgb(227,61,58);}
</style>
<defs>
<path id="eagle" d="M -0.1664 -0.5093 C -0.1826 -0.5093 -0.2095 -0.50409997 -0.2089 -0.4917 C -0.254 -0.4994 -0.2587 -0.4808 -0.2561 -0.4642 C -0.2518 -0.47079998 -0.2466 -0.47439998 -0.2426 -0.475 C -0.2366 -0.47599998 -0.2303 -0.475 -0.22379999 -0.4701 C -0.21739998 -0.46609998 -0.21029998 -0.45979998 -0.20709999 -0.4558 C -0.22299999 -0.452 -0.23529999 -0.4544 -0.2478 -0.4558 C -0.25399998 -0.4569 -0.2626 -0.4603 -0.2677 -0.4639 C -0.2728 -0.4675 -0.2744 -0.4709 -0.2825 -0.4791 C -0.292 -0.4888 -0.3021 -0.4861 -0.299 -0.471 C -0.2917 -0.457 -0.2795 -0.45069999 -0.2642 -0.4482 C -0.2568 -0.447 -0.2458 -0.44439998 -0.2334 -0.4443 C -0.2209 -0.4443 -0.2069 -0.4461 -0.1993 -0.4443 C -0.20390001 -0.4414 -0.209 -0.43649998 -0.2193 -0.4345 C -0.2297 -0.4325 -0.2456 -0.4407 -0.2552 -0.4429 C -0.254 -0.4348 -0.2437 -0.4272 -0.2235 -0.4232 C -0.1903 -0.416 -0.1628 -0.41050002 -0.14449999 -0.40060002 C -0.12629999 -0.3907 -0.11479999 -0.3783 -0.10659999 -0.3686 C -0.09029999 -0.3493 -0.089399986 -0.3345 -0.088399984 -0.3312 C -0.084999986 -0.3003 -0.09579998 -0.283 -0.115799986 -0.2777 C -0.12579998 -0.275 -0.14359999 -0.28010002 -0.1501 -0.2877 C -0.1566 -0.2953 -0.16289999 -0.3085 -0.1611 -0.3291 C -0.1593 -0.33720002 -0.1501 -0.3582 -0.158 -0.3625 C -0.19420001 -0.38250002 -0.23820001 -0.4027 -0.27 -0.41480002 C -0.27870002 -0.41810003 -0.2859 -0.4063 -0.2886 -0.40170002 C -0.3426 -0.4083 -0.39139998 -0.44480002 -0.4133 -0.48380002 C -0.4282 -0.51030004 -0.4529 -0.48380002 -0.4487 -0.45870003 C -0.442 -0.43070003 -0.4207 -0.41050002 -0.3952 -0.39620003 C -0.36900002 -0.38180003 -0.3362 -0.36750004 -0.303 -0.36830002 C -0.2851 -0.36490002 -0.28530002 -0.34180003 -0.3067 -0.33750004 C -0.3486 -0.33750004 -0.3821 -0.33750004 -0.41369998 -0.36870003 C -0.43769997 -0.39060003 -0.4511 -0.36450002 -0.44419998 -0.34970003 C -0.43249997 -0.30420002 -0.36749998 -0.29140005 -0.30179998 -0.30620003 C -0.27639997 -0.31040004 -0.2916 -0.28310004 -0.2988 -0.28290004 C -0.3263 -0.26320004 -0.3754 -0.24400003 -0.41869998 -0.28290004 C -0.4385 -0.29810002 -0.45189998 -0.28530005 -0.44449997 -0.26340005 C -0.42529997 -0.20630005 -0.35179996 -0.21830004 -0.30139998 -0.24640004 C -0.28839996 -0.25360003 -0.27659997 -0.23680004 -0.29239997 -0.22400004 C -0.35509998 -0.18020004 -0.38649997 -0.17970003 -0.4148 -0.19650003 C -0.4502 -0.21050003 -0.4533 -0.17120004 -0.4323 -0.15830004 C -0.4089 -0.14400004 -0.34939998 -0.15470004 -0.3057 -0.18220004 C -0.287 -0.19610004 -0.2861 -0.17440005 -0.298 -0.16570005 C -0.34980002 -0.12090005 -0.3702 -0.109100044 -0.4242 -0.11640005 C -0.451 -0.11850005 -0.4506 -0.08550005 -0.42949998 -0.07250005 C -0.40069997 -0.05490005 -0.3446 -0.08410005 -0.301 -0.120300055 C -0.2826 -0.13010006 -0.2796 -0.11400005 -0.28869998 -0.09500006 C -0.3153 -0.06140006 -0.3403 -0.04160006 -0.36439997 -0.032400057 C -0.38849998 -0.023200057 -0.41169998 -0.024700057 -0.42799997 -0.030300057 C -0.44799998 -0.037200056 -0.45049998 -0.016400058 -0.43949997 0.0024999436 C -0.43279997 0.013899944 -0.40519997 0.017499942 -0.37539998 0.0069999434 C -0.34559998 -0.0036000563 -0.31359997 -0.028300058 -0.2916 -0.05740006 C -0.27249998 -0.07410006 -0.2749 -0.05170006 -0.2836 -0.03580006 C -0.3276 0.03369994 -0.3678 0.059499938 -0.4208 0.055099938 C -0.4443 0.051099937 -0.4496 0.06939994 -0.4347 0.08619994 C -0.4084 0.107999936 -0.37550002 0.10729994 -0.34680003 0.08619994 C -0.32120004 0.06159994 -0.27230003 0.008499943 -0.24670002 -0.019900061 C -0.22860003 -0.03430006 -0.22290002 -0.019900061 -0.22820002 0.00919994 C -0.23300003 0.02599994 -0.24510002 0.04359994 -0.27800003 0.05649994 C -0.30050004 0.06929994 -0.28360003 0.08699994 -0.26670003 0.08729994 C -0.25740004 0.08729994 -0.23860003 0.07659994 -0.22420003 0.060399942 C -0.20530003 0.039099943 -0.20410003 0.024699941 -0.19370003 -0.0085000545 C -0.18380003 -0.024700055 -0.16620003 -0.017100055 -0.16620003 -2.0005461E-4 C -0.17470002 0.033099946 -0.18190002 0.038999945 -0.19900003 0.052599944 C -0.21530002 0.06789994 -0.18760003 0.07309994 -0.17830002 0.066799946 C -0.15130003 0.048599944 -0.14140002 0.024999946 -0.13240002 0.0035999492 C -0.12590002 -0.011900051 -0.10700002 -0.004400051 -0.11570002 0.02089995 C -0.13670002 0.08129995 -0.17110002 0.10499995 -0.23130003 0.11729995 C -0.23740003 0.11839995 -0.24110003 0.12199995 -0.23900002 0.12909995 C -0.23090002 0.13749994 -0.22280002 0.14509995 -0.21470003 0.15349995 C -0.25200003 0.16429995 -0.28220004 0.17039995 -0.31950003 0.18129994 C -0.33780003 0.16929995 -0.35260004 0.15909994 -0.37090003 0.14709994 C -0.37570003 0.13579994 -0.37800002 0.118599944 -0.40500003 0.13069995 C -0.42330003 0.12229995 -0.43170002 0.12539995 -0.4419 0.13379994 C -0.42720002 0.13379994 -0.42090002 0.13829994 -0.4151 0.14489993 C -0.40760002 0.16469994 -0.3903 0.16659993 -0.37260002 0.16089994 C -0.36110002 0.17059994 -0.35490003 0.17799994 -0.34340003 0.18779993 C -0.36490002 0.18779993 -0.37990004 0.18669993 -0.40130004 0.18599993 C -0.42180005 0.16399993 -0.43810004 0.16519994 -0.45280004 0.18249993 C -0.46400005 0.18419993 -0.46870005 0.18449993 -0.47630003 0.19799992 C -0.46430004 0.19309993 -0.45670003 0.19159992 -0.45150003 0.19699992 C -0.42970002 0.20959993 -0.41550004 0.20679992 -0.40470004 0.19699992 C -0.38370004 0.19829993 -0.36480004 0.19939992 -0.34380004 0.20079993 C -0.35150003 0.20739993 -0.36210003 0.21079993 -0.36980003 0.21749993 C -0.40130004 0.20849992 -0.41780004 0.22059992 -0.42330003 0.24639992 C -0.42750004 0.25679994 -0.4295 0.26749992 -0.42770004 0.27859992 C -0.42460003 0.26839992 -0.41970006 0.2596999 -0.41070005 0.25419992 C -0.38260004 0.2612999 -0.37200004 0.24989992 -0.37050006 0.23309992 C -0.35700005 0.22199993 -0.33650005 0.21959992 -0.32300007 0.20839992 C -0.30720007 0.21349992 -0.29950008 0.21659993 -0.28360006 0.22159992 C -0.27790007 0.23879993 -0.26510006 0.24559993 -0.24430007 0.24119993 C -0.21950006 0.24119993 -0.22390006 0.25209993 -0.22190008 0.26029992 C -0.21530008 0.24859992 -0.21550007 0.23729992 -0.23080008 0.22699992 C -0.23630008 0.21189992 -0.24860008 0.20509993 -0.26480007 0.21379992 C -0.28000006 0.20949993 -0.28400007 0.20329992 -0.29910007 0.19899993 C -0.26090008 0.18679993 -0.23380007 0.18409993 -0.19560006 0.17189993 C -0.18600006 0.18089993 -0.17850006 0.18739992 -0.16880006 0.19539993 C -0.16370006 0.19839993 -0.15890005 0.19919993 -0.15590006 0.19539993 C -0.13200006 0.16079992 -0.12130006 0.13019992 -0.09900007 0.107399926 C -0.090500064 0.09789993 -0.07980007 0.08519992 -0.06790007 0.08209993 C -0.061900068 0.08049993 -0.054600067 0.08209993 -0.05000007 0.08659993 C -0.04530007 0.09169993 -0.041700073 0.10109993 -0.043200072 0.114999935 C -0.045400072 0.13509993 -0.050300073 0.14139993 -0.05590007 0.15339994 C -0.061500072 0.16539994 -0.06840007 0.17279994 -0.07550007 0.18199995 C -0.08960007 0.20039995 -0.108300075 0.21119995 -0.11940007 0.21839996 C -0.14150007 0.23279996 -0.15080006 0.22649996 -0.16790007 0.22559996 C -0.19000007 0.22809996 -0.19590007 0.23879996 -0.17780007 0.25369996 C -0.16090007 0.26249996 -0.14570007 0.26359996 -0.13330007 0.26129997 C -0.122700065 0.25929996 -0.110300064 0.24559997 -0.10140006 0.23829997 C -0.091400065 0.22679996 -0.07490006 0.24039997 -0.08620006 0.25379997 C -0.10670006 0.27809998 -0.12710005 0.2941 -0.15230006 0.29379997 C -0.17880006 0.29739997 -0.17390007 0.31229997 -0.15630005 0.31949997 C -0.12460005 0.33259997 -0.09600005 0.30809996 -0.08150005 0.29199997 C -0.07030006 0.27969998 -0.062300052 0.27929997 -0.06430005 0.29819995 C -0.075400054 0.33259994 -0.09060005 0.34589994 -0.11540005 0.34759995 C -0.13550006 0.34569997 -0.13570005 0.36129996 -0.12100005 0.37179995 C -0.08750005 0.39499995 -0.06320006 0.35549995 -0.05180005 0.33159995 C -0.04370005 0.30999994 -0.03130005 0.32029995 -0.03000005 0.33809996 C -0.03000005 0.36179996 -0.04060005 0.38119996 -0.06930005 0.40549996 C -0.04730005 0.44049996 -0.021700047 0.47609997 2.9995292E-4 0.51119995 L 0.06699995 -0.23150003 L 2.9995292E-4 -0.34880003 C -0.006600047 -0.35520002 -0.030100048 -0.38290003 -0.03630005 -0.38670003 C -0.03850005 -0.38910004 -0.03990005 -0.39080003 -0.03630005 -0.39200002 C -0.03310005 -0.3932 -0.025700048 -0.39450002 -0.020700049 -0.39540002 C -0.03480005 -0.40960002 -0.04700005 -0.41410002 -0.07370005 -0.4219 C -0.06720005 -0.4247 -0.060800046 -0.4231 -0.04160005 -0.424 C -0.04920005 -0.4348 -0.06630005 -0.45139998 -0.08830005 -0.4594 C -0.07380005 -0.4697 -0.07090005 -0.4704 -0.056500047 -0.4825 C -0.081500046 -0.4843 -0.10280005 -0.489 -0.124200046 -0.4955 C -0.13780005 -0.5018 -0.15660004 -0.5072 -0.16580005 -0.5074 Z M -0.164 -0.4802 C -0.1508 -0.4802 -0.1426 -0.4757 -0.1426 -0.4702 C -0.1426 -0.4646 -0.1508 -0.4601 -0.164 -0.4601 C -0.1771 -0.4601 -0.18550001 -0.465 -0.18550001 -0.4706 C -0.18550001 -0.4761 -0.1772 -0.48020002 -0.164 -0.48020002 Z"/>
<linearGradient id="glaze" x1="0%" y1="0%" x2="100%" y2="100%">
<stop offset="0%" stop-color="rgb(255,255,255)" stop-opacity="0.2"/>
<stop offset="49.999%" stop-color="rgb(255,255,255)" stop-opacity="0.0"/>
<stop offset="50.001%" stop-color="rgb(0,0,0)" stop-opacity="0.0"/>
<stop offset="100%" stop-color="rgb(0,0,0)" stop-opacity="0.2"/>
</linearGradient>
</defs>
<g>
<rect x="0" y="0" width="576" height="360" class="red"/>
<use xlink:href="#eagle" transform="translate(288 180) scale(216 216) rotate(0)" class="black"/>
<use xlink:href="#eagle" transform="translate(288 180) scale(-216 216) rotate(0)" class="black"/>
</g>
<g>
<rect x="0" y="0" width="576" height="360" fill="url(#glaze)"/>
<path d="M 30 30 L 546 30 L 546 330 L 30 330 Z M 60 60 L 60 300 L 516 300 L 516 60 Z" fill="rgb(255,255,255)" opacity="0.4"/>
<path d="M 0 0 L 576 0 L 576 360 L 0 360 Z M 30 30 L 30 330 L 546 330 L 546 30 Z" fill="rgb(0,0,0)" opacity="0.4"/>
</g>
</svg>
