<?xml version="1.0"?>
<svg xmlns="http://www.w3.org/2000/svg" xmlns:xlink="http://www.w3.org/1999/xlink" version="1.1" width="576" height="360" viewBox="0 0 576 360">
<!-- Generated by Kreative Vexillo v1.0 -->
<style>
.blue{fill:rgb(7,43,95);}
.white{fill:rgb(255,255,255);}
</style>
<defs>
<path id="aq" d="M 0.5483 0.1626 L 0.546 0.1616 L 0.5483 0.1626 Z M 0.6151 0.82339996 L 0.6061 0.8181 L 0.5794 0.82479995 L 0.556 0.81009996 L 0.556 0.81579995 L 0.5503 0.8080999 L 0.557 0.80139995 L 0.556 0.78139997 L 0.5637 0.78139997 L 0.5684 0.76809996 L 0.5737 0.76579994 L 0.5694 0.75909996 L 0.5761 0.75679994 L 0.5751 0.74679995 L 0.5684 0.74349993 L 0.57710004 0.74249995 L 0.57180005 0.71809995 L 0.55840003 0.70479995 L 0.5504 0.70809996 L 0.55370003 0.71909994 L 0.526 0.71909994 L 0.5026 0.70909995 L 0.4936 0.70479995 L 0.4492 0.69479996 L 0.4459 0.70009995 L 0.43019998 0.7013999 L 0.42589998 0.7013999 L 0.41919997 0.7123999 L 0.40019998 0.6990999 L 0.3902 0.7023999 L 0.3915 0.7113999 L 0.3668 0.6980999 L 0.36580002 0.7067999 L 0.34140003 0.69579995 L 0.34010002 0.69679993 L 0.32810003 0.70149994 L 0.32580003 0.69249994 L 0.29670003 0.67819995 L 0.26560003 0.66819996 L 0.25990003 0.6425 L 0.25990003 0.6368 L 0.24790004 0.6148 L 0.25320002 0.58809996 L 0.24320002 0.58479995 L 0.23990002 0.5734999 L 0.25660002 0.57149994 L 0.24890003 0.57149994 L 0.24990003 0.5547999 L 0.22550003 0.56249994 L 0.22450003 0.55579996 L 0.22120003 0.5681 L 0.20780003 0.57339996 L 0.19880003 0.56469995 L 0.19550003 0.55569994 L 0.19220003 0.5379999 L 0.19990003 0.53229994 L 0.20320003 0.53659993 L 0.20550002 0.53129995 L 0.19980001 0.49129996 L 0.20880002 0.49329996 L 0.21310002 0.45129997 L 0.21440002 0.44999996 L 0.22310002 0.44469997 L 0.21210003 0.44569996 L 0.20780003 0.43569997 L 0.22780003 0.41329998 L 0.20980003 0.40999997 L 0.19640003 0.42329997 L 0.19110003 0.40789998 L 0.18310003 0.41889998 L 0.18110003 0.4112 L 0.17110002 0.4145 L 0.16440003 0.4178 L 0.16970003 0.3978 L 0.16540003 0.3955 L 0.16770002 0.3898 L 0.16200002 0.39110002 L 0.16100001 0.37980002 L 0.18200001 0.37980002 L 0.18100001 0.37450004 L 0.17430001 0.37450004 L 0.16190001 0.35310003 L 0.15520002 0.35540003 L 0.15090002 0.34770003 L 0.14860003 0.35440004 L 0.14190003 0.34970003 L 0.14860003 0.34540004 L 0.13860002 0.34210002 L 0.14090002 0.33640003 L 0.13290001 0.33210003 L 0.13090001 0.31440005 L 0.12290001 0.31210005 L 0.12760001 0.30880004 L 0.11860001 0.28540003 L 0.11960001 0.27770004 L 0.12290001 0.25430003 L 0.1296 0.25430003 L 0.1276 0.26860002 L 0.1443 0.29200003 L 0.1563 0.30770004 L 0.181 0.31440005 L 0.181 0.31540003 L 0.18429999 0.30970004 L 0.1977 0.32540005 L 0.20439999 0.33310005 L 0.20769998 0.33640006 L 0.24539998 0.35440007 L 0.2521 0.35770008 L 0.25439999 0.35970008 L 0.27209997 0.3811001 L 0.28209996 0.37640008 L 0.35559997 0.35970008 L 0.35789996 0.34640008 L 0.36319995 0.34870008 L 0.36219996 0.34440008 L 0.36549997 0.34210008 L 0.3812 0.3364001 L 0.3812 0.3210001 L 0.38649997 0.3153001 L 0.39319998 0.2896001 L 0.38989997 0.2796001 L 0.40559998 0.24190012 L 0.40559998 0.23620011 L 0.40559998 0.21850011 L 0.41329998 0.21850011 L 0.42229998 0.2052001 L 0.4333 0.20190011 L 0.4346 0.18960011 L 0.45 0.1709001 L 0.4567 0.1742001 L 0.4881 0.1629001 L 0.4914 0.15960011 L 0.4981 0.15290011 L 0.49580002 0.14190012 L 0.5025 0.14190012 L 0.5058 0.15960012 L 0.5402 0.16760013 L 0.5459 0.16190012 L 0.5482 0.16290012 L 0.5783 0.16960011 L 0.5793 0.16860011 L 0.59499997 0.15960011 L 0.59599996 0.16960011 L 0.6094 0.17090012 L 0.62039995 0.17960012 L 0.6227 0.18190011 L 0.6394 0.19620012 L 0.6594 0.19750012 L 0.67179996 0.19950013 L 0.68719995 0.19420013 L 0.6884999 0.20420013 L 0.6951999 0.20850013 L 0.7004999 0.19850013 L 0.7071999 0.19850013 L 0.7118999 0.22420013 L 0.71719986 0.22520013 L 0.7161999 0.23420013 L 0.7151999 0.23520014 L 0.71719986 0.23520014 L 0.7305999 0.22850014 L 0.74299985 0.22420014 L 0.77739984 0.23620014 L 0.7840998 0.23420013 L 0.78639984 0.24620013 L 0.79539984 0.24750014 L 0.7930998 0.24180013 L 0.80079985 0.24180013 L 0.8030999 0.25410014 L 0.8120999 0.24410014 L 0.8330999 0.25740013 L 0.8387999 0.28180012 L 0.8297999 0.28410012 L 0.8320999 0.30280012 L 0.8353999 0.3085001 L 0.85879993 0.3676001 L 0.84639996 0.37860012 L 0.8454 0.39190012 L 0.8354 0.40420014 L 0.84639996 0.41190013 L 0.84209996 0.41520014 L 0.85209996 0.42520013 L 0.86749995 0.42750013 L 0.87219995 0.43420014 L 0.87649995 0.44290015 L 0.8874999 0.44760016 L 0.90089995 0.43860015 L 0.90989995 0.43960014 L 0.8989 0.45530015 L 0.90989995 0.48430014 L 0.89649993 0.49530014 L 0.9021999 0.51300013 L 0.8988999 0.5287001 L 0.9055999 0.5377001 L 0.9232999 0.5410001 L 0.9055999 0.5654001 L 0.9088999 0.5697001 L 0.9131999 0.5744001 L 0.9054999 0.58640015 L 0.9131999 0.59110016 L 0.8740999 0.62310016 L 0.8830999 0.6455002 L 0.8807999 0.6588002 L 0.8673999 0.6631002 L 0.86409986 0.6744002 L 0.84869987 0.6811002 L 0.84399986 0.6954002 L 0.84069985 0.7031002 L 0.85639983 0.7111002 L 0.8329998 0.7131002 L 0.8386998 0.7254002 L 0.82729983 0.7364002 L 0.8095998 0.7397002 L 0.8038998 0.7497002 L 0.81729984 0.75640017 L 0.79189986 0.7798002 L 0.7995999 0.7921002 L 0.7795999 0.7878002 L 0.7571999 0.8011002 L 0.7270999 0.8154002 L 0.7203999 0.8254002 L 0.7160999 0.82210016 L 0.7203999 0.8121002 L 0.70039994 0.8198002 L 0.69609994 0.8121002 L 0.66599995 0.8298002 L 0.65259993 0.8255002 L 0.62819993 0.8298002 L 0.62149996 0.8265002 M 0.62249994 0.18140018 L 0.6201999 0.17910019 L 0.61919993 0.17910019 L 0.61919993 0.1804002 L 0.62149996 0.1804002 L 0.62249994 0.1814002 L 0.62249994 0.1814002 Z M 0.6147999 0.8231002 L 0.6214999 0.8264002 L 0.6147999 0.8231002 Z M 0.6147999 0.8231002 L 0.6214999 0.8264002 M 0.1462 0.3642 L 0.14750001 0.3562 L 0.1351 0.3485 L 0.14610001 0.36420003 L 0.14610001 0.36420003 Z M 0.119500004 0.3028 L 0.1128 0.3028 L 0.1161 0.3128 L 0.119399995 0.30409998 L 0.119399995 0.30279997 L 0.119399995 0.30279997 Z M 0.1162 0.2928 L 0.112900004 0.29610002 L 0.119600005 0.30080003 L 0.1163 0.29280004 Z M 0.1463 0.3642 L 0.14760001 0.3562 L 0.13520001 0.3485 L 0.1462 0.36420003 L 0.1462 0.36420003 Z M 0.119600005 0.3028 L 0.112900004 0.3028 L 0.1162 0.3128 L 0.1195 0.30409998 L 0.1195 0.30279997 L 0.1195 0.30279997 Z M 0.1163 0.2928 L 0.113000005 0.29610002 L 0.11970001 0.30080003 L 0.1164 0.29280004 Z M 0.1464 0.3642 L 0.14770001 0.3562 L 0.13530001 0.3485 L 0.14630002 0.36420003 L 0.14630002 0.36420003 Z M 0.11970001 0.3028 L 0.113000005 0.3028 L 0.1163 0.3128 L 0.1196 0.30409998 L 0.1196 0.30279997 L 0.1196 0.30279997 Z M 0.1164 0.2928 L 0.11310001 0.29610002 L 0.11980001 0.30080003 L 0.116500005 0.29280004 Z M 0.1364 0.2694 L 0.1364 0.2607 L 0.1287 0.2627 L 0.1297 0.26839998 L 0.1364 0.26939997 L 0.1364 0.26939997 Z M 0.1277 0.245 L 0.1297 0.2493 L 0.13440001 0.2393 L 0.12770002 0.244 L 0.12770002 0.245 L 0.12770002 0.245 Z M 0.1364 0.2694 L 0.1364 0.2607 L 0.1287 0.2627 L 0.1297 0.26839998 L 0.1364 0.26939997 L 0.1364 0.26939997 Z M 0.1277 0.245 L 0.1297 0.2493 L 0.13440001 0.2393 L 0.12770002 0.244 L 0.12770002 0.245 L 0.12770002 0.245 Z M 0.1364 0.2694 L 0.1364 0.2607 L 0.1287 0.2627 L 0.1297 0.26839998 L 0.1364 0.26939997 L 0.1364 0.26939997 Z M 0.1277 0.245 L 0.1297 0.2493 L 0.13440001 0.2393 L 0.12770002 0.244 L 0.12770002 0.245 L 0.12770002 0.245 Z M 0.2466 0.5854 L 0.2389 0.5864 L 0.23220001 0.5954 L 0.2432 0.59309995 L 0.2465 0.5853999 L 0.2465 0.5853999 Z M 0.2466 0.5854 L 0.2389 0.5864 L 0.23220001 0.5954 L 0.2432 0.59309995 L 0.2465 0.5853999 L 0.2465 0.5853999 Z M 0.2466 0.5854 L 0.2389 0.5864 L 0.23220001 0.5954 L 0.2432 0.59309995 L 0.2465 0.5853999 L 0.2465 0.5853999 Z M 0.2546 0.3595 L 0.2523 0.3575 L 0.2456 0.35419998 L 0.2523 0.3575 L 0.2546 0.3595 Z"/>
<path id="disc" d="M 0.5 0.0 A 0.5 0.5 0.0 0 0 -0.5 0.0 A 0.5 0.5 0.0 0 0 0.5 0.0 Z"/>
<clipPath id="clip0">
<rect x="0" y="0" width="576" height="360"/>
</clipPath>
<clipPath id="clip1">
<use xlink:href="#aq" transform="translate(108 0) scale(360 360) rotate(0)"/>
</clipPath>
<linearGradient id="glaze" x1="0%" y1="0%" x2="100%" y2="100%">
<stop offset="0%" stop-color="rgb(255,255,255)" stop-opacity="0.2"/>
<stop offset="49.999%" stop-color="rgb(255,255,255)" stop-opacity="0.0"/>
<stop offset="50.001%" stop-color="rgb(0,0,0)" stop-opacity="0.0"/>
<stop offset="100%" stop-color="rgb(0,0,0)" stop-opacity="0.2"/>
</linearGradient>
</defs>
<g>
<g clip-path="url(#clip0)">
<rect x="0" y="0" width="576" height="360" class="blue"/>
<use xlink:href="#disc" transform="translate(288 180) scale(360 360) rotate(0)" class="white"/>
<use xlink:href="#disc" transform="translate(288 180) scale(354.6 354.6) rotate(0)" class="blue"/>
<use xlink:href="#disc" transform="translate(288 180) scale(252 252) rotate(0)" class="white"/>
<use xlink:href="#disc" transform="translate(288 180) scale(246.6 246.6) rotate(0)" class="blue"/>
<use xlink:href="#disc" transform="translate(288 180) scale(136.8 136.8) rotate(0)" class="white"/>
<use xlink:href="#disc" transform="translate(288 180) scale(131.4 131.4) rotate(0)" class="blue"/>
<g>
<path d="M 286.65 -396 L 286.65 756 L 289.35 756 L 289.35 -396 L 286.65 -396 Z" class="white"/>
<path d="M -1.1695 -318.1562 L 574.8305 679.505 L 577.1695 678.1563 L 1.1695 -319.505 L -1.1695 -318.1562 Z" class="white"/>
<path d="M -211.505 -106.8305 L 786.1563 469.1695 L 787.505 466.8305 L -210.1562 -109.1695 L -211.505 -106.8305 Z" class="white"/>
<path d="M -288 181.35 L 864 181.35 L 864 178.65 L -288 178.65 L -288 181.35 Z" class="white"/>
<path d="M -210.1562 469.1695 L 787.505 -106.8305 L 786.1563 -109.1695 L -211.505 466.8305 L -210.1562 469.1695 Z" class="white"/>
<path d="M 1.1695 679.505 L 577.1695 -318.1562 L 574.8305 -319.505 L -1.1695 678.1563 L 1.1695 679.505 Z" class="white"/>
</g>
</g>
<g clip-path="url(#clip1)">
<rect x="0" y="0" width="576" height="360" class="white"/>
<use xlink:href="#disc" transform="translate(288 180) scale(360 360) rotate(0)" class="blue"/>
<use xlink:href="#disc" transform="translate(288 180) scale(354.6 354.6) rotate(0)" class="white"/>
<use xlink:href="#disc" transform="translate(288 180) scale(252 252) rotate(0)" class="blue"/>
<use xlink:href="#disc" transform="translate(288 180) scale(246.6 246.6) rotate(0)" class="white"/>
<use xlink:href="#disc" transform="translate(288 180) scale(136.8 136.8) rotate(0)" class="blue"/>
<use xlink:href="#disc" transform="translate(288 180) scale(131.4 131.4) rotate(0)" class="white"/>
<g>
<path d="M 286.65 -396 L 286.65 756 L 289.35 756 L 289.35 -396 L 286.65 -396 Z" class="blue"/>
<path d="M -1.1695 -318.1562 L 574.8305 679.505 L 577.1695 678.1563 L 1.1695 -319.505 L -1.1695 -318.1562 Z" class="blue"/>
<path d="M -211.505 -106.8305 L 786.1563 469.1695 L 787.505 466.8305 L -210.1562 -109.1695 L -211.505 -106.8305 Z" class="blue"/>
<path d="M -288 181.35 L 864 181.35 L 864 178.65 L -288 178.65 L -288 181.35 Z" class="blue"/>
<path d="M -210.1562 469.1695 L 787.505 -106.8305 L 786.1563 -109.1695 L -211.505 466.8305 L -210.1562 469.1695 Z" class="blue"/>
<path d="M 1.1695 679.505 L 577.1695 -318.1562 L 574.8305 -319.505 L -1.1695 678.1563 L 1.1695 679.505 Z" class="blue"/>
</g>
</g>
</g>
<g>
<rect x="0" y="0" width="576" height="360" fill="url(#glaze)"/>
<path d="M 30 30 L 546 30 L 546 330 L 30 330 Z M 60 60 L 60 300 L 516 300 L 516 60 Z" fill="rgb(255,255,255)" opacity="0.4"/>
<path d="M 0 0 L 576 0 L 576 360 L 0 360 Z M 30 30 L 30 330 L 546 330 L 546 30 Z" fill="rgb(0,0,0)" opacity="0.4"/>
</g>
</svg>
