<?xml version="1.0"?>
<svg xmlns="http://www.w3.org/2000/svg" xmlns:xlink="http://www.w3.org/1999/xlink" version="1.1" width="576" height="360" viewBox="0 0 576 360">
<!-- Generated by Kreative Vexillo v1.0 -->
<style>
.blue{fill:rgb(80,145,205);}
.red{fill:rgb(227,24,55);}
.white{fill:rgb(255,255,255);}
.yellow{fill:rgb(255,229,18);}
</style>
<defs>
<path id="star4" d="M 0.0 -1.0 L 0.2357 -0.2357 L 1.0 0.0 L 0.2357 0.2357 L 0.0 1.0 L -0.2357 0.2357 L -1.0 0.0 L -0.2357 -0.2357 Z"/>
<linearGradient id="glaze" x1="0%" y1="0%" x2="100%" y2="100%">
<stop offset="0%" stop-color="rgb(255,255,255)" stop-opacity="0.2"/>
<stop offset="49.999%" stop-color="rgb(255,255,255)" stop-opacity="0.0"/>
<stop offset="50.001%" stop-color="rgb(0,0,0)" stop-opacity="0.0"/>
<stop offset="100%" stop-color="rgb(0,0,0)" stop-opacity="0.2"/>
</linearGradient>
</defs>
<g>
<g>
<rect x="0" y="0" width="576" height="240" class="blue"/>
<rect x="0" y="240" width="576" height="20" class="yellow"/>
<rect x="0" y="260" width="576" height="20" class="blue"/>
<rect x="0" y="280" width="576" height="20" class="yellow"/>
<rect x="0" y="300" width="576" height="60" class="blue"/>
</g>
<use xlink:href="#star4" transform="translate(80 80) scale(60 60) rotate(0)" class="white"/>
<use xlink:href="#star4" transform="translate(80 80) scale(50 50) rotate(0)" class="red"/>
</g>
<g>
<rect x="0" y="0" width="576" height="360" fill="url(#glaze)"/>
<path d="M 30 30 L 546 30 L 546 330 L 30 330 Z M 60 60 L 60 300 L 516 300 L 516 60 Z" fill="rgb(255,255,255)" opacity="0.4"/>
<path d="M 0 0 L 576 0 L 576 360 L 0 360 Z M 30 30 L 30 330 L 546 330 L 546 30 Z" fill="rgb(0,0,0)" opacity="0.4"/>
</g>
</svg>
