<?xml version="1.0"?>
<svg xmlns="http://www.w3.org/2000/svg" xmlns:xlink="http://www.w3.org/1999/xlink" version="1.1" width="576" height="360" viewBox="0 0 576 360">
<!-- Generated by Kreative Vexillo v1.0 -->
<style>
.blue{fill:rgb(1,42,135);}
.green{fill:rgb(0,136,48);}
.red{fill:rgb(220,23,29);}
.white{fill:rgb(255,255,255);}
.yellow{fill:rgb(249,217,15);}
</style>
<defs>
<path id="island" d="M -0.2809 0.0614 C -0.2764 0.0467 -0.2665 0.0401 -0.2532 0.0431 C -0.245 0.0119 -0.207 0.0063 -0.1919 0.0217 L -0.1548 0.059 C -0.1467 0.0627 -0.1344 0.0641 -0.1259 0.0641 C -0.1154 0.0643 -0.1165 0.0691 -0.1077 0.0693 C -0.0842 0.0697 -0.0225 0.07 -0.0113 0.0693 C -0.0067 0.069 0.0956 -0.0438 0.0956 -0.0438 C 0.1041 -0.0543 0.1263 -0.0577 0.1385 -0.0492 C 0.1498 -0.0385 0.1617 -0.0373 0.17 -0.0444 C 0.1773 -0.0553 0.194 -0.0566 0.2045 -0.0504 L 0.3203 0.0393 L 0.1642 0.1267 H -0.1643 L -0.2809 0.0614 Z"/>
<path id="star" d="M 0.0 -1.0 L 0.2245 -0.309 L 0.9511 -0.309 L 0.3633 0.118 L 0.5878 0.809 L 0.0 0.382 L -0.5878 0.809 L -0.3633 0.118 L -0.9511 -0.309 L -0.2245 -0.309 Z"/>
<linearGradient id="glaze" x1="0%" y1="0%" x2="100%" y2="100%">
<stop offset="0%" stop-color="rgb(255,255,255)" stop-opacity="0.2"/>
<stop offset="49.999%" stop-color="rgb(255,255,255)" stop-opacity="0.0"/>
<stop offset="50.001%" stop-color="rgb(0,0,0)" stop-opacity="0.0"/>
<stop offset="100%" stop-color="rgb(0,0,0)" stop-opacity="0.2"/>
</linearGradient>
</defs>
<g>
<rect x="0" y="0" width="576" height="360" class="red"/>
<rect x="14.4" y="14.4" width="547.2" height="331.2" class="blue"/>
<g>
<rect x="0" y="172.8" width="576" height="14.4" class="red"/>
<rect x="280.8" y="0" width="14.4" height="360" class="red"/>
</g>
<path d="M 134.208 180 L 288 93.6 L 441.792 180 L 288 266.4 Z" class="white"/>
<use xlink:href="#star" transform="translate(288 141.12) scale(21.6 21.6) rotate(0)" class="yellow"/>
<use xlink:href="#island" transform="translate(288 180) scale(360 360) rotate(0)" class="green"/>
<path d="M 291.5265 99.8772 L 291.5265 99.8772 L 137.7345 186.2772 L 130.6815 173.7228 L 284.4735 87.3228 Z" class="red"/>
<path d="M 291.5265 87.3228 L 291.5265 87.3228 L 445.3185 173.7228 L 438.2655 186.2772 L 284.4735 99.8772 Z" class="red"/>
<path d="M 284.4735 272.6772 L 284.4735 272.6772 L 130.6815 186.2772 L 137.7345 173.7228 L 291.5265 260.1228 Z" class="red"/>
<path d="M 284.4735 260.1228 L 284.4735 260.1228 L 438.2655 173.7228 L 445.3185 186.2772 L 291.5265 272.6772 Z" class="red"/>
</g>
<g>
<rect x="0" y="0" width="576" height="360" fill="url(#glaze)"/>
<path d="M 30 30 L 546 30 L 546 330 L 30 330 Z M 60 60 L 60 300 L 516 300 L 516 60 Z" fill="rgb(255,255,255)" opacity="0.4"/>
<path d="M 0 0 L 576 0 L 576 360 L 0 360 Z M 30 30 L 30 330 L 546 330 L 546 30 Z" fill="rgb(0,0,0)" opacity="0.4"/>
</g>
</svg>
