<?xml version="1.0"?>
<svg xmlns="http://www.w3.org/2000/svg" xmlns:xlink="http://www.w3.org/1999/xlink" version="1.1" width="576" height="360" viewBox="0 0 576 360">
<!-- Generated by Kreative Vexillo v1.0 -->
<style>
.blue{fill:rgb(0,56,101);}
.red{fill:rgb(186,12,47);}
.white{fill:rgb(255,255,255);}
.yellow{fill:rgb(255,164,0);}
</style>
<defs>
<clipPath id="clip0">
<path d="M 249.4153 15 L 557.3333 15 L 249.4153 145.359 Z"/>
</clipPath>
<clipPath id="clip1">
<path d="M 249.4153 345 L 557.3333 345 L 249.4153 214.641 Z"/>
</clipPath>
<clipPath id="clip2">
<path d="M 249.4153 164.604 L 474.6667 164.604 L 528 180 L 474.6667 195.396 L 249.4153 195.396 L 270.7486 180 Z"/>
</clipPath>
<linearGradient id="glaze" x1="0%" y1="0%" x2="100%" y2="100%">
<stop offset="0%" stop-color="rgb(255,255,255)" stop-opacity="0.2"/>
<stop offset="49.999%" stop-color="rgb(255,255,255)" stop-opacity="0.0"/>
<stop offset="50.001%" stop-color="rgb(0,0,0)" stop-opacity="0.0"/>
<stop offset="100%" stop-color="rgb(0,0,0)" stop-opacity="0.2"/>
</linearGradient>
</defs>
<g>
<rect x="0" y="0" width="576" height="360" class="white"/>
<rect x="21.3333" y="15" width="201.4153" height="330" class="blue"/>
<path d="M 7.8027 -10.8118 L 7.8027 -10.8118 L 257.218 169.1882 L 241.6126 190.8118 L -7.8027 10.8118 Z" class="white"/>
<path d="M -7.8027 349.1882 L -7.8027 349.1882 L 241.6126 169.1882 L 257.218 190.8118 L 7.8027 370.8118 Z" class="white"/>
<path d="M 0 166.6667 L 0 166.6667 L 249.4153 166.6667 L 249.4153 193.3333 L 0 193.3333 Z" class="white"/>
<g clip-path="url(#clip0)">
<path d="M 249.4153 0 L 249.4153 0 L 557.3333 0 L 557.3333 30 L 249.4153 30 Z" class="red"/>
<path d="M 563.1812 28.8131 L 563.1812 28.8131 L 255.2632 159.1721 L 243.5674 131.5459 L 551.4854 1.1869 Z" class="red"/>
<path d="M 234.4153 145.359 L 234.4153 145.359 L 234.4153 15 L 264.4153 15 L 264.4153 145.359 Z" class="red"/>
</g>
<g clip-path="url(#clip1)">
<path d="M 249.4153 330 L 249.4153 330 L 557.3333 330 L 557.3333 360 L 249.4153 360 Z" class="red"/>
<path d="M 551.4854 358.8131 L 551.4854 358.8131 L 243.5674 228.4541 L 255.2632 200.8279 L 563.1812 331.1869 Z" class="red"/>
<path d="M 264.4153 214.641 L 264.4153 214.641 L 264.4153 345 L 234.4153 345 L 234.4153 214.641 Z" class="red"/>
</g>
<path d="M 249.4153 164.604 L 474.6667 164.604 L 528 180 L 474.6667 195.396 L 249.4153 195.396 L 270.7486 180 Z" class="yellow"/>
<g clip-path="url(#clip2)">
<path d="M 249.4153 157.9373 L 249.4153 157.9373 L 474.6667 157.9373 L 474.6667 171.2707 L 249.4153 171.2707 Z" class="red"/>
<path d="M 476.5157 158.1989 L 476.5157 158.1989 L 529.849 173.5949 L 526.151 186.4051 L 472.8177 171.0091 Z" class="red"/>
<path d="M 529.849 186.4051 L 529.849 186.4051 L 476.5157 201.8011 L 472.8177 188.9909 L 526.151 173.5949 Z" class="red"/>
<path d="M 474.6667 202.0627 L 474.6667 202.0627 L 249.4153 202.0627 L 249.4153 188.7293 L 474.6667 188.7293 Z" class="red"/>
<path d="M 249.4153 164.604 L 260.8073 164.604 L 282.1407 180 L 260.8073 195.396 L 249.4153 195.396 Z" class="red"/>
</g>
</g>
<g>
<rect x="0" y="0" width="576" height="360" fill="url(#glaze)"/>
<path d="M 30 30 L 546 30 L 546 330 L 30 330 Z M 60 60 L 60 300 L 516 300 L 516 60 Z" fill="rgb(255,255,255)" opacity="0.4"/>
<path d="M 0 0 L 576 0 L 576 360 L 0 360 Z M 30 30 L 30 330 L 546 330 L 546 30 Z" fill="rgb(0,0,0)" opacity="0.4"/>
</g>
</svg>
