<?xml version="1.0"?>
<svg xmlns="http://www.w3.org/2000/svg" xmlns:xlink="http://www.w3.org/1999/xlink" version="1.1" width="576" height="360" viewBox="0 0 576 360">
<!-- Generated by Kreative Vexillo v1.0 -->
<style>
.blue{fill:rgb(0,62,126);}
.red{fill:rgb(239,65,53);}
.white{fill:rgb(255,255,255);}
</style>
<defs>
<path id="star" d="M 0.0 -1.0 L 0.2245 -0.309 L 0.9511 -0.309 L 0.3633 0.118 L 0.5878 0.809 L 0.0 0.382 L -0.5878 0.809 L -0.3633 0.118 L -0.9511 -0.309 L -0.2245 -0.309 Z"/>
<clipPath id="clip0">
<path d="M 0 0 L 0 14.151 L 0 14.151 L 121.3584 90 L 0 165.849 L 0 165.849 L 0 180 L 22.6416 180 L 144 104.151 L 265.3585 180 L 288 180 L 288 165.849 L 166.6416 90 L 288 14.151 L 288 0 L 265.3585 0 L 144 75.849 L 22.6416 0 Z"/>
</clipPath>
<linearGradient id="glaze" x1="0%" y1="0%" x2="100%" y2="100%">
<stop offset="0%" stop-color="rgb(255,255,255)" stop-opacity="0.2"/>
<stop offset="49.999%" stop-color="rgb(255,255,255)" stop-opacity="0.0"/>
<stop offset="50.001%" stop-color="rgb(0,0,0)" stop-opacity="0.0"/>
<stop offset="100%" stop-color="rgb(0,0,0)" stop-opacity="0.2"/>
</linearGradient>
</defs>
<g>
<rect x="0" y="0" width="576" height="360" class="blue"/>
<g>
<path d="M 0 0 L 0 21.2265 L 0 21.2265 L 110.0377 90 L 110.0377 90 L 0 158.7735 L 0 158.7735 L 0 180 L 33.9623 180 L 144 111.2265 L 144 111.2265 L 144 111.2265 L 144 111.2265 L 254.0377 180 L 288 180 L 288 158.7735 L 177.9623 90 L 288 21.2265 L 288 0 L 254.0377 0 L 144 68.7735 L 33.9623 0 Z" class="white"/>
<g clip-path="url(#clip0)">
<path d="M 0 0 L 144 90 L 0 90 Z" class="red"/>
<path d="M 288 0 L 144 90 L 144 0 Z" class="red"/>
<path d="M 0 180 L 144 90 L 144 180 Z" class="red"/>
<path d="M 288 180 L 144 90 L 288 90 Z" class="red"/>
</g>
<g>
<rect x="0" y="60" width="288" height="60" class="white"/>
<rect x="114" y="0" width="60" height="180" class="white"/>
</g>
<g>
<rect x="0" y="72" width="288" height="36" class="red"/>
<rect x="126" y="0" width="36" height="180" class="red"/>
</g>
</g>
<g>
<use xlink:href="#star" transform="translate(432 82.08) scale(21.6 21.6) rotate(0)" class="white"/>
<use xlink:href="#star" transform="translate(471.8277 90.5456) scale(21.6 21.6) rotate(24)" class="white"/>
<use xlink:href="#star" transform="translate(504.7687 114.4787) scale(21.6 21.6) rotate(48)" class="white"/>
<use xlink:href="#star" transform="translate(525.1275 149.7411) scale(21.6 21.6) rotate(72)" class="white"/>
<use xlink:href="#star" transform="translate(529.3836 190.2354) scale(21.6 21.6) rotate(96)" class="white"/>
<use xlink:href="#star" transform="translate(516.8012 228.96) scale(21.6 21.6) rotate(120)" class="white"/>
<use xlink:href="#star" transform="translate(489.5559 259.2189) scale(21.6 21.6) rotate(144)" class="white"/>
<use xlink:href="#star" transform="translate(452.3587 275.7802) scale(21.6 21.6) rotate(168)" class="white"/>
<use xlink:href="#star" transform="translate(411.6413 275.7802) scale(21.6 21.6) rotate(192)" class="white"/>
<use xlink:href="#star" transform="translate(374.4441 259.2189) scale(21.6 21.6) rotate(216)" class="white"/>
<use xlink:href="#star" transform="translate(347.1988 228.96) scale(21.6 21.6) rotate(240)" class="white"/>
<use xlink:href="#star" transform="translate(334.6164 190.2354) scale(21.6 21.6) rotate(264)" class="white"/>
<use xlink:href="#star" transform="translate(338.8725 149.7411) scale(21.6 21.6) rotate(288)" class="white"/>
<use xlink:href="#star" transform="translate(359.2313 114.4787) scale(21.6 21.6) rotate(312)" class="white"/>
<use xlink:href="#star" transform="translate(392.1723 90.5456) scale(21.6 21.6) rotate(336)" class="white"/>
</g>
</g>
<g>
<rect x="0" y="0" width="576" height="360" fill="url(#glaze)"/>
<path d="M 30 30 L 546 30 L 546 330 L 30 330 Z M 60 60 L 60 300 L 516 300 L 516 60 Z" fill="rgb(255,255,255)" opacity="0.4"/>
<path d="M 0 0 L 576 0 L 576 360 L 0 360 Z M 30 30 L 30 330 L 546 330 L 546 30 Z" fill="rgb(0,0,0)" opacity="0.4"/>
</g>
</svg>
