<?xml version="1.0"?>
<svg xmlns="http://www.w3.org/2000/svg" xmlns:xlink="http://www.w3.org/1999/xlink" version="1.1" width="576" height="360" viewBox="0 0 576 360">
<!-- Generated by Kreative Vexillo v1.0 -->
<style>
.green{fill:rgb(0,155,72);}
.red{fill:rgb(213,43,30);}
.white{fill:rgb(255,255,255);}
</style>
<defs>
<linearGradient id="glaze" x1="0%" y1="0%" x2="100%" y2="100%">
<stop offset="0%" stop-color="rgb(255,255,255)" stop-opacity="0.2"/>
<stop offset="49.999%" stop-color="rgb(255,255,255)" stop-opacity="0.0"/>
<stop offset="50.001%" stop-color="rgb(0,0,0)" stop-opacity="0.0"/>
<stop offset="100%" stop-color="rgb(0,0,0)" stop-opacity="0.2"/>
</linearGradient>
</defs>
<g>
<rect x="0" y="0" width="576" height="360" class="red"/>
<path d="M 0 0 L 0 32.5978 L 235.8436 180 L 235.8436 180 L 0 327.4022 L 0 327.4022 L 0 360 L 52.1564 360 L 288 212.5978 L 288 212.5978 L 523.8435 360 L 576 360 L 576 327.4022 L 340.1564 180 L 576 32.5978 L 576 0 L 523.8436 0 L 288 147.4022 L 288 147.4022 L 52.1564 0 Z" class="green"/>
<g>
<rect x="0" y="152.3571" width="576" height="55.2857" class="white"/>
<rect x="260.3571" y="0" width="55.2857" height="360" class="white"/>
</g>
</g>
<g>
<rect x="0" y="0" width="576" height="360" fill="url(#glaze)"/>
<path d="M 30 30 L 546 30 L 546 330 L 30 330 Z M 60 60 L 60 300 L 516 300 L 516 60 Z" fill="rgb(255,255,255)" opacity="0.4"/>
<path d="M 0 0 L 576 0 L 576 360 L 0 360 Z M 30 30 L 30 330 L 546 330 L 546 30 Z" fill="rgb(0,0,0)" opacity="0.4"/>
</g>
</svg>
