<?xml version="1.0"?>
<svg xmlns="http://www.w3.org/2000/svg" xmlns:xlink="http://www.w3.org/1999/xlink" version="1.1" width="576" height="360" viewBox="0 0 576 360">
<!-- Generated by Kreative Vexillo v1.0 -->
<style>
.blue{fill:rgb(0,106,169);}
.white{fill:rgb(255,255,255);}
</style>
<defs>
<path id="s" d="M 0.0 0.3784 C -0.2086 0.3784 -0.3784 0.2087 -0.3784 0.0 S -0.2086 -0.3784 0.0 -0.3784 S 0.3784 -0.2087 0.3784 0.0 S 0.2086 0.3784 0.0 0.3784 Z M 0.0 -0.3514 C -0.1937 -0.3514 -0.3514 -0.19379999 -0.3514 0.0 C -0.3514 0.1937 -0.19379999 0.3514 0.0 0.3514 C 0.1937 0.3514 0.3514 0.19379999 0.3514 0.0 C 0.3514 -0.1937 0.1937 -0.3514 0.0 -0.3514 Z M 0.2138 -0.1649 C 0.1952 -0.25480002 0.1244 -0.31059998 0.024499997 -0.3232 L 0.0 -0.3263 V -0.1081 C -0.0597 -0.1081 -0.1081 -0.059699997 -0.1081 0.0 H -0.3204 C -0.3146 0.0043 -0.3101 0.0093 -0.3144 0.0146 C -0.3173 0.0182 -0.31849998 0.0231 -0.317 0.025600001 C -0.3136 0.031200001 -0.2975 0.0315 -0.2891 0.0261 C -0.2837 0.0227 -0.2838 0.0211 -0.2891 0.0147 C -0.2949 0.0077 -0.29619998 0.0074 -0.24159999 0.009500001 C -0.20259999 0.011100001 -0.1766 0.014900001 -0.15339999 0.021000002 C -0.11569999 0.031100001 -0.07929999 0.049900003 -0.07719999 0.0577 C -0.07649999 0.0604 -0.06439999 0.0713 -0.06159999 0.0819 C -0.057999987 0.0951 -0.043499988 0.1154 -0.02709999 0.1329 C -0.013899989 0.1468 -0.0026999898 0.1609 -5.9998967E-4 0.1609 C 0.0015000103 0.1609 0.02180001 0.1428 0.03090001 0.1321 C 0.04710001 0.1131 0.06180001 0.0924 0.06500001 0.0826 C 0.07320001 0.057399996 0.085400015 0.050599996 0.10590001 0.043399997 C 0.1931 0.0127 0.231 -0.0818 0.2138 -0.1649 Z M 0.0 0.0811 C -0.0448 0.0811 -0.0811 0.044800002 -0.0811 0.0 S -0.044800002 -0.0811 0.0 -0.0811 S 0.0811 -0.044800002 0.0811 0.0 S 0.0448 0.0811 0.0 0.0811 Z M 0.0172 0.0056 L 0.045 -0.014599999 H 0.010600001 L 0.0 -0.0473 L -0.0106 -0.014600001 H -0.045 L -0.017200002 0.005599998 L -0.027800001 0.038299996 L 0.0 0.0181 L 0.0278 0.0383 L 0.0172 0.0056 Z"/>
<linearGradient id="glaze" x1="0%" y1="0%" x2="100%" y2="100%">
<stop offset="0%" stop-color="rgb(255,255,255)" stop-opacity="0.2"/>
<stop offset="49.999%" stop-color="rgb(255,255,255)" stop-opacity="0.0"/>
<stop offset="50.001%" stop-color="rgb(0,0,0)" stop-opacity="0.0"/>
<stop offset="100%" stop-color="rgb(0,0,0)" stop-opacity="0.2"/>
</linearGradient>
</defs>
<g>
<rect x="0" y="0" width="576" height="360" class="blue"/>
<use xlink:href="#s" transform="translate(288 180) scale(360 360) rotate(0)" class="white"/>
</g>
<g>
<rect x="0" y="0" width="576" height="360" fill="url(#glaze)"/>
<path d="M 30 30 L 546 30 L 546 330 L 30 330 Z M 60 60 L 60 300 L 516 300 L 516 60 Z" fill="rgb(255,255,255)" opacity="0.4"/>
<path d="M 0 0 L 576 0 L 576 360 L 0 360 Z M 30 30 L 30 330 L 546 330 L 546 30 Z" fill="rgb(0,0,0)" opacity="0.4"/>
</g>
</svg>
