<?xml version="1.0"?>
<svg xmlns="http://www.w3.org/2000/svg" xmlns:xlink="http://www.w3.org/1999/xlink" version="1.1" width="576" height="360" viewBox="0 0 576 360">
<!-- Generated by Kreative Vexillo v1.0 -->
<style>
.blue{fill:rgb(0,56,184);}
.white{fill:rgb(255,255,255);}
</style>
<defs>
<linearGradient id="glaze" x1="0%" y1="0%" x2="100%" y2="100%">
<stop offset="0%" stop-color="rgb(255,255,255)" stop-opacity="0.2"/>
<stop offset="49.999%" stop-color="rgb(255,255,255)" stop-opacity="0.0"/>
<stop offset="50.001%" stop-color="rgb(0,0,0)" stop-opacity="0.0"/>
<stop offset="100%" stop-color="rgb(0,0,0)" stop-opacity="0.2"/>
</linearGradient>
</defs>
<g>
<g>
<rect x="0" y="0" width="576" height="33.75" class="white"/>
<rect x="0" y="33.75" width="576" height="56.25" class="blue"/>
<rect x="0" y="90" width="576" height="180" class="white"/>
<rect x="0" y="270" width="576" height="56.25" class="blue"/>
<rect x="0" y="326.25" width="576" height="33.75" class="white"/>
</g>
<path d="M 288 102.375 L 355.2252 218.8125 L 220.7748 218.8125 L 288 102.375 L 288 127.125 L 242.2089 206.4375 L 333.7911 206.4375 L 288 127.125 Z" class="blue"/>
<path d="M 288 257.625 L 220.7748 141.1875 L 355.2252 141.1875 L 288 257.625 L 288 232.875 L 333.7911 153.5625 L 242.2089 153.5625 L 288 232.875 Z" class="blue"/>
</g>
<g>
<rect x="0" y="0" width="576" height="360" fill="url(#glaze)"/>
<path d="M 30 30 L 546 30 L 546 330 L 30 330 Z M 60 60 L 60 300 L 516 300 L 516 60 Z" fill="rgb(255,255,255)" opacity="0.4"/>
<path d="M 0 0 L 576 0 L 576 360 L 0 360 Z M 30 30 L 30 330 L 546 330 L 546 30 Z" fill="rgb(0,0,0)" opacity="0.4"/>
</g>
</svg>
