<?xml version="1.0"?>
<svg xmlns="http://www.w3.org/2000/svg" xmlns:xlink="http://www.w3.org/1999/xlink" version="1.1" width="576" height="360" viewBox="0 0 576 360">
<!-- Generated by Kreative Vexillo v1.0 -->
<style>
.black{fill:rgb(0,0,0);}
.green{fill:rgb(0,169,79);}
.yellow{fill:rgb(255,221,0);}
</style>
<defs>
<linearGradient id="glaze" x1="0%" y1="0%" x2="100%" y2="100%">
<stop offset="0%" stop-color="rgb(255,255,255)" stop-opacity="0.2"/>
<stop offset="49.999%" stop-color="rgb(255,255,255)" stop-opacity="0.0"/>
<stop offset="50.001%" stop-color="rgb(0,0,0)" stop-opacity="0.0"/>
<stop offset="100%" stop-color="rgb(0,0,0)" stop-opacity="0.2"/>
</linearGradient>
</defs>
<g>
<rect x="0" y="0" width="576" height="360" class="green"/>
<path d="M 0 0 L 288 180 L 0 360 Z" class="black"/>
<path d="M 576 0 L 288 180 L 576 360 Z" class="black"/>
<path d="M 0 0 L 0 35.3774 L 0 35.3774 L 231.3961 180 L 231.3961 180 L 0 324.6226 L 0 324.6226 L 0 360 L 56.6039 360 L 288 215.3774 L 288 215.3774 L 519.3961 360 L 576 360 L 576 324.6226 L 344.6039 180 L 576 35.3774 L 576 0 L 519.3961 0 L 288 144.6226 L 56.6039 0 Z" class="yellow"/>
</g>
<g>
<rect x="0" y="0" width="576" height="360" fill="url(#glaze)"/>
<path d="M 30 30 L 546 30 L 546 330 L 30 330 Z M 60 60 L 60 300 L 516 300 L 516 60 Z" fill="rgb(255,255,255)" opacity="0.4"/>
<path d="M 0 0 L 576 0 L 576 360 L 0 360 Z M 30 30 L 30 330 L 546 330 L 546 30 Z" fill="rgb(0,0,0)" opacity="0.4"/>
</g>
</svg>
