<?xml version="1.0"?>
<svg xmlns="http://www.w3.org/2000/svg" xmlns:xlink="http://www.w3.org/1999/xlink" version="1.1" width="576" height="360" viewBox="0 0 576 360">
<!-- Generated by Kreative Vexillo v1.0 -->
<style>
.gold{fill:rgb(255,179,0);}
.magenta{fill:rgb(153,0,102);}
.white{fill:rgb(255,255,255);}
</style>
<defs>
<path id="e1" d="M -0.7996 0.3077 H 0.58640003 L 0.2735 -0.2342 C 0.2418 -0.2892 0.1831 -0.3231 0.1196 -0.3231 H -0.1195 C -0.183 -0.3231 -0.2417 -0.2892 -0.2735 -0.2342 L -0.5655 0.2769 H -0.7787 L -0.4303 -0.3265 C -0.3661 -0.4377 -0.2479 -0.5066 -0.11950001 -0.50769997 H 0.11959998 C 0.24909998 -0.50769997 0.36869997 -0.43859997 0.43339998 -0.32649997 L 0.8369 0.3724 C 0.85899997 0.41059998 0.8459 0.45949998 0.8076 0.4816 C 0.7954 0.4886 0.7817 0.49229997 0.7676 0.49229997 H -0.9062 L -0.7996 0.3077 Z"/>
<path id="e2" d="M 0.0308 0.0668 L 0.1666 0.2026 L 0.1231 0.2462 L 0.0 0.1231 L 0.0 0.1231 L -0.1231 0.2462 L -0.16659999 0.20269999 L -0.0308 0.0668 V -0.2615 H 0.030700002 V 0.0668 Z M 0.1846 -0.0101 V -0.2 H 0.1231 V -0.010100007 L 0.0488 0.0642 L 0.0923 0.1077 L 0.1538 0.046199996 L 0.2153 0.1077 L 0.2588 0.0642 L 0.1846 -0.0101 Z M -0.0923 0.1077 L -0.0488 0.0642 L -0.1231 -0.0101 V -0.2 H -0.1846 V -0.010100007 L -0.2589 0.06419999 L -0.2154 0.1077 L -0.1539 0.046199996 L -0.0923 0.1077 Z"/>
<linearGradient id="glaze" x1="0%" y1="0%" x2="100%" y2="100%">
<stop offset="0%" stop-color="rgb(255,255,255)" stop-opacity="0.2"/>
<stop offset="49.999%" stop-color="rgb(255,255,255)" stop-opacity="0.0"/>
<stop offset="50.001%" stop-color="rgb(0,0,0)" stop-opacity="0.0"/>
<stop offset="100%" stop-color="rgb(0,0,0)" stop-opacity="0.2"/>
</linearGradient>
</defs>
<g>
<rect x="0" y="0" width="576" height="360" class="magenta"/>
<use xlink:href="#e1" transform="translate(288 180) scale(167.1429 167.1429) rotate(0)" class="white"/>
<use xlink:href="#e2" transform="translate(288 180) scale(167.1429 167.1429) rotate(0)" class="gold"/>
</g>
<g>
<rect x="0" y="0" width="576" height="360" fill="url(#glaze)"/>
<path d="M 30 30 L 546 30 L 546 330 L 30 330 Z M 60 60 L 60 300 L 516 300 L 516 60 Z" fill="rgb(255,255,255)" opacity="0.4"/>
<path d="M 0 0 L 576 0 L 576 360 L 0 360 Z M 30 30 L 30 330 L 546 330 L 546 30 Z" fill="rgb(0,0,0)" opacity="0.4"/>
</g>
</svg>
