<?xml version="1.0"?>
<svg xmlns="http://www.w3.org/2000/svg" xmlns:xlink="http://www.w3.org/1999/xlink" version="1.1" width="576" height="360" viewBox="0 0 576 360">
<!-- Generated by Kreative Vexillo v1.0 -->
<style>
.red{fill:rgb(166,60,71);}
.white{fill:rgb(255,255,255);}
</style>
<defs>
<path id="e" d="M 0.2405 -0.2214 C 0.1808 -0.18599999 0.1315 -0.13499999 0.0986 -0.0738 C 0.0986 -0.0738 0.20030001 -0.018099997 0.1991 0.099800006 C 0.199 0.10910001 0.1983 0.11800001 0.1971 0.12650001 C 0.185 0.3052 0.037599996 0.4453 -0.14420001 0.4453 C -0.16800001 0.4453 -0.1913 0.44280002 -0.21380001 0.43820003 C -0.1519 0.4773 -0.0786 0.5 0.0 0.5 C 0.2214 0.5 0.4008 0.32050002 0.4008 0.09920001 C 0.4008 -0.0319 0.3378 -0.1483 0.2405 -0.2214 L 0.2405 -0.2214 Z M -0.1441 0.4281 C -0.0010999888 0.4281 0.1215 0.3365 0.166 0.20859998 C 0.1295 0.26239997 0.07599999 0.28359997 0.07599999 0.28359997 C 0.04949999 0.23009998 0.03459999 0.16989997 0.03459999 0.10619998 C 0.03459999 -0.03720002 0.110099986 -0.16300002 0.22349998 -0.23350003 C 0.22349998 -0.23350003 0.22349998 -0.23350003 0.22349998 -0.23350003 C 0.2616 -0.25720003 0.30389997 -0.27470005 0.34919998 -0.28450003 C 0.34919998 -0.28450003 0.24299997 -0.33340004 0.09719998 -0.30330002 C 0.09719998 -0.30330002 0.069399975 -0.43580002 0.0017999783 -0.49690002 L -4.0E-4 -0.5 L -0.0024 -0.4971 C -0.07 -0.436 -0.0978 -0.3035 -0.0978 -0.3035 C -0.2436 -0.33359998 -0.3498 -0.2847 -0.3498 -0.2847 C -0.3044 -0.27490002 -0.262 -0.25730002 -0.22379999 -0.2335 C -0.22379999 -0.2335 -0.22379999 -0.2335 -0.22379999 -0.2335 C -0.110499986 -0.1629 -0.035199985 -0.037200004 -0.035199985 0.106000006 C -0.035199985 0.1697 -0.050099984 0.23 -0.076599985 0.2834 C -0.076599985 0.2834 -0.19839999 0.2352 -0.19979998 0.0996 C -0.201 -0.0181 -0.0993 -0.0738 -0.0993 -0.0738 C -0.1321 -0.1349 -0.1813 -0.1858 -0.2408 -0.2212 C -0.338 -0.1481 -0.4008 -0.0318 -0.4008 0.099199995 C -0.4008 0.22399999 -0.34379998 0.3355 -0.2543 0.40899998 C -0.2199 0.4213 -0.1828 0.4281 -0.1441 0.4281 L -0.1441 0.4281 Z"/>
<linearGradient id="glaze" x1="0%" y1="0%" x2="100%" y2="100%">
<stop offset="0%" stop-color="rgb(255,255,255)" stop-opacity="0.2"/>
<stop offset="49.999%" stop-color="rgb(255,255,255)" stop-opacity="0.0"/>
<stop offset="50.001%" stop-color="rgb(0,0,0)" stop-opacity="0.0"/>
<stop offset="100%" stop-color="rgb(0,0,0)" stop-opacity="0.2"/>
</linearGradient>
</defs>
<g>
<rect x="0" y="0" width="576" height="360" class="red"/>
<use xlink:href="#e" transform="translate(288 180) scale(216 216) rotate(0)" class="white"/>
</g>
<g>
<rect x="0" y="0" width="576" height="360" fill="url(#glaze)"/>
<path d="M 30 30 L 546 30 L 546 330 L 30 330 Z M 60 60 L 60 300 L 516 300 L 516 60 Z" fill="rgb(255,255,255)" opacity="0.4"/>
<path d="M 0 0 L 576 0 L 576 360 L 0 360 Z M 30 30 L 30 330 L 546 330 L 546 30 Z" fill="rgb(0,0,0)" opacity="0.4"/>
</g>
</svg>
