<?xml version="1.0"?>
<svg xmlns="http://www.w3.org/2000/svg" xmlns:xlink="http://www.w3.org/1999/xlink" version="1.1" width="576" height="360" viewBox="0 0 576 360">
<!-- Generated by Kreative Vexillo v1.0 -->
<style>
.blue{fill:rgb(0,121,193);}
.green{fill:rgb(0,169,79);}
.white{fill:rgb(255,255,255);}
.yellow{fill:rgb(255,196,37);}
</style>
<defs>
<path id="star" d="M 0.0 -1.0 L 0.2245 -0.309 L 0.9511 -0.309 L 0.3633 0.118 L 0.5878 0.809 L 0.0 0.382 L -0.5878 0.809 L -0.3633 0.118 L -0.9511 -0.309 L -0.2245 -0.309 Z"/>
<clipPath id="clip0">
<rect x="0" y="0" width="576" height="360"/>
</clipPath>
<linearGradient id="glaze" x1="0%" y1="0%" x2="100%" y2="100%">
<stop offset="0%" stop-color="rgb(255,255,255)" stop-opacity="0.2"/>
<stop offset="49.999%" stop-color="rgb(255,255,255)" stop-opacity="0.0"/>
<stop offset="50.001%" stop-color="rgb(0,0,0)" stop-opacity="0.0"/>
<stop offset="100%" stop-color="rgb(0,0,0)" stop-opacity="0.2"/>
</linearGradient>
</defs>
<g>
<path d="M 0 0 L 576 0 L 0 360 Z" class="blue"/>
<path d="M 576 0 L 576 360 L 0 360 Z" class="green"/>
<g clip-path="url(#clip0)">
<path d="M 566.4636 -15.2662 L -9.5365 344.7338 L 9.5365 375.2662 L 585.5364 15.2662 L 566.4636 -15.2662 Z" class="yellow"/>
</g>
<use xlink:href="#star" transform="translate(43.2 49.5) scale(36 36) rotate(0)" class="white"/>
<use xlink:href="#star" transform="translate(158.4 49.5) scale(36 36) rotate(0)" class="white"/>
<use xlink:href="#star" transform="translate(100.8 110.7) scale(36 36) rotate(0)" class="white"/>
<use xlink:href="#star" transform="translate(43.2 171.9) scale(36 36) rotate(0)" class="white"/>
<use xlink:href="#star" transform="translate(158.4 171.9) scale(36 36) rotate(0)" class="white"/>
</g>
<g>
<rect x="0" y="0" width="576" height="360" fill="url(#glaze)"/>
<path d="M 30 30 L 546 30 L 546 330 L 30 330 Z M 60 60 L 60 300 L 516 300 L 516 60 Z" fill="rgb(255,255,255)" opacity="0.4"/>
<path d="M 0 0 L 576 0 L 576 360 L 0 360 Z M 30 30 L 30 330 L 546 330 L 546 30 Z" fill="rgb(0,0,0)" opacity="0.4"/>
</g>
</svg>
