<?xml version="1.0"?>
<svg xmlns="http://www.w3.org/2000/svg" xmlns:xlink="http://www.w3.org/1999/xlink" version="1.1" width="576" height="360" viewBox="0 0 576 360">
<!-- Generated by Kreative Vexillo v1.0 -->
<style>
.blue{fill:rgb(0,73,144);}
.white{fill:rgb(255,255,255);}
.yellow{fill:rgb(255,221,0);}
</style>
<defs>
<path id="sail" d="M 329.3761 777.2654 C 311.44174 777.11554 497.9995 677.83405 654.1452 550.66565 C 858.78894 383.99945 1299.541 117.15633 1429.1161 73.7954 C 1442.6594 69.26325 1401.34 96.868484 1395.9761 105.810814 C 1257.6345 269.55124 1368.051 578.5346 1540.9487 733.8591 C 1592.9387 773.62225 1590.2761 775.7099 1686.6561 779.60535 V 788.60535 L 329.3761 777.2653 Z M 318.12503 795.3246 C 318.12503 795.3246 304.9616 804.7275 305.0001 811.7307 C 305.0431 819.50323 319.76566 829.7775 319.76566 829.7775 L 1658.5106 844.54315 L 1683.1199 828.13696 L 1648.6669 806.80896 L 318.12488 795.32465 Z"/>
<path id="star" d="M 0.0 -1.0 L 0.2245 -0.309 L 0.9511 -0.309 L 0.3633 0.118 L 0.5878 0.809 L 0.0 0.382 L -0.5878 0.809 L -0.3633 0.118 L -0.9511 -0.309 L -0.2245 -0.309 Z"/>
<linearGradient id="glaze" x1="0%" y1="0%" x2="100%" y2="100%">
<stop offset="0%" stop-color="rgb(255,255,255)" stop-opacity="0.2"/>
<stop offset="49.999%" stop-color="rgb(255,255,255)" stop-opacity="0.0"/>
<stop offset="50.001%" stop-color="rgb(0,0,0)" stop-opacity="0.0"/>
<stop offset="100%" stop-color="rgb(0,0,0)" stop-opacity="0.2"/>
</linearGradient>
</defs>
<g>
<rect x="0" y="0" width="576" height="360" class="blue"/>
<use xlink:href="#sail" transform="translate(0 36) scale(0.32 0.32) rotate(0)" class="yellow"/>
<use xlink:href="#star" transform="translate(109.728 72) scale(14.4 14.4) rotate(0)" class="white"/>
<use xlink:href="#star" transform="translate(166.752 121.536) scale(12 12) rotate(0)" class="white"/>
<use xlink:href="#star" transform="translate(43.2 139.104) scale(14.4 14.4) rotate(0)" class="white"/>
<use xlink:href="#star" transform="translate(109.728 244.8) scale(16.8 16.8) rotate(0)" class="white"/>
</g>
<g>
<rect x="0" y="0" width="576" height="360" fill="url(#glaze)"/>
<path d="M 30 30 L 546 30 L 546 330 L 30 330 Z M 60 60 L 60 300 L 516 300 L 516 60 Z" fill="rgb(255,255,255)" opacity="0.4"/>
<path d="M 0 0 L 576 0 L 576 360 L 0 360 Z M 30 30 L 30 330 L 546 330 L 546 30 Z" fill="rgb(0,0,0)" opacity="0.4"/>
</g>
</svg>
