<?xml version="1.0"?>
<svg xmlns="http://www.w3.org/2000/svg" xmlns:xlink="http://www.w3.org/1999/xlink" version="1.1" width="576" height="360" viewBox="0 0 576 360">
<!-- Generated by Kreative Vexillo v1.0 -->
<style>
.black{fill:rgb(0,0,0);}
.blue{fill:rgb(0,157,220);}
.green{fill:rgb(84,185,72);}
.yellow{fill:rgb(255,210,0);}
</style>
<defs>
<clipPath id="clip0">
<rect x="0" y="0" width="576" height="360"/>
</clipPath>
<linearGradient id="glaze" x1="0%" y1="0%" x2="100%" y2="100%">
<stop offset="0%" stop-color="rgb(255,255,255)" stop-opacity="0.2"/>
<stop offset="49.999%" stop-color="rgb(255,255,255)" stop-opacity="0.0"/>
<stop offset="50.001%" stop-color="rgb(0,0,0)" stop-opacity="0.0"/>
<stop offset="100%" stop-color="rgb(0,0,0)" stop-opacity="0.2"/>
</linearGradient>
</defs>
<g>
<path d="M 0 0 L 576 0 L 0 360 Z" class="green"/>
<path d="M 576 0 L 576 360 L 0 360 Z" class="blue"/>
<g clip-path="url(#clip0)">
<path d="M 538.2515 -60.4286 L -37.7485 299.5714 L 37.7485 420.4286 L 613.7485 60.4286 L 538.2515 -60.4286 Z" class="yellow"/>
<path d="M 550.1721 -41.3459 L -25.8279 318.6541 L 25.8279 401.3459 L 601.8279 41.3459 L 550.1721 -41.3459 Z" class="black"/>
</g>
</g>
<g>
<rect x="0" y="0" width="576" height="360" fill="url(#glaze)"/>
<path d="M 30 30 L 546 30 L 546 330 L 30 330 Z M 60 60 L 60 300 L 516 300 L 516 60 Z" fill="rgb(255,255,255)" opacity="0.4"/>
<path d="M 0 0 L 576 0 L 576 360 L 0 360 Z M 30 30 L 30 330 L 546 330 L 546 30 Z" fill="rgb(0,0,0)" opacity="0.4"/>
</g>
</svg>
