<?xml version="1.0"?>
<svg xmlns="http://www.w3.org/2000/svg" xmlns:xlink="http://www.w3.org/1999/xlink" version="1.1" width="576" height="360" viewBox="0 0 576 360">
<!-- Generated by Kreative Vexillo v1.0 -->
<style>
.blue{fill:rgb(15,32,75);}
.yellow{fill:rgb(255,182,18);}
</style>
<defs>
<path id="star" d="M 0.0 -1.0 L 0.2245 -0.309 L 0.9511 -0.309 L 0.3633 0.118 L 0.5878 0.809 L 0.0 0.382 L -0.5878 0.809 L -0.3633 0.118 L -0.9511 -0.309 L -0.2245 -0.309 Z"/>
<linearGradient id="glaze" x1="0%" y1="0%" x2="100%" y2="100%">
<stop offset="0%" stop-color="rgb(255,255,255)" stop-opacity="0.2"/>
<stop offset="49.999%" stop-color="rgb(255,255,255)" stop-opacity="0.0"/>
<stop offset="50.001%" stop-color="rgb(0,0,0)" stop-opacity="0.0"/>
<stop offset="100%" stop-color="rgb(0,0,0)" stop-opacity="0.2"/>
</linearGradient>
</defs>
<g>
<rect x="0" y="0" width="576" height="360" class="blue"/>
<use xlink:href="#star" transform="translate(471.0508 65.52) scale(18.72 18.72) rotate(0)" class="yellow"/>
<use xlink:href="#star" transform="translate(93.1525 142.56) scale(11.16 11.16) rotate(0)" class="yellow"/>
<use xlink:href="#star" transform="translate(161.0847 164.88) scale(11.16 11.16) rotate(0)" class="yellow"/>
<use xlink:href="#star" transform="translate(194.8475 196.92) scale(11.16 11.16) rotate(0)" class="yellow"/>
<use xlink:href="#star" transform="translate(229.0169 230.4) scale(11.16 11.16) rotate(0)" class="yellow"/>
<use xlink:href="#star" transform="translate(330.7119 262.44) scale(11.16 11.16) rotate(0)" class="yellow"/>
<use xlink:href="#star" transform="translate(224.5424 277.56) scale(11.16 11.16) rotate(0)" class="yellow"/>
<use xlink:href="#star" transform="translate(301.0169 299.88) scale(11.16 11.16) rotate(0)" class="yellow"/>
</g>
<g>
<rect x="0" y="0" width="576" height="360" fill="url(#glaze)"/>
<path d="M 30 30 L 546 30 L 546 330 L 30 330 Z M 60 60 L 60 300 L 516 300 L 516 60 Z" fill="rgb(255,255,255)" opacity="0.4"/>
<path d="M 0 0 L 576 0 L 576 360 L 0 360 Z M 30 30 L 30 330 L 546 330 L 546 30 Z" fill="rgb(0,0,0)" opacity="0.4"/>
</g>
</svg>
