<?xml version="1.0"?>
<svg xmlns="http://www.w3.org/2000/svg" xmlns:xlink="http://www.w3.org/1999/xlink" version="1.1" width="576" height="360" viewBox="0 0 576 360">
<!-- Generated by Kreative Vexillo v1.0 -->
<style>
.blue{fill:rgb(0,15,93);}
.gold{fill:rgb(213,159,15);}
</style>
<defs>
<path id="seal" d="M 0.1748 -0.3411 L 0.14989999 -0.36110002 L 0.1818 -0.36110002 L 0.19229999 -0.3923 L 0.20199999 -0.361 L 0.2342 -0.3611 L 0.2093 -0.3409 L 0.2183 -0.3113 L 0.192 -0.3291 L 0.1659 -0.31120002 L 0.1748 -0.3411 Z M 0.3061 -0.1859 L 0.33220002 -0.20380001 L 0.35850003 -0.186 L 0.34950003 -0.2156 L 0.37440002 -0.2358 L 0.34230003 -0.2358 L 0.33260003 -0.2671 L 0.3221 -0.23590001 L 0.29020002 -0.23590001 L 0.3151 -0.21590002 L 0.3061 -0.1859 Z M 0.4488 -0.0556 L 0.4167 -0.0556 L 0.407 -0.086899996 L 0.3965 -0.055699997 L 0.3646 -0.055699997 L 0.3895 -0.035699997 L 0.3806 -0.005699998 L 0.40670002 -0.023599997 L 0.43300003 -0.0057999976 L 0.42400002 -0.035399996 L 0.4488 -0.0556 Z M 0.2649 -0.0088 L 0.2552 -0.0401 L 0.2447 -0.008900002 L 0.2128 -0.008900002 L 0.2377 0.011099998 L 0.2288 0.041099995 L 0.2549 0.023199996 L 0.28120002 0.040999994 L 0.27220002 0.011399994 L 0.2971 -0.008800006 L 0.2649 -0.0088 Z M 0.3878 0.1439 L 0.3781 0.112600006 L 0.3676 0.1438 L 0.3357 0.1438 L 0.3606 0.1638 L 0.3517 0.1938 L 0.37780002 0.1759 L 0.40410003 0.1937 L 0.39510003 0.1641 L 0.42000002 0.1439 L 0.3878 0.1439 Z M 0.2754 0.2981 L 0.2657 0.2668 L 0.2552 0.29799998 L 0.2233 0.29799998 L 0.2482 0.318 L 0.2393 0.348 L 0.2654 0.3301 L 0.2917 0.3479 L 0.2827 0.3183 L 0.3076 0.2981 L 0.2754 0.2981 Z M 0.1895 0.1698 L 0.1798 0.1385 L 0.1693 0.1697 L 0.1374 0.1697 L 0.1623 0.18969999 L 0.1534 0.2197 L 0.1795 0.20179999 L 0.2058 0.21959999 L 0.1968 0.19 L 0.2217 0.1698 L 0.1895 0.1698 Z M 0.108 0.3939 L 0.0983 0.3626 L 0.0878 0.3938 L 0.055900004 0.3938 L 0.080800004 0.4138 L 0.0719 0.4438 L 0.098000005 0.4259 L 0.1243 0.44370002 L 0.1153 0.41410002 L 0.1402 0.39390004 L 0.108 0.3939 Z M -0.0938 0.3939 L -0.1035 0.3626 L -0.114 0.3938 L -0.1459 0.3938 L -0.12099999 0.4138 L -0.1299 0.4438 L -0.10379999 0.4259 L -0.07749999 0.44370002 L -0.08649999 0.41410002 L -0.06159999 0.39390004 L -0.0938 0.3939 Z M -0.1337 0.1698 L -0.1658 0.1698 L -0.1755 0.1385 L -0.186 0.1697 L -0.21790001 0.1697 L -0.193 0.18969999 L -0.2019 0.2197 L -0.17580001 0.20179999 L -0.14950001 0.21959999 L -0.15850002 0.19 L -0.1337 0.1698 Z M -0.2615 0.2981 L -0.2712 0.2668 L -0.28170002 0.29799998 L -0.3136 0.29799998 L -0.2887 0.318 L -0.2976 0.348 L -0.2715 0.3301 L -0.2452 0.3479 L -0.25419998 0.3183 L -0.22929998 0.2981 L -0.2615 0.2981 Z M -0.3718 0.1439 L -0.3815 0.112600006 L -0.39200002 0.1438 L -0.4239 0.1438 L -0.39900002 0.1638 L -0.4079 0.1938 L -0.3818 0.1759 L -0.35549998 0.1937 L -0.3645 0.1641 L -0.3396 0.1439 L -0.3718 0.1439 Z M -0.4067 -0.0235 L -0.38039997 -0.0056999996 L -0.38939998 -0.0353 L -0.3645 -0.0555 L -0.39659998 -0.0555 L -0.40629998 -0.0868 L -0.4168 -0.055600002 L -0.44869998 -0.055600002 L -0.4238 -0.035600003 L -0.43269998 -0.0056000035 L -0.4067 -0.0235 Z M -0.2099 -0.0088 L -0.24200001 -0.0088 L -0.2517 -0.0401 L -0.26220003 -0.008900002 L -0.29410002 -0.008900002 L -0.26920003 0.011099998 L -0.2781 0.041099995 L -0.252 0.023199996 L -0.2257 0.040999994 L -0.23470001 0.011399994 L -0.2099 -0.0088 Z M -0.3568 -0.1859 L -0.33069998 -0.20380001 L -0.30439997 -0.186 L -0.31339997 -0.2156 L -0.28849998 -0.2358 L -0.32059997 -0.2358 L -0.33029997 -0.2671 L -0.3408 -0.23590001 L -0.37269998 -0.23590001 L -0.3478 -0.21590002 L -0.3568 -0.1859 Z M -0.2157 -0.3111 L -0.1896 -0.329 L -0.16330001 -0.3112 L -0.17230001 -0.3408 L -0.1474 -0.361 L -0.17950001 -0.361 L -0.18920001 -0.3923 L -0.19970001 -0.36110002 L -0.23160002 -0.36110002 L -0.20670001 -0.3411 L -0.2157 -0.3111 Z M -0.0246 -0.3634 L 0.0015000012 -0.3813 L 0.027800001 -0.3635 L 0.018800002 -0.3931 L 0.043700002 -0.41329998 L 0.011600003 -0.41329998 L 0.0019 -0.4447 L -0.0086 -0.4135 L -0.0405 -0.4135 L -0.0156 -0.3935 L -0.0246 -0.3634 Z M 0.1611 -0.3068 L 0.0668 -0.17250001 L 0.0726 -0.16830002 L 0.16690001 -0.30260003 L 0.1611 -0.3068 Z M 0.3019 -0.2086 L 0.2993 -0.2153 L 0.08019999 -0.131 L 0.082799986 -0.124299996 L 0.09139998 -0.1276 C 0.08479998 -0.1227 0.07449998 -0.1105 0.06919998 -0.104 C 0.07199998 -0.11 0.07319998 -0.116900004 0.07219998 -0.12550001 C 0.06649998 -0.14520001 0.07939998 -0.14520001 0.07749998 -0.1613 C 0.025099978 -0.13690001 0.082599975 -0.1089 0.037399977 -0.054400004 L 0.03659998 -0.054400004 L 0.05509998 -0.054400004 C 0.092699975 -0.08360001 0.075999975 -0.104100004 0.091499984 -0.12760001 L 0.3019 -0.2086 Z M 0.353 -0.054 L 0.08649999 -0.086 L 0.08569999 -0.0788 L 0.35219997 -0.0469 L 0.353 -0.054 Z M 0.0121 0.2441 L 0.0023999996 0.2128 L -0.0081 0.24399999 L -0.04 0.24399999 L -0.015099999 0.264 L -0.023999998 0.294 L 0.002 0.2761 L 0.0283 0.2939 L 0.0193 0.26430002 L 0.044200003 0.24410002 L 0.0121 0.2441 Z M -0.0222 -0.2424 L -0.0347 -0.2001 L 0.002100002 -0.2253 L 0.039100002 -0.2003 L 0.026400004 -0.242 L 0.061500005 -0.2705 L 0.016200006 -0.2705 L 0.002500006 -0.3145 L -0.012299994 -0.2705 L -0.057299994 -0.2706 L -0.0222 -0.2424 Z M -0.0549 -0.0546 L -0.0231 -0.0546 C -0.064899996 -0.0959 -0.0297 -0.109799996 -0.0537 -0.1543 C -0.0544 -0.120400004 -0.091299996 -0.102800004 -0.0551 -0.054900005 C -0.0551 -0.0548 -0.055 -0.0547 -0.0549 -0.0546 Z M 0.0585 -0.1849 C 0.0269 -0.1833 0.0034999996 -0.1677 -0.0066 -0.1374 C -0.0045999996 -0.1491 -0.011 -0.1553 -0.0177 -0.1712 C -0.015899999 -0.157 -0.0289 -0.1386 -0.0327 -0.1199 C -0.0365 -0.1012 -0.027599998 -0.072500005 -0.014799999 -0.054500006 L 0.026800001 -0.054500006 C 0.0759 -0.1084 0.0016 -0.1417 0.0585 -0.1849 Z M 0.0296 0.0632 C 0.0316 0.012099996 0.0426 -0.0034999996 0.0633 -0.024900004 C 0.0231 -0.025000004 -0.021899998 -0.025000004 -0.0585 -0.025000004 C -0.0379 -0.0036000032 -0.0269 0.011999996 -0.024999999 0.063099995 C -0.0068 0.0631 0.0114 0.0631 0.0296 0.0632 Z M 0.0021 0.188 L 0.018000001 0.23789999 L 0.026800001 0.08969998 C 0.010400001 0.08959998 -0.005999999 0.08959998 -0.022399997 0.08959998 L -0.013999998 0.23779999 L 0.0021 0.188 Z M -0.0113 0.2975 L -0.0071000005 0.38410002 C -0.0071000005 0.38410002 -0.0052000005 0.40530002 0.0017999993 0.41180003 L 0.0017999993 0.41180003 C 0.0088 0.40530002 0.010799998 0.38410002 0.010799998 0.38410002 L 0.015199998 0.2975 L 0.0018999986 0.28820002 L -0.0113 0.2975 Z M 0.0731 -0.0475 L -0.068399996 -0.0476 L -0.068399996 -0.0342 L 0.0731 -0.034 L 0.0731 -0.0475 Z M 0.0387 0.0686 L -0.036 0.0685 L -0.036 0.0852 L 0.038600005 0.0853 L 0.0387 0.0686 Z M -0.3488 -0.0469 L -0.08230001 -0.0788 L -0.083100006 -0.086 L -0.34960002 -0.054 L -0.3488 -0.0469 Z M -0.0765 -0.131 L -0.2956 -0.2153 L -0.2982 -0.2086 L -0.07910001 -0.1243 L -0.0765 -0.131 Z M -0.0624 -0.1725 L -0.1567 -0.3068 L -0.1625 -0.3027 L -0.06819999 -0.16840002 L -0.0624 -0.1725 Z M -0.0022 -0.2146 L -0.0023 -0.16569999 L 0.0049 -0.16569999 L 0.0049 -0.2146 L -0.0022 -0.2146 Z M 0.0557 -0.2914 L 0.092 -0.299 L 0.0948 -0.2946 L 0.0723 -0.2651 L 0.0696 -0.2694 L 0.076400004 -0.2781 L 0.06910001 -0.2897 L 0.058300007 -0.2873 L 0.0557 -0.2914 Z M 0.0733 -0.2906 L 0.0791 -0.2814 L 0.0892 -0.2941 L 0.0733 -0.2906 Z M -0.0679 -0.2847 L -0.0882 -0.3043 C -0.0877 -0.3041 -0.0873 -0.3039 -0.0868 -0.30380002 C -0.0863 -0.30370003 -0.0859 -0.30350003 -0.0854 -0.30350003 L -0.0554 -0.29760003 L -0.051799998 -0.30130002 L -0.0769 -0.3254 L -0.08 -0.3222 L -0.059699997 -0.3026 C -0.060099997 -0.3028 -0.060599998 -0.3029 -0.0611 -0.3031 C -0.0616 -0.30319998 -0.0622 -0.30339998 -0.0629 -0.3035 L -0.0924 -0.3094 L -0.096 -0.3057 L -0.071 -0.2815 L -0.0679 -0.2847 Z M 0.0338 -0.307 L 0.0497 -0.3303 C 0.049599998 -0.3298 0.0495 -0.32930002 0.049399998 -0.3289 C 0.049299996 -0.32840002 0.049299996 -0.328 0.049299996 -0.32750002 L 0.048499998 -0.29700002 L 0.052699998 -0.29410002 L 0.072399996 -0.3228 L 0.06869999 -0.3253 L 0.052799992 -0.30200002 C 0.052899994 -0.30240002 0.052999992 -0.30290002 0.052999992 -0.30350003 C 0.053099994 -0.30410004 0.053099994 -0.30470002 0.053099994 -0.30530003 L 0.053999994 -0.33530003 L 0.049699992 -0.33820003 L 0.029999992 -0.30950004 L 0.0338 -0.307 Z M -0.0454 -0.3055 L -0.058000002 -0.3379 L -0.045700002 -0.3427 C -0.041200005 -0.3445 -0.037200004 -0.3445 -0.033800002 -0.3427 C -0.030300003 -0.3409 -0.027600002 -0.3375 -0.025600001 -0.3324 C -0.023500001 -0.3271 -0.023200002 -0.3225 -0.024500001 -0.3186 C -0.0258 -0.3147 -0.028700002 -0.3119 -0.033200003 -0.3102 L -0.0454 -0.3055 Z M -0.0521 -0.3359 L -0.042499997 -0.31120002 L -0.034899995 -0.3142 C -0.031699996 -0.31550002 -0.029599994 -0.31750003 -0.028799996 -0.32020003 C -0.027999995 -0.323 -0.028399996 -0.3264 -0.029999996 -0.33050004 C -0.031499997 -0.33440003 -0.033599995 -0.33710003 -0.036099996 -0.33860004 C -0.038599998 -0.34000003 -0.041399997 -0.34010005 -0.044599995 -0.33890003 L -0.0521 -0.3359 Z M -0.0741 -0.2742 L -0.105100006 -0.29009998 L -0.107300006 -0.28589997 L -0.07630001 -0.26999998 L -0.0741 -0.2742 Z M 0.0064 -0.3259 L 8.0000004E-4 -0.3164 L -0.004 -0.3173 L 0.0152 -0.34899998 L 0.0203 -0.348 L 0.026500002 -0.3114 L 0.021500003 -0.31239998 L 0.019800002 -0.32329997 L 0.0064 -0.3259 Z M 0.0086 -0.3296 L 0.0193 -0.3276 L 0.016900001 -0.3437 L 0.0086 -0.3296 Z M -0.0107 -0.3504 L -0.0154 -0.35 L -0.0126 -0.3153 L -0.0079 -0.3157 L -0.0107 -0.3504 Z"/>
<linearGradient id="glaze" x1="0%" y1="0%" x2="100%" y2="100%">
<stop offset="0%" stop-color="rgb(255,255,255)" stop-opacity="0.2"/>
<stop offset="49.999%" stop-color="rgb(255,255,255)" stop-opacity="0.0"/>
<stop offset="50.001%" stop-color="rgb(0,0,0)" stop-opacity="0.0"/>
<stop offset="100%" stop-color="rgb(0,0,0)" stop-opacity="0.2"/>
</linearGradient>
</defs>
<g>
<rect x="0" y="0" width="576" height="360" class="blue"/>
<use xlink:href="#seal" transform="translate(288 180) scale(360 360) rotate(0)" class="gold"/>
</g>
<g>
<rect x="0" y="0" width="576" height="360" fill="url(#glaze)"/>
<path d="M 30 30 L 546 30 L 546 330 L 30 330 Z M 60 60 L 60 300 L 516 300 L 516 60 Z" fill="rgb(255,255,255)" opacity="0.4"/>
<path d="M 0 0 L 576 0 L 576 360 L 0 360 Z M 30 30 L 30 330 L 546 330 L 546 30 Z" fill="rgb(0,0,0)" opacity="0.4"/>
</g>
</svg>
