<?xml version="1.0"?>
<svg xmlns="http://www.w3.org/2000/svg" xmlns:xlink="http://www.w3.org/1999/xlink" version="1.1" width="576" height="360" viewBox="0 0 576 360">
<!-- Generated by Kreative Vexillo v1.0 -->
<style>
.blue{fill:rgb(0,0,255);}
.green{fill:rgb(0,255,0);}
</style>
<defs>
<path id="-glazearea" d="M 0.0 0.0 L 1.0 0.0 L 0.75 0.5 L 1.0 1.0 L 0.0 1.0 Z"/>
<clipPath id="clip0">
<path d="M 0 0 L 576 0 L 432 180 L 576 360 L 0 360 Z"/>
</clipPath>
<linearGradient id="glaze" x1="0%" y1="0%" x2="100%" y2="100%">
<stop offset="0%" stop-color="rgb(255,255,255)" stop-opacity="0.2"/>
<stop offset="49.999%" stop-color="rgb(255,255,255)" stop-opacity="0.0"/>
<stop offset="50.001%" stop-color="rgb(0,0,0)" stop-opacity="0.0"/>
<stop offset="100%" stop-color="rgb(0,0,0)" stop-opacity="0.2"/>
</linearGradient>
</defs>
<g>
<g clip-path="url(#clip0)">
<g>
<rect x="0" y="0" width="96" height="360" class="green"/>
<rect x="96" y="0" width="96" height="360" class="blue"/>
<rect x="192" y="0" width="96" height="360" class="green"/>
<rect x="288" y="0" width="96" height="360" class="blue"/>
<rect x="384" y="0" width="96" height="360" class="green"/>
<rect x="480" y="0" width="96" height="360" class="blue"/>
</g>
</g>
</g>
<g>
<path d="M 0 0 L 576 0 L 432 180 L 576 360 L 0 360 Z" fill="url(#glaze)"/>
<path d="M 451.1625 60 L 385.1479 142.5183 L 355.1625 180 L 385.1479 217.4817 L 451.1625 300 L 60 300 L 60 60 Z M 30 30 L 30 330 L 513.5813 330 L 408.5739 198.7409 L 393.5813 180 L 408.5739 161.2591 L 513.5813 30 Z" fill="rgb(255,255,255)" opacity="0.4"/>
<path d="M 513.5813 30 L 408.5739 161.2591 L 393.5813 180 L 408.5739 198.7409 L 513.5813 330 L 30 330 L 30 30 Z M 0 0 L 0 360 L 576 360 L 432 180 L 576 0 Z" fill="rgb(0,0,0)" opacity="0.4"/>
</g>
</svg>
