<?xml version="1.0"?>
<svg xmlns="http://www.w3.org/2000/svg" xmlns:xlink="http://www.w3.org/1999/xlink" version="1.1" width="576" height="360" viewBox="0 0 576 360">
<!-- Generated by Kreative Vexillo v1.0 -->
<style>
.blue{fill:rgb(0,0,255);}
</style>
<defs>
<path id="-glazearea" d="M 0.0 0.0 L 1.0 0.25 L 1.0 0.75 L 0.0 1.0 Z"/>
<linearGradient id="glaze" x1="0%" y1="0%" x2="100%" y2="100%">
<stop offset="0%" stop-color="rgb(255,255,255)" stop-opacity="0.2"/>
<stop offset="49.999%" stop-color="rgb(255,255,255)" stop-opacity="0.0"/>
<stop offset="50.001%" stop-color="rgb(0,0,0)" stop-opacity="0.0"/>
<stop offset="100%" stop-color="rgb(0,0,0)" stop-opacity="0.2"/>
</linearGradient>
</defs>
<g>
<path d="M 0 0 L 576 90 L 576 270 L 0 360 Z" class="blue"/>
</g>
<g>
<path d="M 0 0 L 576 90 L 576 270 L 0 360 Z" fill="url(#glaze)"/>
<path d="M 60 70.103 L 516 141.353 L 516 218.647 L 60 289.897 L 60 289.897 L 60 70.103 Z M 30 35.0515 L 30 324.9485 L 30 324.9485 L 30 324.9485 L 30 324.9485 L 546 244.3235 L 546 244.3235 L 546 115.6765 L 546 115.6765 L 30 35.0515 Z" fill="rgb(255,255,255)" opacity="0.4"/>
<path d="M 30 35.0515 L 546 115.6765 L 546 115.6765 L 546 244.3235 L 546 244.3235 L 30 324.9485 L 30 324.9485 L 30 324.9485 L 30 324.9485 L 30 324.9485 L 30 324.9485 L 30 35.0515 Z M 0 0 L 0 360 L 576 270 L 576 90 L 0 0 Z" fill="rgb(0,0,0)" opacity="0.4"/>
</g>
</svg>
