<?xml version="1.0"?>
<svg xmlns="http://www.w3.org/2000/svg" xmlns:xlink="http://www.w3.org/1999/xlink" version="1.1" width="576" height="360" viewBox="0 0 576 360">
<!-- Generated by Kreative Vexillo v1.0 -->
<style>
.black{fill:rgb(0,0,0);}
.red{fill:rgb(255,0,0);}
.white{fill:rgb(255,255,255);}
</style>
<defs>
<linearGradient id="glaze" x1="0%" y1="0%" x2="100%" y2="100%">
<stop offset="0%" stop-color="rgb(255,255,255)" stop-opacity="0.2"/>
<stop offset="49.999%" stop-color="rgb(255,255,255)" stop-opacity="0.0"/>
<stop offset="50.001%" stop-color="rgb(0,0,0)" stop-opacity="0.0"/>
<stop offset="100%" stop-color="rgb(0,0,0)" stop-opacity="0.2"/>
</linearGradient>
</defs>
<g>
<rect x="0" y="0" width="576" height="360" class="white"/>
<rect x="19.8" y="19.8" width="536.4" height="320.4" class="black"/>
<path d="M 154.584 60 L 154.584 60 L 154.584 300 L 114.984 300 L 114.984 60 Z" class="red"/>
<path d="M 230.4 100.2 L 230.4 100.2 L 460.8 100.2 L 460.8 139.8 L 230.4 139.8 Z" class="red"/>
<path d="M 230.4 160.2 L 230.4 160.2 L 460.8 160.2 L 460.8 199.8 L 230.4 199.8 Z" class="red"/>
<path d="M 230.4 220.2 L 230.4 220.2 L 460.8 220.2 L 460.8 259.8 L 230.4 259.8 Z" class="red"/>
</g>
<g>
<rect x="0" y="0" width="576" height="360" fill="url(#glaze)"/>
<path d="M 30 30 L 546 30 L 546 330 L 30 330 Z M 60 60 L 60 300 L 516 300 L 516 60 Z" fill="rgb(255,255,255)" opacity="0.4"/>
<path d="M 0 0 L 576 0 L 576 360 L 0 360 Z M 30 30 L 30 330 L 546 330 L 546 30 Z" fill="rgb(0,0,0)" opacity="0.4"/>
</g>
</svg>
