<?xml version="1.0"?>
<svg xmlns="http://www.w3.org/2000/svg" xmlns:xlink="http://www.w3.org/1999/xlink" version="1.1" width="576" height="360" viewBox="0 0 576 360">
<!-- Generated by Kreative Vexillo v1.0 -->
<style>
.o1{fill:rgb(255,92,32);}
.o2{fill:rgb(255,168,92);}
.o3{fill:rgb(255,220,117);}
.o4{fill:rgb(223,130,38);}
.white{fill:rgb(255,255,255);}
</style>
<defs>
<path id="sun" d="M 0.0 0.2541 C -0.1398 0.2541 -0.2534 0.14039999 -0.2534 6.9999695E-4 C -0.2534 -0.139 -0.1397 -0.2527 0.0 -0.2527 S 0.2534 -0.139 0.2534 6.9999695E-4 C 0.2535 0.1404 0.1398 0.2541 0.0 0.2541 Z M 0.0 -0.1926 C -0.1066 -0.1926 -0.1933 -0.1059 -0.1933 6.9999695E-4 C -0.1933 0.1073 -0.106599994 0.19399999 0.0 0.19399999 C 0.1066 0.19399999 0.1933 0.10729999 0.1933 6.9999695E-4 C 0.1933 -0.1059 0.1066 -0.1926 0.0 -0.1926 Z M 0.0301 -0.3322 V -0.45889997 C 0.0301 -0.4755 0.016599998 -0.48899996 0.0 -0.48899996 C -0.0166 -0.48899996 -0.0301 -0.47549996 -0.0301 -0.45889997 V -0.3322 C -0.0301 -0.31559998 -0.016599998 -0.3021 0.0 -0.3021 C 0.0166 -0.3021 0.0301 -0.3156 0.0301 -0.3322 Z M 0.0301 0.4589 V 0.3322 C 0.0301 0.31559998 0.016599998 0.3021 0.0 0.3021 C -0.0166 0.3021 -0.0301 0.3156 -0.0301 0.3322 V 0.45889997 C -0.0301 0.4755 -0.016599998 0.48899996 0.0 0.48899996 C 0.0166 0.489 0.0301 0.4755 0.0301 0.4589 Z M 0.489 0.0 C 0.489 -0.0166 0.4755 -0.0301 0.4589 -0.0301 H 0.3322 C 0.31559998 -0.0301 0.3021 -0.016599998 0.3021 0.0 S 0.3156 0.0301 0.3322 0.0301 H 0.45889997 C 0.4755 0.03 0.489 0.0166 0.489 0.0 Z M -0.3021 0.0 C -0.3021 -0.0166 -0.3156 -0.0301 -0.3322 -0.0301 H -0.45889997 C -0.4755 -0.0301 -0.48899996 -0.016599998 -0.48899996 0.0 S -0.47549996 0.0301 -0.45889997 0.0301 H -0.3322 C -0.3156 0.03 -0.3021 0.0166 -0.3021 0.0 Z M 0.3027 -0.1401 L 0.4124 -0.2035 C 0.4268 -0.21180001 0.43170002 -0.23020001 0.4234 -0.2446 C 0.4151 -0.259 0.39670002 -0.2639 0.38230002 -0.2556 L 0.2727 -0.1922 C 0.2583 -0.1839 0.2534 -0.1655 0.2617 -0.15110001 C 0.2673 -0.14150001 0.27740002 -0.13610001 0.2878 -0.13610001 C 0.2928 -0.1361 0.298 -0.1374 0.3027 -0.1401 Z M -0.3824 0.2555 L -0.2727 0.19209999 C -0.2583 0.18379998 -0.2534 0.16539998 -0.2617 0.151 C -0.27 0.13659999 -0.2884 0.1317 -0.3028 0.13999999 L -0.4125 0.20339999 C -0.4269 0.21169999 -0.4318 0.23009999 -0.4235 0.24449998 C -0.4179 0.2541 -0.4078 0.25949997 -0.3974 0.25949997 C -0.3923 0.2595 -0.3871 0.2582 -0.3824 0.2555 Z M 0.1921 -0.2727 L 0.25550002 -0.3824 C 0.26380002 -0.3968 0.25890002 -0.4152 0.24450001 -0.4235 C 0.2301 -0.4318 0.2117 -0.4269 0.20340002 -0.4125 L 0.14000002 -0.3028 C 0.13170001 -0.2884 0.13660002 -0.27 0.15100002 -0.2617 C 0.15570003 -0.259 0.16090003 -0.2577 0.16600002 -0.2577 C 0.1765 -0.2577 0.1866 -0.2631 0.1921 -0.2727 Z M -0.2034 0.4125 L -0.14 0.3028 C -0.1317 0.2884 -0.1366 0.27 -0.151 0.2617 C -0.1654 0.2534 -0.1838 0.2583 -0.19209999 0.2727 L -0.2555 0.3824 C -0.2638 0.3968 -0.2589 0.4152 -0.24449998 0.4235 C -0.23979998 0.4262 -0.23459998 0.4275 -0.22949998 0.4275 C -0.2191 0.4275 -0.209 0.4221 -0.2034 0.4125 Z M 0.2445 0.4235 C 0.2589 0.4152 0.2638 0.3968 0.2555 0.3824 L 0.19209999 0.2727 C 0.18379998 0.2583 0.16539998 0.2534 0.151 0.2617 C 0.13659999 0.27 0.1317 0.2884 0.13999999 0.3028 L 0.20339999 0.4125 C 0.20899999 0.4221 0.21909998 0.42749998 0.22949998 0.42749998 C 0.2346 0.4275 0.2398 0.4262 0.2445 0.4235 Z M -0.1511 -0.2617 C -0.13669999 -0.27 -0.1318 -0.2884 -0.1401 -0.3028 L -0.2035 -0.4125 C -0.21180001 -0.4269 -0.23020001 -0.4318 -0.2446 -0.4235 C -0.259 -0.4152 -0.2639 -0.3968 -0.2556 -0.3824 L -0.1922 -0.2727 C -0.1866 -0.2631 -0.17650001 -0.25770003 -0.16610001 -0.25770003 C -0.161 -0.2577 -0.1558 -0.259 -0.1511 -0.2617 Z M 0.4235 0.2445 C 0.4318 0.23009999 0.4269 0.21169999 0.4125 0.2034 L 0.3027 0.14 C 0.2883 0.1317 0.26990002 0.1366 0.26160002 0.151 C 0.2533 0.1654 0.25820002 0.1838 0.27260002 0.19209999 L 0.38230002 0.2555 C 0.38700002 0.2582 0.39220002 0.2595 0.3973 0.2595 C 0.4078 0.2595 0.4179 0.2541 0.4235 0.2445 Z M -0.2617 -0.1511 C -0.2534 -0.1655 -0.2583 -0.1839 -0.2727 -0.19219999 L -0.3824 -0.25559998 C -0.3968 -0.26389998 -0.4152 -0.25899997 -0.4235 -0.24459997 C -0.4318 -0.23019996 -0.4269 -0.21179996 -0.4125 -0.20349997 L -0.3028 -0.14009997 C -0.2981 -0.13739997 -0.2929 -0.13609998 -0.2878 -0.13609998 C -0.2773 -0.1361 -0.2672 -0.1415 -0.2617 -0.1511 Z"/>
<linearGradient id="glaze" x1="0%" y1="0%" x2="100%" y2="100%">
<stop offset="0%" stop-color="rgb(255,255,255)" stop-opacity="0.2"/>
<stop offset="49.999%" stop-color="rgb(255,255,255)" stop-opacity="0.0"/>
<stop offset="50.001%" stop-color="rgb(0,0,0)" stop-opacity="0.0"/>
<stop offset="100%" stop-color="rgb(0,0,0)" stop-opacity="0.2"/>
</linearGradient>
</defs>
<g>
<g>
<rect x="0" y="0" width="576" height="51.4286" class="o1"/>
<rect x="0" y="51.4286" width="576" height="51.4286" class="o2"/>
<rect x="0" y="102.8571" width="576" height="51.4286" class="o3"/>
<rect x="0" y="154.2857" width="576" height="51.4286" class="white"/>
<rect x="0" y="205.7143" width="576" height="51.4286" class="o3"/>
<rect x="0" y="257.1429" width="576" height="51.4286" class="o2"/>
<rect x="0" y="308.5714" width="576" height="51.4286" class="o1"/>
</g>
<use xlink:href="#sun" transform="translate(288 180) scale(216 216) rotate(0)" class="o4"/>
</g>
<g>
<rect x="0" y="0" width="576" height="360" fill="url(#glaze)"/>
<path d="M 30 30 L 546 30 L 546 330 L 30 330 Z M 60 60 L 60 300 L 516 300 L 516 60 Z" fill="rgb(255,255,255)" opacity="0.4"/>
<path d="M 0 0 L 576 0 L 576 360 L 0 360 Z M 30 30 L 30 330 L 546 330 L 546 30 Z" fill="rgb(0,0,0)" opacity="0.4"/>
</g>
</svg>
