<?xml version="1.0"?>
<svg xmlns="http://www.w3.org/2000/svg" xmlns:xlink="http://www.w3.org/1999/xlink" version="1.1" width="576" height="360" viewBox="0 0 576 360">
<!-- Generated by Kreative Vexillo v1.0 -->
<style>
.pink{fill:rgb(250,135,210);}
.red{fill:rgb(207,20,43);}
.white{fill:rgb(255,255,255);}
</style>
<defs>
<clipPath id="clip0">
<path d="M 0 0 L 0 28.3019 L 0 28.3019 L 242.7169 180 L 242.7169 180 L 0 331.6981 L 0 331.6981 L 0 360 L 45.2831 360 L 288 208.3019 L 288 208.3019 L 530.7169 360 L 576 360 L 576 331.6981 L 333.2831 180 L 333.2831 180 L 576 28.3019 L 576 0 L 530.7169 0 L 288 151.6981 L 288 151.6981 L 45.2831 0 Z"/>
</clipPath>
<linearGradient id="glaze" x1="0%" y1="0%" x2="100%" y2="100%">
<stop offset="0%" stop-color="rgb(255,255,255)" stop-opacity="0.2"/>
<stop offset="49.999%" stop-color="rgb(255,255,255)" stop-opacity="0.0"/>
<stop offset="50.001%" stop-color="rgb(0,0,0)" stop-opacity="0.0"/>
<stop offset="100%" stop-color="rgb(0,0,0)" stop-opacity="0.2"/>
</linearGradient>
</defs>
<g>
<rect x="0" y="0" width="576" height="360" class="pink"/>
<path d="M 0 0 L 0 42.4529 L 0 42.4529 L 220.0753 180 L 0 317.5471 L 0 317.5471 L 0 360 L 67.9247 360 L 288 222.4529 L 508.0753 360 L 576 360 L 576 317.5471 L 355.9247 180 L 576 42.4529 L 576 0 L 508.0753 0 L 288 137.5471 L 67.9247 0 Z" class="white"/>
<g clip-path="url(#clip0)">
<path d="M 0 0 L 288 180 L 0 180 Z" class="red"/>
<path d="M 576 0 L 288 180 L 288 0 Z" class="red"/>
<path d="M 0 360 L 288 180 L 288 360 Z" class="red"/>
<path d="M 576 360 L 288 180 L 576 180 Z" class="red"/>
</g>
<g>
<rect x="0" y="120" width="576" height="120" class="white"/>
<rect x="228" y="0" width="120" height="360" class="white"/>
</g>
<g>
<rect x="0" y="144" width="576" height="72" class="red"/>
<rect x="252" y="0" width="72" height="360" class="red"/>
</g>
</g>
<g>
<rect x="0" y="0" width="576" height="360" fill="url(#glaze)"/>
<path d="M 30 30 L 546 30 L 546 330 L 30 330 Z M 60 60 L 60 300 L 516 300 L 516 60 Z" fill="rgb(255,255,255)" opacity="0.4"/>
<path d="M 0 0 L 576 0 L 576 360 L 0 360 Z M 30 30 L 30 330 L 546 330 L 546 30 Z" fill="rgb(0,0,0)" opacity="0.4"/>
</g>
</svg>
