<?xml version="1.0"?>
<svg xmlns="http://www.w3.org/2000/svg" xmlns:xlink="http://www.w3.org/1999/xlink" version="1.1" width="576" height="360" viewBox="0 0 576 360">
<!-- Generated by Kreative Vexillo v1.0 -->
<style>
.black{fill:rgb(0,0,0);}
.blue{fill:rgb(12,28,140);}
.gold{fill:rgb(252,181,20);}
.green{fill:rgb(0,124,89);}
.red{fill:rgb(226,61,40);}
.white{fill:rgb(255,255,255);}
</style>
<defs>
<clipPath id="clip0">
<path d="M 0 0 L 288 180 L 0 360 Z"/>
</clipPath>
<clipPath id="clip1">
<path d="M 0 0 L 576 0 L 576 360 L 0 360 L 288 180 Z"/>
</clipPath>
<clipPath id="clip2">
<rect x="0" y="0" width="576" height="360"/>
</clipPath>
<linearGradient id="glaze" x1="0%" y1="0%" x2="100%" y2="100%">
<stop offset="0%" stop-color="rgb(255,255,255)" stop-opacity="0.2"/>
<stop offset="49.999%" stop-color="rgb(255,255,255)" stop-opacity="0.0"/>
<stop offset="50.001%" stop-color="rgb(0,0,0)" stop-opacity="0.0"/>
<stop offset="100%" stop-color="rgb(0,0,0)" stop-opacity="0.2"/>
</linearGradient>
</defs>
<g>
<g>
<rect x="0" y="0" width="576" height="180" class="red"/>
<rect x="0" y="180" width="576" height="180" class="blue"/>
</g>
<path d="M 0 0 L 288 180 L 0 360 Z" class="black"/>
<g clip-path="url(#clip0)">
<path d="M -31.7882 50.8872 L 256.2118 230.8872 L 319.7882 129.1128 L 31.7882 -50.8872 L -31.7882 50.8872 Z" class="gold"/>
<path d="M 256.2118 129.1128 L -31.7882 309.1128 L 31.7882 410.8872 L 319.7882 230.8872 L 256.2118 129.1128 Z" class="gold"/>
</g>
<g clip-path="url(#clip1)">
<path d="M -31.7882 50.8872 L 256.2118 230.8872 L 319.7882 129.1128 L 31.7882 -50.8872 L -31.7882 50.8872 Z" class="white"/>
<path d="M 256.2118 129.1128 L -31.7882 309.1128 L 31.7882 410.8872 L 319.7882 230.8872 L 256.2118 129.1128 Z" class="white"/>
<path d="M 288 240 L 576 240 L 576 120 L 288 120 L 288 240 Z" class="white"/>
</g>
<g clip-path="url(#clip2)">
<path d="M -19.0729 30.5323 L 268.9271 210.5323 L 307.0729 149.4677 L 19.0729 -30.5323 L -19.0729 30.5323 Z" class="green"/>
<path d="M 268.9271 149.4677 L -19.0729 329.4677 L 19.0729 390.5323 L 307.0729 210.5323 L 268.9271 149.4677 Z" class="green"/>
<path d="M 288 216 L 576 216 L 576 144 L 288 144 L 288 216 Z" class="green"/>
</g>
</g>
<g>
<rect x="0" y="0" width="576" height="360" fill="url(#glaze)"/>
<path d="M 30 30 L 546 30 L 546 330 L 30 330 Z M 60 60 L 60 300 L 516 300 L 516 60 Z" fill="rgb(255,255,255)" opacity="0.4"/>
<path d="M 0 0 L 576 0 L 576 360 L 0 360 Z M 30 30 L 30 330 L 546 330 L 546 30 Z" fill="rgb(0,0,0)" opacity="0.4"/>
</g>
</svg>
