<?xml version="1.0"?>
<svg xmlns="http://www.w3.org/2000/svg" xmlns:xlink="http://www.w3.org/1999/xlink" version="1.1" width="450" height="360" viewBox="0 0 450 360">
<!-- Generated by Kreative Vexillo v1.0 -->
<style>
.blue{fill:rgb(0,36,149);}
.white{fill:rgb(255,255,255);}
</style>
<defs>
<path id="fleurdelis" d="M 0.245 0.181 C 0.261 0.15699999 0.26 0.105 0.228 0.085999995 C 0.203 0.07399999 0.176 0.078999996 0.163 0.088999994 C 0.142 0.102 0.122 0.14199999 0.122 0.183 L 0.194 0.183 L 0.194 0.264 L 0.044 0.264 C 0.046 0.305 0.069 0.339 0.111 0.357 C 0.106 0.37399998 0.08 0.41 0.045 0.408 C 0.038000003 0.44599998 0.032 0.467 0.0 0.501 C -0.031 0.46699998 -0.038 0.44599998 -0.045 0.408 C -0.08 0.41 -0.105000004 0.375 -0.111 0.357 C -0.069000006 0.339 -0.046000004 0.305 -0.044 0.264 L -0.194 0.264 V 0.183 L -0.12200001 0.183 C -0.12200001 0.14199999 -0.142 0.102 -0.16300002 0.089 C -0.17600001 0.078 -0.20400003 0.074 -0.22800002 0.086 C -0.26000002 0.104 -0.26200002 0.157 -0.24500002 0.181 C -0.397 0.153 -0.38200003 0.0059999973 -0.33 -0.047000006 C -0.28800002 -0.09 -0.24300002 -0.097 -0.20700002 -0.083000004 C -0.12700002 -0.054000005 -0.073000014 0.040999994 -0.07100001 0.18399999 H -0.02900001 C -0.02900001 0.05399999 -0.05200001 0.012999982 -0.110000014 -0.15 C -0.14000002 -0.227 -0.122000016 -0.32200003 -0.06900001 -0.409 C -0.050000012 -0.44 -0.026000012 -0.469 9.999871E-4 -0.499 C 0.027999988 -0.469 0.051999986 -0.44 0.07099999 -0.409 C 0.12399998 -0.321 0.14199999 -0.22600001 0.11199999 -0.15 C 0.05299999 0.012999997 0.030999988 0.05399999 0.030999988 0.18399999 H 0.072999984 C 0.07599998 0.04199998 0.12899998 -0.05400002 0.20899999 -0.083000004 C 0.24399999 -0.097 0.29 -0.09 0.332 -0.047000006 C 0.384 0.0059999935 0.399 0.153 0.24699998 0.181 Z"/>
<linearGradient id="glaze" x1="0%" y1="0%" x2="100%" y2="100%">
<stop offset="0%" stop-color="rgb(255,255,255)" stop-opacity="0.2"/>
<stop offset="49.999%" stop-color="rgb(255,255,255)" stop-opacity="0.0"/>
<stop offset="50.001%" stop-color="rgb(0,0,0)" stop-opacity="0.0"/>
<stop offset="100%" stop-color="rgb(0,0,0)" stop-opacity="0.2"/>
</linearGradient>
</defs>
<g>
<rect x="0" y="0" width="450" height="360" class="blue"/>
<g>
<rect x="0" y="135" width="450" height="90" class="white"/>
<rect x="180" y="0" width="90" height="360" class="white"/>
</g>
<use xlink:href="#fleurdelis" transform="translate(90 67.5) scale(90 90) rotate(0)" class="white"/>
<use xlink:href="#fleurdelis" transform="translate(360 67.5) scale(90 90) rotate(0)" class="white"/>
<use xlink:href="#fleurdelis" transform="translate(90 292.5) scale(90 90) rotate(0)" class="white"/>
<use xlink:href="#fleurdelis" transform="translate(360 292.5) scale(90 90) rotate(0)" class="white"/>
</g>
<g>
<rect x="0" y="0" width="450" height="360" fill="url(#glaze)"/>
<path d="M 30 30 L 420 30 L 420 330 L 30 330 Z M 60 60 L 60 300 L 390 300 L 390 60 Z" fill="rgb(255,255,255)" opacity="0.4"/>
<path d="M 0 0 L 450 0 L 450 360 L 0 360 Z M 30 30 L 30 330 L 420 330 L 420 30 Z" fill="rgb(0,0,0)" opacity="0.4"/>
</g>
</svg>
