<?xml version="1.0"?>
<svg xmlns="http://www.w3.org/2000/svg" xmlns:xlink="http://www.w3.org/1999/xlink" version="1.1" width="450" height="360" viewBox="0 0 450 360">
<!-- Generated by Kreative Vexillo v1.0 -->
<style>
.green{fill:rgb(0,155,72);}
.red{fill:rgb(213,43,30);}
.white{fill:rgb(255,255,255);}
</style>
<defs>
<linearGradient id="glaze" x1="0%" y1="0%" x2="100%" y2="100%">
<stop offset="0%" stop-color="rgb(255,255,255)" stop-opacity="0.2"/>
<stop offset="49.999%" stop-color="rgb(255,255,255)" stop-opacity="0.0"/>
<stop offset="50.001%" stop-color="rgb(0,0,0)" stop-opacity="0.0"/>
<stop offset="100%" stop-color="rgb(0,0,0)" stop-opacity="0.2"/>
</linearGradient>
</defs>
<g>
<rect x="0" y="0" width="450" height="360" class="red"/>
<path d="M 0 0 L 0 35.4001 L 0 35.4001 L 180.7498 180 L 180.7498 180 L 0 324.5999 L 0 360 L 44.2502 360 L 225 215.4001 L 225 215.4001 L 405.7498 360 L 450 360 L 450 324.5999 L 269.2502 180 L 450 35.4001 L 450 0 L 405.7498 0 L 225 144.5999 L 225 144.5999 L 225 144.5999 L 225 144.5999 L 225 144.5999 L 225 144.5999 L 44.2502 0 Z" class="green"/>
<g>
<rect x="0" y="152.3571" width="450" height="55.2857" class="white"/>
<rect x="197.3571" y="0" width="55.2857" height="360" class="white"/>
</g>
</g>
<g>
<rect x="0" y="0" width="450" height="360" fill="url(#glaze)"/>
<path d="M 30 30 L 420 30 L 420 330 L 30 330 Z M 60 60 L 60 300 L 390 300 L 390 60 Z" fill="rgb(255,255,255)" opacity="0.4"/>
<path d="M 0 0 L 450 0 L 450 360 L 0 360 Z M 30 30 L 30 330 L 420 330 L 420 30 Z" fill="rgb(0,0,0)" opacity="0.4"/>
</g>
</svg>
