<?xml version="1.0"?>
<svg xmlns="http://www.w3.org/2000/svg" xmlns:xlink="http://www.w3.org/1999/xlink" version="1.1" width="450" height="360" viewBox="0 0 450 360">
<!-- Generated by Kreative Vexillo v1.0 -->
<style>
.blue{fill:rgb(0,43,127);}
.red{fill:rgb(232,17,45);}
.white{fill:rgb(255,255,255);}
</style>
<defs>
<path id="star5" d="M 0.0 -1.0 L 0.261238 -0.359563 L 0.951057 -0.309017 L 0.422691 0.137341 L 0.587785 0.809017 L 0.0 0.444444 L -0.587785 0.809017 L -0.422691 0.137341 L -0.951057 -0.309017 L -0.261238 -0.359563 Z"/>
<path id="star7" d="M 0.0 -1.0 L 0.192837 -0.40043 L 0.781831 -0.62349 L 0.433301 -0.098898 L 0.974928 0.222521 L 0.34748 0.277106 L 0.433884 0.900969 L 0.0 0.444444 L -0.433884 0.900969 L -0.34748 0.277106 L -0.974928 0.222521 L -0.433301 -0.098898 L -0.781831 -0.62349 L -0.192837 -0.40043 Z"/>
<clipPath id="clip0">
<path d="M 0 0 L 0 15.3675 L 0 15.3675 L 93.2906 90 L 0 164.6325 L 0 164.6325 L 0 180 L 19.2094 180 L 112.5 105.3675 L 112.5 105.3675 L 112.5 105.3675 L 112.5 105.3675 L 112.5 105.3675 L 112.5 105.3675 L 205.7906 180 L 225 180 L 225 164.6325 L 225 164.6325 L 131.7094 90 L 225 15.3675 L 225 0 L 205.7906 0 L 112.5 74.6325 L 112.5 74.6325 L 19.2094 0 Z"/>
</clipPath>
<linearGradient id="glaze" x1="0%" y1="0%" x2="100%" y2="100%">
<stop offset="0%" stop-color="rgb(255,255,255)" stop-opacity="0.2"/>
<stop offset="49.999%" stop-color="rgb(255,255,255)" stop-opacity="0.0"/>
<stop offset="50.001%" stop-color="rgb(0,0,0)" stop-opacity="0.0"/>
<stop offset="100%" stop-color="rgb(0,0,0)" stop-opacity="0.2"/>
</linearGradient>
</defs>
<g>
<rect x="0" y="0" width="450" height="360" class="blue"/>
<g>
<path d="M 0 0 L 0 23.0512 L 0 23.0512 L 83.6859 90 L 0 156.9488 L 0 156.9488 L 0 180 L 28.8141 180 L 112.5 113.0512 L 112.5 113.0512 L 196.1859 180 L 225 180 L 225 156.9488 L 141.3141 90 L 225 23.0512 L 225 0 L 196.1859 0 L 112.5 66.9488 L 28.8141 0 Z" class="white"/>
<g clip-path="url(#clip0)">
<path d="M 0 0 L 112.5 90 L 0 90 Z" class="red"/>
<path d="M 225 0 L 112.5 90 L 112.5 0 Z" class="red"/>
<path d="M 0 180 L 112.5 90 L 112.5 180 Z" class="red"/>
<path d="M 225 180 L 112.5 90 L 225 90 Z" class="red"/>
</g>
<g>
<rect x="0" y="60" width="225" height="60" class="white"/>
<rect x="82.5" y="0" width="60" height="180" class="white"/>
</g>
<g>
<rect x="0" y="72" width="225" height="36" class="red"/>
<rect x="94.5" y="0" width="36" height="180" class="red"/>
</g>
</g>
<g>
<use xlink:href="#star7" transform="translate(112.5 270) scale(33.75 33.75) rotate(0)" class="white"/>
<use xlink:href="#star7" transform="translate(337.5 300) scale(16.0714 16.0714) rotate(0)" class="white"/>
<use xlink:href="#star7" transform="translate(281.25 157.5) scale(16.0714 16.0714) rotate(0)" class="white"/>
<use xlink:href="#star7" transform="translate(337.5 60) scale(16.0714 16.0714) rotate(0)" class="white"/>
<use xlink:href="#star7" transform="translate(387.5 133.5) scale(16.0714 16.0714) rotate(0)" class="white"/>
<use xlink:href="#star5" transform="translate(360 195) scale(9.375 9.375) rotate(0)" class="white"/>
</g>
</g>
<g>
<rect x="0" y="0" width="450" height="360" fill="url(#glaze)"/>
<path d="M 30 30 L 420 30 L 420 330 L 30 330 Z M 60 60 L 60 300 L 390 300 L 390 60 Z" fill="rgb(255,255,255)" opacity="0.4"/>
<path d="M 0 0 L 450 0 L 450 360 L 0 360 Z M 30 30 L 30 330 L 420 330 L 420 30 Z" fill="rgb(0,0,0)" opacity="0.4"/>
</g>
</svg>
