<?xml version="1.0"?>
<svg xmlns="http://www.w3.org/2000/svg" xmlns:xlink="http://www.w3.org/1999/xlink" version="1.1" width="450" height="360" viewBox="0 0 450 360">
<!-- Generated by Kreative Vexillo v1.0 -->
<style>
.red{fill:rgb(238,0,0);}
.white{fill:rgb(255,255,255);}
</style>
<defs>
<path id="e" d="M 0.0 -0.5 C -0.2761 -0.5 -0.5 -0.27609998 -0.5 0.0 S -0.2761 0.5 0.0 0.5 C 0.2761 0.5 0.5 0.27609998 0.5 0.0 C 0.5 -0.2761 0.2761 -0.5 0.0 -0.5 L 0.0 -0.5 Z M 0.0 -0.449 C 0.1888 -0.449 0.3419 -0.29250002 0.3419 -0.0995 C 0.3419 0.0935 0.18879999 0.25 0.0 0.25 H 0.0 C -0.1888 0.25 -0.3419 0.0935 -0.3419 -0.0995 C -0.3419 -0.0995 -0.3419 -0.0995 -0.3419 -0.0995 C -0.3419 -0.2925 -0.1888 -0.449 0.0 -0.449 Z M 0.0 -0.4009 C -0.1241 -0.4009 -0.2247 -0.3005 -0.2247 -0.17660001 S -0.1241 0.0477 0.0 0.0477 S 0.2247 -0.0527 0.2247 -0.1766 S 0.1241 -0.4009 0.0 -0.4009 L 0.0 -0.4009 Z"/>
<linearGradient id="glaze" x1="0%" y1="0%" x2="100%" y2="100%">
<stop offset="0%" stop-color="rgb(255,255,255)" stop-opacity="0.2"/>
<stop offset="49.999%" stop-color="rgb(255,255,255)" stop-opacity="0.0"/>
<stop offset="50.001%" stop-color="rgb(0,0,0)" stop-opacity="0.0"/>
<stop offset="100%" stop-color="rgb(0,0,0)" stop-opacity="0.2"/>
</linearGradient>
</defs>
<g>
<rect x="0" y="0" width="450" height="360" class="white"/>
<use xlink:href="#e" transform="translate(225 180) scale(256.5 256.5) rotate(0)" class="red"/>
</g>
<g>
<rect x="0" y="0" width="450" height="360" fill="url(#glaze)"/>
<path d="M 30 30 L 420 30 L 420 330 L 30 330 Z M 60 60 L 60 300 L 390 300 L 390 60 Z" fill="rgb(255,255,255)" opacity="0.4"/>
<path d="M 0 0 L 450 0 L 450 360 L 0 360 Z M 30 30 L 30 330 L 420 330 L 420 30 Z" fill="rgb(0,0,0)" opacity="0.4"/>
</g>
</svg>
