<?xml version="1.0"?>
<svg xmlns="http://www.w3.org/2000/svg" xmlns:xlink="http://www.w3.org/1999/xlink" version="1.1" width="450" height="360" viewBox="0 0 450 360">
<!-- Generated by Kreative Vexillo v1.0 -->
<style>
.black{fill:rgb(0,0,0);}
.green{fill:rgb(5,139,8);}
.red{fill:rgb(234,0,1);}
.white{fill:rgb(255,255,255);}
</style>
<defs>
<path id="hummingbirdk" d="M -0.0698 0.4906 C -0.0694 0.4921 -0.0647 0.51 -0.076 0.52169997 C -0.085099995 0.5308 -0.0994 0.5312 -0.108899996 0.5279 C -0.1257 0.52239996 -0.1326 0.5038 -0.15089999 0.4432 C -0.1575 0.4209 -0.1651 0.39499998 -0.1732 0.36609998 C -0.1721 0.38619998 -0.1695 0.40039998 -0.1674 0.40989998 C -0.1663 0.41459998 -0.16340001 0.4256 -0.1681 0.42889997 C -0.1681 0.42889997 -0.1699 0.42999998 -0.1725 0.42959997 C -0.178 0.42889997 -0.1878 0.39639997 -0.2076 0.26489997 C -0.21599999 0.23639996 -0.23099999 0.17249997 -0.21159999 0.094699964 C -0.19409999 0.023799963 -0.1564 -0.023300037 -0.13669999 -0.045200035 C -0.17689998 -0.031300034 -0.19839999 -0.026900034 -0.20169999 -0.032800034 C -0.20389998 -0.036800034 -0.19729999 -0.045200035 -0.18229999 -0.058400035 C -0.20859998 -0.043800034 -0.232 -0.039400034 -0.24109998 -0.048900034 C -0.24259998 -0.050400034 -0.24399999 -0.052600034 -0.24479999 -0.055800036 L -0.20749998 -0.09960003 C -0.21479999 -0.10400003 -0.30069998 -0.15800004 -0.28929996 -0.18980002 C -0.28819996 -0.19240002 -0.28669995 -0.19490002 -0.28419995 -0.19750002 C -0.26739997 -0.19310002 -0.25099996 -0.18840002 -0.23419996 -0.18400002 C -0.24409996 -0.18980001 -0.25209996 -0.19570002 -0.25829995 -0.20010002 C -0.28129995 -0.21730003 -0.29039994 -0.22970001 -0.29409996 -0.23480001 C -0.29449996 -0.23550001 -0.29479995 -0.23590001 -0.29519996 -0.23660001 C -0.29149997 -0.23660001 -0.28749996 -0.23660001 -0.28279996 -0.23550001 C -0.27549997 -0.23400001 -0.26929995 -0.23150001 -0.26529995 -0.2293 C -0.27919996 -0.2414 -0.29049996 -0.2527 -0.29929996 -0.2629 C -0.31389996 -0.27969998 -0.33729994 -0.30969998 -0.33289996 -0.314 C -0.33249995 -0.31440002 -0.33179995 -0.3147 -0.32849997 -0.314 C -0.3223 -0.3133 -0.3135 -0.3114 -0.30329996 -0.3071 C -0.34929997 -0.3491 -0.36979997 -0.3736 -0.36429995 -0.3813 C -0.36319995 -0.3828 -0.36169994 -0.3835 -0.35919994 -0.38390002 L -0.32739994 -0.3707 C -0.37959993 -0.4204 -0.41909993 -0.454 -0.44649994 -0.4763 C -0.45889995 -0.4865 -0.49869993 -0.5183 -0.49329993 -0.52820003 V -0.52860004 C -0.49329993 -0.52860004 -0.49289992 -0.52930003 -0.49179992 -0.52970004 C -0.47319993 -0.53480005 -0.41549993 -0.49900004 -0.41549993 -0.49900004 C -0.38589993 -0.48070005 -0.37089992 -0.46980006 -0.35889992 -0.46060005 C -0.35229993 -0.45550004 -0.34469992 -0.44930005 -0.34279993 -0.44780004 C -0.33619994 -0.44230005 -0.32309994 -0.43170005 -0.30769992 -0.41750005 C -0.30109993 -0.41130006 -0.29349992 -0.40430003 -0.29089993 -0.40180004 C -0.28649992 -0.39780003 -0.28359994 -0.39490002 -0.28249994 -0.39380005 C -0.28249994 -0.39380005 -0.27629995 -0.38800004 -0.27009994 -0.38170004 C -0.24489994 -0.35650003 -0.20839994 -0.31780005 -0.20839994 -0.31780005 C -0.16639994 -0.27250004 -0.13609993 -0.24000004 -0.09629994 -0.20240004 C -0.09189994 -0.19840005 -0.08169994 -0.18850005 -0.07329994 -0.18080005 C -0.065299936 -0.17350005 -0.06339994 -0.17170005 -0.060499936 -0.16950005 C -0.060499936 -0.16950005 -0.045199938 -0.15640005 -0.032699935 -0.15120006 C -0.032299936 -0.15120006 -0.024299935 -0.14830005 -0.023899935 -0.14830005 C -0.017699935 -0.14720005 -0.016999936 -0.28890005 0.049500063 -0.33350006 C 0.07320006 -0.34960005 0.10360006 -0.35140005 0.10580006 -0.35180005 C 0.13100006 -0.35330006 0.13650006 -0.34450006 0.17590007 -0.33860004 C 0.19090007 -0.33640003 0.21830007 -0.33240005 0.25150007 -0.33710003 C 0.26760006 -0.33930004 0.27230006 -0.34180003 0.30230007 -0.3503 C 0.33770007 -0.3598 0.36440006 -0.36560002 0.38600007 -0.37 C 0.46050006 -0.38570002 0.49160007 -0.3853 0.49340007 -0.381 C 0.49380007 -0.38030002 0.49340007 -0.3799 0.49340007 -0.3799 C 0.49300006 -0.3759 0.48130006 -0.3748 0.46970007 -0.373 C 0.46020007 -0.3719 0.45110008 -0.37039998 0.44160005 -0.369 C 0.38500005 -0.3613 0.31630003 -0.3394 0.31630003 -0.3394 C 0.26550004 -0.32299998 0.23370004 -0.3073 0.21990004 -0.2999 C 0.21990004 -0.2999 0.17130004 -0.2747 0.15490004 -0.2418 C 0.15310004 -0.23809999 0.15160005 -0.2341 0.15160005 -0.2341 C 0.14940006 -0.2294 0.14720005 -0.2217 0.14580005 -0.2125 C 0.14250006 -0.1869 0.15270005 -0.1709 0.15900005 -0.1478 C 0.16670005 -0.1189 0.16410005 -0.0945 0.16230005 -0.0813 C 0.15790005 -0.042899996 0.13970006 -0.015499994 0.13090006 -0.002399996 C 0.067000054 0.09330001 -0.12439993 0.15470001 -0.16169995 0.254 C -0.1786 0.2966 -0.1739 0.3682 -0.0698 0.4906 L -0.0698 0.4906 Z M -0.0899 -0.2977 C -0.1012 -0.32729998 -0.1111 -0.3525 -0.1279 -0.3843 C -0.1604 -0.44529998 -0.2042 -0.50119996 -0.2137 -0.4964 C -0.21519999 -0.4957 -0.2159 -0.49379998 -0.2159 -0.4931 C -0.21810001 -0.4869 -0.21010001 -0.4825 -0.2049 -0.46969998 C -0.2031 -0.46499997 -0.2023 -0.4613 -0.2009 -0.4547 C -0.1991 -0.4459 -0.19870001 -0.43899998 -0.1983 -0.4368 C -0.19680001 -0.4145 -0.1946 -0.3926 -0.1932 -0.3703 C -0.1921 -0.3561 -0.17490001 -0.3298 -0.1421 -0.27679998 C -0.10960001 -0.22419998 -0.08840001 -0.19639999 -0.052200004 -0.17709997 C -0.051800005 -0.17669997 -0.051100004 -0.17669997 -0.051100004 -0.17639998 C -0.0588 -0.2068 -0.0709 -0.2488 -0.0899 -0.2977 Z M -0.366 -0.0099 C -0.4003 -4.0000025E-4 -0.4365 0.016 -0.435 0.0201 C -0.4346 0.0208 -0.4317 0.0223 -0.42880002 0.0219 L -0.4266 0.0212 C -0.4226 0.0186 -0.40980002 0.0175 -0.3959 0.0201 C -0.3912 0.0208 -0.3912 0.0212 -0.38750002 0.021599999 C -0.38130003 0.0223 -0.3743 0.021599999 -0.3718 0.0212 C -0.3634 0.0201 -0.3565 0.0175 -0.3481 0.014599999 C -0.3481 0.014599999 -0.34080002 0.011999999 -0.324 0.005499999 C -0.3225 0.0047999993 -0.3211 0.004399999 -0.3211 0.004399999 C -0.3189 0.003299999 -0.3171 0.002599999 -0.3164 0.002199999 C -0.3153 0.001799999 -0.31379998 0.0010999991 -0.31199998 3.999991E-4 L -0.30619997 -0.0025000009 L -0.30329996 -0.0040000007 C -0.29819995 -0.006600001 -0.29089996 -0.010200001 -0.28429997 -0.016400002 C -0.28319997 -0.017100003 -0.28209996 -0.018600002 -0.28029996 -0.020800002 C -0.3174 -0.0208 -0.3463 -0.0153 -0.366 -0.0099 L -0.366 -0.0099 Z M -0.2601 0.0753 C -0.2831 0.093600005 -0.3167 0.1272 -0.3098 0.1385 C -0.3083 0.14070001 -0.3058 0.14140001 -0.3051 0.1418 C -0.2938 0.1447 -0.2792 0.1243 -0.26889998 0.11 C -0.26119998 0.0994 -0.25139996 0.0833 -0.24219997 0.0625 C -0.2458 0.065 -0.2524 0.069 -0.2601 0.0753 L -0.2601 0.0753 Z"/>
<path id="hummingbirdw" d="M -0.0665 0.4942 C -0.0661 0.4957 -0.0614 0.5136 -0.0727 0.52529997 C -0.0818 0.5344 -0.0961 0.5348 -0.1056 0.5315 C -0.1224 0.52599996 -0.1293 0.5074 -0.1476 0.4468 C -0.15419999 0.4245 -0.1618 0.39859998 -0.1699 0.36969998 C -0.1688 0.38979998 -0.1662 0.40399998 -0.1641 0.41349998 C -0.163 0.4182 -0.16010001 0.4292 -0.1648 0.43249997 C -0.1648 0.43249997 -0.1666 0.43359998 -0.1692 0.43319997 C -0.1747 0.43249997 -0.18450001 0.39999998 -0.2043 0.26849997 C -0.2127 0.23999996 -0.2277 0.17609997 -0.2083 0.098299965 C -0.1908 0.027399965 -0.1531 -0.019700035 -0.1334 -0.041600034 C -0.17359999 -0.027700033 -0.1951 -0.023300033 -0.19839999 -0.029200032 C -0.2006 -0.033200033 -0.19399999 -0.041600034 -0.17899999 -0.054800034 C -0.20529999 -0.040200032 -0.22869998 -0.035800032 -0.23779999 -0.045300033 C -0.23929998 -0.046800032 -0.24069999 -0.049000032 -0.24149999 -0.052200034 L -0.20419998 -0.09600003 C -0.21149999 -0.10040003 -0.2974 -0.15440004 -0.28599998 -0.18620002 C -0.28489998 -0.18880002 -0.28339997 -0.19130002 -0.28089997 -0.19390002 C -0.2641 -0.18950002 -0.24769998 -0.18480001 -0.23089997 -0.18040001 C -0.24079998 -0.18620001 -0.24879998 -0.19210002 -0.25499997 -0.19650002 C -0.27799997 -0.21370003 -0.28709996 -0.22610001 -0.29079998 -0.23120001 C -0.29119998 -0.2319 -0.29149997 -0.23230001 -0.29189998 -0.23300001 C -0.2882 -0.23300001 -0.28419998 -0.23300001 -0.27949998 -0.2319 C -0.2722 -0.23040001 -0.26599997 -0.22790001 -0.26199996 -0.2257 C -0.25139996 -0.221 -0.23939997 -0.21620001 -0.23679997 -0.21990001 C -0.23279998 -0.22540002 -0.25289997 -0.24840002 -0.26709998 -0.2619 C -0.29819998 -0.2919 -0.33139998 -0.30760002 -0.32989997 -0.3105 C -0.32949996 -0.3109 -0.32879996 -0.3112 -0.32549995 -0.3105 C -0.31929997 -0.3098 -0.31049997 -0.30789998 -0.30029994 -0.30359998 C -0.34629995 -0.34559998 -0.36679995 -0.3701 -0.36129993 -0.3778 C -0.36019993 -0.3793 -0.35869992 -0.38 -0.35619992 -0.3804 C -0.33759993 -0.3727 -0.31889993 -0.3647 -0.3002999 -0.357 C -0.34489992 -0.3921 -0.39049992 -0.4308 -0.4368999 -0.47349998 C -0.4551999 -0.49069998 -0.4730999 -0.5075 -0.4901999 -0.52459997 V -0.525 C -0.4901999 -0.525 -0.4897999 -0.5257 -0.48869988 -0.5261 C -0.4700999 -0.5312 -0.4123999 -0.49539998 -0.4123999 -0.49539998 C -0.3827999 -0.47709998 -0.36779988 -0.4662 -0.35579988 -0.457 C -0.34589988 -0.4497 -0.34119987 -0.4457 -0.3396999 -0.44419998 C -0.3286999 -0.43109998 -0.3400999 -0.41789997 -0.3301999 -0.4069 C -0.3254999 -0.40179998 -0.3180999 -0.3996 -0.3031999 -0.39479998 C -0.2940999 -0.39219996 -0.2863999 -0.39079997 -0.28569987 -0.38709998 C -0.28529987 -0.38529998 -0.28749987 -0.38309997 -0.2889999 -0.38199997 C -0.2918999 -0.36699998 -0.2893999 -0.35829997 -0.28569987 -0.35279998 C -0.27289987 -0.33159998 -0.23779988 -0.3367 -0.23129988 -0.31809998 C -0.22909987 -0.3119 -0.23089987 -0.30529997 -0.23279987 -0.30089998 C -0.13889986 -0.23659998 -0.10569987 -0.20809999 -0.09799987 -0.19609998 C -0.09689987 -0.19429998 -0.090699874 -0.18329999 -0.07829987 -0.17309998 C -0.07169987 -0.16759998 -0.06589987 -0.16429998 -0.06149987 -0.16209999 C -0.061099872 -0.16059999 -0.05969987 -0.15299998 -0.05269987 -0.14819999 C -0.04609987 -0.14379999 -0.036999874 -0.14349999 -0.029699871 -0.14779998 C -0.029299872 -0.14779998 -0.027499871 -0.14709999 -0.02679987 -0.14669998 C -0.02389987 -0.14559998 -0.02129987 -0.14489998 -0.020999871 -0.14489998 C -0.014799871 -0.14379998 -0.014099872 -0.2855 0.052400127 -0.3301 C 0.076100126 -0.3462 0.10650013 -0.348 0.10870013 -0.3484 C 0.13390012 -0.3499 0.13940012 -0.3411 0.17880014 -0.3352 C 0.19380014 -0.333 0.22120014 -0.32900003 0.25440013 -0.3337 C 0.27050012 -0.3359 0.27520013 -0.3384 0.30520013 -0.3469 C 0.34060013 -0.35639998 0.36730012 -0.3622 0.38890013 -0.36659998 C 0.46340013 -0.3823 0.49450013 -0.38189998 0.49630013 -0.37759998 C 0.49670014 -0.3769 0.49630013 -0.37649998 0.49630013 -0.37649998 C 0.49590012 -0.37249997 0.48420012 -0.37139997 0.47260013 -0.36959997 C 0.46310014 -0.36849996 0.45400015 -0.36699995 0.44450012 -0.36559996 C 0.3879001 -0.35789996 0.3192001 -0.33599997 0.3192001 -0.33599997 C 0.2684001 -0.31959996 0.2366001 -0.30389997 0.2228001 -0.29649997 C 0.2228001 -0.29649997 0.1742001 -0.27129996 0.15780011 -0.23839997 C 0.15600011 -0.23469996 0.15450011 -0.23069997 0.15450011 -0.23069997 C 0.15230012 -0.22599997 0.15010011 -0.21829997 0.14870012 -0.20909998 C 0.14540012 -0.18349998 0.15560012 -0.16749997 0.16190012 -0.14439997 C 0.16960011 -0.11549997 0.16700011 -0.09109997 0.16520011 -0.07789997 C 0.16080011 -0.03949997 0.14260012 -0.012099966 0.13380012 0.0010000318 C 0.070200115 0.09630003 -0.12229988 0.15770003 -0.1591999 0.25740004 C -0.1746 0.3006 -0.1695 0.3719 -0.0665 0.4942 Z M -0.0862 -0.2941 C -0.0975 -0.32369998 -0.1074 -0.3489 -0.1242 -0.3807 C -0.1567 -0.44169998 -0.20050001 -0.4976 -0.21000001 -0.4928 C -0.2115 -0.4921 -0.21220002 -0.49019998 -0.21220002 -0.4895 C -0.21440002 -0.4833 -0.20640002 -0.4789 -0.20120001 -0.46609998 C -0.19940001 -0.46139997 -0.19860001 -0.45769998 -0.19720002 -0.4511 C -0.19540001 -0.4423 -0.19500002 -0.43539998 -0.19460002 -0.4332 C -0.19310002 -0.4109 -0.19090001 -0.389 -0.18950002 -0.3667 C -0.18840002 -0.3525 -0.17120002 -0.3262 -0.13840002 -0.27319998 C -0.10590002 -0.22059998 -0.08470002 -0.19279999 -0.048500016 -0.17349997 C -0.048100017 -0.17309996 -0.047400016 -0.17309996 -0.047400016 -0.17279997 C -0.0552 -0.2031 -0.0672 -0.2451 -0.0862 -0.2941 Z M -0.3624 -0.0062 C -0.3967 0.0032999995 -0.4329 0.0197 -0.4314 0.023799999 C -0.431 0.0245 -0.4281 0.025999999 -0.42520002 0.0256 L -0.423 0.024899999 C -0.419 0.0223 -0.40620002 0.0212 -0.3923 0.023799999 C -0.3876 0.0245 -0.3876 0.024899999 -0.38390002 0.025299998 C -0.37770003 0.025999999 -0.3707 0.025299998 -0.3682 0.024899999 C -0.3598 0.023799999 -0.3529 0.0212 -0.3445 0.018299999 C -0.3445 0.018299999 -0.33720002 0.0157 -0.3204 0.009199998 C -0.3189 0.008499999 -0.3175 0.008099998 -0.3175 0.008099998 C -0.3153 0.0069999984 -0.3135 0.0062999986 -0.3128 0.0058999984 C -0.3117 0.0054999986 -0.31019998 0.0047999984 -0.30839998 0.0040999986 L -0.30259997 0.0011999987 L -0.29969996 -3.0000135E-4 C -0.29459995 -0.0029000014 -0.28729996 -0.0065000015 -0.28069997 -0.012700002 C -0.27959996 -0.013400001 -0.27849996 -0.014900002 -0.27669996 -0.017100003 C -0.3138 -0.0172 -0.3426 -0.0117 -0.3624 -0.0062 L -0.3624 -0.0062 Z M -0.2564 0.0789 C -0.2794 0.097200006 -0.313 0.13080001 -0.30609998 0.1421 C -0.30459997 0.14430001 -0.30209997 0.14500001 -0.30139998 0.1454 C -0.29009998 0.1483 -0.27549997 0.1279 -0.26519996 0.1136 C -0.25749996 0.103 -0.24769996 0.0869 -0.23849995 0.0661 C -0.2422 0.0687 -0.2488 0.0727 -0.2564 0.0789 L -0.2564 0.0789 Z"/>
<linearGradient id="glaze" x1="0%" y1="0%" x2="100%" y2="100%">
<stop offset="0%" stop-color="rgb(255,255,255)" stop-opacity="0.2"/>
<stop offset="49.999%" stop-color="rgb(255,255,255)" stop-opacity="0.0"/>
<stop offset="50.001%" stop-color="rgb(0,0,0)" stop-opacity="0.0"/>
<stop offset="100%" stop-color="rgb(0,0,0)" stop-opacity="0.2"/>
</linearGradient>
</defs>
<g>
<rect x="0" y="0" width="450" height="360" class="green"/>
<path d="M 0 0 L 375 0 L 0 360 Z" class="red"/>
<path d="M 450 0 L 75 360 L 450 360 Z" class="black"/>
<use xlink:href="#hummingbirdw" transform="translate(225 180) scale(240 240) rotate(0)" class="white"/>
<use xlink:href="#hummingbirdk" transform="translate(225 180) scale(240 240) rotate(0)" class="black"/>
</g>
<g>
<rect x="0" y="0" width="450" height="360" fill="url(#glaze)"/>
<path d="M 30 30 L 420 30 L 420 330 L 30 330 Z M 60 60 L 60 300 L 390 300 L 390 60 Z" fill="rgb(255,255,255)" opacity="0.4"/>
<path d="M 0 0 L 450 0 L 450 360 L 0 360 Z M 30 30 L 30 330 L 420 330 L 420 30 Z" fill="rgb(0,0,0)" opacity="0.4"/>
</g>
</svg>
