<?xml version="1.0"?>
<svg xmlns="http://www.w3.org/2000/svg" xmlns:xlink="http://www.w3.org/1999/xlink" version="1.1" width="450" height="360" viewBox="0 0 450 360">
<!-- Generated by Kreative Vexillo v1.0 -->
<style>
.blue{fill:rgb(0,93,170);}
.red{fill:rgb(238,49,36);}
.white{fill:rgb(255,255,255);}
.yellow{fill:rgb(255,221,0);}
</style>
<defs>
<path id="star14" d="M 0.0 -1.0 L 0.089008 -0.389971 L 0.433884 -0.900969 L 0.249396 -0.312733 L 0.781831 -0.62349 L 0.360388 -0.173553 L 0.974928 -0.222521 L 0.4 -0.0 L 0.974928 0.222521 L 0.360388 0.173553 L 0.781831 0.62349 L 0.249396 0.312733 L 0.433884 0.900969 L 0.089008 0.389971 L 0.0 1.0 L -0.089008 0.389971 L -0.433884 0.900969 L -0.249396 0.312733 L -0.781831 0.62349 L -0.360388 0.173553 L -0.974928 0.222521 L -0.4 0.0 L -0.974928 -0.222521 L -0.360388 -0.173553 L -0.781831 -0.62349 L -0.249396 -0.312733 L -0.433884 -0.900969 L -0.089008 -0.389971 Z"/>
<linearGradient id="glaze" x1="0%" y1="0%" x2="100%" y2="100%">
<stop offset="0%" stop-color="rgb(255,255,255)" stop-opacity="0.2"/>
<stop offset="49.999%" stop-color="rgb(255,255,255)" stop-opacity="0.0"/>
<stop offset="50.001%" stop-color="rgb(0,0,0)" stop-opacity="0.0"/>
<stop offset="100%" stop-color="rgb(0,0,0)" stop-opacity="0.2"/>
</linearGradient>
</defs>
<g>
<g>
<rect x="0" y="0" width="450" height="25.7143" class="red"/>
<rect x="0" y="25.7143" width="450" height="25.7143" class="white"/>
<rect x="0" y="51.4286" width="450" height="25.7143" class="red"/>
<rect x="0" y="77.1429" width="450" height="25.7143" class="white"/>
<rect x="0" y="102.8571" width="450" height="25.7143" class="red"/>
<rect x="0" y="128.5714" width="450" height="25.7143" class="white"/>
<rect x="0" y="154.2857" width="450" height="25.7143" class="red"/>
<rect x="0" y="180" width="450" height="25.7143" class="white"/>
<rect x="0" y="205.7143" width="450" height="25.7143" class="red"/>
<rect x="0" y="231.4286" width="450" height="25.7143" class="white"/>
<rect x="0" y="257.1429" width="450" height="25.7143" class="red"/>
<rect x="0" y="282.8571" width="450" height="25.7143" class="white"/>
<rect x="0" y="308.5714" width="450" height="25.7143" class="red"/>
<rect x="0" y="334.2857" width="450" height="25.7143" class="white"/>
</g>
<rect x="0" y="0" width="225" height="205.7143" class="blue"/>
<ellipse cx="75.5859" cy="102.8571" rx="63.2813" ry="63.2813" class="yellow"/>
<ellipse cx="91.4063" cy="102.8571" rx="58.0078" ry="58.0078" class="blue"/>
<use xlink:href="#star14" transform="translate(144.1406 102.8571) scale(52.7344 52.7344) rotate(0)" class="yellow"/>
</g>
<g>
<rect x="0" y="0" width="450" height="360" fill="url(#glaze)"/>
<path d="M 30 30 L 420 30 L 420 330 L 30 330 Z M 60 60 L 60 300 L 390 300 L 390 60 Z" fill="rgb(255,255,255)" opacity="0.4"/>
<path d="M 0 0 L 450 0 L 450 360 L 0 360 Z M 30 30 L 30 330 L 420 330 L 420 30 Z" fill="rgb(0,0,0)" opacity="0.4"/>
</g>
</svg>
