<?xml version="1.0"?>
<svg xmlns="http://www.w3.org/2000/svg" xmlns:xlink="http://www.w3.org/1999/xlink" version="1.1" width="450" height="360" viewBox="0 0 450 360">
<!-- Generated by Kreative Vexillo v1.0 -->
<style>
.maroon{fill:rgb(122,0,60);}
.white{fill:rgb(255,255,255);}
</style>
<defs>
<linearGradient id="glaze" x1="0%" y1="0%" x2="100%" y2="100%">
<stop offset="0%" stop-color="rgb(255,255,255)" stop-opacity="0.2"/>
<stop offset="49.999%" stop-color="rgb(255,255,255)" stop-opacity="0.0"/>
<stop offset="50.001%" stop-color="rgb(0,0,0)" stop-opacity="0.0"/>
<stop offset="100%" stop-color="rgb(0,0,0)" stop-opacity="0.2"/>
</linearGradient>
</defs>
<g>
<rect x="0" y="0" width="450" height="360" class="maroon"/>
<path d="M 0 0 L 128.5714 0 L 160.7143 20 L 128.5714 40 L 160.7143 60 L 128.5714 80 L 160.7143 100 L 128.5714 120 L 160.7143 140 L 128.5714 160 L 160.7143 180 L 128.5714 200 L 160.7143 220 L 128.5714 240 L 160.7143 260 L 128.5714 280 L 160.7143 300 L 128.5714 320 L 160.7143 340 L 128.5714 360 L 0 360 Z" class="white"/>
</g>
<g>
<rect x="0" y="0" width="450" height="360" fill="url(#glaze)"/>
<path d="M 30 30 L 420 30 L 420 330 L 30 330 Z M 60 60 L 60 300 L 390 300 L 390 60 Z" fill="rgb(255,255,255)" opacity="0.4"/>
<path d="M 0 0 L 450 0 L 450 360 L 0 360 Z M 30 30 L 30 330 L 420 330 L 420 30 Z" fill="rgb(0,0,0)" opacity="0.4"/>
</g>
</svg>
