<?xml version="1.0"?>
<svg xmlns="http://www.w3.org/2000/svg" xmlns:xlink="http://www.w3.org/1999/xlink" version="1.1" width="450" height="360" viewBox="0 0 450 360">
<!-- Generated by Kreative Vexillo v1.0 -->
<style>
.blue{fill:rgb(0,73,144);}
.ltblue{fill:rgb(80,145,205);}
.red{fill:rgb(227,24,55);}
.white{fill:rgb(255,255,255);}
.yellow{fill:rgb(255,210,0);}
</style>
<defs>
<path id="star" d="M 0.0 -1.0 L 0.2245 -0.309 L 0.9511 -0.309 L 0.3633 0.118 L 0.5878 0.809 L 0.0 0.382 L -0.5878 0.809 L -0.3633 0.118 L -0.9511 -0.309 L -0.2245 -0.309 Z"/>
<clipPath id="clip0">
<path d="M 0 0 L 0 15.3675 L 0 15.3675 L 93.2906 90 L 93.2906 90 L 0 164.6325 L 0 164.6325 L 0 180 L 19.2094 180 L 112.5 105.3675 L 112.5 105.3675 L 112.5 105.3675 L 112.5 105.3675 L 112.5 105.3675 L 112.5 105.3675 L 205.7906 180 L 225 180 L 225 164.6325 L 131.7094 90 L 225 15.3675 L 225 0 L 205.7906 0 L 112.5 74.6325 L 19.2094 0 Z"/>
</clipPath>
<linearGradient id="glaze" x1="0%" y1="0%" x2="100%" y2="100%">
<stop offset="0%" stop-color="rgb(255,255,255)" stop-opacity="0.2"/>
<stop offset="49.999%" stop-color="rgb(255,255,255)" stop-opacity="0.0"/>
<stop offset="50.001%" stop-color="rgb(0,0,0)" stop-opacity="0.0"/>
<stop offset="100%" stop-color="rgb(0,0,0)" stop-opacity="0.2"/>
</linearGradient>
</defs>
<g>
<rect x="0" y="0" width="450" height="360" class="ltblue"/>
<g>
<rect x="0" y="0" width="225" height="180" class="blue"/>
<path d="M 0 0 L 0 23.0512 L 0 23.0512 L 83.6859 90 L 83.6859 90 L 0 156.9488 L 0 180 L 28.8141 180 L 112.5 113.0512 L 112.5 113.0512 L 196.186 180 L 225 180 L 225 156.9488 L 225 156.9488 L 141.3141 90 L 225 23.0512 L 225 0 L 196.1859 0 L 112.5 66.9488 L 112.5 66.9488 L 28.8141 0 Z" class="white"/>
<g clip-path="url(#clip0)">
<path d="M 0 0 L 112.5 90 L 0 90 Z" class="red"/>
<path d="M 225 0 L 112.5 90 L 112.5 0 Z" class="red"/>
<path d="M 0 180 L 112.5 90 L 112.5 180 Z" class="red"/>
<path d="M 225 180 L 112.5 90 L 225 90 Z" class="red"/>
</g>
<g>
<rect x="0" y="60" width="225" height="60" class="white"/>
<rect x="82.5" y="0" width="60" height="180" class="white"/>
</g>
<g>
<rect x="0" y="72" width="225" height="36" class="red"/>
<rect x="94.5" y="0" width="36" height="180" class="red"/>
</g>
</g>
<g>
<use xlink:href="#star" transform="translate(242.0024 324.5962) scale(18.75 18.75) rotate(0)" class="yellow"/>
<use xlink:href="#star" transform="translate(295.5096 302.7096) scale(18.75 18.75) rotate(180)" class="yellow"/>
<use xlink:href="#star" transform="translate(295.5096 229.5194) scale(18.75 18.75) rotate(180)" class="yellow"/>
<use xlink:href="#star" transform="translate(342.7614 284.2106) scale(18.75 18.75) rotate(180)" class="yellow"/>
<use xlink:href="#star" transform="translate(342.7614 124.9625) scale(18.75 18.75) rotate(180)" class="yellow"/>
<use xlink:href="#star" transform="translate(373.6656 234.0274) scale(18.75 18.75) rotate(0)" class="yellow"/>
<use xlink:href="#star" transform="translate(382.473 103.2466) scale(18.75 18.75) rotate(180)" class="yellow"/>
<use xlink:href="#star" transform="translate(413.5635 192.9326) scale(18.75 18.75) rotate(0)" class="yellow"/>
<use xlink:href="#star" transform="translate(413.5635 52.4916) scale(18.75 18.75) rotate(0)" class="yellow"/>
</g>
</g>
<g>
<rect x="0" y="0" width="450" height="360" fill="url(#glaze)"/>
<path d="M 30 30 L 420 30 L 420 330 L 30 330 Z M 60 60 L 60 300 L 390 300 L 390 60 Z" fill="rgb(255,255,255)" opacity="0.4"/>
<path d="M 0 0 L 450 0 L 450 360 L 0 360 Z M 30 30 L 30 330 L 420 330 L 420 30 Z" fill="rgb(0,0,0)" opacity="0.4"/>
</g>
</svg>
