<?xml version="1.0"?>
<svg xmlns="http://www.w3.org/2000/svg" xmlns:xlink="http://www.w3.org/1999/xlink" version="1.1" width="450" height="360" viewBox="0 0 450 360">
<!-- Generated by Kreative Vexillo v1.0 -->
<style>
.blue{fill:rgb(16,46,130);}
.red{fill:rgb(191,44,52);}
.white{fill:rgb(255,255,255);}
.yellow{fill:rgb(246,208,71);}
</style>
<defs>
<linearGradient id="glaze" x1="0%" y1="0%" x2="100%" y2="100%">
<stop offset="0%" stop-color="rgb(255,255,255)" stop-opacity="0.2"/>
<stop offset="49.999%" stop-color="rgb(255,255,255)" stop-opacity="0.0"/>
<stop offset="50.001%" stop-color="rgb(0,0,0)" stop-opacity="0.0"/>
<stop offset="100%" stop-color="rgb(0,0,0)" stop-opacity="0.2"/>
</linearGradient>
</defs>
<g>
<g>
<rect x="0" y="0" width="450" height="120" class="blue"/>
<rect x="0" y="120" width="450" height="120" class="white"/>
<rect x="0" y="240" width="450" height="120" class="blue"/>
</g>
<path d="M 190 180 L 300.8655 134.078 A 120 120 0 1 0 300.8655 225.922 Z" class="red"/>
<ellipse cx="190" cy="180" rx="60" ry="60" class="yellow"/>
</g>
<g>
<rect x="0" y="0" width="450" height="360" fill="url(#glaze)"/>
<path d="M 30 30 L 420 30 L 420 330 L 30 330 Z M 60 60 L 60 300 L 390 300 L 390 60 Z" fill="rgb(255,255,255)" opacity="0.4"/>
<path d="M 0 0 L 450 0 L 450 360 L 0 360 Z M 30 30 L 30 330 L 420 330 L 420 30 Z" fill="rgb(0,0,0)" opacity="0.4"/>
</g>
</svg>
