<?xml version="1.0"?>
<svg xmlns="http://www.w3.org/2000/svg" xmlns:xlink="http://www.w3.org/1999/xlink" version="1.1" width="450" height="360" viewBox="0 0 450 360">
<!-- Generated by Kreative Vexillo v1.0 -->
<style>
.blue{fill:rgb(0,40,104);}
.red{fill:rgb(191,10,48);}
.white{fill:rgb(255,255,255);}
</style>
<defs>
<path id="star" d="M 0.0 -1.0 L 0.2245 -0.309 L 0.9511 -0.309 L 0.3633 0.118 L 0.5878 0.809 L 0.0 0.382 L -0.5878 0.809 L -0.3633 0.118 L -0.9511 -0.309 L -0.2245 -0.309 Z"/>
<linearGradient id="glaze" x1="0%" y1="0%" x2="100%" y2="100%">
<stop offset="0%" stop-color="rgb(255,255,255)" stop-opacity="0.2"/>
<stop offset="49.999%" stop-color="rgb(255,255,255)" stop-opacity="0.0"/>
<stop offset="50.001%" stop-color="rgb(0,0,0)" stop-opacity="0.0"/>
<stop offset="100%" stop-color="rgb(0,0,0)" stop-opacity="0.2"/>
</linearGradient>
</defs>
<g>
<g>
<rect x="0" y="0" width="450" height="120" class="blue"/>
<rect x="0" y="120" width="450" height="120" class="white"/>
<rect x="0" y="240" width="450" height="120" class="red"/>
</g>
<rect x="0" y="0" width="240" height="240" class="white"/>
<rect x="0" y="0" width="234.1465" height="234.1465" class="red"/>
<path d="M 0 0 L 0 33.1133 L 83.9599 117.0733 L 83.9599 117.0733 L 0 201.0332 L 0 201.0332 L 0 234.1465 L 33.1133 234.1465 L 117.0733 150.1866 L 117.0733 150.1866 L 117.0733 150.1866 L 117.0733 150.1866 L 117.0733 150.1866 L 117.0733 150.1866 L 201.0332 234.1465 L 234.1465 234.1465 L 234.1465 201.0332 L 234.1465 201.0332 L 150.1866 117.0733 L 150.1866 117.0733 L 234.1465 33.1133 L 234.1465 0 L 201.0332 0 L 117.0733 83.9599 L 33.1133 0 Z" class="white"/>
<path d="M 0 0 L 0 24.835 L 92.2383 117.0733 L 92.2383 117.0733 L 0 209.3115 L 0 234.1465 L 24.835 234.1465 L 117.0733 141.9082 L 117.0733 141.9082 L 209.3115 234.1465 L 234.1465 234.1465 L 234.1465 209.3115 L 141.9082 117.0733 L 141.9082 117.0733 L 234.1465 24.835 L 234.1465 0 L 209.3115 0 L 117.0733 92.2383 L 117.0733 92.2383 L 24.835 0 Z" class="blue"/>
<use xlink:href="#star" transform="translate(117.0733 117.0733) scale(11.7073 11.7073) rotate(0)" class="white"/>
<g>
<use xlink:href="#star" transform="translate(85.8537 85.8537) scale(11.7073 11.7073) rotate(0)" class="white"/>
<use xlink:href="#star" transform="translate(148.2928 85.8537) scale(11.7073 11.7073) rotate(0)" class="white"/>
<use xlink:href="#star" transform="translate(85.8537 148.2928) scale(11.7073 11.7073) rotate(0)" class="white"/>
<use xlink:href="#star" transform="translate(148.2928 148.2928) scale(11.7073 11.7073) rotate(0)" class="white"/>
<use xlink:href="#star" transform="translate(54.6342 54.6342) scale(11.7073 11.7073) rotate(0)" class="white"/>
<use xlink:href="#star" transform="translate(179.5123 54.6342) scale(11.7073 11.7073) rotate(0)" class="white"/>
<use xlink:href="#star" transform="translate(54.6342 179.5123) scale(11.7073 11.7073) rotate(0)" class="white"/>
<use xlink:href="#star" transform="translate(179.5123 179.5123) scale(11.7073 11.7073) rotate(0)" class="white"/>
<use xlink:href="#star" transform="translate(23.4147 23.4147) scale(11.7073 11.7073) rotate(0)" class="white"/>
<use xlink:href="#star" transform="translate(210.7319 23.4147) scale(11.7073 11.7073) rotate(0)" class="white"/>
<use xlink:href="#star" transform="translate(23.4147 210.7319) scale(11.7073 11.7073) rotate(0)" class="white"/>
<use xlink:href="#star" transform="translate(210.7319 210.7319) scale(11.7073 11.7073) rotate(0)" class="white"/>
</g>
</g>
<g>
<rect x="0" y="0" width="450" height="360" fill="url(#glaze)"/>
<path d="M 30 30 L 420 30 L 420 330 L 30 330 Z M 60 60 L 60 300 L 390 300 L 390 60 Z" fill="rgb(255,255,255)" opacity="0.4"/>
<path d="M 0 0 L 450 0 L 450 360 L 0 360 Z M 30 30 L 30 330 L 420 330 L 420 30 Z" fill="rgb(0,0,0)" opacity="0.4"/>
</g>
</svg>
