<?xml version="1.0"?>
<svg xmlns="http://www.w3.org/2000/svg" xmlns:xlink="http://www.w3.org/1999/xlink" version="1.1" width="450" height="360" viewBox="0 0 450 360">
<!-- Generated by Kreative Vexillo v1.0 -->
<style>
.blue{fill:rgb(0,28,90);}
.red{fill:rgb(193,19,61);}
.white{fill:rgb(255,255,255);}
</style>
<defs>
<path id="-glazearea" d="M 0.0 0.0 L 1.0 0.1875 L 0.7692308 0.5 L 1.0 0.8125 L 0.0 1.0 Z"/>
<path id="star" d="M 0.0 -1.0 L 0.2245 -0.309 L 0.9511 -0.309 L 0.3633 0.118 L 0.5878 0.809 L 0.0 0.382 L -0.5878 0.809 L -0.3633 0.118 L -0.9511 -0.309 L -0.2245 -0.309 Z"/>
<clipPath id="clip0">
<use xlink:href="#-glazearea" transform="translate(0 0) scale(450 360) rotate(0)"/>
</clipPath>
<linearGradient id="glaze" x1="0%" y1="0%" x2="100%" y2="100%">
<stop offset="0%" stop-color="rgb(255,255,255)" stop-opacity="0.2"/>
<stop offset="49.999%" stop-color="rgb(255,255,255)" stop-opacity="0.0"/>
<stop offset="50.001%" stop-color="rgb(0,0,0)" stop-opacity="0.0"/>
<stop offset="100%" stop-color="rgb(0,0,0)" stop-opacity="0.2"/>
</linearGradient>
</defs>
<g>
<g clip-path="url(#clip0)">
<rect x="0" y="0" width="450" height="360" class="white"/>
<path d="M 6.6753 -44.5021 L 6.6753 -44.5021 L 906.6753 90.4979 L 893.3247 179.5021 L -6.6753 44.5021 Z" class="red"/>
<path d="M 0 157.5 L 0 157.5 L 450 157.5 L 450 202.5 L 0 202.5 Z" class="red"/>
<path d="M -6.6753 315.4979 L -6.6753 315.4979 L 893.3247 180.4979 L 906.6753 269.5021 L 6.6753 404.5021 Z" class="red"/>
</g>
<path d="M 0 0 L 276.9231 180 L 0 360 Z" class="blue"/>
<ellipse cx="85.5739" cy="180" rx="51.3444" ry="51.3444" class="white"/>
<ellipse cx="85.5739" cy="180" rx="34.2296" ry="34.2296" class="red"/>
<g>
<use xlink:href="#star" transform="translate(128.7923 233.0927) scale(11.4099 11.4099) rotate(-219.1462)" class="white"/>
<use xlink:href="#star" transform="translate(93.7505 247.9691) scale(11.4099 11.4099) rotate(-186.8596)" class="white"/>
<use xlink:href="#star" transform="translate(56.1804 241.8278) scale(11.4099 11.4099) rotate(-154.5731)" class="white"/>
<use xlink:href="#star" transform="translate(27.6994 216.5677) scale(11.4099 11.4099) rotate(-122.2865)" class="white"/>
<use xlink:href="#star" transform="translate(17.1148 180) scale(11.4099 11.4099) rotate(-90)" class="white"/>
<use xlink:href="#star" transform="translate(27.6994 143.4323) scale(11.4099 11.4099) rotate(-57.7135)" class="white"/>
<use xlink:href="#star" transform="translate(56.1804 118.1722) scale(11.4099 11.4099) rotate(-25.4269)" class="white"/>
<use xlink:href="#star" transform="translate(93.7505 112.0309) scale(11.4099 11.4099) rotate(6.8596)" class="white"/>
<use xlink:href="#star" transform="translate(128.7923 126.9073) scale(11.4099 11.4099) rotate(39.1462)" class="white"/>
</g>
<g>
<g>
<use xlink:href="#star" transform="translate(24.9412 262.8773) scale(11.4099 11.4099) rotate(-143.8109)" class="white"/>
<use xlink:href="#star" transform="translate(59.577 279.3435) scale(11.4099 11.4099) rotate(-165.3353)" class="white"/>
</g>
<g>
<use xlink:href="#star" transform="translate(24.9412 97.1227) scale(11.4099 11.4099) rotate(-36.1891)" class="white"/>
<use xlink:href="#star" transform="translate(59.577 80.6565) scale(11.4099 11.4099) rotate(-14.6647)" class="white"/>
</g>
</g>
<use xlink:href="#star" transform="translate(154.0331 180) scale(11.4099 11.4099) rotate(90)" class="white"/>
<use xlink:href="#star" transform="translate(222.4922 180) scale(11.4099 11.4099) rotate(90)" class="white"/>
<g>
<use xlink:href="#star" transform="translate(186.4564 160.8246) scale(11.4099 11.4099) rotate(79.2378)" class="white"/>
<use xlink:href="#star" transform="translate(186.4564 199.1754) scale(11.4099 11.4099) rotate(100.7622)" class="white"/>
</g>
</g>
<g>
<path d="M 0 0 L 450 67.5 L 346.1539 180 L 450 292.5 L 0 360 Z" fill="url(#glaze)"/>
<path d="M 60 69.6712 L 329.0836 110.0338 L 302.0656 139.3032 L 264.4994 180 L 302.0656 220.6968 L 329.0836 249.9662 L 329.0836 249.9662 L 60 290.3288 L 60 69.6712 Z M 30 34.8356 L 30 325.1644 L 30 325.1644 L 30 325.1644 L 30 325.1644 L 389.5418 271.2331 L 389.5418 271.2331 L 324.1097 200.3484 L 305.3266 180 L 324.1097 159.6516 L 389.5418 88.7669 L 30 34.8356 Z" fill="rgb(255,255,255)" opacity="0.4"/>
<path d="M 30 34.8356 L 389.5418 88.7669 L 324.1097 159.6516 L 305.3266 180 L 324.1097 200.3484 L 389.5418 271.2331 L 389.5418 271.2331 L 30 325.1644 L 30 325.1644 L 30 325.1644 L 30 325.1644 L 30 325.1644 L 30 325.1644 L 30 34.8356 Z M 0 0 L 0 360 L 450 292.5 L 346.1539 180 L 450 67.5 L 0 0 Z" fill="rgb(0,0,0)" opacity="0.4"/>
</g>
</svg>
