<?xml version="1.0"?>
<svg xmlns="http://www.w3.org/2000/svg" xmlns:xlink="http://www.w3.org/1999/xlink" version="1.1" width="450" height="360" viewBox="0 0 450 360">
<!-- Generated by Kreative Vexillo v1.0 -->
<style>
.blue{fill:rgb(0,0,204);}
.red{fill:rgb(255,0,0);}
.yellow{fill:rgb(255,255,0);}
</style>
<defs>
<linearGradient id="glaze" x1="0%" y1="0%" x2="100%" y2="100%">
<stop offset="0%" stop-color="rgb(255,255,255)" stop-opacity="0.2"/>
<stop offset="49.999%" stop-color="rgb(255,255,255)" stop-opacity="0.0"/>
<stop offset="50.001%" stop-color="rgb(0,0,0)" stop-opacity="0.0"/>
<stop offset="100%" stop-color="rgb(0,0,0)" stop-opacity="0.2"/>
</linearGradient>
</defs>
<g>
<rect x="0" y="0" width="450" height="360" class="blue"/>
<path d="M 0 0 L 0 31.9171 L 0 31.9171 L 185.1036 180 L 0 328.0829 L 0 328.0829 L 0 360 L 39.8964 360 L 225 211.9171 L 225 211.9171 L 410.1036 360 L 450 360 L 450 328.0829 L 264.8964 180 L 450 31.9171 L 450 0 L 410.1036 0 L 225 148.0829 L 225 148.0829 L 39.8964 0 Z" class="yellow"/>
<g>
<rect x="0" y="155.0769" width="450" height="49.8462" class="yellow"/>
<rect x="200.0769" y="0" width="49.8462" height="360" class="yellow"/>
</g>
<path d="M 0 0 L 0 21.2781 L 0 21.2781 L 198.4024 180 L 0 338.7219 L 0 338.7219 L 0 360 L 26.5976 360 L 225 201.2781 L 225 201.2781 L 423.4024 360 L 450 360 L 450 338.7219 L 450 338.7219 L 251.5976 180 L 251.5976 180 L 450 21.2781 L 450 0 L 423.4024 0 L 225 158.7219 L 26.5976 0 Z" class="red"/>
<g>
<rect x="0" y="163.3846" width="450" height="33.2308" class="red"/>
<rect x="208.3846" y="0" width="33.2308" height="360" class="red"/>
</g>
<ellipse cx="225" cy="180" rx="96.9231" ry="96.9231" class="yellow"/>
<ellipse cx="225" cy="180" rx="83.0769" ry="83.0769" class="red"/>
</g>
<g>
<rect x="0" y="0" width="450" height="360" fill="url(#glaze)"/>
<path d="M 30 30 L 420 30 L 420 330 L 30 330 Z M 60 60 L 60 300 L 390 300 L 390 60 Z" fill="rgb(255,255,255)" opacity="0.4"/>
<path d="M 0 0 L 450 0 L 450 360 L 0 360 Z M 30 30 L 30 330 L 420 330 L 420 30 Z" fill="rgb(0,0,0)" opacity="0.4"/>
</g>
</svg>
