<?xml version="1.0"?>
<svg xmlns="http://www.w3.org/2000/svg" xmlns:xlink="http://www.w3.org/1999/xlink" version="1.1" width="450" height="360" viewBox="0 0 450 360">
<!-- Generated by Kreative Vexillo v1.0 -->
<style>
.black{fill:rgb(0,34,0);}
.blue{fill:rgb(18,28,192);}
.green{fill:rgb(8,93,5);}
.white{fill:rgb(255,255,255);}
</style>
<defs>
<path id="doug" d="M -0.0454 0.995 L -0.0454 0.99 L -0.0476 0.9876 C -0.0498 0.9852 -0.0498 0.9852 -0.0494 0.9818 C -0.049 0.9786 -0.0491 0.9784 -0.0508 0.9766 C -0.0525 0.9749 -0.0526 0.9745 -0.0521 0.9729 L -0.0516 0.971 L -0.0477 0.971 C -0.0441 0.971 -0.0437 0.9708 -0.0431 0.9696 C -0.0425 0.9686 -0.0424 0.9629 -0.0423 0.9478 L -0.0423 0.9274 L -0.0439 0.9268 C -0.045 0.9263 -0.0459 0.9263 -0.0471 0.9268 C -0.0481 0.9271 -0.0501 0.9272 -0.0516 0.927 C -0.0541 0.9267 -0.0546 0.9269 -0.0558 0.9282 L -0.0572 0.9296 L -0.0687 0.9296 L -0.0803 0.9296 L -0.0815 0.9281 C -0.0827 0.9266 -0.083 0.9265 -0.0864 0.9267 C -0.0906 0.9269 -0.0915 0.9262 -0.0912 0.9233 L -0.091 0.9215 L -0.0869 0.9214 C -0.083 0.9214 -0.0826 0.9213 -0.0815 0.9199 C -0.0804 0.9184 -0.08 0.9184 -0.0753 0.9184 C -0.0708 0.9184 -0.0701 0.9182 -0.0673 0.9166 L -0.0642 0.9148 L -0.0573 0.9152 L -0.0503 0.9156 L -0.0491 0.9136 C -0.048 0.9119 -0.0476 0.9116 -0.0457 0.9116 C -0.0439 0.9116 -0.043 0.9112 -0.0415 0.9097 C -0.0392 0.9074 -0.0391 0.9071 -0.0406 0.9061 C -0.0415 0.9056 -0.0418 0.9048 -0.0418 0.9031 C -0.0418 0.9012 -0.042 0.9007 -0.0437 0.8997 C -0.0464 0.8981 -0.0468 0.8958 -0.045 0.8925 C -0.0432 0.8893 -0.0423 0.8847 -0.0423 0.8781 C -0.0423 0.8737 -0.0422 0.8728 -0.0412 0.8719 C -0.0396 0.8705 -0.039 0.8676 -0.039 0.8613 C -0.039 0.8564 -0.0388 0.8556 -0.0376 0.854 C -0.0349 0.8505 -0.0351 0.8498 -0.0396 0.8452 C -0.0436 0.8412 -0.0438 0.841 -0.0468 0.8408 C -0.0493 0.8406 -0.0502 0.8403 -0.0512 0.8391 L -0.0524 0.8376 L -0.0549 0.8402 C -0.0579 0.8435 -0.0588 0.844 -0.0637 0.8444 C -0.0676 0.8448 -0.0676 0.8448 -0.0682 0.8432 C -0.069 0.8413 -0.0686 0.8401 -0.0671 0.8397 C -0.0656 0.8393 -0.0657 0.8385 -0.0674 0.8372 C -0.0694 0.8356 -0.0691 0.8343 -0.0665 0.8322 C -0.0647 0.8307 -0.0634 0.8302 -0.0607 0.8299 C -0.0578 0.8296 -0.0571 0.8293 -0.0559 0.8278 C -0.0545 0.8261 -0.0542 0.826 -0.0506 0.826 C -0.0473 0.826 -0.0465 0.8258 -0.0451 0.8246 C -0.0441 0.8239 -0.0427 0.8232 -0.0418 0.8232 C -0.0398 0.8232 -0.039 0.8223 -0.039 0.8201 C -0.039 0.8188 -0.0385 0.818 -0.0375 0.8172 C -0.0351 0.8155 -0.0362 0.8148 -0.0414 0.8149 L -0.046 0.8149 L -0.0485 0.8173 C -0.0523 0.821 -0.0544 0.8215 -0.0649 0.8215 L -0.0738 0.8215 L -0.075 0.8199 C -0.0761 0.8183 -0.0764 0.8182 -0.0797 0.8182 C -0.0838 0.8182 -0.0841 0.8179 -0.0856 0.8136 C -0.0896 0.8019 -0.0926 0.8001 -0.1062 0.8012 C -0.1105 0.8016 -0.1132 0.8016 -0.1135 0.8012 C -0.1138 0.8009 -0.1142 0.7988 -0.1143 0.7964 L -0.1145 0.7922 L -0.1123 0.7899 C -0.111 0.7885 -0.1093 0.7875 -0.1078 0.7871 C -0.1065 0.7868 -0.1049 0.7859 -0.1042 0.7852 C -0.1033 0.7842 -0.1023 0.7838 -0.1008 0.7838 C -0.0992 0.7838 -0.0985 0.7835 -0.098 0.7826 C -0.097 0.7807 -0.0879 0.7715 -0.0861 0.7705 C -0.0847 0.7698 -0.0846 0.7695 -0.0849 0.7677 C -0.0852 0.7659 -0.0851 0.7655 -0.0837 0.7644 C -0.0821 0.7631 -0.0822 0.7619 -0.0839 0.7619 C -0.0845 0.7619 -0.0878 0.7649 -0.0912 0.7686 C -0.0975 0.7753 -0.0976 0.7754 -0.1001 0.7754 C -0.1023 0.7754 -0.1026 0.7756 -0.1034 0.7771 L -0.1043 0.7788 L -0.1119 0.7788 L -0.1196 0.7788 L -0.1212 0.7771 C -0.1234 0.7747 -0.1246 0.7749 -0.127 0.7781 C -0.1293 0.7812 -0.1328 0.7842 -0.1349 0.7847 C -0.1361 0.785 -0.1367 0.7848 -0.1377 0.7836 C -0.1385 0.7828 -0.1395 0.7821 -0.1399 0.7821 C -0.1404 0.7821 -0.1415 0.7812 -0.1425 0.7802 C -0.144 0.7784 -0.1442 0.7778 -0.1442 0.7746 C -0.1442 0.7726 -0.144 0.7703 -0.1436 0.7694 C -0.1429 0.7675 -0.1316 0.7562 -0.1257 0.7515 C -0.1218 0.7483 -0.1214 0.7481 -0.118 0.7479 C -0.1147 0.7477 -0.1144 0.7478 -0.1135 0.7491 C -0.1122 0.7511 -0.1115 0.751 -0.1099 0.7483 C -0.1091 0.747 -0.1075 0.7452 -0.1064 0.7443 C -0.1046 0.7429 -0.1043 0.7423 -0.1043 0.7405 C -0.1043 0.7387 -0.1039 0.7381 -0.102 0.7366 C -0.1008 0.7357 -0.0992 0.7349 -0.0984 0.7349 C -0.0967 0.7349 -0.0941 0.7327 -0.0924 0.73 C -0.0913 0.7283 -0.091 0.7281 -0.0885 0.7281 C -0.086 0.7281 -0.0856 0.7279 -0.0848 0.7264 C -0.0841 0.7249 -0.0837 0.7247 -0.0815 0.7247 C -0.0794 0.7247 -0.0788 0.7245 -0.0778 0.723 C -0.0767 0.7215 -0.0763 0.7213 -0.0747 0.7216 C -0.0729 0.7219 -0.0727 0.7218 -0.072 0.72 C -0.0712 0.7181 -0.071 0.718 -0.0681 0.7179 L -0.0651 0.7177 L -0.065 0.7144 C -0.0648 0.7102 -0.0654 0.7093 -0.0683 0.7098 C -0.0701 0.7101 -0.0705 0.71 -0.0714 0.7087 C -0.0731 0.7061 -0.0741 0.7059 -0.0763 0.7078 C -0.0777 0.709 -0.0788 0.7095 -0.0802 0.7095 C -0.0818 0.7095 -0.0825 0.7099 -0.0837 0.7115 C -0.0851 0.7134 -0.0854 0.7135 -0.0874 0.7132 C -0.0893 0.7128 -0.0895 0.713 -0.0907 0.7149 L -0.0919 0.7169 L -0.0969 0.7165 C -0.1015 0.7162 -0.1021 0.7163 -0.1039 0.7173 C -0.1049 0.718 -0.1062 0.7184 -0.1066 0.7182 C -0.1071 0.7181 -0.1088 0.7184 -0.1104 0.7191 C -0.114 0.7205 -0.1151 0.7205 -0.1164 0.7191 C -0.1172 0.7181 -0.1181 0.718 -0.1218 0.718 C -0.1242 0.718 -0.1268 0.7182 -0.1275 0.7185 C -0.1286 0.7189 -0.1293 0.7188 -0.1303 0.7179 C -0.1312 0.7173 -0.1326 0.7168 -0.1338 0.7168 C -0.1376 0.7168 -0.1411 0.7114 -0.1407 0.7059 C -0.1405 0.7024 -0.1403 0.7024 -0.1296 0.7021 L -0.1218 0.7019 L -0.1201 0.7001 L -0.1185 0.6983 L -0.112 0.6986 L -0.1054 0.699 L -0.1049 0.6976 C -0.104 0.6954 -0.1011 0.6947 -0.0948 0.6951 C -0.0895 0.6955 -0.0895 0.6955 -0.0876 0.6938 C -0.0856 0.692 -0.0826 0.6914 -0.0761 0.6917 C -0.0727 0.6918 -0.0725 0.6917 -0.0721 0.6904 C -0.0719 0.6896 -0.0717 0.6862 -0.0717 0.6828 L -0.0716 0.6766 L -0.0691 0.6734 C -0.0677 0.6716 -0.0665 0.6699 -0.0665 0.6696 C -0.0665 0.6686 -0.0642 0.6677 -0.0624 0.6681 C -0.0596 0.6687 -0.0581 0.6673 -0.0581 0.664 C -0.0581 0.6606 -0.059 0.6597 -0.0619 0.6602 C -0.064 0.6606 -0.0671 0.663 -0.0671 0.6642 C -0.0671 0.6645 -0.0679 0.666 -0.0688 0.6675 C -0.0697 0.669 -0.0705 0.6704 -0.0705 0.6708 C -0.0705 0.6716 -0.0743 0.6758 -0.0758 0.6767 C -0.0764 0.6771 -0.0775 0.6774 -0.0782 0.6774 C -0.0789 0.6774 -0.0803 0.6779 -0.0814 0.6784 C -0.0833 0.6793 -0.0835 0.6793 -0.0845 0.6784 C -0.0858 0.6772 -0.0862 0.6772 -0.0877 0.6786 L -0.089 0.6798 L -0.092 0.6783 C -0.0946 0.677 -0.0955 0.6769 -0.1016 0.6769 L -0.1083 0.6769 L -0.1099 0.6786 C -0.1109 0.6796 -0.112 0.6802 -0.113 0.6802 C -0.1161 0.6802 -0.1233 0.6879 -0.1255 0.6935 C -0.1265 0.696 -0.1269 0.6963 -0.1288 0.6967 C -0.13 0.697 -0.1316 0.6978 -0.1324 0.6986 C -0.1339 0.6999 -0.134 0.7 -0.1449 0.7 L -0.1558 0.7 L -0.1571 0.6983 C -0.1583 0.6967 -0.1584 0.6966 -0.1616 0.6969 C -0.1634 0.6971 -0.1661 0.6971 -0.1675 0.6969 C -0.1697 0.6966 -0.1704 0.6962 -0.1715 0.6944 C -0.1733 0.6918 -0.1735 0.6884 -0.1718 0.6876 C -0.1712 0.6873 -0.1696 0.686 -0.1682 0.6848 C -0.1667 0.6835 -0.1647 0.6824 -0.1635 0.6822 C -0.1619 0.6819 -0.1606 0.681 -0.1581 0.6782 C -0.1549 0.6747 -0.1547 0.6746 -0.152 0.6746 C -0.1499 0.6746 -0.1488 0.6743 -0.1474 0.6732 C -0.1464 0.6724 -0.1448 0.6718 -0.1439 0.6718 C -0.1413 0.6718 -0.1368 0.6702 -0.1352 0.6687 C -0.1345 0.668 -0.1324 0.6668 -0.1307 0.6662 C -0.129 0.6655 -0.1273 0.6647 -0.127 0.6644 C -0.1266 0.6641 -0.125 0.6637 -0.1235 0.6635 C -0.1213 0.6633 -0.1195 0.6625 -0.116 0.6602 C -0.1135 0.6585 -0.1105 0.6569 -0.1093 0.6565 C -0.1074 0.656 -0.1071 0.6556 -0.1066 0.6535 C -0.1059 0.6507 -0.1058 0.6481 -0.1063 0.6468 C -0.1068 0.6454 -0.1095 0.6442 -0.1121 0.6442 C -0.114 0.6442 -0.1146 0.6445 -0.116 0.6462 L -0.1177 0.6483 L -0.1224 0.6483 C -0.1262 0.6483 -0.1277 0.6481 -0.1297 0.6471 C -0.1311 0.6465 -0.1328 0.6459 -0.1335 0.6459 C -0.1343 0.6459 -0.1351 0.6453 -0.1358 0.644 C -0.1369 0.6422 -0.1378 0.6416 -0.1408 0.6409 C -0.142 0.6406 -0.1423 0.6401 -0.1427 0.6379 C -0.1433 0.6348 -0.1426 0.6336 -0.1397 0.6324 C -0.1388 0.632 -0.138 0.6315 -0.138 0.6313 C -0.138 0.631 -0.1373 0.6305 -0.1363 0.6301 C -0.1339 0.6291 -0.1343 0.6275 -0.1374 0.6258 C -0.1406 0.6241 -0.1451 0.624 -0.1456 0.6256 C -0.1466 0.6287 -0.1535 0.6318 -0.161 0.6324 C -0.164 0.6327 -0.1673 0.6331 -0.1683 0.6333 C -0.1699 0.6336 -0.1701 0.6335 -0.1701 0.6324 C -0.1701 0.6316 -0.171 0.6304 -0.1724 0.6291 C -0.1742 0.6276 -0.1747 0.6269 -0.1745 0.6257 C -0.1744 0.6243 -0.1742 0.6242 -0.1696 0.624 C -0.1669 0.6238 -0.1645 0.6235 -0.1641 0.6232 C -0.1637 0.6229 -0.1634 0.6216 -0.1635 0.6196 C -0.1635 0.6176 -0.1631 0.6152 -0.1624 0.6135 L -0.1614 0.6107 L -0.1576 0.6106 C -0.1554 0.6105 -0.1538 0.6101 -0.1538 0.6098 C -0.1538 0.6094 -0.1531 0.6093 -0.152 0.6095 C -0.1485 0.6102 -0.1449 0.6062 -0.1473 0.6043 C -0.1478 0.6038 -0.149 0.6037 -0.1506 0.604 C -0.1532 0.6044 -0.1532 0.6043 -0.1542 0.6023 C -0.1549 0.6009 -0.1555 0.6003 -0.1565 0.6003 C -0.1572 0.6003 -0.1584 0.5997 -0.1592 0.5989 C -0.16 0.5981 -0.1612 0.5975 -0.1618 0.5975 C -0.1625 0.5975 -0.1638 0.597 -0.1648 0.5964 C -0.1657 0.5958 -0.1671 0.5952 -0.168 0.5952 C -0.17 0.5952 -0.1704 0.5944 -0.1688 0.5934 C -0.1681 0.593 -0.1665 0.5922 -0.1652 0.5915 C -0.164 0.5908 -0.1627 0.5896 -0.1624 0.5888 C -0.162 0.588 -0.1608 0.587 -0.1596 0.5865 C -0.1585 0.586 -0.1565 0.5846 -0.1552 0.5833 C -0.154 0.582 -0.1521 0.5805 -0.151 0.58 C -0.1378 0.5737 -0.1386 0.574 -0.1332 0.5737 C -0.1297 0.5735 -0.1273 0.573 -0.1259 0.5723 C -0.1233 0.571 -0.1203 0.5702 -0.1184 0.5704 C -0.1143 0.5709 -0.1102 0.5654 -0.113 0.5632 C -0.1135 0.5628 -0.1138 0.562 -0.1138 0.5614 C -0.1138 0.5608 -0.1153 0.5593 -0.1172 0.5578 C -0.1202 0.5555 -0.1206 0.555 -0.1206 0.5533 C -0.1206 0.551 -0.1202 0.5511 -0.1281 0.5511 C -0.1347 0.551 -0.1361 0.5504 -0.1331 0.5488 C -0.131 0.5478 -0.129 0.5447 -0.129 0.5425 C -0.129 0.54 -0.1301 0.5373 -0.1313 0.5367 C -0.132 0.5363 -0.1324 0.5355 -0.1324 0.5345 C -0.1324 0.5336 -0.1328 0.5325 -0.1332 0.532 C -0.1343 0.5309 -0.1389 0.5299 -0.1429 0.5299 C -0.1466 0.5299 -0.1543 0.5287 -0.1613 0.527 C -0.1657 0.526 -0.1672 0.5259 -0.1746 0.5262 L -0.183 0.5266 L -0.184 0.5251 C -0.1846 0.5243 -0.1855 0.5232 -0.186 0.5227 C -0.1871 0.5217 -0.1874 0.5198 -0.1864 0.5198 C -0.186 0.5198 -0.1859 0.5185 -0.186 0.5163 L -0.1862 0.5128 L -0.184 0.5126 C -0.1826 0.5125 -0.1811 0.5119 -0.1801 0.5111 C -0.1784 0.5096 -0.1772 0.5093 -0.1699 0.5088 C -0.1654 0.5086 -0.1646 0.5083 -0.1633 0.5071 C -0.1619 0.5057 -0.1614 0.5056 -0.1549 0.5054 L -0.1479 0.5052 L -0.1456 0.5029 L -0.1433 0.5007 L -0.1371 0.5007 C -0.1336 0.5007 -0.1304 0.5005 -0.1299 0.5003 C -0.1295 0.5001 -0.1285 0.4991 -0.1279 0.4981 C -0.1269 0.4964 -0.1264 0.4962 -0.1245 0.4962 L -0.1223 0.4962 L -0.1223 0.4929 C -0.1223 0.4905 -0.1225 0.4893 -0.1232 0.4888 C -0.1239 0.4882 -0.124 0.4873 -0.1238 0.4844 C -0.1236 0.4824 -0.1232 0.4805 -0.1229 0.4803 C -0.1226 0.48 -0.1165 0.4797 -0.1093 0.4797 C -0.102 0.4797 -0.0957 0.4795 -0.0952 0.4792 C -0.0946 0.4789 -0.0941 0.4781 -0.094 0.4774 C -0.0939 0.4763 -0.0935 0.4762 -0.0882 0.4759 C -0.0829 0.4756 -0.0826 0.4755 -0.0818 0.4741 C -0.081 0.4728 -0.0811 0.4725 -0.0823 0.471 C -0.0832 0.4699 -0.085 0.4688 -0.0869 0.468 C -0.0887 0.4674 -0.0904 0.4663 -0.0908 0.4657 C -0.0916 0.4642 -0.0923 0.4644 -0.0948 0.4666 L -0.0969 0.4686 L -0.1117 0.4686 L -0.1264 0.4686 L -0.1287 0.4705 C -0.1301 0.4716 -0.1316 0.4737 -0.1327 0.4758 C -0.1338 0.4783 -0.1347 0.4794 -0.1357 0.4796 C -0.1364 0.4798 -0.1376 0.4809 -0.1383 0.482 C -0.1393 0.4836 -0.1402 0.4843 -0.1426 0.485 C -0.1464 0.4862 -0.1539 0.4866 -0.1542 0.4856 C -0.1544 0.4852 -0.1555 0.4849 -0.1569 0.4849 C -0.1591 0.4849 -0.1595 0.4851 -0.1603 0.4866 C -0.1614 0.4888 -0.1627 0.4894 -0.1654 0.489 C -0.1672 0.4888 -0.1679 0.489 -0.1692 0.4902 C -0.1701 0.4911 -0.1714 0.4917 -0.1724 0.4917 C -0.1734 0.4917 -0.1745 0.4921 -0.1751 0.4928 C -0.1759 0.4938 -0.1765 0.4939 -0.1791 0.4936 C -0.1808 0.4934 -0.1847 0.4926 -0.1877 0.4919 C -0.1907 0.4911 -0.1939 0.4905 -0.1949 0.4905 C -0.1959 0.4905 -0.1977 0.4903 -0.1988 0.49 C -0.1999 0.4897 -0.2022 0.4892 -0.2039 0.4889 C -0.208 0.488 -0.2097 0.4862 -0.2089 0.4836 C -0.208 0.4811 -0.2073 0.4805 -0.2042 0.4797 C -0.202 0.4791 -0.2014 0.4787 -0.2011 0.4776 C -0.2007 0.4759 -0.1985 0.4754 -0.1906 0.4754 C -0.1867 0.4753 -0.1854 0.4751 -0.1851 0.4745 C -0.1848 0.4736 -0.1795 0.4701 -0.1767 0.4689 C -0.1756 0.4684 -0.1733 0.468 -0.1716 0.468 C -0.1686 0.468 -0.1683 0.4679 -0.1661 0.4655 C -0.1633 0.4626 -0.1585 0.4601 -0.1532 0.4588 C -0.1486 0.4576 -0.1428 0.4547 -0.1378 0.4512 C -0.1357 0.4496 -0.1325 0.4478 -0.1308 0.4471 C -0.1257 0.4451 -0.1222 0.4429 -0.1195 0.4402 C -0.1175 0.4382 -0.1166 0.4376 -0.1152 0.4376 C -0.1133 0.4376 -0.1127 0.4369 -0.1127 0.4343 C -0.1127 0.4322 -0.1143 0.4309 -0.117 0.4309 C -0.1183 0.4308 -0.1198 0.4304 -0.1206 0.4298 L -0.1219 0.4287 L -0.1204 0.4265 C -0.1193 0.425 -0.1189 0.4236 -0.1189 0.4218 C -0.1189 0.4204 -0.1185 0.4187 -0.1181 0.4179 C -0.1168 0.4158 -0.117 0.4154 -0.1202 0.4132 C -0.1238 0.4107 -0.1248 0.4107 -0.1259 0.4128 C -0.1264 0.4138 -0.1276 0.4149 -0.1285 0.4154 C -0.1298 0.4161 -0.1302 0.4166 -0.1302 0.4179 C -0.1302 0.4194 -0.1304 0.4196 -0.1317 0.4196 C -0.1334 0.4196 -0.1348 0.4204 -0.1369 0.4223 C -0.1377 0.423 -0.1392 0.4243 -0.1403 0.4253 C -0.1418 0.4267 -0.1432 0.4273 -0.1463 0.4279 C -0.1485 0.4283 -0.1512 0.429 -0.1522 0.4294 C -0.1539 0.4301 -0.1542 0.4301 -0.1569 0.4286 C -0.1613 0.4261 -0.169 0.4256 -0.169 0.4278 C -0.169 0.4289 -0.1738 0.4334 -0.1767 0.4349 C -0.1781 0.4356 -0.1793 0.4367 -0.1795 0.4372 C -0.1799 0.4385 -0.1815 0.4384 -0.1828 0.437 C -0.184 0.4357 -0.1845 0.4309 -0.1838 0.4281 C -0.1832 0.4258 -0.1797 0.4231 -0.1749 0.4214 C -0.1733 0.4207 -0.17 0.419 -0.1678 0.4176 C -0.1651 0.4158 -0.1628 0.4148 -0.1613 0.4147 L -0.1589 0.4144 L -0.1589 0.4117 C -0.1589 0.4081 -0.1585 0.4072 -0.1567 0.4072 C -0.1558 0.4072 -0.1548 0.4067 -0.1541 0.4058 C -0.1531 0.4046 -0.1523 0.4043 -0.1487 0.404 C -0.1464 0.4038 -0.1419 0.4037 -0.1387 0.4038 C -0.1343 0.4039 -0.1328 0.4037 -0.1321 0.4031 C -0.1317 0.4026 -0.131 0.4022 -0.1307 0.4021 C -0.1304 0.4019 -0.1298 0.4008 -0.1293 0.3996 C -0.1284 0.3969 -0.1277 0.3967 -0.1193 0.3976 L -0.1133 0.3983 L -0.1113 0.3962 C -0.1096 0.3944 -0.1093 0.3937 -0.1095 0.3922 C -0.1096 0.3907 -0.1095 0.3903 -0.1086 0.3903 C -0.1075 0.3903 -0.1065 0.3883 -0.1065 0.3858 C -0.1065 0.3849 -0.1061 0.384 -0.1056 0.3837 C -0.1051 0.3834 -0.1039 0.3817 -0.1029 0.3799 C -0.1015 0.3772 -0.1009 0.3765 -0.0997 0.3764 C -0.0986 0.3762 -0.098 0.3757 -0.0976 0.3745 C -0.0971 0.3731 -0.0967 0.3729 -0.0947 0.3729 C -0.0932 0.3729 -0.0921 0.3725 -0.0913 0.3718 C -0.0905 0.3709 -0.0898 0.3707 -0.0884 0.371 C -0.0871 0.3713 -0.0865 0.3711 -0.0861 0.3704 C -0.0858 0.3697 -0.0848 0.3695 -0.0822 0.3695 C -0.0769 0.3695 -0.0768 0.3694 -0.0768 0.3627 L -0.0768 0.357 L -0.08 0.3573 C -0.0908 0.3584 -0.0904 0.3584 -0.0919 0.3599 C -0.0927 0.3608 -0.0939 0.3617 -0.0946 0.3619 C -0.0954 0.3621 -0.0963 0.3631 -0.0967 0.3642 C -0.0972 0.3653 -0.0982 0.3664 -0.0989 0.3667 C -0.0997 0.367 -0.1004 0.3678 -0.1007 0.3687 C -0.1009 0.3694 -0.1015 0.3703 -0.1021 0.3707 C -0.1026 0.371 -0.1035 0.372 -0.104 0.3729 C -0.1045 0.3739 -0.1054 0.3746 -0.1065 0.3749 C -0.1076 0.3751 -0.1085 0.3758 -0.109 0.3768 C -0.11 0.3787 -0.113 0.3798 -0.1196 0.3808 L -0.1241 0.3815 L -0.1256 0.3798 C -0.127 0.378 -0.1271 0.378 -0.1327 0.3778 L -0.1383 0.3777 L -0.1386 0.3746 C -0.139 0.371 -0.1398 0.3692 -0.1414 0.3687 C -0.1423 0.3684 -0.1425 0.3678 -0.1425 0.3663 C -0.1425 0.3621 -0.1448 0.3608 -0.1462 0.3641 C -0.1468 0.3655 -0.1475 0.3662 -0.1486 0.3665 C -0.1502 0.3669 -0.1523 0.368 -0.157 0.3711 C -0.1599 0.373 -0.1617 0.3731 -0.1617 0.3716 C -0.1617 0.3711 -0.1621 0.3706 -0.1625 0.3704 C -0.163 0.3702 -0.1634 0.3694 -0.1634 0.3683 C -0.1634 0.3663 -0.1651 0.3639 -0.1671 0.3628 C -0.1678 0.3625 -0.1709 0.3622 -0.174 0.3622 L -0.1796 0.3622 L -0.1811 0.3602 C -0.1819 0.3591 -0.1824 0.358 -0.1822 0.3577 C -0.1815 0.3572 -0.1674 0.3554 -0.1636 0.3554 C -0.1621 0.3554 -0.1603 0.3551 -0.1597 0.3546 C -0.159 0.3542 -0.1566 0.3537 -0.1541 0.3536 C -0.1472 0.3531 -0.146 0.3528 -0.1449 0.3506 C -0.1441 0.3489 -0.1438 0.3487 -0.1415 0.3486 C -0.1389 0.3484 -0.1389 0.3483 -0.1387 0.3464 L -0.1385 0.3444 L -0.144 0.3422 C -0.1541 0.3382 -0.1538 0.3369 -0.1427 0.3364 L -0.1355 0.3361 L -0.1326 0.3339 C -0.1307 0.3325 -0.1292 0.3318 -0.128 0.3318 C -0.1265 0.3318 -0.1262 0.3316 -0.1262 0.3305 C -0.1262 0.3286 -0.1252 0.3278 -0.1228 0.3278 C -0.12 0.3278 -0.1178 0.327 -0.1178 0.3259 C -0.1178 0.3254 -0.1175 0.3245 -0.1171 0.3239 C -0.1161 0.3223 -0.1173 0.3214 -0.1207 0.3213 C -0.1229 0.3213 -0.1241 0.3216 -0.1252 0.3224 C -0.1265 0.3233 -0.1279 0.3236 -0.1329 0.3238 C -0.1408 0.3241 -0.1417 0.3239 -0.1426 0.3213 C -0.1429 0.3202 -0.144 0.3188 -0.1451 0.3181 C -0.1492 0.3154 -0.1554 0.3101 -0.1555 0.3093 C -0.1555 0.3087 -0.1545 0.3082 -0.1525 0.3077 C -0.1486 0.3068 -0.1465 0.3068 -0.1453 0.3079 C -0.1445 0.3087 -0.1441 0.3086 -0.1419 0.3075 C -0.1397 0.3063 -0.1385 0.3062 -0.1309 0.306 C -0.1227 0.3058 -0.1223 0.3057 -0.1211 0.3044 C -0.12 0.3032 -0.1194 0.3031 -0.1153 0.3031 C -0.1127 0.3031 -0.1104 0.3028 -0.1101 0.3026 C -0.1099 0.3023 -0.109 0.302 -0.1082 0.3019 C -0.1062 0.3016 -0.1063 0.2997 -0.1085 0.2986 C -0.1099 0.2979 -0.1123 0.2978 -0.1218 0.2979 C -0.1349 0.2981 -0.1366 0.2977 -0.1386 0.2945 C -0.1392 0.2935 -0.1397 0.2924 -0.1397 0.292 C -0.1397 0.2916 -0.1382 0.2898 -0.1363 0.2879 C -0.1308 0.2826 -0.1321 0.2817 -0.1455 0.2817 C -0.1538 0.2817 -0.1549 0.2816 -0.1554 0.2807 C -0.1559 0.2799 -0.1567 0.2798 -0.1602 0.2799 L -0.1645 0.2801 L -0.1653 0.2781 C -0.166 0.2765 -0.167 0.2757 -0.1703 0.274 C -0.1751 0.2715 -0.1848 0.2624 -0.1848 0.2603 C -0.1848 0.2586 -0.1834 0.2583 -0.1815 0.2597 C -0.1797 0.261 -0.1785 0.2611 -0.1682 0.26 C -0.165 0.2596 -0.1647 0.2597 -0.1634 0.2611 C -0.1617 0.2629 -0.1607 0.2629 -0.159 0.2613 C -0.1579 0.2603 -0.157 0.26 -0.1544 0.26 C -0.151 0.26 -0.1493 0.2592 -0.1493 0.2575 C -0.1493 0.2569 -0.1497 0.2562 -0.1501 0.2558 C -0.1514 0.2547 -0.1512 0.2539 -0.149 0.2519 L -0.1471 0.25 L -0.1397 0.2506 C -0.1316 0.2513 -0.1298 0.2521 -0.1295 0.2552 C -0.1294 0.2562 -0.129 0.2566 -0.1282 0.2566 C -0.1272 0.2566 -0.127 0.2562 -0.1269 0.2534 L -0.1267 0.2502 L -0.1293 0.2485 C -0.1326 0.2462 -0.1347 0.2434 -0.1355 0.2401 C -0.1363 0.2369 -0.1376 0.2362 -0.1428 0.2357 C -0.1462 0.2354 -0.1466 0.2352 -0.1477 0.2335 C -0.1483 0.2324 -0.1504 0.2302 -0.1522 0.2286 C -0.1547 0.2264 -0.1556 0.2252 -0.1553 0.2246 C -0.155 0.2238 -0.1544 0.2237 -0.1509 0.224 C -0.1454 0.2245 -0.1409 0.2253 -0.1391 0.2263 C -0.1382 0.2267 -0.1369 0.2271 -0.1362 0.2271 C -0.1354 0.2271 -0.1338 0.2275 -0.1326 0.228 C -0.1312 0.2287 -0.1288 0.229 -0.1257 0.229 L -0.1209 0.229 L -0.1207 0.2306 C -0.1204 0.2334 -0.1178 0.234 -0.1085 0.2336 C -0.101 0.2332 -0.0986 0.2327 -0.0986 0.2316 C -0.0986 0.2314 -0.0995 0.2301 -0.1005 0.2287 C -0.1033 0.225 -0.1035 0.2241 -0.1016 0.2217 C -0.1007 0.2206 -0.0995 0.2198 -0.0988 0.2198 C -0.0981 0.2198 -0.0975 0.2193 -0.0974 0.2187 C -0.0972 0.218 -0.0964 0.2176 -0.0949 0.2173 C -0.0927 0.217 -0.0907 0.2154 -0.09 0.2134 C -0.0897 0.2127 -0.0893 0.2125 -0.0882 0.2128 C -0.0869 0.2131 -0.0867 0.213 -0.0869 0.2121 C -0.087 0.2115 -0.0877 0.2109 -0.0885 0.2108 C -0.0894 0.2105 -0.09 0.21 -0.0901 0.2092 C -0.0903 0.2077 -0.0914 0.2071 -0.0947 0.2065 C -0.0961 0.2063 -0.098 0.2057 -0.099 0.2051 C -0.1 0.2045 -0.1018 0.2039 -0.103 0.2037 C -0.1041 0.2034 -0.1059 0.2029 -0.107 0.2025 C -0.108 0.2021 -0.1113 0.2012 -0.1143 0.2006 C -0.1173 0.2 -0.1213 0.199 -0.1231 0.1983 C -0.1265 0.1971 -0.132 0.1937 -0.1335 0.192 C -0.1339 0.1915 -0.1345 0.191 -0.1349 0.191 C -0.1361 0.191 -0.1425 0.1866 -0.1425 0.1857 C -0.1425 0.1852 -0.1433 0.1844 -0.1441 0.1839 C -0.1467 0.1823 -0.1561 0.1722 -0.1561 0.171 C -0.1561 0.1688 -0.1551 0.1685 -0.1455 0.1685 L -0.1362 0.1685 L -0.1347 0.1702 C -0.1332 0.1718 -0.1329 0.1719 -0.1286 0.1719 C -0.1243 0.1719 -0.1241 0.172 -0.1229 0.1736 C -0.1217 0.1752 -0.1215 0.1753 -0.1175 0.1753 C -0.1135 0.1753 -0.1132 0.1754 -0.1127 0.1766 C -0.1122 0.1781 -0.1093 0.1789 -0.1066 0.1783 C -0.1056 0.1781 -0.1048 0.1783 -0.1043 0.1789 C -0.1037 0.1796 -0.1024 0.1798 -0.098 0.1798 C -0.0925 0.1798 -0.0925 0.1798 -0.0917 0.1814 C -0.091 0.1826 -0.0902 0.1831 -0.0879 0.1836 C -0.0839 0.1846 -0.0814 0.1845 -0.081 0.1834 C -0.0808 0.183 -0.0808 0.1814 -0.081 0.18 C -0.0813 0.1778 -0.0815 0.1776 -0.0825 0.1779 C -0.0831 0.1781 -0.0842 0.1779 -0.0849 0.1775 C -0.086 0.1769 -0.0867 0.1769 -0.0881 0.1774 C -0.0896 0.1779 -0.0954 0.1783 -0.0984 0.1781 C -0.0988 0.1781 -0.0996 0.1772 -0.1002 0.1762 C -0.1019 0.1733 -0.1066 0.1723 -0.1106 0.1739 C -0.1113 0.1742 -0.1117 0.1739 -0.1121 0.1728 C -0.1128 0.1711 -0.1147 0.1702 -0.1177 0.1702 C -0.1193 0.1702 -0.1201 0.1699 -0.1208 0.169 C -0.1228 0.1661 -0.1234 0.1656 -0.1246 0.1655 C -0.1258 0.1654 -0.126 0.1651 -0.1262 0.1617 C -0.1265 0.1581 -0.1266 0.1578 -0.1289 0.1559 C -0.1307 0.1543 -0.1313 0.1534 -0.1313 0.1522 C -0.1313 0.1505 -0.1337 0.1479 -0.1369 0.1463 C -0.1378 0.1458 -0.1386 0.1451 -0.1386 0.1447 C -0.1386 0.1437 -0.1374 0.1426 -0.1364 0.1426 C -0.1359 0.1426 -0.1348 0.1418 -0.134 0.1408 C -0.1314 0.1376 -0.1278 0.1384 -0.1165 0.1448 C -0.114 0.1463 -0.1123 0.1468 -0.1092 0.1471 C -0.1054 0.1474 -0.1051 0.1475 -0.1049 0.1488 C -0.1047 0.1508 -0.1039 0.1514 -0.1029 0.1505 C -0.1015 0.1494 -0.1018 0.1484 -0.1043 0.1459 C -0.1061 0.1441 -0.1065 0.1433 -0.1065 0.1416 C -0.1065 0.1398 -0.1061 0.1392 -0.1034 0.137 C -0.1004 0.1345 -0.1003 0.1344 -0.1003 0.1315 C -0.1003 0.1289 -0.1005 0.1285 -0.1019 0.1278 C -0.1028 0.1273 -0.1073 0.123 -0.1118 0.1183 L -0.12 0.1097 L -0.12 0.1066 C -0.12 0.1045 -0.1205 0.1022 -0.1214 0.1 C -0.1227 0.0967 -0.1228 0.0958 -0.1228 0.087 C -0.1228 0.0804 -0.1226 0.0774 -0.1222 0.0769 C -0.1211 0.0758 -0.1178 0.076 -0.1174 0.0772 C -0.1164 0.0801 -0.1138 0.0846 -0.1117 0.087 C -0.1095 0.0894 -0.1089 0.0897 -0.107 0.0897 C -0.1048 0.0897 -0.1035 0.0906 -0.1017 0.0933 C -0.1012 0.0941 -0.1 0.0951 -0.0989 0.0956 C -0.0964 0.0968 -0.0963 0.0971 -0.097 0.0993 C -0.0976 0.101 -0.0976 0.1012 -0.0941 0.1047 C -0.0898 0.109 -0.0887 0.1095 -0.0873 0.1078 C -0.0864 0.1067 -0.0863 0.1058 -0.0866 0.1022 C -0.0869 0.0987 -0.0872 0.0975 -0.0886 0.0955 C -0.0908 0.0923 -0.0907 0.0908 -0.0879 0.0884 C -0.0862 0.0868 -0.0852 0.0863 -0.0835 0.0863 C -0.0824 0.0863 -0.0811 0.0861 -0.0808 0.0857 C -0.0803 0.0852 -0.0793 0.0849 -0.0777 0.0847 C -0.0771 0.0846 -0.0767 0.0785 -0.0772 0.0771 C -0.0775 0.0762 -0.0783 0.0756 -0.0794 0.0754 C -0.0805 0.0751 -0.0814 0.0744 -0.0819 0.0735 C -0.0823 0.0726 -0.0832 0.0719 -0.0843 0.0717 C -0.0867 0.0712 -0.0885 0.0701 -0.0885 0.0691 C -0.0885 0.0687 -0.0889 0.0681 -0.0895 0.0679 C -0.0911 0.0674 -0.0924 0.066 -0.0924 0.0648 C -0.0924 0.0633 -0.0895 0.0593 -0.0873 0.0575 C -0.0844 0.0553 -0.0811 0.0538 -0.0782 0.0534 L -0.0756 0.053 L -0.0744 0.0556 C -0.0732 0.0582 -0.0715 0.0599 -0.0701 0.0599 C -0.0693 0.0599 -0.0643 0.0551 -0.0643 0.0543 C -0.0643 0.054 -0.0636 0.0534 -0.0627 0.053 C -0.0615 0.0524 -0.0611 0.0518 -0.0609 0.0497 C -0.0607 0.0482 -0.06 0.0464 -0.0591 0.0452 C -0.0582 0.0441 -0.0575 0.0427 -0.0575 0.0421 C -0.0575 0.0404 -0.0504 0.0323 -0.0489 0.0323 C -0.0485 0.0323 -0.0472 0.0317 -0.0461 0.0309 C -0.0443 0.0297 -0.0433 0.0295 -0.0401 0.0295 C -0.0363 0.0295 -0.0362 0.0295 -0.0351 0.0314 C -0.0344 0.0326 -0.0335 0.0334 -0.0327 0.0335 C -0.0314 0.0337 -0.0314 0.0339 -0.0313 0.0388 C -0.0312 0.0431 -0.031 0.0442 -0.0297 0.0466 C -0.0289 0.0481 -0.0283 0.05 -0.0283 0.0507 C -0.0283 0.0515 -0.0273 0.0527 -0.0255 0.0543 C -0.0228 0.0566 -0.0226 0.0568 -0.0226 0.0594 C -0.0226 0.0621 -0.0226 0.0621 -0.0194 0.0642 C -0.0175 0.0655 -0.0147 0.0682 -0.0126 0.0709 C -0.0083 0.0762 -0.0074 0.0769 -0.0050 0.0767 C -0.0034 0.0765 -0.0032 0.0767 -0.0030 0.0781 C -0.0029 0.079 -0.0025 0.0803 -0.0021 0.0809 C -0.0015 0.0817 -0.0015 0.0824 -0.0018 0.083 C -0.0026 0.0843 -0.0025 0.0856 -0.0015 0.086 C 0.0 0.0866 0.0011 0.0853 7.0E-4 0.0835 C 4.0E-4 0.0821 0.0010 0.0812 0.0074 0.0749 C 0.0118 0.0706 0.0145 0.0674 0.0145 0.0667 C 0.0145 0.0652 0.0152 0.0649 0.0182 0.0649 C 0.0196 0.0649 0.0209 0.0645 0.0213 0.0641 C 0.0217 0.0636 0.0223 0.0633 0.0228 0.0633 C 0.0232 0.0633 0.0237 0.0629 0.0239 0.0624 C 0.0241 0.062 0.0247 0.0616 0.0253 0.0616 C 0.0262 0.0616 0.0263 0.062 0.0263 0.0665 C 0.0263 0.0692 0.0265 0.0738 0.0267 0.0768 L 0.0271 0.0822 L 0.025 0.0834 C 0.0229 0.0846 0.0229 0.0847 0.0233 0.0872 C 0.0236 0.0895 0.0235 0.09 0.0221 0.0915 C 0.0207 0.0929 0.0205 0.0933 0.0211 0.0947 C 0.0217 0.0964 0.0215 0.0976 0.0205 0.0976 C 0.0202 0.0976 0.017 0.1004 0.0134 0.1038 C 0.0067 0.1102 0.0062 0.1111 0.0092 0.1123 C 0.0101 0.1126 0.0134 0.1127 0.0166 0.1126 L 0.0224 0.1124 L 0.0253 0.1092 C 0.0279 0.1063 0.0283 0.106 0.0306 0.106 C 0.0329 0.106 0.0332 0.1059 0.0339 0.1042 C 0.0344 0.1032 0.0352 0.1021 0.0359 0.1017 C 0.0365 0.1013 0.037 0.1004 0.037 0.0997 C 0.037 0.0979 0.0392 0.0948 0.0413 0.0935 C 0.0428 0.0927 0.0437 0.0926 0.047 0.093 L 0.0508 0.0934 L 0.0508 0.099 C 0.0508 0.1045 0.0508 0.1046 0.0495 0.1048 C 0.0474 0.1051 0.046 0.108 0.046 0.1121 C 0.046 0.1153 0.0459 0.1156 0.0447 0.1159 C 0.0434 0.1163 0.0433 0.1166 0.0431 0.1205 C 0.0429 0.1249 0.0428 0.1252 0.0401 0.126 C 0.0391 0.1264 0.0391 0.1265 0.0408 0.1279 C 0.0419 0.1287 0.0427 0.1297 0.0427 0.1301 C 0.0427 0.1323 0.0476 0.1302 0.0496 0.1272 C 0.0504 0.126 0.051 0.1257 0.0531 0.1257 C 0.0551 0.1257 0.0557 0.1255 0.0569 0.124 L 0.0582 0.1223 L 0.0708 0.1225 L 0.0835 0.1227 L 0.0837 0.125 C 0.0838 0.1271 0.0836 0.1274 0.0823 0.1281 C 0.0815 0.1285 0.0806 0.1292 0.0804 0.1297 C 0.0792 0.1322 0.0787 0.1328 0.0775 0.1331 C 0.0768 0.1333 0.0761 0.1339 0.076 0.1345 C 0.0756 0.1363 0.0749 0.1367 0.0733 0.1359 C 0.0721 0.1352 0.0716 0.1353 0.0698 0.1361 C 0.0686 0.1367 0.0658 0.1372 0.0627 0.1374 C 0.0572 0.1377 0.0562 0.1383 0.0562 0.1409 C 0.0562 0.1417 0.0554 0.1431 0.0544 0.1441 C 0.0523 0.1463 0.0521 0.1462 0.06 0.1471 L 0.0659 0.1478 L 0.0687 0.1449 C 0.0706 0.143 0.0719 0.1421 0.0729 0.1421 C 0.0737 0.1421 0.0752 0.1413 0.0762 0.1404 C 0.0781 0.1387 0.0783 0.1387 0.0846 0.1387 C 0.0923 0.1387 0.0922 0.1386 0.0922 0.1457 C 0.0922 0.1497 0.092 0.1506 0.0912 0.151 C 0.0906 0.1513 0.0898 0.1513 0.0893 0.1511 C 0.0887 0.1507 0.0878 0.1512 0.086 0.1528 C 0.0836 0.155 0.0835 0.1552 0.0835 0.1583 C 0.0835 0.1614 0.0834 0.1615 0.0818 0.1618 C 0.0807 0.162 0.08 0.1625 0.0799 0.1632 C 0.0796 0.165 0.0792 0.1651 0.0736 0.1652 C 0.0695 0.1653 0.068 0.1656 0.0669 0.1664 C 0.0661 0.167 0.0646 0.1674 0.0632 0.1674 C 0.0606 0.1674 0.0593 0.1684 0.0597 0.1701 C 0.0598 0.171 0.0608 0.1711 0.0691 0.1713 L 0.0784 0.1716 L 0.0801 0.1699 C 0.0814 0.1685 0.0825 0.168 0.0846 0.1677 C 0.0885 0.1672 0.0898 0.1665 0.0901 0.165 L 0.0902 0.1637 L 0.1009 0.1637 L 0.1116 0.1637 L 0.1118 0.1666 C 0.1119 0.1692 0.1118 0.1696 0.1105 0.1704 C 0.1094 0.1712 0.1091 0.1718 0.1091 0.1737 C 0.1091 0.1756 0.1088 0.1763 0.1072 0.1777 C 0.1062 0.1787 0.1052 0.1799 0.105 0.1805 C 0.1047 0.1813 0.1037 0.1815 0.0986 0.1816 L 0.0925 0.1818 L 0.0915 0.1845 C 0.0899 0.1892 0.0865 0.1927 0.0823 0.1941 C 0.0806 0.1947 0.08 0.1952 0.0798 0.1965 C 0.0795 0.1984 0.0782 0.1988 0.0722 0.1989 C 0.0666 0.1989 0.0652 0.1986 0.0646 0.1969 C 0.0641 0.1955 0.0609 0.1938 0.0597 0.1943 C 0.058 0.1949 0.0594 0.1978 0.0613 0.1978 C 0.0619 0.1978 0.0626 0.1983 0.0629 0.1989 C 0.0633 0.1996 0.0641 0.2001 0.0648 0.2001 C 0.0665 0.2001 0.0674 0.2011 0.0674 0.2029 C 0.0674 0.2047 0.0665 0.2057 0.0646 0.2057 C 0.0626 0.2057 0.0596 0.2077 0.0592 0.2093 C 0.0589 0.2106 0.0586 0.2108 0.0566 0.2108 C 0.0554 0.2108 0.0534 0.2105 0.0522 0.2101 C 0.0505 0.2096 0.0493 0.2097 0.046 0.2104 C 0.0414 0.2114 0.0344 0.2116 0.0324 0.2107 C 0.0316 0.2104 0.0303 0.2103 0.0289 0.2106 C 0.0268 0.211 0.0266 0.2112 0.0264 0.2131 C 0.0263 0.2147 0.0265 0.2153 0.0274 0.2158 C 0.0281 0.2161 0.0286 0.2163 0.0286 0.2161 C 0.0286 0.2159 0.0293 0.2162 0.0303 0.2167 C 0.0316 0.2175 0.0322 0.2176 0.0334 0.217 C 0.0352 0.2162 0.0387 0.2162 0.0461 0.217 C 0.0525 0.2177 0.0539 0.2174 0.0552 0.2149 L 0.0559 0.2133 L 0.0621 0.2133 C 0.0672 0.2133 0.0687 0.2131 0.0705 0.2122 C 0.0726 0.2111 0.0739 0.211 0.0921 0.211 C 0.1101 0.211 0.1115 0.2111 0.112 0.212 C 0.1124 0.2128 0.1132 0.213 0.1153 0.213 C 0.1175 0.213 0.1182 0.2132 0.1187 0.2141 C 0.119 0.2148 0.1205 0.2159 0.1221 0.2167 C 0.1247 0.218 0.1249 0.2182 0.1249 0.2203 C 0.1249 0.2232 0.1267 0.2245 0.1306 0.2245 C 0.1328 0.2245 0.1335 0.2243 0.1351 0.2227 C 0.1365 0.2213 0.1375 0.2209 0.1391 0.2209 C 0.1407 0.2209 0.1414 0.2205 0.1431 0.2185 C 0.1446 0.2167 0.1455 0.2162 0.1469 0.2162 C 0.1484 0.2161 0.1489 0.2157 0.1495 0.2145 C 0.1503 0.213 0.1503 0.213 0.1554 0.2131 L 0.1606 0.2133 L 0.1606 0.2164 L 0.1606 0.2195 L 0.1582 0.2197 C 0.1568 0.2198 0.1556 0.2202 0.1555 0.2206 C 0.1553 0.221 0.1537 0.2225 0.1519 0.224 C 0.1501 0.2254 0.1483 0.2274 0.148 0.2283 C 0.1477 0.2292 0.147 0.2299 0.1466 0.2299 C 0.1461 0.2299 0.1447 0.2308 0.1435 0.2319 C 0.1416 0.2336 0.1412 0.2343 0.1411 0.2365 C 0.1409 0.2387 0.1406 0.2393 0.1388 0.2408 C 0.1367 0.2424 0.1365 0.2425 0.1299 0.2427 C 0.1248 0.2428 0.1226 0.2426 0.1211 0.242 C 0.1189 0.2411 0.1163 0.2409 0.1156 0.2416 C 0.1154 0.2418 0.1138 0.2425 0.112 0.2431 C 0.109 0.2442 0.1088 0.2444 0.1085 0.2464 C 0.1081 0.2488 0.1089 0.2518 0.1104 0.2535 C 0.111 0.2541 0.1113 0.2548 0.1111 0.2551 C 0.1109 0.2555 0.1077 0.2556 0.1024 0.2554 L 0.0941 0.2551 L 0.0929 0.257 C 0.0915 0.2592 0.0895 0.2604 0.0878 0.2599 C 0.0865 0.2596 0.0853 0.2615 0.0842 0.2659 C 0.0836 0.2681 0.083 0.269 0.0811 0.2704 C 0.079 0.2719 0.0783 0.2721 0.0747 0.2721 C 0.0711 0.2721 0.0707 0.272 0.0703 0.2708 C 0.0695 0.2688 0.0683 0.2685 0.0615 0.2687 L 0.0552 0.2689 L 0.0532 0.2671 C 0.0508 0.265 0.0493 0.2649 0.0474 0.2667 C 0.0459 0.2682 0.0458 0.2691 0.0466 0.2712 C 0.0472 0.2729 0.0498 0.2738 0.0542 0.2738 C 0.057 0.2738 0.0581 0.2741 0.0598 0.2752 C 0.062 0.2767 0.0635 0.277 0.0651 0.276 C 0.0659 0.2755 0.0666 0.2756 0.0686 0.2766 C 0.07 0.2773 0.0716 0.2783 0.0722 0.2789 C 0.0728 0.2794 0.0748 0.2806 0.0765 0.2815 C 0.0782 0.2824 0.081 0.2841 0.0827 0.2853 C 0.0844 0.2864 0.0861 0.2873 0.0865 0.2873 C 0.0868 0.2873 0.0874 0.2878 0.0877 0.2885 C 0.0883 0.2895 0.0887 0.2896 0.0913 0.2893 C 0.0929 0.2891 0.0952 0.2883 0.0965 0.2875 C 0.0988 0.2862 0.0992 0.2862 0.1115 0.2862 L 0.1241 0.2862 L 0.1264 0.2886 C 0.1281 0.2903 0.1288 0.2915 0.1289 0.2929 C 0.1291 0.2948 0.1292 0.2949 0.1308 0.2948 C 0.1403 0.294 0.1431 0.294 0.1468 0.2946 C 0.1507 0.2952 0.151 0.2952 0.1521 0.2941 C 0.1529 0.2934 0.1541 0.2929 0.1553 0.2929 C 0.1566 0.2929 0.1581 0.2924 0.1595 0.2913 C 0.161 0.2902 0.1628 0.2895 0.1647 0.2892 C 0.1669 0.289 0.1678 0.2885 0.1685 0.2875 C 0.1691 0.2865 0.1699 0.2862 0.1714 0.2862 C 0.1729 0.2862 0.1739 0.2858 0.1751 0.2847 C 0.1762 0.2836 0.1772 0.2832 0.179 0.2831 L 0.1814 0.2831 L 0.1816 0.2863 C 0.1817 0.2892 0.1816 0.2896 0.1805 0.2902 C 0.1798 0.2905 0.1776 0.2921 0.1757 0.2936 C 0.1724 0.2962 0.1678 0.298 0.1644 0.298 C 0.1636 0.298 0.1624 0.2987 0.1616 0.2997 C 0.1605 0.3009 0.1596 0.3014 0.1582 0.3014 C 0.1569 0.3014 0.1561 0.3018 0.1552 0.3031 C 0.1544 0.3042 0.1532 0.3049 0.1519 0.3051 C 0.1508 0.3053 0.1493 0.306 0.1486 0.3067 C 0.1476 0.3075 0.1463 0.3079 0.1435 0.3081 C 0.14 0.3084 0.1397 0.3085 0.1385 0.3104 C 0.1372 0.3123 0.1371 0.3124 0.1306 0.3133 C 0.127 0.3138 0.1226 0.3143 0.1208 0.3143 C 0.118 0.3143 0.1173 0.3141 0.1157 0.3127 C 0.1146 0.3117 0.1131 0.3107 0.1122 0.3104 L 0.1106 0.3098 L 0.1118 0.3085 C 0.1133 0.3069 0.1134 0.3061 0.1119 0.3053 C 0.1106 0.3046 0.1091 0.3054 0.1091 0.3067 C 0.1091 0.3071 0.1083 0.3079 0.1074 0.3086 C 0.1064 0.3093 0.1054 0.3105 0.1051 0.3113 C 0.1047 0.3125 0.1044 0.3126 0.1023 0.3123 C 0.1005 0.312 0.0998 0.3122 0.0989 0.313 C 0.0983 0.3136 0.0967 0.3143 0.0954 0.3146 C 0.0924 0.3154 0.0921 0.3167 0.0946 0.3181 C 0.0963 0.319 0.0988 0.3191 0.1236 0.3194 L 0.1508 0.3197 L 0.1523 0.3215 C 0.1532 0.3225 0.1545 0.3235 0.1552 0.3238 C 0.156 0.3241 0.1568 0.325 0.1572 0.3262 C 0.1576 0.3275 0.1582 0.3282 0.1592 0.3284 C 0.1601 0.3286 0.1607 0.3292 0.1608 0.33 C 0.1609 0.3307 0.1615 0.3316 0.1622 0.3321 C 0.1629 0.3326 0.1638 0.3335 0.1641 0.3343 C 0.1645 0.3351 0.1656 0.3359 0.1668 0.3363 C 0.1688 0.3369 0.1703 0.3391 0.1696 0.3403 C 0.1694 0.3406 0.1675 0.3408 0.1653 0.3408 C 0.1615 0.3408 0.1612 0.3407 0.1591 0.3388 C 0.1579 0.3377 0.1563 0.3369 0.1556 0.3369 C 0.1549 0.3369 0.1533 0.3361 0.1522 0.3352 C 0.1493 0.3329 0.1468 0.3329 0.1432 0.3352 C 0.141 0.3366 0.14 0.3369 0.137 0.3369 C 0.1344 0.3369 0.1331 0.3371 0.1322 0.3379 C 0.131 0.3389 0.1309 0.3391 0.1316 0.3418 C 0.1324 0.3451 0.1321 0.3464 0.1307 0.3464 C 0.1301 0.3464 0.1292 0.3469 0.1286 0.3475 C 0.1276 0.3484 0.1261 0.3487 0.1211 0.349 L 0.1149 0.3494 L 0.1133 0.3473 C 0.1114 0.3448 0.1099 0.3447 0.1094 0.347 C 0.1088 0.3496 0.1079 0.3496 0.1059 0.3473 C 0.1042 0.3454 0.1039 0.3452 0.102 0.3455 C 0.1009 0.3457 0.0991 0.3463 0.0979 0.3468 C 0.0963 0.3476 0.0958 0.3482 0.0957 0.3496 C 0.0955 0.3511 0.0958 0.3516 0.0972 0.3523 C 0.0982 0.3528 0.0989 0.3537 0.0991 0.3548 C 0.0994 0.356 0.1001 0.3569 0.1018 0.3578 C 0.1041 0.3591 0.1046 0.3599 0.1032 0.3599 C 0.1022 0.3599 0.1021 0.3613 0.103 0.3639 C 0.1036 0.3656 0.1035 0.3658 0.1021 0.3669 C 0.1002 0.3685 0.1003 0.3693 0.1024 0.3719 L 0.1041 0.374 L 0.1079 0.3737 C 0.11 0.3735 0.1137 0.3735 0.1161 0.3737 C 0.1198 0.374 0.1207 0.3744 0.1218 0.3755 C 0.1228 0.3766 0.1242 0.3771 0.1274 0.3777 C 0.1298 0.3781 0.1322 0.3788 0.1329 0.3793 C 0.1336 0.3798 0.135 0.3808 0.136 0.3814 C 0.1371 0.3821 0.138 0.3833 0.1384 0.3846 C 0.1387 0.3857 0.1398 0.3881 0.1409 0.3897 C 0.142 0.3914 0.1429 0.3931 0.1429 0.3934 C 0.1429 0.3937 0.1441 0.3948 0.1455 0.3957 C 0.1475 0.397 0.1483 0.3979 0.1489 0.3997 C 0.1494 0.4013 0.1505 0.4027 0.1518 0.4038 C 0.1537 0.4053 0.1553 0.4083 0.1553 0.4105 C 0.1553 0.4115 0.1524 0.4116 0.1444 0.411 C 0.1375 0.4105 0.1363 0.4106 0.1346 0.4114 L 0.1327 0.4123 L 0.1298 0.4096 C 0.1281 0.4081 0.1259 0.4062 0.1248 0.4054 C 0.1237 0.4046 0.1223 0.4029 0.1218 0.4018 C 0.1198 0.3973 0.1188 0.3959 0.1169 0.395 C 0.1153 0.3942 0.1149 0.3935 0.1143 0.3912 C 0.1132 0.3866 0.1094 0.3846 0.1087 0.3882 C 0.1085 0.3892 0.1079 0.39 0.1073 0.3902 C 0.1054 0.3907 0.1061 0.3925 0.1085 0.3932 C 0.1103 0.3937 0.1108 0.3943 0.1116 0.3961 C 0.1121 0.3974 0.1135 0.4001 0.1148 0.4022 C 0.1167 0.4055 0.117 0.4064 0.1167 0.408 C 0.1162 0.4109 0.1149 0.412 0.1102 0.4134 C 0.1036 0.4154 0.1018 0.4165 0.1018 0.4185 C 0.1018 0.4195 0.1022 0.421 0.1027 0.4219 C 0.1035 0.4232 0.1041 0.4235 0.1057 0.4235 C 0.1072 0.4235 0.1086 0.4241 0.1105 0.4255 C 0.1122 0.4267 0.1142 0.4276 0.1158 0.4278 C 0.1172 0.428 0.1198 0.4285 0.1214 0.429 C 0.1231 0.4294 0.129 0.4299 0.1345 0.4301 C 0.1442 0.4305 0.1446 0.4305 0.1454 0.4318 C 0.1469 0.434 0.1494 0.435 0.1528 0.4345 C 0.1569 0.434 0.158 0.4347 0.1582 0.438 C 0.1583 0.4402 0.1586 0.4407 0.1595 0.4409 C 0.1623 0.4414 0.1615 0.4438 0.1585 0.4438 C 0.1576 0.4438 0.1565 0.4442 0.156 0.4447 C 0.1556 0.4451 0.1547 0.4455 0.1541 0.4455 C 0.1523 0.4455 0.1496 0.4471 0.1497 0.4482 C 0.1497 0.4487 0.1507 0.45 0.152 0.451 C 0.1541 0.4527 0.1546 0.4528 0.1586 0.4529 C 0.1683 0.4532 0.168 0.4531 0.1702 0.4548 C 0.1713 0.4556 0.1726 0.4571 0.173 0.4581 C 0.1734 0.4591 0.1744 0.4602 0.1752 0.4606 C 0.176 0.4609 0.1766 0.4615 0.1766 0.4617 C 0.1766 0.4625 0.1652 0.4648 0.1635 0.4643 C 0.1627 0.4641 0.1619 0.4635 0.1617 0.4629 C 0.1612 0.4613 0.16 0.4611 0.15 0.4608 C 0.1406 0.4606 0.1405 0.4606 0.14 0.4592 C 0.1392 0.457 0.1362 0.4555 0.1336 0.4559 C 0.1293 0.4566 0.1275 0.4563 0.1259 0.4545 C 0.1241 0.4525 0.1216 0.4523 0.1202 0.4538 C 0.1189 0.4552 0.119 0.456 0.1204 0.4568 C 0.121 0.4571 0.1215 0.4578 0.1215 0.4584 C 0.1215 0.4592 0.1225 0.46 0.125 0.4612 C 0.127 0.4622 0.1292 0.4636 0.1299 0.4643 C 0.1306 0.4651 0.1329 0.4664 0.1349 0.4672 C 0.137 0.4681 0.1392 0.4692 0.1398 0.4697 C 0.1404 0.4702 0.1425 0.4716 0.1446 0.4727 C 0.1533 0.4777 0.1627 0.485 0.1699 0.4923 C 0.1751 0.4975 0.1809 0.5045 0.1817 0.5065 C 0.182 0.5072 0.1828 0.5085 0.1834 0.5094 C 0.184 0.5103 0.1845 0.5114 0.1845 0.5118 C 0.1845 0.5128 0.1822 0.5136 0.1791 0.5137 C 0.1769 0.5138 0.1763 0.5135 0.1745 0.5118 C 0.1726 0.51 0.172 0.5097 0.1685 0.5093 C 0.1654 0.509 0.1643 0.5087 0.1633 0.5077 C 0.1625 0.5068 0.1612 0.5063 0.1591 0.506 C 0.1548 0.5055 0.1539 0.5057 0.1538 0.5074 C 0.1538 0.5097 0.1533 0.5101 0.1498 0.5104 C 0.148 0.5106 0.1457 0.5109 0.1448 0.5111 C 0.1431 0.5115 0.143 0.5114 0.1415 0.5078 C 0.1404 0.5049 0.1401 0.5031 0.1401 0.4998 L 0.1401 0.4956 L 0.1374 0.4943 C 0.1337 0.4925 0.1279 0.4914 0.1239 0.4919 C 0.1213 0.4923 0.1203 0.4927 0.1188 0.4942 C 0.1172 0.4958 0.117 0.4964 0.117 0.4988 C 0.117 0.5014 0.1172 0.5016 0.1195 0.5034 C 0.1223 0.5054 0.123 0.5071 0.1222 0.5098 C 0.1217 0.5118 0.1211 0.5121 0.1144 0.513 C 0.1101 0.5137 0.1098 0.5136 0.1063 0.5122 C 0.1043 0.5114 0.1014 0.5104 0.1 0.5099 C 0.0986 0.5095 0.0971 0.5087 0.0966 0.5082 C 0.0962 0.5077 0.0947 0.5067 0.0933 0.5061 C 0.0919 0.5054 0.0899 0.5042 0.0888 0.5034 C 0.0877 0.5026 0.0861 0.5017 0.0852 0.5014 C 0.0842 0.5011 0.0832 0.5003 0.0829 0.4996 C 0.0826 0.4988 0.0812 0.498 0.0788 0.4972 C 0.076 0.4963 0.0747 0.4954 0.0721 0.4927 C 0.0703 0.4909 0.0686 0.4894 0.0682 0.4894 C 0.0663 0.4894 0.0551 0.4821 0.0523 0.4791 C 0.0513 0.478 0.0501 0.4775 0.0482 0.4772 C 0.0459 0.4769 0.0454 0.4766 0.0451 0.4755 C 0.0446 0.4736 0.0433 0.4731 0.039 0.4731 C 0.036 0.4731 0.0353 0.4729 0.035 0.4721 C 0.0341 0.4691 0.032 0.4682 0.0308 0.4703 C 0.0298 0.4722 0.0306 0.4742 0.0326 0.4746 C 0.0337 0.4748 0.0343 0.4753 0.0346 0.4762 C 0.0347 0.477 0.0352 0.4778 0.0357 0.4782 C 0.0362 0.4787 0.0363 0.4791 0.0358 0.4801 C 0.0353 0.4812 0.0354 0.4818 0.0361 0.4829 C 0.0367 0.4837 0.0369 0.4846 0.0368 0.4849 C 0.0366 0.4852 0.0351 0.4858 0.0335 0.4863 C 0.0319 0.4869 0.0304 0.4875 0.0301 0.4877 C 0.0298 0.488 0.0299 0.4895 0.0303 0.4912 C 0.0312 0.4951 0.0321 0.4955 0.0394 0.496 C 0.0442 0.4963 0.045 0.4965 0.0461 0.4977 C 0.0469 0.4985 0.048 0.499 0.0491 0.499 C 0.0519 0.499 0.0566 0.5015 0.0577 0.5035 C 0.059 0.5059 0.0633 0.5102 0.0644 0.5102 C 0.066 0.5102 0.0834 0.5181 0.0849 0.5195 C 0.0866 0.5212 0.0904 0.5228 0.0945 0.5237 C 0.0986 0.5247 0.1033 0.5264 0.1058 0.528 C 0.1073 0.529 0.1088 0.5294 0.1108 0.5294 C 0.1134 0.5294 0.1138 0.5296 0.1156 0.5315 C 0.1167 0.5327 0.1184 0.5347 0.1193 0.536 C 0.1206 0.5379 0.1213 0.5384 0.1226 0.5384 C 0.1241 0.5384 0.1261 0.5397 0.1266 0.541 C 0.1267 0.5413 0.1278 0.5421 0.1291 0.5426 C 0.1316 0.5439 0.133 0.5465 0.1317 0.5474 C 0.1305 0.5481 0.1181 0.5487 0.1141 0.5482 C 0.1121 0.548 0.1094 0.5474 0.108 0.5468 C 0.1048 0.5454 0.1038 0.5454 0.1026 0.5472 C 0.1002 0.551 0.0911 0.5513 0.0895 0.5476 C 0.0891 0.5469 0.0886 0.5463 0.0883 0.5463 C 0.088 0.5463 0.0874 0.5455 0.0869 0.5446 C 0.0864 0.5437 0.0849 0.5423 0.0834 0.5415 C 0.0809 0.54 0.0807 0.54 0.0792 0.5408 C 0.0784 0.5414 0.0773 0.5418 0.0768 0.5418 C 0.0759 0.5418 0.075 0.5437 0.0756 0.5446 C 0.0758 0.5449 0.0771 0.5451 0.0786 0.5451 C 0.0816 0.5451 0.0826 0.5458 0.0826 0.5478 C 0.0826 0.5488 0.0833 0.5494 0.0854 0.5505 C 0.0878 0.5517 0.0883 0.5523 0.0889 0.5542 C 0.0897 0.5567 0.0911 0.5577 0.0948 0.5583 C 0.0964 0.5586 0.0978 0.5594 0.0992 0.5607 C 0.1007 0.5621 0.1016 0.5626 0.1031 0.5626 C 0.1055 0.5626 0.1067 0.5637 0.1072 0.5664 C 0.1077 0.5695 0.11 0.5737 0.1118 0.5748 C 0.114 0.5762 0.1147 0.5772 0.1147 0.5792 C 0.1147 0.5807 0.1155 0.5817 0.1189 0.585 C 0.1235 0.5895 0.1249 0.59 0.1263 0.5874 C 0.127 0.586 0.1275 0.5857 0.1292 0.5857 C 0.1319 0.5857 0.134 0.5871 0.1384 0.5919 C 0.1425 0.5964 0.1443 0.5975 0.1499 0.5989 C 0.1521 0.5994 0.1547 0.6004 0.1558 0.6011 C 0.1569 0.6019 0.1584 0.6026 0.1592 0.6029 C 0.1613 0.6035 0.162 0.6042 0.162 0.6057 C 0.162 0.6075 0.1602 0.6082 0.1552 0.6082 C 0.1514 0.6082 0.1512 0.6083 0.1494 0.6102 L 0.1475 0.6121 L 0.1418 0.6121 C 0.1386 0.6121 0.1343 0.6119 0.1321 0.6115 C 0.1284 0.611 0.128 0.611 0.1266 0.612 C 0.1253 0.613 0.1251 0.6137 0.1246 0.618 C 0.1239 0.6236 0.124 0.6235 0.1185 0.6242 C 0.1168 0.6244 0.1151 0.6249 0.115 0.6252 C 0.1148 0.6255 0.1132 0.6266 0.1116 0.6277 C 0.1087 0.6295 0.1085 0.6297 0.1085 0.632 C 0.1085 0.6347 0.1098 0.6363 0.1118 0.6363 C 0.1124 0.6363 0.1142 0.6352 0.1157 0.6338 C 0.1173 0.6324 0.1191 0.6313 0.1198 0.6313 C 0.1205 0.6313 0.1223 0.6326 0.1242 0.6345 C 0.1259 0.6363 0.1284 0.6382 0.1297 0.6388 L 0.1321 0.6399 L 0.1346 0.6378 C 0.136 0.6366 0.1375 0.6351 0.138 0.6344 C 0.1393 0.6325 0.1425 0.6318 0.1516 0.6318 C 0.1593 0.6318 0.1601 0.6319 0.1625 0.6332 C 0.1639 0.6339 0.1664 0.6349 0.168 0.6352 C 0.1712 0.6359 0.1735 0.6378 0.1722 0.6386 C 0.1716 0.6389 0.1715 0.64 0.1718 0.643 L 0.1722 0.647 L 0.1689 0.6485 C 0.1671 0.6493 0.165 0.6499 0.1643 0.6499 C 0.1604 0.6497 0.1578 0.6499 0.1576 0.6503 C 0.1574 0.6506 0.1567 0.6509 0.1561 0.6511 C 0.1553 0.6512 0.1547 0.6523 0.1537 0.6557 C 0.153 0.6581 0.1523 0.6603 0.1521 0.6605 C 0.152 0.6606 0.1499 0.6607 0.1475 0.6606 C 0.1443 0.6605 0.1429 0.6607 0.142 0.6613 C 0.1406 0.6624 0.1395 0.6625 0.1384 0.6614 C 0.1379 0.661 0.1353 0.66 0.1326 0.6592 C 0.1276 0.6577 0.126 0.6566 0.126 0.6551 C 0.126 0.6539 0.1232 0.6531 0.1205 0.6535 C 0.1172 0.6539 0.1158 0.6547 0.1158 0.6562 C 0.1158 0.6571 0.1153 0.6578 0.114 0.6585 C 0.113 0.659 0.1118 0.6597 0.1113 0.6599 C 0.1098 0.6609 0.1067 0.6622 0.1059 0.6622 C 0.1055 0.6622 0.1041 0.6611 0.1028 0.6596 L 0.1004 0.6571 L 0.0973 0.6574 C 0.0926 0.6579 0.0909 0.6572 0.0905 0.6549 C 0.0902 0.653 0.0902 0.6529 0.0875 0.6531 C 0.0844 0.6533 0.0834 0.6527 0.0829 0.6504 C 0.0826 0.649 0.0823 0.6487 0.081 0.6487 C 0.0786 0.6487 0.0781 0.651 0.0793 0.6565 C 0.0801 0.6602 0.0819 0.6615 0.085 0.6607 C 0.0868 0.6602 0.0874 0.6603 0.0889 0.6612 C 0.0905 0.6622 0.0906 0.6625 0.0903 0.6643 C 0.0901 0.6657 0.0902 0.6663 0.0909 0.6666 C 0.0919 0.667 0.0946 0.6728 0.0942 0.6735 C 0.094 0.6738 0.0934 0.6741 0.0928 0.6741 C 0.0922 0.6741 0.0908 0.6745 0.0896 0.6749 C 0.0876 0.6758 0.0874 0.6758 0.0854 0.6747 C 0.0826 0.6731 0.082 0.6732 0.0805 0.6752 C 0.0792 0.6768 0.0792 0.6769 0.074 0.6769 C 0.0683 0.6769 0.0678 0.6771 0.0671 0.6798 C 0.0668 0.6811 0.067 0.6814 0.0681 0.6819 C 0.0688 0.6821 0.0708 0.6822 0.0724 0.6821 C 0.0753 0.6818 0.0755 0.6819 0.077 0.6838 C 0.0787 0.6857 0.0787 0.6858 0.082 0.6855 C 0.0851 0.6852 0.0854 0.6853 0.0863 0.6866 C 0.0876 0.6887 0.0884 0.6885 0.0903 0.6858 C 0.0923 0.6829 0.0945 0.6819 0.0989 0.6819 C 0.1023 0.6819 0.1023 0.6819 0.104 0.6844 C 0.106 0.6873 0.1098 0.6906 0.1121 0.6915 C 0.113 0.6918 0.1155 0.6921 0.1178 0.6921 C 0.1219 0.6921 0.122 0.6921 0.1228 0.6937 L 0.1237 0.6953 L 0.1503 0.6956 C 0.1683 0.6959 0.1795 0.6958 0.1847 0.6954 L 0.1925 0.6947 L 0.1947 0.6965 C 0.1959 0.6975 0.1973 0.6983 0.1978 0.6983 C 0.1989 0.6983 0.209 0.7035 0.2106 0.7049 C 0.2118 0.706 0.2118 0.7088 0.2106 0.7094 C 0.21 0.7097 0.2063 0.7099 0.2023 0.7098 C 0.1955 0.7098 0.195 0.7097 0.1942 0.7085 C 0.1932 0.707 0.1918 0.7069 0.1909 0.7084 C 0.1904 0.7092 0.1895 0.7095 0.1882 0.7095 C 0.1866 0.7095 0.1861 0.7098 0.1857 0.7109 C 0.1849 0.7129 0.1834 0.7135 0.1793 0.7135 C 0.176 0.7135 0.1755 0.7133 0.1745 0.7121 C 0.1727 0.7097 0.1721 0.7103 0.1721 0.7146 L 0.1721 0.7185 L 0.1689 0.7206 C 0.1661 0.7225 0.1652 0.7227 0.1614 0.7229 C 0.1578 0.7231 0.157 0.7234 0.1554 0.7248 C 0.1537 0.7263 0.1531 0.7264 0.1495 0.7264 C 0.1469 0.7264 0.1442 0.7268 0.142 0.7276 C 0.1384 0.7288 0.1384 0.7288 0.137 0.7277 C 0.1359 0.7268 0.135 0.7266 0.1328 0.7268 C 0.1302 0.7271 0.13 0.727 0.1285 0.7251 C 0.1272 0.7234 0.1266 0.723 0.1249 0.723 C 0.1232 0.723 0.1226 0.7227 0.1216 0.7213 C 0.1204 0.7198 0.12 0.7197 0.1173 0.7197 C 0.1139 0.7197 0.113 0.7204 0.113 0.7235 C 0.113 0.7258 0.1118 0.7264 0.107 0.7264 L 0.1031 0.7264 L 0.1009 0.7236 C 0.0983 0.7204 0.0971 0.7202 0.0967 0.723 C 0.0963 0.7255 0.0947 0.7264 0.0902 0.7264 L 0.0867 0.7264 L 0.0844 0.7225 C 0.0816 0.7178 0.0762 0.711 0.0737 0.7088 C 0.0708 0.7064 0.0695 0.7063 0.0671 0.7083 C 0.066 0.7093 0.0649 0.7101 0.0647 0.7101 C 0.0645 0.7101 0.0634 0.7092 0.0624 0.7081 C 0.0606 0.7063 0.0604 0.7062 0.0574 0.7065 C 0.0543 0.7068 0.0542 0.7068 0.0529 0.7051 C 0.0519 0.7037 0.0512 0.7033 0.0497 0.7033 C 0.0481 0.7033 0.0474 0.7028 0.045 0.7001 L 0.0421 0.6969 L 0.0406 0.6984 C 0.0393 0.6996 0.0384 0.6999 0.0353 0.7001 C 0.0325 0.7002 0.0317 0.7004 0.0317 0.7011 C 0.0317 0.7017 0.0326 0.702 0.0361 0.7021 C 0.0401 0.7022 0.0405 0.7024 0.041 0.7036 C 0.0416 0.7053 0.0428 0.7057 0.046 0.7052 C 0.0493 0.7048 0.0511 0.7056 0.0511 0.7075 C 0.0511 0.7094 0.0467 0.7129 0.0441 0.7132 C 0.0427 0.7133 0.0417 0.7139 0.0406 0.7152 C 0.0397 0.7162 0.039 0.7173 0.039 0.7177 C 0.039 0.718 0.0411 0.7183 0.0444 0.7184 C 0.0494 0.7185 0.0498 0.7186 0.051 0.7201 C 0.0521 0.7215 0.0525 0.7216 0.0557 0.7215 C 0.0588 0.7213 0.0592 0.7215 0.0607 0.723 C 0.0621 0.7245 0.0626 0.7247 0.0654 0.7247 C 0.0681 0.7247 0.0688 0.725 0.0704 0.7264 C 0.0721 0.7279 0.0728 0.7281 0.0757 0.7281 C 0.0784 0.7281 0.0793 0.7283 0.0802 0.7293 C 0.0807 0.7299 0.0831 0.7315 0.0854 0.7328 C 0.0877 0.734 0.0904 0.7358 0.0915 0.7367 C 0.0931 0.7381 0.0933 0.7387 0.0933 0.7411 C 0.0933 0.7435 0.0935 0.744 0.095 0.7451 C 0.0961 0.7459 0.0968 0.747 0.0971 0.7482 C 0.0976 0.7511 0.0962 0.7522 0.0914 0.7527 L 0.0876 0.753 L 0.0855 0.7509 C 0.0833 0.7488 0.0832 0.7488 0.0802 0.7492 C 0.0777 0.7495 0.077 0.7494 0.0764 0.7486 C 0.075 0.7469 0.0721 0.7461 0.0675 0.7461 C 0.0643 0.7461 0.0629 0.7459 0.0624 0.7453 C 0.0613 0.7439 0.0573 0.7428 0.0522 0.7425 C 0.0483 0.7423 0.0473 0.742 0.0467 0.7411 C 0.0455 0.7394 0.0444 0.7396 0.0444 0.7415 C 0.0444 0.7436 0.0455 0.7445 0.0501 0.746 C 0.0549 0.7475 0.0578 0.7493 0.06 0.7522 C 0.0614 0.7539 0.0623 0.7545 0.0641 0.7548 C 0.0658 0.755 0.0669 0.7557 0.0679 0.7569 C 0.0714 0.761 0.0719 0.7613 0.0738 0.7613 C 0.0755 0.7613 0.0762 0.7618 0.0785 0.7644 C 0.0807 0.7668 0.0822 0.7678 0.0852 0.7691 C 0.0877 0.7701 0.0893 0.7712 0.0897 0.772 C 0.0901 0.7727 0.0906 0.7734 0.0909 0.7737 C 0.0911 0.774 0.0976 0.7743 0.1051 0.7743 C 0.1182 0.7744 0.119 0.7745 0.1205 0.7756 C 0.1219 0.7766 0.1231 0.7768 0.1276 0.777 C 0.1352 0.7772 0.1352 0.7772 0.1369 0.7806 C 0.1395 0.7858 0.1396 0.7869 0.1379 0.789 C 0.1371 0.79 0.1358 0.7921 0.135 0.7936 C 0.1342 0.7953 0.1328 0.797 0.1316 0.7978 C 0.1289 0.7996 0.1268 0.7991 0.1241 0.7959 C 0.1212 0.7925 0.1191 0.7915 0.1159 0.7919 C 0.1136 0.7923 0.1132 0.7921 0.1121 0.7907 L 0.1108 0.7892 L 0.1067 0.7935 C 0.102 0.7984 0.1 0.7993 0.096 0.7984 C 0.0947 0.7981 0.0922 0.798 0.0904 0.7982 C 0.0876 0.7985 0.0872 0.7984 0.0864 0.7973 C 0.0859 0.7965 0.0854 0.7953 0.0854 0.7944 C 0.0854 0.7926 0.0836 0.791 0.0799 0.7898 C 0.0784 0.7893 0.0765 0.7881 0.0756 0.7872 C 0.0742 0.7857 0.0736 0.7855 0.0709 0.7855 C 0.0683 0.7855 0.0675 0.7853 0.0663 0.7841 C 0.0644 0.7823 0.0607 0.7814 0.0572 0.7819 L 0.0545 0.7822 L 0.0501 0.7776 L 0.0458 0.773 L 0.046 0.7698 C 0.0461 0.7666 0.0461 0.7666 0.0439 0.7651 C 0.0417 0.7637 0.0393 0.7598 0.0393 0.7578 C 0.0393 0.7565 0.0386 0.7566 0.0373 0.7579 C 0.0367 0.7587 0.0356 0.7591 0.0342 0.7591 C 0.0326 0.7591 0.0319 0.7594 0.0309 0.7607 C 0.0293 0.763 0.0279 0.7629 0.0261 0.7605 C 0.0249 0.7589 0.0243 0.7586 0.0232 0.7588 C 0.0225 0.7589 0.0213 0.7592 0.0205 0.7593 C 0.0196 0.7595 0.0185 0.7589 0.0163 0.757 L 0.0134 0.7545 L 0.0133 0.7505 L 0.0131 0.7464 L 0.0064 0.7461 C 0.0026 0.7459 -7.0E-4 0.746 -0.0010 0.7463 C -0.0013 0.7466 -7.0E-4 0.7474 7.0E-4 0.7485 C 0.0039 0.751 0.0077 0.755 0.0081 0.7564 C 0.0084 0.7573 0.0081 0.7578 0.0073 0.7584 C 0.0058 0.7594 0.0057 0.7605 0.0072 0.7613 C 0.0080 0.7617 0.0083 0.7625 0.0083 0.7639 C 0.0083 0.7658 0.0089 0.7666 0.014 0.7718 C 0.0194 0.7772 0.0198 0.7775 0.0216 0.7772 C 0.0233 0.777 0.0236 0.7772 0.0261 0.7804 C 0.0284 0.7832 0.0292 0.7838 0.0306 0.7838 C 0.0318 0.7838 0.0328 0.7844 0.0339 0.7855 C 0.0352 0.7869 0.036 0.7872 0.038 0.7872 C 0.04 0.7872 0.0405 0.7874 0.0411 0.7888 C 0.0417 0.79 0.0423 0.7903 0.0439 0.7905 C 0.0453 0.7906 0.0462 0.7911 0.0469 0.792 C 0.0476 0.7931 0.0482 0.7934 0.0502 0.7934 C 0.0523 0.7934 0.0529 0.7937 0.0541 0.7952 C 0.0562 0.7981 0.0571 0.8002 0.0575 0.8033 C 0.058 0.8069 0.0573 0.8078 0.0535 0.8082 C 0.0465 0.8089 0.045 0.8088 0.0427 0.8069 C 0.0409 0.8055 0.04 0.8052 0.0374 0.8052 C 0.0346 0.8052 0.0342 0.8051 0.0331 0.8035 C 0.0316 0.8015 0.0303 0.8014 0.0286 0.8033 C 0.0277 0.8042 0.0267 0.8047 0.0253 0.8047 C 0.0238 0.8047 0.0228 0.8051 0.0214 0.8065 C 0.0198 0.808 0.0191 0.8083 0.0159 0.8085 C 0.0123 0.8087 0.0121 0.8087 0.0101 0.8067 C 0.0081 0.8048 0.0078 0.8047 0.0053 0.805 C 0.0039 0.8052 0.0025 0.8057 0.0022 0.806 C 0.0012 0.8073 -0.0012 0.8149 -0.0012 0.8167 C -0.0012 0.8202 0.0018 0.8211 0.0038 0.8182 C 0.0050 0.8165 0.0052 0.8165 0.0095 0.8165 C 0.0137 0.8165 0.0139 0.8165 0.0151 0.8182 C 0.016 0.8195 0.0167 0.8199 0.0181 0.8199 C 0.0197 0.8199 0.0207 0.8205 0.0236 0.8234 C 0.0273 0.827 0.0287 0.8296 0.0275 0.8308 C 0.0271 0.8312 0.0239 0.8313 0.0182 0.8312 C 0.0096 0.8311 0.0079 0.8314 0.0094 0.833 C 0.0099 0.8334 0.0127 0.8336 0.0185 0.8335 L 0.0269 0.8334 L 0.0278 0.8348 C 0.0287 0.8362 0.0288 0.8362 0.0367 0.8362 C 0.0443 0.8362 0.0448 0.8363 0.0467 0.8376 C 0.0481 0.8385 0.0502 0.8392 0.0529 0.8396 C 0.0637 0.8412 0.0636 0.8411 0.0656 0.8431 C 0.0672 0.8446 0.0675 0.8452 0.0673 0.8472 C 0.0671 0.8499 0.0657 0.8507 0.0607 0.851 C 0.0575 0.8511 0.0571 0.851 0.0561 0.8496 C 0.0551 0.8482 0.0546 0.848 0.0521 0.848 C 0.0496 0.848 0.0489 0.8478 0.0473 0.8462 C 0.0455 0.8445 0.0452 0.8444 0.0408 0.8443 C 0.0348 0.8441 0.034 0.8446 0.0364 0.8468 C 0.0382 0.8485 0.0382 0.8486 0.038 0.8526 L 0.0379 0.8567 L 0.0358 0.8569 C 0.0338 0.8571 0.0336 0.8569 0.0301 0.8526 C 0.0265 0.8483 0.0262 0.8481 0.0235 0.8478 C 0.0212 0.8475 0.0206 0.8471 0.0201 0.846 C 0.0196 0.8447 0.0194 0.8446 0.0141 0.8446 C 0.0101 0.8446 0.0082 0.8449 0.0074 0.8455 C 0.0060 0.8465 0.0030 0.8465 0.0013 0.8454 C 2.0E-4 0.8447 -1.0E-4 0.8447 -8.0E-4 0.8454 C -0.0015 0.8461 -0.0016 0.85 -0.0014 0.8734 L -0.0011 0.9006 L 6.0E-4 0.9021 C 0.0018 0.9031 0.0022 0.9039 0.0021 0.9052 C 0.0019 0.9079 0.0021 0.9081 0.0037 0.9089 C 0.0050 0.9096 0.0052 0.91 0.0051 0.9117 C 0.0049 0.9134 0.0052 0.914 0.0067 0.9151 L 0.0084 0.9165 L 0.0086 0.9254 C 0.0092 0.9442 0.0091 0.9558 0.0084 0.9581 C 0.0081 0.9594 0.0071 0.961 0.0063 0.9618 C 0.0051 0.9629 0.0049 0.9634 0.0052 0.9654 C 0.0054 0.9666 0.0053 0.969 0.0049 0.9707 C 0.0041 0.9752 0.0041 0.9855 0.0050 0.9871 C 0.0053 0.9879 0.0063 0.9891 0.0071 0.99 C 0.0083 0.9913 0.0085 0.992 0.0085 0.9957 L 0.0086 1.0 L -0.0184 1.0 L -0.0454 1.0 L -0.0454 0.995 Z M 0.033 0.8423 C 0.0326 0.8412 0.0314 0.8411 0.0314 0.842 C 0.0314 0.8425 0.0318 0.8429 0.0323 0.8429 C 0.0328 0.8429 0.0331 0.8426 0.033 0.8423 Z M -0.0654 0.8036 C -0.0654 0.8019 -0.0651 0.8013 -0.0637 0.8002 C -0.0624 0.7993 -0.062 0.7986 -0.062 0.7971 C -0.062 0.7955 -0.0614 0.7945 -0.0582 0.7912 C -0.0549 0.7877 -0.0542 0.7872 -0.0523 0.7872 C -0.0499 0.7872 -0.0463 0.7844 -0.0463 0.7826 C -0.0463 0.7816 -0.0466 0.7815 -0.0526 0.7819 C -0.0561 0.7821 -0.0593 0.7823 -0.0596 0.7824 C -0.0601 0.7826 -0.0604 0.7838 -0.0604 0.7858 C -0.0604 0.7875 -0.0607 0.7897 -0.0612 0.7905 C -0.0624 0.7929 -0.0653 0.7951 -0.0672 0.7951 C -0.0689 0.7951 -0.0733 0.7982 -0.0733 0.7994 C -0.0733 0.8003 -0.0672 0.8058 -0.0662 0.8058 C -0.0657 0.8058 -0.0654 0.8051 -0.0654 0.8036 Z M -0.043 0.7668 C -0.0421 0.7659 -0.0422 0.7638 -0.0431 0.763 C -0.0436 0.7627 -0.0452 0.7624 -0.0469 0.7625 C -0.0496 0.7627 -0.05 0.7629 -0.0505 0.7643 C -0.0509 0.7657 -0.0509 0.7661 -0.05 0.7667 C -0.0486 0.7677 -0.0439 0.7678 -0.043 0.7668 Z M -0.0418 0.7399 C -0.0418 0.7392 -0.0433 0.7392 -0.0437 0.7399 C -0.0444 0.7409 -0.0435 0.7417 -0.0426 0.741 C -0.0421 0.7406 -0.0418 0.7401 -0.0418 0.7399 Z M -0.0395 0.7354 C -0.0395 0.7343 -0.039 0.7331 -0.0381 0.7322 C -0.0373 0.7314 -0.0368 0.7304 -0.0369 0.73 C -0.0373 0.729 -0.0392 0.729 -0.04 0.73 C -0.0408 0.7309 -0.0415 0.7356 -0.041 0.7368 C -0.0405 0.7382 -0.0395 0.7373 -0.0395 0.7354 Z M 0.0598 0.654 C 0.061 0.6535 0.0624 0.6508 0.0624 0.6488 C 0.0624 0.6462 0.0609 0.6454 0.0553 0.6449 C 0.0506 0.6445 0.0503 0.6444 0.05 0.6431 C 0.0497 0.642 0.0493 0.6417 0.0477 0.6415 C 0.045 0.6413 0.0427 0.6434 0.0427 0.6461 C 0.0427 0.6483 0.0442 0.6498 0.0453 0.6486 C 0.0462 0.6478 0.0472 0.6486 0.0472 0.6501 C 0.0472 0.6517 0.0492 0.6527 0.0525 0.6527 C 0.0544 0.6527 0.0551 0.6524 0.0551 0.6518 C 0.0551 0.6514 0.0553 0.651 0.0556 0.651 C 0.0559 0.651 0.0562 0.6514 0.0562 0.652 C 0.0562 0.6539 0.0578 0.6548 0.0598 0.654 Z M 0.0697 0.6149 C 0.0706 0.6145 0.0707 0.6137 0.0706 0.6089 C 0.0705 0.6037 0.0705 0.6034 0.0692 0.6032 C 0.0684 0.6031 0.0677 0.6024 0.0672 0.6011 C 0.0667 0.6001 0.0661 0.5992 0.0658 0.5992 C 0.0655 0.5992 0.0641 0.5982 0.0626 0.5969 C 0.0593 0.5942 0.0579 0.5941 0.0566 0.5963 C 0.056 0.5972 0.0546 0.5993 0.0533 0.6008 C 0.0512 0.6035 0.0509 0.6037 0.0486 0.6037 C 0.0463 0.6037 0.046 0.6039 0.0452 0.6054 C 0.0443 0.6071 0.0441 0.6072 0.0419 0.6068 C 0.0399 0.6065 0.0393 0.6067 0.0385 0.6076 C 0.0369 0.6093 0.0375 0.6107 0.04 0.6109 C 0.0417 0.611 0.0423 0.6114 0.0429 0.6127 C 0.044 0.6147 0.0447 0.6149 0.05 0.6149 L 0.0544 0.6149 L 0.0551 0.613 C 0.0557 0.6113 0.0562 0.6109 0.0583 0.6103 C 0.0601 0.6099 0.0609 0.6093 0.0613 0.6084 C 0.062 0.6065 0.0629 0.6068 0.0629 0.6089 C 0.0629 0.6103 0.0633 0.6109 0.0646 0.6117 C 0.0658 0.6124 0.0663 0.6131 0.0663 0.6141 C 0.0663 0.6156 0.0677 0.616 0.0697 0.6149 Z M 0.0229 0.6146 C 0.0242 0.6143 0.0246 0.6139 0.0248 0.6128 C 0.0249 0.6114 0.0252 0.6113 0.0282 0.6109 C 0.0321 0.6105 0.0337 0.6094 0.0323 0.608 C 0.0311 0.6069 0.0265 0.6061 0.0256 0.607 C 0.0253 0.6073 0.0236 0.6076 0.022 0.6076 C 0.0173 0.6076 0.0152 0.6107 0.018 0.6136 C 0.0193 0.615 0.02 0.6152 0.0229 0.6146 Z M -0.0822 0.6127 C -0.0807 0.6118 -0.0789 0.6101 -0.0782 0.6089 L -0.0768 0.6067 L -0.0635 0.6067 C -0.0504 0.6067 -0.0502 0.6066 -0.0488 0.6054 C -0.0473 0.6039 -0.047 0.6019 -0.048 0.5985 C -0.0485 0.5965 -0.0484 0.5961 -0.0467 0.5935 C -0.045 0.5907 -0.0449 0.5907 -0.0441 0.5918 C -0.0437 0.5925 -0.0431 0.593 -0.0428 0.593 C -0.0417 0.593 -0.0378 0.5899 -0.0364 0.5879 C -0.0354 0.5865 -0.0342 0.5855 -0.0331 0.5852 C -0.0315 0.5848 -0.0313 0.5845 -0.0312 0.5822 C -0.031 0.5797 -0.0311 0.5796 -0.0328 0.579 C -0.0352 0.5782 -0.0367 0.5782 -0.0367 0.5791 C -0.0367 0.5794 -0.0372 0.579 -0.0378 0.578 C -0.039 0.576 -0.0397 0.5758 -0.049 0.575 L -0.0553 0.5745 L -0.0628 0.5767 C -0.0668 0.578 -0.0715 0.5795 -0.073 0.5801 C -0.0746 0.5807 -0.0763 0.5812 -0.0768 0.5812 C -0.0774 0.5812 -0.0778 0.5814 -0.0778 0.5817 C -0.0778 0.582 -0.0785 0.5824 -0.0794 0.5827 C -0.0814 0.5832 -0.0817 0.5838 -0.0817 0.587 C -0.0817 0.589 -0.0822 0.5904 -0.0833 0.5922 C -0.0846 0.5943 -0.085 0.5946 -0.0863 0.5944 C -0.0887 0.5939 -0.0934 0.5955 -0.0953 0.5975 C -0.0968 0.5991 -0.0969 0.5997 -0.0969 0.6029 C -0.0969 0.6064 -0.0969 0.6065 -0.0955 0.6065 C -0.0945 0.6065 -0.0938 0.607 -0.093 0.6084 C -0.0923 0.6095 -0.0914 0.6105 -0.091 0.6107 C -0.0904 0.6109 -0.0902 0.6114 -0.0905 0.6121 C -0.091 0.6139 -0.0903 0.6144 -0.0875 0.6144 C -0.0855 0.6144 -0.0841 0.614 -0.0822 0.6127 Z M 0.0985 0.6095 C 0.0993 0.6088 0.0982 0.6076 0.0969 0.6076 C 0.096 0.6076 0.0952 0.6071 0.0946 0.606 C 0.0938 0.6047 0.0932 0.6043 0.0911 0.604 C 0.0897 0.6038 0.0876 0.6035 0.0864 0.6033 C 0.084 0.603 0.0832 0.6036 0.0832 0.6058 C 0.0832 0.6068 0.0835 0.6071 0.0847 0.6071 C 0.0856 0.6071 0.0877 0.6077 0.0894 0.6085 C 0.0923 0.6097 0.0977 0.6104 0.0985 0.6095 Z M -0.1362 0.6047 C -0.1318 0.6014 -0.1311 0.5947 -0.1351 0.5947 C -0.1371 0.5947 -0.138 0.5956 -0.138 0.5975 C -0.138 0.5993 -0.139 0.6003 -0.1406 0.6003 C -0.1419 0.6003 -0.1425 0.6013 -0.1425 0.6031 C -0.1425 0.605 -0.1381 0.6061 -0.1362 0.6047 Z M 0.0491 0.598 C 0.0517 0.5968 0.0515 0.5955 0.0479 0.5916 C 0.0461 0.5897 0.0443 0.588 0.044 0.588 C 0.043 0.5879 0.0422 0.5862 0.0417 0.5834 C 0.0415 0.582 0.0411 0.5806 0.0407 0.5803 C 0.0403 0.58 0.0393 0.5781 0.0385 0.576 C 0.0372 0.5729 0.0364 0.5719 0.0333 0.5694 C 0.0313 0.5678 0.0294 0.5665 0.029 0.5665 C 0.0286 0.5665 0.0276 0.566 0.0266 0.5654 C 0.0257 0.5648 0.0244 0.5643 0.0237 0.5643 C 0.023 0.5643 0.0217 0.5636 0.0207 0.5627 C 0.0175 0.5598 0.0157 0.5587 0.0143 0.5587 C 0.0127 0.5587 0.0087 0.5568 0.0080 0.5558 C 0.0077 0.5552 0.0048 0.5532 0.0011 0.5509 C -0.0018 0.5492 -0.0052 0.5492 -0.0074 0.5511 C -0.0105 0.5537 -0.0095 0.5558 -0.0037 0.559 C 0.0066 0.5648 0.013 0.5717 0.0116 0.5755 C 0.0107 0.5783 0.0070 0.5806 0.0035 0.5806 C 0.0028 0.5806 9.0E-4 0.5813 -6.0E-4 0.582 C -0.0033 0.5834 -0.0035 0.5836 -0.0035 0.5856 C -0.0035 0.5877 -0.0021 0.5905 1.0E-4 0.5929 C 0.0030 0.5962 0.0111 0.598 0.0136 0.5961 C 0.0145 0.5954 0.0171 0.5952 0.0273 0.5952 C 0.039 0.5952 0.0398 0.5953 0.0401 0.5963 C 0.0403 0.5969 0.041 0.5976 0.0417 0.5979 C 0.0434 0.5988 0.0473 0.5988 0.0491 0.598 Z M -0.0424 0.5705 C -0.0393 0.5705 -0.0391 0.5704 -0.0374 0.5681 C -0.0364 0.5668 -0.0356 0.5655 -0.0356 0.5652 C -0.0356 0.5648 -0.0368 0.5636 -0.0382 0.5625 C -0.0415 0.5598 -0.0444 0.5595 -0.0449 0.5617 C -0.0453 0.5632 -0.047 0.5637 -0.0477 0.5626 C -0.0484 0.5614 -0.0502 0.5621 -0.0513 0.5639 C -0.0527 0.5662 -0.0528 0.5679 -0.0515 0.5697 C -0.0506 0.5709 -0.0502 0.571 -0.048 0.5708 C -0.0467 0.5706 -0.0441 0.5705 -0.0424 0.5705 Z M 0.0587 0.5663 C 0.0592 0.5655 0.06 0.5648 0.0604 0.5648 C 0.061 0.5648 0.0612 0.5642 0.0612 0.5629 C 0.0612 0.5604 0.0587 0.5584 0.0561 0.5589 C 0.0549 0.5591 0.0538 0.5588 0.0522 0.5579 C 0.0494 0.5564 0.048 0.557 0.048 0.5598 C 0.048 0.5615 0.0482 0.5618 0.0497 0.5619 C 0.0515 0.5621 0.0541 0.5645 0.0548 0.5665 C 0.0553 0.5681 0.0575 0.568 0.0587 0.5663 Z M -0.1046 0.5648 C -0.1038 0.5644 -0.1031 0.5636 -0.103 0.563 C -0.1029 0.5621 -0.1023 0.5617 -0.101 0.5614 C -0.0968 0.5606 -0.0981 0.558 -0.1029 0.5573 C -0.1053 0.5569 -0.1058 0.5571 -0.1079 0.5585 C -0.1091 0.5594 -0.1104 0.5608 -0.1107 0.5617 C -0.1112 0.563 -0.1111 0.5634 -0.11 0.5643 C -0.1085 0.5656 -0.1066 0.5657 -0.1046 0.5648 Z M -0.0361 0.5536 C -0.0361 0.5533 -0.0356 0.5529 -0.035 0.5527 C -0.0337 0.5523 -0.0322 0.5497 -0.0322 0.5478 C -0.0323 0.5469 -0.0332 0.546 -0.0356 0.5444 C -0.0393 0.542 -0.0404 0.5418 -0.041 0.5436 C -0.0416 0.5458 -0.0429 0.5469 -0.044 0.5462 C -0.0463 0.5447 -0.0491 0.5471 -0.0491 0.5506 C -0.0491 0.5534 -0.0479 0.554 -0.0418 0.554 C -0.0387 0.554 -0.0361 0.5538 -0.0361 0.5536 Z M 0.0277 0.5519 C 0.0294 0.5505 0.0296 0.548 0.0283 0.5446 C 0.0269 0.5412 0.025 0.5407 0.0171 0.5415 C 0.0145 0.5418 0.0136 0.5417 0.0131 0.5411 C 0.0119 0.5395 0.0096 0.5385 0.0056 0.5379 C 0.0034 0.5375 0.0013 0.5374 0.0010 0.5375 C 3.0E-4 0.538 -3.0E-4 0.5426 1.0E-4 0.5443 C 4.0E-4 0.5456 7.0E-4 0.5457 0.0032 0.5456 C 0.0068 0.5455 0.0086 0.5467 0.0101 0.55 C 0.0111 0.5525 0.0113 0.5526 0.013 0.5523 C 0.0141 0.5521 0.0157 0.5512 0.0166 0.5503 C 0.0191 0.5478 0.0224 0.5481 0.0224 0.5508 C 0.0224 0.5531 0.0253 0.5537 0.0277 0.5519 Z M -0.1171 0.5243 C -0.1125 0.5234 -0.1115 0.5213 -0.1142 0.5178 L -0.1158 0.5159 L -0.1197 0.5162 C -0.1221 0.5165 -0.1239 0.5169 -0.1243 0.5174 C -0.1246 0.5179 -0.1256 0.5181 -0.1271 0.518 C -0.129 0.5179 -0.1293 0.5177 -0.1295 0.5163 C -0.1297 0.5146 -0.1319 0.5131 -0.1343 0.5131 C -0.1353 0.5131 -0.1358 0.5136 -0.1365 0.5152 C -0.1389 0.5207 -0.1381 0.5232 -0.1339 0.5232 C -0.1326 0.5232 -0.1304 0.5236 -0.129 0.524 C -0.126 0.525 -0.1213 0.5251 -0.1171 0.5243 Z M -0.0333 0.4959 C -0.0276 0.493 -0.027 0.4918 -0.0274 0.4847 C -0.0276 0.4816 -0.0279 0.4789 -0.028 0.4786 C -0.0286 0.4778 -0.0312 0.4781 -0.0325 0.4792 C -0.0331 0.4798 -0.0344 0.4804 -0.0353 0.4806 C -0.0368 0.4808 -0.0372 0.4806 -0.038 0.4792 C -0.0387 0.4779 -0.0393 0.4776 -0.0411 0.4776 C -0.0428 0.4776 -0.044 0.4782 -0.0471 0.4805 L -0.0509 0.4834 L -0.0505 0.4865 C -0.0501 0.4903 -0.0492 0.4918 -0.0464 0.4936 C -0.0453 0.4943 -0.0437 0.4956 -0.0429 0.4964 C -0.041 0.4985 -0.0382 0.4983 -0.0333 0.4959 Z M 0.1028 0.4921 C 0.1037 0.4912 0.1036 0.4889 0.1026 0.4885 C 0.1013 0.488 0.1001 0.4893 0.1001 0.4912 C 0.1001 0.4929 0.1015 0.4934 0.1028 0.4921 Z M 0.0229 0.482 C 0.023 0.4804 0.0228 0.4798 0.0217 0.479 C 0.0201 0.4779 0.0179 0.4779 0.0163 0.479 C 0.0147 0.4802 0.0148 0.4812 0.0166 0.4829 C 0.0179 0.4841 0.0187 0.4843 0.0204 0.4842 C 0.0226 0.4841 0.0227 0.484 0.0229 0.482 Z M -0.089 0.4545 C -0.0867 0.4532 -0.0799 0.4528 -0.078 0.4538 C -0.074 0.456 -0.0626 0.4526 -0.0626 0.4492 C -0.0626 0.4472 -0.0657 0.4439 -0.0684 0.4432 C -0.0697 0.4429 -0.0717 0.4421 -0.0727 0.4414 C -0.0742 0.4405 -0.0761 0.4401 -0.0798 0.4398 C -0.0826 0.4396 -0.0859 0.4392 -0.0871 0.439 C -0.0891 0.4387 -0.0896 0.4388 -0.0909 0.4401 C -0.0926 0.4418 -0.0947 0.4482 -0.0947 0.4516 C -0.0947 0.4533 -0.0944 0.4541 -0.0934 0.4548 C -0.0918 0.4559 -0.0912 0.4559 -0.089 0.4545 Z M 0.1047 0.4506 C 0.1058 0.4506 0.1063 0.4501 0.1067 0.4489 C 0.1072 0.4476 0.1078 0.4471 0.1096 0.4466 C 0.1123 0.4459 0.1127 0.4444 0.1105 0.4433 C 0.1085 0.4425 0.1068 0.4425 0.1043 0.4436 C 0.103 0.4441 0.1009 0.4444 0.0983 0.4443 C 0.0943 0.4441 0.0942 0.4441 0.0929 0.446 C 0.0922 0.4471 0.0916 0.4486 0.0916 0.4494 L 0.0916 0.4509 L 0.0974 0.4508 C 0.1006 0.4508 0.1039 0.4507 0.1047 0.4506 Z M 0.0568 0.4418 C 0.0571 0.4414 0.0575 0.4398 0.0577 0.4382 C 0.058 0.4354 0.058 0.4354 0.0565 0.4354 C 0.0556 0.4354 0.0551 0.4351 0.0551 0.4345 C 0.0551 0.4333 0.0497 0.4333 0.0485 0.4345 C 0.048 0.435 0.0471 0.4354 0.0464 0.4354 C 0.0446 0.4354 0.0427 0.4369 0.0427 0.4383 C 0.0427 0.439 0.0433 0.4402 0.0441 0.4411 C 0.0456 0.4426 0.0458 0.4426 0.0509 0.4425 C 0.0543 0.4425 0.0564 0.4422 0.0568 0.4418 Z M -0.1021 0.4351 C -0.1017 0.4342 -0.1008 0.4335 -0.0998 0.4333 C -0.0987 0.4331 -0.0981 0.4326 -0.0981 0.4321 C -0.0981 0.4311 -0.1046 0.4269 -0.1061 0.4269 C -0.1066 0.4269 -0.1076 0.4277 -0.1082 0.4287 C -0.1098 0.4308 -0.1092 0.4332 -0.1071 0.4337 C -0.1062 0.4339 -0.1056 0.4345 -0.1055 0.4352 C -0.1052 0.437 -0.1029 0.4369 -0.1021 0.4351 Z M -0.069 0.4036 C -0.0682 0.4026 -0.0671 0.4022 -0.066 0.4022 C -0.0645 0.4022 -0.0641 0.4018 -0.0634 0.4002 C -0.0625 0.3981 -0.0625 0.3981 -0.0589 0.398 C -0.0567 0.3979 -0.0567 0.3979 -0.0565 0.3955 C -0.0564 0.3932 -0.0564 0.3931 -0.058 0.3931 C -0.0589 0.3931 -0.0602 0.3927 -0.061 0.3921 C -0.0641 0.3898 -0.0718 0.3889 -0.0735 0.3908 C -0.0751 0.3925 -0.0774 0.3986 -0.077 0.4001 C -0.0768 0.4009 -0.0758 0.402 -0.0747 0.4027 C -0.0736 0.4034 -0.0727 0.4042 -0.0727 0.4045 C -0.0727 0.4055 -0.0703 0.4049 -0.069 0.4036 Z M -0.0387 0.3804 C -0.0382 0.3799 -0.0378 0.3786 -0.0378 0.3771 C -0.0378 0.3757 -0.0376 0.3745 -0.0373 0.3743 C -0.0364 0.3738 -0.0366 0.3717 -0.0376 0.3705 C -0.0388 0.3693 -0.0403 0.3692 -0.0413 0.3704 C -0.0417 0.3709 -0.0434 0.3723 -0.045 0.3735 C -0.0477 0.3755 -0.048 0.3759 -0.048 0.3779 C -0.048 0.3807 -0.0471 0.3813 -0.0428 0.3813 C -0.0406 0.3813 -0.0393 0.381 -0.0387 0.3804 Z M 0.0435 0.3754 C 0.046 0.373 0.045 0.3683 0.0422 0.3692 C 0.0413 0.3695 0.0409 0.3691 0.04 0.3674 C 0.039 0.3653 0.0379 0.3649 0.0354 0.3656 C 0.0349 0.3658 0.0345 0.3653 0.0343 0.3645 C 0.0338 0.3628 0.0324 0.3619 0.0311 0.3624 C 0.0297 0.3629 0.0302 0.3672 0.0322 0.3719 C 0.034 0.3761 0.0349 0.3767 0.0392 0.3768 C 0.0416 0.3768 0.0424 0.3766 0.0435 0.3754 Z M -0.0086 0.3611 C -0.0083 0.3605 -0.0080 0.3588 -0.0080 0.3574 C -0.0080 0.3552 -0.0082 0.3548 -0.0095 0.3542 C -0.0107 0.3536 -0.011 0.3537 -0.0117 0.3546 C -0.0127 0.3559 -0.0128 0.3614 -0.0118 0.3618 C -0.0103 0.3624 -0.0091 0.3621 -0.0086 0.3611 Z M 0.0781 0.3591 C 0.0796 0.3569 0.0801 0.3566 0.0819 0.3566 C 0.0845 0.3566 0.0857 0.3558 0.0866 0.3538 C 0.0871 0.3524 0.0876 0.3521 0.0889 0.3521 C 0.091 0.3521 0.0916 0.3501 0.0902 0.3475 C 0.089 0.3451 0.0885 0.3448 0.0858 0.3447 C 0.084 0.3447 0.0832 0.3443 0.0817 0.3429 C 0.0807 0.3419 0.0794 0.3406 0.0787 0.3401 C 0.078 0.3395 0.0776 0.3384 0.0776 0.3375 C 0.0776 0.3363 0.0771 0.3354 0.076 0.3346 C 0.0748 0.3337 0.0744 0.3328 0.0742 0.3308 C 0.0739 0.3278 0.074 0.3278 0.0672 0.3289 C 0.0615 0.3298 0.0494 0.3291 0.049 0.3279 C 0.0488 0.3274 0.0482 0.3264 0.0475 0.3257 C 0.0464 0.3244 0.0461 0.3244 0.0403 0.3248 C 0.0346 0.3251 0.0341 0.3251 0.0329 0.324 C 0.0309 0.3222 0.0294 0.3216 0.0255 0.3213 C 0.0228 0.321 0.0216 0.3207 0.0213 0.3199 C 0.0205 0.3186 0.0156 0.3175 0.0119 0.3179 C 0.0092 0.3182 0.0088 0.3181 0.0080 0.3169 C 0.0072 0.3156 0.0046 0.3143 0.0029 0.3143 C 0.0025 0.3143 0.0018 0.315 0.0013 0.3157 C 6.0E-4 0.3168 5.0E-4 0.3173 0.0010 0.3182 C 0.0013 0.3189 0.0020 0.3194 0.0024 0.3194 C 0.0035 0.3194 0.0083 0.3238 0.0083 0.3248 C 0.0083 0.3261 0.0106 0.3269 0.0131 0.3265 C 0.0152 0.3262 0.0158 0.3264 0.0171 0.3276 C 0.0184 0.3289 0.019 0.329 0.0209 0.3287 C 0.0257 0.3279 0.0377 0.3277 0.0384 0.3284 C 0.0387 0.3288 0.039 0.3307 0.0389 0.3332 C 0.0388 0.3374 0.0388 0.3374 0.0406 0.3384 C 0.042 0.3392 0.0443 0.3394 0.0521 0.3396 C 0.0611 0.3398 0.0619 0.3399 0.0624 0.3409 C 0.0628 0.3415 0.0639 0.3424 0.065 0.3428 C 0.0667 0.3435 0.0669 0.3438 0.0665 0.3449 C 0.066 0.3461 0.066 0.3489 0.0664 0.3535 C 0.0666 0.3559 0.0683 0.3579 0.0725 0.3604 C 0.0753 0.3621 0.0762 0.3619 0.0781 0.3591 Z M -0.0299 0.3514 C -0.0277 0.347 -0.0271 0.3453 -0.0273 0.3439 C -0.0275 0.343 -0.0279 0.3411 -0.0281 0.3397 C -0.0285 0.3374 -0.0287 0.3371 -0.0302 0.3369 C -0.0314 0.3368 -0.0323 0.3372 -0.0339 0.3388 C -0.0358 0.3407 -0.036 0.3413 -0.0363 0.3442 C -0.0365 0.3469 -0.0368 0.3479 -0.038 0.3491 C -0.0411 0.3524 -0.039 0.357 -0.0343 0.3571 C -0.0329 0.3571 -0.0325 0.3566 -0.0299 0.3514 Z M 0.0155 0.342 C 0.0158 0.3392 0.0145 0.3376 0.0115 0.3373 C 0.0095 0.3371 0.0085 0.3366 0.0073 0.3352 C 0.0061 0.334 0.0051 0.3335 0.0039 0.3335 C 0.0025 0.3335 0.0020 0.3332 0.0015 0.332 C 0.0010 0.3306 8.0E-4 0.3305 -0.0022 0.3308 C -0.0040 0.331 -0.0059 0.3313 -0.0064 0.3315 C -0.0071 0.3318 -0.0074 0.3315 -0.0075 0.3303 C -0.0078 0.328 -0.0092 0.3274 -0.0113 0.3289 C -0.0141 0.3309 -0.0137 0.3328 -0.0099 0.3372 C -0.0082 0.3391 -0.0057 0.3413 -0.0044 0.3419 C -0.0019 0.3431 0.0029 0.3434 0.0044 0.3425 C 0.0049 0.3421 0.0054 0.3423 0.0060 0.3431 C 0.0066 0.3441 0.0073 0.3442 0.011 0.3441 L 0.0154 0.3439 L 0.0155 0.342 Z M -0.0409 0.3346 C -0.0405 0.3325 -0.039 0.3317 -0.0368 0.3321 C -0.0353 0.3324 -0.035 0.3323 -0.0343 0.3309 C -0.0334 0.3286 -0.0329 0.3284 -0.0298 0.3288 C -0.0272 0.3291 -0.0271 0.3291 -0.0271 0.3275 C -0.0272 0.3266 -0.0273 0.3256 -0.0276 0.3253 C -0.0278 0.3249 -0.0306 0.3245 -0.0344 0.3243 L -0.0407 0.324 L -0.0428 0.3263 C -0.0456 0.3293 -0.0462 0.3306 -0.0463 0.333 C -0.0463 0.3353 -0.0453 0.3362 -0.0428 0.3363 C -0.0416 0.3363 -0.0412 0.336 -0.0409 0.3346 Z M -0.0582 0.3269 C -0.0584 0.3251 -0.0607 0.3243 -0.0613 0.3258 C -0.0618 0.3273 -0.061 0.3284 -0.0595 0.3284 C -0.0582 0.3284 -0.0581 0.3282 -0.0582 0.3269 Z M -0.0036 0.314 C -0.0011 0.3135 -0.0024 0.3126 -0.0057 0.3126 C -0.0090 0.3126 -0.0101 0.3132 -0.0094 0.3144 C -0.0091 0.3149 -0.0074 0.3148 -0.0036 0.314 Z M -0.0709 0.3006 C -0.0694 0.2978 -0.07 0.2967 -0.0732 0.2964 C -0.0772 0.2961 -0.0797 0.2989 -0.0777 0.3015 C -0.0767 0.3027 -0.0756 0.303 -0.0736 0.3029 C -0.0724 0.3028 -0.0718 0.3023 -0.0709 0.3006 Z M 0.0168 0.3022 C 0.0173 0.3016 0.018 0.3015 0.0194 0.3017 C 0.0209 0.302 0.0213 0.3019 0.0213 0.3011 C 0.0213 0.3 0.0163 0.2951 0.0155 0.2955 C 0.0152 0.2957 0.0132 0.296 0.011 0.2962 L 0.0069 0.2966 L 0.0067 0.2985 C 0.0064 0.3016 0.0083 0.303 0.0132 0.303 C 0.0151 0.3031 0.0163 0.3028 0.0168 0.3022 Z M -0.0489 0.2867 C -0.048 0.286 -0.047 0.2857 -0.0465 0.2858 C -0.0461 0.286 -0.0453 0.2857 -0.0447 0.2851 C -0.0441 0.2844 -0.042 0.2837 -0.0392 0.2831 C -0.0334 0.2819 -0.026 0.2795 -0.0247 0.2783 C -0.0239 0.2776 -0.0239 0.2773 -0.0245 0.2764 C -0.0251 0.2755 -0.0255 0.2755 -0.0275 0.276 C -0.0287 0.2763 -0.0308 0.2766 -0.0322 0.2766 C -0.0336 0.2766 -0.0353 0.277 -0.0361 0.2775 C -0.0374 0.2785 -0.0438 0.28 -0.0465 0.28 C -0.0512 0.28 -0.057 0.2834 -0.057 0.2862 C -0.057 0.2882 -0.0512 0.2885 -0.0489 0.2867 Z M 0.0146 0.2745 C 0.0154 0.2737 0.0163 0.2723 0.0167 0.2714 C 0.0173 0.27 0.0176 0.2699 0.0203 0.2699 C 0.0231 0.2698 0.0234 0.2697 0.0268 0.2666 C 0.0308 0.2628 0.0311 0.2617 0.0285 0.2587 C 0.0263 0.2562 0.0245 0.2553 0.0214 0.2553 C 0.0185 0.2552 0.0171 0.2568 0.0177 0.2595 C 0.018 0.2611 0.0178 0.2614 0.0158 0.2623 C 0.014 0.2632 0.0137 0.2637 0.0135 0.2654 C 0.0133 0.2686 0.0129 0.2697 0.0114 0.2715 C 0.0102 0.2729 0.0101 0.2733 0.0107 0.2746 C 0.0115 0.2765 0.0128 0.2764 0.0146 0.2745 Z M -0.0295 0.2723 C -0.0283 0.2712 -0.0277 0.2679 -0.0285 0.2666 C -0.0287 0.2663 -0.0298 0.2658 -0.0309 0.2656 C -0.0327 0.2652 -0.0331 0.2654 -0.0343 0.2668 C -0.0362 0.2689 -0.0359 0.2722 -0.0339 0.2727 C -0.0316 0.2734 -0.0307 0.2733 -0.0295 0.2723 Z M -0.0956 0.2629 C -0.0928 0.2619 -0.0901 0.259 -0.0903 0.2573 C -0.0904 0.2566 -0.0912 0.2557 -0.092 0.2553 C -0.0929 0.2549 -0.0938 0.2541 -0.0941 0.2535 C -0.095 0.2519 -0.0958 0.2521 -0.0981 0.2545 C -0.0992 0.2557 -0.1012 0.2573 -0.1025 0.2582 C -0.1043 0.2594 -0.1048 0.2601 -0.1048 0.2613 C -0.1048 0.2622 -0.1047 0.2631 -0.1044 0.2633 C -0.1038 0.264 -0.0979 0.2637 -0.0956 0.2629 Z M 0.0842 0.2405 C 0.0857 0.2379 0.0857 0.2378 0.0846 0.2366 C 0.084 0.236 0.0822 0.2348 0.0806 0.2341 C 0.0773 0.2325 0.0732 0.2323 0.0666 0.2335 C 0.0633 0.2341 0.0626 0.2344 0.0625 0.2353 C 0.0623 0.2366 0.0636 0.2372 0.0669 0.2372 C 0.068 0.2372 0.0691 0.2374 0.0694 0.2377 C 0.0697 0.238 0.0713 0.2386 0.073 0.2392 C 0.0747 0.2397 0.0771 0.2409 0.0784 0.2418 C 0.0796 0.2427 0.0811 0.2433 0.0817 0.2433 C 0.0823 0.2432 0.0834 0.2419 0.0842 0.2405 Z M 8.0E-4 0.2344 C 9.0E-4 0.233 9.0E-4 0.2316 0.0010 0.2312 C 0.0010 0.2308 0.0018 0.2304 0.0028 0.2304 C 0.0044 0.2302 0.0047 0.2299 0.0047 0.2288 C 0.0047 0.2276 0.0044 0.2274 0.0029 0.2273 C 0.0017 0.2273 5.0E-4 0.2266 -9.0E-4 0.2252 C -0.0033 0.2228 -0.0053 0.2226 -0.0057 0.2248 C -0.0058 0.2255 -0.0067 0.227 -0.0078 0.228 C -0.0107 0.231 -0.0103 0.2323 -0.0060 0.233 C -0.0034 0.2335 -0.0026 0.2338 -0.0025 0.2347 C -0.0022 0.2363 -0.0012 0.2373 -2.0E-4 0.2371 C 5.0E-4 0.237 8.0E-4 0.2362 8.0E-4 0.2344 Z M -0.0423 0.2201 C -0.0411 0.2195 -0.0409 0.2191 -0.0409 0.2161 L -0.0409 0.2128 L -0.0389 0.2123 C -0.0365 0.2117 -0.0342 0.2095 -0.0346 0.2083 C -0.0351 0.2072 -0.0376 0.2068 -0.0389 0.2077 C -0.0394 0.2081 -0.0411 0.2087 -0.0426 0.2091 C -0.0456 0.2099 -0.0474 0.2121 -0.0474 0.215 C -0.0474 0.216 -0.0478 0.2171 -0.0482 0.2175 C -0.0511 0.2199 -0.0461 0.2221 -0.0423 0.2201 Z M 0.0269 0.1772 C 0.0287 0.1754 0.0279 0.1739 0.0251 0.1739 C 0.0237 0.1739 0.0227 0.1734 0.0213 0.1721 C 0.0191 0.1698 0.017 0.1696 0.0161 0.1717 C 0.0155 0.173 0.0156 0.1733 0.0168 0.1742 C 0.0176 0.1748 0.0189 0.1755 0.0197 0.1757 C 0.0206 0.1758 0.0216 0.1765 0.0219 0.177 C 0.0222 0.1776 0.023 0.1781 0.0237 0.1783 C 0.0244 0.1784 0.0251 0.1785 0.0253 0.1786 C 0.0254 0.1786 0.0262 0.178 0.0269 0.1772 Z M -0.0652 0.1763 C -0.0644 0.1726 -0.0646 0.1712 -0.0661 0.1714 C -0.0675 0.1716 -0.0681 0.1737 -0.0674 0.1762 C -0.067 0.1779 -0.0655 0.1779 -0.0652 0.1763 Z M 0.0395 0.1549 C 0.04 0.1545 0.0406 0.1534 0.0409 0.1525 C 0.0412 0.1511 0.0417 0.1508 0.0431 0.1506 C 0.0458 0.1504 0.0453 0.1494 0.0425 0.1494 C 0.0412 0.1494 0.0397 0.149 0.0391 0.1486 C 0.0384 0.148 0.0377 0.148 0.0363 0.1484 C 0.0346 0.1489 0.0341 0.1488 0.0312 0.1469 C 0.0273 0.1442 0.0262 0.1445 0.0264 0.1478 C 0.0266 0.15 0.0268 0.1503 0.0283 0.1504 C 0.0305 0.1507 0.0314 0.1515 0.0314 0.1531 C 0.0314 0.154 0.0319 0.1547 0.0327 0.155 C 0.0345 0.1558 0.0384 0.1557 0.0395 0.1549 Z M -0.044 0.1482 C -0.0425 0.1475 -0.0426 0.1465 -0.0443 0.1449 C -0.0451 0.1441 -0.0464 0.1423 -0.0473 0.1408 C -0.0487 0.1381 -0.0495 0.1376 -0.0507 0.1388 C -0.0517 0.1399 -0.0515 0.1414 -0.0498 0.1442 C -0.0472 0.1489 -0.0463 0.1495 -0.044 0.1482 Z"/>
<linearGradient id="glaze" x1="0%" y1="0%" x2="100%" y2="100%">
<stop offset="0%" stop-color="rgb(255,255,255)" stop-opacity="0.2"/>
<stop offset="49.999%" stop-color="rgb(255,255,255)" stop-opacity="0.0"/>
<stop offset="50.001%" stop-color="rgb(0,0,0)" stop-opacity="0.0"/>
<stop offset="100%" stop-color="rgb(0,0,0)" stop-opacity="0.2"/>
</linearGradient>
</defs>
<g>
<g>
<rect x="0" y="0" width="450" height="120" class="blue"/>
<rect x="0" y="120" width="450" height="120" class="white"/>
<rect x="0" y="240" width="450" height="120" class="green"/>
</g>
<use xlink:href="#doug" transform="translate(225 0) scale(360 360) rotate(0)" class="black"/>
</g>
<g>
<rect x="0" y="0" width="450" height="360" fill="url(#glaze)"/>
<path d="M 30 30 L 420 30 L 420 330 L 30 330 Z M 60 60 L 60 300 L 390 300 L 390 60 Z" fill="rgb(255,255,255)" opacity="0.4"/>
<path d="M 0 0 L 450 0 L 450 360 L 0 360 Z M 30 30 L 30 330 L 420 330 L 420 30 Z" fill="rgb(0,0,0)" opacity="0.4"/>
</g>
</svg>
