<?xml version="1.0"?>
<svg xmlns="http://www.w3.org/2000/svg" xmlns:xlink="http://www.w3.org/1999/xlink" version="1.1" width="450" height="360" viewBox="0 0 450 360">
<!-- Generated by Kreative Vexillo v1.0 -->
<style>
.blue{fill:rgb(0,185,254);}
.white{fill:rgb(254,254,254);}
</style>
<defs>
<path id="bird" d="M 3.247 22.342 C 1.8659999 22.258 0.56200004 21.647999 -0.26699996 20.190998 C -0.747 19.348999 -1.286 18.537998 -1.742 17.682999 C -2.717 15.855999 -4.27 14.664999 -6.0160003 13.666999 C -8.034 12.514999 -10.221001 11.927999 -12.516001 11.663999 C -13.754001 11.519999 -14.983001 11.291999 -16.211 11.076999 C -19.679 10.469998 -23.08 9.560999 -26.493 8.714998 C -28.868 8.126998 -31.255001 7.5889983 -33.627 6.992998 C -36.122997 6.3659983 -38.582 5.6209984 -40.84 4.346998 C -41.983 3.7029982 -43.111 3.026998 -44.078 2.1219983 C -44.181 2.0259984 -44.375 1.9499983 -44.309 1.7659984 C -44.239998 1.5719984 -44.032997 1.5419984 -43.855 1.5279983 C -43.051 1.4619983 -42.289 1.6499983 -41.54 1.9239984 C -39.332 2.7349982 -37.08 3.4089985 -34.799 3.9779983 C -32.868 4.4579983 -30.917 4.8639984 -28.973 5.2989984 C -26.234 5.9119983 -23.467 6.064998 -20.664 5.9799986 C -18.615 5.9169984 -16.559 5.9889984 -14.514999 6.2749987 C -13.059999 6.4779987 -11.61 6.7039986 -10.178999 7.0239987 C -7.669999 7.5849986 -5.233999 8.336999 -3.1489987 9.9419985 C -2.5899987 10.370998 -1.9749987 10.726998 -1.3949988 11.129998 C -0.8289988 11.519999 -0.22499883 11.565998 0.4340012 11.432999 C 1.7350012 11.170999 3.0400012 10.920999 4.3510013 10.712998 C 4.9660015 10.615998 5.597001 10.612998 6.221001 10.591998 C 7.057001 10.564998 7.6660013 10.267998 8.088001 9.471998 C 8.738001 8.249998 9.459002 7.063998 10.238001 5.9159985 C 11.304001 4.346998 12.653001 3.0569985 14.124001 1.8849983 C 17.233 -0.5900016 20.711 -2.4480019 24.323002 -4.0510015 C 26.797 -5.1480017 29.009003 -6.658002 31.260002 -8.119001 C 33.951004 -9.867002 36.387 -11.957002 39.023003 -13.778002 C 40.045002 -14.485002 41.063004 -15.209002 42.196003 -15.740002 C 42.444004 -15.856002 42.698 -15.980001 42.980003 -15.988002 C 43.094 -15.991002 43.245003 -16.055002 43.313004 -15.904002 C 43.370003 -15.778002 43.307003 -15.655003 43.232002 -15.554002 C 43.107002 -15.387002 42.988003 -15.211001 42.836002 -15.073002 C 39.851 -12.369001 36.851 -9.681002 33.620003 -7.274002 C 31.649002 -5.807002 29.500004 -4.606002 27.361004 -3.4040022 C 24.616005 -1.8620021 22.090004 -0.015002251 19.622004 1.921998 C 18.553003 2.759998 17.479004 3.602998 16.322004 4.3189983 C 14.610004 5.3809986 13.269005 6.7939982 12.205004 8.486999 C 12.021004 8.780998 11.824004 9.065998 11.639004 9.358998 C 11.592004 9.432999 11.474004 9.507998 11.558003 9.604999 C 11.627004 9.687999 11.737003 9.634998 11.831003 9.608998 C 12.204003 9.507998 12.579003 9.410998 12.953003 9.3099985 C 13.070003 9.278998 13.212003 9.178999 13.3010025 9.288999 C 13.412003 9.425999 13.306003 9.576999 13.226003 9.705998 C 12.917003 10.203999 12.545003 10.652998 12.119002 11.053999 C 11.258002 11.864999 10.264002 12.510999 9.343002 13.247999 C 9.102002 13.441999 8.993002 13.638 8.997003 13.947999 C 9.006002 15.101999 8.958003 16.269999 8.621002 17.369999 C 8.114002 19.019 7.1320024 20.394 5.8110023 21.510998 C 5.113 22.102 4.393 22.342 3.247 22.342 Z"/>
<linearGradient id="glaze" x1="0%" y1="0%" x2="100%" y2="100%">
<stop offset="0%" stop-color="rgb(255,255,255)" stop-opacity="0.2"/>
<stop offset="49.999%" stop-color="rgb(255,255,255)" stop-opacity="0.0"/>
<stop offset="50.001%" stop-color="rgb(0,0,0)" stop-opacity="0.0"/>
<stop offset="100%" stop-color="rgb(0,0,0)" stop-opacity="0.2"/>
</linearGradient>
</defs>
<g>
<rect x="0" y="0" width="450" height="360" class="blue"/>
<ellipse cx="225" cy="180" rx="135" ry="135" class="white"/>
<use xlink:href="#bird" transform="translate(225 180) scale(2.7 2.7) rotate(0)" class="blue"/>
</g>
<g>
<rect x="0" y="0" width="450" height="360" fill="url(#glaze)"/>
<path d="M 30 30 L 420 30 L 420 330 L 30 330 Z M 60 60 L 60 300 L 390 300 L 390 60 Z" fill="rgb(255,255,255)" opacity="0.4"/>
<path d="M 0 0 L 450 0 L 450 360 L 0 360 Z M 30 30 L 30 330 L 420 330 L 420 30 Z" fill="rgb(0,0,0)" opacity="0.4"/>
</g>
</svg>
