<?xml version="1.0"?>
<svg xmlns="http://www.w3.org/2000/svg" xmlns:xlink="http://www.w3.org/1999/xlink" version="1.1" width="450" height="360" viewBox="0 0 450 360">
<!-- Generated by Kreative Vexillo v1.0 -->
<style>
.black{fill:rgb(89,89,89);}
.blue{fill:rgb(123,194,224);}
.green{fill:rgb(59,176,125);}
.red{fill:rgb(207,114,128);}
.white{fill:rgb(232,232,232);}
.yellow{fill:rgb(238,222,119);}
</style>
<defs>
<clipPath id="clip0">
<path d="M 0 0 L 450 360 L 0 360 Z"/>
</clipPath>
<clipPath id="clip1">
<path d="M 0 0 L 450 0 L 450 360 Z"/>
</clipPath>
<linearGradient id="glaze" x1="0%" y1="0%" x2="100%" y2="100%">
<stop offset="0%" stop-color="rgb(255,255,255)" stop-opacity="0.2"/>
<stop offset="49.999%" stop-color="rgb(255,255,255)" stop-opacity="0.0"/>
<stop offset="50.001%" stop-color="rgb(0,0,0)" stop-opacity="0.0"/>
<stop offset="100%" stop-color="rgb(0,0,0)" stop-opacity="0.2"/>
</linearGradient>
</defs>
<g>
<rect x="0" y="0" width="450" height="360" class="black"/>
<g clip-path="url(#clip0)">
<path d="M 56.2226 -70.2782 L 56.2226 -70.2782 L 506.2226 289.7218 L 393.7774 430.2782 L -56.2226 70.2782 Z" class="red"/>
<path d="M 33.7335 -42.1669 L 33.7335 -42.1669 L 483.7335 317.8331 L 416.2665 402.1669 L -33.7335 42.1669 Z" class="yellow"/>
</g>
<g clip-path="url(#clip1)">
<path d="M 56.2226 -70.2782 L 56.2226 -70.2782 L 506.2226 289.7218 L 393.7774 430.2782 L -56.2226 70.2782 Z" class="green"/>
<path d="M 33.7335 -42.1669 L 33.7335 -42.1669 L 483.7335 317.8331 L 416.2665 402.1669 L -33.7335 42.1669 Z" class="blue"/>
</g>
<path d="M 11.2445 -14.0556 L 11.2445 -14.0556 L 461.2445 345.9444 L 438.7555 374.0556 L -11.2445 14.0556 Z" class="white"/>
</g>
<g>
<rect x="0" y="0" width="450" height="360" fill="url(#glaze)"/>
<path d="M 30 30 L 420 30 L 420 330 L 30 330 Z M 60 60 L 60 300 L 390 300 L 390 60 Z" fill="rgb(255,255,255)" opacity="0.4"/>
<path d="M 0 0 L 450 0 L 450 360 L 0 360 Z M 30 30 L 30 330 L 420 330 L 420 30 Z" fill="rgb(0,0,0)" opacity="0.4"/>
</g>
</svg>
