<?xml version="1.0"?>
<svg xmlns="http://www.w3.org/2000/svg" xmlns:xlink="http://www.w3.org/1999/xlink" version="1.1" width="450" height="360" viewBox="0 0 450 360">
<!-- Generated by Kreative Vexillo v1.0 -->
<style>
.yellow{fill:rgb(255,238,0);}
</style>
<defs>
<path id="-glazearea" d="M 0.0 0.0 L 1.0 0.0 L 0.75 0.5 L 1.0 1.0 L 0.0 1.0 Z"/>
<linearGradient id="glaze" x1="0%" y1="0%" x2="100%" y2="100%">
<stop offset="0%" stop-color="rgb(255,255,255)" stop-opacity="0.2"/>
<stop offset="49.999%" stop-color="rgb(255,255,255)" stop-opacity="0.0"/>
<stop offset="50.001%" stop-color="rgb(0,0,0)" stop-opacity="0.0"/>
<stop offset="100%" stop-color="rgb(0,0,0)" stop-opacity="0.2"/>
</linearGradient>
</defs>
<g>
<path d="M 0 0 L 450 0 L 337.5 180 L 450 360 L 0 360 Z" class="yellow"/>
</g>
<g>
<path d="M 0 0 L 450 0 L 337.5 180 L 450 360 L 0 360 Z" fill="url(#glaze)"/>
<path d="M 341.7452 60 L 286.6201 148.2001 L 266.7452 180 L 286.6201 211.7999 L 341.7452 300 L 60 300 L 60 60 Z M 30 30 L 30 330 L 395.8726 330 L 312.0601 195.9 L 302.1226 180 L 312.0601 164.1 L 395.8726 30 Z" fill="rgb(255,255,255)" opacity="0.4"/>
<path d="M 395.8726 30 L 312.0601 164.1 L 302.1226 180 L 312.0601 195.9 L 395.8726 330 L 30 330 L 30 30 Z M 0 0 L 0 360 L 450 360 L 337.5 180 L 450 0 Z" fill="rgb(0,0,0)" opacity="0.4"/>
</g>
</svg>
