<?xml version="1.0"?>
<svg xmlns="http://www.w3.org/2000/svg" xmlns:xlink="http://www.w3.org/1999/xlink" version="1.1" width="450" height="360" viewBox="0 0 450 360">
<!-- Generated by Kreative Vexillo v1.0 -->
<style>
.blue{fill:rgb(0,36,125);}
.red{fill:rgb(207,20,43);}
.white{fill:rgb(255,255,255);}
</style>
<defs>
<clipPath id="clip0">
<path d="M 0 0 L 0 15.2433 L 0 15.2433 L 81.7651 90 L 81.7651 90 L 0 164.7567 L 0 164.7567 L 0 180 L 16.6724 180 L 98.4375 105.2433 L 98.4375 105.2433 L 98.4375 105.2433 L 98.4375 105.2433 L 98.4375 105.2433 L 98.4375 105.2433 L 180.2026 180 L 196.875 180 L 196.875 164.7567 L 115.1099 90 L 115.1099 90 L 196.875 15.2433 L 196.875 0 L 180.2026 0 L 98.4375 74.7567 L 98.4375 74.7567 L 16.6724 0 Z"/>
</clipPath>
<linearGradient id="glaze" x1="0%" y1="0%" x2="100%" y2="100%">
<stop offset="0%" stop-color="rgb(255,255,255)" stop-opacity="0.2"/>
<stop offset="49.999%" stop-color="rgb(255,255,255)" stop-opacity="0.0"/>
<stop offset="50.001%" stop-color="rgb(0,0,0)" stop-opacity="0.0"/>
<stop offset="100%" stop-color="rgb(0,0,0)" stop-opacity="0.2"/>
</linearGradient>
</defs>
<g>
<g>
<rect x="0" y="0" width="450" height="45" class="white"/>
<rect x="0" y="45" width="450" height="45" class="red"/>
<rect x="0" y="90" width="450" height="45" class="blue"/>
<rect x="0" y="135" width="450" height="45" class="white"/>
<rect x="0" y="180" width="450" height="45" class="red"/>
<rect x="0" y="225" width="450" height="45" class="blue"/>
<rect x="0" y="270" width="450" height="45" class="white"/>
<rect x="0" y="315" width="450" height="45" class="red"/>
</g>
<g>
<rect x="0" y="0" width="196.875" height="180" class="blue"/>
<path d="M 0 0 L 0 22.865 L 73.4289 90 L 73.4289 90 L 0 157.135 L 0 180 L 25.0086 180 L 98.4375 112.865 L 171.8664 180 L 196.875 180 L 196.875 157.135 L 123.4461 90 L 123.4461 90 L 196.875 22.865 L 196.875 0 L 171.8664 0 L 98.4375 67.135 L 98.4375 67.135 L 98.4375 67.135 L 98.4375 67.135 L 98.4375 67.135 L 98.4375 67.135 L 25.0086 0 Z" class="white"/>
<g clip-path="url(#clip0)">
<path d="M 0 0 L 98.4375 90 L 0 90 Z" class="red"/>
<path d="M 196.875 0 L 98.4375 90 L 98.4375 0 Z" class="red"/>
<path d="M 0 180 L 98.4375 90 L 98.4375 180 Z" class="red"/>
<path d="M 196.875 180 L 98.4375 90 L 196.875 90 Z" class="red"/>
</g>
<g>
<rect x="0" y="67.5" width="196.875" height="45" class="white"/>
<rect x="75.9375" y="0" width="45" height="180" class="white"/>
</g>
<g>
<rect x="0" y="73.125" width="196.875" height="33.75" class="red"/>
<rect x="81.5625" y="0" width="33.75" height="180" class="red"/>
</g>
</g>
</g>
<g>
<rect x="0" y="0" width="450" height="360" fill="url(#glaze)"/>
<path d="M 30 30 L 420 30 L 420 330 L 30 330 Z M 60 60 L 60 300 L 390 300 L 390 60 Z" fill="rgb(255,255,255)" opacity="0.4"/>
<path d="M 0 0 L 450 0 L 450 360 L 0 360 Z M 30 30 L 30 330 L 420 330 L 420 30 Z" fill="rgb(0,0,0)" opacity="0.4"/>
</g>
</svg>
