<?xml version="1.0"?>
<svg xmlns="http://www.w3.org/2000/svg" xmlns:xlink="http://www.w3.org/1999/xlink" version="1.1" width="450" height="360" viewBox="0 0 450 360">
<!-- Generated by Kreative Vexillo v1.0 -->
<style>
.red{fill:rgb(255,0,0);}
.white{fill:rgb(255,255,255);}
</style>
<defs>
<path id="miarashella" d="M 77.07 40.0 H 80.0 C 91.028 40.0 100.0 31.028 100.0 20.0 S 91.028 0.0 80.0 0.0 S 60.0 8.972 60.0 20.0 V 30.0 H 40.0 V 20.0 C 40.0 8.972 31.028 0.0 20.0 0.0 S 0.0 8.972 0.0 20.0 S 8.972 40.0 20.0 40.0 H 30.0 V 100.0 H 40.0 V 40.0 H 60.0 V 100.0 H 70.0 V 47.071 L 91.465 68.535 C 92.44 69.512 93.721 70.0 95.0 70.0 S 97.56 69.512 98.535 68.535 C 100.48801 66.583 100.48801 63.417004 98.535 61.465004 L 77.07 40.0 Z M 30.0 30.0 H 20.0 C 14.486 30.0 10.0 25.514 10.0 20.0 S 14.486 10.0 20.0 10.0 S 30.0 14.486 30.0 20.0 V 30.0 Z M 70.0 20.0 C 70.0 14.486 74.486 10.0 80.0 10.0 S 90.0 14.486 90.0 20.0 S 85.514 30.0 80.0 30.0 H 70.0 V 20.0 Z"/>
<linearGradient id="glaze" x1="0%" y1="0%" x2="100%" y2="100%">
<stop offset="0%" stop-color="rgb(255,255,255)" stop-opacity="0.2"/>
<stop offset="49.999%" stop-color="rgb(255,255,255)" stop-opacity="0.0"/>
<stop offset="50.001%" stop-color="rgb(0,0,0)" stop-opacity="0.0"/>
<stop offset="100%" stop-color="rgb(0,0,0)" stop-opacity="0.2"/>
</linearGradient>
</defs>
<g>
<rect x="0" y="0" width="450" height="360" class="red"/>
<use xlink:href="#miarashella" transform="translate(45 150) scale(1.8 1.8) rotate(0)" class="white"/>
<g>
<rect x="99" y="222" width="18" height="138" class="white"/>
</g>
<g>
<rect x="153" y="222" width="18" height="138" class="white"/>
</g>
</g>
<g>
<rect x="0" y="0" width="450" height="360" fill="url(#glaze)"/>
<path d="M 30 30 L 420 30 L 420 330 L 30 330 Z M 60 60 L 60 300 L 390 300 L 390 60 Z" fill="rgb(255,255,255)" opacity="0.4"/>
<path d="M 0 0 L 450 0 L 450 360 L 0 360 Z M 30 30 L 30 330 L 420 330 L 420 30 Z" fill="rgb(0,0,0)" opacity="0.4"/>
</g>
</svg>
