<?xml version="1.0"?>
<svg xmlns="http://www.w3.org/2000/svg" xmlns:xlink="http://www.w3.org/1999/xlink" version="1.1" width="450" height="360" viewBox="0 0 450 360">
<!-- Generated by Kreative Vexillo v1.0 -->
<style>
.gray{fill:rgb(137,137,137);}
.white{fill:rgb(255,255,255);}
</style>
<defs>
<path id="nailgear" d="M -0.205 -0.5073 V -0.5 C -0.205 -0.4705 -0.205 -0.4399 -0.205 -0.4077 C -0.205 -0.3783 -0.2084 -0.3272 -0.205 -0.3154 C -0.1995 -0.296 -0.1676 -0.2684 -0.1487 -0.24780001 C -0.012999997 -0.10020001 0.1272 0.051599994 0.2612 0.19589998 C 0.30620003 0.13499998 0.3328 0.06609997 0.3265 -0.027100027 C 0.3164 -0.17820002 0.191 -0.31520003 0.03369999 -0.32660002 C 0.00489999 -0.3287 -0.034800008 -0.31980002 -0.06540001 -0.32660002 C -0.09270001 -0.33260003 -0.127 -0.3799 -0.13070002 -0.38970003 C -0.13450003 -0.3995 -0.13240002 -0.44240004 -0.12620002 -0.46180004 C -0.10010002 -0.47630003 -0.05760002 -0.48630005 -0.018100023 -0.47980005 C 7.999763E-4 -0.46570003 0.003099976 -0.43500006 0.017899975 -0.41670004 C 0.037099976 -0.41090003 0.053299975 -0.40860003 0.06969997 -0.40540004 C 0.08489998 -0.40250003 0.10539997 -0.39350003 0.12149997 -0.39640003 C 0.14859997 -0.40120003 0.15779997 -0.44660002 0.18009996 -0.45050004 C 0.19349997 -0.45280004 0.21759996 -0.43810004 0.23189996 -0.43020004 C 0.24779996 -0.42150003 0.26189995 -0.41120005 0.27239996 -0.40090004 C 0.27829996 -0.37880003 0.25769997 -0.35560003 0.26109996 -0.33330005 C 0.26349998 -0.31750005 0.29099995 -0.29940006 0.29939997 -0.29050004 C 0.31269997 -0.27640003 0.32589996 -0.25480005 0.34219998 -0.25220004 C 0.36609998 -0.24830003 0.38599998 -0.26660004 0.41199997 -0.26350003 C 0.42329997 -0.25220004 0.43029997 -0.23940003 0.43899998 -0.22300003 C 0.44539997 -0.21080004 0.4599 -0.19170004 0.45929998 -0.17800003 C 0.45819998 -0.15460004 0.41279998 -0.13690004 0.40749997 -0.11720003 C 0.40429997 -0.10530003 0.41119996 -0.084000036 0.41429996 -0.065400034 C 0.41779998 -0.044200033 0.41839996 -0.025800034 0.42559996 -0.013600033 C 0.44079995 0.012499968 0.47489995 0.0058999676 0.49319994 0.026899967 C 0.49399996 0.06899997 0.48829994 0.10459997 0.47519994 0.13279997 C 0.45429993 0.14849997 0.42719993 0.13439997 0.40539995 0.14409997 C 0.39319995 0.14949997 0.38169995 0.17849997 0.37609994 0.18909997 C 0.36649993 0.20759997 0.35469994 0.22629997 0.35579994 0.24319997 C 0.35669994 0.25669998 0.36469993 0.26239997 0.37159994 0.27249998 C 0.37739995 0.281 0.38669994 0.29259998 0.38739994 0.2995 C 0.38839993 0.3101 0.38269994 0.313 0.37839994 0.3265 C 0.39979994 0.3667 0.42589992 0.4021 0.44599992 0.4436 C 0.40439993 0.4244 0.36809993 0.3999 0.33109993 0.376 C 0.31789994 0.37759998 0.3144999 0.38729998 0.30409992 0.38729998 C 0.28349993 0.3872 0.26209992 0.35489997 0.24329992 0.35349998 C 0.22779992 0.35239998 0.20659992 0.36859998 0.19149992 0.376 C 0.17439991 0.38439998 0.15869991 0.3917 0.14419992 0.4008 C 0.14189993 0.42479998 0.14289992 0.45209998 0.13739993 0.47289997 C 0.12559992 0.48219997 0.10579993 0.48569998 0.08789992 0.48869997 C 0.069499925 0.49169996 0.046599925 0.49629998 0.031599924 0.49099997 C 0.0054999236 0.48179996 0.010299925 0.44789997 -0.006700076 0.42789996 C -0.024100076 0.42019996 -0.041600075 0.41719997 -0.058500078 0.41439995 C -0.07420008 0.41179994 -0.09740008 0.40419996 -0.11480008 0.40759996 C -0.14130008 0.41279995 -0.15190008 0.45679995 -0.17560008 0.45939997 C -0.18910009 0.46089998 -0.21120009 0.44669998 -0.22510009 0.43909997 C -0.23990008 0.43109998 -0.25480008 0.42079997 -0.26340008 0.40979996 C -0.26610008 0.38439995 -0.24860008 0.36339995 -0.25210008 0.34219998 C -0.25490007 0.32549998 -0.2791001 0.31069997 -0.2904001 0.29939997 C -0.3003001 0.28949997 -0.3193001 0.26349998 -0.33090007 0.26109996 C -0.35340008 0.25649998 -0.37800008 0.27769998 -0.39850008 0.27239996 C -0.4124001 0.26879996 -0.4228001 0.24539997 -0.4300001 0.23189996 C -0.4364001 0.21979997 -0.4517001 0.19519997 -0.4503001 0.18239996 C -0.4479001 0.16109996 -0.40100008 0.14619996 -0.3962001 0.12379996 C -0.3934001 0.11059996 -0.40240008 0.08959995 -0.4052001 0.07429996 C -0.4087001 0.055199962 -0.4076001 0.03729996 -0.4142001 0.024799962 C -0.4275001 -5.0003827E-4 -0.45990008 0.006499961 -0.47950011 -0.015700039 C -0.4859001 -0.05600004 -0.47760013 -0.10080004 -0.4615001 -0.12610003 C -0.44110012 -0.13120003 -0.4029001 -0.13510004 -0.38940012 -0.13060004 C -0.38110012 -0.12760003 -0.32960013 -0.09150004 -0.32410014 -0.06530003 C -0.32080013 -0.049700033 -0.32860014 -0.019800033 -0.32860014 -0.0022000298 C -0.32870013 0.09099997 -0.28680015 0.17289996 -0.23850015 0.22529998 C -0.18090016 0.2877 -0.091000155 0.3344 0.024999857 0.32669997 C 0.09779986 0.32179996 0.14649986 0.29529998 0.19839986 0.26139998 C 0.057399854 0.12569998 -0.09470014 -0.00940001 -0.24300013 -0.14850003 C -0.26320013 -0.16740003 -0.29030013 -0.19850002 -0.30830014 -0.20480002 C -0.31960014 -0.20870003 -0.37070012 -0.20710002 -0.40290013 -0.20710002 C -0.43620014 -0.20710002 -0.47150013 -0.20710002 -0.49990013 -0.20710002 C -0.49990013 -0.20710002 -0.47760013 -0.23150001 -0.46590012 -0.24310002 C -0.3835 -0.326 -0.2886 -0.4229 -0.205 -0.5073 L -0.205 -0.5073 Z"/>
<linearGradient id="glaze" x1="0%" y1="0%" x2="100%" y2="100%">
<stop offset="0%" stop-color="rgb(255,255,255)" stop-opacity="0.2"/>
<stop offset="49.999%" stop-color="rgb(255,255,255)" stop-opacity="0.0"/>
<stop offset="50.001%" stop-color="rgb(0,0,0)" stop-opacity="0.0"/>
<stop offset="100%" stop-color="rgb(0,0,0)" stop-opacity="0.2"/>
</linearGradient>
</defs>
<g>
<rect x="0" y="0" width="450" height="360" class="gray"/>
<use xlink:href="#nailgear" transform="translate(225 180) scale(240 240) rotate(0)" class="white"/>
</g>
<g>
<rect x="0" y="0" width="450" height="360" fill="url(#glaze)"/>
<path d="M 30 30 L 420 30 L 420 330 L 30 330 Z M 60 60 L 60 300 L 390 300 L 390 60 Z" fill="rgb(255,255,255)" opacity="0.4"/>
<path d="M 0 0 L 450 0 L 450 360 L 0 360 Z M 30 30 L 30 330 L 420 330 L 420 30 Z" fill="rgb(0,0,0)" opacity="0.4"/>
</g>
</svg>
