<?xml version="1.0"?>
<svg xmlns="http://www.w3.org/2000/svg" xmlns:xlink="http://www.w3.org/1999/xlink" version="1.1" width="450" height="360" viewBox="0 0 450 360">
<!-- Generated by Kreative Vexillo v1.0 -->
<style>
.pink{fill:rgb(250,135,210);}
.red{fill:rgb(207,20,43);}
.white{fill:rgb(255,255,255);}
</style>
<defs>
<clipPath id="clip0">
<path d="M 0 0 L 0 30.735 L 186.5813 180 L 186.5813 180 L 0 329.265 L 0 329.265 L 0 360 L 38.4187 360 L 225 210.735 L 225 210.735 L 411.5813 360 L 450 360 L 450 329.265 L 263.4187 180 L 450 30.735 L 450 0 L 411.5813 0 L 225 149.265 L 225 149.265 L 38.4187 0 Z"/>
</clipPath>
<linearGradient id="glaze" x1="0%" y1="0%" x2="100%" y2="100%">
<stop offset="0%" stop-color="rgb(255,255,255)" stop-opacity="0.2"/>
<stop offset="49.999%" stop-color="rgb(255,255,255)" stop-opacity="0.0"/>
<stop offset="50.001%" stop-color="rgb(0,0,0)" stop-opacity="0.0"/>
<stop offset="100%" stop-color="rgb(0,0,0)" stop-opacity="0.2"/>
</linearGradient>
</defs>
<g>
<rect x="0" y="0" width="450" height="360" class="pink"/>
<path d="M 0 0 L 0 46.1025 L 167.3719 180 L 0 313.8975 L 0 313.8975 L 0 360 L 57.6281 360 L 225 226.1025 L 225 226.1025 L 392.3719 360 L 450 360 L 450 313.8975 L 282.6281 180 L 450 46.1025 L 450 0 L 392.3719 0 L 225 133.8975 L 225 133.8975 L 57.6281 0 Z" class="white"/>
<g clip-path="url(#clip0)">
<path d="M 0 0 L 225 180 L 0 180 Z" class="red"/>
<path d="M 450 0 L 225 180 L 225 0 Z" class="red"/>
<path d="M 0 360 L 225 180 L 225 360 Z" class="red"/>
<path d="M 450 360 L 225 180 L 450 180 Z" class="red"/>
</g>
<g>
<rect x="0" y="120" width="450" height="120" class="white"/>
<rect x="165" y="0" width="120" height="360" class="white"/>
</g>
<g>
<rect x="0" y="144" width="450" height="72" class="red"/>
<rect x="189" y="0" width="72" height="360" class="red"/>
</g>
</g>
<g>
<rect x="0" y="0" width="450" height="360" fill="url(#glaze)"/>
<path d="M 30 30 L 420 30 L 420 330 L 30 330 Z M 60 60 L 60 300 L 390 300 L 390 60 Z" fill="rgb(255,255,255)" opacity="0.4"/>
<path d="M 0 0 L 450 0 L 450 360 L 0 360 Z M 30 30 L 30 330 L 420 330 L 420 30 Z" fill="rgb(0,0,0)" opacity="0.4"/>
</g>
</svg>
