<?xml version="1.0"?>
<svg xmlns="http://www.w3.org/2000/svg" xmlns:xlink="http://www.w3.org/1999/xlink" version="1.1" width="450" height="360" viewBox="0 0 450 360">
<!-- Generated by Kreative Vexillo v1.0 -->
<style>
.blue1{fill:rgb(155,199,232);}
.blue2{fill:rgb(107,131,207);}
.pink1{fill:rgb(196,121,160);}
.pink2{fill:rgb(236,166,203);}
.purple{fill:rgb(214,199,231);}
.white{fill:rgb(255,255,255);}
</style>
<defs>
<linearGradient id="glaze" x1="0%" y1="0%" x2="100%" y2="100%">
<stop offset="0%" stop-color="rgb(255,255,255)" stop-opacity="0.2"/>
<stop offset="49.999%" stop-color="rgb(255,255,255)" stop-opacity="0.0"/>
<stop offset="50.001%" stop-color="rgb(0,0,0)" stop-opacity="0.0"/>
<stop offset="100%" stop-color="rgb(0,0,0)" stop-opacity="0.2"/>
</linearGradient>
</defs>
<g>
<g>
<rect x="0" y="0" width="450" height="51.4286" class="blue2"/>
<rect x="0" y="51.4286" width="450" height="51.4286" class="blue1"/>
<rect x="0" y="102.8571" width="450" height="51.4286" class="purple"/>
<rect x="0" y="154.2857" width="450" height="51.4286" class="white"/>
<rect x="0" y="205.7143" width="450" height="51.4286" class="purple"/>
<rect x="0" y="257.1429" width="450" height="51.4286" class="pink2"/>
<rect x="0" y="308.5714" width="450" height="51.4286" class="pink1"/>
</g>
</g>
<g>
<rect x="0" y="0" width="450" height="360" fill="url(#glaze)"/>
<path d="M 30 30 L 420 30 L 420 330 L 30 330 Z M 60 60 L 60 300 L 390 300 L 390 60 Z" fill="rgb(255,255,255)" opacity="0.4"/>
<path d="M 0 0 L 450 0 L 450 360 L 0 360 Z M 30 30 L 30 330 L 420 330 L 420 30 Z" fill="rgb(0,0,0)" opacity="0.4"/>
</g>
</svg>
