<?xml version="1.0"?>
<svg xmlns="http://www.w3.org/2000/svg" xmlns:xlink="http://www.w3.org/1999/xlink" version="1.1" width="450" height="360" viewBox="0 0 450 360">
<!-- Generated by Kreative Vexillo v1.0 -->
<style>
.green{fill:rgb(145,242,145);}
.purple{fill:rgb(102,2,60);}
.white{fill:rgb(255,255,255);}
.yellow{fill:rgb(255,255,0);}
</style>
<defs>
<path id="myrtle1" d="M -0.402 0.27 C -0.39200002 0.16180001 -0.29790002 0.11860001 -0.21200001 0.08600001 C -0.27 0.09860001 -0.34280002 0.11080001 -0.402 0.09300001 C -0.4542 0.07730001 -0.4996 0.03620001 -0.504 -0.02099999 C -0.5088 -0.083699994 -0.4668 -0.11689999 -0.417 -0.13099998 C -0.4273 -0.15009998 -0.4409 -0.17109999 -0.44099998 -0.20199999 C -0.44109997 -0.2331 -0.4274 -0.2562 -0.413 -0.271 C -0.39479998 -0.28959998 -0.3672 -0.3035 -0.333 -0.306 C -0.2441 -0.3125 -0.1922 -0.24599999 -0.15 -0.203 C -0.1728 -0.2478 -0.20830001 -0.2974 -0.20400001 -0.369 C -0.19990002 -0.4358 -0.15740001 -0.4899 -0.09600001 -0.494 C -0.049300008 -0.4971 -0.020100005 -0.47 9.999946E-4 -0.44 C 0.022999994 -0.4672 0.048299994 -0.4968 0.098 -0.494 C 0.1618 -0.4903 0.2024 -0.43409997 0.20699999 -0.371 C 0.21159999 -0.3071 0.17859998 -0.24759999 0.15399998 -0.20599999 C 0.19159998 -0.24419999 0.23889998 -0.30089998 0.315 -0.306 C 0.3832 -0.31059998 0.44169998 -0.27019998 0.44300002 -0.204 C 0.44360003 -0.1719 0.4309 -0.15169999 0.418 -0.131 C 0.4668 -0.117 0.51060003 -0.0866 0.50600004 -0.022 C 0.5037 0.0097 0.48760003 0.0364 0.46900004 0.055 C 0.41240004 0.1116 0.30170006 0.1105 0.21400005 0.085 C 0.30180004 0.1222 0.39140004 0.1576 0.40400004 0.27 C 0.40400004 0.2743 0.40400004 0.27870002 0.40400004 0.28300002 C 0.40120006 0.3603 0.32750005 0.40320003 0.25700003 0.37500003 C 0.25870004 0.44670004 0.21900003 0.48640004 0.16100003 0.49200004 C 0.15670003 0.49200004 0.15230003 0.49200004 0.14800003 0.49200004 C 0.05550003 0.48050004 0.019500032 0.41250005 0.0020000339 0.32600003 C -0.019199966 0.40950003 -0.051799968 0.48150003 -0.14599997 0.49200004 C -0.15029997 0.49200004 -0.15469997 0.49200004 -0.15899996 0.49200004 C -0.21669996 0.48650005 -0.25629997 0.44710004 -0.25499997 0.37600005 C -0.32539997 0.40120006 -0.39829996 0.36260006 -0.40199995 0.28300005 C -0.402 0.2787 -0.402 0.2743 -0.402 0.27 Z"/>
<path id="myrtle2" d="M 0.006 -0.229 C 0.011299999 -0.1649 0.0173 -0.10170001 0.022 -0.037 C 0.062 -0.0678 0.1092 -0.1095 0.152 -0.146 C 0.15619999 -0.1495 0.1707 -0.1587 0.17099999 -0.161 C 0.1713 -0.1627 0.1626 -0.1731 0.16199999 -0.17899999 C 0.15779999 -0.21929999 0.2135 -0.2251 0.22299999 -0.19299999 C 0.22999999 -0.16919999 0.20539999 -0.14139998 0.17799999 -0.15599999 C 0.13469999 -0.10759999 0.09349999 -0.05709999 0.051999986 -0.0069999844 C 0.11059999 -0.0018999842 0.16919999 0.003200016 0.22799999 0.008000015 C 0.23279999 -0.032399982 0.3021 -0.021499984 0.28899997 0.023000015 C 0.28139997 0.048800014 0.23399997 0.052800015 0.22899997 0.019000014 C 0.16999997 0.023700014 0.11139997 0.028800014 0.052999973 0.034000013 C 0.09079997 0.08320001 0.13599998 0.13370001 0.17699997 0.18300001 C 0.20189998 0.17000002 0.23139997 0.19170001 0.22299998 0.22000001 C 0.21119997 0.2601 0.14299998 0.23560001 0.16599998 0.19500001 C 0.16649997 0.1941 0.17099997 0.18900001 0.17099997 0.18900001 C 0.17079997 0.18580002 0.15649998 0.17690001 0.15199998 0.17300001 C 0.10979998 0.13700001 0.06349998 0.09680001 0.021999985 0.06300001 C 0.017699985 0.122700006 0.012599985 0.1816 0.0069999853 0.24000001 C 0.038299985 0.2451 0.040299986 0.29360002 0.011999985 0.30200002 C -0.030600013 0.31460002 -0.044400014 0.24820001 -0.0030000145 0.24100001 C -0.008400015 0.18240002 -0.013600014 0.12360001 -0.018000014 0.06400001 C -0.06760001 0.10310001 -0.11980002 0.1482 -0.169 0.19100001 C -0.14039999 0.23120001 -0.2114 0.2628 -0.224 0.22000001 C -0.2317 0.19390002 -0.2018 0.16690001 -0.176 0.18500002 C -0.1317 0.13630001 -0.0903 0.08470002 -0.047999993 0.034000024 C -0.10689999 0.028900024 -0.16569999 0.023700025 -0.225 0.019000024 C -0.23009999 0.034900025 -0.2444 0.049400024 -0.266 0.043000024 C -0.31 0.030000024 -0.2764 -0.039199974 -0.238 -0.012999978 C -0.2319 -0.008799978 -0.22850001 -0.0021999776 -0.22500001 0.008000022 C -0.16600001 0.0033000219 -0.10750001 -0.0017999783 -0.04900001 -0.006999978 C -0.087500006 -0.056799978 -0.13300002 -0.10839998 -0.17500001 -0.15799998 C -0.18240002 -0.15469998 -0.1835 -0.15269998 -0.19000001 -0.15199998 C -0.23780002 -0.14689998 -0.23330002 -0.21859998 -0.19000001 -0.21399999 C -0.17140001 -0.21199998 -0.15370001 -0.18679999 -0.16900001 -0.16499999 C -0.12070002 -0.11999999 -0.06840002 -0.078899994 -0.018000022 -0.036 C -0.013500022 -0.1008 -0.007400022 -0.16409999 -0.0020000208 -0.228 C -0.036700018 -0.233 -0.03650002 -0.2873 -0.0020000208 -0.291 C 0.0373 -0.2952 0.0458 -0.2351 0.006 -0.229 Z M -0.019 0.005 C -0.0482 0.0082 -0.0787 0.01 -0.108 0.013 C -0.114800006 0.0124 -0.112500004 0.0148 -0.107 0.014 C -0.0785 0.0178 -0.045900002 0.0176 -0.019000001 0.023 C -0.038200002 0.046800002 -0.0619 0.0715 -0.078 0.095 C -0.055 0.074599996 -0.0295 0.0515 -0.0060000047 0.035 C -0.0041000047 0.0655 -4.000049E-4 0.094 9.999955E-4 0.125 C 0.0066999956 0.0965 0.0070999954 0.0633 0.009999995 0.034 C 0.034899995 0.0528 0.059699994 0.07700001 0.083 0.094 C 0.0629 0.070099995 0.042199995 0.046799995 0.022999998 0.022 C 0.0521 0.0188 0.0827 0.017 0.112 0.0139999995 C 0.1189 0.014599999 0.116500005 0.0122 0.111 0.012999999 C 0.0824 0.009199999 0.05 0.009399999 0.023000002 0.0039999997 C 0.0421 -0.019900002 0.0659 -0.0444 0.082 -0.067999996 C 0.059 -0.047699995 0.0335 -0.024499997 0.010000005 -0.007999998 C 0.006900005 -0.0378 0.0066000056 -0.07079999 0.0010000058 -0.098000005 C -2.9999425E-4 -0.066700004 -0.004299994 -0.038000006 -0.0059999945 -0.0070000067 C -0.030899994 -0.025800006 -0.055699993 -0.05000001 -0.078999996 -0.067 C -0.0589 -0.0431 -0.0382 -0.0198 -0.019 0.005 Z"/>
<linearGradient id="glaze" x1="0%" y1="0%" x2="100%" y2="100%">
<stop offset="0%" stop-color="rgb(255,255,255)" stop-opacity="0.2"/>
<stop offset="49.999%" stop-color="rgb(255,255,255)" stop-opacity="0.0"/>
<stop offset="50.001%" stop-color="rgb(0,0,0)" stop-opacity="0.0"/>
<stop offset="100%" stop-color="rgb(0,0,0)" stop-opacity="0.2"/>
</linearGradient>
</defs>
<g>
<g>
<rect x="0" y="0" width="450" height="120" class="green"/>
<rect x="0" y="120" width="450" height="120" class="white"/>
<rect x="0" y="240" width="450" height="120" class="green"/>
</g>
<use xlink:href="#myrtle1" transform="translate(225 180) scale(120 120) rotate(0)" class="purple"/>
<use xlink:href="#myrtle2" transform="translate(225 180) scale(120 120) rotate(0)" class="yellow"/>
</g>
<g>
<rect x="0" y="0" width="450" height="360" fill="url(#glaze)"/>
<path d="M 30 30 L 420 30 L 420 330 L 30 330 Z M 60 60 L 60 300 L 390 300 L 390 60 Z" fill="rgb(255,255,255)" opacity="0.4"/>
<path d="M 0 0 L 450 0 L 450 360 L 0 360 Z M 30 30 L 30 330 L 420 330 L 420 30 Z" fill="rgb(0,0,0)" opacity="0.4"/>
</g>
</svg>
