<?xml version="1.0"?>
<svg xmlns="http://www.w3.org/2000/svg" xmlns:xlink="http://www.w3.org/1999/xlink" version="1.1" width="450" height="360" viewBox="0 0 450 360">
<!-- Generated by Kreative Vexillo v1.0 -->
<style>
.black{fill:rgb(0,0,0);}
.red{fill:rgb(238,0,0);}
.white{fill:rgb(255,255,255);}
</style>
<defs>
<path id="disc" d="M 0.5 0.0 A 0.5 0.5 0.0 0 0 -0.5 0.0 A 0.5 0.5 0.0 0 0 0.5 0.0 Z"/>
<path id="shield" d="M 0.413 -0.12 V -0.5 H -0.413 V -0.120000005 C -0.413 -0.014100008 -0.4017 0.18809998 -0.20319998 0.3658 C -0.116199985 0.4452 -0.07649998 0.466 0.0010000169 0.5 C 0.07850002 0.4641 0.11820002 0.4414 0.20330001 0.3658 C 0.4017 0.1881 0.413 -0.0142 0.413 -0.12 Z"/>
<linearGradient id="glaze" x1="0%" y1="0%" x2="100%" y2="100%">
<stop offset="0%" stop-color="rgb(255,255,255)" stop-opacity="0.2"/>
<stop offset="49.999%" stop-color="rgb(255,255,255)" stop-opacity="0.0"/>
<stop offset="50.001%" stop-color="rgb(0,0,0)" stop-opacity="0.0"/>
<stop offset="100%" stop-color="rgb(0,0,0)" stop-opacity="0.2"/>
</linearGradient>
</defs>
<g>
<g>
<rect x="0" y="0" width="450" height="40" class="black"/>
<rect x="0" y="40" width="450" height="40" class="white"/>
<rect x="0" y="80" width="450" height="40" class="black"/>
<rect x="0" y="120" width="450" height="40" class="white"/>
<rect x="0" y="160" width="450" height="40" class="black"/>
<rect x="0" y="200" width="450" height="40" class="white"/>
<rect x="0" y="240" width="450" height="40" class="black"/>
<rect x="0" y="280" width="450" height="40" class="white"/>
<rect x="0" y="320" width="450" height="40" class="black"/>
</g>
<use xlink:href="#shield" transform="translate(225 180) scale(269.8896 269.8896) rotate(0)" class="white"/>
<use xlink:href="#shield" transform="translate(225 180) scale(233.6687 233.6687) rotate(0)" class="red"/>
<use xlink:href="#disc" transform="translate(225 159.4601) scale(145.7669 145.7669) rotate(0)" class="white"/>
<use xlink:href="#disc" transform="translate(225 159.4601) scale(97.1779 97.1779) rotate(0)" class="red"/>
</g>
<g>
<rect x="0" y="0" width="450" height="360" fill="url(#glaze)"/>
<path d="M 30 30 L 420 30 L 420 330 L 30 330 Z M 60 60 L 60 300 L 390 300 L 390 60 Z" fill="rgb(255,255,255)" opacity="0.4"/>
<path d="M 0 0 L 450 0 L 450 360 L 0 360 Z M 30 30 L 30 330 L 420 330 L 420 30 Z" fill="rgb(0,0,0)" opacity="0.4"/>
</g>
</svg>
