<?xml version="1.0"?>
<svg xmlns="http://www.w3.org/2000/svg" xmlns:xlink="http://www.w3.org/1999/xlink" version="1.1" width="450" height="360" viewBox="0 0 450 360">
<!-- Generated by Kreative Vexillo v1.0 -->
<style>
.blue{fill:rgb(153,198,234);}
.green1{fill:rgb(172,221,77);}
.green2{fill:rgb(101,149,51);}
.white{fill:rgb(249,253,234);}
</style>
<defs>
<path id="carnation1" d="M -0.071 -0.422 C -0.090900004 -0.408 -0.115100004 -0.4019 -0.137 -0.394 C -0.16039999 -0.38549998 -0.18259999 -0.37649998 -0.203 -0.366 C -0.2421 -0.34579998 -0.2727 -0.3101 -0.3 -0.276 C -0.3276 -0.24149999 -0.3544 -0.20289999 -0.36900002 -0.15699999 C -0.37660003 -0.13329999 -0.3783 -0.104399994 -0.38200003 -0.07599999 C -0.38540003 -0.05019999 -0.38610002 -0.02159999 -0.40200004 -0.0029999912 C -0.44330004 -0.012599992 -0.46280003 -0.045999993 -0.47600004 -0.08599999 C -0.48520005 -0.11399999 -0.48820004 -0.14919999 -0.48100004 -0.17899999 C -0.47720003 -0.19469999 -0.46890002 -0.21129999 -0.46300003 -0.22799999 C -0.45710003 -0.24469998 -0.44870004 -0.265 -0.45200002 -0.28399998 C -0.455 -0.3013 -0.47340003 -0.31219998 -0.47000003 -0.33799997 C -0.46780002 -0.35429996 -0.44810003 -0.37269998 -0.42900002 -0.37699997 C -0.41470003 -0.38019997 -0.39940003 -0.37579998 -0.38500002 -0.37699997 C -0.33530003 -0.38109997 -0.31370002 -0.4202 -0.27800003 -0.44299996 C -0.24030003 -0.46709996 -0.17780003 -0.46859995 -0.12800002 -0.45399997 C -0.1053 -0.4474 -0.0809 -0.4403 -0.071 -0.422 Z M 0.419 0.025 C 0.4436 0.0137 0.466 -0.0052000005 0.478 -0.029000001 C 0.50119996 -0.0752 0.48279998 -0.1289 0.47 -0.167 C 0.4652 -0.1814 0.4577 -0.1973 0.458 -0.212 C 0.4584 -0.2356 0.47980002 -0.2483 0.484 -0.267 C 0.4898 -0.29279998 0.4704 -0.31329998 0.45499998 -0.319 C 0.43629998 -0.3258 0.4166 -0.3176 0.401 -0.32500002 C 0.3899 -0.3303 0.38619998 -0.3449 0.38099998 -0.358 C 0.37579998 -0.3711 0.3692 -0.3856 0.36299998 -0.394 C 0.33759996 -0.42859998 0.27799997 -0.45679998 0.21899998 -0.453 C 0.18269998 -0.4507 0.15509999 -0.44030002 0.12599999 -0.42700002 C 0.14639999 -0.39580002 0.18579999 -0.38500002 0.21499999 -0.363 C 0.24329999 -0.34170002 0.26839998 -0.317 0.28899997 -0.284 C 0.30759996 -0.2542 0.3225 -0.21640001 0.33699998 -0.17900002 C 0.34989998 -0.14580002 0.3656 -0.09750002 0.36099997 -0.050000027 C 0.35739997 -0.012800027 0.33689997 0.0100999735 0.33199996 0.04799997 C 0.3673 0.0484 0.3938 0.0366 0.419 0.025 Z M 0.199 -0.145 C 0.2077 -0.15169999 0.2184 -0.15969999 0.222 -0.17 C 0.2264 -0.1825 0.2263 -0.1978 0.226 -0.211 C 0.225 -0.26139998 0.1977 -0.2893 0.16299999 -0.306 C 0.15209998 -0.31129998 0.13949999 -0.31329998 0.12899998 -0.319 C 0.10629998 -0.33130002 0.10179998 -0.3698 0.08199998 -0.382 C 0.072999984 -0.3875 0.05599998 -0.3906 0.04199998 -0.389 C 0.008399982 -0.3852 -0.0049000196 -0.3578 -0.044000022 -0.355 C -0.053700022 -0.3543 -0.06240002 -0.3563 -0.07200003 -0.35599998 C -0.09980003 -0.35509998 -0.12480003 -0.34139997 -0.14400002 -0.32699996 C -0.17520002 -0.30349997 -0.20670003 -0.27299997 -0.20100002 -0.21799996 C -0.19900002 -0.19839996 -0.18210003 -0.16069996 -0.16400002 -0.16499996 C -0.15730003 -0.16659996 -0.14690001 -0.19309996 -0.14000002 -0.20199996 C -0.13160002 -0.21279997 -0.117900014 -0.22539996 -0.10900001 -0.23199996 C -0.066400014 -0.26379997 0.017499983 -0.28239995 0.08499999 -0.25799996 C 0.11299999 -0.24789995 0.1434 -0.23099996 0.155 -0.20599996 C 0.1596 -0.19619995 0.1617 -0.18339996 0.163 -0.16999996 C 0.1644 -0.15579996 0.16080001 -0.13959995 0.168 -0.12999997 C 0.1826 -0.1305 0.1901 -0.1382 0.199 -0.145 Z M 0.109 -0.104 C 0.103999995 -0.1123 0.0933 -0.1179 0.088 -0.128 C 0.081 -0.14150001 0.0805 -0.1559 0.074 -0.16700001 C 0.0664 -0.1799 0.0507 -0.19160001 0.031 -0.194 C 0.009499999 -0.1966 -0.0086 -0.1904 -0.024 -0.184 C -0.035 -0.1794 -0.0472 -0.174 -0.053 -0.165 C -0.0262 -0.1551 -0.002299998 -0.15480001 0.017 -0.143 C 0.0399 -0.12910001 0.0528 -0.102400005 0.055 -0.06700001 C 0.0567 -0.03850001 0.0506 -0.017000008 0.048 0.003999993 C 0.0973 -0.0059 0.1381 -0.0561 0.109 -0.104 Z M -0.158 0.123 C -0.19440001 0.082600005 -0.21800001 0.0304 -0.21200001 -0.045999996 C -0.20970002 -0.074899994 -0.20310001 -0.088599995 -0.19800001 -0.116 C -0.19660002 -0.123799995 -0.19130002 -0.1416 -0.20400001 -0.138 C -0.2703 -0.1192 -0.3138 -0.08059999 -0.319 -0.001000002 C -0.3211 0.030499998 -0.3066 0.047099996 -0.30400002 0.074 C -0.3014 0.1013 -0.3201 0.13170001 -0.307 0.157 C -0.30330002 0.1641 -0.29110003 0.1724 -0.279 0.17400001 C -0.2696 0.17530002 -0.25880003 0.17130001 -0.24800001 0.17300001 C -0.23120001 0.17570001 -0.2132 0.1939 -0.19900002 0.20500001 C -0.18420002 0.21660002 -0.16810001 0.22890002 -0.14700001 0.23400001 C -0.09890002 0.24560001 -0.05130001 0.22250001 -0.041000016 0.18600002 C -0.0985 0.1771 -0.1242 0.1605 -0.158 0.123 Z M 0.027 0.23 C 0.0406 0.2367 0.0566 0.24360001 0.074 0.245 C 0.1044 0.2475 0.1411 0.23900001 0.164 0.22600001 C 0.18470001 0.2143 0.1918 0.19070001 0.214 0.18200001 C 0.2385 0.17240001 0.2718 0.18810001 0.286 0.16800001 C 0.2998 0.14840001 0.28230003 0.12980002 0.28 0.11500001 C 0.2769 0.095400006 0.2806 0.07440001 0.281 0.05600001 C 0.28219998 -0.005299989 0.27229998 -0.056799993 0.239 -0.08399999 C 0.22549999 -0.09509999 0.188 -0.11269999 0.16399999 -0.10899999 C 0.16189998 -0.10109999 0.16719998 -0.09289999 0.16999999 -0.08599999 C 0.17989999 -0.061699986 0.18839999 -0.035799988 0.18999998 -0.004999988 C 0.19429998 0.07870001 0.14609998 0.1372 0.095999986 0.169 C 0.06709999 0.1874 0.031399988 0.19139999 -0.006000012 0.20199999 C -7.0E-4 0.2177 0.0138 0.2235 0.027 0.23 Z M -0.123 -0.012 C -0.119600005 0.014900001 -0.094500005 0.0212 -0.087000005 0.042999998 C -0.08270001 0.0554 -0.0855 0.0778 -0.07800001 0.089 C -0.06300001 0.1115 -0.015600011 0.1039 0.007999994 0.094000004 C 0.014099994 0.09150001 0.035699993 0.081700005 0.029999994 0.072000004 C 0.026699994 0.066300005 0.0047999937 0.0662 -0.0020000078 0.064 C -0.05880001 0.0454 -0.07260001 -0.0396 -0.049000006 -0.10199999 C -0.0938 -0.1044 -0.1283 -0.0536 -0.123 -0.012 Z M 0.186 0.276 C 0.13610001 0.3108 0.0723 0.34039998 -0.017999992 0.329 C -0.04209999 0.326 -0.06599999 0.319 -0.088999994 0.313 C -0.14989999 0.2972 -0.19389999 0.2755 -0.23699999 0.243 C -0.24499999 0.237 -0.2561 0.2263 -0.26299998 0.225 C -0.2735 0.22299999 -0.2742 0.2552 -0.27299997 0.269 C -0.26549998 0.3539 -0.18959996 0.3558 -0.13099997 0.391 C -0.11529997 0.4004 -0.10149997 0.4114 -0.08899997 0.425 C -0.07629997 0.43890002 -0.06339997 0.45360002 -0.046999972 0.46 C -0.027299972 0.4677 0.008900028 0.4636 0.025000025 0.454 C 0.046000026 0.4414 0.053900026 0.4202 0.071000025 0.41 C 0.09060003 0.3983 0.11180003 0.3988 0.13600002 0.39 C 0.16030002 0.3812 0.17820002 0.3671 0.19600002 0.35 C 0.22300002 0.32389998 0.24760002 0.2908 0.23800002 0.241 C 0.2162 0.2498 0.2029 0.2642 0.186 0.276 Z"/>
<path id="carnation2" d="M -0.72 0.309 C -0.74850005 0.27989998 -0.7785 0.22599998 -0.781 0.16599998 C -0.78290004 0.11979998 -0.7741 0.06789998 -0.759 0.03499998 C -0.754 0.024099981 -0.7497 0.011399981 -0.739 0.0069999807 C -0.7238 0.067199975 -0.6908 0.104999974 -0.64500004 0.13299999 C -0.59760004 0.16199999 -0.53690004 0.16659999 -0.47600004 0.18299998 C -0.41880006 0.19839999 -0.37540004 0.22719999 -0.34100002 0.267 C -0.30760002 0.3057 -0.27910003 0.35209998 -0.27500004 0.42 C -0.27500004 0.42299998 -0.27500004 0.426 -0.27500004 0.429 C -0.29260004 0.4134 -0.31590003 0.40109998 -0.34700003 0.399 C -0.38270003 0.39659998 -0.41770002 0.40489998 -0.45200002 0.408 C -0.48730004 0.4112 -0.5216 0.4086 -0.555 0.401 C -0.62340003 0.38549998 -0.6591 0.3618 -0.70500004 0.324 C -0.7096 0.3186 -0.7146 0.3136 -0.72 0.309 Z M 0.33 0.287 C 0.2938 0.3265 0.2647 0.373 0.25700003 0.44099998 C 0.25950003 0.443 0.26170003 0.43899998 0.26300004 0.438 C 0.30220005 0.40899998 0.36950004 0.4091 0.43700004 0.414 C 0.44170004 0.4146 0.44900003 0.4127 0.45200002 0.415 C 0.453 0.415 0.45400003 0.415 0.455 0.415 C 0.4577 0.4127 0.46460003 0.41459998 0.469 0.414 C 0.528 0.4123 0.5775 0.4073 0.619 0.388 C 0.6593 0.36920002 0.6923 0.34460002 0.717 0.31 C 0.7523 0.2606 0.7717 0.186 0.779 0.107999995 C 0.78139997 0.081999995 0.78349996 0.051599994 0.77 0.030999996 C 0.75329995 0.067899995 0.73649997 0.09949999 0.708 0.124 C 0.6858 0.1431 0.6511 0.1533 0.61800003 0.163 C 0.5167 0.1929 0.40320003 0.2116 0.34100002 0.276 C 0.3378 0.2801 0.3341 0.2838 0.33 0.287 Z"/>
<linearGradient id="glaze" x1="0%" y1="0%" x2="100%" y2="100%">
<stop offset="0%" stop-color="rgb(255,255,255)" stop-opacity="0.2"/>
<stop offset="49.999%" stop-color="rgb(255,255,255)" stop-opacity="0.0"/>
<stop offset="50.001%" stop-color="rgb(0,0,0)" stop-opacity="0.0"/>
<stop offset="100%" stop-color="rgb(0,0,0)" stop-opacity="0.2"/>
</linearGradient>
</defs>
<g>
<g>
<rect x="0" y="0" width="450" height="120" class="blue"/>
<rect x="0" y="120" width="450" height="120" class="white"/>
<rect x="0" y="240" width="450" height="120" class="blue"/>
</g>
<use xlink:href="#carnation1" transform="translate(225 180) scale(120 120) rotate(0)" class="green1"/>
<use xlink:href="#carnation2" transform="translate(225 180) scale(120 120) rotate(0)" class="green2"/>
</g>
<g>
<rect x="0" y="0" width="450" height="360" fill="url(#glaze)"/>
<path d="M 30 30 L 420 30 L 420 330 L 30 330 Z M 60 60 L 60 300 L 390 300 L 390 60 Z" fill="rgb(255,255,255)" opacity="0.4"/>
<path d="M 0 0 L 450 0 L 450 360 L 0 360 Z M 30 30 L 30 330 L 420 330 L 420 30 Z" fill="rgb(0,0,0)" opacity="0.4"/>
</g>
</svg>
