<?xml version="1.0"?>
<svg xmlns="http://www.w3.org/2000/svg" xmlns:xlink="http://www.w3.org/1999/xlink" version="1.1" width="450" height="360" viewBox="0 0 450 360">
<!-- Generated by Kreative Vexillo v1.0 -->
<style>
.b{fill:rgb(15,71,175);}
.g{fill:rgb(7,137,48);}
.o{fill:rgb(235,119,17);}
.r{fill:rgb(218,18,26);}
.v{fill:rgb(116,44,100);}
.w{fill:rgb(255,255,255);}
.y{fill:rgb(252,221,9);}
</style>
<defs>
<linearGradient id="glaze" x1="0%" y1="0%" x2="100%" y2="100%">
<stop offset="0%" stop-color="rgb(255,255,255)" stop-opacity="0.2"/>
<stop offset="49.999%" stop-color="rgb(255,255,255)" stop-opacity="0.0"/>
<stop offset="50.001%" stop-color="rgb(0,0,0)" stop-opacity="0.0"/>
<stop offset="100%" stop-color="rgb(0,0,0)" stop-opacity="0.2"/>
</linearGradient>
</defs>
<g>
<g>
<rect x="0" y="0" width="64.2857" height="51.4286" class="y"/>
<rect x="64.2857" y="0" width="64.2857" height="51.4286" class="o"/>
<rect x="128.5714" y="0" width="64.2857" height="51.4286" class="r"/>
<rect x="192.8571" y="0" width="64.2857" height="51.4286" class="v"/>
<rect x="257.1429" y="0" width="64.2857" height="51.4286" class="b"/>
<rect x="321.4286" y="0" width="64.2857" height="51.4286" class="g"/>
<rect x="385.7143" y="0" width="64.2857" height="51.4286" class="w"/>
</g>
<g>
<rect x="0" y="51.4286" width="64.2857" height="51.4286" class="w"/>
<rect x="64.2857" y="51.4286" width="64.2857" height="51.4286" class="y"/>
<rect x="128.5714" y="51.4286" width="64.2857" height="51.4286" class="o"/>
<rect x="192.8571" y="51.4286" width="64.2857" height="51.4286" class="r"/>
<rect x="257.1429" y="51.4286" width="64.2857" height="51.4286" class="v"/>
<rect x="321.4286" y="51.4286" width="64.2857" height="51.4286" class="b"/>
<rect x="385.7143" y="51.4286" width="64.2857" height="51.4286" class="g"/>
</g>
<g>
<rect x="0" y="102.8571" width="64.2857" height="51.4286" class="g"/>
<rect x="64.2857" y="102.8571" width="64.2857" height="51.4286" class="w"/>
<rect x="128.5714" y="102.8571" width="64.2857" height="51.4286" class="y"/>
<rect x="192.8571" y="102.8571" width="64.2857" height="51.4286" class="o"/>
<rect x="257.1429" y="102.8571" width="64.2857" height="51.4286" class="r"/>
<rect x="321.4286" y="102.8571" width="64.2857" height="51.4286" class="v"/>
<rect x="385.7143" y="102.8571" width="64.2857" height="51.4286" class="b"/>
</g>
<g>
<rect x="0" y="154.2857" width="64.2857" height="51.4286" class="b"/>
<rect x="64.2857" y="154.2857" width="64.2857" height="51.4286" class="g"/>
<rect x="128.5714" y="154.2857" width="64.2857" height="51.4286" class="w"/>
<rect x="192.8571" y="154.2857" width="64.2857" height="51.4286" class="y"/>
<rect x="257.1429" y="154.2857" width="64.2857" height="51.4286" class="o"/>
<rect x="321.4286" y="154.2857" width="64.2857" height="51.4286" class="r"/>
<rect x="385.7143" y="154.2857" width="64.2857" height="51.4286" class="v"/>
</g>
<g>
<rect x="0" y="205.7143" width="64.2857" height="51.4286" class="v"/>
<rect x="64.2857" y="205.7143" width="64.2857" height="51.4286" class="b"/>
<rect x="128.5714" y="205.7143" width="64.2857" height="51.4286" class="g"/>
<rect x="192.8571" y="205.7143" width="64.2857" height="51.4286" class="w"/>
<rect x="257.1429" y="205.7143" width="64.2857" height="51.4286" class="y"/>
<rect x="321.4286" y="205.7143" width="64.2857" height="51.4286" class="o"/>
<rect x="385.7143" y="205.7143" width="64.2857" height="51.4286" class="r"/>
</g>
<g>
<rect x="0" y="257.1429" width="64.2857" height="51.4286" class="r"/>
<rect x="64.2857" y="257.1429" width="64.2857" height="51.4286" class="v"/>
<rect x="128.5714" y="257.1429" width="64.2857" height="51.4286" class="b"/>
<rect x="192.8571" y="257.1429" width="64.2857" height="51.4286" class="g"/>
<rect x="257.1429" y="257.1429" width="64.2857" height="51.4286" class="w"/>
<rect x="321.4286" y="257.1429" width="64.2857" height="51.4286" class="y"/>
<rect x="385.7143" y="257.1429" width="64.2857" height="51.4286" class="o"/>
</g>
<g>
<rect x="0" y="308.5714" width="64.2857" height="51.4286" class="o"/>
<rect x="64.2857" y="308.5714" width="64.2857" height="51.4286" class="r"/>
<rect x="128.5714" y="308.5714" width="64.2857" height="51.4286" class="v"/>
<rect x="192.8571" y="308.5714" width="64.2857" height="51.4286" class="b"/>
<rect x="257.1429" y="308.5714" width="64.2857" height="51.4286" class="g"/>
<rect x="321.4286" y="308.5714" width="64.2857" height="51.4286" class="w"/>
<rect x="385.7143" y="308.5714" width="64.2857" height="51.4286" class="y"/>
</g>
</g>
<g>
<rect x="0" y="0" width="450" height="360" fill="url(#glaze)"/>
<path d="M 30 30 L 420 30 L 420 330 L 30 330 Z M 60 60 L 60 300 L 390 300 L 390 60 Z" fill="rgb(255,255,255)" opacity="0.4"/>
<path d="M 0 0 L 450 0 L 450 360 L 0 360 Z M 30 30 L 30 330 L 420 330 L 420 30 Z" fill="rgb(0,0,0)" opacity="0.4"/>
</g>
</svg>
