<?xml version="1.0"?>
<svg xmlns="http://www.w3.org/2000/svg" xmlns:xlink="http://www.w3.org/1999/xlink" version="1.1" width="450" height="360" viewBox="0 0 450 360">
<!-- Generated by Kreative Vexillo v1.0 -->
<style>
.black{fill:rgb(0,0,0);}
.blue{fill:rgb(12,28,140);}
.gold{fill:rgb(252,181,20);}
.green{fill:rgb(0,124,89);}
.red{fill:rgb(226,61,40);}
.white{fill:rgb(255,255,255);}
</style>
<defs>
<clipPath id="clip0">
<path d="M 0 0 L 225 180 L 0 360 Z"/>
</clipPath>
<clipPath id="clip1">
<path d="M 0 0 L 450 0 L 450 360 L 0 360 L 225 180 Z"/>
</clipPath>
<clipPath id="clip2">
<rect x="0" y="0" width="450" height="360"/>
</clipPath>
<linearGradient id="glaze" x1="0%" y1="0%" x2="100%" y2="100%">
<stop offset="0%" stop-color="rgb(255,255,255)" stop-opacity="0.2"/>
<stop offset="49.999%" stop-color="rgb(255,255,255)" stop-opacity="0.0"/>
<stop offset="50.001%" stop-color="rgb(0,0,0)" stop-opacity="0.0"/>
<stop offset="100%" stop-color="rgb(0,0,0)" stop-opacity="0.2"/>
</linearGradient>
</defs>
<g>
<g>
<rect x="0" y="0" width="450" height="180" class="red"/>
<rect x="0" y="180" width="450" height="180" class="blue"/>
</g>
<path d="M 0 0 L 225 180 L 0 360 Z" class="black"/>
<g clip-path="url(#clip0)">
<path d="M 37.4817 -46.8521 L 37.4817 -46.8521 L 262.4817 133.1479 L 187.5183 226.8521 L -37.4817 46.8521 Z" class="gold"/>
<path d="M 262.4817 226.8521 L 262.4817 226.8521 L 37.4817 406.8521 L -37.4817 313.1479 L 187.5183 133.1479 Z" class="gold"/>
</g>
<g clip-path="url(#clip1)">
<path d="M 37.4817 -46.8521 L 37.4817 -46.8521 L 262.4817 133.1479 L 187.5183 226.8521 L -37.4817 46.8521 Z" class="white"/>
<path d="M 262.4817 226.8521 L 262.4817 226.8521 L 37.4817 406.8521 L -37.4817 313.1479 L 187.5183 133.1479 Z" class="white"/>
<path d="M 225 120 L 225 120 L 450 120 L 450 240 L 225 240 Z" class="white"/>
</g>
<g clip-path="url(#clip2)">
<path d="M 22.489 -28.1113 L 22.489 -28.1113 L 247.489 151.8887 L 202.511 208.1113 L -22.489 28.1113 Z" class="green"/>
<path d="M 247.489 208.1113 L 247.489 208.1113 L 22.489 388.1113 L -22.489 331.8887 L 202.511 151.8887 Z" class="green"/>
<path d="M 225 144 L 225 144 L 450 144 L 450 216 L 225 216 Z" class="green"/>
</g>
</g>
<g>
<rect x="0" y="0" width="450" height="360" fill="url(#glaze)"/>
<path d="M 30 30 L 420 30 L 420 330 L 30 330 Z M 60 60 L 60 300 L 390 300 L 390 60 Z" fill="rgb(255,255,255)" opacity="0.4"/>
<path d="M 0 0 L 450 0 L 450 360 L 0 360 Z M 30 30 L 30 330 L 420 330 L 420 30 Z" fill="rgb(0,0,0)" opacity="0.4"/>
</g>
</svg>
