<?xml version="1.0"?>
<svg xmlns="http://www.w3.org/2000/svg" xmlns:xlink="http://www.w3.org/1999/xlink" version="1.1" width="450" height="360" viewBox="0 0 450 360">
<!-- Generated by Kreative Vexillo v1.0 -->
<style>
.black{fill:rgb(0,0,0);}
.blue{fill:rgb(12,28,140);}
.gold{fill:rgb(252,181,20);}
.green{fill:rgb(0,124,89);}
.red{fill:rgb(226,61,40);}
.white{fill:rgb(255,255,255);}
</style>
<defs>
<clipPath id="clip0">
<path d="M 0 0 L 225 180 L 0 360 Z"/>
</clipPath>
<clipPath id="clip1">
<path d="M 0 0 L 450 0 L 450 360 L 0 360 L 225 180 Z"/>
</clipPath>
<clipPath id="clip2">
<rect x="0" y="0" width="450" height="360"/>
</clipPath>
<linearGradient id="glaze" x1="0%" y1="0%" x2="100%" y2="100%">
<stop offset="0%" stop-color="rgb(255,255,255)" stop-opacity="0.2"/>
<stop offset="49.999%" stop-color="rgb(255,255,255)" stop-opacity="0.0"/>
<stop offset="50.001%" stop-color="rgb(0,0,0)" stop-opacity="0.0"/>
<stop offset="100%" stop-color="rgb(0,0,0)" stop-opacity="0.2"/>
</linearGradient>
</defs>
<g>
<g>
<rect x="0" y="0" width="450" height="180" class="red"/>
<rect x="0" y="180" width="450" height="180" class="blue"/>
</g>
<path d="M 0 0 L 225 180 L 0 360 Z" class="black"/>
<g clip-path="url(#clip0)">
<path d="M -37.4916 46.8442 L 187.5084 226.8442 L 262.4916 133.1558 L 37.4916 -46.8442 L -37.4916 46.8442 Z" class="gold"/>
<path d="M 187.5084 133.1558 L -37.4916 313.1558 L 37.4916 406.8442 L 262.4916 226.8442 L 187.5084 133.1558 Z" class="gold"/>
</g>
<g clip-path="url(#clip1)">
<path d="M -37.4916 46.8442 L 187.5084 226.8442 L 262.4916 133.1558 L 37.4916 -46.8442 L -37.4916 46.8442 Z" class="white"/>
<path d="M 187.5084 133.1558 L -37.4916 313.1558 L 37.4916 406.8442 L 262.4916 226.8442 L 187.5084 133.1558 Z" class="white"/>
<path d="M 225 240 L 450 240 L 450 120 L 225 120 L 225 240 Z" class="white"/>
</g>
<g clip-path="url(#clip2)">
<path d="M -22.4949 28.1065 L 202.5051 208.1065 L 247.4949 151.8935 L 22.4949 -28.1065 L -22.4949 28.1065 Z" class="green"/>
<path d="M 202.5051 151.8935 L -22.4949 331.8935 L 22.4949 388.1065 L 247.4949 208.1065 L 202.5051 151.8935 Z" class="green"/>
<path d="M 225 216 L 450 216 L 450 144 L 225 144 L 225 216 Z" class="green"/>
</g>
</g>
<g>
<rect x="0" y="0" width="450" height="360" fill="url(#glaze)"/>
<path d="M 30 30 L 420 30 L 420 330 L 30 330 Z M 60 60 L 60 300 L 390 300 L 390 60 Z" fill="rgb(255,255,255)" opacity="0.4"/>
<path d="M 0 0 L 450 0 L 450 360 L 0 360 Z M 30 30 L 30 330 L 420 330 L 420 30 Z" fill="rgb(0,0,0)" opacity="0.4"/>
</g>
</svg>
