<?xml version="1.0"?>
<svg xmlns="http://www.w3.org/2000/svg" xmlns:xlink="http://www.w3.org/1999/xlink" version="1.1" width="643" height="360" viewBox="0 0 643 360">
<!-- Generated by Kreative Vexillo v1.0 -->
<style>
.green{fill:rgb(0,155,72);}
.red{fill:rgb(213,43,30);}
.white{fill:rgb(255,255,255);}
</style>
<g>
<rect x="0" y="0" width="643" height="360" class="red"/>
<path d="M 0 0 L 0 31.6805 L 264.9152 180 L 264.9152 180 L 0 328.3195 L 0 360 L 56.5848 360 L 321.5 211.6805 L 321.5 211.6805 L 586.4152 360 L 643 360 L 643 328.3195 L 378.0848 180 L 643 31.6805 L 643 0 L 586.4152 0 L 321.5 148.3195 L 321.5 148.3195 L 321.5 148.3195 L 321.5 148.3195 L 321.5 148.3195 L 321.5 148.3195 L 56.5848 0 Z" class="green"/>
<g>
<rect x="0" y="152.3571" width="643" height="55.2857" class="white"/>
<rect x="293.8571" y="0" width="55.2857" height="360" class="white"/>
</g>
</g>
</svg>
