<?xml version="1.0"?>
<svg xmlns="http://www.w3.org/2000/svg" xmlns:xlink="http://www.w3.org/1999/xlink" version="1.1" width="720" height="360" viewBox="0 0 720 360">
<!-- Generated by Kreative Vexillo v1.0 -->
<style>
.blue{fill:rgb(0,36,125);}
.red{fill:rgb(207,20,43);}
.white{fill:rgb(255,255,255);}
</style>
<defs>
<clipPath id="clip0">
<path d="M 0 0 L 0 26.8328 L 0 26.8328 L 306.3344 180 L 306.3344 180 L 0 333.1672 L 0 333.1672 L 0 360 L 53.6656 360 L 360 206.8328 L 360 206.8328 L 666.3344 360 L 720 360 L 720 333.1672 L 413.6656 180 L 413.6656 180 L 720 26.8328 L 720 0 L 666.3343 0 L 360 153.1672 L 360 153.1672 L 360 153.1672 L 360 153.1672 L 360 153.1672 L 360 153.1672 L 53.6656 0 Z"/>
</clipPath>
</defs>
<g>
<rect x="0" y="0" width="720" height="360" class="blue"/>
<path d="M 0 0 L 0 40.2492 L 0 40.2492 L 279.5016 180 L 279.5016 180 L 0 319.7508 L 0 360 L 80.4984 360 L 360 220.2492 L 639.5016 360 L 720 360 L 720 319.7508 L 440.4984 180 L 440.4984 180 L 720 40.2492 L 720 0 L 639.5016 0 L 360 139.7508 L 360 139.7508 L 360 139.7508 L 360 139.7508 L 360 139.7508 L 360 139.7508 L 80.4984 0 Z" class="white"/>
<g clip-path="url(#clip0)">
<path d="M 0 0 L 360 180 L 0 180 Z" class="red"/>
<path d="M 720 0 L 360 180 L 360 0 Z" class="red"/>
<path d="M 0 360 L 360 180 L 360 360 Z" class="red"/>
<path d="M 720 360 L 360 180 L 720 180 Z" class="red"/>
</g>
<g>
<rect x="0" y="120" width="720" height="120" class="white"/>
<rect x="300" y="0" width="120" height="360" class="white"/>
</g>
<g>
<rect x="0" y="144" width="720" height="72" class="red"/>
<rect x="324" y="0" width="72" height="360" class="red"/>
</g>
</g>
</svg>
