<?xml version="1.0"?>
<svg xmlns="http://www.w3.org/2000/svg" xmlns:xlink="http://www.w3.org/1999/xlink" version="1.1" width="720" height="360" viewBox="0 0 720 360">
<!-- Generated by Kreative Vexillo v1.0 -->
<style>
.blue{fill:rgb(0,43,127);}
.red{fill:rgb(232,17,45);}
.white{fill:rgb(255,255,255);}
</style>
<defs>
<path id="star5" d="M 0.0 -1.0 L 0.261238 -0.359563 L 0.951057 -0.309017 L 0.422691 0.137341 L 0.587785 0.809017 L 0.0 0.444444 L -0.587785 0.809017 L -0.422691 0.137341 L -0.951057 -0.309017 L -0.261238 -0.359563 Z"/>
<path id="star7" d="M 0.0 -1.0 L 0.192837 -0.40043 L 0.781831 -0.62349 L 0.433301 -0.098898 L 0.974928 0.222521 L 0.34748 0.277106 L 0.433884 0.900969 L 0.0 0.444444 L -0.433884 0.900969 L -0.34748 0.277106 L -0.974928 0.222521 L -0.433301 -0.098898 L -0.781831 -0.62349 L -0.192837 -0.40043 Z"/>
<clipPath id="clip0">
<path d="M 0 0 L 0 13.4164 L 0 13.4164 L 153.1672 90 L 0 166.5836 L 0 180 L 26.8328 180 L 180 103.4164 L 180 103.4164 L 333.1672 180 L 360 180 L 360 166.5836 L 206.8328 90 L 206.8328 90 L 360 13.4164 L 360 0 L 333.1672 0 L 180 76.5836 L 180 76.5836 L 26.8328 0 Z"/>
</clipPath>
</defs>
<g>
<rect x="0" y="0" width="720" height="360" class="blue"/>
<g>
<path d="M 0 0 L 0 20.1246 L 0 20.1246 L 139.7508 90 L 139.7508 90 L 0 159.8754 L 0 180 L 40.2492 180 L 180 110.1246 L 180 110.1246 L 319.7508 180 L 360 180 L 360 159.8754 L 220.2492 90 L 220.2492 90 L 360 20.1246 L 360 0 L 319.7508 0 L 180 69.8754 L 180 69.8754 L 40.2492 0 Z" class="white"/>
<g clip-path="url(#clip0)">
<path d="M 0 0 L 180 90 L 0 90 Z" class="red"/>
<path d="M 360 0 L 180 90 L 180 0 Z" class="red"/>
<path d="M 0 180 L 180 90 L 180 180 Z" class="red"/>
<path d="M 360 180 L 180 90 L 360 90 Z" class="red"/>
</g>
<g>
<rect x="0" y="60" width="360" height="60" class="white"/>
<rect x="150" y="0" width="60" height="180" class="white"/>
</g>
<g>
<rect x="0" y="72" width="360" height="36" class="red"/>
<rect x="162" y="0" width="36" height="180" class="red"/>
</g>
</g>
<g>
<use xlink:href="#star7" transform="translate(180 270) scale(54 54) rotate(0)" class="white"/>
<use xlink:href="#star7" transform="translate(540 300) scale(25.7143 25.7143) rotate(0)" class="white"/>
<use xlink:href="#star7" transform="translate(450 157.5) scale(25.7143 25.7143) rotate(0)" class="white"/>
<use xlink:href="#star7" transform="translate(540 60) scale(25.7143 25.7143) rotate(0)" class="white"/>
<use xlink:href="#star7" transform="translate(620 133.5) scale(25.7143 25.7143) rotate(0)" class="white"/>
<use xlink:href="#star5" transform="translate(576 195) scale(15 15) rotate(0)" class="white"/>
</g>
</g>
</svg>
