<?xml version="1.0"?>
<svg xmlns="http://www.w3.org/2000/svg" xmlns:xlink="http://www.w3.org/1999/xlink" version="1.1" width="540" height="360" viewBox="0 0 540 360">
<!-- Generated by Kreative Vexillo v1.0 -->
<style>
.brown{fill:rgb(91,28,31);}
.white{fill:rgb(255,255,255);}
</style>
<defs>
<path id="e" d="M 0.4235 -0.0909 C 0.3807 -0.3236 0.1768 -0.5 -0.0683 -0.5 C -0.3406 -0.5 -0.5621 -0.2823 -0.5682 -0.011400014 H -0.5588 C -0.55289996 -0.10150001 -0.47809997 -0.17280002 -0.3865 -0.17280002 C -0.3245 -0.17280002 -0.2701 -0.14010002 -0.2396 -0.09100002 H -0.3865 V 0.09079997 H -0.2396 C -0.2701 0.13989997 -0.3244 0.17259997 -0.3865 0.17259997 C -0.4781 0.17259997 -0.553 0.10129997 -0.5588 0.011199966 H -0.5682 C -0.5622 0.28209996 -0.34069997 0.49979997 -0.06829998 0.49979997 C 0.17680003 0.49979997 0.38070002 0.32339996 0.4234 0.09069997 H 0.568 V -0.09110002 H 0.4235 Z"/>
</defs>
<g>
<rect x="0" y="0" width="540" height="360" class="white"/>
<use xlink:href="#e" transform="translate(270 180) scale(198 198) rotate(0)" class="brown"/>
</g>
</svg>
