<?xml version="1.0"?>
<svg xmlns="http://www.w3.org/2000/svg" xmlns:xlink="http://www.w3.org/1999/xlink" version="1.1" width="540" height="360" viewBox="0 0 540 360">
<!-- Generated by Kreative Vexillo v1.0 -->
<style>
.black{fill:rgb(0,0,0);}
.green{fill:rgb(0,169,79);}
.red{fill:rgb(239,65,53);}
.white{fill:rgb(255,255,255);}
.yellow{fill:rgb(255,221,0);}
</style>
<defs>
<path id="star" d="M 0.0 -1.0 L 0.2245 -0.309 L 0.9511 -0.309 L 0.3633 0.118 L 0.5878 0.809 L 0.0 0.382 L -0.5878 0.809 L -0.3633 0.118 L -0.9511 -0.309 L -0.2245 -0.309 Z"/>
<clipPath id="clip0">
<rect x="0" y="0" width="540" height="360"/>
</clipPath>
</defs>
<g>
<path d="M 0 360 L 0 0 L 540 0 Z" class="green"/>
<path d="M 540 0 L 540 360 L 0 360 Z" class="red"/>
<g clip-path="url(#clip0)">
<path d="M 581.9353 62.903 L 581.9353 62.903 L 41.9353 422.903 L -41.9353 297.097 L 498.0647 -62.903 Z" class="yellow"/>
<path d="M 569.9538 44.9307 L 569.9538 44.9307 L 29.9538 404.9307 L -29.9538 315.0693 L 510.0462 -44.9307 Z" class="black"/>
</g>
<use xlink:href="#star" transform="translate(172.8 244.8) scale(50.4 50.4) rotate(-33.6901)" class="white"/>
<use xlink:href="#star" transform="translate(378 108) scale(50.4 50.4) rotate(-33.6901)" class="white"/>
</g>
</svg>
