<?xml version="1.0"?>
<svg xmlns="http://www.w3.org/2000/svg" xmlns:xlink="http://www.w3.org/1999/xlink" version="1.1" width="720" height="360" viewBox="0 0 720 360">
<!-- Generated by Kreative Vexillo v1.0 -->
<style>
.red{fill:rgb(210,0,0);}
.yellow{fill:rgb(255,230,0);}
</style>
<g>
<rect x="0" y="0" width="720" height="360" class="red"/>
<path d="M 360 180 L 0 0 L 108 0 Z" class="yellow"/>
<path d="M 360 180 L 324 0 L 396 0 Z" class="yellow"/>
<path d="M 360 180 L 612 0 L 720 0 Z" class="yellow"/>
<path d="M 360 180 L 720 144 L 720 216 Z" class="yellow"/>
<path d="M 360 180 L 720 360 L 612 360 Z" class="yellow"/>
<path d="M 360 180 L 396 360 L 324 360 Z" class="yellow"/>
<path d="M 360 180 L 108 360 L 0 360 Z" class="yellow"/>
<path d="M 360 180 L 0 216 L 0 144 Z" class="yellow"/>
<ellipse cx="360" cy="180" rx="64.2857" ry="64.2857" class="red"/>
<ellipse cx="360" cy="180" rx="51.4286" ry="51.4286" class="yellow"/>
</g>
</svg>
