<?xml version="1.0"?>
<svg xmlns="http://www.w3.org/2000/svg" xmlns:xlink="http://www.w3.org/1999/xlink" version="1.1" width="540" height="360" viewBox="0 0 540 360">
<!-- Generated by Kreative Vexillo v1.0 -->
<style>
.blue{fill:rgb(0,40,104);}
.copper{fill:rgb(206,92,23);}
.red{fill:rgb(191,10,48);}
.yellow{fill:rgb(254,215,0);}
</style>
<defs>
<path id="ray" d="M 0.0 0.0 L 1.0 -0.12053668 L 1.0 0.12053668 Z"/>
<path id="star" d="M 0.0 -1.0 L 0.2245 -0.309 L 0.9511 -0.309 L 0.3633 0.118 L 0.5878 0.809 L 0.0 0.382 L -0.5878 0.809 L -0.3633 0.118 L -0.9511 -0.309 L -0.2245 -0.309 Z"/>
</defs>
<g>
<g>
<rect x="0" y="0" width="540" height="180" class="red"/>
<rect x="0" y="180" width="540" height="180" class="blue"/>
</g>
<g>
<use xlink:href="#ray" transform="translate(270 180) scale(900 900) rotate(-20.7692)" class="yellow"/>
<use xlink:href="#ray" transform="translate(270 180) scale(900 900) rotate(-48.4615)" class="yellow"/>
<use xlink:href="#ray" transform="translate(270 180) scale(900 900) rotate(-76.1538)" class="yellow"/>
<use xlink:href="#ray" transform="translate(270 180) scale(900 900) rotate(-103.8462)" class="yellow"/>
<use xlink:href="#ray" transform="translate(270 180) scale(900 900) rotate(-131.5385)" class="yellow"/>
<use xlink:href="#ray" transform="translate(270 180) scale(900 900) rotate(-159.2308)" class="yellow"/>
</g>
<use xlink:href="#star" transform="translate(270 189.5576) scale(100.08 100.08) rotate(0)" class="copper"/>
</g>
</svg>
