<?xml version="1.0"?>
<svg xmlns="http://www.w3.org/2000/svg" xmlns:xlink="http://www.w3.org/1999/xlink" version="1.1" width="585" height="360" viewBox="0 0 585 360">
<!-- Generated by Kreative Vexillo v1.0 -->
<style>
.blue{fill:rgb(0,28,90);}
.red{fill:rgb(193,19,61);}
.white{fill:rgb(255,255,255);}
</style>
<defs>
<path id="-glazearea" d="M 0.0 0.0 L 1.0 0.1875 L 0.7692308 0.5 L 1.0 0.8125 L 0.0 1.0 Z"/>
<path id="star" d="M 0.0 -1.0 L 0.2245 -0.309 L 0.9511 -0.309 L 0.3633 0.118 L 0.5878 0.809 L 0.0 0.382 L -0.5878 0.809 L -0.3633 0.118 L -0.9511 -0.309 L -0.2245 -0.309 Z"/>
<clipPath id="clip0">
<use xlink:href="#-glazearea" transform="translate(0 0) scale(585 360) rotate(0)"/>
</clipPath>
</defs>
<g>
<g clip-path="url(#clip0)">
<rect x="0" y="0" width="585" height="360" class="white"/>
<path d="M 5.1581 -44.7034 L 5.1581 -44.7034 L 1175.1581 90.2966 L 1164.8419 179.7034 L -5.1581 44.7034 Z" class="red"/>
<path d="M 0 157.5 L 0 157.5 L 585 157.5 L 585 202.5 L 0 202.5 Z" class="red"/>
<path d="M -5.1581 315.2966 L -5.1581 315.2966 L 1164.8419 180.2966 L 1175.1581 269.7034 L 5.1581 404.7034 Z" class="red"/>
</g>
<path d="M 0 0 L 360 180 L 0 360 Z" class="blue"/>
<ellipse cx="111.2461" cy="180" rx="66.7477" ry="66.7477" class="white"/>
<ellipse cx="111.2461" cy="180" rx="44.4984" ry="44.4984" class="red"/>
<g>
<use xlink:href="#star" transform="translate(151.0467 259.6012) scale(14.8328 14.8328) rotate(-206.5651)" class="white"/>
<use xlink:href="#star" transform="translate(107.2459 268.9069) scale(14.8328 14.8328) rotate(-177.4238)" class="white"/>
<use xlink:href="#star" transform="translate(64.4577 255.7053) scale(14.8328 14.8328) rotate(-148.2825)" class="white"/>
<use xlink:href="#star" transform="translate(33.5143 223.3383) scale(14.8328 14.8328) rotate(-119.1413)" class="white"/>
<use xlink:href="#star" transform="translate(22.2492 180) scale(14.8328 14.8328) rotate(-90)" class="white"/>
<use xlink:href="#star" transform="translate(33.5143 136.6617) scale(14.8328 14.8328) rotate(-60.8587)" class="white"/>
<use xlink:href="#star" transform="translate(64.4577 104.2947) scale(14.8328 14.8328) rotate(-31.7175)" class="white"/>
<use xlink:href="#star" transform="translate(107.2459 91.0931) scale(14.8328 14.8328) rotate(-2.5762)" class="white"/>
<use xlink:href="#star" transform="translate(151.0467 100.3988) scale(14.8328 14.8328) rotate(26.5651)" class="white"/>
</g>
<g>
<g>
<use xlink:href="#star" transform="translate(22.9095 280.0882) scale(14.8328 14.8328) rotate(-138.5688)" class="white"/>
<use xlink:href="#star" transform="translate(61.2298 303.7715) scale(14.8328 14.8328) rotate(-157.9963)" class="white"/>
</g>
<g>
<use xlink:href="#star" transform="translate(22.9095 79.9118) scale(14.8328 14.8328) rotate(-41.4312)" class="white"/>
<use xlink:href="#star" transform="translate(61.2298 56.2285) scale(14.8328 14.8328) rotate(-22.0037)" class="white"/>
</g>
</g>
<use xlink:href="#star" transform="translate(200.243 180) scale(14.8328 14.8328) rotate(90)" class="white"/>
<use xlink:href="#star" transform="translate(289.2399 180) scale(14.8328 14.8328) rotate(90)" class="white"/>
<g>
<use xlink:href="#star" transform="translate(242.8275 157.4759) scale(14.8328 14.8328) rotate(80.2862)" class="white"/>
<use xlink:href="#star" transform="translate(242.8275 202.5241) scale(14.8328 14.8328) rotate(99.7138)" class="white"/>
</g>
</g>
</svg>
