<?xml version="1.0"?>
<svg xmlns="http://www.w3.org/2000/svg" xmlns:xlink="http://www.w3.org/1999/xlink" version="1.1" width="554" height="360" viewBox="0 0 554 360">
<!-- Generated by Kreative Vexillo v1.0 -->
<style>
.blue{fill:rgb(0,0,204);}
.red{fill:rgb(255,0,0);}
.yellow{fill:rgb(255,255,0);}
</style>
<g>
<rect x="0" y="0" width="554" height="360" class="blue"/>
<path d="M 0 0 L 0 29.723 L 0 29.723 L 231.2597 180 L 231.2597 180 L 0 330.277 L 0 330.277 L 0 360 L 45.7403 360 L 277 209.723 L 277 209.723 L 508.2597 360 L 554 360 L 554 330.277 L 322.7403 180 L 322.7403 180 L 554 29.723 L 554 0 L 508.2597 0 L 277 150.277 L 277 150.277 L 45.7403 0 Z" class="yellow"/>
<g>
<rect x="0" y="155.0769" width="554" height="49.8462" class="yellow"/>
<rect x="252.0769" y="0" width="49.8462" height="360" class="yellow"/>
</g>
<path d="M 0 0 L 0 19.8153 L 0 19.8153 L 246.5064 180 L 246.5064 180 L 0 340.1847 L 0 340.1847 L 0 360 L 30.4936 360 L 277 199.8153 L 277 199.8153 L 523.5064 360 L 554 360 L 554 340.1847 L 307.4936 180 L 307.4936 180 L 554 19.8153 L 554 0 L 523.5064 0 L 277 160.1847 L 277 160.1847 L 30.4936 0 Z" class="red"/>
<g>
<rect x="0" y="163.3846" width="554" height="33.2308" class="red"/>
<rect x="260.3846" y="0" width="33.2308" height="360" class="red"/>
</g>
<ellipse cx="277" cy="180" rx="96.9231" ry="96.9231" class="yellow"/>
<ellipse cx="277" cy="180" rx="83.0769" ry="83.0769" class="red"/>
</g>
</svg>
