<?xml version="1.0"?>
<svg xmlns="http://www.w3.org/2000/svg" xmlns:xlink="http://www.w3.org/1999/xlink" version="1.1" width="480" height="360" viewBox="0 0 480 360">
<!-- Generated by Kreative Vexillo v1.0 -->
<style>
.black{fill:rgb(89,89,89);}
.blue{fill:rgb(123,194,224);}
.green{fill:rgb(59,176,125);}
.red{fill:rgb(207,114,128);}
.white{fill:rgb(232,232,232);}
.yellow{fill:rgb(238,222,119);}
</style>
<defs>
<clipPath id="clip0">
<path d="M 0 0 L 480 360 L 0 360 Z"/>
</clipPath>
<clipPath id="clip1">
<path d="M 0 0 L 480 0 L 480 360 Z"/>
</clipPath>
</defs>
<g>
<rect x="0" y="0" width="480" height="360" class="black"/>
<g clip-path="url(#clip0)">
<path d="M 54 -72 L 54 -72 L 534 288 L 426 432 L -54 72 Z" class="red"/>
<path d="M 32.4 -43.2 L 32.4 -43.2 L 512.4 316.8 L 447.6 403.2 L -32.4 43.2 Z" class="yellow"/>
</g>
<g clip-path="url(#clip1)">
<path d="M 54 -72 L 54 -72 L 534 288 L 426 432 L -54 72 Z" class="green"/>
<path d="M 32.4 -43.2 L 32.4 -43.2 L 512.4 316.8 L 447.6 403.2 L -32.4 43.2 Z" class="blue"/>
</g>
<path d="M 10.8 -14.4 L 10.8 -14.4 L 490.8 345.6 L 469.2 374.4 L -10.8 14.4 Z" class="white"/>
</g>
</svg>
