<?xml version="1.0"?>
<svg xmlns="http://www.w3.org/2000/svg" xmlns:xlink="http://www.w3.org/1999/xlink" version="1.1" width="720" height="360" viewBox="0 0 720 360">
<!-- Generated by Kreative Vexillo v1.0 -->
<style>
.blue{fill:rgb(0,36,125);}
.red{fill:rgb(207,20,43);}
.white{fill:rgb(255,255,255);}
</style>
<defs>
<clipPath id="clip0">
<path d="M 0 0 L 0 12.9572 L 0 12.9572 L 134.8249 90 L 0 167.0428 L 0 180 L 22.6751 180 L 157.5 102.9572 L 157.5 102.9572 L 292.3249 180 L 315 180 L 315 167.0428 L 180.1751 90 L 315 12.9572 L 315 0 L 292.3249 0 L 157.5 77.0428 L 157.5 77.0428 L 22.6751 0 Z"/>
</clipPath>
</defs>
<g>
<g>
<rect x="0" y="0" width="720" height="45" class="white"/>
<rect x="0" y="45" width="720" height="45" class="red"/>
<rect x="0" y="90" width="720" height="45" class="blue"/>
<rect x="0" y="135" width="720" height="45" class="white"/>
<rect x="0" y="180" width="720" height="45" class="red"/>
<rect x="0" y="225" width="720" height="45" class="blue"/>
<rect x="0" y="270" width="720" height="45" class="white"/>
<rect x="0" y="315" width="720" height="45" class="red"/>
</g>
<g>
<rect x="0" y="0" width="315" height="180" class="blue"/>
<path d="M 0 0 L 0 19.4358 L 0 19.4358 L 123.4874 90 L 123.4874 90 L 0 160.5642 L 0 160.5642 L 0 180 L 34.0126 180 L 157.5 109.4358 L 157.5 109.4358 L 280.9874 180 L 315 180 L 315 160.5642 L 191.5126 90 L 191.5126 90 L 315 19.4358 L 315 0 L 280.9874 0 L 157.5 70.5642 L 157.5 70.5642 L 34.0126 0 Z" class="white"/>
<g clip-path="url(#clip0)">
<path d="M 0 0 L 157.5 90 L 0 90 Z" class="red"/>
<path d="M 315 0 L 157.5 90 L 157.5 0 Z" class="red"/>
<path d="M 0 180 L 157.5 90 L 157.5 180 Z" class="red"/>
<path d="M 315 180 L 157.5 90 L 315 90 Z" class="red"/>
</g>
<g>
<rect x="0" y="67.5" width="315" height="45" class="white"/>
<rect x="135" y="0" width="45" height="180" class="white"/>
</g>
<g>
<rect x="0" y="73.125" width="315" height="33.75" class="red"/>
<rect x="140.625" y="0" width="33.75" height="180" class="red"/>
</g>
</g>
</g>
</svg>
