<?xml version="1.0"?>
<svg xmlns="http://www.w3.org/2000/svg" xmlns:xlink="http://www.w3.org/1999/xlink" version="1.1" width="360" height="360" viewBox="0 0 360 360">
<!-- Generated by Kreative Vexillo v1.0 -->
<style>
.red{fill:rgb(255,0,0);}
.white{fill:rgb(255,255,255);}
</style>
<g>
<rect x="0" y="0" width="360" height="360" class="white"/>
<path d="M 0 0 L 0 50.9117 L 129.0883 180 L 129.0883 180 L 0 309.0883 L 0 360 L 50.9117 360 L 180 230.9117 L 180 230.9117 L 180 230.9117 L 180 230.9117 L 180 230.9117 L 180 230.9117 L 309.0883 360 L 360 360 L 360 309.0883 L 360 309.0883 L 230.9117 180 L 230.9117 180 L 360 50.9117 L 360 0 L 309.0883 0 L 180 129.0883 L 180 129.0883 L 180 129.0883 L 180 129.0883 L 180 129.0883 L 180 129.0883 L 50.9117 0 Z" class="red"/>
</g>
</svg>
