<?xml version="1.0"?>
<svg xmlns="http://www.w3.org/2000/svg" xmlns:xlink="http://www.w3.org/1999/xlink" version="1.1" width="540" height="360" viewBox="0 0 540 360">
<!-- Generated by Kreative Vexillo v1.0 -->
<style>
.pink{fill:rgb(255,153,221);}
.purple{fill:rgb(153,0,102);}
.yellow{fill:rgb(255,255,0);}
</style>
<defs>
<path id="liora" d="M 50.0 91.549 C 48.857 91.972 47.691 92.395004 46.5 92.818 C 31.596 97.605 16.096 100.0 0.0 100.0 V 92.958 C 13.857 92.958 27.262 91.127 40.214 87.465 C 31.547 83.239 24.499 78.050995 19.071001 71.90199 C 11.071001 62.839993 7.071001 53.191994 7.071001 42.957993 H 7.143001 C 7.143001 35.116993 8.989001 27.816994 12.679001 21.056993 C 16.369001 14.296993 21.655 9.095993 28.536001 5.4579935 C 35.417 1.818 42.571 0.0 50.0 0.0 C 57.428 0.0 64.583 1.818 71.464005 5.458 C 78.34701 9.096001 83.632 14.2960005 87.32101 21.057 C 91.01201 27.817999 92.856 35.117 92.856 42.958 H 92.785 C 92.785 53.192 88.785 62.84 80.785 71.902 C 75.40501 78.051 68.40501 83.24 59.785004 87.465 C 72.69 91.127 86.097 92.95799 99.99901 92.95799 V 100.0 C 83.90501 100.0 68.382 97.605 53.42801 92.817 C 52.286 92.395 51.142 91.972 50.0 91.549 Z M 50.0 84.155 C 60.382 80.163 68.571 74.904 74.571 68.38 C 81.955 60.444996 85.643 51.971996 85.643 42.957996 H 85.714 C 85.714 36.337997 84.17799 30.211996 81.106995 24.577997 S 73.631996 14.612997 67.892 11.584997 C 62.156 8.556 56.191 7.042 50.0 7.042 C 43.811 7.042 37.846 8.556 32.107002 11.584 C 26.369003 14.6119995 21.964003 18.943 18.893002 24.577 C 15.822001 30.210999 14.286001 36.336998 14.286001 42.957 H 14.215001 C 14.215001 51.971 17.905 60.445 25.286001 68.379 C 31.333 74.904 39.571 80.163 50.0 84.155 Z"/>
<path id="star" d="M 0.0 -1.0 L 0.2245 -0.309 L 0.9511 -0.309 L 0.3633 0.118 L 0.5878 0.809 L 0.0 0.382 L -0.5878 0.809 L -0.3633 0.118 L -0.9511 -0.309 L -0.2245 -0.309 Z"/>
</defs>
<g>
<rect x="0" y="0" width="540" height="360" class="pink"/>
<use xlink:href="#liora" transform="translate(45 135) scale(1.8 1.8) rotate(0)" class="purple"/>
<use xlink:href="#star" transform="translate(105 214.2) scale(22.5 22.5) rotate(0)" class="yellow"/>
<use xlink:href="#star" transform="translate(165 214.2) scale(22.5 22.5) rotate(0)" class="yellow"/>
<use xlink:href="#star" transform="translate(135 184.2) scale(22.5 22.5) rotate(0)" class="yellow"/>
<use xlink:href="#star" transform="translate(135 244.2) scale(22.5 22.5) rotate(0)" class="yellow"/>
</g>
</svg>
