<?xml version="1.0"?>
<svg xmlns="http://www.w3.org/2000/svg" xmlns:xlink="http://www.w3.org/1999/xlink" version="1.1" width="600" height="360" viewBox="0 0 600 360">
<!-- Generated by Kreative Vexillo v1.0 -->
<style>
.black{fill:rgb(0,0,0);}
.red{fill:rgb(255,0,0);}
.white{fill:rgb(255,255,255);}
</style>
<defs>
<path id="halfdisc" d="M 0.5 0.0 A 0.5 0.5 0.0 0 0 -0.5 0.0 Z"/>
</defs>
<g>
<g>
<rect x="0" y="0" width="600" height="55.3846" class="red"/>
<rect x="0" y="55.3846" width="600" height="55.3846" class="white"/>
<rect x="0" y="110.7692" width="600" height="55.3846" class="black"/>
<rect x="0" y="166.1538" width="600" height="27.6923" class="white"/>
<rect x="0" y="193.8462" width="600" height="55.3846" class="black"/>
<rect x="0" y="249.2308" width="600" height="55.3846" class="white"/>
<rect x="0" y="304.6154" width="600" height="55.3846" class="red"/>
</g>
<path d="M 0 0 L 180 180 L 0 360 Z" class="black"/>
<path d="M 0 15.6522 L 164.3478 180 L 0 344.3478 Z" class="white"/>
<use xlink:href="#halfdisc" transform="translate(66.96 176.4) scale(65.4545 65.4545) rotate(0)" class="red"/>
<use xlink:href="#halfdisc" transform="translate(66.96 183.6) scale(65.4545 65.4545) rotate(180)" class="black"/>
</g>
</svg>
