<?xml version="1.0"?>
<svg xmlns="http://www.w3.org/2000/svg" xmlns:xlink="http://www.w3.org/1999/xlink" version="1.1" width="540" height="360" viewBox="0 0 540 360">
<!-- Generated by Kreative Vexillo v1.0 -->
<style>
.blue{fill:rgb(0,128,255);}
.green{fill:rgb(0,128,0);}
.red{fill:rgb(248,0,0);}
</style>
<defs>
<path id="chakra" d="M 0.0 -0.5 A 0.5 0.5 0.0 0 0 -0.5 0.0 A 0.5 0.5 0.0 0 0 0.0 0.5 A 0.5 0.5 0.0 0 0 0.5 0.0 A 0.5 0.5 0.0 0 0 0.0 -0.5 Z M -0.0775 -0.4423 A 0.0516 0.0516 0.0 0 1 -0.0271 -0.4008 A 0.0516 0.0516 0.0 0 1 -0.026600001 -0.39749998 L -0.026 -0.39749998 L -0.009300001 -0.14339998 L -0.009400001 -0.14339998 A 0.0188 0.0188 0.0 0 1 -0.024300002 -0.12259998 A 0.0188 0.0188 0.0 0 1 -0.0461 -0.13609998 L -0.046200003 -0.13609998 L -0.12810001 -0.37729996 L -0.12760001 -0.37749997 A 0.0516 0.0516 0.0 0 1 -0.12840001 -0.38079998 A 0.0516 0.0516 0.0 0 1 -0.08790001 -0.4414 A 0.0516 0.0516 0.0 0 1 -0.07770001 -0.44239998 Z M 0.0791 -0.4423 A 0.0516 0.0516 0.0 0 1 0.087799996 -0.4413 A 0.0516 0.0516 0.0 0 1 0.1283 -0.3807 A 0.0516 0.0516 0.0 0 1 0.1275 -0.3775 L 0.1281 -0.3773 L 0.046199992 -0.1361 L 0.04609999 -0.1361 A 0.0188 0.0188 0.0 0 1 0.0244 -0.1226 A 0.0188 0.0188 0.0 0 1 0.0095 -0.1434 L 0.0094 -0.1434 L 0.026099999 -0.39749998 L 0.0267 -0.39749998 A 0.0516 0.0516 0.0 0 1 0.027199998 -0.4008 A 0.0516 0.0516 0.0 0 1 0.0791 -0.4423 Z M -0.22070001 -0.38279998 A 0.0516 0.0516 0.0 0 1 -0.17840001 -0.3599 A 0.0516 0.0516 0.0 0 1 -0.17670001 -0.357 L -0.17610002 -0.35729998 L -0.06350002 -0.12889998 L -0.06360002 -0.12889998 A 0.0188 0.0188 0.0 0 1 -0.06940002 -0.10389998 A 0.0188 0.0188 0.0 0 1 -0.09470002 -0.108099975 L -0.09470002 -0.108099975 L -0.2626 -0.29959998 L -0.2622 -0.29999998 A 0.0516 0.0516 0.0 0 1 -0.2642 -0.30269998 A 0.0516 0.0516 0.0 0 1 -0.25 -0.3742 A 0.0516 0.0516 0.0 0 1 -0.2208 -0.3829 Z M 0.2224 -0.38279998 A 0.0516 0.0516 0.0 0 1 0.2501 -0.37409997 A 0.0516 0.0516 0.0 0 1 0.2643 -0.30259997 A 0.0516 0.0516 0.0 0 1 0.26229998 -0.29989997 L 0.26279998 -0.29949996 L 0.09489998 -0.107999966 L 0.09479998 -0.107999966 A 0.0188 0.0188 0.0 0 1 0.069499984 -0.10379997 A 0.0188 0.0188 0.0 0 1 0.06369998 -0.12879997 L 0.06369998 -0.12879997 L 0.17629999 -0.35719997 L 0.17679998 -0.35699996 A 0.0516 0.0516 0.0 0 1 0.17859998 -0.35979995 A 0.0516 0.0516 0.0 0 1 0.22239998 -0.38269997 Z M 0.332 -0.2729 A 0.0516 0.0516 0.0 0 1 0.3743 -0.24999999 A 0.0516 0.0516 0.0 0 1 0.3601 -0.17849998 A 0.0516 0.0516 0.0 0 1 0.3572 -0.17679998 L 0.3575 -0.17619999 L 0.12909998 -0.06359999 L 0.12909998 -0.06369999 A 0.0188 0.0188 0.0 0 1 0.10409998 -0.06949999 A 0.0188 0.0188 0.0 0 1 0.10829998 -0.094799995 L 0.10829998 -0.094799995 L 0.29979998 -0.2627 L 0.3002 -0.26229998 A 0.0516 0.0516 0.0 0 1 0.3029 -0.2643 A 0.0516 0.0516 0.0 0 1 0.33209997 -0.273 Z M -0.3302 -0.2729 A 0.0516 0.0516 0.0 0 1 -0.30249998 -0.26419997 A 0.0516 0.0516 0.0 0 1 -0.29979998 -0.26219997 L -0.29939997 -0.26269996 L -0.10789998 -0.094799966 L -0.10789998 -0.094699964 A 0.0188 0.0188 0.0 0 1 -0.10369998 -0.06939997 A 0.0188 0.0188 0.0 0 1 -0.12869999 -0.06359997 L -0.12869999 -0.06359997 L -0.3571 -0.17619997 L -0.3569 -0.17669997 A 0.0516 0.0516 0.0 0 1 -0.3597 -0.17849997 A 0.0516 0.0516 0.0 0 1 -0.3739 -0.24999997 A 0.0516 0.0516 0.0 0 1 -0.3301 -0.2729 Z M 0.39110002 -0.12929998 A 0.0516 0.0516 0.0 0 1 0.4415 -0.08779998 A 0.0516 0.0516 0.0 0 1 0.40100002 -0.02719998 A 0.0516 0.0516 0.0 0 1 0.3977 -0.02669998 L 0.3977 -0.02609998 L 0.14360002 -0.00939998 L 0.14360002 -0.00949998 A 0.0188 0.0188 0.0 0 1 0.122800015 -0.02439998 A 0.0188 0.0188 0.0 0 1 0.13630001 -0.04619998 L 0.13630001 -0.046299983 L 0.3775 -0.12819998 L 0.3777 -0.12769999 A 0.0516 0.0516 0.0 0 1 0.381 -0.12849998 A 0.0516 0.0516 0.0 0 1 0.3912 -0.12949999 Z M -0.38929996 -0.12929998 A 0.0516 0.0516 0.0 0 1 -0.38059995 -0.12829998 A 0.0516 0.0516 0.0 0 1 -0.37739995 -0.12749998 L -0.37719995 -0.12809998 L -0.13599995 -0.046199977 L -0.13599995 -0.046099976 A 0.0188 0.0188 0.0 0 1 -0.12249995 -0.024299975 A 0.0188 0.0188 0.0 0 1 -0.14329995 -0.009399976 L -0.14329995 -0.009299976 L -0.39739996 -0.025999974 L -0.39739996 -0.026599975 A 0.0516 0.0516 0.0 0 1 -0.40069997 -0.027099974 A 0.0516 0.0516 0.0 0 1 -0.44119996 -0.08769998 A 0.0516 0.0516 0.0 0 1 -0.38929996 -0.12919998 Z M -0.1409 0.0093 A 0.0188 0.0188 0.0 0 1 -0.122600004 0.0244 A 0.0188 0.0188 0.0 0 1 -0.13610001 0.0462 L -0.13610001 0.0463 L -0.37730002 0.1282 L -0.37750003 0.1277 A 0.0516 0.0516 0.0 0 1 -0.38080004 0.1285 A 0.0516 0.0516 0.0 0 1 -0.44140005 0.088 A 0.0516 0.0516 0.0 0 1 -0.40090007 0.027399998 A 0.0516 0.0516 0.0 0 1 -0.39760005 0.026899999 L -0.39760005 0.026299998 L -0.14350006 0.009599999 L -0.14350006 0.009699998 A 0.0188 0.0188 0.0 0 1 -0.1409 0.0093 Z M 0.1415 0.0093 A 0.0188 0.0188 0.0 0 1 0.1434 0.0095 L 0.1434 0.0094 L 0.39749998 0.026099999 L 0.39749998 0.0267 A 0.0516 0.0516 0.0 0 1 0.4008 0.027199998 A 0.0516 0.0516 0.0 0 1 0.44129997 0.087799996 A 0.0516 0.0516 0.0 0 1 0.38069996 0.1283 A 0.0516 0.0516 0.0 0 1 0.37749997 0.1275 L 0.37729996 0.1281 L 0.13609996 0.046199992 L 0.13609996 0.04609999 A 0.0188 0.0188 0.0 0 1 0.1226 0.0244 A 0.0188 0.0188 0.0 0 1 0.1415 0.0093 Z M -0.11930001 0.061100002 A 0.0188 0.0188 0.0 0 1 -0.10390001 0.069400005 A 0.0188 0.0188 0.0 0 1 -0.108100004 0.09470001 L -0.108100004 0.09470001 L -0.2996 0.2626 L -0.3 0.2622 A 0.0516 0.0516 0.0 0 1 -0.3027 0.2642 A 0.0516 0.0516 0.0 0 1 -0.37420002 0.25 A 0.0516 0.0516 0.0 0 1 -0.36 0.1785 A 0.0516 0.0516 0.0 0 1 -0.3571 0.1768 L -0.3574 0.1762 L -0.129 0.0636 L -0.129 0.063700005 A 0.0188 0.0188 0.0 0 1 -0.119399995 0.061200004 Z M 0.11989999 0.061100002 A 0.0188 0.0188 0.0 0 1 0.12889999 0.0636 L 0.12889999 0.0636 L 0.35729998 0.1762 L 0.35709998 0.1767 A 0.0516 0.0516 0.0 0 1 0.35989997 0.1785 A 0.0516 0.0516 0.0 0 1 0.37409997 0.25 A 0.0516 0.0516 0.0 0 1 0.30259997 0.2642 A 0.0516 0.0516 0.0 0 1 0.29989997 0.2622 L 0.29949996 0.2627 L 0.1081 0.0948 L 0.1081 0.0947 A 0.0188 0.0188 0.0 0 1 0.1039 0.0694 A 0.0188 0.0188 0.0 0 1 0.1199 0.0611 Z M -0.079500005 0.10080001 A 0.0188 0.0188 0.0 0 1 -0.069400005 0.10400001 A 0.0188 0.0188 0.0 0 1 -0.0636 0.12900001 L -0.0636 0.12900001 L -0.1762 0.3574 L -0.1767 0.3572 A 0.0516 0.0516 0.0 0 1 -0.1785 0.35999998 A 0.0516 0.0516 0.0 0 1 -0.25 0.3742 A 0.0516 0.0516 0.0 0 1 -0.2642 0.30269998 A 0.0516 0.0516 0.0 0 1 -0.2622 0.29999998 L -0.2627 0.29959998 L -0.094799995 0.10809998 L -0.094699994 0.10809998 A 0.0188 0.0188 0.0 0 1 -0.07949999 0.100799985 Z M 0.0801 0.10080001 A 0.0188 0.0188 0.0 0 1 0.0948 0.108100004 L 0.0948 0.108100004 L 0.2627 0.2996 L 0.26229998 0.3 A 0.0516 0.0516 0.0 0 1 0.2643 0.3027 A 0.0516 0.0516 0.0 0 1 0.2501 0.37420002 A 0.0516 0.0516 0.0 0 1 0.17859998 0.36 A 0.0516 0.0516 0.0 0 1 0.17689998 0.3571 L 0.17629999 0.3574 L 0.06369999 0.129 L 0.06379999 0.129 A 0.0188 0.0188 0.0 0 1 0.06959999 0.103999995 A 0.0188 0.0188 0.0 0 1 0.080199994 0.10079999 Z M 0.028099999 0.12230001 A 0.0188 0.0188 0.0 0 1 0.046099998 0.13620001 L 0.0462 0.13620001 L 0.12810001 0.3774 L 0.12760001 0.3776 A 0.0516 0.0516 0.0 0 1 0.12840001 0.38090003 A 0.0516 0.0516 0.0 0 1 0.08790001 0.44150004 A 0.0516 0.0516 0.0 0 1 0.027300011 0.40100002 A 0.0516 0.0516 0.0 0 1 0.026800012 0.3977 L 0.0261 0.3976 L 0.0094 0.1434 L 0.0095 0.1434 A 0.0188 0.0188 0.0 0 1 0.0244 0.1226 A 0.0188 0.0188 0.0 0 1 0.028099999 0.1222 Z M -0.027600002 0.12230001 A 0.0188 0.0188 0.0 0 1 -0.024400001 0.122700006 A 0.0188 0.0188 0.0 0 1 -0.009500002 0.1435 L -0.009400002 0.1435 L -0.026100002 0.3976 L -0.026700003 0.3976 A 0.0516 0.0516 0.0 0 1 -0.027200002 0.4009 A 0.0516 0.0516 0.0 0 1 -0.0878 0.4414 A 0.0516 0.0516 0.0 0 1 -0.12830001 0.38079998 A 0.0516 0.0516 0.0 0 1 -0.12750001 0.37759998 L -0.12810001 0.37739998 L -0.046200007 0.13619998 L -0.046100006 0.13619998 A 0.0188 0.0188 0.0 0 1 -0.027500005 0.122299984 Z"/>
</defs>
<g>
<g>
<rect x="0" y="0" width="540" height="180" class="blue"/>
<rect x="0" y="180" width="540" height="180" class="green"/>
</g>
<use xlink:href="#chakra" transform="translate(270 180) scale(240 240) rotate(0)" class="red"/>
</g>
</svg>
