<?xml version="1.0"?>
<svg xmlns="http://www.w3.org/2000/svg" xmlns:xlink="http://www.w3.org/1999/xlink" version="1.1" width="655" height="360" viewBox="0 0 655 360">
<!-- Generated by Kreative Vexillo v1.0 -->
<style>
.blue{fill:rgb(0,101,189);}
.green{fill:rgb(0,154,73);}
.orange{fill:rgb(255,121,0);}
.white{fill:rgb(255,255,255);}
</style>
<defs>
<clipPath id="clip0">
<path d="M 0 360 L 655 0 L 655 360 Z"/>
</clipPath>
</defs>
<g>
<rect x="0" y="0" width="655" height="360" class="white"/>
<g>
<path d="M 0 0 L 655 0 L 0 360 Z" class="blue"/>
<path d="M 0 0 L 0 41.0791 L 0 41.0791 L 252.7588 180 L 0 318.9209 L 0 318.9209 L 0 360 L 74.7412 360 L 327.5 221.0791 L 580.2588 360 L 655 360 L 655 318.9209 L 655 318.9209 L 402.2412 180 L 655 41.0792 L 655 0 L 580.2588 0 L 327.5 138.9209 L 74.7412 0 Z" class="white"/>
</g>
<g clip-path="url(#clip0)">
<g>
<rect x="0" y="0" width="218.3333" height="360" class="green"/>
<rect x="218.3333" y="0" width="218.3333" height="360" class="white"/>
<rect x="436.6667" y="0" width="218.3333" height="360" class="orange"/>
</g>
</g>
</g>
</svg>
