<?xml version="1.0"?>
<svg xmlns="http://www.w3.org/2000/svg" xmlns:xlink="http://www.w3.org/1999/xlink" version="1.1" width="540" height="360" viewBox="0 0 540 360">
<!-- Generated by Kreative Vexillo v1.0 -->
<style>
.black{fill:rgb(0,0,0);}
.blue{fill:rgb(12,28,140);}
.gold{fill:rgb(252,181,20);}
.green{fill:rgb(0,124,89);}
.red{fill:rgb(226,61,40);}
.white{fill:rgb(255,255,255);}
</style>
<defs>
<clipPath id="clip0">
<path d="M 0 0 L 270 180 L 0 360 Z"/>
</clipPath>
<clipPath id="clip1">
<path d="M 0 0 L 540 0 L 540 360 L 0 360 L 270 180 Z"/>
</clipPath>
<clipPath id="clip2">
<rect x="0" y="0" width="540" height="360"/>
</clipPath>
</defs>
<g>
<g>
<rect x="0" y="0" width="540" height="180" class="red"/>
<rect x="0" y="180" width="540" height="180" class="blue"/>
</g>
<path d="M 0 0 L 270 180 L 0 360 Z" class="black"/>
<g clip-path="url(#clip0)">
<path d="M 33.282 -49.923 L 33.282 -49.923 L 303.282 130.077 L 236.718 229.923 L -33.282 49.923 Z" class="gold"/>
<path d="M 303.282 229.923 L 303.282 229.923 L 33.282 409.923 L -33.282 310.077 L 236.718 130.077 Z" class="gold"/>
</g>
<g clip-path="url(#clip1)">
<path d="M 33.282 -49.923 L 33.282 -49.923 L 303.282 130.077 L 236.718 229.923 L -33.282 49.923 Z" class="white"/>
<path d="M 303.282 229.923 L 303.282 229.923 L 33.282 409.923 L -33.282 310.077 L 236.718 130.077 Z" class="white"/>
<path d="M 270 120 L 270 120 L 540 120 L 540 240 L 270 240 Z" class="white"/>
</g>
<g clip-path="url(#clip2)">
<path d="M 19.9692 -29.9538 L 19.9692 -29.9538 L 289.9692 150.0462 L 250.0308 209.9538 L -19.9692 29.9538 Z" class="green"/>
<path d="M 289.9692 209.9538 L 289.9692 209.9538 L 19.9692 389.9538 L -19.9692 330.0462 L 250.0308 150.0462 Z" class="green"/>
<path d="M 270 144 L 270 144 L 540 144 L 540 216 L 270 216 Z" class="green"/>
</g>
</g>
</svg>
