<?xml version="1.0"?>
<svg xmlns="http://www.w3.org/2000/svg" xmlns:xlink="http://www.w3.org/1999/xlink" version="1.1" width="576" height="396" viewBox="0 0 576 396">
<!-- Generated by Kreative Vexillo v1.0 -->
<style>
.black{fill:rgb(0,0,0);}
.blue{fill:rgb(0,121,193);}
.red{fill:rgb(227,24,55);}
.white{fill:rgb(255,255,255);}
.yellow{fill:rgb(255,210,0);}
</style>
<defs>
<path id="star16" d="M 0.0 -1.0 L 0.097545 -0.490393 L 0.382683 -0.92388 L 0.277785 -0.415735 L 0.707107 -0.707107 L 0.415735 -0.277785 L 0.92388 -0.382683 L 0.490393 -0.097545 L 1.0 -0.0 L 0.490393 0.097545 L 0.92388 0.382683 L 0.415735 0.277785 L 0.707107 0.707107 L 0.277785 0.415735 L 0.382683 0.92388 L 0.097545 0.490393 L 0.0 1.0 L -0.097545 0.490393 L -0.382683 0.92388 L -0.277785 0.415735 L -0.707107 0.707107 L -0.415735 0.277785 L -0.92388 0.382683 L -0.490393 0.097545 L -1.0 0.0 L -0.490393 -0.097545 L -0.92388 -0.382683 L -0.415735 -0.277785 L -0.707107 -0.707107 L -0.277785 -0.415735 L -0.382683 -0.92388 L -0.097545 -0.490393 Z"/>
<linearGradient id="glaze" x1="0%" y1="0%" x2="100%" y2="100%">
<stop offset="0%" stop-color="rgb(255,255,255)" stop-opacity="0.2"/>
<stop offset="49.999%" stop-color="rgb(255,255,255)" stop-opacity="0.0"/>
<stop offset="50.001%" stop-color="rgb(0,0,0)" stop-opacity="0.0"/>
<stop offset="100%" stop-color="rgb(0,0,0)" stop-opacity="0.2"/>
</linearGradient>
</defs>
<g>
<rect x="0" y="0" width="576" height="396" class="black"/>
<use xlink:href="#star16" transform="translate(288 154.9565) scale(129.1304 129.1304) rotate(0)" class="yellow"/>
<rect x="0" y="154.9565" width="576" height="241.0435" class="blue"/>
<rect x="0" y="241.0435" width="576" height="154.9565" class="white"/>
<path d="M 0 396 L 0 0 L 288 396 L 576 0 L 576 396 Z" class="red"/>
</g>
<g>
<rect x="0" y="0" width="576" height="396" fill="url(#glaze)"/>
<path d="M 36 36 L 540 36 L 540 360 L 36 360 Z M 72 72 L 72 324 L 504 324 L 504 72 Z" fill="rgb(255,255,255)" opacity="0.4"/>
<path d="M 0 0 L 576 0 L 576 396 L 0 396 Z M 36 36 L 36 360 L 540 360 L 540 36 Z" fill="rgb(0,0,0)" opacity="0.4"/>
</g>
</svg>
