<?xml version="1.0"?>
<svg xmlns="http://www.w3.org/2000/svg" xmlns:xlink="http://www.w3.org/1999/xlink" version="1.1" width="576" height="396" viewBox="0 0 576 396">
<!-- Generated by Kreative Vexillo v1.0 -->
<style>
.blue{fill:rgb(0,35,149);}
.white{fill:rgb(255,255,255);}
.yellow{fill:rgb(254,203,0);}
</style>
<defs>
<path id="star" d="M 0.0 -1.0 L 0.2245 -0.309 L 0.9511 -0.309 L 0.3633 0.118 L 0.5878 0.809 L 0.0 0.382 L -0.5878 0.809 L -0.3633 0.118 L -0.9511 -0.309 L -0.2245 -0.309 Z"/>
<linearGradient id="glaze" x1="0%" y1="0%" x2="100%" y2="100%">
<stop offset="0%" stop-color="rgb(255,255,255)" stop-opacity="0.2"/>
<stop offset="49.999%" stop-color="rgb(255,255,255)" stop-opacity="0.0"/>
<stop offset="50.001%" stop-color="rgb(0,0,0)" stop-opacity="0.0"/>
<stop offset="100%" stop-color="rgb(0,0,0)" stop-opacity="0.2"/>
</linearGradient>
</defs>
<g>
<rect x="0" y="0" width="576" height="396" class="blue"/>
<path d="M 125.64 0 L 521.64 0 L 521.64 396 Z" class="yellow"/>
<g>
<use xlink:href="#star" transform="translate(54.36 -4.2055) scale(35.64 35.64) rotate(0)" class="white"/>
<use xlink:href="#star" transform="translate(103.86 45.2945) scale(35.64 35.64) rotate(0)" class="white"/>
<use xlink:href="#star" transform="translate(153.36 94.7945) scale(35.64 35.64) rotate(0)" class="white"/>
<use xlink:href="#star" transform="translate(202.86 144.2945) scale(35.64 35.64) rotate(0)" class="white"/>
<use xlink:href="#star" transform="translate(252.36 193.7945) scale(35.64 35.64) rotate(0)" class="white"/>
<use xlink:href="#star" transform="translate(301.86 243.2945) scale(35.64 35.64) rotate(0)" class="white"/>
<use xlink:href="#star" transform="translate(351.36 292.7945) scale(35.64 35.64) rotate(0)" class="white"/>
<use xlink:href="#star" transform="translate(400.86 342.2945) scale(35.64 35.64) rotate(0)" class="white"/>
<use xlink:href="#star" transform="translate(450.36 391.7945) scale(35.64 35.64) rotate(0)" class="white"/>
</g>
</g>
<g>
<rect x="0" y="0" width="576" height="396" fill="url(#glaze)"/>
<path d="M 36 36 L 540 36 L 540 360 L 36 360 Z M 72 72 L 72 324 L 504 324 L 504 72 Z" fill="rgb(255,255,255)" opacity="0.4"/>
<path d="M 0 0 L 576 0 L 576 396 L 0 396 Z M 36 36 L 36 360 L 540 360 L 540 36 Z" fill="rgb(0,0,0)" opacity="0.4"/>
</g>
</svg>
