<?xml version="1.0"?>
<svg xmlns="http://www.w3.org/2000/svg" xmlns:xlink="http://www.w3.org/1999/xlink" version="1.1" width="576" height="396" viewBox="0 0 576 396">
<!-- Generated by Kreative Vexillo v1.0 -->
<style>
.green{fill:rgb(0,178,89);}
.red{fill:rgb(227,61,58);}
.white{fill:rgb(255,255,255);}
</style>
<defs>
<path id="star6" d="M 0.0 -1.0 L 0.288675 -0.5 L 0.866025 -0.5 L 0.57735 -0.0 L 0.866025 0.5 L 0.288675 0.5 L 0.0 1.0 L -0.288675 0.5 L -0.866025 0.5 L -0.57735 0.0 L -0.866025 -0.5 L -0.288675 -0.5 Z"/>
<linearGradient id="glaze" x1="0%" y1="0%" x2="100%" y2="100%">
<stop offset="0%" stop-color="rgb(255,255,255)" stop-opacity="0.2"/>
<stop offset="49.999%" stop-color="rgb(255,255,255)" stop-opacity="0.0"/>
<stop offset="50.001%" stop-color="rgb(0,0,0)" stop-opacity="0.0"/>
<stop offset="100%" stop-color="rgb(0,0,0)" stop-opacity="0.2"/>
</linearGradient>
</defs>
<g>
<rect x="0" y="0" width="576" height="396" class="red"/>
<path d="M 0 0 L 288 198 L 0 396 Z" class="green"/>
<path d="M 576 396 L 288 198 L 576 0 Z" class="green"/>
<path d="M 0 0 L 0 30.0349 L 0 30.0349 L 244.3129 198 L 244.3129 198 L 0 365.9651 L 0 365.9651 L 0 396 L 43.6871 396 L 288 228.0349 L 288 228.0349 L 288 228.0349 L 288 228.0349 L 288 228.0349 L 288 228.0349 L 532.3129 396 L 576 396 L 576 365.9651 L 331.6871 198 L 331.6871 198 L 576 30.0349 L 576 0 L 532.3129 0 L 288 167.9651 L 288 167.9651 L 43.6871 0 Z" class="white"/>
<ellipse cx="288" cy="198" rx="118.8" ry="118.8" class="white"/>
<use xlink:href="#star6" transform="translate(288 140.8423) scale(27.225 27.225) rotate(0)" class="green"/>
<use xlink:href="#star6" transform="translate(238.5 226.5788) scale(27.225 27.225) rotate(0)" class="green"/>
<use xlink:href="#star6" transform="translate(337.5 226.5788) scale(27.225 27.225) rotate(0)" class="green"/>
<use xlink:href="#star6" transform="translate(288 140.8423) scale(22.275 22.275) rotate(0)" class="red"/>
<use xlink:href="#star6" transform="translate(238.5 226.5788) scale(22.275 22.275) rotate(0)" class="red"/>
<use xlink:href="#star6" transform="translate(337.5 226.5788) scale(22.275 22.275) rotate(0)" class="red"/>
</g>
<g>
<rect x="0" y="0" width="576" height="396" fill="url(#glaze)"/>
<path d="M 36 36 L 540 36 L 540 360 L 36 360 Z M 72 72 L 72 324 L 504 324 L 504 72 Z" fill="rgb(255,255,255)" opacity="0.4"/>
<path d="M 0 0 L 576 0 L 576 396 L 0 396 Z M 36 36 L 36 360 L 540 360 L 540 36 Z" fill="rgb(0,0,0)" opacity="0.4"/>
</g>
</svg>
