<?xml version="1.0"?>
<svg xmlns="http://www.w3.org/2000/svg" xmlns:xlink="http://www.w3.org/1999/xlink" version="1.1" width="576" height="396" viewBox="0 0 576 396">
<!-- Generated by Kreative Vexillo v1.0 -->
<style>
.black{fill:rgb(0,0,0);}
.blue{fill:rgb(0,48,135);}
.red{fill:rgb(213,0,50);}
.white{fill:rgb(255,255,255);}
.yellow{fill:rgb(255,215,0);}
</style>
<defs>
<path id="compass" d="M 0.0 -45.0 L 25.980762 0.0 L 0.0 45.0 L -25.980762 0.0 Z M 45.0 0.0 L 0.0 25.980762 L -45.0 0.0 L 0.0 -25.980762 Z"/>
<path id="disc" d="M 0.5 0.0 A 0.5 0.5 0.0 0 0 -0.5 0.0 A 0.5 0.5 0.0 0 0 0.5 0.0 Z"/>
<path id="star" d="M 0.0 22.5 L -19.485573 -11.25 H 19.485569 Z M 0.0 -22.5 L 19.485573 11.25 H -19.485569 Z"/>
<linearGradient id="glaze" x1="0%" y1="0%" x2="100%" y2="100%">
<stop offset="0%" stop-color="rgb(255,255,255)" stop-opacity="0.2"/>
<stop offset="49.999%" stop-color="rgb(255,255,255)" stop-opacity="0.0"/>
<stop offset="50.001%" stop-color="rgb(0,0,0)" stop-opacity="0.0"/>
<stop offset="100%" stop-color="rgb(0,0,0)" stop-opacity="0.2"/>
</linearGradient>
</defs>
<g>
<rect x="0" y="0" width="576" height="396" class="blue"/>
<path d="M 0 0 L 576 0 L 0 396 Z" class="white"/>
<path d="M 0 0 L 240 0 L 0 165 Z" class="yellow"/>
<use xlink:href="#compass" transform="translate(160 170.5) scale(2.2 2.2) rotate(0)" class="black"/>
<use xlink:href="#disc" transform="translate(160 170.5) scale(171.473 171.473) rotate(0)" class="black"/>
<use xlink:href="#disc" transform="translate(160 170.5) scale(148.5 148.5) rotate(0)" class="white"/>
<use xlink:href="#star" transform="translate(160 170.5) scale(2.2 2.2) rotate(0)" class="red"/>
</g>
<g>
<rect x="0" y="0" width="576" height="396" fill="url(#glaze)"/>
<path d="M 36 36 L 540 36 L 540 360 L 36 360 Z M 72 72 L 72 324 L 504 324 L 504 72 Z" fill="rgb(255,255,255)" opacity="0.4"/>
<path d="M 0 0 L 576 0 L 576 396 L 0 396 Z M 36 36 L 36 360 L 540 360 L 540 36 Z" fill="rgb(0,0,0)" opacity="0.4"/>
</g>
</svg>
