<?xml version="1.0"?>
<svg xmlns="http://www.w3.org/2000/svg" xmlns:xlink="http://www.w3.org/1999/xlink" version="1.1" width="576" height="396" viewBox="0 0 576 396">
<!-- Generated by Kreative Vexillo v1.0 -->
<style>
.blue{fill:rgb(1,42,135);}
.green{fill:rgb(0,136,48);}
.red{fill:rgb(220,23,29);}
.white{fill:rgb(255,255,255);}
.yellow{fill:rgb(249,217,15);}
</style>
<defs>
<path id="island" d="M -0.2809 0.0614 C -0.2764 0.0467 -0.2665 0.0401 -0.2532 0.0431 C -0.245 0.0119 -0.207 0.0063 -0.1919 0.0217 L -0.1548 0.059 C -0.1467 0.0627 -0.1344 0.0641 -0.1259 0.0641 C -0.1154 0.0643 -0.1165 0.0691 -0.1077 0.0693 C -0.0842 0.0697 -0.0225 0.07 -0.0113 0.0693 C -0.0067 0.069 0.0956 -0.0438 0.0956 -0.0438 C 0.1041 -0.0543 0.1263 -0.0577 0.1385 -0.0492 C 0.1498 -0.0385 0.1617 -0.0373 0.17 -0.0444 C 0.1773 -0.0553 0.194 -0.0566 0.2045 -0.0504 L 0.3203 0.0393 L 0.1642 0.1267 H -0.1643 L -0.2809 0.0614 Z"/>
<path id="star" d="M 0.0 -1.0 L 0.2245 -0.309 L 0.9511 -0.309 L 0.3633 0.118 L 0.5878 0.809 L 0.0 0.382 L -0.5878 0.809 L -0.3633 0.118 L -0.9511 -0.309 L -0.2245 -0.309 Z"/>
<linearGradient id="glaze" x1="0%" y1="0%" x2="100%" y2="100%">
<stop offset="0%" stop-color="rgb(255,255,255)" stop-opacity="0.2"/>
<stop offset="49.999%" stop-color="rgb(255,255,255)" stop-opacity="0.0"/>
<stop offset="50.001%" stop-color="rgb(0,0,0)" stop-opacity="0.0"/>
<stop offset="100%" stop-color="rgb(0,0,0)" stop-opacity="0.2"/>
</linearGradient>
</defs>
<g>
<rect x="0" y="0" width="576" height="396" class="red"/>
<rect x="15.84" y="15.84" width="544.32" height="364.32" class="blue"/>
<g>
<rect x="0" y="190.08" width="576" height="15.84" class="red"/>
<rect x="280.08" y="0" width="15.84" height="396" class="red"/>
</g>
<path d="M 118.8288 198 L 288 102.96 L 457.1712 198 L 288 293.04 Z" class="white"/>
<use xlink:href="#star" transform="translate(288 155.232) scale(23.76 23.76) rotate(0)" class="yellow"/>
<use xlink:href="#island" transform="translate(288 198) scale(396 396) rotate(0)" class="green"/>
<path d="M 291.8792 109.8649 L 291.8792 109.8649 L 122.708 204.9049 L 114.9496 191.0951 L 284.1208 96.0551 Z" class="red"/>
<path d="M 291.8792 96.0551 L 291.8792 96.0551 L 461.0504 191.0951 L 453.292 204.9049 L 284.1208 109.8649 Z" class="red"/>
<path d="M 284.1208 299.9449 L 284.1208 299.9449 L 114.9496 204.9049 L 122.708 191.0951 L 291.8792 286.1351 Z" class="red"/>
<path d="M 284.1208 286.1351 L 284.1208 286.1351 L 453.292 191.0951 L 461.0504 204.9049 L 291.8792 299.9449 Z" class="red"/>
</g>
<g>
<rect x="0" y="0" width="576" height="396" fill="url(#glaze)"/>
<path d="M 36 36 L 540 36 L 540 360 L 36 360 Z M 72 72 L 72 324 L 504 324 L 504 72 Z" fill="rgb(255,255,255)" opacity="0.4"/>
<path d="M 0 0 L 576 0 L 576 396 L 0 396 Z M 36 36 L 36 360 L 540 360 L 540 36 Z" fill="rgb(0,0,0)" opacity="0.4"/>
</g>
</svg>
