<?xml version="1.0"?>
<svg xmlns="http://www.w3.org/2000/svg" xmlns:xlink="http://www.w3.org/1999/xlink" version="1.1" width="576" height="396" viewBox="0 0 576 396">
<!-- Generated by Kreative Vexillo v1.0 -->
<style>
.black{fill:rgb(0,0,0);}
.green{fill:rgb(0,165,91);}
.white{fill:rgb(255,255,255);}
</style>
<defs>
<path id="e1" d="M 0.1228 -0.153 C 0.1258 -0.153 0.1282 -0.1554 0.1282 -0.1584 V -0.21079999 C 0.1282 -0.2138 0.1258 -0.2162 0.12279999 -0.2162 H 0.11779999 V -0.2499 C 0.11779999 -0.2613 0.10739999 -0.2705 0.094699994 -0.2705 C 0.094699994 -0.2705 0.094699994 -0.2705 0.094699994 -0.2705 C 0.08709999 -0.2705 0.080299996 -0.2672 0.07609999 -0.2621 C 0.070999995 -0.2678 0.06329999 -0.27150002 0.054599993 -0.27150002 C 0.044299994 -0.27150002 0.035299994 -0.26630002 0.030499993 -0.25860003 C 0.028999994 -0.26040003 0.027299993 -0.26200002 0.025499992 -0.26350003 V -0.33280003 H 0.055499993 V -0.40980002 H 0.025499994 V -0.43800002 L 0.025499994 -0.43870002 C 0.024199994 -0.4496 0.0147999935 -0.45810002 0.0028999932 -0.45920002 C -0.011200007 -0.46060002 -0.023600006 -0.45130002 -0.025200007 -0.43870002 L -0.025200007 -0.43840003 V -0.41080004 C -0.07300001 -0.41610003 -0.10040001 -0.44340003 -0.12290001 -0.47260004 L -0.12810001 -0.47940004 L -0.13200001 -0.47180003 C -0.14830002 -0.43970004 -0.15370001 -0.41900003 -0.15450001 -0.38650003 L -0.15450001 -0.38640004 L -0.15450001 -0.38630006 C -0.1535 -0.35050005 -0.14940001 -0.32790005 -0.12760001 -0.28850007 L -0.124100015 -0.28220007 L -0.11910001 -0.28730008 C -0.09030001 -0.31670007 -0.06390001 -0.3296001 -0.025300011 -0.33230007 V -0.26360005 C -0.027100012 -0.26210004 -0.02890001 -0.26050004 -0.03030001 -0.25870004 C -0.03510001 -0.26640004 -0.04410001 -0.27160004 -0.054400012 -0.27160004 C -0.06310001 -0.27160004 -0.070800014 -0.26790005 -0.07590001 -0.26220003 C -0.08010001 -0.26730004 -0.08690001 -0.27060002 -0.09450001 -0.27060002 C -0.09450001 -0.27060002 -0.09450001 -0.27060002 -0.09450001 -0.27060002 C -0.10720001 -0.27060002 -0.11760001 -0.2614 -0.11760001 -0.25000003 V -0.21630003 H -0.12260001 C -0.12560001 -0.21630003 -0.128 -0.21390003 -0.128 -0.21090002 V -0.15850002 C -0.128 -0.15550001 -0.12560001 -0.15310001 -0.122600004 -0.15310001 H -0.1176 V -0.13430001 C -0.1181 -0.13440001 -0.1185 -0.13450001 -0.119 -0.13450001 H -0.122600004 C -0.12560001 -0.13450001 -0.128 -0.13210002 -0.128 -0.12910001 V -0.048800007 C -0.128 -0.047500007 -0.1276 -0.046300005 -0.1267 -0.045300007 L -0.1176 -0.034500007 V 0.14389999 L -0.1267 0.1547 C -0.1275 0.1557 -0.128 0.15689999 -0.128 0.1582 V 0.2385 C -0.128 0.2415 -0.12560001 0.2439 -0.122600004 0.2439 H -0.119 C -0.1185 0.2439 -0.118 0.2438 -0.1176 0.2437 V 0.26229998 H -0.122600004 C -0.12560001 0.26229998 -0.128 0.2647 -0.128 0.2677 V 0.32009998 C -0.128 0.32309997 -0.12560001 0.32549998 -0.122600004 0.32549998 H -0.1176 V 0.35729998 C -0.1176 0.36969998 -0.107200004 0.3798 -0.094500005 0.3798 C -0.094500005 0.3798 -0.094500005 0.3798 -0.094500005 0.3798 C -0.0869 0.3798 -0.08010001 0.3762 -0.0759 0.3707 C -0.07080001 0.3767 -0.0631 0.3806 -0.054400004 0.3806 C -0.044300005 0.3806 -0.035400003 0.3754 -0.030600004 0.3676 C -0.029000005 0.36949998 -0.027200004 0.3711 -0.025300004 0.3727 V 0.458 L -0.025300004 0.4587 C -0.024000004 0.4696 -0.014600003 0.4781 -0.0027000029 0.4792 C -0.0018000029 0.4793 -9.000029E-4 0.4793 -2.7939677E-9 0.4793 C 0.0129999975 0.4793 0.023899999 0.4704 0.025299996 0.4587 L 0.025299996 0.4584 V 0.3728 C 0.027299996 0.37129998 0.029099997 0.3696 0.030599996 0.36769998 C 0.035399996 0.3755 0.044299997 0.3807 0.054399997 0.3807 C 0.063099995 0.3807 0.0708 0.3769 0.075899996 0.3708 C 0.08009999 0.37629998 0.086899996 0.37989998 0.0945 0.37989998 C 0.0945 0.37989998 0.0945 0.37989998 0.0945 0.37989998 C 0.1072 0.37989998 0.117599994 0.36979997 0.117599994 0.35739997 V 0.32559997 H 0.1226 C 0.1256 0.32559997 0.12799999 0.32319996 0.12799999 0.32019997 V 0.26779997 C 0.12799999 0.26479998 0.1256 0.26239997 0.12259999 0.26239997 H 0.11759999 V 0.24379997 C 0.11809999 0.24389997 0.11849999 0.24399997 0.11899999 0.24399997 H 0.12259999 C 0.1256 0.24399997 0.12799999 0.24159998 0.12799999 0.23859997 V 0.15829997 C 0.12799999 0.15699996 0.12759998 0.15579997 0.12669998 0.15479997 L 0.11759999 0.14399996 V -0.03440003 L 0.12669998 -0.04520003 C 0.12749998 -0.04620003 0.12799999 -0.04740003 0.12799999 -0.04870003 V -0.12900004 C 0.12799999 -0.13200004 0.1256 -0.13440004 0.12259999 -0.13440004 H 0.1192 C 0.1187 -0.13440004 0.1182 -0.13430004 0.1178 -0.13420004 V -0.15300004 H 0.1228 Z"/>
<path id="e2" d="M -0.0822 -0.2161 H -0.107 V -0.24980001 C -0.107 -0.25530002 -0.1014 -0.2597 -0.0946 -0.2597 C -0.0946 -0.2597 -0.0946 -0.2597 -0.0946 -0.2597 C -0.087799996 -0.2597 -0.0822 -0.2553 -0.0822 -0.2498 V -0.2161 Z M -0.0822 0.3255 H -0.107 V 0.3573 C -0.107 0.36380002 -0.1014 0.3691 -0.0946 0.3691 C -0.0946 0.3691 -0.0946 0.3691 -0.0946 0.3691 C -0.087799996 0.3691 -0.0822 0.36380002 -0.0822 0.3573 H -0.081999995 C -0.0821 0.3562 -0.0822 0.3551 -0.0822 0.354 V 0.3255 Z M -0.0715 0.354 C -0.0715 0.36270002 -0.0639 0.3698 -0.054500002 0.3698 S -0.0375 0.36270002 -0.0375 0.354 V 0.3255 H -0.0715 V 0.354 Z M -0.0147 0.3785 V 0.4576 C -0.0138 0.4633 -0.008400001 0.4678 -0.0016999999 0.4685 C 0.0065 0.4693 0.0136 0.4644 0.0146 0.4576 V 0.37849998 C 0.010100001 0.38009998 0.0051000006 0.3811 -9.999983E-5 0.3811 S -0.0101 0.3801 -0.0147 0.3785 Z M -0.0715 -0.0807 L -0.0375 -0.040400002 V -0.153 H -0.0715 V -0.0807 Z M -0.0715 0.2623 H -0.0375 V 0.15 L -0.0715 0.1903 V 0.2623 Z M -0.0545 -0.2607 C -0.0639 -0.2607 -0.0715 -0.2541 -0.0715 -0.24599999 V -0.21609999 H -0.0375 V -0.24599999 C -0.0375 -0.2541 -0.0452 -0.2607 -0.0545 -0.2607 Z M 0.0147 -0.3434 L 0.0447 -0.3434 V -0.3989 H 0.0147 H -0.0095 C -0.0112 -0.3989 -0.0128999995 -0.399 -0.014599999 -0.399 C -0.0698 -0.401 -0.1013 -0.42819998 -0.12619999 -0.45909998 C -0.1389 -0.4326 -0.1431 -0.41439998 -0.14379999 -0.38619998 C -0.14289999 -0.35359997 -0.13949999 -0.33349997 -0.12159999 -0.2997 C -0.089799985 -0.3303 -0.058599986 -0.3427 -0.01259999 -0.3434 H 0.0147 Z M 0.0147 -0.4097 V -0.43760002 C 0.0138 -0.4433 0.008400001 -0.4478 0.0016999999 -0.4485 C -0.0065 -0.44930002 -0.0136 -0.4444 -0.0146 -0.43760002 V -0.40980002 C -0.0129 -0.40970004 -0.0112000005 -0.40970004 -0.009400001 -0.40970004 H 0.0147 Z M -0.0147 -0.2695 C -0.0102 -0.2712 -0.0053000003 -0.2722 0.0 -0.2722 S 0.0101 -0.2712 0.0147 -0.2695 V -0.33269998 H -0.0126 C -0.0133 -0.33269998 -0.0139 -0.3326 -0.0146 -0.3326 V -0.2695 Z M -0.0822 0.0078 L -0.107 -0.0217 V 0.1312 L -0.0822 0.1018 V 0.0078 Z M -0.0715 0.0205 V 0.0891 L -0.042600006 0.054800004 L -0.0715 0.0205 Z M -0.107 0.2623 H -0.0822 V 0.203 L -0.107 0.2324 V 0.2623 Z M -0.0822 -0.153 H -0.107 V -0.122899994 L -0.0822 -0.093499996 V -0.153 Z M 0.0822 0.354 C 0.0822 0.3551 0.0821 0.3562 0.081999995 0.3573 H 0.0822 C 0.0822 0.36380002 0.087799996 0.3691 0.0946 0.3691 C 0.0946 0.3691 0.0946 0.3691 0.0946 0.3691 C 0.1014 0.3691 0.107 0.36380002 0.107 0.3573 V 0.3255 H 0.0822 V 0.354 Z M 0.0822 0.2623 H 0.107 V 0.2325 L 0.0822 0.203 V 0.2623 Z M 0.0545 -0.2607 C 0.0451 -0.2607 0.037499998 -0.2541 0.037499998 -0.24599999 V -0.21609999 H 0.0715 V -0.24599999 C 0.0715 -0.2541 0.0639 -0.2607 0.0545 -0.2607 Z M 0.0946 -0.2597 C 0.0946 -0.2597 0.0946 -0.2597 0.0946 -0.2597 C 0.087799996 -0.2597 0.0822 -0.2553 0.0822 -0.2498 V -0.21609999 H 0.107 V -0.2498 C 0.107 -0.2553 0.1015 -0.2597 0.0946 -0.2597 Z M 0.0375 -0.0404 L 0.0715 -0.0807 V -0.15290001 H 0.0375 V -0.0404 Z M 0.0822 0.1018 L 0.107 0.1312 V -0.0217 L 0.0822 0.0078 V 0.1018 Z M 0.0822 -0.0935 L 0.107 -0.1229 V -0.153 H 0.0822 V -0.0935 Z M 0.0375 0.354 C 0.0375 0.36270002 0.045100003 0.3698 0.054500002 0.3698 S 0.0715 0.3627 0.0715 0.354 V 0.3255 H 0.0375 V 0.354 Z M -0.0147 -0.153 H -0.0269 V -0.027699992 L 0.0 0.0042 L 0.0268 -0.027600002 V -0.15290001 H 0.014599999 H -0.0147 Z M -0.0268 0.1372 V 0.2623 H -0.014599999 H 0.014700001 H 0.0269 V 0.1372 L 0.0 0.1054 L -0.0268 0.1372 Z M 0.0116 -0.2592 C 0.0114 -0.2593 0.011299999 -0.2593 0.0112 -0.2594 C 0.0101 -0.25980002 0.009 -0.26020002 0.0078 -0.2605 C 0.0078 -0.2605 0.0077 -0.2605 0.0077 -0.2605 C 0.0066 -0.2608 0.0055 -0.261 0.0044 -0.26110002 C 0.0041 -0.26110002 0.0038 -0.2612 0.0036 -0.2612 C 0.0023999999 -0.2613 0.0011999998 -0.2614 0.0 -0.2614 S -0.0024 -0.26130003 -0.0036 -0.2612 C -0.0039 -0.2612 -0.0042 -0.26110002 -0.0044 -0.26110002 C -0.0055 -0.26090002 -0.0066 -0.26070002 -0.0077 -0.2605 C -0.0077 -0.2605 -0.0078 -0.2605 -0.0078 -0.2605 C -0.009 -0.26020002 -0.0101 -0.25980002 -0.0112 -0.2594 C -0.011399999 -0.25930002 -0.0115 -0.25930002 -0.0116 -0.2592 C -0.020599999 -0.2556 -0.0268 -0.24810001 -0.0268 -0.23930001 V -0.2161 H -0.014599999 H 0.014700001 H 0.0269 V -0.23930001 C 0.0268 -0.2481 0.0206 -0.2557 0.0116 -0.2592 Z M 0.0375 0.2623 H 0.0715 V 0.1903 L 0.0375 0.15 V 0.2623 Z M 0.0715 0.0891 V 0.0205 L 0.0426 0.0548 L 0.0715 0.0891 Z M -0.0147 0.3255 H -0.0269 V 0.3495 C -0.0269 0.3568 -0.022100002 0.3632 -0.014700001 0.3669 C -0.014700001 0.3669 -0.014700001 0.3669 -0.014700001 0.3669 C -0.013700001 0.3674 -0.012700001 0.3678 -0.011600001 0.3682 C -0.011500001 0.3683 -0.0113 0.3683 -0.0112000005 0.3684 C -0.010100001 0.3688 -0.009000001 0.3691 -0.0078000007 0.3694 C -0.0078000007 0.3694 -0.0078000007 0.3694 -0.007700001 0.3694 C -0.006600001 0.36969998 -0.005500001 0.3698 -0.004400001 0.37 C -0.004100001 0.37 -0.003800001 0.3701 -0.0036000009 0.3701 C -0.0024000008 0.37019998 -0.0012000008 0.3703 -9.313226E-10 0.3703 C 0.0011999991 0.3703 0.0023999992 0.3702 0.003599999 0.3701 C 0.003899999 0.3701 0.004199999 0.37 0.004399999 0.37 C 0.005499999 0.36990002 0.006599999 0.3697 0.007699999 0.3694 C 0.007699999 0.3694 0.007799999 0.3694 0.007799999 0.3694 C 0.008999999 0.3691 0.010099999 0.36879998 0.011199999 0.3684 C 0.011399998 0.36830002 0.011499999 0.36830002 0.011699999 0.3682 C 0.012799999 0.3678 0.013799999 0.3674 0.014799999 0.3669 C 0.014799999 0.3669 0.014799999 0.3669 0.014799999 0.3669 C 0.0221 0.3632 0.026999999 0.3567 0.026999999 0.3495 V 0.3255 H 0.014799999 H -0.0147 Z"/>
<path id="e3" d="M -0.1174 0.273 H 0.1174 V 0.3147 H -0.1174 V 0.273 Z M -0.0356 0.0631 L -0.1174 0.1602 V 0.2281 L -0.0069999993 0.097 L -0.0356 0.0631 Z M 0.0356 0.0465 L 0.1174 -0.0506 V -0.1185 L 0.007 0.0125 L 0.0356 0.0465 Z M -0.1174 -0.2054 V -0.1637 H 0.1174 V -0.2054 H -0.1174 Z M -0.1174 -0.0506 L 0.1174 0.22820002 V 0.1602 L -0.1174 -0.11860001 V -0.0506 Z"/>
<linearGradient id="glaze" x1="0%" y1="0%" x2="100%" y2="100%">
<stop offset="0%" stop-color="rgb(255,255,255)" stop-opacity="0.2"/>
<stop offset="49.999%" stop-color="rgb(255,255,255)" stop-opacity="0.0"/>
<stop offset="50.001%" stop-color="rgb(0,0,0)" stop-opacity="0.0"/>
<stop offset="100%" stop-color="rgb(0,0,0)" stop-opacity="0.2"/>
</linearGradient>
</defs>
<g>
<rect x="0" y="0" width="576" height="396" class="green"/>
<use xlink:href="#e1" transform="translate(288 198) scale(396 396) rotate(0)" class="black"/>
<use xlink:href="#e2" transform="translate(288 198) scale(396 396) rotate(0)" class="white"/>
<use xlink:href="#e3" transform="translate(288 198) scale(396 396) rotate(0)" class="green"/>
</g>
<g>
<rect x="0" y="0" width="576" height="396" fill="url(#glaze)"/>
<path d="M 36 36 L 540 36 L 540 360 L 36 360 Z M 72 72 L 72 324 L 504 324 L 504 72 Z" fill="rgb(255,255,255)" opacity="0.4"/>
<path d="M 0 0 L 576 0 L 576 396 L 0 396 Z M 36 36 L 36 360 L 540 360 L 540 36 Z" fill="rgb(0,0,0)" opacity="0.4"/>
</g>
</svg>
