<?xml version="1.0"?>
<svg xmlns="http://www.w3.org/2000/svg" xmlns:xlink="http://www.w3.org/1999/xlink" version="1.1" width="576" height="396" viewBox="0 0 576 396">
<!-- Generated by Kreative Vexillo v1.0 -->
<style>
.blue{fill:rgb(0,36,136);}
.green{fill:rgb(0,128,0);}
.red{fill:rgb(218,18,26);}
.yellow{fill:rgb(252,221,9);}
</style>
<defs>
<path id="cane" d="M 0.7166 0.2925 C 0.7199 0.29369998 0.7228 0.29479998 0.7252 0.29569998 L 0.7167 0.31249997 C 0.6957 0.30729997 0.6024 0.26929998 0.5226 0.23649997 C 0.4428 0.20369996 0.3295 0.16209996 0.3081 0.14999998 C 0.29169998 0.14069998 0.2929 0.13229997 0.31269997 0.13889998 C 0.32669997 0.14359999 0.36909997 0.16129997 0.41199997 0.17889997 C 0.44829997 0.19159998 0.49249998 0.20659998 0.53839993 0.22179997 C 0.64049995 0.25519997 0.72379994 0.28579998 0.72379994 0.28919998 C 0.7239 0.2916 0.7216 0.2927 0.7166 0.2925 Z M 0.7072 0.31 C 0.7023 0.3086 0.6544 0.2912 0.601 0.2718 C 0.5191 0.24190001 0.4781 0.2266 0.4038 0.1967 C 0.39760002 0.1946 0.3955 0.19600001 0.39830002 0.2002 C 0.39850003 0.20050001 0.39910004 0.201 0.4002 0.2016 C 0.3572 0.1822 0.3142 0.1624 0.3001 0.15709999 C 0.2804 0.14979999 0.27899998 0.1581 0.2951 0.168 C 0.3161 0.18079999 0.4278 0.2264 0.5064 0.262 C 0.585 0.2976 0.677 0.3387 0.6978 0.34469998 L 0.7069 0.32819998 C 0.699 0.325 0.6865 0.32 0.6711 0.31379998 C 0.68420005 0.31859997 0.6945 0.32219997 0.7005 0.32399997 C 0.7163 0.3287 0.7232 0.3155 0.7072 0.31 Z M -0.6434 -0.2779 C -0.6108 -0.25570002 -0.5823 -0.23830001 -0.5809 -0.23970002 C -0.5781 -0.24320002 -0.7406 -0.3941 -0.75170004 -0.39820004 C -0.7559 -0.39960003 -0.74680007 -0.38220003 -0.73090005 -0.35930005 C -0.7108 -0.3294 -0.6879 -0.3078 -0.6434 -0.2779 Z M -0.2688 -0.1872 C -0.2785 -0.1875 -0.2978 -0.19309999 -0.3128 -0.20009999 C -0.32009998 -0.20329998 -0.3265 -0.20719999 -0.3315 -0.21109998 C -0.33679998 -0.21089998 -0.3427 -0.21089998 -0.34939998 -0.21099998 C -0.34269997 -0.20789999 -0.3354 -0.20489998 -0.32869998 -0.20269997 C -0.29349998 -0.18989998 -0.2819 -0.17899998 -0.30709997 -0.18079998 C -0.34139997 -0.18379998 -0.36769998 -0.19509998 -0.37769997 -0.21189998 C -0.38009998 -0.21199998 -0.38259998 -0.21209998 -0.38509998 -0.21229999 C -0.39139998 -0.2127 -0.3972 -0.21299998 -0.40269998 -0.21329999 C -0.40199998 -0.2128 -0.40129998 -0.21219999 -0.40069997 -0.21159999 C -0.39579996 -0.20599999 -0.38399997 -0.19839999 -0.37499997 -0.19349998 C -0.37289998 -0.19229998 -0.37099996 -0.19099998 -0.36919996 -0.18979998 C -0.36479998 -0.18779998 -0.36049995 -0.18569998 -0.35639995 -0.18369998 C -0.35359997 -0.18319999 -0.35119995 -0.18239997 -0.34939995 -0.18129998 C -0.34449995 -0.17819999 -0.34159994 -0.17639999 -0.34099996 -0.17519999 C -0.33419997 -0.17099999 -0.32989997 -0.16749999 -0.32999995 -0.16549999 C -0.32999995 -0.16279998 -0.34479997 -0.16569999 -0.36479995 -0.17119999 C -0.37319994 -0.1695 -0.38349995 -0.1663 -0.39249995 -0.1625 C -0.37999997 -0.1567 -0.36669996 -0.15089999 -0.35299996 -0.14549999 C -0.31969994 -0.13299999 -0.30789995 -0.12529999 -0.31549996 -0.12259999 C -0.32329997 -0.11949999 -0.36489996 -0.13679999 -0.40379995 -0.15689999 C -0.40519994 -0.15569998 -0.40689996 -0.15429999 -0.40869996 -0.1528 C -0.40439996 -0.1513 -0.39979997 -0.1488 -0.39629996 -0.14549999 C -0.39139995 -0.13989998 -0.37959996 -0.13229999 -0.37059996 -0.12739998 C -0.36959997 -0.12679999 -0.36859995 -0.12619998 -0.36769995 -0.12559998 C -0.35859996 -0.12319998 -0.35159996 -0.12009998 -0.35019994 -0.11769998 C -0.34399995 -0.10799998 -0.41409993 -0.10869998 -0.43209994 -0.11839998 C -0.43299994 -0.11889998 -0.43409994 -0.11949998 -0.43519995 -0.119999975 L -0.43709993 -0.119599976 C -0.44199994 -0.11859997 -0.44809994 -0.11799998 -0.45479992 -0.11789998 C -0.4697999 -0.10569998 -0.47979993 -0.09479998 -0.4857999 -0.08319998 C -0.4848999 -0.08339998 -0.4840999 -0.08369998 -0.4831999 -0.083899975 C -0.4213999 -0.10129997 -0.3991999 -0.104099974 -0.3935999 -0.09499998 C -0.3914999 -0.09149998 -0.4025999 -0.08669998 -0.4192999 -0.08459998 C -0.4454999 -0.08039998 -0.4698999 -0.07539998 -0.4907999 -0.07019998 C -0.4919999 -0.06569998 -0.4927999 -0.06089998 -0.4930999 -0.055799983 C -0.4751999 -0.06889998 -0.4519999 -0.07109998 -0.4153999 -0.06449998 C -0.40649992 -0.06309998 -0.39569992 -0.059899982 -0.38529992 -0.05589998 C -0.35959992 -0.06379998 -0.32679993 -0.067299984 -0.32679993 -0.06109998 C -0.32679993 -0.05989998 -0.34279993 -0.05349998 -0.36419994 -0.04639998 C -0.35309994 -0.04049998 -0.34569994 -0.03489998 -0.34759992 -0.03219998 C -0.34819993 -0.03129998 -0.36349994 -0.03449998 -0.38359994 -0.04009998 C -0.43289995 -0.02319998 -0.44889992 -0.0072999783 -0.45739993 0.03340002 L -0.46429995 0.06470002 L -0.46499994 0.031300023 C -0.46569994 -0.0057999752 -0.45109993 -0.026499975 -0.40769994 -0.046999976 C -0.44799995 -0.05769998 -0.47009993 -0.056699976 -0.49299994 -0.040199976 C -0.49279994 -0.037899975 -0.49259993 -0.035499975 -0.49239993 -0.032999977 L -0.48939994 -0.0010999776 L -0.50039995 -0.03259998 C -0.5005999 -0.03309998 -0.50069994 -0.033599976 -0.5009 -0.034099977 C -0.5035 -0.031899977 -0.5061 -0.029599978 -0.50879997 -0.026899979 L -0.53199995 -0.004799979 L -0.5138999 -0.03289998 C -0.51079994 -0.03779998 -0.50749993 -0.04199998 -0.5040999 -0.045799978 C -0.5055999 -0.052999977 -0.5060999 -0.059799977 -0.5054999 -0.06639998 C -0.5316999 -0.059099976 -0.5502999 -0.051599976 -0.5568999 -0.044999976 C -0.5637999 -0.037999976 -0.5700999 -0.021399975 -0.5707999 -0.009499975 C -0.5714999 0.012100026 -0.5714999 0.012700025 -0.5769999 -0.0038999747 C -0.5898999 -0.04449998 -0.5811999 -0.055799976 -0.5030999 -0.07829998 C -0.4990999 -0.09149998 -0.4902999 -0.10439998 -0.4758999 -0.11889998 C -0.4820999 -0.119599976 -0.48799992 -0.12069998 -0.4928999 -0.12219998 C -0.4939999 -0.12249998 -0.4951999 -0.12289998 -0.4963999 -0.123299986 L -0.5069999 -0.11779998 C -0.5166999 -0.11289998 -0.5416999 -0.10459998 -0.5625999 -0.09969998 S -0.6062999 -0.08649998 -0.6125999 -0.08019998 C -0.6201999 -0.07389998 -0.6250999 -0.07319998 -0.6250999 -0.07739998 C -0.6250999 -0.08709998 -0.6153999 -0.09339998 -0.5694999 -0.11149998 C -0.5486999 -0.11909998 -0.5215999 -0.12609997 -0.5104999 -0.12679999 H -0.5067999 C -0.51209986 -0.12869999 -0.5175999 -0.13069999 -0.52349985 -0.13299999 C -0.53079987 -0.13369998 -0.53819984 -0.13439998 -0.54539984 -0.13499999 C -0.60719985 -0.1406 -0.6328998 -0.13149999 -0.6411998 -0.10159999 C -0.6432998 -0.093899995 -0.6467998 -0.08839999 -0.64879984 -0.091199994 C -0.6508998 -0.09329999 -0.64949983 -0.1037 -0.64529985 -0.114099994 S -0.63909984 -0.13499999 -0.6403999 -0.1364 C -0.64599985 -0.142 -0.7028999 -0.1253 -0.70849985 -0.1162 C -0.71199983 -0.1106 -0.7147998 -0.1099 -0.7147998 -0.1148 C -0.7147998 -0.1273 -0.69879985 -0.13769999 -0.6689998 -0.14469999 C -0.6487998 -0.1495 -0.60849977 -0.15179999 -0.56679976 -0.15179999 C -0.58819973 -0.1618 -0.61019975 -0.173 -0.63039976 -0.18419999 C -0.64829975 -0.18599999 -0.66379976 -0.1871 -0.67449975 -0.1871 C -0.71409976 -0.1871 -0.72449976 -0.18149999 -0.7306998 -0.15579998 C -0.73419976 -0.14189999 -0.73419976 -0.14189999 -0.73489976 -0.15579998 C -0.73629975 -0.18429999 -0.72449976 -0.19049999 -0.65469974 -0.19819999 C -0.67129976 -0.2082 -0.68529975 -0.21759999 -0.6950997 -0.22569999 C -0.6972997 -0.2259 -0.6994997 -0.22629999 -0.7014997 -0.2268 L -0.7222997 -0.2303 L -0.7061997 -0.2355 C -0.7209997 -0.2489 -0.7265997 -0.2556 -0.71819973 -0.2502 C -0.71389973 -0.2474 -0.7068997 -0.2429 -0.6989997 -0.2379 L -0.69449973 -0.2394 C -0.6767997 -0.2448 -0.66719973 -0.2474 -0.6595997 -0.2476 C -0.6597997 -0.24790001 -0.6598997 -0.2481 -0.6599997 -0.2484 C -0.72049975 -0.2674 -0.78619975 -0.2852 -0.8326997 -0.2937 C -0.8479997 -0.2965 -0.8472997 -0.2965 -0.82849973 -0.29790002 C -0.8114997 -0.29850003 -0.7525997 -0.28530002 -0.68879974 -0.26850003 C -0.70319974 -0.27460003 -0.7162997 -0.28130004 -0.7213997 -0.28610003 C -0.72899973 -0.29310003 -0.75059974 -0.30560002 -0.76859975 -0.31390002 C -0.7866998 -0.32220003 -0.80119973 -0.32990003 -0.80119973 -0.33130002 C -0.80119973 -0.33620003 -0.79979974 -0.33620003 -0.75679976 -0.32090002 C -0.7515997 -0.31910002 -0.74519974 -0.3165 -0.7381998 -0.31340003 C -0.74489975 -0.31840003 -0.75029975 -0.32300004 -0.75279975 -0.32650003 C -0.7590997 -0.33470002 -0.7780998 -0.35070002 -0.79449975 -0.36210003 C -0.8107998 -0.37350005 -0.82389975 -0.38350004 -0.82359976 -0.38490003 C -0.82279974 -0.38970003 -0.82139975 -0.38950002 -0.78159976 -0.36690003 C -0.7493998 -0.34900004 -0.67489976 -0.28890002 -0.67459977 -0.28100002 C -0.6519998 -0.26810002 -0.6347998 -0.25680003 -0.6365998 -0.2544 C -0.6219998 -0.25030002 -0.60779977 -0.24610001 -0.5941998 -0.24200001 C -0.59629977 -0.2469 -0.59299976 -0.24610001 -0.58399975 -0.23890002 C -0.5370998 -0.22450002 -0.50099975 -0.21160002 -0.49569976 -0.20560002 C -0.48839977 -0.19770002 -0.45319977 -0.17350003 -0.42449975 -0.15630002 C -0.42019975 -0.15840003 -0.41609976 -0.16030002 -0.41249976 -0.16170003 C -0.41249976 -0.16180003 -0.41239977 -0.16180003 -0.41239977 -0.16180003 C -0.43219978 -0.17240003 -0.45049977 -0.18330003 -0.46239978 -0.19230002 C -0.4737998 -0.20120002 -0.48349977 -0.21240002 -0.4850998 -0.21800002 C -0.4854998 -0.21820003 -0.4859998 -0.21840003 -0.4863998 -0.21870002 L -0.5003998 -0.22080003 C -0.5149998 -0.22290003 -0.53859985 -0.23260003 -0.55179983 -0.24240002 C -0.60039985 -0.27860004 -0.6878998 -0.37310004 -0.7093998 -0.41410002 C -0.7218998 -0.43700004 -0.72679985 -0.4489 -0.7197998 -0.43980002 C -0.71349984 -0.43150002 -0.6989998 -0.41270003 -0.6885998 -0.39810002 C -0.6503998 -0.34800002 -0.6198998 -0.3133 -0.61289984 -0.3133 C -0.60939986 -0.3133 -0.6163998 -0.3251 -0.6274998 -0.3397 C -0.6392998 -0.35360003 -0.6531998 -0.3793 -0.6593998 -0.39670002 C -0.6718998 -0.4329 -0.6697998 -0.43080002 -0.62469983 -0.36540002 C -0.5829998 -0.30560002 -0.5246998 -0.23680001 -0.51569986 -0.23680001 C -0.5121999 -0.23680001 -0.52609986 -0.25700003 -0.54759985 -0.2813 C -0.56909984 -0.30490002 -0.59129983 -0.33830002 -0.59689987 -0.35500002 C -0.61149985 -0.39670002 -0.60939986 -0.40510002 -0.5919999 -0.37240002 C -0.5759999 -0.34250003 -0.5259999 -0.27440003 -0.4933999 -0.23890002 L -0.48129988 -0.22550002 C -0.48069987 -0.22530001 -0.4800999 -0.22510001 -0.47959986 -0.22490002 C -0.47689986 -0.22600003 -0.47319987 -0.22680002 -0.46859986 -0.22750002 C -0.48429987 -0.24250002 -0.52129984 -0.29440004 -0.52129984 -0.30330002 C -0.52129984 -0.31090003 -0.51629984 -0.3061 -0.48269984 -0.26020002 C -0.47259983 -0.24660002 -0.46539983 -0.23460002 -0.46289983 -0.22820002 C -0.44799984 -0.22970001 -0.42629984 -0.22970001 -0.39899984 -0.22810002 C -0.40449983 -0.23140001 -0.40969983 -0.23640002 -0.41439983 -0.24300002 C -0.43039984 -0.26520002 -0.45749983 -0.3181 -0.45749983 -0.3257 C -0.45749983 -0.3285 -0.44849983 -0.3201 -0.43809983 -0.30690002 C -0.42769983 -0.29370004 -0.40749982 -0.26940003 -0.39229983 -0.25340003 C -0.37749982 -0.23660003 -0.37099984 -0.22930002 -0.37119985 -0.22610003 C -0.36479986 -0.22560003 -0.35829985 -0.22490002 -0.35149986 -0.22430003 C -0.34909984 -0.22410002 -0.34689987 -0.22390002 -0.34469986 -0.22370003 C -0.36019987 -0.23260003 -0.39709985 -0.29910004 -0.40629986 -0.33610004 C -0.40909985 -0.34720004 -0.40769985 -0.35420004 -0.40279984 -0.35420004 C -0.39859983 -0.35420004 -0.39519984 -0.34860003 -0.39519984 -0.34100002 C -0.39519984 -0.3271 -0.35769984 -0.25340003 -0.34029984 -0.23320001 C -0.33989984 -0.2328 -0.33959985 -0.23240001 -0.33929986 -0.23210001 C -0.33709985 -0.2309 -0.33329985 -0.22780001 -0.32709986 -0.22270001 C -0.32659987 -0.22230001 -0.32599986 -0.22190002 -0.32539985 -0.22140001 C -0.30319986 -0.21810001 -0.29979986 -0.2148 -0.31169984 -0.21290001 C -0.30239984 -0.20770001 -0.29129985 -0.20220001 -0.28139985 -0.19830002 C -0.2604 -0.1896 -0.2573 -0.1868 -0.2688 -0.1872 Z M -0.4193 -0.1443 C -0.41939998 -0.1443 -0.4195 -0.1444 -0.41959998 -0.1444 C -0.42209998 -0.1425 -0.42479998 -0.1405 -0.42759997 -0.1384 C -0.41869998 -0.13620001 -0.40949997 -0.134 -0.40119997 -0.1322 C -0.4088 -0.1365 -0.4155 -0.1408 -0.4193 -0.1443 Z M -0.6275 -0.2298 C -0.6225 -0.23020001 -0.6173 -0.2304 -0.6119 -0.23020001 C -0.60929996 -0.2301 -0.607 -0.2301 -0.6048 -0.23 C -0.6142 -0.2333 -0.624 -0.23660001 -0.63409996 -0.23990001 C -0.62759995 -0.2369 -0.62799996 -0.2361 -0.63629997 -0.23590001 C -0.6335 -0.234 -0.6306 -0.232 -0.6275 -0.2298 Z M -0.6459 -0.2149 C -0.6523 -0.2139 -0.6571 -0.2131 -0.6606 -0.2128 C -0.6534 -0.2083 -0.6465 -0.204 -0.64 -0.20009999 C -0.6321 -0.20099999 -0.6246 -0.20159999 -0.61759996 -0.2021 C -0.62329996 -0.2067 -0.6289 -0.21169999 -0.63399994 -0.21669999 C -0.6382 -0.216 -0.6423 -0.2154 -0.6459 -0.2149 Z M -0.589 -0.2028 C -0.5839 -0.2026 -0.5805 -0.202 -0.57949996 -0.201 C -0.57589996 -0.1985 -0.5638 -0.1946 -0.55009997 -0.1909 C -0.5606 -0.199 -0.5692 -0.2067 -0.57379997 -0.2125 C -0.57649994 -0.2158 -0.57879996 -0.2187 -0.581 -0.22150001 C -0.58449996 -0.22280002 -0.58809996 -0.22410001 -0.59169996 -0.22540002 C -0.5933 -0.22490002 -0.5951 -0.22440001 -0.5972 -0.22390002 C -0.6015 -0.22280002 -0.6074 -0.22160003 -0.61389995 -0.22030002 C -0.61059994 -0.21800002 -0.60709995 -0.21550001 -0.60339993 -0.21290001 C -0.5988 -0.2095 -0.5939 -0.2062 -0.589 -0.2028 Z M -0.5411 -0.172 C -0.5278 -0.1638 -0.51500005 -0.15630001 -0.5036 -0.15 C -0.4959 -0.14950001 -0.4884 -0.1489 -0.4815 -0.1483 C -0.4876 -0.15200001 -0.4947 -0.1561 -0.5023 -0.1603 C -0.5066 -0.1625 -0.5109 -0.165 -0.51530004 -0.1676 C -0.5237 -0.169 -0.5323 -0.1705 -0.5411 -0.172 Z M -0.4615 -0.1559 C -0.4646 -0.1567 -0.46789998 -0.1575 -0.4714 -0.1584 C -0.4626 -0.1531 -0.45409998 -0.1482 -0.44619998 -0.1439 C -0.4434 -0.14580001 -0.44039997 -0.14760001 -0.43749997 -0.14930001 C -0.4444 -0.1511 -0.4523 -0.1533 -0.4615 -0.1559 Z M -0.5477 -0.2088 C -0.5362 -0.20040001 -0.52279997 -0.1912 -0.509 -0.18200001 C -0.5055 -0.1816 -0.5031 -0.1816 -0.5025 -0.18220001 C -0.4982 -0.1863 -0.5167 -0.1963 -0.5477 -0.2088 Z M -0.6747 -0.2217 C -0.6717 -0.2198 -0.6688 -0.2179 -0.6659 -0.21609999 C -0.6646 -0.2173 -0.6628 -0.21869999 -0.6605 -0.22049999 C -0.6569 -0.2232 -0.6511 -0.22559999 -0.6441 -0.22729999 C -0.6451 -0.22839999 -0.646 -0.2294 -0.6468 -0.23049998 C -0.648 -0.23199998 -0.64919996 -0.23339999 -0.6502 -0.23469998 C -0.6573 -0.23339997 -0.6646 -0.23139998 -0.669 -0.22899997 C -0.67190003 -0.22759998 -0.6761 -0.22649997 -0.6808 -0.22589998 C -0.6787 -0.2244 -0.6767 -0.223 -0.6747 -0.2217 Z M -0.584 -0.1785 C -0.5922 -0.1796 -0.6004 -0.1807 -0.6082 -0.18169999 C -0.5901 -0.17189999 -0.5779 -0.16669999 -0.57460004 -0.1679 C -0.5724 -0.1687 -0.5765 -0.1729 -0.584 -0.1785 Z M -0.3883 -0.178 C -0.4156 -0.1865 -0.44550002 -0.1974 -0.4615 -0.2055 C -0.4624 -0.206 -0.4633 -0.2064 -0.4642 -0.20680001 C -0.4597 -0.19870001 -0.4362 -0.18370001 -0.4051 -0.16830002 C -0.4002 -0.1719 -0.3944 -0.1753 -0.3883 -0.178 Z M -0.4266 -0.2141 C -0.43690002 -0.21440001 -0.44500002 -0.2143 -0.451 -0.2139 C -0.438 -0.2095 -0.42450002 -0.2059 -0.4159 -0.2046 C -0.4211 -0.2081 -0.42499998 -0.2113 -0.4263 -0.21350001 C -0.4265 -0.2138 -0.4265 -0.2139 -0.4266 -0.2141 Z M -0.4274 -0.2294 C -0.4218 -0.2315 -0.4343 -0.2516 -0.4614 -0.2843 C -0.4857 -0.3128 -0.5065 -0.3378 -0.5086 -0.3399 S -0.503 -0.32669997 -0.4919 -0.3065 C -0.4656 -0.2579 -0.4385 -0.2259 -0.4274 -0.2294 Z M -0.706 -0.262 C -0.7352 -0.271 -0.7643 -0.269 -0.78029996 -0.2564 C -0.78859997 -0.2501 -0.7977 -0.2355 -0.79969996 -0.22369999 C -0.80389994 -0.20349999 -0.80389994 -0.20349999 -0.79279995 -0.21669999 C -0.76359993 -0.2536 -0.76159996 -0.25489998 -0.7254 -0.25559998 C -0.6963 -0.2565 -0.6921 -0.2579 -0.706 -0.262 Z M -0.3813 -0.0104 C -0.3896 -0.0104 -0.4021 -0.0021000002 -0.4105 0.009799999 C -0.4188 0.0209 -0.4251 0.035499997 -0.4251 0.043199997 C -0.4251 0.052199997 -0.42159998 0.050199997 -0.41189998 0.034199998 C -0.40429997 0.021699999 -0.3911 0.0070999973 -0.3827 7.9999864E-4 C -0.3667 -0.0104 -0.3667 -0.0104 -0.3813 -0.0104 Z M 0.3438 0.1116 C 0.3233 0.107099995 0.323 0.1156 0.3403 0.1231 C 0.3629 0.1329 0.4798 0.16239999 0.5626 0.1867 C 0.64540005 0.211 0.7422 0.2389 0.7636 0.2419 L 0.7703 0.2243 C 0.729 0.2138 0.566 0.17539999 0.5006 0.1566 C 0.4442 0.1408 0.3643 0.1161 0.3438 0.1116 Z M 0.516 0.1336 C 0.45909998 0.119799994 0.37829995 0.097899996 0.3577 0.0941 C 0.3371 0.0903 0.3371 0.098799996 0.35459998 0.1057 C 0.3775 0.114700004 0.49539998 0.1401 0.579 0.1615 C 0.6626 0.18290001 0.7603 0.20740001 0.78180003 0.2097 L 0.78790003 0.1919 C 0.7462 0.1828 0.582 0.1502 0.516 0.1336 Z M 0.3263 0.1244 C 0.3061 0.1188 0.30539998 0.1273 0.3222 0.1357 C 0.34420002 0.1467 0.4595 0.1823 0.5409 0.21090001 C 0.62229997 0.23950002 0.7175 0.2725 0.7387 0.2766 L 0.7463 0.2594 C 0.70559996 0.2467 0.5448 0.19980001 0.48049998 0.17760001 C 0.4251 0.1588 0.3465 0.13 0.3263 0.1244 Z M 0.2856 0.1736 C 0.2664 0.16520001 0.26450002 0.1735 0.28 0.1842 C 0.3003 0.1981 0.4095 0.2495 0.48610002 0.2891 C 0.56270003 0.3287 0.6524 0.3747 0.6729 0.38169998 L 0.6828 0.36569998 C 0.64419997 0.34749997 0.49159998 0.2787 0.431 0.24769998 C 0.3787 0.2215 0.3049 0.182 0.2856 0.1736 Z"/>
<path id="fleur" d="M -0.2068 -0.1475 C -0.12900001 -0.114099994 -0.0822 -0.021699995 -0.056700006 0.105600014 C -0.052000005 0.12950002 -0.050800007 0.13790001 -0.048500005 0.16490002 C -0.0653 0.16500002 -0.0719 0.16510002 -0.08840001 0.16500002 C -0.09200001 0.14690003 -0.09460001 0.13730001 -0.10250001 0.11160003 C -0.1339 0.012100026 -0.2263 -0.027799979 -0.2222 0.065300025 C -0.22080001 0.09100002 -0.21000001 0.105400026 -0.19790001 0.11920002 C -0.21280001 0.11550002 -0.24450001 0.10070002 -0.2702 0.08610002 C -0.4132 -2.0E-4 -0.3568 -0.2115 -0.2068 -0.1475 L -0.2068 -0.1475 Z M -0.063 -0.4038 C -0.1179 -0.3132 -0.12450001 -0.2407 -0.087 -0.11560002 C -0.0689 -0.0572 -0.0491 0.03 -0.0408 0.0773 C -0.029700002 0.144 -0.030800002 0.1504 -0.0293 0.1649 C -0.015400001 0.1649 0.016199999 0.165 0.030699998 0.1649 C 0.032799996 0.1418 0.0345 0.115100004 0.039399996 0.07840001 C 0.045099996 0.035600007 0.062199995 -0.053799994 0.08049999 -0.11589999 C 0.11709999 -0.23999998 0.11469999 -0.3162 0.057699993 -0.4024 C 0.03689999 -0.4344 0.009099994 -0.4608 -0.0034000054 -0.4608 C -0.0158 -0.4608 -0.044 -0.4364 -0.063 -0.4038 L -0.063 -0.4038 Z M 0.2068 -0.1475 C 0.1291 -0.1141 0.0823 -0.0217 0.0567 0.1056 C 0.051999997 0.1295 0.0508 0.1379 0.048499998 0.1649 C 0.065299995 0.165 0.072 0.16510001 0.0884 0.165 C 0.092 0.1469 0.0946 0.13730001 0.1025 0.11160001 C 0.1339 0.012100011 0.2263 -0.027799994 0.2222 0.06530001 C 0.22080001 0.091000006 0.21000001 0.10540001 0.19790001 0.119200006 C 0.21280001 0.1155 0.24450001 0.100700006 0.2702 0.086100005 C 0.4132 -2.0E-4 0.3568 -0.2114 0.2068 -0.1475 L 0.2068 -0.1475 Z M -0.111 0.1974 C -0.048200004 0.19770001 0.060200006 0.1982 0.112399995 0.1979 C 0.1125 0.1845 0.11269999 0.1913 0.112799995 0.1805 C 0.074499995 0.1802 -0.07240001 0.1807 -0.1106 0.1807 C -0.1106 0.1877 -0.1108 0.1911 -0.111 0.1974 Z M -0.0925 0.271 C -0.115100004 0.2954 -0.1505 0.3137 -0.1505 0.3137 S -0.1192 0.3172 -0.0901 0.31509998 C -0.060899995 0.313 -0.0448 0.30929998 -0.027499996 0.30089998 C -0.032199997 0.33569998 -0.032499995 0.36929998 -0.032499995 0.36929998 C -0.028299995 0.4141 -0.023499995 0.42549998 -0.013799995 0.4473 C -5.9999526E-4 0.4655 0.007000005 0.46559998 0.016700005 0.4464 C 0.027100004 0.4249 0.034000006 0.4028 0.036200006 0.36909997 C 0.035400007 0.34379998 0.034000006 0.33229998 0.028100006 0.30139998 C 0.048300005 0.3101 0.061000008 0.31239998 0.09110001 0.31509998 C 0.12190001 0.31789997 0.15020001 0.31649998 0.15020001 0.31649998 S 0.108600006 0.29559997 0.09030001 0.26999998 C 0.07220001 0.24469998 0.07610001 0.24899998 0.06290001 0.21639998 C 0.046900004 0.21559998 -0.034099996 0.21639998 -0.05969999 0.21639998 C -0.0737 0.246 -0.0751 0.2522 -0.0925 0.271 L -0.0925 0.271 Z"/>
<path id="sun" d="M 0.0377 0.3335 L 0.060200002 0.3496 C 0.0925 0.3721 0.1102 0.4033 0.1084 0.43559998 L 0.107200004 0.4622 L 0.117800005 0.436 C 0.1294 0.4086 0.1278 0.36699998 0.1141 0.3363 L 0.1061 0.3184 L 0.1314 0.3294 C 0.1676 0.3447 0.19150001 0.3716 0.1964 0.40350002 L 0.2008 0.42980003 L 0.2057 0.40200004 C 0.2113 0.37280005 0.20109999 0.33250004 0.1814 0.30520004 L 0.1699 0.28930002 L 0.197 0.2948 C 0.2356 0.30220002 0.2645 0.3235 0.276 0.3537 L 0.2857 0.3785 L 0.2847 0.35020003 C 0.2841 0.32040003 0.2658 0.2831 0.24080001 0.26060003 L 0.22620001 0.24750003 L 0.2538 0.24730003 C 0.2931 0.24650003 0.3258 0.26140004 0.3433 0.28850004 L 0.358 0.31080005 L 0.3512 0.28340006 C 0.3445 0.25440007 0.3188 0.22180006 0.2897 0.20490006 L 0.2727 0.19510005 L 0.29970002 0.18910006 C 0.33800003 0.18010005 0.37300003 0.18790005 0.39580002 0.21080005 L 0.41480002 0.22950006 L 0.40240002 0.20410006 C 0.3898 0.17710006 0.35790002 0.15050006 0.32590002 0.14010006 L 0.3072 0.13400006 L 0.33240002 0.12250006 C 0.36800003 0.10580006 0.40390003 0.106000066 0.43090004 0.12370006 L 0.45330003 0.13810006 L 0.43590003 0.11580006 C 0.41800004 0.09200006 0.38130003 0.07270006 0.34780002 0.06920006 L 0.32830003 0.06710006 L 0.35050002 0.050600063 C 0.38180003 0.026900062 0.41700003 0.019600064 0.4471 0.03130006 L 0.472 0.04070006 L 0.4504 0.022500059 C 0.4279 0.0030000582 0.388 -0.008299941 0.3545 -0.0047999416 L 0.335 -0.0027999415 L 0.3533 -0.023499941 C 0.379 -0.05319994 0.4119 -0.067599945 0.4438 -0.06249994 L 0.47010002 -0.05849994 L 0.44520003 -0.07179994 C 0.41920003 -0.08619994 0.37780002 -0.08899994 0.34580004 -0.07849994 L 0.32710004 -0.072399944 L 0.34070003 -0.09649994 C 0.35970002 -0.13099994 0.38890004 -0.15189993 0.42110002 -0.15349995 L 0.44770002 -0.15509994 L 0.42060003 -0.16289994 C 0.39210004 -0.17159994 0.35110003 -0.16559994 0.3219 -0.14879994 L 0.30490002 -0.13899994 L 0.31320003 -0.16539994 C 0.32460004 -0.20299993 0.34880003 -0.22959994 0.38000003 -0.23789993 L 0.40570003 -0.24499993 L 0.37750003 -0.24699993 C 0.34790003 -0.24959993 0.30890003 -0.23519993 0.28390002 -0.21269993 L 0.2696 -0.1995 L 0.2723 -0.227 C 0.27560002 -0.2662 0.2938 -0.2972 0.3226 -0.3118 L 0.34620002 -0.32410002 L 0.31820002 -0.32020003 C 0.2887 -0.31650004 0.25360003 -0.29440004 0.23380002 -0.26710004 L 0.22230002 -0.25120002 L 0.21920003 -0.27870002 C 0.21430004 -0.31770003 0.22570004 -0.35190004 0.2508 -0.37210003 L 0.2714 -0.38900003 L 0.2449 -0.37930003 C 0.2168 -0.36960003 0.187 -0.3406 0.1734 -0.30980003 L 0.1654 -0.29180002 L 0.1566 -0.31800002 C 0.1437 -0.35520002 0.1477 -0.39090002 0.1681 -0.416 L 0.1847 -0.4368 L 0.1607 -0.42180002 C 0.1352 -0.40640002 0.11209999 -0.37190002 0.10509999 -0.33900002 L 0.10099999 -0.31980002 L 0.08699999 -0.34360003 C 0.06669999 -0.37730002 0.06319999 -0.41300005 0.07789999 -0.44180003 L 0.08979999 -0.4656 L 0.06949999 -0.446 C 0.04779999 -0.4257 0.032399993 -0.3871 0.032399993 -0.3534 V -0.3338 L 0.0137 -0.3545 C -0.013200001 -0.3832 -0.024 -0.4175 -0.0156000005 -0.4487 L -0.008900001 -0.4745 L -0.0247 -0.4511 C -0.0417 -0.4267 -0.0488 -0.3857 -0.0418 -0.35279998 L -0.0377 -0.33359998 L -0.060200002 -0.34969997 C -0.0924 -0.37219998 -0.1102 -0.40339997 -0.1084 -0.43569997 L -0.107200004 -0.46229997 L -0.117800005 -0.43609998 C -0.1294 -0.4087 -0.1278 -0.36709997 -0.1141 -0.33639997 L -0.1061 -0.31839997 L -0.1314 -0.32939997 C -0.1676 -0.34469998 -0.1914 -0.37159997 -0.1964 -0.40349996 L -0.2008 -0.42979997 L -0.2057 -0.40199998 C -0.2113 -0.3728 -0.2012 -0.33249998 -0.1814 -0.30519998 L -0.1699 -0.28929996 L -0.197 -0.29479995 C -0.2356 -0.30219996 -0.2645 -0.32349995 -0.276 -0.35369995 L -0.2857 -0.37849995 L -0.2847 -0.35019997 C -0.2841 -0.32039997 -0.2658 -0.28309995 -0.24080001 -0.26059997 L -0.22620001 -0.24749997 L -0.2538 -0.24729997 C -0.2931 -0.24649997 -0.3258 -0.26139998 -0.3433 -0.28849998 L -0.358 -0.3108 L -0.3512 -0.2834 C -0.3445 -0.2544 -0.3188 -0.2217 -0.2897 -0.2049 L -0.2727 -0.1951 L -0.29970002 -0.1891 C -0.33800003 -0.1802 -0.37300003 -0.18789999 -0.39580002 -0.21079999 L -0.41480002 -0.2295 L -0.40240002 -0.2041 C -0.3898 -0.1771 -0.35790002 -0.1505 -0.32590002 -0.1401 L -0.3072 -0.134 L -0.33240002 -0.1225 C -0.36800003 -0.1058 -0.40390003 -0.106000006 -0.43090004 -0.1237 L -0.45330003 -0.1381 L -0.43590003 -0.1158 C -0.41800004 -0.092 -0.38130003 -0.0727 -0.34780002 -0.0691 L -0.32830003 -0.067 L -0.35050002 -0.0506 C -0.38180003 -0.0268 -0.41700003 -0.0196 -0.4471 -0.0313 L -0.472 -0.0407 L -0.4504 -0.022499999 C -0.4279 -0.0029999986 -0.388 0.008300001 -0.3545 0.004800001 L -0.335 0.002800001 L -0.3533 0.023500001 C -0.379 0.0533 -0.4119 0.067600004 -0.4438 0.0625 L -0.47010002 0.0585 L -0.44520003 0.0718 C -0.41920003 0.0862 -0.37770003 0.089 -0.34580004 0.078600004 L -0.32710004 0.072500005 L -0.34070003 0.0966 C -0.35970002 0.13100001 -0.38890004 0.15200001 -0.42110002 0.1536 L -0.44770002 0.1552 L -0.4205 0.163 C -0.39200002 0.1717 -0.351 0.1657 -0.3218 0.1489 L -0.3048 0.1391 L -0.3131 0.1655 C -0.32450002 0.2032 -0.34870002 0.2297 -0.3799 0.238 L -0.4056 0.2451 L -0.3774 0.24710001 C -0.34780002 0.24960001 -0.3088 0.2353 -0.2838 0.21280001 L -0.2692 0.19970001 L -0.2719 0.22730002 C -0.2752 0.26650003 -0.2934 0.2975 -0.3222 0.31210002 L -0.3458 0.3244 L -0.31780002 0.32050002 C -0.2883 0.31680003 -0.25320002 0.29470003 -0.23340002 0.26740003 L -0.22190002 0.2515 L -0.21880002 0.279 C -0.21390003 0.31800002 -0.22520003 0.3521 -0.2504 0.37240002 L -0.271 0.38930002 L -0.2445 0.37960002 C -0.2164 0.36990002 -0.1866 0.3409 -0.173 0.31010002 L -0.16499999 0.29220003 L -0.15619999 0.31840003 C -0.1433 0.35560003 -0.14729999 0.39130002 -0.1677 0.41640002 L -0.18429999 0.43730003 L -0.16029999 0.42230004 C -0.13479999 0.40690005 -0.11169998 0.37240005 -0.104699984 0.33950004 L -0.10059998 0.32030004 L -0.08659998 0.34420004 C -0.06629998 0.37790003 -0.06279998 0.41370004 -0.077499986 0.44240004 L -0.089399986 0.46620005 L -0.069099985 0.44660005 C -0.047399983 0.42630005 -0.031999987 0.38770005 -0.031999987 0.35400003 V 0.33440003 L -0.013299987 0.35480002 C 0.013600014 0.3835 0.024400014 0.4178 0.016000014 0.449 L 0.009300014 0.4748 L 0.025100013 0.45139998 C 0.042100012 0.427 0.049200013 0.38599998 0.042200014 0.35309997 L 0.0377 0.3335 Z"/>
<linearGradient id="glaze" x1="0%" y1="0%" x2="100%" y2="100%">
<stop offset="0%" stop-color="rgb(255,255,255)" stop-opacity="0.2"/>
<stop offset="49.999%" stop-color="rgb(255,255,255)" stop-opacity="0.0"/>
<stop offset="50.001%" stop-color="rgb(0,0,0)" stop-opacity="0.0"/>
<stop offset="100%" stop-color="rgb(0,0,0)" stop-opacity="0.2"/>
</linearGradient>
</defs>
<g>
<g>
<rect x="0" y="0" width="576" height="132" class="blue"/>
<rect x="0" y="132" width="576" height="264" class="red"/>
</g>
<use xlink:href="#fleur" transform="translate(106.56 66) scale(132 132) rotate(0)" class="yellow"/>
<use xlink:href="#fleur" transform="translate(288 66) scale(132 132) rotate(0)" class="yellow"/>
<use xlink:href="#fleur" transform="translate(469.44 66) scale(132 132) rotate(0)" class="yellow"/>
<use xlink:href="#cane" transform="translate(288 264) scale(264 264) rotate(0)" class="green"/>
<use xlink:href="#sun" transform="translate(288 264) scale(264 264) rotate(0)" class="yellow"/>
</g>
<g>
<rect x="0" y="0" width="576" height="396" fill="url(#glaze)"/>
<path d="M 36 36 L 540 36 L 540 360 L 36 360 Z M 72 72 L 72 324 L 504 324 L 504 72 Z" fill="rgb(255,255,255)" opacity="0.4"/>
<path d="M 0 0 L 576 0 L 576 396 L 0 396 Z M 36 36 L 36 360 L 540 360 L 540 36 Z" fill="rgb(0,0,0)" opacity="0.4"/>
</g>
</svg>
