<?xml version="1.0"?>
<svg xmlns="http://www.w3.org/2000/svg" xmlns:xlink="http://www.w3.org/1999/xlink" version="1.1" width="576" height="396" viewBox="0 0 576 396">
<!-- Generated by Kreative Vexillo v1.0 -->
<style>
.blue{fill:rgb(0,56,184);}
.white{fill:rgb(255,255,255);}
</style>
<defs>
<linearGradient id="glaze" x1="0%" y1="0%" x2="100%" y2="100%">
<stop offset="0%" stop-color="rgb(255,255,255)" stop-opacity="0.2"/>
<stop offset="49.999%" stop-color="rgb(255,255,255)" stop-opacity="0.0"/>
<stop offset="50.001%" stop-color="rgb(0,0,0)" stop-opacity="0.0"/>
<stop offset="100%" stop-color="rgb(0,0,0)" stop-opacity="0.2"/>
</linearGradient>
</defs>
<g>
<g>
<rect x="0" y="0" width="576" height="37.125" class="white"/>
<rect x="0" y="37.125" width="576" height="61.875" class="blue"/>
<rect x="0" y="99" width="576" height="198" class="white"/>
<rect x="0" y="297" width="576" height="61.875" class="blue"/>
<rect x="0" y="358.875" width="576" height="37.125" class="white"/>
</g>
<path d="M 288 112.6125 L 361.9477 240.6938 L 214.0523 240.6938 L 288 112.6125 L 288 139.8375 L 237.6298 227.0813 L 338.3702 227.0813 L 288 139.8375 Z" class="blue"/>
<path d="M 288 283.3875 L 214.0523 155.3063 L 361.9477 155.3063 L 288 283.3875 L 288 256.1625 L 338.3702 168.9188 L 237.6298 168.9188 L 288 256.1625 Z" class="blue"/>
</g>
<g>
<rect x="0" y="0" width="576" height="396" fill="url(#glaze)"/>
<path d="M 36 36 L 540 36 L 540 360 L 36 360 Z M 72 72 L 72 324 L 504 324 L 504 72 Z" fill="rgb(255,255,255)" opacity="0.4"/>
<path d="M 0 0 L 576 0 L 576 396 L 0 396 Z M 36 36 L 36 360 L 540 360 L 540 36 Z" fill="rgb(0,0,0)" opacity="0.4"/>
</g>
</svg>
