<?xml version="1.0"?>
<svg xmlns="http://www.w3.org/2000/svg" xmlns:xlink="http://www.w3.org/1999/xlink" version="1.1" width="576" height="396" viewBox="0 0 576 396">
<!-- Generated by Kreative Vexillo v1.0 -->
<style>
.blue{fill:rgb(30,33,113);}
.green{fill:rgb(73,169,66);}
.orange{fill:rgb(251,181,104);}
.white{fill:rgb(255,255,255);}
</style>
<defs>
<path id="disc" d="M 0.5 0.0 A 0.5 0.5 0.0 0 0 -0.5 0.0 A 0.5 0.5 0.0 0 0 0.5 0.0 Z"/>
<path id="spoke" d="M 0.0 1.0 L 0.0343 0.4 C 0.0343 0.4 0.0 0.1143 0.0 0.1143 C 0.0 0.1143 -0.0343 0.4 -0.0343 0.4 L 0.0 1.0 Z"/>
<linearGradient id="glaze" x1="0%" y1="0%" x2="100%" y2="100%">
<stop offset="0%" stop-color="rgb(255,255,255)" stop-opacity="0.2"/>
<stop offset="49.999%" stop-color="rgb(255,255,255)" stop-opacity="0.0"/>
<stop offset="50.001%" stop-color="rgb(0,0,0)" stop-opacity="0.0"/>
<stop offset="100%" stop-color="rgb(0,0,0)" stop-opacity="0.2"/>
</linearGradient>
</defs>
<g>
<g>
<rect x="0" y="0" width="576" height="132" class="orange"/>
<rect x="0" y="132" width="576" height="132" class="white"/>
<rect x="0" y="264" width="576" height="132" class="green"/>
</g>
<ellipse cx="288" cy="198" rx="52.8" ry="52.8" class="blue"/>
<ellipse cx="288" cy="198" rx="46.2" ry="46.2" class="white"/>
<ellipse cx="288" cy="198" rx="9.24" ry="9.24" class="blue"/>
<g>
<use xlink:href="#spoke" transform="translate(288 198) scale(46.2 46.2) rotate(0)" class="blue"/>
<use xlink:href="#spoke" transform="translate(288 198) scale(46.2 46.2) rotate(15)" class="blue"/>
<use xlink:href="#spoke" transform="translate(288 198) scale(46.2 46.2) rotate(30)" class="blue"/>
<use xlink:href="#spoke" transform="translate(288 198) scale(46.2 46.2) rotate(45)" class="blue"/>
<use xlink:href="#spoke" transform="translate(288 198) scale(46.2 46.2) rotate(60)" class="blue"/>
<use xlink:href="#spoke" transform="translate(288 198) scale(46.2 46.2) rotate(75)" class="blue"/>
<use xlink:href="#spoke" transform="translate(288 198) scale(46.2 46.2) rotate(90)" class="blue"/>
<use xlink:href="#spoke" transform="translate(288 198) scale(46.2 46.2) rotate(105)" class="blue"/>
<use xlink:href="#spoke" transform="translate(288 198) scale(46.2 46.2) rotate(120)" class="blue"/>
<use xlink:href="#spoke" transform="translate(288 198) scale(46.2 46.2) rotate(135)" class="blue"/>
<use xlink:href="#spoke" transform="translate(288 198) scale(46.2 46.2) rotate(150)" class="blue"/>
<use xlink:href="#spoke" transform="translate(288 198) scale(46.2 46.2) rotate(165)" class="blue"/>
<use xlink:href="#spoke" transform="translate(288 198) scale(46.2 46.2) rotate(180)" class="blue"/>
<use xlink:href="#spoke" transform="translate(288 198) scale(46.2 46.2) rotate(195)" class="blue"/>
<use xlink:href="#spoke" transform="translate(288 198) scale(46.2 46.2) rotate(210)" class="blue"/>
<use xlink:href="#spoke" transform="translate(288 198) scale(46.2 46.2) rotate(225)" class="blue"/>
<use xlink:href="#spoke" transform="translate(288 198) scale(46.2 46.2) rotate(240)" class="blue"/>
<use xlink:href="#spoke" transform="translate(288 198) scale(46.2 46.2) rotate(255)" class="blue"/>
<use xlink:href="#spoke" transform="translate(288 198) scale(46.2 46.2) rotate(270)" class="blue"/>
<use xlink:href="#spoke" transform="translate(288 198) scale(46.2 46.2) rotate(285)" class="blue"/>
<use xlink:href="#spoke" transform="translate(288 198) scale(46.2 46.2) rotate(300)" class="blue"/>
<use xlink:href="#spoke" transform="translate(288 198) scale(46.2 46.2) rotate(315)" class="blue"/>
<use xlink:href="#spoke" transform="translate(288 198) scale(46.2 46.2) rotate(330)" class="blue"/>
<use xlink:href="#spoke" transform="translate(288 198) scale(46.2 46.2) rotate(345)" class="blue"/>
</g>
<g>
<use xlink:href="#disc" transform="translate(294.0303 243.8048) scale(5.28 5.28) rotate(0)" class="blue"/>
<use xlink:href="#disc" transform="translate(305.68 240.6832) scale(5.28 5.28) rotate(0)" class="blue"/>
<use xlink:href="#disc" transform="translate(316.1248 234.6529) scale(5.28 5.28) rotate(0)" class="blue"/>
<use xlink:href="#disc" transform="translate(324.6529 226.1248) scale(5.28 5.28) rotate(0)" class="blue"/>
<use xlink:href="#disc" transform="translate(330.6832 215.68) scale(5.28 5.28) rotate(0)" class="blue"/>
<use xlink:href="#disc" transform="translate(333.8048 204.0303) scale(5.28 5.28) rotate(0)" class="blue"/>
<use xlink:href="#disc" transform="translate(333.8048 191.9697) scale(5.28 5.28) rotate(0)" class="blue"/>
<use xlink:href="#disc" transform="translate(330.6832 180.32) scale(5.28 5.28) rotate(0)" class="blue"/>
<use xlink:href="#disc" transform="translate(324.6529 169.8752) scale(5.28 5.28) rotate(0)" class="blue"/>
<use xlink:href="#disc" transform="translate(316.1248 161.3471) scale(5.28 5.28) rotate(0)" class="blue"/>
<use xlink:href="#disc" transform="translate(305.68 155.3168) scale(5.28 5.28) rotate(0)" class="blue"/>
<use xlink:href="#disc" transform="translate(294.0303 152.1952) scale(5.28 5.28) rotate(0)" class="blue"/>
<use xlink:href="#disc" transform="translate(281.9697 152.1952) scale(5.28 5.28) rotate(0)" class="blue"/>
<use xlink:href="#disc" transform="translate(270.32 155.3168) scale(5.28 5.28) rotate(0)" class="blue"/>
<use xlink:href="#disc" transform="translate(259.8752 161.3471) scale(5.28 5.28) rotate(0)" class="blue"/>
<use xlink:href="#disc" transform="translate(251.3471 169.8752) scale(5.28 5.28) rotate(0)" class="blue"/>
<use xlink:href="#disc" transform="translate(245.3168 180.32) scale(5.28 5.28) rotate(0)" class="blue"/>
<use xlink:href="#disc" transform="translate(242.1952 191.9697) scale(5.28 5.28) rotate(0)" class="blue"/>
<use xlink:href="#disc" transform="translate(242.1952 204.0303) scale(5.28 5.28) rotate(0)" class="blue"/>
<use xlink:href="#disc" transform="translate(245.3168 215.68) scale(5.28 5.28) rotate(0)" class="blue"/>
<use xlink:href="#disc" transform="translate(251.3471 226.1248) scale(5.28 5.28) rotate(0)" class="blue"/>
<use xlink:href="#disc" transform="translate(259.8752 234.6529) scale(5.28 5.28) rotate(0)" class="blue"/>
<use xlink:href="#disc" transform="translate(270.32 240.6832) scale(5.28 5.28) rotate(0)" class="blue"/>
<use xlink:href="#disc" transform="translate(281.9697 243.8048) scale(5.28 5.28) rotate(0)" class="blue"/>
</g>
</g>
<g>
<rect x="0" y="0" width="576" height="396" fill="url(#glaze)"/>
<path d="M 36 36 L 540 36 L 540 360 L 36 360 Z M 72 72 L 72 324 L 504 324 L 504 72 Z" fill="rgb(255,255,255)" opacity="0.4"/>
<path d="M 0 0 L 576 0 L 576 396 L 0 396 Z M 36 36 L 36 360 L 540 360 L 540 36 Z" fill="rgb(0,0,0)" opacity="0.4"/>
</g>
</svg>
