<?xml version="1.0"?>
<svg xmlns="http://www.w3.org/2000/svg" xmlns:xlink="http://www.w3.org/1999/xlink" version="1.1" width="576" height="396" viewBox="0 0 576 396">
<!-- Generated by Kreative Vexillo v1.0 -->
<style>
.black{fill:rgb(0,0,0);}
.green{fill:rgb(0,169,79);}
.yellow{fill:rgb(255,221,0);}
</style>
<defs>
<linearGradient id="glaze" x1="0%" y1="0%" x2="100%" y2="100%">
<stop offset="0%" stop-color="rgb(255,255,255)" stop-opacity="0.2"/>
<stop offset="49.999%" stop-color="rgb(255,255,255)" stop-opacity="0.0"/>
<stop offset="50.001%" stop-color="rgb(0,0,0)" stop-opacity="0.0"/>
<stop offset="100%" stop-color="rgb(0,0,0)" stop-opacity="0.2"/>
</linearGradient>
</defs>
<g>
<rect x="0" y="0" width="576" height="396" class="green"/>
<path d="M 0 0 L 288 198 L 0 396 Z" class="black"/>
<path d="M 576 0 L 288 198 L 576 396 Z" class="black"/>
<path d="M 0 0 L 0 40.0465 L 0 40.0465 L 229.7505 198 L 229.7505 198 L 0 355.9535 L 0 396 L 58.2494 396 L 288 238.0465 L 288 238.0465 L 288 238.0465 L 288 238.0465 L 288 238.0465 L 288 238.0465 L 517.7505 396 L 576 396 L 576 355.9535 L 346.2495 198 L 576 40.0465 L 576 0 L 517.7505 0 L 288 157.9535 L 58.2495 0 Z" class="yellow"/>
</g>
<g>
<rect x="0" y="0" width="576" height="396" fill="url(#glaze)"/>
<path d="M 36 36 L 540 36 L 540 360 L 36 360 Z M 72 72 L 72 324 L 504 324 L 504 72 Z" fill="rgb(255,255,255)" opacity="0.4"/>
<path d="M 0 0 L 576 0 L 576 396 L 0 396 Z M 36 36 L 36 360 L 540 360 L 540 36 Z" fill="rgb(0,0,0)" opacity="0.4"/>
</g>
</svg>
