<?xml version="1.0"?>
<svg xmlns="http://www.w3.org/2000/svg" xmlns:xlink="http://www.w3.org/1999/xlink" version="1.1" width="576" height="396" viewBox="0 0 576 396">
<!-- Generated by Kreative Vexillo v1.0 -->
<style>
.blue{fill:rgb(0,107,189);}
.white{fill:rgb(255,255,255);}
</style>
<defs>
<path id="e" d="M -1.485 0.4785 L -0.9685 -0.5205 L -0.4828 0.411 L 0.0 -0.5205 L 0.4828 0.411 L 0.9685 -0.5205 L 1.485 0.4785 H 0.945 L 0.7647 0.1309 L 0.585 0.4785 H -0.022500038 L -0.20280004 0.1309 L -0.38250005 0.4785 H -0.99000007 L -1.1703 0.1309 L -1.35 0.4785 H -1.485 Z"/>
<linearGradient id="glaze" x1="0%" y1="0%" x2="100%" y2="100%">
<stop offset="0%" stop-color="rgb(255,255,255)" stop-opacity="0.2"/>
<stop offset="49.999%" stop-color="rgb(255,255,255)" stop-opacity="0.0"/>
<stop offset="50.001%" stop-color="rgb(0,0,0)" stop-opacity="0.0"/>
<stop offset="100%" stop-color="rgb(0,0,0)" stop-opacity="0.2"/>
</linearGradient>
</defs>
<g>
<rect x="0" y="0" width="576" height="396" class="blue"/>
<use xlink:href="#e" transform="translate(288 198) scale(132 132) rotate(0)" class="white"/>
</g>
<g>
<rect x="0" y="0" width="576" height="396" fill="url(#glaze)"/>
<path d="M 36 36 L 540 36 L 540 360 L 36 360 Z M 72 72 L 72 324 L 504 324 L 504 72 Z" fill="rgb(255,255,255)" opacity="0.4"/>
<path d="M 0 0 L 576 0 L 576 396 L 0 396 Z M 36 36 L 36 360 L 540 360 L 540 36 Z" fill="rgb(0,0,0)" opacity="0.4"/>
</g>
</svg>
