<?xml version="1.0"?>
<svg xmlns="http://www.w3.org/2000/svg" xmlns:xlink="http://www.w3.org/1999/xlink" version="1.1" width="576" height="396" viewBox="0 0 576 396">
<!-- Generated by Kreative Vexillo v1.0 -->
<style>
.red{fill:rgb(153,0,0);}
.white{fill:rgb(255,255,255);}
</style>
<defs>
<path id="e" d="M -0.6731 -0.5 L 0.14420003 -0.1731 C 0.24100003 -0.1304 0.27850002 -0.1116 0.34270003 -0.07749999 C 0.40800005 -0.042799994 0.48050004 -0.007499993 0.535 0.04010001 C 0.5794 0.0789 0.6245 0.1334 0.625 0.1923 C 0.6256 0.2556 0.5771 0.3158 0.53499997 0.3249 L -0.4615 0.5 C -0.4154 0.4856 -0.37829998 0.4726 -0.35029998 0.4488 A 0.143 0.143 0.0 1 1 -0.23009998 0.4594 C -0.20999998 0.4552 -0.19369997 0.44709998 -0.16409998 0.4286 L 0.1442 0.2321 C 0.1806 0.20789999 0.2119 0.1579 0.2062 0.113699995 C 0.1961 0.036299996 0.114300005 -0.014000006 0.04810001 -0.058800004 Z"/>
<linearGradient id="glaze" x1="0%" y1="0%" x2="100%" y2="100%">
<stop offset="0%" stop-color="rgb(255,255,255)" stop-opacity="0.2"/>
<stop offset="49.999%" stop-color="rgb(255,255,255)" stop-opacity="0.0"/>
<stop offset="50.001%" stop-color="rgb(0,0,0)" stop-opacity="0.0"/>
<stop offset="100%" stop-color="rgb(0,0,0)" stop-opacity="0.2"/>
</linearGradient>
</defs>
<g>
<rect x="0" y="0" width="576" height="396" class="red"/>
<use xlink:href="#e" transform="translate(288 198) scale(294.1714 294.1714) rotate(0)" class="white"/>
</g>
<g>
<rect x="0" y="0" width="576" height="396" fill="url(#glaze)"/>
<path d="M 36 36 L 540 36 L 540 360 L 36 360 Z M 72 72 L 72 324 L 504 324 L 504 72 Z" fill="rgb(255,255,255)" opacity="0.4"/>
<path d="M 0 0 L 576 0 L 576 396 L 0 396 Z M 36 36 L 36 360 L 540 360 L 540 36 Z" fill="rgb(0,0,0)" opacity="0.4"/>
</g>
</svg>
