<?xml version="1.0"?>
<svg xmlns="http://www.w3.org/2000/svg" xmlns:xlink="http://www.w3.org/1999/xlink" version="1.1" width="576" height="396" viewBox="0 0 576 396">
<!-- Generated by Kreative Vexillo v1.0 -->
<style>
.green{fill:rgb(118,177,56);}
.white{fill:rgb(255,255,255);}
</style>
<defs>
<path id="e" d="M -0.255 -0.1041 H -0.5 V -0.1041 L -0.255 -0.3001 V -0.1041 Z M -0.255 -0.4001 L -0.5 -0.2041 V -0.1169 L -0.255 -0.3129 V -0.4001 Z M -0.245 -0.3001 V -0.104100004 H 0.0 L -0.245 -0.3001 Z M 0.0 -0.3041 L -0.245 -0.5001 V -0.41290003 L 0.0 -0.21690004 V -0.3041 Z M -0.255 -0.5001 L -0.5 -0.3041 V -0.2169 L -0.255 -0.4129 V -0.5001 Z M 0.2 -0.5041 V -0.30410004 C 0.2 -0.19950004 0.13800001 -0.10840003 0.0475 -0.06730004 L 0.0469 -0.06660004 L 0.0465 -0.06690004 C 0.0205 -0.055200037 -0.007799998 -0.04760004 -0.0377 -0.045100037 L -0.3486 -0.018300038 C -0.4871 -0.0064000376 -0.5949 0.10699996 -0.6 0.24589996 V 0.49589998 H -0.20000002 V 0.2959 C -0.20000002 0.16099998 -0.096800014 0.048399985 0.037699983 0.036899984 L 0.34859997 0.010099985 C 0.48709998 -0.0018000156 0.59489995 -0.11520002 0.59999996 -0.25410002 V -0.5041 H 0.2 Z M -0.14 0.2959 V 0.49589998 H 0.1 V 0.34589997 C 0.1176 0.23589997 0.2051 0.15029997 0.3155 0.13509996 L 0.6 0.0959 H 0.06 C -0.0505 0.0959 -0.14 0.1855 -0.14 0.2959 Z M -0.266 -0.5041 H -0.5 V -0.3169 L -0.266 -0.5041 Z M -0.245 -0.4001 V -0.3129 L 0.0 -0.11690001 V -0.20410001 L -0.245 -0.4001 Z M 0.0 -0.3169 V -0.5041 H -0.234 L 0.0 -0.3169 Z M 0.1919 0.3459 C 0.1919 0.4332 0.2627 0.504 0.35 0.504 S 0.5081 0.4332 0.5081 0.3459 S 0.43729997 0.1878 0.34999996 0.1878 S 0.1919 0.2586 0.1919 0.3459 Z"/>
<linearGradient id="glaze" x1="0%" y1="0%" x2="100%" y2="100%">
<stop offset="0%" stop-color="rgb(255,255,255)" stop-opacity="0.2"/>
<stop offset="49.999%" stop-color="rgb(255,255,255)" stop-opacity="0.0"/>
<stop offset="50.001%" stop-color="rgb(0,0,0)" stop-opacity="0.0"/>
<stop offset="100%" stop-color="rgb(0,0,0)" stop-opacity="0.2"/>
</linearGradient>
</defs>
<g>
<rect x="0" y="0" width="576" height="396" class="green"/>
<use xlink:href="#e" transform="translate(288 198) scale(132 132) rotate(0)" class="white"/>
</g>
<g>
<rect x="0" y="0" width="576" height="396" fill="url(#glaze)"/>
<path d="M 36 36 L 540 36 L 540 360 L 36 360 Z M 72 72 L 72 324 L 504 324 L 504 72 Z" fill="rgb(255,255,255)" opacity="0.4"/>
<path d="M 0 0 L 576 0 L 576 396 L 0 396 Z M 36 36 L 36 360 L 540 360 L 540 36 Z" fill="rgb(0,0,0)" opacity="0.4"/>
</g>
</svg>
