<?xml version="1.0"?>
<svg xmlns="http://www.w3.org/2000/svg" xmlns:xlink="http://www.w3.org/1999/xlink" version="1.1" width="576" height="396" viewBox="0 0 576 396">
<!-- Generated by Kreative Vexillo v1.0 -->
<style>
.purple{fill:rgb(76,15,123);}
.white{fill:rgb(255,255,255);}
</style>
<defs>
<path id="e" d="M 0.1944 -0.525 C 0.2322 -0.48049998 0.2551 -0.42289996 0.2551 -0.35999995 C 0.2551 -0.21919996 0.14090002 -0.10499996 1.00016594E-4 -0.10499996 S -0.25489998 -0.21919996 -0.25489998 -0.35999995 C -0.25489998 -0.42289996 -0.23199998 -0.48049995 -0.19419998 -0.525 C -0.14739998 -0.46999997 -0.07769998 -0.43499997 2.0001829E-4 -0.43499997 C 0.0779 -0.435 0.1476 -0.47 0.1944 -0.525 Z M 0.3767 0.2175 C 0.4156 0.15 0.4808 0.107200004 0.5518 0.0942 C 0.53220004 0.0392 0.49370003 -0.009400003 0.4392 -0.040800005 C 0.3172 -0.111200005 0.1613 -0.069400005 0.090900004 0.052499995 C 0.020500004 0.17449999 0.062300004 0.3304 0.1842 0.4008 C 0.2387 0.4323 0.3 0.44129997 0.3574 0.4308 C 0.3332 0.3628 0.3378 0.285 0.3767 0.2175 Z M -0.0909 0.0525 C -0.1613 -0.0695 -0.3173 -0.11130001 -0.4392 -0.0408 C -0.49370003 -0.009300001 -0.5321 0.0393 -0.5518 0.0942 C -0.48070002 0.1072 -0.4156 0.1501 -0.3767 0.2175 S -0.3332 0.3628 -0.35750002 0.43080002 C -0.30010003 0.44130003 -0.23880002 0.43230003 -0.18430002 0.40080002 C -0.0623 0.3304 -0.0205 0.1745 -0.0909 0.0525 Z M 0.0285 0.0258 H 0.0862 C 0.087 0.023000002 0.0877 0.020100001 0.0883 0.0172 H 0.038299996 C 0.045299996 0.009400001 0.049999997 -5.99999E-4 0.051199995 -0.011799999 H 0.042499997 C 0.040099997 0.007700002 0.024699997 0.023000002 0.005199995 0.025500003 C -0.018300004 0.028500004 -0.039800007 0.011800003 -0.042800006 -0.011799999 H -0.051500008 C -0.050300006 -6.999988E-4 -0.04560001 0.009300001 -0.038600005 0.0172 H -0.08860001 C -0.08800001 0.020100001 -0.08730001 0.023 -0.08650001 0.0258 H -0.028700013 C -0.022000013 0.0303 -0.014100012 0.0332 -0.005600013 0.0341 C -0.005200013 0.0341 -0.004900013 0.0341 -0.004500013 0.0342 V 0.0387 H -0.08150001 C -0.08010001 0.041699998 -0.07850001 0.0445 -0.07680001 0.0473 H -0.004500009 V 0.0602 H -0.06710001 C -0.06430001 0.0633 -0.06140001 0.0661 -0.05820001 0.0688 H -0.0044000074 V 0.0899 C -0.0030000075 0.09 -0.0015000075 0.09 -1.0000728E-4 0.09 S 0.0027999927 0.09 0.004199993 0.0899 V 0.0688 H 0.057999995 C 0.061099995 0.0661 0.0641 0.0633 0.06689999 0.060200002 H 0.004299991 V 0.047300003 H 0.07659999 C 0.07829999 0.044500005 0.0799 0.041700006 0.08129999 0.038700003 H 0.004299991 V 0.034200005 C 0.0131 0.0334 0.0214 0.0305 0.0285 0.0258 Z M -0.0089 -0.0389 C -0.0029999996 -0.0383 0.0030000005 -0.0383 0.0089 -0.0389 C 0.0191 -0.0257 0.035 -0.017199999 0.0529 -0.017199999 C 0.0651 -0.017199999 0.0764 -0.0212 0.0856 -0.0279 C 0.0847 -0.030699998 0.08360001 -0.0335 0.0824 -0.036199998 C 0.0743 -0.029699998 0.0641 -0.025799997 0.0529 -0.025799997 C 0.0395 -0.025799997 0.027400002 -0.031499997 0.018800002 -0.040499996 C 0.030800002 -0.043099996 0.042500004 -0.048099995 0.0529 -0.055599995 C 0.0538 -0.056299996 0.0546 -0.057099994 0.0553 -0.057899997 C 0.058700003 -0.062599994 0.0577 -0.069299996 0.053 -0.072699994 C 0.0398 -0.08229999 0.0246 -0.087799996 0.009099998 -0.08939999 C 0.009099998 -0.08939999 0.009099998 -0.08939999 0.009099998 -0.089499995 C 0.0085999975 -0.089499995 0.008199997 -0.0896 0.0076999976 -0.0896 C 0.0071999975 -0.0896 0.0067999978 -0.0897 0.0062999977 -0.0897 C 0.0042999974 -0.0898 0.0021999977 -0.0899 9.99975E-5 -0.0899 V -0.0899 C 9.99975E-5 -0.0899 9.99975E-5 -0.0899 -2.4956535E-9 -0.0899 V -0.0899 C -0.0021000025 -0.0899 -0.0041000023 -0.0898 -0.0062000025 -0.0897 C -0.0067000026 -0.0897 -0.0071000024 -0.0896 -0.0076000025 -0.0896 C -0.008100002 -0.0896 -0.008500002 -0.089499995 -0.009000002 -0.089499995 C -0.009000002 -0.089499995 -0.009000002 -0.089499995 -0.009000002 -0.08939999 C -0.024500001 -0.087799996 -0.0397 -0.08229999 -0.052900005 -0.072699994 C -0.054400004 -0.07159999 -0.055600006 -0.070099995 -0.056400005 -0.068399996 H -0.044000003 C -0.032500003 -0.075799994 -0.019700004 -0.0799 -0.0067000017 -0.08099999 C -0.0062000016 -0.07829999 -0.0059000016 -0.07559999 -0.0059000016 -0.072699994 C -0.0059000016 -0.07119999 -0.0060000014 -0.0698 -0.0061000017 -0.068399996 H -0.0258 V -0.059799995 H -0.0077 C -0.0089 -0.055599995 -0.0107 -0.051599994 -0.0129 -0.047999993 C -0.0237 -0.049699992 -0.0343 -0.05359999 -0.043899998 -0.05979999 H -0.0563 C -0.0555 -0.058099993 -0.0543 -0.056599993 -0.0528 -0.055499993 C -0.0424 -0.04789999 -0.0308 -0.042899992 -0.0187 -0.04039999 C -0.0273 -0.03139999 -0.0394 -0.025699992 -0.0528 -0.025699992 C -0.063999996 -0.025699992 -0.074200004 -0.02959999 -0.0823 -0.036099993 C -0.0835 -0.03339999 -0.0846 -0.030599993 -0.0855 -0.027799994 C -0.0763 -0.021099994 -0.065 -0.017099993 -0.052800003 -0.017099993 C -0.035 -0.0172 -0.0191 -0.0257 -0.0089 -0.0389 Z M 0.0061 -0.0685 C 0.006 -0.0699 0.0058999998 -0.0713 0.0058999998 -0.072799996 C 0.0058999998 -0.0756 0.0061999997 -0.07839999 0.0067 -0.081099994 C 0.0213 -0.0799 0.0356 -0.07479999 0.0479 -0.0659 C 0.0481 -0.065799996 0.0482 -0.0656 0.0484 -0.0654 C 0.0491 -0.0645 0.0489 -0.0632 0.048 -0.062599994 C 0.0374 -0.054899994 0.0255 -0.050099995 0.013100002 -0.048099995 C 0.010800002 -0.051699996 0.009100001 -0.055699997 0.0079000015 -0.059899993 H 0.026000002 V -0.0685 H 0.0061 Z M 0.0 -0.0557 C 0.001 -0.0527 0.0022 -0.0499 0.0036 -0.0471 C 0.0011999998 -0.047 -0.0012000003 -0.047 -0.0036 -0.0471 C -0.0022 -0.0498 -0.001 -0.0527 0.0 -0.0557 Z M -0.0342 -0.014 C -0.0324 0.004899999 -0.015600001 0.0188 0.0033 0.016999999 S 0.0361 -0.001600001 0.0343 -0.020500002 H -0.034199998 C -0.0344 -0.0183 -0.0344 -0.0161 -0.0342 -0.014 Z M 0.0252 -0.0118 C 0.0231 -0.0018000007 0.0153 0.0058999993 0.0053000003 0.008099999 C -0.008599999 0.0111 -0.0223 0.002199999 -0.0253 -0.0118 H 0.0252 Z"/>
<linearGradient id="glaze" x1="0%" y1="0%" x2="100%" y2="100%">
<stop offset="0%" stop-color="rgb(255,255,255)" stop-opacity="0.2"/>
<stop offset="49.999%" stop-color="rgb(255,255,255)" stop-opacity="0.0"/>
<stop offset="50.001%" stop-color="rgb(0,0,0)" stop-opacity="0.0"/>
<stop offset="100%" stop-color="rgb(0,0,0)" stop-opacity="0.2"/>
</linearGradient>
</defs>
<g>
<rect x="0" y="0" width="576" height="396" class="purple"/>
<use xlink:href="#e" transform="translate(288 198) scale(198 198) rotate(0)" class="white"/>
</g>
<g>
<rect x="0" y="0" width="576" height="396" fill="url(#glaze)"/>
<path d="M 36 36 L 540 36 L 540 360 L 36 360 Z M 72 72 L 72 324 L 504 324 L 504 72 Z" fill="rgb(255,255,255)" opacity="0.4"/>
<path d="M 0 0 L 576 0 L 576 396 L 0 396 Z M 36 36 L 36 360 L 540 360 L 540 36 Z" fill="rgb(0,0,0)" opacity="0.4"/>
</g>
</svg>
