<?xml version="1.0"?>
<svg xmlns="http://www.w3.org/2000/svg" xmlns:xlink="http://www.w3.org/1999/xlink" version="1.1" width="576" height="396" viewBox="0 0 576 396">
<!-- Generated by Kreative Vexillo v1.0 -->
<style>
.green{fill:rgb(26,148,49);}
.white{fill:rgb(255,255,255);}
</style>
<defs>
<path id="e" d="M -0.1255 -0.499 L -0.7306 0.499 H -0.49339998 H -0.13289997 H 0.1189 H 0.4794 H 0.7305 L 0.1379 -0.499 L 0.0057 -0.2808 L -0.1255 -0.499 Z M -0.1996 -0.3109 L -0.083399996 -0.128 L -0.44809997 0.46779996 H -0.6702 L -0.1996 -0.3109 Z M 0.2044 -0.3109 L 0.6728 0.4679 H 0.4496 L 0.116 -0.0884 L 0.0267 0.064 L 0.1527 0.2762 H -0.1449 L 0.2044 -0.3109 Z"/>
<linearGradient id="glaze" x1="0%" y1="0%" x2="100%" y2="100%">
<stop offset="0%" stop-color="rgb(255,255,255)" stop-opacity="0.2"/>
<stop offset="49.999%" stop-color="rgb(255,255,255)" stop-opacity="0.0"/>
<stop offset="50.001%" stop-color="rgb(0,0,0)" stop-opacity="0.0"/>
<stop offset="100%" stop-color="rgb(0,0,0)" stop-opacity="0.2"/>
</linearGradient>
</defs>
<g>
<rect x="0" y="0" width="576" height="396" class="white"/>
<use xlink:href="#e" transform="translate(288 198) scale(264 264) rotate(0)" class="green"/>
</g>
<g>
<rect x="0" y="0" width="576" height="396" fill="url(#glaze)"/>
<path d="M 36 36 L 540 36 L 540 360 L 36 360 Z M 72 72 L 72 324 L 504 324 L 504 72 Z" fill="rgb(255,255,255)" opacity="0.4"/>
<path d="M 0 0 L 576 0 L 576 396 L 0 396 Z M 36 36 L 36 360 L 540 360 L 540 36 Z" fill="rgb(0,0,0)" opacity="0.4"/>
</g>
</svg>
