<?xml version="1.0"?>
<svg xmlns="http://www.w3.org/2000/svg" xmlns:xlink="http://www.w3.org/1999/xlink" version="1.1" width="576" height="396" viewBox="0 0 576 396">
<!-- Generated by Kreative Vexillo v1.0 -->
<style>
.red{fill:rgb(149,0,23);}
.yellow{fill:rgb(255,215,0);}
</style>
<defs>
<path id="e" d="M 0.0 0.0 L 0.1667 -0.1491 A 0.2 0.2 0.0 0 1 0.2879 -0.1996 V -0.06549999 A 0.0667 0.0667 0.0 1 0 0.3122 -0.06549999 V -0.1996 A 0.2 0.2 0.0 1 1 0.1 0.0 Z"/>
<linearGradient id="glaze" x1="0%" y1="0%" x2="100%" y2="100%">
<stop offset="0%" stop-color="rgb(255,255,255)" stop-opacity="0.2"/>
<stop offset="49.999%" stop-color="rgb(255,255,255)" stop-opacity="0.0"/>
<stop offset="50.001%" stop-color="rgb(0,0,0)" stop-opacity="0.0"/>
<stop offset="100%" stop-color="rgb(0,0,0)" stop-opacity="0.2"/>
</linearGradient>
</defs>
<g>
<rect x="0" y="0" width="576" height="396" class="red"/>
<use xlink:href="#e" transform="translate(288 198) scale(237.6 237.6) rotate(0)" class="yellow"/>
<use xlink:href="#e" transform="translate(288 198) scale(237.6 237.6) rotate(90)" class="yellow"/>
<use xlink:href="#e" transform="translate(288 198) scale(237.6 237.6) rotate(180)" class="yellow"/>
<use xlink:href="#e" transform="translate(288 198) scale(237.6 237.6) rotate(270)" class="yellow"/>
</g>
<g>
<rect x="0" y="0" width="576" height="396" fill="url(#glaze)"/>
<path d="M 36 36 L 540 36 L 540 360 L 36 360 Z M 72 72 L 72 324 L 504 324 L 504 72 Z" fill="rgb(255,255,255)" opacity="0.4"/>
<path d="M 0 0 L 576 0 L 576 396 L 0 396 Z M 36 36 L 36 360 L 540 360 L 540 36 Z" fill="rgb(0,0,0)" opacity="0.4"/>
</g>
</svg>
