<?xml version="1.0"?>
<svg xmlns="http://www.w3.org/2000/svg" xmlns:xlink="http://www.w3.org/1999/xlink" version="1.1" width="576" height="396" viewBox="0 0 576 396">
<!-- Generated by Kreative Vexillo v1.0 -->
<style>
.red{fill:rgb(238,0,0);}
.white{fill:rgb(255,255,255);}
</style>
<defs>
<path id="e" d="M 0.0 -0.5 C -0.2761 -0.5 -0.5 -0.27609998 -0.5 0.0 S -0.2761 0.5 0.0 0.5 C 0.2761 0.5 0.5 0.27609998 0.5 0.0 C 0.5 -0.2761 0.2761 -0.5 0.0 -0.5 L 0.0 -0.5 Z M 0.0 -0.449 C 0.1888 -0.449 0.3419 -0.29250002 0.3419 -0.0995 C 0.3419 0.0935 0.18879999 0.25 0.0 0.25 H 0.0 C -0.1888 0.25 -0.3419 0.0935 -0.3419 -0.0995 C -0.3419 -0.0995 -0.3419 -0.0995 -0.3419 -0.0995 C -0.3419 -0.2925 -0.1888 -0.449 0.0 -0.449 Z M 0.0 -0.4009 C -0.1241 -0.4009 -0.2247 -0.3005 -0.2247 -0.17660001 S -0.1241 0.0477 0.0 0.0477 S 0.2247 -0.0527 0.2247 -0.1766 S 0.1241 -0.4009 0.0 -0.4009 L 0.0 -0.4009 Z"/>
<linearGradient id="glaze" x1="0%" y1="0%" x2="100%" y2="100%">
<stop offset="0%" stop-color="rgb(255,255,255)" stop-opacity="0.2"/>
<stop offset="49.999%" stop-color="rgb(255,255,255)" stop-opacity="0.0"/>
<stop offset="50.001%" stop-color="rgb(0,0,0)" stop-opacity="0.0"/>
<stop offset="100%" stop-color="rgb(0,0,0)" stop-opacity="0.2"/>
</linearGradient>
</defs>
<g>
<rect x="0" y="0" width="576" height="396" class="white"/>
<use xlink:href="#e" transform="translate(288 198) scale(282.15 282.15) rotate(0)" class="red"/>
</g>
<g>
<rect x="0" y="0" width="576" height="396" fill="url(#glaze)"/>
<path d="M 36 36 L 540 36 L 540 360 L 36 360 Z M 72 72 L 72 324 L 504 324 L 504 72 Z" fill="rgb(255,255,255)" opacity="0.4"/>
<path d="M 0 0 L 576 0 L 576 396 L 0 396 Z M 36 36 L 36 360 L 540 360 L 540 36 Z" fill="rgb(0,0,0)" opacity="0.4"/>
</g>
</svg>
