<?xml version="1.0"?>
<svg xmlns="http://www.w3.org/2000/svg" xmlns:xlink="http://www.w3.org/1999/xlink" version="1.1" width="576" height="396" viewBox="0 0 576 396">
<!-- Generated by Kreative Vexillo v1.0 -->
<style>
.red{fill:rgb(190,4,40);}
.white{fill:rgb(255,255,255);}
</style>
<defs>
<path id="e" d="M 0.2569 0.4288 L 0.4117 0.62689996 L 0.0 0.5 L -0.4117 0.6269 L -0.2569 0.42880002 C -0.326 0.38720003 -0.3844 0.3294 -0.42650002 0.26070002 L -0.31820002 0.19820002 C -0.284 0.25300002 -0.23600003 0.29830003 -0.17910002 0.32930002 L 0.0 0.1 L 0.1792 0.32930002 C 0.236 0.2982 0.28399998 0.2529 0.3183 0.19820002 L 0.4266 0.26070002 C 0.3843 0.3294 0.326 0.3872 0.2569 0.4288 Z M -0.3308 0.1765 C -0.359 0.1239 -0.375 0.0638 -0.375 0.0 C -0.375 -0.0032 -0.375 -0.0063 -0.3749 -0.0095 L -0.0866 -0.05 L -0.1956 -0.3198 C -0.1419 -0.3527 -0.0794 -0.3726 -0.012500003 -0.3748 V -0.49989998 C -0.09590001 -0.4978 -0.1744 -0.4752 -0.2429 -0.43699998 L -0.3371 -0.6701 L -0.433 -0.25 L -0.7487 0.0431 L -0.49980003 0.008099999 C -0.49850002 0.0916 -0.47660002 0.1702 -0.439 0.23910001 L -0.3308 0.1765 Z M 0.7488 0.0431 L 0.433 -0.25 L 0.3371 -0.67 L 0.2429 -0.43690002 C 0.1744 -0.4752 0.0959 -0.4978 0.0125 -0.4998 V -0.3747 C 0.0794 -0.3725 0.1419 -0.3527 0.1956 -0.3197 L 0.0866 -0.05 L 0.3749 -0.009500001 C 0.375 -0.0063 0.375 -0.0032 0.375 0.0 C 0.375 0.0638 0.359 0.1239 0.3308 0.1765 L 0.4391 0.239 C 0.4767 0.17019999 0.4986 0.0915 0.49989998 0.007999986 L 0.7488 0.0431 Z"/>
<linearGradient id="glaze" x1="0%" y1="0%" x2="100%" y2="100%">
<stop offset="0%" stop-color="rgb(255,255,255)" stop-opacity="0.2"/>
<stop offset="49.999%" stop-color="rgb(255,255,255)" stop-opacity="0.0"/>
<stop offset="50.001%" stop-color="rgb(0,0,0)" stop-opacity="0.0"/>
<stop offset="100%" stop-color="rgb(0,0,0)" stop-opacity="0.2"/>
</linearGradient>
</defs>
<g>
<rect x="0" y="0" width="576" height="396" class="white"/>
<use xlink:href="#e" transform="translate(288 198) scale(176 176) rotate(0)" class="red"/>
</g>
<g>
<rect x="0" y="0" width="576" height="396" fill="url(#glaze)"/>
<path d="M 36 36 L 540 36 L 540 360 L 36 360 Z M 72 72 L 72 324 L 504 324 L 504 72 Z" fill="rgb(255,255,255)" opacity="0.4"/>
<path d="M 0 0 L 576 0 L 576 396 L 0 396 Z M 36 36 L 36 360 L 540 360 L 540 36 Z" fill="rgb(0,0,0)" opacity="0.4"/>
</g>
</svg>
