<?xml version="1.0"?>
<svg xmlns="http://www.w3.org/2000/svg" xmlns:xlink="http://www.w3.org/1999/xlink" version="1.1" width="576" height="396" viewBox="0 0 576 396">
<!-- Generated by Kreative Vexillo v1.0 -->
<style>
.blue{fill:rgb(31,32,99);}
.yellow{fill:rgb(255,215,0);}
</style>
<defs>
<path id="e" d="M -0.4744 -0.5 L -0.06040001 -0.10710001 L -0.417 0.23159999 L -0.3599 0.2918 L -0.041399986 -0.01030001 L -0.041399986 0.41689998 L -0.041399986 0.49999997 L 0.041700013 0.49999997 L 0.041700013 0.41689998 L 0.041700013 -0.01030001 L 0.36020002 0.2918 L 0.4176 0.23159999 L 0.0602 -0.1071 L 0.4744 -0.5 L -0.47449997 -0.5 Z M -0.26630002 -0.4169 L 0.26599997 -0.4169 L 0.041499972 -0.20380001 L 0.041499972 -0.29070002 L -2.6077032E-8 -0.29070002 L -0.041500024 -0.29070002 L -0.041500024 -0.20380002 L -0.26630002 -0.41690004 Z"/>
<linearGradient id="glaze" x1="0%" y1="0%" x2="100%" y2="100%">
<stop offset="0%" stop-color="rgb(255,255,255)" stop-opacity="0.2"/>
<stop offset="49.999%" stop-color="rgb(255,255,255)" stop-opacity="0.0"/>
<stop offset="50.001%" stop-color="rgb(0,0,0)" stop-opacity="0.0"/>
<stop offset="100%" stop-color="rgb(0,0,0)" stop-opacity="0.2"/>
</linearGradient>
</defs>
<g>
<rect x="0" y="0" width="576" height="396" class="blue"/>
<use xlink:href="#e" transform="translate(288 198) scale(233.64 233.64) rotate(0)" class="yellow"/>
</g>
<g>
<rect x="0" y="0" width="576" height="396" fill="url(#glaze)"/>
<path d="M 36 36 L 540 36 L 540 360 L 36 360 Z M 72 72 L 72 324 L 504 324 L 504 72 Z" fill="rgb(255,255,255)" opacity="0.4"/>
<path d="M 0 0 L 576 0 L 576 396 L 0 396 Z M 36 36 L 36 360 L 540 360 L 540 36 Z" fill="rgb(0,0,0)" opacity="0.4"/>
</g>
</svg>
