<?xml version="1.0"?>
<svg xmlns="http://www.w3.org/2000/svg" xmlns:xlink="http://www.w3.org/1999/xlink" version="1.1" width="576" height="396" viewBox="0 0 576 396">
<!-- Generated by Kreative Vexillo v1.0 -->
<style>
.black{fill:rgb(0,0,0);}
.blue{fill:rgb(0,52,120);}
.red{fill:rgb(198,12,48);}
.white{fill:rgb(255,255,255);}
</style>
<defs>
<path id="earth" d="M -0.75 -0.5 L -0.0625 -0.5 L -0.0625 -0.25 L -0.75 -0.25 Z M 0.0625 -0.5 L 0.75 -0.5 L 0.75 -0.25 L 0.0625 -0.25 Z M -0.75 -0.125 L -0.0625 -0.125 L -0.0625 0.125 L -0.75 0.125 Z M 0.0625 -0.125 L 0.75 -0.125 L 0.75 0.125 L 0.0625 0.125 Z M -0.75 0.25 L -0.0625 0.25 L -0.0625 0.5 L -0.75 0.5 Z M 0.0625 0.25 L 0.75 0.25 L 0.75 0.5 L 0.0625 0.5 Z"/>
<path id="halfdisc" d="M 0.5 0.0 A 0.5 0.5 0.0 0 0 -0.5 0.0 Z"/>
<path id="moon" d="M -0.75 -0.5 L -0.0625 -0.5 L -0.0625 -0.25 L -0.75 -0.25 Z M 0.0625 -0.5 L 0.75 -0.5 L 0.75 -0.25 L 0.0625 -0.25 Z M -0.75 -0.125 L 0.75 -0.125 L 0.75 0.125 L -0.75 0.125 Z M -0.75 0.25 L -0.0625 0.25 L -0.0625 0.5 L -0.75 0.5 Z M 0.0625 0.25 L 0.75 0.25 L 0.75 0.5 L 0.0625 0.5 Z"/>
<path id="offsetdisc" d="M 0.0 0.0 A 0.25 0.25 0.0 0 0 -0.5 0.0 A 0.25 0.25 0.0 0 0 0.0 0.0 Z"/>
<path id="sky" d="M -0.75 -0.5 L 0.75 -0.5 L 0.75 -0.25 L -0.75 -0.25 Z M -0.75 -0.125 L 0.75 -0.125 L 0.75 0.125 L -0.75 0.125 Z M -0.75 0.25 L 0.75 0.25 L 0.75 0.5 L -0.75 0.5 Z"/>
<path id="sun" d="M -0.75 -0.5 L 0.75 -0.5 L 0.75 -0.25 L -0.75 -0.25 Z M -0.75 -0.125 L -0.0625 -0.125 L -0.0625 0.125 L -0.75 0.125 Z M 0.0625 -0.125 L 0.75 -0.125 L 0.75 0.125 L 0.0625 0.125 Z M -0.75 0.25 L 0.75 0.25 L 0.75 0.5 L -0.75 0.5 Z"/>
<linearGradient id="glaze" x1="0%" y1="0%" x2="100%" y2="100%">
<stop offset="0%" stop-color="rgb(255,255,255)" stop-opacity="0.2"/>
<stop offset="49.999%" stop-color="rgb(255,255,255)" stop-opacity="0.0"/>
<stop offset="50.001%" stop-color="rgb(0,0,0)" stop-opacity="0.0"/>
<stop offset="100%" stop-color="rgb(0,0,0)" stop-opacity="0.2"/>
</linearGradient>
</defs>
<g>
<rect x="0" y="0" width="576" height="396" class="white"/>
<use xlink:href="#halfdisc" transform="translate(288 198) scale(198 198) rotate(34.5085)" class="red"/>
<use xlink:href="#halfdisc" transform="translate(288 198) scale(198 198) rotate(214.5085)" class="blue"/>
<use xlink:href="#offsetdisc" transform="translate(288 198) scale(198 198) rotate(34.5085)" class="red"/>
<use xlink:href="#offsetdisc" transform="translate(288 198) scale(198 198) rotate(214.5085)" class="blue"/>
<use xlink:href="#sky" transform="translate(138.4364 95.175) scale(66 66) rotate(124.5085)" class="black"/>
<use xlink:href="#earth" transform="translate(437.5636 300.825) scale(66 66) rotate(124.5085)" class="black"/>
<use xlink:href="#sun" transform="translate(138.4364 300.825) scale(66 66) rotate(55.4915)" class="black"/>
<use xlink:href="#moon" transform="translate(437.5636 95.175) scale(66 66) rotate(55.4915)" class="black"/>
</g>
<g>
<rect x="0" y="0" width="576" height="396" fill="url(#glaze)"/>
<path d="M 36 36 L 540 36 L 540 360 L 36 360 Z M 72 72 L 72 324 L 504 324 L 504 72 Z" fill="rgb(255,255,255)" opacity="0.4"/>
<path d="M 0 0 L 576 0 L 576 396 L 0 396 Z M 36 36 L 36 360 L 540 360 L 540 36 Z" fill="rgb(0,0,0)" opacity="0.4"/>
</g>
</svg>
