<?xml version="1.0"?>
<svg xmlns="http://www.w3.org/2000/svg" xmlns:xlink="http://www.w3.org/1999/xlink" version="1.1" width="576" height="396" viewBox="0 0 576 396">
<!-- Generated by Kreative Vexillo v1.0 -->
<style>
.blue{fill:rgb(0,181,204);}
.buff{fill:rgb(255,227,173);}
.yellow{fill:rgb(255,242,3);}
</style>
<defs>
<path id="emblem" d="M 0.0 0.2374 C -0.1311 0.2374 -0.2374 0.1311 -0.2374 0.0 S -0.1311 -0.2374 0.0 -0.2374 S 0.2374 -0.1311 0.2374 0.0 S 0.132 0.2374 0.0 0.2374 Z M 0.0 -0.2698 C 0.0141 -0.2698 0.0194 -0.2788 0.0194 -0.2894 C 0.0194 -0.3035 0.0 -0.37080002 0.0 -0.37080002 S -0.0194 -0.3036 -0.0194 -0.2894 C -0.0186 -0.2788 -0.0133 -0.2698 0.0 -0.2698 Z M 0.2902 -0.0194 C 0.2796 -0.0194 0.2706 -0.0141 0.2706 0.0 C 0.2706 0.0141 0.2796 0.0194 0.2902 0.0194 C 0.3043 0.0194 0.3716 0.0 0.3716 0.0 S 0.3044 -0.0194 0.2902 -0.0194 Z M -0.0186 0.2894 C -0.0186 0.3035 8.000005E-4 0.3707 8.000005E-4 0.3707 S 0.020200001 0.3035 0.020200001 0.2894 C 0.020200001 0.2788 0.014900001 0.2698 8.000005E-4 0.2698 C -0.0133 0.27 -0.0186 0.2788 -0.0186 0.2894 Z M -0.269 0.0 C -0.269 -0.0141 -0.278 -0.0194 -0.2886 -0.0194 C -0.30269998 -0.0194 -0.37 0.0 -0.37 0.0 S -0.3028 0.0194 -0.2886 0.0194 C -0.278 0.0194 -0.269 0.0141 -0.269 0.0 Z M 0.1041 -0.2493 C 0.117199995 -0.2441 0.1255 -0.2493 0.1295 -0.26 C 0.1349 -0.273 0.1427 -0.3426 0.1427 -0.3426 S 0.09900001 -0.2879 0.093600005 -0.2749 C 0.0896 -0.265 0.0911 -0.2547 0.1041 -0.2493 Z M 0.2756 0.0928 C 0.2658 0.0887 0.2555 0.0902 0.2501 0.103199996 C 0.24489999 0.116299994 0.2501 0.12459999 0.26079997 0.1286 C 0.2738 0.134 0.34339997 0.1418 0.34339997 0.1418 S 0.2887 0.0982 0.2756 0.0928 Z M -0.1024 0.2493 C -0.115499996 0.2441 -0.123799995 0.2493 -0.1278 0.26 C -0.1332 0.273 -0.141 0.3426 -0.141 0.3426 S -0.09730001 0.2879 -0.091900006 0.2749 C -0.0879 0.265 -0.0894 0.2547 -0.1024 0.2493 Z M -0.2485 -0.1033 C -0.2433 -0.116399996 -0.2485 -0.124699995 -0.2592 -0.1287 C -0.27220002 -0.1341 -0.3418 -0.1419 -0.3418 -0.1419 S -0.28710002 -0.09820001 -0.2741 -0.092800006 C -0.2642 -0.0888 -0.2539 -0.0902 -0.2485 -0.1033 Z M 0.1916 -0.1908 C 0.2017 -0.1809 0.21169999 -0.18339999 0.2192 -0.1908 C 0.2292 -0.2008 0.263 -0.26209998 0.263 -0.26209998 S 0.20170002 -0.22829998 0.19170001 -0.21829998 C 0.1843 -0.2109 0.1816 -0.2008 0.1916 -0.1908 Z M 0.2192 0.1909 C 0.2117 0.1834 0.2016 0.18079999 0.1916 0.1909 C 0.18169999 0.201 0.18419999 0.211 0.1916 0.2185 C 0.2016 0.22850001 0.2629 0.2623 0.2629 0.2623 S 0.2292 0.2009 0.2192 0.1909 Z M -0.19 0.1908 C -0.2001 0.1809 -0.2101 0.18339999 -0.2176 0.1908 C -0.22760001 0.2008 -0.2614 0.262 -0.2614 0.262 S -0.20010002 0.22819999 -0.19020002 0.2182 C -0.1826 0.2109 -0.18 0.2008 -0.19 0.1908 Z M -0.19 -0.1908 C -0.1801 -0.20089999 -0.18259999 -0.2109 -0.19 -0.2184 C -0.2 -0.2284 -0.2612 -0.2622 -0.2612 -0.2622 S -0.2274 -0.2009 -0.21740001 -0.1909 C -0.2101 -0.1834 -0.1999 -0.1808 -0.19 -0.1908 Z M 0.2501 -0.1033 C 0.2557 -0.090299994 0.2658 -0.0888 0.2756 -0.0929 C 0.2886 -0.0983 0.34329998 -0.142 0.34329998 -0.142 S 0.2738 -0.1342 0.2607 -0.1288 C 0.251 -0.1246 0.2447 -0.1163 0.2501 -0.1033 Z M 0.1427 0.3425 C 0.1427 0.3425 0.1349 0.273 0.1295 0.2599 C 0.12550001 0.25010002 0.1171 0.2438 0.104100004 0.2492 C 0.09110001 0.2548 0.089600004 0.2649 0.09370001 0.2747 C 0.0991 0.2879 0.1427 0.3425 0.1427 0.3425 Z M -0.2485 0.1033 C -0.2541 0.090299994 -0.2642 0.0888 -0.274 0.0929 C -0.287 0.0983 -0.3417 0.142 -0.3417 0.142 S -0.2722 0.1342 -0.2591 0.1288 C -0.2493 0.1246 -0.243 0.1163 -0.2485 0.1033 Z M -0.1024 -0.2493 C -0.08939999 -0.2549 -0.0879 -0.26500002 -0.092 -0.2748 C -0.0974 -0.2878 -0.1411 -0.3425 -0.1411 -0.3425 S -0.1333 -0.273 -0.1279 -0.2599 C -0.1238 -0.2502 -0.1155 -0.2439 -0.1024 -0.2493 Z M 0.0535 -0.2646 C 0.0674 -0.262 0.0743 -0.2696 0.0764 -0.28 C 0.0792 -0.2938 0.073199995 -0.36360002 0.073199995 -0.36360002 S 0.040999994 -0.3014 0.038299996 -0.2876 C 0.0362 -0.2773 0.0396 -0.2674 0.0535 -0.2646 Z M 0.2885 0.0374 C 0.2781 0.0353 0.2683 0.0388 0.2655 0.0526 C 0.2629 0.0665 0.2705 0.0734 0.2809 0.0755 C 0.2947 0.0783 0.3645 0.072299995 0.3645 0.072299995 S 0.3023 0.0402 0.2885 0.0374 Z M -0.0747 0.2801 C -0.0775 0.29389998 -0.071499996 0.36369997 -0.071499996 0.36369997 S -0.039299995 0.30149996 -0.036599997 0.28769997 C -0.0345 0.27729997 -0.038 0.26749998 -0.051799998 0.26469997 C -0.0657 0.2621 -0.0726 0.2697 -0.0747 0.2801 Z M -0.2638 -0.0526 C -0.26119998 -0.0665 -0.2688 -0.0734 -0.2792 -0.0755 C -0.29299998 -0.0783 -0.3628 -0.072299995 -0.3628 -0.072299995 S -0.3006 -0.040099993 -0.2868 -0.037399996 C -0.2764 -0.0354 -0.2666 -0.0388 -0.2638 -0.0526 Z M 0.1507 -0.2244 C 0.16250001 -0.2167 0.1718 -0.2211 0.1777 -0.2299 C 0.1855 -0.2416 0.2068 -0.30830002 0.2068 -0.30830002 S 0.1533 -0.2632 0.1455 -0.25140002 C 0.1396 -0.2426 0.139 -0.2322 0.1507 -0.2244 Z M 0.2523 0.1446 C 0.2435 0.13870001 0.2331 0.1381 0.2252 0.1499 C 0.2175 0.16170001 0.2219 0.171 0.2307 0.1769 C 0.2424 0.1847 0.3091 0.206 0.3091 0.206 S 0.264 0.1525 0.2523 0.1446 Z M -0.1438 0.2514 C -0.13790001 0.2426 -0.1373 0.2322 -0.1491 0.2243 C -0.16090001 0.2166 -0.1702 0.221 -0.1761 0.2298 C -0.1839 0.2415 -0.2052 0.3082 -0.2052 0.3082 S -0.1517 0.2632 -0.1438 0.2514 Z M -0.2506 -0.1446 C -0.24180001 -0.13870001 -0.23140001 -0.1381 -0.22350001 -0.1499 C -0.21580002 -0.16170001 -0.22020002 -0.171 -0.22900002 -0.1769 C -0.24070002 -0.1847 -0.30740002 -0.206 -0.30740002 -0.206 S -0.2623 -0.1525 -0.2506 -0.1446 Z M 0.2252 -0.1499 C 0.2332 -0.1383 0.2435 -0.13880001 0.2523 -0.1446 C 0.264 -0.1524 0.3092 -0.2059 0.3092 -0.2059 S 0.24249999 -0.1847 0.23079999 -0.1768 C 0.2219 -0.171 0.2173 -0.1616 0.2252 -0.1499 Z M 0.2068 0.3083 C 0.2068 0.3083 0.1856 0.24159999 0.1777 0.22989999 C 0.1718 0.22109999 0.16239999 0.21659999 0.1507 0.22439998 C 0.1391 0.23239999 0.13960001 0.24269998 0.1454 0.25149998 C 0.1533 0.2632 0.2068 0.3083 0.2068 0.3083 Z M -0.2235 0.1499 C -0.2315 0.1383 -0.2418 0.13880001 -0.2506 0.1446 C -0.2623 0.1524 -0.3075 0.2059 -0.3075 0.2059 S -0.24080001 0.1847 -0.2291 0.1768 C -0.2202 0.171 -0.2157 0.1616 -0.2235 0.1499 Z M -0.1491 -0.2244 C -0.1375 -0.2324 -0.13800001 -0.2427 -0.1438 -0.2515 C -0.1516 -0.2632 -0.2051 -0.3084 -0.2051 -0.3084 S -0.1839 -0.24170001 -0.176 -0.23 C -0.1702 -0.221 -0.1608 -0.2165 -0.1491 -0.2244 Z M 0.2809 -0.0755 C 0.2705 -0.0734 0.2627 -0.06649999 0.2655 -0.052599996 C 0.2684 -0.038799997 0.2781 -0.035299994 0.2885 -0.037399996 C 0.3023 -0.040199995 0.36450002 -0.072299995 0.36450002 -0.072299995 S 0.2947 -0.0783 0.2809 -0.0755 Z M 0.0535 0.2646 C 0.0397 0.2675 0.0362 0.2772 0.0383 0.2876 C 0.0411 0.3014 0.0732 0.36360002 0.0732 0.36360002 S 0.079100005 0.2939 0.076400004 0.28000003 C 0.0743 0.2697 0.0673 0.2619 0.0535 0.2646 Z M -0.2638 0.0526 C -0.2667 0.0388 -0.2764 0.0353 -0.2868 0.0374 C -0.3006 0.0402 -0.3628 0.0723 -0.3628 0.0723 S -0.2931 0.078200005 -0.27920002 0.075500004 C -0.2688 0.0734 -0.2611 0.0665 -0.2638 0.0526 Z M -0.0518 -0.2646 C -0.038000003 -0.2675 -0.034500003 -0.2772 -0.0366 -0.2876 C -0.0394 -0.3014 -0.0715 -0.36360002 -0.0715 -0.36360002 S -0.07740001 -0.2939 -0.074700005 -0.28000003 C -0.0726 -0.2697 -0.0657 -0.2619 -0.0518 -0.2646 Z M 0.0149 0.5568 C 0.0233 0.5568 0.031799998 0.5589 0.0401 0.5568 C 0.0421 0.5568 0.0452 0.5568 0.0464 0.555 C 0.0426 0.5528 0.0382 0.5528 0.033999998 0.5522 H 3.9999932E-4 C -0.009000001 0.5522 -0.0187 0.5511 -0.0275 0.54760003 C -0.0299 0.54760003 -0.031999998 0.54440004 -0.0343 0.54760003 C -0.0377 0.54880005 -0.0412 0.5496 -0.0448 0.54980004 C -0.051 0.54980004 -0.0572 0.54980004 -0.0629 0.54670006 C -0.0588 0.54100007 -0.053799998 0.5360001 -0.0493 0.5307001 C -0.0529 0.5307001 -0.0565 0.5294001 -0.0601 0.5285001 C -0.0537 0.52410007 -0.0477 0.51910007 -0.041500002 0.51440006 C -0.047900002 0.51440006 -0.054 0.5156001 -0.060100004 0.51750004 C -0.0684 0.51860005 -0.0763 0.52150005 -0.0846 0.5228 L -0.0879 0.5228 L -0.0934 0.5228 C -0.0934 0.52430004 -0.0934 0.5259 -0.0934 0.5274 C -0.0934 0.52900004 -0.0934 0.5305 -0.0934 0.53180003 C -0.0934 0.53300005 -0.094900005 0.5346 -0.0957 0.53550005 C -0.0969 0.5368 -0.09810001 0.53790003 -0.0996 0.5386 C -0.101 0.5386 -0.1026 0.5396 -0.104200006 0.53970003 C -0.1058 0.53970003 -0.10740001 0.53970003 -0.109000005 0.53970003 C -0.1106 0.53970003 -0.112100005 0.5382 -0.113400005 0.53700006 C -0.115100004 0.53700006 -0.1168 0.53700006 -0.118300006 0.53700006 C -0.1199 0.53700006 -0.12150001 0.53700006 -0.12290001 0.53700006 C -0.12450001 0.53700006 -0.1263 0.5360001 -0.1278 0.53540003 S -0.1309 0.5339 -0.1324 0.53300005 C -0.1384 0.53650004 -0.14510001 0.53990006 -0.1488 0.5461001 C -0.1509 0.54890007 -0.1513 0.5522001 -0.1517 0.5555001 C -0.1517 0.5596001 -0.1517 0.56400007 -0.1492 0.5678001 C -0.1492 0.5689001 -0.148 0.5637001 -0.14600001 0.5630001 C -0.14260001 0.5602001 -0.13850002 0.55820006 -0.1342 0.55710006 C -0.1306 0.55530006 -0.13110001 0.55710006 -0.13260001 0.56000006 C -0.13260001 0.5615001 -0.1349 0.56710005 -0.13260001 0.56420004 C -0.12070001 0.55890006 -0.10740001 0.55780005 -0.094500005 0.55680007 C -0.0758 0.55490005 -0.057000004 0.5544001 -0.038300004 0.55420005 C -0.0204 0.5559 -0.0028 0.5562 0.0149 0.5568 Z M 0.4495 0.2821 C 0.46899998 0.288 0.484 0.2688 0.5011 0.26319999 C 0.5141 0.25689998 0.5086 0.27449998 0.50450003 0.28039998 C 0.48730004 0.30659997 0.45630002 0.31829998 0.43180004 0.3363 C 0.41750005 0.34149998 0.42330003 0.34759998 0.43590003 0.34539998 C 0.44210002 0.34539998 0.46330002 0.34189996 0.45400003 0.3523 C 0.43360004 0.36729997 0.40670002 0.3683 0.38390002 0.37829998 C 0.3973 0.38309997 0.41320002 0.37829998 0.42580003 0.38379997 C 0.41030002 0.39579996 0.38950002 0.39679998 0.37110004 0.40159997 C 0.35660005 0.40299997 0.35570005 0.40689996 0.37110004 0.40809998 C 0.37740004 0.40969998 0.39440003 0.40809998 0.39380005 0.41469997 C 0.37220004 0.42199996 0.34700006 0.41759998 0.32700005 0.42999998 C 0.32800004 0.4351 0.34240004 0.43829998 0.34920004 0.44109997 C 0.36350003 0.44599998 0.33790004 0.45219997 0.33300003 0.45789996 C 0.29600003 0.48139995 0.25140002 0.48949996 0.20810004 0.48619995 C 0.24280003 0.48269993 0.27510005 0.46759996 0.30270004 0.44669995 C 0.31500006 0.44249994 0.31070003 0.43189994 0.30780005 0.42239994 C 0.31750005 0.42239994 0.32940006 0.42139995 0.33490005 0.41309994 C 0.32030004 0.40469995 0.33180004 0.39989996 0.34290004 0.39739993 C 0.34870005 0.39539993 0.36360005 0.38909993 0.35340005 0.38279992 C 0.35480005 0.37299994 0.36910006 0.37119994 0.37660006 0.36609992 C 0.39040005 0.36119992 0.38880005 0.3582999 0.37530005 0.35589993 C 0.39000005 0.34309992 0.40810004 0.33549994 0.42400005 0.32449993 C 0.43650004 0.31849992 0.41360006 0.31679994 0.40760005 0.31539994 C 0.41830003 0.30379996 0.43850005 0.29399994 0.43490005 0.27529994 C 0.42450005 0.27529994 0.41560003 0.28139994 0.40530005 0.28169993 C 0.41790006 0.26909992 0.42830005 0.25299993 0.42940006 0.23479992 C 0.41410005 0.23139992 0.39800006 0.23479992 0.38450006 0.24299993 C 0.35600007 0.2598999 0.33190006 0.28469992 0.31420004 0.31259993 C 0.31090003 0.32209992 0.30690005 0.33059993 0.29640004 0.33389992 C 0.25000003 0.3594999 0.19470003 0.3754999 0.16210005 0.4200999 C 0.119300045 0.43199992 0.074000046 0.43039992 0.03140004 0.44329992 C 0.00950004 0.4476999 -0.0045999587 0.46509993 -0.020799961 0.4785999 C -0.04769996 0.4973999 -0.07489996 0.51609993 -0.10609996 0.52689993 C -0.10609996 0.52689993 -0.10609996 0.52689993 -0.10609996 0.52689993 C -0.10609996 0.52689993 -0.10609996 0.52689993 -0.10609996 0.52689993 C -0.10379996 0.52689993 -0.10189997 0.52879995 -0.10189997 0.5310999 C -0.10189997 0.53339994 -0.10379997 0.5352999 -0.10609996 0.5352999 S -0.11029996 0.5333999 -0.11029996 0.5310999 C -0.11029996 0.5299999 -0.11029996 0.5288999 -0.10909996 0.5281999 C -0.11729996 0.5326999 -0.12389996 0.5409999 -0.13299996 0.5326999 C -0.13299996 0.5301999 -0.13299996 0.5275999 -0.13159996 0.52539986 C -0.11819996 0.50799984 -0.09369996 0.5060999 -0.07499996 0.49679986 C -0.033099957 0.48349985 -0.013099957 0.44109985 0.019900039 0.41569984 C 0.033500038 0.41079983 0.04900004 0.41269985 0.06330004 0.40949985 C 0.11640005 0.40179986 0.16850004 0.38469985 0.21520004 0.35829985 C 0.31720003 0.29949984 0.39520004 0.19789985 0.41810006 0.08159986 C 0.41560006 0.06979986 0.43480006 0.06469986 0.43760005 0.07659986 C 0.44350004 0.103199854 0.43580005 0.13069986 0.43140006 0.15699986 C 0.45100006 0.12859985 0.45550007 0.093499854 0.46500006 0.061099857 C 0.46930006 0.053099856 0.46680006 0.03739986 0.47740006 0.035499856 C 0.49070007 0.033699855 0.49260005 0.048099857 0.49270007 0.057799853 C 0.49270007 0.10529985 0.46980006 0.14909986 0.44830006 0.19019985 C 0.47290006 0.16979985 0.48750007 0.14059985 0.5066001 0.11559985 C 0.5123001 0.10469985 0.5261001 0.09639984 0.53700006 0.10549985 C 0.54380006 0.11729985 0.53130007 0.13009985 0.52660006 0.14079985 C 0.5048001 0.17659985 0.47980008 0.21109985 0.44960007 0.24029985 C 0.48110008 0.22539985 0.5034001 0.19739985 0.5281001 0.17359985 C 0.5329001 0.16429986 0.5516001 0.16559985 0.55020005 0.17739986 C 0.5244 0.2186 0.4879 0.2524 0.4495 0.2821 Z M -0.1062 0.5275 C -0.1078 0.5275 -0.109000005 0.52879995 -0.109000005 0.53029996 S -0.107700005 0.53309995 -0.1062 0.53309995 S -0.1034 0.5318 -0.1034 0.53029996 S -0.1047 0.5275 -0.1062 0.5275 Z M 0.1714 0.517 C 0.1618 0.518 0.152 0.517 0.1531 0.5278 C 0.1513 0.5368 0.1323 0.5338 0.1376 0.5414 C 0.1435 0.5511 0.1269 0.5571 0.120000005 0.5612 C 0.07740001 0.5772 0.030800007 0.5672 -0.01349999 0.5726 C -0.03919999 0.5748 -0.06979999 0.58460003 -0.07719999 0.6126 C -0.05839999 0.6176 -0.042599987 0.60160005 -0.027699988 0.5927 C -0.023199989 0.5951 -0.030499987 0.6115 -0.023499988 0.6172 C -0.008899988 0.6161 4.0001236E-4 0.6002 0.008800011 0.5894 C 0.015900012 0.59749997 0.005500011 0.6099 0.012000011 0.6172 C 0.02870001 0.61880004 0.035700012 0.5991 0.04770001 0.59110004 C 0.05570001 0.58970004 0.04440001 0.60880005 0.05070001 0.614 C 0.06220001 0.6189 0.07410001 0.6107 0.077800006 0.5995 C 0.08320001 0.5837 0.0882 0.5954 0.09030001 0.6053 C 0.09700001 0.61660004 0.11000001 0.6053 0.11490001 0.5985 C 0.120900005 0.5833 0.12670001 0.5966 0.13450001 0.603 C 0.15100001 0.6056 0.1562 0.5861 0.16640002 0.5775 C 0.16640002 0.58709997 0.17610002 0.5995 0.18460001 0.5898 C 0.19170001 0.5832 0.19240001 0.5694 0.2001 0.5652 C 0.2108 0.5693 0.2205 0.5829 0.2333 0.57519996 V 0.57519996 C 0.241 0.5696 0.2397 0.55849993 0.2415 0.5502 C 0.2389 0.5342 0.2522 0.55619997 0.2612 0.55469996 C 0.2799 0.56119996 0.303 0.54649997 0.2998 0.52559996 C 0.2569 0.5242 0.2144 0.5151 0.1714 0.517 Z M -0.4292 0.2158 C -0.42049998 0.2236 -0.4237 0.20830001 -0.4167 0.2066 C -0.4093 0.2121 -0.4014 0.2172 -0.3948 0.2238 C -0.3599 0.2538 -0.3395 0.297 -0.30380002 0.326 C -0.28710002 0.3402 -0.2662 0.3473 -0.24540001 0.3529 C -0.22260001 0.3664 -0.20600002 0.3881 -0.18570001 0.4048 C -0.16630001 0.4226 -0.13910002 0.425 -0.11410002 0.4263 C -0.08380002 0.42769998 -0.04910002 0.4263 -0.025300018 0.4488 C -0.017400019 0.4388 -0.013700019 0.42589998 -0.007500019 0.4147 L -0.007500019 0.4147 C -0.014500019 0.4147 -0.02160002 0.4147 -0.028600018 0.4134 C -0.106200024 0.4088 -0.18220003 0.3826 -0.24620003 0.3387 C -0.32400003 0.285 -0.38360003 0.2051 -0.41020003 0.114199996 C -0.41490003 0.10079999 -0.41590002 0.0853 -0.42110002 0.072699994 C -0.42740002 0.067499995 -0.4372 0.070099995 -0.43820003 0.07869999 C -0.44270003 0.10499999 -0.43590003 0.13159999 -0.43140003 0.1575 C -0.45210004 0.1267 -0.45660004 0.089 -0.46690002 0.0542 C -0.47030002 0.0478 -0.46870002 0.0344 -0.47910002 0.036 C -0.4916 0.036 -0.49220002 0.0495 -0.4927 0.0587 C -0.4927 0.1061 -0.4695 0.1495 -0.44820002 0.1907 C -0.4731 0.1697 -0.48790002 0.1397 -0.5079 0.11439999 C -0.5131 0.10559999 -0.5232 0.098699994 -0.5334 0.10379999 C -0.5436 0.10739999 -0.5379 0.11949999 -0.5345 0.12619999 C -0.5155 0.1634 -0.4896 0.1968 -0.4623 0.22839999 C -0.4601 0.23239999 -0.44370002 0.2435 -0.4541 0.2384 C -0.48360002 0.2228 -0.50490004 0.1963 -0.52860004 0.1735 C -0.53340006 0.1645 -0.55170006 0.1663 -0.55020005 0.1779 C -0.5285 0.21270001 -0.49850005 0.2415 -0.46760005 0.268 C -0.46380004 0.2734 -0.44870004 0.2796 -0.45150006 0.28350002 C -0.47270006 0.2869 -0.48710006 0.26520002 -0.5069001 0.2626 C -0.51370007 0.26410002 -0.50530005 0.276 -0.5024001 0.2804 C -0.4769001 0.3075 -0.4411001 0.3213 -0.4077001 0.3359 C -0.4194001 0.3409 -0.43260008 0.337 -0.4449001 0.337 C -0.4497001 0.33830002 -0.4667001 0.3321 -0.46260008 0.3398 C -0.44460008 0.36 -0.41460007 0.3533 -0.3917001 0.3628 C -0.3973001 0.3675 -0.40510008 0.3685 -0.41210008 0.3697 C -0.41770008 0.372 -0.43130007 0.3697 -0.43220007 0.37550002 C -0.41910008 0.3844 -0.4021001 0.3826 -0.38730007 0.38670003 C -0.37260008 0.38670003 -0.37910008 0.39060003 -0.38950008 0.39310002 C -0.39500007 0.39550003 -0.40510008 0.39570004 -0.4077001 0.40050003 C -0.39040008 0.41130003 -0.36900008 0.41260004 -0.3493001 0.41650003 C -0.35880008 0.42060003 -0.3693001 0.42180002 -0.3784001 0.42650002 C -0.3576001 0.43420002 -0.33720008 0.44280002 -0.31690007 0.45170003 C -0.27770007 0.46910003 -0.23620006 0.48190004 -0.19320008 0.48430002 C -0.20800008 0.48150003 -0.22240008 0.4771 -0.23670009 0.47230002 C -0.27260008 0.46010002 -0.3088001 0.44750002 -0.3416001 0.42830002 C -0.3343001 0.42270002 -0.3255001 0.41930002 -0.31840008 0.41330004 C -0.3326001 0.41330004 -0.3468001 0.40830004 -0.3592001 0.40140003 C -0.3725001 0.39660004 -0.3569001 0.39060003 -0.3519001 0.38540003 C -0.3529001 0.38040003 -0.3656001 0.37970003 -0.3713001 0.37680003 C -0.3803001 0.37680003 -0.3829001 0.36600003 -0.3759001 0.36130002 C -0.3657001 0.3562 -0.38050008 0.35310003 -0.38500008 0.35130003 C -0.39270008 0.34710002 -0.38350007 0.33760002 -0.38730007 0.33260003 C -0.40560007 0.32970002 -0.42050007 0.31800002 -0.43450007 0.30670002 C -0.43190005 0.30400002 -0.41860008 0.30460003 -0.41190007 0.30350003 C -0.42600006 0.29330003 -0.43830007 0.28040004 -0.44800007 0.26600003 C -0.44440007 0.26330003 -0.43150008 0.26600003 -0.42420006 0.26480004 C -0.42570007 0.24680004 -0.43630007 0.23080003 -0.44700006 0.21670005 C -0.4457 0.2121 -0.4339 0.2124 -0.4292 0.2158 Z M -0.1062 0.532 C -0.1062 0.532 -0.1045 0.532 -0.1045 0.5303 S -0.1045 0.52860004 -0.1062 0.52860004 C -0.1062 0.52860004 -0.1079 0.52860004 -0.1079 0.5303 S -0.1072 0.532 -0.1062 0.532 Z"/>
<path id="ornament" d="M 0.9039 0.3518 C 0.935 0.3426 0.94740003 0.3366 0.94740003 0.32709998 C 0.94740003 0.3117 0.87970006 0.29959998 0.7523 0.29759997 C 0.8797 0.2956 0.9474 0.2836 0.9474 0.2682 C 0.9474 0.2586 0.935 0.2526 0.90389997 0.24350001 C 0.90389997 0.24350001 0.653 0.16950001 0.5553 0.14090002 C 0.5431 0.13730001 0.5392 0.13330002 0.5392 0.12730001 C 0.5392 0.11810001 0.6021 0.11060001 0.6681 0.110400006 C 0.7283 0.110400006 0.7938 0.118300006 0.7938 0.1277 C 0.7938 0.139 0.7525 0.144 0.71 0.144 C 0.65779996 0.144 0.63699996 0.14099999 0.63699996 0.13579999 C 0.63699996 0.13219999 0.6493 0.13059999 0.66709995 0.13059999 C 0.71189994 0.13059999 0.69929993 0.13909999 0.69929993 0.13909999 C 0.72159994 0.13909999 0.7397999 0.13519998 0.7293999 0.13119999 C 0.74569994 0.13119999 0.7608999 0.12949999 0.7728999 0.12749998 C 0.7608999 0.12589999 0.74709994 0.124599986 0.7293999 0.124099985 C 0.73989993 0.119199984 0.72589993 0.11679999 0.6955999 0.115799986 C 0.7016999 0.11769999 0.7018999 0.11939999 0.6998999 0.121099986 C 0.6521 0.1191 0.5789 0.1221 0.5789 0.1338 C 0.5789 0.1454 0.6357 0.1552 0.74219996 0.1527 C 0.71689993 0.1544 0.70399994 0.1579 0.7014 0.16190001 C 0.72069997 0.16080001 0.74219996 0.16070001 0.74219996 0.16070001 C 0.7298 0.1638 0.7125 0.1665 0.7132 0.1726 C 0.73289996 0.1713 0.7513 0.169 0.7766 0.1705 C 0.7369 0.18159999 0.7857 0.1968 0.9098 0.2004 C 0.86439997 0.1929 0.8421 0.1847 0.8421 0.1766 C 0.8421 0.1503 0.8937 0.1459 0.8937 0.1276 C 0.8937 0.12 0.8665 0.1119 0.8128 0.1063 C 0.848 0.104899995 0.8708 0.1024 0.884 0.099 C 0.884 0.099 0.884 0.099 0.884 0.099 L 0.884 0.099 C 0.8589 0.0942 0.8426 0.0928 0.8003 0.0924 C 0.8474 0.0889 0.89530003 0.0814 0.89530003 0.0697 C 0.89530003 0.0516 0.84290004 0.044200003 0.84290004 0.023800004 C 0.84290004 0.012500004 0.9082 -0.0018999949 0.9082 -0.0018999949 C 0.79270005 -2.9999495E-4 0.73550004 0.0149000045 0.768 0.027000004 C 0.7496 0.027000004 0.7329 0.027000004 0.71860003 0.024900004 C 0.7102 0.028300004 0.7235 0.032200005 0.74140006 0.035500005 C 0.72700006 0.036600005 0.7164001 0.035500005 0.69350004 0.035500005 C 0.69570005 0.039000005 0.7103 0.042600006 0.74610007 0.046100006 C 0.64230007 0.042300005 0.5784001 0.052500006 0.5784001 0.063300006 C 0.5784001 0.07140001 0.61850005 0.0772 0.65770006 0.0772 C 0.6704001 0.0772 0.68900007 0.0772 0.6995001 0.0753 C 0.70690006 0.0775 0.7031001 0.0805 0.6955001 0.0828 C 0.72420007 0.0817 0.74250007 0.0793 0.72950006 0.0743 C 0.7516 0.0743 0.76910007 0.073 0.78110003 0.0709 C 0.76900005 0.0687 0.75070006 0.0674 0.72950006 0.0675 C 0.74560004 0.062800005 0.72770005 0.060200002 0.7016001 0.058000002 C 0.7016001 0.058000002 0.7182001 0.0675 0.6758001 0.0675 C 0.6567001 0.0675 0.63940006 0.0675 0.63940006 0.0626 C 0.63940006 0.059100002 0.66080004 0.054300003 0.7102001 0.0546 C 0.75960004 0.0546 0.79960006 0.0594 0.79960006 0.0706 C 0.79960006 0.080900006 0.74090004 0.086 0.6636001 0.0864 C 0.5939001 0.0864 0.5412001 0.081300005 0.5412001 0.0712 C 0.5412001 0.0576 0.6794001 0.026699997 0.6794001 0.014599998 C 0.6794001 0.005499997 0.62180007 4.999973E-4 0.5655001 4.999973E-4 C 0.5304001 4.999973E-4 0.49810007 0.0028999974 0.47380006 0.0052999975 C 0.44950005 0.0027999976 0.41720006 4.999973E-4 0.38210005 4.999973E-4 C 0.32580006 4.999973E-4 0.26820004 0.0055999975 0.26820004 0.014599998 C 0.26820004 0.026699997 0.40640002 0.0576 0.40640002 0.0712 C 0.40640002 0.0814 0.35380003 0.086799994 0.28400004 0.0864 C 0.20670004 0.0864 0.14800003 0.0809 0.14800003 0.0706 C 0.14800003 0.059400003 0.18810004 0.054900005 0.23740003 0.0546 C 0.28680003 0.0546 0.30820003 0.059100002 0.30820003 0.0626 C 0.30820003 0.0666 0.29080003 0.0675 0.27180004 0.0675 C 0.22940004 0.0675 0.24600004 0.058000002 0.24600004 0.058000002 C 0.21990004 0.0601 0.20200004 0.062800005 0.21810004 0.0675 C 0.19700004 0.0675 0.17860004 0.0687 0.16650003 0.0709 C 0.17840004 0.0729 0.19600004 0.074 0.21810004 0.0743 C 0.20510004 0.0793 0.22340004 0.0818 0.25210005 0.0828 C 0.24450006 0.0806 0.24070005 0.0776 0.24810006 0.0753 C 0.25860006 0.0764 0.27720004 0.0772 0.28990006 0.0772 C 0.32910007 0.0772 0.36920005 0.0714 0.36920005 0.063300006 C 0.36920005 0.052600004 0.30530006 0.04230001 0.20150006 0.046100006 C 0.23730005 0.042600006 0.25190005 0.039000005 0.25410005 0.035500005 C 0.23120005 0.035500005 0.22060005 0.036800005 0.20620006 0.035500005 C 0.22410007 0.032100003 0.23740005 0.028200004 0.22900006 0.024900004 C 0.21470006 0.026800005 0.19800006 0.027400004 0.17960006 0.027000004 C 0.21220006 0.0149000045 0.15490006 -2.9999577E-4 0.039400056 -0.0018999949 C 0.039400056 -0.0018999949 0.10470006 0.012500005 0.10470006 0.023800004 C 0.10470006 0.044200003 0.05230006 0.0516 0.05230006 0.0697 C 0.05230006 0.0814 0.10020006 0.0889 0.14730006 0.0924 C 0.105000064 0.0924 0.08870006 0.0942 0.06360006 0.099 L 0.06360006 0.099 C 0.06360006 0.099 0.06360006 0.099 0.06360006 0.099 C 0.07670006 0.1024 0.09960006 0.1049 0.13480006 0.1063 C 0.08110006 0.111899994 0.053900063 0.1201 0.053900063 0.1276 C 0.053900063 0.1459 0.105500065 0.1503 0.105500065 0.1766 C 0.105500065 0.1847 0.08330007 0.1929 0.037800066 0.2004 C 0.16190007 0.1968 0.21070006 0.18159999 0.17100006 0.1705 C 0.19630006 0.169 0.21460006 0.1705 0.23440006 0.1726 C 0.23440006 0.1665 0.21780007 0.1638 0.20540006 0.1607 C 0.20540006 0.1607 0.22690007 0.1607 0.24620007 0.1619 C 0.24360007 0.15799999 0.23070008 0.1545 0.20540006 0.15269999 C 0.3116 0.1552 0.3684 0.1454 0.3684 0.1338 C 0.3684 0.1221 0.2953 0.1191 0.2476 0.121 C 0.2456 0.1194 0.2458 0.1176 0.25190002 0.1157 C 0.22160001 0.1167 0.20760001 0.1191 0.21810001 0.124 C 0.20040001 0.124 0.18660001 0.1257 0.1746 0.1274 C 0.1866 0.1293 0.2018 0.13049999 0.21810001 0.1311 C 0.20770001 0.13509999 0.22590001 0.1383 0.24820001 0.139 C 0.24820001 0.139 0.23560001 0.1305 0.2804 0.1305 C 0.2981 0.1305 0.3105 0.1321 0.3105 0.1357 C 0.3105 0.1409 0.2897 0.1439 0.2375 0.1439 C 0.1951 0.1439 0.1537 0.13890001 0.1537 0.12760001 C 0.1537 0.11830001 0.21919999 0.110100016 0.2794 0.11030001 C 0.34539998 0.11030001 0.40829998 0.11810001 0.40829998 0.1272 C 0.40829998 0.1332 0.4044 0.13720001 0.3922 0.14080001 C 0.2945 0.1694 0.043599993 0.24340001 0.043599993 0.24340001 C 0.0123 0.2526 0.0 0.2586 0.0 0.2682 C 0.0 0.2836 0.0677 0.2957 0.1951 0.29770002 C 0.0677 0.2996 0.0 0.3117 0.0 0.3271 C 0.0 0.33670002 0.0124 0.3427 0.0435 0.35180002 C 0.0435 0.35180002 0.2944 0.42580003 0.3921 0.45440003 C 0.4043 0.45800003 0.4082 0.46200004 0.4082 0.46800002 C 0.4082 0.47720003 0.3453 0.48470002 0.27929997 0.48490003 C 0.21909997 0.48490003 0.15359998 0.47700003 0.15359998 0.46760002 C 0.15359998 0.45630002 0.19489998 0.45130002 0.23739998 0.45130002 C 0.28959998 0.45130002 0.31039998 0.45430002 0.31039998 0.4595 C 0.31039998 0.46310002 0.2981 0.4647 0.2803 0.4647 C 0.2355 0.4647 0.24809998 0.4562 0.24809998 0.4562 C 0.22579998 0.4562 0.20759998 0.4601 0.21799998 0.4641 C 0.20169997 0.4641 0.18649998 0.46580002 0.17449999 0.4678 C 0.18649998 0.4694 0.2003 0.4707 0.218 0.4712 C 0.2075 0.4761 0.2215 0.47849998 0.2518 0.4795 C 0.2457 0.4776 0.2455 0.4759 0.2475 0.4742 C 0.2952 0.4761 0.36830002 0.4731 0.36830002 0.4614 C 0.36830002 0.4498 0.3115 0.44 0.20500003 0.4425 C 0.23030002 0.44079998 0.24320003 0.4373 0.24580003 0.4333 C 0.22650003 0.4344 0.20500003 0.43449998 0.20500003 0.43449998 C 0.21740003 0.43139997 0.23470002 0.42869997 0.23400003 0.42259997 C 0.21430002 0.42389998 0.19590002 0.42619997 0.17060003 0.42469996 C 0.21030003 0.41359997 0.16150002 0.39839995 0.037400022 0.39479995 C 0.08280002 0.40229994 0.10510002 0.41049996 0.10510002 0.41859996 C 0.10510002 0.44489998 0.05350002 0.44929996 0.05350002 0.46759996 C 0.05350002 0.47519997 0.08070002 0.48329997 0.13440001 0.48889995 C 0.09920001 0.49029994 0.07640001 0.49279994 0.06320001 0.49619994 C 0.06320001 0.49619994 0.06320001 0.49619994 0.06320001 0.49619994 C 0.06320001 0.49619994 0.06320001 0.49619994 0.06320001 0.49619994 C 0.07630001 0.49959993 0.09920001 0.50209993 0.13430001 0.5034999 C 0.08060001 0.5090999 0.05350001 0.51729995 0.05350001 0.52479994 C 0.05350001 0.54309994 0.10510001 0.54749995 0.10510001 0.57379997 C 0.10510001 0.58189994 0.08290002 0.5901 0.037400015 0.5976 C 0.1615 0.594 0.21030003 0.57879996 0.17060003 0.56769997 C 0.19590002 0.56619996 0.21420002 0.56769997 0.23400003 0.56979996 C 0.23400003 0.56369996 0.21740003 0.561 0.20500003 0.55789995 C 0.20500003 0.55789995 0.22650003 0.55789995 0.24580003 0.5591 C 0.24320003 0.5552 0.23030004 0.5517 0.20500003 0.5499 C 0.3115 0.5523 0.36830002 0.5426 0.36830002 0.531 C 0.36830002 0.51930004 0.29520002 0.5163 0.24750002 0.51820004 C 0.24550001 0.5166 0.24570002 0.5148 0.25180003 0.51290005 C 0.22150002 0.51390004 0.20750003 0.5163001 0.21800002 0.52120006 C 0.20030002 0.52120006 0.18650003 0.52290004 0.17450002 0.5246001 C 0.18650001 0.5265001 0.20170002 0.52770007 0.21800002 0.5283001 C 0.20760003 0.5323001 0.22580002 0.5355001 0.24810003 0.5362001 C 0.24810003 0.5362001 0.23550002 0.5277001 0.28030002 0.5277001 C 0.298 0.5277001 0.3104 0.52930015 0.3104 0.53290015 C 0.3104 0.5381002 0.2896 0.54110014 0.23740001 0.54110014 C 0.19500001 0.54110014 0.1536 0.53610015 0.1536 0.5248001 C 0.1536 0.5155001 0.2191 0.50730014 0.2793 0.5075001 C 0.34530002 0.5075001 0.40820003 0.51520014 0.40820003 0.5244001 C 0.40820003 0.5304001 0.40430003 0.5344001 0.39210004 0.5380001 C 0.29440004 0.5666001 0.043500036 0.6406001 0.043500036 0.6406001 C 0.012400037 0.64980006 3.7252903E-8 0.6558001 3.7252903E-8 0.6653001 C 3.7252903E-8 0.68070006 0.067700036 0.69280005 0.19510004 0.6948001 C 0.06770004 0.69680005 4.4703484E-8 0.7088001 4.4703484E-8 0.7243001 C 4.4703484E-8 0.73390007 0.012400045 0.7399001 0.043500043 0.7490001 C 0.043500043 0.7490001 0.29440004 0.8230001 0.39210004 0.85160005 C 0.40430003 0.85520005 0.40820003 0.85920006 0.40820003 0.86520004 C 0.40820003 0.8744 0.34530002 0.8819001 0.27930003 0.88210005 C 0.21910003 0.88210005 0.15360004 0.8741 0.15360004 0.86480004 C 0.15360004 0.8535 0.19490004 0.8485 0.23740004 0.8485 C 0.28960004 0.8485 0.31040004 0.85150003 0.31040004 0.8567 C 0.31040004 0.8603 0.29810005 0.86190003 0.28030005 0.86190003 C 0.23550005 0.86190003 0.24810004 0.85340005 0.24810004 0.85340005 C 0.22580004 0.85340005 0.20760004 0.85730004 0.21800004 0.86130005 C 0.20170003 0.86130005 0.18650004 0.86300004 0.17450005 0.86500007 C 0.18650004 0.8666001 0.20030005 0.8679001 0.21800005 0.8684001 C 0.20750006 0.8733001 0.22150005 0.8757001 0.25180006 0.8767001 C 0.24570006 0.8748001 0.24550006 0.8731001 0.24750006 0.8714001 C 0.29520005 0.87330014 0.36830008 0.8703001 0.36830008 0.85860014 C 0.36830008 0.8470001 0.31150007 0.83720016 0.20500009 0.83970016 C 0.23030008 0.8380002 0.2432001 0.83450013 0.2458001 0.8305002 C 0.2265001 0.8316002 0.20500009 0.8317002 0.20500009 0.8317002 C 0.21740009 0.8286002 0.23470008 0.8259002 0.23400009 0.8198002 C 0.21430008 0.8211002 0.19590008 0.8234002 0.17060009 0.8219002 C 0.21030009 0.8108002 0.16150008 0.7956002 0.03740008 0.7920002 C 0.08280008 0.79950017 0.10510008 0.80770016 0.10510008 0.8158002 C 0.10510008 0.8421002 0.05350008 0.8465002 0.05350008 0.8648002 C 0.05350008 0.8724002 0.08070008 0.8805002 0.13430008 0.88610023 C 0.09910008 0.8875002 0.076300085 0.8900002 0.06320009 0.89340025 C 0.06320009 0.89340025 0.06320009 0.89340025 0.06320009 0.89340025 L 0.06320009 0.89340025 C 0.08830009 0.8982003 0.10460009 0.89960027 0.14690009 0.9000003 C 0.09980009 0.90350026 0.05190009 0.91100025 0.05190009 0.9227003 C 0.05190009 0.9408003 0.10430009 0.9482003 0.10430009 0.9686003 C 0.10430009 0.9799003 0.039000086 0.99430025 0.039000086 0.99430025 C 0.1545001 0.9927002 0.21170008 0.97750026 0.17920008 0.9654002 C 0.19760008 0.9654002 0.21430008 0.9654002 0.22860008 0.9675002 C 0.23700008 0.9641002 0.22370009 0.9602002 0.20580009 0.95690024 C 0.22020009 0.95580024 0.23080009 0.95690024 0.25370008 0.95690024 C 0.25150007 0.95340025 0.23690008 0.94980025 0.20110008 0.94630027 C 0.30490008 0.95010024 0.36880007 0.9399003 0.36880007 0.9291003 C 0.36880007 0.9210003 0.32870007 0.9152003 0.28950006 0.9152003 C 0.27680007 0.9152003 0.25820005 0.9152003 0.24770007 0.9171003 C 0.24030006 0.9149003 0.24410006 0.9119003 0.25170007 0.9096003 C 0.22300008 0.9107003 0.20470008 0.9131003 0.21770006 0.9181003 C 0.19560006 0.9181003 0.17810006 0.9194003 0.16610005 0.9215003 C 0.17820005 0.92370033 0.19650006 0.9250003 0.21770006 0.92490035 C 0.20160006 0.92960036 0.21950006 0.9322004 0.24560006 0.9344004 C 0.24560006 0.9344004 0.22900006 0.92490035 0.27140006 0.92490035 C 0.29050007 0.92490035 0.30780005 0.92490035 0.30780005 0.92980033 C 0.30780005 0.9333003 0.28640005 0.93810034 0.23700005 0.93780035 C 0.18760005 0.93780035 0.14760005 0.9330003 0.14760005 0.9218004 C 0.14760005 0.9115004 0.20630005 0.90630037 0.28360006 0.9060004 C 0.35330006 0.9060004 0.40600008 0.9111004 0.40600008 0.9212004 C 0.40600008 0.9348004 0.2678001 0.9657004 0.2678001 0.97780037 C 0.2678001 0.9869004 0.32540008 0.9919004 0.3817001 0.9919004 C 0.4168001 0.9919004 0.4491001 0.9895004 0.47340012 0.98710036 C 0.49770012 0.98960036 0.5300001 0.9919004 0.56510013 0.9919004 C 0.6214001 0.9919004 0.67900014 0.9868004 0.67900014 0.97780037 C 0.67900014 0.9657004 0.54080015 0.9348004 0.54080015 0.9212004 C 0.54080015 0.9110004 0.5934002 0.90560037 0.66320014 0.9060004 C 0.74050015 0.9060004 0.7992002 0.9115004 0.7992002 0.9218004 C 0.7992002 0.9330004 0.7591002 0.93750036 0.7098002 0.93780035 C 0.66040015 0.93780035 0.6390002 0.9333004 0.6390002 0.92980033 C 0.6390002 0.9258003 0.6564002 0.92490035 0.6754002 0.92490035 C 0.7178002 0.92490035 0.7012002 0.9344004 0.7012002 0.9344004 C 0.72730017 0.9323004 0.74520016 0.92960036 0.72910017 0.92490035 C 0.75020015 0.92490035 0.76860017 0.92370033 0.78070015 0.9215003 C 0.76880014 0.91950035 0.75120014 0.91840035 0.72910017 0.9181003 C 0.7421002 0.9131003 0.7238002 0.9106003 0.6951002 0.9096003 C 0.7027002 0.9118003 0.7065002 0.91480035 0.6991002 0.9171003 C 0.6886002 0.9160003 0.6700002 0.9152003 0.6573002 0.9152003 C 0.61810017 0.9152003 0.5780002 0.9210003 0.5780002 0.9291003 C 0.5780002 0.93980026 0.6419002 0.9501003 0.7457002 0.94630027 C 0.7099002 0.94980025 0.69530016 0.95340025 0.69310015 0.95690024 C 0.71600014 0.95690024 0.72660017 0.95560026 0.7410002 0.95690024 C 0.7231002 0.96030027 0.7098002 0.96420026 0.71820015 0.9675002 C 0.73250014 0.9656002 0.74920017 0.9650002 0.7676002 0.9654002 C 0.7350002 0.9775002 0.79230016 0.9927002 0.9078002 0.99430025 C 0.9078002 0.99430025 0.8425002 0.97990024 0.8425002 0.9686003 C 0.8425002 0.9482003 0.8949002 0.94080025 0.8949002 0.9227003 C 0.8949002 0.9110003 0.8470002 0.90350026 0.7999002 0.9000003 C 0.84220016 0.9000003 0.8585002 0.8982003 0.8836002 0.89340025 L 0.8836002 0.89340025 C 0.8836002 0.89340025 0.8836002 0.89340025 0.8836002 0.89340025 C 0.87050015 0.8900002 0.84760016 0.8875002 0.8125002 0.88610023 C 0.8662002 0.88050026 0.8933002 0.8723002 0.8933002 0.8648002 C 0.8933002 0.8465002 0.8417002 0.8421002 0.8417002 0.8158002 C 0.8417002 0.8077002 0.8639002 0.79950017 0.9094002 0.7920002 C 0.78530025 0.7956002 0.7365002 0.8108002 0.77620023 0.8219002 C 0.7509002 0.8234002 0.7326002 0.8219002 0.71280026 0.8198002 C 0.71280026 0.8259002 0.7294003 0.82860017 0.74180025 0.8317002 C 0.74180025 0.8317002 0.72030026 0.8317002 0.7010003 0.8305002 C 0.7036003 0.8344002 0.7165003 0.83790016 0.74180025 0.83970016 C 0.6353003 0.8373002 0.5785003 0.8470002 0.5785003 0.85860014 C 0.5785003 0.8703001 0.65160024 0.87330014 0.6993003 0.8714001 C 0.70130026 0.87300014 0.7011003 0.87480015 0.6950003 0.8767001 C 0.7253003 0.8757001 0.7393003 0.8733001 0.7288003 0.8684001 C 0.7465003 0.8684001 0.7603003 0.8667001 0.7723003 0.86500007 C 0.7603003 0.86310005 0.7451003 0.8618001 0.7288003 0.86130005 C 0.7392003 0.85730004 0.7210003 0.85410005 0.6987003 0.85340005 C 0.6987003 0.85340005 0.7113003 0.86190003 0.66650033 0.86190003 C 0.6488003 0.86190003 0.63640034 0.8603 0.63640034 0.8567 C 0.63640034 0.8515 0.65720034 0.8485 0.70940036 0.8485 C 0.75180036 0.8485 0.7932004 0.8535 0.7932004 0.86480004 C 0.7932004 0.8741 0.72770035 0.8823 0.6675004 0.88210005 C 0.6015004 0.88210005 0.5386004 0.8744 0.5386004 0.86520004 C 0.5386004 0.85920006 0.5425004 0.85520005 0.5547004 0.85160005 C 0.6524004 0.8230001 0.9033004 0.7490001 0.9033004 0.7490001 C 0.9344004 0.7398001 0.9468004 0.73380005 0.9468004 0.7243001 C 0.9468004 0.7089001 0.87910044 0.6968001 0.7517004 0.6948001 C 0.8791004 0.6928001 0.9468004 0.6808001 0.9468004 0.6653001 C 0.9468004 0.6557001 0.93440044 0.64970005 0.9033004 0.6406001 C 0.9033004 0.6406001 0.6524004 0.5666001 0.5547004 0.5380001 C 0.5425004 0.5344001 0.5386004 0.5304001 0.5386004 0.5244001 C 0.5386004 0.51520014 0.6015004 0.5077001 0.6675004 0.5075001 C 0.72770035 0.5075001 0.7932004 0.5154001 0.7932004 0.5248001 C 0.7932004 0.53610015 0.7519004 0.54110014 0.70940036 0.54110014 C 0.65720034 0.54110014 0.63640034 0.5381001 0.63640034 0.53290015 C 0.63640034 0.52930015 0.64870036 0.5277001 0.66650033 0.5277001 C 0.7113003 0.5277001 0.6987003 0.5362001 0.6987003 0.5362001 C 0.7210003 0.5362001 0.7392003 0.5323001 0.7288003 0.5283001 C 0.7451003 0.5283001 0.7603003 0.5266001 0.7723003 0.5246001 C 0.7603003 0.52300006 0.7465003 0.5217001 0.7288003 0.52120006 C 0.7393003 0.5163001 0.7253003 0.51390004 0.6950003 0.51290005 C 0.7011003 0.5148001 0.70130026 0.51650006 0.6993003 0.51820004 C 0.6521 0.5164 0.5789 0.5194 0.5789 0.5311 C 0.5789 0.5427 0.6357 0.55249995 0.74219996 0.54999995 C 0.71689993 0.55169994 0.70399994 0.5552 0.7014 0.5591999 C 0.72069997 0.5580999 0.74219996 0.5579999 0.74219996 0.5579999 C 0.7298 0.5610999 0.7125 0.5637999 0.7132 0.5698999 C 0.73289996 0.56859994 0.7513 0.5662999 0.7766 0.5677999 C 0.7369 0.5788999 0.7857 0.59409994 0.9098 0.59769994 C 0.86439997 0.59019995 0.8421 0.58199996 0.8421 0.5738999 C 0.8421 0.5475999 0.8937 0.5431999 0.8937 0.5248999 C 0.8937 0.5172999 0.8665 0.5091999 0.8129 0.5035999 C 0.8481 0.5021999 0.87090003 0.4996999 0.884 0.4962999 C 0.884 0.4962999 0.884 0.4962999 0.884 0.4962999 C 0.884 0.4962999 0.884 0.4962999 0.884 0.4962999 C 0.8709 0.4928999 0.848 0.4903999 0.8128 0.4889999 C 0.8665 0.4833999 0.8937 0.4751999 0.8937 0.46769992 C 0.8937 0.44939992 0.8421 0.4449999 0.8421 0.41869992 C 0.8421 0.41059992 0.8643 0.40239993 0.90980005 0.3948999 C 0.7857001 0.3984999 0.73690003 0.4136999 0.77660006 0.42479992 C 0.75130004 0.42629993 0.73300004 0.42479992 0.7132001 0.42269993 C 0.7132001 0.42879993 0.7298001 0.43149993 0.7422001 0.43459994 C 0.7422001 0.43459994 0.7207001 0.43459994 0.7014001 0.43339995 C 0.7040001 0.43729994 0.7169001 0.44079995 0.7422001 0.44259995 C 0.6357001 0.44019994 0.5789001 0.44989994 0.5789001 0.46149996 C 0.5789001 0.47319996 0.65200007 0.47629997 0.6997001 0.47429997 C 0.7017001 0.47589996 0.7015001 0.47769997 0.6954001 0.47959995 C 0.72570014 0.47859997 0.73970014 0.47619995 0.7292001 0.47129995 C 0.74690014 0.47129995 0.7607001 0.46959993 0.77270013 0.46789995 C 0.7607001 0.46599996 0.74550015 0.46479994 0.7292001 0.46419996 C 0.7396001 0.46019995 0.72140014 0.45699996 0.69910014 0.45629996 C 0.69910014 0.45629996 0.71170014 0.46479997 0.66690016 0.46479997 C 0.64920014 0.46479997 0.63680017 0.46319997 0.63680017 0.45959997 C 0.63680017 0.45439997 0.65760016 0.45139998 0.7098002 0.45139998 C 0.7522002 0.45139998 0.7936002 0.45639998 0.7936002 0.46769997 C 0.7936002 0.47699997 0.7281002 0.4852 0.6679002 0.48499998 C 0.6019002 0.48499998 0.5390002 0.4773 0.5390002 0.46809998 C 0.5390002 0.46209997 0.5429002 0.4581 0.5551002 0.4545 C 0.653 0.4258 0.9039 0.3518 0.9039 0.3518 Z M 0.4737 0.3194 C 0.438 0.3064 0.34759998 0.2991 0.2645 0.2976 C 0.34759998 0.2961 0.4379 0.2888 0.4737 0.2758 C 0.5094 0.2888 0.5998 0.2961 0.68289995 0.2976 C 0.5998 0.2991 0.5094 0.3065 0.4737 0.3194 Z M 0.3721 0.0137 C 0.3976 0.0092 0.4723 0.018 0.4736 0.018199999 L 0.4736 0.018199999 L 0.4736 0.018199999 L 0.4736 0.018199999 L 0.4736 0.018199999 C 0.4749 0.018199999 0.5496 0.009199999 0.5751 0.013699999 C 0.6062 0.019199999 0.519 0.041 0.4735 0.056900002 C 0.4281 0.0409 0.341 0.0192 0.3721 0.0137 Z M 0.3319 0.0993 C 0.3277 0.0993 0.3227 0.0993 0.318 0.0993 C 0.38559997 0.0971 0.4425 0.093499996 0.4737 0.0861 C 0.5049 0.0936 0.5618 0.0971 0.6294 0.0993 C 0.6247 0.0993 0.6197 0.0993 0.61550003 0.0993 C 0.541 0.100499995 0.48900002 0.1086 0.47370005 0.1127 C 0.47370005 0.1127 0.47370005 0.1127 0.47370005 0.1127 C 0.47370005 0.1127 0.47370005 0.1127 0.47370005 0.1127 C 0.4583 0.1086 0.4063 0.1005 0.3319 0.0993 Z M 0.0945 0.2666 C 0.0945 0.2612 0.1038 0.2563 0.1192 0.25160003 C 0.1917 0.22960003 0.4243 0.15970004 0.4736 0.14500003 C 0.4736 0.14500003 0.4736 0.14500003 0.4736 0.14500003 C 0.4736 0.14500003 0.4736 0.14500003 0.4736 0.14500003 C 0.5229 0.15970002 0.75549996 0.22960003 0.828 0.25160003 C 0.8434 0.25630003 0.8527 0.26120004 0.8527 0.2666 C 0.8527 0.28010002 0.7657 0.28480002 0.7163 0.28480002 C 0.65720004 0.28480002 0.5971 0.27840003 0.5971 0.27040002 C 0.5971 0.2653 0.6164 0.2623 0.6444 0.2623 C 0.7112 0.2623 0.70710003 0.27040002 0.6938 0.2754 C 0.73539996 0.2728 0.75949997 0.268 0.75289994 0.263 C 0.77639997 0.263 0.79879993 0.261 0.81949997 0.25770003 C 0.80319995 0.25480002 0.78339994 0.2526 0.75289994 0.25250003 C 0.76619995 0.24480003 0.72969997 0.24150002 0.6938 0.23970003 C 0.7051 0.24540004 0.7126 0.25190005 0.6444 0.25190005 C 0.5947 0.25190005 0.55550003 0.25310004 0.5327 0.25770006 C 0.5314 0.25160006 0.5273 0.22750005 0.5273 0.22750005 C 0.5244 0.21840005 0.6129 0.21870005 0.6691 0.22140005 C 0.6479 0.21100006 0.6044 0.20530005 0.5037 0.20670006 C 0.5281 0.20520006 0.5542 0.20200005 0.5542 0.19570005 C 0.5542 0.18720005 0.5055 0.17780004 0.4736 0.17500004 L 0.4736 0.17500004 L 0.4736 0.17500004 C 0.4417 0.17780004 0.393 0.18720004 0.393 0.19570005 C 0.393 0.20200005 0.41910002 0.20520005 0.4435 0.20670006 C 0.34280002 0.20530006 0.29930001 0.21090005 0.2781 0.22140005 C 0.3343 0.21870005 0.4228 0.21840005 0.4199 0.22750005 C 0.4199 0.22750005 0.4159 0.25160006 0.4145 0.25770006 C 0.3917 0.25310007 0.3525 0.25190005 0.3028 0.25190005 C 0.23460001 0.25190005 0.242 0.24540004 0.2534 0.23970005 C 0.2175 0.24150005 0.181 0.24480005 0.1943 0.25250006 C 0.1638 0.25250006 0.144 0.25480005 0.1277 0.25770006 C 0.14840001 0.26100007 0.1708 0.26260006 0.1943 0.26300004 C 0.1877 0.26800004 0.2118 0.27270004 0.2534 0.27540004 C 0.2401 0.27030003 0.236 0.26230004 0.3028 0.26230004 C 0.3307 0.26230004 0.3501 0.26530004 0.3501 0.27040005 C 0.3501 0.27840003 0.2899 0.28480005 0.23090002 0.28480005 C 0.1815 0.2848 0.0945 0.2801 0.0945 0.2666 Z M 0.4737 0.6731 C 0.5094 0.6861 0.5998 0.6934 0.68289995 0.6949 C 0.59979993 0.6964 0.50949997 0.70369995 0.47369996 0.71669996 C 0.43799996 0.70369995 0.34759995 0.6963999 0.26449996 0.6949 C 0.3476 0.6934 0.4379 0.6861 0.4737 0.6731 Z M 0.5753 0.9788 C 0.54969996 0.9833 0.47469997 0.9744 0.4737 0.9743 L 0.4737 0.9743 L 0.4737 0.9743 L 0.4737 0.9743 L 0.4737 0.9743 C 0.4727 0.9743 0.39779997 0.98330003 0.3721 0.9788 C 0.341 0.9733 0.4282 0.9515 0.4737 0.9356 C 0.5192 0.9516 0.6064 0.9734 0.5753 0.9788 Z M 0.6155 0.8932 C 0.61969995 0.8932 0.62469995 0.8932 0.6293 0.8932 C 0.5617 0.8954 0.5049 0.899 0.4736 0.90639997 C 0.4424 0.8989 0.3855 0.8954 0.3179 0.8932 C 0.3225 0.8932 0.3276 0.8932 0.3317 0.8932 C 0.4062 0.89199996 0.45819998 0.8839 0.4735 0.87979996 C 0.4735 0.87979996 0.4735 0.87979996 0.4735 0.87979996 C 0.4735 0.87979996 0.4735 0.87979996 0.4735 0.87979996 C 0.489 0.8839 0.541 0.892 0.6155 0.8932 Z M 0.8529 0.7259 C 0.8529 0.7313 0.84360003 0.7362 0.82820004 0.7409 C 0.75570005 0.7629 0.5231 0.8328 0.47380003 0.84749997 C 0.47380003 0.84749997 0.47380003 0.84749997 0.47380003 0.84749997 S 0.47380003 0.84749997 0.47380003 0.84749997 C 0.42450005 0.8329 0.19190004 0.7629 0.119400024 0.7409 C 0.104000024 0.7362 0.09470002 0.7313 0.09470002 0.7259 C 0.09470002 0.7124 0.18170002 0.7077 0.23110002 0.7077 C 0.29020002 0.7077 0.3503 0.7141 0.3503 0.7221 C 0.3503 0.72720003 0.331 0.7302 0.303 0.7302 C 0.2362 0.7302 0.2403 0.7221 0.2536 0.71709996 C 0.212 0.7197 0.1879 0.72449994 0.1945 0.72949994 C 0.171 0.72949994 0.1486 0.7314999 0.1279 0.7347999 C 0.1442 0.7376999 0.164 0.73989993 0.1945 0.73999995 C 0.1812 0.7477 0.2177 0.7509999 0.2536 0.7527999 C 0.2423 0.74709994 0.2348 0.74059993 0.303 0.74059993 C 0.3527 0.74059993 0.3919 0.7393999 0.4147 0.7347999 C 0.416 0.7408999 0.4201 0.7649999 0.4201 0.7649999 C 0.423 0.77409995 0.3345 0.7737999 0.2783 0.7710999 C 0.2995 0.7814999 0.343 0.7871999 0.4437 0.7857999 C 0.4193 0.78729993 0.39319998 0.7904999 0.39319998 0.7967999 C 0.39319998 0.8052999 0.44189999 0.8146999 0.47379997 0.8174999 L 0.47379997 0.8174999 L 0.47379997 0.8174999 C 0.5057 0.8146999 0.55439997 0.8052999 0.55439997 0.7967999 C 0.55439997 0.7904999 0.5283 0.7872999 0.5039 0.7857999 C 0.6046 0.7871999 0.6481 0.78159994 0.66929996 0.7710999 C 0.61309993 0.7737999 0.52459997 0.77409995 0.5275 0.7649999 C 0.5275 0.7649999 0.5315 0.7408999 0.5329 0.7347999 C 0.5557 0.7393999 0.59489995 0.74059993 0.6446 0.74059993 C 0.71279997 0.74059993 0.7054 0.74709994 0.694 0.7527999 C 0.7299 0.7509999 0.7664 0.7476999 0.7531 0.73999995 C 0.7836 0.73999995 0.8034 0.7376999 0.8197 0.7347999 C 0.799 0.7314999 0.7766 0.72989994 0.7531 0.72949994 C 0.7597 0.72449994 0.7356 0.71979994 0.694 0.71709996 C 0.7073 0.7222 0.71140003 0.7302 0.64460003 0.7302 C 0.61670005 0.7302 0.59730005 0.7272 0.59730005 0.7221 C 0.59730005 0.7141 0.6575 0.7077 0.71650004 0.7077 C 0.7659 0.7077 0.8529 0.7124 0.8529 0.7259 Z M 0.8282 0.649 C 0.8436 0.6537 0.85289997 0.6586 0.85289997 0.664 C 0.85289997 0.67749995 0.76589996 0.68219995 0.7165 0.68219995 C 0.6574 0.68219995 0.5973 0.67579997 0.5973 0.66779995 C 0.5973 0.66269994 0.6166 0.6597 0.6446 0.6597 C 0.7114 0.6597 0.70729995 0.66779995 0.694 0.6728 C 0.7356 0.6702 0.7597 0.6654 0.7531 0.66040003 C 0.7766 0.66040003 0.79899997 0.65840006 0.8197 0.65510005 C 0.8034 0.65220004 0.7836 0.65000004 0.7531 0.6499 C 0.7664 0.6422 0.7299 0.63890004 0.694 0.63710004 C 0.70530003 0.64280003 0.7128 0.64930004 0.64460003 0.64930004 C 0.5949 0.64930004 0.55570006 0.65050006 0.53290004 0.65510005 C 0.53160006 0.64900005 0.52750003 0.62490004 0.52750003 0.62490004 C 0.5246 0.6158 0.61310005 0.6161001 0.6693 0.61880004 C 0.6481 0.60840005 0.6046 0.60270005 0.50390005 0.60410005 C 0.52830005 0.60260004 0.5544 0.59940004 0.5544 0.5931001 C 0.5544 0.5846001 0.50570005 0.5752001 0.47380003 0.5724001 L 0.47380003 0.5724001 L 0.47380003 0.5724001 C 0.44190004 0.5752001 0.39320004 0.5846001 0.39320004 0.5931001 C 0.39320004 0.59940004 0.41930005 0.6026001 0.44370005 0.60410005 C 0.34300005 0.60270005 0.29950005 0.60830003 0.27830005 0.61880004 C 0.33450004 0.6161001 0.42300004 0.6158 0.42010003 0.62490004 C 0.42010003 0.62490004 0.41610003 0.64900005 0.41470003 0.65510005 C 0.39190003 0.65050006 0.35270002 0.64930004 0.30300003 0.64930004 C 0.23480004 0.64930004 0.24220003 0.64280003 0.25360003 0.63710004 C 0.21770003 0.63890004 0.18120003 0.64220005 0.19450003 0.6499 C 0.16400003 0.6499 0.14420003 0.65220004 0.12790003 0.65510005 C 0.14860004 0.65840006 0.17100003 0.66 0.19450003 0.66040003 C 0.18790004 0.6654 0.21200003 0.67010003 0.25360003 0.6728 C 0.24030003 0.6677 0.23620003 0.6597 0.30300003 0.6597 C 0.33090004 0.6597 0.35030004 0.6627 0.35030004 0.66779995 C 0.35030004 0.67579997 0.29010004 0.68219995 0.23110005 0.68219995 C 0.18170005 0.68219995 0.09470005 0.67749995 0.09470005 0.664 C 0.09470005 0.6586 0.104000054 0.6537 0.119400054 0.649 C 0.19190004 0.627 0.42450005 0.5571 0.47380006 0.5424 C 0.47380006 0.5424 0.47380006 0.5424 0.47380006 0.5424 S 0.47380006 0.5424 0.47380006 0.5424 C 0.5231 0.5571 0.7556 0.627 0.8282 0.649 Z M 0.6155 0.4959 C 0.6178 0.4959 0.6207 0.4959 0.6232 0.4959 C 0.6208 0.4959 0.6179 0.4959 0.6155 0.4959 C 0.54099995 0.4971 0.48899996 0.5052 0.4737 0.5093 C 0.4737 0.5093 0.4737 0.5093 0.4737 0.5093 C 0.4737 0.5093 0.4737 0.5093 0.4737 0.5093 C 0.45839998 0.50519997 0.4064 0.4971 0.3319 0.4959 C 0.3296 0.4959 0.3267 0.4959 0.3242 0.4959 C 0.32660002 0.4959 0.3295 0.4959 0.3319 0.4959 C 0.4064 0.4947 0.4584 0.4866 0.4737 0.48250002 C 0.4737 0.48250002 0.4737 0.48250002 0.4737 0.48250002 C 0.4737 0.48250002 0.4737 0.48250002 0.4737 0.48250002 C 0.489 0.4866 0.541 0.4947 0.6155 0.4959 Z M 0.4737 0.4501 C 0.4737 0.4501 0.4737 0.4501 0.4737 0.4501 C 0.4737 0.4501 0.4737 0.4501 0.4737 0.4501 C 0.42439997 0.4354 0.1918 0.3655 0.11929998 0.34350002 C 0.10389998 0.3388 0.09459998 0.3339 0.09459998 0.32850003 C 0.09459998 0.31500003 0.18159997 0.31030002 0.23099998 0.31030002 C 0.29009998 0.31030002 0.35019997 0.3167 0.35019997 0.32470003 C 0.35019997 0.32980004 0.33089995 0.33280003 0.30289996 0.33280003 C 0.23609996 0.33280003 0.24019995 0.32470003 0.25349995 0.31970003 C 0.21189995 0.32230005 0.18779996 0.32710004 0.19439995 0.33210003 C 0.17089996 0.33210003 0.14849995 0.33410004 0.12779996 0.33740002 C 0.14409995 0.34030002 0.16389996 0.34250003 0.19439995 0.34260002 C 0.18109995 0.3503 0.21759996 0.35360003 0.25349995 0.35540003 C 0.24219996 0.34970003 0.23469995 0.34320003 0.30289996 0.34320003 C 0.35259995 0.34320003 0.39179996 0.34200004 0.41459996 0.33740002 C 0.41589996 0.34350002 0.41999996 0.36760002 0.41999996 0.36760002 C 0.42289996 0.3767 0.33439994 0.37640002 0.27819997 0.37370002 C 0.29939997 0.38410002 0.34289998 0.3898 0.44359997 0.38840002 C 0.41919997 0.38990003 0.39309996 0.39310002 0.39309996 0.39940003 C 0.39309996 0.40790004 0.44179997 0.41730002 0.47369996 0.42010003 L 0.47369996 0.42010003 L 0.47369996 0.42010003 C 0.5056 0.41730005 0.55429995 0.40790004 0.55429995 0.39940003 C 0.55429995 0.39310002 0.5282 0.38990003 0.5038 0.38840002 C 0.6045 0.3898 0.648 0.3842 0.66919994 0.37370002 C 0.6129999 0.37640002 0.52449995 0.3767 0.52739996 0.36760002 C 0.52739996 0.36760002 0.53139997 0.34350002 0.53279996 0.33740002 C 0.5556 0.342 0.59479994 0.34320003 0.64449996 0.34320003 C 0.71269995 0.34320003 0.7053 0.34970003 0.6939 0.35540003 C 0.7298 0.35360003 0.76629996 0.3503 0.75299996 0.34260002 C 0.78349996 0.34260002 0.80329996 0.34030002 0.8196 0.33740002 C 0.7989 0.3341 0.7765 0.3325 0.75299996 0.33210003 C 0.7596 0.32710004 0.7355 0.32240003 0.6939 0.31970003 C 0.7072 0.32480004 0.7113 0.33280003 0.6445 0.33280003 C 0.61660004 0.33280003 0.59720004 0.32980004 0.59720004 0.32470003 C 0.59720004 0.31670004 0.6574 0.31030002 0.7164 0.31030002 C 0.7658 0.31030002 0.8528 0.31500003 0.8528 0.32850003 C 0.8528 0.33390003 0.8435 0.33880004 0.8281 0.34350002 C 0.7556 0.3655 0.5231 0.4355 0.4737 0.4501 Z"/>
<linearGradient id="glaze" x1="0%" y1="0%" x2="100%" y2="100%">
<stop offset="0%" stop-color="rgb(255,255,255)" stop-opacity="0.2"/>
<stop offset="49.999%" stop-color="rgb(255,255,255)" stop-opacity="0.0"/>
<stop offset="50.001%" stop-color="rgb(0,0,0)" stop-opacity="0.0"/>
<stop offset="100%" stop-color="rgb(0,0,0)" stop-opacity="0.2"/>
</linearGradient>
</defs>
<g>
<rect x="0" y="0" width="576" height="396" class="blue"/>
<use xlink:href="#ornament" transform="translate(23.76 22.44) scale(50.16 351.12) rotate(0)" class="yellow"/>
<use xlink:href="#emblem" transform="translate(325.0184 166.32) scale(224.4 224.4) rotate(0)" class="yellow"/>
</g>
<g>
<rect x="0" y="0" width="576" height="396" fill="url(#glaze)"/>
<path d="M 36 36 L 540 36 L 540 360 L 36 360 Z M 72 72 L 72 324 L 504 324 L 504 72 Z" fill="rgb(255,255,255)" opacity="0.4"/>
<path d="M 0 0 L 576 0 L 576 396 L 0 396 Z M 36 36 L 36 360 L 540 360 L 540 36 Z" fill="rgb(0,0,0)" opacity="0.4"/>
</g>
</svg>
