<?xml version="1.0"?>
<svg xmlns="http://www.w3.org/2000/svg" xmlns:xlink="http://www.w3.org/1999/xlink" version="1.1" width="576" height="396" viewBox="0 0 576 396">
<!-- Generated by Kreative Vexillo v1.0 -->
<style>
.blue{fill:rgb(0,86,162);}
.orange{fill:rgb(247,148,30);}
.white{fill:rgb(255,255,255);}
</style>
<defs>
<path id="star" d="M 0.157 0.021 L 0.5 0.0 L 0.157 -0.021 L 0.346 -0.093 L 0.146 -0.061 L 0.31 -0.179 L 0.125 -0.096 L 0.253 -0.253 L 0.096 -0.125 L 0.179 -0.31 L 0.061 -0.146 L 0.093 -0.346 L 0.021 -0.157 L 0.0 -0.5 L -0.021 -0.157 L -0.093 -0.346 L -0.061 -0.146 L -0.179 -0.31 L -0.096 -0.125 L -0.253 -0.253 L -0.125 -0.096 L -0.31 -0.179 L -0.146 -0.061 L -0.346 -0.093 L -0.157 -0.021 L -0.5 0.0 L -0.157 0.021 L -0.346 0.093 L -0.146 0.061 L -0.31 0.179 L -0.125 0.096 L -0.253 0.253 L -0.096 0.125 L -0.179 0.31 L -0.061 0.146 L -0.093 0.346 L -0.021 0.157 L 0.0 0.5 L 0.021 0.157 L 0.093 0.346 L 0.061 0.146 L 0.179 0.31 L 0.096 0.125 L 0.253 0.253 L 0.125 0.096 L 0.31 0.179 L 0.146 0.061 L 0.346 0.093 Z"/>
<linearGradient id="glaze" x1="0%" y1="0%" x2="100%" y2="100%">
<stop offset="0%" stop-color="rgb(255,255,255)" stop-opacity="0.2"/>
<stop offset="49.999%" stop-color="rgb(255,255,255)" stop-opacity="0.0"/>
<stop offset="50.001%" stop-color="rgb(0,0,0)" stop-opacity="0.0"/>
<stop offset="100%" stop-color="rgb(0,0,0)" stop-opacity="0.2"/>
</linearGradient>
</defs>
<g>
<rect x="0" y="0" width="576" height="396" class="blue"/>
<path d="M 0 376.992 L 576 6.336 L 576 122.76 L 0 386.496 Z" class="orange"/>
<path d="M 0 383.328 L 576 83.952 L 576 161.568 L 0 389.664 Z" class="white"/>
<use xlink:href="#star" transform="translate(111.168 145.332) scale(187.8739 187.8739) rotate(0)" class="white"/>
</g>
<g>
<rect x="0" y="0" width="576" height="396" fill="url(#glaze)"/>
<path d="M 36 36 L 540 36 L 540 360 L 36 360 Z M 72 72 L 72 324 L 504 324 L 504 72 Z" fill="rgb(255,255,255)" opacity="0.4"/>
<path d="M 0 0 L 576 0 L 576 396 L 0 396 Z M 36 36 L 36 360 L 540 360 L 540 36 Z" fill="rgb(0,0,0)" opacity="0.4"/>
</g>
</svg>
