<?xml version="1.0"?>
<svg xmlns="http://www.w3.org/2000/svg" xmlns:xlink="http://www.w3.org/1999/xlink" version="1.1" width="576" height="396" viewBox="0 0 576 396">
<!-- Generated by Kreative Vexillo v1.0 -->
<style>
.red{fill:rgb(210,0,0);}
.yellow{fill:rgb(255,230,0);}
</style>
<defs>
<linearGradient id="glaze" x1="0%" y1="0%" x2="100%" y2="100%">
<stop offset="0%" stop-color="rgb(255,255,255)" stop-opacity="0.2"/>
<stop offset="49.999%" stop-color="rgb(255,255,255)" stop-opacity="0.0"/>
<stop offset="50.001%" stop-color="rgb(0,0,0)" stop-opacity="0.0"/>
<stop offset="100%" stop-color="rgb(0,0,0)" stop-opacity="0.2"/>
</linearGradient>
</defs>
<g>
<rect x="0" y="0" width="576" height="396" class="red"/>
<path d="M 288 198 L 0 0 L 86.4 0 Z" class="yellow"/>
<path d="M 288 198 L 259.2 0 L 316.8 0 Z" class="yellow"/>
<path d="M 288 198 L 489.6 0 L 576 0 Z" class="yellow"/>
<path d="M 288 198 L 576 169.2 L 576 226.8 Z" class="yellow"/>
<path d="M 288 198 L 576 396 L 489.6 396 Z" class="yellow"/>
<path d="M 288 198 L 316.8 396 L 259.2 396 Z" class="yellow"/>
<path d="M 288 198 L 86.4 396 L 0 396 Z" class="yellow"/>
<path d="M 288 198 L 0 226.8 L 0 169.2 Z" class="yellow"/>
<ellipse cx="288" cy="198" rx="70.7143" ry="70.7143" class="red"/>
<ellipse cx="288" cy="198" rx="56.5714" ry="56.5714" class="yellow"/>
</g>
<g>
<rect x="0" y="0" width="576" height="396" fill="url(#glaze)"/>
<path d="M 36 36 L 540 36 L 540 360 L 36 360 Z M 72 72 L 72 324 L 504 324 L 504 72 Z" fill="rgb(255,255,255)" opacity="0.4"/>
<path d="M 0 0 L 576 0 L 576 396 L 0 396 Z M 36 36 L 36 360 L 540 360 L 540 36 Z" fill="rgb(0,0,0)" opacity="0.4"/>
</g>
</svg>
