<?xml version="1.0"?>
<svg xmlns="http://www.w3.org/2000/svg" xmlns:xlink="http://www.w3.org/1999/xlink" version="1.1" width="576" height="396" viewBox="0 0 576 396">
<!-- Generated by Kreative Vexillo v1.0 -->
<style>
.black{fill:rgb(0,0,0);}
.green{fill:rgb(51,158,53);}
.red{fill:rgb(206,17,38);}
</style>
<defs>
<path id="sun" d="M 0.0 0.12 C -0.022 0.12 -0.03 0.153 -0.03 0.185 C -0.03 0.265 -0.02 0.305 0.0 0.42000002 C 0.0204 0.305 0.03 0.264 0.03 0.18500002 C 0.03 0.152 0.02 0.12 0.0 0.12 M 0.0889 0.1239 C 0.067 0.121999994 0.0561 0.1542 0.0534 0.18599999 C 0.0464 0.26569998 0.0534 0.3064 0.0628 0.4227 C 0.0931 0.3099 0.1063 0.2699 0.113199994 0.19119999 C 0.116 0.1584 0.1089 0.1256 0.0889 0.1239 M 0.1772 0.1355 C 0.15550001 0.1317 0.1419 0.1628 0.1364 0.1943 C 0.1225 0.2731 0.1254 0.31419998 0.1251 0.43089998 C 0.1652 0.32119998 0.1817 0.28249997 0.1955 0.20469998 C 0.2012 0.1722 0.1969 0.139 0.1772 0.1355 M 0.264 0.1548 C 0.2427 0.14909999 0.2265 0.1789 0.2182 0.2098 C 0.19749999 0.28710002 0.1968 0.3283 0.1864 0.4446 C 0.2359 0.33879998 0.2558 0.3017 0.2762 0.22539999 C 0.2847 0.1934 0.2834 0.1599 0.264 0.1548 M 0.3489 0.1815 C 0.32819998 0.17400001 0.3094 0.2023 0.2985 0.2323 C 0.2711 0.3075 0.2669 0.3485 0.2463 0.4634 C 0.3048 0.3623 0.3279 0.3271 0.3549 0.2528 C 0.3662 0.2218 0.3677 0.1884 0.3489 0.1815 M 0.4311 0.2156 C 0.41120002 0.2063 0.39000002 0.2328 0.37640002 0.2618 C 0.34260002 0.33429998 0.33480003 0.3748 0.3043 0.4875 C 0.3714 0.3919 0.39740002 0.3588 0.43080002 0.28720003 C 0.4448 0.2572 0.4492 0.224 0.4311 0.2156 M 0.51 0.2567 C 0.49089998 0.2457 0.4675 0.2703 0.4515 0.298 C 0.4115 0.3673 0.4002 0.40690002 0.36 0.5165 C 0.4352 0.4271 0.46400002 0.3964 0.5035 0.328 C 0.52 0.2994 0.5274 0.2667 0.51 0.2567 M 0.5851 0.3045 C 0.5671 0.2919 0.5416 0.3143 0.5232 0.3405 C 0.4773 0.406 0.46259996 0.4445 0.413 0.5502 C 0.4957 0.46769997 0.52709997 0.4396 0.5724 0.37489998 C 0.5913 0.3479 0.6015 0.3159 0.5851 0.3045 M 0.6557 0.3586 C 0.6388 0.3445 0.6115 0.3646 0.5909 0.3891 C 0.5395 0.4504 0.5215 0.4875 0.4629 0.5884 C 0.5524 0.5134 0.5862 0.4882 0.6369 0.4277 C 0.6581 0.4024 0.671 0.3715 0.6557 0.3586 M 0.7213 0.4188 C 0.7057 0.4032 0.6768 0.4209 0.6541 0.4436 C 0.5975 0.5002 0.5763 0.5355 0.5091 0.631 C 0.60480005 0.56409997 0.6406 0.5419 0.6965 0.486 C 0.7199 0.4626 0.7354 0.4329 0.7213 0.4188 M 0.7814 0.4844 C 0.7673 0.46760002 0.7368 0.4826 0.7123 0.5032 C 0.651 0.5546 0.6268 0.588 0.5516 0.6772 C 0.65279996 0.6189 0.6904 0.5999 0.7509 0.54910004 C 0.7762 0.5279 0.7943 0.4997 0.7814 0.4844 M 0.8356 0.5549 C 0.823 0.5369 0.7914 0.5493 0.7651 0.5676 C 0.6996 0.6135 0.6725 0.64460003 0.5898 0.727 C 0.6957 0.6778 0.7348 0.6621 0.7995 0.6168 C 0.8266 0.5979 0.847 0.5713 0.8356 0.5549 M 0.8834 0.63 C 0.87240005 0.6109 0.8398 0.62049997 0.81210005 0.6365 C 0.74280006 0.6765 0.71320003 0.7052 0.62360007 0.78 C 0.73340005 0.7402 0.77370006 0.728 0.8421001 0.6885 C 0.8707 0.672 0.8934 0.6473 0.8834 0.63 M 0.9245 0.7089 C 0.9152 0.68899995 0.8819 0.6957 0.85289997 0.7089 C 0.7804 0.7427 0.7484 0.7687 0.6526 0.8354 C 0.7655 0.8053 0.8067 0.7967 0.8783 0.7633 C 0.9082 0.7497 0.9329 0.7271 0.9245 0.7089 M 0.9585 0.7911 C 0.95100003 0.77040005 0.9172 0.7742 0.8872 0.78510004 C 0.812 0.81250006 0.7779 0.83550006 0.6766 0.89370006 C 0.7916 0.87350005 0.83349997 0.86850005 0.90769994 0.84150004 C 0.9387 0.8303 0.9654 0.8099 0.9585 0.7911 M 0.9853 0.876 C 0.9796 0.85469997 0.9457 0.8556 0.9148 0.8638 C 0.8375 0.88449997 0.80149996 0.9045 0.6956 0.9536 C 0.812 0.9435 0.854 0.9422 0.93039995 0.9218 C 0.9621 0.9133 0.9905 0.8953 0.9853 0.876 M -0.9852 0.876 C -0.9909 0.8973 -0.9611 0.9135 -0.9302 0.9218 C -0.85289997 0.9425 -0.8117 0.9432 -0.6954 0.95360005 C -0.80120003 0.90410006 -0.8383 0.88420004 -0.9146 0.86380005 C -0.9465 0.8553 -0.98 0.8567 -0.9852 0.876 M -0.9584 0.7911 C -0.9659 0.8118 -0.9376 0.8306 -0.9076 0.84150004 C -0.83239996 0.86890006 -0.79139996 0.87310004 -0.67649996 0.89370006 C -0.77759993 0.8352001 -0.81279993 0.81210005 -0.8871 0.78510004 C -0.9181 0.7739 -0.9516 0.7723 -0.9584 0.7911 M -0.9244 0.7089 C -0.93369997 0.7288 -0.9072 0.75 -0.8782 0.7636 C -0.8057 0.7974 -0.7652 0.8053 -0.6525 0.8357 C -0.7481 0.7686 -0.7812 0.7426 -0.8528 0.7092 C -0.8827 0.6953 -0.9159 0.6908 -0.9244 0.7089 M -0.8833 0.63 C -0.8943 0.6491 -0.8697 0.6725 -0.842 0.6885 C -0.7727 0.7285 -0.7331 0.7398 -0.6235 0.78 C -0.7129 0.70479995 -0.7436 0.676 -0.812 0.6365 C -0.8406 0.62 -0.8733 0.6127 -0.8833 0.63 M -0.8355 0.5549 C -0.8481 0.5729 -0.8257 0.5984 -0.7995 0.6168 C -0.73399997 0.6627 -0.6955 0.6774 -0.5898 0.727 C -0.6723 0.6443 -0.7004 0.613 -0.7651 0.5676 C -0.7921 0.5487 -0.824 0.5386 -0.8355 0.5549 M -0.7813 0.4844 C -0.7954 0.5013 -0.7753 0.5286 -0.7508 0.5492 C -0.68950003 0.6006 -0.6524 0.6187 -0.5515 0.6773 C -0.6265 0.58779997 -0.6517 0.55399996 -0.71220005 0.50329995 C -0.7375 0.4819 -0.7685 0.469 -0.7813 0.4844 M -0.7212 0.4188 C -0.7368 0.4344 -0.7191 0.4634 -0.6964 0.486 C -0.6398 0.5426 -0.6045 0.5638 -0.509 0.631 C -0.576 0.5351 -0.5982 0.4994 -0.654 0.4435 C -0.6774 0.4202 -0.7071 0.4046 -0.7212 0.4188 M -0.6556 0.3586 C -0.6724 0.37269998 -0.6574 0.4032 -0.6368 0.42769998 C -0.5854 0.489 -0.552 0.5132 -0.4628 0.5884 C -0.5211 0.48720002 -0.5401 0.4496 -0.5909 0.38910002 C -0.612 0.3639 -0.6403 0.3458 -0.6556 0.3586 M -0.585 0.3045 C -0.603 0.31710002 -0.59059995 0.34870002 -0.57229996 0.375 C -0.52639997 0.4405 -0.49529997 0.4676 -0.41289997 0.5503 C -0.46209997 0.4444 -0.47779998 0.40530002 -0.52309996 0.3406 C -0.5421 0.3135 -0.5686 0.293 -0.585 0.3045 M -0.51 0.2567 C -0.5291 0.26770002 -0.5195 0.3003 -0.5035 0.328 C -0.4635 0.3973 -0.43479997 0.4269 -0.35999998 0.5165 C -0.39979997 0.4067 -0.412 0.3664 -0.4515 0.29799998 C -0.468 0.2694 -0.4926 0.2467 -0.51 0.2567 M -0.431 0.2156 C -0.4509 0.22489999 -0.44419998 0.2582 -0.431 0.2872 C -0.3972 0.3597 -0.3712 0.3917 -0.30449998 0.4875 C -0.33459997 0.3747 -0.34319997 0.3334 -0.37659997 0.2618 C -0.3903 0.2319 -0.4129 0.2071 -0.431 0.2156 M -0.3488 0.1815 C -0.3695 0.189 -0.3657 0.2228 -0.35480002 0.2528 C -0.32740003 0.32799998 -0.30440003 0.3621 -0.24620003 0.4634 C -0.26640004 0.3484 -0.27140003 0.30650002 -0.2984 0.23230001 C -0.3097 0.2013 -0.33 0.1747 -0.3488 0.1815 M -0.2639 0.1548 C -0.2852 0.1605 -0.2843 0.1944 -0.2761 0.2254 C -0.2554 0.30269998 -0.2354 0.3387 -0.18630001 0.4446 C -0.19640002 0.32819998 -0.19770001 0.2862 -0.21810001 0.20979999 C -0.2267 0.1779 -0.2446 0.1496 -0.2639 0.1548 M -0.1771 0.1355 C -0.1988 0.1393 -0.2009 0.1732 -0.1954 0.2047 C -0.1815 0.2835 -0.1647 0.3211 -0.125 0.43089998 C -0.125 0.31409997 -0.1225 0.27209997 -0.1363 0.19429998 C -0.142 0.1618 -0.1574 0.132 -0.1771 0.1355 M -0.0889 0.1239 C -0.1108 0.1258 -0.1159 0.1594 -0.1131 0.1913 C -0.1061 0.271 -0.0927 0.31 -0.0627 0.4228 C -0.052400004 0.30650002 -0.046400003 0.2648 -0.053300004 0.1861 C -0.0562 0.1531 -0.0689 0.1221 -0.0889 0.1239 M 0.6083 0.925 C 0.51979995 0.6745 0.28089997 0.495 9.995699E-5 0.495 C -0.28070006 0.495 -0.51960003 0.6745 -0.6082 0.925 H 0.6083 Z"/>
<linearGradient id="glaze" x1="0%" y1="0%" x2="100%" y2="100%">
<stop offset="0%" stop-color="rgb(255,255,255)" stop-opacity="0.2"/>
<stop offset="49.999%" stop-color="rgb(255,255,255)" stop-opacity="0.0"/>
<stop offset="50.001%" stop-color="rgb(0,0,0)" stop-opacity="0.0"/>
<stop offset="100%" stop-color="rgb(0,0,0)" stop-opacity="0.2"/>
</linearGradient>
</defs>
<g>
<g>
<rect x="0" y="0" width="576" height="132" class="black"/>
<rect x="0" y="132" width="576" height="132" class="red"/>
<rect x="0" y="264" width="576" height="132" class="green"/>
</g>
<use xlink:href="#sun" transform="translate(288 0) scale(132 132) rotate(0)" class="red"/>
</g>
<g>
<rect x="0" y="0" width="576" height="396" fill="url(#glaze)"/>
<path d="M 36 36 L 540 36 L 540 360 L 36 360 Z M 72 72 L 72 324 L 504 324 L 504 72 Z" fill="rgb(255,255,255)" opacity="0.4"/>
<path d="M 0 0 L 576 0 L 576 396 L 0 396 Z M 36 36 L 36 360 L 540 360 L 540 36 Z" fill="rgb(0,0,0)" opacity="0.4"/>
</g>
</svg>
