<?xml version="1.0"?>
<svg xmlns="http://www.w3.org/2000/svg" xmlns:xlink="http://www.w3.org/1999/xlink" version="1.1" width="576" height="396" viewBox="0 0 576 396">
<!-- Generated by Kreative Vexillo v1.0 -->
<style>
.blue{fill:rgb(0,93,170);}
.red{fill:rgb(238,49,36);}
.white{fill:rgb(255,255,255);}
.yellow{fill:rgb(255,221,0);}
</style>
<defs>
<path id="star14" d="M 0.0 -1.0 L 0.089008 -0.389971 L 0.433884 -0.900969 L 0.249396 -0.312733 L 0.781831 -0.62349 L 0.360388 -0.173553 L 0.974928 -0.222521 L 0.4 -0.0 L 0.974928 0.222521 L 0.360388 0.173553 L 0.781831 0.62349 L 0.249396 0.312733 L 0.433884 0.900969 L 0.089008 0.389971 L 0.0 1.0 L -0.089008 0.389971 L -0.433884 0.900969 L -0.249396 0.312733 L -0.781831 0.62349 L -0.360388 0.173553 L -0.974928 0.222521 L -0.4 0.0 L -0.974928 -0.222521 L -0.360388 -0.173553 L -0.781831 -0.62349 L -0.249396 -0.312733 L -0.433884 -0.900969 L -0.089008 -0.389971 Z"/>
<linearGradient id="glaze" x1="0%" y1="0%" x2="100%" y2="100%">
<stop offset="0%" stop-color="rgb(255,255,255)" stop-opacity="0.2"/>
<stop offset="49.999%" stop-color="rgb(255,255,255)" stop-opacity="0.0"/>
<stop offset="50.001%" stop-color="rgb(0,0,0)" stop-opacity="0.0"/>
<stop offset="100%" stop-color="rgb(0,0,0)" stop-opacity="0.2"/>
</linearGradient>
</defs>
<g>
<g>
<rect x="0" y="0" width="576" height="28.2857" class="red"/>
<rect x="0" y="28.2857" width="576" height="28.2857" class="white"/>
<rect x="0" y="56.5714" width="576" height="28.2857" class="red"/>
<rect x="0" y="84.8571" width="576" height="28.2857" class="white"/>
<rect x="0" y="113.1429" width="576" height="28.2857" class="red"/>
<rect x="0" y="141.4286" width="576" height="28.2857" class="white"/>
<rect x="0" y="169.7143" width="576" height="28.2857" class="red"/>
<rect x="0" y="198" width="576" height="28.2857" class="white"/>
<rect x="0" y="226.2857" width="576" height="28.2857" class="red"/>
<rect x="0" y="254.5714" width="576" height="28.2857" class="white"/>
<rect x="0" y="282.8571" width="576" height="28.2857" class="red"/>
<rect x="0" y="311.1429" width="576" height="28.2857" class="white"/>
<rect x="0" y="339.4286" width="576" height="28.2857" class="red"/>
<rect x="0" y="367.7143" width="576" height="28.2857" class="white"/>
</g>
<rect x="0" y="0" width="288" height="226.2857" class="blue"/>
<ellipse cx="96.75" cy="113.1429" rx="81" ry="81" class="yellow"/>
<ellipse cx="117" cy="113.1429" rx="74.25" ry="74.25" class="blue"/>
<use xlink:href="#star14" transform="translate(184.5 113.1429) scale(67.5 67.5) rotate(0)" class="yellow"/>
</g>
<g>
<rect x="0" y="0" width="576" height="396" fill="url(#glaze)"/>
<path d="M 36 36 L 540 36 L 540 360 L 36 360 Z M 72 72 L 72 324 L 504 324 L 504 72 Z" fill="rgb(255,255,255)" opacity="0.4"/>
<path d="M 0 0 L 576 0 L 576 396 L 0 396 Z M 36 36 L 36 360 L 540 360 L 540 36 Z" fill="rgb(0,0,0)" opacity="0.4"/>
</g>
</svg>
