<?xml version="1.0"?>
<svg xmlns="http://www.w3.org/2000/svg" xmlns:xlink="http://www.w3.org/1999/xlink" version="1.1" width="576" height="396" viewBox="0 0 576 396">
<!-- Generated by Kreative Vexillo v1.0 -->
<style>
.blue{fill:rgb(0,83,155);}
.red{fill:rgb(227,24,55);}
.white{fill:rgb(255,255,255);}
</style>
<defs>
<path id="-glazearea" d="M 0.0 0.0 L 1.0 0.5137 L 0.3687 0.5137 L 0.9615 1.0 L 0.0 1.0 Z"/>
<path id="moon" d="M -1.0 -0.4653 A 1.0 1.0 0.0 0 0 1.0 -0.4653 A 1.0745 1.0745 0.0 0 1 -1.0 -0.4653 Z"/>
<path id="ssun" d="M 0.72 0.0 L 0.981 -0.195 L 0.665 -0.276 L 0.831 -0.556 L 0.509 -0.509 L 0.556 -0.831 L 0.276 -0.665 L 0.195 -0.981 L 0.0 -0.72 L -0.195 -0.981 L -0.276 -0.665 L -0.556 -0.831 L -0.509 -0.509 L -0.831 -0.556 L -0.665 -0.276 L -0.981 -0.195 L -0.72 0.0 L -0.981 0.195 L -0.665 0.276 L -0.831 0.556 L -0.509 0.509 L -0.556 0.831 L -0.276 0.665 L -0.195 0.981 L 0.0 0.72 L 0.195 0.981 L 0.276 0.665 L 0.556 0.831 L 0.509 0.509 L 0.831 0.556 L 0.665 0.276 L 0.981 0.195 Z"/>
<path id="sun" d="M 1.0 0.0 L 0.581 -0.156 L 0.866 -0.5 L 0.425 -0.425 L 0.5 -0.866 L 0.156 -0.581 L 0.0 -1.0 L -0.156 -0.581 L -0.5 -0.866 L -0.425 -0.425 L -0.866 -0.5 L -0.581 -0.156 L -1.0 0.0 L -0.581 0.156 L -0.866 0.5 L -0.425 0.425 L -0.5 0.866 L -0.156 0.581 L 0.0 1.0 L 0.156 0.581 L 0.5 0.866 L 0.425 0.425 L 0.866 0.5 L 0.581 0.156 Z"/>
<clipPath id="clip0">
<rect x="0" y="0" width="576" height="173.3573"/>
</clipPath>
<linearGradient id="glaze" x1="0%" y1="0%" x2="100%" y2="100%">
<stop offset="0%" stop-color="rgb(255,255,255)" stop-opacity="0.2"/>
<stop offset="49.999%" stop-color="rgb(255,255,255)" stop-opacity="0.0"/>
<stop offset="50.001%" stop-color="rgb(0,0,0)" stop-opacity="0.0"/>
<stop offset="100%" stop-color="rgb(0,0,0)" stop-opacity="0.2"/>
</linearGradient>
</defs>
<g>
<path d="M 125.5718 0 L 450.4282 203.4316 L 245.354 203.4316 L 437.9239 396 L 125.5718 396 Z" class="blue"/>
<path d="M 137.2927 21.1762 L 409.6198 191.7129 L 217.0558 191.7129 L 409.6198 384.2791 L 137.2927 384.2791 Z" class="red"/>
<g clip-path="url(#clip0)">
<use xlink:href="#ssun" transform="translate(205.3745 153.0034) scale(35.0536 35.0536) rotate(0)" class="white"/>
</g>
<use xlink:href="#moon" transform="translate(205.3745 153.0034) scale(54.2376 54.2376) rotate(0)" class="white"/>
<use xlink:href="#sun" transform="translate(205.3745 287.996) scale(58.2783 58.2783) rotate(0)" class="white"/>
</g>
<g>
<path d="M 125.5718 0 L 450.4282 203.4252 L 245.3463 203.4252 L 437.9212 396 L 125.5718 396 Z" fill="url(#glaze)"/>
<path d="M 197.5718 130.0381 L 199.7869 131.4252 L 197.5718 131.4252 L 197.5718 130.0381 Z M 161.5718 65.019 L 161.5718 167.4252 L 325.1076 167.4252 L 161.5718 65.019 Z M 161.5718 170.5624 L 161.5718 170.5624 L 161.5718 170.5624 Z M 197.5718 257.474 L 197.5718 257.474 L 197.5718 257.474 L 264.0978 324 L 197.5718 324 L 197.5718 257.474 L 197.5718 257.474 L 197.5718 257.474 Z M 161.5718 170.5624 L 161.5718 360 L 351.0095 360 L 219.8905 228.8811 L 161.5718 170.5624 Z" fill="rgb(255,255,255)" opacity="0.4"/>
<path d="M 161.5718 65.019 L 325.1076 167.4252 L 161.5718 167.4252 L 161.5718 65.019 Z M 161.5718 170.5624 L 161.5718 170.5624 L 219.8905 228.8811 L 351.0095 360 L 161.5718 360 L 161.5718 170.5624 L 161.5718 170.5624 Z M 125.5718 0 L 125.5718 396 L 437.9212 396 L 245.3463 203.4252 L 450.4282 203.4252 L 125.5718 0 Z" fill="rgb(0,0,0)" opacity="0.4"/>
</g>
</svg>
