<?xml version="1.0"?>
<svg xmlns="http://www.w3.org/2000/svg" xmlns:xlink="http://www.w3.org/1999/xlink" version="1.1" width="576" height="396" viewBox="0 0 576 396">
<!-- Generated by Kreative Vexillo v1.0 -->
<style>
.blue{fill:rgb(0,36,125);}
.red{fill:rgb(207,20,43);}
.white{fill:rgb(255,255,255);}
.yellow{fill:rgb(252,209,22);}
</style>
<defs>
<path id="star" d="M 0.0 -1.0 L 0.2245 -0.309 L 0.9511 -0.309 L 0.3633 0.118 L 0.5878 0.809 L 0.0 0.382 L -0.5878 0.809 L -0.3633 0.118 L -0.9511 -0.309 L -0.2245 -0.309 Z"/>
<clipPath id="clip0">
<path d="M 0 0 L 0 16.0186 L 0 16.0186 L 120.7002 99 L 120.7002 99 L 0 181.9814 L 0 198 L 23.2998 198 L 144 115.0186 L 144 115.0186 L 144 115.0186 L 144 115.0186 L 144 115.0186 L 144 115.0186 L 264.7002 198 L 288 198 L 288 181.9814 L 167.2998 99 L 288 16.0186 L 288 0 L 264.7002 0 L 144 82.9814 L 23.2998 0 Z"/>
</clipPath>
<linearGradient id="glaze" x1="0%" y1="0%" x2="100%" y2="100%">
<stop offset="0%" stop-color="rgb(255,255,255)" stop-opacity="0.2"/>
<stop offset="49.999%" stop-color="rgb(255,255,255)" stop-opacity="0.0"/>
<stop offset="50.001%" stop-color="rgb(0,0,0)" stop-opacity="0.0"/>
<stop offset="100%" stop-color="rgb(0,0,0)" stop-opacity="0.2"/>
</linearGradient>
</defs>
<g>
<rect x="0" y="0" width="576" height="396" class="yellow"/>
<g>
<rect x="0" y="0" width="288" height="198" class="blue"/>
<path d="M 0 0 L 0 24.0279 L 0 24.0279 L 109.0503 99 L 109.0503 99 L 0 173.9721 L 0 198 L 34.9497 198 L 144 123.0279 L 144 123.0279 L 253.0503 198 L 288 198 L 288 173.9721 L 288 173.9721 L 178.9497 99 L 178.9497 99 L 288 24.0279 L 288 0 L 253.0503 0 L 144 74.9721 L 144 74.9721 L 34.9497 0 Z" class="white"/>
<g clip-path="url(#clip0)">
<path d="M 0 0 L 144 99 L 0 99 Z" class="red"/>
<path d="M 288 0 L 144 99 L 144 0 Z" class="red"/>
<path d="M 0 198 L 144 99 L 144 198 Z" class="red"/>
<path d="M 288 198 L 144 99 L 288 99 Z" class="red"/>
</g>
<g>
<rect x="0" y="66" width="288" height="66" class="white"/>
<rect x="111" y="0" width="66" height="198" class="white"/>
</g>
<g>
<rect x="0" y="79.2" width="288" height="39.6" class="red"/>
<rect x="124.2" y="0" width="39.6" height="198" class="red"/>
</g>
</g>
<g>
<ellipse cx="144" cy="99" rx="33" ry="33" class="blue"/>
<use xlink:href="#star" transform="translate(144 99) scale(33 33) rotate(0)" class="yellow"/>
<use xlink:href="#star" transform="translate(55.5 100.1682) scale(19.8 19.8) rotate(0)" class="yellow"/>
<use xlink:href="#star" transform="translate(232.5 100.1682) scale(19.8 19.8) rotate(0)" class="yellow"/>
<use xlink:href="#star" transform="translate(144 34.1682) scale(19.8 19.8) rotate(0)" class="yellow"/>
<use xlink:href="#star" transform="translate(144 166.1682) scale(19.8 19.8) rotate(0)" class="yellow"/>
</g>
</g>
<g>
<rect x="0" y="0" width="576" height="396" fill="url(#glaze)"/>
<path d="M 36 36 L 540 36 L 540 360 L 36 360 Z M 72 72 L 72 324 L 504 324 L 504 72 Z" fill="rgb(255,255,255)" opacity="0.4"/>
<path d="M 0 0 L 576 0 L 576 396 L 0 396 Z M 36 36 L 36 360 L 540 360 L 540 36 Z" fill="rgb(0,0,0)" opacity="0.4"/>
</g>
</svg>
