<?xml version="1.0"?>
<svg xmlns="http://www.w3.org/2000/svg" xmlns:xlink="http://www.w3.org/1999/xlink" version="1.1" width="576" height="396" viewBox="0 0 576 396">
<!-- Generated by Kreative Vexillo v1.0 -->
<style>
.black{fill:rgb(0,0,0);}
.blue{fill:rgb(22,74,179);}
.red{fill:rgb(190,42,51);}
.white{fill:rgb(255,255,255);}
</style>
<defs>
<path id="koru" d="M 0.0 0.5 A 0.5 0.5 0.0 1 0 -0.5 0.0 L -10.0 0.0 L -10.0 0.5 Z"/>
<linearGradient id="glaze" x1="0%" y1="0%" x2="100%" y2="100%">
<stop offset="0%" stop-color="rgb(255,255,255)" stop-opacity="0.2"/>
<stop offset="49.999%" stop-color="rgb(255,255,255)" stop-opacity="0.0"/>
<stop offset="50.001%" stop-color="rgb(0,0,0)" stop-opacity="0.0"/>
<stop offset="100%" stop-color="rgb(0,0,0)" stop-opacity="0.2"/>
</linearGradient>
</defs>
<g>
<rect x="0" y="0" width="576" height="396" class="white"/>
<path d="M 0 0 L 387 0 L -9 396 L 0 396 Z" class="blue"/>
<path d="M 415.9964 0 L 556.0036 0 L 160.0036 396 L 19.9964 396 Z" class="red"/>
<path d="M 585 0 L 576 0 L 576 396 L 189 396 Z" class="black"/>
<use xlink:href="#koru" transform="translate(189 99) scale(99 99) rotate(-45)" class="white"/>
<use xlink:href="#koru" transform="translate(387 297) scale(99 99) rotate(135)" class="white"/>
</g>
<g>
<rect x="0" y="0" width="576" height="396" fill="url(#glaze)"/>
<path d="M 36 36 L 540 36 L 540 360 L 36 360 Z M 72 72 L 72 324 L 504 324 L 504 72 Z" fill="rgb(255,255,255)" opacity="0.4"/>
<path d="M 0 0 L 576 0 L 576 396 L 0 396 Z M 36 36 L 36 360 L 540 360 L 540 36 Z" fill="rgb(0,0,0)" opacity="0.4"/>
</g>
</svg>
