<?xml version="1.0"?>
<svg xmlns="http://www.w3.org/2000/svg" xmlns:xlink="http://www.w3.org/1999/xlink" version="1.1" width="576" height="396" viewBox="0 0 576 396">
<!-- Generated by Kreative Vexillo v1.0 -->
<style>
.maroon{fill:rgb(122,0,60);}
.white{fill:rgb(255,255,255);}
</style>
<defs>
<linearGradient id="glaze" x1="0%" y1="0%" x2="100%" y2="100%">
<stop offset="0%" stop-color="rgb(255,255,255)" stop-opacity="0.2"/>
<stop offset="49.999%" stop-color="rgb(255,255,255)" stop-opacity="0.0"/>
<stop offset="50.001%" stop-color="rgb(0,0,0)" stop-opacity="0.0"/>
<stop offset="100%" stop-color="rgb(0,0,0)" stop-opacity="0.2"/>
</linearGradient>
</defs>
<g>
<rect x="0" y="0" width="576" height="396" class="maroon"/>
<path d="M 0 0 L 164.5714 0 L 205.7143 22 L 164.5714 44 L 205.7143 66 L 164.5714 88 L 205.7143 110 L 164.5714 132 L 205.7143 154 L 164.5714 176 L 205.7143 198 L 164.5714 220 L 205.7143 242 L 164.5714 264 L 205.7143 286 L 164.5714 308 L 205.7143 330 L 164.5714 352 L 205.7143 374 L 164.5714 396 L 0 396 Z" class="white"/>
</g>
<g>
<rect x="0" y="0" width="576" height="396" fill="url(#glaze)"/>
<path d="M 36 36 L 540 36 L 540 360 L 36 360 Z M 72 72 L 72 324 L 504 324 L 504 72 Z" fill="rgb(255,255,255)" opacity="0.4"/>
<path d="M 0 0 L 576 0 L 576 396 L 0 396 Z M 36 36 L 36 360 L 540 360 L 540 36 Z" fill="rgb(0,0,0)" opacity="0.4"/>
</g>
</svg>
