<?xml version="1.0"?>
<svg xmlns="http://www.w3.org/2000/svg" xmlns:xlink="http://www.w3.org/1999/xlink" version="1.1" width="576" height="396" viewBox="0 0 576 396">
<!-- Generated by Kreative Vexillo v1.0 -->
<style>
.blue{fill:rgb(0,85,164);}
.red{fill:rgb(250,60,50);}
.white{fill:rgb(255,255,255);}
</style>
<defs>
<path id="atfa" d="M -0.305 -0.585 L -0.2406 -0.4825 H -0.057500005 V -0.125 L -0.19500001 -0.34 L -0.38 -0.045000017 H -0.29 L -0.195 -0.21500002 L 0.0 0.13499998 L 0.195 -0.21500002 L 0.29 -0.045000017 H 0.38 L 0.195 -0.34 L 0.05749999 -0.125 V -0.3225 H 0.13999999 L 0.20129998 -0.42 H 0.057499975 V -0.4825 H 0.24059997 L 0.30499998 -0.585 H -0.30500004 Z M -0.09 -0.1475 H -0.29000002 V -0.07749999 H -0.09000002 Z M 0.29 -0.1475 H 0.08999999 V -0.07749999 H 0.29 Z"/>
<path id="star" d="M 0.0 -1.0 L 0.2245 -0.309 L 0.9511 -0.309 L 0.3633 0.118 L 0.5878 0.809 L 0.0 0.382 L -0.5878 0.809 L -0.3633 0.118 L -0.9511 -0.309 L -0.2245 -0.309 Z"/>
<linearGradient id="glaze" x1="0%" y1="0%" x2="100%" y2="100%">
<stop offset="0%" stop-color="rgb(255,255,255)" stop-opacity="0.2"/>
<stop offset="49.999%" stop-color="rgb(255,255,255)" stop-opacity="0.0"/>
<stop offset="50.001%" stop-color="rgb(0,0,0)" stop-opacity="0.0"/>
<stop offset="100%" stop-color="rgb(0,0,0)" stop-opacity="0.2"/>
</linearGradient>
</defs>
<g>
<rect x="0" y="0" width="576" height="396" class="blue"/>
<rect x="0" y="0" width="239.58" height="160.38" class="white"/>
<g>
<rect x="0" y="0" width="78.54" height="156.42" class="blue"/>
<rect x="78.54" y="0" width="78.54" height="156.42" class="white"/>
<rect x="157.08" y="0" width="78.54" height="156.42" class="red"/>
</g>
<use xlink:href="#atfa" transform="translate(403.04 297) scale(198 198) rotate(0)" class="white"/>
<use xlink:href="#star" transform="translate(320.87 224.73) scale(20.79 20.79) rotate(0)" class="white"/>
<use xlink:href="#star" transform="translate(485.21 224.73) scale(20.79 20.79) rotate(0)" class="white"/>
<use xlink:href="#star" transform="translate(358.49 324.72) scale(20.79 20.79) rotate(0)" class="white"/>
<use xlink:href="#star" transform="translate(447.59 324.72) scale(20.79 20.79) rotate(0)" class="white"/>
<use xlink:href="#star" transform="translate(403.04 358.38) scale(20.79 20.79) rotate(0)" class="white"/>
</g>
<g>
<rect x="0" y="0" width="576" height="396" fill="url(#glaze)"/>
<path d="M 36 36 L 540 36 L 540 360 L 36 360 Z M 72 72 L 72 324 L 504 324 L 504 72 Z" fill="rgb(255,255,255)" opacity="0.4"/>
<path d="M 0 0 L 576 0 L 576 396 L 0 396 Z M 36 36 L 36 360 L 540 360 L 540 36 Z" fill="rgb(0,0,0)" opacity="0.4"/>
</g>
</svg>
