<?xml version="1.0"?>
<svg xmlns="http://www.w3.org/2000/svg" xmlns:xlink="http://www.w3.org/1999/xlink" version="1.1" width="576" height="396" viewBox="0 0 576 396">
<!-- Generated by Kreative Vexillo v1.0 -->
<style>
.blue1{fill:rgb(0,35,125);}
.blue2{fill:rgb(66,189,222);}
.white{fill:rgb(255,255,255);}
</style>
<defs>
<path id="star" d="M 0.0 -1.0 L 0.2245 -0.309 L 0.9511 -0.309 L 0.3633 0.118 L 0.5878 0.809 L 0.0 0.382 L -0.5878 0.809 L -0.3633 0.118 L -0.9511 -0.309 L -0.2245 -0.309 Z"/>
<linearGradient id="glaze" x1="0%" y1="0%" x2="100%" y2="100%">
<stop offset="0%" stop-color="rgb(255,255,255)" stop-opacity="0.2"/>
<stop offset="49.999%" stop-color="rgb(255,255,255)" stop-opacity="0.0"/>
<stop offset="50.001%" stop-color="rgb(0,0,0)" stop-opacity="0.0"/>
<stop offset="100%" stop-color="rgb(0,0,0)" stop-opacity="0.2"/>
</linearGradient>
</defs>
<g>
<g>
<rect x="0" y="0" width="576" height="166.32" class="blue1"/>
<rect x="0" y="166.32" width="576" height="63.36" class="blue2"/>
<rect x="0" y="229.68" width="576" height="166.32" class="blue1"/>
</g>
<use xlink:href="#star" transform="translate(288 67.32) scale(26.4 26.4) rotate(0)" class="white"/>
<use xlink:href="#star" transform="translate(288 328.68) scale(26.4 26.4) rotate(180)" class="white"/>
<use xlink:href="#star" transform="translate(177.12 281.16) scale(26.4 26.4) rotate(0)" class="white"/>
<use xlink:href="#star" transform="translate(398.88 281.16) scale(26.4 26.4) rotate(0)" class="white"/>
<use xlink:href="#star" transform="translate(177.12 114.84) scale(26.4 26.4) rotate(180)" class="white"/>
<use xlink:href="#star" transform="translate(398.88 114.84) scale(26.4 26.4) rotate(180)" class="white"/>
</g>
<g>
<rect x="0" y="0" width="576" height="396" fill="url(#glaze)"/>
<path d="M 36 36 L 540 36 L 540 360 L 36 360 Z M 72 72 L 72 324 L 504 324 L 504 72 Z" fill="rgb(255,255,255)" opacity="0.4"/>
<path d="M 0 0 L 576 0 L 576 396 L 0 396 Z M 36 36 L 36 360 L 540 360 L 540 36 Z" fill="rgb(0,0,0)" opacity="0.4"/>
</g>
</svg>
