<?xml version="1.0"?>
<svg xmlns="http://www.w3.org/2000/svg" xmlns:xlink="http://www.w3.org/1999/xlink" version="1.1" width="576" height="396" viewBox="0 0 576 396">
<!-- Generated by Kreative Vexillo v1.0 -->
<style>
.blue{fill:rgb(0,40,104);}
.copper{fill:rgb(206,92,23);}
.red{fill:rgb(191,10,48);}
.yellow{fill:rgb(254,215,0);}
</style>
<defs>
<path id="ray" d="M 0.0 0.0 L 1.0 -0.12053668 L 1.0 0.12053668 Z"/>
<path id="star" d="M 0.0 -1.0 L 0.2245 -0.309 L 0.9511 -0.309 L 0.3633 0.118 L 0.5878 0.809 L 0.0 0.382 L -0.5878 0.809 L -0.3633 0.118 L -0.9511 -0.309 L -0.2245 -0.309 Z"/>
<linearGradient id="glaze" x1="0%" y1="0%" x2="100%" y2="100%">
<stop offset="0%" stop-color="rgb(255,255,255)" stop-opacity="0.2"/>
<stop offset="49.999%" stop-color="rgb(255,255,255)" stop-opacity="0.0"/>
<stop offset="50.001%" stop-color="rgb(0,0,0)" stop-opacity="0.0"/>
<stop offset="100%" stop-color="rgb(0,0,0)" stop-opacity="0.2"/>
</linearGradient>
</defs>
<g>
<g>
<rect x="0" y="0" width="576" height="198" class="red"/>
<rect x="0" y="198" width="576" height="198" class="blue"/>
</g>
<g>
<use xlink:href="#ray" transform="translate(288 198) scale(972 972) rotate(-20.7692)" class="yellow"/>
<use xlink:href="#ray" transform="translate(288 198) scale(972 972) rotate(-48.4615)" class="yellow"/>
<use xlink:href="#ray" transform="translate(288 198) scale(972 972) rotate(-76.1538)" class="yellow"/>
<use xlink:href="#ray" transform="translate(288 198) scale(972 972) rotate(-103.8462)" class="yellow"/>
<use xlink:href="#ray" transform="translate(288 198) scale(972 972) rotate(-131.5385)" class="yellow"/>
<use xlink:href="#ray" transform="translate(288 198) scale(972 972) rotate(-159.2308)" class="yellow"/>
</g>
<use xlink:href="#star" transform="translate(288 208.5134) scale(110.088 110.088) rotate(0)" class="copper"/>
</g>
<g>
<rect x="0" y="0" width="576" height="396" fill="url(#glaze)"/>
<path d="M 36 36 L 540 36 L 540 360 L 36 360 Z M 72 72 L 72 324 L 504 324 L 504 72 Z" fill="rgb(255,255,255)" opacity="0.4"/>
<path d="M 0 0 L 576 0 L 576 396 L 0 396 Z M 36 36 L 36 360 L 540 360 L 540 36 Z" fill="rgb(0,0,0)" opacity="0.4"/>
</g>
</svg>
