<?xml version="1.0"?>
<svg xmlns="http://www.w3.org/2000/svg" xmlns:xlink="http://www.w3.org/1999/xlink" version="1.1" width="576" height="396" viewBox="0 0 576 396">
<!-- Generated by Kreative Vexillo v1.0 -->
<style>
.blue{fill:rgb(15,32,75);}
.yellow{fill:rgb(255,182,18);}
</style>
<defs>
<path id="star" d="M 0.0 -1.0 L 0.2245 -0.309 L 0.9511 -0.309 L 0.3633 0.118 L 0.5878 0.809 L 0.0 0.382 L -0.5878 0.809 L -0.3633 0.118 L -0.9511 -0.309 L -0.2245 -0.309 Z"/>
<linearGradient id="glaze" x1="0%" y1="0%" x2="100%" y2="100%">
<stop offset="0%" stop-color="rgb(255,255,255)" stop-opacity="0.2"/>
<stop offset="49.999%" stop-color="rgb(255,255,255)" stop-opacity="0.0"/>
<stop offset="50.001%" stop-color="rgb(0,0,0)" stop-opacity="0.0"/>
<stop offset="100%" stop-color="rgb(0,0,0)" stop-opacity="0.2"/>
</linearGradient>
</defs>
<g>
<rect x="0" y="0" width="576" height="396" class="blue"/>
<use xlink:href="#star" transform="translate(471.0508 72.072) scale(20.592 20.592) rotate(0)" class="yellow"/>
<use xlink:href="#star" transform="translate(93.1525 156.816) scale(12.276 12.276) rotate(0)" class="yellow"/>
<use xlink:href="#star" transform="translate(161.0847 181.368) scale(12.276 12.276) rotate(0)" class="yellow"/>
<use xlink:href="#star" transform="translate(194.8475 216.612) scale(12.276 12.276) rotate(0)" class="yellow"/>
<use xlink:href="#star" transform="translate(229.0169 253.44) scale(12.276 12.276) rotate(0)" class="yellow"/>
<use xlink:href="#star" transform="translate(330.7119 288.684) scale(12.276 12.276) rotate(0)" class="yellow"/>
<use xlink:href="#star" transform="translate(224.5424 305.316) scale(12.276 12.276) rotate(0)" class="yellow"/>
<use xlink:href="#star" transform="translate(301.0169 329.868) scale(12.276 12.276) rotate(0)" class="yellow"/>
</g>
<g>
<rect x="0" y="0" width="576" height="396" fill="url(#glaze)"/>
<path d="M 36 36 L 540 36 L 540 360 L 36 360 Z M 72 72 L 72 324 L 504 324 L 504 72 Z" fill="rgb(255,255,255)" opacity="0.4"/>
<path d="M 0 0 L 576 0 L 576 396 L 0 396 Z M 36 36 L 36 360 L 540 360 L 540 36 Z" fill="rgb(0,0,0)" opacity="0.4"/>
</g>
</svg>
