<?xml version="1.0"?>
<svg xmlns="http://www.w3.org/2000/svg" xmlns:xlink="http://www.w3.org/1999/xlink" version="1.1" width="576" height="396" viewBox="0 0 576 396">
<!-- Generated by Kreative Vexillo v1.0 -->
<style>
.blue{fill:rgb(0,40,104);}
.red{fill:rgb(191,10,48);}
.white{fill:rgb(255,255,255);}
.yellow{fill:rgb(255,215,0);}
</style>
<defs>
<clipPath id="clip0">
<rect x="0" y="0" width="576" height="396"/>
</clipPath>
<linearGradient id="glaze" x1="0%" y1="0%" x2="100%" y2="100%">
<stop offset="0%" stop-color="rgb(255,255,255)" stop-opacity="0.2"/>
<stop offset="49.999%" stop-color="rgb(255,255,255)" stop-opacity="0.0"/>
<stop offset="50.001%" stop-color="rgb(0,0,0)" stop-opacity="0.0"/>
<stop offset="100%" stop-color="rgb(0,0,0)" stop-opacity="0.2"/>
</linearGradient>
</defs>
<g>
<rect x="0" y="0" width="576" height="396" class="blue"/>
<g clip-path="url(#clip0)">
<path d="M -57.6 396 L -57.6 316.8 L 115.2 96.8 L 288 316.8 L 460.8 96.8 L 633.6 316.8 L 633.6 396 Z" class="white"/>
<path d="M -57.6 396 L 115.2 176 L 288 396 L 460.8 176 L 633.6 396 Z" class="red"/>
</g>
<ellipse cx="288" cy="110" rx="71.5" ry="71.5" class="yellow"/>
</g>
<g>
<rect x="0" y="0" width="576" height="396" fill="url(#glaze)"/>
<path d="M 36 36 L 540 36 L 540 360 L 36 360 Z M 72 72 L 72 324 L 504 324 L 504 72 Z" fill="rgb(255,255,255)" opacity="0.4"/>
<path d="M 0 0 L 576 0 L 576 396 L 0 396 Z M 36 36 L 36 360 L 540 360 L 540 36 Z" fill="rgb(0,0,0)" opacity="0.4"/>
</g>
</svg>
