<?xml version="1.0"?>
<svg xmlns="http://www.w3.org/2000/svg" xmlns:xlink="http://www.w3.org/1999/xlink" version="1.1" width="576" height="396" viewBox="0 0 576 396">
<!-- Generated by Kreative Vexillo v1.0 -->
<style>
.blue{fill:rgb(0,36,125);}
.red{fill:rgb(207,20,43);}
.white{fill:rgb(255,255,255);}
</style>
<defs>
<clipPath id="clip0">
<path d="M 0 0 L 0 15.7379 L 105.97 99 L 105.97 99 L 0 182.2621 L 0 182.2621 L 0 198 L 20.03 198 L 126 114.7379 L 231.97 198 L 252 198 L 252 182.2621 L 252 182.2621 L 146.03 99 L 146.03 99 L 252 15.7379 L 252 0 L 231.9699 0 L 126 83.2621 L 126 83.2621 L 20.0301 0 Z"/>
</clipPath>
<linearGradient id="glaze" x1="0%" y1="0%" x2="100%" y2="100%">
<stop offset="0%" stop-color="rgb(255,255,255)" stop-opacity="0.2"/>
<stop offset="49.999%" stop-color="rgb(255,255,255)" stop-opacity="0.0"/>
<stop offset="50.001%" stop-color="rgb(0,0,0)" stop-opacity="0.0"/>
<stop offset="100%" stop-color="rgb(0,0,0)" stop-opacity="0.2"/>
</linearGradient>
</defs>
<g>
<g>
<rect x="0" y="0" width="576" height="49.5" class="white"/>
<rect x="0" y="49.5" width="576" height="49.5" class="red"/>
<rect x="0" y="99" width="576" height="49.5" class="blue"/>
<rect x="0" y="148.5" width="576" height="49.5" class="white"/>
<rect x="0" y="198" width="576" height="49.5" class="red"/>
<rect x="0" y="247.5" width="576" height="49.5" class="blue"/>
<rect x="0" y="297" width="576" height="49.5" class="white"/>
<rect x="0" y="346.5" width="576" height="49.5" class="red"/>
</g>
<g>
<rect x="0" y="0" width="252" height="198" class="blue"/>
<path d="M 0 0 L 0 23.6069 L 0 23.6069 L 95.9549 99 L 95.9549 99 L 0 174.3931 L 0 174.3931 L 0 198 L 30.0451 198 L 126 122.6069 L 126 122.6069 L 126 122.6069 L 126 122.6069 L 221.9549 198 L 252 198 L 252 174.3931 L 156.0451 99 L 252 23.6069 L 252 0 L 221.9549 0 L 126 75.3931 L 126 75.3931 L 30.0451 0 Z" class="white"/>
<g clip-path="url(#clip0)">
<path d="M 0 0 L 126 99 L 0 99 Z" class="red"/>
<path d="M 252 0 L 126 99 L 126 0 Z" class="red"/>
<path d="M 0 198 L 126 99 L 126 198 Z" class="red"/>
<path d="M 252 198 L 126 99 L 252 99 Z" class="red"/>
</g>
<g>
<rect x="0" y="74.25" width="252" height="49.5" class="white"/>
<rect x="101.25" y="0" width="49.5" height="198" class="white"/>
</g>
<g>
<rect x="0" y="80.4375" width="252" height="37.125" class="red"/>
<rect x="107.4375" y="0" width="37.125" height="198" class="red"/>
</g>
</g>
</g>
<g>
<rect x="0" y="0" width="576" height="396" fill="url(#glaze)"/>
<path d="M 36 36 L 540 36 L 540 360 L 36 360 Z M 72 72 L 72 324 L 504 324 L 504 72 Z" fill="rgb(255,255,255)" opacity="0.4"/>
<path d="M 0 0 L 576 0 L 576 396 L 0 396 Z M 36 36 L 36 360 L 540 360 L 540 36 Z" fill="rgb(0,0,0)" opacity="0.4"/>
</g>
</svg>
