<?xml version="1.0"?>
<svg xmlns="http://www.w3.org/2000/svg" xmlns:xlink="http://www.w3.org/1999/xlink" version="1.1" width="576" height="396" viewBox="0 0 576 396">
<!-- Generated by Kreative Vexillo v1.0 -->
<style>
.dkblue{fill:rgb(0,45,93);}
.ltblue{fill:rgb(82,201,232);}
.white{fill:rgb(255,255,255);}
</style>
<defs>
<path id="star8" d="M 0.5 0.207 L 1.0 0.0 L 0.5 -0.207 L 0.707 -0.707 L 0.207 -0.5 L 0.0 -1.0 L -0.207 -0.5 L -0.707 -0.707 L -0.5 -0.207 L -1.0 0.0 L -0.5 0.207 L -0.707 0.707 L -0.207 0.5 L 0.0 1.0 L 0.207 0.5 L 0.707 0.707 Z"/>
<linearGradient id="glaze" x1="0%" y1="0%" x2="100%" y2="100%">
<stop offset="0%" stop-color="rgb(255,255,255)" stop-opacity="0.2"/>
<stop offset="49.999%" stop-color="rgb(255,255,255)" stop-opacity="0.0"/>
<stop offset="50.001%" stop-color="rgb(0,0,0)" stop-opacity="0.0"/>
<stop offset="100%" stop-color="rgb(0,0,0)" stop-opacity="0.2"/>
</linearGradient>
</defs>
<g>
<rect x="0" y="0" width="576" height="396" class="ltblue"/>
<path d="M 0 0 L 327.6 0 L 215.4 198 L 327.6 396 L 0 396 Z" class="dkblue"/>
<use xlink:href="#star8" transform="translate(115.9846 198) scale(71.8 71.8) rotate(0)" class="white"/>
</g>
<g>
<rect x="0" y="0" width="576" height="396" fill="url(#glaze)"/>
<path d="M 36 36 L 540 36 L 540 360 L 36 360 Z M 72 72 L 72 324 L 504 324 L 504 72 Z" fill="rgb(255,255,255)" opacity="0.4"/>
<path d="M 0 0 L 576 0 L 576 396 L 0 396 Z M 36 36 L 36 360 L 540 360 L 540 36 Z" fill="rgb(0,0,0)" opacity="0.4"/>
</g>
</svg>
