<?xml version="1.0"?>
<svg xmlns="http://www.w3.org/2000/svg" xmlns:xlink="http://www.w3.org/1999/xlink" version="1.1" width="576" height="396" viewBox="0 0 576 396">
<!-- Generated by Kreative Vexillo v1.0 -->
<style>
.blue{fill:rgb(0,154,199);}
.green{fill:rgb(84,185,72);}
.red{fill:rgb(238,49,36);}
.white{fill:rgb(255,255,255);}
</style>
<defs>
<path id="star" d="M 0.0 -1.0 L 0.2245 -0.309 L 0.9511 -0.309 L 0.3633 0.118 L 0.5878 0.809 L 0.0 0.382 L -0.5878 0.809 L -0.3633 0.118 L -0.9511 -0.309 L -0.2245 -0.309 Z"/>
<linearGradient id="glaze" x1="0%" y1="0%" x2="100%" y2="100%">
<stop offset="0%" stop-color="rgb(255,255,255)" stop-opacity="0.2"/>
<stop offset="49.999%" stop-color="rgb(255,255,255)" stop-opacity="0.0"/>
<stop offset="50.001%" stop-color="rgb(0,0,0)" stop-opacity="0.0"/>
<stop offset="100%" stop-color="rgb(0,0,0)" stop-opacity="0.2"/>
</linearGradient>
</defs>
<g>
<g>
<rect x="0" y="0" width="576" height="126.72" class="blue"/>
<rect x="0" y="126.72" width="576" height="7.92" class="red"/>
<rect x="0" y="134.64" width="576" height="126.72" class="white"/>
<rect x="0" y="261.36" width="576" height="7.92" class="red"/>
<rect x="0" y="269.28" width="576" height="126.72" class="green"/>
</g>
<ellipse cx="110.88" cy="63.36" rx="47.52" ry="47.52" class="white"/>
<ellipse cx="118.8" cy="63.36" rx="47.52" ry="47.52" class="blue"/>
<g>
<g>
<use xlink:href="#star" transform="translate(291.456 25.344) scale(9.504 9.504) rotate(0)" class="white"/>
<use xlink:href="#star" transform="translate(253.44 25.344) scale(9.504 9.504) rotate(0)" class="white"/>
<use xlink:href="#star" transform="translate(215.424 25.344) scale(9.504 9.504) rotate(0)" class="white"/>
</g>
<g>
<use xlink:href="#star" transform="translate(291.456 63.36) scale(9.504 9.504) rotate(0)" class="white"/>
<use xlink:href="#star" transform="translate(253.44 63.36) scale(9.504 9.504) rotate(0)" class="white"/>
<use xlink:href="#star" transform="translate(215.424 63.36) scale(9.504 9.504) rotate(0)" class="white"/>
<use xlink:href="#star" transform="translate(177.408 63.36) scale(9.504 9.504) rotate(0)" class="white"/>
</g>
<g>
<use xlink:href="#star" transform="translate(291.456 101.376) scale(9.504 9.504) rotate(0)" class="white"/>
<use xlink:href="#star" transform="translate(253.44 101.376) scale(9.504 9.504) rotate(0)" class="white"/>
<use xlink:href="#star" transform="translate(215.424 101.376) scale(9.504 9.504) rotate(0)" class="white"/>
<use xlink:href="#star" transform="translate(177.408 101.376) scale(9.504 9.504) rotate(0)" class="white"/>
<use xlink:href="#star" transform="translate(139.392 101.376) scale(9.504 9.504) rotate(0)" class="white"/>
</g>
</g>
</g>
<g>
<rect x="0" y="0" width="576" height="396" fill="url(#glaze)"/>
<path d="M 36 36 L 540 36 L 540 360 L 36 360 Z M 72 72 L 72 324 L 504 324 L 504 72 Z" fill="rgb(255,255,255)" opacity="0.4"/>
<path d="M 0 0 L 576 0 L 576 396 L 0 396 Z M 36 36 L 36 360 L 540 360 L 540 36 Z" fill="rgb(0,0,0)" opacity="0.4"/>
</g>
</svg>
