<?xml version="1.0"?>
<svg xmlns="http://www.w3.org/2000/svg" xmlns:xlink="http://www.w3.org/1999/xlink" version="1.1" width="576" height="396" viewBox="0 0 576 396">
<!-- Generated by Kreative Vexillo v1.0 -->
<style>
.blue{fill:rgb(0,114,198);}
.green{fill:rgb(0,158,96);}
.yellow{fill:rgb(252,209,22);}
</style>
<defs>
<path id="diamond" d="M 0.0 -1.0 L 1.0 0.0 L 0.0 1.0 L -1.0 0.0 Z"/>
<linearGradient id="glaze" x1="0%" y1="0%" x2="100%" y2="100%">
<stop offset="0%" stop-color="rgb(255,255,255)" stop-opacity="0.2"/>
<stop offset="49.999%" stop-color="rgb(255,255,255)" stop-opacity="0.0"/>
<stop offset="50.001%" stop-color="rgb(0,0,0)" stop-opacity="0.0"/>
<stop offset="100%" stop-color="rgb(0,0,0)" stop-opacity="0.2"/>
</linearGradient>
</defs>
<g>
<g>
<rect x="0" y="0" width="144" height="396" class="blue"/>
<rect x="144" y="0" width="288" height="396" class="yellow"/>
<rect x="432" y="0" width="144" height="396" class="green"/>
</g>
<use xlink:href="#diamond" transform="translate(248.832 198) scale(32.256 66) rotate(0)" class="green"/>
<use xlink:href="#diamond" transform="translate(288 277.2) scale(32.256 66) rotate(0)" class="green"/>
<use xlink:href="#diamond" transform="translate(327.168 198) scale(32.256 66) rotate(0)" class="green"/>
</g>
<g>
<rect x="0" y="0" width="576" height="396" fill="url(#glaze)"/>
<path d="M 36 36 L 540 36 L 540 360 L 36 360 Z M 72 72 L 72 324 L 504 324 L 504 72 Z" fill="rgb(255,255,255)" opacity="0.4"/>
<path d="M 0 0 L 576 0 L 576 396 L 0 396 Z M 36 36 L 36 360 L 540 360 L 540 36 Z" fill="rgb(0,0,0)" opacity="0.4"/>
</g>
</svg>
