<?xml version="1.0"?>
<svg xmlns="http://www.w3.org/2000/svg" xmlns:xlink="http://www.w3.org/1999/xlink" version="1.1" width="576" height="396" viewBox="0 0 576 396">
<!-- Generated by Kreative Vexillo v1.0 -->
<style>
.blue{fill:rgb(0,85,164);}
.red{fill:rgb(250,60,50);}
.white{fill:rgb(255,255,255);}
</style>
<defs>
<linearGradient id="glaze" x1="0%" y1="0%" x2="100%" y2="100%">
<stop offset="0%" stop-color="rgb(255,255,255)" stop-opacity="0.2"/>
<stop offset="49.999%" stop-color="rgb(255,255,255)" stop-opacity="0.0"/>
<stop offset="50.001%" stop-color="rgb(0,0,0)" stop-opacity="0.0"/>
<stop offset="100%" stop-color="rgb(0,0,0)" stop-opacity="0.2"/>
</linearGradient>
</defs>
<g>
<rect x="0" y="0" width="576" height="396" class="red"/>
<rect x="0" y="0" width="239.58" height="160.38" class="white"/>
<g>
<rect x="0" y="0" width="78.54" height="156.42" class="blue"/>
<rect x="78.54" y="0" width="78.54" height="156.42" class="white"/>
<rect x="157.08" y="0" width="78.54" height="156.42" class="red"/>
</g>
<rect x="346.64" y="137.84" width="120.32" height="120.32" class="white"/>
<path d="M 335.36 126.56 L 335.36 142.5123 L 390.8477 198 L 335.36 253.4877 L 335.36 269.44 L 351.3123 269.44 L 406.8 213.9523 L 462.2877 269.44 L 478.24 269.44 L 478.24 253.4877 L 422.7523 198 L 478.24 142.5123 L 478.24 126.56 L 462.2877 126.56 L 406.8 182.0477 L 351.3123 126.56 Z" class="red"/>
</g>
<g>
<rect x="0" y="0" width="576" height="396" fill="url(#glaze)"/>
<path d="M 36 36 L 540 36 L 540 360 L 36 360 Z M 72 72 L 72 324 L 504 324 L 504 72 Z" fill="rgb(255,255,255)" opacity="0.4"/>
<path d="M 0 0 L 576 0 L 576 396 L 0 396 Z M 36 36 L 36 360 L 540 360 L 540 36 Z" fill="rgb(0,0,0)" opacity="0.4"/>
</g>
</svg>
