<?xml version="1.0"?>
<svg xmlns="http://www.w3.org/2000/svg" xmlns:xlink="http://www.w3.org/1999/xlink" version="1.1" width="576" height="396" viewBox="0 0 576 396">
<!-- Generated by Kreative Vexillo v1.0 -->
<style>
.blue{fill:rgb(0,0,204);}
.red{fill:rgb(255,0,0);}
.yellow{fill:rgb(255,255,0);}
</style>
<defs>
<linearGradient id="glaze" x1="0%" y1="0%" x2="100%" y2="100%">
<stop offset="0%" stop-color="rgb(255,255,255)" stop-opacity="0.2"/>
<stop offset="49.999%" stop-color="rgb(255,255,255)" stop-opacity="0.0"/>
<stop offset="50.001%" stop-color="rgb(0,0,0)" stop-opacity="0.0"/>
<stop offset="100%" stop-color="rgb(0,0,0)" stop-opacity="0.2"/>
</linearGradient>
</defs>
<g>
<rect x="0" y="0" width="576" height="396" class="blue"/>
<path d="M 0 0 L 0 33.2694 L 0 33.2694 L 239.6081 198 L 239.6081 198 L 0 362.7306 L 0 362.7306 L 0 396 L 48.3919 396 L 288 231.2694 L 288 231.2694 L 527.6081 396 L 576 396 L 576 362.7306 L 336.3919 198 L 576 33.2694 L 576 0 L 527.6081 0 L 288 164.7306 L 288 164.7306 L 288 164.7306 L 288 164.7306 L 288 164.7306 L 288 164.7306 L 48.3919 0 Z" class="yellow"/>
<g>
<rect x="0" y="170.5846" width="576" height="54.8308" class="yellow"/>
<rect x="260.5846" y="0" width="54.8308" height="396" class="yellow"/>
</g>
<path d="M 0 0 L 0 22.1796 L 0 22.1796 L 255.7388 198 L 255.7388 198 L 0 373.8204 L 0 373.8204 L 0 396 L 32.2612 396 L 288 220.1796 L 543.7387 396 L 576 396 L 576 373.8204 L 320.2612 198 L 320.2612 198 L 576 22.1796 L 576 0 L 543.7387 0 L 288 175.8204 L 32.2612 0 Z" class="red"/>
<g>
<rect x="0" y="179.7231" width="576" height="36.5538" class="red"/>
<rect x="269.7231" y="0" width="36.5538" height="396" class="red"/>
</g>
<ellipse cx="288" cy="198" rx="106.6154" ry="106.6154" class="yellow"/>
<ellipse cx="288" cy="198" rx="91.3846" ry="91.3846" class="red"/>
</g>
<g>
<rect x="0" y="0" width="576" height="396" fill="url(#glaze)"/>
<path d="M 36 36 L 540 36 L 540 360 L 36 360 Z M 72 72 L 72 324 L 504 324 L 504 72 Z" fill="rgb(255,255,255)" opacity="0.4"/>
<path d="M 0 0 L 576 0 L 576 396 L 0 396 Z M 36 36 L 36 360 L 540 360 L 540 36 Z" fill="rgb(0,0,0)" opacity="0.4"/>
</g>
</svg>
