<?xml version="1.0"?>
<svg xmlns="http://www.w3.org/2000/svg" xmlns:xlink="http://www.w3.org/1999/xlink" version="1.1" width="576" height="396" viewBox="0 0 576 396">
<!-- Generated by Kreative Vexillo v1.0 -->
<style>
.black{fill:rgb(0,0,0);}
.green{fill:rgb(192,255,48);}
.orange{fill:rgb(255,128,64);}
.red{fill:rgb(255,85,85);}
.violet{fill:rgb(128,64,128);}
.yellow{fill:rgb(255,255,48);}
</style>
<defs>
<linearGradient id="glaze" x1="0%" y1="0%" x2="100%" y2="100%">
<stop offset="0%" stop-color="rgb(255,255,255)" stop-opacity="0.2"/>
<stop offset="49.999%" stop-color="rgb(255,255,255)" stop-opacity="0.0"/>
<stop offset="50.001%" stop-color="rgb(0,0,0)" stop-opacity="0.0"/>
<stop offset="100%" stop-color="rgb(0,0,0)" stop-opacity="0.2"/>
</linearGradient>
</defs>
<g>
<rect x="0" y="0" width="576" height="396" class="black"/>
<ellipse cx="288" cy="198" rx="123.75" ry="123.75" class="violet"/>
<ellipse cx="288" cy="198" rx="115.5" ry="115.5" class="red"/>
<ellipse cx="288" cy="198" rx="107.25" ry="107.25" class="orange"/>
<ellipse cx="288" cy="198" rx="99" ry="99" class="yellow"/>
<ellipse cx="288" cy="198" rx="90.75" ry="90.75" class="green"/>
<ellipse cx="288" cy="198" rx="82.5" ry="82.5" class="black"/>
</g>
<g>
<rect x="0" y="0" width="576" height="396" fill="url(#glaze)"/>
<path d="M 36 36 L 540 36 L 540 360 L 36 360 Z M 72 72 L 72 324 L 504 324 L 504 72 Z" fill="rgb(255,255,255)" opacity="0.4"/>
<path d="M 0 0 L 576 0 L 576 396 L 0 396 Z M 36 36 L 36 360 L 540 360 L 540 36 Z" fill="rgb(0,0,0)" opacity="0.4"/>
</g>
</svg>
