<?xml version="1.0"?>
<svg xmlns="http://www.w3.org/2000/svg" xmlns:xlink="http://www.w3.org/1999/xlink" version="1.1" width="576" height="396" viewBox="0 0 576 396">
<!-- Generated by Kreative Vexillo v1.0 -->
<style>
.blue{fill:rgb(0,0,255);}
.red{fill:rgb(255,0,0);}
.white{fill:rgb(255,255,255);}
</style>
<defs>
<path id="arrow" d="M 0.0 0.0 L 0.5 1.0 L 0.0 0.8 L -0.5 1.0 Z"/>
<path id="ring" d="M 0.5 0.0 A 0.5 0.5 0.0 0 0 -0.5 0.0 A 0.5 0.5 0.0 0 0 0.5 0.0 Z M 0.416667 0.0 A 0.416667 0.416667 0.0 0 1 -0.416667 0.0 A 0.416667 0.416667 0.0 0 1 0.416667 0.0 Z"/>
<linearGradient id="glaze" x1="0%" y1="0%" x2="100%" y2="100%">
<stop offset="0%" stop-color="rgb(255,255,255)" stop-opacity="0.2"/>
<stop offset="49.999%" stop-color="rgb(255,255,255)" stop-opacity="0.0"/>
<stop offset="50.001%" stop-color="rgb(0,0,0)" stop-opacity="0.0"/>
<stop offset="100%" stop-color="rgb(0,0,0)" stop-opacity="0.2"/>
</linearGradient>
</defs>
<g>
<rect x="0" y="0" width="576" height="396" class="white"/>
<use xlink:href="#ring" transform="translate(214.8192 198) scale(250.9056 250.9056) rotate(0)" class="blue"/>
<use xlink:href="#ring" transform="translate(361.1808 198) scale(250.9056 250.9056) rotate(0)" class="blue"/>
<g>
<rect x="54.6264" y="187.5456" width="466.7472" height="20.9088" class="red"/>
<rect x="277.5456" y="44.2332" width="20.9088" height="307.5336" class="red"/>
</g>
<use xlink:href="#arrow" transform="translate(288 12.87) scale(62.7264 47.0448) rotate(0)" class="red"/>
<use xlink:href="#arrow" transform="translate(288 383.13) scale(62.7264 47.0448) rotate(180)" class="red"/>
<use xlink:href="#arrow" transform="translate(31.104 198) scale(47.0448 62.7264) rotate(270)" class="red"/>
<use xlink:href="#arrow" transform="translate(544.896 198) scale(47.0448 62.7264) rotate(90)" class="red"/>
</g>
<g>
<rect x="0" y="0" width="576" height="396" fill="url(#glaze)"/>
<path d="M 36 36 L 540 36 L 540 360 L 36 360 Z M 72 72 L 72 324 L 504 324 L 504 72 Z" fill="rgb(255,255,255)" opacity="0.4"/>
<path d="M 0 0 L 576 0 L 576 396 L 0 396 Z M 36 36 L 36 360 L 540 360 L 540 36 Z" fill="rgb(0,0,0)" opacity="0.4"/>
</g>
</svg>
