<?xml version="1.0"?>
<svg xmlns="http://www.w3.org/2000/svg" xmlns:xlink="http://www.w3.org/1999/xlink" version="1.1" width="576" height="396" viewBox="0 0 576 396">
<!-- Generated by Kreative Vexillo v1.0 -->
<style>
.orange{fill:rgb(255,153,0);}
</style>
<defs>
<path id="-glazearea" d="M 0.0 0.0 L 1.0 0.25 L 1.0 0.75 L 0.0 1.0 Z"/>
<linearGradient id="glaze" x1="0%" y1="0%" x2="100%" y2="100%">
<stop offset="0%" stop-color="rgb(255,255,255)" stop-opacity="0.2"/>
<stop offset="49.999%" stop-color="rgb(255,255,255)" stop-opacity="0.0"/>
<stop offset="50.001%" stop-color="rgb(0,0,0)" stop-opacity="0.0"/>
<stop offset="100%" stop-color="rgb(0,0,0)" stop-opacity="0.2"/>
</linearGradient>
</defs>
<g>
<path d="M 0 0 L 576 99 L 576 297 L 0 396 Z" class="orange"/>
</g>
<g>
<path d="M 0 0 L 576 99 L 576 297 L 0 396 Z" fill="url(#glaze)"/>
<path d="M 72 85.4307 L 504 159.6807 L 504 159.6807 L 504 236.3193 L 72 310.5693 L 72 310.5693 L 72 85.4307 Z M 36 42.7154 L 36 42.7154 L 36 353.2846 L 540 266.6596 L 540 129.3404 L 540 129.3404 L 36 42.7154 L 36 42.7154 Z" fill="rgb(255,255,255)" opacity="0.4"/>
<path d="M 36 42.7154 L 36 42.7154 L 36 42.7154 L 540 129.3404 L 540 129.3404 L 540 266.6596 L 36 353.2846 L 36 42.7154 L 36 42.7154 L 36 42.7154 Z M 0 0 L 0 396 L 576 297 L 576 99 L 0 0 Z" fill="rgb(0,0,0)" opacity="0.4"/>
</g>
</svg>
