<?xml version="1.0"?>
<svg xmlns="http://www.w3.org/2000/svg" xmlns:xlink="http://www.w3.org/1999/xlink" version="1.1" width="576" height="396" viewBox="0 0 576 396">
<!-- Generated by Kreative Vexillo v1.0 -->
<style>
.white{fill:rgb(255,255,255);}
</style>
<defs>
<path id="-glazearea" d="M 0.0 0.0 L 1.0 0.0 L 0.75 0.5 L 1.0 1.0 L 0.0 1.0 Z"/>
<linearGradient id="glaze" x1="0%" y1="0%" x2="100%" y2="100%">
<stop offset="0%" stop-color="rgb(255,255,255)" stop-opacity="0.2"/>
<stop offset="49.999%" stop-color="rgb(255,255,255)" stop-opacity="0.0"/>
<stop offset="50.001%" stop-color="rgb(0,0,0)" stop-opacity="0.0"/>
<stop offset="100%" stop-color="rgb(0,0,0)" stop-opacity="0.2"/>
</linearGradient>
</defs>
<g>
<path d="M 0 0 L 576 0 L 432 198 L 576 396 L 0 396 Z" class="white"/>
</g>
<g>
<path d="M 0 0 L 576 0 L 432 198 L 576 396 L 0 396 Z" fill="url(#glaze)"/>
<path d="M 434.6086 72 L 373.7768 155.6437 L 342.9634 198 L 373.7768 240.3563 L 434.6086 324 L 72 324 L 72 72 Z M 36 36 L 36 360 L 505.3043 360 L 402.8884 219.1781 L 387.4817 198 L 402.8884 176.8219 L 505.3043 36 Z" fill="rgb(255,255,255)" opacity="0.4"/>
<path d="M 505.3043 36 L 402.8884 176.8219 L 387.4817 198 L 402.8884 219.1781 L 505.3043 360 L 36 360 L 36 36 Z M 0 0 L 0 396 L 576 396 L 432 198 L 576 0 Z" fill="rgb(0,0,0)" opacity="0.4"/>
</g>
</svg>
