<?xml version="1.0"?>
<svg xmlns="http://www.w3.org/2000/svg" xmlns:xlink="http://www.w3.org/1999/xlink" version="1.1" width="576" height="396" viewBox="0 0 576 396">
<!-- Generated by Kreative Vexillo v1.0 -->
<style>
.red{fill:rgb(255,0,0);}
</style>
<defs>
<path id="-glazearea" d="M 0.0 0.0 L 1.0 0.0 L 0.75 0.5 L 1.0 1.0 L 0.0 1.0 Z"/>
<clipPath id="clip0">
<path d="M 90 0 L 486 0 L 387 198 L 486 396 L 90 396 Z"/>
</clipPath>
<linearGradient id="glaze" x1="0%" y1="0%" x2="100%" y2="100%">
<stop offset="0%" stop-color="rgb(255,255,255)" stop-opacity="0.2"/>
<stop offset="49.999%" stop-color="rgb(255,255,255)" stop-opacity="0.0"/>
<stop offset="50.001%" stop-color="rgb(0,0,0)" stop-opacity="0.0"/>
<stop offset="100%" stop-color="rgb(0,0,0)" stop-opacity="0.2"/>
</linearGradient>
</defs>
<g>
<g clip-path="url(#clip0)">
<rect x="90" y="0" width="396" height="396" class="red"/>
</g>
</g>
<g>
<path d="M 90 0 L 486 0 L 387 198 L 486 396 L 90 396 Z" fill="url(#glaze)"/>
<path d="M 369.5016 72 L 322.5888 165.8254 L 306.5171 198 L 322.5888 230.1746 L 369.5016 324 L 162 324 L 162 72 Z M 126 36 L 126 360 L 427.7508 360 L 354.7944 214.0873 L 346.7585 198 L 354.7944 181.9127 L 427.7508 36 Z" fill="rgb(255,255,255)" opacity="0.4"/>
<path d="M 427.7508 36 L 354.7944 181.9127 L 346.7585 198 L 354.7944 214.0873 L 427.7508 360 L 126 360 L 126 36 Z M 90 0 L 90 396 L 486 396 L 387 198 L 486 0 Z" fill="rgb(0,0,0)" opacity="0.4"/>
</g>
</svg>
