<?xml version="1.0"?>
<svg xmlns="http://www.w3.org/2000/svg" xmlns:xlink="http://www.w3.org/1999/xlink" version="1.1" width="576" height="396" viewBox="0 0 576 396">
<!-- Generated by Kreative Vexillo v1.0 -->
<style>
.blue{fill:rgb(0,0,255);}
.white{fill:rgb(255,255,255);}
</style>
<defs>
<linearGradient id="glaze" x1="0%" y1="0%" x2="100%" y2="100%">
<stop offset="0%" stop-color="rgb(255,255,255)" stop-opacity="0.2"/>
<stop offset="49.999%" stop-color="rgb(255,255,255)" stop-opacity="0.0"/>
<stop offset="50.001%" stop-color="rgb(0,0,0)" stop-opacity="0.0"/>
<stop offset="100%" stop-color="rgb(0,0,0)" stop-opacity="0.2"/>
</linearGradient>
</defs>
<g>
<rect x="90" y="0" width="396" height="396" class="blue"/>
<rect x="189" y="0" width="99" height="99" class="white"/>
<rect x="387" y="0" width="99" height="99" class="white"/>
<rect x="90" y="99" width="99" height="99" class="white"/>
<rect x="288" y="99" width="99" height="99" class="white"/>
<rect x="189" y="198" width="99" height="99" class="white"/>
<rect x="387" y="198" width="99" height="99" class="white"/>
<rect x="90" y="297" width="99" height="99" class="white"/>
<rect x="288" y="297" width="99" height="99" class="white"/>
</g>
<g>
<rect x="90" y="0" width="396" height="396" fill="url(#glaze)"/>
<path d="M 126 36 L 450 36 L 450 360 L 126 360 Z M 162 72 L 162 324 L 414 324 L 414 72 Z" fill="rgb(255,255,255)" opacity="0.4"/>
<path d="M 90 0 L 486 0 L 486 396 L 90 396 Z M 126 36 L 126 360 L 450 360 L 450 36 Z" fill="rgb(0,0,0)" opacity="0.4"/>
</g>
</svg>
