<?xml version="1.0"?>
<svg xmlns="http://www.w3.org/2000/svg" xmlns:xlink="http://www.w3.org/1999/xlink" version="1.1" width="576" height="396" viewBox="0 0 576 396">
<!-- Generated by Kreative Vexillo v1.0 -->
<style>
.blue{fill:rgb(0,0,255);}
.yellow{fill:rgb(255,255,0);}
</style>
<defs>
<path id="-glazearea" d="M 0.0 0.0 L 1.0 0.5 L 0.0 1.0 Z"/>
<clipPath id="clip0">
<path d="M 0 0 L 576 198 L 0 396 Z"/>
</clipPath>
<linearGradient id="glaze" x1="0%" y1="0%" x2="100%" y2="100%">
<stop offset="0%" stop-color="rgb(255,255,255)" stop-opacity="0.2"/>
<stop offset="49.999%" stop-color="rgb(255,255,255)" stop-opacity="0.0"/>
<stop offset="50.001%" stop-color="rgb(0,0,0)" stop-opacity="0.0"/>
<stop offset="100%" stop-color="rgb(0,0,0)" stop-opacity="0.2"/>
</linearGradient>
</defs>
<g>
<g clip-path="url(#clip0)">
<g>
<rect x="0" y="0" width="192" height="198" class="yellow"/>
<rect x="0" y="198" width="192" height="198" class="blue"/>
</g>
<g>
<rect x="192" y="0" width="384" height="198" class="blue"/>
<rect x="192" y="198" width="384" height="198" class="yellow"/>
</g>
</g>
</g>
<g>
<path d="M 0 0 L 576 198 L 0 396 Z" fill="url(#glaze)"/>
<path d="M 72 100.8852 L 354.5159 198 L 354.5159 198 L 72 295.1149 L 72 295.1149 L 72 100.8852 Z M 36 50.4426 L 36 345.5574 L 36 345.5574 L 465.258 198 L 465.258 198 L 36 50.4426 Z" fill="rgb(255,255,255)" opacity="0.4"/>
<path d="M 36 50.4426 L 465.258 198 L 465.258 198 L 36 345.5574 L 36 345.5574 L 36 50.4426 Z M 0 0 L 0 396 L 576 198 L 0 0 Z" fill="rgb(0,0,0)" opacity="0.4"/>
</g>
</svg>
