<?xml version="1.0"?>
<svg xmlns="http://www.w3.org/2000/svg" xmlns:xlink="http://www.w3.org/1999/xlink" version="1.1" width="576" height="396" viewBox="0 0 576 396">
<!-- Generated by Kreative Vexillo v1.0 -->
<style>
.blue{fill:rgb(153,221,255);}
.gold{fill:rgb(255,221,0);}
.pink{fill:rgb(255,153,221);}
.purple{fill:rgb(153,0,102);}
.white{fill:rgb(255,255,255);}
.yellow{fill:rgb(255,255,0);}
</style>
<defs>
<path id="curl" d="M -0.01759 0.5 C -0.12371 0.50002 -0.21472 0.41906 -0.22502 0.31136 C -0.23013 0.25831 -0.21389 0.20696 -0.18046 0.17049 C -0.15072 0.1381 -0.109290004 0.1206 -0.06386001 0.12093 C -0.017290007 0.121360004 0.023379996 0.14551 0.042289995 0.18399 C 0.061909996 0.22392 0.054799996 0.27263 0.023239994 0.31428 C 0.0103499945 0.33133 -0.013930006 0.33468 -0.031020006 0.32175002 C -0.048070006 0.30884 -0.051420007 0.28453 -0.038490005 0.26749003 C -0.024800004 0.24943003 -0.020690005 0.23144004 -0.027240004 0.21811002 C -0.033250004 0.20591003 -0.047180004 0.19852002 -0.06458001 0.19837002 C -0.08854001 0.19791003 -0.10825001 0.20636003 -0.123380005 0.22285002 C -0.1417 0.24284002 -0.15088001 0.27314 -0.14791 0.30395 C -0.14104 0.37583 -0.07716 0.42898 -0.0050500035 0.42195 C 0.08902 0.4129 0.1576 0.32934 0.15099 0.23174001 C 0.14418 0.13124001 0.061169997 0.07744001 -0.026710004 0.020480007 C -0.115880005 -0.037299994 -0.21696 -0.102809995 -0.22786 -0.22572999 C -0.24013 -0.36333 -0.13881 -0.48596 -0.00201 -0.49904 C 0.053370003 -0.50431 0.10757 -0.48775 0.15053 -0.45227 C 0.19347 -0.41682 0.22004 -0.36677 0.22533 -0.31135 C 0.23042999 -0.25829 0.21416 -0.20694 0.18067999 -0.17047998 C 0.15133 -0.13847998 0.11060999 -0.120939985 0.06588999 -0.12091999 C 0.065309994 -0.12091999 0.06472999 -0.120929986 0.064169995 -0.120929986 C 0.017579995 -0.12134998 -0.023140006 -0.14552999 -0.042060003 -0.18401998 C -0.06164 -0.22395998 -0.05454 -0.27262 -0.023020003 -0.31419998 C -0.010090003 -0.33128 0.014189996 -0.33457 0.031239998 -0.32165998 C 0.048279997 -0.30874 0.051609997 -0.28445 0.0387 -0.26739997 C 0.02504 -0.24939996 0.020949999 -0.23144996 0.027479999 -0.21815997 C 0.03348 -0.20592998 0.04747 -0.19854997 0.06489 -0.19837998 C 0.088719994 -0.19770998 0.10851 -0.20635998 0.12361 -0.22283998 C 0.14197 -0.24283998 0.15117 -0.27317998 0.14822 -0.30395997 C 0.14489 -0.33878997 0.12818 -0.37024996 0.1012 -0.39252996 C 0.07423 -0.41481996 0.04034 -0.42517996 0.0053400025 -0.42192996 C -0.089209996 -0.41287994 -0.15922001 -0.32791996 -0.15072 -0.23254995 C -0.14316 -0.14721996 -0.06968 -0.099609956 0.015389994 -0.04447995 C 0.11073999 0.017320048 0.21882999 0.087360054 0.22823 0.22653006 C 0.23771 0.36626005 0.13844 0.48597008 0.0022999942 0.49908006 C -0.00438 0.4997 -0.01101 0.5 -0.01759 0.5 Z"/>
<path id="star" d="M 0.0 -1.0 L 0.2245 -0.309 L 0.9511 -0.309 L 0.3633 0.118 L 0.5878 0.809 L 0.0 0.382 L -0.5878 0.809 L -0.3633 0.118 L -0.9511 -0.309 L -0.2245 -0.309 Z"/>
<linearGradient id="glaze" x1="0%" y1="0%" x2="100%" y2="100%">
<stop offset="0%" stop-color="rgb(255,255,255)" stop-opacity="0.2"/>
<stop offset="49.999%" stop-color="rgb(255,255,255)" stop-opacity="0.0"/>
<stop offset="50.001%" stop-color="rgb(0,0,0)" stop-opacity="0.0"/>
<stop offset="100%" stop-color="rgb(0,0,0)" stop-opacity="0.2"/>
</linearGradient>
</defs>
<g>
<g>
<rect x="0" y="0" width="576" height="46.5882" class="blue"/>
<rect x="0" y="46.5882" width="576" height="46.5882" class="white"/>
<rect x="0" y="93.1765" width="576" height="302.8235" class="pink"/>
</g>
<g>
<use xlink:href="#curl" transform="translate(288 49.5) scale(76.8 76.8) rotate(0)" class="purple"/>
<use xlink:href="#curl" transform="translate(288 138.6) scale(76.8 76.8) rotate(0)" class="purple"/>
<use xlink:href="#curl" transform="translate(288 257.4) scale(76.8 76.8) rotate(0)" class="purple"/>
<use xlink:href="#curl" transform="translate(288 346.5) scale(76.8 76.8) rotate(0)" class="purple"/>
<use xlink:href="#curl" transform="translate(48 198) scale(76.8 76.8) rotate(90)" class="purple"/>
<use xlink:href="#curl" transform="translate(139.2 198) scale(76.8 76.8) rotate(90)" class="purple"/>
<use xlink:href="#curl" transform="translate(230.4 198) scale(76.8 76.8) rotate(90)" class="purple"/>
<use xlink:href="#curl" transform="translate(345.6 198) scale(76.8 76.8) rotate(90)" class="purple"/>
<use xlink:href="#curl" transform="translate(436.8 198) scale(76.8 76.8) rotate(90)" class="purple"/>
<use xlink:href="#curl" transform="translate(528 198) scale(76.8 76.8) rotate(90)" class="purple"/>
</g>
<g>
<use xlink:href="#curl" transform="translate(138 67.65) scale(35.2 35.2) rotate(0)" class="purple"/>
<use xlink:href="#curl" transform="translate(138 122.1) scale(35.2 35.2) rotate(0)" class="purple"/>
<use xlink:href="#curl" transform="translate(69.8 94.875) scale(35.2 35.2) rotate(90)" class="purple"/>
<use xlink:href="#curl" transform="translate(111.6 94.875) scale(35.2 35.2) rotate(90)" class="purple"/>
<use xlink:href="#curl" transform="translate(164.4 94.875) scale(35.2 35.2) rotate(90)" class="purple"/>
<use xlink:href="#curl" transform="translate(206.2 94.875) scale(35.2 35.2) rotate(90)" class="purple"/>
</g>
<g>
<use xlink:href="#curl" transform="translate(438 67.65) scale(35.2 35.2) rotate(0)" class="purple"/>
<use xlink:href="#curl" transform="translate(438 122.1) scale(35.2 35.2) rotate(0)" class="purple"/>
<use xlink:href="#curl" transform="translate(369.8 94.875) scale(35.2 35.2) rotate(90)" class="purple"/>
<use xlink:href="#curl" transform="translate(411.6 94.875) scale(35.2 35.2) rotate(90)" class="purple"/>
<use xlink:href="#curl" transform="translate(464.4 94.875) scale(35.2 35.2) rotate(90)" class="purple"/>
<use xlink:href="#curl" transform="translate(506.2 94.875) scale(35.2 35.2) rotate(90)" class="purple"/>
</g>
<g>
<use xlink:href="#curl" transform="translate(138 273.9) scale(35.2 35.2) rotate(0)" class="purple"/>
<use xlink:href="#curl" transform="translate(138 328.35) scale(35.2 35.2) rotate(0)" class="purple"/>
<use xlink:href="#curl" transform="translate(69.8 301.125) scale(35.2 35.2) rotate(90)" class="purple"/>
<use xlink:href="#curl" transform="translate(111.6 301.125) scale(35.2 35.2) rotate(90)" class="purple"/>
<use xlink:href="#curl" transform="translate(164.4 301.125) scale(35.2 35.2) rotate(90)" class="purple"/>
<use xlink:href="#curl" transform="translate(206.2 301.125) scale(35.2 35.2) rotate(90)" class="purple"/>
</g>
<g>
<use xlink:href="#curl" transform="translate(438 273.9) scale(35.2 35.2) rotate(0)" class="purple"/>
<use xlink:href="#curl" transform="translate(438 328.35) scale(35.2 35.2) rotate(0)" class="purple"/>
<use xlink:href="#curl" transform="translate(369.8 301.125) scale(35.2 35.2) rotate(90)" class="purple"/>
<use xlink:href="#curl" transform="translate(411.6 301.125) scale(35.2 35.2) rotate(90)" class="purple"/>
<use xlink:href="#curl" transform="translate(464.4 301.125) scale(35.2 35.2) rotate(90)" class="purple"/>
<use xlink:href="#curl" transform="translate(506.2 301.125) scale(35.2 35.2) rotate(90)" class="purple"/>
</g>
<g>
<use xlink:href="#star" transform="translate(69 45.375) scale(33 33) rotate(0)" class="gold"/>
<use xlink:href="#star" transform="translate(507 45.375) scale(33 33) rotate(0)" class="gold"/>
<use xlink:href="#star" transform="translate(69 350.625) scale(33 33) rotate(0)" class="yellow"/>
<use xlink:href="#star" transform="translate(507 350.625) scale(33 33) rotate(0)" class="yellow"/>
</g>
</g>
<g>
<rect x="0" y="0" width="576" height="396" fill="url(#glaze)"/>
<path d="M 36 36 L 540 36 L 540 360 L 36 360 Z M 72 72 L 72 324 L 504 324 L 504 72 Z" fill="rgb(255,255,255)" opacity="0.4"/>
<path d="M 0 0 L 576 0 L 576 396 L 0 396 Z M 36 36 L 36 360 L 540 360 L 540 36 Z" fill="rgb(0,0,0)" opacity="0.4"/>
</g>
</svg>
