<?xml version="1.0"?>
<svg xmlns="http://www.w3.org/2000/svg" xmlns:xlink="http://www.w3.org/1999/xlink" version="1.1" width="576" height="396" viewBox="0 0 576 396">
<!-- Generated by Kreative Vexillo v1.0 -->
<style>
.blue{fill:rgb(51,0,170);}
.silver{fill:rgb(221,221,221);}
</style>
<defs>
<linearGradient id="glaze" x1="0%" y1="0%" x2="100%" y2="100%">
<stop offset="0%" stop-color="rgb(255,255,255)" stop-opacity="0.2"/>
<stop offset="49.999%" stop-color="rgb(255,255,255)" stop-opacity="0.0"/>
<stop offset="50.001%" stop-color="rgb(0,0,0)" stop-opacity="0.0"/>
<stop offset="100%" stop-color="rgb(0,0,0)" stop-opacity="0.2"/>
</linearGradient>
</defs>
<g>
<rect x="0" y="0" width="576" height="396" class="blue"/>
<path d="M 59.4 158.4 L 59.4 356.4 L 99 356.4 L 99 158.4 L 59.4 158.4 Z" class="silver"/>
<path d="M 164.1993 144.3993 L 65.1993 243.3993 L 93.2007 271.4007 L 192.2007 172.4007 L 164.1993 144.3993 Z" class="silver"/>
<path d="M 79.2 277.2 L 257.4 277.2 L 257.4 237.6 L 79.2 237.6 L 79.2 277.2 Z" class="silver"/>
<path d="M 158.4 257.4 L 158.4 396 L 198 396 L 198 257.4 L 158.4 257.4 Z" class="silver"/>
</g>
<g>
<rect x="0" y="0" width="576" height="396" fill="url(#glaze)"/>
<path d="M 36 36 L 540 36 L 540 360 L 36 360 Z M 72 72 L 72 324 L 504 324 L 504 72 Z" fill="rgb(255,255,255)" opacity="0.4"/>
<path d="M 0 0 L 576 0 L 576 396 L 0 396 Z M 36 36 L 36 360 L 540 360 L 540 36 Z" fill="rgb(0,0,0)" opacity="0.4"/>
</g>
</svg>
