<?xml version="1.0"?>
<svg xmlns="http://www.w3.org/2000/svg" xmlns:xlink="http://www.w3.org/1999/xlink" version="1.1" width="576" height="396" viewBox="0 0 576 396">
<!-- Generated by Kreative Vexillo v1.0 -->
<style>
.a{fill:rgb(228,41,97);}
.b{fill:rgb(238,170,211);}
.c{fill:rgb(181,75,152);}
.d{fill:rgb(145,4,157);}
.e{fill:rgb(237,0,254);}
</style>
<defs>
<path id="emblem" d="M 0.33 0.2206 C 0.35410002 0.2206 0.3772 0.2252 0.3969 0.233 C 0.4324 0.2471 0.4624 0.2751 0.4853 0.3065 C 0.48770002 0.2882 0.4823 0.26569998 0.501 0.2566 C 0.5057 0.2543 0.50979996 0.25329998 0.5133 0.25329998 C 0.5394 0.25329998 0.5345 0.3101 0.5295 0.32299998 C 0.5436 0.31969997 0.56 0.31519997 0.5741 0.31519997 C 0.5873 0.31519997 0.5985 0.31919998 0.6036 0.33189997 C 0.60830003 0.34329998 0.60260004 0.35569996 0.5932 0.36159998 C 0.5819 0.36879998 0.56990004 0.3708 0.558 0.3708 C 0.5424 0.3708 0.5271 0.3672 0.51430005 0.3672 C 0.5123001 0.3672 0.51040006 0.36729997 0.50860006 0.36749998 C 0.54060006 0.42819998 0.5048001 0.46959996 0.49220005 0.5151 C 0.5159001 0.4893 0.53470004 0.4616 0.5738 0.4504 C 0.62240005 0.4364 0.70320004 0.4562 0.7076 0.3959 C 0.7501 0.40550002 0.7973 0.4207 0.8365 0.4364 C 0.8415 0.4384 0.8495 0.4386 0.8502 0.4443 C 0.8275 0.46649998 0.8072 0.4835 0.7763 0.4984 C 0.7474 0.5123 0.72080004 0.5164 0.6952 0.5164 C 0.66040003 0.5164 0.62770003 0.5089 0.59370005 0.5089 C 0.56390005 0.5089 0.53310007 0.5146 0.49930006 0.5362 C 0.51170003 0.55329996 0.53050005 0.5552 0.55020005 0.5552 C 0.5562 0.5552 0.56220007 0.555 0.56820005 0.555 C 0.5845001 0.555 0.6003001 0.5564 0.61230004 0.5667 C 0.6273 0.5487 0.65010005 0.5397 0.67120004 0.5397 C 0.684 0.5397 0.6962 0.543 0.70580006 0.54959995 C 0.7207001 0.55999994 0.72980005 0.57719994 0.7473 0.58519995 C 0.75310004 0.58779997 0.7591 0.5889999 0.7652 0.5889999 C 0.7932 0.5889999 0.82310003 0.5648999 0.8355 0.54779994 C 0.8321 0.59589994 0.8104 0.65089995 0.7542 0.66489995 C 0.7489 0.6661999 0.7435 0.66679996 0.7382 0.66679996 C 0.71140003 0.66679996 0.6853 0.65129995 0.6707 0.63289994 C 0.6582 0.6172999 0.6485 0.5863999 0.6296 0.5863999 C 0.6281 0.5863999 0.62659997 0.5865999 0.625 0.5869999 C 0.6371 0.6112999 0.6291 0.6270999 0.6261 0.64499986 C 0.6268 0.6450999 0.6275 0.6450999 0.6282 0.6450999 C 0.6353 0.6450999 0.6436 0.6421999 0.6513 0.64069986 C 0.67010003 0.6727999 0.68090004 0.71899986 0.69350004 0.75549984 C 0.6804 0.7657998 0.66380006 0.77089983 0.6492 0.77089983 C 0.6409 0.77089983 0.6333 0.7692998 0.6273 0.76599985 C 0.6312 0.73569983 0.6376 0.70639986 0.6308 0.67159986 C 0.6195 0.6716999 0.6041 0.67359984 0.5928 0.67359984 C 0.5892 0.67359984 0.5859 0.67339987 0.5834 0.67289984 C 0.58860004 0.6798999 0.5973 0.67869985 0.6023 0.68619984 C 0.59709996 0.71739984 0.59099996 0.7481998 0.5846 0.77889985 C 0.5801 0.77929986 0.5757 0.7793999 0.5714 0.7793999 C 0.5608 0.7793999 0.55039996 0.77859986 0.5398 0.77859986 C 0.5349 0.77859986 0.5299 0.77879983 0.5248 0.77929986 C 0.5271 0.76779985 0.5341 0.75309986 0.5405 0.73689985 C 0.5459 0.72329986 0.5574 0.7028999 0.5521 0.69169986 C 0.5459 0.67879987 0.527 0.6835999 0.519 0.6691999 C 0.5159 0.6694999 0.5129 0.6695999 0.5099 0.6695999 C 0.49189997 0.6695999 0.47609997 0.66439986 0.46069998 0.6583999 C 0.42829996 0.6766999 0.41779998 0.70429987 0.41369998 0.7344999 C 0.3983 0.71459985 0.37069997 0.7101999 0.35619998 0.69639987 C 0.3613 0.66799986 0.38879997 0.64899987 0.41429996 0.62919986 C 0.40909997 0.62509984 0.40289995 0.62339985 0.39609995 0.62339985 C 0.37159994 0.62339985 0.33879995 0.64489985 0.31389996 0.65509987 C 0.30499998 0.6331999 0.29069996 0.6105999 0.28459996 0.5904999 C 0.30789995 0.5844999 0.33179995 0.5818999 0.35349995 0.5818999 C 0.36809996 0.5818999 0.38169995 0.5830999 0.39339995 0.5851999 C 0.38849995 0.5628999 0.39209995 0.5384999 0.39509997 0.5229999 C 0.38079998 0.52829987 0.36769998 0.5308999 0.35559997 0.5308999 C 0.34239995 0.5308999 0.33049998 0.52789986 0.31979996 0.52219987 C 0.32469997 0.5067999 0.33099997 0.48639986 0.31659997 0.46649987 C 0.30369997 0.48139986 0.27949998 0.49219987 0.25839996 0.49219987 C 0.25039998 0.49219987 0.24279997 0.49059987 0.23649997 0.48709986 C 0.20399997 0.46879986 0.22219996 0.42769986 0.24749997 0.42769986 C 0.251 0.42769986 0.25459996 0.42849988 0.25829998 0.43019986 C 0.24139997 0.39179987 0.25069997 0.35879987 0.2618 0.33579987 C 0.24059999 0.34229988 0.22259998 0.34859988 0.20019999 0.35039988 C 0.197 0.35069987 0.19319999 0.35089988 0.1891 0.35089988 C 0.1737 0.35089988 0.1545 0.3480999 0.1503 0.3347999 C 0.1414 0.3064999 0.227 0.26649988 0.257 0.26649988 C 0.2574 0.26649988 0.2578 0.26649988 0.2582 0.26649988 C 0.25849998 0.26649988 0.2588 0.26649988 0.2591 0.26649988 C 0.2588 0.26649988 0.25849998 0.26649988 0.25829998 0.26649988 C 0.24959998 0.26599988 0.24129997 0.26429987 0.23639998 0.25479987 C 0.24049997 0.24519987 0.25149998 0.23829988 0.26229998 0.23369987 C 0.2841 0.2246 0.3074 0.2206 0.33 0.2206 Z"/>
<path id="outline" d="M 0.33 0.1651 C 0.2985 0.1651 0.2685 0.17099999 0.2407 0.1827 C 0.2149 0.1935 0.19680001 0.2092 0.187 0.22919999 C 0.18450001 0.2303 0.1823 0.2313 0.18020001 0.23229998 C 0.158 0.24269998 0.1279 0.2602 0.11030001 0.28419998 C 0.08950001 0.31249997 0.093300015 0.3385 0.09730001 0.35149997 C 0.10230001 0.3674 0.12030001 0.40359998 0.18130001 0.40639997 C 0.17440002 0.41569996 0.16920002 0.42629996 0.16630001 0.43759996 C 0.1615 0.45579997 0.16270001 0.47449994 0.16960001 0.49159995 C 0.1771 0.51009995 0.19080001 0.5253999 0.20930001 0.5357999 C 0.2213 0.5425999 0.23480001 0.5465999 0.2495 0.5476999 C 0.2441 0.55209994 0.2396 0.5573999 0.2362 0.56359994 C 0.2288 0.5767999 0.2271 0.5925 0.2315 0.60699993 C 0.2364 0.6230999 0.2439 0.63799995 0.2511 0.65239996 C 0.2554 0.66099995 0.2595 0.6690999 0.2624 0.6762999 C 0.2679 0.68999994 0.2787 0.70089996 0.2923 0.70659995 C 0.29549998 0.70799994 0.2988 0.70899993 0.3022 0.7096999 C 0.3047 0.71989995 0.31 0.7293999 0.3179 0.7368999 C 0.3303 0.7486999 0.34420002 0.7554999 0.3554 0.7609999 C 0.3604 0.7633999 0.36789998 0.7670999 0.37 0.7690999 C 0.3807 0.7826999 0.3969 0.7903999 0.4137 0.7903999 C 0.4185 0.7903999 0.4234 0.7897999 0.42810002 0.7884999 C 0.44970003 0.7826999 0.46570003 0.7644999 0.46870002 0.7422999 C 0.47000003 0.7329999 0.4717 0.72629994 0.47410002 0.7212999 C 0.47800002 0.72219986 0.48200002 0.7229999 0.48610002 0.7235999 C 0.4855 0.7248999 0.485 0.7262999 0.4844 0.7275999 C 0.4786 0.7414999 0.4732 0.7545999 0.47030002 0.7685999 C 0.4668 0.7857999 0.4717 0.8036999 0.4835 0.81679994 C 0.4941 0.8284999 0.5091 0.83519995 0.5248 0.83519995 C 0.5266 0.83519995 0.5283 0.83509994 0.5301 0.83489996 C 0.533 0.8346 0.5361 0.83449996 0.5398 0.83449996 C 0.5441 0.83449996 0.5487 0.8346999 0.5535 0.83489996 C 0.5592 0.83509994 0.565 0.83529997 0.5714 0.83529997 C 0.57769996 0.83529997 0.58349997 0.8351 0.5891 0.8346 C 0.60040003 0.8337 0.6108 0.82939994 0.6192 0.82269996 C 0.6286 0.82539994 0.6387 0.8268 0.64919996 0.8268 C 0.67719996 0.8268 0.70579994 0.8169 0.72789997 0.7996 C 0.74649996 0.785 0.7538 0.7601 0.74609995 0.7377 C 0.7444999 0.733 0.74279994 0.72789997 0.7412 0.7227 C 0.7502 0.7225 0.75909996 0.7213 0.76759994 0.7192 C 0.8076999 0.7092 0.8403999 0.6846 0.8622999 0.6481 C 0.8826999 0.6139 0.8890999 0.57710004 0.8908999 0.5522 C 0.8922999 0.53290004 0.8834999 0.5147 0.8685999 0.5036 C 0.8754999 0.4975 0.8822999 0.4912 0.8891999 0.4845 C 0.9014999 0.4725 0.9075999 0.4554 0.9055999 0.4382 C 0.90329987 0.4185 0.89179987 0.4016 0.87419987 0.3917 C 0.86649984 0.3874 0.85939986 0.3855 0.85539985 0.3844 C 0.81149983 0.367 0.76229984 0.35160002 0.71989983 0.34210002 C 0.7158998 0.34120002 0.71179986 0.34070003 0.70769984 0.34070003 C 0.69589984 0.34070003 0.6841998 0.34450004 0.6745998 0.35170004 C 0.66349983 0.35990003 0.65599984 0.37190002 0.6532998 0.38520002 C 0.65129983 0.38560003 0.6489998 0.38600004 0.6464998 0.38630003 C 0.6614998 0.36460003 0.6653998 0.33650002 0.6550998 0.31120002 C 0.6475998 0.2928 0.63439983 0.27830002 0.6170998 0.26950002 C 0.6075998 0.26470003 0.59709984 0.2617 0.5856998 0.2605 C 0.5828998 0.24870001 0.5784998 0.23830001 0.5724998 0.22950001 C 0.5587998 0.20950001 0.5372998 0.19800001 0.5134998 0.19800001 C 0.5134998 0.19800001 0.5134998 0.19800001 0.5134998 0.19800001 C 0.5013998 0.19800001 0.48899978 0.20100002 0.4767998 0.20690002 C 0.47419977 0.20820002 0.47169977 0.20960002 0.4692998 0.21100001 C 0.4527998 0.19860001 0.4354998 0.1887 0.4175998 0.1816 C 0.3905 0.1707 0.3603 0.1651 0.33 0.1651 L 0.33 0.1651 Z"/>
<linearGradient id="glaze" x1="0%" y1="0%" x2="100%" y2="100%">
<stop offset="0%" stop-color="rgb(255,255,255)" stop-opacity="0.2"/>
<stop offset="49.999%" stop-color="rgb(255,255,255)" stop-opacity="0.0"/>
<stop offset="50.001%" stop-color="rgb(0,0,0)" stop-opacity="0.0"/>
<stop offset="100%" stop-color="rgb(0,0,0)" stop-opacity="0.2"/>
</linearGradient>
</defs>
<g>
<g>
<rect x="0" y="0" width="192" height="396" class="a"/>
<rect x="192" y="0" width="192" height="396" class="b"/>
<rect x="384" y="0" width="192" height="396" class="c"/>
</g>
<use xlink:href="#outline" transform="translate(146.2291 62.64) scale(270.72 270.72) rotate(0)" class="d"/>
<use xlink:href="#emblem" transform="translate(146.2291 62.64) scale(270.72 270.72) rotate(0)" class="e"/>
</g>
<g>
<rect x="0" y="0" width="576" height="396" fill="url(#glaze)"/>
<path d="M 36 36 L 540 36 L 540 360 L 36 360 Z M 72 72 L 72 324 L 504 324 L 504 72 Z" fill="rgb(255,255,255)" opacity="0.4"/>
<path d="M 0 0 L 576 0 L 576 396 L 0 396 Z M 36 36 L 36 360 L 540 360 L 540 36 Z" fill="rgb(0,0,0)" opacity="0.4"/>
</g>
</svg>
