<?xml version="1.0"?>
<svg xmlns="http://www.w3.org/2000/svg" xmlns:xlink="http://www.w3.org/1999/xlink" version="1.1" width="576" height="396" viewBox="0 0 576 396">
<!-- Generated by Kreative Vexillo v1.0 -->
<style>
.red{fill:rgb(165,0,33);}
.white{fill:rgb(255,255,255);}
</style>
<defs>
<path id="e" d="M 0.0191 0.4815 C 0.0191 0.4701 0.0201 0.46920002 0.031 0.4714 C 0.0391 0.473 0.0447 0.4716 0.0486 0.4669 C 0.0535 0.461 0.0529 0.45859998 0.0449 0.4501 L 0.0355 0.4401 L 0.074200004 0.3628 C 0.09550001 0.3203 0.112100005 0.2847 0.1111 0.2837 C 0.1101 0.2827 0.0916 0.28649998 0.07000001 0.29209998 L 0.0306 0.3023 L 0.0022 0.3521 L 0.0022 0.4276 C 0.0021 0.5017 0.0023 0.503 0.0106 0.4985 C 0.0162 0.4956 0.0191 0.4896 0.0191 0.4815 L 0.0191 0.4815 Z M -0.0064 0.4221 V 0.3457 L -0.0195 0.3224 C -0.0291 0.3055 -0.035099998 0.2991 -0.0418 0.2991 C -0.0468 0.2991 -0.0643 0.2953 -0.0806 0.2906 C -0.0969 0.2859 -0.1113 0.2821 -0.1126 0.2821 S -0.0973 0.3172 -0.0757 0.35999998 L -0.0364 0.43789998 L -0.0467 0.44759998 C -0.055 0.4554 -0.0561 0.4588 -0.052500002 0.46559998 C -0.0491 0.47199997 -0.0452 0.4734 -0.0357 0.47149998 C -0.0244 0.4692 -0.023400001 0.46999997 -0.023400001 0.48129997 C -0.023400001 0.49219996 -0.0194 0.49719995 -0.009600001 0.49819997 C -0.0078 0.4984 -0.0064 0.4641 -0.0064 0.4221 L -0.0064 0.4221 Z M -0.2864 0.351 V 0.335 L -0.12019999 0.2798 L -0.1573 0.2577 L -0.1944 0.2356 L -0.2179 0.2417 C -0.23949999 0.2473 -0.24579999 0.2522 -0.2965 0.303 C -0.341 0.3474 -0.3503 0.3587 -0.3443 0.361 C -0.3396 0.3628 -0.3334 0.3606 -0.3272 0.35480002 L -0.3175 0.34570003 L -0.3126 0.3564 C -0.30929998 0.3637 -0.30429998 0.3671 -0.297 0.3671 C -0.2875 0.367 -0.2864 0.3653 -0.2864 0.351 Z M 0.3098 0.3582 C 0.3124 0.3499 0.313 0.34980002 0.3205 0.35660002 C 0.32599998 0.3616 0.3319 0.36290002 0.3399 0.3609 C 0.3511 0.35810003 0.34989998 0.35650003 0.297 0.30350003 C 0.2448 0.2511 0.2416 0.2486 0.2163 0.2423 L 0.19 0.23570001 L 0.1159 0.2798 L 0.2821 0.335 V 0.351 C 0.2821 0.3659 0.283 0.367 0.2945 0.367 C 0.3035 0.367 0.3078 0.3645 0.3098 0.3582 L 0.3098 0.3582 Z M -0.2424 0.2169 C -0.2369 0.19500001 -0.2368 0.19010001 -0.24170001 0.18470001 C -0.2449 0.18120001 -0.2551 0.16520001 -0.2644 0.14930001 L -0.2813 0.12040001 L -0.30810001 0.20130001 L -0.33490002 0.2822 H -0.34780002 C -0.3582 0.2822 -0.36170003 0.28460002 -0.36540002 0.2946 C -0.36980003 0.3061 -0.36920002 0.30740002 -0.35790002 0.31210002 L -0.34570003 0.31710002 L -0.35620004 0.32540002 C -0.36500004 0.33240002 -0.36600003 0.33510002 -0.36210003 0.3424 C -0.35780004 0.35050002 -0.35350004 0.3472 -0.30310005 0.2969 C -0.2514 0.2452 -0.2486 0.2415 -0.2424 0.2169 L -0.2424 0.2169 Z M 0.3628 0.3398 C 0.3628 0.3368 0.3589 0.3308 0.3541 0.3265 L 0.34539998 0.3186 L 0.35619998 0.3129 C 0.36749998 0.307 0.36869997 0.3041 0.36439997 0.293 C 0.36279997 0.2888 0.35669997 0.2863 0.34839997 0.2863 H 0.33489996 L 0.30759996 0.2036 C 0.29259998 0.15810001 0.27929997 0.12100001 0.27799997 0.1211 C 0.27679998 0.1212 0.26659995 0.13690001 0.25549996 0.1559 L 0.23519996 0.1905 L 0.24029996 0.214 C 0.24509996 0.2361 0.24849996 0.2407 0.30049995 0.2935 C 0.3518 0.3457 0.3628 0.3539 0.3628 0.3398 L 0.3628 0.3398 Z M -0.2945 0.0775 C -0.2993 0.0602 -0.3033 0.0419 -0.3033 0.0369 C -0.3033 0.0299 -0.3094 0.0246 -0.3286 0.014899999 C -0.3539 0.0020999992 -0.354 0.0020999992 -0.4285 0.0020999992 C -0.5017 0.0020999992 -0.5029 0.0022999991 -0.4985 0.0106 C -0.4955 0.016199999 -0.4896 0.0191 -0.48139998 0.0191 C -0.4678 0.0191 -0.4667 0.021399999 -0.47289997 0.037699997 C -0.47869998 0.052999996 -0.46359998 0.0576 -0.44989997 0.044699997 L -0.44019997 0.035499997 L -0.36439997 0.07349999 C -0.32269996 0.09439999 -0.288 0.11089999 -0.28719997 0.11019999 C -0.2864 0.1095 -0.2897 0.0948 -0.2945 0.0775 L -0.2945 0.0775 Z M 0.4456 0.0447 C 0.45250002 0.0511 0.4581 0.053 0.4646 0.0509 C 0.4725 0.0484 0.4734 0.045900002 0.4711 0.0335 C 0.4685 0.019700002 0.4689 0.019100001 0.4812 0.019100001 C 0.4896 0.019100001 0.4955 0.0162 0.49850002 0.010600001 C 0.503 0.0023000007 0.50170004 0.0021000002 0.42600003 0.0021000002 H 0.349 L 0.32410002 0.0158 C 0.30640003 0.0255 0.29920003 0.031999998 0.29920003 0.038099997 C 0.29920003 0.042799998 0.29540002 0.059999995 0.29070002 0.0764 C 0.286 0.0927 0.2822 0.107499994 0.2822 0.1093 C 0.2822 0.1111 0.3168 0.0952 0.3591 0.074 L 0.43600002 0.0355 L 0.4456 0.0447 Z M -0.3244 -0.0171 C -0.3069 -0.026 -0.30330002 -0.0297 -0.30330002 -0.0394 C -0.30330002 -0.0458 -0.29950002 -0.0644 -0.2948 -0.080699995 C -0.2901 -0.096999995 -0.2863 -0.1109 -0.2863 -0.111499995 S -0.3209 -0.0953 -0.3632 -0.074099995 L -0.4401 -0.035599995 L -0.4498 -0.044699997 C -0.458 -0.052399997 -0.4607 -0.052999996 -0.46800002 -0.048399996 C -0.47470003 -0.044199996 -0.47580004 -0.040999997 -0.47280002 -0.033199996 C -0.46940002 -0.024299996 -0.4702 -0.023399996 -0.4817 -0.023399996 C -0.48860002 -0.023399996 -0.4943 -0.022599995 -0.4943 -0.021599995 C -0.4943 -0.020599995 -0.4955 -0.016799994 -0.49690002 -0.0130999945 C -0.49920002 -0.0070999945 -0.4909 -0.0063999947 -0.4225 -0.0063999947 C -0.3486 -0.0064 -0.3446 -0.0068 -0.3244 -0.0171 L -0.3244 -0.0171 Z M 0.4985 -0.0098 C 0.4985 -0.0163 0.48819998 -0.023400001 0.4788 -0.023400001 C 0.4712 -0.023400001 0.4695 -0.025600001 0.4701 -0.034500003 C 0.47129998 -0.051700003 0.45889997 -0.0573 0.4461 -0.045300003 L 0.4358 -0.035600003 L 0.35889998 -0.0741 C 0.31659997 -0.095300004 0.28199998 -0.112100005 0.28199998 -0.1115 C 0.28199998 -0.1109 0.28579998 -0.097100005 0.2905 -0.0807 S 0.299 -0.046200003 0.299 -0.040400002 C 0.299 -0.0322 0.30359998 -0.027200002 0.31919998 -0.018200003 C 0.33909997 -0.0068000024 0.34019998 -0.0067000026 0.41889998 -0.006500003 C 0.4627 -0.0064 0.4985 -0.0079 0.4985 -0.0098 L 0.4985 -0.0098 Z M 0.3489 -0.2864 C 0.3599 -0.2864 0.3628 -0.2881 0.3628 -0.2947 C 0.3628 -0.2993 0.3588 -0.3052 0.35390002 -0.3078 L 0.34500003 -0.3126 L 0.35460004 -0.32279998 C 0.36190003 -0.3306 0.36330006 -0.33499998 0.36030003 -0.34159997 C 0.35680002 -0.34939998 0.35100004 -0.34479997 0.30220002 -0.29579997 C 0.2524 -0.24589998 0.24740002 -0.23939997 0.24180001 -0.21789998 L 0.2356 -0.1944 L 0.2577 -0.1573 L 0.2798 -0.12019999 L 0.3074 -0.2033 L 0.33499998 -0.2864 H 0.3489 Z M -0.2402 -0.1906 C -0.238 -0.19199999 -0.239 -0.20359999 -0.2426 -0.21779999 C -0.24849999 -0.24119999 -0.252 -0.24579999 -0.3035 -0.2972 C -0.3562 -0.3498 -0.3583 -0.3513 -0.3622 -0.3413 C -0.3656 -0.3327 -0.3646 -0.32930002 -0.35619998 -0.32180002 L -0.34609997 -0.31270003 L -0.35849997 -0.30760002 C -0.36869997 -0.3034 -0.37009996 -0.30110002 -0.36669996 -0.29470003 C -0.36429995 -0.2903 -0.35679996 -0.28640002 -0.34909996 -0.28560004 C -0.33569998 -0.28430003 -0.33569998 -0.28430003 -0.31089997 -0.21000004 C -0.29729998 -0.16920003 -0.28509998 -0.13300005 -0.28389996 -0.12970003 C -0.28249997 -0.12600003 -0.27439997 -0.13600004 -0.26269996 -0.15590003 C -0.2526 -0.1737 -0.2424 -0.1893 -0.2402 -0.1906 Z M -0.1909 -0.2398 C -0.1894 -0.2422 -0.1739 -0.2525 -0.1564 -0.26270002 L -0.12459999 -0.2813 L -0.2864 -0.335 V -0.34890002 C -0.2864 -0.36080003 -0.2879 -0.36280003 -0.2969 -0.36280003 C -0.3032 -0.36280003 -0.3093 -0.35920003 -0.3121 -0.35400003 C -0.3165 -0.34570003 -0.3173 -0.34560004 -0.32459998 -0.35220003 C -0.32889998 -0.35610002 -0.33639997 -0.35860002 -0.34139997 -0.35790002 C -0.34879997 -0.35670003 -0.34079996 -0.34700003 -0.29579997 -0.30220002 C -0.2484 -0.2549 -0.2385 -0.247 -0.2203 -0.242 C -0.1937 -0.2347 -0.194 -0.2347 -0.1909 -0.2398 L -0.1909 -0.2398 Z M 0.2232 -0.2441 C 0.2401 -0.2482 0.2501 -0.2563 0.2974 -0.3037 C 0.3481 -0.3545 0.35119998 -0.3585 0.3398 -0.3585 C 0.333 -0.3585 0.3241 -0.3555 0.3201 -0.3518 C 0.3133 -0.3457 0.3125 -0.3459 0.30990002 -0.3539 C 0.3079 -0.3602 0.30350003 -0.3627 0.29470003 -0.3627 C 0.28350002 -0.3627 0.28230003 -0.3613 0.28230003 -0.34879997 V -0.33489996 L 0.1204 -0.2813 L 0.1522 -0.26270002 C 0.1697 -0.25250003 0.1853 -0.24210002 0.1868 -0.23960002 C 0.1883 -0.23710002 0.1928 -0.23610002 0.1966 -0.23720002 C 0.2005 -0.2384 0.2124 -0.2415 0.2232 -0.2441 L 0.2232 -0.2441 Z M -0.0806 -0.2949 C -0.0643 -0.2996 -0.045900002 -0.3034 -0.0396 -0.3034 C -0.0307 -0.3034 -0.026 -0.30740002 -0.0173 -0.3222 C -0.0065 -0.3406 -0.0063000005 -0.3426 -0.0063000005 -0.4202 C -0.0063000005 -0.4907 -0.007 -0.4992 -0.013 -0.4969 C -0.0167 -0.4955 -0.0205 -0.49429998 -0.0215 -0.49429998 C -0.0225 -0.49429998 -0.023300001 -0.4886 -0.023300001 -0.48169997 C -0.023300001 -0.4701 -0.024300002 -0.46929997 -0.0352 -0.47149998 C -0.0448 -0.47339997 -0.048 -0.47199997 -0.0516 -0.46389997 C -0.055400003 -0.45549998 -0.0546 -0.45279998 -0.0461 -0.44639996 L -0.0361 -0.43889996 L -0.0743 -0.36269996 C -0.0953 -0.32079995 -0.112 -0.28649995 -0.11139999 -0.28649995 C -0.1108 -0.2864 -0.0969 -0.2902 -0.0806 -0.2949 L -0.0806 -0.2949 Z M 0.1082 -0.2886 C 0.1082 -0.2898 0.0918 -0.3234 0.071899995 -0.3633 L 0.0355 -0.4359 L 0.044600002 -0.4456 C 0.052300002 -0.4538 0.0529 -0.4568 0.0487 -0.4646 C 0.0447 -0.472 0.0412 -0.4734 0.031400003 -0.4715 C 0.020000003 -0.46920002 0.019100003 -0.47 0.019100003 -0.4815 C 0.019100003 -0.4896 0.016100002 -0.4956 0.0106000025 -0.4985 C 0.0023000026 -0.50299996 0.002100002 -0.5017 0.0022000028 -0.42549998 L 0.0022000028 -0.34789997 L 0.015000002 -0.32559997 C 0.024400003 -0.30919996 0.030300003 -0.30329996 0.037200004 -0.30329996 C 0.042400002 -0.30329996 0.059100002 -0.29959998 0.074200004 -0.29509997 C 0.1051 -0.2861 0.1082 -0.2855 0.1082 -0.2886 L 0.1082 -0.2886 Z"/>
<linearGradient id="glaze" x1="0%" y1="0%" x2="100%" y2="100%">
<stop offset="0%" stop-color="rgb(255,255,255)" stop-opacity="0.2"/>
<stop offset="49.999%" stop-color="rgb(255,255,255)" stop-opacity="0.0"/>
<stop offset="50.001%" stop-color="rgb(0,0,0)" stop-opacity="0.0"/>
<stop offset="100%" stop-color="rgb(0,0,0)" stop-opacity="0.2"/>
</linearGradient>
</defs>
<g>
<rect x="0" y="0" width="576" height="396" class="red"/>
<use xlink:href="#e" transform="translate(288 198) scale(316.8 316.8) rotate(0)" class="white"/>
</g>
<g>
<rect x="0" y="0" width="576" height="396" fill="url(#glaze)"/>
<path d="M 36 36 L 540 36 L 540 360 L 36 360 Z M 72 72 L 72 324 L 504 324 L 504 72 Z" fill="rgb(255,255,255)" opacity="0.4"/>
<path d="M 0 0 L 576 0 L 576 396 L 0 396 Z M 36 36 L 36 360 L 540 360 L 540 36 Z" fill="rgb(0,0,0)" opacity="0.4"/>
</g>
</svg>
