<?xml version="1.0"?>
<svg xmlns="http://www.w3.org/2000/svg" xmlns:xlink="http://www.w3.org/1999/xlink" version="1.1" width="576" height="396" viewBox="0 0 576 396">
<!-- Generated by Kreative Vexillo v1.0 -->
<style>
.blue{fill:rgb(0,0,255);}
.white{fill:rgb(255,255,255);}
</style>
<defs>
<linearGradient id="glaze" x1="0%" y1="0%" x2="100%" y2="100%">
<stop offset="0%" stop-color="rgb(255,255,255)" stop-opacity="0.2"/>
<stop offset="49.999%" stop-color="rgb(255,255,255)" stop-opacity="0.0"/>
<stop offset="50.001%" stop-color="rgb(0,0,0)" stop-opacity="0.0"/>
<stop offset="100%" stop-color="rgb(0,0,0)" stop-opacity="0.2"/>
</linearGradient>
</defs>
<g>
<rect x="90" y="0" width="396" height="396" class="white"/>
<path d="M 203.1429 0 L 316.2857 0 L 90 226.2857 L 90 113.1429 Z" class="blue"/>
<path d="M 429.4286 0 L 486 0 L 486 56.5714 L 146.5714 396 L 90 396 L 90 339.4286 Z" class="blue"/>
<path d="M 486 169.7143 L 486 282.8571 L 372.8571 396 L 259.7143 396 Z" class="blue"/>
</g>
<g>
<rect x="90" y="0" width="396" height="396" fill="url(#glaze)"/>
<path d="M 126 36 L 450 36 L 450 360 L 126 360 Z M 162 72 L 162 324 L 414 324 L 414 72 Z" fill="rgb(255,255,255)" opacity="0.4"/>
<path d="M 90 0 L 486 0 L 486 396 L 90 396 Z M 126 36 L 126 360 L 450 360 L 450 36 Z" fill="rgb(0,0,0)" opacity="0.4"/>
</g>
</svg>
