<?xml version="1.0"?>
<svg xmlns="http://www.w3.org/2000/svg" xmlns:xlink="http://www.w3.org/1999/xlink" version="1.1" width="576" height="396" viewBox="0 0 576 396">
<!-- Generated by Kreative Vexillo v1.0 -->
<style>
.blue{fill:rgb(0,103,177);}
.yellow{fill:rgb(255,196,37);}
</style>
<defs>
<path id="halyard" d="M 0.2785 -0.1794 C 0.1551 -0.1794 0.0853 -0.0831 0.0853 0.0 C 0.0853 0.0831 0.1551 0.1794 0.2785 0.1794 C 0.3377 0.1794 0.3968 0.1569 0.4551 0.1267 C 0.4329 0.1178 0.4121 0.1109 0.391 0.1072 C 0.3513 0.1241 0.3133 0.1349 0.2785 0.1349 C 0.178 0.1349 0.1297 0.0584 0.1297 0.0 C 0.1297 -0.0584 0.178 -0.1349 0.2785 -0.1349 C 0.3133 -0.1349 0.3512 -0.1241 0.3908 -0.1072 C 0.412 -0.1109 0.4329 -0.1179 0.4551 -0.1267 C 0.3968 -0.157 0.3377 -0.1794 0.2785 -0.1794 Z M 0.7215 -0.1794 C 0.6312 -0.1794 0.5655 -0.155 0.5103 -0.1317 C 0.455 -0.1085 0.4107 -0.0875 0.3575 -0.0875 L 0.1969 -0.0875 C 0.1806 -0.0751 0.169 -0.0593 0.1617 -0.0431 L 0.3575 -0.0431 C 0.4222 -0.0431 0.4735 -0.068 0.5275 -0.0908 C 0.5815 -0.1135 0.6391 -0.1349 0.7215 -0.1349 C 0.822 -0.1349 0.8703 -0.0584 0.8703 0.0 C 0.8703 0.0085 0.8691 0.0174 0.8671 0.0263 L 0.9124 0.0263 C 0.9139 0.0175 0.9147 0.0087 0.9147 0.0 C 0.9147 -0.0831 0.8449 -0.1794 0.7215 -0.1794 Z M 0.0 -0.0875 L 0.0 -0.0431 L 0.0683 -0.0431 C 0.072 -0.0582 0.0776 -0.0732 0.085 -0.0875 L 0.0 -0.0875 Z M 0.9088 -0.0875 C 0.9164 -0.0732 0.922 -0.0582 0.9258 -0.0431 L 1.0 -0.0431 L 1.0 -0.0875 L 0.9088 -0.0875 Z M 0.8119 -0.0874 C 0.7216 -0.0853 0.6305 -0.0277 0.5397 0.0269 C 0.5229 0.037 0.5061 0.0469 0.4894 0.0565 C 0.5045 0.0627 0.5193 0.0692 0.534 0.0753 C 0.5362 0.0763 0.5385 0.0772 0.5407 0.0781 C 0.548 0.0738 0.5552 0.0694 0.5625 0.065 C 0.6551 0.0094 0.7452 -0.0431 0.8171 -0.0431 L 0.8443 -0.0431 C 0.8375 -0.059 0.8268 -0.0746 0.8119 -0.0874 Z M 0.5406 -0.0781 C 0.5384 -0.0772 0.5362 -0.0763 0.534 -0.0754 C 0.5193 -0.0692 0.5045 -0.0628 0.4894 -0.0566 C 0.5061 -0.047 0.5229 -0.037 0.5397 -0.0269 C 0.5475 -0.0223 0.5551 -0.0177 0.5629 -0.0131 C 0.5774 -0.0218 0.592 -0.0304 0.6067 -0.0388 C 0.5921 -0.0473 0.5773 -0.0561 0.5625 -0.065 C 0.5552 -0.0694 0.5479 -0.0737 0.5406 -0.0781 Z M 0.7038 0.0124 C 0.6874 0.0201 0.6704 0.0289 0.6531 0.0383 C 0.7078 0.0667 0.7627 0.0874 0.8171 0.0874 L 1.0 0.0874 L 1.0 0.043 L 0.8171 0.043 C 0.7829 0.043 0.7445 0.0309 0.7038 0.0124 Z M 0.0 0.043 L 0.0 0.0874 L 0.085 0.0874 C 0.0776 0.0731 0.072 0.0581 0.0683 0.043 L 0.0 0.043 Z M 0.1617 0.043 C 0.169 0.0592 0.1806 0.075 0.1969 0.0874 L 0.3575 0.0874 C 0.4107 0.0874 0.455 0.1084 0.5103 0.1317 C 0.5655 0.1549 0.6312 0.1794 0.7215 0.1794 C 0.7928 0.1794 0.8461 0.1473 0.8785 0.1041 L 0.8175 0.1041 C 0.7937 0.1226 0.7619 0.1349 0.7215 0.1349 C 0.6391 0.1349 0.5815 0.1134 0.5275 0.0907 C 0.4735 0.068 0.4222 0.043 0.3575 0.043 L 0.1617 0.043 Z"/>
<linearGradient id="glaze" x1="0%" y1="0%" x2="100%" y2="100%">
<stop offset="0%" stop-color="rgb(255,255,255)" stop-opacity="0.2"/>
<stop offset="49.999%" stop-color="rgb(255,255,255)" stop-opacity="0.0"/>
<stop offset="50.001%" stop-color="rgb(0,0,0)" stop-opacity="0.0"/>
<stop offset="100%" stop-color="rgb(0,0,0)" stop-opacity="0.2"/>
</linearGradient>
</defs>
<g>
<rect x="0" y="0" width="576" height="396" class="blue"/>
<use xlink:href="#halyard" transform="translate(0 198) scale(576 576) rotate(0)" class="yellow"/>
</g>
<g>
<rect x="0" y="0" width="576" height="396" fill="url(#glaze)"/>
<path d="M 36 36 L 540 36 L 540 360 L 36 360 Z M 72 72 L 72 324 L 504 324 L 504 72 Z" fill="rgb(255,255,255)" opacity="0.4"/>
<path d="M 0 0 L 576 0 L 576 396 L 0 396 Z M 36 36 L 36 360 L 540 360 L 540 36 Z" fill="rgb(0,0,0)" opacity="0.4"/>
</g>
</svg>
