<?xml version="1.0"?>
<svg xmlns="http://www.w3.org/2000/svg" xmlns:xlink="http://www.w3.org/1999/xlink" version="1.1" width="576" height="396" viewBox="0 0 576 396">
<!-- Generated by Kreative Vexillo v1.0 -->
<style>
.blue{fill:rgb(106,159,182);}
.gray{fill:rgb(217,217,217);}
.purple{fill:rgb(180,153,194);}
.red{fill:rgb(227,0,0);}
.white{fill:rgb(255,255,255);}
.yellow{fill:rgb(253,255,155);}
</style>
<defs>
<linearGradient id="glaze" x1="0%" y1="0%" x2="100%" y2="100%">
<stop offset="0%" stop-color="rgb(255,255,255)" stop-opacity="0.2"/>
<stop offset="49.999%" stop-color="rgb(255,255,255)" stop-opacity="0.0"/>
<stop offset="50.001%" stop-color="rgb(0,0,0)" stop-opacity="0.0"/>
<stop offset="100%" stop-color="rgb(0,0,0)" stop-opacity="0.2"/>
</linearGradient>
</defs>
<g>
<g>
<rect x="0" y="0" width="115.2" height="396" class="blue"/>
<rect x="115.2" y="0" width="115.2" height="396" class="gray"/>
<rect x="230.4" y="0" width="115.2" height="396" class="white"/>
<rect x="345.6" y="0" width="115.2" height="396" class="yellow"/>
<rect x="460.8" y="0" width="115.2" height="396" class="purple"/>
</g>
<ellipse cx="288" cy="198" rx="120.96" ry="120.96" class="red"/>
<ellipse cx="288" cy="198" rx="109.44" ry="109.44" class="white"/>
</g>
<g>
<rect x="0" y="0" width="576" height="396" fill="url(#glaze)"/>
<path d="M 36 36 L 540 36 L 540 360 L 36 360 Z M 72 72 L 72 324 L 504 324 L 504 72 Z" fill="rgb(255,255,255)" opacity="0.4"/>
<path d="M 0 0 L 576 0 L 576 396 L 0 396 Z M 36 36 L 36 360 L 540 360 L 540 36 Z" fill="rgb(0,0,0)" opacity="0.4"/>
</g>
</svg>
