<?xml version="1.0"?>
<svg xmlns="http://www.w3.org/2000/svg" xmlns:xlink="http://www.w3.org/1999/xlink" version="1.1" width="576" height="396" viewBox="0 0 576 396">
<!-- Generated by Kreative Vexillo v1.0 -->
<style>
.black{fill:rgb(27,23,30);}
.dkgreen{fill:rgb(32,69,44);}
.dkpurple{fill:rgb(55,46,73);}
.green{fill:rgb(81,172,86);}
.purple{fill:rgb(158,116,182);}
.white{fill:rgb(233,233,233);}
</style>
<defs>
<linearGradient id="glaze" x1="0%" y1="0%" x2="100%" y2="100%">
<stop offset="0%" stop-color="rgb(255,255,255)" stop-opacity="0.2"/>
<stop offset="49.999%" stop-color="rgb(255,255,255)" stop-opacity="0.0"/>
<stop offset="50.001%" stop-color="rgb(0,0,0)" stop-opacity="0.0"/>
<stop offset="100%" stop-color="rgb(0,0,0)" stop-opacity="0.2"/>
</linearGradient>
</defs>
<g>
<g>
<rect x="0" y="0" width="576" height="80.1429" class="dkpurple"/>
<rect x="0" y="80.1429" width="576" height="94.2857" class="purple"/>
<rect x="0" y="174.4286" width="576" height="47.1429" class="white"/>
<rect x="0" y="221.5714" width="576" height="94.2857" class="green"/>
<rect x="0" y="315.8571" width="576" height="80.1429" class="dkgreen"/>
</g>
<ellipse cx="288" cy="198" rx="85.14" ry="85.14" class="white"/>
<ellipse cx="288" cy="198" rx="59.4" ry="59.4" class="black"/>
</g>
<g>
<rect x="0" y="0" width="576" height="396" fill="url(#glaze)"/>
<path d="M 36 36 L 540 36 L 540 360 L 36 360 Z M 72 72 L 72 324 L 504 324 L 504 72 Z" fill="rgb(255,255,255)" opacity="0.4"/>
<path d="M 0 0 L 576 0 L 576 396 L 0 396 Z M 36 36 L 36 360 L 540 360 L 540 36 Z" fill="rgb(0,0,0)" opacity="0.4"/>
</g>
</svg>
