<?xml version="1.0"?>
<svg xmlns="http://www.w3.org/2000/svg" xmlns:xlink="http://www.w3.org/1999/xlink" version="1.1" width="576" height="396" viewBox="0 0 576 396">
<!-- Generated by Kreative Vexillo v1.0 -->
<style>
.black{fill:rgb(0,0,0);}
.blue{fill:rgb(0,0,255);}
.green{fill:rgb(0,153,0);}
.orange{fill:rgb(255,153,0);}
.purple{fill:rgb(153,0,153);}
.red{fill:rgb(255,0,0);}
.white{fill:rgb(255,255,255);}
.yellow{fill:rgb(255,255,0);}
</style>
<defs>
<clipPath id="clip0">
<path d="M 0 0 L 288 198 L 0 396 Z"/>
</clipPath>
<clipPath id="clip1">
<path d="M 0 0 L 576 0 L 576 396 L 0 396 L 288 198 Z"/>
</clipPath>
<clipPath id="clip2">
<rect x="0" y="0" width="576" height="396"/>
</clipPath>
<clipPath id="clip3">
<path d="M 22.4345 -32.6321 L 22.4345 -32.6321 L 310.4345 165.3679 L 265.5655 230.6321 L -22.4345 32.6321 Z"/>
<path d="M 310.4345 230.6321 L 310.4345 230.6321 L 22.4345 428.6321 L -22.4345 363.3679 L 265.5655 165.3679 Z"/>
<path d="M 288 158.4 L 288 158.4 L 576 158.4 L 576 237.6 L 288 237.6 Z"/>
</clipPath>
<linearGradient id="glaze" x1="0%" y1="0%" x2="100%" y2="100%">
<stop offset="0%" stop-color="rgb(255,255,255)" stop-opacity="0.2"/>
<stop offset="49.999%" stop-color="rgb(255,255,255)" stop-opacity="0.0"/>
<stop offset="50.001%" stop-color="rgb(0,0,0)" stop-opacity="0.0"/>
<stop offset="100%" stop-color="rgb(0,0,0)" stop-opacity="0.2"/>
</linearGradient>
</defs>
<g>
<g>
<rect x="0" y="0" width="576" height="66" class="red"/>
<rect x="0" y="66" width="576" height="66" class="orange"/>
<rect x="0" y="132" width="576" height="66" class="yellow"/>
<rect x="0" y="198" width="576" height="66" class="green"/>
<rect x="0" y="264" width="576" height="66" class="blue"/>
<rect x="0" y="330" width="576" height="66" class="purple"/>
</g>
<g clip-path="url(#clip0)">
<path d="M 37.3909 -54.3868 L 37.3909 -54.3868 L 325.3909 143.6132 L 250.6091 252.3868 L -37.3909 54.3868 Z" class="black"/>
<path d="M 325.3909 252.3868 L 325.3909 252.3868 L 37.3909 450.3868 L -37.3909 341.6132 L 250.6091 143.6132 Z" class="black"/>
</g>
<g clip-path="url(#clip1)">
<path d="M 37.3909 -54.3868 L 37.3909 -54.3868 L 325.3909 143.6132 L 250.6091 252.3868 L -37.3909 54.3868 Z" class="white"/>
<path d="M 325.3909 252.3868 L 325.3909 252.3868 L 37.3909 450.3868 L -37.3909 341.6132 L 250.6091 143.6132 Z" class="white"/>
<path d="M 288 132 L 288 132 L 576 132 L 576 264 L 288 264 Z" class="white"/>
</g>
<g clip-path="url(#clip2)">
<g clip-path="url(#clip3)">
<g>
<rect x="0" y="0" width="576" height="66" class="red"/>
<rect x="0" y="66" width="576" height="66" class="orange"/>
<rect x="0" y="132" width="576" height="66" class="yellow"/>
<rect x="0" y="198" width="576" height="66" class="green"/>
<rect x="0" y="264" width="576" height="66" class="blue"/>
<rect x="0" y="330" width="576" height="66" class="purple"/>
</g>
</g>
</g>
</g>
<g>
<rect x="0" y="0" width="576" height="396" fill="url(#glaze)"/>
<path d="M 36 36 L 540 36 L 540 360 L 36 360 Z M 72 72 L 72 324 L 504 324 L 504 72 Z" fill="rgb(255,255,255)" opacity="0.4"/>
<path d="M 0 0 L 576 0 L 576 396 L 0 396 Z M 36 36 L 36 360 L 540 360 L 540 36 Z" fill="rgb(0,0,0)" opacity="0.4"/>
</g>
</svg>
