<?xml version="1.0"?>
<svg xmlns="http://www.w3.org/2000/svg" xmlns:xlink="http://www.w3.org/1999/xlink" version="1.1" width="576" height="396" viewBox="0 0 576 396">
<!-- Generated by Kreative Vexillo v1.0 -->
<style>
.blue1{fill:rgb(123,224,247);}
.blue2{fill:rgb(62,205,250);}
.grey{fill:rgb(206,206,206);}
.pink1{fill:rgb(244,118,149);}
.pink2{fill:rgb(241,163,185);}
.yellow{fill:rgb(254,244,140);}
</style>
<defs>
<linearGradient id="glaze" x1="0%" y1="0%" x2="100%" y2="100%">
<stop offset="0%" stop-color="rgb(255,255,255)" stop-opacity="0.2"/>
<stop offset="49.999%" stop-color="rgb(255,255,255)" stop-opacity="0.0"/>
<stop offset="50.001%" stop-color="rgb(0,0,0)" stop-opacity="0.0"/>
<stop offset="100%" stop-color="rgb(0,0,0)" stop-opacity="0.2"/>
</linearGradient>
</defs>
<g>
<g>
<rect x="0" y="0" width="576" height="66" class="pink1"/>
<rect x="0" y="66" width="576" height="66" class="pink2"/>
<rect x="0" y="132" width="576" height="66" class="grey"/>
<rect x="0" y="198" width="576" height="66" class="blue1"/>
<rect x="0" y="264" width="576" height="66" class="blue2"/>
<rect x="0" y="330" width="576" height="66" class="yellow"/>
</g>
</g>
<g>
<rect x="0" y="0" width="576" height="396" fill="url(#glaze)"/>
<path d="M 36 36 L 540 36 L 540 360 L 36 360 Z M 72 72 L 72 324 L 504 324 L 504 72 Z" fill="rgb(255,255,255)" opacity="0.4"/>
<path d="M 0 0 L 576 0 L 576 396 L 0 396 Z M 36 36 L 36 360 L 540 360 L 540 36 Z" fill="rgb(0,0,0)" opacity="0.4"/>
</g>
</svg>
