<?xml version="1.0"?>
<svg xmlns="http://www.w3.org/2000/svg" xmlns:xlink="http://www.w3.org/1999/xlink" version="1.1" width="576" height="396" viewBox="0 0 576 396">
<!-- Generated by Kreative Vexillo v1.0 -->
<style>
.pink{fill:rgb(253,139,168);}
.violet{fill:rgb(199,107,197);}
.white{fill:rgb(251,242,255);}
.yellow{fill:rgb(255,247,30);}
</style>
<defs>
<path id="violet1" d="M -0.011 0.149 C -0.0101 0.1488 -0.0101 0.14940001 -0.01 0.15 C -0.015 0.23770002 -0.0199 0.32660002 -0.055 0.388 C -0.077700004 0.4277 -0.1234 0.463 -0.17899999 0.467 C -0.21829998 0.4699 -0.257 0.4592 -0.28599998 0.44300002 C -0.3196 0.42430001 -0.3403 0.3833 -0.343 0.34000003 C -0.3461 0.29080003 -0.3331 0.24070004 -0.312 0.21100004 C -0.2899 0.17990004 -0.2462 0.16130003 -0.206 0.14500004 C -0.1752 0.13250004 -0.1462 0.121500045 -0.111 0.11100004 C -0.1012 0.10810004 -0.0854 0.101600036 -0.078 0.10200004 C -0.068100005 0.102500044 -0.051300004 0.11520004 -0.043 0.121000044 C -0.0297 0.1303 -0.0216 0.1392 -0.011 0.149 Z M 0.012 0.147 C 0.0072 0.1506 0.0094 0.1686 0.01 0.179 C 0.017 0.3102 0.0422 0.4317 0.149 0.46100003 C 0.1976 0.47430003 0.2487 0.46390003 0.286 0.44300002 C 0.3186 0.4248 0.34 0.3873 0.34300002 0.34000003 C 0.34590003 0.29350004 0.33440003 0.24260002 0.31200004 0.21100004 C 0.28980005 0.17970005 0.24350004 0.15970004 0.20500004 0.14400004 C 0.16460004 0.12760004 0.12220004 0.11360004 0.07700004 0.10200004 C 0.05 0.1119 0.0311 0.1328 0.012 0.147 Z M -0.117 -0.44 C -0.16229999 -0.4169 -0.2056 -0.3821 -0.21000001 -0.32099998 C -0.21290001 -0.28139997 -0.20210001 -0.25379997 -0.19000001 -0.22699998 C -0.16120002 -0.16289999 -0.11560001 -0.11019998 -0.06400001 -0.065999985 C -0.043400012 -0.048399985 -0.03300001 -0.039899983 -7.4505806E-9 -0.039999984 C 0.035399992 -0.040099986 0.048299994 -0.051899984 0.06899999 -0.069999985 C 0.10639999 -0.10269998 0.13509999 -0.13779998 0.162 -0.17799999 C 0.1779 -0.20179999 0.1967 -0.23389998 0.205 -0.268 C 0.2279 -0.362 0.17019999 -0.4158 0.109 -0.444 C 0.0752 -0.4596 0.034899995 -0.4693 -0.017000005 -0.467 C -0.0576 -0.4652 -0.0894 -0.4541 -0.117 -0.44 Z M -0.144 -0.11 C -0.1936 -0.153 -0.2505 -0.207 -0.338 -0.201 C -0.4112 -0.196 -0.4375 -0.143 -0.447 -0.073 C -0.4565 -0.0029999986 -0.4398 0.070999995 -0.391 0.096 C -0.35500002 0.1144 -0.2895 0.1141 -0.238 0.111 C -0.21280001 0.1095 -0.18630001 0.1076 -0.16100001 0.103 C -0.13800001 0.0988 -0.11100002 0.0936 -0.09700001 0.082 C -0.08630001 0.0732 -0.07910001 0.055200003 -0.07400001 0.040000003 C -0.06880001 0.024600003 -0.06270001 0.001500003 -0.06800001 -0.016999997 C -0.07000001 -0.024099998 -0.07760001 -0.0316 -0.08300001 -0.038999997 C -0.09910001 -0.061299995 -0.11700001 -0.0827 -0.134 -0.099999994 C -0.1377 -0.1029 -0.1411 -0.1062 -0.144 -0.11 Z M 0.134 -0.1 C 0.1232 -0.0882 0.111 -0.0758 0.09900001 -0.061 C 0.090900004 -0.051 0.07140001 -0.028900001 0.068 -0.017 C 0.0627 0.0015999991 0.068900004 0.0246 0.074 0.04 C 0.079 0.0551 0.0863 0.0732 0.097 0.082 C 0.111 0.0935 0.1381 0.0988 0.16100001 0.103 C 0.18650001 0.1076 0.21350001 0.1096 0.23900002 0.111 C 0.29070002 0.1139 0.35680002 0.1143 0.39200002 0.095 C 0.4327 0.0727 0.45340002 0.014399998 0.45000002 -0.049999997 C 0.44570002 -0.13299999 0.4149 -0.19659999 0.33600003 -0.20099999 C 0.25050002 -0.2057 0.19400002 -0.1537 0.14500003 -0.11099999 C 0.1418 -0.1069 0.1381 -0.1032 0.134 -0.1 Z"/>
<path id="violet2" d="M -0.007 -0.017 C 0.0235 -0.0207 0.0462 -0.0047000013 0.057000004 0.011999998 C 0.061600003 0.0191 0.06860001 0.0358 0.068 0.051999997 C 0.065900005 0.109699994 -0.0068999976 0.1369 -0.047 0.098 C -0.057499997 0.0879 -0.0678 0.0694 -0.067 0.047 C -0.0661 0.022999998 -0.0566 0.009799998 -0.046000004 0.0 C -0.0372 -0.0082 -0.0245 -0.0149 -0.007 -0.017 Z"/>
<path id="violet3" d="M -0.002 0.01 C 0.020299999 0.0084 0.0407 0.0254 0.041 0.049000002 C 0.0416 0.1009 -0.039399996 0.101500005 -0.04 0.05 C -0.0402 0.0284 -0.0245 0.0116 -0.002 0.01 Z"/>
<linearGradient id="glaze" x1="0%" y1="0%" x2="100%" y2="100%">
<stop offset="0%" stop-color="rgb(255,255,255)" stop-opacity="0.2"/>
<stop offset="49.999%" stop-color="rgb(255,255,255)" stop-opacity="0.0"/>
<stop offset="50.001%" stop-color="rgb(0,0,0)" stop-opacity="0.0"/>
<stop offset="100%" stop-color="rgb(0,0,0)" stop-opacity="0.2"/>
</linearGradient>
</defs>
<g>
<g>
<rect x="0" y="0" width="576" height="132" class="pink"/>
<rect x="0" y="132" width="576" height="132" class="white"/>
<rect x="0" y="264" width="576" height="132" class="pink"/>
</g>
<use xlink:href="#violet1" transform="translate(288 198) scale(132 132) rotate(0)" class="violet"/>
<use xlink:href="#violet2" transform="translate(288 198) scale(132 132) rotate(0)" class="pink"/>
<use xlink:href="#violet3" transform="translate(288 198) scale(132 132) rotate(0)" class="yellow"/>
</g>
<g>
<rect x="0" y="0" width="576" height="396" fill="url(#glaze)"/>
<path d="M 36 36 L 540 36 L 540 360 L 36 360 Z M 72 72 L 72 324 L 504 324 L 504 72 Z" fill="rgb(255,255,255)" opacity="0.4"/>
<path d="M 0 0 L 576 0 L 576 396 L 0 396 Z M 36 36 L 36 360 L 540 360 L 540 36 Z" fill="rgb(0,0,0)" opacity="0.4"/>
</g>
</svg>
