<?xml version="1.0"?>
<svg xmlns="http://www.w3.org/2000/svg" xmlns:xlink="http://www.w3.org/1999/xlink" version="1.1" width="576" height="396" viewBox="0 0 576 396">
<!-- Generated by Kreative Vexillo v1.0 -->
<style>
.blue{fill:rgb(168,218,246);}
.dkgray{fill:rgb(128,128,128);}
.ltgray{fill:rgb(196,196,196);}
.red{fill:rgb(255,172,205);}
.white{fill:rgb(255,255,255);}
.yellow{fill:rgb(255,241,166);}
</style>
<defs>
<linearGradient id="grad0" x1="0%" x2="100%" y1="0%" y2="0%">
<stop offset="0%" stop-color="rgb(255,172,205)"/>
<stop offset="100%" stop-color="rgb(255,241,166)"/>
</linearGradient>
<linearGradient id="grad1" x1="0%" x2="100%" y1="0%" y2="0%">
<stop offset="0%" stop-color="rgb(255,241,166)"/>
<stop offset="100%" stop-color="rgb(168,218,246)"/>
</linearGradient>
<linearGradient id="glaze" x1="0%" y1="0%" x2="100%" y2="100%">
<stop offset="0%" stop-color="rgb(255,255,255)" stop-opacity="0.2"/>
<stop offset="49.999%" stop-color="rgb(255,255,255)" stop-opacity="0.0"/>
<stop offset="50.001%" stop-color="rgb(0,0,0)" stop-opacity="0.0"/>
<stop offset="100%" stop-color="rgb(0,0,0)" stop-opacity="0.2"/>
</linearGradient>
</defs>
<g>
<g>
<rect x="0" y="0" width="576" height="56.5714" class="dkgray"/>
<rect x="0" y="56.5714" width="576" height="282.8571" class="ltgray"/>
<rect x="0" y="339.4286" width="576" height="56.5714" class="dkgray"/>
</g>
<rect x="0" y="113.1429" width="230.4" height="169.7143" fill="url(#grad0)"/>
<rect x="230.4" y="113.1429" width="345.6" height="169.7143" fill="url(#grad1)"/>
<g>
<rect x="0" y="169.7143" width="576" height="56.5714" class="white"/>
</g>
</g>
<g>
<rect x="0" y="0" width="576" height="396" fill="url(#glaze)"/>
<path d="M 36 36 L 540 36 L 540 360 L 36 360 Z M 72 72 L 72 324 L 504 324 L 504 72 Z" fill="rgb(255,255,255)" opacity="0.4"/>
<path d="M 0 0 L 576 0 L 576 396 L 0 396 Z M 36 36 L 36 360 L 540 360 L 540 36 Z" fill="rgb(0,0,0)" opacity="0.4"/>
</g>
</svg>
