<?xml version="1.0"?>
<svg xmlns="http://www.w3.org/2000/svg" xmlns:xlink="http://www.w3.org/1999/xlink" version="1.1" width="576" height="396" viewBox="0 0 576 396">
<!-- Generated by Kreative Vexillo v1.0 -->
<style>
.black{fill:rgb(0,0,0);}
.red{fill:rgb(211,32,17);}
.yellow{fill:rgb(252,200,0);}
</style>
<defs>
<path id="blackband" d="M 0.578 1.0 L 1.0 0.641 L 1.0 0.476 L 0.585 0.828 L 0.415 0.422 L 0.0 0.422 L 0.0 0.569 L 0.369 0.569 L 0.549 1.0 Z"/>
<path id="redband" d="M 1.0 0.212 L 0.632 0.524 L 0.489 0.186 L 0.0 0.186 L 0.0 0.613 L 0.355 0.613 L 0.517 1.0 L 0.637 1.0 L 1.0 0.691 Z"/>
<path id="yellowband" d="M 1.0 0.262 L 0.623 0.582 L 0.475 0.23 L 0.0 0.23 L 0.0 0.377 L 0.428 0.377 L 0.594 0.771 L 1.0 0.426 Z"/>
<linearGradient id="glaze" x1="0%" y1="0%" x2="100%" y2="100%">
<stop offset="0%" stop-color="rgb(255,255,255)" stop-opacity="0.2"/>
<stop offset="49.999%" stop-color="rgb(255,255,255)" stop-opacity="0.0"/>
<stop offset="50.001%" stop-color="rgb(0,0,0)" stop-opacity="0.0"/>
<stop offset="100%" stop-color="rgb(0,0,0)" stop-opacity="0.2"/>
</linearGradient>
</defs>
<g>
<rect x="0" y="0" width="576" height="396" class="black"/>
<use xlink:href="#redband" transform="translate(0 0) scale(576 396) rotate(0)" class="red"/>
<use xlink:href="#blackband" transform="translate(0 0) scale(576 396) rotate(0)" class="black"/>
<use xlink:href="#yellowband" transform="translate(0 0) scale(576 396) rotate(0)" class="yellow"/>
</g>
<g>
<rect x="0" y="0" width="576" height="396" fill="url(#glaze)"/>
<path d="M 36 36 L 540 36 L 540 360 L 36 360 Z M 72 72 L 72 324 L 504 324 L 504 72 Z" fill="rgb(255,255,255)" opacity="0.4"/>
<path d="M 0 0 L 576 0 L 576 396 L 0 396 Z M 36 36 L 36 360 L 540 360 L 540 36 Z" fill="rgb(0,0,0)" opacity="0.4"/>
</g>
</svg>
