<?xml version="1.0"?>
<svg xmlns="http://www.w3.org/2000/svg" xmlns:xlink="http://www.w3.org/1999/xlink" version="1.1" width="576" height="396" viewBox="0 0 576 396">
<!-- Generated by Kreative Vexillo v1.0 -->
<style>
.black{fill:rgb(0,0,0);}
.purple{fill:rgb(118,48,126);}
.white{fill:rgb(255,255,255);}
</style>
<defs>
<path id="labrys" d="M 0.0488 -0.3304 A -0.39 -0.39 0.0 0 0 0.3094 -0.4799 A -0.39 -0.39 0.0 0 1 0.3094 -0.0051 A -0.39 -0.39 0.0 0 0 0.0488 -0.1546 Z M -0.0487 -0.1546 A -0.39 -0.39 0.0 0 0 -0.3094 -0.0051 A -0.39 -0.39 0.0 0 1 -0.3094 -0.4799 A -0.39 -0.39 0.0 0 0 -0.0487 -0.3304 Z M -0.039 -0.3741 A -0.039 -0.0195 0.0 0 1 0.039 -0.3741 V 0.4595 A -0.039 -0.0195 0.0 0 1 -0.039 0.4595 Z"/>
<linearGradient id="glaze" x1="0%" y1="0%" x2="100%" y2="100%">
<stop offset="0%" stop-color="rgb(255,255,255)" stop-opacity="0.2"/>
<stop offset="49.999%" stop-color="rgb(255,255,255)" stop-opacity="0.0"/>
<stop offset="50.001%" stop-color="rgb(0,0,0)" stop-opacity="0.0"/>
<stop offset="100%" stop-color="rgb(0,0,0)" stop-opacity="0.2"/>
</linearGradient>
</defs>
<g>
<rect x="0" y="0" width="576" height="396" class="purple"/>
<path d="M 90 26.527 L 486 26.527 L 288 369.473 Z" class="black"/>
<use xlink:href="#labrys" transform="translate(288 174.9) scale(277.2 277.2) rotate(0)" class="white"/>
</g>
<g>
<rect x="0" y="0" width="576" height="396" fill="url(#glaze)"/>
<path d="M 36 36 L 540 36 L 540 360 L 36 360 Z M 72 72 L 72 324 L 504 324 L 504 72 Z" fill="rgb(255,255,255)" opacity="0.4"/>
<path d="M 0 0 L 576 0 L 576 396 L 0 396 Z M 36 36 L 36 360 L 540 360 L 540 36 Z" fill="rgb(0,0,0)" opacity="0.4"/>
</g>
</svg>
