<?xml version="1.0"?>
<svg xmlns="http://www.w3.org/2000/svg" xmlns:xlink="http://www.w3.org/1999/xlink" version="1.1" width="576" height="396" viewBox="0 0 576 396">
<!-- Generated by Kreative Vexillo v1.0 -->
<style>
.black{fill:rgb(0,0,0);}
.blue{fill:rgb(0,163,232);}
.green{fill:rgb(181,229,29);}
.orange{fill:rgb(255,201,13);}
.pink{fill:rgb(254,174,201);}
.red{fill:rgb(252,102,103);}
.turquoise{fill:rgb(154,217,234);}
.white{fill:rgb(255,255,255);}
</style>
<defs>
<linearGradient id="glaze" x1="0%" y1="0%" x2="100%" y2="100%">
<stop offset="0%" stop-color="rgb(255,255,255)" stop-opacity="0.2"/>
<stop offset="49.999%" stop-color="rgb(255,255,255)" stop-opacity="0.0"/>
<stop offset="50.001%" stop-color="rgb(0,0,0)" stop-opacity="0.0"/>
<stop offset="100%" stop-color="rgb(0,0,0)" stop-opacity="0.2"/>
</linearGradient>
</defs>
<g>
<g>
<rect x="0" y="0" width="576" height="44" class="black"/>
<rect x="0" y="44" width="576" height="44" class="turquoise"/>
<rect x="0" y="88" width="576" height="44" class="blue"/>
<rect x="0" y="132" width="576" height="44" class="green"/>
<rect x="0" y="176" width="576" height="44" class="white"/>
<rect x="0" y="220" width="576" height="44" class="orange"/>
<rect x="0" y="264" width="576" height="44" class="red"/>
<rect x="0" y="308" width="576" height="44" class="pink"/>
<rect x="0" y="352" width="576" height="44" class="black"/>
</g>
</g>
<g>
<rect x="0" y="0" width="576" height="396" fill="url(#glaze)"/>
<path d="M 36 36 L 540 36 L 540 360 L 36 360 Z M 72 72 L 72 324 L 504 324 L 504 72 Z" fill="rgb(255,255,255)" opacity="0.4"/>
<path d="M 0 0 L 576 0 L 576 396 L 0 396 Z M 36 36 L 36 360 L 540 360 L 540 36 Z" fill="rgb(0,0,0)" opacity="0.4"/>
</g>
</svg>
