<?xml version="1.0"?>
<svg xmlns="http://www.w3.org/2000/svg" xmlns:xlink="http://www.w3.org/1999/xlink" version="1.1" width="576" height="396" viewBox="0 0 576 396">
<!-- Generated by Kreative Vexillo v1.0 -->
<style>
.blue{fill:rgb(0,0,255);}
.green{fill:rgb(0,153,0);}
.orange{fill:rgb(255,153,0);}
.purple{fill:rgb(153,0,153);}
.red{fill:rgb(255,0,0);}
.usblue{fill:rgb(60,59,110);}
.uswhite{fill:rgb(255,255,255);}
.yellow{fill:rgb(255,255,0);}
</style>
<defs>
<path id="star" d="M 0.0 -1.0 L 0.2245 -0.309 L 0.9511 -0.309 L 0.3633 0.118 L 0.5878 0.809 L 0.0 0.382 L -0.5878 0.809 L -0.3633 0.118 L -0.9511 -0.309 L -0.2245 -0.309 Z"/>
<linearGradient id="glaze" x1="0%" y1="0%" x2="100%" y2="100%">
<stop offset="0%" stop-color="rgb(255,255,255)" stop-opacity="0.2"/>
<stop offset="49.999%" stop-color="rgb(255,255,255)" stop-opacity="0.0"/>
<stop offset="50.001%" stop-color="rgb(0,0,0)" stop-opacity="0.0"/>
<stop offset="100%" stop-color="rgb(0,0,0)" stop-opacity="0.2"/>
</linearGradient>
</defs>
<g>
<g>
<rect x="0" y="0" width="576" height="66" class="red"/>
<rect x="0" y="66" width="576" height="66" class="orange"/>
<rect x="0" y="132" width="576" height="66" class="yellow"/>
<rect x="0" y="198" width="576" height="66" class="green"/>
<rect x="0" y="264" width="576" height="66" class="blue"/>
<rect x="0" y="330" width="576" height="66" class="purple"/>
</g>
<rect x="0" y="0" width="279.4629" height="198" class="usblue"/>
<g>
<g>
<use xlink:href="#star" transform="translate(23.2886 19.8) scale(11.3143 11.3143) rotate(0)" class="uswhite"/>
<use xlink:href="#star" transform="translate(69.8657 19.8) scale(11.3143 11.3143) rotate(0)" class="uswhite"/>
<use xlink:href="#star" transform="translate(116.4429 19.8) scale(11.3143 11.3143) rotate(0)" class="uswhite"/>
<use xlink:href="#star" transform="translate(163.02 19.8) scale(11.3143 11.3143) rotate(0)" class="uswhite"/>
<use xlink:href="#star" transform="translate(209.5971 19.8) scale(11.3143 11.3143) rotate(0)" class="uswhite"/>
<use xlink:href="#star" transform="translate(256.1743 19.8) scale(11.3143 11.3143) rotate(0)" class="uswhite"/>
</g>
<g>
<use xlink:href="#star" transform="translate(23.2886 59.4) scale(11.3143 11.3143) rotate(0)" class="uswhite"/>
<use xlink:href="#star" transform="translate(69.8657 59.4) scale(11.3143 11.3143) rotate(0)" class="uswhite"/>
<use xlink:href="#star" transform="translate(116.4429 59.4) scale(11.3143 11.3143) rotate(0)" class="uswhite"/>
<use xlink:href="#star" transform="translate(163.02 59.4) scale(11.3143 11.3143) rotate(0)" class="uswhite"/>
<use xlink:href="#star" transform="translate(209.5971 59.4) scale(11.3143 11.3143) rotate(0)" class="uswhite"/>
<use xlink:href="#star" transform="translate(256.1743 59.4) scale(11.3143 11.3143) rotate(0)" class="uswhite"/>
</g>
<g>
<use xlink:href="#star" transform="translate(23.2886 99) scale(11.3143 11.3143) rotate(0)" class="uswhite"/>
<use xlink:href="#star" transform="translate(69.8657 99) scale(11.3143 11.3143) rotate(0)" class="uswhite"/>
<use xlink:href="#star" transform="translate(116.4429 99) scale(11.3143 11.3143) rotate(0)" class="uswhite"/>
<use xlink:href="#star" transform="translate(163.02 99) scale(11.3143 11.3143) rotate(0)" class="uswhite"/>
<use xlink:href="#star" transform="translate(209.5971 99) scale(11.3143 11.3143) rotate(0)" class="uswhite"/>
<use xlink:href="#star" transform="translate(256.1743 99) scale(11.3143 11.3143) rotate(0)" class="uswhite"/>
</g>
<g>
<use xlink:href="#star" transform="translate(23.2886 138.6) scale(11.3143 11.3143) rotate(0)" class="uswhite"/>
<use xlink:href="#star" transform="translate(69.8657 138.6) scale(11.3143 11.3143) rotate(0)" class="uswhite"/>
<use xlink:href="#star" transform="translate(116.4429 138.6) scale(11.3143 11.3143) rotate(0)" class="uswhite"/>
<use xlink:href="#star" transform="translate(163.02 138.6) scale(11.3143 11.3143) rotate(0)" class="uswhite"/>
<use xlink:href="#star" transform="translate(209.5971 138.6) scale(11.3143 11.3143) rotate(0)" class="uswhite"/>
<use xlink:href="#star" transform="translate(256.1743 138.6) scale(11.3143 11.3143) rotate(0)" class="uswhite"/>
</g>
<g>
<use xlink:href="#star" transform="translate(23.2886 178.2) scale(11.3143 11.3143) rotate(0)" class="uswhite"/>
<use xlink:href="#star" transform="translate(69.8657 178.2) scale(11.3143 11.3143) rotate(0)" class="uswhite"/>
<use xlink:href="#star" transform="translate(116.4429 178.2) scale(11.3143 11.3143) rotate(0)" class="uswhite"/>
<use xlink:href="#star" transform="translate(163.02 178.2) scale(11.3143 11.3143) rotate(0)" class="uswhite"/>
<use xlink:href="#star" transform="translate(209.5971 178.2) scale(11.3143 11.3143) rotate(0)" class="uswhite"/>
<use xlink:href="#star" transform="translate(256.1743 178.2) scale(11.3143 11.3143) rotate(0)" class="uswhite"/>
</g>
</g>
<g>
<g>
<use xlink:href="#star" transform="translate(46.5771 39.6) scale(11.3143 11.3143) rotate(0)" class="uswhite"/>
<use xlink:href="#star" transform="translate(93.1543 39.6) scale(11.3143 11.3143) rotate(0)" class="uswhite"/>
<use xlink:href="#star" transform="translate(139.7314 39.6) scale(11.3143 11.3143) rotate(0)" class="uswhite"/>
<use xlink:href="#star" transform="translate(186.3086 39.6) scale(11.3143 11.3143) rotate(0)" class="uswhite"/>
<use xlink:href="#star" transform="translate(232.8857 39.6) scale(11.3143 11.3143) rotate(0)" class="uswhite"/>
</g>
<g>
<use xlink:href="#star" transform="translate(46.5771 79.2) scale(11.3143 11.3143) rotate(0)" class="uswhite"/>
<use xlink:href="#star" transform="translate(93.1543 79.2) scale(11.3143 11.3143) rotate(0)" class="uswhite"/>
<use xlink:href="#star" transform="translate(139.7314 79.2) scale(11.3143 11.3143) rotate(0)" class="uswhite"/>
<use xlink:href="#star" transform="translate(186.3086 79.2) scale(11.3143 11.3143) rotate(0)" class="uswhite"/>
<use xlink:href="#star" transform="translate(232.8857 79.2) scale(11.3143 11.3143) rotate(0)" class="uswhite"/>
</g>
<g>
<use xlink:href="#star" transform="translate(46.5771 118.8) scale(11.3143 11.3143) rotate(0)" class="uswhite"/>
<use xlink:href="#star" transform="translate(93.1543 118.8) scale(11.3143 11.3143) rotate(0)" class="uswhite"/>
<use xlink:href="#star" transform="translate(139.7314 118.8) scale(11.3143 11.3143) rotate(0)" class="uswhite"/>
<use xlink:href="#star" transform="translate(186.3086 118.8) scale(11.3143 11.3143) rotate(0)" class="uswhite"/>
<use xlink:href="#star" transform="translate(232.8857 118.8) scale(11.3143 11.3143) rotate(0)" class="uswhite"/>
</g>
<g>
<use xlink:href="#star" transform="translate(46.5771 158.4) scale(11.3143 11.3143) rotate(0)" class="uswhite"/>
<use xlink:href="#star" transform="translate(93.1543 158.4) scale(11.3143 11.3143) rotate(0)" class="uswhite"/>
<use xlink:href="#star" transform="translate(139.7314 158.4) scale(11.3143 11.3143) rotate(0)" class="uswhite"/>
<use xlink:href="#star" transform="translate(186.3086 158.4) scale(11.3143 11.3143) rotate(0)" class="uswhite"/>
<use xlink:href="#star" transform="translate(232.8857 158.4) scale(11.3143 11.3143) rotate(0)" class="uswhite"/>
</g>
</g>
</g>
<g>
<rect x="0" y="0" width="576" height="396" fill="url(#glaze)"/>
<path d="M 36 36 L 540 36 L 540 360 L 36 360 Z M 72 72 L 72 324 L 504 324 L 504 72 Z" fill="rgb(255,255,255)" opacity="0.4"/>
<path d="M 0 0 L 576 0 L 576 396 L 0 396 Z M 36 36 L 36 360 L 540 360 L 540 36 Z" fill="rgb(0,0,0)" opacity="0.4"/>
</g>
</svg>
