<?xml version="1.0"?>
<svg xmlns="http://www.w3.org/2000/svg" xmlns:xlink="http://www.w3.org/1999/xlink" version="1.1" width="576" height="396" viewBox="0 0 576 396">
<!-- Generated by Kreative Vexillo v1.0 -->
<style>
.black{fill:rgb(0,0,0);}
.green{fill:rgb(75,218,170);}
.purple{fill:rgb(191,120,188);}
.red{fill:rgb(247,84,104);}
.yellow{fill:rgb(247,236,106);}
</style>
<defs>
<linearGradient id="glaze" x1="0%" y1="0%" x2="100%" y2="100%">
<stop offset="0%" stop-color="rgb(255,255,255)" stop-opacity="0.2"/>
<stop offset="49.999%" stop-color="rgb(255,255,255)" stop-opacity="0.0"/>
<stop offset="50.001%" stop-color="rgb(0,0,0)" stop-opacity="0.0"/>
<stop offset="100%" stop-color="rgb(0,0,0)" stop-opacity="0.2"/>
</linearGradient>
</defs>
<g>
<g>
<rect x="0" y="0" width="288" height="396" class="red"/>
<rect x="288" y="0" width="288" height="396" class="green"/>
</g>
<path d="M -94.7278 0 L 670.7278 0 L 288 220.968 Z" class="yellow"/>
<path d="M 163.3963 292.908 L 288 77.088 L 412.6037 292.908 Z" class="black"/>
<path d="M 183.973 281.028 L 288 100.848 L 392.027 281.028 Z" class="purple"/>
<path d="M 170.7146 209.088 L 170.7146 209.088 L 405.2854 209.088 L 405.2854 220.968 L 170.7146 220.968 Z" class="black"/>
</g>
<g>
<rect x="0" y="0" width="576" height="396" fill="url(#glaze)"/>
<path d="M 36 36 L 540 36 L 540 360 L 36 360 Z M 72 72 L 72 324 L 504 324 L 504 72 Z" fill="rgb(255,255,255)" opacity="0.4"/>
<path d="M 0 0 L 576 0 L 576 396 L 0 396 Z M 36 36 L 36 360 L 540 360 L 540 36 Z" fill="rgb(0,0,0)" opacity="0.4"/>
</g>
</svg>
