<?xml version="1.0"?>
<svg xmlns="http://www.w3.org/2000/svg" xmlns:xlink="http://www.w3.org/1999/xlink" version="1.1" width="576" height="396" viewBox="0 0 576 396">
<!-- Generated by Kreative Vexillo v1.0 -->
<style>
.black{fill:rgb(0,0,0);}
.blue{fill:rgb(0,26,152);}
.brown{fill:rgb(96,56,19);}
.green{fill:rgb(6,191,0);}
.orange{fill:rgb(238,156,0);}
.pink{fill:rgb(255,175,199);}
.purple{fill:rgb(118,0,137);}
.red{fill:rgb(212,6,6);}
.turquoise{fill:rgb(116,215,236);}
.white{fill:rgb(251,249,245);}
.yellow{fill:rgb(227,255,0);}
</style>
<defs>
<linearGradient id="glaze" x1="0%" y1="0%" x2="100%" y2="100%">
<stop offset="0%" stop-color="rgb(255,255,255)" stop-opacity="0.2"/>
<stop offset="49.999%" stop-color="rgb(255,255,255)" stop-opacity="0.0"/>
<stop offset="50.001%" stop-color="rgb(0,0,0)" stop-opacity="0.0"/>
<stop offset="100%" stop-color="rgb(0,0,0)" stop-opacity="0.2"/>
</linearGradient>
</defs>
<g>
<g>
<rect x="0" y="0" width="576" height="66" class="red"/>
<rect x="0" y="66" width="576" height="66" class="orange"/>
<rect x="0" y="132" width="576" height="66" class="yellow"/>
<rect x="0" y="198" width="576" height="66" class="green"/>
<rect x="0" y="264" width="576" height="66" class="blue"/>
<rect x="0" y="330" width="576" height="66" class="purple"/>
</g>
<path d="M 0 0 L 99 0 L 297 198 L 99 396 L 0 396 Z" class="black"/>
<path d="M 0 0 L 49.5 0 L 247.5 198 L 49.5 396 L 0 396 Z" class="brown"/>
<path d="M 0 0 L 198 198 L 0 396 Z" class="turquoise"/>
<path d="M 0 49.5 L 148.5 198 L 0 346.5 Z" class="pink"/>
<path d="M 0 99 L 99 198 L 0 297 Z" class="white"/>
</g>
<g>
<rect x="0" y="0" width="576" height="396" fill="url(#glaze)"/>
<path d="M 36 36 L 540 36 L 540 360 L 36 360 Z M 72 72 L 72 324 L 504 324 L 504 72 Z" fill="rgb(255,255,255)" opacity="0.4"/>
<path d="M 0 0 L 576 0 L 576 396 L 0 396 Z M 36 36 L 36 360 L 540 360 L 540 36 Z" fill="rgb(0,0,0)" opacity="0.4"/>
</g>
</svg>
