<?xml version="1.0"?>
<svg xmlns="http://www.w3.org/2000/svg" xmlns:xlink="http://www.w3.org/1999/xlink" version="1.1" width="576" height="396" viewBox="0 0 576 396">
<!-- Generated by Kreative Vexillo v1.0 -->
<style>
.co-blue{fill:rgb(16,46,130);}
.co-red{fill:rgb(191,44,52);}
.co-white{fill:rgb(255,255,255);}
.co-yellow{fill:rgb(246,208,71);}
.pr-blue{fill:rgb(0,0,255);}
.pr-green{fill:rgb(0,153,0);}
.pr-orange{fill:rgb(255,153,0);}
.pr-purple{fill:rgb(153,0,153);}
.pr-red{fill:rgb(255,0,0);}
.pr-yellow{fill:rgb(255,255,0);}
</style>
<defs>
<linearGradient id="glaze" x1="0%" y1="0%" x2="100%" y2="100%">
<stop offset="0%" stop-color="rgb(255,255,255)" stop-opacity="0.2"/>
<stop offset="49.999%" stop-color="rgb(255,255,255)" stop-opacity="0.0"/>
<stop offset="50.001%" stop-color="rgb(0,0,0)" stop-opacity="0.0"/>
<stop offset="100%" stop-color="rgb(0,0,0)" stop-opacity="0.2"/>
</linearGradient>
</defs>
<g>
<g>
<rect x="0" y="0" width="576" height="44" class="pr-red"/>
<rect x="0" y="44" width="576" height="44" class="pr-orange"/>
<rect x="0" y="88" width="576" height="44" class="pr-yellow"/>
<rect x="0" y="132" width="576" height="132" class="co-white"/>
<rect x="0" y="264" width="576" height="44" class="pr-green"/>
<rect x="0" y="308" width="576" height="44" class="pr-blue"/>
<rect x="0" y="352" width="576" height="44" class="pr-purple"/>
</g>
<path d="M 243.2 198 L 365.1521 147.4858 A 132 132 0 1 0 365.1521 248.5142 Z" class="co-red"/>
<ellipse cx="243.2" cy="198" rx="66" ry="66" class="co-yellow"/>
</g>
<g>
<rect x="0" y="0" width="576" height="396" fill="url(#glaze)"/>
<path d="M 36 36 L 540 36 L 540 360 L 36 360 Z M 72 72 L 72 324 L 504 324 L 504 72 Z" fill="rgb(255,255,255)" opacity="0.4"/>
<path d="M 0 0 L 576 0 L 576 396 L 0 396 Z M 36 36 L 36 360 L 540 360 L 540 36 Z" fill="rgb(0,0,0)" opacity="0.4"/>
</g>
</svg>
