<?xml version="1.0"?>
<svg xmlns="http://www.w3.org/2000/svg" xmlns:xlink="http://www.w3.org/1999/xlink" version="1.1" width="576" height="396" viewBox="0 0 576 396">
<!-- Generated by Kreative Vexillo v1.0 -->
<style>
.blue{fill:rgb(160,206,239);}
.magenta{fill:rgb(241,167,254);}
.pink{fill:rgb(244,184,222);}
.white{fill:rgb(255,255,255);}
</style>
<defs>
<linearGradient id="grad0" y1="0%" y2="100%" x1="0%" x2="0%">
<stop offset="0%" stop-color="rgb(160,206,239)"/>
<stop offset="100%" stop-color="rgb(244,184,222)"/>
</linearGradient>
<linearGradient id="glaze" x1="0%" y1="0%" x2="100%" y2="100%">
<stop offset="0%" stop-color="rgb(255,255,255)" stop-opacity="0.2"/>
<stop offset="49.999%" stop-color="rgb(255,255,255)" stop-opacity="0.0"/>
<stop offset="50.001%" stop-color="rgb(0,0,0)" stop-opacity="0.0"/>
<stop offset="100%" stop-color="rgb(0,0,0)" stop-opacity="0.2"/>
</linearGradient>
</defs>
<g>
<g>
<rect x="0" y="0" width="576" height="66" class="magenta"/>
<rect x="0" y="66" width="576" height="66" class="white"/>
<rect x="0" y="132" width="576" height="66" class="blue"/>
<rect x="0" y="198" width="576" height="66" class="pink"/>
<rect x="0" y="264" width="576" height="66" class="white"/>
<rect x="0" y="330" width="576" height="66" class="magenta"/>
</g>
<rect x="0" y="165" width="576" height="66" fill="url(#grad0)"/>
</g>
<g>
<rect x="0" y="0" width="576" height="396" fill="url(#glaze)"/>
<path d="M 36 36 L 540 36 L 540 360 L 36 360 Z M 72 72 L 72 324 L 504 324 L 504 72 Z" fill="rgb(255,255,255)" opacity="0.4"/>
<path d="M 0 0 L 576 0 L 576 396 L 0 396 Z M 36 36 L 36 360 L 540 360 L 540 36 Z" fill="rgb(0,0,0)" opacity="0.4"/>
</g>
</svg>
