<?xml version="1.0"?>
<svg xmlns="http://www.w3.org/2000/svg" xmlns:xlink="http://www.w3.org/1999/xlink" version="1.1" width="576" height="396" viewBox="0 0 576 396">
<!-- Generated by Kreative Vexillo v1.0 -->
<style>
.black{fill:rgb(0,0,0);}
.red{fill:rgb(238,0,0);}
.white{fill:rgb(255,255,255);}
</style>
<defs>
<path id="disc" d="M 0.5 0.0 A 0.5 0.5 0.0 0 0 -0.5 0.0 A 0.5 0.5 0.0 0 0 0.5 0.0 Z"/>
<path id="shield" d="M 0.413 -0.12 V -0.5 H -0.413 V -0.120000005 C -0.413 -0.014100008 -0.4017 0.18809998 -0.20319998 0.3658 C -0.116199985 0.4452 -0.07649998 0.466 0.0010000169 0.5 C 0.07850002 0.4641 0.11820002 0.4414 0.20330001 0.3658 C 0.4017 0.1881 0.413 -0.0142 0.413 -0.12 Z"/>
<linearGradient id="glaze" x1="0%" y1="0%" x2="100%" y2="100%">
<stop offset="0%" stop-color="rgb(255,255,255)" stop-opacity="0.2"/>
<stop offset="49.999%" stop-color="rgb(255,255,255)" stop-opacity="0.0"/>
<stop offset="50.001%" stop-color="rgb(0,0,0)" stop-opacity="0.0"/>
<stop offset="100%" stop-color="rgb(0,0,0)" stop-opacity="0.2"/>
</linearGradient>
</defs>
<g>
<g>
<rect x="0" y="0" width="576" height="44" class="black"/>
<rect x="0" y="44" width="576" height="44" class="white"/>
<rect x="0" y="88" width="576" height="44" class="black"/>
<rect x="0" y="132" width="576" height="44" class="white"/>
<rect x="0" y="176" width="576" height="44" class="black"/>
<rect x="0" y="220" width="576" height="44" class="white"/>
<rect x="0" y="264" width="576" height="44" class="black"/>
<rect x="0" y="308" width="576" height="44" class="white"/>
<rect x="0" y="352" width="576" height="44" class="black"/>
</g>
<use xlink:href="#shield" transform="translate(288 198) scale(296.8785 296.8785) rotate(0)" class="white"/>
<use xlink:href="#shield" transform="translate(288 198) scale(257.0356 257.0356) rotate(0)" class="red"/>
<use xlink:href="#disc" transform="translate(288 175.4061) scale(160.3436 160.3436) rotate(0)" class="white"/>
<use xlink:href="#disc" transform="translate(288 175.4061) scale(106.8957 106.8957) rotate(0)" class="red"/>
</g>
<g>
<rect x="0" y="0" width="576" height="396" fill="url(#glaze)"/>
<path d="M 36 36 L 540 36 L 540 360 L 36 360 Z M 72 72 L 72 324 L 504 324 L 504 72 Z" fill="rgb(255,255,255)" opacity="0.4"/>
<path d="M 0 0 L 576 0 L 576 396 L 0 396 Z M 36 36 L 36 360 L 540 360 L 540 36 Z" fill="rgb(0,0,0)" opacity="0.4"/>
</g>
</svg>
