<?xml version="1.0"?>
<svg xmlns="http://www.w3.org/2000/svg" xmlns:xlink="http://www.w3.org/1999/xlink" version="1.1" width="576" height="396" viewBox="0 0 576 396">
<!-- Generated by Kreative Vexillo v1.0 -->
<style>
.b{fill:rgb(15,71,175);}
.g{fill:rgb(7,137,48);}
.o{fill:rgb(235,119,17);}
.r{fill:rgb(218,18,26);}
.v{fill:rgb(116,44,100);}
.w{fill:rgb(255,255,255);}
.y{fill:rgb(252,221,9);}
</style>
<defs>
<linearGradient id="glaze" x1="0%" y1="0%" x2="100%" y2="100%">
<stop offset="0%" stop-color="rgb(255,255,255)" stop-opacity="0.2"/>
<stop offset="49.999%" stop-color="rgb(255,255,255)" stop-opacity="0.0"/>
<stop offset="50.001%" stop-color="rgb(0,0,0)" stop-opacity="0.0"/>
<stop offset="100%" stop-color="rgb(0,0,0)" stop-opacity="0.2"/>
</linearGradient>
</defs>
<g>
<g>
<rect x="0" y="0" width="82.2857" height="56.5714" class="r"/>
<rect x="82.2857" y="0" width="82.2857" height="56.5714" class="v"/>
<rect x="164.5714" y="0" width="82.2857" height="56.5714" class="b"/>
<rect x="246.8571" y="0" width="82.2857" height="56.5714" class="g"/>
<rect x="329.1429" y="0" width="82.2857" height="56.5714" class="w"/>
<rect x="411.4286" y="0" width="82.2857" height="56.5714" class="y"/>
<rect x="493.7143" y="0" width="82.2857" height="56.5714" class="o"/>
</g>
<g>
<rect x="0" y="56.5714" width="82.2857" height="56.5714" class="o"/>
<rect x="82.2857" y="56.5714" width="82.2857" height="56.5714" class="r"/>
<rect x="164.5714" y="56.5714" width="82.2857" height="56.5714" class="v"/>
<rect x="246.8571" y="56.5714" width="82.2857" height="56.5714" class="b"/>
<rect x="329.1429" y="56.5714" width="82.2857" height="56.5714" class="g"/>
<rect x="411.4286" y="56.5714" width="82.2857" height="56.5714" class="w"/>
<rect x="493.7143" y="56.5714" width="82.2857" height="56.5714" class="y"/>
</g>
<g>
<rect x="0" y="113.1429" width="82.2857" height="56.5714" class="y"/>
<rect x="82.2857" y="113.1429" width="82.2857" height="56.5714" class="o"/>
<rect x="164.5714" y="113.1429" width="82.2857" height="56.5714" class="r"/>
<rect x="246.8571" y="113.1429" width="82.2857" height="56.5714" class="v"/>
<rect x="329.1429" y="113.1429" width="82.2857" height="56.5714" class="b"/>
<rect x="411.4286" y="113.1429" width="82.2857" height="56.5714" class="g"/>
<rect x="493.7143" y="113.1429" width="82.2857" height="56.5714" class="w"/>
</g>
<g>
<rect x="0" y="169.7143" width="82.2857" height="56.5714" class="w"/>
<rect x="82.2857" y="169.7143" width="82.2857" height="56.5714" class="y"/>
<rect x="164.5714" y="169.7143" width="82.2857" height="56.5714" class="o"/>
<rect x="246.8571" y="169.7143" width="82.2857" height="56.5714" class="r"/>
<rect x="329.1429" y="169.7143" width="82.2857" height="56.5714" class="v"/>
<rect x="411.4286" y="169.7143" width="82.2857" height="56.5714" class="b"/>
<rect x="493.7143" y="169.7143" width="82.2857" height="56.5714" class="g"/>
</g>
<g>
<rect x="0" y="226.2857" width="82.2857" height="56.5714" class="g"/>
<rect x="82.2857" y="226.2857" width="82.2857" height="56.5714" class="w"/>
<rect x="164.5714" y="226.2857" width="82.2857" height="56.5714" class="y"/>
<rect x="246.8571" y="226.2857" width="82.2857" height="56.5714" class="o"/>
<rect x="329.1429" y="226.2857" width="82.2857" height="56.5714" class="r"/>
<rect x="411.4286" y="226.2857" width="82.2857" height="56.5714" class="v"/>
<rect x="493.7143" y="226.2857" width="82.2857" height="56.5714" class="b"/>
</g>
<g>
<rect x="0" y="282.8571" width="82.2857" height="56.5714" class="b"/>
<rect x="82.2857" y="282.8571" width="82.2857" height="56.5714" class="g"/>
<rect x="164.5714" y="282.8571" width="82.2857" height="56.5714" class="w"/>
<rect x="246.8571" y="282.8571" width="82.2857" height="56.5714" class="y"/>
<rect x="329.1429" y="282.8571" width="82.2857" height="56.5714" class="o"/>
<rect x="411.4286" y="282.8571" width="82.2857" height="56.5714" class="r"/>
<rect x="493.7143" y="282.8571" width="82.2857" height="56.5714" class="v"/>
</g>
<g>
<rect x="0" y="339.4286" width="82.2857" height="56.5714" class="v"/>
<rect x="82.2857" y="339.4286" width="82.2857" height="56.5714" class="b"/>
<rect x="164.5714" y="339.4286" width="82.2857" height="56.5714" class="g"/>
<rect x="246.8571" y="339.4286" width="82.2857" height="56.5714" class="w"/>
<rect x="329.1429" y="339.4286" width="82.2857" height="56.5714" class="y"/>
<rect x="411.4286" y="339.4286" width="82.2857" height="56.5714" class="o"/>
<rect x="493.7143" y="339.4286" width="82.2857" height="56.5714" class="r"/>
</g>
</g>
<g>
<rect x="0" y="0" width="576" height="396" fill="url(#glaze)"/>
<path d="M 36 36 L 540 36 L 540 360 L 36 360 Z M 72 72 L 72 324 L 504 324 L 504 72 Z" fill="rgb(255,255,255)" opacity="0.4"/>
<path d="M 0 0 L 576 0 L 576 396 L 0 396 Z M 36 36 L 36 360 L 540 360 L 540 36 Z" fill="rgb(0,0,0)" opacity="0.4"/>
</g>
</svg>
