<?xml version="1.0"?>
<svg xmlns="http://www.w3.org/2000/svg" xmlns:xlink="http://www.w3.org/1999/xlink" version="1.1" width="576" height="360" viewBox="0 0 576 360">
<!-- Generated by Kreative Vexillo v1.0 -->
<style>
.black{fill:rgb(0,0,0);}
.blue{fill:rgb(0,100,188);}
.red{fill:rgb(214,13,14);}
.white{fill:rgb(255,255,255);}
.yellow{fill:rgb(253,214,0);}
</style>
<defs>
<path id="rf" d="M 0.0839 0.0087 C 0.08939999 0.0238 0.092199996 0.047 0.0916 0.0709 C 0.090900004 0.0944 0.087 0.1108 0.0833 0.1149 C 0.0762 0.1231 0.045900002 0.1242 0.029600002 0.1247 L 0.029100003 0.1247 C 0.025700003 0.1247 0.022100002 0.124800004 0.018400002 0.125 L 0.017500002 0.125 C -0.008799998 0.1258 -0.036099996 0.1265 -0.0569 0.1327 C -0.0673 0.1357 -0.0755 0.1387 -0.0828 0.1414 C -0.0992 0.1475 -0.1111 0.1519 -0.1371 0.1519 C -0.14739999 0.1519 -0.1594 0.1512 -0.17359999 0.14969999 C -0.16749999 0.11499999 -0.16459998 0.08339999 -0.16239999 0.057599984 C -0.15859999 0.014499985 -0.15579998 -0.016700014 -0.1415 -0.016700014 C -0.1409 -0.016700014 -0.14019999 -0.016700014 -0.13949999 -0.016600015 C -0.12519999 -0.015000015 -0.09409999 -0.0145000145 -0.05799999 -0.013900015 C -0.010599989 -0.013100015 0.043100007 -0.0123000145 0.0702 -0.008700015 C 0.0753 -0.0077 0.0801 -0.0016 0.0839 0.0087 Z M -0.202 0.1749 C -0.2175 0.1953 -0.21180001 0.2668 -0.2053 0.2762 C -0.2045 0.2767 -0.2009 0.2784 -0.1865 0.2784 C -0.1789 0.2762 -0.16929999 0.2749 -0.16 0.2749 C -0.15779999 0.2749 -0.1556 0.27499998 -0.15359999 0.2751 C -0.1495 0.27539998 -0.1449 0.276 -0.13949999 0.2769 C -0.1302 0.2769 -0.12399999 0.2776 -0.11969999 0.2792 C -0.09009999 0.2898 -0.03909999 0.297 0.00720001 0.297 C 0.05350001 0.297 0.06750001 0.2898 0.06880001 0.2873 C 0.06880001 0.2872 0.06890001 0.2872 0.06890001 0.2871 C 0.080500014 0.262 0.08120001 0.22029999 0.08160001 0.19269998 C 0.08170001 0.18629998 0.081800014 0.18079999 0.08200001 0.17629999 C 0.08270001 0.14539999 0.05010001 0.13949999 0.030400008 0.1387 L 0.029800007 0.1387 C 0.026300007 0.1388 0.022700008 0.1389 0.019100007 0.139 C -0.0071999934 0.1406 -0.037899993 0.1479 -0.0677 0.1549 C -0.0978 0.162 -0.12619999 0.1687 -0.14469999 0.1679 C -0.14479999 0.1679 -0.14479999 0.1679 -0.1449 0.1679 C -0.1485 0.16759999 -0.152 0.1673 -0.1554 0.167 C -0.16299999 0.1663 -0.17009999 0.16569999 -0.1765 0.16569999 C -0.1897 0.1657 -0.1971 0.1684 -0.202 0.1749 Z M -0.0809 0.489 C -0.0577 0.489 -0.031999998 0.48839998 -0.0046999976 0.4879 C 0.019400002 0.4874 0.0443 0.4868 0.070700005 0.48659998 C 0.0723 0.4854 0.07390001 0.48419997 0.075500004 0.48299998 C 0.095000006 0.46859998 0.1133 0.45499998 0.1293 0.4288 C 0.1349 0.4199 0.1315 0.3936 0.114199996 0.3624 C 0.0963 0.3301 0.072299995 0.3092 0.052999996 0.3092 C 0.051299997 0.3092 0.049699996 0.30929998 0.048099995 0.3096 C 0.032799996 0.31239998 0.016799994 0.3138 2.999939E-4 0.3138 C -0.041700006 0.3138 -0.07970001 0.3048 -0.110300004 0.2975 C -0.121300004 0.2949 -0.13180001 0.2924 -0.14070001 0.2908 C -0.1474 0.2908 -0.15480001 0.2912 -0.16260001 0.2915 C -0.16990001 0.2918 -0.17750001 0.2922 -0.1843 0.2922 C -0.18910001 0.2939 -0.19160001 0.2957 -0.1922 0.2969 C -0.1922 0.297 -0.1923 0.297 -0.1923 0.2971 C -0.2132 0.3339 -0.2159 0.41640002 -0.2168 0.4435 C -0.21710001 0.453 -0.21450001 0.46040002 -0.2087 0.46640003 C -0.1895 0.4863 -0.1359 0.489 -0.0809 0.489 Z M -0.3098 -0.0384 C -0.1278 -0.032700002 0.045100003 -0.027500002 0.23450002 -0.021900002 C 0.23510002 -0.021900002 0.23570003 -0.021900002 0.23630002 -0.021900002 C 0.2711 -0.021900002 0.27850002 -0.0485 0.28500003 -0.0719 C 0.28660002 -0.0776 0.28810003 -0.0829 0.28990003 -0.087400004 C 0.29240003 -0.0934 0.29660004 -0.1013 0.30110005 -0.1098 C 0.30630004 -0.119600005 0.31220004 -0.1307 0.31610003 -0.1401 C 0.32080004 -0.1516 0.32050002 -0.1557 0.32030004 -0.1568 C 0.32030004 -0.1568 0.32030004 -0.1568 0.32030004 -0.1568 C 0.25850004 -0.1584 0.18980004 -0.1594 0.117100045 -0.1605 C -0.07339996 -0.16330001 -0.27039993 -0.1663 -0.38669991 -0.1798 C -0.3869999 -0.1798 -0.38729993 -0.1799 -0.3876999 -0.1799 C -0.3929999 -0.1799 -0.3942999 -0.1719 -0.3943999 -0.16530001 C -0.3946999 -0.14490001 -0.38419992 -0.112700015 -0.36879992 -0.08680001 C -0.351 -0.0566 -0.3295 -0.039 -0.3098 -0.0384 Z M 0.0031 -0.1788 C 0.018099999 -0.1788 0.031799998 -0.1799 0.043 -0.182 C 0.062300004 -0.2344 0.0828 -0.3801 0.0792 -0.39639997 C 0.0771 -0.40249997 0.0633 -0.42169997 0.0416 -0.44589996 C 0.0192 -0.47089997 0.004900001 -0.48279995 -3.0000135E-4 -0.48549998 C -0.005600001 -0.48319998 -0.0216 -0.47249997 -0.0482 -0.44979998 C -0.0721 -0.42949998 -0.089 -0.41279998 -0.0924 -0.40739998 C -0.0978 -0.37989998 -0.0855 -0.21519998 -0.0789 -0.18879998 C -0.0564 -0.1826 -0.0254 -0.1788 0.0031 -0.1788 Z"/>
<path id="rs" d="M 0.3324 -0.1635 C 0.3303 -0.16749999 0.3265 -0.17 0.3216 -0.1706 C 0.3214 -0.1706 0.32119998 -0.1706 0.3209 -0.1707 C 0.2589 -0.1723 0.19 -0.1733 0.1171 -0.1744 C 0.0965 -0.1747 0.0759 -0.175 0.0553 -0.1753 C 0.0756 -0.2282 0.0975 -0.3806 0.0926 -0.4 C 0.0926 -0.4002 0.0925 -0.4003 0.0925 -0.4004 C 0.0867 -0.4183 0.0211 -0.4952 0.0014000013 -0.4995 C 6.0000137E-4 -0.4997 -2.9999868E-4 -0.4997 -0.0011999987 -0.4996 C -0.011699999 -0.49789998 -0.040499996 -0.4745 -0.056799997 -0.4607 C -0.0611 -0.45700002 -0.0993 -0.4244 -0.10519999 -0.4131 C -0.10549999 -0.4126 -0.10569999 -0.41210002 -0.105799995 -0.4115 C -0.1126 -0.3833 -0.09819999 -0.1958 -0.09069999 -0.18 C -0.090299994 -0.17920001 -0.08979999 -0.17840001 -0.089099996 -0.1778 C -0.2057 -0.1805 -0.312 -0.1848 -0.3856 -0.1934 C -0.3865 -0.1935 -0.3873 -0.1935 -0.3881 -0.1935 C -0.3942 -0.1935 -0.40829998 -0.1907 -0.4087 -0.1652 C -0.4091 -0.1422 -0.398 -0.10769999 -0.3811 -0.079399996 C -0.3691 -0.059299998 -0.344 -0.025399994 -0.3105 -0.024399996 C -0.26029998 -0.022799997 -0.21079999 -0.021299995 -0.16139999 -0.019799996 C -0.16559999 -0.013799996 -0.16749999 -0.0068999957 -0.16849999 -0.003499996 C -0.17249998 0.011100004 -0.17429999 0.031200003 -0.1765 0.056600004 C -0.17889999 0.0834 -0.1819 0.11660001 -0.18849999 0.1527 C -0.19739999 0.1541 -0.20659998 0.1577 -0.21329999 0.1667 C -0.22479999 0.18190001 -0.22619998 0.21280001 -0.226 0.2299 C -0.2258 0.2509 -0.2228 0.2759 -0.21679999 0.2845 C -0.2146 0.2877 -0.2109 0.2899 -0.2049 0.2911 C -0.2271 0.3311 -0.2299 0.4155 -0.2308 0.4433 C -0.23120001 0.4565 -0.2272 0.46760002 -0.21880001 0.4763 C -0.1973 0.4986 -0.14810002 0.5031 -0.081000015 0.5031 C -0.057600014 0.5031 -0.031800017 0.5025 -0.0045000166 0.502 C 0.020299984 0.50149995 0.045899983 0.5009 0.072999984 0.5007 C 0.07449999 0.5007 0.07589998 0.5002 0.07709999 0.4993 C 0.07929999 0.4976 0.08149999 0.496 0.08369999 0.4944 C 0.103399985 0.4798 0.123699985 0.46469998 0.14109999 0.43629998 C 0.152 0.41889998 0.14159998 0.38329998 0.1264 0.35579997 C 0.11139999 0.32859996 0.09289999 0.30929998 0.07439999 0.30059996 C 0.07789999 0.29839996 0.080299996 0.29589996 0.081499994 0.29299995 C 0.094299994 0.26519996 0.09499999 0.22179995 0.09539999 0.19299996 C 0.09549999 0.18669996 0.095599994 0.18119995 0.09579999 0.17689995 C 0.09579999 0.17679995 0.09579999 0.17679995 0.09579999 0.17669995 C 0.09629999 0.15809995 0.08769999 0.14369994 0.07179999 0.13479996 C 0.081999995 0.13259995 0.08919999 0.12929995 0.09369999 0.124099955 C 0.107999995 0.10789996 0.109799996 0.039499953 0.09689999 0.0040999576 C 0.09449999 -0.0026000421 0.09159999 -0.008100042 0.088199995 -0.012300042 C 0.13599999 -0.010900043 0.1845 -0.009400043 0.234 -0.008000042 C 0.2347 -0.008000042 0.23539999 -0.008000042 0.2362 -0.008000042 C 0.2816 -0.008000042 0.2917 -0.044200044 0.2983 -0.06820004 C 0.2998 -0.07350004 0.3011 -0.07840004 0.3026 -0.082200035 C 0.3048 -0.087500036 0.3089 -0.09520003 0.3132 -0.103300035 C 0.3287 -0.1323 0.3383 -0.1521 0.3324 -0.1635 Z"/>
<path id="star" d="M 0.0 -1.0 L 0.2245 -0.309 L 0.9511 -0.309 L 0.3633 0.118 L 0.5878 0.809 L 0.0 0.382 L -0.5878 0.809 L -0.3633 0.118 L -0.9511 -0.309 L -0.2245 -0.309 Z"/>
</defs>
<g>
<g>
<rect x="0" y="0" width="288" height="360" class="yellow"/>
<rect x="288" y="0" width="288" height="360" class="white"/>
</g>
<use xlink:href="#rs" transform="translate(288 180) scale(360 360) rotate(0)" class="black"/>
<use xlink:href="#rf" transform="translate(288 180) scale(360 360) rotate(0)" class="red"/>
<use xlink:href="#star" transform="translate(504.8889 72) scale(30.6 30.6) rotate(45)" class="blue"/>
</g>
</svg>
