<?xml version="1.0"?>
<svg xmlns="http://www.w3.org/2000/svg" xmlns:xlink="http://www.w3.org/1999/xlink" version="1.1" width="576" height="360" viewBox="0 0 576 360">
<!-- Generated by Kreative Vexillo v1.0 -->
<style>
.black{fill:rgb(0,0,0);}
.red{fill:rgb(239,51,64);}
.white{fill:rgb(255,255,255);}
.yellow{fill:rgb(255,209,0);}
</style>
<defs>
<path id="e1" d="M -0.0161 -0.2825 C -0.0065 -0.2903 6.999988E-4 -0.29479998 -3.0000135E-4 -0.3 C -0.005600001 -0.29540002 -0.027700001 -0.30080003 -0.0291 -0.31080002 C -0.023300001 -0.31320003 -0.0248 -0.31170002 -0.0121 -0.3255 C -0.0406 -0.322 -0.0458 -0.3384 -0.0466 -0.34730002 C -0.041 -0.3476 -0.0366 -0.35240003 -0.0366 -0.35840002 C -0.0366 -0.35990003 -0.036900003 -0.36130002 -0.0374 -0.36260003 C -0.033 -0.36410004 -0.0299 -0.36820003 -0.0299 -0.37310004 C -0.0299 -0.37760004 -0.0326 -0.38150004 -0.0365 -0.38320005 C -0.0355 -0.38500005 -0.0348 -0.38700005 -0.0343 -0.38910004 C -0.0321 -0.38780004 -0.0295 -0.38710004 -0.0266 -0.38710004 C -0.0188 -0.38710004 -0.012499999 -0.39270005 -0.012499999 -0.39950004 C -0.012499999 -0.40450004 -0.015899999 -0.40890005 -0.020799998 -0.41080004 C -0.020099998 -0.41230005 -0.019599998 -0.41400003 -0.019599998 -0.41580003 C -0.019599998 -0.42270005 -0.025899999 -0.42840004 -0.033699997 -0.42840004 C -0.033899996 -0.42840004 -0.034099996 -0.42840004 -0.034199998 -0.42840004 C -0.034399997 -0.43510005 -0.040599998 -0.44040003 -0.048199996 -0.44040003 C -0.050099995 -0.44040003 -0.051899996 -0.44010004 -0.053499997 -0.43950003 C -0.055399995 -0.44440004 -0.060599998 -0.44790003 -0.0668 -0.44790003 C -0.0698 -0.44790003 -0.0725 -0.4471 -0.0748 -0.44570002 C -0.0773 -0.44930002 -0.0818 -0.45180002 -0.086899996 -0.45180002 C -0.0875 -0.45180002 -0.088 -0.45180002 -0.08849999 -0.45170003 C -0.084599994 -0.45570004 -0.08219999 -0.46090004 -0.08219999 -0.46660003 C -0.08219999 -0.47920004 -0.09379999 -0.48940003 -0.10809999 -0.48940003 C -0.122399986 -0.48940003 -0.13399999 -0.47920004 -0.13399999 -0.46660003 C -0.13399999 -0.46100003 -0.13159999 -0.45580003 -0.12779999 -0.45180002 C -0.12779999 -0.45180002 -0.12789999 -0.45180002 -0.12789999 -0.45180002 C -0.13309999 -0.45180002 -0.13759999 -0.44930002 -0.13999999 -0.44570002 C -0.14229998 -0.4471 -0.14499998 -0.44790003 -0.14799999 -0.44790003 C -0.15419999 -0.44790003 -0.15939999 -0.4444 -0.16129999 -0.43950003 C -0.16289999 -0.44010004 -0.16469999 -0.44040003 -0.16659999 -0.44040003 C -0.17419998 -0.44040003 -0.18039998 -0.43500003 -0.18069999 -0.42840004 C -0.1809 -0.42840004 -0.181 -0.42840004 -0.18119998 -0.42840004 C -0.18899998 -0.42840004 -0.19529998 -0.42280003 -0.19529998 -0.41580003 C -0.19529998 -0.41400003 -0.19489998 -0.41230002 -0.19409998 -0.41080004 C -0.19899997 -0.40890005 -0.20239998 -0.40450004 -0.20239998 -0.39950004 C -0.20239998 -0.39270005 -0.19609998 -0.38710004 -0.18829998 -0.38710004 C -0.18549998 -0.38710004 -0.18289998 -0.38780004 -0.18069999 -0.38910004 C -0.1802 -0.38680005 -0.17939998 -0.38460004 -0.17819999 -0.38270006 C -0.18139999 -0.38070005 -0.1836 -0.37720007 -0.1836 -0.37320006 C -0.1836 -0.36850005 -0.18069999 -0.36450005 -0.1766 -0.36290005 C -0.17709999 -0.36160004 -0.1774 -0.36010006 -0.1774 -0.35860005 C -0.1774 -0.35360005 -0.1743 -0.34950006 -0.17009999 -0.34800005 L -0.1731 -0.34240004 C -0.1731 -0.34240004 -0.1732 -0.34250003 -0.1732 -0.34250003 C -0.1771 -0.34510005 -0.1812 -0.34640002 -0.1853 -0.34640002 C -0.1918 -0.34640002 -0.1968 -0.34320003 -0.19929999 -0.34020004 C -0.20079999 -0.33840004 -0.20159999 -0.33660004 -0.20169999 -0.33480003 C -0.20279999 -0.33430004 -0.20529999 -0.33360004 -0.20839998 -0.33360004 C -0.21019998 -0.33360004 -0.21119998 -0.33380005 -0.21149997 -0.33390003 C -0.21749997 -0.33580002 -0.22299998 -0.33670002 -0.22799997 -0.33670002 C -0.24899997 -0.33670002 -0.25519997 -0.31980002 -0.25549996 -0.31070003 C -0.25559995 -0.30940002 -0.25589997 -0.30070004 -0.24939996 -0.29360002 C -0.25099996 -0.2939 -0.25169995 -0.29420003 -0.25209996 -0.29430002 L -0.25359997 -0.29510003 C -0.26009998 -0.29850003 -0.26369998 -0.30030003 -0.26069996 -0.31760004 L -0.25959995 -0.32420003 L -0.26579994 -0.32180002 C -0.28409994 -0.31470004 -0.28629994 -0.29810002 -0.28489995 -0.2903 L -0.28479996 -0.2899 C -0.28279996 -0.2829 -0.27439997 -0.2696 -0.25669995 -0.2696 C -0.25519994 -0.2696 -0.25369996 -0.2697 -0.25209996 -0.2699 C -0.23759997 -0.2716 -0.21619996 -0.2739 -0.19649996 -0.2739 C -0.19229996 -0.2739 -0.18839996 -0.27380002 -0.18479995 -0.2736 C -0.19379996 -0.27 -0.20369995 -0.264 -0.20999995 -0.25840002 L -0.21769994 -0.25160003 L -0.20739995 -0.25190002 C -0.19229995 -0.25230002 -0.17789996 -0.25140002 -0.17779996 -0.25140002 C -0.17729996 -0.25140002 -0.13019995 -0.24730003 -0.06939995 -0.21840003 L -0.065099955 -0.21630003 C -0.060499955 -0.20760003 -0.054599956 -0.19550003 -0.054799955 -0.19060002 C -0.071299955 -0.19400002 -0.08239996 -0.20210002 -0.12039995 -0.17470002 C -0.15749995 -0.18730003 -0.14829995 -0.18110003 -0.21209995 -0.16230002 C -0.23359996 -0.15600002 -0.25399995 -0.16910002 -0.25399995 -0.16910002 S -0.27469996 -0.19160002 -0.24209994 -0.20470002 C -0.23999994 -0.20930003 -0.26549995 -0.23540002 -0.29989994 -0.27280003 C -0.35339993 -0.33100003 -0.42849994 -0.41270003 -0.45489994 -0.45420003 C -0.49579993 -0.39910004 -0.45469993 -0.34440002 -0.40629995 -0.29350004 C -0.39069995 -0.28260005 -0.37719995 -0.27160004 -0.36289996 -0.26270002 C -0.32829997 -0.23890002 -0.29759997 -0.22660002 -0.29759997 -0.21610002 C -0.30229998 -0.21630003 -0.30439997 -0.21650003 -0.30779997 -0.21670002 C -0.31579995 -0.21860002 -0.4525 -0.2856 -0.47749996 -0.30780002 C -0.49769998 -0.24080002 -0.45249996 -0.23230003 -0.42179996 -0.21880002 C -0.39109996 -0.20530002 -0.34329996 -0.18680002 -0.30779997 -0.17990002 C -0.30829996 -0.17790002 -0.30789995 -0.17860001 -0.30839998 -0.17760003 C -0.33949998 -0.17000003 -0.43739998 -0.17340003 -0.4719 -0.17990002 C -0.4964 -0.10750002 -0.3275 -0.13090003 -0.3022 -0.14480002 C -0.3006 -0.14480002 -0.2999 -0.14480002 -0.2999 -0.14480002 S -0.3008 -0.14210002 -0.3016 -0.13970003 C -0.33110002 -0.115000024 -0.4363 -0.061500028 -0.4583 -0.053700022 C -0.428 0.039599977 -0.2918 -0.10230002 -0.2795 -0.11710002 C -0.2775 -0.11700002 -0.2772 -0.11710002 -0.2755 -0.11710002 C -0.2653 -0.10550002 -0.4059 0.06569997 -0.4271 0.08939997 C -0.3402 0.14969997 -0.2668 -0.036300026 -0.2336 -0.10070003 C -0.22940001 -0.09990003 -0.2279 -0.100100026 -0.2279 -0.100100026 S -0.22749999 -0.09020002 -0.229 -0.08710003 C -0.2281 -0.08130003 -0.3027 0.13409998 -0.3348 0.19689998 C -0.1981 0.19889998 -0.2046 -0.0021000206 -0.1826 -0.09730002 C -0.18190001 -0.09930002 -0.1789 -0.099600025 -0.17580001 -0.09900002 C -0.16830002 -0.08870002 -0.17950001 0.050599977 -0.186 0.10019998 C -0.081700005 0.07159998 -0.1257 -0.07430002 -0.12150001 -0.09440002 C -0.11730001 -0.10370002 -0.106800005 -0.10180002 -0.106800005 -0.10180002 S -0.0742 -0.0012 -0.0755 0.0089 C -0.080299996 0.018399999 -0.24859999 0.2482 -0.24859999 0.2482 L -0.2066 0.2445 L -0.3017 0.34399998 C -0.30269998 0.3448 -0.31 0.3498 -0.32459998 0.3491 C -0.34239998 0.34829998 -0.3527 0.331 -0.36099997 0.3172 L -0.36349997 0.313 L -0.36489996 0.3126 C -0.36839998 0.3116 -0.37539998 0.31019998 -0.37569997 0.31019998 L -0.37739998 0.3099 L -0.38109997 0.31269997 C -0.38249996 0.31149998 -0.38419998 0.31029996 -0.38619998 0.30919996 C -0.39279997 0.30589995 -0.39889997 0.30419996 -0.4046 0.30419996 C -0.42339998 0.30419996 -0.4308 0.32269996 -0.4321 0.32979995 L -0.4342 0.34139994 L -0.4258 0.33319995 C -0.41799998 0.32559994 -0.414 0.32189995 -0.4113 0.32189995 C -0.4092 0.32189995 -0.40600002 0.32409996 -0.4011 0.32739994 C -0.40010002 0.32809994 -0.3991 0.32879993 -0.39790002 0.32949993 C -0.3982 0.33139992 -0.39790002 0.33349994 -0.39670002 0.33569992 C -0.3941 0.3402999 -0.37180004 0.36159992 -0.3573 0.3682999 C -0.35790002 0.3682999 -0.35860002 0.3683999 -0.35930002 0.3683999 C -0.3702 0.3683999 -0.3828 0.3633999 -0.38290003 0.3633999 L -0.38350004 0.3631999 C -0.38390005 0.3630999 -0.38620004 0.3626999 -0.39780003 0.36169988 C -0.39870003 0.3615999 -0.39950004 0.3615999 -0.40020004 0.3615999 C -0.40490004 0.3615999 -0.40830004 0.3628999 -0.41040003 0.3655999 C -0.41120005 0.3665999 -0.41170004 0.3676999 -0.41200003 0.3687999 C -0.41860002 0.3711999 -0.42610002 0.3763999 -0.43230003 0.3871999 C -0.43760002 0.3964999 -0.42770004 0.4112999 -0.42650002 0.4129999 L -0.4207 0.4213999 L -0.41970003 0.4111999 C -0.41970003 0.4109999 -0.41790003 0.3949999 -0.40610003 0.3885999 C -0.40520003 0.39029992 -0.40440002 0.3917999 -0.40350002 0.3928999 C -0.4011 0.3959999 -0.39650002 0.3974999 -0.3896 0.3974999 C -0.37330002 0.3974999 -0.3472 0.3892999 -0.3438 0.3881999 C -0.3434 0.3881999 -0.3425 0.3880999 -0.3415 0.3880999 C -0.33990002 0.3880999 -0.3386 0.3882999 -0.3375 0.3885999 C -0.3543 0.4033999 -0.3667 0.4151999 -0.3728 0.4243999 C -0.3842 0.44279993 -0.3771 0.4530999 -0.3746 0.4557999 L -0.3742 0.4561999 C -0.3739 0.4564999 -0.3735 0.4566999 -0.37309998 0.45699993 C -0.37309998 0.45729992 -0.37309998 0.45779994 -0.37309998 0.45829993 C -0.37309998 0.46179995 -0.37319997 0.46829993 -0.3685 0.47309995 C -0.36499998 0.47659996 -0.35979998 0.47839993 -0.3529 0.47839993 C -0.3529 0.47839993 -0.3529 0.47839993 -0.3529 0.47839993 C -0.3501 0.47839993 -0.3469 0.47809994 -0.3435 0.47749993 L -0.33479998 0.47599992 L -0.34179997 0.47069994 C -0.34719998 0.46659994 -0.34969997 0.46199992 -0.35069996 0.45739993 C -0.34689996 0.45609993 -0.34359998 0.45409992 -0.34109995 0.45149994 C -0.33889994 0.44919994 -0.33689994 0.44489995 -0.33429995 0.43889993 C -0.33079994 0.43099993 -0.32599995 0.42019993 -0.31839997 0.40999994 C -0.30859998 0.39679992 -0.29219997 0.38499993 -0.28349996 0.38269994 C -0.28049996 0.38189992 -0.27719995 0.38149995 -0.27349997 0.38149995 C -0.25409997 0.38149995 -0.23159996 0.39249995 -0.23139997 0.39259994 L -0.23109996 0.39269993 C -0.23079996 0.3927999 -0.22769997 0.39399993 -0.22349997 0.39399993 C -0.21979997 0.39399993 -0.21389997 0.39299995 -0.20889997 0.38789994 C -0.19729997 0.39589992 -0.19869998 0.40189993 -0.19959998 0.40559992 C -0.19979998 0.40629992 -0.19989999 0.40689993 -0.19999999 0.40739992 L -0.20079999 0.41369992 L -0.19489999 0.41139993 C -0.189 0.40909994 -0.1845 0.40349993 -0.18239999 0.39589992 C -0.18119998 0.39139992 -0.18069999 0.38499993 -0.18319999 0.38179994 C -0.18899998 0.37459993 -0.19539998 0.37009993 -0.20089999 0.36739993 L -0.2038 0.35959992 L -0.2058 0.35909992 C -0.2067 0.35889992 -0.2283 0.35379994 -0.2466 0.35379994 C -0.2541 0.35379994 -0.2601 0.35469994 -0.2645 0.35639995 C -0.265 0.35659996 -0.2653 0.35669994 -0.2656 0.35669994 C -0.2656 0.35629994 -0.2655 0.35579994 -0.2652 0.35529995 C -0.2625 0.35039994 -0.25239998 0.33749995 -0.23849998 0.32229996 C -0.23519999 0.31879994 -0.23179999 0.31509995 -0.22829999 0.31129995 C -0.2085 0.29009995 -0.19219999 0.27219996 -0.1818 0.25819996 C -0.17819999 0.28189996 -0.1713 0.32449996 -0.16829999 0.32579994 C -0.1101 0.2069 -0.0538 0.1097 -0.0483 0.1045 C -0.039300002 0.18630001 -0.022400001 0.2464 -0.036900003 0.3219 C -0.051400002 0.3973 -0.14930001 0.45240003 -0.1864 0.4497 C -0.1886 0.44979998 -0.19139999 0.4478 -0.19489999 0.444 C -0.2206 0.4168 -0.22809999 0.4192 -0.24129999 0.4186 C -0.25449997 0.41799998 -0.27359998 0.4269 -0.2764 0.45029998 C -0.278 0.46359998 -0.2634 0.47349998 -0.2634 0.47349998 S -0.2663 0.45869997 -0.25379997 0.4531 C -0.24619998 0.4497 -0.23479998 0.45139998 -0.22889997 0.4599 C -0.22299998 0.4684 -0.22059996 0.4752 -0.21589997 0.4786 C -0.21119997 0.482 -0.18559997 0.4858 -0.18179998 0.48409998 C -0.17259997 0.4798 -0.07099998 0.46289998 -0.018499985 0.348 C -0.016999986 0.3448 -0.0139999855 0.3486 -0.014899986 0.35819998 C -0.015699986 0.3678 -0.029499985 0.4236 -0.043399986 0.43739998 C -0.047499985 0.4414 -0.054799985 0.4547 -0.043999985 0.4606 C -0.026699984 0.47 -9.999834E-4 0.4971 -9.999834E-4 0.4971 L -3.9998337E-4 -0.2676 C -3.0E-4 -0.2678 -0.0144 -0.2826 -0.0161 -0.2825 Z M -0.1607 -0.3896 L -0.1607 -0.39000002 L -0.1611 -0.391 C -0.1615 -0.39180002 -0.1636 -0.3959 -0.1605 -0.4004 C -0.157 -0.4054 -0.1469 -0.4135 -0.1181 -0.41520002 C -0.118 -0.41510004 -0.1179 -0.41500002 -0.1177 -0.41480002 C -0.1202 -0.4126 -0.121700004 -0.40950003 -0.121700004 -0.4061 C -0.121700004 -0.4027 -0.1202 -0.39970002 -0.1177 -0.3974 C -0.1202 -0.39519998 -0.121700004 -0.3921 -0.121700004 -0.38869998 C -0.121700004 -0.38699996 -0.121300004 -0.38529998 -0.1206 -0.38379997 L -0.1613 -0.38379997 C -0.1605 -0.3868 -0.1607 -0.3893 -0.1607 -0.3896 Z M -0.0977 -0.3977 C -0.0952 -0.39990002 -0.0937 -0.403 -0.0937 -0.40640002 C -0.0937 -0.40980002 -0.0952 -0.4128 -0.0977 -0.41510004 C -0.0976 -0.41520002 -0.0974 -0.41540003 -0.0973 -0.41550004 C -0.0682 -0.41370004 -0.0581 -0.40570006 -0.0546 -0.40060005 C -0.0515 -0.39610004 -0.0535 -0.39200005 -0.0539 -0.39130005 L -0.0544 -0.39060006 L -0.054500002 -0.38970006 C -0.054500002 -0.38930005 -0.054800004 -0.38690007 -0.0538 -0.38420007 L -0.0948 -0.38420007 C -0.094100006 -0.38570008 -0.09370001 -0.38730007 -0.09370001 -0.38910007 C -0.0937 -0.3924 -0.0952 -0.3954 -0.0977 -0.3977 Z M -0.2372 -0.2923 C -0.2361 -0.29529998 -0.2326 -0.29759997 -0.2307 -0.29849997 C -0.2266 -0.29869998 -0.2051 -0.29909998 -0.1823 -0.29279998 C -0.1869 -0.29279998 -0.1928 -0.29259998 -0.199 -0.2925 C -0.2076 -0.2923 -0.2173 -0.29209998 -0.2262 -0.29209998 C -0.2306 -0.2921 -0.2342 -0.2922 -0.2372 -0.2923 Z"/>
<path id="e2" d="M -0.1011 -0.4405 C -0.1011 -0.43789998 -0.1041 -0.4357 -0.107599996 -0.4357 C -0.111099996 -0.4357 -0.114099994 -0.4379 -0.114099994 -0.4405 C -0.114099994 -0.4431 -0.111099996 -0.4454 -0.107599996 -0.4454 C -0.1041 -0.4453 -0.1011 -0.4431 -0.1011 -0.4405 Z M -0.1057 -0.4282 C -0.106300004 -0.42810002 -0.107 -0.42810002 -0.1077 -0.42810002 C -0.108399995 -0.42810002 -0.1091 -0.4282 -0.109799996 -0.42830002 C -0.112399995 -0.4277 -0.1143 -0.42580003 -0.1143 -0.42370003 C -0.1143 -0.42110002 -0.1113 -0.41890004 -0.1078 -0.41890004 C -0.1043 -0.41890004 -0.1013 -0.42110005 -0.1013 -0.42370003 C -0.1013 -0.4257 -0.1032 -0.4276 -0.1057 -0.4282 Z M -0.1281 -0.4344 C -0.12459999 -0.4344 -0.1217 -0.43649998 -0.121599995 -0.4391 C -0.121599995 -0.4393 -0.121599995 -0.4395 -0.121599995 -0.4397 C -0.12189999 -0.44210002 -0.124699995 -0.44410002 -0.1281 -0.44410002 C -0.13159999 -0.44410002 -0.1346 -0.4419 -0.1346 -0.43930003 S -0.1316 -0.4344 -0.1281 -0.4344 Z M -0.1712 -0.4244 C -0.17 -0.4236 -0.1685 -0.4231 -0.1668 -0.4231 C -0.16330001 -0.4231 -0.1603 -0.4253 -0.1603 -0.4279 C -0.1603 -0.4305 -0.16330001 -0.43269998 -0.1668 -0.43269998 C -0.1703 -0.43269998 -0.17330001 -0.43049997 -0.17330001 -0.4279 C -0.17330001 -0.4269 -0.1729 -0.426 -0.17220001 -0.4252 C -0.1719 -0.4249 -0.1716 -0.4246 -0.1712 -0.4244 Z M -0.1482 -0.4305 C -0.1447 -0.4305 -0.1417 -0.4327 -0.1417 -0.4353 S -0.1447 -0.44009998 -0.1482 -0.44009998 C -0.1517 -0.44009998 -0.15470001 -0.43789998 -0.15470001 -0.4353 S -0.1517 -0.4305 -0.1482 -0.4305 Z M -0.1078 -0.3939 C -0.1113 -0.3939 -0.1143 -0.3917 -0.1143 -0.38910002 S -0.1113 -0.38430002 -0.1078 -0.38430002 C -0.1043 -0.38430002 -0.1013 -0.38650003 -0.1013 -0.38910002 S -0.1042 -0.3939 -0.1078 -0.3939 Z M -0.1134 -0.4518 C -0.1116 -0.4525 -0.109699994 -0.4529 -0.107599996 -0.4529 C -0.105799995 -0.4529 -0.103999995 -0.4526 -0.1024 -0.452 C -0.0951 -0.454 -0.089899994 -0.4597 -0.089899994 -0.4664 C -0.089899994 -0.4748 -0.09809999 -0.4816 -0.10829999 -0.4816 C -0.11839999 -0.4816 -0.1267 -0.4748 -0.1267 -0.4664 C -0.1267 -0.4595 -0.1211 -0.4536 -0.1134 -0.4518 Z M -0.067 -0.4305 C -0.0635 -0.4305 -0.060500003 -0.4327 -0.060500003 -0.4353 S -0.0635 -0.44009998 -0.067 -0.44009998 S -0.0735 -0.43789998 -0.0735 -0.4353 S -0.0705 -0.4305 -0.067 -0.4305 Z M -0.0484 -0.423 C -0.0467 -0.423 -0.0451 -0.4235 -0.044 -0.42430001 C -0.0437 -0.4246 -0.0434 -0.4248 -0.0432 -0.425 C -0.042400002 -0.42580003 -0.042 -0.42670003 -0.042 -0.4278 C -0.042 -0.4304 -0.044999998 -0.4326 -0.0485 -0.4326 C -0.052 -0.4326 -0.055 -0.43039998 -0.055 -0.4278 C -0.0549 -0.4252 -0.0519 -0.423 -0.0484 -0.423 Z M -0.0942 -0.4267 C -0.0939 -0.4257 -0.0938 -0.4247 -0.0938 -0.4236 C -0.0938 -0.4233 -0.0938 -0.4229 -0.0939 -0.4226 C -0.0656 -0.4203 -0.053600002 -0.4119 -0.048600003 -0.4048 C -0.0439 -0.3981 -0.045600004 -0.3912 -0.047100004 -0.3881 C -0.047100004 -0.3875 -0.046900004 -0.3866 -0.046500005 -0.386 C -0.045700006 -0.3849 -0.045100003 -0.3847 -0.045000006 -0.3847 C -0.045000006 -0.3847 -0.044900004 -0.3847 -0.044700004 -0.3848 C -0.041500006 -0.38639998 -0.040600006 -0.3956 -0.041200005 -0.3981 C -0.045 -0.4147 -0.0633 -0.4244 -0.0942 -0.4267 Z M -0.1078 -0.4112 C -0.1113 -0.4112 -0.1143 -0.40899998 -0.1143 -0.4064 C -0.1143 -0.40379998 -0.1113 -0.4015 -0.1078 -0.4015 C -0.1043 -0.4015 -0.1013 -0.4037 -0.1013 -0.4064 C -0.1013 -0.409 -0.1042 -0.4112 -0.1078 -0.4112 Z M -0.1706 -0.3849 C -0.1705 -0.38480002 -0.1704 -0.38480002 -0.17029999 -0.38480002 C -0.17019999 -0.38480002 -0.1696 -0.38500002 -0.1689 -0.38610002 C -0.16849999 -0.38670003 -0.1683 -0.38760003 -0.1683 -0.3882 C -0.16950001 -0.39080003 -0.1718 -0.3977 -0.16690001 -0.40480003 C -0.15990001 -0.41490003 -0.1447 -0.42080003 -0.12190001 -0.42260003 C -0.12190001 -0.42290002 -0.12200001 -0.42320004 -0.12200001 -0.42360002 C -0.12200001 -0.4246 -0.121800005 -0.4257 -0.12160001 -0.4266 C -0.15230002 -0.4242 -0.17050001 -0.4145 -0.17430001 -0.39810002 C -0.1747 -0.3958 -0.1737 -0.3865 -0.1706 -0.3849 Z M -0.0936 -0.4393 C -0.0936 -0.4367 -0.0906 -0.4345 -0.0871 -0.4345 S -0.0806 -0.43670002 -0.0806 -0.4393 S -0.0836 -0.4441 -0.0871 -0.4441 S -0.0936 -0.4419 -0.0936 -0.4393 Z M -0.3971 0.3771 C -0.3969 0.3766 -0.3974 0.37539998 -0.398 0.3744 C -0.39880002 0.3743 -0.3999 0.3741 -0.4013 0.3741 C -0.40820003 0.3741 -0.418 0.377 -0.42580003 0.3907 C -0.42700002 0.39270002 -0.42630002 0.3964 -0.42480004 0.40010002 C -0.42140004 0.39100003 -0.41410005 0.38090003 -0.40090004 0.37860003 C -0.398 0.3782 -0.3972 0.3774 -0.3971 0.3771 Z M -0.1777 -0.3359 C -0.1803 -0.33760002 -0.183 -0.33850002 -0.1857 -0.33850002 C -0.1907 -0.33850002 -0.194 -0.33540002 -0.1945 -0.33420002 C -0.1943 -0.33260003 -0.1948 -0.33110002 -0.1959 -0.3298 C -0.19919999 -0.32590002 -0.20719999 -0.3257 -0.20869999 -0.3257 C -0.21009998 -0.3257 -0.21219999 -0.3258 -0.21409999 -0.3264 C -0.21939999 -0.328 -0.22419998 -0.3289 -0.22829999 -0.3289 C -0.24739999 -0.3289 -0.24819998 -0.3109 -0.24819998 -0.31010002 L -0.24819998 -0.30980003 C -0.24819998 -0.30950004 -0.24869998 -0.30250004 -0.24309999 -0.29730004 C -0.23979999 -0.30280003 -0.23339999 -0.30550003 -0.23309998 -0.30570003 L -0.23249999 -0.30600002 L -0.23179999 -0.30600002 C -0.23169999 -0.30600002 -0.22979999 -0.3061 -0.22649999 -0.3061 C -0.21469998 -0.3061 -0.1845 -0.30470002 -0.15859999 -0.292 L -0.15819998 -0.2918 L -0.123299986 -0.2615 L -0.12689999 -0.255 C -0.12719999 -0.25509998 -0.15859999 -0.2651 -0.16979998 -0.2686 C -0.17029998 -0.2688 -0.17099999 -0.2688 -0.17169999 -0.2688 C -0.17769998 -0.2688 -0.18779999 -0.2643 -0.19619998 -0.259 C -0.18569998 -0.25890002 -0.17759998 -0.2584 -0.17749998 -0.2584 C -0.17559998 -0.2583 -0.13389999 -0.2547 -0.07719998 -0.2297 C -0.0999 -0.2631 -0.1673 -0.3291 -0.1777 -0.3359 Z M -0.1839 0.2317 L -0.2968 0.3498 C -0.2972 0.35009998 -0.3062 0.3576 -0.325 0.3568 C -0.3468 0.3558 -0.3588 0.3358 -0.36749998 0.32119998 L -0.36849996 0.3196 C -0.37079996 0.31899998 -0.37379995 0.3184 -0.37569997 0.318 L -0.37689996 0.3189 C -0.37559995 0.3223 -0.37589997 0.3254 -0.37659997 0.32729998 L -0.37679997 0.3279 L -0.37719998 0.3284 C -0.37759998 0.32889998 -0.38169998 0.3335 -0.38789997 0.3335 C -0.38819996 0.3335 -0.38859996 0.3335 -0.38889995 0.3334 C -0.38299996 0.3404 -0.35869995 0.36200002 -0.35009995 0.36270002 C -0.34529996 0.36310002 -0.34429994 0.3659 -0.34419996 0.3671 C -0.34359995 0.3711 -0.34819996 0.3739 -0.34939995 0.3744 L -0.34959996 0.37449998 C -0.35239995 0.37539998 -0.35569996 0.37589997 -0.35929996 0.37589997 C -0.37069997 0.37589997 -0.38289997 0.37139997 -0.38529995 0.37049997 C -0.38579994 0.37039998 -0.38759995 0.37019998 -0.39199996 0.36979997 C -0.39069995 0.37169996 -0.38839996 0.37569997 -0.38989997 0.37979996 C -0.39109996 0.38299996 -0.39409998 0.38509995 -0.39879996 0.38609996 C -0.39829996 0.38689998 -0.39789996 0.38769996 -0.39749995 0.38819996 C -0.39739996 0.38839996 -0.39599994 0.38989997 -0.38959995 0.38989997 C -0.37369996 0.38989997 -0.34609994 0.38089997 -0.34579995 0.38079998 L -0.34519994 0.3807 C -0.34499994 0.3807 -0.34349993 0.3804 -0.34149995 0.3804 C -0.33509997 0.3804 -0.33039996 0.3826 -0.32839996 0.3867 L -0.32709995 0.38930002 L -0.32929996 0.3912 C -0.34489995 0.4049 -0.36019996 0.4188 -0.36659995 0.4283 C -0.37319994 0.4389 -0.37209994 0.4454 -0.37049994 0.44849998 C -0.36749995 0.4448 -0.36209995 0.44099998 -0.35779995 0.44099998 C -0.35559994 0.44099998 -0.35409996 0.44199997 -0.35339993 0.4428 C -0.35259992 0.4437 -0.35159993 0.44529998 -0.35159993 0.4479 C -0.35159993 0.4484 -0.35159993 0.44889998 -0.35159993 0.4494 C -0.34969994 0.4485 -0.34799993 0.44750002 -0.34679994 0.4461 C -0.34549993 0.4447 -0.34349993 0.4403 -0.34139994 0.43559998 C -0.33769995 0.4274 -0.33269992 0.4161 -0.32469994 0.4053 C -0.31469995 0.3918 -0.29719993 0.37829998 -0.28569993 0.3752 C -0.28209993 0.37420002 -0.27809992 0.3737 -0.27369994 0.3737 C -0.25329995 0.3737 -0.23099995 0.3843 -0.22849993 0.38549998 C -0.22799994 0.3857 -0.22609994 0.38619998 -0.22369993 0.38619998 C -0.22039993 0.38619998 -0.21749993 0.38509998 -0.21519993 0.383 C -0.21919993 0.3793 -0.22139993 0.3755 -0.22149993 0.37179998 C -0.22169994 0.36779997 -0.21959993 0.36519998 -0.21849993 0.36409998 C -0.22629993 0.3627 -0.23709993 0.36119998 -0.24679993 0.36119998 C -0.25329992 0.36119998 -0.25839993 0.36189997 -0.26189992 0.36329997 C -0.26639992 0.36509997 -0.27039993 0.36409998 -0.27229992 0.36099997 C -0.27379993 0.35839996 -0.2736999 0.35469997 -0.27199993 0.35159996 C -0.26919994 0.34639996 -0.25919992 0.33339995 -0.24419993 0.31709996 C -0.24089994 0.31359994 -0.23749994 0.30989996 -0.23399994 0.30609995 C -0.21099994 0.28139997 -0.18269993 0.25109994 -0.17799994 0.23689994 C -0.1807 0.2351 -0.1826 0.2333 -0.1839 0.2317 Z M -0.2138 0.3706 C -0.2139 0.37089998 -0.2139 0.3712 -0.2139 0.37159997 C -0.2138 0.37279996 -0.2128 0.37609997 -0.2055 0.38099998 C -0.19590001 0.38739997 -0.19270001 0.39369997 -0.1919 0.39859998 C -0.1914 0.39769998 -0.191 0.39679998 -0.1907 0.39599997 C -0.18879999 0.39129996 -0.189 0.38709998 -0.18939999 0.38609996 C -0.1985 0.3747 -0.2094 0.3715 -0.2138 0.3706 Z M -0.0471 -0.3619 L -0.0472 -0.3619 C -0.047900002 -0.3619 -0.054 -0.3619 -0.0782 -0.3619 L -0.1672 -0.3619 C -0.1689 -0.3619 -0.1702 -0.3603 -0.1702 -0.3583 C -0.1702 -0.3563 -0.1689 -0.3547 -0.1673 -0.3547 H -0.0472 C -0.0456 -0.3547 -0.0443 -0.3563 -0.0443 -0.3583 C -0.0442 -0.3603 -0.0455 -0.3619 -0.0471 -0.3619 Z M -0.0309 -0.4112 C -0.0288 -0.412 -0.0272 -0.41369998 -0.0272 -0.4157 C -0.0272 -0.4184 -0.0302 -0.42069998 -0.0337 -0.42069998 S -0.040200002 -0.4184 -0.040200002 -0.4157 C -0.040200002 -0.413 -0.037200004 -0.4107 -0.033700004 -0.4107 C -0.033000004 -0.4107 -0.032300003 -0.41079998 -0.031600006 -0.41099998 C -0.0315 -0.411 -0.0312 -0.4111 -0.0309 -0.4112 Z M -0.041 -0.3766 L -0.0447 -0.3766 L -0.1727 -0.3766 C -0.1747 -0.3766 -0.1763 -0.375 -0.1763 -0.373 C -0.1763 -0.3711 -0.17480001 -0.36949998 -0.1729 -0.3694 C -0.1727 -0.3694 -0.1726 -0.3694 -0.17240001 -0.3694 L -0.16720001 -0.3694 C -0.16720001 -0.3694 -0.16720001 -0.3694 -0.16720001 -0.3694 L -0.07820001 -0.3694 L -0.049400013 -0.3694 C -0.048900012 -0.3694 -0.048400015 -0.3694 -0.047800012 -0.3694 L -0.04690001 -0.3694 L -0.04690001 -0.3694 C -0.04680001 -0.3694 -0.046700012 -0.3694 -0.046700012 -0.3694 L -0.040800013 -0.3694 C -0.038900014 -0.36949998 -0.03740001 -0.3711 -0.03740001 -0.373 C -0.0375 -0.375 -0.039 -0.3766 -0.041 -0.3766 Z M -0.3969 0.321 C -0.39519998 0.3221 -0.3933 0.32340002 -0.3912 0.3248 C -0.3901 0.3255 -0.38910002 0.3258 -0.388 0.3258 C -0.386 0.3258 -0.3844 0.3246 -0.3836 0.3239 C -0.3834 0.32250002 -0.3838 0.31890002 -0.3899 0.3158 C -0.3954 0.31300002 -0.4004 0.3116 -0.4048 0.3116 C -0.409 0.3116 -0.4123 0.3129 -0.415 0.3148 C -0.4138 0.3144 -0.4127 0.31419998 -0.41149998 0.31419998 C -0.4069 0.3143 -0.4031 0.3168 -0.3969 0.321 Z M -0.1885 -0.3946 C -0.185 -0.3946 -0.182 -0.3968 -0.182 -0.3994 C -0.182 -0.402 -0.185 -0.4042 -0.1885 -0.4042 C -0.192 -0.4042 -0.19500001 -0.40199998 -0.19500001 -0.3994 C -0.195 -0.3968 -0.1921 -0.3946 -0.1885 -0.3946 Z M -0.3658 0.4551 C -0.3656 0.4559 -0.3656 0.4568 -0.3657 0.4579 C -0.3657 0.4606 -0.3658 0.46469998 -0.3632 0.4673 C -0.3612 0.4693 -0.3578 0.4703 -0.35300002 0.4703 C -0.35290003 0.4703 -0.3528 0.4703 -0.35270002 0.4703 C -0.35900003 0.4624 -0.35920003 0.4538 -0.3591 0.44869998 C -0.3617 0.4499 -0.3655 0.4534 -0.3658 0.4551 Z M -0.2571 -0.2769 C -0.2559 -0.2769 -0.25469998 -0.27699998 -0.2534 -0.2771 C -0.2388 -0.2788 -0.217 -0.2812 -0.1969 -0.2812 C -0.1874 -0.2812 -0.17909999 -0.2807 -0.1723 -0.2796 C -0.16759999 -0.2789 -0.1621 -0.2771 -0.1566 -0.275 C -0.1643 -0.2806 -0.1714 -0.2848 -0.175 -0.2851 C -0.1783 -0.2854 -0.1881 -0.2852 -0.199 -0.2849 C -0.2076 -0.2847 -0.2174 -0.2845 -0.2263 -0.2845 C -0.24790001 -0.2845 -0.2534 -0.2859 -0.256 -0.2873 L -0.2574 -0.288 C -0.2653 -0.29209998 -0.2707 -0.2961 -0.26950002 -0.31109998 C -0.2793 -0.304 -0.2781 -0.29309997 -0.2779 -0.2914 C -0.2773 -0.2898 -0.2726 -0.2769 -0.2571 -0.2769 Z M -0.1842 -0.4112 C -0.1839 -0.4111 -0.18370001 -0.41099998 -0.1834 -0.4109 C -0.18270001 -0.4107 -0.1821 -0.4106 -0.1813 -0.4106 C -0.1778 -0.4106 -0.1748 -0.4129 -0.1748 -0.4156 C -0.1748 -0.4184 -0.1777 -0.4206 -0.1813 -0.4206 C -0.1848 -0.4206 -0.1878 -0.4183 -0.1878 -0.4156 C -0.1879 -0.4137 -0.1864 -0.412 -0.1842 -0.4112 Z M -0.0266 -0.4042 C -0.0301 -0.4042 -0.0331 -0.40199998 -0.0331 -0.3994 C -0.0331 -0.39679998 -0.030100001 -0.3946 -0.026600001 -0.3946 S -0.020100001 -0.3968 -0.020100001 -0.3994 C -0.0201 -0.402 -0.0231 -0.4042 -0.0266 -0.4042 Z"/>
<path id="e3" d="M -0.0979 -0.3257 C -0.0979 -0.3217 -0.1036 -0.3185 -0.1105 -0.3185 C -0.1174 -0.3185 -0.1231 -0.3217 -0.1231 -0.3257 C -0.1231 -0.3273 -0.1222 -0.32880002 -0.1206 -0.33 C -0.1215 -0.3291 -0.122 -0.328 -0.122 -0.32680002 C -0.122 -0.32400003 -0.1192 -0.3217 -0.1157 -0.3217 C -0.1122 -0.3217 -0.1094 -0.324 -0.1094 -0.32680002 S -0.1122 -0.3318 -0.1157 -0.33190003 C -0.116399996 -0.33190003 -0.117 -0.33180004 -0.117699996 -0.33160004 C -0.1157 -0.33240005 -0.113199994 -0.33290005 -0.110599995 -0.33290005 C -0.1035 -0.3329 -0.0979 -0.3297 -0.0979 -0.3257 Z M -0.1371 -0.3354 C -0.13769999 -0.33679998 -0.13329999 -0.3419 -0.13329999 -0.3419 S -0.1432 -0.3403 -0.1431 -0.3337 C -0.14289999 -0.3227 -0.108799994 -0.3404 -0.08829999 -0.3366 C -0.1031 -0.343 -0.1348 -0.3304 -0.1371 -0.3354 Z"/>
<path id="e4" d="M 0.0093 0.3075 C 0.0093 0.31780002 -9.999983E-5 0.3264 -0.0117 0.32660002 L -0.0153 0.3267 L -0.0154 0.3303 C -0.0156 0.3406 -0.0252 0.349 -0.0368 0.349 C -0.0484 0.349 -0.058 0.3406 -0.0582 0.3303 L -0.058300003 0.3267 L -0.061900005 0.32660002 C -0.073400006 0.32630002 -0.08270001 0.31770003 -0.08270001 0.3075 S -0.073400006 0.2887 -0.061900005 0.2884 L -0.058300003 0.2883 L -0.0582 0.2847 C -0.058000002 0.2743 -0.0484 0.2658 -0.0368 0.2658 C -0.025200002 0.2658 -0.015600001 0.2743 -0.0154 0.2847 L -0.0153 0.2883 L -0.011700001 0.2884 C 1.0E-4 0.2886 0.0093 0.297 0.0093 0.3075 Z M 0.1618 -0.2532 V -0.22569999 H 0.1182 V -0.1669 H 0.0861 V -0.22569999 H 0.042 V -0.2532 H 0.0861 V -0.312 H 0.1182 V -0.2532 H 0.1618 Z M 0.227 -0.3584 V -0.4231 H 0.1482 V -0.38349998 H 0.0986 V -0.4231 H 0.0192 V -0.32459998 H 7.0E-4 V -0.42169997 C 7.0E-4 -0.42989996 -0.0029 -0.43749997 -0.0092 -0.4428 C -0.0112000005 -0.45619997 -0.022599999 -0.46609998 -0.0363 -0.46609998 C -0.0498 -0.46609998 -0.0612 -0.45639998 -0.0634 -0.4432 C -0.0698 -0.438 -0.0736 -0.4301 -0.0736 -0.4218 C -0.0736 -0.42159998 -0.0736 -0.4215 -0.0736 -0.4213 C -0.0736 -0.4209 -0.0737 -0.4204 -0.0736 -0.41979998 V 0.098 H -0.0757 C -0.0861 0.098 -0.0945 0.1064 -0.0945 0.116799995 C -0.0945 0.12709999 -0.0861 0.1355 -0.0758 0.1356 H -0.0736 V 0.1461 H -0.0754 C -0.0858 0.1461 -0.0943 0.1546 -0.0943 0.1651 S -0.0858 0.18409999 -0.0754 0.18409999 H -0.0706 C -0.07520001 0.21079999 -0.09110001 0.24559999 -0.1455 0.2708 C -0.1473 0.2615 -0.15550001 0.25439999 -0.16530001 0.25439999 C -0.1764 0.25439999 -0.18550001 0.26349998 -0.18550001 0.27459997 C -0.18550001 0.27479997 -0.18550001 0.27499998 -0.18550001 0.27539998 L -0.18550001 0.2846 C -0.1992 0.2861 -0.2099 0.29689997 -0.2099 0.31 C -0.2099 0.3231 -0.1992 0.3339 -0.18550001 0.33540002 L -0.18550001 0.3449 C -0.18550001 0.34510002 -0.18550001 0.34530002 -0.18550001 0.34550002 C -0.18550001 0.35660002 -0.1764 0.3657 -0.16530001 0.3657 C -0.15540001 0.3657 -0.14720002 0.35860002 -0.1455 0.3492 H -0.1451 V 0.3492 C -0.0941 0.372 -0.0769 0.39880002 -0.0711 0.4213 H -0.0722 C -0.0833 0.4213 -0.0924 0.43039998 -0.0924 0.4415 C -0.0924 0.4526 -0.0833 0.46170002 -0.0722 0.46170002 C -0.0719 0.46170002 -0.0717 0.46170002 -0.0714 0.46160004 H -0.064100005 C -0.062100004 0.47380003 -0.050600003 0.48330003 -0.036700003 0.48330003 C -0.022800002 0.48330003 -0.011300003 0.47390002 -0.009300003 0.46160004 H -0.0022000028 C -0.0019000028 0.46160004 -0.0016000028 0.46170002 -0.0014000027 0.46170002 C 0.009799996 0.46170002 0.018799996 0.45260003 0.018799996 0.4415 C 0.018799996 0.4303 0.009699996 0.4213 -0.0014000032 0.4213 H -0.0017000032 C 0.0040999968 0.3988 0.021199998 0.37199998 0.072299995 0.3492 C 0.074099995 0.3585 0.08229999 0.3655 0.092099994 0.3655 C 0.103199996 0.3655 0.11229999 0.3564 0.11229999 0.34530002 C 0.11229999 0.3449 0.11229999 0.34460002 0.11229999 0.34430003 V 0.33530003 C 0.1259 0.33370003 0.1364 0.32290003 0.1364 0.31000003 C 0.1364 0.29700002 0.1259 0.28630003 0.1123 0.28470004 V 0.27540004 C 0.1123 0.27510005 0.1123 0.27470005 0.1123 0.27440006 C 0.1123 0.26330006 0.1032 0.25420004 0.0921 0.25420004 C 0.0823 0.25420004 0.074 0.26130003 0.0723 0.27070004 H 0.0721 C 0.0205 0.2469 0.003 0.2146 -0.0025 0.1841 H 0.0019999999 C 0.012499999 0.1841 0.021 0.1756 0.021 0.16510001 C 0.021 0.15460001 0.012499999 0.14610001 0.0020000003 0.14610001 H 7.000003E-4 V 0.13560002 H 9.0E-4 C 0.0113 0.13560002 0.0197 0.12720002 0.0197 0.11680002 C 0.0197 0.10640002 0.0113 0.09800002 9.0000033E-4 0.09800002 H 7.0E-4 V -0.1547 H 0.0192 V -0.0563 H 0.0986 V -0.095300004 H 0.1482 V -0.056300003 H 0.227 V -0.1204 H 0.1823 V -0.1547 H 0.227 V -0.3247 H 0.1823 V -0.3585 H 0.227 Z"/>
<path id="e5" d="M -0.1451 0.2997 V 0.2789 C -0.0874 0.2533 -0.0687 0.2176 -0.0632 0.1841 H -0.041399997 C -0.0447 0.2085 -0.0611 0.2707 -0.1451 0.2997 Z M -0.0316 0.4213 H -0.009299999 C -0.0026999991 0.3927 0.0172 0.3647 0.0718 0.34109998 V 0.3178 C -0.0069 0.3382 -0.0267 0.3948 -0.0316 0.4213 Z M -0.0368 0.4758 C -0.0272 0.4758 -0.019100001 0.4697 -0.0171 0.46170002 L -0.056500003 0.46170002 C -0.0545 0.4697 -0.0465 0.4758 -0.0368 0.4758 Z M -0.0423 0.4213 C -0.0501 0.3723 -0.0846 0.3381 -0.1451 0.3194 V 0.34100002 C -0.09019999 0.36460003 -0.0703 0.39270002 -0.063599996 0.42130002 H -0.0423 Z M -0.2024 0.31 C -0.2024 0.3189 -0.1951 0.3263 -0.1855 0.3277 L -0.1855 0.2922 C -0.1951 0.2937 -0.2024 0.3011 -0.2024 0.31 Z M 0.0718 0.3081 V 0.30999997 C -0.0032999963 0.32869998 -0.028399996 0.37879997 -0.036699995 0.40949997 C -0.039299995 0.39799997 -0.044499993 0.38319996 -0.055499993 0.36829996 C -0.07419999 0.34269997 -0.10429999 0.32369995 -0.1451 0.31139997 V 0.30759996 C -0.070199996 0.28269997 -0.0454 0.23239997 -0.037199996 0.20119996 C -0.0271 0.24 0.0054 0.2869 0.0718 0.3081 Z M -0.0081 0.2811 C -0.010100001 0.2683 -0.022300001 0.2583 -0.0367 0.2583 C -0.0511 0.2583 -0.0633 0.2683 -0.0653 0.2811 C -0.0794 0.2829 -0.090100005 0.294 -0.090100005 0.3075 C -0.090100005 0.321 -0.079500005 0.33200002 -0.0653 0.3339 C -0.063200004 0.3468 -0.051300004 0.3565 -0.036700003 0.3565 C -0.022400003 0.3565 -0.010300003 0.3466 -0.008100003 0.3339 C 0.0058999974 0.3321 0.016899997 0.3208 0.016899997 0.3075 C 0.0168 0.2939 0.0061 0.2829 -0.0081 0.2811 Z M 0.1122 0.2923 V 0.3103 L 0.1128 0.31039998 L 0.1122 0.31049997 V 0.32769996 C 0.1216 0.32619995 0.1288 0.31879997 0.1288 0.30999997 C 0.1288 0.3012 0.1216 0.2938 0.1122 0.2923 Z M 0.1748 -0.366 V -0.3171 H 0.21949999 V -0.16229999 H 0.1748 V -0.11289999 H 0.21949999 V -0.063899994 H 0.1558 V -0.1029 H 0.091 V -0.063899994 H 0.0267 V -0.16229999 H 7.0E-4 V -0.3171 H 0.026700001 V -0.4156 H 0.091 V -0.376 H 0.1557 V -0.4156 H 0.21939999 V -0.366 H 0.1748 Z M 0.1693 -0.2607 H 0.1258 V -0.3195 H 0.0786 V -0.2607 H 0.0345 V -0.21809998 H 0.078600004 V -0.15929998 H 0.12580001 V -0.21809998 H 0.1694 V -0.2607 Z M -0.0104 0.1841 H -0.0327 C -0.030499998 0.20470001 -0.020799998 0.22760001 -0.0057999976 0.24689999 C 0.0078000026 0.2645 0.031900004 0.2868 0.07180001 0.3001 V 0.2788 C 0.0115 0.2518 -0.0055 0.2127 -0.0104 0.1841 Z M -0.0758 0.128 H -0.0661 H -0.0069 H 8.9999987E-4 C 0.0071 0.128 0.0121 0.123 0.0121 0.11680001 C 0.0121 0.11050001 0.0072 0.105600014 9.0000033E-4 0.105600014 H -0.0068999995 H -0.0661 H -0.0758 C -0.082 0.105600014 -0.087 0.11060002 -0.087 0.11680001 C -0.0869 0.1229 -0.0819 0.128 -0.0758 0.128 Z M -0.0069 0.1355 H -0.0661 V 0.146 H -0.0069 V 0.1355 Z M -0.066 0.098 H -0.0069 V -0.1622 V -0.317 V -0.4217 C -0.0069 -0.428 -0.0099 -0.4339 -0.0151 -0.4377 L -0.0164 -0.4387 L -0.0166 -0.4404 C -0.0176 -0.4507 -0.026099999 -0.4585 -0.036399998 -0.4585 C -0.0466 -0.4585 -0.055099998 -0.4509 -0.056199998 -0.4407 L -0.056399997 -0.43899998 L -0.0578 -0.438 C -0.063099995 -0.4342 -0.0661 -0.4283 -0.0661 -0.4217 C -0.0661 -0.4214 -0.0661 -0.4211 -0.0661 -0.4207 C -0.0661 -0.4205 -0.0661 -0.4203 -0.0661 -0.42020002 L -0.0661 -0.4198 V 0.098 Z M -0.0754 0.1536 C -0.081700005 0.1536 -0.0868 0.1587 -0.0868 0.16510001 S -0.081700005 0.17660001 -0.075500004 0.17660001 H 0.002 C 0.0083 0.17660001 0.0134000005 0.17150001 0.0134000005 0.16510001 C 0.0134000005 0.1588 0.008300001 0.1536 0.0020000003 0.1536 H -0.0069 H -0.0661 H -0.0754 Z M -0.0014 0.4288 H -0.0107 H -0.032700002 H -0.041200005 H -0.062100004 H -0.0722 C -0.0792 0.4288 -0.0849 0.43449998 -0.0849 0.44149998 C -0.0849 0.4484 -0.0793 0.45409998 -0.072399996 0.45409998 C -0.0721 0.45409998 -0.07179999 0.454 -0.071499996 0.454 H -0.056599997 H -0.017099995 H -0.0022999952 C -0.0019999952 0.454 -0.0016999951 0.454 -0.0013999952 0.45409998 C 0.0055000046 0.454 0.011100005 0.4484 0.011100005 0.44149998 C 0.0112 0.4345 0.0055 0.4288 -0.0014 0.4288 Z M 0.1047 0.2744 C 0.1047 0.2674 0.099 0.2618 0.0921 0.2618 C 0.0851 0.2618 0.079500005 0.26749998 0.079500005 0.2744 L 0.079500005 0.2821 L 0.079500005 0.2821 L 0.079500005 0.2906 L 0.079500005 0.3159 L 0.079500005 0.3159 L 0.079500005 0.3219 L 0.079500005 0.3413 L 0.079500005 0.34510002 C 0.079500005 0.3522 0.085200004 0.3578 0.0921 0.3578 C 0.0991 0.3578 0.1047 0.3521 0.1047 0.3452 L 0.1047 0.3447 L 0.1047 0.3445 L 0.1047 0.3118 V 0.31170002 L 0.1047 0.31170002 L 0.1047 0.3086 L 0.1047 0.3086 L 0.1047 0.29230002 L 0.1047 0.29230002 L 0.1047 0.27470002 C 0.1047 0.2746 0.1047 0.2745 0.1047 0.2744 Z M -0.1653 0.262 C -0.1723 0.262 -0.1779 0.2677 -0.1779 0.2747 C -0.1779 0.27499998 -0.1779 0.27519998 -0.1779 0.2755 V 0.2925 V 0.30879998 V 0.311 V 0.3277 V 0.3448 C -0.1779 0.345 -0.1779 0.3452 -0.1779 0.3455 C -0.1779 0.35259998 -0.1722 0.3583 -0.1653 0.3583 S -0.15269999 0.3526 -0.15269999 0.3457 V 0.338 V 0.3173 V 0.3024 V 0.2823 V 0.275 C -0.1527 0.2677 -0.1584 0.262 -0.1653 0.262 Z"/>
<path id="e6" d="M 0.0038 0.5 H -0.0038 V -0.5 H 0.0038 V 0.5 Z"/>
</defs>
<g>
<g>
<rect x="0" y="0" width="288" height="360" class="yellow"/>
<rect x="288" y="0" width="288" height="360" class="red"/>
</g>
<use xlink:href="#e1" transform="translate(288 180) scale(360 360) rotate(0)" class="black"/>
<use xlink:href="#e2" transform="translate(288 180) scale(360 360) rotate(0)" class="red"/>
<use xlink:href="#e3" transform="translate(288 180) scale(360 360) rotate(0)" class="white"/>
<use xlink:href="#e4" transform="translate(432 180) scale(360 360) rotate(0)" class="black"/>
<use xlink:href="#e5" transform="translate(432 180) scale(360 360) rotate(0)" class="yellow"/>
<use xlink:href="#e6" transform="translate(288 180) scale(360 360) rotate(0)" class="black"/>
</g>
</svg>
