<?xml version="1.0"?>
<svg xmlns="http://www.w3.org/2000/svg" xmlns:xlink="http://www.w3.org/1999/xlink" version="1.1" width="576" height="360" viewBox="0 0 576 360">
<!-- Generated by Kreative Vexillo v1.0 -->
<style>
.black{fill:rgb(0,0,0);}
.red{fill:rgb(232,66,63);}
.white{fill:rgb(255,255,255);}
</style>
<defs>
<path id="clf" d="M -0.0039 -0.1321 L -0.060399998 -0.096200004 L -0.039899997 -0.1621 L -0.0917 -0.1976 H -0.025899999 L -0.003899999 -0.2569 V -0.1321 Z M -0.0039 0.305 L -0.025899999 0.3643 H -0.0917 L -0.0399 0.3998 L -0.0604 0.4657 L -0.0039000027 0.4298 V 0.305 Z M -0.0039 0.1177 L -0.0259 0.177 H -0.0917 L -0.0399 0.2125 L -0.0604 0.2784 L -0.0039000027 0.2425 V 0.1177 Z M -0.0603 0.0911 L -0.003800001 0.0553 V -0.0696 L -0.0258 -0.0103 H -0.0916 L -0.0398 0.025200002 L -0.0603 0.0911 Z M -0.0603 -0.2835 L -0.003800001 -0.31939998 V -0.44419998 L -0.0258 -0.38489997 H -0.0916 L -0.0398 -0.34939998 L -0.0603 -0.2835 Z"/>
<path id="crf" d="M 0.0255 0.3649 H 0.0911 L 0.039 0.3998 L 0.0599 0.4662 L 0.0037 0.4299 V 0.3054 L 0.0255 0.3649 Z M 0.0037 -0.2566 V -0.132 L 0.06 -0.095699996 L 0.039 -0.1621 L 0.0911 -0.197 H 0.0255 L 0.0037 -0.2566 Z M 0.0037 0.118 V 0.2425 L 0.06 0.2788 L 0.0391 0.21240002 L 0.091199994 0.17750002 H 0.0255 L 0.0037 0.118 Z M 0.0037 -0.4439 V -0.31939998 L 0.06 -0.28309998 L 0.0391 -0.34949997 L 0.091199994 -0.38439998 H 0.0255 L 0.0037 -0.4439 Z M 0.0912 -0.0097 H 0.0255 L 0.0037 -0.0693 V 0.055299997 L 0.06 0.0916 L 0.039 0.0252 L 0.0912 -0.0097 Z"/>
<path id="cs" d="M 0.0308 0.3574 L 0.0037 0.2835 V 0.25149998 L 0.0735 0.29649997 L 0.048 0.21559997 L 0.116000004 0.16999997 H 0.0308 L 0.0037 0.0962 V 0.0642 L 0.0735 0.1091 L 0.048 0.0282 L 0.116000004 -0.017299999 H 0.0308 L 0.0037 -0.0911 V -0.1231 L 0.0735 -0.078099996 L 0.048 -0.159 L 0.116000004 -0.20459999 H 0.0308 L 0.0037 -0.2784 V -0.3104 L 0.0735 -0.2655 L 0.048 -0.34640002 L 0.116000004 -0.39190003 H 0.0308 L 0.0037 -0.4657 V -0.5 H -0.0037999998 V -0.4659 L -0.031 -0.3925 H -0.11579999 L -0.048599996 -0.34640002 L -0.07349999 -0.2662 L -0.0037999898 -0.3105 V -0.2786 L -0.03099999 -0.2051 H -0.115799986 L -0.04859999 -0.159 L -0.07349999 -0.07879999 L -0.0037999898 -0.1231 V -0.091199994 L -0.03099999 -0.017699994 H -0.115799986 L -0.04859999 0.028400008 L -0.07349999 0.108500004 L -0.0037999898 0.0642 V 0.0961 L -0.03099999 0.16960001 H -0.115799986 L -0.04859999 0.21570002 L -0.07349999 0.29580003 L -0.0037999898 0.25150004 V 0.28340003 L -0.03099999 0.35680002 H -0.115799986 L -0.04859999 0.4029 L -0.07349999 0.4831 L -0.0037999898 0.4388 V 0.5 H 0.00370001 V 0.4389 L 0.07350001 0.4838 L 0.048000008 0.403 L 0.11600001 0.3575 H 0.0308 Z"/>
<path id="lf" d="M 0.0258 0.2566 H 0.0916 L 0.0398 0.29209998 L 0.0602 0.3579 L 1.0E-4 0.3192 L -0.059499998 0.35790002 L -0.0391 0.29150003 L -0.0911 0.25660002 H -0.0255 L 1.9999966E-4 0.18670002 L 0.0258 0.2566 Z M -0.0391 -0.2704 L -0.0595 -0.204 L 1.0E-4 -0.2427 L 0.0603 -0.204 L 0.0398 -0.2698 L 0.0916 -0.3053 H 0.0258 L 1.0E-4 -0.3752 L -0.0256 -0.3053 H -0.0912 L -0.0391 -0.2704 Z M -0.0595 -0.0167 L 1.0E-4 -0.0554 L 0.0603 -0.0167 L 0.0398 -0.0825 L 0.0916 -0.118 H 0.0258 L 1.0E-4 -0.1878 L -0.0256 -0.11790001 H -0.0912 L -0.0392 -0.083000004 L -0.0595 -0.0167 Z M 0.0916 0.0693 H 0.0258 L 1.0E-4 -5.0E-4 L -0.0256 0.0694 H -0.0912 L -0.0392 0.10429999 L -0.059600003 0.17069998 L 1.0E-4 0.1319 L 0.0603 0.1706 L 0.039899997 0.10479999 L 0.0916 0.0693 Z"/>
<path id="ls" d="M -0.0728 -0.1864 L -0.047900002 -0.2672 L -0.11590001 -0.3128 H -0.030900009 L -9.313226E-9 -0.39699998 L 0.03089999 -0.3128 H 0.11579999 L 0.048599996 -0.2667 L 0.07349999 -0.1864 L -7.4505806E-9 -0.23369999 L -0.0728 -0.1864 Z M -0.0728 9.0E-4 L -0.047900002 -0.08 L -0.11590001 -0.1255 H -0.030800007 L 9.999238E-5 -0.20969999 L 0.030999992 -0.1255 H 0.115899995 L 0.048699997 -0.07939999 L 0.0736 9.0E-4 L 1.0E-4 -0.0464 L -0.0728 9.0E-4 Z M -0.0728 0.1882 L -0.047900002 0.1074 L -0.11590001 0.0619 H -0.030800007 L 1.0E-4 -0.0224 L 0.031 0.061800003 H 0.115899995 L 0.048699997 0.10790001 L 0.073599994 0.18820001 L 9.999424E-5 0.14090002 L -0.0728 0.1882 Z M -0.0728 0.3755 L -0.047900002 0.2946 L -0.11590001 0.24910001 H -0.030800007 L 9.999238E-5 0.1649 L 0.030999992 0.2491 H 0.115899995 L 0.048699997 0.2952 L 0.073599994 0.3755 L 1.0E-4 0.3281 L -0.0728 0.3755 Z"/>
<path id="rf" d="M -0.0256 -0.3053 L 9.999983E-5 -0.3752 L 0.025799999 -0.3053 H 0.0916 L 0.0399 -0.2698 L 0.0603 -0.204 L 1.0E-4 -0.2427 L -0.059499998 -0.204 L -0.0391 -0.2704 L -0.091199994 -0.3053 H -0.0256 Z M 1.0E-4 0.1868 L -0.0256 0.2567 H -0.0912 L -0.039100002 0.29160002 L -0.0595 0.358 L 9.999797E-5 0.3193 L 0.060299996 0.3581 L 0.039899997 0.2923 L 0.0916 0.2568 H 0.0258 L 1.0E-4 0.1868 Z M 0.0916 0.0693 H 0.0258 L 1.0E-4 -6.0E-4 L -0.0256 0.069299996 H -0.0912 L -0.039100002 0.10419999 L -0.0595 0.1706 L 9.999797E-5 0.1319 L 0.060299996 0.1706 L 0.039899997 0.10479999 L 0.0916 0.0693 Z M -0.0595 -0.0167 L 9.999797E-5 -0.0554 L 0.060299996 -0.0167 L 0.0399 -0.0825 L 0.0916 -0.118 H 0.0258 L 1.0E-4 -0.1878 L -0.0256 -0.11790001 H -0.0912 L -0.039100002 -0.083000004 L -0.0595 -0.0167 Z"/>
<path id="rs" d="M -0.0728 -0.1864 L -0.047900002 -0.2672 L -0.11590001 -0.3128 H -0.030800007 L 1.0E-4 -0.397 L 0.0311 -0.31280002 H 0.115899995 L 0.048699997 -0.26670003 L 0.073599994 -0.18640003 L 9.999424E-5 -0.23370002 L -0.0728 -0.1864 Z M -0.0728 9.0E-4 L -0.047900002 -0.08 L -0.11590001 -0.1255 H -0.030800007 L 1.0E-4 -0.2096 L 0.0311 -0.1254 H 0.115899995 L 0.048699997 -0.0793 L 0.0736 9.0E-4 L 1.0E-4 -0.0464 L -0.0728 9.0E-4 Z M -0.0728 0.1882 L -0.047900002 0.1074 L -0.11590001 0.0619 H -0.030800007 L 1.0E-4 -0.0224 L 0.0311 0.0618 H 0.115899995 L 0.048699997 0.1079 L 0.073599994 0.1882 L 1.0E-4 0.1409 L -0.0728 0.1882 Z M -0.0728 0.3755 L -0.047900002 0.2946 L -0.11590001 0.24910001 H -0.030800007 L 1.0E-4 0.165 L 0.0311 0.2491 H 0.115899995 L 0.048699997 0.2952 L 0.073599994 0.3755 L 1.0E-4 0.3281 L -0.0728 0.3755 Z"/>
</defs>
<g>
<g>
<rect x="0" y="0" width="288" height="360" class="white"/>
<rect x="288" y="0" width="288" height="360" class="red"/>
</g>
<use xlink:href="#ls" transform="translate(130.752 180) scale(360 360) rotate(0)" class="black"/>
<use xlink:href="#lf" transform="translate(130.752 180) scale(360 360) rotate(0)" class="red"/>
<use xlink:href="#cs" transform="translate(288 180) scale(360 360) rotate(0)" class="black"/>
<use xlink:href="#clf" transform="translate(288 180) scale(360 360) rotate(0)" class="red"/>
<use xlink:href="#crf" transform="translate(288 180) scale(360 360) rotate(0)" class="white"/>
<use xlink:href="#rs" transform="translate(445.248 180) scale(360 360) rotate(0)" class="black"/>
<use xlink:href="#rf" transform="translate(445.248 180) scale(360 360) rotate(0)" class="white"/>
</g>
</svg>
