<?xml version="1.0"?>
<svg xmlns="http://www.w3.org/2000/svg" xmlns:xlink="http://www.w3.org/1999/xlink" version="1.1" width="576" height="360" viewBox="0 0 576 360">
<!-- Generated by Kreative Vexillo v1.0 -->
<style>
.green{fill:rgb(69,90,33);}
.white{fill:rgb(255,255,255);}
.yellow{fill:rgb(232,148,26);}
</style>
<defs>
<path id="branch" d="M -0.6355 0.2119 C -0.6355 0.2119 -0.6406 0.2555 -0.62270004 0.276 C -0.60480005 0.2965 -0.5612 0.3196 -0.54580003 0.3222 C -0.53040004 0.3248 -0.5637 0.2658 -0.5637 0.2658 C -0.5637 0.2658 -0.6124 0.2043 -0.6355 0.212 Z M -0.6278 0.3222 C -0.6278 0.3222 -0.6227 0.3632 -0.5945 0.3684 C -0.56630003 0.37350002 -0.5407 0.37100002 -0.5407 0.37100002 C -0.5407 0.37100002 -0.5407 0.3248 -0.6279 0.32230002 Z M -0.5355 0.2376 C -0.5355 0.2376 -0.5073 0.2479 -0.5073 0.2735 C -0.5073 0.29909998 -0.50990003 0.32479998 -0.50990003 0.32479998 C -0.50990003 0.32479998 -0.53040004 0.2992 -0.53040004 0.28629997 C -0.53040004 0.27349997 -0.53550005 0.23759997 -0.53550005 0.23759997 Z M -0.5459 0.3919 C -0.5459 0.3919 -0.5495 0.41730002 -0.5205 0.41730002 C -0.49150002 0.41730002 -0.5169 0.3847 -0.5459 0.3919 Z M -0.5477 0.4318 C -0.5477 0.4318 -0.5169 0.42270002 -0.4806 0.43 C -0.4443 0.4373 -0.4262 0.4644 -0.4262 0.4644 C -0.4262 0.4644 -0.4643 0.47529998 -0.5078 0.4644 C -0.5513 0.4535 -0.5477 0.4318 -0.5477 0.4318 Z M -0.5278 0.3411 C -0.5278 0.3411 -0.48430002 0.32840002 -0.4426 0.42270002 C -0.4426 0.42270002 -0.5224 0.40280002 -0.5278 0.3411 Z M -0.4825 0.3212 C -0.4825 0.3212 -0.4335 0.294 -0.3937 0.42090002 C -0.3937 0.42090002 -0.4499 0.3991 -0.48250002 0.3212 Z M -0.4172 0.439 C -0.4172 0.439 -0.3682 0.42090002 -0.3048 0.4952 C -0.4081 0.4916 -0.4172 0.439 -0.4172 0.439 Z M -0.3844 0.4045 C -0.3844 0.4045 -0.38680002 0.43310001 -0.36760002 0.43310001 C -0.34840003 0.43310001 -0.3652 0.39630002 -0.3844 0.4045 Z M -0.4197 0.4788 C -0.4197 0.4788 -0.42159998 0.5038 -0.4066 0.5038 C -0.3916 0.5038 -0.4047 0.47169998 -0.4197 0.47879997 Z M -0.2702 0.5559 C -0.2702 0.5559 -0.27260002 0.58449996 -0.25340003 0.58449996 C -0.23420003 0.58449996 -0.25100002 0.5476999 -0.2702 0.5559 Z M -0.2249 0.4707 C -0.2249 0.4707 -0.2273 0.4993 -0.2081 0.4993 C -0.18890001 0.4993 -0.20570001 0.4625 -0.2249 0.4707 Z M -0.3447 0.4209 C -0.3447 0.4209 -0.27580002 0.4028 -0.2468 0.48979998 C -0.33020002 0.47709998 -0.3447 0.4209 -0.3447 0.4209 Z M -0.4063 0.517 C -0.4063 0.517 -0.3283 0.49710003 -0.2921 0.52430004 C -0.2558 0.5515 -0.361 0.56240004 -0.4063 0.517 Z M -0.2703 0.5188 C -0.2703 0.5188 -0.2177 0.4934 -0.1597 0.5496 C -0.2685 0.5641 -0.2703 0.5188 -0.2703 0.5188 Z M -0.1815 0.4844 C -0.1815 0.4844 -0.1289 0.4681 -0.078200005 0.5642 C -0.19240001 0.54789996 -0.1815 0.48439997 -0.1815 0.48439997 Z M -0.0908 0.5895 C -0.0908 0.5895 -0.1488 0.6294 -0.2213 0.5877 C -0.2213 0.5877 -0.19770001 0.5387 -0.0908 0.5895 Z M 0.6044 0.211 C 0.6044 0.211 0.6095 0.2546 0.5916 0.2751 C 0.5737 0.2956 0.5301 0.3187 0.5147 0.3213 C 0.4993 0.3239 0.5326 0.2649 0.5326 0.2649 C 0.5326 0.2649 0.58129996 0.2034 0.6044 0.2111 Z M 0.5967 0.3213 C 0.5967 0.3213 0.5916 0.3623 0.56340003 0.3675 C 0.5352 0.37260002 0.50960004 0.37010002 0.50960004 0.37010002 C 0.50960004 0.37010002 0.50960004 0.3239 0.5968 0.32140002 Z M 0.5044 0.2367 C 0.5044 0.2367 0.4762 0.247 0.4762 0.2726 C 0.4762 0.29819998 0.47880003 0.32389998 0.47880003 0.32389998 C 0.47880003 0.32389998 0.49930003 0.2983 0.49930003 0.28539997 C 0.49930003 0.27259997 0.5044 0.23669997 0.5044 0.23669997 Z M 0.5148 0.391 C 0.5148 0.391 0.5184 0.41640002 0.4894 0.41640002 C 0.4604 0.41640002 0.4858 0.38380003 0.5148 0.391 Z M 0.5166 0.4309 C 0.5166 0.4309 0.48580003 0.42180002 0.44950002 0.4291 C 0.41320002 0.4364 0.39510003 0.46350002 0.39510003 0.46350002 C 0.39510003 0.46350002 0.43320003 0.4744 0.47670004 0.46350002 C 0.5202 0.45260003 0.5166 0.43090004 0.5166 0.43090004 Z M 0.4967 0.3402 C 0.4967 0.3402 0.45319998 0.32750002 0.41149998 0.42180002 C 0.41149998 0.42180002 0.4913 0.40190002 0.4967 0.3402 Z M 0.4514 0.3203 C 0.4514 0.3203 0.40240002 0.2931 0.36260003 0.42000002 C 0.36260003 0.42000002 0.41880003 0.3982 0.45140004 0.3203 Z M 0.3861 0.4381 C 0.3861 0.4381 0.3371 0.42000002 0.2737 0.4943 C 0.377 0.4907 0.3861 0.4381 0.3861 0.4381 Z M 0.3534 0.4036 C 0.3534 0.4036 0.3558 0.4322 0.3366 0.4322 C 0.3174 0.4322 0.3342 0.39540002 0.3534 0.4036 Z M 0.3887 0.4778 C 0.3887 0.4778 0.3906 0.5028 0.3756 0.5028 C 0.36060002 0.5028 0.37370002 0.4707 0.3887 0.47779998 Z M 0.2391 0.555 C 0.2391 0.555 0.24149999 0.5836 0.2223 0.5836 C 0.2031 0.5836 0.2199 0.54679996 0.2391 0.555 Z M 0.1938 0.4698 C 0.1938 0.4698 0.1962 0.4984 0.177 0.4984 C 0.1578 0.4984 0.1746 0.4616 0.1938 0.4698 Z M 0.3136 0.42 C 0.3136 0.42 0.24470001 0.4019 0.2157 0.48889998 C 0.2991 0.47619998 0.3136 0.42 0.3136 0.42 Z M 0.3752 0.5161 C 0.3752 0.5161 0.2972 0.4962 0.261 0.5234 C 0.2247 0.5506 0.3299 0.5615 0.3752 0.5161 Z M 0.2392 0.5179 C 0.2392 0.5179 0.1866 0.49249998 0.1286 0.5487 C 0.2374 0.5632 0.2392 0.5179 0.2392 0.5179 Z M 0.1504 0.4835 C 0.1504 0.4835 0.0978 0.4672 0.0471 0.5633 C 0.1613 0.547 0.1504 0.4835 0.1504 0.4835 Z M 0.0597 0.5886 C 0.0597 0.5886 0.117699996 0.6285 0.1902 0.5868 C 0.1902 0.5868 0.1666 0.53779995 0.059699997 0.5886 Z M -0.0265 0.6119 C -0.0265 0.6119 -0.0662 0.66569996 -0.0662 0.66059995 C -0.0662 0.65549994 -0.0944 0.6323999 -0.0944 0.6323999 L -0.045700002 0.5964999 L -0.0649 0.5874999 L -0.054600004 0.5759999 L -0.018700004 0.5913999 M -0.0156 0.6118 C -0.0156 0.6118 0.024100002 0.6656 0.024100002 0.6605 C 0.024100002 0.6554 0.052300002 0.6323 0.052300002 0.6323 L 0.0036000013 0.5964 L 0.022800002 0.5874 L 0.012500002 0.5759 L -0.023399998 0.5913 M -0.0291 0.6145 L -1.5111 -1.0"/>
<path id="cyprus" d="M -0.7483 -0.2419 C -0.7483 -0.2419 -0.7278 -0.1881 -0.7047 -0.1881 C -0.6816 -0.1881 -0.6201 -0.183 -0.6201 -0.183 C -0.6201 -0.183 -0.58930004 -0.1881 -0.5791 -0.2163 C -0.56880003 -0.2445 -0.5406 -0.3625 -0.39960003 -0.2907 C -0.25860003 -0.2189 -0.25090003 -0.4138 -0.25090003 -0.4138 L -0.27400002 -0.4471 L -0.2689 -0.5112 C -0.2689 -0.5112 -0.192 -0.45740002 -0.14330001 -0.45990002 C -0.09460001 -0.46250004 -0.05870001 -0.44450003 -0.04330001 -0.44450003 C -0.02790001 -0.44450003 0.020799987 -0.42910004 0.020799987 -0.42910004 L 0.14639997 -0.42400002 C 0.14639997 -0.42400002 0.16689998 -0.4419 0.18739998 -0.43940002 C 0.20789999 -0.4368 0.20789999 -0.45220003 0.24639998 -0.45220003 C 0.28489998 -0.45220003 0.32329997 -0.50090003 0.32329997 -0.50090003 C 0.32329997 -0.50090003 0.33359998 -0.5112 0.39 -0.50090003 C 0.39 -0.50090003 0.4285 -0.5317 0.4849 -0.5496 C 0.5413 -0.5675 0.5336 -0.5906 0.5336 -0.5906 C 0.5336 -0.5906 0.5746 -0.59830004 0.5926 -0.5957 C 0.6105 -0.5931 0.6208 -0.6265 0.6208 -0.6265 L 0.66440004 -0.6316 L 0.68230003 -0.65720004 L 0.72590005 -0.66490006 C 0.72590005 -0.66490006 0.77720004 -0.70080006 0.78490007 -0.7239001 C 0.7926001 -0.7470001 0.85160005 -0.7290001 0.85160005 -0.7290001 C 0.85160005 -0.7290001 0.87720007 -0.7521001 0.8798001 -0.7649001 C 0.8824001 -0.77770007 0.9054001 -0.7675001 0.9054001 -0.7675001 L 0.9028001 -0.7265001 L 0.87460005 -0.7111001 L 0.87460005 -0.6855001 L 0.83100003 -0.6855001 L 0.8284 -0.65990007 L 0.7925 -0.65730006 L 0.7874 -0.62650007 L 0.7797 -0.6137001 L 0.7694 -0.6086001 L 0.7438 -0.6086001 L 0.7335 -0.5932001 L 0.7079 -0.5753001 L 0.69 -0.5522001 L 0.6541 -0.5548001 L 0.631 -0.5240001 L 0.6156 -0.5266001 L 0.5925 -0.4881001 L 0.5746 -0.46500012 L 0.5643 -0.44960013 L 0.5464 -0.44450012 L 0.5413 -0.4240001 L 0.5105 -0.41630012 L 0.4695 -0.4060001 L 0.4541 -0.38810012 C 0.4541 -0.38810012 0.41050002 -0.3009001 0.45670003 -0.27020013 C 0.5029 -0.23940013 0.5054 -0.20610014 0.5054 -0.20610014 L 0.5285 -0.19070014 L 0.5464 -0.15990014 L 0.55410004 -0.12400015 C 0.55410004 -0.12400015 0.5464 -0.11890015 0.53620005 -0.12140015 C 0.52590007 -0.12400015 0.508 -0.12650014 0.508 -0.12650014 L 0.4875 -0.14440015 L 0.449 -0.14700015 L 0.4285 -0.123900145 C 0.4285 -0.123900145 0.4182 -0.108500145 0.4182 -0.098300144 C 0.4182 -0.08800014 0.41309997 -0.09060015 0.4003 -0.098300144 C 0.3875 -0.10600014 0.36699998 -0.11880015 0.36699998 -0.11880015 L 0.33879998 -0.12650014 L 0.33619997 -0.13930014 L 0.31829998 -0.12900014 C 0.31829998 -0.12900014 0.31319997 -0.11360014 0.3029 -0.11870014 C 0.29259998 -0.123800136 0.28239998 -0.123800136 0.28239998 -0.123800136 L 0.2645 -0.123800136 C 0.2645 -0.123800136 0.22349998 -0.09300014 0.2286 0.0069998577 L 0.18239999 0.014699858 L 0.15929998 0.03519986 L 0.14649999 0.04799986 L 0.113199994 0.04799986 L 0.0953 0.06339986 L 0.061999995 0.07619986 L 0.046599995 0.09669986 L 0.005599994 0.09929986 L -0.012300005 0.11209986 L -0.020000005 0.12999986 L -0.048200004 0.11209986 L -0.08670001 0.10179986 L -0.120000005 0.10949986 C -0.120000005 0.10949986 -0.1303 0.112099856 -0.14050001 0.11979986 C -0.1508 0.12749986 -0.179 0.13259986 -0.179 0.13259986 C -0.179 0.13259986 -0.19690001 0.13769986 -0.19690001 0.14799985 C -0.19690001 0.15829985 -0.202 0.17619985 -0.202 0.17619985 L -0.202 0.21469985 C -0.202 0.21469985 -0.2071 0.24029985 -0.22760001 0.24029985 C -0.24810001 0.24029985 -0.243 0.24029985 -0.2532 0.23769985 C -0.2635 0.23509985 -0.2609 0.21209985 -0.2609 0.21209985 L -0.2609 0.18389985 L -0.3019 0.14539985 L -0.3275 0.13509986 L -0.3557 0.13769986 L -0.38129997 0.15309986 L -0.40439996 0.16849986 C -0.40439996 0.16849986 -0.39929995 0.18639986 -0.41719997 0.17359985 C -0.43509996 0.16079986 -0.44799995 0.15569985 -0.44799995 0.15569985 L -0.47109994 0.14289986 L -0.50189996 0.13519986 L -0.525 0.10699986 L -0.584 0.10439986 L -0.6353 0.04539986 L -0.6507 0.02999986 L -0.6533 -0.01620014 L -0.68659997 -0.02130014 L -0.68659997 -0.04690014 L -0.69939995 -0.07250014 L -0.69429994 -0.11870014 L -0.7250999 -0.13150014 L -0.7378999 -0.17510015 Z"/>
</defs>
<g>
<rect x="0" y="0" width="576" height="360" class="white"/>
<use xlink:href="#cyprus" transform="translate(288 180) scale(180 180) rotate(0)" class="yellow"/>
<use xlink:href="#branch" transform="translate(288 180) scale(180 180) rotate(0)" class="green"/>
</g>
</svg>
