<?xml version="1.0"?>
<svg xmlns="http://www.w3.org/2000/svg" xmlns:xlink="http://www.w3.org/1999/xlink" version="1.1" width="576" height="360" viewBox="0 0 576 360">
<!-- Generated by Kreative Vexillo v1.0 -->
<style>
.blue{fill:rgb(30,33,113);}
.green{fill:rgb(73,169,66);}
.orange{fill:rgb(251,181,104);}
.white{fill:rgb(255,255,255);}
</style>
<defs>
<path id="disc" d="M 0.5 0.0 A 0.5 0.5 0.0 0 0 -0.5 0.0 A 0.5 0.5 0.0 0 0 0.5 0.0 Z"/>
<path id="spoke" d="M 0.0 1.0 L 0.0343 0.4 C 0.0343 0.4 0.0 0.1143 0.0 0.1143 C 0.0 0.1143 -0.0343 0.4 -0.0343 0.4 L 0.0 1.0 Z"/>
</defs>
<g>
<g>
<rect x="0" y="0" width="576" height="120" class="orange"/>
<rect x="0" y="120" width="576" height="120" class="white"/>
<rect x="0" y="240" width="576" height="120" class="green"/>
</g>
<ellipse cx="288" cy="180" rx="48" ry="48" class="blue"/>
<ellipse cx="288" cy="180" rx="42" ry="42" class="white"/>
<ellipse cx="288" cy="180" rx="8.4" ry="8.4" class="blue"/>
<g>
<use xlink:href="#spoke" transform="translate(288 180) scale(42 42) rotate(0)" class="blue"/>
<use xlink:href="#spoke" transform="translate(288 180) scale(42 42) rotate(15)" class="blue"/>
<use xlink:href="#spoke" transform="translate(288 180) scale(42 42) rotate(30)" class="blue"/>
<use xlink:href="#spoke" transform="translate(288 180) scale(42 42) rotate(45)" class="blue"/>
<use xlink:href="#spoke" transform="translate(288 180) scale(42 42) rotate(60)" class="blue"/>
<use xlink:href="#spoke" transform="translate(288 180) scale(42 42) rotate(75)" class="blue"/>
<use xlink:href="#spoke" transform="translate(288 180) scale(42 42) rotate(90)" class="blue"/>
<use xlink:href="#spoke" transform="translate(288 180) scale(42 42) rotate(105)" class="blue"/>
<use xlink:href="#spoke" transform="translate(288 180) scale(42 42) rotate(120)" class="blue"/>
<use xlink:href="#spoke" transform="translate(288 180) scale(42 42) rotate(135)" class="blue"/>
<use xlink:href="#spoke" transform="translate(288 180) scale(42 42) rotate(150)" class="blue"/>
<use xlink:href="#spoke" transform="translate(288 180) scale(42 42) rotate(165)" class="blue"/>
<use xlink:href="#spoke" transform="translate(288 180) scale(42 42) rotate(180)" class="blue"/>
<use xlink:href="#spoke" transform="translate(288 180) scale(42 42) rotate(195)" class="blue"/>
<use xlink:href="#spoke" transform="translate(288 180) scale(42 42) rotate(210)" class="blue"/>
<use xlink:href="#spoke" transform="translate(288 180) scale(42 42) rotate(225)" class="blue"/>
<use xlink:href="#spoke" transform="translate(288 180) scale(42 42) rotate(240)" class="blue"/>
<use xlink:href="#spoke" transform="translate(288 180) scale(42 42) rotate(255)" class="blue"/>
<use xlink:href="#spoke" transform="translate(288 180) scale(42 42) rotate(270)" class="blue"/>
<use xlink:href="#spoke" transform="translate(288 180) scale(42 42) rotate(285)" class="blue"/>
<use xlink:href="#spoke" transform="translate(288 180) scale(42 42) rotate(300)" class="blue"/>
<use xlink:href="#spoke" transform="translate(288 180) scale(42 42) rotate(315)" class="blue"/>
<use xlink:href="#spoke" transform="translate(288 180) scale(42 42) rotate(330)" class="blue"/>
<use xlink:href="#spoke" transform="translate(288 180) scale(42 42) rotate(345)" class="blue"/>
</g>
<g>
<use xlink:href="#disc" transform="translate(293.4821 221.6407) scale(4.8 4.8) rotate(0)" class="blue"/>
<use xlink:href="#disc" transform="translate(304.0727 218.8029) scale(4.8 4.8) rotate(0)" class="blue"/>
<use xlink:href="#disc" transform="translate(313.568 213.3208) scale(4.8 4.8) rotate(0)" class="blue"/>
<use xlink:href="#disc" transform="translate(321.3208 205.568) scale(4.8 4.8) rotate(0)" class="blue"/>
<use xlink:href="#disc" transform="translate(326.8029 196.0727) scale(4.8 4.8) rotate(0)" class="blue"/>
<use xlink:href="#disc" transform="translate(329.6407 185.4821) scale(4.8 4.8) rotate(0)" class="blue"/>
<use xlink:href="#disc" transform="translate(329.6407 174.5179) scale(4.8 4.8) rotate(0)" class="blue"/>
<use xlink:href="#disc" transform="translate(326.8029 163.9273) scale(4.8 4.8) rotate(0)" class="blue"/>
<use xlink:href="#disc" transform="translate(321.3208 154.432) scale(4.8 4.8) rotate(0)" class="blue"/>
<use xlink:href="#disc" transform="translate(313.568 146.6792) scale(4.8 4.8) rotate(0)" class="blue"/>
<use xlink:href="#disc" transform="translate(304.0727 141.1971) scale(4.8 4.8) rotate(0)" class="blue"/>
<use xlink:href="#disc" transform="translate(293.4821 138.3593) scale(4.8 4.8) rotate(0)" class="blue"/>
<use xlink:href="#disc" transform="translate(282.5179 138.3593) scale(4.8 4.8) rotate(0)" class="blue"/>
<use xlink:href="#disc" transform="translate(271.9273 141.1971) scale(4.8 4.8) rotate(0)" class="blue"/>
<use xlink:href="#disc" transform="translate(262.432 146.6792) scale(4.8 4.8) rotate(0)" class="blue"/>
<use xlink:href="#disc" transform="translate(254.6792 154.432) scale(4.8 4.8) rotate(0)" class="blue"/>
<use xlink:href="#disc" transform="translate(249.1971 163.9273) scale(4.8 4.8) rotate(0)" class="blue"/>
<use xlink:href="#disc" transform="translate(246.3593 174.5179) scale(4.8 4.8) rotate(0)" class="blue"/>
<use xlink:href="#disc" transform="translate(246.3593 185.4821) scale(4.8 4.8) rotate(0)" class="blue"/>
<use xlink:href="#disc" transform="translate(249.1971 196.0727) scale(4.8 4.8) rotate(0)" class="blue"/>
<use xlink:href="#disc" transform="translate(254.6792 205.568) scale(4.8 4.8) rotate(0)" class="blue"/>
<use xlink:href="#disc" transform="translate(262.432 213.3208) scale(4.8 4.8) rotate(0)" class="blue"/>
<use xlink:href="#disc" transform="translate(271.9273 218.8029) scale(4.8 4.8) rotate(0)" class="blue"/>
<use xlink:href="#disc" transform="translate(282.5179 221.6407) scale(4.8 4.8) rotate(0)" class="blue"/>
</g>
</g>
</svg>
