<?xml version="1.0"?>
<svg xmlns="http://www.w3.org/2000/svg" xmlns:xlink="http://www.w3.org/1999/xlink" version="1.1" width="576" height="360" viewBox="0 0 576 360">
<!-- Generated by Kreative Vexillo v1.0 -->
<style>
.black{fill:rgb(0,0,0);}
.green{fill:rgb(0,169,79);}
.yellow{fill:rgb(255,221,0);}
</style>
<g>
<rect x="0" y="0" width="576" height="360" class="green"/>
<path d="M 0 0 L 288 180 L 0 360 Z" class="black"/>
<path d="M 576 0 L 288 180 L 576 360 Z" class="black"/>
<path d="M 0 0 L 0 35.3774 L 0 35.3774 L 231.3961 180 L 231.3961 180 L 0 324.6226 L 0 324.6226 L 0 360 L 56.6039 360 L 288 215.3774 L 288 215.3774 L 519.3961 360 L 576 360 L 576 324.6226 L 344.6039 180 L 576 35.3774 L 576 0 L 519.3961 0 L 288 144.6226 L 288 144.6226 L 56.6039 0 Z" class="yellow"/>
</g>
</svg>
