<?xml version="1.0"?>
<svg xmlns="http://www.w3.org/2000/svg" xmlns:xlink="http://www.w3.org/1999/xlink" version="1.1" width="576" height="360" viewBox="0 0 576 360">
<!-- Generated by Kreative Vexillo v1.0 -->
<style>
.blue{fill:rgb(47,48,78);}
.red{fill:rgb(209,58,67);}
.white{fill:rgb(255,255,255);}
</style>
<defs>
<path id="e1" d="M 0.0024 -0.4526 L 0.0022000002 -0.45250002 L -0.0968 -0.4964 L -0.0976 -0.2067 L -0.3281 -0.3914 L -0.3501 -0.2816 L -0.45240003 -0.2334 L -0.2266 -0.05 L -0.5131 0.0139 L -0.43870002 0.1037 L -0.46490002 0.21149999 L -0.18240002 0.1476 L -0.3089 0.4121 L -0.1925 0.40899998 L -0.124199994 0.5007 L 0.001500003 0.23339999 L 0.1293 0.49879998 L 0.1971 0.4091 L 0.3132 0.41099998 L 0.1807 0.14839998 L 0.4688 0.20879999 L 0.44140002 0.10179999 L 0.5127 0.013999984 L 0.2273 -0.0492 L 0.4566 -0.2322 L 0.3562 -0.27969998 L 0.3296 -0.3894 L 0.1038 -0.2083 L 0.1019 -0.5 L 0.0025999993 -0.4527 Z"/>
<path id="e2" d="M 0.0026 -0.4527 L 0.043899998 -0.0896 L 0.35250002 -0.27969998 L 0.101800025 -0.024199992 L 0.43790004 0.09910001 L 0.081 0.0613 L 0.197 0.405 L 0.0025 0.1005 L -0.1906 0.4049 L -0.074599996 0.06190002 L -0.4383 0.1019 L -0.09670001 -0.022800006 L -0.3494 -0.2831 L -0.042900026 -0.091600016 L 0.0024999753 -0.4526 L 0.0022999754 -0.45250002 Z"/>
</defs>
<g>
<rect x="0" y="0" width="576" height="360" class="blue"/>
<use xlink:href="#e1" transform="translate(288 180) scale(257.1429 257.1429) rotate(0)" class="white"/>
<use xlink:href="#e2" transform="translate(288 180) scale(257.1429 257.1429) rotate(0)" class="red"/>
</g>
</svg>
