<?xml version="1.0"?>
<svg xmlns="http://www.w3.org/2000/svg" xmlns:xlink="http://www.w3.org/1999/xlink" version="1.1" width="576" height="360" viewBox="0 0 576 360">
<!-- Generated by Kreative Vexillo v1.0 -->
<style>
.red{fill:rgb(236,26,36);}
.yellow{fill:rgb(255,218,0);}
</style>
<defs>
<path id="e" d="M -0.2137 -0.3528 C -0.20549999 -0.3578 -0.1971 -0.36240003 -0.1886 -0.3668 L -0.1706 -0.3339 C -0.1788 -0.3297 -0.1868 -0.3253 -0.1946 -0.32050002 L -0.2137 -0.3528 Z M -0.2596 -0.3206 L -0.23620002 -0.2913 C -0.22880001 -0.2973 -0.22120002 -0.303 -0.21330002 -0.3085 L -0.23610002 -0.3383 C -0.2442 -0.3326 -0.252 -0.3267 -0.2596 -0.3206 Z M -0.0235 -0.465 C -0.0369 -0.4633 -0.049099997 -0.4607 -0.062 -0.4582 V -0.4196 C -0.049399998 -0.4225 -0.036799997 -0.4257 -0.0235 -0.42700002 V -0.465 Z M 0.4454 0.1767 C 0.3746 0.355 0.2043 0.474 0.0125 0.479 V 0.4415 C 0.2563 0.4346 0.4484 0.23130001 0.44149998 -0.012499988 C 0.43819997 -0.13029999 0.3879 -0.24189998 0.30189997 -0.32239997 L 0.28229997 -0.30079997 C 0.44849998 -0.14489996 0.45679998 0.11610004 0.30089995 0.28230006 C 0.2258 0.3622 0.1221 0.409 0.0125 0.4123 V 0.3748 C 0.2195 0.36789998 0.38169998 0.1945 0.3748 -0.012500018 C 0.3697 -0.1633 0.2749 -0.2963 0.134 -0.3502 L 0.1767 -0.4454 C 0.4227 -0.3478 0.543 -0.0693 0.4454 0.1767 Z M 0.2737 -0.3466 C 0.2495 -0.3657 0.2235 -0.3822 0.1959 -0.3958 L 0.18319999 -0.3696 C 0.20809999 -0.3572 0.23169999 -0.34239998 0.2537 -0.3253 L 0.2737 -0.3466 Z M -0.2813 0.248 C -0.4182 0.0927 -0.4034 -0.1443 -0.248 -0.2812 L -0.29479998 -0.32889998 C -0.26749998 -0.3534 -0.23659998 -0.37479997 -0.20249999 -0.39239997 L -0.22049999 -0.42529997 C -0.2573 -0.40619996 -0.291 -0.38269997 -0.32099998 -0.35559997 L -0.3503 -0.3854 C -0.35950002 -0.377 -0.3684 -0.3684 -0.377 -0.3594 L -0.3481 -0.3294 C -0.428 -0.2448 -0.4759 -0.1325 -0.479 -0.0125 C -0.4859 0.252 -0.277 0.4721 -0.0125 0.479 V 0.4415 C -0.1732 0.43690002 -0.3187 0.3454 -0.3924 0.2026 C -0.4806 0.0318 -0.4465 -0.16979998 -0.322 -0.30229998 L -0.3017 -0.2812 C -0.3699 -0.20799999 -0.4092 -0.1125 -0.4123 -0.012400001 C -0.4192 0.2152 -0.2402 0.4054 -0.0125 0.4123 V 0.3748 C -0.1157 0.3713 -0.2129 0.3255 -0.2813 0.248 Z M 0.106 -0.2227 C 0.108899996 -0.2386 0.094 -0.2502 0.0764 -0.2471 C 0.047699995 -0.242 0.022699997 -0.2182 0.0015999973 -0.2086 V -0.2826 L -0.023500003 -0.26999998 C -0.023100004 -0.22669998 -0.019600004 -0.18959999 -0.039100002 -0.16709998 C -0.044700004 -0.16059998 -0.0538 -0.15349998 -0.062800005 -0.15009998 C -0.083000004 -0.14249998 -0.109400004 -0.15059997 -0.12200001 -0.16269998 C -0.14070001 -0.18069997 -0.14870001 -0.22199999 -0.1279 -0.24859998 C -0.112600006 -0.26829997 -0.082600005 -0.27769998 -0.060500003 -0.29149997 V -0.31889996 C -0.1154 -0.31569996 -0.1544 -0.32569996 -0.15450001 -0.37589997 C -0.15460001 -0.4252 -0.11310001 -0.43889996 -0.07680001 -0.45359996 L -0.07530001 -0.45419997 V -0.41439998 C -0.091900006 -0.4073 -0.11880001 -0.40069997 -0.11750001 -0.37659997 C -0.11620001 -0.35279995 -0.08840001 -0.35599998 -0.060500007 -0.35659996 V -0.38249996 H -0.023500007 V -0.31289995 L 0.0016999934 -0.32549995 C -5.000066E-4 -0.38719994 -0.0023000068 -0.44479996 0.052099995 -0.44989994 C 0.09109999 -0.45349994 0.12239999 -0.42979994 0.12239999 -0.39209995 C 0.12239999 -0.36179996 0.101799995 -0.34679994 0.08319999 -0.33289996 C 0.06889999 -0.32219997 0.053899992 -0.31279996 0.038799994 -0.30399996 V -0.27359995 C 0.051899992 -0.27759996 0.06369999 -0.28449994 0.08029999 -0.28469995 C 0.12469999 -0.28529996 0.1589 -0.24269995 0.13729998 -0.19879994 C 0.1162 -0.1564 0.0624 -0.1305 0.0024 -0.1265 V -0.1635 C 0.0265 -0.1645 0.0464 -0.1706 0.066 -0.1812 C 0.0815 -0.1896 0.1027 -0.2043 0.106 -0.2227 Z M -0.0613 -0.2493 C -0.076 -0.2407 -0.0936 -0.234 -0.1014 -0.22150001 C -0.1109 -0.20150001 -0.0942 -0.18 -0.0746 -0.18640001 C -0.0558 -0.1925 -0.0605 -0.2249 -0.0613 -0.2493 Z M 0.0394 -0.3478 C 0.0517 -0.355 0.079799995 -0.3705 0.0846 -0.3863 C 0.094000004 -0.4173 0.044 -0.4258 0.038700003 -0.3967 C 0.036 -0.3819 0.0388 -0.3624 0.0394 -0.3478 Z"/>
</defs>
<g>
<rect x="0" y="0" width="576" height="360" class="red"/>
<use xlink:href="#e" transform="translate(288 180) scale(240 240) rotate(0)" class="yellow"/>
</g>
</svg>
