<?xml version="1.0"?>
<svg xmlns="http://www.w3.org/2000/svg" xmlns:xlink="http://www.w3.org/1999/xlink" version="1.1" width="576" height="360" viewBox="0 0 576 360">
<!-- Generated by Kreative Vexillo v1.0 -->
<style>
.blue{fill:rgb(10,146,212);}
.white{fill:rgb(255,255,255);}
</style>
<defs>
<path id="e" d="M 0.2083 -0.4078 C 0.30699998 -0.4357 0.3779 -0.42639998 0.42000002 -0.3778 C 0.47340003 -0.31469998 0.46010002 -0.21429999 0.37890002 -0.076599985 C 0.3512 -0.03 0.3172 0.0176 0.2792 0.0652 C 0.24839999 0.10250001 0.2258 0.1273 0.21139999 0.13870001 C 0.23189999 0.020700008 0.2453 -0.094199985 0.2505 -0.208 C 0.2546 -0.296 0.234 -0.3653 0.1909 -0.41500002 C 0.13229999 -0.48120004 0.046000004 -0.50820005 -0.068100005 -0.49780002 C -0.18010001 -0.4864 -0.2952 -0.4419 -0.4124 -0.36120003 C -0.35590002 -0.35710004 -0.30760002 -0.33330002 -0.2685 -0.29190004 C -0.22839999 -0.24950004 -0.2079 -0.19980004 -0.2058 -0.14180005 C -0.2048 -0.09830005 -0.2109 -0.039300047 -0.2233 0.035199955 C -0.23969999 0.12209996 -0.248 0.18009995 -0.25 0.20799996 C -0.2562 0.29489997 -0.2356 0.36319995 -0.1894 0.41499996 C -0.1565 0.45229995 -0.1123 0.47809997 -0.057799995 0.49059996 C -0.0053999946 0.50299996 0.05420001 0.50299996 0.120000005 0.49059996 C 0.25770003 0.46369997 0.3913 0.39329997 0.5198 0.27839994 C 0.6472 0.16349995 0.7325 0.038299948 0.77470005 -0.09730005 C 0.79520005 -0.16150005 0.80140007 -0.22050005 0.79630005 -0.27430004 C 0.79010004 -0.33020005 0.76960003 -0.37780005 0.73670006 -0.41510004 C 0.68530005 -0.47410005 0.61030006 -0.50200003 0.5116001 -0.50000006 C 0.4159 -0.4978 0.3152 -0.4668 0.2083 -0.4078 L 0.2083 -0.4078 Z M -0.4268 -0.2991 C -0.472 -0.3012 -0.51 -0.2867 -0.54190004 -0.25770003 C -0.6621 -0.14390004 -0.74030006 -0.022800028 -0.77830005 0.10769996 C -0.7968 0.16979995 -0.8019 0.22669996 -0.7947 0.27949995 C -0.7885 0.33329993 -0.76900005 0.37889993 -0.7361 0.41509995 C -0.6847 0.47409993 -0.6097 0.502 -0.51100004 0.49999994 C -0.41540003 0.49789995 -0.31470004 0.46689993 -0.20780003 0.40789995 C -0.24990003 0.41929996 -0.28490004 0.42549995 -0.31260002 0.42449996 C -0.3578 0.42349997 -0.39280003 0.40789995 -0.4185 0.37789994 C -0.4586 0.33239993 -0.46170002 0.26609993 -0.42880002 0.17919995 C -0.4041 0.11499995 -0.363 0.04359995 -0.3034 -0.033000052 C -0.2736 -0.07230005 -0.2623 -0.11480005 -0.2705 -0.16030005 C -0.2767 -0.19760005 -0.2931 -0.22860005 -0.31980002 -0.25550005 C -0.3487 -0.2826 -0.3837 -0.2981 -0.4268 -0.2991 L -0.4268 -0.2991 Z"/>
</defs>
<g>
<rect x="0" y="0" width="576" height="360" class="white"/>
<use xlink:href="#e" transform="translate(288 180) scale(169.2 169.2) rotate(0)" class="blue"/>
</g>
</svg>
