<?xml version="1.0"?>
<svg xmlns="http://www.w3.org/2000/svg" xmlns:xlink="http://www.w3.org/1999/xlink" version="1.1" width="576" height="360" viewBox="0 0 576 360">
<!-- Generated by Kreative Vexillo v1.0 -->
<style>
.red{fill:rgb(255,0,0);}
.yellow{fill:rgb(255,255,0);}
</style>
<defs>
<path id="yurt" d="M 3.072 -32.13 C 3.08 -32.185 3.092 -32.24 3.106 -32.297 L 7.6219997 -49.272003 C 7.64 -49.352005 7.7169995 -49.405003 7.799 -49.392002 C 7.8789997 -49.38 7.936 -49.308002 7.9309998 -49.229004 L 7.018 -31.617 C 7.014 -31.583 7.01 -31.548 7.004 -31.513 C 6.834 -30.427 5.815 -29.686 4.7300005 -29.856 C 3.644 -30.026 2.902 -31.044 3.072 -32.13 Z M 9.342 -28.752 C 10.387 -28.413 11.509 -28.985 11.849 -30.03 C 11.86 -30.064001 11.87 -30.098001 11.879 -30.131 L 15.554 -47.38 C 15.572 -47.457 15.526999 -47.537003 15.45 -47.562 C 15.37 -47.587 15.286 -47.547 15.256 -47.471 L 8.124 -31.419 C 8.101 -31.365 8.082 -31.313 8.063999 -31.259 C 7.725 -30.214 8.297 -29.092 9.342 -28.752 Z M 12.856 -29.612 C 12.357 -28.633 12.745 -27.435 13.724 -26.935 C 14.703 -26.435 15.901 -26.824 16.401001 -27.803 C 16.417002 -27.835 16.433 -27.866999 16.446001 -27.897999 L 22.79 -44.352997 C 22.819 -44.426 22.788 -44.511997 22.715 -44.549995 C 22.641 -44.587994 22.551 -44.560997 22.509 -44.489994 L 12.939001 -29.760994 C 12.909 -29.711 12.881 -29.662 12.856 -29.612 Z M 17.328 -27.233 C 16.681 -26.345 16.876999 -25.1 17.765999 -24.453 C 18.654999 -23.807 19.898998 -24.002998 20.546 -24.890999 C 20.567 -24.919998 20.587 -24.949999 20.605999 -24.977999 L 29.446999 -40.237 C 29.487 -40.305 29.47 -40.395 29.404 -40.443 C 29.337 -40.492 29.244 -40.48 29.191 -40.417 L 17.435001 -27.367 C 17.395 -27.322 17.361 -27.278 17.328 -27.233 Z M 21.372 -24.186 C 20.595 -23.409 20.595 -22.149 21.372 -21.372002 C 22.149 -20.594002 23.409 -20.594002 24.185 -21.372002 C 24.210999 -21.397001 24.234999 -21.423002 24.258 -21.448002 L 35.365997 -35.146004 C 35.415997 -35.207005 35.413 -35.298004 35.354996 -35.355003 C 35.295998 -35.415005 35.201996 -35.416004 35.140995 -35.363003 L 21.497 -24.3 C 21.452 -24.263 21.411 -24.225 21.372 -24.186 Z M 24.891 -20.545 C 24.002 -19.899 23.807001 -18.654 24.453001 -17.765 C 25.1 -16.876999 26.345001 -16.68 27.233002 -17.327 C 27.262001 -17.348 27.291002 -17.369999 27.317001 -17.390999 L 40.421 -29.192999 C 40.481003 -29.244999 40.491 -29.335999 40.443 -29.401 C 40.395 -29.467999 40.302002 -29.484999 40.233 -29.442 L 25.033 -20.638 C 24.983 -20.609 24.937 -20.578 24.891 -20.545 Z M 27.803 -16.401 C 26.824 -15.900999 26.435999 -14.701999 26.935999 -13.723 C 27.435999 -12.7439995 28.633999 -12.356 29.612999 -12.856 C 29.644999 -12.872 29.675999 -12.889 29.706 -12.906 L 44.495 -22.512001 C 44.562 -22.554 44.586998 -22.642 44.55 -22.715 C 44.512 -22.789 44.424 -22.82 44.349 -22.788 L 27.957998 -16.471 C 27.903 -16.449 27.853 -16.426 27.803 -16.401 Z M 30.03 -11.849 C 28.985 -11.51 28.412 -10.387 28.752 -9.342 C 29.091002 -8.297 30.213001 -7.725 31.259 -8.064 C 31.293001 -8.075 31.326 -8.087 31.359001 -8.099 L 31.359001 -8.099 L 47.476 -15.257999 C 47.549004 -15.289999 47.587 -15.372 47.562 -15.448999 C 47.536 -15.528 47.454 -15.572999 47.374 -15.5529995 L 30.194 -11.8949995 C 30.137 -11.881 30.083 -11.867 30.03 -11.849 Z M 31.512 -7.004 C 30.426998 -6.833 29.685 -5.815 29.855 -4.729 C 30.026 -3.6430001 31.043999 -2.901 32.13 -3.072 C 32.166 -3.0770001 32.2 -3.084 32.234 -3.091 L 49.277 -7.623 C 49.353 -7.643 49.404 -7.718 49.392002 -7.7990003 C 49.379 -7.8820004 49.305 -7.939 49.223003 -7.931 L 31.682 -7.023 C 31.623 -7.019 31.568 -7.012 31.512 -7.004 Z M 49.854 -0.156 L 32.384003 -1.982 C 32.325005 -1.987 32.270004 -1.99 32.214005 -1.99 C 31.115005 -1.99 30.224005 -1.098 30.224005 0.0010000467 C 30.224005 1.1 31.115005 1.991 32.214005 1.991 C 32.250004 1.991 32.286003 1.99 32.320004 1.988 L 49.860004 0.15700006 C 49.938 0.148 50.0 0.082 50.0 0.0 C 50.0 -0.083 49.936 -0.151 49.854 -0.156 Z M 49.272 7.622 L 32.297 3.105 C 32.24 3.092 32.185 3.081 32.13 3.072 C 31.044 2.902 30.026001 3.6430001 29.855001 4.729 C 29.685001 5.814 30.426 6.833 31.512001 7.0030003 C 31.548 7.0080004 31.583 7.0130005 31.617 7.017 L 49.229 7.931 C 49.308 7.9350004 49.379 7.879 49.392 7.7990003 C 49.405 7.717 49.352 7.64 49.272 7.622 Z M 47.471 15.255 L 31.419 8.124 C 31.364 8.101999 31.313 8.082 31.259 8.063999 C 30.214 7.7249994 29.091002 8.296999 28.752 9.341999 C 28.412 10.386999 28.984001 11.508999 30.03 11.848999 C 30.064001 11.859999 30.098001 11.869999 30.131 11.877999 L 47.38 15.5529995 C 47.457 15.570999 47.537003 15.525999 47.562 15.448 C 47.587 15.37 47.547 15.286 47.471 15.255 Z M 44.49 22.51 L 29.76 12.94 C 29.711 12.908999 29.662 12.881 29.612 12.856999 C 28.633 12.356999 27.435 12.745999 26.935 13.723999 C 26.435 14.702999 26.824 15.900999 27.802 16.401 C 27.834 16.417 27.866 16.432999 27.898 16.446 L 44.353 22.789999 C 44.427002 22.818998 44.512 22.787998 44.549 22.716 C 44.587 22.642 44.561 22.552 44.49 22.51 Z M 27.366 17.434 C 27.321999 17.395 27.278 17.361 27.233 17.328 C 26.345 16.681 25.1 16.876999 24.454 17.765999 C 23.808 18.654 24.003 19.898998 24.892 20.546 C 24.921 20.567 24.951 20.587 24.979 20.605999 L 24.979 20.605999 L 40.239 29.446999 C 40.307 29.487 40.396 29.47 40.445 29.404 C 40.494 29.337 40.481 29.244 40.418 29.192 L 27.366 17.434 Z M 24.3 21.497 C 24.262 21.452 24.224998 21.412 24.185 21.372 C 23.409 20.595 22.147999 20.595 21.372 21.372 C 20.595 22.149 20.595 23.409 21.372 24.185 C 21.397 24.210999 21.423 24.234999 21.448 24.258 L 35.146 35.365997 C 35.207 35.415997 35.298 35.412 35.356 35.354996 C 35.414997 35.295998 35.417 35.201996 35.363 35.140995 L 24.3 21.497 Z M 20.64 25.033 C 20.609 24.983002 20.578 24.936 20.546 24.891 C 19.899 24.002 18.654 23.807001 17.765999 24.453001 C 16.877998 25.1 16.682 26.345001 17.328 27.233002 C 17.348999 27.262001 17.370998 27.291002 17.391998 27.317001 L 29.193998 40.421 C 29.245998 40.48 29.336998 40.491 29.402998 40.443 C 29.469997 40.394 29.485998 40.302002 29.442999 40.233 L 20.64 25.033 Z M 16.472 27.958 C 16.45 27.904 16.427 27.853 16.401001 27.804 C 15.901001 26.825 14.703001 26.437 13.724001 26.936 C 12.745001 27.436 12.357001 28.635 12.856001 29.613 C 12.873001 29.645 12.890001 29.676 12.907001 29.706001 L 22.513 44.496002 C 22.555 44.562004 22.643 44.587 22.716 44.550003 C 22.789999 44.512005 22.821 44.424004 22.789 44.349003 L 16.472 27.958 Z M 11.895 30.194 C 11.8810005 30.137001 11.866 30.083 11.849001 30.03 C 11.510001 28.985 10.387001 28.412 9.342001 28.752 C 8.297001 29.091002 7.724001 30.214 8.064001 31.259 C 8.075001 31.294 8.087001 31.327002 8.099001 31.359001 L 15.258001 47.476 C 15.290001 47.549004 15.372002 47.587 15.450002 47.562 C 15.529002 47.537 15.573002 47.454 15.553001 47.374 L 11.895 30.194 Z M 7.004 31.513 C 6.833 30.427 5.815 29.686 4.729 29.856 C 3.644 30.026001 2.902 31.044 3.072 32.131 C 3.078 32.166 3.084 32.201 3.091 32.235 H 3.091 L 7.623 49.278 C 7.643 49.355 7.718 49.406 7.7990003 49.393 C 7.881 49.38 7.938 49.305 7.9300003 49.224003 L 7.023 31.682 C 7.019 31.623 7.012 31.568 7.004 31.513 Z M 0.0 30.224 C -1.099 30.224 -1.99 31.115002 -1.99 32.214 C -1.99 32.25 -1.989 32.285 -1.988 32.32 L -1.988 32.32 L -0.15700006 49.86 C -0.148 49.938 -0.082 50.0 0.0 50.0 C 0.083 50.0 0.151 49.936 0.157 49.854 L 1.983 32.383 C 1.988 32.324 1.99 32.269 1.99 32.213 C 1.99 31.115 1.099 30.224 0.0 30.224 Z M -4.729 29.856 C -5.815 29.686 -6.833 30.427 -7.0030003 31.513 C -7.0090003 31.549 -7.0130005 31.584 -7.017 31.617 L -7.931 49.229 C -7.9360003 49.308 -7.879 49.379 -7.7990003 49.392 C -7.716 49.405 -7.6400003 49.350998 -7.622 49.271 L -3.1060004 32.295998 C -3.0920005 32.239 -3.0810003 32.184 -3.0720005 32.128998 C -2.902 31.044 -3.644 30.026 -4.729 29.856 Z M -9.342 28.752 C -10.387 28.413 -11.509 28.985 -11.849 30.03 C -11.86 30.064001 -11.87 30.098001 -11.879 30.131 L -15.554 47.38 C -15.572 47.457 -15.526999 47.537003 -15.45 47.562 C -15.37 47.587 -15.286 47.547 -15.256 47.471 L -8.124 31.419 C -8.101 31.364 -8.082 31.313 -8.063999 31.259 C -7.725 30.214 -8.297 29.092 -9.342 28.752 Z M -12.856 29.612 C -12.356 28.633 -12.745 27.435 -13.724 26.935 C -14.703 26.435999 -15.901 26.824 -16.401001 27.803 C -16.418001 27.835 -16.433 27.866999 -16.447 27.897999 L -22.791 44.352997 C -22.82 44.427 -22.789 44.511997 -22.716 44.548996 C -22.642 44.586994 -22.552 44.559998 -22.51 44.488995 L -12.940001 29.759995 C -12.909 29.711 -12.881 29.662 -12.856 29.612 Z M -17.328 27.233 C -16.681 26.345 -16.876999 25.1 -17.765999 24.453 C -18.654999 23.807 -19.898998 24.001999 -20.546 24.890999 C -20.567 24.919998 -20.588 24.949 -20.605999 24.977999 L -29.446999 40.237 C -29.487 40.305 -29.47 40.395 -29.404 40.443 C -29.337 40.492 -29.244 40.48 -29.192 40.417 L -17.435 27.366001 C -17.395 27.322 -17.361 27.278 -17.328 27.233 Z M -21.372 24.185 C -20.595 23.407999 -20.595 22.147999 -21.372 21.372 C -22.149 20.595 -23.409 20.595 -24.185 21.372 C -24.210999 21.397 -24.234999 21.423 -24.258 21.448 L -35.365997 35.146 C -35.415997 35.207 -35.413 35.298 -35.354996 35.355 C -35.295998 35.413998 -35.201996 35.416 -35.140995 35.362 L -21.495995 24.3 C -21.452 24.262 -21.411 24.225 -21.372 24.185 Z M -24.891 20.546 C -24.002 19.9 -23.807001 18.654 -24.453001 17.765999 C -25.1 16.876999 -26.345001 16.681 -27.233002 17.328 C -27.262001 17.348999 -27.291002 17.370998 -27.317001 17.391998 L -40.421 29.193998 C -40.48 29.246998 -40.491 29.337997 -40.443 29.402998 C -40.394 29.469997 -40.302002 29.486998 -40.233 29.442999 L -25.033 20.64 C -24.983 20.609 -24.937 20.579 -24.891 20.546 Z M -27.803 16.401 C -26.824 15.900999 -26.435 14.702999 -26.935 13.723999 C -27.435 12.744999 -28.633999 12.356999 -29.612 12.856999 C -29.644 12.872999 -29.675 12.889999 -29.705 12.907 L -44.494 22.513 C -44.561 22.555 -44.586 22.643 -44.549 22.716 C -44.511 22.789999 -44.423 22.82 -44.348 22.788 L -27.956999 16.471 C -27.903 16.449 -27.853 16.426 -27.803 16.401 Z M -30.03 11.85 C -28.985 11.51 -28.413 10.3880005 -28.753 9.343 C -29.092001 8.298 -30.214 7.7250004 -31.26 8.065001 C -31.294 8.076 -31.327 8.088 -31.36 8.1 L -47.477 15.259001 C -47.550003 15.290001 -47.588 15.373001 -47.563 15.450001 C -47.537 15.529001 -47.454998 15.574 -47.375 15.554001 L -30.195 11.896001 C -30.137 11.881 -30.083 11.866 -30.03 11.85 Z M -31.512 7.004 C -30.426998 6.834 -29.685 5.815 -29.855 4.7300005 C -30.026 3.6440005 -31.043999 2.9020004 -32.13 3.0730004 C -32.166 3.0790005 -32.2 3.0850005 -32.234 3.0930004 L -32.234 3.0930004 L -49.277 7.6250005 C -49.353 7.6450005 -49.404 7.7200003 -49.392002 7.8010006 C -49.379 7.884001 -49.304 7.9400005 -49.223003 7.9320006 L -31.681004 7.0240006 C -31.623 7.019 -31.568 7.013 -31.512 7.004 Z M -32.213 1.99 C -31.114002 1.99 -30.223001 1.099 -30.223001 0.0 C -30.223001 -1.099 -31.115002 -1.991 -32.213 -1.991 C -32.249 -1.991 -32.285 -1.99 -32.319 -1.988 V -1.988 L -49.859 -0.15700006 C -49.938 -0.148 -50.0 -0.082 -50.0 0.0 C -50.0 0.083 -49.936 0.15 -49.854 0.156 L -32.384003 1.982 C -32.325 1.987 -32.27 1.99 -32.213 1.99 Z M -49.272 -7.622 L -32.296997 -3.105 C -32.239998 -3.091 -32.184998 -3.08 -32.129997 -3.072 C -31.043997 -2.901 -30.025997 -3.6430001 -29.854998 -4.729 C -29.684998 -5.815 -30.425997 -6.833 -31.511997 -7.004 C -31.547997 -7.0090003 -31.582996 -7.0140004 -31.616997 -7.018 L -49.228996 -7.932 C -49.307995 -7.9370003 -49.378998 -7.88 -49.391994 -7.8 C -49.405 -7.717 -49.352 -7.64 -49.272 -7.622 Z M -47.471 -15.256 L -31.419 -8.124 C -31.364 -8.101 -31.313 -8.082 -31.259 -8.063999 C -30.214 -7.7249994 -29.091002 -8.296999 -28.752 -9.341999 C -28.412 -10.386999 -28.984001 -11.509999 -30.029001 -11.848999 C -30.064001 -11.859999 -30.098001 -11.869999 -30.131 -11.878999 L -47.38 -15.553999 C -47.457 -15.571999 -47.537003 -15.5269985 -47.562 -15.448999 C -47.587 -15.37 -47.547 -15.286 -47.471 -15.256 Z M -44.49 -22.51 L -29.761002 -12.940001 C -29.712002 -12.909 -29.663002 -12.8810005 -29.613 -12.857 C -28.634 -12.357 -27.436 -12.745 -26.936 -13.724 C -26.436 -14.703 -26.825 -15.902 -27.804 -16.402 C -27.836 -16.418001 -27.868 -16.433 -27.899 -16.447 L -44.354 -22.791 C -44.427002 -22.821001 -44.513 -22.789 -44.55 -22.716 C -44.587 -22.642 -44.561 -22.552 -44.49 -22.51 Z M -27.366 -17.434 C -27.321999 -17.395 -27.278 -17.362 -27.233 -17.328 C -26.345 -16.681 -25.1 -16.877998 -24.453 -17.765999 C -23.807 -18.654999 -24.001999 -19.898998 -24.890999 -20.546 C -24.919998 -20.567 -24.949999 -20.587 -24.977999 -20.605999 L -40.238 -29.446999 C -40.306 -29.487999 -40.395 -29.47 -40.443 -29.404 C -40.492 -29.337 -40.48 -29.244 -40.417 -29.192 L -27.366 -17.434 Z M -24.3 -21.497 C -24.262 -21.452 -24.223999 -21.412 -24.185 -21.372 C -23.407999 -20.594 -22.147999 -20.594 -21.372 -21.372 C -20.595 -22.149 -20.595 -23.409 -21.372 -24.185999 C -21.397 -24.210999 -21.423 -24.235998 -21.448 -24.258999 L -35.146 -35.366997 C -35.207 -35.416996 -35.298 -35.413 -35.356 -35.355995 C -35.414997 -35.296997 -35.417 -35.203995 -35.363 -35.141994 L -24.3 -21.497 Z M -20.64 -25.033 C -20.609999 -24.983002 -20.578999 -24.937 -20.546 -24.891 C -19.9 -24.003 -18.654999 -23.807001 -17.765999 -24.453001 C -16.877998 -25.1 -16.682 -26.345001 -17.328 -27.233002 C -17.348999 -27.262001 -17.370998 -27.291002 -17.391998 -27.317001 L -29.193998 -40.422 C -29.245998 -40.481 -29.336998 -40.492 -29.401999 -40.443 C -29.468998 -40.394 -29.485998 -40.302002 -29.442 -40.233 L -20.64 -25.033 Z M -16.472 -27.958 C -16.45 -27.904 -16.427 -27.853 -16.401001 -27.804 C -15.901001 -26.825 -14.703001 -26.436 -13.724001 -26.936 C -12.745001 -27.436 -12.357001 -28.634 -12.856001 -29.613 C -12.873001 -29.645 -12.890001 -29.676 -12.906001 -29.706001 L -22.513 -44.496002 C -22.555 -44.563004 -22.643 -44.588 -22.716 -44.551003 C -22.789999 -44.512 -22.821 -44.424004 -22.789 -44.349003 L -16.472 -27.958 Z M -11.895 -30.194 C -11.8810005 -30.136 -11.866 -30.083 -11.849001 -30.03 C -11.510001 -28.985 -10.387001 -28.412 -9.342001 -28.752 C -8.297001 -29.092001 -7.724001 -30.214 -8.064001 -31.259 C -8.075001 -31.293001 -8.087001 -31.327002 -8.099001 -31.359001 L -15.258001 -47.476 C -15.290001 -47.549004 -15.372002 -47.587 -15.450002 -47.562 C -15.529002 -47.536 -15.573002 -47.454 -15.553001 -47.374 L -11.895 -30.194 Z M -7.003 -31.513 C -6.8329997 -30.427 -5.8139997 -29.686 -4.729 -29.856 C -3.644 -30.027 -2.902 -31.045 -3.072 -32.131 C -3.0770001 -32.167 -3.084 -32.201 -3.091 -32.235 L -7.623 -49.278 C -7.643 -49.354 -7.718 -49.405 -7.7990003 -49.392 C -7.881 -49.378998 -7.938 -49.304996 -7.9300003 -49.224 L -7.0220003 -31.682 C -7.019 -31.623 -7.012 -31.568 -7.003 -31.513 Z M 0.0 -30.224 C 1.099 -30.224 1.99 -31.115002 1.99 -32.214 C 1.99 -32.25 1.989 -32.286 1.988 -32.319 L 1.988 -32.319 L 0.156 -49.859 C 0.148 -49.938 0.082 -50.0 0.0 -50.0 C -0.083 -50.0 -0.151 -49.936 -0.156 -49.854 L -1.982 -32.384003 C -1.987 -32.325005 -1.989 -32.270004 -1.989 -32.214005 C -1.99 -31.114 -1.099 -30.224 0.0 -30.224 Z M 30.209 0.0 C 30.209 16.684 16.684 30.209 0.0 30.209 S -30.209 16.684 -30.209 0.0 C -30.209 -16.685 -16.684 -30.21 0.0 -30.21 S 30.209 -16.684 30.209 0.0 Z M 26.588 0.0 C 26.588 -14.685 14.683999 -26.589 0.0 -26.589 S -26.588 -14.684 -26.588 0.0 C -26.588 14.684 -14.683999 26.588 0.0 26.588 S 26.588 14.684 26.588 0.0 Z M -9.364 -5.568 C -10.029 -6.047 -10.702001 -6.509 -11.3810005 -6.955 C -15.725 -2.73 -19.482 2.294 -22.2 7.98 C -21.827002 8.952 -21.393002 9.895 -20.901001 10.801001 C -17.902 4.189 -13.926 -1.208 -9.364 -5.568 Z M 5.638 -5.658 C 5.041 -6.199 4.434 -6.724 3.819 -7.235 C 3.163 -6.754 2.515 -6.257 1.876 -5.743 C 2.492 -5.227 3.1 -4.692 3.698 -4.142 C 4.336 -4.665 4.983 -5.171 5.638 -5.658 Z M 0.0 -10.142 C -0.67 -9.675 -1.333 -9.192 -1.988 -8.692 C -1.317 -8.226 -0.654 -7.744 0.0 -7.244 C 0.654 -7.744 1.317 -8.226 1.988 -8.691999 C 1.335 -9.189 0.673 -9.673 0.0 -10.142 Z M -1.81 -2.516 C -1.196 -1.962 -0.593 -1.391 0.0 -0.802 C 0.593 -1.391 1.197 -1.963 1.81 -2.516 C 1.217 -3.083 0.613 -3.635 0.0 -4.171 C -0.613 -3.635 -1.216 -3.083 -1.81 -2.516 Z M -1.875 -5.743 C -2.5149999 -6.257 -3.163 -6.754 -3.819 -7.235 C -4.434 -6.724 -5.041 -6.1990004 -5.638 -5.658 C -4.983 -5.171 -4.336 -4.664 -3.699 -4.141 C -3.1 -4.692 -2.492 -5.227 -1.875 -5.743 Z M 4.258 -12.834 C 3.491 -12.396999 2.731 -11.938 1.977 -11.459 C 2.665 -11.002 3.3470001 -10.528999 4.02 -10.038 C 4.758 -10.503 5.5039997 -10.95 6.256 -11.377 C 5.598 -11.879 4.931 -12.365 4.258 -12.834 Z M 9.775 -8.458 C 9.184 -8.989 8.584 -9.508 7.976 -10.011 C 7.257 -9.576 6.543 -9.122 5.837 -8.649 C 6.46 -8.152 7.074 -7.639 7.679 -7.109 C 8.371 -7.577 9.07 -8.026 9.775 -8.458 Z M 2.396 -14.078 C 1.6049999 -14.584 0.8059999 -15.068 0.0 -15.528 C -0.805 -15.068 -1.604 -14.585 -2.395 -14.078 C -1.59 -13.643 -0.791 -13.187 0.0 -12.709 C 0.791 -13.187 1.59 -13.643 2.396 -14.078 Z M -1.977 -11.458 C -2.731 -11.937 -3.492 -12.396 -4.259 -12.834001 C -4.9319997 -12.365001 -5.5979996 -11.878 -6.257 -11.376 C -5.505 -10.949 -4.759 -10.502001 -4.021 -10.037001 C -3.346 -10.528 -2.666 -11.002 -1.977 -11.458 Z M -9.775 -8.458 C -9.068999 -8.025001 -8.37 -7.577 -7.679 -7.109 C -7.074 -7.639 -6.4589996 -8.152 -5.837 -8.649 C -6.5439997 -9.122 -7.257 -9.576 -7.976 -10.011 C -8.584 -9.508 -9.185 -8.99 -9.775 -8.458 Z M -13.562 -8.318 C -15.956 -9.7369995 -18.408 -10.947 -20.867 -11.933 C -22.720001 -8.549999 -23.773 -4.6659994 -23.773 -0.5359993 C -23.773 1.1340007 -23.6 2.7640007 -23.273 4.338001 C -20.553 -0.618 -17.248 -4.806 -13.562 -8.318 Z M -11.995 -9.75 C -11.397 -10.275 -10.791 -10.784 -10.177 -11.276 C -13.031 -12.83 -15.948 -14.088 -18.847 -15.026 C -19.246 -14.508 -19.625 -13.973 -19.981 -13.422 C -17.279 -12.407 -14.602 -11.19 -11.995 -9.75 Z M -18.847 -15.025 L -18.847 -15.025 L -18.847 -15.025 L -18.847 -15.025 Z M -6.44 -14.014 C -9.704 -15.684999 -13.036 -16.969 -16.312 -17.828 C -16.799 -17.368 -17.267 -16.887999 -17.714 -16.389 C -14.6050005 -15.384 -11.503 -14.125 -8.483001 -12.579 C -7.81 -13.076 -7.128 -13.554 -6.44 -14.014 Z M -4.587 -15.202 C -3.7589998 -15.71 -2.922 -16.194 -2.0779998 -16.654999 C -5.4019995 -18.364998 -8.796 -19.675 -12.133 -20.543 C -12.22 -20.564999 -12.307 -20.588 -12.394 -20.609999 C -12.472 -20.635998 -12.545 -20.661999 -12.615 -20.687998 C -13.377 -20.209997 -14.11 -19.689999 -14.809999 -19.131998 C -14.603 -19.059998 -14.419999 -18.996998 -14.391999 -18.987999 C -11.1 -18.018 -7.803 -16.769 -4.587 -15.202 Z M -10.142 -21.685 C -6.735 -20.681 -3.322 -19.378 0.0 -17.734999 C 3.387 -19.411 6.867 -20.730999 10.339 -21.742998 C 10.367 -21.753998 10.4609995 -21.784998 10.589 -21.825998 C 7.4 -23.415 3.805 -24.31 0.0 -24.31 C -3.808 -24.31 -7.406 -23.414 -10.596 -21.821999 C -10.516999 -21.793999 -10.433 -21.766998 -10.34 -21.742998 C -10.274 -21.723 -10.208 -21.704 -10.142 -21.685 Z M 4.587 -15.202 C 7.869 -16.800999 11.233999 -18.069 14.592999 -19.046999 C 14.662 -19.064 14.7439995 -19.087 14.832 -19.112999 C 14.134 -19.671 13.403999 -20.189999 12.6449995 -20.668 C 12.561999 -20.643 12.478 -20.623 12.393999 -20.609 C 8.973 -19.741999 5.487999 -18.408998 2.077999 -16.654 C 2.922 -16.194 3.759 -15.71 4.587 -15.202 Z M 8.482 -12.58 C 11.503 -14.125999 14.604 -15.385 17.713001 -16.39 C 17.266 -16.889 16.799002 -17.369 16.312 -17.828999 C 13.035 -16.97 9.704 -15.685999 6.439 -14.014998 C 7.128 -13.554 7.81 -13.076 8.482 -12.58 Z M 11.996 -9.75 C 14.602 -11.190001 17.28 -12.407 19.981 -13.421 C 19.626001 -13.971999 19.247002 -14.507 18.848001 -15.025 C 15.950002 -14.087999 13.0320015 -12.8289995 10.178001 -11.275 C 10.792 -10.784 11.398 -10.275 11.996 -9.75 Z M 23.272 4.338 C 23.601 2.7649999 23.772999 1.1349998 23.772999 -0.53600025 C 23.772999 -4.6660004 22.718998 -8.549 20.866999 -11.933001 C 18.407999 -10.948001 15.955999 -9.737 13.560999 -8.318001 C 17.248 -4.806 20.553 -0.618 23.272 4.338 Z M 11.381 -6.956 C 10.703 -6.51 10.03 -6.047 9.364 -5.568 C 13.926001 -1.2069998 17.902 4.189 20.901001 10.801 C 21.394001 9.8949995 21.827002 8.952 22.201 7.9799995 C 19.482 2.294 15.725 -2.73 11.381 -6.956 Z M 5.435 -2.467 C 10.222 2.3709998 14.302 8.412 17.198 15.877 C 17.912 15.13 18.575 14.335 19.187 13.5 C 16.474 6.743 12.301 0.826 7.347 -4.046 C 6.701 -3.535 6.063 -3.009 5.435 -2.467 Z M 1.745 1.02 C 6.087 5.781 9.769 11.615999 12.394 18.708 L 12.71 19.557 C 13.532 19.036 14.321 18.465 15.071 17.848999 C 12.614 10.701 8.529 4.418 3.557 -0.771 C 2.941 -0.189 2.337 0.408 1.745 1.02 Z M 0.0 2.912 C -4.289 7.7840004 -7.797 13.518 -9.987 19.951 L -10.291 20.901001 C -7.177 22.398 -3.687 23.237 0.0 23.237 C 3.689 23.237 7.183 22.397 10.298 20.897 L 9.986 19.951 C 7.797 13.518 4.289 7.783 0.0 2.912 Z M -3.557 -0.771 C -8.529 4.418 -12.614 10.701 -15.0720005 17.849 C -14.3220005 18.465 -13.533001 19.036001 -12.710001 19.557001 L -12.395001 18.707 C -9.769 11.616 -6.087 5.781 -1.745 1.02 C -2.337 0.408 -2.941 -0.189 -3.557 -0.771 Z M -7.347 -4.046 C -12.301 0.826 -16.474 6.743 -19.188 13.5 H -19.188 C -18.576 14.335 -17.911999 15.13 -17.198 15.877 C -14.302 8.412 -10.221 2.3710003 -5.434 -2.467 C -6.063 -3.009 -6.701 -3.536 -7.347 -4.046 Z"/>
</defs>
<g>
<rect x="0" y="0" width="576" height="360" class="red"/>
<use xlink:href="#yurt" transform="translate(288 180) scale(2.2154 2.2154) rotate(0)" class="yellow"/>
</g>
</svg>
