<?xml version="1.0"?>
<svg xmlns="http://www.w3.org/2000/svg" xmlns:xlink="http://www.w3.org/1999/xlink" version="1.1" width="576" height="360" viewBox="0 0 576 360">
<!-- Generated by Kreative Vexillo v1.0 -->
<style>
.black{fill:rgb(0,0,0);}
.green{fill:rgb(0,169,79);}
.red{fill:rgb(239,65,53);}
.white{fill:rgb(255,255,255);}
.yellow{fill:rgb(255,221,0);}
</style>
<defs>
<path id="star" d="M 0.0 -1.0 L 0.2245 -0.309 L 0.9511 -0.309 L 0.3633 0.118 L 0.5878 0.809 L 0.0 0.382 L -0.5878 0.809 L -0.3633 0.118 L -0.9511 -0.309 L -0.2245 -0.309 Z"/>
<clipPath id="clip0">
<rect x="0" y="0" width="576" height="360"/>
</clipPath>
</defs>
<g>
<path d="M 0 360 L 0 0 L 576 0 Z" class="green"/>
<path d="M 576 0 L 576 360 L 0 360 Z" class="red"/>
<g clip-path="url(#clip0)">
<path d="M 535.9468 -64.1179 L -40.0532 295.8821 L 40.0532 424.1179 L 616.0532 64.1179 L 535.9468 -64.1179 Z" class="yellow"/>
<path d="M 547.3906 -45.7985 L -28.6094 314.2015 L 28.6094 405.7985 L 604.6094 45.7985 L 547.3906 -45.7985 Z" class="black"/>
</g>
<use xlink:href="#star" transform="translate(184.32 244.8) scale(50.4 50.4) rotate(-32.0054)" class="white"/>
<use xlink:href="#star" transform="translate(403.2 108) scale(50.4 50.4) rotate(-32.0054)" class="white"/>
</g>
</svg>
