<?xml version="1.0"?>
<svg xmlns="http://www.w3.org/2000/svg" xmlns:xlink="http://www.w3.org/1999/xlink" version="1.1" width="576" height="360" viewBox="0 0 576 360">
<!-- Generated by Kreative Vexillo v1.0 -->
<style>
.green{fill:rgb(67,149,57);}
.red{fill:rgb(209,18,66);}
</style>
<defs>
<path id="pentagram" d="M 0.5838 0.8033 L 0.0 0.3793 L -0.5838 0.80340004 L -0.36080003 0.11720002 L -0.9445 -0.30679998 H -0.2231 L 0.0 -0.9936 L 0.2231 -0.30690002 H 0.9445 L 0.36080003 0.11709997 L 0.5838 0.8033 Z M 0.1245 0.2888 L 0.3056 0.42040002 L 0.23639998 0.20750003 L 0.1245 0.2888 Z M -0.2364 0.2075 L -0.3056 0.4204 L -0.12449999 0.2888 L -0.2364 0.2075 Z M -0.1889 0.0612 L 0.0 0.1984 L 0.1889 0.061200008 L 0.116799995 -0.16059999 H -0.11680001 L -0.1889 0.0612 Z M 0.2706 -0.1606 L 0.31329998 -0.029200003 L 0.4942 -0.1606 H 0.2706 Z M -0.4942 -0.1606 L -0.3133 -0.029200003 L -0.27060002 -0.1606 H -0.4942 Z M -0.0693 -0.3069 H 0.0693 L 0.0 -0.5201 L -0.0693 -0.3069 Z"/>
</defs>
<g>
<rect x="0" y="0" width="576" height="360" class="red"/>
<use xlink:href="#pentagram" transform="translate(288 180) scale(90 90) rotate(0)" class="green"/>
</g>
</svg>
