<?xml version="1.0"?>
<svg xmlns="http://www.w3.org/2000/svg" xmlns:xlink="http://www.w3.org/1999/xlink" version="1.1" width="576" height="360" viewBox="0 0 576 360">
<!-- Generated by Kreative Vexillo v1.0 -->
<style>
.red{fill:rgb(210,0,0);}
.yellow{fill:rgb(255,230,0);}
</style>
<g>
<rect x="0" y="0" width="576" height="360" class="red"/>
<path d="M 288 180 L 0 0 L 86.4 0 Z" class="yellow"/>
<path d="M 288 180 L 259.2 0 L 316.8 0 Z" class="yellow"/>
<path d="M 288 180 L 489.6 0 L 576 0 Z" class="yellow"/>
<path d="M 288 180 L 576 151.2 L 576 208.8 Z" class="yellow"/>
<path d="M 288 180 L 576 360 L 489.6 360 Z" class="yellow"/>
<path d="M 288 180 L 316.8 360 L 259.2 360 Z" class="yellow"/>
<path d="M 288 180 L 86.4 360 L 0 360 Z" class="yellow"/>
<path d="M 288 180 L 0 208.8 L 0 151.2 Z" class="yellow"/>
<ellipse cx="288" cy="180" rx="64.2857" ry="64.2857" class="red"/>
<ellipse cx="288" cy="180" rx="51.4286" ry="51.4286" class="yellow"/>
</g>
</svg>
