<?xml version="1.0"?>
<svg xmlns="http://www.w3.org/2000/svg" xmlns:xlink="http://www.w3.org/1999/xlink" version="1.1" width="576" height="360" viewBox="0 0 576 360">
<!-- Generated by Kreative Vexillo v1.0 -->
<style>
.blue{fill:rgb(33,66,142);}
.white{fill:rgb(255,255,255);}
</style>
<defs>
<path id="snake" d="M -0.1581 -0.4743 C -0.1905 -0.4595 -0.2162 -0.4378 -0.2162 -0.427 C -0.2162 -0.4149 -0.1973 -0.4149 -0.2216 -0.4068 C -0.2446 -0.3986 -0.3068 -0.3878 -0.35 -0.3892 C -0.3649 -0.3892 -0.4 -0.3986 -0.4095 -0.3986 C -0.4203 -0.3973 -0.3635 -0.3743 -0.3851 -0.3797 C -0.4149 -0.3878 -0.4324 -0.3905 -0.4095 -0.3757 C -0.3919 -0.3649 -0.3527 -0.3649 -0.2973 -0.3716 C -0.2757 -0.3743 -0.2189 -0.3865 -0.1986 -0.3892 C -0.1851 -0.3905 -0.1851 -0.3784 -0.177 -0.3784 C -0.1041 -0.3743 0.0257 -0.377 0.0824 -0.3851 C 0.1297 -0.3919 0.1473 -0.3892 0.1608 -0.373 C 0.1878 -0.3419 0.1595 -0.3149 0.0824 -0.2986 C -0.0122 -0.2784 -0.0514 -0.2608 -0.0878 -0.2216 C -0.1757 -0.127 -0.073 -0.0203 0.1189 -0.0054 C 0.2311 0.0041 0.3041 0.0257 0.2865 0.0432 C 0.2797 0.05 0.2054 0.0608 0.1203 0.0676 C -0.0649 0.0824 -0.1473 0.1081 -0.2176 0.1757 C -0.2568 0.2135 -0.2703 0.2365 -0.2703 0.2676 C -0.2703 0.3108 -0.2703 0.3108 -0.3419 0.3108 C -0.3797 0.3108 -0.4324 0.3054 -0.4568 0.2973 C -0.4946 0.2878 -0.5 0.2878 -0.4865 0.3041 C -0.4595 0.3365 -0.3824 0.3649 -0.3189 0.3649 C -0.2703 0.3649 -0.2432 0.3743 -0.2 0.4054 C -0.1135 0.4689 -0.0149 0.4932 0.1486 0.4919 C 0.3635 0.4905 0.4865 0.4338 0.4865 0.3378 C 0.4865 0.2662 0.4054 0.2243 0.2365 0.2095 C 0.1514 0.2014 -0.0162 0.2149 -0.0892 0.2365 C -0.1027 0.2405 -0.0878 0.2311 -0.0554 0.2149 C -0.0162 0.1959 0.0486 0.1824 0.1365 0.1743 C 0.3311 0.1581 0.4189 0.1149 0.4189 0.0338 C 0.4189 -0.0446 0.3324 -0.0892 0.1473 -0.1068 C -0.0351 -0.123 -0.0486 -0.1554 0.1054 -0.2027 C 0.2149 -0.2351 0.2703 -0.2838 0.2703 -0.35 C 0.2703 -0.4514 0.2149 -0.4851 0.0297 -0.4946 C -0.0824 -0.5 -0.1095 -0.4973 -0.1581 -0.4743 Z M -0.0608 -0.4459 C -0.0649 -0.4392 -0.0757 -0.4324 -0.0824 -0.4324 C -0.0905 -0.4324 -0.0919 -0.4392 -0.0878 -0.4459 C -0.0838 -0.4541 -0.073 -0.4595 -0.0662 -0.4595 C -0.0581 -0.4595 -0.0568 -0.4541 -0.0608 -0.4459 Z M 0.3297 0.3108 C 0.3554 0.3203 0.3649 0.3297 0.3568 0.3378 C 0.3338 0.3608 0.1851 0.3811 0.0946 0.3743 C -0.0054 0.3649 -0.1135 0.3324 -0.0811 0.3189 C 0.0095 0.2838 0.2473 0.2797 0.3297 0.3108 Z"/>
</defs>
<g>
<rect x="0" y="0" width="576" height="360" class="blue"/>
<g>
<rect x="0" y="153.9" width="576" height="52.2" class="white"/>
<rect x="261.9" y="0" width="52.2" height="360" class="white"/>
</g>
<use xlink:href="#snake" transform="translate(130.95 76.95) scale(122.4 122.4) rotate(0)" class="white"/>
<use xlink:href="#snake" transform="translate(445.05 76.95) scale(122.4 122.4) rotate(0)" class="white"/>
<use xlink:href="#snake" transform="translate(130.95 283.05) scale(122.4 122.4) rotate(0)" class="white"/>
<use xlink:href="#snake" transform="translate(445.05 283.05) scale(122.4 122.4) rotate(0)" class="white"/>
</g>
</svg>
