<?xml version="1.0"?>
<svg xmlns="http://www.w3.org/2000/svg" xmlns:xlink="http://www.w3.org/1999/xlink" version="1.1" width="576" height="360" viewBox="0 0 576 360">
<!-- Generated by Kreative Vexillo v1.0 -->
<style>
.blue{fill:rgb(0,85,164);}
.green{fill:rgb(0,161,96);}
.red{fill:rgb(238,49,36);}
.white{fill:rgb(255,255,255);}
.yellow{fill:rgb(253,185,51);}
</style>
<defs>
<path id="disc" d="M 0.5 0.0 A 0.5 0.5 0.0 0 0 -0.5 0.0 A 0.5 0.5 0.0 0 0 0.5 0.0 Z"/>
<path id="star12" d="M 0.0 -1.0 L 0.155291 -0.579555 L 0.5 -0.866025 L 0.424264 -0.424264 L 0.866025 -0.5 L 0.579555 -0.155291 L 1.0 -0.0 L 0.579555 0.155291 L 0.866025 0.5 L 0.424264 0.424264 L 0.5 0.866025 L 0.155291 0.579555 L 0.0 1.0 L -0.155291 0.579555 L -0.5 0.866025 L -0.424264 0.424264 L -0.866025 0.5 L -0.579555 0.155291 L -1.0 0.0 L -0.579555 -0.155291 L -0.866025 -0.5 L -0.424264 -0.424264 L -0.5 -0.866025 L -0.155291 -0.579555 Z"/>
<clipPath id="clip0">
<rect x="0" y="0" width="576" height="360"/>
</clipPath>
</defs>
<g>
<rect x="0" y="0" width="576" height="360" class="blue"/>
<path d="M 576 0 L 576 360 L 0 360 Z" class="green"/>
<g clip-path="url(#clip0)">
<path d="M 544.2118 -50.8872 L -31.7882 309.1128 L 31.7882 410.8872 L 607.7882 50.8872 L 544.2118 -50.8872 Z" class="white"/>
<path d="M 552.1588 -38.1654 L -23.8412 321.8346 L 23.8412 398.1654 L 599.8412 38.1654 L 552.1588 -38.1654 Z" class="red"/>
</g>
<use xlink:href="#star12" transform="translate(128 96) scale(60 60) rotate(0)" class="yellow"/>
<use xlink:href="#disc" transform="translate(128 96) scale(72 72) rotate(0)" class="blue"/>
<use xlink:href="#disc" transform="translate(128 96) scale(60 60) rotate(0)" class="yellow"/>
</g>
</svg>
