<?xml version="1.0"?>
<svg xmlns="http://www.w3.org/2000/svg" xmlns:xlink="http://www.w3.org/1999/xlink" version="1.1" width="576" height="360" viewBox="0 0 576 360">
<!-- Generated by Kreative Vexillo v1.0 -->
<style>
.blue{fill:rgb(0,36,125);}
.red{fill:rgb(207,20,43);}
.white{fill:rgb(255,255,255);}
.yellow{fill:rgb(252,209,22);}
</style>
<defs>
<path id="star" d="M 0.0 -1.0 L 0.2245 -0.309 L 0.9511 -0.309 L 0.3633 0.118 L 0.5878 0.809 L 0.0 0.382 L -0.5878 0.809 L -0.3633 0.118 L -0.9511 -0.309 L -0.2245 -0.309 Z"/>
<clipPath id="clip0">
<path d="M 0 0 L 0 14.151 L 0 14.151 L 121.3584 90 L 121.3584 90 L 0 165.849 L 0 165.849 L 0 180 L 22.6416 180 L 144 104.151 L 144 104.151 L 265.3584 180 L 288 180 L 288 165.849 L 166.6416 90 L 166.6416 90 L 288 14.151 L 288 0 L 265.3584 0 L 144 75.849 L 144 75.849 L 22.6416 0 Z"/>
</clipPath>
</defs>
<g>
<rect x="0" y="0" width="576" height="360" class="yellow"/>
<g>
<rect x="0" y="0" width="288" height="180" class="blue"/>
<path d="M 0 0 L 0 21.2265 L 0 21.2265 L 110.0377 90 L 0 158.7735 L 0 158.7735 L 0 180 L 33.9623 180 L 144 111.2265 L 254.0377 180 L 288 180 L 288 158.7735 L 177.9623 90 L 288 21.2265 L 288 0 L 254.0377 0 L 144 68.7735 L 33.9623 0 Z" class="white"/>
<g clip-path="url(#clip0)">
<path d="M 0 0 L 144 90 L 0 90 Z" class="red"/>
<path d="M 288 0 L 144 90 L 144 0 Z" class="red"/>
<path d="M 0 180 L 144 90 L 144 180 Z" class="red"/>
<path d="M 288 180 L 144 90 L 288 90 Z" class="red"/>
</g>
<g>
<rect x="0" y="60" width="288" height="60" class="white"/>
<rect x="114" y="0" width="60" height="180" class="white"/>
</g>
<g>
<rect x="0" y="72" width="288" height="36" class="red"/>
<rect x="126" y="0" width="36" height="180" class="red"/>
</g>
</g>
<g>
<ellipse cx="144" cy="90" rx="30" ry="30" class="blue"/>
<use xlink:href="#star" transform="translate(144 90) scale(30 30) rotate(0)" class="yellow"/>
<use xlink:href="#star" transform="translate(57 91.062) scale(18 18) rotate(0)" class="yellow"/>
<use xlink:href="#star" transform="translate(231 91.062) scale(18 18) rotate(0)" class="yellow"/>
<use xlink:href="#star" transform="translate(144 31.062) scale(18 18) rotate(0)" class="yellow"/>
<use xlink:href="#star" transform="translate(144 151.062) scale(18 18) rotate(0)" class="yellow"/>
</g>
</g>
</svg>
