<?xml version="1.0"?>
<svg xmlns="http://www.w3.org/2000/svg" xmlns:xlink="http://www.w3.org/1999/xlink" version="1.1" width="576" height="360" viewBox="0 0 576 360">
<!-- Generated by Kreative Vexillo v1.0 -->
<style>
.blue{fill:rgb(0,73,144);}
.ltblue{fill:rgb(80,145,205);}
.red{fill:rgb(227,24,55);}
.white{fill:rgb(255,255,255);}
.yellow{fill:rgb(255,210,0);}
</style>
<defs>
<path id="star" d="M 0.0 -1.0 L 0.2245 -0.309 L 0.9511 -0.309 L 0.3633 0.118 L 0.5878 0.809 L 0.0 0.382 L -0.5878 0.809 L -0.3633 0.118 L -0.9511 -0.309 L -0.2245 -0.309 Z"/>
<clipPath id="clip0">
<path d="M 0 0 L 0 14.151 L 0 14.151 L 121.3584 90 L 0 165.849 L 0 165.849 L 0 180 L 22.6416 180 L 144 104.151 L 265.3585 180 L 288 180 L 288 165.849 L 166.6416 90 L 288 14.151 L 288 0 L 265.3585 0 L 144 75.849 L 22.6416 0 Z"/>
</clipPath>
</defs>
<g>
<rect x="0" y="0" width="576" height="360" class="ltblue"/>
<g>
<rect x="0" y="0" width="288" height="180" class="blue"/>
<path d="M 0 0 L 0 21.2265 L 0 21.2265 L 110.0377 90 L 110.0377 90 L 0 158.7735 L 0 158.7735 L 0 180 L 33.9623 180 L 144 111.2265 L 144 111.2265 L 144 111.2265 L 144 111.2265 L 254.0377 180 L 288 180 L 288 158.7735 L 177.9623 90 L 288 21.2265 L 288 0 L 254.0377 0 L 144 68.7735 L 33.9623 0 Z" class="white"/>
<g clip-path="url(#clip0)">
<path d="M 0 0 L 144 90 L 0 90 Z" class="red"/>
<path d="M 288 0 L 144 90 L 144 0 Z" class="red"/>
<path d="M 0 180 L 144 90 L 144 180 Z" class="red"/>
<path d="M 288 180 L 144 90 L 288 90 Z" class="red"/>
</g>
<g>
<rect x="0" y="60" width="288" height="60" class="white"/>
<rect x="114" y="0" width="60" height="180" class="white"/>
</g>
<g>
<rect x="0" y="72" width="288" height="36" class="red"/>
<rect x="126" y="0" width="36" height="180" class="red"/>
</g>
</g>
<g>
<use xlink:href="#star" transform="translate(309.763 324.5962) scale(24 24) rotate(0)" class="yellow"/>
<use xlink:href="#star" transform="translate(378.2523 302.7096) scale(24 24) rotate(180)" class="yellow"/>
<use xlink:href="#star" transform="translate(378.2523 229.5194) scale(24 24) rotate(180)" class="yellow"/>
<use xlink:href="#star" transform="translate(438.7346 284.2106) scale(24 24) rotate(180)" class="yellow"/>
<use xlink:href="#star" transform="translate(438.7346 124.9625) scale(24 24) rotate(180)" class="yellow"/>
<use xlink:href="#star" transform="translate(478.292 234.0274) scale(24 24) rotate(0)" class="yellow"/>
<use xlink:href="#star" transform="translate(489.5654 103.2466) scale(24 24) rotate(180)" class="yellow"/>
<use xlink:href="#star" transform="translate(529.3613 192.9326) scale(24 24) rotate(0)" class="yellow"/>
<use xlink:href="#star" transform="translate(529.3613 52.4916) scale(24 24) rotate(0)" class="yellow"/>
</g>
</g>
</svg>
