<?xml version="1.0"?>
<svg xmlns="http://www.w3.org/2000/svg" xmlns:xlink="http://www.w3.org/1999/xlink" version="1.1" width="576" height="360" viewBox="0 0 576 360">
<!-- Generated by Kreative Vexillo v1.0 -->
<style>
.blue{fill:rgb(15,32,75);}
.yellow{fill:rgb(255,182,18);}
</style>
<defs>
<path id="star" d="M 0.0 -1.0 L 0.2245 -0.309 L 0.9511 -0.309 L 0.3633 0.118 L 0.5878 0.809 L 0.0 0.382 L -0.5878 0.809 L -0.3633 0.118 L -0.9511 -0.309 L -0.2245 -0.309 Z"/>
</defs>
<g>
<rect x="0" y="0" width="576" height="360" class="blue"/>
<use xlink:href="#star" transform="translate(471.0508 65.52) scale(18.72 18.72) rotate(0)" class="yellow"/>
<use xlink:href="#star" transform="translate(93.1525 142.56) scale(11.16 11.16) rotate(0)" class="yellow"/>
<use xlink:href="#star" transform="translate(161.0847 164.88) scale(11.16 11.16) rotate(0)" class="yellow"/>
<use xlink:href="#star" transform="translate(194.8475 196.92) scale(11.16 11.16) rotate(0)" class="yellow"/>
<use xlink:href="#star" transform="translate(229.0169 230.4) scale(11.16 11.16) rotate(0)" class="yellow"/>
<use xlink:href="#star" transform="translate(330.7119 262.44) scale(11.16 11.16) rotate(0)" class="yellow"/>
<use xlink:href="#star" transform="translate(224.5424 277.56) scale(11.16 11.16) rotate(0)" class="yellow"/>
<use xlink:href="#star" transform="translate(301.0169 299.88) scale(11.16 11.16) rotate(0)" class="yellow"/>
</g>
</svg>
