<?xml version="1.0"?>
<svg xmlns="http://www.w3.org/2000/svg" xmlns:xlink="http://www.w3.org/1999/xlink" version="1.1" width="576" height="360" viewBox="0 0 576 360">
<!-- Generated by Kreative Vexillo v1.0 -->
<style>
.black{fill:rgb(0,0,0);}
.red{fill:rgb(152,30,50);}
.white{fill:rgb(255,255,255);}
.yellow{fill:rgb(234,171,0);}
</style>
<defs>
<path id="hcross" d="M -0.5 0.5 V 0.98440003 C -0.5 1.2605001 -0.2762 1.4844 0.0 1.4844 S 0.5 1.2605001 0.5 0.98440003 V 0.5 H 0.9375 C 1.2137 0.5 1.4375 0.27609998 1.4375 0.0 S 1.2137 -0.5 0.9375 -0.5 H 0.5 V -0.98440003 C 0.5 -1.2605001 0.2762 -1.4844 0.0 -1.4844 S -0.5 -1.2605001 -0.5 -0.98440003 V -0.5 V 0.5 Z"/>
<path id="vcross" d="M 0.5 0.5 H 0.98440003 C 1.2606001 0.5 1.4844 0.27609998 1.4844 0.0 S 1.2606001 -0.5 0.98440003 -0.5 H 0.5 V -0.75 C 0.5 -1.0261 0.2762 -1.25 0.0 -1.25 S -0.5 -1.0261 -0.5 -0.75 V -0.5 H -0.98440003 C -1.2606001 -0.5 -1.4844 -0.27609998 -1.4844 0.0 S -1.2606001 0.5 -0.98440003 0.5 H -0.5 H 0.5 Z"/>
<clipPath id="clip0">
<path d="M 0 0 L 48 0 L 576 330 L 576 360 L 528 360 L 0 30 Z"/>
</clipPath>
<clipPath id="clip1">
<rect x="0" y="180" width="144" height="90"/>
<rect x="144" y="270" width="144" height="90"/>
<rect x="288" y="0" width="144" height="90"/>
<rect x="432" y="90" width="144" height="90"/>
</clipPath>
<clipPath id="clip2">
<rect x="144" y="180" width="144" height="90"/>
<rect x="0" y="270" width="144" height="90"/>
<rect x="432" y="0" width="144" height="90"/>
<rect x="288" y="90" width="144" height="90"/>
</clipPath>
</defs>
<g>
<g>
<g>
<rect x="0" y="0" width="48" height="360" class="yellow"/>
<rect x="48" y="0" width="48" height="360" class="black"/>
<rect x="96" y="0" width="48" height="360" class="yellow"/>
<rect x="144" y="0" width="48" height="360" class="black"/>
<rect x="192" y="0" width="48" height="360" class="yellow"/>
<rect x="240" y="0" width="48" height="360" class="black"/>
<rect x="288" y="0" width="48" height="360" class="yellow"/>
<rect x="336" y="0" width="48" height="360" class="black"/>
<rect x="384" y="0" width="48" height="360" class="yellow"/>
<rect x="432" y="0" width="48" height="360" class="black"/>
<rect x="480" y="0" width="48" height="360" class="yellow"/>
<rect x="528" y="0" width="48" height="360" class="black"/>
</g>
<g clip-path="url(#clip0)">
<g>
<rect x="0" y="0" width="48" height="360" class="black"/>
<rect x="48" y="0" width="48" height="360" class="yellow"/>
<rect x="96" y="0" width="48" height="360" class="black"/>
<rect x="144" y="0" width="48" height="360" class="yellow"/>
<rect x="192" y="0" width="48" height="360" class="black"/>
<rect x="240" y="0" width="48" height="360" class="yellow"/>
<rect x="288" y="0" width="48" height="360" class="black"/>
<rect x="336" y="0" width="48" height="360" class="yellow"/>
<rect x="384" y="0" width="48" height="360" class="black"/>
<rect x="432" y="0" width="48" height="360" class="yellow"/>
<rect x="480" y="0" width="48" height="360" class="black"/>
<rect x="528" y="0" width="48" height="360" class="yellow"/>
</g>
</g>
</g>
<g>
<rect x="0" y="180" width="144" height="90" class="white"/>
<rect x="144" y="180" width="144" height="90" class="red"/>
<rect x="0" y="270" width="144" height="90" class="red"/>
<rect x="144" y="270" width="144" height="90" class="white"/>
</g>
<g>
<rect x="288" y="0" width="144" height="90" class="white"/>
<rect x="432" y="0" width="144" height="90" class="red"/>
<rect x="288" y="90" width="144" height="90" class="red"/>
<rect x="432" y="90" width="144" height="90" class="white"/>
</g>
<g clip-path="url(#clip1)">
<g>
<rect x="43.2" y="258.48" width="201.6" height="23.04" class="red"/>
<rect x="132.48" y="221.4" width="23.04" height="97.2" class="red"/>
</g>
<g>
<rect x="331.2" y="78.48" width="201.6" height="23.04" class="red"/>
<rect x="420.48" y="41.4" width="23.04" height="97.2" class="red"/>
</g>
<use xlink:href="#hcross" transform="translate(244.8 270) scale(23.04 23.04) rotate(0)" class="red"/>
<use xlink:href="#hcross" transform="translate(43.2 270) scale(23.04 23.04) rotate(180)" class="red"/>
<use xlink:href="#hcross" transform="translate(532.8 90) scale(23.04 23.04) rotate(0)" class="red"/>
<use xlink:href="#hcross" transform="translate(331.2 90) scale(23.04 23.04) rotate(180)" class="red"/>
<use xlink:href="#vcross" transform="translate(144 221.4) scale(23.04 23.04) rotate(0)" class="red"/>
<use xlink:href="#vcross" transform="translate(144 318.6) scale(23.04 23.04) rotate(180)" class="red"/>
<use xlink:href="#vcross" transform="translate(432 41.4) scale(23.04 23.04) rotate(0)" class="red"/>
<use xlink:href="#vcross" transform="translate(432 138.6) scale(23.04 23.04) rotate(180)" class="red"/>
</g>
<g clip-path="url(#clip2)">
<g>
<rect x="43.2" y="258.48" width="201.6" height="23.04" class="white"/>
<rect x="132.48" y="221.4" width="23.04" height="97.2" class="white"/>
</g>
<g>
<rect x="331.2" y="78.48" width="201.6" height="23.04" class="white"/>
<rect x="420.48" y="41.4" width="23.04" height="97.2" class="white"/>
</g>
<use xlink:href="#hcross" transform="translate(244.8 270) scale(23.04 23.04) rotate(0)" class="white"/>
<use xlink:href="#hcross" transform="translate(43.2 270) scale(23.04 23.04) rotate(180)" class="white"/>
<use xlink:href="#hcross" transform="translate(532.8 90) scale(23.04 23.04) rotate(0)" class="white"/>
<use xlink:href="#hcross" transform="translate(331.2 90) scale(23.04 23.04) rotate(180)" class="white"/>
<use xlink:href="#vcross" transform="translate(144 221.4) scale(23.04 23.04) rotate(0)" class="white"/>
<use xlink:href="#vcross" transform="translate(144 318.6) scale(23.04 23.04) rotate(180)" class="white"/>
<use xlink:href="#vcross" transform="translate(432 41.4) scale(23.04 23.04) rotate(0)" class="white"/>
<use xlink:href="#vcross" transform="translate(432 138.6) scale(23.04 23.04) rotate(180)" class="white"/>
</g>
</g>
</svg>
