<?xml version="1.0"?>
<svg xmlns="http://www.w3.org/2000/svg" xmlns:xlink="http://www.w3.org/1999/xlink" version="1.1" width="576" height="360" viewBox="0 0 576 360">
<!-- Generated by Kreative Vexillo v1.0 -->
<style>
.blue{fill:rgb(0,28,90);}
.red{fill:rgb(193,19,61);}
.white{fill:rgb(255,255,255);}
</style>
<defs>
<path id="-glazearea" d="M 0.0 0.0 L 1.0 0.1875 L 0.7692308 0.5 L 1.0 0.8125 L 0.0 1.0 Z"/>
<path id="star" d="M 0.0 -1.0 L 0.2245 -0.309 L 0.9511 -0.309 L 0.3633 0.118 L 0.5878 0.809 L 0.0 0.382 L -0.5878 0.809 L -0.3633 0.118 L -0.9511 -0.309 L -0.2245 -0.309 Z"/>
<clipPath id="clip0">
<use xlink:href="#-glazearea" transform="translate(0 0) scale(576 360) rotate(0)"/>
</clipPath>
</defs>
<g>
<g clip-path="url(#clip0)">
<rect x="0" y="0" width="576" height="360" class="white"/>
<path d="M 5.2376 -44.6942 L 5.2376 -44.6942 L 1157.2375 90.3058 L 1146.7625 179.6942 L -5.2376 44.6942 Z" class="red"/>
<path d="M 0 157.5 L 0 157.5 L 576 157.5 L 576 202.5 L 0 202.5 Z" class="red"/>
<path d="M -5.2376 315.3058 L -5.2376 315.3058 L 1146.7625 180.3058 L 1157.2375 269.6942 L 5.2376 404.6942 Z" class="red"/>
</g>
<path d="M 0 0 L 354.4615 180 L 0 360 Z" class="blue"/>
<ellipse cx="109.5346" cy="180" rx="65.7208" ry="65.7208" class="white"/>
<ellipse cx="109.5346" cy="180" rx="43.8139" ry="43.8139" class="red"/>
<g>
<use xlink:href="#star" transform="translate(149.8023 257.8276) scale(14.6046 14.6046) rotate(-207.3568)" class="white"/>
<use xlink:href="#star" transform="translate(106.5034 267.5753) scale(14.6046 14.6046) rotate(-178.0176)" class="white"/>
<use xlink:href="#star" transform="translate(63.9822 254.8571) scale(14.6046 14.6046) rotate(-148.6784)" class="white"/>
<use xlink:href="#star" transform="translate(33.1466 222.9357) scale(14.6046 14.6046) rotate(-119.3392)" class="white"/>
<use xlink:href="#star" transform="translate(21.9069 180) scale(14.6046 14.6046) rotate(-90)" class="white"/>
<use xlink:href="#star" transform="translate(33.1466 137.0643) scale(14.6046 14.6046) rotate(-60.6608)" class="white"/>
<use xlink:href="#star" transform="translate(63.9822 105.1429) scale(14.6046 14.6046) rotate(-31.3216)" class="white"/>
<use xlink:href="#star" transform="translate(106.5034 92.4247) scale(14.6046 14.6046) rotate(-1.9824)" class="white"/>
<use xlink:href="#star" transform="translate(149.8023 102.1724) scale(14.6046 14.6046) rotate(27.3568)" class="white"/>
</g>
<g>
<g>
<use xlink:href="#star" transform="translate(23.1259 279.0476) scale(14.6046 14.6046) rotate(-138.8987)" class="white"/>
<use xlink:href="#star" transform="translate(61.2718 302.2603) scale(14.6046 14.6046) rotate(-158.4581)" class="white"/>
</g>
<g>
<use xlink:href="#star" transform="translate(23.1259 80.9524) scale(14.6046 14.6046) rotate(-41.1013)" class="white"/>
<use xlink:href="#star" transform="translate(61.2718 57.7397) scale(14.6046 14.6046) rotate(-21.5419)" class="white"/>
</g>
</g>
<use xlink:href="#star" transform="translate(197.1624 180) scale(14.6046 14.6046) rotate(90)" class="white"/>
<use xlink:href="#star" transform="translate(284.7901 180) scale(14.6046 14.6046) rotate(90)" class="white"/>
<g>
<use xlink:href="#star" transform="translate(239.0661 157.6732) scale(14.6046 14.6046) rotate(80.2203)" class="white"/>
<use xlink:href="#star" transform="translate(239.0661 202.3268) scale(14.6046 14.6046) rotate(99.7797)" class="white"/>
</g>
</g>
</svg>
