<?xml version="1.0"?>
<svg xmlns="http://www.w3.org/2000/svg" xmlns:xlink="http://www.w3.org/1999/xlink" version="1.1" width="576" height="360" viewBox="0 0 576 360">
<!-- Generated by Kreative Vexillo v1.0 -->
<style>
.blue{fill:rgb(75,146,219);}
.green{fill:rgb(0,105,60);}
.white{fill:rgb(255,255,255);}
.yellow{fill:rgb(255,182,18);}
</style>
<defs>
<clipPath id="clip0">
<rect x="208" y="135" width="90" height="90"/>
</clipPath>
</defs>
<g>
<rect x="0" y="0" width="576" height="360" class="green"/>
<path d="M 0 145 L 168 145 L 168 0 L 288 0 L 288 95 L 576 95 L 576 215 L 338 215 L 338 360 L 218 360 L 218 265 L 0 265 Z" class="white"/>
<path d="M 0 155 L 178 155 L 178 0 L 278 0 L 278 105 L 576 105 L 576 205 L 328 205 L 328 360 L 228 360 L 228 255 L 0 255 Z" class="yellow"/>
<path d="M 0 175 L 198 175 L 198 0 L 258 0 L 258 125 L 576 125 L 576 185 L 308 185 L 308 360 L 248 360 L 248 235 L 0 235 Z" class="white"/>
<path d="M 0 185 L 208 185 L 248 225 L 0 225 Z" class="blue"/>
<path d="M 208 0 L 248 0 L 248 135 L 208 175 Z" class="blue"/>
<path d="M 576 135 L 576 175 L 298 175 L 258 135 Z" class="blue"/>
<path d="M 258 360 L 258 225 L 298 185 L 298 360 Z" class="blue"/>
<g clip-path="url(#clip0)">
<ellipse cx="208" cy="135" rx="40" ry="40" class="blue"/>
<ellipse cx="298" cy="135" rx="40" ry="40" class="blue"/>
<ellipse cx="208" cy="225" rx="40" ry="40" class="blue"/>
<ellipse cx="298" cy="225" rx="40" ry="40" class="blue"/>
</g>
</g>
</svg>
