<?xml version="1.0"?>
<svg xmlns="http://www.w3.org/2000/svg" xmlns:xlink="http://www.w3.org/1999/xlink" version="1.1" width="576" height="360" viewBox="0 0 576 360">
<!-- Generated by Kreative Vexillo v1.0 -->
<style>
.blue{fill:rgb(0,0,204);}
.red{fill:rgb(255,0,0);}
.yellow{fill:rgb(255,255,0);}
</style>
<g>
<rect x="0" y="0" width="576" height="360" class="blue"/>
<path d="M 0 0 L 0 29.3905 L 0 29.3905 L 240.9752 180 L 0 330.6095 L 0 330.6095 L 0 360 L 47.0247 360 L 288 209.3905 L 288 209.3905 L 288 209.3905 L 288 209.3905 L 288 209.3905 L 288 209.3905 L 528.9752 360 L 576 360 L 576 330.6095 L 335.0248 180 L 576 29.3905 L 576 0 L 528.9752 0 L 288 150.6095 L 288 150.6095 L 47.0248 0 Z" class="yellow"/>
<g>
<rect x="0" y="155.0769" width="576" height="49.8462" class="yellow"/>
<rect x="263.0769" y="0" width="49.8462" height="360" class="yellow"/>
</g>
<path d="M 0 0 L 0 19.5937 L 0 19.5937 L 256.6501 180 L 0 340.4063 L 0 360 L 31.3499 360 L 288 199.5937 L 288 199.5937 L 544.6501 360 L 576 360 L 576 340.4063 L 319.3499 180 L 576 19.5937 L 576 0 L 544.6501 0 L 288 160.4063 L 31.3498 0 Z" class="red"/>
<g>
<rect x="0" y="163.3846" width="576" height="33.2308" class="red"/>
<rect x="271.3846" y="0" width="33.2308" height="360" class="red"/>
</g>
<ellipse cx="288" cy="180" rx="96.9231" ry="96.9231" class="yellow"/>
<ellipse cx="288" cy="180" rx="83.0769" ry="83.0769" class="red"/>
</g>
</svg>
