<?xml version="1.0"?>
<svg xmlns="http://www.w3.org/2000/svg" xmlns:xlink="http://www.w3.org/1999/xlink" version="1.1" width="576" height="360" viewBox="0 0 576 360">
<!-- Generated by Kreative Vexillo v1.0 -->
<style>
.b1{fill:rgb(9,249,17);}
.b2{fill:rgb(2,157,116);}
.b3{fill:rgb(227,91,216);}
.b4{fill:rgb(65,86,197);}
.b5{fill:rgb(99,86,136);}
.white{fill:rgb(255,255,255);}
</style>
<defs>
<path id="c0" d="M -0.341 -0.058 V -0.157 H -0.438 V -0.19800001 H -0.341 V -0.29500002 H -0.299 V -0.19800001 H -0.20199999 V -0.157 H -0.299 V -0.058000006 H -0.341 Z M 0.12 -0.125 L 0.168 -0.113 C 0.157 -0.075 0.14 -0.045 0.114 -0.024 C 0.088 -0.0030000005 0.056 0.005999999 0.019000001 0.005999999 C -0.02 0.005999999 -0.051 -0.0020000013 -0.074999996 -0.017 C -0.099 -0.033 -0.117 -0.056 -0.13 -0.086 C -0.14299999 -0.115 -0.14899999 -0.148 -0.14899999 -0.18200001 C -0.14899999 -0.21900001 -0.14199999 -0.252 -0.12799999 -0.28 S -0.09399999 -0.329 -0.06699999 -0.343 C -0.040999986 -0.35799998 -0.011999987 -0.365 0.02000001 -0.365 C 0.05600001 -0.365 0.08600001 -0.356 0.110000014 -0.338 C 0.135 -0.318 0.151 -0.293 0.161 -0.26 L 0.115 -0.249 C 0.106 -0.275 0.095 -0.294 0.079 -0.306 C 0.063 -0.318 0.043000005 -0.324 0.019000005 -0.324 C -0.007999996 -0.324 -0.030999996 -0.318 -0.049999993 -0.304 S -0.082 -0.273 -0.089 -0.25 C -0.096 -0.229 -0.1 -0.206 -0.1 -0.182 C -0.1 -0.152 -0.096 -0.125 -0.087 -0.102 C -0.077999994 -0.08 -0.063999996 -0.062 -0.044999998 -0.051 S -0.0059999973 -0.033999998 0.016000003 -0.033999998 C 0.042000003 -0.033999998 0.065 -0.042 0.083000004 -0.056999996 C 0.102 -0.073 0.113 -0.095 0.12 -0.125 Z M 0.208 -0.177 C 0.208 -0.219 0.213 -0.253 0.222 -0.27899998 S 0.243 -0.324 0.26 -0.339 C 0.278 -0.353 0.299 -0.35999998 0.325 -0.35999998 C 0.34399998 -0.35999998 0.361 -0.35599998 0.375 -0.348 C 0.39 -0.34 0.402 -0.329 0.411 -0.314 C 0.421 -0.3 0.428 -0.282 0.434 -0.261 S 0.44199997 -0.21200001 0.44199997 -0.17700002 C 0.44199997 -0.13500002 0.43799996 -0.10100002 0.42899996 -0.07500002 S 0.407 -0.029 0.39 -0.015 C 0.373 -0.001 0.352 0.006 0.325 0.006 C 0.29 0.006 0.26299998 -0.006 0.24399999 -0.031 C 0.22 -0.061 0.208 -0.109 0.208 -0.177 Z M 0.254 -0.177 C 0.254 -0.118 0.261 -0.079 0.275 -0.059 S 0.305 -0.03 0.325 -0.03 C 0.345 -0.03 0.362 -0.04 0.376 -0.059 S 0.39699998 -0.118 0.39699998 -0.176 S 0.39 -0.274 0.376 -0.294 S 0.345 -0.323 0.324 -0.323 C 0.304 -0.323 0.288 -0.314 0.276 -0.29700002 C 0.261 -0.275 0.254 -0.235 0.254 -0.177 Z"/>
</defs>
<g>
<g>
<rect x="0" y="0" width="115.2" height="360" class="b1"/>
<rect x="115.2" y="0" width="115.2" height="360" class="b2"/>
<rect x="230.4" y="0" width="115.2" height="360" class="b3"/>
<rect x="345.6" y="0" width="115.2" height="360" class="b4"/>
<rect x="460.8" y="0" width="115.2" height="360" class="b5"/>
</g>
<use xlink:href="#c0" transform="translate(518.4 336.6) scale(115.2 115.2) rotate(0)" class="white"/>
</g>
</svg>
