<?xml version="1.0"?>
<svg xmlns="http://www.w3.org/2000/svg" xmlns:xlink="http://www.w3.org/1999/xlink" version="1.1" width="576" height="360" viewBox="0 0 576 360">
<!-- Generated by Kreative Vexillo v1.0 -->
<style>
.blue{fill:rgb(0,36,125);}
.red{fill:rgb(207,20,43);}
.white{fill:rgb(255,255,255);}
</style>
<defs>
<clipPath id="clip0">
<path d="M 0 0 L 0 13.8252 L 0 13.8252 L 106.6448 90 L 106.6448 90 L 0 166.1748 L 0 166.1748 L 0 180 L 19.3552 180 L 126 103.8252 L 126 103.8252 L 232.6448 180 L 252 180 L 252 166.1748 L 252 166.1748 L 145.3552 90 L 252 13.8252 L 252 0 L 232.6448 0 L 126 76.1748 L 126 76.1748 L 126 76.1748 L 126 76.1748 L 19.3552 0 Z"/>
</clipPath>
</defs>
<g>
<g>
<rect x="0" y="0" width="576" height="45" class="white"/>
<rect x="0" y="45" width="576" height="45" class="red"/>
<rect x="0" y="90" width="576" height="45" class="blue"/>
<rect x="0" y="135" width="576" height="45" class="white"/>
<rect x="0" y="180" width="576" height="45" class="red"/>
<rect x="0" y="225" width="576" height="45" class="blue"/>
<rect x="0" y="270" width="576" height="45" class="white"/>
<rect x="0" y="315" width="576" height="45" class="red"/>
</g>
<g>
<rect x="0" y="0" width="252" height="180" class="blue"/>
<path d="M 0 0 L 0 20.7377 L 0 20.7377 L 96.9672 90 L 0 159.2623 L 0 159.2623 L 0 180 L 29.0328 180 L 126 110.7377 L 126 110.7377 L 222.9672 180 L 252 180 L 252 159.2623 L 155.0328 90 L 252 20.7377 L 252 0 L 222.9672 0 L 126 69.2623 L 126 69.2623 L 29.0328 0 Z" class="white"/>
<g clip-path="url(#clip0)">
<path d="M 0 0 L 126 90 L 0 90 Z" class="red"/>
<path d="M 252 0 L 126 90 L 126 0 Z" class="red"/>
<path d="M 0 180 L 126 90 L 126 180 Z" class="red"/>
<path d="M 252 180 L 126 90 L 252 90 Z" class="red"/>
</g>
<g>
<rect x="0" y="67.5" width="252" height="45" class="white"/>
<rect x="103.5" y="0" width="45" height="180" class="white"/>
</g>
<g>
<rect x="0" y="73.125" width="252" height="33.75" class="red"/>
<rect x="109.125" y="0" width="33.75" height="180" class="red"/>
</g>
</g>
</g>
</svg>
