<?xml version="1.0"?>
<svg xmlns="http://www.w3.org/2000/svg" xmlns:xlink="http://www.w3.org/1999/xlink" version="1.1" width="576" height="360" viewBox="0 0 576 360">
<!-- Generated by Kreative Vexillo v1.0 -->
<style>
.blue{fill:rgb(34,85,158);}
.red{fill:rgb(227,49,49);}
.white{fill:rgb(255,255,255);}
.yellow{fill:rgb(248,244,0);}
</style>
<defs>
<path id="disc" d="M 0.5 0.0 A 0.5 0.5 0.0 0 0 -0.5 0.0 A 0.5 0.5 0.0 0 0 0.5 0.0 Z"/>
<path id="s" d="M -0.2566 0.0 C -0.4209 -0.098 -0.5 -0.297 -0.5 -0.5 H -0.4246 C -0.4246 -0.4979 -0.4247 -0.4957 -0.4247 -0.493 C -0.4246 -0.424 -0.41169998 -0.18259999 -0.2294 0.0 C -0.4118 0.1826 -0.4246 0.4239 -0.4247 0.493 C -0.4247 0.49560001 -0.4246 0.4979 -0.4246 0.5 H -0.5 C -0.5 0.297 -0.4209 0.098 -0.2566 0.0 M -0.3977 -0.493 C -0.3977 -0.4957 -0.3977 -0.4979 -0.39760002 -0.5 H -0.32150003 C -0.32150003 -0.4975 -0.32150003 -0.4947 -0.32150003 -0.4915 C -0.3214 -0.4217 -0.3082 -0.1893 -0.1752 0.0 C -0.3082 0.1894 -0.3215 0.4217 -0.32160002 0.4915 C -0.32160002 0.49469998 -0.32160002 0.4975 -0.32160002 0.5 H -0.3977 C -0.3978 0.4979 -0.3978 0.4956 -0.3978 0.493 C -0.3978 0.4259 -0.3808 0.1848 -0.2023 0.0 C -0.3808 -0.1848 -0.3978 -0.4259 -0.3977 -0.493 M -0.1481 0.0 L -0.15280001 -0.0065 C -0.28750002 -0.213 -0.29470003 -0.4233 -0.2945 -0.49150002 C -0.2945 -0.4947 -0.2944 -0.49750003 -0.2944 -0.5 H -0.21830001 V -0.488 C -0.21830001 -0.4154 -0.21070002 -0.1931 -0.12250002 0.0 C -0.2108 0.1931 -0.2183 0.4154 -0.2183 0.488 V 0.5 H -0.2944 C -0.2944 0.4976 -0.2945 0.4947 -0.2945 0.4915 C -0.29479998 0.4233 -0.2875 0.213 -0.1528 0.006499976 M -0.0943 0.0 L -0.0952 -0.0018 C -0.183 -0.1894 -0.1914 -0.4167 -0.1913 -0.488 C -0.1913 -0.4928 -0.1913 -0.49670002 -0.1912 -0.5 H -0.115100004 C -0.115200005 -0.494 -0.115200005 -0.4862 -0.115200005 -0.4761 C -0.115200005 -0.3948 -0.1106 -0.18939999 -0.067700006 0.0 C -0.1107 0.1894 -0.1153 0.3949 -0.1153 0.476 C -0.1153 0.4862 -0.1153 0.4939 -0.1152 0.4999 H -0.1913 C -0.1914 0.49650002 -0.1914 0.4927 -0.1914 0.48790002 C -0.1914 0.4167 -0.183 0.1894 -0.0951 0.0018 M -0.04 0.0 L -0.0407 -0.003 C -0.0835 -0.1897 -0.0882 -0.3956 -0.0882 -0.4761 C -0.0882 -0.4863 -0.0881 -0.4941 -0.0881 -0.5 H -0.013000004 V 0.5 H -0.0881 C -0.0881 0.4942 -0.0882 0.4863 -0.0882 0.4761 C -0.0882 0.3956 -0.083500005 0.1898 -0.040700004 0.0031000078 M 0.2566 0.0 C 0.4209 -0.098 0.5 -0.297 0.5 -0.5 H 0.4246 C 0.4246 -0.4979 0.4247 -0.4957 0.4247 -0.493 C 0.4246 -0.424 0.41169998 -0.18259999 0.2294 0.0 C 0.4118 0.1826 0.4246 0.4239 0.4247 0.493 C 0.4247 0.49560001 0.4246 0.4979 0.4246 0.5 H 0.5 C 0.5 0.297 0.4209 0.098 0.2566 0.0 M 0.3977 -0.493 C 0.3977 -0.4957 0.3977 -0.4979 0.39760002 -0.5 H 0.3215 C 0.3215 -0.4975 0.3215 -0.4947 0.3215 -0.4915 C 0.3214 -0.4217 0.3082 -0.1893 0.1752 0.0 C 0.3082 0.1894 0.3215 0.4217 0.32160002 0.4915 C 0.32160002 0.49469998 0.32160002 0.4975 0.32160002 0.5 H 0.3977 C 0.3978 0.4979 0.3978 0.4956 0.3978 0.493 C 0.3979 0.42589998 0.381 0.1848 0.2025 0.0 C 0.3809 -0.1848 0.3978 -0.4259 0.3977 -0.493 M 0.1481 0.0 L 0.15280001 -0.0065 C 0.2875 -0.213 0.2947 -0.4233 0.2945 -0.4915 C 0.2945 -0.49469998 0.2944 -0.4975 0.2944 -0.5 H 0.2184 V -0.488 C 0.2184 -0.4154 0.2108 -0.1931 0.1225 0.0 C 0.21079999 0.1931 0.2184 0.4154 0.2184 0.488 V 0.5 H 0.2944 C 0.2944 0.4976 0.2945 0.4947 0.2945 0.4915 C 0.29479998 0.4233 0.2875 0.213 0.1529 0.006499976 M 0.0943 0.0 L 0.0952 -0.0018 C 0.183 -0.1894 0.1914 -0.4167 0.1913 -0.488 C 0.1913 -0.4928 0.1913 -0.49670002 0.1912 -0.5 H 0.1152 C 0.1153 -0.494 0.1153 -0.4862 0.1153 -0.4761 C 0.1153 -0.3948 0.1107 -0.18939999 0.0678 0.0 C 0.1107 0.1894 0.1153 0.3949 0.1153 0.476 C 0.1153 0.4862 0.1153 0.4939 0.1152 0.4999 H 0.1913 C 0.1914 0.49650002 0.1914 0.4927 0.1914 0.48790002 C 0.1914 0.4167 0.183 0.1894 0.0951 0.0018 M 0.04 0.0 L 0.0407 -0.003 C 0.0835 -0.1897 0.0882 -0.3956 0.0882 -0.4761 C 0.0882 -0.4863 0.0881 -0.4941 0.0881 -0.5 H 0.013 V 0.5 H 0.0881 C 0.0882 0.4942 0.0882 0.4863 0.0882 0.4761 C 0.0882 0.3956 0.083500005 0.1898 0.040700004 0.0031000078"/>
</defs>
<g>
<rect x="0" y="0" width="576" height="360" class="blue"/>
<use xlink:href="#disc" transform="translate(288 180) scale(216 216) rotate(0)" class="white"/>
<use xlink:href="#disc" transform="translate(288 180) scale(205.92 205.92) rotate(0)" class="red"/>
<use xlink:href="#s" transform="translate(288 180) scale(108 108) rotate(0)" class="yellow"/>
</g>
</svg>
