<?xml version="1.0"?>
<svg xmlns="http://www.w3.org/2000/svg" xmlns:xlink="http://www.w3.org/1999/xlink" version="1.1" width="576" height="360" viewBox="0 0 576 360">
<!-- Generated by Kreative Vexillo v1.0 -->
<style>
.red{fill:rgb(255,0,0);}
.white{fill:rgb(255,255,255);}
</style>
<defs>
<path id="miarashella" d="M 77.07 40.0 H 80.0 C 91.028 40.0 100.0 31.028 100.0 20.0 S 91.028 0.0 80.0 0.0 S 60.0 8.972 60.0 20.0 V 30.0 H 40.0 V 20.0 C 40.0 8.972 31.028 0.0 20.0 0.0 S 0.0 8.972 0.0 20.0 S 8.972 40.0 20.0 40.0 H 30.0 V 100.0 H 40.0 V 40.0 H 60.0 V 100.0 H 70.0 V 47.071 L 91.465 68.535 C 92.44 69.512 93.721 70.0 95.0 70.0 S 97.56 69.512 98.535 68.535 C 100.48801 66.583 100.48801 63.417004 98.535 61.465004 L 77.07 40.0 Z M 30.0 30.0 H 20.0 C 14.486 30.0 10.0 25.514 10.0 20.0 S 14.486 10.0 20.0 10.0 S 30.0 14.486 30.0 20.0 V 30.0 Z M 70.0 20.0 C 70.0 14.486 74.486 10.0 80.0 10.0 S 90.0 14.486 90.0 20.0 S 85.514 30.0 80.0 30.0 H 70.0 V 20.0 Z"/>
</defs>
<g>
<rect x="0" y="0" width="576" height="360" class="red"/>
<use xlink:href="#miarashella" transform="translate(45 150) scale(1.8 1.8) rotate(0)" class="white"/>
<g>
<rect x="99" y="222" width="18" height="138" class="white"/>
</g>
<g>
<rect x="153" y="222" width="18" height="138" class="white"/>
</g>
</g>
</svg>
