<?xml version="1.0"?>
<svg xmlns="http://www.w3.org/2000/svg" xmlns:xlink="http://www.w3.org/1999/xlink" version="1.1" width="576" height="360" viewBox="0 0 576 360">
<!-- Generated by Kreative Vexillo v1.0 -->
<style>
.black{fill:rgb(0,0,0);}
.blue{fill:rgb(0,164,226);}
.green{fill:rgb(151,195,69);}
.orange{fill:rgb(241,94,39);}
.white{fill:rgb(255,255,255);}
</style>
<defs>
<path id="star" d="M 0.0 -1.0 L 0.2245 -0.309 L 0.9511 -0.309 L 0.3633 0.118 L 0.5878 0.809 L 0.0 0.382 L -0.5878 0.809 L -0.3633 0.118 L -0.9511 -0.309 L -0.2245 -0.309 Z"/>
<path id="text" d="M 0.1875 33.9844 V 32.4844 C 1.8379 32.468803 2.9219 32.343803 3.4404 32.1094 C 3.6606 32.0157 3.8177998 31.868202 3.9120998 31.666002 C 4.0692997 31.353502 4.1791997 30.535103 4.2422 29.210903 C 4.3203 27.1523 4.3594 25.375 4.3594 23.8789 V 4.8213 C 4.3594 4.3067 4.3282 3.9727 4.2657 3.8164 C 4.1407 3.5352 3.8595 3.2002 3.422 2.8105001 C 3.1408 2.5615 2.8165 2.4023001 2.4492998 2.3320003 S 1.2656 2.2188 0.0 2.2031 V 0.70309997 C 2.7002 0.76559997 4.3984 0.7969 5.0938 0.7969 C 6.2735 0.7969 7.4459 0.7657 8.6104 0.7032 C 9.9214 2.4327002 10.8853 3.711 11.502501 4.5362 L 16.2911 10.496201 L 23.2784 19.004002 C 25.5147 21.715902 27.3116 23.851702 28.669 25.409302 C 29.5323 26.437601 30.2574 27.248201 30.8438 27.840002 V 10.7715 C 30.8438 9.246099 30.789099 7.457 30.679699 5.4013996 C 30.6172 4.1094 30.5156 3.3086 30.375 2.9961 C 30.2656 2.7949 30.1016 2.6464999 29.8828 2.5527 C 29.3672 2.3359 28.2969 2.2188 26.6719 2.2031 V 0.70309997 C 28.5157 0.76559997 30.3828 0.7969 32.2735 0.7969 C 34.0548 0.7969 35.671898 0.7657 37.1251 0.7032 V 2.2031999 C 35.4903 2.2187998 34.4142 2.336 33.8956 2.5537999 C 33.6749 2.6476 33.5177 2.8037999 33.4239 3.0215998 C 33.2661 3.3184 33.1563 4.1367 33.0938 5.4785 C 33.0157 7.5389996 32.9766 9.3096 32.9766 10.791 V 22.048801 C 32.9766 24.3271 33.0157 28.579102 33.0938 34.804703 L 30.679699 34.101604 L 30.117199 33.984406 C 30.023499 33.953205 29.937498 33.906307 29.8594 33.843807 C 29.75 33.764706 29.4532 33.449306 28.9688 32.895607 C 27.6719 31.410208 26.7188 30.289207 26.1094 29.531307 L 23.086 25.670008 L 6.4688 5.6035 V 23.768501 C 6.4688 25.3164 6.5235 27.138601 6.6329 29.2392 C 6.6954 30.5497 6.7970004 31.3554 6.9376 31.654202 C 7.047 31.875902 7.211 32.034103 7.4298 32.128803 C 7.9454 32.349503 9.0157 32.468605 10.6407 32.484303 V 33.984303 C 9.2656 33.875 7.75 33.8203 6.0938 33.8203 C 4.2813 33.8203 2.3125 33.875 0.1875 33.9844 Z M 39.8906 17.5547 C 39.8906 15.086 40.2617 12.804701 41.0039 10.711 S 42.9766 6.7344 44.6953 5.0625 S 48.3594 2.1289 50.5313 1.2773 S 55.1875 0.0 57.9844 0.0 C 60.5625 0.0 62.906303 0.3633 65.0157 1.0898 S 68.8555 2.7773 70.2071 3.9726 S 72.625 6.4766 73.4063 7.8984 C 74.00011 8.960899 74.4727 10.210899 74.8243 11.648399 S 75.3516 14.625 75.3516 16.2656 C 75.3516 21.5312 73.5821 25.914001 70.043 29.414001 S 62.0391 34.664 56.6485 34.664 C 54.1954 34.664 51.9063 34.265602 49.7813 33.4687 S 45.859398 31.488201 44.3907 29.9179 S 41.804802 26.4413 41.0391 24.1992 S 39.8906 19.7422 39.8906 17.5547 Z M 44.7656 15.6094 C 44.7656 17.0938 44.913998 18.6016 45.2109 20.1328 S 45.8828 22.9844 46.3359 24.093699 C 47.0859 25.968699 48.0664 27.542898 49.277298 28.816399 S 51.839798 31.027298 53.331997 31.628899 S 56.476498 32.5312 58.288998 32.5312 C 60.804596 32.5312 62.992096 31.9179 64.8515 30.6914 S 68.0976 27.7383 69.0117 25.5117 S 70.3828 20.7188 70.3828 17.8125 C 70.3828 15.3281 70.054695 13.039101 69.3984 10.9453 C 68.9922 9.6641 68.4531 8.503901 67.7812 7.4648 S 66.308495 5.5195 65.3789 4.7461 S 63.2422 3.3203 61.757797 2.7891 S 58.671898 1.9921999 56.9531 1.9921999 C 54.468697 1.9921999 52.288998 2.5468998 50.413998 3.6563 S 47.1288 6.3711 46.1835 8.4727 S 44.7656 12.9531 44.7656 15.6094 Z M 79.1719 8.4609 H 77.7188 C 77.7031 4.7266 77.625 2.1406 77.4844 0.7031 C 79.1875 0.7656 81.8594 0.8438 85.5 0.9375 C 88.4531 1.0 90.4219 1.0313 91.4063 1.0313 C 92.4688 1.0313 94.9297 0.9844 98.7891 0.8907 C 101.586 0.8282 103.625 0.7657 104.9063 0.7032 C 104.7188 2.4531999 104.5938 5.0390997 104.5313 8.461 H 103.0313 L 102.8438 6.2110004 C 102.7188 4.8516006 102.632904 4.0782003 102.586006 3.8907003 S 102.47271 3.5704002 102.3868 3.4923003 S 102.1719 3.3516 102.0 3.3047 C 101.7813 3.2577999 101.0 3.1952999 99.6563 3.1172 S 97.25 3.0 96.4688 3.0 H 93.609406 C 93.4531 4.498 93.375 6.5195 93.375 9.0645 V 22.7656 C 93.375 24.8886 93.3984 26.957 93.4453 28.9707 C 93.492195 30.4551 93.6055 31.3359 93.785095 31.617199 S 94.2539 32.1055 94.6523 32.2383 S 96.179596 32.453102 98.039 32.4844 V 33.9844 C 95.2421 33.8594 93.1406 33.7969 91.7343 33.7969 C 91.1249 33.7969 88.6874 33.8594 84.4218 33.9844 V 32.4844 C 86.2714 32.4532 87.3984 32.3711 87.8027 32.2383 S 88.479 31.9219 88.619095 31.6875 C 88.8212 31.375 88.9453 30.6191 88.992096 29.416 C 88.992096 29.0879 89.0312 26.871101 89.1093 22.7656 V 9.1113 C 89.1093 8.457001 89.0937 7.7383003 89.0624 6.9570007 L 88.9219 3.0 H 85.429695 C 83.4141 3.0 81.8125 3.0781 80.625 3.2344 C 80.25 3.2813 80.0078 3.3828 79.8984 3.5391 C 79.7265 3.8047 79.5703 4.6563 79.4297 6.0937996 L 79.1719 8.4609 Z M 117.3281 43.0313 L 117.3984 41.4141 V 41.086002 C 117.3984 40.7266 117.375 40.1719 117.3281 39.4219 L 117.7734 39.117203 C 118.2265 39.4453 118.6445 39.675804 119.0273 39.8086 S 119.8359 40.0078 120.304596 40.0078 C 121.1484 40.0078 121.7968 39.8398 122.24989 39.503902 S 123.0312 38.6445 123.23429 37.9336 S 123.538994 35.3516 123.538994 32.3203 V 11.9531 C 123.538994 9.8281 123.49989 7.75 123.42179 5.7187004 C 123.390594 4.2343006 123.28559 3.3554003 123.10689 3.0820005 S 122.63669 2.6054006 122.23239 2.4726005 S 120.709 2.2578 118.875 2.2266 V 0.7031 C 121.3438 0.8125 123.6563 0.8672 125.8125 0.8672 C 128.0938 0.8672 130.4141 0.8125 132.7734 0.7031 V 2.2265 C 130.9389 2.2578 129.81981 2.3398001 129.41551 2.4726 S 128.73972 2.789 128.59961 3.0234 C 128.3975 3.3359 128.2729 4.0937 128.22661 5.2968 C 128.22661 5.6093 128.18752 7.8281 128.1094 11.9531 V 28.7813 C 128.1094 31.3438 127.89071 33.3672 127.45321 34.8516 S 126.27741 37.7461 125.23841 39.0821 S 123.07041 41.429802 121.85171 42.117302 S 119.45331 43.1486 118.31261 43.1486 C 118.0 43.1484 117.6719 43.1094 117.3281 43.0313 Z M 134.5781 2.2031 V 0.70309997 C 137.125 0.81249994 139.49219 0.86719996 141.67969 0.86719996 C 143.89848 0.86719996 146.1016 0.81249994 148.2891 0.70309997 V 2.2031 C 146.45459 2.2344 145.3355 2.3164 144.9312 2.4492 S 144.2554 2.7645998 144.1153 2.998 C 143.9132 3.3105 143.78859 4.0683 143.7423 5.2705 C 143.7228 5.5820003 143.6837 7.7998 143.62509 11.9219 V 20.585999 C 143.62509 23.943398 143.83989 26.1563 144.26959 27.226599 C 144.6993 28.294998 145.38289 29.181698 146.32039 29.883799 C 147.03918 30.414099 148.00789 30.8399 149.22668 31.160198 S 151.80478 31.640697 153.30478 31.640697 C 155.05478 31.640697 156.60948 31.425898 157.96887 30.996197 S 160.34778 30.044096 161.02747 29.427797 C 161.70717 28.810596 162.21497 28.119198 162.55087 27.355497 C 162.88678 26.589897 163.12897 25.539097 163.27747 24.205097 C 163.4258 22.8701 163.5 21.1797 163.5 19.1348 V 11.9219 C 163.5 9.7989 163.4609 7.7216997 163.3828 5.6913996 C 163.3516 4.2089996 163.2466 3.3300996 163.0679 3.0565996 C 162.8892 2.7840996 162.5977 2.5819995 162.1934 2.4491997 S 160.67 2.2343998 158.836 2.2030997 V 0.7030997 C 161.4088 0.8124997 163.2877 0.8671997 164.4732 0.8671997 C 165.5489 0.8671997 167.49031 0.8124997 170.2969 0.7030997 V 2.2030997 C 168.44681 2.2343998 167.3238 2.3163998 166.9273 2.4491997 C 166.53131 2.5819998 166.25491 2.7645998 166.0997 2.9979997 C 165.91321 3.3114996 165.7965 4.0683 165.7501 5.2713995 C 165.73451 5.5828996 165.7032 7.800699 165.6564 11.9218 V 19.7675 C 165.6564 23.6249 165.3869 26.3183 164.84781 27.847599 C 164.30872 29.378899 163.32051 30.728498 161.88301 31.9003 C 160.80492 32.7743 159.41821 33.453 157.72281 33.9374 S 154.1486 34.664 152.0861 34.664 C 149.6799 34.664 147.5939 34.378803 145.82831 33.808502 S 142.7189 32.4892 141.7971 31.560503 C 140.8752 30.630802 140.2424 29.683502 139.8987 28.714804 C 139.4612 27.434504 139.2425 25.287104 139.2425 22.273403 V 11.9219 C 139.2425 9.7989 139.21909 7.7226996 139.1722 5.6924 C 139.12529 4.209 139.012 3.3311 138.8324 3.0576 C 138.6527 2.7851 138.3637 2.582 137.9652 2.4492002 S 136.4375 2.2344 134.5781 2.2031 Z M 172.5 32.8311 C 172.75 31.3321 172.8984 28.9043 172.9453 25.5469 H 174.5156 C 174.59369 27.8282 174.7226 29.1758 174.9028 29.589901 S 175.5171 30.4454 176.2055 30.9141 S 177.8173 31.8008 178.97551 32.168 C 180.13321 32.5352 181.2519 32.7188 182.33151 32.7188 C 183.91211 32.7188 185.36761 32.3536 186.69771 31.626999 C 188.0278 30.898499 188.998 29.9434 189.60791 28.7608 S 190.5234 26.314499 190.5234 24.9669 C 190.5234 23.9376 190.37111 23.047 190.0664 22.297 S 189.29741 20.941502 188.6728 20.481602 C 188.0478 20.020702 187.2744 19.697401 186.35301 19.509901 C 185.7754 19.4162 184.61911 19.257002 182.88571 19.0314 C 181.15231 18.8068 179.6757 18.5627 178.45601 18.297 C 176.83 17.799002 175.63422 17.213001 174.8681 16.5431 C 174.102 15.871201 173.4809 14.9904 173.0043 13.898601 C 172.5272 12.806801 172.289 11.629101 172.289 10.3654 C 172.289 8.5246 172.7695 6.7892003 173.73041 5.1593003 S 176.1132 2.2618003 177.996 1.3575003 C 179.8789 0.4521 181.9219 0.0 184.125 0.0 C 185.4531 0.0 186.9023 0.1758 188.4727 0.5273 C 190.043 0.8808 191.5079 1.3924999 192.8672 2.0664 C 192.6485 3.0508 192.4922 3.9668002 192.3985 4.8184004 S 192.2344 6.9229 192.1875 8.5781 H 190.6172 C 190.5703 6.1719003 190.4995 4.8594003 190.4058 4.6406 C 190.01471 4.0781 189.48251 3.5703 188.8096 3.1172004 C 187.1973 2.2110004 185.5147 1.7578003 183.7622 1.7578003 C 181.4927 1.7578003 179.6811 2.4473004 178.3276 3.8252003 C 176.9736 5.2031 176.2969 6.9912 176.2969 9.1875 C 176.2969 10.5156 176.53911 11.543 177.024 12.2695 S 178.3761 13.5771 179.627 14.013599 C 180.4874 14.3115 181.8936 14.590699 183.8458 14.852499 C 185.79889 15.115199 187.5562 15.394499 189.1183 15.691399 C 190.5871 16.128899 191.6725 16.6484 192.3756 17.249998 C 193.07869 17.852499 193.6564 18.642597 194.1095 19.619099 S 194.7892 21.742098 194.7892 23.054598 C 194.7892 26.165897 193.5001 28.878798 190.922 31.193298 C 188.3439 33.506798 185.0079 34.663998 180.9142 34.663998 C 177.8203 34.6641 175.0156 34.0527 172.5 32.8311 Z M 199.1016 8.4609 H 197.6485 C 197.6329 4.7265005 197.5548 2.1406002 197.4141 0.7031002 C 199.11719 0.7656002 201.7891 0.8437002 205.42969 0.93750024 C 208.38278 1.0000002 210.3516 1.0313002 211.33598 1.0313002 C 212.39848 1.0313002 214.85939 0.9844002 218.71878 0.8907002 C 221.51569 0.8282002 223.55469 0.7657002 224.83598 0.7032002 C 224.64848 2.4532003 224.52348 5.0391 224.46098 8.461 H 222.96098 L 222.77348 6.2110004 C 222.64848 4.8516006 222.56258 4.0782003 222.51569 3.8907003 S 222.40239 3.5704002 222.31648 3.4923003 S 222.10168 3.3517003 221.92978 3.3048003 C 221.71107 3.2579002 220.92978 3.1954002 219.58607 3.1173003 S 217.1797 3.0 216.3984 3.0 H 213.539 C 213.3828 4.498 213.3046 6.5195 213.3046 9.0645 V 22.7656 C 213.3046 24.8886 213.328 26.957 213.3749 28.9707 C 213.4218 30.4551 213.5351 31.3359 213.71469 31.617199 S 214.18349 32.1055 214.5819 32.2383 S 216.10919 32.453102 217.9686 32.4844 V 33.9844 C 215.17169 33.8594 213.07019 33.7969 211.6639 33.7969 C 211.05449 33.7969 208.61699 33.8594 204.3514 33.9844 V 32.4844 C 206.20099 32.4532 207.32799 32.3711 207.7323 32.2383 S 208.4086 31.9219 208.5487 31.6875 C 208.75081 31.375 208.87491 30.6191 208.9217 29.416 C 208.9217 29.0879 208.9608 26.871101 209.03891 22.7656 V 9.1113 C 209.03891 8.457001 209.02332 7.7383003 208.992 6.9570007 L 208.8516 3.0 H 205.35939 C 203.3438 3.0 201.74219 3.0781 200.55469 3.2344 C 200.17969 3.2813 199.93748 3.3828 199.8281 3.5391 C 199.6563 3.8047 199.5 4.6563 199.3594 6.0938 L 199.1016 8.4609 Z M 236.8594 33.9844 V 32.3907 C 238.0952 32.375103 238.8657 32.324303 239.1709 32.2384 S 239.7578 31.9884 240.0156 31.746199 C 240.2739 31.503998 240.6455 30.8751 241.1308 29.859499 C 241.4121 29.281399 242.4291 27.0861 244.1816 23.2736 L 250.0493 10.054899 C 250.6909 8.601799 252.0596 5.367399 254.1562 0.351799 H 255.6562 L 265.6782 23.859598 C 267.3056 27.672098 268.3847 30.062698 268.917 31.031498 C 269.2144 31.578398 269.5391 31.937798 269.89108 32.109596 S 271.03708 32.375195 272.27338 32.390896 V 33.984695 C 269.83197 33.828495 268.1259 33.750294 267.15567 33.750294 L 259.60297 33.984695 V 32.390995 C 261.35248 32.359795 262.41547 32.305096 262.79047 32.226894 S 263.41885 32.035496 263.55215 31.887094 C 263.68497 31.738695 263.75186 31.555094 263.75186 31.336294 C 263.75186 30.992594 263.64197 30.547194 263.42325 30.000395 L 260.54385 22.828495 H 246.97105 L 244.42566 28.851894 C 243.97105 29.929995 243.74406 30.719095 243.74406 31.219093 C 243.74406 31.437893 243.80656 31.617493 243.93257 31.758194 C 244.10448 31.961294 244.37007 32.101994 244.73047 32.180096 C 245.30807 32.305096 246.32426 32.375397 247.77737 32.390995 V 33.984795 C 245.13527 33.844196 243.15677 33.773895 241.84088 33.773895 C 240.3213 33.7734 238.6606 33.8438 236.8594 33.9844 Z M 247.7783 20.8359 H 259.5928 L 253.7583 6.730399 L 247.7783 20.8359 Z M 274.7344 33.9844 V 32.4844 C 276.3848 32.468803 277.4688 32.343803 277.9873 32.1094 C 278.20752 32.0157 278.36472 31.868202 278.459 31.666002 C 278.6162 31.353502 278.7261 30.535103 278.78912 29.210903 C 278.86722 27.152304 278.9063 25.375004 278.9063 23.878902 V 4.8213 C 278.9063 4.3067 278.87512 3.9727 278.81262 3.8164 C 278.68762 3.5352 278.40643 3.2002 277.96893 2.8105001 C 277.68774 2.5615 277.36343 2.4023001 276.99625 2.3320003 S 275.8125 2.2188 274.5469 2.2031 V 0.70309997 C 277.2471 0.76559997 278.9453 0.7969 279.64072 0.7969 C 280.8204 0.7969 281.99283 0.7657 283.15732 0.7032 C 284.46832 2.4327002 285.43222 3.711 286.0494 4.5362 L 290.838 10.496201 L 297.82532 19.004002 C 300.0616 21.715902 301.85852 23.851702 303.2159 25.409302 C 304.07922 26.437601 304.80432 27.248201 305.39072 27.840002 V 10.7715 C 305.39072 9.246099 305.33603 7.457 305.22662 5.4013996 C 305.16412 4.1094 305.06253 3.3085997 304.92194 2.9960997 C 304.81253 2.7948997 304.64853 2.6464996 304.42975 2.5526998 C 303.9141 2.3359 302.8438 2.2188 301.2188 2.2031 V 0.70309997 C 303.06262 0.76559997 304.92972 0.7969 306.8204 0.7969 C 308.6017 0.7969 310.2188 0.7657 311.672 0.7032 V 2.2031999 C 310.0372 2.2187998 308.9611 2.336 308.4425 2.5537999 C 308.2218 2.6476 308.0646 2.8037999 307.9708 3.0215998 C 307.8126 3.3184998 307.7032 4.1368 307.6407 5.4785995 C 307.5626 7.5390997 307.5235 9.3097 307.5235 10.7911 V 22.0489 C 307.5235 24.3272 307.5626 28.5792 307.6407 34.804802 L 305.2266 34.101704 L 304.6641 33.984505 C 304.5704 33.953304 304.4844 33.906406 304.40628 33.843906 C 304.29688 33.764805 304.0001 33.449406 303.5157 32.895706 C 302.21878 31.410307 301.2657 30.289307 300.65628 29.531406 L 297.63287 25.670107 L 281.0156 5.6035 V 23.768501 C 281.0156 25.3164 281.07028 27.138601 281.1797 29.2392 C 281.2422 30.5497 281.34378 31.3554 281.48438 31.654202 C 281.59378 31.875902 281.75778 32.034103 281.97656 32.128803 C 282.49216 32.349503 283.56247 32.468605 285.18747 32.484303 V 33.984303 C 283.81247 33.8749 282.29688 33.8202 280.64056 33.8202 C 278.8281 33.8203 276.8594 33.875 274.7344 33.9844 Z M 314.4375 17.5547 C 314.4375 15.086 314.8086 12.804701 315.5508 10.711 S 317.5235 6.7344007 319.24222 5.0626006 S 322.9063 2.1290007 325.07812 1.2774005 S 329.7344 0.0 332.5313 0.0 C 335.1094 0.0 337.45322 0.3633 339.56262 1.0898 S 343.40244 2.7773 344.75403 3.9726 S 347.17203 6.4765 347.95322 7.8984003 C 348.54703 8.9609 349.01962 10.2109 349.37122 11.6484 S 349.89853 14.625 349.89853 16.2656 C 349.89853 21.5312 348.12903 25.914001 344.58994 29.414001 S 336.58603 34.664 331.19543 34.664 C 328.74234 34.664 326.45325 34.265602 324.32825 33.4687 S 320.40634 31.488201 318.93765 29.9179 S 316.35175 26.4413 315.58606 24.1992 S 314.4375 19.7422 314.4375 17.5547 Z M 319.3125 15.6094 C 319.3125 17.0938 319.4609 18.6016 319.7578 20.1328 S 320.42972 22.9844 320.8828 24.093699 C 321.6328 25.968699 322.6133 27.542898 323.82422 28.816399 S 326.38672 31.027298 327.8789 31.628899 S 331.0234 32.5312 332.8359 32.5312 C 335.3515 32.5312 337.539 31.9179 339.3984 30.6914 S 342.6445 27.7383 343.5586 25.5117 S 344.9297 20.7187 344.9297 17.8125 C 344.9297 15.3281 344.6016 13.039101 343.94528 10.9453 C 343.5391 9.6641 342.99997 8.503901 342.3281 7.4648 S 340.8554 5.5195 339.92578 4.7461 S 337.7891 3.3203 336.3047 2.7891 S 333.2188 1.9922 331.5 1.9922 C 329.0156 1.9922 326.8359 2.5469 324.9609 3.6563 S 321.67572 6.3711 320.7304 8.4727 S 319.3125 12.9531 319.3125 15.6094 Z M 353.7188 8.4609 H 352.26572 C 352.25012 4.7265005 352.17203 2.1406002 352.0313 0.7031002 C 353.7344 0.7656002 356.4063 0.8437002 360.0469 0.93750024 C 363.0 1.0 364.9688 1.0313 365.9531 1.0313 C 367.0156 1.0313 369.4765 0.9844 373.3359 0.8907 C 376.1328 0.8282 378.1718 0.7657 379.4531 0.7032 C 379.2656 2.4531999 379.1406 5.0390997 379.0781 8.461 H 377.5781 L 377.3906 6.2110004 C 377.2656 4.8516006 377.1797 4.0782003 377.13278 3.8907003 S 377.01947 3.5704002 376.9336 3.4923003 S 376.71878 3.3517003 376.5469 3.3048003 C 376.32822 3.2579002 375.5469 3.1954002 374.20322 3.1173003 S 371.7969 3.0 371.0156 3.0 H 368.1562 C 368.0 4.498 367.9219 6.5195 367.9219 9.0645 V 22.7656 C 367.9219 24.8886 367.9453 26.957 367.99222 28.9707 C 368.03912 30.4551 368.1524 31.3359 368.33203 31.617199 S 368.80084 32.1055 369.19922 32.2383 S 370.72653 32.453102 372.5859 32.4844 V 33.9844 C 369.789 33.8594 367.6875 33.7969 366.28122 33.7969 C 365.6718 33.7969 363.2343 33.8594 358.96872 33.9844 V 32.4844 C 360.81833 32.4532 361.9453 32.3711 362.3496 32.2383 S 363.0264 31.9219 363.16602 31.6875 C 363.3681 31.375 363.49222 30.6191 363.539 29.416 C 363.539 29.0879 363.5781 26.871101 363.6562 22.7656 V 9.1113 C 363.6562 8.457001 363.6406 7.7383003 363.60928 6.9570007 L 363.4688 3.0 H 359.97662 C 357.96103 3.0 356.35944 3.0781 355.17194 3.2344 C 354.79694 3.2813 354.55475 3.3828 354.44534 3.5391 C 354.27344 3.8047 354.11725 4.6563 353.97665 6.0937996 L 353.7188 8.4609 Z M 381.5859 2.2031 V 0.70309997 L 388.7578 0.86719996 L 395.36722 0.70309997 V 2.2031 C 393.5176 2.2344 392.39362 2.3164 391.9981 2.4492 C 391.6016 2.582 391.3252 2.7656 391.1699 3.0 C 390.9834 3.3125 390.8672 4.0703 390.82028 5.2734003 C 390.80078 5.5859003 390.7617 7.8047004 390.7031 11.929701 V 15.1875 C 393.7812 15.2969 397.5312 15.3516 401.9531 15.3516 C 405.3437 15.3516 408.0547 15.2969 410.0859 15.1875 V 11.9297 C 410.0859 9.8047 410.0468 7.7265997 409.96872 5.6953 C 409.9218 4.2109003 409.80853 3.332 409.63083 3.0586002 C 409.45114 2.7852 409.16403 2.5820003 408.76752 2.4492002 S 407.24802 2.2344003 405.3984 2.2031002 V 0.7031002 C 408.7578 0.8125 411.0625 0.8672 412.3125 0.8672 C 412.7813 0.8672 415.0625 0.8125 419.1563 0.7031 V 2.2031 C 417.3223 2.2344 416.20322 2.3164 415.79892 2.4492 S 415.12213 2.7645998 414.9825 2.998 C 414.78043 3.3105 414.6563 4.0683 414.60953 5.2714 C 414.59003 5.5829 414.55093 7.8007 414.49234 11.921801 V 22.7656 C 414.49234 24.8886 414.53143 26.957 414.60953 28.9707 C 414.64084 30.4551 414.74524 31.3359 414.92404 31.617199 S 415.39474 32.1055 415.79904 32.2383 S 417.32245 32.453102 419.15643 32.4844 V 33.9844 C 416.14084 33.875 413.67203 33.8203 411.75024 33.8203 C 409.70334 33.8203 407.58615 33.875 405.39865 33.9844 V 32.4844 C 407.25806 32.4532 408.38696 32.3711 408.78534 32.2383 C 409.18375 32.1065 409.46115 31.9238 409.61734 31.6895 C 409.82043 31.379002 409.93765 30.6231 409.96893 29.4239 C 409.98453 29.0958 410.02362 26.8848 410.08612 22.7872 V 17.461 C 405.71112 17.3516 402.3908 17.2969 400.1252 17.2969 C 397.65652 17.2969 394.5158 17.3516 390.7033 17.461 V 22.7872 C 390.7033 24.906301 390.7267 26.9708 390.77362 28.978601 C 390.82053 30.4591 390.9338 31.339901 391.11343 31.619202 C 391.29312 31.900501 391.58224 32.106503 391.98062 32.2383 C 392.37903 32.3711 393.50793 32.453102 395.3673 32.4844 V 33.9844 C 393.2579 33.875 391.08612 33.8203 388.8517 33.8203 C 386.4142 33.8203 383.9923 33.875 381.58612 33.9844 V 32.4844 C 383.42014 32.4532 384.5392 32.3711 384.9435 32.2383 S 385.6271 31.9219 385.78333 31.6875 C 385.96982 31.375 386.08603 30.6191 386.13293 29.416 C 386.15244 29.0879 386.19153 26.871101 386.25012 22.7656 V 11.9219 C 386.25012 9.7989 386.2267 7.7216997 386.1798 5.6924 C 386.1329 4.209 386.01962 3.3301 385.84 3.0567 C 385.6603 2.7842 385.3713 2.5821 384.9728 2.4493 S 383.4453 2.2344 381.5859 2.2031 Z M 422.0156 33.9844 V 32.4844 C 423.6562 32.468803 424.7344 32.343803 425.25 32.1094 C 425.4688 32.0157 425.625 31.8672 425.7188 31.664103 C 425.87512 31.352602 425.9844 30.533203 426.0469 29.207102 C 426.14072 27.148502 426.1875 25.369202 426.1875 23.8721 V 11.9141 C 426.1875 9.792999 426.1641 7.7167997 426.1172 5.6895 C 426.07028 4.2071 425.957 3.3300998 425.77737 3.0566998 S 425.3087 2.5810997 424.9102 2.4483 C 424.51178 2.3165 423.38287 2.2343998 421.5235 2.2031999 V 0.70319986 L 428.2032 0.8437998 L 435.28128 0.7265998 C 438.67188 0.67969984 441.13287 0.6562998 442.6641 0.6562998 C 444.211 0.6562998 445.6719 0.74219984 447.0469 0.9140998 C 446.7969 1.8046999 446.625 2.5781999 446.5313 3.2343998 C 446.5 3.375 446.3594 5.0 446.1094 8.1094 H 444.6328 C 444.6484 6.5157 444.5469 5.0625 444.32812 3.75 C 443.46872 3.3906 442.52344 3.1484 441.49222 3.0234 C 439.74222 2.8047001 437.99222 2.6953 436.24222 2.6953 C 435.86722 2.6953 435.0313 2.7266002 433.7344 2.7891002 S 431.5078 2.9063 430.9453 2.9532 C 430.8828 4.6807003 430.8359 6.2999 430.80472 7.8096 L 430.71103 15.703199 C 432.53912 15.812599 434.21884 15.867299 435.75012 15.867299 C 437.60953 15.867299 439.19543 15.781399 440.50793 15.609499 C 441.00793 15.546999 441.32825 15.421999 441.46884 15.234499 S 441.73444 14.406399 441.84384 13.312599 L 441.98444 11.671999 H 443.39075 V 12.117299 L 443.27356 16.992298 L 443.39075 22.453197 H 441.75 L 441.6797 20.859497 C 441.6485 19.703297 441.543 18.984497 441.36328 18.703297 S 440.84378 18.226696 440.34378 18.117397 C 439.4532 17.929897 437.7266 17.836197 435.1641 17.836197 C 434.1172 17.836197 432.6329 17.875298 430.711 17.953398 C 430.6329 19.515898 430.5938 21.836197 430.5938 24.914297 C 430.5938 27.804897 430.6329 30.000196 430.711 31.500196 C 432.9571 31.672096 435.4776 31.757996 438.2696 31.757996 C 440.251 31.757996 441.66318 31.695496 442.5059 31.570496 C 443.3477 31.445496 444.128 31.234596 444.8457 30.937696 C 445.0332 30.453297 445.2197 29.797096 445.4072 28.968996 C 445.75 27.578396 445.9765 26.531496 446.0859 25.828396 H 447.65622 C 447.25003 28.982697 447.0468 31.597897 447.0468 33.674095 C 445.70312 33.881096 444.07022 33.984596 442.1484 33.984596 L 428.1563 33.8203 C 427.9531 33.8203 425.9063 33.875 422.0156 33.9844 Z M 450.75 2.2031 V 0.70309997 C 451.3594 0.7168 452.2891 0.7363 453.5391 0.7636 L 458.0391 0.8671 C 458.9297 0.8671 460.3125 0.8388 462.1875 0.7831 C 464.625 0.69810003 466.0391 0.65610003 466.4297 0.65610003 C 469.4141 0.65610003 471.58987 0.9217 472.957 1.4530001 S 475.3828 2.8475 476.1328 4.0428 S 477.2578 6.5379 477.2578 7.9432 C 477.2578 9.2557 476.90622 10.5614 476.20312 11.8573 C 475.50003 13.1542 474.48044 14.2323 473.14554 15.0917 C 471.80963 15.951099 470.07233 16.615099 467.93164 17.0839 C 468.32224 17.6298 469.24515 18.8456 470.69925 20.7323 L 476.61035 28.4989 C 478.29495 30.671799 479.27734 31.8827 479.55765 32.132698 C 479.69824 32.2421 479.83896 32.320198 479.97955 32.3671 C 480.21295 32.445198 480.72855 32.4843 481.52347 32.4843 V 33.9843 C 480.34277 33.874897 479.30957 33.820198 478.42386 33.820198 C 477.50687 33.820198 476.38086 33.874897 475.04495 33.9843 C 474.02637 32.8144 472.31836 30.527298 469.92197 27.125898 C 468.58997 25.2382 467.41415 23.661999 466.39658 22.3984 C 464.75107 20.306599 463.1837 18.4121 461.69537 16.7109 L 461.92978 16.0078 C 462.74228 16.054699 463.35947 16.078098 463.78137 16.078098 C 466.62518 16.078098 468.78137 15.4061985 470.25018 14.062498 S 472.45328 10.945298 472.45328 8.742198 C 472.45328 6.820298 471.82047 5.2929983 470.55487 4.160198 S 467.375 2.4609 464.8125 2.4609 C 463.2031 2.4609 461.625 2.7031 460.0781 3.1875 C 460.0156 4.0292997 459.9687 4.8184 459.9375 5.5527 C 459.9219 5.7715 459.8672 8.0429 459.7734 12.3672 V 22.7656 C 459.7734 24.8886 459.8125 26.957 459.8906 28.9707 C 459.9219 30.4551 460.0263 31.3359 460.2051 31.617199 S 460.6758 32.1055 461.0801 32.2383 S 462.60352 32.453102 464.4375 32.4844 V 33.9844 C 462.2188 33.875 460.1797 33.8203 458.3203 33.8203 C 456.8203 33.8203 454.2969 33.875 450.75 33.9844 V 32.4844 C 452.584 32.4532 453.7031 32.3711 454.1074 32.2383 S 454.791 31.9219 454.9472 31.6875 C 455.1337 31.375 455.2499 30.6191 455.2968 29.416 C 455.3163 29.0879 455.3554 26.871101 455.414 22.7656 V 11.9219 C 455.414 9.7989 455.3906 7.7216997 455.3437 5.6924 C 455.29678 4.209 455.1835 3.3301 455.00388 3.0567 C 454.8242 2.7842 454.5352 2.5821 454.1367 2.4493 S 452.6094 2.2344 450.75 2.2031 Z M 495.0469 32.8311 C 495.2969 31.3321 495.4453 28.9043 495.49222 25.5469 H 497.0625 C 497.1406 27.8282 497.2695 29.1758 497.4492 29.589901 C 497.62988 30.004002 498.0644 30.4454 498.7529 30.9141 S 500.3642 31.8008 501.5224 32.168 C 502.6796 32.5352 503.7988 32.7188 504.8788 32.7188 C 506.45892 32.7188 507.914 32.3536 509.24402 31.626999 C 510.57413 30.898499 511.54483 29.9434 512.15424 28.7608 C 512.76465 27.5782 513.07025 26.314499 513.07025 24.9669 C 513.07025 23.9376 512.91797 23.047 512.6133 22.297 S 511.84378 20.941502 511.2197 20.481602 C 510.5947 20.020702 509.8213 19.697401 508.9004 19.509901 C 508.3223 19.4162 507.166 19.257002 505.4326 19.0314 C 503.6992 18.8068 502.2226 18.5627 501.0029 18.297 C 499.3769 17.799002 498.1816 17.213001 497.415 16.5431 C 496.6494 15.871201 496.02832 14.9904 495.55072 13.898601 C 495.07413 12.806801 494.8359 11.629101 494.8359 10.3654 C 494.8359 8.5246 495.3164 6.7892003 496.2773 5.1593003 S 498.66013 2.2618003 500.5429 1.3575003 C 502.4258 0.4521 504.4688 0.0 506.6719 0.0 C 508.0 0.0 509.4492 0.1758 511.0195 0.5273 C 512.5898 0.8808 514.0547 1.3924999 515.414 2.0664 C 515.1953 3.0508 515.039 3.9668002 514.9453 4.8184004 S 514.7813 6.9229 514.7344 8.5781 H 513.16406 C 513.1172 6.1719003 513.0469 4.8594003 512.9532 4.6406 C 512.5616 4.0781 512.02936 3.5703 511.35648 3.1172004 C 509.74417 2.2110004 508.06158 1.7578003 506.30856 1.7578003 C 504.03906 1.7578003 502.22748 2.4473004 500.87396 3.8252003 S 498.8438 6.9912 498.8438 9.1875 C 498.8438 10.5156 499.086 11.543 499.5704 12.2695 C 500.05582 12.996099 500.9229 13.5771 502.1739 14.013599 C 503.0343 14.3115 504.4405 14.590699 506.3927 14.852499 C 508.3458 15.115199 510.1027 15.394499 511.6652 15.691399 C 513.134 16.128899 514.2189 16.6484 514.922 17.249998 C 515.6251 17.852499 516.2033 18.642597 516.6564 19.619099 S 517.33606 21.742098 517.33606 23.054598 C 517.33606 26.165897 516.04694 28.878798 513.4689 31.193298 C 510.89078 33.506798 507.55478 34.663998 503.46106 34.663998 C 500.3672 34.6641 497.5625 34.0527 495.0469 32.8311 Z M 521.6484 8.4609 H 520.19525 C 520.1796 4.7265005 520.10156 2.1406002 519.9609 0.7031002 C 521.664 0.7656002 524.3359 0.8437002 527.9765 0.93750024 C 530.9296 1.0000002 532.8984 1.0313002 533.8828 1.0313002 C 534.9453 1.0313002 537.4062 0.9844002 541.2656 0.8907002 C 544.0625 0.8282002 546.1015 0.7657002 547.3828 0.7032002 C 547.1953 2.4532003 547.0703 5.0391 547.0078 8.461 H 545.5078 L 545.3203 6.2110004 C 545.1953 4.8516006 545.10944 4.0782003 545.0625 3.8907003 S 544.9492 3.5704002 544.8633 3.4923003 S 544.6485 3.3517003 544.47656 3.3048003 C 544.2579 3.2579002 543.47656 3.1954002 542.1329 3.1173003 S 539.7266 3.0 538.9453 3.0 H 536.08594 C 535.92975 4.498 535.85156 6.5195 535.85156 9.0645 V 22.7656 C 535.85156 24.8886 535.87494 26.957 535.9219 28.9707 C 535.96875 30.4551 536.0821 31.3359 536.26166 31.617199 S 536.73047 32.1055 537.12885 32.2383 S 538.6561 32.453102 540.51556 32.4844 V 33.9844 C 537.7187 33.8594 535.6172 33.7969 534.2109 33.7969 C 533.6015 33.7969 531.164 33.8594 526.8984 33.9844 V 32.4844 C 528.748 32.4532 529.875 32.3711 530.2793 32.2383 S 530.9561 31.9219 531.0957 31.6875 C 531.2978 31.375 531.4219 30.6191 531.4687 29.416 C 531.4687 29.0879 531.5078 26.871101 531.5859 22.7656 V 9.1113 C 531.5859 8.457001 531.57025 7.7383003 531.539 6.9570007 L 531.3984 3.0 H 527.9063 C 525.8907 3.0 524.2891 3.0781 523.1016 3.2344 C 522.7266 3.2813 522.48444 3.3828 522.375 3.5391 C 522.2031 3.8047 522.0469 4.6563 521.9063 6.0937996 L 521.6484 8.4609 Z M 545.625 33.9844 V 32.3907 C 546.8613 32.375103 547.6318 32.324303 547.9365 32.2384 S 548.52344 31.9884 548.78125 31.746199 S 549.41113 30.8751 549.8964 29.859499 C 550.17773 29.281399 551.19434 27.0861 552.9472 23.2736 L 558.8144 10.054899 C 559.456 8.601799 560.8251 5.367399 562.9218 0.351799 H 564.4218 L 574.44434 23.859598 C 576.07135 27.672098 577.15045 30.062698 577.6826 31.031498 C 577.9805 31.578398 578.3047 31.937798 578.6572 32.109596 C 579.00885 32.281498 579.80273 32.375195 581.039 32.390896 V 33.984695 C 578.5976 33.828495 576.8915 33.750294 575.9208 33.750294 L 568.3681 33.984695 V 32.390995 C 570.1181 32.359795 571.1806 32.305096 571.5556 32.226894 S 572.1845 32.035496 572.3173 31.887094 C 572.4511 31.738695 572.5175 31.555094 572.5175 31.336294 C 572.5175 30.992594 572.40814 30.547194 572.1884 30.000395 L 569.3095 22.828495 H 555.7363 L 553.1914 28.851894 C 552.7363 29.929995 552.5098 30.719095 552.5098 31.219093 C 552.5098 31.437893 552.5723 31.617493 552.6983 31.758194 C 552.8702 31.961294 553.1358 32.101994 553.4962 32.180096 C 554.07434 32.305096 555.09 32.375397 556.5431 32.390995 V 33.984795 C 553.9015 33.844196 551.922 33.773895 550.60657 33.773895 C 549.0869 33.7734 547.4268 33.8438 545.625 33.9844 Z M 556.5439 20.8359 H 568.3584 L 562.5234 6.730399 L 556.5439 20.8359 Z M 581.3203 8.4609 H 579.8672 C 579.85156 4.7265005 579.7735 2.1406002 579.6328 0.7031002 C 581.33594 0.7656002 584.0078 0.8437002 587.64844 0.93750024 C 590.60156 1.0000002 592.5703 1.0313002 593.55475 1.0313002 C 594.61725 1.0313002 597.0781 0.9844002 600.93756 0.8907002 C 603.73444 0.8282002 605.77344 0.7657002 607.05475 0.7032002 C 606.86725 2.4532003 606.74225 5.0391 606.67975 8.461 H 605.17975 L 604.99225 6.2110004 C 604.86725 4.8516006 604.7814 4.0782003 604.73444 3.8907003 S 604.62115 3.5704002 604.5352 3.4923003 S 604.32043 3.3517003 604.1485 3.3048003 C 603.9298 3.2579002 603.1485 3.1954002 601.8048 3.1173003 S 599.3984 3.0 598.6172 3.0 H 595.7578 C 595.6016 4.498 595.52344 6.5195 595.52344 9.0645 V 22.7656 C 595.52344 24.8886 595.5468 26.957 595.59375 28.9707 C 595.6406 30.4551 595.75397 31.3359 595.93353 31.617199 S 596.40234 32.1055 596.8007 32.2383 S 598.328 32.453102 600.18744 32.4844 V 33.9844 C 597.39056 33.8594 595.28906 33.7969 593.88275 33.7969 C 593.2734 33.7969 590.8359 33.8594 586.57025 33.9844 V 32.4844 C 588.41986 32.4532 589.5469 32.3711 589.9512 32.2383 S 590.628 31.9219 590.7676 31.6875 C 590.96967 31.375 591.09375 30.6191 591.14056 29.416 C 591.14056 29.0879 591.1797 26.871101 591.25775 22.7656 V 9.1113 C 591.25775 8.457001 591.2421 7.7383003 591.2109 6.9570007 L 591.0703 3.0 H 587.5781 C 585.5625 3.0 583.96094 3.0781 582.77344 3.2344 C 582.39844 3.2813 582.15625 3.3828 582.0468 3.5391 C 581.875 3.8047 581.7188 4.6563 581.5781 6.0938 L 581.3203 8.4609 Z M 609.6797 33.9844 V 32.4844 C 611.3203 32.468803 612.3985 32.343803 612.91406 32.1094 C 613.1329 32.0157 613.28906 31.8672 613.3829 31.664103 C 613.5392 31.352602 613.6485 30.533203 613.711 29.207102 C 613.8048 27.148502 613.8516 25.369202 613.8516 23.8721 V 11.9141 C 613.8516 9.792999 613.82825 7.7167997 613.7813 5.6895 C 613.73444 4.2071 613.6211 3.3300998 613.4415 3.0566998 S 612.97284 2.5810997 612.57434 2.4483 C 612.1758 2.3164 611.0469 2.2344 609.1875 2.2031 V 0.70309997 L 615.8672 0.84369993 L 622.9453 0.7264999 C 626.33594 0.67959994 628.79694 0.65619993 630.3281 0.65619993 C 631.875 0.65619993 633.33594 0.74209994 634.71094 0.9139999 C 634.46094 1.8046 634.28906 2.5781 634.1953 3.2343001 C 634.1641 3.3749 634.02344 4.9999 633.77344 8.109301 H 632.2968 C 632.3125 6.5156 632.2109 5.0625 631.9922 3.75 C 631.1328 3.3906 630.1875 3.1484 629.1563 3.0234 C 627.4063 2.8047001 625.6563 2.6953 623.9063 2.6953 C 623.5313 2.6953 622.69543 2.7266002 621.3985 2.7891002 S 619.1719 2.9063 618.6094 2.9531 C 618.5469 4.6806 618.5 6.2998 618.46875 7.8094997 L 618.375 15.7031 C 620.2031 15.8125 621.8828 15.8672 623.4141 15.8672 C 625.2735 15.8672 626.85944 15.7813 628.17194 15.6094 C 628.67194 15.5469 628.99225 15.4219 629.1328 15.2344 S 629.39844 14.4063 629.5078 13.3125 L 629.64844 11.6719 H 631.05475 V 12.1172 L 630.93756 16.992199 L 631.05475 22.453098 H 629.4141 L 629.3438 20.859398 C 629.3126 19.703197 629.2071 18.984398 629.0274 18.703197 S 628.50793 18.226597 628.00793 18.117298 C 627.1173 17.929798 625.39075 17.836098 622.82825 17.836098 C 621.7814 17.836098 620.29706 17.875198 618.3751 17.953299 C 618.297 19.515799 618.25793 21.836098 618.25793 24.914198 C 618.2578 27.8047 618.2969 30.0 618.375 31.5 C 620.6211 31.6719 623.1416 31.7578 625.9336 31.7578 C 627.915 31.7578 629.3272 31.6953 630.1699 31.5703 C 631.0117 31.4453 631.792 31.2344 632.5097 30.9375 C 632.6972 30.4531 632.8837 29.7969 633.0712 28.9688 C 633.414 27.5782 633.6405 26.5313 633.74994 25.8282 H 635.32025 C 634.91406 28.9825 634.7109 31.597698 634.7109 33.6739 C 633.3672 33.8809 631.73425 33.9844 629.8125 33.9844 L 615.8203 33.8203 C 615.6172 33.8203 613.5703 33.875 609.6797 33.9844 Z"/>
</defs>
<g>
<g>
<rect x="0" y="0" width="576" height="120" class="green"/>
<rect x="0" y="120" width="576" height="120" class="white"/>
<rect x="0" y="240" width="576" height="120" class="orange"/>
</g>
<use xlink:href="#star" transform="translate(288 180) scale(90 90) rotate(0)" class="blue"/>
<use xlink:href="#text" transform="translate(22.186 288) scale(0.8372 0.8372) rotate(0)" class="black"/>
</g>
</svg>
