<?xml version="1.0"?>
<svg xmlns="http://www.w3.org/2000/svg" xmlns:xlink="http://www.w3.org/1999/xlink" version="1.1" width="576" height="360" viewBox="0 0 576 360">
<!-- Generated by Kreative Vexillo v1.0 -->
<style>
.blue{fill:rgb(0,0,255);}
.green{fill:rgb(0,153,0);}
.orange{fill:rgb(255,153,0);}
.red{fill:rgb(255,0,0);}
.turquoise{fill:rgb(0,204,255);}
.violet{fill:rgb(153,0,153);}
.white{fill:rgb(255,255,255);}
.yellow{fill:rgb(255,238,0);}
</style>
<defs>
<path id="pace" d="M 3.6704 8.4979 L 3.6704 5.0155 L 4.7987 5.0155 C 5.2263 5.0155 5.505 5.0329 5.6348 5.0678 C 5.8343 5.1201 6.0014 5.2337003 6.136 5.4087 C 6.2706003 5.5837 6.3379 5.8098 6.3379 6.0868998 C 6.3379 6.3006997 6.2991 6.4803996 6.2215004 6.6260996 C 6.144 6.7718 6.0454 6.8862 5.9259 6.9694 C 5.8063 7.0525 5.6848 7.1075 5.5613 7.1344 C 5.3934 7.1677 5.1503 7.1843 4.832 7.1843 L 4.3735 7.1843 L 4.3735 8.4979 Z M 4.3735 5.6046 L 4.3735 6.5928 L 4.7583 6.5928 C 5.0354 6.5928 5.2207 6.5746 5.3141 6.5382004 C 5.4076 6.5018 5.4809 6.4448 5.5339 6.3672 C 5.587 6.2896 5.6135 6.1993 5.6135 6.0964 C 5.6135 5.9697 5.5763 5.8652 5.5019 5.7828 C 5.4274 5.7005 5.3332 5.649 5.2192 5.6284 C 5.1353 5.6126 4.9666 5.6047 4.7132 5.6047 Z M 10.0603 8.4979 L 9.2954 8.4979 L 8.9913 7.7069 L 7.5992994 7.7069 L 7.311899 8.4979 L 6.565999 8.4979 L 7.922399 5.0155 L 8.665899 5.0155 Z M 8.7657 7.1202 L 8.2859 5.828 L 7.8155 7.1202 Z M 12.6638 7.2176 L 13.3455 7.4337997 C 13.241 7.8139 13.0672 8.0961 12.8241005 8.2806 C 12.581 8.465099 12.2726 8.5573 11.898901 8.5573 C 11.436501 8.5573 11.056401 8.3993 10.758701 8.0834 C 10.461001 7.7675 10.312101 7.3355 10.312101 6.7875996 C 10.312101 6.2079997 10.461802 5.7578993 10.761102 5.4371996 C 11.060402 5.1164994 11.453901 4.9561996 11.941702 4.9561996 C 12.367702 4.9561996 12.713702 5.0820994 12.979802 5.3338995 C 13.138202 5.4827995 13.256902 5.6965995 13.3361025 5.9752994 L 12.64 6.1415 C 12.5988 5.961 12.5129 5.8185 12.3823 5.7139 C 12.2516 5.6094 12.0929 5.5572 11.906 5.5572 C 11.647901 5.5572 11.4384 5.6498 11.2777 5.8351 C 11.117001 6.0204 11.0366 6.3205004 11.0366 6.7354 C 11.0366 7.1756 11.1158 7.4892 11.2741 7.6761003 C 11.4325 7.8630004 11.6383 7.9564004 11.891701 7.9564004 C 12.078601 7.9564004 12.239301 7.8970003 12.3739 7.7782 C 12.5085 7.6594 12.605101 7.4726 12.6637 7.2176003 Z M 13.9513 8.4979 L 13.9513 5.0155 L 16.5334 5.0155 L 16.5334 5.6046 L 14.6544 5.6046 L 14.6544 6.3766 L 16.4027 6.3766 L 16.4027 6.9632998 L 14.654401 6.9632998 L 14.654401 7.9111 L 16.599901 7.9111 L 16.599901 8.4978 Z"/>
</defs>
<g>
<g>
<rect x="0" y="0" width="576" height="51.4286" class="violet"/>
<rect x="0" y="51.4286" width="576" height="51.4286" class="blue"/>
<rect x="0" y="102.8571" width="576" height="51.4286" class="turquoise"/>
<rect x="0" y="154.2857" width="576" height="51.4286" class="green"/>
<rect x="0" y="205.7143" width="576" height="51.4286" class="yellow"/>
<rect x="0" y="257.1429" width="576" height="51.4286" class="orange"/>
<rect x="0" y="308.5714" width="576" height="51.4286" class="red"/>
</g>
<use xlink:href="#pace" transform="translate(18 0) scale(26.64 26.64) rotate(0)" class="white"/>
</g>
</svg>
