<?xml version="1.0"?>
<svg xmlns="http://www.w3.org/2000/svg" xmlns:xlink="http://www.w3.org/1999/xlink" version="1.1" width="576" height="360" viewBox="0 0 576 360">
<!-- Generated by Kreative Vexillo v1.0 -->
<style>
.black{fill:rgb(0,0,0);}
.blue{fill:rgb(0,0,255);}
.green{fill:rgb(0,153,0);}
.orange{fill:rgb(255,153,0);}
.purple{fill:rgb(153,0,153);}
.red{fill:rgb(255,0,0);}
.white{fill:rgb(255,255,255);}
.yellow{fill:rgb(255,255,0);}
</style>
<defs>
<clipPath id="clip0">
<path d="M 0 0 L 288 180 L 0 360 Z"/>
</clipPath>
<clipPath id="clip1">
<path d="M 0 0 L 576 0 L 576 360 L 0 360 L 288 180 Z"/>
</clipPath>
<clipPath id="clip2">
<rect x="0" y="0" width="576" height="360"/>
</clipPath>
<clipPath id="clip3">
<path d="M 19.08 -30.5279 L 19.08 -30.5279 L 307.08 149.4721 L 268.92 210.5279 L -19.08 30.5279 Z"/>
<path d="M 307.08 210.5279 L 307.08 210.5279 L 19.08 390.528 L -19.08 329.472 L 268.92 149.4721 Z"/>
<path d="M 288 144 L 288 144 L 576 144 L 576 216 L 288 216 Z"/>
</clipPath>
</defs>
<g>
<g>
<rect x="0" y="0" width="576" height="60" class="red"/>
<rect x="0" y="60" width="576" height="60" class="orange"/>
<rect x="0" y="120" width="576" height="60" class="yellow"/>
<rect x="0" y="180" width="576" height="60" class="green"/>
<rect x="0" y="240" width="576" height="60" class="blue"/>
<rect x="0" y="300" width="576" height="60" class="purple"/>
</g>
<g clip-path="url(#clip0)">
<path d="M 31.7999 -50.8799 L 31.7999 -50.8799 L 319.7999 129.1201 L 256.2001 230.8799 L -31.7999 50.8799 Z" class="black"/>
<path d="M 319.7999 230.8799 L 319.7999 230.8799 L 31.7999 410.8799 L -31.7999 309.1201 L 256.2001 129.1201 Z" class="black"/>
</g>
<g clip-path="url(#clip1)">
<path d="M 31.7999 -50.8799 L 31.7999 -50.8799 L 319.7999 129.1201 L 256.2001 230.8799 L -31.7999 50.8799 Z" class="white"/>
<path d="M 319.7999 230.8799 L 319.7999 230.8799 L 31.7999 410.8799 L -31.7999 309.1201 L 256.2001 129.1201 Z" class="white"/>
<path d="M 288 120 L 288 120 L 576 120 L 576 240 L 288 240 Z" class="white"/>
</g>
<g clip-path="url(#clip2)">
<g clip-path="url(#clip3)">
<g>
<rect x="0" y="0" width="576" height="60" class="red"/>
<rect x="0" y="60" width="576" height="60" class="orange"/>
<rect x="0" y="120" width="576" height="60" class="yellow"/>
<rect x="0" y="180" width="576" height="60" class="green"/>
<rect x="0" y="240" width="576" height="60" class="blue"/>
<rect x="0" y="300" width="576" height="60" class="purple"/>
</g>
</g>
</g>
</g>
</svg>
