<?xml version="1.0"?>
<svg xmlns="http://www.w3.org/2000/svg" xmlns:xlink="http://www.w3.org/1999/xlink" version="1.1" width="576" height="360" viewBox="0 0 576 360">
<!-- Generated by Kreative Vexillo v1.0 -->
<style>
.black{fill:rgb(0,0,0);}
.blue{fill:rgb(0,0,255);}
.green{fill:rgb(0,153,0);}
.orange{fill:rgb(255,153,0);}
.purple{fill:rgb(153,0,153);}
.red{fill:rgb(255,0,0);}
.white{fill:rgb(255,255,255);}
.yellow{fill:rgb(255,255,0);}
</style>
<defs>
<clipPath id="clip0">
<path d="M 0 0 L 288 180 L 0 360 Z"/>
</clipPath>
<clipPath id="clip1">
<path d="M 0 0 L 576 0 L 576 360 L 0 360 L 288 180 Z"/>
</clipPath>
<clipPath id="clip2">
<rect x="0" y="0" width="576" height="360"/>
</clipPath>
<clipPath id="clip3">
<path d="M -19.0729 30.5323 L 268.9271 210.5323 L 307.0729 149.4677 L 19.0729 -30.5323 L -19.0729 30.5323 Z"/>
<path d="M 268.9271 149.4677 L -19.0729 329.4677 L 19.0729 390.5323 L 307.0729 210.5323 L 268.9271 149.4677 Z"/>
<path d="M 288 216 L 576 216 L 576 144 L 288 144 L 288 216 Z"/>
</clipPath>
</defs>
<g>
<g>
<rect x="0" y="0" width="576" height="60" class="red"/>
<rect x="0" y="60" width="576" height="60" class="orange"/>
<rect x="0" y="120" width="576" height="60" class="yellow"/>
<rect x="0" y="180" width="576" height="60" class="green"/>
<rect x="0" y="240" width="576" height="60" class="blue"/>
<rect x="0" y="300" width="576" height="60" class="purple"/>
</g>
<g clip-path="url(#clip0)">
<path d="M -31.7882 50.8872 L 256.2118 230.8872 L 319.7882 129.1128 L 31.7882 -50.8872 L -31.7882 50.8872 Z" class="black"/>
<path d="M 256.2118 129.1128 L -31.7882 309.1128 L 31.7882 410.8872 L 319.7882 230.8872 L 256.2118 129.1128 Z" class="black"/>
</g>
<g clip-path="url(#clip1)">
<path d="M -31.7882 50.8872 L 256.2118 230.8872 L 319.7882 129.1128 L 31.7882 -50.8872 L -31.7882 50.8872 Z" class="white"/>
<path d="M 256.2118 129.1128 L -31.7882 309.1128 L 31.7882 410.8872 L 319.7882 230.8872 L 256.2118 129.1128 Z" class="white"/>
<path d="M 288 240 L 576 240 L 576 120 L 288 120 L 288 240 Z" class="white"/>
</g>
<g clip-path="url(#clip2)">
<g clip-path="url(#clip3)">
<g>
<rect x="0" y="0" width="576" height="60" class="red"/>
<rect x="0" y="60" width="576" height="60" class="orange"/>
<rect x="0" y="120" width="576" height="60" class="yellow"/>
<rect x="0" y="180" width="576" height="60" class="green"/>
<rect x="0" y="240" width="576" height="60" class="blue"/>
<rect x="0" y="300" width="576" height="60" class="purple"/>
</g>
</g>
</g>
</g>
</svg>
