<?xml version="1.0"?>
<svg xmlns="http://www.w3.org/2000/svg" xmlns:xlink="http://www.w3.org/1999/xlink" version="1.1" width="576" height="360" viewBox="0 0 576 360">
<!-- Generated by Kreative Vexillo v1.0 -->
<style>
.blue{fill:rgb(0,101,189);}
.green{fill:rgb(0,154,73);}
.orange{fill:rgb(255,121,0);}
.white{fill:rgb(255,255,255);}
</style>
<defs>
<clipPath id="clip0">
<path d="M 0 360 L 576 0 L 576 360 Z"/>
</clipPath>
</defs>
<g>
<rect x="0" y="0" width="576" height="360" class="white"/>
<g>
<path d="M 0 0 L 576 0 L 0 360 Z" class="blue"/>
<path d="M 0 0 L 0 42.4529 L 0 42.4529 L 220.0753 180 L 220.0753 180 L 0 317.5471 L 0 317.5471 L 0 360 L 67.9247 360 L 288 222.4529 L 508.0753 360 L 576 360 L 576 317.5471 L 355.9247 180 L 576 42.4529 L 576 0 L 508.0753 0 L 288 137.5471 L 288 137.5471 L 288 137.5471 L 288 137.5471 L 288 137.5471 L 288 137.5471 L 67.9247 0 Z" class="white"/>
</g>
<g clip-path="url(#clip0)">
<g>
<rect x="0" y="0" width="192" height="360" class="green"/>
<rect x="192" y="0" width="192" height="360" class="white"/>
<rect x="384" y="0" width="192" height="360" class="orange"/>
</g>
</g>
</g>
</svg>
