<?xml version="1.0"?>
<svg xmlns="http://www.w3.org/2000/svg" xmlns:xlink="http://www.w3.org/1999/xlink" version="1.1" width="576" height="360" viewBox="0 0 576 360">
<!-- Generated by Kreative Vexillo v1.0 -->
<style>
.b{fill:rgb(15,71,175);}
.g{fill:rgb(7,137,48);}
.o{fill:rgb(235,119,17);}
.r{fill:rgb(218,18,26);}
.v{fill:rgb(116,44,100);}
.w{fill:rgb(255,255,255);}
.y{fill:rgb(252,221,9);}
</style>
<g>
<g>
<rect x="0" y="0" width="82.2857" height="51.4286" class="r"/>
<rect x="82.2857" y="0" width="82.2857" height="51.4286" class="v"/>
<rect x="164.5714" y="0" width="82.2857" height="51.4286" class="b"/>
<rect x="246.8571" y="0" width="82.2857" height="51.4286" class="g"/>
<rect x="329.1429" y="0" width="82.2857" height="51.4286" class="w"/>
<rect x="411.4286" y="0" width="82.2857" height="51.4286" class="y"/>
<rect x="493.7143" y="0" width="82.2857" height="51.4286" class="o"/>
</g>
<g>
<rect x="0" y="51.4286" width="82.2857" height="51.4286" class="o"/>
<rect x="82.2857" y="51.4286" width="82.2857" height="51.4286" class="r"/>
<rect x="164.5714" y="51.4286" width="82.2857" height="51.4286" class="v"/>
<rect x="246.8571" y="51.4286" width="82.2857" height="51.4286" class="b"/>
<rect x="329.1429" y="51.4286" width="82.2857" height="51.4286" class="g"/>
<rect x="411.4286" y="51.4286" width="82.2857" height="51.4286" class="w"/>
<rect x="493.7143" y="51.4286" width="82.2857" height="51.4286" class="y"/>
</g>
<g>
<rect x="0" y="102.8571" width="82.2857" height="51.4286" class="y"/>
<rect x="82.2857" y="102.8571" width="82.2857" height="51.4286" class="o"/>
<rect x="164.5714" y="102.8571" width="82.2857" height="51.4286" class="r"/>
<rect x="246.8571" y="102.8571" width="82.2857" height="51.4286" class="v"/>
<rect x="329.1429" y="102.8571" width="82.2857" height="51.4286" class="b"/>
<rect x="411.4286" y="102.8571" width="82.2857" height="51.4286" class="g"/>
<rect x="493.7143" y="102.8571" width="82.2857" height="51.4286" class="w"/>
</g>
<g>
<rect x="0" y="154.2857" width="82.2857" height="51.4286" class="w"/>
<rect x="82.2857" y="154.2857" width="82.2857" height="51.4286" class="y"/>
<rect x="164.5714" y="154.2857" width="82.2857" height="51.4286" class="o"/>
<rect x="246.8571" y="154.2857" width="82.2857" height="51.4286" class="r"/>
<rect x="329.1429" y="154.2857" width="82.2857" height="51.4286" class="v"/>
<rect x="411.4286" y="154.2857" width="82.2857" height="51.4286" class="b"/>
<rect x="493.7143" y="154.2857" width="82.2857" height="51.4286" class="g"/>
</g>
<g>
<rect x="0" y="205.7143" width="82.2857" height="51.4286" class="g"/>
<rect x="82.2857" y="205.7143" width="82.2857" height="51.4286" class="w"/>
<rect x="164.5714" y="205.7143" width="82.2857" height="51.4286" class="y"/>
<rect x="246.8571" y="205.7143" width="82.2857" height="51.4286" class="o"/>
<rect x="329.1429" y="205.7143" width="82.2857" height="51.4286" class="r"/>
<rect x="411.4286" y="205.7143" width="82.2857" height="51.4286" class="v"/>
<rect x="493.7143" y="205.7143" width="82.2857" height="51.4286" class="b"/>
</g>
<g>
<rect x="0" y="257.1429" width="82.2857" height="51.4286" class="b"/>
<rect x="82.2857" y="257.1429" width="82.2857" height="51.4286" class="g"/>
<rect x="164.5714" y="257.1429" width="82.2857" height="51.4286" class="w"/>
<rect x="246.8571" y="257.1429" width="82.2857" height="51.4286" class="y"/>
<rect x="329.1429" y="257.1429" width="82.2857" height="51.4286" class="o"/>
<rect x="411.4286" y="257.1429" width="82.2857" height="51.4286" class="r"/>
<rect x="493.7143" y="257.1429" width="82.2857" height="51.4286" class="v"/>
</g>
<g>
<rect x="0" y="308.5714" width="82.2857" height="51.4286" class="v"/>
<rect x="82.2857" y="308.5714" width="82.2857" height="51.4286" class="b"/>
<rect x="164.5714" y="308.5714" width="82.2857" height="51.4286" class="g"/>
<rect x="246.8571" y="308.5714" width="82.2857" height="51.4286" class="w"/>
<rect x="329.1429" y="308.5714" width="82.2857" height="51.4286" class="y"/>
<rect x="411.4286" y="308.5714" width="82.2857" height="51.4286" class="o"/>
<rect x="493.7143" y="308.5714" width="82.2857" height="51.4286" class="r"/>
</g>
</g>
</svg>
