<?xml version="1.0"?>
<svg xmlns="http://www.w3.org/2000/svg" xmlns:xlink="http://www.w3.org/1999/xlink" version="1.1" width="720" height="360" viewBox="0 0 720 360">
<!-- Generated by Kreative Vexillo v1.0 -->
<style>
.green{fill:rgb(0,178,89);}
.red{fill:rgb(227,61,58);}
.white{fill:rgb(255,255,255);}
</style>
<defs>
<path id="star6" d="M 0.0 -1.0 L 0.288675 -0.5 L 0.866025 -0.5 L 0.57735 -0.0 L 0.866025 0.5 L 0.288675 0.5 L 0.0 1.0 L -0.288675 0.5 L -0.866025 0.5 L -0.57735 0.0 L -0.866025 -0.5 L -0.288675 -0.5 Z"/>
</defs>
<g>
<rect x="0" y="0" width="720" height="360" class="red"/>
<path d="M 0 0 L 360 180 L 0 360 Z" class="green"/>
<path d="M 720 360 L 360 180 L 720 0 Z" class="green"/>
<path d="M 0 0 L 0 25.1558 L 0 25.1558 L 309.6885 180 L 0 334.8442 L 0 334.8442 L 0 360 L 50.3115 360 L 360 205.1558 L 360 205.1558 L 669.6885 360 L 720 360 L 720 334.8442 L 410.3115 180 L 410.3115 180 L 720 25.1558 L 720 0 L 669.6885 0 L 360 154.8442 L 360 154.8442 L 360 154.8442 L 360 154.8442 L 360 154.8442 L 360 154.8442 L 50.3115 0 Z" class="white"/>
<ellipse cx="360" cy="180" rx="108" ry="108" class="white"/>
<use xlink:href="#star6" transform="translate(360 128.0385) scale(24.75 24.75) rotate(0)" class="green"/>
<use xlink:href="#star6" transform="translate(315 205.9808) scale(24.75 24.75) rotate(0)" class="green"/>
<use xlink:href="#star6" transform="translate(405 205.9808) scale(24.75 24.75) rotate(0)" class="green"/>
<use xlink:href="#star6" transform="translate(360 128.0385) scale(20.25 20.25) rotate(0)" class="red"/>
<use xlink:href="#star6" transform="translate(315 205.9808) scale(20.25 20.25) rotate(0)" class="red"/>
<use xlink:href="#star6" transform="translate(405 205.9808) scale(20.25 20.25) rotate(0)" class="red"/>
</g>
</svg>
