<?xml version="1.0"?>
<svg xmlns="http://www.w3.org/2000/svg" xmlns:xlink="http://www.w3.org/1999/xlink" version="1.1" width="720" height="360" viewBox="0 0 720 360">
<!-- Generated by Kreative Vexillo v1.0 -->
<style>
.blue{fill:rgb(0,181,226);}
.green1{fill:rgb(9,99,48);}
.green2{fill:rgb(0,122,51);}
.white{fill:rgb(255,255,255);}
</style>
<defs>
<path id="twig1" d="M -0.5307 0.3468 C -0.5418 0.3388 -0.55090004 0.3268 -0.55090004 0.3201 C -0.55090004 0.293 -0.49760005 0.2554 -0.42410004 0.2306 C -0.31460005 0.1937 -0.24630004 0.1576 -0.24630004 0.1366 C -0.24630004 0.118700005 -0.23270003 0.062800005 -0.20630005 -0.027500004 C -0.18870005 -0.0877 -0.16080005 -0.1132 -0.13050005 -0.097 C -0.107900046 -0.08490001 -0.10730005 -0.065 -0.12720005 0.012699999 C -0.14330006 0.0756 -0.13940005 0.0939 -0.11380005 0.0753 C -0.10540005 0.0692 -0.08850005 0.0592 -0.07620005 0.0531 C -0.06390005 0.047000002 -0.037000053 0.031100001 -0.016400054 0.017700002 C 0.019799948 -0.0057999976 0.022399947 -0.010599999 0.06259995 -0.1343 C 0.108199954 -0.2745 0.12849995 -0.3166 0.16259995 -0.3419 C 0.18069994 -0.35529998 0.19089995 -0.35689998 0.21349995 -0.35029998 C 0.23879994 -0.3428 0.24149995 -0.3387 0.23959994 -0.3112 C 0.23839994 -0.2943 0.22959994 -0.26229998 0.21999994 -0.2401 C 0.17899993 -0.1452 0.15819994 -0.0828 0.16509993 -0.0758 C 0.16919993 -0.0717 0.19419993 -0.078200005 0.22059993 -0.0902 C 0.27309993 -0.1141 0.30979994 -0.1275 0.37169993 -0.1454 C 0.39389992 -0.1518 0.43089992 -0.1644 0.45399994 -0.1734 C 0.48799995 -0.1866 0.50029993 -0.1877 0.51869994 -0.1794 C 0.54239994 -0.1686 0.55669993 -0.1338 0.54749995 -0.109699994 C 0.54059994 -0.0918 0.44469994 -0.048599996 0.38069993 -0.034599997 C 0.35359994 -0.028699998 0.32339993 -0.020499997 0.31349993 -0.016599998 C 0.23779993 0.014000002 0.21929993 0.0238 0.22199993 0.0318 C 0.22369993 0.0368 0.26709992 0.0555 0.31859994 0.0732 C 0.44859993 0.1181 0.45239994 0.1207 0.45239994 0.163 C 0.45239994 0.1875 0.44759995 0.2008 0.43649995 0.2067 C 0.40579996 0.22309999 0.27009994 0.1855 0.16389996 0.1311 C 0.13089997 0.114199996 0.09439996 0.1003 0.082799956 0.1003 C 0.058899954 0.1003 -0.08650005 0.1716 -0.09120004 0.1857 C -0.09290004 0.1907 -0.06380004 0.20989999 -0.026700042 0.2283 C 0.045899957 0.2642 0.05659996 0.27740002 0.04349996 0.3141 C 0.029699963 0.3527 -0.027200036 0.3465 -0.12770005 0.2955 C -0.20870005 0.2544 -0.20920005 0.2543 -0.24790004 0.2669 C -0.26920003 0.2739 -0.30280003 0.28710002 -0.32250005 0.2964 C -0.45760006 0.3599 -0.49870005 0.3698 -0.53080004 0.3468 Z"/>
<path id="twig2" d="M -0.5196 0.3389 C -0.5348 0.3278 -0.5352 0.3245 -0.5236 0.307 C -0.5068 0.28190002 -0.41279998 0.24100001 -0.36949998 0.24000001 C -0.34899998 0.23950002 -0.33589998 0.23490001 -0.33589998 0.2281 C -0.33589998 0.2219 -0.3349 0.2167 -0.33369997 0.2163 C -0.33249998 0.21599999 -0.31429997 0.2138 -0.29339996 0.2114 C -0.25979996 0.2075 -0.25529996 0.20910001 -0.25529996 0.2251 C -0.25529996 0.2487 -0.28749996 0.2669 -0.30449995 0.2528 C -0.31399995 0.24489999 -0.31899995 0.24689999 -0.32709995 0.262 C -0.33399996 0.2749 -0.34319994 0.2798 -0.35459995 0.2769 C -0.36399996 0.2744 -0.36979994 0.2755 -0.36749995 0.2793 C -0.35999995 0.29140002 -0.39729995 0.31800002 -0.44549996 0.3349 C -0.50119996 0.3545 -0.49849996 0.35439998 -0.51969993 0.3389 Z M -0.44339997 0.30110002 C -0.44339997 0.2917 -0.44829997 0.28860003 -0.45759997 0.2921 C -0.46539998 0.2951 -0.47349995 0.2975 -0.47549996 0.2975 C -0.47759995 0.2975 -0.47919995 0.30150002 -0.47919995 0.30650002 C -0.47919995 0.31140003 -0.47109994 0.31550002 -0.46129996 0.31550002 C -0.45079994 0.31550002 -0.44339997 0.3095 -0.44339997 0.30110002 Z M -0.39859998 0.2657 C -0.39859998 0.2635 -0.4026 0.2617 -0.4076 0.2617 C -0.4125 0.2617 -0.4166 0.266 -0.4166 0.2712 C -0.4166 0.2764 -0.41259998 0.2782 -0.4076 0.2751 C -0.40269998 0.2721 -0.39859998 0.2678 -0.39859998 0.2656 Z M -0.073899984 0.30510002 C -0.102499984 0.2912 -0.11199999 0.28140002 -0.11199999 0.26580003 C -0.11199999 0.24820003 -0.11719999 0.24450003 -0.14559999 0.24220003 C -0.17069998 0.24010003 -0.18149999 0.23420003 -0.1882 0.21860003 C -0.1952 0.20230004 -0.2022 0.19880003 -0.2207 0.20250003 C -0.23369999 0.20510003 -0.24669999 0.20470002 -0.2497 0.20170003 C -0.2586 0.19280003 -0.2366 0.17220002 -0.2184 0.17220002 C -0.1967 0.17220002 -0.197 0.16120002 -0.2195 0.14080003 C -0.2437 0.11890003 -0.2422 0.10840003 -0.2105 0.078100026 C -0.1821 0.050900027 -0.1769 0.030200027 -0.194 0.013100028 C -0.20140001 0.005700028 -0.2016 -5.99972E-4 -0.1948 -0.008799972 C -0.1895 -0.015199972 -0.1839 -0.03209997 -0.1822 -0.04629997 C -0.1785 -0.07759997 -0.1536 -0.09689997 -0.1375 -0.08079997 C -0.12910001 -0.07239997 -0.12990001 -0.06649996 -0.141 -0.05409997 C -0.1489 -0.04539997 -0.1571 -0.020099968 -0.1592 0.0021000318 C -0.16139999 0.024300031 -0.1664 0.05000003 -0.17029999 0.05930003 C -0.17449999 0.06920003 -0.1732 0.083000034 -0.1671 0.092800036 C -0.16139999 0.10190003 -0.1567 0.11530004 -0.1567 0.12240004 C -0.1567 0.14000005 -0.14570001 0.14560004 -0.122999996 0.13970004 C -0.1112 0.13660005 -0.10599999 0.12990004 -0.1091 0.12190004 C -0.1147 0.107300036 -0.0881 0.07380004 -0.0709 0.07380004 C -0.0647 0.07380004 -0.0476 0.06370004 -0.0329 0.051400043 C 5.99999E-4 0.023200043 0.061099995 0.020300044 0.0838 0.045700043 C 0.092 0.054900043 0.113800004 0.071300045 0.1323 0.082300045 L 0.1659 0.102200046 L 0.1658 0.08130005 C 0.1657 0.06450005 0.164 0.06300005 0.1569 0.07390005 C 0.1496 0.085100055 0.1442 0.082400054 0.125 0.058200054 C 0.1123 0.04220005 0.0961 0.029100053 0.0891 0.029100053 C 0.079900004 0.029100053 0.0763 0.017700054 0.0763 -0.011199947 C 0.0763 -0.044199947 0.0793 -0.051499948 0.0926 -0.051499948 C 0.101600006 -0.051499948 0.1177 -0.04139995 0.1284 -0.029099949 C 0.1522 -0.0017999485 0.1838 0.0010000505 0.1838 -0.02429995 C 0.1838 -0.04599995 0.2112 -0.06229995 0.229 -0.05119995 C 0.2361 -0.04679995 0.2427 -0.032999948 0.2437 -0.02049995 C 0.245 -0.0034999494 0.2411 0.00230005 0.22839999 0.00230005 C 0.219 0.00230005 0.2067 0.01110005 0.20089999 0.02170005 C 0.1924 0.03750005 0.19319999 0.04310005 0.20509999 0.05180005 C 0.21309999 0.05770005 0.21969998 0.06660005 0.21969998 0.07170005 C 0.21969998 0.07680005 0.22679998 0.08040005 0.23539998 0.07970005 C 0.24619998 0.07880005 0.25199997 0.086000055 0.2539 0.10250005 C 0.25579998 0.11890005 0.2626 0.12750006 0.27539998 0.12940004 C 0.2963 0.13250004 0.31689999 0.15900004 0.3065 0.16940004 C 0.3028 0.17310004 0.2868 0.16960004 0.271 0.16160004 C 0.2552 0.15360004 0.2307 0.14450003 0.2167 0.14140004 C 0.2016 0.13810004 0.1892 0.12840004 0.1864 0.11770004 C 0.18339999 0.10620004 0.1768 0.101600036 0.1683 0.10480004 C 0.1609 0.10760004 0.1504 0.106400035 0.1448 0.102000035 C 0.1393 0.097600035 0.120000005 0.091400035 0.102000006 0.08820003 C 0.08400001 0.08500003 0.0644 0.076400034 0.058400005 0.06920003 C 0.044700004 0.05270003 0.031600006 0.06020003 0.031600006 0.08450003 C 0.031600006 0.101000026 0.027600005 0.10250003 -0.004599996 0.09820003 C -0.036999997 0.09380003 -0.040199995 0.09510003 -0.035399996 0.110300034 C -0.029099995 0.13010004 -0.071399994 0.16000003 -0.118099995 0.16880003 C -0.1488 0.17460002 -0.1786 0.19920003 -0.1549 0.19920003 C -0.1479 0.19920003 -0.1373 0.19440003 -0.1314 0.18850003 C -0.123100005 0.18020003 -0.118200004 0.18090004 -0.109500006 0.19190003 C -0.091000006 0.21520004 -0.0034000054 0.27090004 0.0146999955 0.27090004 C 0.027499996 0.27090004 0.031599995 0.27740005 0.031599995 0.29780003 C 0.031599995 0.31570002 0.027099995 0.32470003 0.018199995 0.32470003 C 0.010799995 0.32470003 0.0047999956 0.31870002 0.0048999954 0.32470003"/>
</defs>
<g>
<g>
<rect x="0" y="0" width="720" height="144" class="white"/>
<rect x="0" y="144" width="720" height="72" class="green2"/>
<rect x="0" y="216" width="720" height="144" class="blue"/>
</g>
<use xlink:href="#twig1" transform="translate(162 72) scale(144 144) rotate(0)" class="green1"/>
<use xlink:href="#twig2" transform="translate(162 72) scale(144 144) rotate(0)" class="green2"/>
</g>
</svg>
