<?xml version="1.0"?>
<svg xmlns="http://www.w3.org/2000/svg" xmlns:xlink="http://www.w3.org/1999/xlink" version="1.1" width="720" height="360" viewBox="0 0 720 360">
<!-- Generated by Kreative Vexillo v1.0 -->
<style>
.blue{fill:rgb(0,56,101);}
.red{fill:rgb(186,12,47);}
.white{fill:rgb(255,255,255);}
.yellow{fill:rgb(255,164,0);}
</style>
<defs>
<clipPath id="clip0">
<path d="M 311.7691 15 L 696.6667 15 L 311.7691 145.359 Z"/>
</clipPath>
<clipPath id="clip1">
<path d="M 311.7691 345 L 696.6667 345 L 311.7691 214.641 Z"/>
</clipPath>
<clipPath id="clip2">
<path d="M 311.7691 164.604 L 593.3333 164.604 L 660 180 L 593.3333 195.396 L 311.7691 195.396 L 338.4358 180 Z"/>
</clipPath>
</defs>
<g>
<rect x="0" y="0" width="720" height="360" class="white"/>
<rect x="26.6667" y="15" width="251.7691" height="330" class="blue"/>
<path d="M 6.6667 -11.547 L 6.6667 -11.547 L 318.4358 168.453 L 305.1025 191.547 L -6.6667 11.547 Z" class="white"/>
<path d="M -6.6667 348.453 L -6.6667 348.453 L 305.1025 168.453 L 318.4358 191.547 L 6.6667 371.547 Z" class="white"/>
<path d="M 0 166.6667 L 0 166.6667 L 311.7691 166.6667 L 311.7691 193.3333 L 0 193.3333 Z" class="white"/>
<g clip-path="url(#clip0)">
<path d="M 311.7691 0 L 311.7691 0 L 696.6667 0 L 696.6667 30 L 311.7691 30 Z" class="red"/>
<path d="M 701.4785 29.2073 L 701.4785 29.2073 L 316.5809 159.5663 L 306.9574 131.1517 L 691.8549 0.7927 Z" class="red"/>
<path d="M 296.7691 145.359 L 296.7691 145.359 L 296.7691 15 L 326.7691 15 L 326.7691 145.359 Z" class="red"/>
</g>
<g clip-path="url(#clip1)">
<path d="M 311.7691 330 L 311.7691 330 L 696.6667 330 L 696.6667 360 L 311.7691 360 Z" class="red"/>
<path d="M 691.8549 359.2073 L 691.8549 359.2073 L 306.9574 228.8483 L 316.5809 200.4337 L 701.4785 330.7927 Z" class="red"/>
<path d="M 326.7691 214.641 L 326.7691 214.641 L 326.7691 345 L 296.7691 345 L 296.7691 214.641 Z" class="red"/>
</g>
<path d="M 311.7691 164.604 L 593.3333 164.604 L 660 180 L 593.3333 195.396 L 311.7691 195.396 L 338.4358 180 Z" class="yellow"/>
<g clip-path="url(#clip2)">
<path d="M 311.7691 157.9373 L 311.7691 157.9373 L 593.3333 157.9373 L 593.3333 171.2707 L 311.7691 171.2707 Z" class="red"/>
<path d="M 594.8335 158.1083 L 594.8335 158.1083 L 661.5001 173.5043 L 658.4999 186.4957 L 591.8332 171.0997 Z" class="red"/>
<path d="M 661.5001 186.4957 L 661.5001 186.4957 L 594.8335 201.8917 L 591.8332 188.9003 L 658.4999 173.5043 Z" class="red"/>
<path d="M 593.3333 202.0627 L 593.3333 202.0627 L 311.7691 202.0627 L 311.7691 188.7293 L 593.3333 188.7293 Z" class="red"/>
<path d="M 311.7691 164.604 L 325.1025 164.604 L 351.7691 180 L 325.1025 195.396 L 311.7691 195.396 Z" class="red"/>
</g>
</g>
</svg>
