<?xml version="1.0"?>
<svg xmlns="http://www.w3.org/2000/svg" xmlns:xlink="http://www.w3.org/1999/xlink" version="1.1" width="720" height="360" viewBox="0 0 720 360">
<!-- Generated by Kreative Vexillo v1.0 -->
<style>
.blue{fill:rgb(0,62,126);}
.red{fill:rgb(239,65,53);}
.white{fill:rgb(255,255,255);}
</style>
<defs>
<path id="star" d="M 0.0 -1.0 L 0.2245 -0.309 L 0.9511 -0.309 L 0.3633 0.118 L 0.5878 0.809 L 0.0 0.382 L -0.5878 0.809 L -0.3633 0.118 L -0.9511 -0.309 L -0.2245 -0.309 Z"/>
<clipPath id="clip0">
<path d="M 0 0 L 0 13.4164 L 0 13.4164 L 153.1672 90 L 153.1672 90 L 0 166.5836 L 0 166.5836 L 0 180 L 26.8328 180 L 180 103.4164 L 180 103.4164 L 333.1672 180 L 360 180 L 360 166.5836 L 206.8328 90 L 206.8328 90 L 360 13.4164 L 360 0 L 333.1672 0 L 180 76.5836 L 180 76.5836 L 180 76.5836 L 180 76.5836 L 180 76.5836 L 180 76.5836 L 26.8328 0 Z"/>
</clipPath>
</defs>
<g>
<rect x="0" y="0" width="720" height="360" class="blue"/>
<g>
<path d="M 0 0 L 0 20.1246 L 0 20.1246 L 139.7508 90 L 139.7508 90 L 0 159.8754 L 0 180 L 40.2492 180 L 180 110.1246 L 319.7508 180 L 360 180 L 360 159.8754 L 220.2492 90 L 220.2492 90 L 360 20.1246 L 360 0 L 319.7508 0 L 180 69.8754 L 180 69.8754 L 180 69.8754 L 180 69.8754 L 180 69.8754 L 180 69.8754 L 40.2492 0 Z" class="white"/>
<g clip-path="url(#clip0)">
<path d="M 0 0 L 180 90 L 0 90 Z" class="red"/>
<path d="M 360 0 L 180 90 L 180 0 Z" class="red"/>
<path d="M 0 180 L 180 90 L 180 180 Z" class="red"/>
<path d="M 360 180 L 180 90 L 360 90 Z" class="red"/>
</g>
<g>
<rect x="0" y="60" width="360" height="60" class="white"/>
<rect x="150" y="0" width="60" height="180" class="white"/>
</g>
<g>
<rect x="0" y="72" width="360" height="36" class="red"/>
<rect x="162" y="0" width="36" height="180" class="red"/>
</g>
</g>
<g>
<use xlink:href="#star" transform="translate(540 57.6) scale(27 27) rotate(0)" class="white"/>
<use xlink:href="#star" transform="translate(589.7846 68.182) scale(27 27) rotate(24)" class="white"/>
<use xlink:href="#star" transform="translate(630.9609 98.0984) scale(27 27) rotate(48)" class="white"/>
<use xlink:href="#star" transform="translate(656.4093 142.1763) scale(27 27) rotate(72)" class="white"/>
<use xlink:href="#star" transform="translate(661.7295 192.7943) scale(27 27) rotate(96)" class="white"/>
<use xlink:href="#star" transform="translate(646.0015 241.2) scale(27 27) rotate(120)" class="white"/>
<use xlink:href="#star" transform="translate(611.9449 279.0237) scale(27 27) rotate(144)" class="white"/>
<use xlink:href="#star" transform="translate(565.4484 299.7253) scale(27 27) rotate(168)" class="white"/>
<use xlink:href="#star" transform="translate(514.5516 299.7253) scale(27 27) rotate(192)" class="white"/>
<use xlink:href="#star" transform="translate(468.0551 279.0237) scale(27 27) rotate(216)" class="white"/>
<use xlink:href="#star" transform="translate(433.9985 241.2) scale(27 27) rotate(240)" class="white"/>
<use xlink:href="#star" transform="translate(418.2705 192.7943) scale(27 27) rotate(264)" class="white"/>
<use xlink:href="#star" transform="translate(423.5907 142.1763) scale(27 27) rotate(288)" class="white"/>
<use xlink:href="#star" transform="translate(449.0391 98.0984) scale(27 27) rotate(312)" class="white"/>
<use xlink:href="#star" transform="translate(490.2154 68.182) scale(27 27) rotate(336)" class="white"/>
</g>
</g>
</svg>
