<?xml version="1.0"?>
<svg xmlns="http://www.w3.org/2000/svg" xmlns:xlink="http://www.w3.org/1999/xlink" version="1.1" width="720" height="360" viewBox="0 0 720 360">
<!-- Generated by Kreative Vexillo v1.0 -->
<style>
.green{fill:rgb(39,138,65);}
.red{fill:rgb(235,35,35);}
.white{fill:rgb(255,255,255);}
.yellow{fill:rgb(250,185,20);}
</style>
<defs>
<path id="star" d="M 0.0 -1.0 L 0.0749 -0.49159998 L 0.2964 -0.9554 L 0.21810001 -0.4475 L 0.56640005 -0.8254 L 0.34190005 -0.3631 L 0.78610003 -0.6215 L 0.43530002 -0.2459 L 0.936 -0.3619 L 0.4901 -0.10640001 L 1.0027 -0.06970002 L 0.5013 0.042999983 L 0.98029995 0.22919998 L 0.46799994 0.18909997 L 0.8707999 0.50819993 L 0.3929999 0.31889993 L 0.6838999 0.74259996 L 0.2830999 0.42089996 L 0.4361999 0.9115 L 0.1480999 0.48589998 L 0.1497999 0.99979997 L 0.0 0.5084 L -0.1499 1.0 L -0.1482 0.48610002 L -0.4363 0.9117 L -0.28320003 0.42110002 L -0.684 0.7428 L -0.39310002 0.3191 L -0.87090003 0.50839996 L -0.46810004 0.18929997 L -0.9804001 0.22939998 L -0.5014001 0.043199986 L -1.0028001 -0.069500014 L -0.4902001 -0.10620001 L -0.9361001 -0.3617 L -0.43540013 -0.2457 L -0.78620017 -0.6213 L -0.34200016 -0.3629 L -0.5665002 -0.82519996 L -0.21820018 -0.44729996 L -0.29650018 -0.95519996 L -0.07500018 -0.49139994 Z"/>
</defs>
<g>
<g>
<rect x="0" y="0" width="720" height="120" class="red"/>
<rect x="0" y="120" width="720" height="120" class="white"/>
<rect x="0" y="240" width="720" height="120" class="green"/>
</g>
<use xlink:href="#star" transform="translate(360 180) scale(90 90) rotate(0)" class="yellow"/>
</g>
</svg>
