<?xml version="1.0"?>
<svg xmlns="http://www.w3.org/2000/svg" xmlns:xlink="http://www.w3.org/1999/xlink" version="1.1" width="720" height="360" viewBox="0 0 720 360">
<!-- Generated by Kreative Vexillo v1.0 -->
<style>
.green{fill:rgb(0,158,82);}
.red{fill:rgb(227,61,58);}
.white{fill:rgb(255,255,255);}
</style>
<defs>
<path id="e1" d="M -0.5481 0.8364 A 0.912 0.912 0.0 0 0 0.3285 -0.7224 A 1.0 1.0 0.0 0 1 -0.5481 0.8364"/>
<path id="e2" d="M 0.6183 0.6614 A 0.7639 0.7639 0.0 0 0 0.4216 -0.741 A 1.0 1.0 0.0 0 1 0.6183 0.6614"/>
<path id="e3" d="M 0.0 1.0 L -0.05 0.0 L 0.0 -0.7873 A 0.31 0.31 0.0 0 0 0.118 -0.6882 V -0.1004 L 0.0778 0.8929 Z"/>
<path id="e4" d="M -0.02 -0.85 L 0.0 -0.8312 A 0.1443 0.1443 0.0 0 0 0.2521 -0.9677 A 0.1364 0.1364 0.0 0 1 0.0 -0.9246"/>
<path id="takbir" d="M 0.0979 0.3181 H 0.0754 V 0.3025 H 0.0624 V 0.3097 H 0.0711 V 0.31800002 H 0.0576 V 0.2942 H 0.075399995 V 0.2789 H 0.080199994 V 0.3097 H 0.0843 V 0.2789 H 0.089099996 V 0.3097 H 0.0932 V 0.2789 H 0.098 V 0.3181 Z M 0.0535 0.3181 H 0.031 V 0.3025 H 0.0179 V 0.31780002 H 0.0132 V 0.2942 H 0.0357 V 0.3098 H 0.0487 V 0.3025 H 0.04 V 0.2942 H 0.0535 V 0.3181 Z M 0.0267 0.3181 H 0.0222 V 0.3098 H 0.0266 V 0.3181 Z M 0.0711 0.2869 H 0.0133 V 0.2786 H 0.0711 V 0.2869 Z M 0.0978 0.3375 H 0.0578 V 0.3292 H 0.0978 V 0.3375 Z M 0.0533 0.3375 H 0.0133 V 0.3292 H 0.0533 V 0.3375 Z M 0.0978 0.6708 H 0.0578 V 0.66249996 H 0.0978 V 0.6708 Z M 0.0533 0.6708 H 0.0133 V 0.66249996 H 0.0533 V 0.6708 Z M 0.0979 0.7214 H 0.0754 V 0.7058 H 0.0624 V 0.713 H 0.0711 V 0.7213 H 0.0576 V 0.6975 H 0.075399995 V 0.6822 H 0.080199994 V 0.7131 H 0.0843 V 0.6822 H 0.089099996 V 0.7131 H 0.0932 V 0.6822 H 0.098 V 0.7214 Z M 0.0535 0.7214 H 0.031 V 0.7058 H 0.0179 V 0.7211 H 0.0132 V 0.6975 H 0.0357 V 0.7131 H 0.0487 V 0.7058 H 0.04 V 0.6975 H 0.0535 V 0.7214 Z M 0.0267 0.7214 H 0.0222 V 0.7131 H 0.0266 V 0.7214 Z M 0.0711 0.6903 H 0.0133 V 0.682 H 0.0711 V 0.6903 Z M 0.1868 0.3181 H 0.1643 V 0.3025 H 0.1513 V 0.3097 H 0.16 V 0.31800002 H 0.1465 V 0.2942 H 0.16430001 V 0.2789 H 0.16910002 V 0.3097 H 0.17320001 V 0.2789 H 0.17800002 V 0.3097 H 0.18210001 V 0.2789 H 0.18690002 V 0.3181 Z M 0.1424 0.3181 H 0.1198 V 0.3025 H 0.1068 V 0.31780002 H 0.102 V 0.2942 H 0.1245 V 0.3098 H 0.1375 V 0.3025 H 0.1288 V 0.2942 H 0.14230001 V 0.3181 Z M 0.1156 0.3181 H 0.1112 V 0.3098 H 0.1156 V 0.3181 Z M 0.16 0.2869 H 0.1022 V 0.2786 H 0.16 V 0.2869 Z M 0.1867 0.3375 H 0.1467 V 0.3292 H 0.18669999 V 0.3375 Z M 0.1422 0.3375 H 0.1022 V 0.3292 H 0.1422 V 0.3375 Z M 0.1867 0.6708 H 0.1467 V 0.66249996 H 0.18669999 V 0.6708 Z M 0.1422 0.6708 H 0.1022 V 0.66249996 H 0.1422 V 0.6708 Z M 0.1868 0.7214 H 0.1643 V 0.7058 H 0.1513 V 0.713 H 0.16 V 0.7213 H 0.1465 V 0.6975 H 0.16430001 V 0.6822 H 0.16910002 V 0.7131 H 0.17320001 V 0.6822 H 0.17800002 V 0.7131 H 0.18210001 V 0.6822 H 0.18690002 V 0.7214 Z M 0.1424 0.7214 H 0.1198 V 0.7058 H 0.1068 V 0.7211 H 0.102 V 0.6975 H 0.1245 V 0.7131 H 0.1375 V 0.7058 H 0.1288 V 0.6975 H 0.14230001 V 0.7214 Z M 0.1156 0.7214 H 0.1112 V 0.7131 H 0.1156 V 0.7214 Z M 0.16 0.6903 H 0.1022 V 0.682 H 0.16 V 0.6903 Z M 0.2757 0.3181 H 0.2532 V 0.3025 H 0.2402 V 0.3097 H 0.2489 V 0.31800002 H 0.2354 V 0.2942 H 0.2532 V 0.2789 H 0.258 V 0.3097 H 0.26209998 V 0.2789 H 0.26689997 V 0.3097 H 0.27099997 V 0.2789 H 0.27579996 V 0.3181 Z M 0.2313 0.3181 H 0.20879999 V 0.3025 H 0.1957 V 0.31780002 H 0.1909 V 0.2942 H 0.2134 V 0.3098 H 0.2264 V 0.3025 H 0.2177 V 0.2942 H 0.23120001 V 0.3181 Z M 0.2044 0.3181 H 0.2 V 0.3098 H 0.2044 V 0.3181 Z M 0.2489 0.2869 H 0.1911 V 0.2786 H 0.2489 V 0.2869 Z M 0.2756 0.3375 H 0.2356 V 0.3292 H 0.2756 V 0.3375 Z M 0.2311 0.3375 H 0.1911 V 0.3292 H 0.2311 V 0.3375 Z M 0.2756 0.6708 H 0.2356 V 0.66249996 H 0.2756 V 0.6708 Z M 0.2311 0.6708 H 0.1911 V 0.66249996 H 0.2311 V 0.6708 Z M 0.2757 0.7214 H 0.2532 V 0.7058 H 0.2402 V 0.713 H 0.2489 V 0.7213 H 0.2354 V 0.6975 H 0.2532 V 0.6822 H 0.258 V 0.7131 H 0.26209998 V 0.6822 H 0.26689997 V 0.7131 H 0.27099997 V 0.6822 H 0.27579996 V 0.7214 Z M 0.2313 0.7214 H 0.20879999 V 0.7058 H 0.1957 V 0.7211 H 0.1909 V 0.6975 H 0.2134 V 0.7131 H 0.2264 V 0.7058 H 0.2177 V 0.6975 H 0.23120001 V 0.7214 Z M 0.2044 0.7214 H 0.2 V 0.7131 H 0.2044 V 0.7214 Z M 0.2489 0.6903 H 0.1911 V 0.682 H 0.2489 V 0.6903 Z M 0.3646 0.3181 H 0.3421 V 0.3025 H 0.329 V 0.3097 H 0.3377 V 0.31800002 H 0.3243 V 0.2942 H 0.3421 V 0.2789 H 0.3469 V 0.3097 H 0.35099998 V 0.2789 H 0.35579997 V 0.3097 H 0.35989997 V 0.2789 H 0.36469996 V 0.3181 Z M 0.3202 0.3181 H 0.2977 V 0.3025 H 0.2846 V 0.31780002 H 0.2798 V 0.2942 H 0.3023 V 0.3098 H 0.31530002 V 0.3025 H 0.3066 V 0.2942 H 0.3201 V 0.3181 Z M 0.2933 0.3181 H 0.28890002 V 0.3098 H 0.29330003 V 0.3181 Z M 0.3378 0.2869 H 0.28 V 0.2786 H 0.3378 V 0.2869 Z M 0.3644 0.3375 H 0.3244 V 0.3292 H 0.3644 V 0.3375 Z M 0.32 0.3375 H 0.28 V 0.3292 H 0.32 V 0.3375 Z M 0.3644 0.6708 H 0.3244 V 0.66249996 H 0.3644 V 0.6708 Z M 0.32 0.6708 H 0.28 V 0.66249996 H 0.32 V 0.6708 Z M 0.3646 0.7214 H 0.3421 V 0.7058 H 0.329 V 0.713 H 0.3377 V 0.7213 H 0.3243 V 0.6975 H 0.3421 V 0.6822 H 0.3469 V 0.7131 H 0.35099998 V 0.6822 H 0.35579997 V 0.7131 H 0.35989997 V 0.6822 H 0.36469996 V 0.7214 Z M 0.3202 0.7214 H 0.2977 V 0.7058 H 0.2846 V 0.7211 H 0.2798 V 0.6975 H 0.3023 V 0.7131 H 0.31530002 V 0.7058 H 0.3066 V 0.6975 H 0.3201 V 0.7214 Z M 0.2933 0.7214 H 0.28890002 V 0.7131 H 0.29330003 V 0.7214 Z M 0.3378 0.6903 H 0.28 V 0.682 H 0.3378 V 0.6903 Z M 0.4535 0.3181 H 0.431 V 0.3025 H 0.4179 V 0.3097 H 0.4266 V 0.31800002 H 0.4132 V 0.2942 H 0.431 V 0.2789 H 0.4358 V 0.3097 H 0.43989998 V 0.2789 H 0.44469997 V 0.3097 H 0.44879997 V 0.2789 H 0.45359996 V 0.3181 Z M 0.409 0.3181 H 0.3865 V 0.3025 H 0.3735 V 0.31780002 H 0.3687 V 0.2942 H 0.3912 V 0.3098 H 0.40420002 V 0.3025 H 0.3955 V 0.2942 H 0.409 V 0.3181 Z M 0.3822 0.3181 H 0.3778 V 0.3098 H 0.3822 V 0.3181 Z M 0.4267 0.2869 H 0.3689 V 0.2786 H 0.4267 V 0.2869 Z M 0.4533 0.3375 H 0.4133 V 0.3292 H 0.4533 V 0.3375 Z M 0.4089 0.3375 H 0.3689 V 0.3292 H 0.4089 V 0.3375 Z M 0.4533 0.6708 H 0.4133 V 0.66249996 H 0.4533 V 0.6708 Z M 0.4089 0.6708 H 0.3689 V 0.66249996 H 0.4089 V 0.6708 Z M 0.4535 0.7214 H 0.431 V 0.7058 H 0.4179 V 0.713 H 0.4266 V 0.7213 H 0.4132 V 0.6975 H 0.431 V 0.6822 H 0.4358 V 0.7131 H 0.43989998 V 0.6822 H 0.44469997 V 0.7131 H 0.44879997 V 0.6822 H 0.45359996 V 0.7214 Z M 0.409 0.7214 H 0.3865 V 0.7058 H 0.3735 V 0.7211 H 0.3687 V 0.6975 H 0.3912 V 0.7131 H 0.40420002 V 0.7058 H 0.3955 V 0.6975 H 0.409 V 0.7214 Z M 0.3822 0.7214 H 0.3778 V 0.7131 H 0.3822 V 0.7214 Z M 0.4267 0.6903 H 0.3689 V 0.682 H 0.4267 V 0.6903 Z M 0.5424 0.3181 H 0.5199 V 0.3025 H 0.5068 V 0.3097 H 0.5155 V 0.31800002 H 0.5021 V 0.2942 H 0.51989996 V 0.2789 H 0.5247 V 0.3097 H 0.5288 V 0.2789 H 0.53360003 V 0.3097 H 0.53770006 V 0.2789 H 0.5425001 V 0.3181 Z M 0.4979 0.3181 H 0.4754 V 0.3025 H 0.4624 V 0.31780002 H 0.4576 V 0.2942 H 0.4801 V 0.3098 H 0.49310002 V 0.3025 H 0.4844 V 0.2942 H 0.4979 V 0.3181 Z M 0.4711 0.3181 H 0.46670002 V 0.3098 H 0.47110003 V 0.3181 Z M 0.5156 0.2869 H 0.45780003 V 0.2786 H 0.5156 V 0.2869 Z M 0.5422 0.3375 H 0.5022 V 0.3292 H 0.5422 V 0.3375 Z M 0.4978 0.3375 H 0.4578 V 0.3292 H 0.4978 V 0.3375 Z M 0.5422 0.6708 H 0.5022 V 0.66249996 H 0.5422 V 0.6708 Z M 0.4978 0.6708 H 0.4578 V 0.66249996 H 0.4978 V 0.6708 Z M 0.5424 0.7214 H 0.5199 V 0.7058 H 0.5068 V 0.713 H 0.5155 V 0.7213 H 0.5021 V 0.6975 H 0.51989996 V 0.6822 H 0.5247 V 0.7131 H 0.5288 V 0.6822 H 0.53360003 V 0.7131 H 0.53770006 V 0.6822 H 0.5425001 V 0.7214 Z M 0.4979 0.7214 H 0.4754 V 0.7058 H 0.4624 V 0.7211 H 0.4576 V 0.6975 H 0.4801 V 0.7131 H 0.49310002 V 0.7058 H 0.4844 V 0.6975 H 0.4979 V 0.7214 Z M 0.4711 0.7214 H 0.46670002 V 0.7131 H 0.47110003 V 0.7214 Z M 0.5156 0.6903 H 0.45780003 V 0.682 H 0.5156 V 0.6903 Z M 0.6313 0.3181 H 0.6088 V 0.3025 H 0.5957 V 0.3097 H 0.60440004 V 0.31800002 H 0.591 V 0.2942 H 0.6088 V 0.2789 H 0.6136 V 0.3097 H 0.61770004 V 0.2789 H 0.62250006 V 0.3097 H 0.6266001 V 0.2789 H 0.6314001 V 0.3181 Z M 0.5868 0.3181 H 0.5643 V 0.3025 H 0.5513 V 0.31780002 H 0.54649997 V 0.2942 H 0.56899995 V 0.3098 H 0.58199996 V 0.3025 H 0.57329994 V 0.2942 H 0.5867999 V 0.3181 Z M 0.56 0.3181 H 0.5556 V 0.3098 H 0.56 V 0.3181 Z M 0.6044 0.2869 H 0.5466 V 0.2786 H 0.6044 V 0.2869 Z M 0.6311 0.3375 H 0.5911 V 0.3292 H 0.6311 V 0.3375 Z M 0.5867 0.3375 H 0.5467 V 0.3292 H 0.5867 V 0.3375 Z M 0.6311 0.6708 H 0.5911 V 0.66249996 H 0.6311 V 0.6708 Z M 0.5867 0.6708 H 0.5467 V 0.66249996 H 0.5867 V 0.6708 Z M 0.6313 0.7214 H 0.6088 V 0.7058 H 0.5957 V 0.713 H 0.60440004 V 0.7213 H 0.591 V 0.6975 H 0.6088 V 0.6822 H 0.6136 V 0.7131 H 0.61770004 V 0.6822 H 0.62250006 V 0.7131 H 0.6266001 V 0.6822 H 0.6314001 V 0.7214 Z M 0.5868 0.7214 H 0.5643 V 0.7058 H 0.5513 V 0.7211 H 0.54649997 V 0.6975 H 0.56899995 V 0.7131 H 0.58199996 V 0.7058 H 0.57329994 V 0.6975 H 0.5867999 V 0.7214 Z M 0.56 0.7214 H 0.5556 V 0.7131 H 0.56 V 0.7214 Z M 0.6044 0.6903 H 0.5466 V 0.682 H 0.6044 V 0.6903 Z M 0.7202 0.3181 H 0.6977 V 0.3025 H 0.6846 V 0.3097 H 0.6933 V 0.31800002 H 0.6798 V 0.2942 H 0.69759995 V 0.2789 H 0.70239997 V 0.3097 H 0.7065 V 0.2789 H 0.7113 V 0.3097 H 0.71540004 V 0.2789 H 0.72020006 V 0.3181 Z M 0.6757 0.3181 H 0.65320003 V 0.3025 H 0.6402 V 0.31780002 H 0.6354 V 0.2942 H 0.6579 V 0.3098 H 0.6709 V 0.3025 H 0.6622 V 0.2942 H 0.67569995 V 0.3181 Z M 0.6489 0.3181 H 0.64449996 V 0.3098 H 0.6489 V 0.3181 Z M 0.6933 0.2869 H 0.6355 V 0.2786 H 0.6933 V 0.2869 Z M 0.72 0.3375 H 0.68 V 0.3292 H 0.72 V 0.3375 Z M 0.6756 0.3375 H 0.6356 V 0.3292 H 0.6756 V 0.3375 Z M 0.72 0.6708 H 0.68 V 0.66249996 H 0.72 V 0.6708 Z M 0.6756 0.6708 H 0.6356 V 0.66249996 H 0.6756 V 0.6708 Z M 0.7202 0.7214 H 0.6977 V 0.7058 H 0.6846 V 0.713 H 0.6933 V 0.7213 H 0.6798 V 0.6975 H 0.69759995 V 0.6822 H 0.70239997 V 0.7131 H 0.7065 V 0.6822 H 0.7113 V 0.7131 H 0.71540004 V 0.6822 H 0.72020006 V 0.7214 Z M 0.6757 0.7214 H 0.65320003 V 0.7058 H 0.6402 V 0.7211 H 0.6354 V 0.6975 H 0.6579 V 0.7131 H 0.6709 V 0.7058 H 0.6622 V 0.6975 H 0.67569995 V 0.7214 Z M 0.6489 0.7214 H 0.64449996 V 0.7131 H 0.6489 V 0.7214 Z M 0.6933 0.6903 H 0.6355 V 0.682 H 0.6933 V 0.6903 Z M 0.809 0.3181 H 0.78650004 V 0.3025 H 0.7735 V 0.3097 H 0.78220004 V 0.31800002 H 0.7687 V 0.2942 H 0.7865 V 0.2789 H 0.7913 V 0.3097 H 0.7954 V 0.2789 H 0.80020005 V 0.3097 H 0.80430007 V 0.2789 H 0.8091001 V 0.3181 Z M 0.7646 0.3181 H 0.7421 V 0.3025 H 0.729 V 0.31780002 H 0.72419995 V 0.2942 H 0.7466999 V 0.3098 H 0.75969994 V 0.3025 H 0.7509999 V 0.2942 H 0.7644999 V 0.3181 Z M 0.7378 0.3181 H 0.7334 V 0.3098 H 0.7378 V 0.3181 Z M 0.7822 0.2869 H 0.7244 V 0.2786 H 0.7822 V 0.2869 Z M 0.8089 0.3375 H 0.7689 V 0.3292 H 0.8089 V 0.3375 Z M 0.7644 0.3375 H 0.7244 V 0.3292 H 0.7644 V 0.3375 Z M 0.8089 0.6708 H 0.7689 V 0.66249996 H 0.8089 V 0.6708 Z M 0.7644 0.6708 H 0.7244 V 0.66249996 H 0.7644 V 0.6708 Z M 0.809 0.7214 H 0.78650004 V 0.7058 H 0.7735 V 0.713 H 0.78220004 V 0.7213 H 0.7687 V 0.6975 H 0.7865 V 0.6822 H 0.7913 V 0.7131 H 0.7954 V 0.6822 H 0.80020005 V 0.7131 H 0.80430007 V 0.6822 H 0.8091001 V 0.7214 Z M 0.7646 0.7214 H 0.7421 V 0.7058 H 0.729 V 0.7211 H 0.72419995 V 0.6975 H 0.7466999 V 0.7131 H 0.75969994 V 0.7058 H 0.7509999 V 0.6975 H 0.7644999 V 0.7214 Z M 0.7378 0.7214 H 0.7334 V 0.7131 H 0.7378 V 0.7214 Z M 0.7822 0.6903 H 0.7244 V 0.682 H 0.7822 V 0.6903 Z M 0.8979 0.3181 H 0.8754 V 0.3025 H 0.8624 V 0.3097 H 0.8711 V 0.31800002 H 0.8576 V 0.2942 H 0.87539995 V 0.2789 H 0.88019997 V 0.3097 H 0.8843 V 0.2789 H 0.8891 V 0.3097 H 0.89320004 V 0.2789 H 0.89800006 V 0.3181 Z M 0.8535 0.3181 H 0.83100003 V 0.3025 H 0.8179 V 0.31780002 H 0.8131 V 0.2942 H 0.83559996 V 0.3098 H 0.8486 V 0.3025 H 0.83989996 V 0.2942 H 0.85339993 V 0.3181 Z M 0.8267 0.3181 H 0.82229996 V 0.3098 H 0.8267 V 0.3181 Z M 0.8711 0.2869 H 0.8133 V 0.2786 H 0.8711 V 0.2869 Z M 0.8978 0.3375 H 0.8578 V 0.3292 H 0.8978 V 0.3375 Z M 0.8533 0.3375 H 0.81329995 V 0.3292 H 0.8533 V 0.3375 Z M 0.8978 0.6708 H 0.8578 V 0.66249996 H 0.8978 V 0.6708 Z M 0.8533 0.6708 H 0.81329995 V 0.66249996 H 0.8533 V 0.6708 Z M 0.8979 0.7214 H 0.8754 V 0.7058 H 0.8624 V 0.713 H 0.8711 V 0.7213 H 0.8576 V 0.6975 H 0.87539995 V 0.6822 H 0.88019997 V 0.7131 H 0.8843 V 0.6822 H 0.8891 V 0.7131 H 0.89320004 V 0.6822 H 0.89800006 V 0.7214 Z M 0.8535 0.7214 H 0.83100003 V 0.7058 H 0.8179 V 0.7211 H 0.8131 V 0.6975 H 0.83559996 V 0.7131 H 0.8486 V 0.7058 H 0.83989996 V 0.6975 H 0.85339993 V 0.7214 Z M 0.8267 0.7214 H 0.82229996 V 0.7131 H 0.8267 V 0.7214 Z M 0.8711 0.6903 H 0.8133 V 0.682 H 0.8711 V 0.6903 Z M 0.9868 0.3181 H 0.96430004 V 0.3025 H 0.9513 V 0.3097 H 0.96000004 V 0.31800002 H 0.9465 V 0.2942 H 0.9643 V 0.2789 H 0.9691 V 0.3097 H 0.9732 V 0.2789 H 0.97800004 V 0.3097 H 0.98210007 V 0.2789 H 0.9869001 V 0.3181 Z M 0.9424 0.3181 H 0.9199 V 0.3025 H 0.9068 V 0.31780002 H 0.90199995 V 0.2942 H 0.9244999 V 0.3098 H 0.93749994 V 0.3025 H 0.9287999 V 0.2942 H 0.9422999 V 0.3181 Z M 0.9156 0.3181 H 0.9112 V 0.3098 H 0.9156 V 0.3181 Z M 0.96 0.2869 H 0.9022 V 0.2786 H 0.96 V 0.2869 Z M 0.9867 0.3375 H 0.9467 V 0.3292 H 0.9867 V 0.3375 Z M 0.9422 0.3375 H 0.9022 V 0.3292 H 0.9422 V 0.3375 Z M 0.9867 0.6708 H 0.9467 V 0.66249996 H 0.9867 V 0.6708 Z M 0.9422 0.6708 H 0.9022 V 0.66249996 H 0.9422 V 0.6708 Z M 0.9868 0.7214 H 0.96430004 V 0.7058 H 0.9513 V 0.713 H 0.96000004 V 0.7213 H 0.9465 V 0.6975 H 0.9643 V 0.6822 H 0.9691 V 0.7131 H 0.9732 V 0.6822 H 0.97800004 V 0.7131 H 0.98210007 V 0.6822 H 0.9869001 V 0.7214 Z M 0.9424 0.7214 H 0.9199 V 0.7058 H 0.9068 V 0.7211 H 0.90199995 V 0.6975 H 0.9244999 V 0.7131 H 0.93749994 V 0.7058 H 0.9287999 V 0.6975 H 0.9422999 V 0.7214 Z M 0.9156 0.7214 H 0.9112 V 0.7131 H 0.9156 V 0.7214 Z M 0.96 0.6903 H 0.9022 V 0.682 H 0.96 V 0.6903 Z"/>
</defs>
<g>
<g>
<rect x="0" y="0" width="720" height="120" class="green"/>
<rect x="0" y="120" width="720" height="120" class="white"/>
<rect x="0" y="240" width="720" height="120" class="red"/>
</g>
<use xlink:href="#takbir" transform="translate(0 0) scale(720 360) rotate(0)" class="white"/>
<use xlink:href="#e1" transform="translate(360 180) scale(45 45) rotate(0)" class="red"/>
<use xlink:href="#e2" transform="translate(360 180) scale(45 45) rotate(0)" class="red"/>
<use xlink:href="#e3" transform="translate(360 180) scale(45 45) rotate(0)" class="red"/>
<use xlink:href="#e4" transform="translate(360 180) scale(45 45) rotate(0)" class="red"/>
<use xlink:href="#e1" transform="translate(360 180) scale(-45 45) rotate(0)" class="red"/>
<use xlink:href="#e2" transform="translate(360 180) scale(-45 45) rotate(0)" class="red"/>
<use xlink:href="#e3" transform="translate(360 180) scale(-45 45) rotate(0)" class="red"/>
<use xlink:href="#e4" transform="translate(360 180) scale(-45 45) rotate(0)" class="red"/>
</g>
</svg>
