<?xml version="1.0"?>
<svg xmlns="http://www.w3.org/2000/svg" xmlns:xlink="http://www.w3.org/1999/xlink" version="1.1" width="720" height="360" viewBox="0 0 720 360">
<!-- Generated by Kreative Vexillo v1.0 -->
<style>
.black{fill:rgb(0,0,0);}
.green{fill:rgb(0,169,79);}
.yellow{fill:rgb(255,221,0);}
</style>
<g>
<rect x="0" y="0" width="720" height="360" class="green"/>
<path d="M 0 0 L 360 180 L 0 360 Z" class="black"/>
<path d="M 720 0 L 360 180 L 720 360 Z" class="black"/>
<path d="M 0 0 L 0 33.541 L 0 33.541 L 292.918 180 L 292.918 180 L 0 326.459 L 0 326.459 L 0 360 L 67.082 360 L 360 213.541 L 360 213.541 L 360 213.541 L 360 213.541 L 360 213.541 L 360 213.541 L 652.918 360 L 720 360 L 720 326.459 L 720 326.459 L 427.082 180 L 427.082 180 L 720 33.541 L 720 0 L 652.918 0 L 360 146.459 L 67.082 0 Z" class="yellow"/>
</g>
</svg>
