<?xml version="1.0"?>
<svg xmlns="http://www.w3.org/2000/svg" xmlns:xlink="http://www.w3.org/1999/xlink" version="1.1" width="720" height="360" viewBox="0 0 720 360">
<!-- Generated by Kreative Vexillo v1.0 -->
<style>
.black{fill:rgb(0,0,0);}
.red{fill:rgb(189,2,39);}
.white{fill:rgb(255,255,255);}
</style>
<defs>
<path id="e1" d="M -0.1543 0.4906 C -0.4252 0.4054 -0.5758 0.1167 -0.4906 -0.1543 S -0.1167 -0.5758 0.1543 -0.4906 S 0.5758 -0.1167 0.4906 0.1543 C 0.4815 0.1831 0.46989998 0.21110001 0.456 0.2379 C 0.4315 0.2235 0.4 0.2317 0.3856 0.25620002 C 0.3722 0.279 0.3783 0.3082 0.3996 0.32380003 C 0.336 0.4023 0.2507 0.4603 0.1543 0.4906 L 0.2606 0.2385 C 0.3213 0.09459999 0.2538 -0.0713 0.1099 -0.13209999 C -0.034 -0.1928 -0.1999 -0.1253 -0.2606 0.0186 C -0.2902 0.0889 -0.2902 0.1682 -0.2606 0.2385 L -0.1543 0.4906 Z"/>
<path id="e2" d="M 0.2057 0.1286 C 0.2057 0.2422 0.11359999 0.33429998 0.0 0.33429998 S -0.2057 0.24219999 -0.2057 0.12859999 S -0.11359999 -0.07710001 0.0 -0.07710001 S 0.2057 0.015 0.2057 0.1286 Z"/>
</defs>
<g>
<rect x="0" y="0" width="720" height="360" class="white"/>
<use xlink:href="#e1" transform="translate(360 180) scale(210 210) rotate(0)" class="black"/>
<use xlink:href="#e2" transform="translate(360 180) scale(210 210) rotate(0)" class="red"/>
</g>
</svg>
