<?xml version="1.0"?>
<svg xmlns="http://www.w3.org/2000/svg" xmlns:xlink="http://www.w3.org/1999/xlink" version="1.1" width="720" height="360" viewBox="0 0 720 360">
<!-- Generated by Kreative Vexillo v1.0 -->
<style>
.red{fill:rgb(239,65,53);}
.yellow{fill:rgb(255,221,0);}
</style>
<defs>
<path id="yurt" d="M -0.3536 -0.3536 C -0.2868 -0.3575 -0.2554 -0.2554 -0.19569999 -0.2287 C -0.19539998 -0.2285 -0.1951 -0.22839999 -0.19469999 -0.2282 C -0.20659998 -0.21810001 -0.21759999 -0.207 -0.22779998 -0.1952 C -0.22809999 -0.1954 -0.22839998 -0.1955 -0.22869998 -0.19569999 C -0.2828 -0.2278 -0.2946 -0.3182 -0.3536 -0.3536 Z M -0.1952 -0.229 C -0.19489999 -0.2288 -0.1947 -0.2286 -0.1944 -0.2284 C -0.18259999 -0.2385 -0.17 -0.2477 -0.1566 -0.2559 C -0.1569 -0.2561 -0.15709999 -0.2563 -0.1574 -0.2565 C -0.2123 -0.2921 -0.2273 -0.3979 -0.2939 -0.4045 C -0.2412 -0.3604 -0.2437 -0.2693 -0.1952 -0.229 Z M -0.1144 -0.2774 C -0.100099996 -0.28329998 -0.0852 -0.28809997 -0.0699 -0.2918 C -0.0701 -0.29209998 -0.0703 -0.2923 -0.0705 -0.2926 C -0.1116 -0.34350002 -0.0932 -0.44880003 -0.15450001 -0.4756 C -0.11800001 -0.41730002 -0.14860001 -0.3315 -0.11490001 -0.2782 C -0.1147 -0.2778 -0.1146 -0.2776 -0.1144 -0.2774 Z M -0.1564 -0.256 C -0.1432 -0.26410002 -0.1292 -0.2712 -0.11469999 -0.2772 C -0.11489999 -0.27740002 -0.11509999 -0.27760002 -0.11539999 -0.2779 C -0.1639 -0.3218 -0.1623 -0.4286 -0.227 -0.4455 C -0.1819 -0.39369997 -0.1986 -0.30409998 -0.157 -0.25669998 C -0.1568 -0.2565 -0.1566 -0.2563 -0.1564 -0.256 Z M -0.07 -0.2927 C -0.0699 -0.2924 -0.0697 -0.29209998 -0.0696 -0.2918 C -0.0546 -0.2954 -0.0392 -0.2978 -0.023400001 -0.299 C -0.0236 -0.2993 -0.0237 -0.2996 -0.0239 -0.2999 C -0.056500003 -0.3566 -0.0219 -0.4577 -0.0782 -0.49379998 C -0.0513 -0.4306 -0.0949 -0.3506 -0.07 -0.2927 Z M -0.2916 -0.0705 C -0.2879 -0.0858 -0.28309998 -0.100700006 -0.27719998 -0.1149 C -0.27749997 -0.1149 -0.2778 -0.1149 -0.27819997 -0.1149 C -0.34349996 -0.1116 -0.41789997 -0.1883 -0.47559997 -0.15450001 C -0.40699998 -0.1497 -0.35549998 -0.07460001 -0.29259998 -0.07050001 C -0.2922 -0.0705 -0.2919 -0.0705 -0.2916 -0.0705 Z M -0.2564 -0.1575 C -0.2561 -0.1574 -0.25579998 -0.1573 -0.2555 -0.1572 C -0.24729998 -0.1705 -0.23799999 -0.1831 -0.22789998 -0.195 C -0.22829999 -0.1951 -0.22859998 -0.1952 -0.22889999 -0.1953 C -0.2921 -0.2123 -0.3392 -0.3082 -0.4045 -0.2939 C -0.3408 -0.2682 -0.315 -0.1808 -0.2564 -0.1575 Z M -0.3 -0.0239 C -0.29970002 -0.0239 -0.29930001 -0.024 -0.29900002 -0.024 C -0.29780003 -0.0398 -0.29530004 -0.0552 -0.29170004 -0.070199996 C -0.29200003 -0.070099995 -0.29230005 -0.070099995 -0.29270002 -0.06999999 C -0.35670003 -0.05649999 -0.4422 -0.120699994 -0.4939 -0.07819999 C -0.4254 -0.0843 -0.3627 -0.0181 -0.3 -0.0239 Z M -0.277 -0.1152 C -0.271 -0.1297 -0.26380002 -0.1436 -0.25570002 -0.1568 C -0.256 -0.1568 -0.25630003 -0.1569 -0.2567 -0.1569 C -0.3217 -0.1639 -0.3832 -0.2513 -0.44550002 -0.22690001 C -0.3785 -0.21150002 -0.33940002 -0.12920001 -0.2779 -0.115300015 C -0.2776 -0.1153 -0.2773 -0.1153 -0.277 -0.1152 Z M 0.2774 -0.1144 C 0.28329998 -0.100099996 0.28809997 -0.0852 0.2918 -0.0699 C 0.29209998 -0.0701 0.2923 -0.0703 0.2926 -0.0705 C 0.34350002 -0.1116 0.44880003 -0.0932 0.4756 -0.15450001 C 0.41730002 -0.11800001 0.3315 -0.14860001 0.2782 -0.11490001 C 0.2778 -0.1147 0.2776 -0.1146 0.2774 -0.1144 Z M 0.1956 -0.2286 C 0.1954 -0.22829999 0.1953 -0.228 0.19510001 -0.2277 C 0.20690002 -0.2175 0.21800001 -0.2065 0.2281 -0.19459999 C 0.2283 -0.19489999 0.2284 -0.19519998 0.2286 -0.19559999 C 0.2553 -0.2553 0.35750002 -0.28669998 0.3535 -0.3535 C 0.3182 -0.2946 0.2278 -0.2828 0.1956 -0.2286 Z M -0.0233 -0.3 C -0.0232 -0.29970002 -0.0231 -0.2994 -0.023 -0.29900002 C -0.0154 -0.2996 -0.0078 -0.3 0.0 -0.3 C 0.008 -0.3 0.0159 -0.2996 0.0237 -0.29900002 C 0.0236 -0.29930001 0.023500001 -0.29970002 0.023300001 -0.3 C 0.0 -0.3611 0.05 -0.4556 0.0 -0.5 C 0.0167 -0.4333 -0.0389 -0.3611 -0.0233 -0.3 Z M 0.256 -0.1564 C 0.26410002 -0.1432 0.2712 -0.1292 0.2772 -0.11469999 C 0.27740002 -0.11489999 0.27760002 -0.11509999 0.2779 -0.11539999 C 0.32180002 -0.16389999 0.4286 -0.16229999 0.44550002 -0.22699998 C 0.3937 -0.18189998 0.30410004 -0.19859998 0.2567 -0.15699998 C 0.2565 -0.1568 0.2563 -0.1566 0.256 -0.1564 Z M 0.4938 -0.0782 C 0.43060002 -0.051299997 0.35050002 -0.0949 0.29260004 -0.07 C 0.29230005 -0.0699 0.29200003 -0.0697 0.29170004 -0.0696 C 0.29530004 -0.0546 0.29770005 -0.0392 0.29890004 -0.023400001 C 0.29920003 -0.0236 0.29950005 -0.0237 0.29990003 -0.0239 C 0.3567 -0.0565 0.4578 -0.0219 0.4938 -0.0782 Z M -0.3 0.0233 C -0.29970002 0.0232 -0.2994 0.0231 -0.29900002 0.023 C -0.2996 0.0154 -0.3 0.0078 -0.3 0.0 C -0.3 -0.008 -0.2996 -0.0159 -0.29900002 -0.0237 C -0.29930001 -0.0236 -0.29970002 -0.023500001 -0.3 -0.023300001 C -0.3611 0.0 -0.4556 -0.05 -0.5 0.0 C -0.4333 -0.0167 -0.3611 0.0389 -0.3 0.0233 Z M 0.229 -0.1952 C 0.2288 -0.19489999 0.2286 -0.1947 0.2284 -0.1944 C 0.2385 -0.18259999 0.2477 -0.17 0.2559 -0.1566 C 0.2561 -0.1569 0.2563 -0.15709999 0.2565 -0.1574 C 0.2922 -0.2122 0.398 -0.22729999 0.40460002 -0.2938 C 0.3604 -0.2412 0.2693 -0.2437 0.229 -0.1952 Z M 0.0705 -0.2916 C 0.0858 -0.2879 0.100700006 -0.28309998 0.1149 -0.27719998 C 0.1149 -0.27749997 0.1149 -0.2778 0.1149 -0.27819997 C 0.1116 -0.34349996 0.1883 -0.41789997 0.15450001 -0.47559997 C 0.1498 -0.40699998 0.07460001 -0.35549998 0.07050001 -0.29259998 C 0.0705 -0.2922 0.0705 -0.2919 0.0705 -0.2916 Z M 0.0239 -0.3 C 0.0239 -0.29970002 0.024 -0.29930001 0.024 -0.29900002 C 0.0398 -0.29780003 0.0552 -0.29530004 0.070199996 -0.29170004 C 0.070099995 -0.29200003 0.070099995 -0.29230005 0.06999999 -0.29270002 C 0.05649999 -0.35670003 0.120699994 -0.4422 0.07819999 -0.4939 C 0.0842 -0.4254 0.0181 -0.3627 0.0239 -0.3 Z M 0.1152 -0.277 C 0.1297 -0.271 0.1436 -0.26380002 0.1568 -0.25570002 C 0.1568 -0.256 0.1569 -0.25630003 0.1569 -0.2567 C 0.1639 -0.3217 0.2513 -0.3832 0.22690001 -0.44550002 C 0.21150002 -0.3785 0.12920001 -0.33940002 0.115300015 -0.2779 C 0.1153 -0.2776 0.1153 -0.2773 0.1152 -0.277 Z M 0.1575 -0.2564 C 0.1574 -0.2561 0.1573 -0.25579998 0.1572 -0.2555 C 0.1705 -0.24729998 0.1831 -0.23799999 0.195 -0.22789998 C 0.1951 -0.22829999 0.1952 -0.22859998 0.1953 -0.22889999 C 0.2123 -0.29209998 0.3083 -0.3391 0.294 -0.4044 C 0.2682 -0.3408 0.1808 -0.315 0.1575 -0.2564 Z M -0.256 0.1564 C -0.26410002 0.1432 -0.2712 0.1292 -0.2772 0.11469999 C -0.27740002 0.11489999 -0.27760002 0.11509999 -0.2779 0.11539999 C -0.32180002 0.16389999 -0.4286 0.16229999 -0.44550002 0.22699998 C -0.3937 0.18189998 -0.30410004 0.19859998 -0.2567 0.15699998 C -0.2565 0.1568 -0.2563 0.1566 -0.256 0.1564 Z M 0.2286 0.1956 C 0.22829999 0.1954 0.228 0.1953 0.2277 0.19510001 C 0.2175 0.20690002 0.2065 0.21800001 0.19459999 0.2281 C 0.19489999 0.2283 0.19519998 0.2284 0.19559999 0.2286 C 0.2553 0.2553 0.28669998 0.35750002 0.3535 0.3535 C 0.2946 0.3182 0.2828 0.2278 0.2286 0.1956 Z M 0.2564 0.1575 C 0.2561 0.1574 0.25579998 0.1573 0.2555 0.1572 C 0.24729998 0.1705 0.23799999 0.1831 0.22789998 0.195 C 0.22829999 0.1951 0.22859998 0.1952 0.22889999 0.1953 C 0.29209998 0.2123 0.3391 0.3083 0.4044 0.294 C 0.3408 0.2682 0.315 0.1808 0.2564 0.1575 Z M 0.1952 0.229 C 0.19489999 0.2288 0.1947 0.2286 0.1944 0.2284 C 0.18259999 0.2385 0.1699 0.2477 0.1566 0.2559 C 0.1569 0.2561 0.15709999 0.2563 0.1574 0.2565 C 0.2122 0.2922 0.22729999 0.398 0.2938 0.40460002 C 0.2412 0.3604 0.2437 0.2693 0.1952 0.229 Z M 0.1564 0.256 C 0.1432 0.26410002 0.1292 0.2712 0.11469999 0.2772 C 0.11489999 0.27740002 0.11509999 0.27760002 0.11539999 0.2779 C 0.16389999 0.32180002 0.16229999 0.4286 0.22699998 0.44550002 C 0.18189998 0.3937 0.19859998 0.30410004 0.15699998 0.2567 C 0.1568 0.2565 0.1566 0.2563 0.1564 0.256 Z M 0.2916 0.0705 C 0.2879 0.0858 0.28309998 0.100700006 0.27719998 0.1149 C 0.27749997 0.1149 0.2778 0.1149 0.27819997 0.1149 C 0.34349996 0.1116 0.41789997 0.1883 0.47559997 0.15450001 C 0.40699998 0.1498 0.35549998 0.07460001 0.29259998 0.07050001 C 0.2922 0.0705 0.2919 0.0705 0.2916 0.0705 Z M 0.277 0.1152 C 0.271 0.1297 0.26380002 0.1436 0.25570002 0.1568 C 0.256 0.1568 0.25630003 0.1569 0.2567 0.1569 C 0.3217 0.1639 0.3832 0.2513 0.44550002 0.22690001 C 0.3785 0.21150002 0.33940002 0.12920001 0.2779 0.115300015 C 0.2776 0.1153 0.2773 0.1153 0.277 0.1152 Z M 0.3 0.0239 C 0.29970002 0.0239 0.29930001 0.024 0.29900002 0.024 C 0.29780003 0.0398 0.29530004 0.0552 0.29170004 0.070199996 C 0.29200003 0.070099995 0.29230005 0.070099995 0.29270002 0.06999999 C 0.35670003 0.05649999 0.4422 0.120699994 0.4939 0.07819999 C 0.4254 0.0843 0.3627 0.0181 0.3 0.0239 Z M 0.3 -0.0233 C 0.29970002 -0.0232 0.2994 -0.0231 0.29900002 -0.023 C 0.2996 -0.0154 0.3 -0.0078 0.3 0.0 C 0.3 0.008 0.2996 0.0159 0.29900002 0.0237 C 0.29930001 0.0236 0.29970002 0.023500001 0.3 0.023300001 C 0.3611 0.0 0.4556 0.05 0.5 0.0 C 0.4333 0.0167 0.3611 -0.0389 0.3 -0.0233 Z M 0.1144 0.2774 C 0.100099996 0.28329998 0.0852 0.28809997 0.0699 0.2918 C 0.0701 0.29209998 0.0703 0.2923 0.0705 0.2926 C 0.1116 0.34350002 0.0932 0.44880003 0.15450001 0.4756 C 0.11800001 0.41730002 0.14860001 0.3315 0.11490001 0.2782 C 0.1147 0.2778 0.1146 0.2776 0.1144 0.2774 Z M 0.0233 0.3 C 0.0232 0.29970002 0.0231 0.2994 0.023 0.29900002 C 0.0154 0.2996 0.0078 0.3 0.0 0.3 C -0.008 0.3 -0.0159 0.2996 -0.0237 0.29900002 C -0.0236 0.29930001 -0.023500001 0.29970002 -0.023300001 0.3 C 0.0 0.3611 -0.05 0.4556 0.0 0.5 C -0.0167 0.4333 0.0389 0.3611 0.0233 0.3 Z M -0.1575 0.2564 C -0.1574 0.2561 -0.1573 0.25579998 -0.1572 0.2555 C -0.1705 0.24729998 -0.1831 0.23799999 -0.195 0.22789998 C -0.1951 0.22829999 -0.1952 0.22859998 -0.1953 0.22889999 C -0.2123 0.29209998 -0.3083 0.3391 -0.294 0.4044 C -0.2682 0.3408 -0.1808 0.315 -0.1575 0.2564 Z M 0.07 0.2927 C 0.0699 0.2924 0.0697 0.29209998 0.0696 0.2918 C 0.0546 0.2954 0.0392 0.2978 0.023400001 0.299 C 0.0236 0.2993 0.0237 0.2996 0.0239 0.29999998 C 0.056500003 0.35669997 0.0219 0.45779997 0.0782 0.4939 C 0.0513 0.4306 0.0949 0.3506 0.07 0.2927 Z M -0.229 0.1952 C -0.2288 0.19489999 -0.2286 0.1947 -0.2284 0.1944 C -0.2385 0.18259999 -0.2477 0.1699 -0.2559 0.1566 C -0.2561 0.1569 -0.2563 0.15709999 -0.2565 0.1574 C -0.2922 0.2122 -0.398 0.22729999 -0.40460002 0.2938 C -0.3604 0.2412 -0.2693 0.2437 -0.229 0.1952 Z M -0.2774 0.1144 C -0.28329998 0.100099996 -0.28809997 0.0852 -0.2918 0.0699 C -0.29209998 0.0701 -0.2923 0.0703 -0.2926 0.0705 C -0.34350002 0.1116 -0.44880003 0.0932 -0.4756 0.15450001 C -0.41730002 0.11800001 -0.3315 0.14860001 -0.2782 0.11490001 C -0.2778 0.1147 -0.2776 0.1146 -0.2774 0.1144 Z M -0.1956 0.2286 C -0.1954 0.22829999 -0.1953 0.228 -0.19510001 0.2277 C -0.20690002 0.2175 -0.21800001 0.2065 -0.2281 0.19459999 C -0.2283 0.19489999 -0.2284 0.19519998 -0.2286 0.19559999 C -0.2553 0.2553 -0.35750002 0.28669998 -0.3535 0.3535 C -0.3182 0.2946 -0.2278 0.2828 -0.1956 0.2286 Z M -0.2927 0.07 C -0.2924 0.0699 -0.29209998 0.0697 -0.2918 0.0696 C -0.2954 0.0546 -0.2978 0.0392 -0.299 0.023400001 C -0.2993 0.0236 -0.2996 0.0237 -0.29999998 0.0239 C -0.35669997 0.056500003 -0.45779997 0.0219 -0.4939 0.0782 C -0.4306 0.0513 -0.3506 0.0949 -0.2927 0.07 Z M -0.0239 0.3 C -0.0239 0.29970002 -0.024 0.29930001 -0.024 0.29900002 C -0.0398 0.29780003 -0.0552 0.29530004 -0.070199996 0.29170004 C -0.070099995 0.29200003 -0.070099995 0.29230005 -0.06999999 0.29270002 C -0.05649999 0.35670003 -0.120699994 0.4422 -0.07819999 0.4939 C -0.0843 0.4254 -0.0181 0.3627 -0.0239 0.3 Z M -0.1152 0.277 C -0.1297 0.271 -0.1436 0.26380002 -0.1568 0.25570002 C -0.1568 0.256 -0.1569 0.25630003 -0.1569 0.2567 C -0.1639 0.3217 -0.2513 0.3832 -0.22690001 0.44550002 C -0.21150002 0.3785 -0.12920001 0.33940002 -0.115300015 0.2779 C -0.1153 0.2776 -0.1153 0.2773 -0.1152 0.277 Z M -0.0705 0.2916 C -0.0858 0.2879 -0.100700006 0.28309998 -0.1149 0.27719998 C -0.1149 0.27749997 -0.1149 0.2778 -0.1149 0.27819997 C -0.1116 0.34349996 -0.1883 0.41789997 -0.15450001 0.47559997 C -0.1497 0.40699998 -0.07460001 0.35549998 -0.07050001 0.29259998 C -0.0705 0.2922 -0.0705 0.2919 -0.0705 0.2916 Z M 0.1371 0.1923 C 0.14479999 0.18720001 0.1523 0.1817 0.1594 0.17580001 C 0.153 0.07410001 0.1062 -0.016699985 0.034900002 -0.080699995 C 0.029900003 -0.0769 0.025000002 -0.0729 0.020200003 -0.068799995 C 0.0905 -0.0033 0.135 0.0893 0.1371 0.1923 Z M 0.25 -0.0167 C 0.25 0.0132 0.2447 0.0419 0.2351 0.0684 C 0.2102 -0.0069999993 0.1646 -0.07289999 0.105000004 -0.1226 C 0.13780001 -0.1374 0.17340001 -0.14719999 0.2106 -0.1514 C 0.2355 -0.1124 0.25 -0.0663 0.25 -0.0167 Z M 0.211 0.1173 C 0.2051 0.1266 0.1986 0.1355 0.1915 0.14389999 C 0.1777 0.04779999 0.1291 -0.037100002 0.0589 -0.09750001 C 0.0646 -0.101200014 0.0704 -0.104700014 0.076299995 -0.10800001 C 0.1438 -0.0511 0.1923 0.0277 0.211 0.1173 Z M -0.1465 -0.2192 C -0.1053 -0.249 -0.0547 -0.2667 0.0 -0.2667 C 0.0547 -0.2667 0.1053 -0.2491 0.1465 -0.2192 C 0.0947 -0.2172 0.0453 -0.2058 0.0 -0.1866 C -0.0453 -0.2058 -0.0947 -0.2172 -0.1465 -0.2192 Z M 0.0298 -0.1726 C 0.072399996 -0.1902 0.1187 -0.2007 0.1672 -0.2026 C 0.171 -0.1991 0.1748 -0.1955 0.1784 -0.1919 C 0.1322 -0.1898 0.088199995 -0.1797 0.0475 -0.1629 C 0.0417 -0.1662 0.0357 -0.1695 0.0298 -0.1726 Z M 0.0242 -0.1241 C 0.03 -0.1276 0.0359 -0.1309 0.0419 -0.134 C 0.046800002 -0.1307 0.051700003 -0.1272 0.056500003 -0.1237 C 0.0505 -0.1205 0.044600002 -0.1171 0.038900003 -0.1136 C 0.0341 -0.1172 0.0292 -0.1207 0.0242 -0.1241 Z M 0.0178 -0.1492 C 0.0118 -0.1461 0.0058 -0.1428 0.0 -0.1394 C -0.0058 -0.1428 -0.0118 -0.146 -0.0178 -0.1491 C -0.012 -0.1525 -0.005999999 -0.1557 0.0 -0.1588 C 0.006 -0.1558 0.012 -0.1525 0.0178 -0.1492 Z M 0.1033 0.211 C 0.0718 0.2253 0.0369 0.2333 0.0 0.2333 C -0.0369 0.2333 -0.0718 0.2253 -0.1033 0.21090001 C -0.1034 0.2073 -0.1035 0.2036 -0.1035 0.1999 C -0.1036 0.1024 -0.064 0.014 0.0 -0.05 C 0.064 0.014000002 0.1036 0.102400005 0.1036 0.2 C 0.1036 0.2037 0.1034 0.2073 0.1033 0.211 Z M 0.0856 -0.1377 C 0.080900006 -0.1412 0.07610001 -0.1445 0.0713 -0.1478 C 0.109 -0.1636 0.1498 -0.1734 0.1925 -0.1761 C 0.1952 -0.1728 0.1979 -0.1694 0.2004 -0.16600001 C 0.16 -0.1628 0.1213 -0.153 0.0856 -0.1377 Z M -0.1371 0.1923 C -0.14479999 0.18720001 -0.1523 0.1817 -0.1594 0.17580001 C -0.153 0.07410001 -0.1062 -0.016699985 -0.034900002 -0.080699995 C -0.029900003 -0.0769 -0.025000002 -0.0729 -0.020200003 -0.068799995 C -0.0905 -0.0033 -0.135 0.0893 -0.1371 0.1923 Z M -0.211 0.1173 C -0.19229999 0.027599998 -0.14379999 -0.05110001 -0.076299995 -0.108 C -0.07039999 -0.1047 -0.0646 -0.1012 -0.058899995 -0.097500004 C -0.1292 -0.037100002 -0.1778 0.047799997 -0.1915 0.1439 C -0.1986 0.1355 -0.2051 0.1266 -0.211 0.1173 Z M 0.0 -0.1084 C 0.005 -0.1049 0.0099 -0.1012 0.0147 -0.097500004 C 0.0097 -0.0939 0.0048 -0.090100005 0.0 -0.0863 C -0.0048 -0.0902 -0.0097 -0.0939 -0.0147 -0.0975 C -0.0099 -0.1013 -0.005 -0.1049 0.0 -0.1084 Z M -0.2351 0.0685 C -0.2447 0.0419 -0.25 0.0132 -0.25 -0.0167 C -0.25 -0.066300005 -0.23550001 -0.1125 -0.2106 -0.1513 C -0.1734 -0.1472 -0.13780001 -0.1373 -0.105000004 -0.1225 C -0.1646 -0.0728 -0.2103 -0.0069 -0.2351 0.0685 Z M -0.0475 -0.1628 C -0.0881 -0.1795 -0.1322 -0.18959999 -0.1784 -0.1918 C -0.1748 -0.1955 -0.17099999 -0.1991 -0.1672 -0.2025 C -0.1187 -0.2006 -0.072399996 -0.1901 -0.029799998 -0.1725 C -0.0357 -0.1695 -0.0417 -0.1662 -0.0475 -0.1628 Z M -0.0565 -0.1237 C -0.0517 -0.1272 -0.046899997 -0.1307 -0.041899998 -0.134 C -0.035899997 -0.13090001 -0.029999997 -0.1275 -0.024199998 -0.1241 C -0.029199999 -0.1207 -0.034099996 -0.1172 -0.0389 -0.1136 C -0.0447 -0.1172 -0.0505 -0.1205 -0.0565 -0.1237 Z M -0.2005 -0.166 C -0.1979 -0.16939999 -0.1953 -0.17279999 -0.1925 -0.17609999 C -0.1498 -0.17339998 -0.109 -0.16359998 -0.07129999 -0.14779998 C -0.07609999 -0.14449999 -0.08089999 -0.14119998 -0.08559999 -0.13769999 C -0.1213 -0.153 -0.16 -0.1628 -0.2005 -0.166 Z"/>
</defs>
<g>
<rect x="0" y="0" width="720" height="360" class="red"/>
<use xlink:href="#yurt" transform="translate(360 180) scale(216 216) rotate(0)" class="yellow"/>
</g>
</svg>
