<?xml version="1.0"?>
<svg xmlns="http://www.w3.org/2000/svg" xmlns:xlink="http://www.w3.org/1999/xlink" version="1.1" width="720" height="360" viewBox="0 0 720 360">
<!-- Generated by Kreative Vexillo v1.0 -->
<style>
.black{fill:rgb(0,0,0);}
.green{fill:rgb(0,169,79);}
.red{fill:rgb(239,65,53);}
.white{fill:rgb(255,255,255);}
.yellow{fill:rgb(255,221,0);}
</style>
<defs>
<path id="star" d="M 0.0 -1.0 L 0.2245 -0.309 L 0.9511 -0.309 L 0.3633 0.118 L 0.5878 0.809 L 0.0 0.382 L -0.5878 0.809 L -0.3633 0.118 L -0.9511 -0.309 L -0.2245 -0.309 Z"/>
<clipPath id="clip0">
<rect x="0" y="0" width="720" height="360"/>
</clipPath>
</defs>
<g>
<path d="M 0 360 L 0 0 L 720 0 Z" class="green"/>
<path d="M 720 0 L 720 360 L 0 360 Z" class="red"/>
<g clip-path="url(#clip0)">
<path d="M 686.2167 -67.6317 L -33.7833 292.3683 L 33.7833 427.6317 L 753.7833 67.6317 L 686.2167 -67.6317 Z" class="yellow"/>
<path d="M 695.8691 -48.3084 L -24.1309 311.6916 L 24.1309 408.3084 L 744.1309 48.3084 L 695.8691 -48.3084 Z" class="black"/>
</g>
<use xlink:href="#star" transform="translate(230.4 244.8) scale(50.4 50.4) rotate(-26.5651)" class="white"/>
<use xlink:href="#star" transform="translate(504 108) scale(50.4 50.4) rotate(-26.5651)" class="white"/>
</g>
</svg>
