<?xml version="1.0"?>
<svg xmlns="http://www.w3.org/2000/svg" xmlns:xlink="http://www.w3.org/1999/xlink" version="1.1" width="720" height="360" viewBox="0 0 720 360">
<!-- Generated by Kreative Vexillo v1.0 -->
<style>
.green{fill:rgb(0,111,81);}
.white{fill:rgb(255,255,255);}
.yellow{fill:rgb(255,221,0);}
</style>
<defs>
<path id="lotus" d="M 0.0 -0.36 C -0.0717 -0.298 -0.1172 -0.2064 -0.1172 -0.1042 C -0.1172 -0.0347 -0.0962 0.03 -0.0602 0.0837 C -0.1044 0.0266 -0.1307 -0.0451 -0.1307 -0.1229 C -0.1307 -0.1746 -0.1191 -0.2236 -0.0983 -0.2674 C -0.1127 -0.2825 -0.1236 -0.301 -0.1297 -0.3215 C -0.1575 -0.2724 -0.1734 -0.2156 -0.1734 -0.1552 C -0.1734 -0.08 -0.1489 -0.0106 -0.1073 0.0456 C -0.1797 -0.0303 -0.2817 -0.0776 -0.3948 -0.0776 C -0.4009 -0.0776 -0.4069 -0.0775 -0.4129 -0.0772 C -0.4015 -0.0666 -0.392 -0.054 -0.3848 -0.0401 C -0.2723 -0.0399 -0.1708 0.0071 -0.0986 0.0824 C -0.1676 0.0248 -0.2563 -0.0099 -0.3531 -0.0099 C -0.4072 -0.0099 -0.4588 9.0E-4 -0.5058 0.0205 C -0.4575 0.1482 -0.3341 0.2391 -0.1896 0.2391 C -0.1802 0.2391 -0.1709 0.2386 -0.1618 0.2379 C -0.1813 0.2414 -0.2014 0.2432 -0.2219 0.2432 C -0.3131 0.2432 -0.3958 0.2071 -0.4566 0.1483 C -0.4693 0.1532 -0.4829 0.1562 -0.497 0.1571 C -0.4351 0.2271 -0.3446 0.2714 -0.2437 0.2714 C -0.148 0.2714 -0.0615 0.2315 0.0 0.1674 C 0.0615 0.2315 0.148 0.2714 0.2438 0.2714 C 0.3446 0.2714 0.4351 0.2271 0.497 0.1571 C 0.4829 0.1562 0.4693 0.1532 0.4566 0.1483 C 0.3958 0.2071 0.3131 0.2432 0.2219 0.2432 C 0.2014 0.2432 0.1813 0.2414 0.1618 0.2379 C 0.1709 0.2386 0.1802 0.2391 0.1896 0.2391 C 0.3341 0.2391 0.4575 0.1482 0.5058 0.0205 C 0.4588 9.0E-4 0.4072 -0.0099 0.3531 -0.0099 C 0.2563 -0.0099 0.1676 0.0248 0.0986 0.0824 C 0.1708 0.0071 0.2723 -0.0399 0.3848 -0.0401 C 0.392 -0.054 0.4015 -0.0666 0.4129 -0.0772 C 0.4069 -0.0775 0.4009 -0.0776 0.3948 -0.0776 C 0.2817 -0.0776 0.1797 -0.0303 0.1073 0.0456 C 0.1489 -0.0106 0.1734 -0.08 0.1734 -0.1552 C 0.1734 -0.2156 0.1575 -0.2724 0.1297 -0.3215 C 0.1236 -0.301 0.1127 -0.2825 0.0983 -0.2674 C 0.1191 -0.2236 0.1307 -0.1746 0.1307 -0.1229 C 0.1307 -0.0451 0.1044 0.0266 0.0602 0.0837 C 0.0962 0.03 0.1172 -0.0347 0.1172 -0.1042 C 0.1172 -0.2064 0.0717 -0.298 0.0 -0.36 Z M 0.0 0.2039 C -0.0607 0.2618 -0.1429 0.2974 -0.2333 0.2974 L -0.4964 0.2974 C -0.4886 0.3088 -0.4805 0.3199 -0.472 0.3307 L -0.2177 0.3307 C -0.1348 0.3307 -0.0588 0.3008 0.0 0.2512 C 0.0588 0.3008 0.1348 0.3307 0.2177 0.3307 L 0.472 0.3307 C 0.4805 0.3199 0.4886 0.3088 0.4964 0.2974 L 0.2333 0.2974 C 0.1429 0.2974 0.0607 0.2618 0.0 0.2039 Z M -0.4428 0.3651 C -0.4377 0.3708 -0.4324 0.3763 -0.427 0.3818 L 0.427 0.3818 C 0.4324 0.3763 0.4377 0.3708 0.4428 0.3651 L -0.4428 0.3651 Z M -0.3901 0.4161 C -0.3796 0.4252 -0.3687 0.4339 -0.3576 0.4422 L 0.0 0.4422 L 0.3576 0.4422 C 0.3687 0.4339 0.3796 0.4252 0.3901 0.4161 L 0.0 0.4161 L -0.3901 0.4161 Z M -0.3196 0.4682 C -0.3002 0.4804 -0.2801 0.4916 -0.2594 0.5016 L 0.0 0.5016 L 0.2594 0.5016 C 0.2801 0.4916 0.3002 0.4804 0.3196 0.4682 L 0.0 0.4682 L -0.3196 0.4682 Z M -0.2213 0.5182 C -0.1528 0.5454 -0.0781 0.5604 0.0 0.5604 C 0.0781 0.5604 0.1528 0.5454 0.2213 0.5182 L 0.0 0.5182 L -0.2213 0.5182 Z"/>
<path id="stars" d="M 0.0 -0.6229 L -0.0246 -0.547 L -0.1045 -0.547 L -0.0399 -0.5 L -0.0646 -0.4241 L 0.0 -0.471 L 0.0646 -0.4241 L 0.0399 -0.5 L 0.1045 -0.547 L 0.0246 -0.547 L 0.0 -0.6229 Z M -0.3152 -0.4897 L -0.299 -0.4368 L -0.3443 -0.4052 L -0.289 -0.4042 L -0.2729 -0.3514 L -0.2549 -0.4036 L -0.1996 -0.4027 L -0.2437 -0.4359 L -0.2258 -0.4882 L -0.2711 -0.4564 L -0.3152 -0.4897 Z M 0.3152 -0.4897 L 0.2711 -0.4564 L 0.2258 -0.4882 L 0.2438 -0.4359 L 0.1996 -0.4027 L 0.2549 -0.4036 L 0.2729 -0.3514 L 0.289 -0.4042 L 0.3443 -0.4052 L 0.299 -0.4368 L 0.3152 -0.4897 Z M -0.4198 -0.3151 L -0.4432 -0.2651 L -0.498 -0.2718 L -0.4576 -0.2341 L -0.4809 -0.184 L -0.4326 -0.2108 L -0.3922 -0.1732 L -0.4027 -0.2274 L -0.3545 -0.2542 L -0.4093 -0.2609 L -0.4198 -0.3151 Z M 0.4198 -0.3151 L 0.4093 -0.2609 L 0.3545 -0.2542 L 0.4027 -0.2274 L 0.3922 -0.1732 L 0.4326 -0.2108 L 0.4809 -0.184 L 0.4576 -0.2341 L 0.498 -0.2718 L 0.4432 -0.2651 L 0.4198 -0.3151 Z"/>
</defs>
<g>
<rect x="0" y="0" width="720" height="360" class="green"/>
<use xlink:href="#stars" transform="translate(360 180) scale(180 180) rotate(0)" class="yellow"/>
<use xlink:href="#lotus" transform="translate(360 180) scale(180 180) rotate(0)" class="white"/>
</g>
</svg>
