<?xml version="1.0"?>
<svg xmlns="http://www.w3.org/2000/svg" xmlns:xlink="http://www.w3.org/1999/xlink" version="1.1" width="720" height="360" viewBox="0 0 720 360">
<!-- Generated by Kreative Vexillo v1.0 -->
<style>
.blue{fill:rgb(0,85,164);}
.green{fill:rgb(0,161,96);}
.red{fill:rgb(238,49,36);}
.white{fill:rgb(255,255,255);}
.yellow{fill:rgb(253,185,51);}
</style>
<defs>
<path id="disc" d="M 0.5 0.0 A 0.5 0.5 0.0 0 0 -0.5 0.0 A 0.5 0.5 0.0 0 0 0.5 0.0 Z"/>
<path id="star12" d="M 0.0 -1.0 L 0.155291 -0.579555 L 0.5 -0.866025 L 0.424264 -0.424264 L 0.866025 -0.5 L 0.579555 -0.155291 L 1.0 -0.0 L 0.579555 0.155291 L 0.866025 0.5 L 0.424264 0.424264 L 0.5 0.866025 L 0.155291 0.579555 L 0.0 1.0 L -0.155291 0.579555 L -0.5 0.866025 L -0.424264 0.424264 L -0.866025 0.5 L -0.579555 0.155291 L -1.0 0.0 L -0.579555 -0.155291 L -0.866025 -0.5 L -0.424264 -0.424264 L -0.5 -0.866025 L -0.155291 -0.579555 Z"/>
<clipPath id="clip0">
<rect x="0" y="0" width="720" height="360"/>
</clipPath>
</defs>
<g>
<rect x="0" y="0" width="720" height="360" class="blue"/>
<path d="M 720 0 L 720 360 L 0 360 Z" class="green"/>
<g clip-path="url(#clip0)">
<path d="M 746.8328 53.6656 L 746.8328 53.6656 L 26.8328 413.6656 L -26.8328 306.3344 L 693.1672 -53.6656 Z" class="white"/>
<path d="M 740.1246 40.2492 L 740.1246 40.2492 L 20.1246 400.2492 L -20.1246 319.7508 L 699.8754 -40.2492 Z" class="red"/>
</g>
<use xlink:href="#star12" transform="translate(160 96) scale(60 60) rotate(0)" class="yellow"/>
<use xlink:href="#disc" transform="translate(160 96) scale(72 72) rotate(0)" class="blue"/>
<use xlink:href="#disc" transform="translate(160 96) scale(60 60) rotate(0)" class="yellow"/>
</g>
</svg>
