<?xml version="1.0"?>
<svg xmlns="http://www.w3.org/2000/svg" xmlns:xlink="http://www.w3.org/1999/xlink" version="1.1" width="720" height="360" viewBox="0 0 720 360">
<!-- Generated by Kreative Vexillo v1.0 -->
<style>
.red{fill:rgb(218,18,26);}
.white{fill:rgb(255,255,255);}
</style>
<g>
<g>
<rect x="0" y="0" width="120" height="90" class="red"/>
<rect x="120" y="0" width="120" height="90" class="white"/>
<rect x="240" y="0" width="120" height="90" class="red"/>
<rect x="360" y="0" width="120" height="90" class="white"/>
<rect x="480" y="0" width="120" height="90" class="red"/>
<rect x="600" y="0" width="120" height="90" class="white"/>
</g>
<g>
<rect x="0" y="90" width="120" height="90" class="white"/>
<rect x="120" y="90" width="120" height="90" class="red"/>
<rect x="240" y="90" width="120" height="90" class="white"/>
<rect x="360" y="90" width="120" height="90" class="red"/>
<rect x="480" y="90" width="120" height="90" class="white"/>
<rect x="600" y="90" width="120" height="90" class="red"/>
</g>
<g>
<rect x="0" y="180" width="120" height="90" class="red"/>
<rect x="120" y="180" width="120" height="90" class="white"/>
<rect x="240" y="180" width="120" height="90" class="red"/>
<rect x="360" y="180" width="120" height="90" class="white"/>
<rect x="480" y="180" width="120" height="90" class="red"/>
<rect x="600" y="180" width="120" height="90" class="white"/>
</g>
<g>
<rect x="0" y="270" width="120" height="90" class="white"/>
<rect x="120" y="270" width="120" height="90" class="red"/>
<rect x="240" y="270" width="120" height="90" class="white"/>
<rect x="360" y="270" width="120" height="90" class="red"/>
<rect x="480" y="270" width="120" height="90" class="white"/>
<rect x="600" y="270" width="120" height="90" class="red"/>
</g>
</g>
</svg>
