<?xml version="1.0"?>
<svg xmlns="http://www.w3.org/2000/svg" xmlns:xlink="http://www.w3.org/1999/xlink" version="1.1" width="720" height="360" viewBox="0 0 720 360">
<!-- Generated by Kreative Vexillo v1.0 -->
<style>
.gold{fill:rgb(255,215,0);}
.red{fill:rgb(204,0,0);}
</style>
<defs>
<path id="hammer" d="M 166.577 138.645 L 132.591 171.015 L 150.71701 189.14099 L 166.36801 173.385 C 196.89001 204.36499 220.61401 228.45099 250.08801 258.36298 C 258.247 266.82297 272.45602 255.31897 263.35602 245.55098 C 232.21602 215.20398 210.63402 193.30098 178.19101 161.48398 L 197.42601 142.13599 Z"/>
<path id="sickle" d="M 165.43 229.454 C 226.233 285.86 324.763 184.15 198.84299 110.440994 C 292.55 214.551 202.58798 246.467 170.01399 214.34999 L 168.374 212.995 C 167.04399 214.48799 165.711 215.97899 164.383 217.47299 C 161.859 215.09099 157.939 214.39099 156.733 218.46399 C 151.773 218.12099 148.863 220.86899 147.56601 226.01698 C 138.34201 232.12698 128.35602 237.48898 122.61701 247.08499 C 119.33701 257.235 125.82501 261.649 133.16402 260.809 C 145.19502 255.81099 148.91402 245.008 155.35202 236.09499 C 159.90402 234.64598 163.75902 232.69798 164.46602 228.555"/>
<path id="star" d="M 191.6 61.4 H 164.6 L 186.40001 77.4 L 178.20001 103.0 L 200.0 87.2 L 221.8 103.0 L 213.6 77.4 L 235.40001 61.4 H 208.40001 L 200.0 35.6 L 191.6 61.399998 Z M 200.0 51.600002 L 204.8 66.4 H 220.2 L 207.8 75.4 L 212.52 90.1 L 200.0 81.0 L 187.48 90.1 L 192.2 75.4 L 179.8 66.4 H 195.2 L 200.0 51.600002 Z"/>
</defs>
<g>
<rect x="0" y="0" width="720" height="360" class="red"/>
<use xlink:href="#star" transform="translate(0 0) scale(0.6 0.6) rotate(0)" class="gold"/>
<use xlink:href="#hammer" transform="translate(0 0) scale(0.6 0.6) rotate(0)" class="gold"/>
<use xlink:href="#sickle" transform="translate(0 0) scale(0.6 0.6) rotate(0)" class="gold"/>
</g>
</svg>
