<?xml version="1.0"?>
<svg xmlns="http://www.w3.org/2000/svg" xmlns:xlink="http://www.w3.org/1999/xlink" version="1.1" width="720" height="360" viewBox="0 0 720 360">
<!-- Generated by Kreative Vexillo v1.0 -->
<style>
.blue{fill:rgb(0,85,164);}
.red{fill:rgb(250,60,50);}
.white{fill:rgb(255,255,255);}
</style>
<g>
<rect x="0" y="0" width="720" height="360" class="red"/>
<rect x="0" y="0" width="217.8" height="145.8" class="white"/>
<g>
<rect x="0" y="0" width="71.4" height="142.2" class="blue"/>
<rect x="71.4" y="0" width="71.4" height="142.2" class="white"/>
<rect x="142.8" y="0" width="71.4" height="142.2" class="red"/>
</g>
<rect x="410.4" y="122.4" width="115.2" height="115.2" class="white"/>
<path d="M 399.6 111.6 L 399.6 126.8735 L 452.7265 180 L 399.6 233.1265 L 399.6 248.4 L 414.8735 248.4 L 468 195.2735 L 468 195.2735 L 468 195.2735 L 468 195.2735 L 468 195.2735 L 468 195.2735 L 521.1265 248.4 L 536.4 248.4 L 536.4 233.1265 L 483.2735 180 L 536.4 126.8735 L 536.4 111.6 L 521.1265 111.6 L 468 164.7265 L 468 164.7265 L 414.8735 111.6 Z" class="red"/>
</g>
</svg>
