<?xml version="1.0"?>
<svg xmlns="http://www.w3.org/2000/svg" xmlns:xlink="http://www.w3.org/1999/xlink" version="1.1" width="720" height="360" viewBox="0 0 720 360">
<!-- Generated by Kreative Vexillo v1.0 -->
<style>
.blue{fill:rgb(0,0,204);}
.red{fill:rgb(255,0,0);}
.yellow{fill:rgb(255,255,0);}
</style>
<g>
<rect x="0" y="0" width="720" height="360" class="blue"/>
<path d="M 0 0 L 0 27.8648 L 0 27.8648 L 304.2703 180 L 0 332.1352 L 0 360 L 55.7297 360 L 360 207.8648 L 360 207.8648 L 664.2703 360 L 720 360 L 720 332.1352 L 720 332.1352 L 415.7297 180 L 720 27.8648 L 720 0 L 664.2703 0 L 360 152.1352 L 55.7297 0 Z" class="yellow"/>
<g>
<rect x="0" y="155.0769" width="720" height="49.8462" class="yellow"/>
<rect x="335.0769" y="0" width="49.8462" height="360" class="yellow"/>
</g>
<path d="M 0 0 L 0 18.5766 L 0 18.5766 L 322.8469 180 L 322.8469 180 L 0 341.4234 L 0 360 L 37.1531 360 L 360 198.5766 L 360 198.5766 L 682.8469 360 L 720 360 L 720 341.4234 L 720 341.4234 L 397.1531 180 L 397.1531 180 L 720 18.5766 L 720 0 L 682.8469 0 L 360 161.4234 L 360 161.4234 L 360 161.4234 L 360 161.4234 L 360 161.4234 L 360 161.4234 L 37.1531 0 Z" class="red"/>
<g>
<rect x="0" y="163.3846" width="720" height="33.2308" class="red"/>
<rect x="343.3846" y="0" width="33.2308" height="360" class="red"/>
</g>
<ellipse cx="360" cy="180" rx="96.9231" ry="96.9231" class="yellow"/>
<ellipse cx="360" cy="180" rx="83.0769" ry="83.0769" class="red"/>
</g>
</svg>
