<?xml version="1.0"?>
<svg xmlns="http://www.w3.org/2000/svg" xmlns:xlink="http://www.w3.org/1999/xlink" version="1.1" width="720" height="360" viewBox="0 0 720 360">
<!-- Generated by Kreative Vexillo v1.0 -->
<style>
.red{fill:rgb(254,103,102);}
.white{fill:rgb(255,255,255);}
.yellow{fill:rgb(254,205,50);}
</style>
<defs>
<path id="inner" d="M 0.1892 0.1008 C 0.13780001 0.1347 0.0946 0.1779 0.0607 0.22929999 C 0.020399999 0.2258 -0.020599999 0.2258 -0.0608 0.22929999 C -0.0947 0.17789999 -0.1379 0.1347 -0.1893 0.10079999 C -0.1859 0.061499994 -0.1858 0.021699995 -0.189 -0.017600007 C -0.1432 -0.05050001 -0.1025 -0.096300006 -0.07129999 -0.15020001 C -0.04769999 -0.14780001 -0.023799993 -0.14660001 -9.999424E-5 -0.14660001 C 0.023600006 -0.14660001 0.047600005 -0.14780001 0.071100004 -0.15020001 C 0.1023 -0.09640001 0.143 -0.050500013 0.1888 -0.017600015 C 0.1857 0.0216 0.1858 0.0615 0.1892 0.1008 Z"/>
<path id="outer" d="M 0.3327 0.0388 C 0.2827 0.0317 0.23520002 0.012300001 0.19160001 -0.018799998 C 0.19640002 -0.0752 0.208 -0.1309 0.22620001 -0.18450001 C 0.22640002 -0.18490002 0.22620001 -0.18540001 0.22590001 -0.18580002 C 0.2256 -0.18610002 0.22510001 -0.18620002 0.2246 -0.18610002 C 0.1754 -0.16940002 0.1243 -0.15820003 0.07260001 -0.15280002 C 0.029300008 -0.22790003 0.004700005 -0.31680003 0.0013000071 -0.41000003 C 0.0013000071 -0.41070002 7.000071E-4 -0.41120002 1.0000705E-4 -0.41120002 S -0.001099993 -0.41070002 -0.001099993 -0.41000003 C -0.0044999933 -0.3169 -0.029199993 -0.22800003 -0.072399996 -0.15280002 C -0.1241 -0.15820003 -0.17519999 -0.16940002 -0.22439998 -0.18610002 C -0.22489998 -0.18620002 -0.22529998 -0.18610002 -0.22569999 -0.18580002 C -0.226 -0.18550001 -0.22619998 -0.18500002 -0.226 -0.18450001 C -0.2078 -0.13090001 -0.1962 -0.07520001 -0.19139999 -0.018800005 C -0.23499998 0.012299994 -0.2825 0.031699996 -0.33249998 0.038799994 C -0.3331 0.038899995 -0.33349997 0.039399993 -0.33359998 0.039999995 C -0.33359998 0.040599994 -0.33319998 0.041099995 -0.3326 0.041299995 C -0.2823 0.053399995 -0.2349 0.0738 -0.1917 0.1021 C -0.19659999 0.1574 -0.2082 0.2121 -0.226 0.2647 C -0.2262 0.2652 -0.226 0.26569998 -0.22569999 0.266 C -0.22539999 0.2663 -0.22489999 0.2665 -0.22439998 0.2663 C -0.17179999 0.24849999 -0.117099985 0.23689999 -0.06179999 0.232 C -0.033499986 0.2752 -0.013099987 0.3226 -9.999871E-4 0.3729 C -8.999871E-4 0.37350002 -3.999871E-4 0.3739 2.0001293E-4 0.3739 S 0.0013000129 0.3735 0.001400013 0.3729 C 0.013500012 0.3226 0.03390001 0.2752 0.062200014 0.23200001 C 0.117500015 0.2369 0.17220001 0.2485 0.2248 0.26630002 C 0.2253 0.26650003 0.22580001 0.26630002 0.22610001 0.26600003 C 0.22640002 0.26570004 0.2266 0.26520002 0.22640002 0.26470003 C 0.20860001 0.21210003 0.19700001 0.15740003 0.19210002 0.10210003 C 0.23530002 0.07380003 0.2827 0.05340003 0.333 0.04130003 C 0.3336 0.041200027 0.334 0.040600028 0.334 0.04000003 C 0.3337 0.0393 0.3333 0.0388 0.3327 0.0388 Z"/>
</defs>
<g>
<rect x="0" y="0" width="720" height="360" class="white"/>
<use xlink:href="#outer" transform="translate(360 180) scale(360 360) rotate(0)" class="red"/>
<use xlink:href="#inner" transform="translate(360 180) scale(360 360) rotate(0)" class="yellow"/>
</g>
</svg>
