<?xml version="1.0"?>
<svg xmlns="http://www.w3.org/2000/svg" xmlns:xlink="http://www.w3.org/1999/xlink" version="1.1" width="720" height="360" viewBox="0 0 720 360">
<!-- Generated by Kreative Vexillo v1.0 -->
<style>
.red{fill:rgb(255,0,0);}
.white{fill:rgb(255,255,255);}
</style>
<defs>
<path id="yy" d="M -0.1002 -0.4916 C -0.2354 -0.4616 -0.3496 -0.3821 -0.422 -0.2691 C -0.5815 -0.018700004 -0.48749998 0.3176 -0.21999998 0.4487 C 0.009200022 0.561 0.28430003 0.48360002 0.42220002 0.268 C 0.535 0.090100005 0.5246 -0.13589999 0.395 -0.3096 C 0.3379 -0.3856 0.2264 -0.4588 0.1289 -0.4854 C 0.0676 -0.5021 -0.0417 -0.5049 -0.1002 -0.4916 Z M 0.1275 -0.3849 C 0.2146 -0.3542 0.2905 -0.2963 0.317 -0.2398 C 0.3609 -0.14840001 0.3128 -0.029800013 0.2195 0.0015999973 C 0.15130001 0.025299998 0.09 0.012099997 0.028000012 -0.0388 C -0.065999985 -0.1162 -0.17259999 -0.13159999 -0.27569997 -0.083399996 C -0.30839998 -0.06739999 -0.36759996 -0.015699998 -0.39269996 0.020500004 C -0.40379995 0.037300006 -0.40449995 0.036600005 -0.40109995 -0.024799995 C -0.39549994 -0.12799999 -0.35719994 -0.21450001 -0.28479993 -0.28710002 C -0.22979993 -0.3422 -0.14759994 -0.3855 -0.06959993 -0.40080002 C -0.0299 -0.4086 0.0878 -0.3989 0.1275 -0.3849 Z M 0.4019 0.0253 C 0.3908 0.1955 0.2835 0.3315 0.1185 0.3873 C 0.0649 0.4054 -0.0647 0.4054 -0.1183 0.3873 C -0.20809999 0.3573 -0.2897 0.29590002 -0.3168 0.23870002 C -0.3607 0.14730002 -0.3126 0.028700024 -0.2193 -0.002699986 C -0.151 -0.026399987 -0.0897 -0.013199986 -0.027800009 0.037800014 C 0.06549999 0.114500016 0.17279999 0.1306 0.27310002 0.08310001 C 0.31280002 0.064300016 0.36290002 0.021700013 0.38310003 -0.011099987 C 0.39150003 -0.024399986 0.39980003 -0.035499986 0.40190002 -0.035499986 C 0.404 -0.0354 0.404 -0.0082 0.4019 0.0253 Z"/>
</defs>
<g>
<rect x="0" y="0" width="720" height="360" class="white"/>
<use xlink:href="#yy" transform="translate(360 180) scale(240 240) rotate(0)" class="red"/>
</g>
</svg>
