<?xml version="1.0"?>
<svg xmlns="http://www.w3.org/2000/svg" xmlns:xlink="http://www.w3.org/1999/xlink" version="1.1" width="720" height="360" viewBox="0 0 720 360">
<!-- Generated by Kreative Vexillo v1.0 -->
<style>
.black{fill:rgb(89,89,89);}
.blue{fill:rgb(123,194,224);}
.green{fill:rgb(59,176,125);}
.red{fill:rgb(207,114,128);}
.white{fill:rgb(232,232,232);}
.yellow{fill:rgb(238,222,119);}
</style>
<defs>
<clipPath id="clip0">
<path d="M 0 0 L 720 360 L 0 360 Z"/>
</clipPath>
<clipPath id="clip1">
<path d="M 0 0 L 720 0 L 720 360 Z"/>
</clipPath>
</defs>
<g>
<rect x="0" y="0" width="720" height="360" class="black"/>
<g clip-path="url(#clip0)">
<path d="M 40.2492 -80.4984 L 40.2492 -80.4984 L 760.2492 279.5016 L 679.7508 440.4984 L -40.2492 80.4984 Z" class="red"/>
<path d="M 24.1495 -48.2991 L 24.1495 -48.2991 L 744.1495 311.7009 L 695.8505 408.2991 L -24.1495 48.2991 Z" class="yellow"/>
</g>
<g clip-path="url(#clip1)">
<path d="M 40.2492 -80.4984 L 40.2492 -80.4984 L 760.2492 279.5016 L 679.7508 440.4984 L -40.2492 80.4984 Z" class="green"/>
<path d="M 24.1495 -48.2991 L 24.1495 -48.2991 L 744.1495 311.7009 L 695.8505 408.2991 L -24.1495 48.2991 Z" class="blue"/>
</g>
<path d="M 8.0498 -16.0997 L 8.0498 -16.0997 L 728.0499 343.9003 L 711.9501 376.0997 L -8.0498 16.0997 Z" class="white"/>
</g>
</svg>
