<?xml version="1.0"?>
<svg xmlns="http://www.w3.org/2000/svg" xmlns:xlink="http://www.w3.org/1999/xlink" version="1.1" width="720" height="360" viewBox="0 0 720 360">
<!-- Generated by Kreative Vexillo v1.0 -->
<style>
.blue{fill:rgb(0,73,144);}
.yellow{fill:rgb(255,213,29);}
</style>
<defs>
<path id="globe" d="M -0.1091 -0.0089 C -0.119 -0.0044 -0.1284 0.0 -0.1372 0.0042000003 C -0.1334 0.019000001 -0.1283 0.033600003 -0.121999994 0.0475 C -0.11669999 0.0596 -0.1103 0.0715 -0.103099994 0.0829 C -0.094399996 0.0783 -0.08539999 0.073800005 -0.0756 0.0691 C -0.067999996 0.0654 -0.059599996 0.061499998 -0.049799997 0.057099998 C -0.055099998 0.0468 -0.0602 0.0361 -0.065299995 0.024299998 C -0.0721 0.008499999 -0.0777 -0.006400002 -0.082499996 -0.020900004 C -0.093399994 -0.016100004 -0.10159999 -0.012300003 -0.108899996 -0.0089000035 M -0.0338 0.049899995 C -0.029199999 0.047999997 -0.024499997 0.045899995 -0.019699998 0.043799996 C -0.010399998 0.039799996 -0.0031999983 0.036799997 0.0037000012 0.033899996 C 0.0181 0.027699996 0.0303 0.022699997 0.042000003 0.017799996 C 0.0375 0.005699996 0.0329 -0.005300004 0.028200004 -0.016200006 C 0.022600004 -0.029500006 0.016000004 -0.043300007 0.008400004 -0.058500007 L 0.0077000046 -0.05970001 C -0.0057999957 -0.05420001 -0.018299997 -0.04900001 -0.030199997 -0.04410001 L -0.0347 -0.04220001 C -0.044699997 -0.03790001 -0.0552 -0.03320001 -0.0669 -0.02800001 C -0.061300002 -0.01250001 -0.0553 0.00259999 -0.0489 0.016999992 C -0.044600002 0.027299993 -0.0397 0.03799999 -0.0338 0.049899995 M 0.1142 -0.009500004 C 0.1109 -0.022800004 0.106400006 -0.036000006 0.101 -0.048900004 C 0.095400006 -0.062400006 0.0885 -0.0757 0.08050001 -0.08840001 C 0.070700005 -0.0847 0.061000004 -0.08100001 0.049600005 -0.076400004 C 0.041000005 -0.072900005 0.032500006 -0.0696 0.023800004 -0.0661 C 0.030900005 -0.053000003 0.037600003 -0.039 0.044600002 -0.023200002 C 0.049700003 -0.011400001 0.0542 1.999978E-4 0.058100004 0.011399999 C 0.067 0.0077999993 0.075600006 0.0044999993 0.083900005 0.0012999997 C 0.094500005 -0.0026000002 0.10440001 -0.0062 0.1142 -0.009400001 M 0.1275 -0.013800001 C 0.1325 -0.015400001 0.1391 -0.0175 0.146 -0.0193 C 0.1499 -0.020200001 0.1533 -0.021100001 0.1569 -0.0218 C 0.1578 -0.022 0.1584 -0.022 0.1594 -0.0222 C 0.15720001 -0.0378 0.1531 -0.053 0.1468 -0.0674 C 0.1413 -0.0801 0.1344 -0.092 0.1261 -0.1029 L 0.1246 -0.102699995 C 0.123 -0.10249999 0.1213 -0.10209999 0.1199 -0.101799995 C 0.11660001 -0.100999996 0.1132 -0.09989999 0.109900005 -0.098799996 C 0.105000004 -0.09729999 0.0996 -0.0954 0.09380001 -0.0933 C 0.10180001 -0.0813 0.10890001 -0.0682 0.11460001 -0.0546 C 0.12010001 -0.0414 0.12440001 -0.0277 0.12740001 -0.013799999 M -0.1435 0.10780001 L -0.1426 0.10690001 C -0.1394 0.10430001 -0.1362 0.10220001 -0.1333 0.100200005 C -0.12730001 0.09640001 -0.12120001 0.092800006 -0.11540001 0.089600004 C -0.12320001 0.078200005 -0.12990001 0.0661 -0.13550001 0.053600006 C -0.14160001 0.039600007 -0.14640002 0.025100006 -0.14970002 0.010500006 C -0.15420002 0.012700006 -0.16050002 0.015900007 -0.16660002 0.019400006 C -0.16920002 0.020800006 -0.17250001 0.022800006 -0.17540002 0.024800006 C -0.17650002 0.025600007 -0.17760003 0.026400005 -0.17840002 0.027300006 L -0.17910002 0.027900007 C -0.17690003 0.041800007 -0.17290002 0.05550001 -0.16720003 0.06850001 C -0.16110003 0.08250001 -0.15310003 0.09580001 -0.14350003 0.10780001 M -0.16850004 -0.064299986 C -0.17880003 -0.039099984 -0.18310003 -0.011499986 -0.18060003 0.015400015 C -0.17810003 0.013500014 -0.17540003 0.011600015 -0.17250003 0.009700015 C -0.16710003 0.0063000154 -0.16110003 0.002700015 -0.15360004 -0.0014999844 L -0.15220004 -0.0021999844 C -0.15230004 -0.0029999844 -0.15250005 -0.0038999845 -0.15260005 -0.0046999846 L -0.15260005 -0.0053999843 C -0.15590005 -0.026999984 -0.15580004 -0.047599982 -0.15240005 -0.06679998 C -0.15180005 -0.06989998 -0.15130004 -0.07279998 -0.15060005 -0.07559998 C -0.15670004 -0.07209998 -0.16170004 -0.06899998 -0.16640005 -0.06579998 Z M -0.09970003 -0.10179999 C -0.10580003 -0.09889999 -0.11190003 -0.09609999 -0.11860003 -0.09269999 C -0.12550004 -0.08919999 -0.13220003 -0.08579999 -0.13890004 -0.08209999 C -0.14040004 -0.07639999 -0.14160004 -0.07079999 -0.14240004 -0.06529999 C -0.14480004 -0.047699988 -0.14410004 -0.028599989 -0.14010005 -0.008599989 C -0.13230005 -0.01269999 -0.124100044 -0.01679999 -0.114900045 -0.02139999 C -0.10530005 -0.02579999 -0.09620005 -0.03009999 -0.086800046 -0.034299992 C -0.09010005 -0.045399994 -0.09280004 -0.055999994 -0.09500004 -0.06699999 C -0.09700004 -0.077499986 -0.09890004 -0.08909999 -0.09980004 -0.10179999 M -0.057800043 -0.12079999 L -0.06630004 -0.117099985 C -0.07230004 -0.114499986 -0.079200044 -0.11149999 -0.08790004 -0.10749999 C -0.08650004 -0.09649999 -0.084100045 -0.084499985 -0.08030004 -0.07049999 C -0.07800004 -0.062199987 -0.07530004 -0.053199984 -0.07140004 -0.041199986 C -0.06780004 -0.042799987 -0.06410004 -0.044399984 -0.06040004 -0.045999985 L -0.059000038 -0.046699986 C -0.05160004 -0.049899984 -0.043800037 -0.053199984 -0.035600036 -0.056699984 C -0.023500036 -0.061899982 -0.011100037 -0.06699999 0.0011999644 -0.07209998 C -0.0034000357 -0.080599986 -0.008400036 -0.089399986 -0.014300035 -0.098999985 C -0.019200034 -0.10679998 -0.026800036 -0.11849999 -0.036100037 -0.12979999 C -0.044000037 -0.1265 -0.051300038 -0.123399995 -0.05780004 -0.12079999 M -0.0041000396 -0.1423 C -0.01050004 -0.14 -0.01730004 -0.1373 -0.02370004 -0.1348 C -0.01640004 -0.127 -0.00920004 -0.118 -0.00170004 -0.1073 C 0.00449996 -0.0985 0.01069996 -0.0888 0.01679996 -0.0783 C 0.02509996 -0.0817 0.034299962 -0.0852 0.04449996 -0.0891 C 0.05469996 -0.0929 0.06399996 -0.096200004 0.07319996 -0.099300005 L 0.072999954 -0.099700004 C 0.060799956 -0.11670001 0.047299955 -0.1305 0.032699954 -0.1409 C 0.028099954 -0.1441 0.023199953 -0.1473 0.018099952 -0.1499 C 0.010999952 -0.14760001 0.0037999526 -0.14500001 -0.004000047 -0.1421 M 0.05079995 -0.15910001 L 0.04829995 -0.15850002 C 0.04309995 -0.15740001 0.037399948 -0.15590002 0.03089995 -0.15390001 C 0.03329995 -0.15250002 0.03579995 -0.15110001 0.03849995 -0.14930001 C 0.05479995 -0.1386 0.06989995 -0.124400005 0.08339995 -0.10740001 C 0.08409995 -0.10650001 0.084899954 -0.105500005 0.08559995 -0.104600005 L 0.08629995 -0.103700005 C 0.09369995 -0.106000006 0.100599945 -0.108100004 0.10669995 -0.1097 C 0.11089995 -0.1108 0.114399955 -0.111600004 0.11759995 -0.1122 L 0.11819995 -0.1123 H 0.118399955 C 0.10009995 -0.1331 0.07669996 -0.1494 0.05079996 -0.1593 M 0.03459996 -0.1646 C 0.01749996 -0.1693 -3.000386E-4 -0.1712 -0.01820004 -0.1704 C -0.00610004 -0.16919999 0.0063999593 -0.16579999 0.018599961 -0.16029999 C 0.02429996 -0.16199999 0.02959996 -0.1633 0.03469996 -0.16459998 M -0.058900036 -0.16049999 C -0.057200037 -0.16 -0.055400036 -0.15929998 -0.053800035 -0.15849999 C -0.045500036 -0.15459998 -0.038400035 -0.14879999 -0.033200033 -0.14419998 C -0.032700032 -0.14379998 -0.032200035 -0.14339998 -0.03180003 -0.14289998 C -0.023100032 -0.14629997 -0.015000032 -0.14929998 -0.007400032 -0.15189998 C -0.0030000322 -0.15329997 0.0010999683 -0.15479998 0.0048999675 -0.15599997 C -0.0035000322 -0.15929997 -0.011800032 -0.16149998 -0.020100033 -0.16249998 C -0.032500032 -0.16429998 -0.04580003 -0.16359998 -0.05900003 -0.16039997 M -0.07210003 -0.15529998 C -0.07390003 -0.15529998 -0.07570003 -0.15499997 -0.07740003 -0.15439998 C -0.08240003 -0.15159997 -0.08610003 -0.14599998 -0.087800026 -0.13769998 C -0.08880003 -0.13219997 -0.08920003 -0.12609997 -0.08880003 -0.118699975 C -0.08180003 -0.12199998 -0.07440003 -0.12529998 -0.066200025 -0.12889998 C -0.057700023 -0.13249998 -0.050200023 -0.13569997 -0.043400027 -0.13829997 C -0.048300028 -0.14349997 -0.053100027 -0.14759997 -0.057900026 -0.15059997 C -0.061400026 -0.15269998 -0.066600025 -0.15529998 -0.07210003 -0.15529998 M -0.12190003 -0.11849998 C -0.12680003 -0.111699976 -0.13090003 -0.10409998 -0.13430002 -0.09579998 C -0.13100003 -0.09759998 -0.12740003 -0.099499986 -0.12320002 -0.101699986 C -0.11530002 -0.10579999 -0.10780002 -0.109599985 -0.100100026 -0.11329999 V -0.11519999 C -0.09980003 -0.12519999 -0.09850003 -0.13309999 -0.09630003 -0.13999999 C -0.09560003 -0.14179999 -0.09490003 -0.14349999 -0.09430003 -0.14489998 C -0.10520003 -0.13759997 -0.114800036 -0.12849998 -0.12190003 -0.11849998 M -0.14670002 -0.08879998 C -0.14210002 -0.10179998 -0.13590002 -0.11339998 -0.12820002 -0.123199984 C -0.14150003 -0.110499986 -0.15260002 -0.095899984 -0.16120002 -0.079599984 C -0.15680002 -0.08259998 -0.15210001 -0.08549999 -0.14660002 -0.08879998 M -0.060400024 0.16090001 C -0.056400023 0.15870002 -0.052300025 0.15640001 -0.047600023 0.15400001 C -0.051000025 0.15200001 -0.054600023 0.14990002 -0.058000024 0.14760001 C -0.07430002 0.1367 -0.089500025 0.122700006 -0.103100024 0.106000006 C -0.10430002 0.1045 -0.10550003 0.10300001 -0.106700025 0.101500005 L -0.10790002 0.099800006 L -0.108400024 0.100200005 C -0.113300025 0.10260001 -0.12040003 0.1062 -0.12720002 0.1101 C -0.13020003 0.1118 -0.13330002 0.1135 -0.13600002 0.115600005 L -0.13660002 0.1159 C -0.11680002 0.1376 -0.09170002 0.1539 -0.063800015 0.1631 Z M -0.019600023 0.14020002 L -0.018200023 0.13960002 C -0.011200023 0.13620003 -0.005700023 0.13380003 -6.000232E-4 0.13140002 C -0.0081000235 0.12280002 -0.014300023 0.11460002 -0.018800024 0.108300015 C -0.027300024 0.09650002 -0.035100024 0.08380002 -0.04310002 0.06940001 C -0.05320002 0.074000016 -0.06180002 0.07800001 -0.06960002 0.08160001 C -0.078900024 0.08580001 -0.08740002 0.08980001 -0.095700026 0.09380001 L -0.095700026 0.09390001 C -0.09540003 0.09420001 -0.09510002 0.09460001 -0.094800025 0.09510001 C -0.09420002 0.09610001 -0.093500026 0.09690001 -0.09280003 0.09790001 C -0.08040003 0.11470001 -0.06670003 0.12860002 -0.05210003 0.13910002 C -0.04750003 0.14250001 -0.04240003 0.14580001 -0.03710003 0.14870001 C -0.030700028 0.14550002 -0.024500027 0.14250001 -0.019600028 0.14010002 M 0.011499971 0.12580001 C 0.020799972 0.12160002 0.030099971 0.117500015 0.038899973 0.11370002 C 0.046899974 0.11020002 0.055799972 0.106500015 0.066299975 0.102100015 C 0.064499974 0.090700015 0.061799973 0.08020002 0.059499975 0.07140002 C 0.055299975 0.056200016 0.051099975 0.043000016 0.046799976 0.030900016 C 0.035199977 0.035700016 0.022899976 0.04070002 0.009099975 0.046500016 L 0.0045999754 0.048500016 C -0.0070000244 0.053500015 -0.017500024 0.058200017 -0.027500024 0.062500015 C -0.020800024 0.07540002 -0.013700024 0.088100016 -0.0064000245 0.10000002 C -2.0002434E-4 0.110100016 0.0055999756 0.11850002 0.011399975 0.12580001 M 0.078699976 0.096900016 C 0.08449998 0.09450001 0.09059998 0.092000015 0.096699975 0.08970001 C 0.104099974 0.086700015 0.11059997 0.08430001 0.11669998 0.08200002 C 0.11819998 0.07590002 0.11929998 0.070000015 0.12009998 0.06440002 C 0.12239998 0.046600018 0.12159998 0.027100015 0.11789998 0.0066000186 C 0.11759998 0.0054000188 0.117299974 0.0042000185 0.11709998 0.0030000187 V 0.0029000186 C 0.109499976 0.0058000186 0.10179998 0.008800019 0.09389998 0.012000019 L 0.08889998 0.013900019 C 0.08009998 0.017300019 0.07109998 0.020900019 0.06269997 0.02430002 C 0.067599975 0.03940002 0.07149997 0.05360002 0.074299976 0.06770002 C 0.076499976 0.07850002 0.07789998 0.08790002 0.078699976 0.09680002 M 0.13909999 0.08360002 C 0.13579999 0.08490002 0.13269998 0.08610002 0.12949999 0.08750002 C 0.12789999 0.08810002 0.12609999 0.08880002 0.12439999 0.08950002 C 0.12019999 0.10200002 0.11439999 0.11320002 0.10749999 0.12290002 C 0.10619999 0.12470002 0.104699984 0.12660001 0.10309999 0.12860002 C 0.117499985 0.115800016 0.12959999 0.100800015 0.13919999 0.083700016 M 0.10099999 0.118400015 C 0.10589999 0.11120001 0.109999985 0.10310002 0.11319999 0.09400001 C 0.109099984 0.09570001 0.10489999 0.09740001 0.10059999 0.09920001 C 0.09409999 0.10200001 0.08689999 0.10490001 0.07949999 0.10810001 C 0.07959999 0.111300014 0.07969999 0.11390001 0.07959999 0.116200015 C 0.07939999 0.12300002 0.07869999 0.13220002 0.07599999 0.14100002 C 0.07529999 0.14280002 0.07459999 0.14450002 0.07399999 0.14580002 C 0.08479999 0.13820003 0.09419999 0.12890002 0.100999996 0.11840002 M 0.051599994 0.15630002 C 0.053499993 0.15630002 0.055399995 0.15600002 0.057099994 0.15540002 C 0.063899994 0.15170002 0.0663 0.14330003 0.06719999 0.13870002 C 0.06849999 0.13220002 0.06869999 0.12500003 0.06799999 0.11650002 C 0.06789999 0.11560002 0.067799985 0.11470002 0.06769999 0.11390002 C 0.06759999 0.11370002 0.06759999 0.11340002 0.06759999 0.11310002 C 0.059999987 0.11640002 0.05149999 0.12000002 0.043099992 0.12370002 C 0.040699992 0.124700025 0.03819999 0.12580003 0.03579999 0.12680002 L 0.032799993 0.12810002 C 0.029299993 0.12960002 0.025799993 0.13110003 0.022299994 0.13270003 L 0.018599994 0.13420002 C 0.019399995 0.13510002 0.020299995 0.13600002 0.020999994 0.13690002 C 0.026999995 0.14350003 0.032199994 0.14820002 0.037699994 0.15160002 C 0.041199993 0.15370002 0.044299994 0.15500002 0.047399994 0.15570001 C 0.048799995 0.15610002 0.050399993 0.15630001 0.051799994 0.15630001 M 0.016699992 0.16350001 C 0.023899991 0.16350001 0.031099992 0.16280001 0.03819999 0.1613 C 0.03679999 0.16080001 0.035199992 0.1602 0.03359999 0.1594 C 0.027099991 0.15630001 0.020499991 0.1518 0.012899991 0.1453 C 0.011099991 0.1436 0.009199991 0.1418 0.007099991 0.1397 C 9.999913E-4 0.1424 -0.004900009 0.145 -0.010400008 0.14739999 L -0.013700008 0.14889999 C -0.017900009 0.15079999 -0.02190001 0.15249999 -0.025700008 0.15429999 C -0.017100008 0.15799999 -0.008300008 0.1607 3.9999187E-4 0.16209999 C 0.005599992 0.16299999 0.011199992 0.16349998 0.016699992 0.16349998 M -8.0000795E-4 0.16989999 C -0.012700008 0.16839999 -0.024800008 0.16489999 -0.03670001 0.15929998 C -0.03750001 0.15969999 -0.03820001 0.15999998 -0.03890001 0.16039999 C -0.04000001 0.1608 -0.04100001 0.16129999 -0.04200001 0.16189998 C -0.04570001 0.16359998 -0.048700012 0.16499998 -0.05140001 0.16629998 C -0.03230001 0.17109999 -0.012400009 0.17259999 0.0071999915 0.17059998 C 0.0045999913 0.17049998 0.0018999917 0.17029998 -7.000081E-4 0.16989999 M 0.14529999 0.07239999 C 0.15749998 0.04599999 0.16289999 0.017099988 0.16079998 -0.01160001 C 0.16059998 -0.01150001 0.16029999 -0.01150001 0.15999998 -0.01140001 L 0.15959997 -0.01140001 C 0.15609998 -0.01050001 0.15259998 -0.00930001 0.14959997 -0.00840001 C 0.14259997 -0.00620001 0.13589998 -0.00370001 0.13009997 -0.0016000099 L 0.13029997 -8.000099E-4 C 0.13059998 8.9999015E-4 0.13089997 0.0027999901 0.13119997 0.0045999903 C 0.13409998 0.02589999 0.13389997 0.04659999 0.13069998 0.06589999 C 0.13019998 0.06949999 0.12929998 0.07349999 0.12819998 0.077999994 C 0.13309997 0.076299995 0.13729998 0.074899994 0.14149998 0.07349999 Z"/>
<path id="pins" d="M 0.0727 0.1833 C 0.0725 0.1826 0.071600005 0.1825 0.071 0.18270001 L 0.0679 0.1841 C 0.067200005 0.1843 0.0669 0.1851 0.067200005 0.1857 L 0.0987 0.2798 L 0.1449 0.3661 C 0.1452 0.3668 0.146 0.3671 0.1466 0.3668 C 0.1477 0.36630002 0.1487 0.36580002 0.14979999 0.36540002 C 0.14979999 0.36530003 0.14989999 0.36530003 0.14989999 0.36530003 C 0.15049998 0.36510003 0.15079999 0.36440003 0.15059999 0.36370003 L 0.11939999 0.27060002 Z M -0.0929 -0.18319999 C -0.0926 -0.18259999 -0.091800004 -0.18239999 -0.0912 -0.18259999 C -0.090100005 -0.18319999 -0.089 -0.18349999 -0.088 -0.18399999 C -0.0874 -0.18429999 -0.087 -0.18499999 -0.0872 -0.18569998 L -0.1184 -0.27879998 L -0.16510001 -0.36609998 C -0.16540001 -0.3667 -0.16610001 -0.3669 -0.1668 -0.36659998 L -0.1699 -0.36529997 C -0.1706 -0.36499998 -0.1708 -0.36429998 -0.1706 -0.36359996 L -0.1392 -0.26959997 Z M 0.10030001 0.1682 C 0.09990001 0.1676 0.09900001 0.1675 0.09860001 0.1679 L 0.09570001 0.1696 C 0.09520001 0.17 0.09490001 0.1707 0.09530001 0.1714 L 0.14110002 0.2594 L 0.20030002 0.3375 C 0.20070003 0.33810002 0.20150003 0.3382 0.20210002 0.3378 C 0.20300002 0.3372 0.20400003 0.3366 0.20500003 0.3359 L 0.20510003 0.3359 C 0.20570002 0.3355 0.20590003 0.3348 0.20560002 0.3342 L 0.16020003 0.2471 Z M -0.17969999 -0.2461 L -0.120599985 -0.16799998 C -0.120199986 -0.16739999 -0.11939999 -0.16729999 -0.118799984 -0.16769998 C -0.11779998 -0.16829997 -0.11689998 -0.16899998 -0.11589999 -0.16949998 C -0.11519999 -0.16999997 -0.11509999 -0.17069998 -0.11539999 -0.17129998 L -0.1607 -0.25839996 L -0.22049999 -0.33729997 C -0.2208 -0.33789998 -0.2216 -0.33799997 -0.22219999 -0.33759996 L -0.225 -0.33589995 C -0.22559999 -0.33559996 -0.2258 -0.33479995 -0.22559999 -0.33409995 Z M 0.12530002 0.1488 C 0.12470002 0.1483 0.12400002 0.1483 0.12350002 0.1488 L 0.12100002 0.151 C 0.12050002 0.15149999 0.12040002 0.1522 0.12080002 0.1528 L 0.17980002 0.2326 L 0.25050002 0.30040002 C 0.25100002 0.3009 0.25180003 0.3009 0.25230002 0.30040002 C 0.25310004 0.2996 0.25400004 0.29880002 0.25490004 0.29810002 H 0.25490004 C 0.25550005 0.29760003 0.25550005 0.29690003 0.25510004 0.29630002 L 0.19680004 0.21730003 Z M -0.14539999 -0.14870001 C -0.1449 -0.14810002 -0.14409998 -0.14810002 -0.14359999 -0.14860001 C -0.14279999 -0.14940001 -0.14189999 -0.15030001 -0.14099999 -0.1509 V -0.1509 C -0.1405 -0.15130001 -0.14039999 -0.15220001 -0.14079998 -0.1527 L -0.19919999 -0.2317 L -0.2705 -0.3002 C -0.2711 -0.30069998 -0.2718 -0.30069998 -0.2723 -0.30029997 L -0.2748 -0.29809996 C -0.2753 -0.29759997 -0.2754 -0.29679996 -0.275 -0.29619998 L -0.216 -0.21649998 Z M 0.22820002 0.18239997 L 0.14690003 0.12589997 C 0.14640003 0.12539998 0.14560002 0.12549996 0.14520003 0.12609997 L 0.14300004 0.12859997 C 0.14250004 0.12919997 0.14260003 0.12989998 0.14310004 0.13039997 L 0.21380004 0.19989997 L 0.29420003 0.25579998 C 0.29490003 0.25629997 0.29570004 0.25609997 0.29610002 0.2555 C 0.29680002 0.2546 0.2975 0.2537 0.2982 0.25289997 L 0.2982 0.2528 C 0.2987 0.2523 0.29860002 0.25149998 0.29810002 0.251 Z M -0.24739999 -0.18160002 L -0.167 -0.12570003 C -0.1664 -0.12520003 -0.1656 -0.12540002 -0.1651 -0.12590003 C -0.1644 -0.12680003 -0.1637 -0.12770003 -0.1629 -0.12850003 H -0.1629 C -0.1624 -0.12910002 -0.1626 -0.12980004 -0.163 -0.13040003 L -0.23300001 -0.19910003 L -0.3142 -0.25570002 C -0.31480002 -0.25610003 -0.31550002 -0.256 -0.316 -0.25540003 L -0.31820002 -0.25290003 C -0.31860003 -0.25240004 -0.31860003 -0.25150004 -0.31810004 -0.25110003 Z M 0.25380003 0.14279999 L 0.16480003 0.09969999 C 0.16410004 0.09929999 0.16340004 0.09959999 0.16310003 0.10019999 L 0.16140004 0.10309999 C 0.16100003 0.10369999 0.16120003 0.10439999 0.16180004 0.104799986 L 0.24250004 0.1625 L 0.33070004 0.20519999 C 0.33140004 0.2056 0.33210003 0.20539999 0.33250004 0.20459999 C 0.33300003 0.20369999 0.33360004 0.20269999 0.33420005 0.20169999 C 0.33430004 0.20169999 0.33430004 0.20169999 0.33430004 0.20169999 C 0.33460003 0.20109999 0.33450004 0.2003 0.33390003 0.19989999 Z M -0.2729 -0.14230002 L -0.18479998 -0.099600025 C -0.18409999 -0.099200025 -0.18329999 -0.09950002 -0.18299998 -0.100100026 C -0.18249999 -0.10110003 -0.18179998 -0.102200024 -0.18119998 -0.10300002 L -0.18109998 -0.103100024 C -0.18079998 -0.10380002 -0.18089998 -0.104500026 -0.18149999 -0.104900025 L -0.26139998 -0.16200003 L -0.35059997 -0.20510003 C -0.35119998 -0.20540003 -0.35189998 -0.20520003 -0.3523 -0.20460004 L -0.3541 -0.20160003 C -0.35439998 -0.20100003 -0.3543 -0.20020004 -0.35369998 -0.19980003 Z M -0.29189998 -0.09940003 L -0.19819999 -0.071000025 C -0.19739999 -0.07070003 -0.19669999 -0.07110003 -0.19649999 -0.071900025 C -0.19609998 -0.07290003 -0.19579999 -0.07400002 -0.19519998 -0.075000025 L -0.19509998 -0.07510003 C -0.19489998 -0.07570003 -0.19509998 -0.07650003 -0.19579998 -0.076800026 L -0.28359997 -0.12060003 L -0.37839997 -0.14930002 C -0.37899998 -0.14950003 -0.37969998 -0.14920002 -0.37999997 -0.14850003 L -0.38129997 -0.14540003 C -0.38159996 -0.14470004 -0.38129997 -0.14400004 -0.38059998 -0.14360003 Z M -0.304 -0.05410003 L -0.20699999 -0.04070003 C -0.20629999 -0.040600028 -0.2056 -0.04100003 -0.20549999 -0.04180003 C -0.20529999 -0.04290003 -0.20509999 -0.04410003 -0.2048 -0.04510003 C -0.2048 -0.04510003 -0.2047 -0.04520003 -0.2047 -0.04530003 C -0.20449999 -0.04590003 -0.205 -0.04660003 -0.2056 -0.04680003 L -0.2993 -0.076300025 L -0.39729998 -0.08980002 C -0.39799997 -0.090000026 -0.39869997 -0.089500025 -0.39869997 -0.08880002 L -0.39949998 -0.08550002 C -0.3997 -0.08480002 -0.39929998 -0.084100015 -0.39859998 -0.084000014 Z M -0.3089 -0.0074000284 L -0.211 -0.009400029 C -0.2103 -0.009400029 -0.20969999 -0.010000029 -0.20969999 -0.010700028 C -0.20969999 -0.011800028 -0.20959999 -0.013000028 -0.20949998 -0.014100028 V -0.014200028 C -0.20939998 -0.014900028 -0.20989999 -0.015500028 -0.21059999 -0.0156000275 L -0.30769998 -0.030100027 L -0.4067 -0.028200027 C -0.40739998 -0.028200027 -0.40789998 -0.027600026 -0.408 -0.026900027 L -0.4082 -0.023700027 C -0.4082 -0.022900026 -0.4077 -0.022300027 -0.4071 -0.022200027 Z M -0.21000001 0.022199972 C -0.20920001 0.022099972 -0.2087 0.02149997 -0.2089 0.020799972 C -0.209 0.019699972 -0.20910001 0.018499972 -0.20920001 0.017399972 V 0.017299972 C -0.20930001 0.016599972 -0.2099 0.015999973 -0.2106 0.015999973 L -0.3088 0.016899973 L -0.40620002 0.03439997 C -0.40690002 0.03459997 -0.4074 0.035099972 -0.40730003 0.03589997 L -0.40710002 0.03919997 C -0.40700004 0.03979997 -0.40640002 0.040399972 -0.40570003 0.040399972 L -0.30650002 0.039599974 Z M -0.20410001 0.05319997 C -0.20340002 0.05299997 -0.20300001 0.05229997 -0.20320001 0.05159997 C -0.20350002 0.05049997 -0.20380001 0.04939997 -0.20410001 0.048199967 C -0.20430002 0.047599968 -0.20490001 0.047099967 -0.20560001 0.04719997 L -0.3024 0.06329997 L -0.3959 0.09579997 C -0.3966 0.09599997 -0.3969 0.09669997 -0.3968 0.097399965 L -0.3959 0.10069996 C -0.3957 0.10139996 -0.3951 0.101799965 -0.3944 0.10159996 L -0.29659998 0.08519996 Z M -0.19340001 0.08289997 C -0.19270001 0.082599975 -0.19250001 0.08189997 -0.19280002 0.08109997 C -0.19330001 0.08019997 -0.19380002 0.078999974 -0.19420001 0.07799997 L -0.19420001 0.07799997 C -0.19440001 0.07739997 -0.19520001 0.07709997 -0.19590001 0.077299975 L -0.289 0.10839997 L -0.3763 0.15509997 C -0.377 0.15539998 -0.3772 0.15619998 -0.377 0.15679997 L -0.3756 0.15989996 C -0.3754 0.16049996 -0.37460002 0.16079997 -0.3739 0.16059996 L -0.2799 0.12909997 Z M 0.15799998 -0.11040002 C 0.15739998 -0.10990002 0.15729998 -0.10910002 0.15769997 -0.10850002 L 0.15949997 -0.105700016 C 0.15979998 -0.10510001 0.16059998 -0.10490002 0.16119997 -0.10510001 L 0.24919997 -0.15100001 L 0.32729998 -0.21020001 C 0.3279 -0.21060002 0.32799998 -0.21150002 0.32759997 -0.21200001 C 0.32699996 -0.21290001 0.32639998 -0.21390001 0.32569999 -0.21490002 V -0.21500002 C 0.3254 -0.21550001 0.32459998 -0.21570002 0.32399997 -0.21540003 L 0.23689997 -0.17010003 Z M -0.17820002 0.11049998 C -0.17760003 0.10999998 -0.17750002 0.10929998 -0.17780001 0.10869998 C -0.17850001 0.10779998 -0.17910002 0.106799975 -0.17960002 0.105899975 L -0.17970002 0.10579997 C -0.18000002 0.10519997 -0.18080002 0.104999974 -0.18140002 0.10529997 L -0.26850003 0.15059997 L -0.34740004 0.21039997 C -0.34800005 0.21089996 -0.34800005 0.21169998 -0.34770003 0.21229997 L -0.34590003 0.21509998 C -0.34560004 0.21569997 -0.34470004 0.21599998 -0.34420002 0.21569997 L -0.25620002 0.16989997 Z M 0.1387 -0.13530003 C 0.1382 -0.13480003 0.1382 -0.13400002 0.1387 -0.13350002 L 0.14089999 -0.13100003 C 0.1413 -0.13050003 0.14209999 -0.13030003 0.14259999 -0.13080002 L 0.22239998 -0.18980002 L 0.29029998 -0.2605 C 0.29079998 -0.261 0.29079998 -0.26180002 0.29029998 -0.2623 C 0.28949997 -0.263 0.28869998 -0.2639 0.288 -0.2648 C 0.2875 -0.26540002 0.2868 -0.2655 0.2862 -0.2651 L 0.20719999 -0.2067 Z M -0.15880002 0.13539998 C -0.15830003 0.13489999 -0.15820003 0.13409998 -0.15870002 0.13349998 C -0.15950002 0.13269998 -0.16030002 0.13179998 -0.16100001 0.13089998 H -0.16110002 C -0.16150002 0.13039999 -0.16230002 0.13029999 -0.16290002 0.13069998 L -0.24190003 0.18899998 L -0.3104 0.26049998 C -0.31100002 0.2611 -0.31100002 0.2618 -0.3105 0.26229998 L -0.3083 0.2649 C -0.3078 0.2654 -0.30699998 0.2655 -0.3065 0.2651 L -0.2268 0.2061 Z M 0.11569999 -0.1569 C 0.11519999 -0.1562 0.11529999 -0.15550001 0.115899995 -0.1551 L 0.118499994 -0.15290001 C 0.118999995 -0.1525 0.119799994 -0.1525 0.120299995 -0.15300001 L 0.1898 -0.2238 L 0.24579999 -0.3042 C 0.24629998 -0.3048 0.2461 -0.3056 0.24559999 -0.30609998 C 0.24459998 -0.3067 0.24369998 -0.30749997 0.24289998 -0.3083 V -0.3083 C 0.24229999 -0.30859998 0.24159998 -0.30859998 0.24109998 -0.3081 L 0.1722 -0.23809999 Z M -0.13580002 0.1571 C -0.13540001 0.15650001 -0.13560002 0.15570001 -0.13600002 0.1552 C -0.13700002 0.15460001 -0.13790002 0.15380001 -0.13870002 0.1531 V 0.153 C -0.13930002 0.15259999 -0.14000003 0.15259999 -0.14050002 0.1532 L -0.20940003 0.2232 L -0.26590002 0.30449998 C -0.2664 0.3051 -0.2662 0.30589998 -0.2657 0.30629998 L -0.2631 0.3085 C -0.2626 0.3089 -0.2617 0.3089 -0.2612 0.3084 L -0.19170001 0.23770002 Z M 0.08949998 -0.17459999 C 0.08919998 -0.174 0.08949998 -0.1732 0.09009998 -0.17289999 L 0.09299998 -0.17119999 C 0.09359998 -0.17079999 0.09429998 -0.17089999 0.09479998 -0.1715 L 0.15239999 -0.2523 L 0.19509998 -0.3405 C 0.19539998 -0.3411 0.19519998 -0.3419 0.19449998 -0.3423 C 0.19349998 -0.3428 0.19249998 -0.3434 0.19149998 -0.344 C 0.19089998 -0.3445 0.19019997 -0.3443 0.18979998 -0.34370002 L 0.13279998 -0.26380002 Z M -0.109700024 0.17480002 C -0.10940003 0.17410003 -0.109700024 0.17330003 -0.11030003 0.17300002 C -0.11120003 0.17250003 -0.11230002 0.17190002 -0.113200024 0.17130002 C -0.113200024 0.17130002 -0.113300025 0.17130002 -0.113300025 0.17120002 C -0.11390003 0.17080002 -0.114600025 0.17100002 -0.115100026 0.17160003 L -0.17210002 0.2515 L -0.21530002 0.3406 C -0.21560003 0.3413 -0.21530002 0.342 -0.21470003 0.34230003 L -0.21190003 0.34400004 C -0.21120003 0.34430003 -0.21050003 0.34420004 -0.21000002 0.34370005 L -0.15250002 0.26280004 Z M 0.06169997 -0.18639998 L 0.06479997 -0.18519998 C 0.06549997 -0.18489997 0.06619997 -0.18509997 0.06659997 -0.18579997 L 0.11079997 -0.27459997 L 0.13919997 -0.36829996 C 0.13949998 -0.36909997 0.13909997 -0.36969995 0.13839997 -0.36999997 C 0.13739997 -0.37029997 0.13619998 -0.3708 0.13519998 -0.37119997 L 0.13519998 -0.37119997 C 0.13449998 -0.37139997 0.13389997 -0.37119997 0.13349998 -0.37049997 L 0.08969998 -0.28269997 L 0.061099984 -0.18799996 C 0.060899984 -0.18729997 0.061199985 -0.18669996 0.061799984 -0.18629996 M -0.081900015 0.18660004 C -0.08300002 0.18630004 -0.084100015 0.18580005 -0.08510002 0.18540004 V 0.18530004 C -0.085800014 0.18510003 -0.08650002 0.18540004 -0.08680002 0.18590003 L -0.13060002 0.27370003 L -0.15930001 0.36850002 C -0.15950002 0.36920002 -0.15920001 0.36990002 -0.15850002 0.37020004 L -0.15530002 0.37140003 C -0.15470003 0.37160003 -0.15400001 0.37140003 -0.15360002 0.37080002 L -0.10940002 0.282 L -0.081000015 0.1882 C -0.08070002 0.1876 -0.08110002 0.1868 -0.081800014 0.1865 M 0.035199985 -0.1946 C 0.035899986 -0.1944 0.036599986 -0.1948 0.036799986 -0.1955 L 0.06659999 -0.2901 L 0.07999998 -0.3871 C 0.07999998 -0.3878 0.079599984 -0.3885 0.07889998 -0.38860002 C 0.077799976 -0.38880002 0.07669998 -0.38910002 0.07549998 -0.38930002 V -0.38930002 C 0.07489998 -0.3894 0.07409998 -0.38910002 0.07399998 -0.38840002 L 0.044399977 -0.29470003 L 0.030899975 -0.19660002 C 0.030799976 -0.19590002 0.031199975 -0.19530001 0.031899974 -0.19510002 Z M -0.055100016 0.1948 H -0.055100016 C -0.055800017 0.1947 -0.056500018 0.19500001 -0.056800015 0.1957 L -0.086300015 0.2893 L -0.09970002 0.3874 C -0.09980002 0.3881 -0.099500015 0.3887 -0.09880002 0.3888 L -0.09550002 0.3896 C -0.094800025 0.3897 -0.09410002 0.3894 -0.093900025 0.3887 L -0.06410003 0.294 L -0.050700027 0.1971 C -0.050600026 0.1963 -0.05100003 0.1957 -0.051800027 0.1956 C -0.052900027 0.1954 -0.05410003 0.19510001 -0.055100027 0.1948 M 7.9997256E-4 -0.1994 L 0.0040999725 -0.19919999 C 0.0047999723 -0.19919999 0.0053999727 -0.19969998 0.0054999725 -0.2004 L 0.020199973 -0.2985 L 0.018199973 -0.3964 C 0.018199973 -0.39720002 0.017699974 -0.3978 0.016899973 -0.3978 C 0.015799973 -0.3978 0.014699973 -0.3979 0.013499973 -0.398 C 0.012699974 -0.398 0.012199974 -0.3976 0.012099974 -0.3969 L -0.0025000265 -0.2998 L -5.000264E-4 -0.2008 C -5.000264E-4 -0.2001 9.997364E-5 -0.1996 7.999736E-4 -0.1995 M -0.020600026 0.19960001 C -0.021800026 0.19960001 -0.022900026 0.19950001 -0.024000026 0.19940001 C -0.024800027 0.1993 -0.025300026 0.19980001 -0.025500026 0.20050001 L -0.040100027 0.2976 L -0.03800003 0.3965 C -0.03800003 0.3973 -0.03740003 0.3979 -0.036800027 0.3979 L -0.033500027 0.39799997 C -0.032800026 0.39809996 -0.032100026 0.39759997 -0.032000028 0.39689997 L -0.017400026 0.29879996 L -0.019400027 0.20079997 C -0.019400027 0.20009997 -0.020000027 0.19949996 -0.020700026 0.19939998 M -0.032000028 -0.20010003 C -0.031800028 -0.19940004 -0.031300027 -0.19890003 -0.030500028 -0.19900003 L -0.027200028 -0.19930004 C -0.026500028 -0.19940004 -0.026000028 -0.19990003 -0.026000028 -0.20070003 L -0.026900029 -0.29980004 L -0.04400003 -0.39630005 C -0.04410003 -0.39700004 -0.04480003 -0.39750004 -0.04550003 -0.39740005 C -0.04660003 -0.39720005 -0.04780003 -0.39710006 -0.04890003 -0.39710006 C -0.04880003 -0.39710006 -0.04890003 -0.39710006 -0.04890003 -0.39710006 C -0.04960003 -0.39700007 -0.050100032 -0.39640006 -0.050100032 -0.39580005 L -0.049300034 -0.29750004 Z M 0.012199972 0.19969997 C 0.012099972 0.19899997 0.011399972 0.19839996 0.010699972 0.19859996 C 0.009599972 0.19879997 0.008399972 0.19889997 0.0072999718 0.19889997 C 0.006599972 0.19899997 0.006099972 0.19959997 0.006099972 0.20029996 L 0.006999972 0.29839996 L 0.024399972 0.39579996 C 0.024499971 0.39649996 0.025099972 0.39699996 0.025799971 0.39679995 L 0.02919997 0.39649996 C 0.029799972 0.39649996 0.03029997 0.39589995 0.03039997 0.39509997 L 0.02939997 0.29589996 Z M -0.06300002 -0.19420004 C -0.06280002 -0.19360004 -0.062100023 -0.19320004 -0.061400022 -0.19340004 L -0.058100022 -0.19420004 C -0.057500023 -0.19430004 -0.057000022 -0.19500004 -0.057200022 -0.19560003 L -0.07350002 -0.29350004 L -0.10570002 -0.38600004 C -0.10590003 -0.38670003 -0.10650002 -0.38700002 -0.10740002 -0.38680005 C -0.108400024 -0.38650006 -0.10960002 -0.38620004 -0.110700026 -0.38600004 H -0.11080003 C -0.11140003 -0.38590005 -0.11190003 -0.38510004 -0.11180003 -0.38450003 L -0.09560003 -0.28770003 Z M 0.043099977 0.19369996 C 0.042999975 0.19299996 0.042199977 0.19259995 0.041499976 0.19279996 C 0.040499978 0.19309996 0.039299976 0.19349995 0.038199976 0.19369996 H 0.038099974 C 0.037399974 0.19389996 0.036999974 0.19459996 0.037099976 0.19519995 L 0.05329998 0.29209995 L 0.08579998 0.38559997 C 0.08599998 0.38629997 0.08669998 0.38669997 0.08729998 0.38649997 L 0.090599984 0.38569996 C 0.09119999 0.38549995 0.09179998 0.38479996 0.091599986 0.38409996 L 0.075199984 0.28629994 Z"/>
</defs>
<g>
<rect x="0" y="0" width="720" height="360" class="blue"/>
<use xlink:href="#pins" transform="translate(360 180) scale(360 360) rotate(0)" class="yellow"/>
<use xlink:href="#globe" transform="translate(360 180) scale(360 360) rotate(0)" class="yellow"/>
</g>
</svg>
