<?xml version="1.0"?>
<svg xmlns="http://www.w3.org/2000/svg" xmlns:xlink="http://www.w3.org/1999/xlink" version="1.1" width="720" height="360" viewBox="0 0 720 360">
<!-- Generated by Kreative Vexillo v1.0 -->
<style>
.black{fill:rgb(19,19,19);}
.blue{fill:rgb(0,0,191);}
.cyan{fill:rgb(0,191,191);}
.green{fill:rgb(0,191,0);}
.i{fill:rgb(0,31,77);}
.magenta{fill:rgb(191,0,191);}
.pluge{fill:rgb(29,29,29);}
.q{fill:rgb(51,0,107);}
.red{fill:rgb(191,0,0);}
.superblack{fill:rgb(9,9,9);}
.superwhite{fill:rgb(255,255,255);}
.white{fill:rgb(191,191,191);}
.yellow{fill:rgb(191,191,0);}
</style>
<g>
<rect x="0" y="0" width="720" height="360" class="black"/>
<g>
<rect x="0" y="0" width="102.8571" height="240" class="white"/>
<rect x="102.8571" y="0" width="102.8571" height="240" class="yellow"/>
<rect x="205.7143" y="0" width="102.8571" height="240" class="cyan"/>
<rect x="308.5714" y="0" width="102.8571" height="240" class="green"/>
<rect x="411.4286" y="0" width="102.8571" height="240" class="magenta"/>
<rect x="514.2857" y="0" width="102.8571" height="240" class="red"/>
<rect x="617.1429" y="0" width="102.8571" height="240" class="blue"/>
</g>
<g>
<rect x="0" y="240" width="102.8571" height="30" class="blue"/>
<rect x="102.8571" y="240" width="102.8571" height="30" class="black"/>
<rect x="205.7143" y="240" width="102.8571" height="30" class="magenta"/>
<rect x="308.5714" y="240" width="102.8571" height="30" class="black"/>
<rect x="411.4286" y="240" width="102.8571" height="30" class="cyan"/>
<rect x="514.2857" y="240" width="102.8571" height="30" class="black"/>
<rect x="617.1429" y="240" width="102.8571" height="30" class="white"/>
</g>
<g>
<rect x="0" y="270" width="128.5714" height="90" class="i"/>
<rect x="128.5714" y="270" width="128.5714" height="90" class="superwhite"/>
<rect x="257.1429" y="270" width="128.5714" height="90" class="q"/>
<rect x="385.7143" y="270" width="128.5714" height="90" class="black"/>
</g>
<g>
<rect x="514.2857" y="270" width="34.2857" height="90" class="superblack"/>
<rect x="548.5714" y="270" width="34.2857" height="90" class="black"/>
<rect x="582.8571" y="270" width="34.2857" height="90" class="pluge"/>
</g>
<g>
<rect x="0" y="150" width="720" height="60" class="black"/>
</g>
</g>
</svg>
