<?xml version="1.0"?>
<svg xmlns="http://www.w3.org/2000/svg" xmlns:xlink="http://www.w3.org/1999/xlink" version="1.1" width="720" height="360" viewBox="0 0 720 360">
<!-- Generated by Kreative Vexillo v1.0 -->
<style>
.blue{fill:rgb(0,83,255);}
.white{fill:rgb(255,255,255);}
</style>
<defs>
<path id="e" d="M 0.2857 -0.2143 L 0.5 -0.4286 L 0.4286 -0.5 L 0.2143 -0.2857 L 0.0 -0.5 L -0.2143 -0.2857 L -0.4286 -0.5 L -0.5 -0.4286 L -0.2857 -0.2143 L -0.5 0.0 L -0.2857 0.2143 L -0.5 0.4286 L -0.4286 0.5 L -0.2143 0.2857 L 0.0 0.5 L 0.2143 0.2857 L 0.4286 0.5 L 0.5 0.4286 L 0.2857 0.2143 L 0.5 0.0 L 0.2857 -0.2143 Z M 0.0 0.3571 L -0.3571 0.0 L 0.0 -0.3571 L 0.3571 0.0 L 0.0 0.3571 Z"/>
</defs>
<g>
<rect x="0" y="0" width="720" height="360" class="blue"/>
<use xlink:href="#e" transform="translate(360 180) scale(280 280) rotate(0)" class="white"/>
</g>
</svg>
