<?xml version="1.0"?>
<svg xmlns="http://www.w3.org/2000/svg" xmlns:xlink="http://www.w3.org/1999/xlink" version="1.1" width="720" height="360" viewBox="0 0 720 360">
<!-- Generated by Kreative Vexillo v1.0 -->
<style>
.black{fill:rgb(0,0,0);}
.blue{fill:rgb(0,0,255);}
.red{fill:rgb(255,0,0);}
.yellow{fill:rgb(255,255,0);}
</style>
<defs>
<path id="pi" d="M 1.0288086 0.0 V 0.152832 H 0.7851562 L 0.7641602 0.472168 C 0.760254 0.5273438 0.7578125 0.5756836 0.7578125 0.616211 C 0.7578125 0.713379 0.7695313 0.772461 0.7919922 0.79394543 C 0.8149414 0.8154298 0.84228516 0.82617205 0.8745117 0.82617205 C 0.94189453 0.82617205 0.9814453 0.7836915 0.9941406 0.69873065 H 1.03125 C 1.0087891 0.8935547 0.9311523 0.9907227 0.7988281 0.9907227 C 0.73730475 0.9907227 0.68798834 0.972168 0.6503906 0.9340821 C 0.612793 0.8964844 0.5942383 0.840332 0.5942383 0.7661133 C 0.5942383 0.71728516 0.6015625 0.6137695 0.616211 0.45556638 L 0.6445312 0.152832 H 0.421875 C 0.4072266 0.4077148 0.3896484 0.59375 0.3691406 0.7114258 C 0.3481445 0.82910156 0.3256836 0.9052735 0.3007812 0.93945307 C 0.27587888 0.9741211 0.2421874 0.99072254 0.19921869 0.99072254 C 0.1674804 0.99072254 0.14013669 0.9809569 0.11816399 0.9624022 C 0.09619129 0.9433592 0.08496089 0.9189452 0.08496089 0.8881834 C 0.08496089 0.8583982 0.10400389 0.8183592 0.14160149 0.7670896 C 0.1967773 0.6928711 0.2382812 0.6157227 0.265625 0.5356445 S 0.3134766 0.328125 0.3276367 0.152832 H 0.2563477 C 0.19873048 0.152832 0.15478519 0.1660156 0.12451179 0.1914062 C 0.09375 0.2167969 0.0649414 0.253418 0.0375977 0.3012695 H 0.0 C 0.0205078 0.2260742 0.0463867 0.1645507 0.0786133 0.11621091 S 0.144043 0.0366211 0.1777344 0.0219727 C 0.2119141 0.0073242 0.2724609 0.0 0.3588867 0.0 H 1.0288086 Z"/>
</defs>
<g>
<g>
<rect x="0" y="0" width="720" height="120" class="blue"/>
<rect x="0" y="120" width="720" height="120" class="red"/>
<rect x="0" y="240" width="720" height="120" class="black"/>
</g>
<use xlink:href="#pi" transform="translate(326.25 146.25) scale(67.5 67.5) rotate(0)" class="yellow"/>
</g>
</svg>
