<?xml version="1.0"?>
<svg xmlns="http://www.w3.org/2000/svg" xmlns:xlink="http://www.w3.org/1999/xlink" version="1.1" width="720" height="360" viewBox="0 0 720 360">
<!-- Generated by Kreative Vexillo v1.0 -->
<style>
.band1{fill:rgb(164,0,97);}
.band2{fill:rgb(183,85,146);}
.band3{fill:rgb(208,99,166);}
.band4{fill:rgb(237,237,235);}
.band5{fill:rgb(228,172,207);}
.band6{fill:rgb(197,78,84);}
.band7{fill:rgb(138,30,4);}
.lipstick{fill:rgb(253,55,108);}
</style>
<defs>
<path id="kiss" d="M 0.621582 0.2290039 C 0.6235351 0.2290039 0.62548816 0.2290039 0.62744135 0.2290039 C 0.62744135 0.2324219 0.62451166 0.2324219 0.621582 0.23291011 C 0.621582 0.2314453 0.621582 0.2304688 0.621582 0.2290039 Z M 0.7714844 0.3759766 C 0.7797852 0.375 0.7763672 0.3847656 0.7827148 0.3857422 C 0.7851562 0.3803711 0.774414 0.3769531 0.7773437 0.366211 C 0.7729492 0.3671875 0.769043 0.3725586 0.7714844 0.3759766 Z M 0.5048828 0.0141602 C 0.5043945 0.0131836 0.5068359 0.0131836 0.5063477 0.012207 V 0.0117188 C 0.5058594 0.0126953 0.5063477 0.0141602 0.5048828 0.0141602 Z M 1.0 0.2827148 C 0.9970703 0.2895508 0.9951172 0.2973633 0.987793 0.2963867 C 0.9931641 0.3144531 0.9750977 0.3168945 0.98193365 0.3320312 C 0.9682618 0.33300778 0.97314453 0.3447265 0.9628906 0.34863278 C 0.9628906 0.35400388 0.9682617 0.35400388 0.9667968 0.36083978 C 0.9633788 0.36425778 0.95751953 0.3652343 0.95996094 0.3745117 C 0.95751953 0.3745117 0.95458984 0.3745117 0.95166016 0.3745117 C 0.9511719 0.3793945 0.9526367 0.3823242 0.953125 0.3857422 C 0.9472656 0.3847656 0.9462891 0.3886719 0.9423828 0.3896484 C 0.9414062 0.3989258 0.9414062 0.4077148 0.940918 0.4130859 C 0.9370117 0.4101562 0.9370117 0.4033203 0.9296875 0.4038086 C 0.921875 0.4106445 0.9301758 0.425293 0.9204102 0.4296875 C 0.921875 0.4360352 0.9257813 0.4394531 0.9243164 0.4487305 C 0.9208984 0.4482422 0.9179687 0.4467774 0.9135742 0.4477539 C 0.9125977 0.4541016 0.9106445 0.4570312 0.9038086 0.4628906 C 0.9042969 0.47021478 0.90820307 0.4833984 0.8994141 0.48486328 C 0.8916016 0.48486328 0.8959961 0.47265628 0.88574225 0.4750977 C 0.8818359 0.4804688 0.8867188 0.4853516 0.887207 0.4902344 C 0.8818359 0.4902344 0.8803711 0.4941406 0.87744135 0.4970703 C 0.8793945 0.5102539 0.87353516 0.5151367 0.86816406 0.5205078 C 0.8647461 0.519043 0.8632812 0.515625 0.8583984 0.5166016 C 0.8515625 0.5297852 0.8530273 0.550293 0.840332 0.5576172 C 0.83544916 0.5576172 0.8364258 0.5517578 0.8295898 0.553711 C 0.8227539 0.5620117 0.8251953 0.5795898 0.8144531 0.5839844 C 0.8115234 0.5825195 0.8120117 0.5776367 0.8076172 0.578125 C 0.8051758 0.5830078 0.80419916 0.5888672 0.8017578 0.5932617 C 0.7939453 0.5922851 0.7910156 0.5961914 0.78955084 0.6015625 C 0.78955084 0.6025391 0.78955084 0.6035156 0.78955084 0.6044922 C 0.7827148 0.6074219 0.7817383 0.6157227 0.7758789 0.6196289 C 0.7709961 0.6181641 0.7714844 0.6118164 0.7646484 0.612793 C 0.7646484 0.61376965 0.76367176 0.6142578 0.762207 0.6142578 C 0.76269525 0.61621094 0.76025385 0.6210937 0.7631836 0.6210937 C 0.7631836 0.621582 0.7631836 0.621582 0.7631836 0.6220703 C 0.7631836 0.6235351 0.7631836 0.625 0.7631836 0.6264648 C 0.7592773 0.6279297 0.753418 0.6274414 0.7495117 0.6293945 C 0.7470703 0.6425781 0.737793 0.6484375 0.7290039 0.6552734 C 0.7236328 0.6542969 0.7211914 0.65625 0.7182617 0.6582031 C 0.7133789 0.6625977 0.7080078 0.6665039 0.7055664 0.6733398 C 0.7055664 0.67382807 0.7055664 0.6743164 0.7055664 0.6743164 C 0.7036133 0.6748047 0.703125 0.6767578 0.7016602 0.6772461 C 0.6875 0.6679688 0.6811523 0.6875 0.6713867 0.690918 C 0.67089844 0.690918 0.6704101 0.690918 0.66992193 0.690918 C 0.6616211 0.6933594 0.6547852 0.6972656 0.6494141 0.7021484 C 0.64892584 0.7021484 0.6484375 0.7021484 0.64794934 0.7021484 C 0.635254 0.7021484 0.63964856 0.7197265 0.62841815 0.7211914 C 0.62207043 0.7260742 0.6147463 0.7211914 0.60791034 0.7255859 C 0.6020508 0.7265625 0.5981445 0.7192383 0.5927734 0.7241211 C 0.5795898 0.7255859 0.5727539 0.7333984 0.5654297 0.7407227 C 0.5605469 0.7397461 0.5576172 0.7382813 0.5527344 0.7407227 C 0.54931635 0.73925793 0.5483399 0.7353516 0.5458985 0.73242193 C 0.5439454 0.73242193 0.5410157 0.73193365 0.5405274 0.7338867 C 0.5400391 0.7338867 0.5395508 0.7338867 0.5390626 0.7338867 C 0.53759784 0.7338867 0.5366212 0.7338867 0.5351564 0.7338867 C 0.532715 0.734375 0.5351564 0.74023443 0.53222674 0.7407226 C 0.5332031 0.737793 0.5258789 0.7363281 0.5253906 0.7392578 C 0.5219726 0.73876953 0.52099615 0.74121094 0.51855475 0.7421875 C 0.5161133 0.7402344 0.5068359 0.7373047 0.503418 0.7407227 C 0.50292975 0.7407227 0.5024414 0.7407227 0.50195324 0.7407227 C 0.4990234 0.7460938 0.4858398 0.7460938 0.4799805 0.7446289 C 0.4790039 0.7358398 0.4702149 0.7441406 0.4663086 0.7446289 C 0.4619141 0.7436523 0.4638672 0.7485352 0.4594727 0.7475586 C 0.4560547 0.74414057 0.4521485 0.7407227 0.444336 0.7421875 C 0.44287118 0.7421875 0.4414063 0.7421875 0.4399415 0.7421875 C 0.43164068 0.7397461 0.4262696 0.7348633 0.4208985 0.7431641 C 0.4169923 0.74511725 0.4135743 0.74511725 0.409668 0.7431641 C 0.409668 0.74267584 0.409668 0.7421875 0.409668 0.7421875 C 0.4072266 0.7421875 0.4042969 0.7421875 0.4018555 0.7421875 C 0.3979492 0.7392578 0.3979492 0.7329102 0.3920898 0.7324219 C 0.3920898 0.73388666 0.39111322 0.73388666 0.390625 0.7348633 C 0.390625 0.73535156 0.390625 0.7358399 0.390625 0.73632807 C 0.3876953 0.737793 0.3886719 0.7426758 0.3837891 0.7421875 C 0.3740234 0.7431641 0.3706055 0.7304688 0.3618164 0.7348633 C 0.3613281 0.7348633 0.3608398 0.7348633 0.3603516 0.7348633 C 0.3540039 0.7387695 0.3500977 0.7338867 0.3466797 0.730957 C 0.34619138 0.730957 0.3457031 0.730957 0.34521487 0.730957 C 0.33984378 0.7294922 0.33984378 0.72363275 0.33300787 0.7241211 C 0.33544928 0.7216797 0.33300787 0.72070307 0.33300787 0.7172852 C 0.32714847 0.7172852 0.32568368 0.7216797 0.32031256 0.7226563 C 0.31347665 0.7216797 0.31542975 0.7294922 0.30810556 0.7280274 C 0.30810556 0.722168 0.31298837 0.7207032 0.30810556 0.7172852 C 0.30468756 0.71679693 0.30273446 0.7172852 0.30126965 0.71875 C 0.2929688 0.7202148 0.2915039 0.715332 0.2875977 0.7128906 C 0.2871094 0.7099609 0.2856445 0.7075195 0.284668 0.7045898 C 0.2822266 0.7016602 0.2851562 0.6933594 0.2817383 0.690918 C 0.2797852 0.6899414 0.277832 0.6879883 0.2763672 0.6855469 C 0.2705078 0.6884766 0.2661133 0.6875 0.2597656 0.6884766 C 0.2543945 0.68798834 0.2490234 0.6884766 0.2490234 0.6938477 C 0.2475586 0.6982422 0.2431641 0.7001953 0.2392578 0.7021484 C 0.2329102 0.6987305 0.2241211 0.6982422 0.21875 0.6938477 S 0.2231445 0.6782227 0.2143555 0.678711 C 0.2119141 0.6889648 0.2026367 0.6923828 0.1914062 0.6938477 C 0.1889648 0.6904297 0.1943359 0.6845703 0.1870117 0.684082 C 0.1762695 0.68798816 0.1679687 0.6918945 0.15820311 0.684082 C 0.1484375 0.6855469 0.1455078 0.6733398 0.1376953 0.6772461 C 0.1333008 0.6767578 0.1303711 0.6811523 0.1293945 0.6757812 C 0.1293945 0.6704101 0.1293945 0.665039 0.1293945 0.65917957 C 0.1298828 0.6547851 0.1357422 0.65576154 0.1391601 0.6538085 C 0.1376953 0.6416015 0.14111319 0.6220702 0.1513671 0.6166991 C 0.1518554 0.611328 0.1464843 0.6083983 0.1499023 0.6044921 C 0.1542968 0.60937494 0.1630859 0.6020507 0.1621093 0.611328 C 0.161621 0.6181639 0.1669921 0.6191405 0.1689452 0.623535 C 0.17236319 0.6230467 0.1752929 0.6220702 0.1762694 0.6196288 C 0.1782227 0.6176758 0.1816406 0.6166992 0.1816406 0.612793 C 0.1845703 0.6049805 0.19042969 0.5976563 0.18701169 0.58789074 C 0.19238278 0.58496106 0.20019528 0.58007824 0.19677728 0.572754 C 0.20947258 0.57226574 0.19970699 0.5493165 0.21728508 0.553711 C 0.21777338 0.553711 0.21826169 0.553711 0.21874988 0.553711 C 0.22070298 0.557129 0.22460929 0.5512696 0.22705068 0.5507813 C 0.22656238 0.5473633 0.22509758 0.5454102 0.22167958 0.5454102 C 0.22070298 0.5454102 0.21972649 0.5454102 0.21874988 0.5454102 C 0.203125 0.5444336 0.1879883 0.5512695 0.1787109 0.5522461 C 0.1772461 0.5458984 0.1845703 0.543457 0.1801758 0.5385742 C 0.1601562 0.5493164 0.1323242 0.5473633 0.1044922 0.5478516 C 0.0942383 0.538086 0.0800781 0.5322266 0.0703125 0.5219727 C 0.0654297 0.5356445 0.046875 0.5327148 0.0356445 0.5273438 C 0.034668 0.5341797 0.0336914 0.5366211 0.0385742 0.5395508 C 0.0258789 0.5415039 0.0107422 0.546875 0.0014648 0.5385742 C 0.0048828 0.534668 0.0019531 0.5288086 0.0 0.5258789 C 0.0087891 0.5258789 0.0063477 0.51367193 0.0097656 0.5083008 C 0.0073242 0.5039062 0.0014648 0.503418 0.0014648 0.4970703 C 0.003418 0.4931641 0.0053711 0.4892578 0.0112305 0.4887695 C 0.0107422 0.4804688 0.0117188 0.4785156 0.012207 0.4736328 C 0.015625 0.4741211 0.019043 0.4741211 0.0205078 0.472168 C 0.0180664 0.4545898 0.0239258 0.4375 0.0356445 0.4243164 C 0.032226503 0.4189453 0.0229492 0.4189453 0.027343702 0.40917972 C 0.0258789 0.4052734 0.0170898 0.4086914 0.0166016 0.4038086 C 0.022461 0.4052734 0.029785201 0.4052734 0.037109397 0.4047852 C 0.0410156 0.3950196 0.028808597 0.385254 0.0356446 0.3759766 C 0.0395508 0.38232428 0.045410197 0.39257818 0.053710997 0.3896485 C 0.050293 0.3774415 0.047363296 0.3706055 0.041503996 0.3593751 C 0.046875 0.3603516 0.046875 0.355957 0.0522461 0.3569336 C 0.0561523 0.3583984 0.0561523 0.3632812 0.059082 0.3652344 C 0.0581055 0.3725586 0.0610352 0.3759766 0.065918 0.3774414 C 0.0678711 0.3754883 0.0678711 0.3696289 0.065918 0.3676758 C 0.0649414 0.3608398 0.0654297 0.3618164 0.0673828 0.3569336 C 0.0654297 0.3564453 0.0649414 0.3544922 0.0634766 0.3540039 C 0.0615234 0.3530273 0.0595703 0.3520508 0.0561523 0.3525391 C 0.044433497 0.3452149 0.057617098 0.3291016 0.0620117 0.3212891 C 0.0668945 0.3217774 0.0678711 0.3266602 0.0727539 0.3237305 C 0.0751953 0.3154297 0.0742188 0.3125 0.0771484 0.3061523 C 0.074707 0.3037109 0.0708008 0.3041992 0.0688477 0.3017578 C 0.0742188 0.29785162 0.0756836 0.2905273 0.0825196 0.2880859 C 0.081543 0.284668 0.0805664 0.2807617 0.0810547 0.2758789 C 0.083984405 0.2744141 0.0874024 0.2734375 0.0893555 0.2714844 C 0.0830078 0.262207 0.0888672 0.2602539 0.0961914 0.2548828 C 0.0991211 0.2563477 0.1020508 0.2617188 0.105957 0.2578125 C 0.1069336 0.2490234 0.0981445 0.25 0.0976562 0.2426758 C 0.104980394 0.2392578 0.103515595 0.22753909 0.1098632 0.22314459 C 0.1098632 0.22021489 0.1079101 0.21923839 0.1088866 0.21533209 C 0.1186523 0.2050781 0.128418 0.1962891 0.125 0.1767578 C 0.1333008 0.17285159 0.1381836 0.1660156 0.1376953 0.1533203 C 0.1533203 0.1313476 0.17578119 0.11621089 0.2075195 0.1103515 C 0.2119141 0.1069336 0.2143555 0.1098633 0.21875 0.1079102 C 0.2260742 0.1088868 0.2299805 0.1064454 0.2338867 0.1035157 C 0.2387695 0.104004 0.2460937 0.1025391 0.24902341 0.1049805 C 0.2568359 0.109375 0.2666016 0.1069336 0.2670898 0.0966797 C 0.27294922 0.0893555 0.2768554 0.0991211 0.28076172 0.1025391 C 0.2817383 0.1079102 0.2900391 0.1132812 0.2958984 0.109375 C 0.2993164 0.1079102 0.30517572 0.1088867 0.3081054 0.1064453 C 0.309082 0.1074219 0.3120117 0.1074219 0.3120117 0.109375 C 0.3095703 0.1123047 0.3164062 0.1142578 0.3193359 0.1103516 C 0.3203125 0.1152344 0.32617182 0.1152344 0.32861322 0.1118164 C 0.3295898 0.1118164 0.33056632 0.1118164 0.3315429 0.1118164 C 0.33837882 0.1181641 0.3544921 0.1201172 0.36328122 0.1269531 C 0.3686523 0.1313476 0.3696289 0.14013669 0.38085932 0.13378899 C 0.3828124 0.13281238 0.3847655 0.12890619 0.38769522 0.1269531 C 0.39746082 0.1210937 0.40234363 0.1235351 0.4028319 0.110351495 C 0.394043 0.1049805 0.3901367 0.1157227 0.3823242 0.1162109 C 0.3823242 0.1147461 0.3823242 0.1132812 0.3823242 0.1118164 C 0.3808594 0.1044922 0.3847656 0.109375 0.3867188 0.1064453 C 0.3896484 0.1069336 0.387207 0.1015625 0.3876953 0.0996094 C 0.38818362 0.096679695 0.39355472 0.099121094 0.39599612 0.0981446 C 0.39648443 0.0991212 0.39599612 0.1010743 0.39746094 0.1010743 C 0.39794925 0.0991212 0.40087894 0.0996095 0.40283203 0.0996095 C 0.40234372 0.0961915 0.40136722 0.0932618 0.39746094 0.0927736 C 0.390625 0.090332 0.3969727 0.0878906 0.3945312 0.0844727 C 0.3959961 0.081543 0.3974609 0.0791016 0.4018555 0.0791016 C 0.4033203 0.0834961 0.4125977 0.0771485 0.4086914 0.0761719 C 0.4121094 0.0727539 0.4189453 0.078613296 0.4238281 0.0747071 C 0.4282227 0.078125 0.434082 0.0874023 0.4389648 0.0859375 C 0.4453125 0.0844727 0.4423828 0.0756836 0.43603513 0.0761719 C 0.43359372 0.0727539 0.43017572 0.0698242 0.42382812 0.070800796 C 0.42382812 0.0712891 0.42382812 0.071777396 0.42382812 0.072265595 C 0.42041013 0.070800796 0.41699222 0.0698242 0.41406253 0.067871094 C 0.41406253 0.06591799 0.41406253 0.064453095 0.41406253 0.062499993 C 0.41650394 0.062499993 0.41845703 0.062011693 0.41943362 0.061035194 C 0.4213867 0.0649414 0.4379883 0.0678711 0.4360352 0.0625 C 0.4355469 0.0556641 0.4262695 0.0571289 0.4208984 0.0556641 C 0.418457 0.0556641 0.41992182 0.0517579 0.41796872 0.0512696 C 0.4204102 0.0488281 0.425293 0.0498047 0.4248047 0.0444336 C 0.42773438 0.0400391 0.4331055 0.0454102 0.4360352 0.0473633 C 0.4365234 0.0517578 0.4428711 0.0498047 0.4472656 0.050293 C 0.44677728 0.043945298 0.4438476 0.0483399 0.4414062 0.045898497 C 0.4404296 0.0429688 0.4370117 0.0424805 0.4360351 0.039062597 C 0.4345703 0.0332031 0.4389648 0.0327148 0.4399414 0.0292969 C 0.4443359 0.027343798 0.4487305 0.022460999 0.4511719 0.0292969 C 0.4487305 0.0297852 0.45166022 0.03125 0.4511719 0.0336914 C 0.4545899 0.0341797 0.456543 0.0332031 0.4580078 0.0322266 C 0.4575195 0.0288086 0.45605472 0.025878899 0.45410162 0.0239258 C 0.45410162 0.0244141 0.45410162 0.0249024 0.45410162 0.025390599 C 0.45214853 0.024902299 0.4526368 0.021972599 0.4526368 0.0200195 C 0.45410162 0.024414 0.46972662 0.0200195 0.4580079 0.018554699 C 0.4726562 0.015625 0.4746094 0.0258789 0.4868164 0.0253906 C 0.4941406 0.033203103 0.4946289 0.0170898 0.4912109 0.011718701 C 0.4936523 0.011718701 0.496582 0.011718701 0.49951172 0.011718701 C 0.5004883 0.012207 0.5019531 0.0126953 0.5019531 0.0141602 C 0.4995117 0.0151367 0.5043945 0.0200195 0.5073242 0.0200195 C 0.5097656 0.0175781 0.5087891 0.0136719 0.5063477 0.012207 C 0.5053711 0.0063477 0.5058594 4.883E-4 0.5146484 0.0019531 C 0.5146484 0.0024414 0.5146484 0.0029297 0.5146484 0.0034178998 C 0.51611316 0.0063476 0.51757807 -0.0024415003 0.52392566 4.8819976E-4 C 0.52539045 0.0043944 0.5336913 0.008300699 0.536621 0.0058592996 C 0.5424805 0.0068359 0.5439453 0.003418 0.5458984 4.883E-4 C 0.559082 9.766E-4 0.5703125 0.0078125 0.5820312 0.0048828 C 0.5849609 0.0063476 0.586914 0.008789 0.58886707 0.0117187 C 0.5859374 0.0117187 0.58691394 0.0078125 0.5830077 0.008788999 C 0.5820312 0.0126953 0.5859375 0.0117188 0.5859375 0.0141602 C 0.5888672 0.0136719 0.5957031 0.0166016 0.5942383 0.0117188 C 0.6000977 0.0112305 0.6010742 0.015625 0.6040039 0.0185547 C 0.6030273 0.0185547 0.6010742 0.0185547 0.6010742 0.020019501 C 0.6049804 0.0249023 0.61083984 0.020996101 0.6147461 0.018554702 C 0.61914057 0.017578103 0.6201172 0.020507803 0.6230469 0.020996103 C 0.6264649 0.026367202 0.6372071 0.023437504 0.6396485 0.029296903 C 0.6381837 0.029296903 0.6367188 0.026855502 0.635254 0.029296903 C 0.63867205 0.029785203 0.6381837 0.034179702 0.64257824 0.033691403 C 0.64257824 0.032714803 0.64257824 0.031738304 0.64257824 0.030761702 C 0.6484375 0.0317383 0.65625 0.0317383 0.65625 0.0390625 C 0.6586914 0.0439453 0.6674805 0.0424805 0.6713867 0.0458984 C 0.67236334 0.0458984 0.6728515 0.0458984 0.6738281 0.0458984 C 0.6743164 0.050293 0.6821289 0.0483398 0.6865234 0.0488281 C 0.6865234 0.051269498 0.6875 0.052246097 0.6889648 0.0527343 C 0.6889648 0.0532226 0.6889648 0.0537109 0.6889648 0.0541991 C 0.6889648 0.0556639 0.6865234 0.0571288 0.6889648 0.0581053 C 0.6914062 0.0532225 0.6914062 0.0615233 0.69482416 0.0595701 C 0.6933594 0.0546875 0.7006836 0.0571289 0.7016602 0.0581055 C 0.70263684 0.0581055 0.70263684 0.0590821 0.703125 0.059570298 C 0.6982422 0.0620117 0.7084961 0.0693359 0.7084961 0.0625 C 0.7138672 0.0678711 0.7255859 0.0668945 0.7319336 0.0722656 C 0.7294922 0.0722656 0.7416992 0.0825195 0.7412109 0.0761718 C 0.74169916 0.0761718 0.7421875 0.0761718 0.74267566 0.0761718 C 0.74267566 0.076660104 0.74267566 0.0771484 0.74267566 0.0776366 C 0.7480469 0.078125 0.7470703 0.0849609 0.7553711 0.0830078 C 0.7539062 0.0854492 0.7563477 0.0839844 0.7583008 0.0844727 C 0.7578125 0.0844727 0.7578125 0.0844727 0.7578125 0.0844727 C 0.7578125 0.0859375 0.7597656 0.0854493 0.7607422 0.0859375 C 0.7607422 0.0874023 0.75976557 0.0849609 0.7583008 0.0844727 C 0.7646484 0.0834961 0.765625 0.0874023 0.7714844 0.0874023 C 0.77539057 0.0932617 0.7832032 0.095703095 0.7866211 0.102539 C 0.7900391 0.102539 0.79101557 0.100097604 0.7949219 0.101074204 C 0.79638666 0.101074204 0.79785156 0.101074204 0.79931635 0.101074204 C 0.80078113 0.1044922 0.81738275 0.1035156 0.81982416 0.1049804 C 0.8212891 0.1069336 0.8251953 0.1074219 0.8266602 0.109375 C 0.8295898 0.1147461 0.8354492 0.1166992 0.840332 0.1201172 C 0.84619135 0.1181641 0.8500976 0.114257805 0.85400385 0.1103516 C 0.871582 0.1240234 0.8964844 0.1269531 0.90625 0.1450195 C 0.9135742 0.1450195 0.9125977 0.1376953 0.9204102 0.13818361 C 0.9248047 0.14550781 0.9282227 0.14550781 0.9311524 0.15478522 C 0.9365235 0.15380861 0.9428712 0.14892581 0.9448243 0.15576182 C 0.9365234 0.168457 0.9248047 0.1777344 0.9135742 0.1875 C 0.9082031 0.1884766 0.9130859 0.1791992 0.9077148 0.1806641 C 0.89355457 0.1923829 0.8725586 0.1967774 0.8583984 0.20849611 C 0.85351557 0.23193361 0.8374023 0.23339841 0.8168945 0.23974611 C 0.8100586 0.2421875 0.8032227 0.2475586 0.7963867 0.2495117 C 0.78808594 0.2519531 0.78027344 0.2485351 0.77148443 0.2495117 C 0.76367193 0.2504883 0.75585943 0.2578125 0.7470703 0.26074222 C 0.7304688 0.2651367 0.715332 0.2636719 0.6987305 0.2646484 C 0.6972656 0.2607422 0.6958008 0.2563477 0.6933594 0.253418 C 0.668457 0.2734375 0.6342773 0.2905273 0.6010742 0.293457 C 0.5996094 0.2827148 0.6020508 0.2646484 0.6123047 0.2607422 C 0.6152344 0.2612305 0.6152344 0.265625 0.6201172 0.2646484 C 0.6289063 0.25585932 0.6464844 0.26171872 0.65185547 0.24804682 C 0.6567383 0.24804682 0.6567383 0.25292963 0.66015625 0.2534179 C 0.66064453 0.2534179 0.6611329 0.2534179 0.66162103 0.2534179 C 0.67138666 0.25585932 0.65869135 0.24365231 0.66015625 0.2426757 C 0.6689454 0.24072261 0.68066406 0.24218741 0.68505853 0.23583981 C 0.6870117 0.2382812 0.6875 0.2426758 0.6904297 0.2441406 C 0.6958008 0.2426758 0.69873047 0.2426758 0.70410156 0.2441406 C 0.7114258 0.2333984 0.71484375 0.2192383 0.72753906 0.21386719 C 0.72753906 0.21093749 0.72753906 0.2084961 0.72753906 0.20556639 C 0.73193353 0.2050781 0.73583984 0.2001953 0.7402344 0.20410159 C 0.7373047 0.2119141 0.7304688 0.2143555 0.7304688 0.2246094 C 0.7294922 0.2294922 0.7338867 0.230957 0.7358398 0.2290039 C 0.7426758 0.2250977 0.7470703 0.21875 0.7480469 0.2094727 C 0.7480469 0.2089844 0.7480469 0.2084961 0.7480469 0.2084961 C 0.7558594 0.20605469 0.76025385 0.20117189 0.7622071 0.19335939 C 0.76123047 0.1928711 0.756836 0.18994139 0.7563477 0.19335939 C 0.7485352 0.1923828 0.7568359 0.1894531 0.7553711 0.1835938 C 0.7495117 0.171875 0.7426758 0.1889648 0.7402344 0.1933594 C 0.73681635 0.1904297 0.7333985 0.18798831 0.72607416 0.1889649 C 0.7207031 0.1914062 0.7197266 0.1992188 0.715332 0.2026367 C 0.7114258 0.2016602 0.7124023 0.1962891 0.7084961 0.1958008 C 0.7075195 0.2041016 0.7001953 0.2060547 0.6933594 0.2084961 C 0.6889648 0.1972656 0.668457 0.1992188 0.6616211 0.2070312 C 0.65966797 0.21093741 0.6655273 0.2138671 0.6616211 0.215332 C 0.6542969 0.2124023 0.6479492 0.2084961 0.6411133 0.2055664 C 0.6362305 0.2075195 0.6362305 0.2143555 0.6298828 0.215332 C 0.6274414 0.2109375 0.618164 0.2138672 0.61767584 0.20849611 C 0.61962897 0.19531251 0.6313477 0.1728516 0.62011725 0.16015631 C 0.6069336 0.1782227 0.6118164 0.2148438 0.590332 0.2246094 C 0.59179676 0.23193361 0.5859375 0.23193361 0.5874023 0.23828131 C 0.58886707 0.24072272 0.59570307 0.2387696 0.59570307 0.24267581 C 0.5932617 0.2514648 0.5898438 0.2587891 0.5805664 0.2607422 C 0.5761719 0.2587891 0.5761719 0.2519531 0.5678711 0.253418 C 0.5654297 0.2568359 0.5673828 0.262207 0.5708008 0.2631836 C 0.57226557 0.2631836 0.57373047 0.2631836 0.57519525 0.2631836 C 0.5712891 0.2661133 0.5693359 0.2705078 0.5654297 0.2729492 C 0.5581055 0.2592773 0.5634766 0.2353516 0.5390625 0.2412109 C 0.5356445 0.2612305 0.5419922 0.2695312 0.543457 0.2866211 C 0.5356445 0.2836914 0.5371094 0.2905273 0.5351562 0.293457 C 0.527832 0.2905273 0.5234375 0.2875977 0.515625 0.2880859 C 0.5117188 0.2661133 0.5170898 0.2460938 0.5146484 0.2260742 C 0.5146484 0.22558591 0.5146484 0.2250976 0.5146484 0.2246094 C 0.5219726 0.2182617 0.5078125 0.2060547 0.5102539 0.21630861 C 0.5102539 0.2167969 0.5102539 0.21728522 0.5102539 0.21777341 C 0.5029297 0.246582 0.5 0.28173822 0.5102539 0.3046875 C 0.5068359 0.3061523 0.496582 0.3041992 0.4936523 0.300293 C 0.4926758 0.2905273 0.5014648 0.2797852 0.4897461 0.2783203 C 0.4853516 0.2817383 0.4873047 0.2915039 0.4814453 0.293457 C 0.4643555 0.2832031 0.4682617 0.2529297 0.4541016 0.2397461 C 0.44482428 0.2563477 0.4541016 0.2822266 0.4482422 0.2963867 C 0.4428711 0.2958984 0.4414062 0.2919922 0.4389648 0.2895508 C 0.4389648 0.28857422 0.4389648 0.28759772 0.4389648 0.28662112 C 0.44580072 0.27685553 0.418457 0.27441412 0.42773432 0.28369144 C 0.4287109 0.28417975 0.430664 0.28417975 0.430664 0.28515625 C 0.4301758 0.2880859 0.425293 0.2861328 0.4262695 0.2910156 C 0.4291992 0.2929687 0.4282226 0.29052728 0.4321289 0.2910156 C 0.43261722 0.2929687 0.4360351 0.2919922 0.4345703 0.2963867 C 0.4243164 0.2949219 0.4262695 0.3066406 0.409668 0.3032227 C 0.409668 0.30712888 0.409668 0.3115235 0.409668 0.3154297 C 0.397461 0.3115235 0.4023438 0.32421878 0.3935547 0.31396487 C 0.3891602 0.3222656 0.3999023 0.3256836 0.4003906 0.3334961 C 0.3959961 0.3325195 0.3916016 0.3320312 0.3891602 0.3291016 C 0.3857422 0.32861328 0.38427737 0.33007818 0.385254 0.3334961 C 0.3891602 0.340332 0.3935548 0.3422852 0.397461 0.3510742 C 0.394043 0.355957 0.3867188 0.3554688 0.3920898 0.3623047 C 0.3852539 0.3691406 0.371582 0.3691406 0.3632812 0.3745117 C 0.355957 0.371582 0.347168 0.3706055 0.3413086 0.3662109 C 0.3349609 0.3535156 0.3222656 0.34667972 0.3134766 0.3359375 C 0.3071289 0.3271484 0.3037109 0.315918 0.2900391 0.3139648 C 0.2875977 0.3271484 0.303711 0.3325195 0.3027344 0.3486328 C 0.3051758 0.352539 0.3129883 0.35107422 0.3149414 0.35546872 C 0.3139648 0.3593749 0.3139648 0.35986322 0.3149414 0.36376953 C 0.3032227 0.3681641 0.2924805 0.3789062 0.2763672 0.3720703 C 0.2734375 0.3862305 0.26171878 0.3911133 0.25048828 0.3964844 C 0.2446289 0.3789062 0.2338867 0.3666992 0.2143555 0.3623047 C 0.2084961 0.3730469 0.2182617 0.3793945 0.2216797 0.3857422 C 0.2177735 0.38525388 0.2172852 0.3891602 0.2172852 0.3925781 C 0.2211914 0.3950195 0.225586 0.3964843 0.225586 0.4023437 C 0.213379 0.3964843 0.206543 0.41308588 0.1923829 0.4145507 C 0.1860352 0.4223633 0.1987305 0.434082 0.1938477 0.4350586 C 0.1855469 0.4306641 0.1767578 0.4008789 0.1665039 0.4199219 C 0.168457 0.4272461 0.17724611 0.4272461 0.17871091 0.4350586 C 0.17724611 0.4350586 0.1762695 0.4350586 0.1748047 0.4350586 C 0.1743164 0.4350586 0.1738281 0.4350586 0.1733399 0.4350586 C 0.1689453 0.4296875 0.1601562 0.4370117 0.1567383 0.4296875 C 0.1523438 0.4311523 0.152832 0.4365234 0.1484375 0.4379883 C 0.1484375 0.43701172 0.1484375 0.4365235 0.1469727 0.4365235 C 0.1464844 0.4365235 0.1464844 0.4365235 0.1459961 0.4365235 C 0.1425781 0.434082 0.1289062 0.4335938 0.1293945 0.4394531 C 0.1254883 0.4433594 0.1303711 0.4462891 0.1308594 0.4501953 C 0.1328125 0.4555664 0.1401367 0.4570312 0.1445312 0.453125 C 0.1450195 0.453125 0.14550781 0.453125 0.145996 0.453125 C 0.1523437 0.4580078 0.15332021 0.4462891 0.1552733 0.4418945 C 0.1621094 0.4501953 0.1499023 0.4604492 0.1445312 0.465332 C 0.145996 0.46679682 0.14697261 0.4682617 0.14843741 0.4697265 C 0.1474608 0.4697265 0.14648432 0.4697265 0.145996 0.4697265 C 0.1420898 0.4609375 0.1220703 0.4526367 0.1157227 0.4599609 C 0.1181641 0.465332 0.1230469 0.4682617 0.125 0.4736328 C 0.1357422 0.47070312 0.144043 0.48046872 0.1513672 0.4848633 C 0.1582031 0.4824219 0.1533203 0.4765625 0.1513672 0.472168 C 0.152832 0.472168 0.1542969 0.472168 0.15527341 0.472168 S 0.1572265 0.472168 0.15820311 0.472168 C 0.16406251 0.4643555 0.16748041 0.4580078 0.18017581 0.4545899 C 0.18505861 0.4545899 0.18310551 0.4472657 0.1855469 0.4448243 C 0.1914062 0.449707 0.2021484 0.4619141 0.2089844 0.4560547 C 0.2089844 0.45556638 0.2089844 0.4550781 0.2089844 0.45458987 C 0.21142581 0.45263678 0.2124024 0.44970706 0.2133789 0.44628906 C 0.1958008 0.4296875 0.2304688 0.4238281 0.2407227 0.4350586 C 0.2451172 0.43457028 0.2456055 0.43017578 0.2490235 0.4282227 C 0.2509766 0.43212888 0.2573243 0.43115237 0.2573243 0.4365235 C 0.2539063 0.4594727 0.22851571 0.4453126 0.21728522 0.4570313 C 0.2148438 0.4643555 0.2231445 0.4604492 0.2226562 0.465332 C 0.2133789 0.4829102 0.190918 0.487793 0.1762695 0.5 C 0.1796875 0.5117188 0.1967773 0.4975586 0.2050781 0.5053711 C 0.2363281 0.4799805 0.26708978 0.4541016 0.3164062 0.4462891 C 0.3198242 0.4482422 0.321289 0.45263678 0.3261718 0.453125 C 0.3422851 0.4541016 0.3461913 0.4433594 0.3520507 0.434082 C 0.361328 0.4394531 0.3759765 0.4291992 0.3808593 0.4350586 C 0.3779297 0.4428711 0.3793945 0.449707 0.3740234 0.4599609 C 0.383789 0.4702148 0.4086914 0.4721679 0.4238281 0.4638671 C 0.4291992 0.4633788 0.4291992 0.4677733 0.43457028 0.4667968 C 0.43847647 0.4672851 0.43554688 0.4614257 0.43994138 0.4628906 C 0.4716797 0.4633789 0.48583978 0.4633789 0.50878906 0.4560547 C 0.56152344 0.4213867 0.58837885 0.3613281 0.6464844 0.33203128 C 0.6489258 0.32958987 0.64941406 0.3256836 0.65185547 0.32373047 C 0.66113275 0.31982428 0.6694336 0.31445315 0.6738282 0.30615237 C 0.7021484 0.2910156 0.7265625 0.2695312 0.762207 0.2631836 C 0.7875977 0.2587891 0.8154297 0.2573242 0.8417969 0.253418 C 0.8491211 0.2583008 0.85888666 0.2607422 0.87060547 0.2607422 C 0.8769532 0.2753906 0.89550775 0.27148438 0.9106446 0.2744141 C 0.9174805 0.2753906 0.9228516 0.28125 0.9296875 0.28125 C 0.9345703 0.28125 0.9379883 0.2763672 0.9423828 0.2758789 C 0.9492188 0.2739258 0.9550781 0.277832 0.9599609 0.2744141 C 0.9648437 0.2758789 0.9677734 0.2797852 0.97363275 0.2797852 C 0.9794921 0.27294928 0.9912109 0.2802735 0.99707025 0.2768555 C 0.9980469 0.2792969 0.9995117 0.2802734 1.0 0.2827148 Z M 0.7993164 0.1943359 C 0.8041992 0.1953125 0.8056641 0.1928711 0.8061523 0.1889648 C 0.8041992 0.1884766 0.8032227 0.1870117 0.8007812 0.1875 C 0.7993164 0.1894531 0.7988281 0.1914062 0.7993164 0.1943359 Z M 0.6342773 0.121582 C 0.6381835 0.1269531 0.6440429 0.118164 0.6396484 0.1147461 C 0.6367188 0.1142578 0.6342773 0.1152344 0.6342773 0.1176758 C 0.6337891 0.1196289 0.6323242 0.1196289 0.6342773 0.121582 Z M 0.5791016 0.0791016 C 0.5820313 0.0834961 0.5859375 0.0869141 0.5874024 0.0927735 C 0.5874024 0.0932618 0.5874024 0.0937501 0.5874024 0.094238296 C 0.5839844 0.097168 0.5898438 0.1030273 0.5957031 0.1025391 C 0.60058594 0.0986329 0.5986328 0.0883789 0.59277344 0.0874024 C 0.5898438 0.081543 0.5888672 0.0737305 0.5820312 0.0722656 C 0.5810547 0.074707 0.578125 0.074707 0.5791016 0.0791016 Z M 0.5458984 0.2207031 C 0.5444336 0.2207031 0.54248035 0.2207031 0.5405273 0.2207031 C 0.53955066 0.2216797 0.5375976 0.2270508 0.5405273 0.22753899 C 0.54101557 0.22753899 0.5415039 0.22753899 0.54199207 0.22753899 C 0.5444336 0.2319336 0.5473633 0.2246094 0.5458984 0.2207031 Z M 0.5571289 0.0942383 C 0.5610351 0.0952149 0.56054693 0.0922852 0.5639648 0.092773505 C 0.5649414 0.0869141 0.5625 0.0849609 0.5571289 0.0859375 C 0.5566406 0.0888672 0.5541992 0.0913086 0.5571289 0.0942383 Z M 0.5419922 0.121582 C 0.5419922 0.122070305 0.5419922 0.1225586 0.5419922 0.1230468 C 0.5483399 0.1298827 0.5458984 0.1455077 0.55419916 0.1503906 C 0.55859363 0.1513672 0.56005853 0.1489258 0.56103504 0.14648439 C 0.5585938 0.1425781 0.5566406 0.1381836 0.5541992 0.1337891 C 0.5537109 0.1245117 0.5488281 0.1191406 0.5458984 0.1118164 C 0.5444336 0.1074219 0.5444336 0.1015625 0.5419922 0.0981445 C 0.5292969 0.0800781 0.5322266 0.1181641 0.5419922 0.121582 Z M 0.4882812 0.0981445 C 0.4882812 0.1069336 0.5014648 0.1040039 0.50195307 0.0981445 C 0.50195307 0.0971679 0.50195307 0.0961914 0.50195307 0.0957031 C 0.49853507 0.0927734 0.49365225 0.089843705 0.48828116 0.0927734 C 0.4882812 0.0947266 0.4882812 0.0961914 0.4882812 0.0981445 Z M 0.4731445 0.0761719 C 0.4736328 0.0727539 0.46875 0.0678711 0.4677734 0.0708008 C 0.4672851 0.0708008 0.46679682 0.0708008 0.4663086 0.0708008 C 0.4628906 0.07128911 0.465332 0.0766602 0.4663086 0.077636704 C 0.4697266 0.078125 0.4716797 0.0771484 0.4731445 0.0761719 Z M 0.4624023 0.0571289 C 0.4580078 0.059082 0.4589844 0.065918 0.4633789 0.0664062 C 0.46386722 0.064453095 0.4667969 0.0649414 0.4677734 0.0639648 C 0.4677734 0.0595703 0.4672852 0.0561523 0.4624023 0.0571289 Z M 0.2612305 0.28125 C 0.2617188 0.2851562 0.2636719 0.2871094 0.2680664 0.2866211 C 0.2714844 0.2836914 0.2680664 0.2797852 0.2670898 0.2768555 C 0.26367182 0.2768555 0.26171872 0.2773438 0.2612304 0.2797852 C 0.2612305 0.2802734 0.2612305 0.2807617 0.2612305 0.28125 Z M 0.1157227 0.3046875 C 0.116211005 0.3066406 0.1176758 0.3081055 0.1196289 0.3085937 C 0.1235351 0.309082 0.1235351 0.3051757 0.1240234 0.30175778 C 0.121582 0.3007812 0.1201172 0.2978516 0.1157227 0.2988281 C 0.1166992 0.3017578 0.1113281 0.3037109 0.1157227 0.3046875 Z M 0.0922852 0.293457 C 0.0942383 0.296875 0.0966797 0.2958984 0.100586 0.29492182 C 0.1035157 0.286621 0.087402396 0.286621 0.0922852 0.29199213 C 0.0922852 0.2924805 0.0922852 0.2929688 0.0922852 0.293457 Z M 0.0839844 0.3168945 C 0.0844727 0.321289 0.087890595 0.3222656 0.0893555 0.3251953 C 0.0917969 0.3251953 0.09375 0.324707 0.0947266 0.3237305 C 0.0957032 0.3188477 0.0917969 0.3173828 0.0893555 0.3154297 C 0.0888672 0.3125 0.0859375 0.3168945 0.0839844 0.3168945 Z M 0.0976562 0.4023438 C 0.1030273 0.400879 0.101562396 0.4057618 0.105957 0.40478522 C 0.1074218 0.40185553 0.1147461 0.39746103 0.1098632 0.3925782 C 0.1098632 0.39160162 0.1098632 0.39062512 0.1098632 0.38964853 C 0.1118163 0.38964853 0.1132812 0.38916022 0.1142577 0.38867193 C 0.1166992 0.387207 0.1191406 0.3862305 0.1225586 0.3857422 C 0.1220703 0.3808594 0.1181641 0.3798828 0.1142578 0.3789062 C 0.112304695 0.3789062 0.112304695 0.3769531 0.109863296 0.37744138 C 0.105957 0.3720703 0.1044922 0.3808594 0.1030273 0.3828125 C 0.1000977 0.3837891 0.09375 0.3808594 0.0947266 0.3857422 C 0.0947266 0.3862305 0.0947266 0.38671878 0.0947266 0.387207 C 0.0947266 0.38867182 0.0961914 0.38867182 0.0961914 0.3896484 C 0.0961914 0.3930664 0.090332 0.390625 0.087890595 0.39111322 C 0.08496089 0.39453122 0.0830078 0.4052734 0.0908203 0.40478513 C 0.0917969 0.40478513 0.0927734 0.40478513 0.09375 0.40478513 C 0.0961914 0.4052734 0.0961914 0.4033203 0.0976562 0.4023438 Z M 0.1098633 0.4584961 C 0.1108399 0.4526367 0.106445305 0.4521484 0.1015625 0.4516602 C 0.1005859 0.4560547 0.1005859 0.45458987 0.1015625 0.4584961 C 0.1044922 0.4584961 0.1074219 0.4584961 0.1098633 0.4584961 Z M 0.1293945 0.512207 C 0.1298828 0.5092773 0.1289062 0.5068359 0.1279297 0.5053711 C 0.1259766 0.5004883 0.1225586 0.4970703 0.1210938 0.4916992 C 0.1142578 0.4921875 0.1083984 0.487793 0.1044922 0.4931641 C 0.1064453 0.5 0.1083984 0.5073242 0.1142578 0.5107422 C 0.1191406 0.5131836 0.1245117 0.5131836 0.1293945 0.512207 Z M 0.1772461 0.6362305 C 0.17431639 0.6352539 0.1630859 0.63574225 0.16503909 0.6445313 C 0.1689453 0.647461 0.17041019 0.6416016 0.17187499 0.6445313 C 0.17187499 0.64648443 0.17236328 0.6484375 0.17333978 0.6499024 C 0.17333978 0.65332043 0.17333978 0.6562501 0.17480458 0.6582032 C 0.1860352 0.6591797 0.1811523 0.6401367 0.1772461 0.6362305 Z M 0.1938477 0.6401367 C 0.1958008 0.6416015 0.1982422 0.6425781 0.1992188 0.6445312 C 0.1967773 0.6435547 0.1948242 0.6503906 0.1982422 0.6513672 C 0.1982422 0.652832 0.1982422 0.6547852 0.1982422 0.6567383 C 0.1938477 0.65625 0.1938477 0.659668 0.1938477 0.6635742 C 0.1958008 0.66552734 0.2021485 0.6660156 0.2021485 0.66210943 C 0.2026368 0.66210943 0.2031251 0.66210943 0.2036133 0.66210943 C 0.215332 0.6606445 0.2021484 0.6259766 0.1938477 0.6401367 Z M 0.2089844 0.5864258 C 0.2177735 0.58447266 0.22363281 0.58007807 0.22851561 0.5742188 C 0.22656251 0.5742188 0.22656251 0.5722657 0.22412111 0.572754 C 0.22412111 0.57226574 0.22412111 0.5717774 0.22412111 0.57128924 C 0.2207031 0.5698242 0.2197266 0.565918 0.2143555 0.565918 C 0.2109375 0.5742188 0.1928711 0.58251965 0.2006836 0.59326184 C 0.2050781 0.59423846 0.2036133 0.59423846 0.20751949 0.59326184 C 0.2070312 0.590332 0.2080078 0.5878906 0.2089844 0.5864258 Z M 0.2670898 0.5439453 C 0.2626953 0.5439453 0.25976562 0.54492193 0.258789 0.5478515 C 0.2583007 0.5478515 0.2578124 0.5478515 0.2573242 0.5478515 C 0.2553711 0.5483398 0.2548828 0.550293 0.2529297 0.5507812 C 0.25488278 0.5429687 0.23876949 0.5478515 0.24462889 0.552246 C 0.24462889 0.55273426 0.24462889 0.5532226 0.24462889 0.55371076 C 0.24462889 0.5556639 0.24462889 0.55810523 0.24462889 0.56054664 C 0.2426758 0.5625 0.2382812 0.5629883 0.2368164 0.565918 C 0.2382812 0.5727539 0.2431641 0.57861334 0.23779301 0.58496106 C 0.23583992 0.5859377 0.23779301 0.59033215 0.2353516 0.59082043 C 0.22558601 0.5898438 0.22070321 0.5834962 0.2133789 0.59082043 C 0.2133789 0.6015626 0.215332 0.6103516 0.22412111 0.61279315 C 0.23339841 0.60888696 0.24218751 0.60498065 0.25292972 0.6030275 C 0.2509766 0.5966797 0.2475586 0.5922852 0.2490234 0.5825195 C 0.2519531 0.5732422 0.2548828 0.5625 0.2543945 0.5537109 C 0.2578125 0.55419916 0.2583007 0.55810535 0.2612304 0.559082 C 0.2612304 0.5615234 0.26269522 0.56201166 0.2656249 0.5615234 C 0.2719727 0.5595703 0.269043 0.5488281 0.2670898 0.5439453 Z M 0.2875977 0.5947266 C 0.2871094 0.5908203 0.2880859 0.5859375 0.2861328 0.5839844 C 0.2792969 0.5825195 0.2783203 0.5869141 0.2763672 0.5908203 C 0.2763672 0.59179693 0.2763672 0.5922851 0.2763672 0.5932617 C 0.2773438 0.5981445 0.284668 0.5957031 0.2875977 0.5947266 Z M 0.3041992 0.6894531 C 0.3041992 0.6860351 0.30175778 0.68554693 0.2998047 0.68408203 C 0.2998047 0.68359375 0.2998047 0.6831054 0.2998047 0.68261725 C 0.2988281 0.6811523 0.296875 0.6801758 0.2944336 0.6801758 C 0.2910156 0.68457025 0.2944336 0.69238275 0.2998047 0.69238275 C 0.3017578 0.6918945 0.3022461 0.6899414 0.3041992 0.6894531 Z M 0.3564453 0.5991211 C 0.355957 0.5991211 0.35546872 0.5991211 0.3549805 0.5991211 S 0.3540039 0.5991211 0.35351568 0.5991211 C 0.3515626 0.6005859 0.3515626 0.6040039 0.35351568 0.605957 C 0.3618164 0.6079102 0.3642578 0.59375 0.3564453 0.5991211 Z M 0.4375 0.5644531 C 0.440918 0.5610351 0.4370117 0.5571289 0.4345703 0.5546875 C 0.4345703 0.5541992 0.4345703 0.5541992 0.4345703 0.5537109 C 0.4355469 0.54492176 0.4267578 0.5458984 0.4223633 0.54248035 C 0.421875 0.5405273 0.4228516 0.5375977 0.4208984 0.5371094 C 0.4208984 0.53466797 0.4208984 0.53222656 0.4208984 0.5302735 C 0.4189453 0.5302735 0.4189453 0.5283204 0.41699222 0.5288087 C 0.4086914 0.5302735 0.4121094 0.5424806 0.40185553 0.5410157 C 0.40136722 0.5410157 0.40087894 0.5410157 0.4003907 0.5410157 C 0.394043 0.5366211 0.375 0.5493164 0.3754883 0.5493164 C 0.3701172 0.5483398 0.375 0.5390625 0.3671875 0.5424805 C 0.3642578 0.5424805 0.362793 0.54345715 0.3632813 0.546875 C 0.3583984 0.5488281 0.3652344 0.550293 0.3657227 0.5522461 C 0.3637696 0.5522461 0.36132818 0.5522461 0.35888678 0.5522461 C 0.35888678 0.55029297 0.3593751 0.5483399 0.35742196 0.5478516 C 0.35791028 0.5429688 0.35742196 0.5390625 0.35644537 0.53564465 C 0.35498056 0.53564465 0.35351568 0.53564465 0.35205087 0.53564465 C 0.3510742 0.5332031 0.3476562 0.5327148 0.34375 0.5327148 C 0.340332 0.5424805 0.331543 0.5395508 0.324707 0.5395508 C 0.3232422 0.5395508 0.3217773 0.5395508 0.3203125 0.5395508 C 0.3173828 0.5390625 0.3173828 0.5424805 0.3134766 0.5410156 C 0.3139649 0.5385742 0.3115235 0.5385742 0.3110352 0.53710943 C 0.3085938 0.5375977 0.3051758 0.5375977 0.3041992 0.5395508 C 0.3032226 0.5395508 0.3022461 0.5395508 0.3012695 0.5395508 C 0.2944336 0.5371094 0.2851562 0.53320307 0.2807617 0.5395508 C 0.28027338 0.5395508 0.2797851 0.5395508 0.27929688 0.5395508 C 0.27587888 0.5395508 0.27246097 0.5395508 0.27099606 0.54101557 C 0.27343747 0.5458984 0.27050775 0.5522461 0.27246088 0.55468744 C 0.2714844 0.5610352 0.277832 0.5649414 0.2817383 0.5615234 C 0.2924805 0.55664057 0.29785162 0.5678711 0.29980472 0.5756836 C 0.3061524 0.5751953 0.31103522 0.5742188 0.31201172 0.5688477 C 0.31201172 0.56835943 0.31201172 0.5678711 0.31201172 0.56738293 C 0.31201172 0.5610352 0.3159179 0.56689465 0.31787112 0.56738293 C 0.31787112 0.57226574 0.3208008 0.5742188 0.32470703 0.5756837 C 0.3266602 0.5737305 0.328125 0.5717773 0.331543 0.5712891 C 0.3359375 0.5703125 0.3383789 0.5668945 0.3422852 0.565918 C 0.3427735 0.56787115 0.34765628 0.57226574 0.34960938 0.5688477 C 0.35546878 0.5727539 0.3666992 0.57519543 0.37548828 0.5727539 C 0.37548828 0.5732422 0.37548828 0.5737305 0.37548828 0.5742187 C 0.37499997 0.5742187 0.3745117 0.5742187 0.37402347 0.5742187 C 0.37402347 0.5756835 0.37402347 0.5766601 0.37402347 0.5781249 C 0.37744147 0.58105457 0.38427737 0.5791015 0.38525397 0.5756835 C 0.38525397 0.57373035 0.38671878 0.57373035 0.38671878 0.571289 C 0.3881836 0.571289 0.38769537 0.5688476 0.3891602 0.5688476 C 0.39111328 0.5717773 0.3984375 0.5727538 0.40039068 0.5688476 C 0.400879 0.5688476 0.40136728 0.5688476 0.4018555 0.5688476 C 0.4072266 0.5693359 0.409668 0.5673828 0.4125977 0.565918 C 0.41455078 0.5625 0.4086915 0.56005865 0.4125977 0.55908215 C 0.41357428 0.56152356 0.4150391 0.56396496 0.41552737 0.56738293 C 0.4243164 0.5673828 0.4277344 0.5600586 0.4375 0.5644531 Z M 0.503418 0.5273438 C 0.5014648 0.5219727 0.4970703 0.519043 0.4926758 0.5166016 C 0.4907227 0.5151367 0.4887695 0.5146484 0.4853516 0.5151367 C 0.4790039 0.515625 0.4804688 0.5209961 0.4814453 0.5258789 C 0.4755859 0.5356445 0.4560547 0.5317383 0.4541016 0.5454102 C 0.4521484 0.5429688 0.4448242 0.5458984 0.4472656 0.5395508 C 0.4472656 0.53857416 0.4472656 0.5371094 0.4472656 0.5356446 C 0.4453125 0.5356446 0.4433594 0.5356446 0.4414062 0.5356446 C 0.4360352 0.534668 0.4335938 0.5371094 0.4345703 0.5424805 C 0.4360352 0.543457 0.4384766 0.5444336 0.4414062 0.5439453 C 0.4418945 0.5439453 0.44238278 0.5439453 0.442871 0.5439453 C 0.4458007 0.5429687 0.4458007 0.5493164 0.4472655 0.55371094 C 0.4433594 0.5546875 0.4414062 0.5576172 0.4399414 0.5615234 C 0.4438477 0.5639648 0.4477539 0.5639648 0.449707 0.5644531 C 0.4501953 0.56640625 0.4492187 0.5698242 0.45117182 0.5698242 C 0.45117182 0.57177734 0.45166013 0.57324225 0.45263663 0.5742187 C 0.45458972 0.5742187 0.45605463 0.5742187 0.45800772 0.5742187 C 0.4609374 0.57226557 0.45703113 0.5634765 0.46240222 0.56298816 C 0.4663086 0.5683594 0.4726562 0.5634766 0.4785156 0.565918 C 0.4863281 0.5649414 0.4824218 0.5541992 0.4829101 0.55224615 C 0.4892578 0.5512695 0.487793 0.5581055 0.4912109 0.5605469 C 0.49609372 0.5605469 0.5004882 0.55957025 0.5004882 0.5546875 C 0.50244135 0.5532227 0.50244135 0.5483398 0.5004882 0.546875 C 0.5029297 0.5405273 0.4990234 0.5332031 0.503418 0.5273438 Z M 0.5146484 0.6098633 C 0.512207 0.60644525 0.5063476 0.60644525 0.50195307 0.6083985 C 0.503418 0.6147461 0.5058594 0.6191406 0.5102539 0.6220703 C 0.5126953 0.6191406 0.5141602 0.6147461 0.5146484 0.6098633 Z M 0.6064453 0.5273438 C 0.6123047 0.5322266 0.6118164 0.5175782 0.6040039 0.52050793 C 0.6010742 0.5234375 0.6010742 0.5258789 0.6054688 0.5273438 C 0.6054688 0.5273438 0.605957 0.5273438 0.6064453 0.5273438 Z M 0.6245117 0.4790039 C 0.625 0.4790039 0.62548834 0.4790039 0.6259765 0.4790039 C 0.630371 0.4731445 0.6381835 0.46875 0.64501953 0.46386722 C 0.6445312 0.4624023 0.6430664 0.4624023 0.6411133 0.4628906 C 0.6401367 0.4609375 0.6425781 0.4555664 0.6396484 0.4560547 C 0.6396484 0.4541016 0.6391601 0.4526367 0.6381836 0.4516602 C 0.6313477 0.4560547 0.6274414 0.4516602 0.621582 0.453125 C 0.6147461 0.4521484 0.6176758 0.4619141 0.6132812 0.4638672 C 0.6123047 0.4599609 0.6020508 0.4555664 0.5996094 0.4614258 C 0.5991211 0.4614258 0.59863275 0.4614258 0.5981446 0.4614258 C 0.5922852 0.4614258 0.5908204 0.4667969 0.5859376 0.46826172 C 0.58691424 0.4746094 0.5888673 0.48046872 0.5913087 0.4848633 C 0.5893555 0.487793 0.5888672 0.4921875 0.5830078 0.4916992 C 0.5830078 0.4907226 0.5830078 0.4897461 0.5820312 0.49023438 C 0.5815429 0.49023438 0.58105457 0.49023438 0.5805664 0.49023438 C 0.574707 0.4907227 0.5678711 0.4833984 0.5610352 0.4804688 C 0.5600586 0.4804688 0.5585938 0.4804688 0.557129 0.4804688 C 0.5551759 0.4824219 0.5551759 0.48730472 0.557129 0.48876962 C 0.557129 0.49316412 0.557129 0.49707043 0.55419934 0.49853522 C 0.5522462 0.49316412 0.54199237 0.4970704 0.54589856 0.5014649 C 0.54589856 0.5014649 0.54589856 0.5019532 0.54589856 0.5024415 C 0.5439453 0.5029297 0.5371094 0.5029297 0.5351562 0.5068359 C 0.5327148 0.5043945 0.5292969 0.5024414 0.5239258 0.5024414 C 0.5239258 0.50439453 0.522461 0.50439453 0.522461 0.5068359 C 0.522461 0.5170898 0.5019532 0.5141601 0.5048829 0.5234375 C 0.50781256 0.5273437 0.50878906 0.5341797 0.51025397 0.5395508 C 0.5175782 0.54003906 0.53173834 0.5327149 0.5322267 0.54785156 C 0.5283203 0.5527344 0.5332031 0.5595703 0.5336914 0.5644531 C 0.53564453 0.5644531 0.5375976 0.5644531 0.5390625 0.5644531 C 0.543457 0.565918 0.5439453 0.5708008 0.5458984 0.5742188 C 0.54882807 0.57763684 0.546875 0.584961 0.54736316 0.59082043 C 0.55273426 0.59082043 0.55419904 0.5947266 0.5571288 0.5976563 C 0.56396466 0.6147461 0.5703124 0.63232434 0.5776366 0.6484375 C 0.5771484 0.6533203 0.5791016 0.6552734 0.5805664 0.6582031 C 0.5854492 0.6582031 0.5878906 0.65625 0.5874023 0.65136725 C 0.5874023 0.64843756 0.5874023 0.6455079 0.5874023 0.64306647 C 0.590332 0.6391603 0.58642566 0.6308595 0.5830078 0.6293946 C 0.5742188 0.6044922 0.5625 0.5820312 0.5527344 0.5576172 C 0.5527344 0.55419916 0.5527344 0.5512695 0.5527344 0.54785156 C 0.550293 0.5463867 0.5473633 0.5444336 0.5449219 0.5424805 C 0.5449219 0.5405274 0.5449219 0.5390625 0.5449219 0.53710943 C 0.5410157 0.534668 0.5410157 0.5268555 0.5449219 0.5244141 C 0.55322266 0.5244141 0.55419916 0.53173834 0.55712885 0.53710943 C 0.5561522 0.5410156 0.55322266 0.5429688 0.55419916 0.5493164 C 0.5551758 0.5493164 0.5561523 0.5493164 0.55712885 0.5493164 C 0.56005853 0.55273443 0.5693358 0.5507812 0.5708007 0.5478516 C 0.5722655 0.53564465 0.56396484 0.5327149 0.56005853 0.5258789 C 0.56005853 0.5253906 0.56005853 0.5249023 0.56005853 0.5244141 C 0.5712891 0.5019531 0.5795898 0.5371094 0.5844727 0.546875 C 0.5874023 0.5537109 0.5913086 0.559082 0.597168 0.5629883 C 0.597168 0.5625 0.597168 0.5615235 0.59814465 0.5615235 C 0.6035156 0.5595703 0.5991211 0.5488281 0.597168 0.5454102 C 0.5922852 0.5336914 0.5908203 0.5239258 0.5830078 0.5136719 C 0.5844726 0.51123047 0.5834961 0.506836 0.5859375 0.5053711 C 0.5913086 0.5083008 0.5952148 0.5053711 0.5996094 0.5039063 C 0.60253906 0.5043946 0.6030274 0.506836 0.60644525 0.506836 C 0.61279297 0.5078126 0.60644525 0.4965821 0.6123046 0.4970704 C 0.6186523 0.496582 0.625 0.5009766 0.628418 0.4956055 C 0.6303711 0.4873047 0.6191406 0.4868164 0.6245117 0.4790039 Z M 0.6533203 0.4326172 C 0.6523438 0.4282227 0.6503906 0.425293 0.6450195 0.4257812 C 0.64160144 0.4282226 0.6342773 0.4379882 0.6411133 0.4418945 C 0.64160156 0.4418945 0.6420899 0.4418945 0.64257807 0.4418945 C 0.6469727 0.4399414 0.6513672 0.4375 0.6533203 0.4326172 Z M 0.6630859 0.440918 C 0.6582031 0.4423828 0.652832 0.4433594 0.6518555 0.4487305 C 0.6533203 0.4487305 0.65380865 0.4501953 0.6547852 0.4501953 C 0.6572266 0.4501953 0.6591797 0.4501953 0.6616211 0.4501953 C 0.6694336 0.449707 0.6660156 0.4443359 0.6630859 0.440918 Z M 0.675293 0.4296875 C 0.6713867 0.4287109 0.671875 0.4316406 0.668457 0.4311523 C 0.6713867 0.4375 0.6723633 0.4360352 0.6699219 0.4433594 C 0.671875 0.4433594 0.6733399 0.4433594 0.67529297 0.4433594 C 0.6772461 0.440918 0.6772461 0.4321289 0.675293 0.4296875 Z M 0.7553711 0.3525391 C 0.7568359 0.3540039 0.7587891 0.3544922 0.762207 0.3540039 C 0.762207 0.3515625 0.762207 0.3496094 0.762207 0.347168 C 0.7573242 0.3466797 0.7553711 0.3486328 0.7553711 0.3525391 Z M 0.7304688 0.4023438 C 0.73144543 0.3964844 0.7275391 0.3955079 0.7275391 0.3911133 C 0.7304688 0.3876953 0.7250977 0.3808594 0.72070324 0.38037112 C 0.7138672 0.3852539 0.7192383 0.3945312 0.7182617 0.3979492 C 0.7172852 0.4038086 0.7070312 0.4057617 0.7124023 0.4130859 C 0.722168 0.4130859 0.7211914 0.402832 0.7304688 0.4023438 Z M 0.734375 0.4130859 C 0.7329102 0.4111328 0.7270508 0.4082031 0.7260742 0.4130859 C 0.7260742 0.41357422 0.7260742 0.4140625 0.7260742 0.41455072 C 0.7255859 0.4213867 0.7353516 0.418457 0.734375 0.4130859 Z M 0.8085938 0.3359375 C 0.80419934 0.3359375 0.8022461 0.3325195 0.79638684 0.3334961 C 0.79199237 0.3359375 0.79980487 0.340332 0.79638684 0.3417969 C 0.7915039 0.340332 0.7910156 0.3339844 0.7856445 0.3334961 C 0.7832031 0.3369141 0.78125 0.3413086 0.7758789 0.3417969 C 0.7753906 0.3417969 0.7749023 0.3417969 0.7744141 0.3417969 C 0.7666016 0.3442383 0.7631836 0.3500977 0.7675781 0.3583984 C 0.7636719 0.3623047 0.7583008 0.3608398 0.7539062 0.3623047 C 0.75048816 0.3603516 0.74267566 0.3579102 0.7387695 0.36083987 C 0.7358398 0.36083987 0.7358398 0.3623047 0.7329101 0.3623047 C 0.7358398 0.3691406 0.7329101 0.3701172 0.7319335 0.3759766 C 0.7319335 0.3764649 0.7319335 0.37695318 0.7319335 0.3774414 C 0.7285156 0.3779297 0.7314453 0.3842773 0.7304688 0.387207 C 0.7353516 0.3896484 0.7348633 0.3862304 0.7387696 0.3842773 C 0.7387696 0.39013672 0.74316406 0.3916015 0.7470704 0.3940429 C 0.7470704 0.39550772 0.7456056 0.39550772 0.7456056 0.39648432 C 0.74365246 0.39648432 0.7426759 0.3974609 0.7412111 0.39794913 C 0.7412111 0.39892572 0.7412111 0.39990222 0.7412111 0.40087882 C 0.7368164 0.4067383 0.7456055 0.4111328 0.7524414 0.4106445 C 0.7504883 0.402832 0.7553711 0.4018555 0.7563477 0.3964844 C 0.7563477 0.3950196 0.7563477 0.3930664 0.7563477 0.3911133 C 0.7626953 0.3916016 0.765625 0.3959961 0.7675781 0.4008789 C 0.7675781 0.40136722 0.7675781 0.4018555 0.7675781 0.40234372 C 0.76708984 0.40234372 0.7666015 0.40234372 0.76611334 0.40234372 C 0.7641602 0.4042969 0.7612305 0.4057617 0.762207 0.4106445 C 0.76367176 0.4106445 0.7641601 0.41210932 0.7646484 0.4130859 C 0.777832 0.4140625 0.77685535 0.4003906 0.7866211 0.39794922 C 0.7871094 0.3930664 0.7866211 0.38916013 0.7856445 0.38574222 C 0.7880859 0.38378912 0.78955066 0.3808594 0.79101557 0.3774414 C 0.79492176 0.3769531 0.80175775 0.37890622 0.80175775 0.37451172 C 0.7973633 0.3720703 0.7978516 0.3647461 0.793457 0.3623047 C 0.7939453 0.3603516 0.7929688 0.359375 0.7924805 0.3583984 C 0.796875 0.3574219 0.7973633 0.3608398 0.8017578 0.359375 C 0.8041992 0.3520508 0.8071289 0.3447266 0.8085938 0.3359375 Z M 0.8334961 0.5410156 C 0.8320313 0.5410156 0.8310547 0.5410156 0.8295899 0.5410156 C 0.8276368 0.54296875 0.8276368 0.5488281 0.8295899 0.55078125 C 0.8344727 0.5512695 0.8364258 0.5444336 0.8334961 0.5410156 Z M 0.8334961 0.300293 C 0.8334961 0.2949219 0.8286133 0.2944336 0.8227539 0.2949219 C 0.8208008 0.296875 0.8208008 0.29980472 0.8227539 0.3017578 C 0.815918 0.3056641 0.8051758 0.3056641 0.7978516 0.3085938 C 0.7973633 0.3144531 0.8017578 0.3149414 0.8032227 0.3183594 C 0.80517584 0.31884772 0.8056641 0.31982422 0.8076172 0.3183594 C 0.8125 0.315918 0.8227539 0.3188477 0.8227539 0.3115234 C 0.8227539 0.3100586 0.8227539 0.30859372 0.8227539 0.3071289 C 0.8232422 0.3071289 0.8232422 0.3071289 0.8237305 0.3071289 C 0.8227539 0.3007812 0.8310547 0.3032227 0.8334961 0.300293 Z M 0.9560547 0.300293 C 0.9536133 0.300293 0.9511719 0.300293 0.9492188 0.300293 C 0.9477539 0.3061523 0.953125 0.3071289 0.9560547 0.3046875 C 0.9560547 0.3032227 0.9560547 0.3017578 0.9560547 0.300293 Z M 0.5654297 0.2978516 C 0.5693359 0.3110352 0.5927734 0.309082 0.5913086 0.2919922 C 0.5795898 0.2880859 0.578125 0.300293 0.5693359 0.293457 C 0.5703125 0.2973633 0.5664062 0.2963867 0.5654297 0.2978516 Z M 0.4541016 0.3139648 C 0.4541016 0.31005862 0.4575196 0.3095703 0.45800778 0.3061523 C 0.4506836 0.30761713 0.45214838 0.30078122 0.44580078 0.3017578 C 0.4462891 0.3081055 0.4501953 0.3110352 0.4541016 0.3139648 Z M 0.4702148 0.3017578 C 0.4702148 0.3168945 0.48046872 0.321289 0.48291013 0.33349612 C 0.49072263 0.33447272 0.49462894 0.33154303 0.49511713 0.3251953 C 0.4931641 0.3222656 0.4853516 0.3256836 0.4853516 0.3212891 C 0.4916992 0.3120117 0.4785156 0.296875 0.4702148 0.3017578 Z M 0.4155273 0.3359375 C 0.4155273 0.3359375 0.4155273 0.3354492 0.4155273 0.3349609 C 0.4116211 0.3325195 0.4199219 0.3310547 0.4208984 0.3291016 C 0.4179688 0.3276367 0.4165039 0.324707 0.4125977 0.3237305 C 0.4101562 0.3266602 0.4106445 0.3359375 0.4155273 0.3359375 Z M 0.4306641 0.3525391 C 0.4326172 0.3520508 0.4375 0.3544922 0.4375 0.3510742 C 0.4321289 0.3476562 0.4350586 0.33398438 0.4399414 0.3320312 C 0.4389648 0.3286132 0.4350586 0.3208007 0.4321289 0.32373038 C 0.4345703 0.3261718 0.4350586 0.33105457 0.4345703 0.33593738 C 0.4321289 0.33593738 0.43164062 0.33789048 0.42919922 0.3374022 C 0.4257812 0.3364258 0.425293 0.3330078 0.4223633 0.3320312 C 0.4243164 0.33935538 0.41845712 0.33935538 0.4179688 0.3442382 C 0.4213868 0.3442382 0.42480472 0.3442382 0.4277344 0.3442382 C 0.4296875 0.3461914 0.4287109 0.3510742 0.4306641 0.3525391 Z M 0.3081055 0.4130859 C 0.3100586 0.4077148 0.3198243 0.41015622 0.3203125 0.4038086 C 0.3134766 0.4018555 0.3095703 0.3974609 0.3051758 0.3925781 C 0.3076172 0.3989258 0.3081055 0.4086914 0.3081055 0.4130859 Z M 0.1801758 0.5756836 C 0.1767578 0.58007807 0.1723633 0.5756836 0.16650389 0.578125 C 0.1694336 0.5830078 0.1674805 0.5864258 0.1689453 0.5908203 C 0.1694336 0.5834961 0.1855469 0.5844727 0.1801758 0.5756836 Z M 0.1181641 0.671875 C 0.1171875 0.6669922 0.1210938 0.6660156 0.1181641 0.6635742 C 0.112793 0.6630859 0.1088867 0.6640625 0.1098633 0.6704102 C 0.1142578 0.6694336 0.1142578 0.6728516 0.1181641 0.671875 Z"/>
</defs>
<g>
<g>
<rect x="0" y="0" width="720" height="51.4286" class="band1"/>
<rect x="0" y="51.4286" width="720" height="51.4286" class="band2"/>
<rect x="0" y="102.8571" width="720" height="51.4286" class="band3"/>
<rect x="0" y="154.2857" width="720" height="51.4286" class="band4"/>
<rect x="0" y="205.7143" width="720" height="51.4286" class="band5"/>
<rect x="0" y="257.1429" width="720" height="51.4286" class="band6"/>
<rect x="0" y="308.5714" width="720" height="51.4286" class="band7"/>
</g>
<use xlink:href="#kiss" transform="translate(16.2 27) scale(216 216) rotate(0)" class="lipstick"/>
</g>
</svg>
