<?xml version="1.0"?>
<svg xmlns="http://www.w3.org/2000/svg" xmlns:xlink="http://www.w3.org/1999/xlink" version="1.1" width="720" height="360" viewBox="0 0 720 360">
<!-- Generated by Kreative Vexillo v1.0 -->
<style>
.black{fill:rgb(0,0,0);}
.blue{fill:rgb(0,0,255);}
.red{fill:rgb(255,0,0);}
.white{fill:rgb(255,255,255);}
</style>
<defs>
<path id="disc" d="M 0.5 0.0 A 0.5 0.5 0.0 0 0 -0.5 0.0 A 0.5 0.5 0.0 0 0 0.5 0.0 Z"/>
<path id="squel" d="M 0.0 -0.4366 C -0.049 -0.4366 -0.0967 -0.4166 -0.131 -0.3816 C -0.16479999 -0.3471 -0.18349999 -0.30159998 -0.18349999 -0.2532 C -0.18349999 -0.1521 -0.10119999 -0.06979999 -9.998679E-5 -0.06979999 C 0.023900013 -0.06979999 0.047300015 -0.07439999 0.069500014 -0.08349999 C 0.077100016 -0.08659999 0.084500015 -0.09019999 0.091600016 -0.09439999 L 0.09180002 -0.09409999 C 0.16810003 -0.138 0.26500002 -0.14119999 0.34650004 -0.09419999 C 0.38390005 -0.07259999 0.41450006 -0.04259999 0.43640006 -0.006799996 C 0.433 -0.2443 0.2385 -0.4366 0.0 -0.4366 Z M 0.0 -0.2021 C -0.0282 -0.2021 -0.0511 -0.225 -0.0511 -0.2532 S -0.0282 -0.3043 0.0 -0.3043 C 0.0282 -0.3043 0.0511 -0.28140002 0.0511 -0.2532 S 0.0282 -0.2021 0.0 -0.2021 Z"/>
</defs>
<g>
<g>
<rect x="0" y="0" width="720" height="40" class="black"/>
<rect x="0" y="40" width="720" height="40" class="blue"/>
<rect x="0" y="80" width="720" height="40" class="black"/>
<rect x="0" y="120" width="720" height="40" class="blue"/>
<rect x="0" y="160" width="720" height="40" class="white"/>
<rect x="0" y="200" width="720" height="40" class="blue"/>
<rect x="0" y="240" width="720" height="40" class="black"/>
<rect x="0" y="280" width="720" height="40" class="blue"/>
<rect x="0" y="320" width="720" height="40" class="black"/>
</g>
<use xlink:href="#disc" transform="translate(360 180) scale(252 252) rotate(0)" class="white"/>
<use xlink:href="#squel" transform="translate(360 180) scale(252 252) rotate(120)" class="red"/>
<use xlink:href="#squel" transform="translate(360 180) scale(252 252) rotate(240)" class="red"/>
<use xlink:href="#squel" transform="translate(360 180) scale(252 252) rotate(360)" class="red"/>
</g>
</svg>
