<?xml version="1.0"?>
<svg xmlns="http://www.w3.org/2000/svg" xmlns:xlink="http://www.w3.org/1999/xlink" version="1.1" width="720" height="360" viewBox="0 0 720 360">
<!-- Generated by Kreative Vexillo v1.0 -->
<style>
.black{fill:rgb(0,0,0);}
.blue{fill:rgb(0,0,255);}
.green{fill:rgb(0,153,0);}
.orange{fill:rgb(255,153,0);}
.purple{fill:rgb(153,0,153);}
.red{fill:rgb(255,0,0);}
.white{fill:rgb(255,255,255);}
.yellow{fill:rgb(255,255,0);}
</style>
<defs>
<clipPath id="clip0">
<path d="M 0 0 L 360 180 L 0 360 Z"/>
</clipPath>
<clipPath id="clip1">
<path d="M 0 0 L 720 0 L 720 360 L 0 360 L 360 180 Z"/>
</clipPath>
<clipPath id="clip2">
<rect x="0" y="0" width="720" height="360"/>
</clipPath>
<clipPath id="clip3">
<path d="M -16.0873 32.2056 L 343.9127 212.2056 L 376.0873 147.7944 L 16.0873 -32.2056 L -16.0873 32.2056 Z"/>
<path d="M 343.9127 147.7944 L -16.0873 327.7944 L 16.0873 392.2056 L 376.0873 212.2056 L 343.9127 147.7944 Z"/>
<path d="M 360 216 L 720 216 L 720 144 L 360 144 L 360 216 Z"/>
</clipPath>
</defs>
<g>
<g>
<rect x="0" y="0" width="720" height="60" class="red"/>
<rect x="0" y="60" width="720" height="60" class="orange"/>
<rect x="0" y="120" width="720" height="60" class="yellow"/>
<rect x="0" y="180" width="720" height="60" class="green"/>
<rect x="0" y="240" width="720" height="60" class="blue"/>
<rect x="0" y="300" width="720" height="60" class="purple"/>
</g>
<g clip-path="url(#clip0)">
<path d="M -26.8121 53.676 L 333.1879 233.676 L 386.8121 126.324 L 26.8121 -53.676 L -26.8121 53.676 Z" class="black"/>
<path d="M 333.1879 126.324 L -26.8121 306.324 L 26.8121 413.676 L 386.8121 233.676 L 333.1879 126.324 Z" class="black"/>
</g>
<g clip-path="url(#clip1)">
<path d="M -26.8121 53.676 L 333.1879 233.676 L 386.8121 126.324 L 26.8121 -53.676 L -26.8121 53.676 Z" class="white"/>
<path d="M 333.1879 126.324 L -26.8121 306.324 L 26.8121 413.676 L 386.8121 233.676 L 333.1879 126.324 Z" class="white"/>
<path d="M 360 240 L 720 240 L 720 120 L 360 120 L 360 240 Z" class="white"/>
</g>
<g clip-path="url(#clip2)">
<g clip-path="url(#clip3)">
<g>
<rect x="0" y="0" width="720" height="60" class="red"/>
<rect x="0" y="60" width="720" height="60" class="orange"/>
<rect x="0" y="120" width="720" height="60" class="yellow"/>
<rect x="0" y="180" width="720" height="60" class="green"/>
<rect x="0" y="240" width="720" height="60" class="blue"/>
<rect x="0" y="300" width="720" height="60" class="purple"/>
</g>
</g>
</g>
</g>
</svg>
