<?xml version="1.0"?>
<svg xmlns="http://www.w3.org/2000/svg" xmlns:xlink="http://www.w3.org/1999/xlink" version="1.1" width="720" height="360" viewBox="0 0 720 360">
<!-- Generated by Kreative Vexillo v1.0 -->
<style>
.black{fill:rgb(0,0,0);}
.red{fill:rgb(211,32,17);}
.yellow{fill:rgb(252,200,0);}
</style>
<defs>
<path id="blackband" d="M 0.578 1.0 L 1.0 0.641 L 1.0 0.476 L 0.585 0.828 L 0.415 0.422 L 0.0 0.422 L 0.0 0.569 L 0.369 0.569 L 0.549 1.0 Z"/>
<path id="redband" d="M 1.0 0.212 L 0.632 0.524 L 0.489 0.186 L 0.0 0.186 L 0.0 0.613 L 0.355 0.613 L 0.517 1.0 L 0.637 1.0 L 1.0 0.691 Z"/>
<path id="yellowband" d="M 1.0 0.262 L 0.623 0.582 L 0.475 0.23 L 0.0 0.23 L 0.0 0.377 L 0.428 0.377 L 0.594 0.771 L 1.0 0.426 Z"/>
</defs>
<g>
<rect x="0" y="0" width="720" height="360" class="black"/>
<use xlink:href="#redband" transform="translate(0 0) scale(720 360) rotate(0)" class="red"/>
<use xlink:href="#blackband" transform="translate(0 0) scale(720 360) rotate(0)" class="black"/>
<use xlink:href="#yellowband" transform="translate(0 0) scale(720 360) rotate(0)" class="yellow"/>
</g>
</svg>
