<?xml version="1.0"?>
<svg xmlns="http://www.w3.org/2000/svg" xmlns:xlink="http://www.w3.org/1999/xlink" version="1.1" width="600" height="360" viewBox="0 0 600 360">
<!-- Generated by Kreative Vexillo v1.0 -->
<style>
.blue{fill:rgb(0,43,127);}
.red{fill:rgb(232,17,45);}
.white{fill:rgb(255,255,255);}
</style>
<defs>
<path id="star5" d="M 0.0 -1.0 L 0.261238 -0.359563 L 0.951057 -0.309017 L 0.422691 0.137341 L 0.587785 0.809017 L 0.0 0.444444 L -0.587785 0.809017 L -0.422691 0.137341 L -0.951057 -0.309017 L -0.261238 -0.359563 Z"/>
<path id="star7" d="M 0.0 -1.0 L 0.192837 -0.40043 L 0.781831 -0.62349 L 0.433301 -0.098898 L 0.974928 0.222521 L 0.34748 0.277106 L 0.433884 0.900969 L 0.0 0.444444 L -0.433884 0.900969 L -0.34748 0.277106 L -0.974928 0.222521 L -0.433301 -0.098898 L -0.781831 -0.62349 L -0.192837 -0.40043 Z"/>
<clipPath id="clip0">
<path d="M 0 0 L 0 13.9943 L 0 13.9943 L 126.6762 90 L 126.6762 90 L 0 166.0057 L 0 180 L 23.3238 180 L 150 103.9943 L 276.6762 180 L 300 180 L 300 166.0057 L 173.3238 90 L 300 13.9943 L 300 0 L 276.6762 0 L 150 76.0057 L 23.3238 0 Z"/>
</clipPath>
</defs>
<g>
<rect x="0" y="0" width="600" height="360" class="blue"/>
<g>
<path d="M 0 0 L 0 20.9914 L 115.0143 90 L 115.0143 90 L 0 159.0086 L 0 159.0086 L 0 180 L 34.9857 180 L 150 110.9914 L 150 110.9914 L 150 110.9914 L 150 110.9914 L 150 110.9914 L 150 110.9914 L 265.0143 180 L 300 180 L 300 159.0086 L 300 159.0086 L 184.9857 90 L 300 20.9914 L 300 0 L 265.0143 0 L 150 69.0086 L 150 69.0086 L 150 69.0086 L 150 69.0086 L 34.9857 0 Z" class="white"/>
<g clip-path="url(#clip0)">
<path d="M 0 0 L 150 90 L 0 90 Z" class="red"/>
<path d="M 300 0 L 150 90 L 150 0 Z" class="red"/>
<path d="M 0 180 L 150 90 L 150 180 Z" class="red"/>
<path d="M 300 180 L 150 90 L 300 90 Z" class="red"/>
</g>
<g>
<rect x="0" y="60" width="300" height="60" class="white"/>
<rect x="120" y="0" width="60" height="180" class="white"/>
</g>
<g>
<rect x="0" y="72" width="300" height="36" class="red"/>
<rect x="132" y="0" width="36" height="180" class="red"/>
</g>
</g>
<g>
<use xlink:href="#star7" transform="translate(150 270) scale(45 45) rotate(0)" class="white"/>
<use xlink:href="#star7" transform="translate(450 300) scale(21.4286 21.4286) rotate(0)" class="white"/>
<use xlink:href="#star7" transform="translate(375 157.5) scale(21.4286 21.4286) rotate(0)" class="white"/>
<use xlink:href="#star7" transform="translate(450 60) scale(21.4286 21.4286) rotate(0)" class="white"/>
<use xlink:href="#star7" transform="translate(516.6667 133.5) scale(21.4286 21.4286) rotate(0)" class="white"/>
<use xlink:href="#star5" transform="translate(480 195) scale(12.5 12.5) rotate(0)" class="white"/>
</g>
</g>
</svg>
