<?xml version="1.0"?>
<svg xmlns="http://www.w3.org/2000/svg" xmlns:xlink="http://www.w3.org/1999/xlink" version="1.1" width="600" height="360" viewBox="0 0 600 360">
<!-- Generated by Kreative Vexillo v1.0 -->
<style>
.black{fill:rgb(0,0,0);}
.blue{fill:rgb(0,74,143);}
.yellow{fill:rgb(253,185,51);}
</style>
<defs>
<path id="trident" d="M 0.0 -0.4845 C -0.0325 -0.3959 -0.0656 -0.3036 -0.1365 -0.233 C -0.1145 -0.2402 -0.076 -0.2467 -0.0512 -0.2461 L -0.0512 0.1266 L -0.1565 0.1423 C -0.1602 0.1419 -0.1615 0.136 -0.1615 0.128 C -0.1716 0.0123 -0.199 -0.085 -0.2305 -0.1856 C -0.2327 -0.1994 -0.2726 -0.2519 -0.2419 -0.2426 C -0.2381 -0.2421 -0.197 -0.2254 -0.2035 -0.2334 C -0.2595 -0.2914 -0.3414 -0.3331 -0.4209 -0.3455 C -0.4279 -0.3472 -0.432 -0.3437 -0.4257 -0.3356 C -0.3202 -0.1733 -0.232 0.0184 -0.2327 0.2458 C -0.1917 0.2458 -0.0924 0.2215 -0.0512 0.2215 C -0.0512 0.2215 -0.0512 0.4845 -0.0512 0.4845 L 0.0 0.4845 L 0.0125 -0.25 Z"/>
</defs>
<g>
<g>
<rect x="0" y="0" width="200" height="360" class="blue"/>
<rect x="200" y="0" width="200" height="360" class="yellow"/>
<rect x="400" y="0" width="200" height="360" class="blue"/>
</g>
<use xlink:href="#trident" transform="translate(300 180) scale(200 200) rotate(0)" class="black"/>
<use xlink:href="#trident" transform="translate(300 180) scale(-200 200) rotate(0)" class="black"/>
</g>
</svg>
