<?xml version="1.0"?>
<svg xmlns="http://www.w3.org/2000/svg" xmlns:xlink="http://www.w3.org/1999/xlink" version="1.1" width="600" height="360" viewBox="0 0 600 360">
<!-- Generated by Kreative Vexillo v1.0 -->
<style>
.red{fill:rgb(255,0,0);}
.white{fill:rgb(255,255,255);}
</style>
<defs>
<path id="leaf" d="M 499.99228 46.875 L 465.87915 110.50029 C 462.0083 117.4153 455.07288 116.77392 448.13745 112.91167 L 423.44046 100.123085 L 441.8475 197.85019 C 445.71835 215.70438 433.29892 215.70438 427.16986 207.98454 L 384.06882 159.73355 L 377.07144 184.23656 C 376.26453 187.45433 372.71664 190.834 367.39395 190.02917 L 312.89218 178.57005 L 327.20743 230.6148 C 330.27194 242.19534 332.66232 246.99008 324.11368 250.0444 L 304.6875 259.17465 L 398.5088 335.38303 C 402.2223 338.26453 404.0985 343.45 402.77646 348.14514 L 394.5651 375.09222 C 426.86914 371.3685 455.8141 365.7663 488.1345 362.31604 C 490.98773 362.01144 495.76437 366.72012 495.74478 370.0266 L 491.46454 468.75003 L 507.17093 468.75003 L 504.69855 370.23834 C 504.67883 366.93185 509.01227 362.01144 511.8655 362.31604 C 544.1859 365.7663 573.13086 371.36853 605.43494 375.09222 L 597.2236 348.14514 C 595.90155 343.45004 597.7778 338.26456 601.4913 335.38306 L 695.3125 259.17468 L 675.88635 250.04443 C 667.3377 246.99013 669.7281 242.19539 672.7926 230.61484 L 687.10785 178.57008 L 632.6061 190.0292 C 627.2834 190.83403 623.73553 187.45436 622.9286 184.2366 L 615.9312 159.7336 L 572.8302 207.98459 C 566.7011 215.70442 554.2817 215.70442 558.1525 197.85023 L 576.5596 100.12312 L 551.8626 112.911705 C 544.927 116.77396 537.99176 117.41534 534.1209 110.50033 Z"/>
</defs>
<g>
<g>
<rect x="0" y="0" width="150" height="360" class="red"/>
<rect x="150" y="0" width="300" height="360" class="white"/>
<rect x="450" y="0" width="150" height="360" class="red"/>
</g>
<use xlink:href="#leaf" transform="translate(0 30) scale(0.6 0.6) rotate(0)" class="red"/>
</g>
</svg>
