<?xml version="1.0"?>
<svg xmlns="http://www.w3.org/2000/svg" xmlns:xlink="http://www.w3.org/1999/xlink" version="1.1" width="600" height="360" viewBox="0 0 600 360">
<!-- Generated by Kreative Vexillo v1.0 -->
<style>
.black{fill:rgb(0,0,0);}
.red{fill:rgb(232,66,63);}
.white{fill:rgb(255,255,255);}
</style>
<defs>
<path id="e1" d="M 0.2616 0.1515 C 0.2616 0.1515 0.26079997 0.15 0.26029998 0.1491 C 0.2598 0.1482 0.2589 0.14680001 0.2589 0.14680001 C 0.23329999 0.105100006 0.19569999 0.08220001 0.15289998 0.08220001 C 0.13209999 0.08220001 0.110899985 0.08780001 0.09319998 0.09800001 C 0.08769998 0.101200014 0.082699984 0.10440001 0.078399986 0.10770001 C 0.080099985 0.10280001 0.081899986 0.09700001 0.08369999 0.08920001 C 0.086299986 0.077900015 0.084999986 0.06880001 0.079699986 0.062000014 C 0.077499986 0.059100013 0.07449999 0.056700014 0.07099999 0.054800015 C 0.07419999 0.052200016 0.07629999 0.048000015 0.07629999 0.043400016 C 0.07629999 0.043300014 0.07629999 0.043300014 0.07629999 0.043200016 C 0.083199985 0.041700017 0.088499986 0.035100017 0.088499986 0.027200015 C 0.088499986 0.019300016 0.08329999 0.012700016 0.07629999 0.0112000145 C 0.07629999 0.0112000145 0.07629999 0.011100015 0.07629999 0.011100015 C 0.07629999 0.003200015 0.070399985 -0.0031999853 0.06309999 -0.0031999853 H 0.0479 V -0.4688 H -0.023900002 V -0.43400002 H -0.1008 V -0.3966 H -0.1187 V -0.43400002 H -0.22049999 V -0.3623 H -0.15129998 V -0.34170002 H -0.22049999 V -0.27010003 H -0.11869999 V -0.30690002 H -0.10079999 V -0.27010003 H -0.06339999 V -0.25230002 H -0.10079999 V -0.21490002 H -0.11869999 V -0.25230002 H -0.22049999 V -0.18070003 H -0.15129998 V -0.16000003 H -0.22049999 V -0.08840003 H -0.11869999 V -0.12520003 H -0.10079999 V -0.088400036 H -0.023899995 V -0.0034 H -0.038499996 C -0.045799997 -0.0034 -0.051799998 0.0029999998 -0.051799998 0.0109 C -0.051799998 0.0109 -0.051799998 0.011 -0.051799998 0.011 C -0.0587 0.0125 -0.063999996 0.0191 -0.063999996 0.027 C -0.063999996 0.034900002 -0.058799997 0.041500002 -0.051799998 0.043 C -0.051799998 0.043100003 -0.051799998 0.043100003 -0.051799998 0.0432 C -0.051799998 0.047900002 -0.0497 0.052 -0.0466 0.0546 C -0.0502 0.0565 -0.053099997 0.0589 -0.0554 0.0619 C -0.060599998 0.0687 -0.061899997 0.077800006 -0.059299998 0.0891 C -0.0569 0.0995 -0.0545 0.106300004 -0.0523 0.1123 C -0.0581 0.1075 -0.064899996 0.1027 -0.0732 0.0981 C -0.0907 0.0882 -0.1117 0.0827 -0.1322 0.0827 C -0.1753 0.0827 -0.2131 0.1059 -0.2386 0.14809999 C -0.2386 0.14809999 -0.2395 0.14959998 -0.24 0.15039998 C -0.24049999 0.15119998 -0.2413 0.15279998 -0.2413 0.15279998 C -0.2602 0.18829998 -0.26410002 0.22409998 -0.2527 0.25649998 C -0.24340001 0.28299996 -0.2239 0.30609998 -0.1993 0.32009998 C -0.1875 0.3268 -0.1761 0.33139998 -0.16510001 0.334 C -0.17510001 0.3391 -0.18190001 0.34919998 -0.18190001 0.3608 C -0.18190001 0.3775 -0.16770001 0.3912 -0.15020001 0.3912 C -0.1401 0.3912 -0.13110001 0.3867 -0.1253 0.37960002 C -0.123500004 0.4047 -0.1124 0.42940003 -0.09420001 0.44820002 C -0.069900006 0.47340003 -0.03420001 0.48720002 0.008999996 0.48830003 C 0.008999996 0.48830003 0.010899996 0.4884 0.011899996 0.4884 C 0.012899996 0.4884 0.014799995 0.48830003 0.014799995 0.48830003 C 0.058 0.48720002 0.0937 0.47340003 0.118 0.44820002 C 0.1362 0.42940003 0.1473 0.4047 0.1491 0.37960002 C 0.1549 0.3867 0.1639 0.39130002 0.17400001 0.39130002 C 0.19150001 0.39130002 0.20570001 0.37770003 0.20570001 0.3609 C 0.20570001 0.3485 0.19790001 0.3379 0.1868 0.33310002 C 0.1976 0.33040002 0.2089 0.32580003 0.2205 0.31910002 C 0.245 0.305 0.2644 0.28170002 0.2735 0.25520003 C 0.2849 0.2226 0.2807 0.1868 0.2616 0.1515 Z M 0.1024 0.1951 C 0.0817 0.1832 0.07969999 0.175 0.0786 0.17009999 C 0.07839999 0.16929999 0.0782 0.16849999 0.077999994 0.1679 C 0.077599995 0.1665 0.0782 0.16319999 0.0817 0.1585 C 0.0896 0.1477 0.1112 0.13170001 0.1382 0.13170001 C 0.16510001 0.13170001 0.1894 0.1481 0.2083 0.1789 C 0.2258 0.2112 0.2276 0.2405 0.2138 0.2638 C 0.1996 0.28759998 0.17289999 0.2987 0.1593 0.2987 C 0.1545 0.2987 0.1529 0.2974 0.1525 0.297 C 0.15200001 0.2965 0.1515 0.296 0.1509 0.2954 C 0.1474 0.2922 0.141 0.2861 0.1411 0.26229998 L 0.1411 0.2566 L 0.136 0.259 C 0.13270001 0.2605 0.12990001 0.2626 0.12760001 0.26500002 C 0.12440001 0.2515 0.111800015 0.24150002 0.096800014 0.24150002 C 0.079300016 0.24150002 0.065100014 0.2551 0.065100014 0.27190003 C 0.065100014 0.28230003 0.07060002 0.29150003 0.07890002 0.29700002 C 0.06930002 0.29940003 0.060900018 0.30380002 0.055500016 0.30980003 C 0.050200015 0.31550002 0.047800016 0.32250002 0.048500016 0.33000004 L 0.049000017 0.33530003 L 0.05370002 0.33280003 C 0.06530002 0.32670003 0.074900016 0.32360002 0.08230002 0.32360002 C 0.08590002 0.32360002 0.08840002 0.32430002 0.090400025 0.32490003 C 0.091200024 0.32510003 0.09200002 0.32530004 0.09270003 0.32550004 C 0.09860003 0.32670003 0.106200024 0.34320003 0.104400024 0.36360005 C 0.102700025 0.38290006 0.090400025 0.42790005 0.01220002 0.42990005 C -0.06619998 0.42790005 -0.07849998 0.38290006 -0.08019998 0.36360005 C -0.08189998 0.34320006 -0.07439998 0.32670003 -0.06849998 0.32550004 C -0.067799985 0.32540005 -0.06709998 0.32520005 -0.06629998 0.32490003 C -0.064299986 0.32430002 -0.061699983 0.32360002 -0.05809998 0.32360002 C -0.050699983 0.32360002 -0.04109998 0.32670003 -0.029499982 0.33280003 L -0.024799982 0.33530003 L -0.024299983 0.33000004 C -0.023599982 0.32260004 -0.026099984 0.31560004 -0.031299982 0.30980003 C -0.036899984 0.30370003 -0.04549998 0.29920003 -0.055399984 0.29690003 C -0.046799984 0.29150003 -0.041099984 0.28210002 -0.041099984 0.27150002 C -0.041099984 0.25470003 -0.055299982 0.24110001 -0.07279998 0.24110001 C -0.08899998 0.24110001 -0.10249998 0.2529 -0.10429998 0.268 C -0.10699998 0.2645 -0.11059998 0.26160002 -0.11489998 0.2596 L -0.119999975 0.2572 L -0.11989997 0.2628 C -0.119599976 0.2867 -0.12569997 0.29250002 -0.12939997 0.296 C -0.12999997 0.2966 -0.13059998 0.2971 -0.13099997 0.2976 C -0.13139997 0.298 -0.13299997 0.2994 -0.13799997 0.2994 C -0.13799997 0.2994 -0.13799997 0.2994 -0.13799997 0.2994 C -0.15159997 0.2994 -0.17839997 0.2884 -0.19259997 0.2647 C -0.20649996 0.24149999 -0.20479997 0.2122 -0.18769997 0.1801 C -0.16879997 0.14879999 -0.14449997 0.1322 -0.117399976 0.1322 C -0.090499975 0.1322 -0.068999976 0.1481 -0.061099976 0.1587 C -0.057699975 0.16330001 -0.056999978 0.1666 -0.057399977 0.168 C -0.057599977 0.1686 -0.057799976 0.16939999 -0.057899978 0.17019999 C -0.058899976 0.1748 -0.060899977 0.18339999 -0.08149998 0.19539998 L -0.08639998 0.19829999 L -0.08169998 0.20149998 C -0.07689998 0.20469998 -0.07159998 0.20639998 -0.06589998 0.20639998 C -0.054399982 0.20639998 -0.042199984 0.19939998 -0.033399984 0.18759997 C -0.031999983 0.18579997 -0.030799985 0.18389997 -0.029699985 0.18199997 C -0.028999984 0.20379996 -0.010499984 0.22129996 0.0122000165 0.22129996 C 0.033200018 0.22129996 0.05060002 0.20629996 0.053700015 0.18679996 C 0.053900015 0.18709996 0.054100014 0.18729995 0.054300014 0.18759996 C 0.06320001 0.19929996 0.07540001 0.20629996 0.08680001 0.20629996 C 0.09250001 0.20629996 0.09790001 0.20459996 0.10270001 0.20129997 L 0.10740001 0.19809997 L 0.1024 0.1951 Z M 0.1196 0.2929 C 0.119899996 0.2959 0.1206 0.299 0.1215 0.3021 C 0.1189 0.3004 0.1161 0.299 0.112900004 0.2979 C 0.1154 0.2965 0.1177 0.2948 0.1196 0.2929 Z M -0.0883 0.2978 C -0.0931 0.2994 -0.0972 0.3017 -0.1006 0.3046 C -0.099199995 0.3005 -0.098299995 0.2964 -0.098 0.2924 C -0.097899996 0.2915 -0.097899996 0.2906 -0.097799994 0.2898 C -0.0953 0.293 -0.092 0.2957 -0.0883 0.2978 Z M -0.1175 0.3291 C -0.1195 0.33380002 -0.1213 0.3393 -0.1226 0.3454 C -0.1251 0.3414 -0.1285 0.3379 -0.1326 0.33540002 C -0.1312 0.33510002 -0.12979999 0.3348 -0.1284 0.3345 C -0.1244 0.3334 -0.1207 0.3315 -0.1175 0.3291 Z M 0.1424 0.3306 C 0.1449 0.332 0.1475 0.3332 0.1503 0.3339 C 0.1525 0.3345 0.1549 0.3349 0.1573 0.3352 C 0.153 0.33780003 0.1495 0.3413 0.1469 0.34550002 C 0.1457 0.3399 0.1442 0.335 0.1424 0.3306 Z"/>
<path id="e2" d="M 0.0408 -0.4619 H -0.0167 V -0.0034 H 0.0408 V -0.4619 Z M -0.1257 -0.1324 H -0.0936 V -0.09560001 H -0.0238 V -0.4271 H -0.0936 V -0.3897 H -0.1257 V -0.4271 H -0.21329999 V -0.3696 H -0.14409998 V -0.3347 H -0.21329999 V -0.2773 H -0.1257 V -0.3141 H -0.0936 V -0.2773 H -0.056199998 V -0.2453 H -0.0936 V -0.20789999 H -0.1257 V -0.2453 H -0.21329999 V -0.18789999 H -0.14409998 V -0.153 H -0.21329999 V -0.095599994 H -0.1257 V -0.1324 Z"/>
<path id="e3" d="M 0.1425 0.3721 C 0.1425 0.4231 0.1025 0.4789 0.014799997 0.4811 C 0.014799997 0.4811 0.0129999975 0.48119998 0.012099997 0.48119998 C 0.011199997 0.48119998 0.009399997 0.4811 0.009399997 0.4811 C -0.07830001 0.479 -0.118300006 0.4231 -0.118300006 0.3721 C -0.118300006 0.336 -0.10470001 0.3179 -0.0966 0.3104 C -0.090900004 0.3052 -0.08140001 0.3021 -0.0706 0.3021 C -0.056800004 0.3021 -0.043500002 0.307 -0.0366 0.3145 C -0.0341 0.3173 -0.0324 0.3203 -0.0317 0.3236 C -0.042 0.3187 -0.0507 0.3163 -0.0581 0.3163 C -0.0627 0.3163 -0.065799996 0.3172 -0.0682 0.31780002 C -0.0688 0.31800002 -0.0694 0.3181 -0.0699 0.3183 C -0.0811 0.32050002 -0.0892 0.3418 -0.0873 0.3639 C -0.0859 0.3804 -0.0745 0.4345 0.012099996 0.43670002 C 0.09859999 0.43460003 0.11 0.38050002 0.11139999 0.36400002 C 0.113299996 0.34190002 0.10519999 0.32060003 0.094 0.31840003 C 0.093499996 0.31830004 0.09289999 0.31810004 0.092199996 0.31790003 C 0.089899994 0.31720003 0.08669999 0.31640002 0.0821 0.31640002 C 0.0747 0.31640002 0.066 0.31880003 0.055699997 0.3237 C 0.056399997 0.3204 0.058 0.31730002 0.060599998 0.31460002 C 0.067499995 0.30710003 0.0808 0.30220002 0.0946 0.30220002 C 0.095 0.30220002 0.0954 0.30220002 0.0958 0.30220002 C 0.096099995 0.30220002 0.0963 0.30220002 0.096599996 0.30220002 C 0.096599996 0.30220002 0.0967 0.30220002 0.0967 0.30220002 C 0.1066 0.30260003 0.1152 0.30550003 0.1205 0.3104 C 0.1289 0.3179 0.1425 0.336 0.1425 0.3721 Z M -0.0164 0.0954 C -0.0164 0.1174 -0.0036000004 0.1353 0.0122 0.1353 C 0.027999999 0.1353 0.040799998 0.1174 0.040799998 0.09539999 C 0.040799998 0.07339999 0.027999997 0.05549999 0.012199998 0.05549999 C -0.0036 0.0555 -0.0164 0.0734 -0.0164 0.0954 Z M 0.0121 0.2141 C 0.0313 0.2141 0.047 0.1991 0.047 0.1806 C 0.047 0.171 0.0427 0.1623 0.035899997 0.1562 C 0.035899997 0.1562 0.035799995 0.1561 0.035799995 0.1561 C 0.034999996 0.15540001 0.034099996 0.15470001 0.033199996 0.154 C 0.032999996 0.1538 0.032799996 0.1537 0.032599997 0.1535 C 0.031999998 0.1531 0.031299997 0.1526 0.030699996 0.1522 C 0.030299997 0.1519 0.029899996 0.1517 0.029399997 0.1515 C 0.028999997 0.1513 0.028599996 0.1511 0.028199997 0.1509 C 0.027499996 0.1506 0.026799997 0.15020001 0.026099997 0.1499 C 0.025799997 0.1498 0.025499996 0.1497 0.025199996 0.1495 C 0.024499996 0.14919999 0.023799997 0.149 0.023099996 0.1488 C 0.022899996 0.1487 0.022699997 0.1486 0.022399995 0.1486 C 0.021499995 0.14829999 0.020599995 0.1481 0.019599997 0.1479 C 0.019399997 0.1479 0.019099997 0.1478 0.018899996 0.1478 C 0.017899996 0.1476 0.016999995 0.1475 0.015999995 0.14739999 C 0.015799996 0.14739999 0.015599995 0.14739999 0.015399995 0.14739999 C 0.014299995 0.14729999 0.013299995 0.14719999 0.012199995 0.14719999 C 0.011099995 0.14719999 0.010099995 0.14729999 0.008999995 0.14739999 C 0.0087 0.1473 0.0085 0.1473 0.0083 0.1473 C 0.0072999997 0.1474 0.0062999995 0.14750001 0.0054 0.14770001 C 0.0052 0.14770001 0.0049 0.14780001 0.0047000004 0.14780001 C 0.0038000005 0.14800002 0.0028000004 0.14820002 0.0019000005 0.14850001 C 0.0017000005 0.14860001 0.0015000005 0.14860001 0.0012000005 0.14870001 C 5.0000055E-4 0.14890002 -1.9999943E-4 0.1492 -8.999994E-4 0.14940001 C -0.0011999994 0.14950001 -0.0014999994 0.14960001 -0.0017999994 0.14980002 C -0.0024999995 0.15010002 -0.0031999992 0.15040001 -0.0038999994 0.15080002 C -0.004299999 0.15100002 -0.0046999995 0.15120003 -0.0050999997 0.15140001 C -0.0055 0.1518 -0.0059 0.152 -0.0063 0.1523 C -0.007 0.1527 -0.0076 0.1531 -0.0083 0.1536 C -0.0084999995 0.15380001 -0.0087 0.15390001 -0.0089 0.1541 C -0.0098 0.1548 -0.0106999995 0.1555 -0.0115 0.1562 C -0.0115 0.1562 -0.0116 0.15630001 -0.0116 0.15630001 C -0.0184 0.1624 -0.0227 0.1711 -0.0227 0.1807 C -0.0227 0.199 -0.0071 0.2141 0.0121 0.2141 Z M 0.0462 0.0492 C 0.0508 0.0493 0.054899998 0.049799997 0.0587 0.050499998 H 0.063 C 0.066300005 0.050499998 0.069 0.0473 0.0691 0.043399997 H -0.044600002 C -0.0445 0.047299996 -0.041800003 0.050499998 -0.038500004 0.050499998 H -0.034300003 C -0.030500002 0.049799997 -0.026400004 0.049299996 -0.021800004 0.0492 C -0.018800003 0.049099997 -0.015100004 0.049 -0.0111000035 0.048899997 C -0.0058000037 0.048799995 -1.00003555E-4 0.048599996 0.004999997 0.048499998 C 0.005599997 0.048499998 0.008299997 0.048299998 0.012299998 0.048399996 C 0.012899998 0.048399996 0.013699997 0.048399996 0.014299998 0.048399996 C 0.017099999 0.048399996 0.018899998 0.048499998 0.019399999 0.048599996 C 0.024299998 0.048699997 0.029799998 0.048899997 0.034999996 0.048999995 C 0.0392 0.049 0.0431 0.0491 0.0462 0.0492 Z M -0.0231 0.1587 C -0.0172 0.1498 -0.0077 0.14320001 0.0033999998 0.1409 C -0.012 0.1357 -0.0234 0.117300004 -0.0234 0.095400006 C -0.0234 0.07890001 -0.0169 0.06430001 -0.0069999993 0.055900004 C -0.008299999 0.055900004 -0.009499999 0.056000005 -0.010799999 0.056000005 C -0.014699999 0.056100007 -0.018399999 0.056200005 -0.021499999 0.056300007 C -0.035299998 0.056700006 -0.044699997 0.060100008 -0.0495 0.066300005 C -0.0534 0.07130001 -0.0542 0.0784 -0.0521 0.087500006 C -0.0492 0.09990001 -0.046499997 0.10700001 -0.0438 0.113900006 C -0.0426 0.117000006 -0.0414 0.12010001 -0.0402 0.12370001 C -0.030499998 0.13460001 -0.026199998 0.1446 -0.0244 0.15100001 C -0.0242 0.1516 -0.0241 0.15230002 -0.0239 0.15290001 C -0.0238 0.1534 -0.0237 0.15400001 -0.0236 0.15450001 C -0.0236 0.15460001 -0.0236 0.15470001 -0.023500001 0.15480001 C -0.023400001 0.15540001 -0.023300001 0.15610002 -0.023300001 0.15680002 C -0.023300001 0.15680002 -0.023300001 0.15680002 -0.023300001 0.15680002 C -0.023200002 0.15740001 -0.023200002 0.15810002 -0.023200002 0.15870002 C -0.023100002 0.16180001 -0.023500001 0.16510002 -0.024200002 0.16830002 C -0.0235 0.1652 -0.0231 0.1619 -0.0231 0.1587 Z M -0.0486 0.0363 H -0.04 H 0.0647 H 0.073300004 C 0.077800006 0.0363 0.08140001 0.0321 0.08140001 0.026999999 C 0.08140001 0.021899998 0.077800006 0.0178 0.073300004 0.0178 H 0.065000005 H -0.040299997 H -0.048599996 C -0.053099997 0.0178 -0.056699995 0.0219 -0.056699995 0.026999999 C -0.0568 0.0322 -0.0531 0.0363 -0.0486 0.0363 Z M 0.0673 0.1169 C 0.0677 0.115899995 0.0681 0.1149 0.068399996 0.1139 C 0.0711 0.107 0.0738 0.0999 0.076699995 0.0875 C 0.07879999 0.0784 0.07789999 0.0713 0.07399999 0.0663 C 0.069199994 0.060099997 0.05979999 0.0567 0.045999993 0.0563 C 0.042899992 0.056199998 0.038999993 0.0561 0.034899995 0.055999998 C 0.033799995 0.055999998 0.032699995 0.055899996 0.031599995 0.055899996 C 0.041399993 0.06429999 0.047999993 0.07879999 0.047999993 0.0954 C 0.047999993 0.1173 0.036599994 0.1358 0.021099992 0.1409 C 0.030299991 0.1428 0.038399994 0.1477 0.04429999 0.1544 C 0.04449999 0.1533 0.04469999 0.15220001 0.04499999 0.15120001 C 0.0471 0.1434 0.0528 0.1306 0.0673 0.1169 Z M 0.063 0.0037 H -0.038499996 C -0.041799996 0.0037 -0.044499997 0.0068 -0.044599995 0.0107 H 0.06910001 C 0.069 0.0068 0.0663 0.0037 0.063 0.0037 Z M 0.1214 0.2719 C 0.1214 0.2591 0.1104 0.2486 0.0968 0.2486 C 0.0833 0.2486 0.0722 0.259 0.0722 0.2719 S 0.0832 0.2952 0.0968 0.2952 C 0.1104 0.2951 0.1214 0.2847 0.1214 0.2719 Z M 0.1742 0.3375 C 0.1607 0.3375 0.1496 0.3479 0.1496 0.3608 S 0.1606 0.3841 0.1742 0.3841 C 0.1877 0.3841 0.1988 0.3737 0.1988 0.3608 S 0.1878 0.3375 0.1742 0.3375 Z M 0.2553 0.1548 C 0.2553 0.1548 0.25449997 0.1534 0.2541 0.15269999 L 0.254 0.15249999 C 0.2536 0.15179999 0.25280002 0.15049998 0.25280002 0.15049998 C 0.2286 0.111 0.1931 0.0892 0.1529 0.0892 C 0.1334 0.0892 0.1134 0.0945 0.0967 0.103999995 C 0.0738 0.1172 0.0623 0.1312 0.0564 0.1419 C 0.0564 0.1419 0.0564 0.142 0.0563 0.142 C 0.0559 0.1428 0.0554 0.1436 0.055099998 0.1444 C 0.055099998 0.1445 0.054999996 0.1445 0.054999996 0.1446 C 0.054599997 0.1454 0.054299995 0.1461 0.053999998 0.14680001 C 0.053999998 0.14690001 0.053899996 0.14700001 0.053899996 0.14700001 C 0.053599995 0.14770001 0.053299997 0.14840001 0.053099997 0.14900002 C 0.053099997 0.14910002 0.052999996 0.14910002 0.052999996 0.14920002 C 0.052799996 0.14990002 0.052499995 0.15050003 0.052299995 0.15110002 C 0.052299995 0.15120003 0.052299995 0.15120003 0.052299995 0.15130003 C 0.052099995 0.15190002 0.051899996 0.15250003 0.051799994 0.15310003 C 0.051599994 0.15370002 0.051499993 0.15420003 0.051399995 0.15480003 C 0.051399995 0.15490003 0.051399995 0.15490003 0.051399995 0.15500003 C 0.051299993 0.15550002 0.051199995 0.15600003 0.051199995 0.15660003 C 0.051199995 0.15660003 0.051199995 0.15660003 0.051199995 0.15670003 C 0.051099993 0.15790004 0.050999995 0.15910003 0.051099993 0.16030003 C 0.051099993 0.16030003 0.051099993 0.16030003 0.051099993 0.16030003 C 0.051299993 0.16760004 0.054399993 0.17580003 0.059999995 0.18310003 C 0.06739999 0.19290003 0.0777 0.19900003 0.086899996 0.19900003 C 0.0892 0.19900003 0.0914 0.19860002 0.0936 0.19790003 C 0.07529999 0.18610002 0.0731 0.17680003 0.071899995 0.17170003 C 0.07179999 0.17110004 0.0716 0.17050003 0.071499996 0.17010003 C 0.070199996 0.16580003 0.07179999 0.16040003 0.07619999 0.15430003 C 0.087 0.13950004 0.111899994 0.12460004 0.13839999 0.12460004 C 0.159 0.12460004 0.1889 0.13340004 0.2146 0.17540003 C 0.2383 0.21920003 0.2306 0.24970004 0.22 0.26750004 C 0.2042 0.29400003 0.1751 0.30590004 0.1594 0.30590004 C 0.154 0.30590004 0.1498 0.30450004 0.1474 0.30190003 C 0.1471 0.30150002 0.14660001 0.30110002 0.1462 0.30070004 C 0.1423 0.29710004 0.1354 0.29060003 0.1343 0.26880005 C 0.12629999 0.27570006 0.12629999 0.28670004 0.1268 0.29170007 C 0.1284 0.30840006 0.1396 0.32390007 0.1522 0.32720006 C 0.1551 0.32790005 0.1598 0.32880005 0.1661 0.32880005 C 0.18169999 0.32880005 0.1994 0.32340005 0.2173 0.31310004 C 0.2626 0.2867 0.2939 0.2262 0.2553 0.1548 Z M -0.1302 0.3276 C -0.1176 0.3242 -0.1065 0.3085 -0.1051 0.2918 C -0.1046 0.2857 -0.1051 0.2756 -0.1128 0.26909998 C -0.1137 0.2909 -0.1206 0.29749998 -0.124400005 0.3011 C -0.124900006 0.3015 -0.1253 0.3019 -0.12560001 0.30229998 C -0.128 0.30499998 -0.1323 0.3065 -0.13790001 0.3065 C -0.13790001 0.3065 -0.13790001 0.3065 -0.13790001 0.3065 C -0.1536 0.3065 -0.18280001 0.2947 -0.19860001 0.26839998 C -0.20930001 0.2507 -0.21710001 0.22029999 -0.1938 0.17659998 C -0.1681 0.13399997 -0.1381 0.12509999 -0.117400005 0.12509999 C -0.091000006 0.12509999 -0.0662 0.13989998 -0.055400006 0.1545 C -0.054800007 0.15529999 -0.054300006 0.15609999 -0.053800005 0.15679999 C -0.053700004 0.15689999 -0.053700004 0.15699999 -0.053600006 0.15709999 C -0.053200006 0.15779999 -0.052800007 0.1584 -0.052500006 0.1591 C -0.052500006 0.1592 -0.052500006 0.1592 -0.052400004 0.1592 C -0.051700003 0.1607 -0.051100004 0.1621 -0.050700005 0.1635 C -0.050100006 0.16589999 -0.050000004 0.1681 -0.050600003 0.17 C -0.050800003 0.1705 -0.050900005 0.171 -0.051000003 0.1716 C -0.052200004 0.1768 -0.0542 0.1861 -0.072500005 0.198 C -0.07040001 0.1987 -0.06820001 0.1991 -0.06600001 0.1991 C -0.056800008 0.1991 -0.046500005 0.193 -0.039100006 0.1831 C -0.033600006 0.1758 -0.030600006 0.1676 -0.030400006 0.1603 C -0.030400006 0.1603 -0.030400006 0.1603 -0.030400006 0.1603 C -0.030400006 0.159 -0.030400006 0.1578 -0.030600006 0.1566 C -0.030600006 0.1566 -0.030600006 0.1565 -0.030600006 0.1565 C -0.030700006 0.156 -0.030700006 0.1554 -0.030800005 0.1549 C -0.030800005 0.1548 -0.030800005 0.1547 -0.030800005 0.1547 C -0.030900005 0.1541 -0.031100005 0.15349999 -0.031200005 0.153 C -0.031400006 0.1524 -0.031600006 0.15169999 -0.031800006 0.1511 C -0.031800006 0.1511 -0.031800006 0.1511 -0.031800006 0.1511 C -0.035400007 0.14029999 -0.046000004 0.12149999 -0.076500006 0.10429999 C -0.09300001 0.09499999 -0.11270001 0.08979999 -0.132 0.08979999 C -0.1726 0.08979999 -0.20820001 0.11179999 -0.2323 0.15179999 C -0.2323 0.15179999 -0.2332 0.15319999 -0.2335 0.1539 L -0.2336 0.1541 C -0.23400001 0.1547 -0.23470001 0.1561 -0.23470001 0.1561 C -0.2728 0.2277 -0.24100001 0.2881 -0.19540001 0.3139 C -0.1773 0.3241 -0.16020001 0.3293 -0.14450002 0.3293 C -0.1381 0.3293 -0.1332 0.3284 -0.1302 0.3276 Z M -0.1499 0.3375 C -0.16350001 0.3375 -0.1745 0.3479 -0.1745 0.3608 S -0.16350001 0.3841 -0.1499 0.3841 C -0.1363 0.3841 -0.1253 0.3737 -0.1253 0.3608 S -0.1363 0.3375 -0.1499 0.3375 Z M -0.0972 0.2714 C -0.0972 0.2842 -0.0862 0.2947 -0.0726 0.2947 C -0.059 0.2947 -0.048 0.2843 -0.048 0.2714 C -0.048 0.2586 -0.059 0.24810001 -0.0726 0.24810001 C -0.0862 0.2481 -0.0972 0.2586 -0.0972 0.2714 Z"/>
<path id="e4" d="M 0.0 -0.5 H 1.0 V 0.5 H 0.0 Z"/>
</defs>
<g>
<g>
<rect x="0" y="0" width="600" height="180" class="red"/>
<rect x="0" y="180" width="600" height="180" class="white"/>
</g>
<use xlink:href="#e1" transform="translate(300 180) scale(360 360) rotate(0)" class="black"/>
<use xlink:href="#e2" transform="translate(300 180) scale(360 360) rotate(0)" class="white"/>
<use xlink:href="#e3" transform="translate(300 180) scale(360 360) rotate(0)" class="red"/>
<use xlink:href="#e4" transform="translate(0 180) scale(600 2.5488) rotate(0)" class="black"/>
</g>
</svg>
