<?xml version="1.0"?>
<svg xmlns="http://www.w3.org/2000/svg" xmlns:xlink="http://www.w3.org/1999/xlink" version="1.1" width="600" height="360" viewBox="0 0 600 360">
<!-- Generated by Kreative Vexillo v1.0 -->
<style>
.blue{fill:rgb(0,62,126);}
.red{fill:rgb(239,65,53);}
.white{fill:rgb(255,255,255);}
</style>
<defs>
<path id="star" d="M 0.0 -1.0 L 0.2245 -0.309 L 0.9511 -0.309 L 0.3633 0.118 L 0.5878 0.809 L 0.0 0.382 L -0.5878 0.809 L -0.3633 0.118 L -0.9511 -0.309 L -0.2245 -0.309 Z"/>
<clipPath id="clip0">
<path d="M 0 0 L 0 13.9943 L 126.6762 90 L 0 166.0057 L 0 180 L 23.3238 180 L 150 103.9943 L 150 103.9943 L 276.6762 180 L 300 180 L 300 166.0057 L 173.3238 90 L 173.3238 90 L 300 13.9943 L 300 0 L 276.6762 0 L 150 76.0057 L 150 76.0057 L 23.3238 0 Z"/>
</clipPath>
</defs>
<g>
<rect x="0" y="0" width="600" height="360" class="blue"/>
<g>
<path d="M 0 0 L 0 20.9914 L 0 20.9914 L 115.0143 90 L 115.0143 90 L 0 159.0086 L 0 159.0086 L 0 180 L 34.9857 180 L 150 110.9914 L 150 110.9914 L 265.0143 180 L 300 180 L 300 159.0086 L 300 159.0086 L 184.9857 90 L 300 20.9914 L 300 0 L 265.0143 0 L 150 69.0086 L 34.9857 0 Z" class="white"/>
<g clip-path="url(#clip0)">
<path d="M 0 0 L 150 90 L 0 90 Z" class="red"/>
<path d="M 300 0 L 150 90 L 150 0 Z" class="red"/>
<path d="M 0 180 L 150 90 L 150 180 Z" class="red"/>
<path d="M 300 180 L 150 90 L 300 90 Z" class="red"/>
</g>
<g>
<rect x="0" y="60" width="300" height="60" class="white"/>
<rect x="120" y="0" width="60" height="180" class="white"/>
</g>
<g>
<rect x="0" y="72" width="300" height="36" class="red"/>
<rect x="132" y="0" width="36" height="180" class="red"/>
</g>
</g>
<g>
<use xlink:href="#star" transform="translate(450 78) scale(22.5 22.5) rotate(0)" class="white"/>
<use xlink:href="#star" transform="translate(491.4871 86.8184) scale(22.5 22.5) rotate(24)" class="white"/>
<use xlink:href="#star" transform="translate(525.8008 111.7487) scale(22.5 22.5) rotate(48)" class="white"/>
<use xlink:href="#star" transform="translate(547.0078 148.4803) scale(22.5 22.5) rotate(72)" class="white"/>
<use xlink:href="#star" transform="translate(551.4412 190.6619) scale(22.5 22.5) rotate(96)" class="white"/>
<use xlink:href="#star" transform="translate(538.3346 231) scale(22.5 22.5) rotate(120)" class="white"/>
<use xlink:href="#star" transform="translate(509.9541 262.5197) scale(22.5 22.5) rotate(144)" class="white"/>
<use xlink:href="#star" transform="translate(471.207 279.7711) scale(22.5 22.5) rotate(168)" class="white"/>
<use xlink:href="#star" transform="translate(428.793 279.7711) scale(22.5 22.5) rotate(192)" class="white"/>
<use xlink:href="#star" transform="translate(390.0459 262.5197) scale(22.5 22.5) rotate(216)" class="white"/>
<use xlink:href="#star" transform="translate(361.6654 231) scale(22.5 22.5) rotate(240)" class="white"/>
<use xlink:href="#star" transform="translate(348.5588 190.6619) scale(22.5 22.5) rotate(264)" class="white"/>
<use xlink:href="#star" transform="translate(352.9922 148.4803) scale(22.5 22.5) rotate(288)" class="white"/>
<use xlink:href="#star" transform="translate(374.1992 111.7487) scale(22.5 22.5) rotate(312)" class="white"/>
<use xlink:href="#star" transform="translate(408.5129 86.8184) scale(22.5 22.5) rotate(336)" class="white"/>
</g>
</g>
</svg>
