<?xml version="1.0"?>
<svg xmlns="http://www.w3.org/2000/svg" xmlns:xlink="http://www.w3.org/1999/xlink" version="1.1" width="600" height="360" viewBox="0 0 600 360">
<!-- Generated by Kreative Vexillo v1.0 -->
<style>
.black{fill:rgb(0,0,0);}
.red{fill:rgb(226,56,42);}
.white{fill:rgb(255,255,255);}
</style>
<defs>
<path id="e1" d="M -0.1269 -0.3521 C -0.1397 -0.3583 -0.1628 -0.3546 -0.1841 -0.358 C -0.22690001 -0.36490002 -0.23210001 -0.377 -0.23210001 -0.38590002 C -0.23230001 -0.39530003 -0.24080001 -0.3957 -0.24080001 -0.38570002 C -0.2406 -0.32630002 -0.15120001 -0.3567 -0.12580001 -0.3413 M -0.4178 -0.37240002 C -0.4176 -0.38840002 -0.4285 -0.39870003 -0.4381 -0.39960003 C -0.43240002 -0.39300004 -0.4312 -0.38340002 -0.4303 -0.37400004 C -0.4321 -0.38730004 -0.442 -0.39590004 -0.4504 -0.39640003 C -0.4458 -0.39160004 -0.4433 -0.38180003 -0.4429 -0.37220004 C -0.4443 -0.37950003 -0.4511 -0.39050004 -0.4626 -0.39160004 C -0.4573 -0.38610005 -0.45569998 -0.37580004 -0.4546 -0.36650005 C -0.4562 -0.37450004 -0.4644 -0.38360006 -0.4736 -0.38430005 C -0.4697 -0.38110006 -0.4665 -0.36940005 -0.4658 -0.36050004 C -0.4669 -0.36420003 -0.47329998 -0.37310004 -0.4834 -0.37420005 C -0.4781 -0.36940005 -0.4759 -0.35770005 -0.47489998 -0.34860006 M -0.4349 -0.13050006 C -0.4376 -0.14310007 -0.4486 -0.15630007 -0.461 -0.15470007 C -0.4553 -0.15080006 -0.4509 -0.13620007 -0.4493 -0.12680008 C -0.45319998 -0.13730007 -0.4628 -0.14850007 -0.47419998 -0.14710008 C -0.468 -0.14160007 -0.4644 -0.12810008 -0.46209997 -0.11810008 C -0.46829996 -0.12980008 -0.47579998 -0.13840008 -0.48699996 -0.13710007 C -0.47949997 -0.12980007 -0.47669995 -0.11700007 -0.47489995 -0.10720007 C -0.47859994 -0.11540007 -0.48699996 -0.12550007 -0.49839994 -0.12430007 C -0.49129996 -0.11790007 -0.48829994 -0.10400007 -0.48579994 -0.093700066 C -0.49039993 -0.09990007 -0.49719995 -0.108600065 -0.50799996 -0.10760006 C -0.5009 -0.100700065 -0.49769995 -0.08730006 -0.49469995 -0.07700007 M -0.39819995 0.31689996 C -0.41029996 0.30959997 -0.42699996 0.31209996 -0.43479994 0.32219994 C -0.42609993 0.32059994 -0.41329995 0.32539994 -0.40829995 0.32949993 C -0.41649994 0.32419994 -0.43369997 0.32739994 -0.44029996 0.33659992 C -0.43249995 0.33449993 -0.41999996 0.3397999 -0.41329995 0.3436999 C -0.42199996 0.3406999 -0.43549994 0.3413999 -0.44389996 0.3516999 C -0.43679997 0.3500999 -0.42519996 0.35399988 -0.41759995 0.35829988 C -0.42829993 0.35579988 -0.43889993 0.35989988 -0.44499993 0.36719987 C -0.43559992 0.36509988 -0.42509994 0.37059987 -0.41869992 0.37359986 C -0.43079993 0.37339985 -0.43809992 0.37819985 -0.44249994 0.38319987 C -0.43469992 0.38159987 -0.42279994 0.38569987 -0.41419995 0.39029986 M -0.08019996 0.39209986 C -0.095999956 0.38999987 -0.10899995 0.39959985 -0.11289996 0.41079986 C -0.10859996 0.40739986 -0.09479996 0.40529987 -0.08589996 0.40809986 C -0.098199956 0.40739986 -0.11059996 0.41749987 -0.113099955 0.42659986 C -0.10809995 0.42249987 -0.09209996 0.42129987 -0.08609995 0.42389986 C -0.09729995 0.42439985 -0.10799995 0.43279985 -0.11119995 0.44219986 C -0.10589995 0.43879986 -0.09129995 0.43739986 -0.083099954 0.43949986 C -0.09519996 0.44129986 -0.103899956 0.44999987 -0.10659996 0.45799986 C -0.09929996 0.45319986 -0.089699954 0.45369986 -0.07779996 0.45429987 C -0.09009996 0.45889986 -0.09429996 0.46409985 -0.09839996 0.47239986 C -0.09149996 0.46809986 -0.07939996 0.46779987 -0.06749996 0.46869987"/>
<path id="e2" d="M -0.1621 -0.4472 L -0.21790001 -0.4451 C -0.22060001 -0.4449 -0.22270001 -0.4435 -0.22270001 -0.44030002 C -0.22250001 -0.42020002 -0.21860002 -0.40710002 -0.20420001 -0.3966 C -0.20600002 -0.3854 -0.20490001 -0.3797 -0.19320002 -0.3703 C -0.19210002 -0.37939999 -0.18840002 -0.3836 -0.18270002 -0.3874 C -0.18220003 -0.3872 -0.18180002 -0.3872 -0.18160002 -0.3869 C -0.18230002 -0.3828 -0.18230002 -0.3784 -0.18140002 -0.3759 C -0.17910002 -0.3695 -0.16790001 -0.3693 -0.16490002 -0.3738 C -0.16220002 -0.36720002 -0.15640002 -0.3669 -0.15190002 -0.3669 C -0.14710002 -0.3669 -0.14480002 -0.3703 -0.14320002 -0.3735 C -0.14050002 -0.3712 -0.13770002 -0.3687 -0.13520002 -0.3655 C -0.12720002 -0.3545 -0.12580003 -0.3404 -0.12580003 -0.3269 L -0.13330002 -0.3262 V -0.3317 C -0.13350002 -0.3395 -0.15160002 -0.3408 -0.15570003 -0.3342 C -0.16030003 -0.3392 -0.17440003 -0.3383 -0.17440003 -0.3303 V -0.3278 C -0.17760003 -0.3319 -0.18010004 -0.33630002 -0.18220003 -0.3406 C -0.18790004 -0.33690003 -0.19130003 -0.33420002 -0.19040003 -0.3212 C -0.19290003 -0.321 -0.19540003 -0.32070002 -0.19770004 -0.32050002 C -0.19750004 -0.3054 -0.19080004 -0.30130002 -0.13690004 -0.30240002 C -0.13550004 -0.28730002 -0.15060003 -0.27890003 -0.16180004 -0.2718 C -0.19110005 -0.2551 -0.22190005 -0.23680001 -0.23860005 -0.2062 C -0.25250006 -0.18200001 -0.25600004 -0.1532 -0.25440004 -0.1253 L -0.23840004 -0.1324 L -0.23660004 -0.12370001 C -0.26540005 -0.11000001 -0.31800005 -0.082100004 -0.35250005 -0.06610001 C -0.36100006 -0.06220001 -0.38290006 -0.05670001 -0.38750005 -0.06450001 C -0.40330005 -0.09170001 -0.41580003 -0.11230001 -0.43410003 -0.1331 C -0.44350004 -0.1438 -0.50570005 -0.0924 -0.49420002 -0.075 C -0.4681 -0.035400003 -0.42560002 0.021299995 -0.35470003 0.021699995 C -0.28130004 0.022199994 -0.21750003 -0.004800005 -0.20360003 -0.008900005 L -0.20060003 4.999945E-4 C -0.21000002 0.0045999945 -0.21820003 0.0075999945 -0.22800003 0.010799995 C -0.21520004 0.06109999 -0.20030004 0.0808 -0.16580003 0.11139999 L -0.17290004 0.11669999 C -0.17910004 0.11299999 -0.18960004 0.101399995 -0.19530004 0.09589999 C -0.26870003 0.13069999 -0.29610005 0.1654 -0.31370005 0.2013 C -0.33310005 0.2445 -0.32950005 0.29369998 -0.32120004 0.3392 C -0.31960005 0.34669998 -0.32780004 0.3504 -0.33400005 0.34809998 C -0.35090005 0.3442 -0.36030006 0.32729998 -0.37650004 0.32109997 C -0.38380003 0.31789997 -0.39340004 0.31419995 -0.40140003 0.31559998 C -0.41440004 0.31789997 -0.42840004 0.38369998 -0.41510004 0.39009997 C -0.39040005 0.40219998 -0.36340004 0.40469998 -0.33600003 0.41889998 C -0.31790003 0.42619997 -0.30060002 0.43809998 -0.28000003 0.4349 C -0.26830003 0.43379998 -0.25670004 0.4258 -0.25550002 0.4134 C -0.24520002 0.369 -0.23080002 0.322 -0.19700003 0.2899 C -0.18080002 0.2739 -0.15970002 0.2611 -0.13890003 0.2513 C -0.14710003 0.21970001 -0.15330003 0.1882 -0.15260002 0.1553 L -0.14250001 0.15480001 C -0.13520001 0.28010002 -0.10180001 0.3064 -0.043000013 0.36470002 C -0.037100013 0.37060001 -0.037500013 0.38180003 -0.04620001 0.3853 C -0.05760001 0.391 -0.07110001 0.3912 -0.08420001 0.3919 C -0.09810001 0.3926 -0.08760001 0.4699 -0.06710001 0.46920002 C -0.03100001 0.4681 0.006499991 0.4399 0.028199986 0.41230002 C 0.037299987 0.4009 0.048299983 0.3894 0.056999985 0.37820002 C 0.06769998 0.3643 0.056099985 0.34800002 0.052899987 0.3352 C 0.043999985 0.29860002 0.039899986 0.19350001 0.039399985 0.17880002 L 0.052199986 0.17900002 L 0.053999986 0.15250002 C 0.015799988 0.10520002 0.021999985 0.03110002 0.0061999857 -0.016699985 C -1.44355E-8 -0.036099985 -0.0068000145 -0.056299984 -0.0068000145 -0.07679999 C -0.0068000145 -0.104699984 0.024799984 -0.15699999 0.024099985 -0.20369999 C 0.023899985 -0.2234 0.012899986 -0.24899998 0.013099985 -0.2606 C 0.013299985 -0.2944 0.032799985 -0.2871 0.032299988 -0.35750002 C 0.03209999 -0.37690002 0.029799988 -0.39130002 0.024799988 -0.41120002 C 0.058899987 -0.4471 0.011999988 -0.483 -0.015000012 -0.46060002 C -0.03670001 -0.4663 -0.039500013 -0.47200003 -0.08200002 -0.47200003 C -0.11840002 -0.47200003 -0.13920002 -0.46220005 -0.16180003 -0.44710004 M -0.22760004 -0.23720004 C -0.25160003 -0.20770004 -0.26510003 -0.19280005 -0.26420003 -0.121300034 C -0.49080002 -0.25070003 -0.42450005 -0.26920003 -0.47410005 -0.34650004 C -0.48190007 -0.35860005 -0.43130004 -0.38670003 -0.41530004 -0.37480003 C -0.38310003 -0.351 -0.39500004 -0.30620003 -0.36820003 -0.28590003 C -0.34170005 -0.26580003 -0.29440004 -0.2569 -0.22760004 -0.23720002 M -0.08930004 -0.4034 C -0.092700034 -0.4034 -0.098900035 -0.4052 -0.100700036 -0.4077 C -0.12060004 -0.4381 -0.12560004 -0.4271 -0.12860003 -0.4166 C -0.13110003 -0.40719998 -0.14210004 -0.40699998 -0.13890003 -0.41959998 C -0.13090003 -0.45049998 -0.10920003 -0.44609997 -0.08220003 -0.40339997 M -0.023900028 -0.43429998 C -0.018400028 -0.44159997 -0.010000029 -0.44869998 -8.0002844E-4 -0.45169997 C 0.012699972 -0.45629996 0.018199971 -0.44529998 0.0073999716 -0.44159997 C -0.0015000282 -0.43769997 -0.009100028 -0.43219995 -0.015500029 -0.42579997 M -0.20140003 -0.39469996 C -0.19800003 -0.39259997 -0.19320002 -0.39009997 -0.18610002 -0.38809997 C -0.19000003 -0.38489997 -0.19360001 -0.38029996 -0.19480002 -0.37529996 C -0.20100002 -0.37959996 -0.20350002 -0.38759995 -0.20140001 -0.39469996 M -0.16480002 -0.38259995 C -0.16480002 -0.37959996 -0.16550002 -0.37669995 -0.16640002 -0.37529996 C -0.16870001 -0.37159997 -0.17710002 -0.37189996 -0.17900002 -0.37689996 C -0.17970002 -0.37899995 -0.17970002 -0.38259995 -0.17880002 -0.38599995 C -0.17420001 -0.38489994 -0.16940002 -0.38389996 -0.16490002 -0.38259995 M -0.16220002 -0.38189995 C -0.15600002 -0.38009995 -0.15010002 -0.37799996 -0.14480002 -0.37459996 C -0.14590003 -0.37189996 -0.14800002 -0.36909997 -0.15210003 -0.36909997 C -0.15580003 -0.36909997 -0.15990002 -0.36929998 -0.16220003 -0.37369996 C -0.16330004 -0.37599996 -0.16290003 -0.37919995 -0.16220003 -0.38189995 M -0.18800004 -0.32129994 C -0.18870004 -0.32769993 -0.18800004 -0.33319995 -0.18300004 -0.33679995 C -0.18050005 -0.33219996 -0.17770004 -0.32789996 -0.17450005 -0.32399994 V -0.32239994 M -0.17220005 -0.32249993 V -0.32969993 C -0.17220005 -0.33719993 -0.15620005 -0.33679992 -0.15600005 -0.32969993 V -0.32399994 M -0.15390004 -0.32419994 V -0.33059993 C -0.15390004 -0.33809993 -0.13540004 -0.33769992 -0.13540004 -0.33079994 V -0.32579994"/>
</defs>
<g>
<g>
<rect x="0" y="0" width="600" height="72" class="red"/>
<rect x="0" y="72" width="600" height="216" class="white"/>
<rect x="0" y="288" width="600" height="72" class="red"/>
</g>
<use xlink:href="#e1" transform="translate(300 180) scale(216 216) rotate(0)" class="red"/>
<use xlink:href="#e2" transform="translate(300 180) scale(216 216) rotate(0)" class="black"/>
</g>
</svg>
