<?xml version="1.0"?>
<svg xmlns="http://www.w3.org/2000/svg" xmlns:xlink="http://www.w3.org/1999/xlink" version="1.1" width="600" height="360" viewBox="0 0 600 360">
<!-- Generated by Kreative Vexillo v1.0 -->
<style>
.blue{fill:rgb(0,51,153);}
.gold{fill:rgb(255,204,0);}
</style>
<defs>
<path id="star" d="M 0.0 -1.0 L 0.2245 -0.309 L 0.9511 -0.309 L 0.3633 0.118 L 0.5878 0.809 L 0.0 0.382 L -0.5878 0.809 L -0.3633 0.118 L -0.9511 -0.309 L -0.2245 -0.309 Z"/>
</defs>
<g>
<rect x="0" y="0" width="600" height="360" class="blue"/>
<use xlink:href="#star" transform="translate(420 180) scale(20 20) rotate(0)" class="gold"/>
<use xlink:href="#star" transform="translate(403.923 120) scale(20 20) rotate(0)" class="gold"/>
<use xlink:href="#star" transform="translate(360 76.077) scale(20 20) rotate(0)" class="gold"/>
<use xlink:href="#star" transform="translate(300 60) scale(20 20) rotate(0)" class="gold"/>
<use xlink:href="#star" transform="translate(240 76.077) scale(20 20) rotate(0)" class="gold"/>
<use xlink:href="#star" transform="translate(196.077 120) scale(20 20) rotate(0)" class="gold"/>
<use xlink:href="#star" transform="translate(180 180) scale(20 20) rotate(0)" class="gold"/>
<use xlink:href="#star" transform="translate(196.077 240) scale(20 20) rotate(0)" class="gold"/>
<use xlink:href="#star" transform="translate(240 283.923) scale(20 20) rotate(0)" class="gold"/>
<use xlink:href="#star" transform="translate(300 300) scale(20 20) rotate(0)" class="gold"/>
<use xlink:href="#star" transform="translate(360 283.923) scale(20 20) rotate(0)" class="gold"/>
<use xlink:href="#star" transform="translate(403.923 240) scale(20 20) rotate(0)" class="gold"/>
</g>
</svg>
