<?xml version="1.0"?>
<svg xmlns="http://www.w3.org/2000/svg" xmlns:xlink="http://www.w3.org/1999/xlink" version="1.1" width="600" height="360" viewBox="0 0 600 360">
<!-- Generated by Kreative Vexillo v1.0 -->
<style>
.orange{fill:rgb(216,75,36);}
.white{fill:rgb(255,255,255);}
</style>
<defs>
<path id="e" d="M 0.2898 0.0776 C 0.24689999 0.2376 0.082399994 0.3326 -0.0776 0.2897 S -0.3327 0.0824 -0.2898 -0.0776 C -0.26389998 -0.1742 -0.19149998 -0.2516 -0.096799985 -0.28390002 C -0.079199985 -0.24950002 -0.053099986 -0.22020003 -0.020899981 -0.19890001 C -0.13079998 -0.18740001 -0.21039999 -0.088900015 -0.19889998 0.020899981 C -0.18739998 0.13079998 -0.088899985 0.21039999 0.020900011 0.19889998 C 0.13080001 0.18739998 0.21040002 0.088899985 0.19890001 -0.020900011 C 0.19020002 -0.10330001 0.13170001 -0.17180002 0.051800013 -0.1932 C -0.035599984 -0.2166 -0.09639999 -0.29590002 -0.09639999 -0.3864 H 0.04730001 C 0.026000012 -0.361 0.02920001 -0.32320002 0.05460001 -0.30190003 C 0.06130001 -0.29620004 0.06920001 -0.29210004 0.07770001 -0.28980002 C 0.2377 -0.2469 0.3327 -0.0824 0.2898 0.0776 Z M 0.2933 0.14 L 0.2933 0.14 C 0.2776 0.17300001 0.2564 0.20300001 0.2306 0.2289 C 0.2579 0.2628 0.2954 0.2868 0.3376 0.2974 C 0.363 0.2685 0.38459998 0.2366 0.4019 0.2022 C 0.3556 0.2096 0.3104 0.1837 0.2933 0.14 Z M -0.2933 0.14 C -0.3104 0.1837 -0.3556 0.2096 -0.402 0.2023 C -0.3847 0.2367 -0.36310002 0.2686 -0.3377 0.2975 C -0.2955 0.2869 -0.25800002 0.26290002 -0.23070002 0.22900002 C -0.2564 0.2031 -0.2775 0.173 -0.2933 0.14 L -0.2933 0.14 Z"/>
</defs>
<g>
<rect x="0" y="0" width="600" height="360" class="orange"/>
<use xlink:href="#e" transform="translate(216 158.4) scale(360 360) rotate(0)" class="white"/>
</g>
</svg>
