<?xml version="1.0"?>
<svg xmlns="http://www.w3.org/2000/svg" xmlns:xlink="http://www.w3.org/1999/xlink" version="1.1" width="600" height="360" viewBox="0 0 600 360">
<!-- Generated by Kreative Vexillo v1.0 -->
<style>
.purple{fill:rgb(75,0,130);}
.white{fill:rgb(255,255,255);}
</style>
<defs>
<path id="e" d="M 0.0 -0.5 L -0.0417 -0.4583 L -0.0417 -0.2465 C -0.1021 -0.2364 -0.1551 -0.2045 -0.1926 -0.1593 L -0.3761 -0.2653 L -0.433 -0.25 L -0.4178 -0.1931 L -0.2343 -0.0872 C -0.2445 -0.06 -0.25 -0.0307 -0.25 0.0 C -0.25 0.0307 -0.2445 0.06 -0.2343 0.0872 L -0.4178 0.1931 L -0.433 0.25 L -0.3761 0.2652 L -0.1926 0.1593 C -0.1551 0.2045 -0.1021 0.2364 -0.0417 0.2465 L -0.0417 0.4583 L 0.0 0.5 L 0.0417 0.4583 L 0.0417 0.2465 C 0.1021 0.2364 0.1551 0.2045 0.1926 0.1593 L 0.3761 0.2652 L 0.433 0.25 L 0.4178 0.1931 L 0.2343 0.0872 C 0.2445 0.06 0.25 0.0307 0.25 0.0 C 0.25 -0.0307 0.2445 -0.06 0.2343 -0.0872 L 0.4178 -0.1931 L 0.433 -0.25 L 0.3761 -0.2653 L 0.1926 -0.1593 C 0.1551 -0.2045 0.1021 -0.2364 0.0417 -0.2465 L 0.0417 -0.4583 L 0.0 -0.5 Z M 0.0 -0.1667 C 0.092 -0.1667 0.1667 -0.092 0.1667 0.0 C 0.1667 0.092 0.092 0.1667 0.0 0.1667 C -0.092 0.1667 -0.1667 0.092 -0.1667 0.0 C -0.1667 -0.092 -0.092 -0.1667 0.0 -0.1667 Z M 0.0 -0.0833 C -0.046 -0.0833 -0.0833 -0.046 -0.0833 0.0 C -0.0833 0.046 -0.046 0.0833 0.0 0.0833 C 0.046 0.0833 0.0833 0.046 0.0833 0.0 C 0.0833 -0.046 0.046 -0.0833 0.0 -0.0833 Z"/>
</defs>
<g>
<rect x="0" y="0" width="600" height="360" class="purple"/>
<use xlink:href="#e" transform="translate(300 180) scale(240 240) rotate(0)" class="white"/>
</g>
</svg>
