<?xml version="1.0"?>
<svg xmlns="http://www.w3.org/2000/svg" xmlns:xlink="http://www.w3.org/1999/xlink" version="1.1" width="600" height="360" viewBox="0 0 600 360">
<!-- Generated by Kreative Vexillo v1.0 -->
<style>
.purple{fill:rgb(101,0,101);}
.yellow{fill:rgb(254,214,28);}
</style>
<defs>
<path id="e" d="M 0.6649 -0.2553 L 0.43010002 -0.25489998 C 0.3306 -0.4169 0.2008 -0.4979 0.0 -0.5 C -0.183 -0.5 -0.343 -0.4017 -0.4301 -0.255 L -0.6649 -0.2554 L 0.0 0.1383 L 0.6649 -0.2553 L 0.6649 -0.2553 L 0.6649 -0.2553 H 0.6649 Z M -0.247 -0.289 L -0.0624 -0.1797 V -0.37510002 C -0.042099997 -0.3785 -0.0213 -0.38030002 0.0 -0.38030002 S 0.0421 -0.3785 0.0624 -0.37510002 V -0.17970002 L 0.2471 -0.28900003 C 0.2787 -0.26200002 0.3058 -0.22980003 0.32709998 -0.19390003 L 0.0 -3.0E-4 L -0.327 -0.1939 C -0.3057 -0.2299 -0.2786 -0.262 -0.247 -0.289 Z M 0.3782 -0.0401 C 0.3796 -0.0269 0.3803 -0.013500001 0.3803 0.0 C 0.3803 0.1755 0.26139998 0.3232 0.099699974 0.367 L 0.0 0.1809 L -0.0997 0.3671 C -0.2614 0.3232 -0.3803 0.1755 -0.3803 0.0 C -0.3803 -0.0136 -0.3796 -0.0269 -0.3782 -0.0401 L -0.4887 -0.1055 C -0.496 -0.071499996 -0.5 -0.036199994 -0.5 1.0000169E-4 C -0.5 0.2762 -0.27609998 0.5001 0.0 0.5001 C 0.2761 0.5001 0.5 0.2762 0.5 1.00016594E-4 C 0.5 -0.036099985 0.4961 -0.07139999 0.4887 -0.10549998 L 0.3782 -0.0401 L 0.3782 -0.0401 Z"/>
</defs>
<g>
<rect x="0" y="0" width="600" height="360" class="purple"/>
<use xlink:href="#e" transform="translate(300 180) scale(216 216) rotate(0)" class="yellow"/>
</g>
</svg>
