<?xml version="1.0"?>
<svg xmlns="http://www.w3.org/2000/svg" xmlns:xlink="http://www.w3.org/1999/xlink" version="1.1" width="600" height="360" viewBox="0 0 600 360">
<!-- Generated by Kreative Vexillo v1.0 -->
<style>
.blue{fill:rgb(0,104,178);}
.white{fill:rgb(255,255,255);}
</style>
<defs>
<path id="e" d="M -0.1732 -0.3145 C -0.1964 -0.4102 -0.1376 -0.5065 -0.041899994 -0.52970004 C 0.05380001 -0.5529 0.15010001 -0.49410003 0.17330001 -0.39840004 C 0.18 -0.37080005 0.18 -0.34210002 0.17330001 -0.31450003 C 0.1444 -0.1955 0.073 -0.0911 -0.0275 -0.021 C -0.042 -0.058399998 -0.0608 -0.094 -0.0836 -0.1271 C -0.012999997 -0.18040001 0.0369 -0.2565 0.057699993 -0.3425 C 0.06539999 -0.3744 0.045799993 -0.4065 0.013899993 -0.4142 C -0.018000007 -0.4219 -0.05010001 -0.4023 -0.057800006 -0.3704 C -0.060000006 -0.3612 -0.060000006 -0.35160002 -0.057800006 -0.3424 C -0.047900006 -0.3014 -0.031200007 -0.2623 -0.008500006 -0.22670001 C -0.03130001 -0.19280002 -0.059500005 -0.16300002 -0.09210001 -0.13840002 C -0.1303 -0.1913 -0.1579 -0.2511 -0.1732 -0.3145 Z M 0.2456 -0.2619 C 0.3294 -0.31350002 0.43919998 -0.2874 0.4908 -0.2035 C 0.5424 -0.1197 0.51629996 -0.009900004 0.4324 0.04169999 C 0.4082 0.05659999 0.3809 0.06549999 0.35259998 0.06759999 C 0.2305 0.0769 0.1091 0.0413 0.0115 -0.0327 C 0.0426 -0.058 0.0707 -0.086899996 0.0951 -0.1188 C 0.1676 -0.0681 0.2554 -0.044199996 0.3436 -0.050899997 C 0.3763 -0.0534 0.4008 -0.081999995 0.3983 -0.1147 S 0.3672 -0.1719 0.33449998 -0.16939999 C 0.32509997 -0.1687 0.31599998 -0.16569999 0.30789998 -0.1608 C 0.2719 -0.1386 0.2399 -0.1107 0.2131 -0.0782 C 0.1738 -0.0894 0.1367 -0.107 0.1033 -0.1304 C 0.1417 -0.1831 0.19 -0.2278 0.2456 -0.2619 Z M 0.325 0.1526 C 0.39999998 0.2164 0.4091 0.3289 0.3453 0.40390003 C 0.28149998 0.47890002 0.16899998 0.48800004 0.09399998 0.42420003 C 0.07239998 0.4058 0.055499982 0.38250002 0.04469998 0.35630003 C -0.0019 0.243 -0.0055 0.1166 0.0346 8.0E-4 C 0.0683 0.0226 0.104499996 0.0403 0.1423 0.0537 C 0.11649999 0.1383 0.12089999 0.2292 0.1545 0.311 C 0.167 0.34129998 0.2017 0.35579997 0.2321 0.34329998 C 0.2624 0.3308 0.2769 0.2961 0.2644 0.26569998 C 0.2608 0.25699997 0.2552 0.24919999 0.24800001 0.24309999 C 0.2159 0.21579999 0.17940001 0.19389999 0.14020002 0.1785 C 0.13870002 0.13769999 0.14400002 0.096999995 0.15590002 0.057899997 C 0.2179 0.0782 0.2753 0.1104 0.325 0.1526 Z M -0.0447 0.3563 C -0.082200006 0.4473 -0.1864 0.4907 -0.27740002 0.45319998 S -0.41180003 0.31149998 -0.3743 0.22049998 C -0.3635 0.19429998 -0.3466 0.17099997 -0.325 0.15259998 C -0.23169999 0.07319997 -0.11249998 0.030699976 0.009900004 0.033199973 C -4.0E-4 0.072 -0.0061 0.1119 -0.0071 0.152 C -0.0955 0.15359999 -0.1807 0.1859 -0.248 0.2432 C -0.273 0.2645 -0.276 0.30200002 -0.2548 0.32700002 C -0.23349999 0.35200003 -0.196 0.35500002 -0.17099999 0.33380002 C -0.16379999 0.32770002 -0.1582 0.3199 -0.1546 0.31120002 C -0.13849999 0.27220002 -0.129 0.23080003 -0.1265 0.18870002 C -0.088199995 0.17470002 -0.047799997 0.16720001 -0.0069999993 0.16640002 C -0.0071 0.2314 -0.0199 0.296 -0.0447 0.3563 Z M -0.3527 0.0676 C -0.4509 0.060099997 -0.5243 -0.025600001 -0.5168 -0.12370001 C -0.5093 -0.22190002 -0.4236 -0.2953 -0.3254 -0.2878 C -0.2971 -0.2856 -0.2698 -0.27670002 -0.24559999 -0.2619 C -0.1413 -0.1977 -0.0641 -0.0976 -0.0285 0.0197 C -0.0686 0.0219 -0.1083 0.0288 -0.1467 0.040200002 C -0.17559999 -0.043399997 -0.23249999 -0.11439999 -0.3078 -0.16080001 C -0.3357 -0.178 -0.3723 -0.1693 -0.3895 -0.14130001 C -0.4067 -0.11340001 -0.398 -0.07680001 -0.37 -0.05960001 C -0.3619 -0.05460001 -0.3528 -0.05170001 -0.3434 -0.05100001 C -0.3013 -0.047800012 -0.259 -0.05150001 -0.2182 -0.062100008 C -0.193 -0.030000009 -0.1734 0.0060999915 -0.16 0.04469999 C -0.2223 0.0648 -0.2876 0.0725 -0.3527 0.0676 Z"/>
</defs>
<g>
<rect x="0" y="0" width="600" height="360" class="blue"/>
<use xlink:href="#e" transform="translate(300 180) scale(216 216) rotate(0)" class="white"/>
</g>
</svg>
