<?xml version="1.0"?>
<svg xmlns="http://www.w3.org/2000/svg" xmlns:xlink="http://www.w3.org/1999/xlink" version="1.1" width="600" height="360" viewBox="0 0 600 360">
<!-- Generated by Kreative Vexillo v1.0 -->
<style>
.blue{fill:rgb(58,117,196);}
.green{fill:rgb(61,142,51);}
.red{fill:rgb(206,17,38);}
.white{fill:rgb(255,255,255);}
.yellow{fill:rgb(255,198,30);}
</style>
<defs>
<path id="star" d="M 0.0 -1.0 L 0.2245 -0.309 L 0.9511 -0.309 L 0.3633 0.118 L 0.5878 0.809 L 0.0 0.382 L -0.5878 0.809 L -0.3633 0.118 L -0.9511 -0.309 L -0.2245 -0.309 Z"/>
</defs>
<g>
<g>
<rect x="0" y="0" width="600" height="90" class="yellow"/>
<rect x="0" y="90" width="600" height="90" class="white"/>
<rect x="0" y="180" width="600" height="90" class="red"/>
<rect x="0" y="270" width="600" height="90" class="blue"/>
</g>
<path d="M 0 0 L 311.7691 180 L 0 360 Z" class="green"/>
<ellipse cx="102" cy="180" rx="81" ry="81" class="white"/>
<ellipse cx="138" cy="180" rx="81" ry="81" class="green"/>
<use xlink:href="#star" transform="translate(120 126) scale(15 15) rotate(0)" class="white"/>
<use xlink:href="#star" transform="translate(120 162) scale(15 15) rotate(0)" class="white"/>
<use xlink:href="#star" transform="translate(120 198) scale(15 15) rotate(0)" class="white"/>
<use xlink:href="#star" transform="translate(120 234) scale(15 15) rotate(0)" class="white"/>
</g>
</svg>
