<?xml version="1.0"?>
<svg xmlns="http://www.w3.org/2000/svg" xmlns:xlink="http://www.w3.org/1999/xlink" version="1.1" width="600" height="360" viewBox="0 0 600 360">
<!-- Generated by Kreative Vexillo v1.0 -->
<style>
.red{fill:rgb(210,0,0);}
.yellow{fill:rgb(255,230,0);}
</style>
<g>
<rect x="0" y="0" width="600" height="360" class="red"/>
<path d="M 300 180 L 0 0 L 90 0 Z" class="yellow"/>
<path d="M 300 180 L 270 0 L 330 0 Z" class="yellow"/>
<path d="M 300 180 L 510 0 L 600 0 Z" class="yellow"/>
<path d="M 300 180 L 600 150 L 600 210 Z" class="yellow"/>
<path d="M 300 180 L 600 360 L 510 360 Z" class="yellow"/>
<path d="M 300 180 L 330 360 L 270 360 Z" class="yellow"/>
<path d="M 300 180 L 90 360 L 0 360 Z" class="yellow"/>
<path d="M 300 180 L 0 210 L 0 150 Z" class="yellow"/>
<ellipse cx="300" cy="180" rx="64.2857" ry="64.2857" class="red"/>
<ellipse cx="300" cy="180" rx="51.4286" ry="51.4286" class="yellow"/>
</g>
</svg>
