<?xml version="1.0"?>
<svg xmlns="http://www.w3.org/2000/svg" xmlns:xlink="http://www.w3.org/1999/xlink" version="1.1" width="600" height="360" viewBox="0 0 600 360">
<!-- Generated by Kreative Vexillo v1.0 -->
<style>
.blue{fill:rgb(0,36,125);}
.red{fill:rgb(207,20,43);}
.white{fill:rgb(255,255,255);}
.yellow{fill:rgb(252,209,22);}
</style>
<defs>
<path id="star" d="M 0.0 -1.0 L 0.2245 -0.309 L 0.9511 -0.309 L 0.3633 0.118 L 0.5878 0.809 L 0.0 0.382 L -0.5878 0.809 L -0.3633 0.118 L -0.9511 -0.309 L -0.2245 -0.309 Z"/>
<clipPath id="clip0">
<path d="M 0 0 L 0 13.9943 L 0 13.9943 L 126.6762 90 L 126.6762 90 L 0 166.0057 L 0 180 L 23.3238 180 L 150 103.9943 L 276.6762 180 L 300 180 L 300 166.0057 L 173.3238 90 L 300 13.9943 L 300 0 L 276.6762 0 L 150 76.0057 L 23.3238 0 Z"/>
</clipPath>
</defs>
<g>
<rect x="0" y="0" width="600" height="360" class="yellow"/>
<g>
<rect x="0" y="0" width="300" height="180" class="blue"/>
<path d="M 0 0 L 0 20.9914 L 115.0143 90 L 115.0143 90 L 0 159.0086 L 0 159.0086 L 0 180 L 34.9857 180 L 150 110.9914 L 150 110.9914 L 150 110.9914 L 150 110.9914 L 150 110.9914 L 150 110.9914 L 265.0143 180 L 300 180 L 300 159.0086 L 300 159.0086 L 184.9857 90 L 300 20.9914 L 300 0 L 265.0143 0 L 150 69.0086 L 150 69.0086 L 150 69.0086 L 150 69.0086 L 34.9857 0 Z" class="white"/>
<g clip-path="url(#clip0)">
<path d="M 0 0 L 150 90 L 0 90 Z" class="red"/>
<path d="M 300 0 L 150 90 L 150 0 Z" class="red"/>
<path d="M 0 180 L 150 90 L 150 180 Z" class="red"/>
<path d="M 300 180 L 150 90 L 300 90 Z" class="red"/>
</g>
<g>
<rect x="0" y="60" width="300" height="60" class="white"/>
<rect x="120" y="0" width="60" height="180" class="white"/>
</g>
<g>
<rect x="0" y="72" width="300" height="36" class="red"/>
<rect x="132" y="0" width="36" height="180" class="red"/>
</g>
</g>
<g>
<ellipse cx="150" cy="90" rx="30" ry="30" class="blue"/>
<use xlink:href="#star" transform="translate(150 90) scale(30 30) rotate(0)" class="yellow"/>
<use xlink:href="#star" transform="translate(60 91.062) scale(18 18) rotate(0)" class="yellow"/>
<use xlink:href="#star" transform="translate(240 91.062) scale(18 18) rotate(0)" class="yellow"/>
<use xlink:href="#star" transform="translate(150 31.062) scale(18 18) rotate(0)" class="yellow"/>
<use xlink:href="#star" transform="translate(150 151.062) scale(18 18) rotate(0)" class="yellow"/>
</g>
</g>
</svg>
