<?xml version="1.0"?>
<svg xmlns="http://www.w3.org/2000/svg" xmlns:xlink="http://www.w3.org/1999/xlink" version="1.1" width="600" height="360" viewBox="0 0 600 360">
<!-- Generated by Kreative Vexillo v1.0 -->
<style>
.blue{fill:rgb(0,36,125);}
.red{fill:rgb(207,20,43);}
.white{fill:rgb(255,255,255);}
</style>
<defs>
<clipPath id="clip0">
<path d="M 0 0 L 0 27.9886 L 0 27.9886 L 253.3524 180 L 253.3524 180 L 0 332.0114 L 0 360 L 46.6476 360 L 300 207.9886 L 553.3524 360 L 600 360 L 600 332.0114 L 346.6476 180 L 600 27.9886 L 600 0 L 553.3524 0 L 300 152.0114 L 46.6476 0 Z"/>
</clipPath>
</defs>
<g>
<rect x="0" y="0" width="600" height="360" class="blue"/>
<path d="M 0 0 L 0 41.9829 L 230.0286 180 L 230.0286 180 L 0 318.0171 L 0 318.0171 L 0 360 L 69.9714 360 L 300 221.9829 L 300 221.9829 L 300 221.9829 L 300 221.9829 L 300 221.9829 L 300 221.9829 L 530.0286 360 L 600 360 L 600 318.0171 L 600 318.0171 L 369.9714 180 L 600 41.9829 L 600 0 L 530.0286 0 L 300 138.0171 L 300 138.0171 L 300 138.0171 L 300 138.0171 L 69.9714 0 Z" class="white"/>
<g clip-path="url(#clip0)">
<path d="M 0 0 L 300 180 L 0 180 Z" class="red"/>
<path d="M 600 0 L 300 180 L 300 0 Z" class="red"/>
<path d="M 0 360 L 300 180 L 300 360 Z" class="red"/>
<path d="M 600 360 L 300 180 L 600 180 Z" class="red"/>
</g>
<g>
<rect x="0" y="120" width="600" height="120" class="white"/>
<rect x="240" y="0" width="120" height="360" class="white"/>
</g>
<g>
<rect x="0" y="144" width="600" height="72" class="red"/>
<rect x="264" y="0" width="72" height="360" class="red"/>
</g>
</g>
</svg>
