<?xml version="1.0"?>
<svg xmlns="http://www.w3.org/2000/svg" xmlns:xlink="http://www.w3.org/1999/xlink" version="1.1" width="600" height="360" viewBox="0 0 600 360">
<!-- Generated by Kreative Vexillo v1.0 -->
<style>
.blue{fill:rgb(60,59,110);}
.red{fill:rgb(178,34,52);}
.white{fill:rgb(255,255,255);}
</style>
<defs>
<path id="star" d="M 0.0 -1.0 L 0.2245 -0.309 L 0.9511 -0.309 L 0.3633 0.118 L 0.5878 0.809 L 0.0 0.382 L -0.5878 0.809 L -0.3633 0.118 L -0.9511 -0.309 L -0.2245 -0.309 Z"/>
</defs>
<g>
<g>
<rect x="0" y="0" width="600" height="27.6923" class="red"/>
<rect x="0" y="27.6923" width="600" height="27.6923" class="white"/>
<rect x="0" y="55.3846" width="600" height="27.6923" class="red"/>
<rect x="0" y="83.0769" width="600" height="27.6923" class="white"/>
<rect x="0" y="110.7692" width="600" height="27.6923" class="red"/>
<rect x="0" y="138.4615" width="600" height="27.6923" class="white"/>
<rect x="0" y="166.1538" width="600" height="27.6923" class="red"/>
<rect x="0" y="193.8462" width="600" height="27.6923" class="white"/>
<rect x="0" y="221.5385" width="600" height="27.6923" class="red"/>
<rect x="0" y="249.2308" width="600" height="27.6923" class="white"/>
<rect x="0" y="276.9231" width="600" height="27.6923" class="red"/>
<rect x="0" y="304.6154" width="600" height="27.6923" class="white"/>
<rect x="0" y="332.3077" width="600" height="27.6923" class="red"/>
</g>
<rect x="0" y="0" width="273.6" height="193.8462" class="blue"/>
<g>
<g>
<use xlink:href="#star" transform="translate(22.8 19.3846) scale(11.0769 11.0769) rotate(0)" class="white"/>
<use xlink:href="#star" transform="translate(68.4 19.3846) scale(11.0769 11.0769) rotate(0)" class="white"/>
<use xlink:href="#star" transform="translate(114 19.3846) scale(11.0769 11.0769) rotate(0)" class="white"/>
<use xlink:href="#star" transform="translate(159.6 19.3846) scale(11.0769 11.0769) rotate(0)" class="white"/>
<use xlink:href="#star" transform="translate(205.2 19.3846) scale(11.0769 11.0769) rotate(0)" class="white"/>
<use xlink:href="#star" transform="translate(250.8 19.3846) scale(11.0769 11.0769) rotate(0)" class="white"/>
</g>
<g>
<use xlink:href="#star" transform="translate(22.8 58.1538) scale(11.0769 11.0769) rotate(0)" class="white"/>
<use xlink:href="#star" transform="translate(68.4 58.1538) scale(11.0769 11.0769) rotate(0)" class="white"/>
<use xlink:href="#star" transform="translate(114 58.1538) scale(11.0769 11.0769) rotate(0)" class="white"/>
<use xlink:href="#star" transform="translate(159.6 58.1538) scale(11.0769 11.0769) rotate(0)" class="white"/>
<use xlink:href="#star" transform="translate(205.2 58.1538) scale(11.0769 11.0769) rotate(0)" class="white"/>
<use xlink:href="#star" transform="translate(250.8 58.1538) scale(11.0769 11.0769) rotate(0)" class="white"/>
</g>
<g>
<use xlink:href="#star" transform="translate(22.8 96.9231) scale(11.0769 11.0769) rotate(0)" class="white"/>
<use xlink:href="#star" transform="translate(68.4 96.9231) scale(11.0769 11.0769) rotate(0)" class="white"/>
<use xlink:href="#star" transform="translate(114 96.9231) scale(11.0769 11.0769) rotate(0)" class="white"/>
<use xlink:href="#star" transform="translate(159.6 96.9231) scale(11.0769 11.0769) rotate(0)" class="white"/>
<use xlink:href="#star" transform="translate(205.2 96.9231) scale(11.0769 11.0769) rotate(0)" class="white"/>
<use xlink:href="#star" transform="translate(250.8 96.9231) scale(11.0769 11.0769) rotate(0)" class="white"/>
</g>
<g>
<use xlink:href="#star" transform="translate(22.8 135.6923) scale(11.0769 11.0769) rotate(0)" class="white"/>
<use xlink:href="#star" transform="translate(68.4 135.6923) scale(11.0769 11.0769) rotate(0)" class="white"/>
<use xlink:href="#star" transform="translate(114 135.6923) scale(11.0769 11.0769) rotate(0)" class="white"/>
<use xlink:href="#star" transform="translate(159.6 135.6923) scale(11.0769 11.0769) rotate(0)" class="white"/>
<use xlink:href="#star" transform="translate(205.2 135.6923) scale(11.0769 11.0769) rotate(0)" class="white"/>
<use xlink:href="#star" transform="translate(250.8 135.6923) scale(11.0769 11.0769) rotate(0)" class="white"/>
</g>
<g>
<use xlink:href="#star" transform="translate(22.8 174.4615) scale(11.0769 11.0769) rotate(0)" class="white"/>
<use xlink:href="#star" transform="translate(68.4 174.4615) scale(11.0769 11.0769) rotate(0)" class="white"/>
<use xlink:href="#star" transform="translate(114 174.4615) scale(11.0769 11.0769) rotate(0)" class="white"/>
<use xlink:href="#star" transform="translate(159.6 174.4615) scale(11.0769 11.0769) rotate(0)" class="white"/>
<use xlink:href="#star" transform="translate(205.2 174.4615) scale(11.0769 11.0769) rotate(0)" class="white"/>
<use xlink:href="#star" transform="translate(250.8 174.4615) scale(11.0769 11.0769) rotate(0)" class="white"/>
</g>
</g>
<g>
<g>
<use xlink:href="#star" transform="translate(45.6 38.7692) scale(11.0769 11.0769) rotate(0)" class="white"/>
<use xlink:href="#star" transform="translate(91.2 38.7692) scale(11.0769 11.0769) rotate(0)" class="white"/>
<use xlink:href="#star" transform="translate(136.8 38.7692) scale(11.0769 11.0769) rotate(0)" class="white"/>
<use xlink:href="#star" transform="translate(182.4 38.7692) scale(11.0769 11.0769) rotate(0)" class="white"/>
<use xlink:href="#star" transform="translate(228 38.7692) scale(11.0769 11.0769) rotate(0)" class="white"/>
</g>
<g>
<use xlink:href="#star" transform="translate(45.6 77.5385) scale(11.0769 11.0769) rotate(0)" class="white"/>
<use xlink:href="#star" transform="translate(91.2 77.5385) scale(11.0769 11.0769) rotate(0)" class="white"/>
<use xlink:href="#star" transform="translate(136.8 77.5385) scale(11.0769 11.0769) rotate(0)" class="white"/>
<use xlink:href="#star" transform="translate(182.4 77.5385) scale(11.0769 11.0769) rotate(0)" class="white"/>
<use xlink:href="#star" transform="translate(228 77.5385) scale(11.0769 11.0769) rotate(0)" class="white"/>
</g>
<g>
<use xlink:href="#star" transform="translate(45.6 116.3077) scale(11.0769 11.0769) rotate(0)" class="white"/>
<use xlink:href="#star" transform="translate(91.2 116.3077) scale(11.0769 11.0769) rotate(0)" class="white"/>
<use xlink:href="#star" transform="translate(136.8 116.3077) scale(11.0769 11.0769) rotate(0)" class="white"/>
<use xlink:href="#star" transform="translate(182.4 116.3077) scale(11.0769 11.0769) rotate(0)" class="white"/>
<use xlink:href="#star" transform="translate(228 116.3077) scale(11.0769 11.0769) rotate(0)" class="white"/>
</g>
<g>
<use xlink:href="#star" transform="translate(45.6 155.0769) scale(11.0769 11.0769) rotate(0)" class="white"/>
<use xlink:href="#star" transform="translate(91.2 155.0769) scale(11.0769 11.0769) rotate(0)" class="white"/>
<use xlink:href="#star" transform="translate(136.8 155.0769) scale(11.0769 11.0769) rotate(0)" class="white"/>
<use xlink:href="#star" transform="translate(182.4 155.0769) scale(11.0769 11.0769) rotate(0)" class="white"/>
<use xlink:href="#star" transform="translate(228 155.0769) scale(11.0769 11.0769) rotate(0)" class="white"/>
</g>
</g>
</g>
</svg>
