<?xml version="1.0"?>
<svg xmlns="http://www.w3.org/2000/svg" xmlns:xlink="http://www.w3.org/1999/xlink" version="1.1" width="600" height="360" viewBox="0 0 600 360">
<!-- Generated by Kreative Vexillo v1.0 -->
<style>
.blue{fill:rgb(80,145,205);}
.white{fill:rgb(255,255,255);}
</style>
<defs>
<path id="branches" d="M -0.5219 -0.0388 C -0.5263 -0.096 -0.5613 -0.13859999 -0.5613 -0.1995 C -0.5613 -0.2488 -0.54209995 -0.2891 -0.5133 -0.3258 C -0.5125 -0.3262 -0.5119 -0.3271 -0.5108 -0.3269 C -0.5425 -0.2786 -0.5137 -0.2177 -0.5177 -0.163 L -0.5219 -0.106800005 C -0.5213 -0.106400006 -0.5213 -0.10470001 -0.5198 -0.1053 C -0.5179 -0.111600004 -0.5174 -0.118200004 -0.5163 -0.1247 C -0.5087 -0.17 -0.46890002 -0.2015 -0.43520004 -0.2335 C -0.42720005 -0.2411 -0.42140004 -0.25 -0.41760004 -0.2596 C -0.42040002 -0.23700002 -0.42670003 -0.21390001 -0.43680003 -0.19340001 C -0.4628 -0.1409 -0.5129 -0.0985 -0.5219 -0.0388 Z M -0.4933 0.1101 L -0.49019998 0.1126 C -0.4935 0.0898 -0.49519998 0.0652 -0.4888 0.0435 C -0.479 0.008699998 -0.4667 -0.025200002 -0.46019998 -0.061300002 C -0.4552 -0.08930001 -0.44939998 -0.1208 -0.4527 -0.148 C -0.4565 -0.13340001 -0.4603 -0.1189 -0.46829998 -0.1064 C -0.4989 -0.0591 -0.5302 -0.0036000013 -0.50879997 0.0564 C -0.5093 0.057 -0.51 0.0579 -0.51079994 0.0574 C -0.51939994 0.0376 -0.52129996 0.015000001 -0.52689993 -0.0062999986 C -0.54169995 -0.0627 -0.58509994 -0.109799996 -0.5723999 -0.175 C -0.5790999 -0.1608 -0.5817999 -0.1449 -0.5853999 -0.1295 C -0.5928999 -0.0896 -0.5853999 -0.047300003 -0.5745999 -0.010700002 C -0.561 0.0353 -0.5161 0.0681 -0.4933 0.1101 Z M -0.2866 0.3421 C -0.3348 0.3033 -0.3421 0.24489999 -0.3635 0.19379999 C -0.3768 0.16199999 -0.3986 0.13349998 -0.4218 0.105699986 C -0.3963 0.15669999 -0.4073 0.22239998 -0.3742 0.2704 C -0.36389998 0.28539997 -0.34939998 0.29979998 -0.336 0.3119 L -0.3366 0.3125 C -0.34870002 0.3069 -0.3596 0.29839998 -0.37060001 0.2893 C -0.42850003 0.2412 -0.5155 0.235 -0.5502 0.1566 C -0.5408 0.21419999 -0.4951 0.2652 -0.4457 0.2975 C -0.3989 0.3283 -0.3388 0.3249 -0.2866 0.3421 Z M -0.5049 -0.1824 C -0.49479997 -0.2031 -0.47829998 -0.2228 -0.4588 -0.23750001 C -0.4154 -0.2703 -0.36789998 -0.3127 -0.3672 -0.3684 C -0.3816 -0.3283 -0.4253 -0.31170002 -0.4544 -0.2843 C -0.4698 -0.2698 -0.48160002 -0.2524 -0.4884 -0.2342 L -0.4894 -0.235 C -0.4858 -0.251 -0.479 -0.2656 -0.4744 -0.2811 C -0.46170002 -0.3236 -0.46400002 -0.37440002 -0.42270002 -0.4028 C -0.444 -0.3973 -0.46190003 -0.3836 -0.4778 -0.36589998 H -0.4778 C -0.5111 -0.3289 -0.5082 -0.2743 -0.5038 -0.2256 C -0.5024 -0.2106 -0.5032 -0.1978 -0.5049 -0.1824 Z M -0.4543 -0.3032 C -0.4312 -0.3249 -0.40429997 -0.34100002 -0.3847 -0.3669 C -0.3611 -0.398 -0.3407 -0.4327 -0.31 -0.4596 C -0.3518 -0.4433 -0.3966 -0.4267 -0.4237 -0.3838 C -0.4395 -0.3588 -0.4418 -0.3291 -0.4543 -0.3032 Z M -0.5039 0.1805 C -0.4713 0.2062 -0.4323 0.2263 -0.4026 0.2489 C -0.4085 0.2341 -0.41799998 0.22039999 -0.4218 0.2048 C -0.4393 0.13419999 -0.42949998 0.052599996 -0.45979998 -0.012700006 C -0.45419997 0.024399992 -0.46889997 0.057199992 -0.47229996 0.092499994 C -0.47509995 0.12149999 -0.46999997 0.14969999 -0.45879996 0.1741 C -0.45549995 0.1813 -0.44939995 0.18779999 -0.44769996 0.1952 C -0.45859995 0.1854 -0.46629995 0.17289999 -0.47379997 0.1607 C -0.5089 0.10389999 -0.5825 0.066999994 -0.5875 -0.0021000057 C -0.59 0.028599994 -0.5873 0.061199993 -0.5771 0.08849999 C -0.5628 0.1265 -0.5354 0.1557 -0.5039 0.1805 Z M -0.1623 0.3732 C -0.1536 0.371 -0.1429 0.3717 -0.1348 0.36879998 C -0.1686 0.36189997 -0.20120001 0.35169998 -0.2274 0.3277 C -0.26500002 0.29329997 -0.2983 0.25669998 -0.33850002 0.22999999 C -0.307 0.2724 -0.29800004 0.334 -0.24050003 0.3556 C -0.23030004 0.3594 -0.21860003 0.3601 -0.20980003 0.3657 C -0.22090003 0.36740002 -0.23060003 0.364 -0.24090004 0.36180001 C -0.3151 0.3459 -0.4057 0.3663 -0.4613 0.303 C -0.44019997 0.3443 -0.39679998 0.37690002 -0.35509998 0.3907 C -0.2904 0.4121 -0.2231 0.3883 -0.1623 0.3732 Z M 0.475 -0.2811 C 0.47959998 -0.2656 0.4864 -0.25100002 0.48999998 -0.235 L 0.489 -0.2342 C 0.48209998 -0.2523 0.4703 -0.2698 0.45499998 -0.2843 C 0.42589998 -0.3117 0.38219997 -0.3283 0.3678 -0.3684 C 0.3685 -0.3127 0.416 -0.2703 0.4594 -0.23750001 C 0.4789 -0.22280002 0.4954 -0.20310001 0.5055 -0.18240002 C 0.50380003 -0.19780001 0.503 -0.21060002 0.5044 -0.22570002 C 0.5089 -0.27440003 0.51170003 -0.32900003 0.47840002 -0.36600003 C 0.46240002 -0.3837 0.44460002 -0.39750004 0.42330003 -0.40290004 C 0.4646 -0.3744 0.4624 -0.3236 0.475 -0.2811 Z M 0.3854 -0.3669 C 0.405 -0.341 0.4319 -0.3249 0.45499998 -0.3032 C 0.4425 -0.3291 0.44019997 -0.3588 0.42439997 -0.3838 C 0.39729998 -0.4266 0.35249996 -0.4433 0.31069997 -0.4596 C 0.3413 -0.4327 0.3618 -0.3981 0.3854 -0.3669 Z M 0.5276 -0.0062 C 0.522 0.015099999 0.5201 0.0376 0.5115 0.057499997 C 0.5107 0.057899997 0.51 0.057099998 0.5095 0.0565 C 0.5309 -0.0034999996 0.49950004 -0.059000004 0.46900004 -0.1063 C 0.46100006 -0.1187 0.45710003 -0.13319999 0.45340005 -0.1479 C 0.45010003 -0.1207 0.45590004 -0.0893 0.46090004 -0.0612 C 0.46740004 -0.0251 0.47970003 0.008699998 0.48950005 0.0436 C 0.49600005 0.065400004 0.49430004 0.0899 0.49090004 0.1127 L 0.49400005 0.1102 C 0.5167 0.06820001 0.5616 0.035400003 0.5752001 -0.010399997 C 0.5860001 -0.047 0.5935001 -0.0894 0.5860001 -0.1292 C 0.5824001 -0.1446 0.5797001 -0.16059999 0.5730001 -0.17469999 C 0.5857 -0.1097 0.5424 -0.0626 0.5276 -0.0062 Z M 0.5184 -0.163 L 0.5226 -0.106800005 C 0.522 -0.106400006 0.522 -0.10470001 0.5205 -0.1053 C 0.5186 -0.111600004 0.5181 -0.118200004 0.517 -0.1247 C 0.5094 -0.17 0.46960002 -0.2015 0.43590003 -0.2335 C 0.42790005 -0.2411 0.42210004 -0.25 0.41830003 -0.2596 C 0.42110002 -0.23700002 0.42740002 -0.21390001 0.43750003 -0.19340001 C 0.46350002 -0.14080001 0.51360005 -0.09840001 0.52260005 -0.038700014 C 0.52700007 -0.095900014 0.56200004 -0.1385 0.56200004 -0.19940001 C 0.56200004 -0.24870001 0.5428 -0.289 0.51400006 -0.3257 C 0.51320004 -0.32610002 0.51260006 -0.32700002 0.51150006 -0.32680002 C 0.5432 -0.2786 0.5143 -0.2177 0.5184 -0.163 Z M 0.4744 0.1608 C 0.46690002 0.17289999 0.45920002 0.1855 0.4483 0.1953 C 0.45000002 0.18789999 0.45610002 0.1814 0.4594 0.1742 C 0.4707 0.1498 0.4757 0.1216 0.4729 0.092599995 C 0.4695 0.057299994 0.4548 0.024499997 0.46040002 -0.012600005 C 0.4302 0.052699998 0.4399 0.1343 0.42240003 0.2049 C 0.41850004 0.22049999 0.40900004 0.2342 0.40320003 0.249 C 0.43290004 0.2264 0.47190005 0.20629999 0.50450003 0.18059999 C 0.536 0.15569998 0.56340003 0.12659998 0.5776 0.08869999 C 0.5879 0.06139999 0.5905 0.028799988 0.588 -0.0019000098 C 0.5831 0.0671 0.5095 0.104 0.4744 0.1608 Z M 0.2191 0.4153 C 0.1692 0.3946 0.1183 0.3671 0.061399996 0.3671 C 0.040699996 0.3671 0.020199995 0.37060001 2.9999763E-4 0.3766 C -0.019600002 0.3706 -0.0401 0.3671 -0.0608 0.3671 C -0.117699996 0.3671 -0.1685 0.3946 -0.2185 0.4153 C -0.2637 0.43400002 -0.3236 0.4303 -0.36360002 0.4027 C -0.3438 0.4275 -0.31730002 0.44280002 -0.29000002 0.4532 C -0.23920003 0.4735 -0.17980002 0.45790002 -0.13660002 0.4303 C -0.10540002 0.4104 -0.07870002 0.3821 -0.04160002 0.3821 C -0.03500002 0.3821 -0.028500019 0.3829 -0.021800019 0.3843 C -0.073900014 0.4052 -0.12120002 0.44189999 -0.15820003 0.4772 C -0.15140003 0.485 -0.14260003 0.4922 -0.13430002 0.4989 C -0.093100026 0.4563 -0.046300024 0.4102 2.9997528E-4 0.3911 C 0.046899974 0.4102 0.093599975 0.4563 0.13489997 0.4989 C 0.14319998 0.4922 0.15199998 0.4849 0.15879998 0.4772 C 0.121799976 0.4419 0.07449998 0.4051 0.022399977 0.3843 C 0.028999977 0.3829 0.035599977 0.3821 0.042199977 0.3821 C 0.07929997 0.3821 0.10599998 0.4103 0.13719997 0.4303 C 0.18049997 0.4579 0.23979998 0.4735 0.29059997 0.45319998 C 0.31789997 0.4428 0.3444 0.42749998 0.36419997 0.40269998 C 0.3242 0.4304 0.2643 0.4341 0.2191 0.4153 Z M 0.2416 0.3617 C 0.23130001 0.3639 0.22160001 0.3673 0.2105 0.3656 C 0.2193 0.35999998 0.231 0.3594 0.2412 0.35549998 C 0.2987 0.3338 0.3077 0.27229998 0.3392 0.22989999 C 0.299 0.2566 0.26569998 0.2932 0.22809999 0.3276 C 0.20189999 0.3515 0.16929999 0.36180001 0.13549998 0.3687 C 0.14359999 0.3717 0.15429999 0.371 0.16299999 0.37309998 C 0.22369999 0.38819999 0.29109997 0.41199997 0.3557 0.3906 C 0.3974 0.377 0.4408 0.3444 0.4619 0.303 C 0.4064 0.3663 0.3158 0.3459 0.2416 0.3617 Z M 0.3714 0.2894 C 0.3604 0.29860002 0.3495 0.307 0.3374 0.31260002 L 0.33679998 0.312 C 0.35019997 0.2999 0.36459997 0.28550002 0.37499997 0.2705 C 0.40809998 0.22240001 0.39709997 0.15670002 0.42259997 0.1058 C 0.39939997 0.13350001 0.37769997 0.1621 0.36429998 0.1939 C 0.3428 0.245 0.33549997 0.3033 0.28739998 0.3422 C 0.33949998 0.32500002 0.3997 0.32840002 0.44659996 0.29770002 C 0.49589998 0.26540002 0.54169995 0.21440002 0.55109996 0.15680002 C 0.5163 0.2351 0.4293 0.2413 0.3714 0.2894 Z"/>
<path id="latlines" d="M 0.3749 0.0976 L 0.36580002 0.0927 C 0.34660003 0.13229999 0.3212 0.16839999 0.29070002 0.1995 L 0.23780002 0.1466 C 0.2637 0.119899996 0.28460002 0.0896 0.3 0.056799993 L 0.291 0.051899992 C 0.27580002 0.08439999 0.25530002 0.11399999 0.2306 0.13949999 L 0.18270001 0.09159999 C 0.20330001 0.070199996 0.2196 0.045799993 0.23140001 0.019399993 L 0.22250001 0.014499993 C 0.21100001 0.040499993 0.19500001 0.0641 0.1756 0.08439999 L 0.122600004 0.03139999 C 0.1373 0.015799992 0.1487 -0.0022000074 0.15650001 -0.021600008 L 0.14760001 -0.026500009 C 0.1402 -0.0075000096 0.12930001 0.009699993 0.115600005 0.02429999 L 0.06750001 -0.023800008 C 0.08120001 -0.039100006 0.08910001 -0.058300007 0.09030001 -0.07880001 H 0.1584 C 0.1578 -0.06040001 0.1541 -0.04280001 0.1477 -0.026500009 L 0.1566 -0.021600008 C 0.1638 -0.039600007 0.1678 -0.05890001 0.1684 -0.07880001 H 0.24340001 C 0.24270001 -0.045700006 0.2353 -0.014200009 0.22260001 0.014499992 L 0.23150001 0.019399993 C 0.24510002 -0.011200007 0.2527 -0.044400007 0.25340003 -0.078700006 H 0.32130003 C 0.32060003 -0.032000005 0.30980003 0.01219999 0.29120004 0.052 L 0.30020005 0.056900002 C 0.31990004 0.014900003 0.33060005 -0.031099997 0.33140004 -0.0788 H 0.40640002 C 0.40570003 -0.0174 0.39120004 0.040799998 0.36600003 0.0928 L 0.3749 0.0976 C 0.402 0.041699998 0.41640002 -0.020000003 0.41640002 -0.083900005 C 0.41640002 -0.1383 0.40600002 -0.19100001 0.3862 -0.24000001 L 0.37690002 -0.23600002 C 0.3955 -0.18980002 0.4056 -0.14020002 0.4063 -0.088900015 H 0.33130002 C 0.3307 -0.12980002 0.32270002 -0.1694 0.30800003 -0.20630002 L 0.29880002 -0.20230003 C 0.31300002 -0.16660002 0.32070002 -0.12830003 0.32130003 -0.08890003 H 0.2533 C 0.2527 -0.11900003 0.2469 -0.14820004 0.2363 -0.17550004 L 0.2271 -0.17150004 C 0.23719999 -0.14540005 0.2428 -0.11760004 0.2433 -0.088900045 H 0.1683 C 0.16780001 -0.10720004 0.16430001 -0.12510005 0.15810001 -0.14190005 L 0.1489 -0.13790005 C 0.15460001 -0.12230006 0.1577 -0.105800055 0.1583 -0.08890006 H 0.0902 C 0.0891 -0.109400064 0.0811 -0.12860006 0.0674 -0.14390007 L 0.1155 -0.19200006 C 0.1304 -0.17620006 0.1416 -0.15780006 0.1488 -0.13790005 L 0.158 -0.14190005 C 0.15030001 -0.16300005 0.1383 -0.18240005 0.1225 -0.19910005 L 0.1756 -0.25220004 C 0.1982 -0.22860004 0.21550001 -0.20130004 0.227 -0.17160004 L 0.2362 -0.17560004 C 0.22420001 -0.20640004 0.2062 -0.23490004 0.18270001 -0.25930005 L 0.2308 -0.3073 C 0.2606 -0.2766 0.2834 -0.241 0.2987 -0.2024 L 0.3079 -0.20639999 C 0.2921 -0.2462 0.2685 -0.28289998 0.2378 -0.31449997 L 0.2909 -0.36759996 C 0.3284 -0.32919997 0.3574 -0.28459996 0.3769 -0.23609996 L 0.38619998 -0.24009995 C 0.36549997 -0.29119995 0.3347 -0.33809996 0.2945 -0.37829995 C 0.25419998 -0.41859996 0.2071 -0.44949996 0.1557 -0.47019994 L 0.152 -0.46079993 C 0.2005 -0.44119993 0.2452 -0.41229993 0.2838 -0.37469995 L 0.2308 -0.3215 C 0.1997 -0.3516 0.1638 -0.3749 0.1247 -0.3907 L 0.121 -0.38140002 C 0.1588 -0.3661 0.1936 -0.34350002 0.2237 -0.3143 L 0.17570001 -0.2663 C 0.15230002 -0.2888 0.1254 -0.3062 0.09620001 -0.3182 L 0.09250001 -0.3089 C 0.12040001 -0.29749998 0.1462 -0.28079998 0.16860001 -0.2593 L 0.1155 -0.20619999 C 0.100600004 -0.22029999 0.0835 -0.2313 0.0651 -0.239 L 0.0614 -0.2297 C 0.078600004 -0.2225 0.094500005 -0.2122 0.1084 -0.1991 L 0.060300004 -0.15100001 C 0.045 -0.1647 0.025800005 -0.1726 0.005300004 -0.1738 V -0.2419 C 0.024900004 -0.2413 0.043800004 -0.23709999 0.061400004 -0.2298 L 0.06510001 -0.2391 C 0.046400007 -0.24689999 0.026200008 -0.2513 0.0053000078 -0.2519 V -0.3268 C 0.03570001 -0.32619998 0.06510001 -0.32 0.09250001 -0.30879998 L 0.09620001 -0.31809998 C 0.06770001 -0.32979998 0.03700001 -0.33619997 0.005300015 -0.33679998 V -0.4048 C 0.045600016 -0.4042 0.08470002 -0.3962 0.121000014 -0.3814 L 0.12470002 -0.39069998 C 0.087200016 -0.40589997 0.04690002 -0.41419998 0.005300015 -0.4148 V -0.48979998 C 0.056400016 -0.48919997 0.10600001 -0.4791 0.15210001 -0.46049997 L 0.15580001 -0.46989998 C 0.107 -0.4897 0.0544 -0.5 3.0E-4 -0.5 C -0.0666 -0.5 -0.12979999 -0.484 -0.18589999 -0.4559 L -0.18129998 -0.4471 C -0.12709999 -0.47430003 -0.06699999 -0.4891 -0.00469999 -0.4898 V -0.4147 C -0.05549999 -0.4139 -0.10359999 -0.4016 -0.14639999 -0.3803 L -0.14179999 -0.37159997 C -0.09959999 -0.39249998 -0.05299999 -0.40389997 -0.0045999885 -0.40469998 V -0.3368 C -0.042399988 -0.3361 -0.07819999 -0.32700002 -0.11019999 -0.3113 L -0.105599985 -0.3025 C -0.074399985 -0.3176 -0.040199988 -0.326 -0.004599981 -0.3267 V -0.25169998 C -0.028199982 -0.251 -0.05059998 -0.24539998 -0.07069998 -0.23589998 L -0.06609998 -0.22709998 C -0.04699998 -0.23599999 -0.02609998 -0.24099998 -0.0045999773 -0.24159998 V -0.17349997 C -0.015199977 -0.17289998 -0.025199978 -0.17049997 -0.034499977 -0.16659997 L -0.029899977 -0.15779997 C -0.020399977 -0.16169998 -0.010099977 -0.16369997 4.0002353E-4 -0.16369997 C 0.021800024 -0.16369997 0.041900024 -0.15539996 0.057000026 -0.14029998 C 0.07210003 -0.12519997 0.08040003 -0.105099976 0.08040003 -0.08369997 C 0.08040003 -0.03959997 0.044500027 -0.0035999715 4.0002912E-4 -0.0035999715 C -0.020999972 -0.0035999715 -0.04109997 -0.011899971 -0.05619997 -0.02699997 C -0.07129997 -0.04209997 -0.07959997 -0.062199973 -0.07959997 -0.08359997 S -0.07129997 -0.12509997 -0.056199968 -0.14019997 C -0.048599966 -0.14779997 -0.03959997 -0.15369998 -0.029899968 -0.15769997 L -0.03449997 -0.16649997 C -0.04369997 -0.16259997 -0.052199967 -0.15719998 -0.05949997 -0.15059997 L -0.107699975 -0.19879997 C -0.095299974 -0.21049997 -0.081199974 -0.21989997 -0.06609997 -0.22699997 L -0.070699975 -0.23579997 C -0.08689997 -0.22819997 -0.10179997 -0.21799996 -0.114699975 -0.20589997 L -0.16779998 -0.25899997 C -0.14919998 -0.27689996 -0.12819998 -0.2914 -0.10549998 -0.30239996 L -0.110099986 -0.31119996 C -0.13399999 -0.29949996 -0.15579998 -0.28429997 -0.17479998 -0.26599997 L -0.22289997 -0.31409997 C -0.19859998 -0.33769998 -0.17119998 -0.35689998 -0.14169997 -0.37149996 L -0.14629997 -0.38019997 C -0.17719997 -0.36479998 -0.20539998 -0.34489995 -0.22999997 -0.32109997 L -0.2833 -0.3745 C -0.25280002 -0.4043 -0.2184 -0.4286 -0.18140002 -0.4471 L -0.18600002 -0.4559 C -0.26700002 -0.41520002 -0.333 -0.3488 -0.3732 -0.2675 L -0.3645 -0.2628 C -0.34579998 -0.3009 -0.32099998 -0.3362 -0.2905 -0.3675 L -0.23729998 -0.3143 C -0.26199996 -0.2888 -0.28269997 -0.2594 -0.29829997 -0.227 L -0.28959996 -0.2223 C -0.27479994 -0.25329998 -0.25489995 -0.2819 -0.23029995 -0.3073 L -0.18219995 -0.2592 C -0.20159996 -0.23900001 -0.21769996 -0.21560001 -0.22959995 -0.18990001 L -0.22089995 -0.1852 C -0.20969996 -0.2096 -0.19439995 -0.23230001 -0.17519996 -0.2522 L -0.12209995 -0.1991 C -0.13569996 -0.1847 -0.14669995 -0.1679 -0.15459995 -0.1494 L -0.14579995 -0.14469999 C -0.13859995 -0.16199999 -0.12819995 -0.17809999 -0.11509995 -0.19209999 L -0.066899955 -0.14389999 C -0.080099955 -0.1291 -0.088499956 -0.10999999 -0.089699954 -0.08899999 H -0.15779996 C -0.15719996 -0.10839999 -0.15309995 -0.12719998 -0.14579996 -0.14469999 L -0.15459996 -0.1494 C -0.16249996 -0.13069999 -0.16719997 -0.1103 -0.16779996 -0.0889 H -0.24279997 C -0.24209997 -0.1227 -0.23459996 -0.15529999 -0.22079997 -0.1852 L -0.22949997 -0.18990001 C -0.24379997 -0.15910001 -0.25209996 -0.12490001 -0.25279996 -0.08890001 H -0.32079995 C -0.32009995 -0.1358 -0.30929995 -0.18110001 -0.28959996 -0.2223 L -0.29829997 -0.227 C -0.31849998 -0.18509999 -0.33009997 -0.1383 -0.33079997 -0.0889 H -0.4057 C -0.405 -0.1502 -0.3906 -0.2092 -0.3643 -0.26279998 L -0.37300003 -0.26749998 C -0.4004 -0.21209998 -0.41580003 -0.14979997 -0.41580003 -0.08389999 C -0.41580003 -0.04359999 -0.41000003 -0.004199989 -0.39910004 0.033400007 L -0.38930005 0.030900007 C -0.39960006 -0.0043999944 -0.40530005 -0.04119999 -0.40570006 -0.078899994 H -0.33070004 C -0.33020005 -0.047499996 -0.32540005 -0.016799994 -0.31650004 0.012600005 L -0.30680004 0.010100005 C -0.31550005 -0.018399995 -0.32020003 -0.048299998 -0.32070005 -0.078899994 H -0.25280005 C -0.25230005 -0.053999994 -0.24820004 -0.029699996 -0.24080005 -0.006499991 L -0.23110005 -0.00899999 C -0.23830006 -0.03129999 -0.24230005 -0.05479999 -0.24280006 -0.07889999 H -0.16780005 C -0.16730006 -0.061099987 -0.16400005 -0.043699987 -0.15810005 -0.027399987 L -0.14830005 -0.029899986 C -0.15400006 -0.045499988 -0.15720005 -0.061999984 -0.15770005 -0.07899999 H -0.08960005 C -0.08850005 -0.05849999 -0.08050005 -0.039299987 -0.06680005 -0.023999989 L -0.11490005 0.02410001 C -0.12970005 0.00830001 -0.14100005 -0.00999999 -0.14820005 -0.029899992 L -0.15800005 -0.027399993 C -0.15030006 -0.005799992 -0.13820004 0.014100006 -0.12200005 0.031200008 L -0.17510006 0.08430001 C -0.20090006 0.05740001 -0.21980006 0.025600012 -0.23100007 -0.008999988 L -0.24070007 -0.0064999885 C -0.22910006 0.02980001 -0.20930007 0.06320001 -0.18210006 0.09150001 L -0.23020005 0.13960001 C -0.26610005 0.10250001 -0.29210004 0.05830001 -0.30680007 0.010200009 L -0.31650007 0.012700008 C -0.30140007 0.06250001 -0.27450007 0.10830001 -0.23730007 0.14670001 L -0.29040006 0.19980001 C -0.33740005 0.15170002 -0.37090006 0.09390002 -0.38930005 0.03110002 L -0.39910004 0.03360002 C -0.37980002 0.09980002 -0.34410003 0.16050002 -0.29400003 0.21060002 C -0.26010004 0.24460003 -0.22130004 0.27190003 -0.17920002 0.29200003 L -0.17420003 0.28320003 C -0.21400003 0.26420003 -0.2508 0.23870003 -0.28330004 0.20700002 L -0.23020004 0.15390001 C -0.20260003 0.1807 -0.17120004 0.202 -0.13720003 0.21760002 L -0.13220003 0.20880002 C -0.16540003 0.19370002 -0.19620004 0.17290002 -0.22310004 0.14680001 L -0.17510003 0.09880001 C -0.15260002 0.12050001 -0.12670003 0.13740002 -0.09870003 0.14930001 L -0.09380003 0.14050001 C -0.12100003 0.12910001 -0.14610003 0.11270001 -0.16800003 0.09170001 L -0.11490002 0.03860001 C -0.097800024 0.05470001 -0.078000024 0.06680001 -0.05650002 0.07450001 L -0.051500022 0.06560001 C -0.072300024 0.05840001 -0.09140003 0.046900008 -0.10780002 0.031500008 L -0.059700023 -0.01659999 C -0.04440002 -0.0028999904 -0.025200024 0.00500001 -0.0047000237 0.00620001 V 0.074300006 C -0.020800024 0.073800005 -0.036600024 0.07080001 -0.051500022 0.06570001 L -0.05650002 0.07460001 C -0.040100023 0.080500014 -0.022600021 0.08380001 -0.00470002 0.08430001 V 0.15930001 C -0.035800017 0.15870002 -0.06580002 0.15220001 -0.09370002 0.14060001 L -0.09860002 0.14940001 C -0.069200024 0.16190001 -0.037500024 0.16880001 -0.0046000257 0.1694 V 0.23740001 C -0.049300026 0.23670001 -0.09250002 0.22690001 -0.13210002 0.2089 L -0.13700001 0.2177 C -0.095900014 0.23650001 -0.051000006 0.2467 -0.0045000166 0.2474 V 0.3224 C -0.06410001 0.3217 -0.12160002 0.3082 -0.17400001 0.2832 L -0.179 0.292 C -0.12370001 0.31849998 -0.0627 0.33249998 4.9999356E-4 0.33249998 C 0.0667 0.33249998 0.13059999 0.31699997 0.188 0.288 L 0.18329999 0.27879998 C 0.12969999 0.30589998 0.06939999 0.3216 0.005499989 0.32239997 V 0.24739997 C 0.05619999 0.24669997 0.10489999 0.23449998 0.14899999 0.21229997 L 0.14429998 0.20319997 C 0.10239998 0.22429997 0.055399984 0.23649997 0.005499989 0.23729996 V 0.16929996 C 0.043499988 0.16859996 0.08009999 0.15939996 0.11319999 0.14289996 L 0.10849999 0.13389996 C 0.07729999 0.14939995 0.042399988 0.15849996 0.005399987 0.15929995 V 0.08429995 C 0.029599987 0.083599955 0.052899987 0.07779995 0.07409999 0.06739995 L 0.069499984 0.05839995 C 0.049999982 0.06789995 0.028299984 0.07349995 0.005399987 0.07429995 V 0.0061999485 C 0.025899988 0.0050999485 0.04509999 -0.002900052 0.060399987 -0.016600052 L 0.10849999 0.031499945 C 0.09699999 0.042299945 0.08389999 0.051399946 0.069499984 0.058399945 L 0.07409999 0.06739995 C 0.08909999 0.05999995 0.10309999 0.050399948 0.11559999 0.038699947 L 0.1686 0.09169994 C 0.15089999 0.10869995 0.13059999 0.122999944 0.10849999 0.13399994 L 0.11319999 0.14299995 C 0.13589999 0.13169995 0.15699999 0.116899945 0.1758 0.098799944 L 0.22369999 0.14669994 C 0.2003 0.16939993 0.17349999 0.18839994 0.1442 0.20319994 L 0.1489 0.21229994 C 0.1787 0.19729994 0.2063 0.17779994 0.2309 0.15399994 L 0.2838 0.20689994 C 0.2543 0.23569994 0.2203 0.25999993 0.1832 0.27879995 L 0.1879 0.28799996 C 0.22680001 0.26829997 0.2629 0.24239996 0.2946 0.21069996 C 0.328 0.17729996 0.3549 0.13919996 0.375 0.09799996 L 0.3749 0.0976 Z"/>
<path id="worldmap" d="M 0.0216 -0.1801 L 0.0217 -0.17709999 L 0.0242 -0.17719999 L 0.0241 -0.1802 L 0.0216 -0.1801 Z M 0.0179 -0.1842 H 0.0213 V -0.1816 H 0.0179 V -0.1842 Z M 0.0148 -0.1847 L 0.0152 -0.1872 L 0.0123000005 -0.1876 L 0.0119 -0.1851 L 0.0148 -0.1847 Z M 0.0094 -0.186 L 0.0065 -0.18640001 L 0.0069 -0.18890001 L 0.0098 -0.1885 L 0.0094 -0.186 Z M -0.0148 -0.1893 H -0.0114 V -0.1867 H -0.0148 V -0.1893 Z M -0.0192 -0.1838 L -0.018800002 -0.1863 L -0.021700002 -0.1867 L -0.022100002 -0.1842 L -0.0192 -0.1838 Z M -0.0218 -0.1804 L -0.0252 -0.1813 L -0.0246 -0.1838 L -0.0212 -0.1829 L -0.0218 -0.1804 Z M -0.0278 -0.1772 L -0.028199999 -0.1798 L -0.0257 -0.18020001 L -0.0253 -0.17760001 L -0.0278 -0.1772 Z M -0.3586 0.0799 H -0.36069998 V 0.084199995 H -0.35729998 V 0.0897 H -0.3548 L -0.3552 0.0833 L -0.3586 0.082 V 0.0799 Z M -0.3351 0.111 L -0.3368 0.107200004 L -0.3397 0.0995 L -0.3334 0.1025 L -0.33130002 0.1085 L -0.32840002 0.110599995 L -0.3255 0.11699999 L -0.32720003 0.11999999 L -0.3318 0.11569999 L -0.3351 0.111 Z M -0.2407 0.2303 L -0.2441 0.2252 L -0.23910001 0.2261 L -0.2337 0.2308 L -0.2316 0.2363 L -0.2345 0.238 L -0.2362 0.23550001 L -0.2404 0.2342 L -0.2407 0.2303 Z M -0.0127 -0.1527 H -0.0173 L -0.0181 -0.1621 L -0.015600001 -0.1638 V -0.1685 H -0.030300003 L -0.030700002 -0.17320001 L -0.028600002 -0.17450002 L -0.032 -0.17580003 L -0.034500003 -0.17240003 L -0.0353 -0.16860002 L -0.0395 -0.16770002 V -0.16560002 H -0.042400002 V -0.16010001 L -0.0542 -0.15030001 L -0.077700004 -0.15110001 C -0.0794 -0.1473 -0.08360001 -0.15150002 -0.08360001 -0.15150002 C -0.084400006 -0.15410002 -0.09030001 -0.15150002 -0.09030001 -0.15150002 C -0.09030001 -0.14680001 -0.09830001 -0.15360002 -0.09830001 -0.15360002 L -0.11300001 -0.16430002 C -0.12140001 -0.17200002 -0.13400002 -0.16220002 -0.13440001 -0.16000003 C -0.134 -0.15400003 -0.14410001 -0.15870002 -0.14410001 -0.15870002 S -0.1525 -0.16130002 -0.15380001 -0.15780002 C -0.15510002 -0.15440002 -0.1605 -0.15520002 -0.1605 -0.15520002 L -0.1613 -0.15350002 L -0.1655 -0.15260002 L -0.1663 -0.15000002 L -0.1713 -0.14910002 L -0.15869999 -0.14950003 C -0.15529999 -0.14990003 -0.16 -0.14230002 -0.16209999 -0.14270003 L -0.16799998 -0.14230002 L -0.17009999 -0.14020002 H -0.17559999 L -0.17809999 -0.13680002 L -0.18609999 -0.13720003 C -0.18609999 -0.13720003 -0.1907 -0.13340002 -0.19029999 -0.13210003 C -0.18989998 -0.13080002 -0.19109999 -0.12700003 -0.1924 -0.12700003 C -0.1937 -0.12700003 -0.1962 -0.12320004 -0.1953 -0.12190004 C -0.1945 -0.12060004 -0.1978 -0.11640003 -0.1978 -0.11640003 L -0.1986 -0.112100035 L -0.20109999 -0.11130004 V -0.099800035 L -0.20609999 -0.09640004 V -0.09130004 L -0.21369998 -0.08320004 L -0.21289998 -0.076400034 L -0.21919999 -0.06960003 L -0.21839999 -0.06280003 L -0.22219999 -0.061500028 L -0.22299999 -0.05850003 L -0.22469999 -0.049600028 L -0.22049999 -0.04920003 C -0.21839999 -0.05010003 -0.2188 -0.04370003 -0.22049999 -0.042800028 C -0.22219999 -0.041900028 -0.2268 -0.04020003 -0.2243 -0.038500026 C -0.2218 -0.036800027 -0.23099999 -0.037200026 -0.23099999 -0.039800026 C -0.23099999 -0.042300027 -0.23599999 -0.044500027 -0.2373 -0.043600027 C -0.2386 -0.042800028 -0.24069999 -0.047400028 -0.24069999 -0.047400028 C -0.2453 -0.05210003 -0.25959998 -0.04700003 -0.25959998 -0.04700003 L -0.26169997 -0.04020003 C -0.26629996 -0.03930003 -0.26919997 -0.03170003 -0.26919997 -0.03170003 C -0.27299997 -0.03040003 -0.27589998 -0.025700029 -0.27469996 -0.024500031 C -0.27339995 -0.023200031 -0.27679995 -0.02280003 -0.27679995 -0.02280003 V -0.01340003 L -0.27889994 -0.010400031 L -0.27849993 -2.000304E-4 C -0.27599993 -2.000304E-4 -0.27639994 0.0044999695 -0.27639994 0.0044999695 C -0.28059995 0.0048999693 -0.27979994 0.010499969 -0.27979994 0.010499969 L -0.28859994 0.01349997 L -0.29029995 0.016099969 L -0.30119994 0.01569997 L -0.30409995 0.01869997 L -0.30699995 0.01569997 H -0.32799995 L -0.32879996 0.013599969 L -0.33299997 0.012699969 L -0.33339998 0.00799997 L -0.33969998 0.00839997 L -0.341 0.01099997 L -0.3477 0.01139997 C -0.3473 0.015699971 -0.3544 0.022099972 -0.3552 0.02039997 C -0.3561 0.018699968 -0.36069998 0.013999969 -0.3586 0.013199969 C -0.3565 0.012299969 -0.35099998 0.011499969 -0.35099998 0.011499969 V 0.008499969 L -0.3665 0.008099969 L -0.3682 0.010699969 L -0.3745 0.011099969 V 0.01789997 L -0.3774 0.01879997 C -0.3795 0.02009997 -0.377 0.024799969 -0.377 0.024799969 C -0.3741 0.02779997 -0.3774 0.03249997 -0.3774 0.03249997 C -0.3799 0.03509997 -0.37530002 0.03979997 -0.37530002 0.03979997 C -0.37190002 0.04059997 -0.3774 0.04319997 -0.3774 0.04319997 C -0.3766 0.04749997 -0.374 0.04869997 -0.374 0.04869997 C -0.3765 0.052999973 -0.3723 0.05509997 -0.3723 0.05509997 L -0.3719 0.062399972 L -0.369 0.064099975 V 0.06879997 L -0.36729997 0.07179997 H -0.36059996 L -0.36099997 0.06119997 C -0.36689997 0.05439997 -0.35599998 0.05269997 -0.35549998 0.05519997 C -0.35509998 0.05779997 -0.3505 0.05899997 -0.3505 0.05899997 C -0.34969997 0.06539997 -0.3425 0.06919997 -0.34039998 0.06279997 C -0.3383 0.056399968 -0.33659998 0.06019997 -0.3354 0.06319997 C -0.33409998 0.066199966 -0.32619998 0.07339997 -0.32619998 0.07339997 H -0.31989998 L -0.31909996 0.079399966 C -0.31199998 0.07899997 -0.30989996 0.079799965 -0.30689996 0.08959997 C -0.30399996 0.09939997 -0.29599997 0.10199997 -0.29599997 0.10199997 L -0.29009998 0.10159997 C -0.29009998 0.09649997 -0.28419998 0.10249997 -0.28419998 0.10499997 C -0.28419998 0.107499965 -0.2729 0.11729997 -0.2729 0.11729997 L -0.2616 0.119899966 L -0.25109997 0.12839997 L -0.24309997 0.12749997 H -0.23969997 C -0.23759997 0.12019997 -0.22749998 0.12789997 -0.22669998 0.13049997 C -0.22589998 0.13309997 -0.21909998 0.13729997 -0.21829998 0.13519998 C -0.21749999 0.13309997 -0.21279998 0.13439998 -0.21199998 0.14069998 C -0.21119998 0.14709999 -0.20819998 0.14579998 -0.20819998 0.14579998 L -0.18429998 0.14539997 L -0.17589998 0.13809997 L -0.15449998 0.13769996 C -0.14359997 0.13729995 -0.15029998 0.12239996 -0.15239997 0.12239996 C -0.15619998 0.119399965 -0.15109996 0.107099965 -0.15109996 0.107099965 L -0.18169996 0.07859997 C -0.18879996 0.07859997 -0.18249996 0.068399966 -0.18249996 0.068399966 C -0.17699996 0.06499997 -0.18379997 0.059499964 -0.18379997 0.059499964 C -0.18299997 0.054399963 -0.18669997 0.048399962 -0.18669997 0.048399962 C -0.19419996 0.04329996 -0.19219998 0.033499964 -0.19219998 0.033499964 V 0.026699964 C -0.19849998 0.020699963 -0.18969998 0.019899964 -0.18969998 0.019899964 C -0.18679997 0.014799964 -0.19179998 0.010999965 -0.19179998 0.010999965 L -0.19219999 0.0054999646 L -0.19889998 0.0045999647 L -0.19969998 -0.015400035 L -0.21479999 -0.037100036 C -0.21769999 -0.038000036 -0.21559998 -0.043100037 -0.21559998 -0.043100037 C -0.21179998 -0.045200035 -0.21639998 -0.050300036 -0.21639998 -0.050300036 L -0.21679999 -0.059700035 L -0.20799999 -0.060600035 L -0.20589998 -0.06400003 H -0.20169999 L -0.2021 -0.075100034 C -0.19999999 -0.08060004 -0.195 -0.077700034 -0.195 -0.077700034 L -0.1891 -0.077300034 L -0.1857 -0.08370003 L -0.1849 -0.08880003 L -0.1895 -0.08920003 C -0.1945 -0.092200026 -0.192 -0.10330003 -0.192 -0.10330003 C -0.184 -0.11520003 -0.17480001 -0.108400024 -0.17480001 -0.108400024 L -0.16890001 -0.108800024 C -0.16010001 -0.10280003 -0.16810001 -0.09180002 -0.16810001 -0.09180002 C -0.16980001 -0.08920002 -0.16890001 -0.08110002 -0.16890001 -0.08110002 L -0.1668 -0.06750002 L -0.17230001 -0.06280002 C -0.17690001 -0.06020002 -0.17690001 -0.054300018 -0.1719 -0.053000018 C -0.1685 -0.05260002 -0.1698 -0.044500016 -0.17480001 -0.05000002 C -0.1824 -0.05000002 -0.17060001 -0.04320002 -0.17400001 -0.04490002 C -0.16640002 -0.041100018 -0.16810001 -0.04830002 -0.16810001 -0.04830002 L -0.15800002 -0.05640002 C -0.15420002 -0.05940002 -0.14750002 -0.05000002 -0.14750002 -0.04870002 C -0.14750002 -0.04740002 -0.13070002 -0.04830002 -0.13070002 -0.04830002 C -0.12610002 -0.04530002 -0.12440002 -0.037600018 -0.12440002 -0.037600018 C -0.11980002 -0.04360002 -0.110100016 -0.038000017 -0.11730002 -0.03460002 C -0.11060002 -0.03030002 -0.11060002 -0.02650002 -0.11060002 -0.02650002 C -0.10510002 -0.028200021 -0.10510002 -0.02390002 -0.10510002 -0.02270002 C -0.10510002 -0.02140002 -0.10340002 -0.02910002 -0.10340002 -0.02910002 C -0.109700024 -0.03380002 -0.09500002 -0.03550002 -0.099200025 -0.02700002 L -0.10170002 -0.02320002 L -0.097500026 -0.01980002 L -0.09710003 -0.01000002 C -0.08790003 -0.010900021 -0.090400025 -0.022400022 -0.090400025 -0.022400022 L -0.08620003 -0.023200022 C -0.08620003 -0.027000021 -0.08330003 -0.024900023 -0.08330003 -0.024900023 C -0.08620003 -0.039400022 -0.07660003 -0.041900024 -0.07660003 -0.041900024 C -0.07110003 -0.043200023 -0.07070003 -0.054700024 -0.07070003 -0.054700024 C -0.074500024 -0.056400023 -0.072400026 -0.062400024 -0.06820003 -0.057200026 C -0.06400003 -0.052100025 -0.07070003 -0.06740002 -0.07070003 -0.06740002 L -0.074100025 -0.07040002 L -0.07870003 -0.07080002 L -0.07910003 -0.07550002 H -0.08670003 L -0.08800003 -0.06950002 L -0.090900026 -0.06860002 L -0.091700025 -0.07030002 L -0.093000025 -0.06560002 H -0.10060003 L -0.101000026 -0.07070002 L -0.09640002 -0.07200002 L -0.09470002 -0.07460002 L -0.093400024 -0.08140002 H -0.08790003 L -0.08080003 -0.08350002 C -0.08040003 -0.09070002 -0.07660003 -0.08900002 -0.07660003 -0.08900002 L -0.07410003 -0.08690002 L -0.070300035 -0.08390002 L -0.069900036 -0.08130002 L -0.07240003 -0.08000002 L -0.07280003 -0.07660002 L -0.07150003 -0.071900025 H -0.068100035 C -0.066800036 -0.07870003 -0.058000036 -0.07870003 -0.055500034 -0.074500024 L -0.053000033 -0.08050002 C -0.058900032 -0.08350002 -0.053100035 -0.08820002 -0.051400032 -0.086000025 C -0.049700033 -0.08390003 -0.04580003 -0.09150003 -0.04580003 -0.09150003 S -0.04290003 -0.08770003 -0.04580003 -0.09280003 S -0.043700032 -0.10050003 -0.043700032 -0.10050003 C -0.04450003 -0.10560003 -0.038200032 -0.10480003 -0.038200032 -0.10480003 L -0.037800033 -0.111600034 L -0.043700032 -0.11200003 C -0.04500003 -0.106000036 -0.05000003 -0.11110003 -0.047500033 -0.11240003 C -0.04500003 -0.11370003 -0.042500034 -0.11620003 -0.042500034 -0.11620003 V -0.12050003 L -0.040000033 -0.12140003 L -0.039600033 -0.12570003 H -0.033300035 L -0.027800035 -0.12830003 L -0.026500035 -0.13040003 L -0.020600036 -0.13080004 L -0.012200036 -0.13850003 L -0.013000036 -0.14190003 C -0.018000036 -0.14190003 -0.013000036 -0.14570004 -0.013000036 -0.14570004 L -0.0127 -0.1527 L -0.0127 -0.1527 Z M -0.1819 -0.0683 L -0.18949999 -0.0692 L -0.18909998 -0.0662 H -0.18699998 C -0.18359998 -0.060200002 -0.18659997 -0.0458 -0.18659997 -0.0458 S -0.19159997 -0.0454 -0.19249997 -0.0479 C -0.19329996 -0.050499998 -0.19539997 -0.0424 -0.19379997 -0.0411 C -0.19209997 -0.0398 -0.18619998 -0.0411 -0.18579997 -0.036399998 C -0.18539996 -0.031699996 -0.18199997 -0.039399996 -0.18199997 -0.039399996 V -0.0683 L -0.1819 -0.0683 Z M -0.1853 -0.0313 L -0.18949999 -0.033800002 V -0.0236 L -0.1828 -0.014700001 L -0.1803 -0.0207 L -0.1794 -0.024500001 L -0.1823 -0.0258 L -0.1819 -0.0322 L -0.1794 -0.0326 L -0.17899999 -0.0356 L -0.1853 -0.0313 Z M -0.1785 -0.0096 L -0.1814 -0.0092 L -0.18180001 -0.0058000004 L -0.17840001 -0.0054000006 V -0.0096 Z M -0.1823 0.0122 L -0.1859 0.0126 V 0.0156 L -0.1823 0.015199999 V 0.0122 Z M -0.1774 0.0021 C -0.17639999 0.0021 -0.17559999 0.0012999999 -0.17559999 2.9999996E-4 C -0.17559999 -7.000001E-4 -0.17639999 -0.0015 -0.1774 -0.0015 C -0.1784 -0.0015 -0.1792 -7.0000003E-4 -0.1792 2.9999996E-4 C -0.1792 0.0012 -0.1784 0.0021 -0.1774 0.0021 Z M -0.1744 0.0074 C -0.1734 0.0074 -0.1726 0.0082 -0.1726 0.0092 S -0.1734 0.011 -0.1744 0.011 S -0.1762 0.0102 -0.1762 0.0092 S -0.1754 0.0074 -0.1744 0.0074 Z M -0.1743 -0.0413 C -0.1733 -0.0413 -0.1725 -0.0405 -0.1725 -0.039499998 S -0.1733 -0.037699997 -0.1743 -0.037699997 C -0.1753 -0.037699997 -0.1761 -0.038499996 -0.1761 -0.039499998 S -0.1753 -0.0413 -0.1743 -0.0413 Z M -0.0367 -0.0777 L -0.0358 -0.08279999 L -0.035499997 -0.08659999 L -0.033699997 -0.08919999 L -0.028699998 -0.09129999 V -0.09939999 H -0.031199997 L -0.0316 -0.10239999 L -0.036199998 -0.10279999 L -0.036999997 -0.10069999 H -0.039099995 L -0.039499994 -0.09729999 H -0.036999993 L -0.036599994 -0.094799995 L -0.038299993 -0.0931 L -0.03909999 -0.091 L -0.042499993 -0.0901 L -0.05009999 -0.0828 L -0.05049999 -0.0794 L -0.05259999 -0.076400004 L -0.05509999 -0.07000001 L -0.063899994 -0.06960001 L -0.06559999 -0.06190001 L -0.064399995 -0.05550001 L -0.056799993 -0.05250001 L -0.055899993 -0.056800008 L -0.05339999 -0.058100007 L -0.052999992 -0.062400006 L -0.051299993 -0.065400004 L -0.04879999 -0.0684 L -0.047999993 -0.0718 L -0.043799993 -0.0743 L -0.038799994 -0.0752 L -0.0367 -0.0777 Z M -0.0199 -0.0735 V -0.0795 L -0.0207 -0.08499999 L -0.027 -0.08799999 L -0.031600002 -0.083699994 L -0.0324 -0.0777 V -0.0739 L -0.0366 -0.073 L -0.0374 -0.061499998 L -0.0408 -0.0602 L -0.040400002 -0.0559 L -0.045 -0.0546 L -0.0496 -0.0533 L -0.0504 -0.0478 L -0.0538 -0.045700002 L -0.0555 -0.0406 L -0.0576 -0.0282 C -0.0576 -0.0282 -0.053799998 -0.021000002 -0.0517 -0.0244 C -0.0496 -0.0278 -0.0462 -0.0282 -0.0462 -0.0282 L -0.0449 -0.031200001 L -0.0336 -0.030800002 C -0.0328 -0.0355 -0.027299998 -0.033800002 -0.027299998 -0.0317 C -0.027299998 -0.0296 -0.023099998 -0.0313 -0.023099998 -0.0313 L -0.020199997 -0.036000002 H -0.015599998 L -0.015199997 -0.041100003 L -0.013099997 -0.042400002 V -0.050100002 C -0.0063999975 -0.0522 -0.007199997 -0.0586 -0.007199997 -0.0586 L -0.005499997 -0.0607 L -0.006299997 -0.0637 C -0.0096999975 -0.065 -0.007999998 -0.067999996 -0.0058999974 -0.067099996 C -0.0037999975 -0.066199996 -0.008799997 -0.07089999 -0.008799997 -0.07089999 C -0.011299998 -0.068799995 -0.013399998 -0.07349999 -0.013399998 -0.07349999 H -0.0199 L -0.0199 -0.0735 Z M -0.0132 -0.0219 C -0.0136 -0.0168 -0.0199 -0.0151 -0.0199 -0.0151 L -0.0245 -0.0164 L -0.026999999 -0.0185 L -0.027399998 -0.024500001 L -0.023599997 -0.0249 L -0.022799997 -0.022300001 L -0.0132 -0.0219 L -0.0132 -0.0219 Z M 0.0095 -0.0492 C 0.0104 -0.0455 0.010299999 -0.0552 0.012 -0.0547 C 0.0137 -0.0543 0.0124 -0.0607 0.0124 -0.0607 L 0.0048 -0.0552 C 0.0087 -0.0547 0.0091 -0.0509 0.0095 -0.0492 L 0.0095 -0.0492 Z M 0.0318 -0.0713 C 0.0335 -0.0675 0.0331 -0.0619 0.039400004 -0.0577 C 0.041500002 -0.0563 0.038100004 -0.053400002 0.036000002 -0.054700002 C 0.033900004 -0.056 0.028 -0.065400004 0.028 -0.065400004 V -0.07090001 C 0.0292 -0.0743 0.031 -0.073 0.0318 -0.0713 L 0.0318 -0.0713 Z M 0.0347 0.056 L 0.031799998 0.0581 L 0.033 0.0594 L 0.0342 0.061499998 L 0.037100002 0.056799997 L 0.0347 0.056 Z M 0.0213 0.0514 V 0.0565 M 0.0853 0.0431 L 0.084 0.041 L 0.080699995 0.0431 L 0.081999995 0.0453 L 0.0853 0.0431 Z M 0.2035 0.134 L 0.2073 0.1357 L 0.20770001 0.1429 C 0.21270001 0.148 0.22910002 0.1438 0.22910002 0.1425 S 0.22830002 0.1267 0.22830002 0.1267 L 0.22620001 0.1246 L 0.22580001 0.1139 C 0.2275 0.1084 0.2178 0.1003 0.21700001 0.102 C 0.21620001 0.1037 0.2107 0.1024 0.2107 0.1041 C 0.2107 0.105799995 0.2073 0.1143 0.209 0.1173 C 0.2107 0.120299995 0.2077 0.120299995 0.2073 0.12329999 S 0.2026 0.1315 0.2035 0.134 L 0.2035 0.134 Z M 0.1942 0.117 C 0.1934 0.1202 0.19039999 0.122099996 0.18879999 0.120799996 C 0.1871 0.1195 0.1909 0.122899994 0.1917 0.12459999 C 0.1925 0.12629999 0.1951 0.12629999 0.1959 0.12459999 C 0.19669999 0.122899994 0.1963 0.11909999 0.1972 0.11739999 C 0.198 0.1157 0.1946 0.1153 0.1942 0.117 L 0.1942 0.117 Z M 0.1747 0.0388 H 0.17760001 V 0.0469 H 0.1747 V 0.0388 Z M 0.2182 -0.0432 C 0.2164 -0.045700002 0.22659999 -0.05 0.2283 -0.0449 C 0.23 -0.0398 0.2283 -0.0406 0.2266 -0.0411 C 0.2249 -0.0415 0.2207 -0.0398 0.2182 -0.0432 L 0.2182 -0.0432 Z M 0.2267 -0.0978 L 0.2313 -0.097 L 0.23179999 -0.0995 L 0.22719999 -0.1003 L 0.2267 -0.0978 Z M 0.2157 -0.0922 L 0.218 -0.093100004 L 0.2171 -0.0952 L 0.2166 -0.0965 L 0.2154 -0.095800005 L 0.2123 -0.094000004 L 0.2096 -0.0957 L 0.2083 -0.093600005 L 0.21169999 -0.09150001 L 0.21229999 -0.09110001 L 0.21289998 -0.09150001 L 0.21539998 -0.09290001 L 0.2157 -0.0922 Z M 0.2312 -0.1966 H 0.22489999 C 0.22489999 -0.1966 0.227 -0.1957 0.22109999 -0.20130001 C 0.21519999 -0.20680001 0.21139999 -0.2 0.21139999 -0.2 L 0.2047 -0.1991 V -0.1923 L 0.2013 -0.191 L 0.2017 -0.1867 L 0.2063 -0.18710001 C 0.2063 -0.18710001 0.2063 -0.18200001 0.20760001 -0.1841 C 0.20890002 -0.18620001 0.21940002 -0.1837 0.21850002 -0.1786 C 0.21820001 -0.1765 0.22900002 -0.1709 0.22770002 -0.16409999 C 0.23320003 -0.16319999 0.23190002 -0.15769999 0.23190002 -0.15769999 L 0.23900002 -0.15679999 L 0.24110003 -0.16109999 L 0.24320003 -0.16069998 V -0.1634 L 0.23860003 -0.1647 L 0.23780003 -0.17830001 L 0.23490003 -0.18040001 L 0.23570003 -0.18380001 L 0.23230003 -0.18510002 L 0.23400003 -0.19060002 L 0.2312 -0.1966 L 0.2312 -0.1966 Z M 0.2496 -0.1531 L 0.2462 -0.1535 L 0.2386 -0.1522 L 0.2344 -0.1441 C 0.2344 -0.1441 0.23650001 -0.14279999 0.23820001 -0.1398 C 0.23990001 -0.13679999 0.2407 -0.119399995 0.23570001 -0.116399996 C 0.23070002 -0.1134 0.23610002 -0.1151 0.23610002 -0.1151 L 0.23530002 -0.10569999 C 0.23660003 -0.101399995 0.23870002 -0.103599995 0.23990002 -0.10569999 C 0.24120003 -0.10779999 0.24240002 -0.10829999 0.24410002 -0.11039999 C 0.24580002 -0.11249999 0.24830002 -0.11639999 0.24870002 -0.11929999 C 0.24910003 -0.12229999 0.25120002 -0.12699999 0.25000003 -0.1282 C 0.24870002 -0.1295 0.25130004 -0.1354 0.25130004 -0.1354 S 0.25300005 -0.1388 0.25130004 -0.1422 C 0.24960004 -0.14559999 0.25170004 -0.1494 0.25300005 -0.1512 L 0.2496 -0.1531 L 0.2496 -0.1531 Z M 0.2547 -0.1357 L 0.2551 -0.1391 L 0.2576 -0.1388 L 0.2572 -0.1354 L 0.2547 -0.1357 Z M 0.2545 -0.124 L 0.2523 -0.1251 L 0.2536 -0.1277 L 0.2558 -0.1266 L 0.2545 -0.124 Z M 0.2509 -0.1578 L 0.2492 -0.16160001 C 0.2492 -0.16160001 0.2492 -0.165 0.25 -0.1667 C 0.2508 -0.1684 0.2483 -0.1701 0.2471 -0.17050001 C 0.24579999 -0.17090002 0.2463 -0.17430001 0.24579999 -0.17600001 C 0.24539998 -0.17770001 0.24239999 -0.17900002 0.24239999 -0.17900002 S 0.24159999 -0.18540002 0.24159999 -0.18670002 S 0.23779999 -0.18970002 0.2391 -0.19100001 C 0.2404 -0.19230002 0.2412 -0.19400002 0.24249999 -0.19480002 C 0.2438 -0.19570002 0.24119999 -0.20160002 0.24329999 -0.20030002 C 0.2454 -0.19900002 0.2454 -0.19690003 0.2462 -0.19520003 C 0.247 -0.19350003 0.24579999 -0.18750003 0.2479 -0.18630002 C 0.25 -0.18500002 0.24749999 -0.18080002 0.25079998 -0.18080002 C 0.25419998 -0.18080002 0.2521 -0.17270002 0.2521 -0.17270002 S 0.25129998 -0.16670002 0.2534 -0.16630001 C 0.2555 -0.1659 0.2542 -0.15560001 0.2542 -0.15560001 L 0.2509 -0.1578 L 0.2509 -0.1578 Z M 0.2236 -0.2268 C 0.2249 -0.2251 0.2274 -0.22379999 0.2274 -0.22209999 C 0.2274 -0.22039999 0.2266 -0.21909998 0.2291 -0.21869999 C 0.2316 -0.21829998 0.2333 -0.2191 0.2341 -0.217 C 0.2349 -0.21489999 0.2349 -0.21149999 0.2345 -0.20979999 C 0.2341 -0.20809999 0.23490001 -0.20549999 0.237 -0.20549999 C 0.23910001 -0.20549999 0.2395 -0.20509999 0.2395 -0.2038 C 0.2395 -0.20249999 0.242 -0.2085 0.242 -0.2085 C 0.2399 -0.2102 0.2382 -0.214 0.2382 -0.214 S 0.23609999 -0.22 0.23609999 -0.2208 S 0.23319998 -0.2225 0.23189999 -0.2229 C 0.23059998 -0.22330001 0.2285 -0.2272 0.2285 -0.2272 L 0.2236 -0.2268 L 0.2236 -0.2268 Z M 0.2278 -0.2306 C 0.22649999 -0.2323 0.2253 -0.2336 0.2236 -0.2344 C 0.2219 -0.2353 0.2207 -0.2361 0.219 -0.2361 C 0.2173 -0.2361 0.2156 -0.2378 0.2165 -0.23990001 C 0.2173 -0.24200001 0.21519999 -0.24290001 0.21519999 -0.24460001 C 0.21519999 -0.24630001 0.2165 -0.24630001 0.21859999 -0.24500002 C 0.2207 -0.24370001 0.22029999 -0.24330002 0.22199999 -0.24120001 C 0.22369999 -0.23910001 0.22449999 -0.23690002 0.22619998 -0.23740001 C 0.22789998 -0.23780002 0.22909999 -0.2336 0.23079999 -0.23480001 C 0.23249999 -0.23610002 0.2321 -0.2318 0.2321 -0.2318 L 0.2278 -0.2306 L 0.2278 -0.2306 Z M 0.1787 -0.1825 C 0.181 -0.18010001 0.1661 -0.1808 0.1661 -0.1825 C 0.1661 -0.1842 0.1674 -0.1902 0.17109999 -0.18890001 C 0.1749 -0.1876 0.17529999 -0.1966 0.17529999 -0.1966 S 0.17189999 -0.1962 0.17489998 -0.19790001 C 0.17779998 -0.19960001 0.17489998 -0.20220001 0.17359997 -0.20340002 C 0.17229997 -0.20470002 0.17109998 -0.20680001 0.17109998 -0.20680001 H 0.17699997 C 0.17949997 -0.20850001 0.18039997 -0.21660002 0.18039997 -0.21660002 C 0.18539996 -0.21490002 0.18799996 -0.21830001 0.18799996 -0.21830001 S 0.18889996 -0.21570002 0.19049996 -0.21360001 C 0.19219996 -0.2115 0.18629996 -0.2106 0.18839996 -0.20930001 C 0.19049996 -0.208 0.19129996 -0.20420001 0.19049996 -0.2029 C 0.18969996 -0.2016 0.18499996 -0.2025 0.18499996 -0.20420001 C 0.18499996 -0.20590001 0.18329996 -0.20210001 0.18499996 -0.19990002 C 0.18669996 -0.19780001 0.18289995 -0.19480002 0.18209995 -0.19480002 S 0.17579995 -0.19390002 0.18039995 -0.19140002 C 0.18499996 -0.18880002 0.19009995 -0.19010001 0.19009995 -0.19010001 S 0.19389996 -0.19050002 0.19509995 -0.18840002 C 0.19639996 -0.18630001 0.19469994 -0.18580002 0.19259995 -0.18580002 C 0.19049995 -0.18580002 0.18039995 -0.18670002 0.18039995 -0.18670002 S 0.1774 -0.1838 0.1787 -0.1825 L 0.1787 -0.1825 Z M 0.1518 -0.1787 C 0.15390001 -0.1791 0.15890001 -0.1796 0.15980001 -0.1783 C 0.1606 -0.17699999 0.1569 -0.17529999 0.1569 -0.17529999 L 0.15190001 -0.17439999 C 0.1501 -0.1766 0.1497 -0.1783 0.1518 -0.1787 L 0.1518 -0.1787 Z M 0.206 -0.2145 C 0.2094 -0.2162 0.2165 -0.2162 0.2161 -0.2188 C 0.2157 -0.2214 0.2203 -0.22219999 0.2203 -0.22219999 L 0.22160001 -0.2171 L 0.22540002 -0.2145 L 0.22580002 -0.20979999 C 0.22580002 -0.20979999 0.22710003 -0.21069999 0.22240002 -0.20939998 C 0.21780002 -0.20809998 0.22070003 -0.20599999 0.22070003 -0.20599999 L 0.21060002 -0.20559998 L 0.20930001 -0.20989998 L 0.206 -0.2145 L 0.206 -0.2145 Z M 0.1896 -0.2375 C 0.1922 -0.2375 0.1888 -0.2277 0.1955 -0.2286 C 0.2022 -0.2295 0.19590001 -0.22559999 0.201 -0.2252 C 0.206 -0.22479999 0.20480001 -0.229 0.20650001 -0.232 C 0.20820001 -0.235 0.2073 -0.2367 0.2044 -0.2375 C 0.2015 -0.2384 0.2015 -0.2384 0.2006 -0.2418 C 0.1998 -0.2452 0.1964 -0.2461 0.1964 -0.2461 L 0.1951 -0.2512 L 0.18959999 -0.2478 L 0.18409999 -0.24059999 C 0.1841 -0.2349 0.1871 -0.2375 0.1896 -0.2375 L 0.1896 -0.2375 Z M 0.2007 -0.2015 L 0.202 -0.2041 L 0.2043 -0.203 L 0.203 -0.2004 L 0.2007 -0.2015 Z M 0.1963 -0.2055 H 0.1988 V -0.2025 H 0.1963 V -0.2055 Z M 0.1984 -0.2623 L 0.19880001 -0.2585 L 0.19630001 -0.25820002 L 0.19590001 -0.26200002 L 0.1984 -0.2623 Z M 0.1913 -0.2226 H 0.1938 V -0.22049999 H 0.1913 V -0.2226 Z M 0.1847 -0.2226 L 0.1845 -0.2251 L 0.18869999 -0.2255 L 0.1889 -0.223 L 0.1847 -0.2226 Z M 0.15 -0.1816 L 0.14770001 -0.1826 L 0.14900002 -0.18560001 L 0.15130001 -0.18460001 L 0.15 -0.1816 Z M 0.1369 -0.1894 L 0.13669999 -0.1919 L 0.14089999 -0.1923 L 0.14109999 -0.18980001 L 0.1369 -0.1894 Z M 0.0548 -0.1898 L 0.0549 -0.1873 L 0.064100005 -0.1877 L 0.064 -0.1902 L 0.0548 -0.1898 Z M 0.0486 -0.1865 L 0.0478 -0.1903 L 0.050300002 -0.1909 L 0.0511 -0.1871 L 0.0486 -0.1865 Z M 0.0469 -0.1838 L 0.0461 -0.1862 L 0.0474 -0.1866 L 0.0482 -0.1842 L 0.0469 -0.1838 Z M 0.0679 -0.191 L 0.0675 -0.188 L 0.072100006 -0.18759999 C 0.072100006 -0.18759999 0.074200004 -0.18589999 0.074200004 -0.18459998 C 0.074200004 -0.18329997 0.0771 -0.18199998 0.07880001 -0.18199998 C 0.08050001 -0.18199998 0.08510001 -0.18539998 0.08510001 -0.18539998 S 0.08720001 -0.19139998 0.08550001 -0.19089998 C 0.08380001 -0.19049998 0.08050001 -0.18789998 0.08000001 -0.19049998 C 0.079600014 -0.19309998 0.07450001 -0.19179998 0.07450001 -0.19179998 L 0.0679 -0.191 L 0.0679 -0.191 Z M 0.0888 -0.1957 C 0.0888 -0.1944 0.088 -0.1927 0.0905 -0.1923 C 0.092999995 -0.1919 0.0976 -0.194 0.0981 -0.1914 C 0.0985 -0.1888 0.0985 -0.18710001 0.1019 -0.1859 C 0.105299994 -0.1846 0.1074 -0.1842 0.1099 -0.1842 C 0.112399995 -0.1842 0.1179 -0.1851 0.1179 -0.1851 S 0.1238 -0.1842 0.125 -0.183 C 0.1296 -0.1783 0.1326 -0.177 0.1338 -0.1792 C 0.1351 -0.1813 0.1334 -0.18599999 0.133 -0.18769999 C 0.1326 -0.18939999 0.1267 -0.19749999 0.1246 -0.19579999 C 0.1225 -0.19409999 0.1221 -0.19579999 0.1183 -0.19449998 C 0.1145 -0.19319998 0.1065 -0.19409998 0.1061 -0.19579999 C 0.1057 -0.19749999 0.0998 -0.19829999 0.0998 -0.20009999 C 0.0998 -0.20179999 0.0956 -0.2039 0.096 -0.2014 S 0.093100004 -0.19759999 0.0922 -0.19839999 C 0.0914 -0.1991 0.0888 -0.1957 0.0888 -0.1957 L 0.0888 -0.1957 Z M 0.1854 -0.2503 L 0.1883 -0.2597 C 0.1841 -0.2606 0.1849 -0.2652 0.1849 -0.2652 C 0.1845 -0.269 0.1786 -0.2733 0.17650001 -0.27199998 C 0.1744 -0.27069998 0.1752 -0.281 0.1752 -0.281 S 0.179 -0.2836 0.1807 -0.2823 C 0.1824 -0.281 0.1664 -0.30359998 0.1631 -0.3015 C 0.1597 -0.2994 0.1522 -0.30359998 0.1526 -0.3075 C 0.15300001 -0.3113 0.1375 -0.32410002 0.1375 -0.32410002 S 0.13250001 -0.32750002 0.1316 -0.32490003 C 0.13080001 -0.32230002 0.12910001 -0.32060003 0.1316 -0.31940004 C 0.1341 -0.31810004 0.13370001 -0.32150003 0.1366 -0.31850004 C 0.1395 -0.31550005 0.145 -0.31170005 0.1429 -0.30910003 C 0.1408 -0.30650002 0.1383 -0.30570003 0.1383 -0.30570003 L 0.1412 -0.30230004 H 0.14580001 L 0.14660001 -0.29510003 C 0.14660001 -0.29510003 0.1516 -0.29250002 0.15290001 -0.28960004 C 0.15420002 -0.28660005 0.15420002 -0.28490004 0.15290001 -0.28320006 C 0.1516 -0.28150004 0.1491 -0.27850005 0.14950001 -0.27550006 C 0.14990002 -0.27250007 0.15330002 -0.27120006 0.15330002 -0.27120006 L 0.15670002 -0.27080005 L 0.15920001 -0.26950005 V -0.26400006 C 0.16260001 -0.26490006 0.16800001 -0.26020005 0.1676 -0.25720006 C 0.1672 -0.25420007 0.1684 -0.25590006 0.1726 -0.25290006 C 0.1768 -0.24990006 0.1755 -0.24950007 0.1785 -0.24740006 C 0.1814 -0.24530005 0.184 -0.24660006 0.18519999 -0.25040007 L 0.1854 -0.2503 Z M 0.1161 -0.3082 C 0.1157 -0.30990002 0.1148 -0.3159 0.1174 -0.3154 C 0.119899996 -0.315 0.1182 -0.3154 0.121199995 -0.3141 C 0.12409999 -0.3128 0.12459999 -0.3162 0.12459999 -0.3162 H 0.1292 L 0.13509999 -0.31149998 L 0.1343 -0.30769998 L 0.1301 -0.30729997 C 0.12799999 -0.31069997 0.123799995 -0.30939996 0.12459999 -0.30639997 C 0.12539999 -0.30339998 0.122499995 -0.29789996 0.120799996 -0.29749998 C 0.1191 -0.29709998 0.113699995 -0.29709998 0.114099994 -0.29959998 C 0.11449999 -0.3022 0.11619999 -0.3081 0.11619999 -0.3081 V -0.3082 Z M 0.1128 -0.3197 V -0.3231 C 0.1128 -0.3231 0.1124 -0.3265 0.110300004 -0.3265 S 0.1044 -0.3291 0.1053 -0.3308 C 0.1061 -0.3325 0.0982 -0.3342 0.0982 -0.3342 S 0.0911 -0.341 0.0936 -0.3402 C 0.096099995 -0.3393 0.0949 -0.3432 0.0949 -0.3432 S 0.089899994 -0.3423 0.088599995 -0.3428 C 0.087299995 -0.3432 0.087799996 -0.3471 0.087799996 -0.3471 S 0.08279999 -0.3484 0.08279999 -0.3471 C 0.08279999 -0.34579998 0.08449999 -0.34579998 0.08529999 -0.34329998 C 0.08609999 -0.34069997 0.08569999 -0.3365 0.08949999 -0.3356 C 0.093299985 -0.3347 0.09409999 -0.33389997 0.09449999 -0.3322 C 0.09489999 -0.33049998 0.09949999 -0.3301 0.09949999 -0.3301 L 0.10289999 -0.3284 L 0.1128 -0.3197 L 0.1128 -0.3197 Z M 0.0662 -0.3666 L 0.062800005 -0.36740002 V -0.36360002 L 0.06740001 -0.3632 L 0.0662 -0.3666 Z M 0.0662 -0.3811 C 0.061800003 -0.3844 0.072100006 -0.37849998 0.072100006 -0.37849998 C 0.075500004 -0.37849998 0.0776 -0.37589997 0.0776 -0.37469998 C 0.0776 -0.37339997 0.082200006 -0.37379998 0.082200006 -0.37379998 L 0.082600005 -0.37679997 L 0.07920001 -0.38109997 L 0.07630001 -0.38319996 C 0.07630001 -0.38319996 0.07170001 -0.38359997 0.07170001 -0.38489997 C 0.0716 -0.3862 0.0679 -0.3798 0.0662 -0.3811 L 0.0662 -0.3811 Z M 0.1434 -0.3785 C 0.1422 -0.37480003 0.1417 -0.36960003 0.1396 -0.36960003 C 0.13749999 -0.36960003 0.13829999 -0.36410004 0.13829999 -0.36410004 S 0.14379999 -0.36410004 0.14539999 -0.36370003 C 0.14709999 -0.36330003 0.14709999 -0.35900003 0.14709999 -0.35900003 C 0.15339999 -0.35940003 0.15589999 -0.35090002 0.15509999 -0.34880003 C 0.15429999 -0.34670004 0.15759999 -0.34670004 0.15759999 -0.34670004 S 0.15759999 -0.33990005 0.15679999 -0.33820003 C 0.15599999 -0.33650002 0.16229999 -0.33520004 0.16389999 -0.33270004 C 0.16559999 -0.33010003 0.16309999 -0.32160005 0.16179998 -0.32120004 C 0.16049998 -0.32080004 0.16519998 -0.31950003 0.16469999 -0.31740004 C 0.16429998 -0.31530005 0.166 -0.31740004 0.16639999 -0.31400004 C 0.16679999 -0.31060004 0.1677 -0.30340004 0.1677 -0.30340004 L 0.17359999 -0.30300003 C 0.17439999 -0.30850002 0.1853 -0.30880004 0.18699999 -0.30810004 C 0.19409999 -0.30550003 0.1996 -0.29450005 0.1996 -0.29190004 S 0.195 -0.28890005 0.195 -0.28890005 L 0.19579999 -0.27650005 C 0.20289999 -0.27440006 0.20879999 -0.26410004 0.20799999 -0.26240003 C 0.20719999 -0.26070002 0.21299998 -0.26110002 0.21299998 -0.26110002 C 0.21379998 -0.26880002 0.22099999 -0.26620004 0.22139998 -0.26370004 C 0.22179998 -0.26110002 0.22309998 -0.25560004 0.22309998 -0.25560004 L 0.22519998 -0.25180003 L 0.22809999 -0.24880002 L 0.23269999 -0.24920003 L 0.234 -0.24660003 L 0.2395 -0.24570003 C 0.2395 -0.24570003 0.2441 -0.24060003 0.2445 -0.23930003 C 0.2449 -0.23800002 0.2512 -0.23840003 0.2529 -0.23800002 C 0.25460002 -0.23760001 0.25710002 -0.23630002 0.2575 -0.23420002 C 0.2579 -0.23210001 0.2604 -0.22870001 0.2604 -0.22870001 S 0.2654 -0.2274 0.2659 -0.2257 C 0.2663 -0.224 0.26839998 -0.2202 0.26839998 -0.2202 L 0.2726 -0.2168 L 0.273 -0.213 L 0.2776 -0.2126 L 0.2789 -0.2075 L 0.2864 -0.2079 L 0.2906 -0.21090001 C 0.2961 -0.21390001 0.2998 -0.2177 0.3003 -0.2194 C 0.3007 -0.2211 0.3016 -0.2275 0.3058 -0.2262 C 0.31 -0.22489999 0.3071 -0.2356 0.3071 -0.2356 S 0.3012 -0.2399 0.3016 -0.242 C 0.30200002 -0.2441 0.2957 -0.2484 0.29610002 -0.2501 C 0.29650003 -0.2518 0.29060003 -0.2552 0.29110003 -0.25689998 C 0.29150003 -0.2586 0.28820002 -0.26329997 0.28820002 -0.26329997 L 0.28190002 -0.26929998 L 0.2811 -0.2731 L 0.2761 -0.2735 L 0.266 -0.2859 L 0.2664 -0.2893 L 0.2635 -0.2897 V -0.2941 L 0.2606 -0.2958 L 0.256 -0.2962 L 0.2468 -0.3064 L 0.246 -0.3111 H 0.2414 L 0.2422 -0.32 C 0.2451 -0.3238 0.24350001 -0.3311 0.24350001 -0.3311 S 0.23760001 -0.3281 0.23470001 -0.32939997 C 0.2318 -0.33069998 0.23600002 -0.33369997 0.23600002 -0.33369997 V -0.33709997 L 0.23350002 -0.33969998 C 0.23350002 -0.33969998 0.22640002 -0.33879998 0.22590002 -0.3401 C 0.22550002 -0.3414 0.22420003 -0.3469 0.22420003 -0.3469 L 0.22380002 -0.3541 L 0.22090001 -0.3554 L 0.2205 -0.358 L 0.2159 -0.3576 V -0.36270002 L 0.2134 -0.36360002 L 0.21090001 -0.36490002 L 0.2105 -0.37000003 L 0.2013 -0.37040004 L 0.19839999 -0.37470004 L 0.195 -0.37980005 L 0.1845 -0.38070005 L 0.182 -0.38330007 L 0.1778 -0.38420007 L 0.1749 -0.38550007 L 0.17359999 -0.38340008 L 0.16559999 -0.38300008 L 0.16519998 -0.38040006 C 0.1606 -0.3781 0.1438 -0.3798 0.1434 -0.3785 L 0.1434 -0.3785 Z M 0.1875 -0.3896 C 0.1868 -0.393 0.1959 -0.396 0.198 -0.3934 C 0.2001 -0.3908 0.206 -0.39040002 0.2068 -0.3776 C 0.2071 -0.37300003 0.1992 -0.38230002 0.1992 -0.38230002 L 0.1929 -0.3844 C 0.1895 -0.3853 0.1879 -0.3874 0.1874 -0.38950002 H 0.1875 Z M 0.0644 -0.3844 L 0.0621 -0.3854 L 0.0638 -0.3892 L 0.0661 -0.3882 L 0.0644 -0.3844 Z M 0.0427 -0.4262 L 0.0372 -0.4317 V -0.4364 L 0.0355 -0.4381 L 0.033800002 -0.44410002 L 0.028300002 -0.44580004 L 0.022800002 -0.44370005 L 0.016900003 -0.43990004 L 0.0106000025 -0.43900004 L 0.0072000027 -0.43520004 L 0.020600002 -0.43390003 L 0.023100002 -0.42960003 L 0.032800004 -0.42870003 L 0.039100002 -0.42230004 C 0.0448 -0.4207 0.046 -0.4232 0.0427 -0.4262 L 0.0427 -0.4262 Z M 0.0418 -0.4471 C 0.0409 -0.4508 0.0355 -0.4424 0.041 -0.44070002 C 0.0465 -0.439 0.0519 -0.44070002 0.0519 -0.44070002 L 0.0532 -0.44330004 L 0.0742 -0.44290003 C 0.075899996 -0.44460005 0.076699995 -0.44720003 0.076699995 -0.44720003 S 0.0817 -0.44890004 0.083799995 -0.44810003 C 0.085899994 -0.44720003 0.084199995 -0.45410004 0.0821 -0.45320004 C 0.08 -0.45230004 0.075799994 -0.45280004 0.075799994 -0.45280004 H 0.06819999 C 0.06779999 -0.45580003 0.06109999 -0.45450005 0.06059999 -0.45280004 C 0.06019999 -0.45110002 0.05769999 -0.45070004 0.05769999 -0.45070004 L 0.04799999 -0.44980004 C 0.04719999 -0.44720003 0.04209999 -0.44550005 0.04169999 -0.44720003 V -0.4471 Z M 3.0E-4 -0.3752 C 0.0068 -0.3732 0.0091 -0.3747 0.009500001 -0.3764 C 0.009900001 -0.3781 0.0103 -0.37849998 0.0129 -0.379 C 0.0154 -0.3794 0.0125 -0.3845 0.010000001 -0.38410002 C 0.0075000008 -0.3837 0.005000001 -0.38500002 0.0045000007 -0.3871 C 0.004100001 -0.3892 -9.9999364E-5 -0.3948 -4.9999915E-4 -0.3905 C -8.9999917E-4 -0.3862 -0.003399999 -0.3862 -0.002999999 -0.3833 C -0.0027 -0.3802 -0.0014 -0.3757 3.0E-4 -0.3752 L 3.0E-4 -0.3752 Z M -0.048 -0.3704 C -0.0483 -0.37190002 -0.0396 -0.37210003 -0.0383 -0.37080002 C -0.037 -0.3695 -0.0379 -0.36740002 -0.0341 -0.36740002 C -0.030299999 -0.36740002 -0.032 -0.3648 -0.0324 -0.36360002 C -0.0328 -0.3623 -0.037 -0.36270002 -0.0374 -0.36400002 C -0.0378 -0.36530003 -0.0441 -0.36570004 -0.0441 -0.36570004 S -0.0476 -0.3683 -0.048 -0.3704 L -0.048 -0.3704 Z M 0.0915 -0.459 L 0.0894 -0.4612 L 0.0876 -0.4594 L 0.0905 -0.4564 L 0.091299996 -0.4556 L 0.092199996 -0.4563 L 0.09639999 -0.4597 L 0.094799995 -0.4617 L 0.0915 -0.459 Z M 0.069 -0.4712 L 0.0677 -0.46899998 L 0.0711 -0.4669 L 0.07179999 -0.46649998 L 0.07249999 -0.4669 L 0.077099994 -0.46989998 L 0.075799994 -0.4721 L 0.07179999 -0.4696 L 0.069 -0.4712 Z M 0.0575 -0.3819 L 0.0533 -0.38230002 L 0.053 -0.37980002 L 0.0566 -0.3794 L 0.0592 -0.3752 L 0.0613 -0.3766 L 0.058399998 -0.3813 L 0.058099996 -0.3818 L 0.0575 -0.3819 Z M -0.0807 -0.263 L -0.0803 -0.2583 H -0.074 C -0.0715 -0.2583 -0.0761 -0.2613 -0.0761 -0.2613 S -0.0811 -0.2609 -0.0807 -0.263 L -0.0807 -0.263 Z M -0.0727 -0.2629 L -0.071100004 -0.2649 L -0.06860001 -0.2628 L -0.0702 -0.2608 L -0.0727 -0.2629 Z M -0.1492 -0.3426 L -0.1474 -0.3444 L -0.14490001 -0.34179997 L -0.14670001 -0.33999997 L -0.1492 -0.3426 Z M -0.0315 0.2036 L -0.0326 0.2059 L -0.030000001 0.2072 L -0.030900002 0.2081 L -0.0291 0.2099 L -0.027 0.2078 L -0.0258 0.2066 L -0.0274 0.2058 L -0.0315 0.2036 Z M -0.0614 0.1731 L -0.0639 0.1752 L -0.0651 0.1763 L -0.0638 0.1773 L -0.0609 0.17940001 L -0.0594 0.1773 L -0.061 0.1761 L -0.0597 0.175 L -0.0614 0.1731 Z M 0.2524 0.0942 C 0.2518 0.092 0.2494 0.0911 0.24910001 0.091 L 0.24830002 0.0934 V 0.0934 C 0.24850002 0.0935 0.24880001 0.093600005 0.24910001 0.0938 L 0.24960001 0.096 C 0.2494 0.0963 0.2492 0.0965 0.24900001 0.0967 L 0.2508 0.0984 C 0.2522 0.0971 0.2527 0.0956 0.2524 0.0942 L 0.2524 0.0942 Z M 0.2522 0.0859 L 0.2525 0.082100004 L 0.2566 0.08270001 L 0.2563 0.08620001 L 0.2522 0.0859 Z M 0.3535 0.053 C 0.3553 0.0519 0.3576 0.0498 0.3573 0.0546 C 0.35700002 0.0594 0.3551 0.0578 0.3535 0.0594 C 0.352 0.061 0.351 0.0546 0.3535 0.053 Z M 0.3749 0.0349 C 0.3749 0.034799997 0.37480003 0.0345 0.37480003 0.0343 C 0.37470004 0.0336 0.37470004 0.0326 0.37420002 0.0316 L 0.372 0.0327 C 0.3723 0.033299997 0.3723 0.0339 0.37240002 0.0345 C 0.3725 0.0352 0.3725 0.0361 0.37330002 0.036599997 C 0.3738 0.0369 0.3743 0.036999997 0.37500003 0.0369 L 0.37450004 0.034399997 C 0.3746 0.0345 0.3748 0.0347 0.3749 0.0349 L 0.3749 0.0349 Z M 0.3693 0.037 C 0.36990002 0.0396 0.3709 0.0421 0.3709 0.0422 L 0.37330002 0.0413 C 0.37330002 0.0413 0.37240002 0.038799997 0.3718 0.0363 L 0.3693 0.037 L 0.3693 0.037 Z M 0.3601 0.047 L 0.3576 0.0468 C 0.3574 0.0488 0.3579 0.051299997 0.3599 0.0517 L 0.3604 0.0492 C 0.3604 0.0492 0.3604 0.0492 0.3604 0.0492 C 0.3602 0.049 0.35999998 0.047999997 0.3601 0.047 V 0.047 Z M 0.3491 -0.0038 C 0.349 -0.0046 0.34849998 -0.0053000003 0.3477 -0.0056 C 0.3458 -0.0064 0.3427 -0.0050999997 0.3412 -0.0039999997 L 0.3426 -0.0018999998 C 0.3442 -0.0029999998 0.34629998 -0.0034999996 0.3468 -0.0032999997 C 0.3468 -0.0032999997 0.3467 -0.0033999998 0.3467 -0.0033999998 L 0.3491 -0.0038 L 0.3491 -0.0038 Z M 0.2328 -0.1399 C 0.23110001 -0.1382 0.2273 -0.1373 0.2273 -0.1373 L 0.226 -0.1326 L 0.22389999 -0.1309 C 0.22389999 -0.1309 0.2243 -0.12959999 0.22389999 -0.1266 C 0.22349998 -0.1236 0.2197 -0.1219 0.2197 -0.1219 L 0.218 -0.1198 C 0.218 -0.1198 0.20789999 -0.1193 0.2067 -0.1198 C 0.20289999 -0.1215 0.20539999 -0.1266 0.208 -0.1262 C 0.2105 -0.1258 0.2076 -0.13340001 0.2076 -0.13340001 L 0.211 -0.13380001 C 0.211 -0.13380001 0.2114 -0.14150001 0.2127 -0.14150001 C 0.214 -0.14150001 0.21229999 -0.14410001 0.21059999 -0.14530002 C 0.20889999 -0.14660002 0.20679998 -0.15080002 0.20509999 -0.15040001 C 0.20339999 -0.15 0.19669999 -0.15040001 0.19669999 -0.15040001 L 0.19539998 -0.14780001 L 0.19079998 -0.14690001 C 0.19079998 -0.14690001 0.19119999 -0.14360002 0.19039997 -0.14260001 C 0.18789998 -0.13960001 0.17819998 -0.13320002 0.18239997 -0.14390002 L 0.18369998 -0.14650002 V -0.15030003 L 0.17619999 -0.15070003 C 0.17619999 -0.15070003 0.17239998 -0.15200004 0.17239998 -0.15370004 S 0.17199998 -0.15750004 0.17199998 -0.15750004 L 0.16319998 -0.16730005 L 0.1527 -0.1689 L 0.15190001 -0.171 L 0.1456 -0.1719 C 0.13800001 -0.17570001 0.1313 -0.17230001 0.13260001 -0.1659 C 0.13390002 -0.1595 0.136 -0.157 0.13180001 -0.157 C 0.12760001 -0.157 0.12680002 -0.1604 0.12680002 -0.1604 S 0.12340002 -0.16170001 0.12340002 -0.16 C 0.12340002 -0.1583 0.12210002 -0.1549 0.12340002 -0.1532 C 0.12470002 -0.1515 0.12170002 -0.1489 0.12050002 -0.1502 C 0.11920002 -0.1515 0.11590002 -0.15529999 0.11670002 -0.1566 C 0.11750002 -0.1579 0.11080002 -0.166 0.11750002 -0.1673 C 0.12420002 -0.16860001 0.11710002 -0.1724 0.11960002 -0.1733 L 0.12300002 -0.175 H 0.12640002 L 0.12850003 -0.1767 L 0.123000026 -0.1775 L 0.11960003 -0.1779 L 0.113300025 -0.17830001 C 0.10700002 -0.17400001 0.105800025 -0.16890001 0.105800025 -0.16890001 C 0.10240003 -0.16250001 0.09450003 -0.17150001 0.097400025 -0.17490001 C 0.10030002 -0.17830001 0.088200025 -0.17530002 0.08610003 -0.1736 C 0.08400003 -0.1719 0.07770003 -0.1727 0.07770003 -0.1727 C 0.07640003 -0.1689 0.070600025 -0.17310001 0.07220003 -0.17570001 C 0.07390003 -0.17830001 0.07390003 -0.18 0.07390003 -0.18 L 0.07180003 -0.18040001 L 0.06930003 -0.17570001 C 0.06340003 -0.17570001 0.06170003 -0.17230001 0.06300003 -0.1702 C 0.06430003 -0.1681 0.06130003 -0.17060001 0.06050003 -0.1676 C 0.05970003 -0.1646 0.06090003 -0.1646 0.06340003 -0.16330001 C 0.06590003 -0.162 0.06210003 -0.162 0.06380003 -0.15990001 C 0.06550003 -0.1578 0.07050003 -0.15990001 0.06760003 -0.1569 C 0.06470003 -0.1539 0.058800027 -0.1552 0.058800027 -0.1552 C 0.058400027 -0.1514 0.050400026 -0.1522 0.049600028 -0.1535 C 0.04880003 -0.15480001 0.042500027 -0.1624 0.042500027 -0.1624 L 0.034500025 -0.16280001 C 0.033700027 -0.16880001 0.038300026 -0.16580002 0.040000025 -0.17050001 C 0.041700024 -0.17520002 0.042500027 -0.18290001 0.042500027 -0.18290001 S 0.035800025 -0.18330002 0.035400026 -0.18120001 C 0.035000026 -0.1791 0.030800026 -0.17780001 0.030800026 -0.17780001 S 0.027400026 -0.17650001 0.028700026 -0.17480001 C 0.030000025 -0.17310001 0.026200026 -0.17220001 0.026200026 -0.17220001 S 0.026900027 -0.1694 0.025800027 -0.1684 C 0.022400027 -0.165 0.0140000265 -0.168 0.012800027 -0.1693 L 0.007800027 -0.17140001 L 0.002800027 -0.17480001 L -0.0030999733 -0.17220001 L -0.004799973 -0.17050001 H -0.011099974 L -0.011499974 -0.16540001 L -1.9997358E-4 -0.1641 L 6.000264E-4 -0.1536 L -0.0039999736 -0.1552 H -0.0068999734 L -0.008199973 -0.1578 L -0.0106999725 -0.15820001 V -0.14880002 L -0.008199973 -0.14670001 L -0.006099973 -0.1446 L -0.001899973 -0.1442 L -0.001099973 -0.1391 L 0.009400027 -0.1387 L 0.0107000265 -0.13659999 L 0.017000027 -0.13619998 L 0.029200027 -0.12379998 L 0.028400026 -0.11999998 L 0.026300026 -0.11869998 C 0.027100027 -0.115699984 0.020800026 -0.11739998 0.020800026 -0.11739998 V -0.114799984 L 0.023700027 -0.114399984 L 0.026600027 -0.112699986 L 0.030800028 -0.11989999 C 0.03540003 -0.12289999 0.037500028 -0.11859999 0.037900027 -0.11609999 C 0.038300026 -0.11349999 0.03580003 -0.11399999 0.03580003 -0.11399999 V -0.107999995 L 0.03830003 -0.1072 C 0.04250003 -0.1021 0.03660003 -0.09909999 0.03660003 -0.09909999 L 0.03530003 -0.094799995 C 0.03400003 -0.091 0.029400032 -0.0918 0.029400032 -0.0918 L 0.027700031 -0.0892 L 0.02270003 -0.0879 L 0.032700032 -0.0866 C 0.033600032 -0.089999996 0.03620003 -0.0909 0.037400033 -0.0892 C 0.038700033 -0.0875 0.038700033 -0.0845 0.038700033 -0.0845 L 0.041200034 -0.0841 L 0.040800035 -0.0794 L 0.043300036 -0.0785 V -0.0649 L 0.046200037 -0.0615 C 0.051200036 -0.0636 0.051200036 -0.060200002 0.04870004 -0.058500003 C 0.046200037 -0.056800004 0.04790004 -0.049100004 0.04790004 -0.049100004 L 0.04580004 -0.047000006 V -0.043600004 L 0.04330004 -0.041900005 V -0.0372 C 0.03910004 -0.0393 0.03410004 -0.0385 0.03280004 -0.0372 C 0.02900004 -0.0398 0.02110004 -0.0389 0.02110004 -0.0368 C 0.02360004 -0.0334 0.01820004 -0.0325 0.01820004 -0.0325 L 0.01530004 -0.029099999 C 0.01740004 -0.024799999 0.01320004 -0.0244 0.01320004 -0.0244 V -0.0163 L 0.00820004 -0.011600001 L 0.00860004 -5.00001E-4 C 0.00860004 0.002499999 0.01490004 0.002899999 0.01610004 0.001199999 C 0.01740004 -5.00001E-4 0.02240004 0.004599999 0.02240004 0.004599999 H 0.026200041 L 0.027000042 -0.0031000008 L 0.024500042 -0.004400001 V -0.016800001 L 0.028700043 -0.0215 C 0.03370004 -0.023200002 0.032100044 -0.010400001 0.032100044 -0.0091 C 0.032500044 -0.0044000004 0.034600046 -0.0048 0.036700044 -0.0057000006 C 0.040900044 -0.0074000005 0.037500042 -0.0010000006 0.034200042 -0.0014000004 C 0.030800043 -0.0018000004 0.032900043 0.0028999997 0.032900043 0.0028999997 L 0.03500004 0.0037999996 L 0.03120004 0.0067999996 L 0.02790004 0.0106 L 0.02370004 0.0093 L 0.01870004 0.0089 L 0.01700004 0.0058999998 L 0.01410004 0.0055 L 0.01370004 0.0115 L 0.01160004 0.0141 L 0.00660004 0.0192 C 0.01330004 0.0192 0.00580004 0.0239 0.00410004 0.0239 C 0.007900041 0.0252 0.00370004 0.029000001 -0.0059999595 0.026 V 0.029000001 L -0.00939996 0.0294 L -0.00649996 0.0328 L -0.00309996 0.0332 L -0.00439996 0.0404 C -0.00439996 0.0459 -0.01829996 0.042099997 -0.019499961 0.040799998 L -0.01989996 0.048499998 L -0.02239996 0.048899997 L -0.02199996 0.053999998 L -0.02239996 0.061199997 L -0.01779996 0.060299996 V 0.0633 L -0.00649996 0.0637 L 0.00990004 0.0462 L 0.019600041 0.0441 C 0.020400042 0.039800003 0.02460004 0.045 0.02460004 0.045 C 0.02880004 0.044600002 0.02960004 0.047500003 0.02960004 0.047500003 L 0.03510004 0.048400003 C 0.03970004 0.049700003 0.03690004 0.050100002 0.037200037 0.051800005 C 0.037600037 0.054300006 0.03970004 0.053500004 0.03970004 0.053500004 L 0.040500037 0.048000004 L 0.04300004 0.048400003 L 0.040500037 0.045400005 L 0.035900038 0.043300007 L 0.030900039 0.04120001 C 0.027500039 0.036500007 0.031700037 0.037400007 0.03510004 0.037800007 H 0.04060004 C 0.04060004 0.037800007 0.046900038 0.04630001 0.046900038 0.048400007 S 0.04980004 0.051000006 0.04980004 0.051000006 L 0.05360004 0.050600007 L 0.05490004 0.053600006 H 0.05870004 L 0.06000004 0.056200005 H 0.06760004 L 0.06800004 0.052400004 L 0.06090004 0.051100004 L 0.06050004 0.046800002 L 0.05550004 0.045500003 C 0.053800043 0.038300004 0.05680004 0.036100004 0.058900043 0.0395 L 0.061400045 0.0399 L 0.060600046 0.0335 L 0.06350005 0.0326 L 0.06270005 0.0237 L 0.060200047 0.0229 V 0.0199 L 0.07070005 0.020299999 C 0.06990005 0.014799999 0.07110005 0.012199999 0.07110005 0.012199999 H 0.074000046 L 0.074400045 0.014299999 L 0.087200046 0.015499999 L 0.09630004 0.005099999 C 0.09580004 0.0042999987 0.09720004 0.0037999987 0.09620004 0.0027999987 C 0.09490004 0.0014999987 0.093300045 0.0027999987 0.091100045 0.0014999987 C 0.089000046 1.9999873E-4 0.091100045 -0.0070000016 0.090700045 -0.008700002 C 0.090300046 -0.010400002 0.097800046 -0.013000002 0.09660005 -0.009100002 C 0.09530005 -0.005300002 0.09660005 -0.0036000023 0.09660005 -0.0036000023 C 0.102100044 -0.008700002 0.10670005 -0.0032000022 0.10630005 -0.0019000022 C 0.10590005 -6.0000224E-4 0.109200045 6.9999776E-4 0.11130005 -6.0000224E-4 C 0.11340005 -0.0019000022 0.115900055 0.0031999978 0.11510005 0.0057999976 C 0.11430005 0.008399998 0.10670005 0.007899998 0.10630005 0.005399998 C 0.10590005 0.0027999978 0.10460005 0.003699998 0.10380005 0.004999998 C 0.10300005 0.006299998 0.09920005 0.007099998 0.09710005 0.005799998 C 0.09670005 0.005499998 0.09650005 0.005299998 0.09640005 0.005099998 L 0.087300055 0.015499998 L 0.08790006 0.015599998 C 0.09290006 0.018599998 0.090400055 0.022399997 0.088700056 0.023299998 C 0.08700006 0.024199998 0.08410005 0.024199998 0.08410005 0.024199998 L 0.083300054 0.025899999 L 0.072400056 0.0267 L 0.07160006 0.031 C 0.06610006 0.0301 0.06410006 0.0361 0.065300055 0.0391 C 0.066600055 0.042099997 0.065300055 0.0446 0.065300055 0.0446 L 0.06990006 0.046699997 L 0.07580006 0.044999998 C 0.07660006 0.040699996 0.080400065 0.039899997 0.08380006 0.037299998 C 0.08720006 0.0347 0.09260006 0.042 0.09090006 0.045399997 C 0.089200065 0.0488 0.089200065 0.0501 0.089200065 0.0501 L 0.089600064 0.0539 L 0.08540007 0.0556 L 0.08200007 0.057299998 L 0.08160007 0.059399996 H 0.07030007 L 0.068200074 0.061499994 L 0.06270008 0.061899994 L 0.06100008 0.064399995 L 0.057200078 0.064799994 C 0.057200078 0.064799994 0.05090008 0.06779999 0.053400077 0.07119999 C 0.05590008 0.07459999 0.042900078 0.07419999 0.040000077 0.06949999 C 0.03920008 0.07379999 0.034500077 0.06989999 0.034500077 0.06989999 L 0.029900078 0.06859999 L 0.029500078 0.06219999 C 0.028700078 0.05789999 0.020700078 0.05789999 0.021100078 0.06089999 C 0.021500077 0.063899994 0.0060000774 0.06219999 0.0060000774 0.06219999 L 0.0010000775 0.06459999 L -0.0035999226 0.06729999 L -0.0039999224 0.06939999 L -0.011599923 0.07029999 L -0.014999922 0.07199999 L -0.016299922 0.06939999 H -0.019699922 L -0.023099922 0.07409999 C -0.03189992 0.07449999 -0.040299922 0.07959999 -0.039499924 0.081799984 C -0.038699925 0.08389998 -0.042899925 0.08609998 -0.042899925 0.08609998 L -0.046699926 0.08739998 L -0.049199928 0.09119998 L -0.054199927 0.09289998 L -0.054999925 0.10189998 L -0.057499927 0.10359998 V 0.10739998 L -0.060399927 0.10819998 V 0.110299975 L -0.064599924 0.110699974 L -0.062099922 0.11709997 L -0.05869992 0.11879997 C -0.05279992 0.11959997 -0.05529992 0.12689997 -0.05529992 0.12689997 L -0.051899917 0.12729998 L -0.05019992 0.13199998 L -0.046799917 0.13879998 C -0.045499917 0.14389998 -0.041799918 0.14259999 -0.04009992 0.14219998 C -0.03839992 0.14179997 -0.036699917 0.14729998 -0.036699917 0.14729998 L -0.019899918 0.14769998 C -0.019899918 0.14769998 -0.020699918 0.14939998 -0.017799918 0.15029998 C -0.014899918 0.15109998 0.004400082 0.15199998 0.0053000823 0.15069999 C 0.004500082 0.14689998 0.015800081 0.14599998 0.020400083 0.14939998 C 0.025000082 0.15279998 0.031300083 0.15069999 0.031300083 0.15069999 L 0.03760008 0.15839998 L 0.04180008 0.16779998 L 0.048900083 0.16989999 L 0.05390008 0.17119999 L 0.05560008 0.1784 L 0.05940008 0.1788 L 0.06070008 0.1835 C 0.065300085 0.1869 0.05940008 0.19420001 0.05940008 0.19420001 V 0.2036 L 0.06280008 0.2053 L 0.06240008 0.2087 L 0.06790008 0.2142 L 0.07420008 0.21460001 L 0.09020008 0.23160002 L 0.10280008 0.23540002 L 0.10490008 0.24220002 L 0.108300075 0.24180001 L 0.11080007 0.2397 L 0.12090007 0.2393 L 0.12590007 0.2346 L 0.13140008 0.2338 L 0.17800008 0.1942 L 0.17380008 0.1916 V 0.1822 C 0.18140008 0.1767 0.18180008 0.1669 0.17460008 0.166 C 0.16920008 0.1654 0.17170008 0.15959999 0.17670009 0.15879999 L 0.17960009 0.15749998 V 0.15369998 L 0.18930009 0.14479998 V 0.13799998 L 0.16830009 0.12049998 C 0.15910009 0.117099985 0.16830009 0.09659998 0.1746001 0.09709998 C 0.1809001 0.09749998 0.17420009 0.06559998 0.17420009 0.06559998 L 0.17080009 0.06389998 L 0.17160009 0.053699978 H 0.16700009 L 0.15940009 0.06349998 L 0.15730008 0.07029998 C 0.15650009 0.07929999 0.13040009 0.077499986 0.12920009 0.07629998 C 0.12790008 0.07499998 0.11910009 0.07119998 0.11910009 0.07119998 S 0.112400085 0.06569998 0.111100085 0.067399986 S 0.104000084 0.06529999 0.104000084 0.066499986 C 0.104000084 0.067799985 0.09850009 0.06349999 0.09850009 0.06349999 L 0.09010009 0.06049999 L 0.09640009 0.05919999 L 0.09510009 0.05409999 L 0.10600009 0.05959999 C 0.10730009 0.061299987 0.11270009 0.060899988 0.11270009 0.060899988 L 0.11440009 0.062999986 C 0.11440009 0.062999986 0.11780009 0.06259999 0.11990009 0.065099984 C 0.12200009 0.06769998 0.13290009 0.065499984 0.13290009 0.065499984 L 0.1358001 0.06809998 L 0.1404001 0.06979998 L 0.1534001 0.07019998 L 0.1538001 0.062099982 L 0.1563001 0.059499983 L 0.15590009 0.054399982 L 0.1588001 0.051799983 V 0.048 L 0.1613001 0.0471 L 0.1617001 0.0377 L 0.1638001 0.0373 V 0.016800001 L 0.1575001 0.010800001 C 0.1571001 0.012900001 0.1504001 0.012900001 0.1504001 0.012900001 S 0.1487001 0.0159 0.1475001 0.0159 C 0.14620009 0.0159 0.1492001 0.019700002 0.1483001 0.022300001 C 0.1475001 0.0248 0.1441001 0.0248 0.1441001 0.0248 L 0.1378001 0.026500002 L 0.1361001 0.028600002 H 0.1294001 L 0.1286001 0.023100002 L 0.1362001 0.021000002 L 0.1404001 0.018900001 L 0.1425001 0.014600001 C 0.14290011 0.010300001 0.1480001 0.010800001 0.1480001 0.010800001 S 0.1577001 0.002700001 0.1581001 -0.0010999991 C 0.1585001 -0.004899999 0.1619001 -0.015599999 0.1678001 -0.015599999 H 0.1787001 C 0.1829001 -0.017299999 0.18160011 -0.022799999 0.18160011 -0.022799999 L 0.18710011 -0.023599999 L 0.18790011 -0.020599999 C 0.18790011 -0.020599999 0.1955001 -0.019699998 0.1963001 -0.020999998 C 0.1971001 -0.022299998 0.1988001 -0.025299998 0.20090011 -0.023999998 C 0.20300011 -0.022699999 0.20970011 -0.026999999 0.20970011 -0.026999999 C 0.21010011 -0.03 0.22060011 -0.0287 0.22060011 -0.0287 L 0.22190012 -0.0325 C 0.22190012 -0.0325 0.21480012 -0.0423 0.21350013 -0.0423 C 0.21220012 -0.0423 0.20550013 -0.0483 0.20470013 -0.0461 C 0.19800013 -0.0478 0.19840012 -0.0572 0.19840012 -0.0572 L 0.19590013 -0.0632 C 0.19590013 -0.066599995 0.18960012 -0.0739 0.18830013 -0.073 C 0.18200013 -0.0777 0.18660013 -0.0832 0.18830013 -0.0837 C 0.19000013 -0.0841 0.19420013 -0.0901 0.19420013 -0.0901 L 0.19630013 -0.096099995 L 0.20340014 -0.09819999 L 0.20420013 -0.1037 L 0.20040013 -0.1041 C 0.20040013 -0.1041 0.20460013 -0.1118 0.20670013 -0.1118 S 0.22270013 -0.1118 0.22390014 -0.1127 C 0.22520015 -0.1135 0.22770014 -0.1204 0.22770014 -0.1216 C 0.22770014 -0.1229 0.23110014 -0.1233 0.23230015 -0.1237 C 0.23360015 -0.1241 0.23650014 -0.1275 0.23730014 -0.1292 C 0.23810014 -0.1309 0.23520014 -0.1416 0.23350014 -0.1399 L 0.2328 -0.1399 Z M 3.0E-4 0.0137 C 9.0000004E-4 0.0131 0.0016000001 0.0156 0.0028 0.0153 C 0.0041 0.015 0.0047 0.0175 0.0033999998 0.0175 C 0.0020999997 0.0175 0.0020999997 0.0191 0.0020999997 0.0197 C 0.0020999997 0.0203 0.0020999997 0.0219 0.0011999997 0.0229 C 2.9999972E-4 0.0239 -7.000003E-4 0.0232 -0.0020000003 0.0226 C -0.0033000004 0.022 -0.0039000004 0.022 -0.0055000004 0.022 C -0.0071000005 0.022 -0.0058000004 0.0246 -0.0058000004 0.0246 S -0.0124 0.0243 -0.0111 0.0233 C -0.0098 0.0223 -0.0086 0.022 -0.0095 0.021399999 C -0.0104 0.020799998 -0.0095 0.0201 -0.0095 0.0189 C -0.0095 0.0176 -0.0063999994 0.018299999 -0.0072999997 0.0173 C -0.0082 0.0163 -0.0072999997 0.012600001 -0.0056999996 0.0147 L -0.0047999998 0.0125 C -0.0056999996 0.0115 -0.0050999997 0.0112000005 -0.0069999998 0.010600001 C -0.0089 0.010000001 -0.0072999997 0.006100001 -0.0072999997 0.006100001 L -0.0069999998 0.0035000008 C -0.0064 3.000009E-4 -9.999983E-5 6.9849193E-10 2.0000013E-4 0.0029000007 C 5.0000014E-4 0.0058000004 2.0000013E-4 0.007700001 2.0000013E-4 0.007700001 L 0.0021000002 0.008300001 C 0.0021000002 0.008300001 0.0018000002 0.010200001 2.0000013E-4 0.010200001 C -0.0013999998 0.010200001 2.0000013E-4 0.011100002 -6.9999986E-4 0.012100002 L 3.0E-4 0.0137 L 3.0E-4 0.0137 Z M -0.0205 0.0169 C -0.0196 0.014999999 -0.0174 0.006699999 -0.014800001 0.009199999 C -0.012300001 0.0117999995 -0.0107 0.009199999 -0.0107 0.009199999 S -0.009400001 0.010499999 -0.010100001 0.012999999 C -0.0107 0.0156 -0.0114 0.018099999 -0.0129 0.018399999 C -0.0145000005 0.018699998 -0.015700001 0.019699998 -0.0176 0.019999998 C -0.0196 0.0204 -0.0205 0.0169 -0.0205 0.0169 L -0.0205 0.0169 Z"/>
</defs>
<g>
<rect x="0" y="0" width="600" height="360" class="blue"/>
<use xlink:href="#branches" transform="translate(300 180) scale(180 180) rotate(0)" class="white"/>
<use xlink:href="#latlines" transform="translate(300 180) scale(180 180) rotate(0)" class="white"/>
<use xlink:href="#worldmap" transform="translate(300 180) scale(180 180) rotate(0)" class="white"/>
</g>
</svg>
