<?xml version="1.0"?>
<svg xmlns="http://www.w3.org/2000/svg" xmlns:xlink="http://www.w3.org/1999/xlink" version="1.1" width="600" height="360" viewBox="0 0 600 360">
<!-- Generated by Kreative Vexillo v1.0 -->
<style>
.blue1{fill:rgb(0,35,125);}
.blue2{fill:rgb(66,189,222);}
.white{fill:rgb(255,255,255);}
</style>
<defs>
<path id="star" d="M 0.0 -1.0 L 0.2245 -0.309 L 0.9511 -0.309 L 0.3633 0.118 L 0.5878 0.809 L 0.0 0.382 L -0.5878 0.809 L -0.3633 0.118 L -0.9511 -0.309 L -0.2245 -0.309 Z"/>
</defs>
<g>
<g>
<rect x="0" y="0" width="600" height="151.2" class="blue1"/>
<rect x="0" y="151.2" width="600" height="57.6" class="blue2"/>
<rect x="0" y="208.8" width="600" height="151.2" class="blue1"/>
</g>
<use xlink:href="#star" transform="translate(300 61.2) scale(24 24) rotate(0)" class="white"/>
<use xlink:href="#star" transform="translate(300 298.8) scale(24 24) rotate(180)" class="white"/>
<use xlink:href="#star" transform="translate(199.2 255.6) scale(24 24) rotate(0)" class="white"/>
<use xlink:href="#star" transform="translate(400.8 255.6) scale(24 24) rotate(0)" class="white"/>
<use xlink:href="#star" transform="translate(199.2 104.4) scale(24 24) rotate(180)" class="white"/>
<use xlink:href="#star" transform="translate(400.8 104.4) scale(24 24) rotate(180)" class="white"/>
</g>
</svg>
