<?xml version="1.0"?>
<svg xmlns="http://www.w3.org/2000/svg" xmlns:xlink="http://www.w3.org/1999/xlink" version="1.1" width="600" height="360" viewBox="0 0 600 360">
<!-- Generated by Kreative Vexillo v1.0 -->
<style>
.blue{fill:rgb(0,45,86);}
.red{fill:rgb(181,0,39);}
.white{fill:rgb(255,255,255);}
.yellow{fill:rgb(238,208,0);}
</style>
<defs>
<path id="seal" d="M 282.542 297.118 C 302.33398 317.194 328.688 328.246 360.918 330.009 L 361.81 330.012 C 380.344 330.012 405.86 326.274 438.945 297.13 C 444.13202 292.561 444.574 288.648 444.12302 286.279 L 443.82703 286.417 C 442.96603 284.561 441.90604 283.56598 440.67703 283.45898 C 438.01105 283.22897 434.75302 287.01898 433.72205 288.49997 L 432.45605 290.31696 L 430.55804 267.14496 C 425.16205 274.49496 401.53305 303.14496 360.89203 303.61694 C 360.56403 303.62094 360.24503 303.62296 359.91904 303.62296 C 320.41003 303.62296 297.62503 275.16394 291.62402 266.53195 H 291.35803 L 290.46204 291.28595 L 289.35004 290.71695 C 283.21304 287.57596 280.89603 288.13995 280.06204 288.75793 C 278.93103 289.59293 279.21603 291.41095 279.21906 291.42892 L 279.14307 291.44193 C 279.468 293.531 280.626 295.526 282.542 297.118 Z M 402.553 298.187 L 403.631 300.306 L 398.471 302.943 L 400.409 306.757 L 404.421 304.71 L 405.511 306.858 L 401.503 308.905 L 403.542 312.921 L 409.069 310.097 L 410.147 312.218 L 401.585 316.59097 L 394.358 302.37198 L 402.553 298.187 Z M 381.791 309.328 C 382.619 307.555 383.977 306.379 385.861 305.801 C 386.673 305.555 387.365 305.397 387.939 305.332 C 388.511 305.258 388.97 305.258 389.322 305.328 L 390.06198 307.756 C 389.74 307.686 389.32397 307.66202 388.814 307.68402 C 388.31 307.70703 387.744 307.81503 387.111 308.00803 C 385.935 308.36703 385.162 309.13303 384.791 310.30103 C 384.42798 311.46503 384.50598 312.89902 385.021 314.59802 L 385.087 314.80902 C 385.642 316.62903 386.358 317.881 387.237 318.56302 C 388.122 319.243 389.098 319.42 390.165 319.09402 C 390.888 318.87103 391.48102 318.61002 391.946 318.30502 C 392.411 317.993 392.772 317.72302 393.032 317.49603 L 393.751 319.85104 C 393.575 320.07404 393.212 320.34705 392.669 320.66904 C 392.126 320.99704 391.47 321.28003 390.696 321.51703 C 388.747 322.11502 386.962 321.96802 385.34402 321.07803 C 383.72702 320.18002 382.54303 318.50003 381.79303 316.03903 L 381.60504 315.42203 C 380.909 313.128 380.969 311.097 381.791 309.328 Z M 374.702 308.757 L 376.63998 324.597 L 373.25897 325.01297 L 371.31998 309.17496 L 374.702 308.757 Z M 355.389 309.468 L 365.448 309.64398 L 365.405 312.025 L 362.12 311.968 L 361.882 325.542 L 358.47598 325.483 L 358.714 311.907 L 355.347 311.84802 L 355.389 309.468 Z M 338.936 320.136 C 339.284 320.429 339.85 320.72998 340.631 321.038 C 341.41602 321.341 342.199 321.54 342.983 321.636 C 344.085 321.77298 344.858 321.71 345.307 321.452 C 345.762 321.198 346.034 320.712 346.121 319.997 C 346.178 319.536 346.078 319.108 345.824 318.71402 C 345.568 318.321 344.779 317.74503 343.45102 316.984 C 342.39603 316.371 341.60703 315.66 341.088 314.851 C 340.56802 314.035 340.38702 312.988 340.54102 311.71402 C 340.691 310.49503 341.307 309.528 342.393 308.81003 C 343.483 308.09103 344.897 307.83902 346.635 308.05402 C 347.47702 308.156 348.225 308.324 348.877 308.55402 C 349.535 308.777 349.99402 308.96002 350.252 309.105 L 349.95502 311.519 C 349.40402 311.30402 348.85303 311.105 348.303 310.92102 C 347.752 310.74103 347.15802 310.61203 346.522 310.532 C 345.622 310.42102 344.954 310.487 344.52 310.733 S 343.84198 311.321 343.788 311.76 C 343.72 312.32202 343.817 312.764 344.081 313.086 C 344.343 313.41 345.167 313.941 346.55 314.68 C 347.839 315.366 348.722 316.141 349.19498 317.008 C 349.675 317.869 349.847 318.85 349.71298 319.949 C 349.508 321.629 348.82397 322.80402 347.66397 323.478 C 346.50797 324.146 344.98196 324.365 343.09396 324.13 C 342.01196 323.997 341.10995 323.818 340.38297 323.595 C 339.65598 323.37 339.06296 323.126 338.60196 322.865 L 338.936 320.136 Z M 322.897 312.015 L 326.73502 301.99402 L 329.91702 303.217 L 325.92102 313.64502 C 325.61203 314.454 325.55002 315.12903 325.73703 315.66803 C 325.93204 316.20303 326.45602 316.63702 327.31104 316.96503 C 328.10403 317.27002 328.75803 317.31503 329.27805 317.09802 C 329.80304 316.88702 330.24506 316.31302 330.60403 315.377 L 334.57504 305.01 L 336.93204 305.91602 L 332.87305 316.51 C 332.33606 317.91202 331.50604 318.85602 330.38504 319.336 C 329.26404 319.813 327.84604 319.721 326.13104 319.061 C 324.29105 318.352 323.13306 317.42 322.65405 316.262 C 322.174 315.101 322.256 313.687 322.897 312.015 Z M 308.748 307.523 C 308.93 307.742 309.18698 307.996 309.521 308.285 C 309.861 308.57 310.22598 308.812 310.615 309.012 C 310.982 309.19998 311.35498 309.254 311.732 309.17798 C 312.107 309.102 312.423 308.813 312.681 308.309 L 318.091 297.66098 L 321.128 299.21198 L 315.57498 310.13397 C 315.08698 311.09497 314.37 311.75296 313.425 312.11096 C 312.48898 312.46295 311.404 312.32397 310.17297 311.69498 C 309.44998 311.326 308.89597 310.97998 308.507 310.654 C 308.124 310.332 307.835 310.01498 307.642 309.701 L 308.748 307.523 Z M 369.84 288.844 H 351.69 C 350.558 288.844 349.601 288.224 349.601 287.491 C 349.601 286.76 350.558 286.142 351.69 286.142 H 369.84 C 370.972 286.142 371.929 286.76 371.929 287.491 C 371.929 288.225 370.973 288.844 369.84 288.844 Z M 351.504 290.381 H 370.85 L 371.177 301.616 C 367.872 302.065 364.449 302.349 360.878 302.391 C 360.555 302.39398 360.241 302.396 359.91998 302.396 C 356.89697 302.396 353.981 302.216 351.15598 301.9 L 351.504 290.381 Z M 433.698 285.98 L 432.191 267.595 L 442.027 282.172 C 441.64 282.014 441.23602 281.91 440.812 281.873 C 438.017 281.626 435.26 284.203 433.698 285.98 Z M 476.957 278.546 C 476.571 279.85098 475.795 283.31198 472.845 284.918 H 456.797 C 453.847 283.312 453.07098 279.851 452.685 278.546 C 452.087 276.525 450.835 273.878 450.835 273.878 C 450.421 272.995 449.70798 272.212 449.53598 272.093 C 449.16498 271.835 448.96997 271.62598 448.36398 271.73798 C 448.36398 271.73798 446.628 273.037 445.22098 272.43298 C 443.94998 271.886 443.18 271.06598 443.24197 269.179 C 443.30798 267.29398 445.56198 266.806 445.56198 266.806 C 446.61298 266.556 447.55197 266.478 448.53497 266.87 C 451.11298 267.366 453.95297 270.901 454.42996 272.409 C 454.42996 272.409 455.04697 273.8 456.76196 277.893 S 461.20096 279.827 461.20096 279.827 C 462.82394 278.741 463.31195 277.333 462.67197 275.604 C 462.24197 274.11002 459.62097 274.819 459.62097 274.819 C 459.19696 272.075 460.08798 270.909 462.29498 271.323 C 462.31497 267.742 464.40598 266.692 464.76797 266.546 H 464.74597 C 464.78696 266.52798 464.80997 266.525 464.81198 266.525 C 464.81198 266.525 464.818 266.527 464.81897 266.527 S 464.82596 266.525 464.82596 266.525 C 464.82797 266.525 464.85095 266.531 464.89197 266.546 H 464.86996 C 465.23196 266.692 467.32397 267.74298 467.34296 271.323 C 469.54996 270.909 470.44095 272.075 470.01495 274.819 C 470.01495 274.819 467.39395 274.112 466.96796 275.604 C 466.32297 277.333 466.81595 278.741 468.43695 279.827 C 468.43695 279.827 471.16196 281.987 472.87595 277.893 S 475.20795 272.409 475.20795 272.409 C 475.68695 270.901 478.52396 267.366 481.10294 266.87 C 482.08493 266.477 483.02695 266.556 484.07394 266.806 C 484.07394 266.806 486.33194 267.294 486.39395 269.179 C 486.45996 271.06598 485.68896 271.886 484.41696 272.43298 C 483.01096 273.037 481.27197 271.73798 481.27197 271.73798 C 480.66696 271.62497 480.47498 271.83597 480.10196 272.093 C 479.92996 272.21198 479.21695 272.995 478.80295 273.878 C 478.807 273.878 477.553 276.525 476.957 278.546 Z M 372.932 278.546 C 372.545 279.85098 371.769 283.31198 368.82 284.918 H 352.77002 C 349.821 283.312 349.045 279.851 348.65802 278.546 C 348.062 276.525 346.81003 273.878 346.81003 273.878 C 346.39603 272.995 345.68103 272.212 345.50903 272.093 C 345.13803 271.835 344.94504 271.62598 344.33902 271.73798 C 344.33902 271.73798 342.60303 273.037 341.196 272.43298 C 339.923 271.886 339.153 271.06598 339.217 269.179 C 339.281 267.29398 341.53702 266.806 341.53702 266.806 C 342.58603 266.556 343.527 266.478 344.50803 266.87 C 347.08603 267.366 349.92603 270.901 350.403 272.409 C 350.403 272.409 351.02002 273.8 352.73502 277.893 S 357.17603 279.827 357.17603 279.827 C 358.79703 278.741 359.28702 277.333 358.64502 275.604 C 358.217 274.11002 355.59802 274.819 355.59802 274.819 C 355.17203 272.075 356.06302 270.909 358.27002 271.323 C 358.28802 267.742 360.381 266.692 360.743 266.546 H 360.71902 C 360.75003 266.533 360.75803 266.53198 360.76703 266.53 H 360.81903 C 360.82803 266.532 360.83603 266.534 360.86703 266.546 H 360.84305 C 361.20505 266.692 363.29803 267.74298 363.31604 271.323 C 365.52304 270.909 366.41403 272.075 365.98804 274.819 C 365.98804 274.819 363.36905 274.112 362.94104 275.604 C 362.29803 277.333 362.78903 278.741 364.41003 279.827 C 364.41003 279.827 367.13702 281.987 368.85104 277.893 S 371.18304 272.409 371.18304 272.409 C 371.66003 270.901 374.49905 267.366 377.07803 266.87 C 378.05804 266.477 379.00003 266.556 380.04904 266.806 C 380.04904 266.806 382.30505 267.294 382.36905 269.179 C 382.43304 271.06598 381.66406 271.886 380.39005 272.43298 C 378.98404 273.037 377.24704 271.73798 377.24704 271.73798 C 376.64203 271.62497 376.44803 271.83597 376.07703 272.093 C 375.90503 272.21198 375.19003 272.995 374.77603 273.878 C 374.78 273.878 373.528 276.525 372.932 278.546 Z M 483.748 328.552 L 489.07797 318.71 L 490.19696 319.319 C 491.06396 319.792 491.53296 320.571 491.59695 321.659 C 491.66095 322.745 491.27896 324.055 490.44696 325.593 L 490.23996 325.974 C 489.24396 327.814 488.35297 328.947 487.56796 329.37 C 486.78696 329.78598 485.96997 329.763 485.12097 329.3 L 483.748 328.552 Z M 456.153 290.381 H 474.67502 L 475.07 302.38202 C 470.019 301.415 465.20102 300.911 460.751 300.911 C 459.001 300.911 457.349 300.988 455.78702 301.125 L 456.153 290.381 Z M 279.747 287.119 L 289.76102 266.69498 L 288.963 288.748 C 284.718 286.723 281.692 286.196 279.747 287.119 Z M 475.616 313.242 C 476.802 313.484 477.456 314.103 477.581 315.099 C 477.706 316.097 477.573 317.558 477.18298 319.486 L 477.097 319.91 C 476.69098 321.908 476.18298 323.293 475.577 324.07 C 474.975 324.845 474.198 325.13602 473.241 324.941 C 472.077 324.70502 471.415 324.152 471.257 323.285 S 471.237 320.91 471.675 318.762 L 471.753 318.379 C 472.18698 316.244 472.663 314.799 473.185 314.041 C 473.713 313.285 474.522 313.019 475.616 313.242 Z M 508.545 343.589 L 508.07602 342.792 L 511.70303 340.651 L 512.267 341.612 C 512.61304 342.2 512.747 342.719 512.669 343.171 C 512.591 343.62 512.255 344.02298 511.661 344.37198 L 511.28802 344.593 C 510.75504 344.905 510.26703 344.99298 509.82303 344.85098 S 508.956 344.289 508.545 343.589 Z M 470.69 333.422 C 472.174 333.804 474.167 334.605 476.161 335.575 L 476.734 353.005 C 476.685 352.992 476.639 352.98 476.59 352.967 C 464.232 349.78302 457.76898 344.967 454.422 341.146 L 454.672 333.824 C 458.293 331.778 463.678 331.642 470.69 333.422 Z M 272.019 457.356 V 410.189 H 244.565 V 457.356 H 272.019 Z M 249.332 417.253 H 267.255 V 451.908 H 249.332 V 417.253 Z M 479.754 457.356 V 410.189 H 451.993 L 452.29202 457.356 H 479.754 Z M 456.791 417.253 H 474.71597 V 451.908 H 456.791 V 417.253 Z M 458.913 419.375 H 472.594 V 449.786 H 458.913 V 419.375 Z M 445.042 458.627 H 487.009 V 464.14502 H 445.042 V 458.627 Z M 477.938 389.617 L 478.179 396.92902 H 452.52197 L 453.14697 378.557 C 456.70798 381.26 460.40698 383.19702 463.05298 384.242 C 464.671 384.881 468.46698 386.23502 472.86298 387.803 C 474.499 388.387 476.218 389.001 477.938 389.617 Z M 452.487 399.17 H 478.659 C 479.909 399.17 480.965 399.906 480.965 400.777 C 480.965 401.647 479.909 402.38202 478.659 402.38202 H 452.487 C 451.237 402.38202 450.181 401.64703 450.181 400.777 C 450.181 399.906 451.237 399.17 452.487 399.17 Z M 243.301 404.504 H 245.205 H 271.377 H 273.28302 C 274.75803 404.504 276.00302 405.319 276.00302 406.285 C 276.00302 407.251 274.75702 408.068 273.28302 408.068 H 243.301 C 241.82599 408.068 240.581 407.25198 240.581 406.285 C 240.581 405.319 241.827 404.504 243.301 404.504 Z M 474.286 288.844 H 456.13602 C 455.00403 288.844 454.04703 288.224 454.04703 287.491 C 454.04703 286.76 455.00403 286.142 456.13602 286.142 H 474.286 C 475.418 286.142 476.375 286.76 476.375 287.491 C 476.374 288.225 475.418 288.844 474.286 288.844 Z M 213.18 465.574 H 512.114 V 473.238 H 213.18 V 465.574 Z M 251.454 419.375 H 265.133 V 449.786 H 251.454 V 419.375 Z M 245.206 399.17 H 271.378 C 272.628 399.17 273.684 399.906 273.684 400.777 C 273.684 401.647 272.628 402.38202 271.378 402.38202 H 245.206 C 243.956 402.38202 242.9 401.64703 242.9 400.777 C 242.899 399.906 243.956 399.17 245.206 399.17 Z M 270.428 278.234 C 269.963 279.808 268.937 284.52902 264.199 285.333 H 252.385 C 247.648 284.52902 246.622 279.80902 246.15599 278.234 C 245.56 276.213 244.30598 273.566 244.30598 273.566 C 243.89198 272.683 243.17899 271.90002 243.00699 271.781 C 242.63599 271.523 242.443 271.314 241.83699 271.426 C 241.83699 271.426 240.09898 272.725 238.69199 272.121 C 237.42099 271.574 236.65099 270.754 236.71498 268.867 C 236.77698 266.982 239.03499 266.49402 239.03499 266.49402 C 240.08398 266.24402 241.023 266.16602 242.00598 266.558 C 244.58398 267.05402 247.42398 270.58902 247.90099 272.09702 C 247.90099 272.09702 248.51799 273.488 250.23299 277.58102 S 254.67198 279.515 254.67198 279.515 C 256.29498 278.42902 256.78497 277.02103 256.141 275.29202 C 255.715 273.79803 253.094 274.50702 253.094 274.50702 C 252.668 271.76303 253.55899 270.59702 255.76599 271.01102 C 255.786 267.43002 257.87698 266.38 258.23898 266.234 H 258.21698 C 258.25797 266.216 258.28098 266.213 258.28098 266.213 C 258.28098 266.213 258.287 266.21503 258.28897 266.21503 C 258.28998 266.21503 258.29697 266.213 258.29697 266.213 C 258.30096 266.213 258.32196 266.21902 258.36298 266.234 H 258.33997 C 258.70297 266.38 260.79495 267.431 260.81497 271.01102 C 263.02197 270.59702 263.91296 271.76303 263.48697 274.50702 C 263.48697 274.50702 260.86798 273.80002 260.43796 275.29202 C 259.79697 277.02103 260.28595 278.42902 261.90897 279.515 C 261.90897 279.515 264.63397 281.67502 266.34796 277.58102 S 268.67996 272.09702 268.67996 272.09702 C 269.15695 270.58902 271.99597 267.05402 274.57495 266.558 C 275.55695 266.165 276.49695 266.24402 277.54794 266.49402 C 277.54794 266.49402 279.80396 266.98203 279.86795 268.867 C 279.92996 270.754 279.16095 271.574 277.88895 272.121 C 276.48294 272.725 274.74594 271.426 274.74594 271.426 C 274.14093 271.313 273.94495 271.524 273.57394 271.781 C 273.40195 271.9 272.68893 272.683 272.27493 273.566 C 272.278 273.566 271.026 276.212 270.428 278.234 Z M 267.368 290.485 C 267.454 290.485 267.535 290.47098 267.61902 290.46597 L 268.045 303.425 C 267.954 303.425 267.86603 303.421 267.77502 303.421 C 261.69003 303.421 255.10503 304.322 248.56403 305.98398 L 249.09203 290.47598 C 249.13403 290.477 249.17403 290.485 249.21703 290.485 H 267.368 Z M 234.971 264.216 V 263.654 C 234.971 263.067 235.418 262.59 235.967 262.59 H 487.703 C 488.252 262.59 488.699 263.068 488.699 263.654 V 264.216 C 488.699 264.803 488.252 265.28 487.703 265.28 H 235.967 C 235.418 265.281 234.971 264.803 234.971 264.216 Z M 270.552 379.651 L 271.12 396.92902 H 245.464 L 245.772 387.894 C 249.434 386.60602 253.157 385.44702 256.71802 384.342 C 261.723 382.789 266.486 381.305 270.552 379.651 Z M 237.797 260.744 C 235.22699 255.40099 232.381 252.275 230.588 250.66998 L 494.56702 250.65198 C 490.703 253.55798 487.96902 259.093 487.217 260.73398 L 237.797 260.744 Z M 237.735 459.053 H 278.849 V 463.72 H 237.735 V 459.053 Z M 460.75 302.503 C 446.052 302.503 439.096 307.858 437.302 311.02298 C 436.668 312.14197 436.532 313.166 436.93 313.831 C 437.57 314.89798 438.86798 316.703 440.373 318.793 C 444.106 323.98 449.029 330.817 450.51898 335.346 C 452.92798 332.17902 456.75098 330.57602 461.91397 330.57602 C 464.59296 330.57602 467.67798 331.015 471.08398 331.88 C 474.227 332.69 479.50497 335.258 482.61398 337.489 C 492.75598 344.773 495.11197 351.711 493.935 355.77502 C 493.73898 356.45203 493.444 357.049 493.072 357.54602 C 501.125 357.27902 520.235 356.29602 522.981 354.82803 C 526.471 352.96204 527.924 351.02203 525.607 346.12402 C 525.44 345.77002 507.42798 310.42 475.392 304.05502 C 470.211 303.026 465.285 302.503 460.75 302.503 Z M 462.834 325.775 L 461.32602 316.742 L 458.25803 326.543 L 456.52002 326.836 L 450.73303 318.52 L 452.24103 327.55298 L 449.91702 327.94397 L 447.29202 312.20398 L 449.782 311.78598 L 457.30002 322.309 L 461.079 309.891 L 463.284 309.522 L 465.909 325.26 L 462.834 325.775 Z M 511.928 336.554 L 514.94904 341.69498 C 515.68506 342.94897 515.92004 344.00198 515.656 344.85898 C 515.394 345.718 514.849 346.39398 514.019 346.886 L 513.273 347.32498 C 512.492 347.78598 511.73 347.929 510.99002 347.753 C 510.25003 347.57498 509.56802 347.056 508.94904 346.194 C 509.23203 347.411 508.96902 348.604 508.16205 349.772 C 507.36505 350.944 505.79904 352.217 503.46704 353.594 L 501.75604 350.686 C 503.95505 349.358 505.41605 348.223 506.13705 347.284 C 506.86905 346.346 506.99207 345.468 506.51205 344.649 L 506.10406 343.956 L 499.94208 347.597 L 498.21307 344.65198 L 511.928 336.554 Z M 507.67 330.738 L 506.006 332.435 L 501.875 328.365 L 498.881 331.41998 L 502.088 334.58197 L 500.40402 336.30298 L 497.19302 333.141 L 494.045 336.354 L 498.46902 340.713 L 496.80502 342.41 L 489.95 335.656 L 501.108 324.273 L 507.67 330.738 Z M 491.584 317.367 C 493.58002 318.453 494.68002 319.836 494.88303 321.51 C 495.09604 323.182 494.63702 325.05902 493.51004 327.14102 L 493.20105 327.70703 C 491.97104 329.98004 490.62704 331.43704 489.17404 332.07202 C 487.72504 332.71103 486.16205 332.57602 484.49005 331.66403 L 479.61905 329.01404 L 487.21704 314.99103 L 491.584 317.367 Z M 480.178 314.14 C 480.89902 315.798 481.03302 317.74002 480.58002 319.96402 L 480.41202 320.80402 C 479.91 323.269 478.971 325.03802 477.596 326.11102 C 476.221 327.17502 474.61902 327.52103 472.793 327.148 C 470.986 326.781 469.654 325.836 468.797 324.316 C 467.942 322.789 467.76 320.81 468.254 318.37802 L 468.436 317.48502 C 468.89502 315.21902 469.79102 313.479 471.122 312.26 C 472.46002 311.043 474.13602 310.64102 476.153 311.053 C 478.123 311.455 479.465 312.484 480.178 314.14 Z M 428.158 408.21 C 427.887 408.74698 427.917 410.439 427.98898 411.013 C 427.91498 411.79102 427.762 412.438 427.63898 412.957 C 427.55 413.335 427.472 413.662 427.44897 413.918 C 427.34796 415.03 426.82797 415.685 426.28397 416.081 L 426.12097 415.522 L 425.77496 415.439 C 424.87396 415.223 424.76096 414.388 424.68896 412.231 C 424.63898 410.736 424.56897 408.90298 423.88297 407.02197 C 425.66898 406.82797 427.14395 407.20297 428.43497 408.179 C 428.37695 408.168 428.31696 408.154 428.26898 408.154 C 428.192 408.153 428.175 408.175 428.158 408.21 Z M 267.368 289.26 H 249.21802 C 248.08601 289.26 247.12901 288.64102 247.12901 287.909 C 247.12901 287.176 248.08601 286.556 249.21802 286.556 H 267.368 C 268.5 286.556 269.457 287.176 269.457 287.909 C 269.456 288.642 268.5 289.26 267.368 289.26 Z M 450.963 404.504 H 452.48602 H 478.65802 H 480.945 C 482.42 404.504 483.665 405.319 483.665 406.285 C 483.665 407.251 482.419 408.068 480.945 408.068 H 450.963 C 449.488 408.068 448.243 407.25198 448.243 406.285 C 448.243 405.319 449.489 404.504 450.963 404.504 Z M 229.675 521.288 L 229.87401 521.293 V 522.708 H 220.376 V 521.303 L 221.67401 521.204 C 222.24101 521.16095 222.51302 521.094 222.64201 521.04596 C 222.91202 520.938 223.11002 520.795 223.22801 520.62195 C 223.34502 520.43994 223.40501 520.17596 223.40501 519.84094 V 505.201 C 223.40501 504.90198 223.35901 504.654 223.26802 504.46198 C 223.18503 504.28198 222.97302 504.12598 222.63802 503.994 C 222.35501 503.882 222.00201 503.78 221.58801 503.69098 C 221.17702 503.589 220.83601 503.529 220.56601 503.50897 L 220.37701 503.49496 V 502.09097 H 229.87302 V 503.50296 L 229.67601 503.50897 C 229.39401 503.51797 229.05801 503.55496 228.64902 503.62198 C 228.26202 503.67398 227.91402 503.748 227.61002 503.84198 C 227.30902 503.93698 227.10602 504.08798 227.00902 504.28998 C 226.89902 504.52 226.84302 504.77798 226.84302 505.05698 V 519.682 C 226.84302 519.964 226.90002 520.20703 227.01802 520.428 C 227.13402 520.61896 227.34102 520.78296 227.62802 520.90497 C 227.80302 520.97394 228.11002 521.055 228.56003 521.15094 C 228.996 521.234 229.373 521.28 229.675 521.288 Z M 246.162 502.092 H 254.779 V 503.51 H 254.57501 C 254.33202 503.519 253.936 503.59402 253.40201 503.732 C 252.87901 503.865 252.50201 504.005 252.28201 504.147 C 251.99301 504.349 251.78702 504.764 251.67502 505.379 C 251.56302 506.034 251.50801 506.861 251.50801 507.905 V 522.906 H 249.96301 L 238.03601 506.788 V 516.593 C 238.03601 517.739 238.10701 518.629 238.24602 519.239 C 238.38402 519.818 238.59201 520.23303 238.86302 520.471 C 239.00002 520.602 239.32602 520.796 240.13303 521.011 C 240.95903 521.23 241.29903 521.282 241.43903 521.287 L 241.63603 521.294 V 522.70703 H 232.94803 V 521.302 L 233.13603 521.288 C 233.30904 521.275 233.66803 521.21906 234.39403 521.025 C 235.11003 520.822 235.36403 520.689 235.45003 520.612 C 235.75403 520.368 235.95403 520.01 236.07002 519.51 C 236.18802 518.972 236.24802 518.043 236.24802 516.749 V 506.79602 C 236.24802 506.385 236.17502 505.96603 236.03302 505.55002 C 235.89102 505.14603 235.70302 504.834 235.47401 504.62402 C 235.15602 504.329 234.71 504.075 234.14902 503.868 C 233.59001 503.648 233.13702 503.528 232.80002 503.51 L 232.60703 503.49902 V 502.092 H 238.67403 L 238.73602 502.17502 L 249.71902 517.085 V 508.09302 C 249.71902 506.937 249.64403 506.04202 249.49602 505.43402 C 249.35802 504.84903 249.16402 504.46204 248.92102 504.282 C 248.68703 504.122 248.26602 503.954 247.67802 503.78702 C 247.09402 503.62103 246.64803 503.528 246.35402 503.509 L 246.16302 503.497 V 502.092 Z M 201.625 409.051 C 199.616 417.60498 194.165 424.57898 190.782 428.253 C 194.961 426.442 202.19699 422.05 209.204 411.76898 C 213.372 405.65198 219.86699 400.56097 224.164 397.19098 C 224.808 396.68698 225.403 396.21997 225.933 395.79498 C 233.752 389.525 245.661 385.83 256.167 382.568 C 262.073 380.735 267.651 379.004 272.046 376.99298 C 282.79898 372.07297 285.37698 363.78598 285.776 362.22098 C 281.388 351.973 276.306 340.882 274.021 337.01498 L 273.737 337.48398 C 271.15298 350.21097 266.444 351.93997 263.567 352.98898 C 262.46698 353.38898 260.594 353.741 258.00198 354.228 C 253.27898 355.115 246.14099 356.455 237.88399 359.224 C 228.04298 362.524 222.60599 366.074 213.59799 371.953 C 211.38899 373.395 208.967 374.975 206.21599 376.726 C 201.84099 379.51 198.01099 380.863 194.508 380.863 C 190.174 380.863 187.185 378.80902 184.54799 376.99802 C 183.33398 376.164 182.18698 375.376 181.05199 374.90402 C 179.55199 374.28104 178.05598 373.96503 176.60399 373.96503 C 173.497 373.96503 171.09499 375.40204 169.62299 376.61304 C 172.30098 376.61603 177.50998 377.16003 182.48999 380.73904 C 188.54799 385.09103 190.56 387.49304 191.08798 388.21805 L 191.09998 388.22705 C 195.07997 390.90305 198.63898 392.37506 201.12398 392.37506 C 202.29698 392.37506 203.18698 392.05505 203.84497 391.39505 L 205.15897 392.70706 C 202.32297 395.55005 202.04997 402.00107 201.88696 405.85507 C 201.825 407.327 201.78 408.39 201.625 409.051 Z M 248.188 363.398 L 257.493 372.371 L 258.95203 359.473 L 261.05203 358.705 L 266.49503 373.701 L 263.56702 374.76898 L 260.44403 366.16397 L 259.20804 376.36096 L 257.55005 376.96497 L 250.34904 369.84796 L 253.47404 378.45297 L 251.26105 379.26196 L 245.81604 364.26596 L 248.188 363.398 Z M 232.524 371.16 C 232.94 369.398 234.092 368.113 235.987 367.308 C 237.839 366.519 239.526 366.605 241.051 367.566 C 242.58 368.523 243.789 370.04602 244.674 372.13602 L 245.008 372.92502 C 245.98799 375.24103 246.215 377.234 245.68599 378.898 C 245.15498 380.558 244.02998 381.752 242.31499 382.48203 C 240.61798 383.20502 238.98698 383.183 237.41998 382.41602 C 235.85199 381.64502 234.58398 380.11502 233.61499 377.83002 L 233.26099 376.992 C 232.362 374.863 232.116 372.919 232.524 371.16 Z M 221.073 374.736 C 223.05899 373.632 224.811 373.445 226.331 374.17398 C 227.851 374.895 229.185 376.28897 230.331 378.36197 L 230.64299 378.92596 C 231.89299 381.18997 232.39699 383.10797 232.15099 384.67798 C 231.91098 386.24597 230.95999 387.49197 229.29399 388.41797 L 224.448 391.10898 L 216.72499 377.14996 L 221.073 374.736 Z M 325.717 504.21 C 324.832 503.563 323.77902 503.04498 322.58902 502.671 C 321.39703 502.287 320.169 502.093 318.941 502.093 H 309.91702 V 503.495 L 310.105 503.51 C 310.345 503.52902 310.635 503.571 310.965 503.635 C 311.293 503.699 311.596 503.799 311.871 503.93402 C 312.142 504.06003 312.324 504.23 312.412 504.44302 C 312.513 504.67203 312.564 504.93604 312.564 505.23 V 519.812 C 312.564 520.11804 312.505 520.383 312.38998 520.60004 C 312.28598 520.79706 312.119 520.94403 311.87097 521.05304 C 311.78796 521.09204 311.57898 521.15204 311.05197 521.21906 C 310.64297 521.2651 310.29196 521.288 310.00897 521.288 H 309.80496 V 522.708 H 318.37195 C 319.76996 522.708 321.14496 522.504 322.45895 522.102 C 323.77695 521.698 324.97995 521.078 326.03595 520.259 C 327.08994 519.438 327.95694 518.37 328.61194 517.08496 C 329.26895 515.8 329.60095 514.26495 329.60095 512.522 C 329.59894 510.64597 329.25195 508.99197 328.56995 507.60397 C 327.883 506.212 326.923 505.07 325.717 504.21 Z M 325.301 516.102 C 325.044 517.114 324.624 518.019 324.053 518.79297 C 323.517 519.52295 322.806 520.10095 321.939 520.50995 C 321.07098 520.92194 320.039 521.1309 318.87 521.1309 C 317.872 521.1309 317.13 520.9749 316.662 520.66693 C 316.223 520.3759 315.999 519.82996 315.999 519.04193 V 503.70193 C 316.176 503.69693 316.395 503.69095 316.659 503.68494 L 316.884 503.67993 C 317.37302 503.66193 317.812 503.65292 318.201 503.65292 C 319.331 503.65292 320.369 503.8709 321.28598 504.3019 C 322.21097 504.73392 323.00098 505.3349 323.63498 506.0869 C 324.305 506.8779 324.82297 507.8229 325.175 508.8959 C 325.526 509.9619 325.70398 511.1769 325.70398 512.5059 C 325.705 513.858 325.569 515.067 325.301 516.102 Z M 361.432 183.471 C 399.86102 183.471 434.457 206.749 449.683 242.81 L 483.457 242.793 C 466.815 188.693 416.755 150.981 361.432 150.981 C 306.174 150.981 256.134 188.7 239.456 242.811 H 273.205 C 288.461 206.75 323.048 183.471 361.432 183.471 Z M 456.19 206.166 L 457.444 207.895 L 453.924 220.88101 L 462.40402 214.72101 L 464.07202 217.02 L 449.74402 227.42801 L 448.738 226.04102 L 452.531 212.33202 L 443.529 218.87302 L 441.861 216.57402 L 456.19 206.166 Z M 433.342 194.521 C 435.156 192.707 437.07602 191.66699 439.1 191.402 C 441.131 191.14 442.99802 191.86299 444.702 193.568 C 446.36798 195.232 447.046 197.07199 446.737 199.086 C 446.432 201.106 445.389 203.006 443.608 204.787 L 442.936 205.459 C 440.959 207.434 438.983 208.47299 437.002 208.57 C 435.02502 208.666 433.268 207.94101 431.725 206.39801 C 430.198 204.87102 429.479 203.117 429.565 201.13602 C 429.659 199.15002 430.682 197.18301 432.627 195.23602 L 433.342 194.521 Z M 430.631 181.898 L 420.221 196.226 L 416.99402 193.88 L 427.40402 179.554 L 430.631 181.898 Z M 407.12 171.046 L 408.319 168.692 L 418.819 174.042 L 417.62 176.39601 L 414.19 174.64801 L 407.346 188.074 L 403.79102 186.263 L 410.63303 172.835 L 407.12 171.046 Z M 383.34 173.117 L 386.822 161.724 L 390.638 162.892 L 387.013 174.744 C 386.732 175.664 386.728 176.418 386.997 177.008 C 387.27402 177.594 387.927 178.043 388.954 178.356 C 389.903 178.645 390.669 178.657 391.251 178.383 C 391.841 178.11299 392.298 177.44699 392.622 176.385 L 396.22702 164.60199 L 399.05502 165.465 L 395.37103 177.508 C 394.88504 179.10199 394.01202 180.20099 392.75604 180.80699 C 391.50003 181.407 389.84406 181.39099 387.78705 180.762 C 385.58005 180.086 384.14105 179.11699 383.47305 177.85799 C 382.803 176.597 382.76 175.017 383.34 173.117 Z M 364.43 158.888 L 376.184 159.71 L 375.998 162.345 L 372.158 162.075 L 371.107 177.108 L 367.12698 176.829 L 368.17798 161.79599 L 364.244 161.523 L 364.43 158.888 Z M 354.668 158.962 L 355.904 176.63 L 351.92398 176.907 L 350.688 159.241 L 354.668 158.962 Z M 339.661 160.63 L 340.345 163.181 L 336.626 164.177 L 340.526 178.73401 L 336.671 179.76501 L 332.77298 165.21002 L 328.964 166.23003 L 328.28 163.67903 L 339.661 160.63 Z M 311.108 171.896 C 311.768 170.552 313.026 169.44699 314.883 168.582 C 315.783 168.162 316.62698 167.859 317.412 167.674 C 318.201 167.47899 318.767 167.369 319.111 167.34799 L 320.25198 169.793 C 319.572 169.93 318.90598 170.082 318.24997 170.248 C 317.59598 170.416 316.92798 170.66 316.24597 170.977 C 315.28098 171.42601 314.65598 171.899 314.36896 172.395 S 314.04495 173.364 314.25195 173.809 C 314.51794 174.377 314.87695 174.731 315.32996 174.873 C 315.78494 175.016 316.92197 175.008 318.73795 174.852 C 320.42896 174.70201 321.76694 174.889 322.75595 175.41301 C 323.74594 175.92702 324.50195 176.73901 325.02194 177.852 C 325.81494 179.55501 325.83395 181.07901 325.08093 182.42201 C 324.32294 183.76001 322.93292 184.89902 320.91293 185.84201 C 319.75693 186.38101 318.74893 186.768 317.89294 187.00401 C 317.03595 187.238 316.29895 187.37502 315.68594 187.41002 L 314.39694 184.64401 C 314.91693 184.70502 315.65894 184.64001 316.62393 184.449 C 317.58493 184.25 318.48294 183.957 319.32092 183.56601 C 320.49893 183.01701 321.2329 182.48401 321.52792 181.968 C 321.82892 181.447 321.8109 180.825 321.47293 180.101 C 321.25592 179.634 320.90094 179.29199 320.41394 179.081 C 319.92593 178.866 318.79495 178.81099 317.02094 178.913 C 315.60495 178.987 314.39594 178.804 313.39795 178.362 C 312.39594 177.91699 311.59094 177.048 310.98996 175.757 C 310.416 174.523 310.456 173.236 311.108 171.896 Z M 289.975 183.308 L 302.963 186.826 L 296.803 178.347 L 299.1 176.677 L 309.51 191.005 L 308.12302 192.013 L 294.41602 188.22 L 300.95502 197.22 L 298.656 198.89 L 288.24802 184.562 L 289.975 183.308 Z M 275.256 196.152 C 276.89102 194.45699 278.71902 193.74799 280.738 194.023 C 282.76102 194.293 284.67902 195.29999 286.492 197.04999 L 287.178 197.70999 C 289.186 199.65099 290.258 201.60999 290.393 203.58899 C 290.522 205.562 289.827 207.333 288.311 208.90498 C 286.811 210.45598 285.069 211.20598 283.088 211.15298 C 281.1 211.09198 279.11502 210.10799 277.135 208.19398 L 276.40802 207.49298 C 274.562 205.70998 273.488 203.80898 273.187 201.78998 C 272.893 199.765 273.582 197.886 275.256 196.152 Z M 265.104 224.373 L 264.518 223.963 C 262.338 222.438 261.026 220.586 260.58002 218.412 C 260.14102 216.23201 260.58002 214.197 261.906 212.30501 C 262.474 211.49301 262.99802 210.84601 263.476 210.369 C 263.94702 209.88701 264.36502 209.549 264.73 209.355 L 267.03702 210.97 C 266.69702 211.144 266.30502 211.425 265.85703 211.82 C 265.41403 212.207 264.97003 212.718 264.52502 213.35101 C 263.70102 214.531 263.51102 215.77501 263.963 217.08301 C 264.41602 218.386 265.45102 219.60101 267.06702 220.731 L 267.268 220.87401 C 268.99802 222.085 270.493 222.673 271.75 222.636 C 273.012 222.593 274.018 222.036 274.768 220.968 C 275.27402 220.243 275.637 219.575 275.854 218.964 C 276.06702 218.347 276.213 217.843 276.297 217.45201 L 278.537 219.02 C 278.52698 219.348 278.383 219.854 278.103 220.53801 C 277.832 221.22601 277.423 221.95801 276.88 222.73302 C 275.513 224.68802 273.792 225.86201 271.72202 226.25601 C 269.651 226.638 267.444 226.011 265.104 224.373 Z M 275.29 513.186 H 284.54602 V 514.61 L 284.36603 514.631 C 284.14203 514.65796 283.83704 514.707 283.45203 514.772 C 283.09302 514.826 282.80203 514.90594 282.58203 515.011 C 282.34204 515.131 282.17203 515.30096 282.06503 515.527 C 281.96603 515.75 281.91504 516.02795 281.91504 516.35 V 517.91595 C 281.91504 519.05396 281.91904 519.82196 281.92905 520.22 C 281.94806 520.61096 281.96805 520.93695 281.98706 521.19196 L 281.99805 521.33496 L 281.86804 521.394 C 280.59903 521.966 279.31903 522.411 278.06305 522.717 C 276.80405 523.021 275.54803 523.17596 274.33005 523.178 H 274.33005 C 273.02005 523.178 271.74106 522.928 270.52704 522.43695 C 269.31104 521.944 268.23505 521.23395 267.33005 520.32697 C 266.41605 519.41296 265.67804 518.28394 265.13705 516.972 C 264.59805 515.66 264.32504 514.177 264.32504 512.56396 C 264.32504 511.00897 264.58304 509.54697 265.09305 508.21698 C 265.61304 506.878 266.35504 505.69998 267.29803 504.71698 C 268.21402 503.75198 269.31903 502.99298 270.58102 502.46298 C 271.85202 501.92398 273.22803 501.65097 274.67203 501.65097 C 275.82803 501.65097 276.85004 501.79297 277.70804 502.07297 C 278.48904 502.32797 279.19403 502.63498 279.80704 502.98596 L 280.34604 502.09195 H 281.79904 L 281.93503 509.56296 H 280.403 L 280.363 509.40994 C 280.168 508.64993 279.922 507.88693 279.631 507.13995 C 279.34702 506.40594 278.974 505.73895 278.523 505.15594 C 278.077 504.58295 277.52502 504.12195 276.883 503.78595 C 276.251 503.44394 275.479 503.26996 274.587 503.26794 C 273.611 503.26794 272.729 503.47095 271.965 503.87195 C 271.19598 504.26596 270.523 504.86194 269.96 505.64594 C 269.397 506.41193 268.95798 507.38092 268.65298 508.52792 C 268.34497 509.6859 268.189 510.9959 268.189 512.4209 C 268.189 513.6789 268.34 514.8829 268.639 515.9989 C 268.943 517.1009 269.388 518.0659 269.959 518.8669 C 270.52502 519.6839 271.243 520.33386 272.09402 520.8009 C 272.94202 521.2669 273.91904 521.5029 274.99802 521.5029 C 275.80103 521.5029 276.54202 521.3779 277.20203 521.1309 C 277.82602 520.90094 278.27704 520.6599 278.54703 520.4129 C 278.614 519.9539 278.64804 519.4959 278.65002 519.0149 C 278.66003 518.5099 278.66403 518.0849 278.66403 517.73486 V 516.62384 C 278.66403 516.2448 278.61203 515.9238 278.50504 515.64185 C 278.41702 515.37683 278.23602 515.19385 277.94904 515.0748 C 277.65402 514.94086 277.24405 514.8408 276.72302 514.77484 C 276.19702 514.70087 275.78104 514.65485 275.48303 514.6348 L 275.29202 514.6228 V 513.186 Z M 501.096 248.648 H 222.036 V 244.80899 H 501.096 V 248.648 Z M 221.165 343.928 L 222.62799 344.522 C 226.456 346.225 230.72398 347.949 234.90799 348.779 C 233.86699 347.26498 234.288 345.19498 234.84299 343.362 C 235.805 340.179 240.025 337.881 255.36198 332.188 C 258.68298 330.956 261.70898 330.331 264.357 330.331 C 269.606 330.331 272.258 332.718 273.46 334.354 C 275.544 330.91 281.181 321.603 284.741 315.78702 C 285.934 313.838 286.119 312.1 285.292 310.622 C 283.445 307.32602 276.732 305.278 267.775 305.278 C 258.747 305.278 248.577 307.278 239.138 310.90903 C 219.18 318.588 214.044 327.77103 210.295 334.476 L 210.214 334.621 L 210.089 334.728 C 210.044 334.77 209.543 335.26498 209.709 336.145 C 209.96 337.474 211.782 340.251 221.165 343.928 Z M 256.366 312.121 C 257.233 311.144 258.536 310.533 260.268 310.289 C 261.108 310.17 261.87302 310.137 262.561 310.189 C 263.256 310.234 263.747 310.293 264.034 310.367 L 264.372 312.775 C 263.782 312.70898 263.198 312.66 262.62 312.62698 S 261.436 312.62497 260.802 312.71298 C 259.902 312.84 259.273 313.07797 258.917 313.426 C 258.56198 313.776 258.41498 314.16998 258.47598 314.61 C 258.554 315.16898 258.76297 315.57098 259.10098 315.81497 S 260.37097 316.36 261.89798 316.71298 C 263.31998 317.03897 264.373 317.56097 265.05197 318.275 C 265.73798 318.984 266.15897 319.886 266.31198 320.982 C 266.546 322.658 266.19098 323.972 265.24597 324.923 C 264.29898 325.868 262.88297 326.474 260.998 326.739 C 259.91998 326.889 259.0 326.95203 258.24 326.92502 C 257.47998 326.89603 256.845 326.816 256.33398 326.68103 L 255.95299 323.95602 C 256.36298 324.14703 256.98798 324.29202 257.82397 324.38803 C 258.65997 324.47604 259.46896 324.46603 260.248 324.35703 C 261.348 324.20303 262.08 323.94104 262.447 323.57803 C 262.81998 323.21103 262.957 322.67203 262.857 321.96103 C 262.793 321.50003 262.586 321.11102 262.238 320.79703 C 261.89 320.48502 260.978 320.13303 259.5 319.74203 C 258.322 319.42404 257.377 318.94104 256.666 318.29303 C 255.95299 317.64102 255.50798 316.67603 255.32999 315.40604 C 255.159 314.191 255.504 313.095 256.366 312.121 Z M 248.006 312.837 L 252.66 328.09702 L 249.40201 329.09702 L 244.748 313.83502 L 248.006 312.837 Z M 225.282 323.402 L 232.72499 330.713 L 230.09999 320.5 L 232.17 319.254 L 239.949 326.361 L 236.869 316.422 L 239.23001 315.0 L 243.837 330.842 L 241.724 332.11502 L 233.662 324.84402 L 236.21901 335.43204 L 234.108 336.70303 L 222.327 325.18304 L 225.282 323.402 Z M 226.276 387.375 L 220.858 377.576 L 221.97101 376.95898 C 222.83401 376.47897 223.74101 376.504 224.69 377.03098 C 225.639 377.55997 226.53801 378.58997 227.383 380.119 L 227.594 380.498 C 228.608 382.33 229.07999 383.69098 229.01599 384.582 C 228.948 385.467 228.491 386.144 227.64299 386.613 L 226.276 387.375 Z M 236.498 375.845 C 235.65 373.839 235.227 372.376 235.228 371.456 C 235.236 370.53198 235.75499 369.852 236.78299 369.415 C 237.89398 368.94202 238.78499 369.081 239.45099 369.831 S 240.83398 371.862 241.59898 373.673 L 241.76898 374.073 C 242.56398 375.948 242.92899 377.378 242.86699 378.362 C 242.80998 379.342 242.33398 380.026 241.43498 380.407 C 240.34099 380.87402 239.48398 380.794 238.86298 380.169 C 238.24397 379.54602 237.50598 378.22202 236.64998 376.204 L 236.498 375.845 Z M 264.357 332.187 C 266.328 332.187 267.85 332.573 269.022 333.11102 L 269.419 345.19904 C 267.28302 349.65402 264.793 350.56403 262.93 351.24304 C 261.974 351.59103 260.07 351.94904 257.659 352.40204 C 254.83899 352.93103 251.163 353.62402 246.90399 354.67804 L 247.49998 337.20203 C 249.84398 336.252 252.64899 335.17603 256.00998 333.92804 C 259.123 332.773 261.931 332.187 264.357 332.187 Z M 304.338 504.546 C 303.459 503.619 302.402 502.88998 301.198 502.378 C 299.995 501.867 298.69598 501.608 297.335 501.608 C 296.024 501.608 294.749 501.861 293.543 502.362 C 292.347 502.865 291.281 503.6 290.373 504.546 C 289.457 505.504 288.72998 506.65198 288.21198 507.95898 C 287.69098 509.262 287.42798 510.76297 287.42798 512.42096 C 287.42798 513.938 287.67697 515.38495 288.16797 516.72296 C 288.66797 518.053 289.36096 519.201 290.22797 520.134 C 291.09695 521.09094 292.14896 521.85 293.35596 522.391 C 294.57297 522.922 295.91196 523.191 297.33597 523.191 C 298.67496 523.191 299.95596 522.93695 301.14197 522.435 C 302.32596 521.934 303.38196 521.209 304.27997 520.283 C 305.20496 519.346 305.93796 518.197 306.45895 516.866 C 306.97696 515.543 307.23895 514.04803 307.23895 512.421 C 307.23895 510.80603 306.98096 509.31503 306.47195 507.989 C 305.961 506.653 305.244 505.494 304.338 504.546 Z M 303.023 516.038 C 302.79 517.106 302.411 518.072 301.896 518.91003 C 301.401 519.73303 300.75598 520.379 299.97598 520.83105 C 299.197 521.28705 298.309 521.51807 297.335 521.51807 C 296.297 521.51807 295.395 521.29205 294.65198 520.84906 C 293.90497 520.39307 293.27698 519.75507 292.78497 518.95105 C 292.26596 518.11505 291.88196 517.15 291.64297 516.08105 C 291.40097 514.9991 291.27896 513.76807 291.27896 512.42206 C 291.27896 511.21304 291.39297 510.03806 291.61597 508.93304 C 291.84695 507.83804 292.19797 506.87006 292.65897 506.05704 C 293.14197 505.21704 293.77597 504.53604 294.54398 504.03403 C 295.30298 503.53503 296.24197 503.28302 297.33398 503.28302 C 298.305 503.28302 299.18 503.50403 299.93597 503.94003 C 300.68997 504.37003 301.326 504.98004 301.826 505.75403 C 302.33298 506.54404 302.72098 507.51904 302.981 508.65402 C 303.25098 509.78702 303.388 511.05502 303.388 512.42303 C 303.388 513.749 303.266 514.965 303.023 516.038 Z M 199.819 475.152 H 525.682 V 484.414 H 199.819 V 475.152 Z M 456.776 363.068 L 461.628 359.347 L 459.694 365.193 L 456.776 363.068 Z M 495.961 375.38 C 495.869 376.38 495.422 377.78 494.623 379.577 L 494.447 379.972 C 493.621 381.835 492.828 383.077 492.068 383.702 C 491.314 384.331 490.49 384.444 489.599 384.048 C 488.513 383.564 487.986 382.88 488.019 381.999 C 488.052 381.12 488.513 379.677 489.402 377.675 L 489.56 377.31598 C 490.445 375.32797 491.224 374.01898 491.896 373.39398 C 492.576 372.76898 493.423 372.68698 494.443 373.13998 C 495.549 373.634 496.055 374.38 495.961 375.38 Z M 480.31 502.092 H 498.298 V 507.981 H 496.952 L 496.913 507.826 C 496.833 507.503 496.681 507.11 496.45898 506.658 C 496.245 506.193 496.00098 505.75098 495.73297 505.34198 C 495.45898 504.921 495.15298 504.55 494.82397 504.23798 C 494.52197 503.93597 494.235 503.76297 493.96597 503.72098 C 493.66898 503.684 493.30197 503.65598 492.88098 503.63898 C 492.43698 503.61798 492.02698 503.61 491.65097 503.61 H 491.03098 V 519.57 C 491.03098 519.85004 491.09097 520.112 491.20898 520.348 C 491.31897 520.56 491.51398 520.726 491.80298 520.85205 C 491.956 520.9111 492.304 520.99805 492.83 521.1091 C 493.37698 521.22107 493.78598 521.28107 494.076 521.2901 L 494.274 521.2961 V 522.70807 H 484.335 V 521.3061 L 484.52298 521.2911 C 484.788 521.2701 485.188 521.23505 485.72897 521.1761 C 486.25897 521.1211 486.62198 521.0541 486.80997 520.9771 C 487.08298 520.8701 487.27997 520.7201 487.39798 520.5321 C 487.52698 520.3271 487.593 520.0471 487.593 519.6991 V 503.6101 H 486.973 C 486.681 503.6101 486.318 503.6221 485.886 503.6391 C 485.448 503.6491 485.033 503.6771 484.65 503.7221 C 484.386 503.7551 484.097 503.9281 483.79 504.2341 C 483.47 504.5531 483.16702 504.9271 482.89 505.3431 C 482.618 505.7491 482.37003 506.1991 482.152 506.68112 C 481.941 507.13913 481.79202 507.52713 481.708 507.83212 L 481.66702 507.98212 H 480.31302 V 502.092 Z M 533.512 376.271 C 531.42505 376.969 529.224 377.323 526.973 377.323 C 519.864 377.323 513.60205 373.844 509.86002 371.76498 C 509.065 371.32397 508.38202 370.943 507.828 370.675 C 506.775 370.166 505.784 369.31598 504.529 368.24 C 501.862 365.953 497.943 362.597 489.725 359.19498 C 489.459 359.162 489.28 359.076 489.16202 358.96497 C 485.65103 357.54495 481.38403 356.11996 476.12802 354.76596 C 458.282 350.16797 452.14902 342.30295 450.09802 338.17395 C 450.06302 338.17194 450.02902 338.17694 449.99402 338.16895 C 449.872 338.14395 449.769 338.08395 449.67603 338.01096 C 447.39703 342.64795 442.64902 353.64694 444.05304 362.38297 C 446.14703 375.42896 463.55905 382.44498 463.73505 382.51398 C 465.32404 383.141 469.10706 384.49097 473.48706 386.054 C 481.31406 388.84598 491.05505 392.322 493.78207 393.64398 C 498.13608 395.757 509.65207 403.942 516.54205 413.288 C 520.94507 419.259 529.19904 423.052 534.26105 424.929 C 530.63306 421.47998 525.45807 415.57098 524.99805 409.57797 C 524.35406 401.19296 520.241 395.92197 520.19904 395.86996 L 519.09106 394.47397 L 520.8691 394.36597 C 525.00305 394.11597 525.56506 393.83395 530.9381 391.13297 L 532.2321 390.48297 C 535.1041 389.04297 538.0741 387.554 545.8751 378.31198 C 546.3051 377.78198 548.52014 374.016 549.30115 372.24597 C 546.162 372.562 537.392 374.974 533.512 376.271 Z M 460.401 373.293 L 457.581 371.236 L 458.925 367.48398 L 454.888 364.54297 L 451.72 366.96896 L 449.474 365.33197 L 462.949 355.42197 L 465.519 357.29297 L 460.401 373.293 Z M 469.229 377.423 L 466.167 375.92502 L 472.10498 363.72202 L 469.07797 362.242 L 470.12097 360.103 L 479.16397 364.525 L 478.12097 366.664 L 475.16797 365.219 L 469.229 377.423 Z M 476.075 380.332 L 482.294 365.643 L 485.431 366.97702 L 479.21 381.66602 L 476.075 380.332 Z M 493.6 386.134 C 492.026 386.874 490.389 386.866 488.686 386.105 C 487.002 385.353 485.905 384.142 485.397 382.47202 C 484.889 380.79602 485.141 378.824 486.147 376.55603 L 486.518 375.72604 C 487.456 373.61304 488.706 372.10706 490.268 371.20605 C 491.836 370.30804 493.561 370.28006 495.44 371.11804 C 497.276 371.93805 498.366 373.23505 498.706 375.00705 C 499.05 376.78204 498.763 378.70605 497.843 380.78006 L 497.495 381.56107 C 496.471 383.863 495.174 385.386 493.6 386.134 Z M 506.979 395.142 L 505.713 394.41 L 504.16 381.933 L 499.16 390.617 L 497.06 389.402 L 505.017 375.582 L 506.599 376.496 L 508.128 388.285 L 512.837 380.107 L 514.93896 381.322 L 506.979 395.142 Z M 439.281 521.177 C 438.928 521.114 438.63602 521.024 438.415 520.912 C 438.087 520.742 437.758 520.529 437.44202 520.282 C 437.12302 520.018 436.756 519.60297 436.351 519.05 C 435.394 517.759 434.584 516.664 433.92 515.763 C 433.293 514.897 432.52002 513.854 431.62003 512.659 C 432.24802 512.463 432.82803 512.233 433.34903 511.974 C 433.95602 511.669 434.49002 511.298 434.93402 510.874 C 435.419 510.416 435.79 509.869 436.03702 509.248 C 436.282 508.62698 436.407 507.908 436.407 507.10797 C 436.407 506.21198 436.22 505.43497 435.85303 504.79996 C 435.48502 504.15396 434.989 503.62695 434.377 503.23297 C 433.75403 502.83496 433.049 502.54297 432.281 502.36597 C 431.519 502.18295 430.694 502.09097 429.829 502.09097 H 420.307 V 503.49496 L 420.496 503.50897 C 420.759 503.52896 421.077 503.57498 421.445 503.649 C 421.824 503.715 422.114 503.78598 422.332 503.865 C 422.626 503.97598 422.806 504.129 422.882 504.33 C 422.96698 504.56198 423.00998 504.835 423.00998 505.142 V 519.753 C 423.00998 520.086 422.951 520.359 422.83298 520.571 C 422.73196 520.76697 422.56497 520.914 422.31998 521.019 C 422.21597 521.066 421.985 521.133 421.47098 521.188 C 421.046 521.235 420.72098 521.266 420.49298 521.285 L 420.30597 521.30096 V 522.704 H 429.24896 V 521.289 L 429.04996 521.284 C 428.78397 521.277 428.44696 521.246 427.99194 521.188 C 427.57895 521.131 427.29294 521.073 427.14093 521.014 C 426.84995 520.901 426.66895 520.751 426.58792 520.55597 C 426.49393 520.329 426.44693 520.058 426.44693 519.751 V 513.547 H 428.20493 C 429.31293 514.974 430.35193 516.377 431.29492 517.719 C 432.25192 519.068 433.35193 520.714 434.56293 522.609 L 434.62292 522.703 H 440.37292 V 521.289 L 440.17493 521.283 C 439.947 521.28 439.654 521.244 439.281 521.177 Z M 431.236 510.721 C 430.41 511.514 429.358 511.91602 428.108 511.91602 H 426.449 V 503.652 H 428.663 C 429.88 503.652 430.83 503.995 431.49 504.673 C 432.15698 505.352 432.482 506.256 432.482 507.436 C 432.482 508.815 432.062 509.921 431.236 510.721 Z M 477.379 514.733 C 477.593 515.30597 477.703 515.99097 477.703 516.76495 C 477.703 518.605 477.015 520.14197 475.657 521.332 C 474.31003 522.519 472.614 523.121 470.61603 523.121 C 469.70004 523.121 468.77103 522.97894 467.85303 522.698 C 467.01303 522.432 466.27402 522.116 465.65204 521.758 L 465.08405 522.723 H 463.63205 L 463.42105 515.393 H 464.93906 L 464.98105 515.543 C 465.21204 516.38 465.48605 517.151 465.79404 517.83405 C 466.10605 518.494 466.52103 519.12506 467.02704 519.70605 C 467.49704 520.2441 468.05603 520.67804 468.68805 520.99805 C 469.31906 521.314 470.06406 521.47406 470.90005 521.47406 C 471.53107 521.47406 472.08206 521.3921 472.53705 521.23004 C 473.00006 521.06903 473.37506 520.84204 473.65405 520.554 C 473.93207 520.266 474.14206 519.922 474.27805 519.53204 C 474.42105 519.127 474.49304 518.65704 474.49304 518.13403 C 474.49304 517.36804 474.27405 516.64905 473.84305 515.997 C 473.41306 515.33203 472.76105 514.822 471.90405 514.478 C 471.28806 514.23004 470.58505 513.96204 469.79105 513.669 C 468.99106 513.363 468.29306 513.07404 467.71304 512.808 C 466.55304 512.287 465.63205 511.59097 464.97705 510.73898 C 464.32504 509.86697 463.99506 508.728 463.99506 507.353 C 463.99506 506.557 464.16006 505.805 464.48505 505.115 C 464.80606 504.43 465.27203 503.81 465.86905 503.272 C 466.43405 502.763 467.11206 502.361 467.88504 502.077 C 468.65305 501.785 469.46704 501.637 470.30304 501.637 C 471.25305 501.637 472.11505 501.785 472.86505 502.078 C 473.53906 502.336 474.17004 502.64 474.74106 502.98502 L 475.27606 502.09402 H 476.73306 L 476.85306 509.209 H 475.33707 L 475.29608 509.05902 C 475.07907 508.26703 474.84808 507.55203 474.5911 506.87003 C 474.33908 506.18204 474.0081 505.55704 473.6061 505.00803 C 473.2221 504.48804 472.7421 504.06702 472.1801 503.75803 C 471.62012 503.44302 470.92612 503.28302 470.11713 503.28302 C 469.27313 503.28302 468.54413 503.557 467.95013 504.09903 C 467.35315 504.64404 467.06314 505.28903 467.06314 506.071 C 467.06314 506.898 467.25613 507.592 467.63715 508.13303 C 468.02313 508.67102 468.59515 509.12302 469.33514 509.47702 C 470.02216 509.80603 470.70114 510.09503 471.35315 510.337 C 472.03516 510.579 472.69516 510.83902 473.31314 511.111 C 473.87515 511.35498 474.43414 511.641 474.97214 511.96298 C 475.51114 512.281 475.99014 512.66296 476.39514 513.097 C 476.841 513.587 477.171 514.138 477.379 514.733 Z M 386.363 516.346 H 387.758 L 387.347 522.70703 H 370.19598 V 521.301 L 370.386 521.288 C 370.667 521.268 371.04398 521.234 371.51398 521.176 C 372.07297 521.09705 372.292 521.034 372.37598 520.994 C 372.63297 520.874 372.81198 520.719 372.90698 520.53204 C 373.01498 520.32904 373.06897 520.06903 373.06897 519.75604 V 505.23105 C 373.06897 504.94006 373.02396 504.69604 372.92996 504.48505 C 372.84396 504.28503 372.65897 504.11905 372.37695 503.99005 C 372.13696 503.87506 371.81195 503.77206 371.37994 503.67606 C 370.96396 503.58505 370.62894 503.52905 370.38293 503.51007 L 370.19495 503.49506 V 502.09204 H 386.22195 V 507.36905 H 384.79395 L 384.75394 507.21704 C 384.56894 506.52005 384.16495 505.77405 383.55295 504.99805 C 382.96194 504.22705 382.40494 503.80304 381.89395 503.73605 C 381.61996 503.69907 381.28195 503.67206 380.85995 503.65204 C 380.45294 503.63205 379.99097 503.62503 379.47495 503.62503 H 376.50696 V 511.24802 H 378.57797 C 379.27798 511.24802 379.78796 511.186 380.09396 511.06302 C 380.40295 510.93503 380.66995 510.726 380.90796 510.42603 C 381.09695 510.17603 381.26297 509.82803 381.39795 509.39603 C 381.54895 508.92804 381.64496 508.51202 381.68893 508.12402 L 381.70993 507.94302 H 383.16293 V 516.255 H 381.70493 L 381.68893 516.068 C 381.65094 515.628 381.54993 515.159 381.38693 514.67596 C 381.23093 514.183 381.06995 513.832 380.90793 513.628 C 380.64093 513.292 380.33493 513.071 379.99792 512.97 C 379.64392 512.86096 379.16693 512.80597 378.5779 512.80597 H 376.5069 V 518.66797 C 376.5069 519.259 376.5489 519.727 376.62988 520.05896 C 376.70288 520.365 376.83987 520.58795 377.0489 520.743 C 377.2639 520.899 377.57288 521.00696 377.9669 521.06 C 378.37888 521.105 378.98288 521.128 379.7599 521.128 H 380.99588 C 381.5399 521.128 381.94388 521.11 382.26688 521.073 C 382.61987 521.036 382.98288 520.971 383.34988 520.879 C 383.69888 520.78503 383.94287 520.666 384.0749 520.525 C 384.4949 520.08704 384.9429 519.40704 385.40988 518.504 C 385.88287 517.59204 386.1879 516.914 386.31787 516.48804 L 386.363 516.346 Z M 399.443 502.092 H 417.43298 V 508.271 L 417.143 507.981 H 416.085 L 416.046 507.826 C 415.966 507.503 415.814 507.11 415.59198 506.658 C 415.378 506.193 415.13397 505.75098 414.86597 505.34198 C 414.59198 504.921 414.28598 504.55 413.95697 504.23798 C 413.65497 503.93597 413.36798 503.76297 413.09897 503.72098 C 412.80197 503.684 412.43497 503.65598 412.01398 503.63898 C 411.56998 503.61798 411.15997 503.61 410.78397 503.61 H 410.16397 V 519.57 C 410.16397 519.85004 410.22397 520.112 410.34198 520.348 C 410.45197 520.56 410.64697 520.726 410.93597 520.85205 C 411.08997 520.9111 411.438 520.99805 411.96497 521.1091 C 412.50296 521.2201 412.92197 521.28107 413.20895 521.2901 L 413.40695 521.2961 V 522.70807 H 403.46896 V 521.3061 L 403.65695 521.2901 C 403.91995 521.2691 404.32196 521.2341 404.86096 521.1751 C 405.39297 521.1201 405.75595 521.05414 405.94196 520.9771 C 406.21497 520.86914 406.41196 520.7201 406.53094 520.5311 C 406.66095 520.3281 406.72595 520.04913 406.72595 519.6981 V 503.60913 H 406.10596 C 405.81497 503.60913 405.45096 503.62112 405.02097 503.63812 C 404.58197 503.64813 404.16595 503.67612 403.78296 503.72113 C 403.51895 503.75412 403.22995 503.92712 402.92297 504.23312 C 402.60297 504.55212 402.3 504.92612 402.02298 505.34213 C 401.74698 505.75714 401.499 506.20712 401.28497 506.68015 C 401.07397 507.14215 400.92596 507.52914 400.843 507.83115 L 400.802 507.98114 H 399.446 V 502.092 Z M 452.824 502.092 H 461.482 V 503.50302 L 461.285 503.51 C 461.04 503.519 460.669 503.573 460.151 503.676 C 459.66602 503.776 459.268 503.925 458.97 504.11798 C 458.7 504.301 458.505 504.71198 458.392 505.33597 C 458.271 506.00797 458.20898 506.83997 458.20898 507.80795 V 516.59296 C 458.20898 517.74396 457.96597 518.75995 457.485 519.613 C 457.007 520.46295 456.369 521.17096 455.59 521.717 C 454.818 522.24396 453.998 522.622 453.149 522.84296 C 452.31497 523.074 451.49698 523.191 450.72098 523.191 C 449.48697 523.191 448.373 523.024 447.41098 522.696 C 446.44598 522.378 445.619 521.93396 444.95697 521.378 C 444.29797 520.816 443.79697 520.17 443.46698 519.456 C 443.13397 518.732 442.964 517.96497 442.964 517.177 V 505.23 C 442.964 504.931 442.914 504.68402 442.81598 504.497 C 442.72598 504.301 442.53497 504.122 442.24298 503.954 C 442.02298 503.83102 441.736 503.734 441.39197 503.664 C 441.02896 503.58 440.73196 503.528 440.50497 503.509 L 440.317 503.493 V 502.091 H 449.133 V 503.502 L 448.936 503.509 C 448.682 503.518 448.351 503.56 447.95502 503.634 C 447.56802 503.708 447.28003 503.777 447.101 503.839 C 446.83502 503.93298 446.661 504.08298 446.57 504.297 C 446.478 504.529 446.43 504.796 446.43 505.08398 V 516.252 C 446.43 516.787 446.486 517.348 446.597 517.92004 C 446.71298 518.47906 446.942 519.0101 447.27597 519.49506 C 447.62097 519.9841 448.10397 520.39404 448.70996 520.71106 C 449.31396 521.02704 450.16397 521.18805 451.23196 521.18805 C 452.23697 521.18805 453.08896 521.02606 453.76196 520.70807 C 454.44196 520.3921 454.97995 519.97205 455.36395 519.46106 C 455.73495 518.9731 456.00095 518.45404 456.15695 517.91705 C 456.31094 517.3851 456.38895 516.83405 456.38895 516.27905 V 507.99005 C 456.38895 506.95004 456.31393 506.09805 456.16696 505.45706 C 456.02597 504.83606 455.82895 504.43106 455.57996 504.25305 C 455.27396 504.03305 454.83896 503.85806 454.28796 503.73206 C 453.73297 503.60205 453.30396 503.52707 453.01196 503.50806 L 452.82095 503.49606 V 502.092 Z M 360.412 502.092 H 368.14398 V 503.502 L 367.94797 503.51 C 367.73495 503.519 367.48297 503.571 367.17798 503.67 C 366.86996 503.76602 366.60098 503.88602 366.35397 504.03702 C 366.04498 504.229 365.791 504.45703 365.59796 504.712 C 365.41296 504.959 365.24695 505.316 365.10397 505.77402 C 364.43097 507.96402 363.649 510.527 362.75897 513.46204 C 361.86398 516.387 360.90298 519.50604 359.86798 522.82104 L 359.82297 522.96405 H 358.21896 L 353.27097 507.85104 L 348.11395 522.96405 H 346.56094 L 341.58395 505.28406 C 341.50397 505.01306 341.38895 504.77707 341.23196 504.56607 C 341.08298 504.35608 340.87695 504.16306 340.61496 503.98907 C 340.39096 503.83707 340.13895 503.73108 339.84296 503.6631 C 339.53595 503.57907 339.26297 503.52808 339.02097 503.5091 L 338.83298 503.49408 V 502.09106 H 347.47598 V 503.49808 L 347.283 503.5081 C 346.585 503.54608 345.973 503.6161 345.464 503.7171 C 345.09 503.7951 344.875 503.9151 344.875 504.0441 C 344.875 504.1101 344.882 504.2241 344.915 504.3921 C 344.94202 504.5451 344.965 504.6641 344.98502 504.7591 C 345.19302 505.55908 345.56903 506.9131 346.13303 508.8881 C 346.66003 510.6991 347.42502 513.3651 348.42703 516.8861 L 353.29904 502.37512 H 354.98605 L 359.90305 517.21313 C 360.50903 515.12213 361.03604 513.27814 361.48505 511.68015 C 361.97705 509.91815 362.38705 508.39514 362.70703 507.15515 C 362.94504 506.22815 363.07904 505.65814 363.12903 505.36316 C 363.18402 505.05115 363.21204 504.78015 363.21204 504.55716 C 363.21204 504.32016 363.02603 504.10916 362.65903 503.93015 C 362.24402 503.72214 361.55203 503.58014 360.60004 503.50714 L 360.41205 503.49213 V 502.092 Z M 276.184 200.816 C 275.80698 199.855 276.073 198.90399 276.981 197.96399 C 277.96298 196.94398 278.96698 196.66699 279.987 197.13199 C 281.008 197.59499 282.303 198.58499 283.874 200.10098 L 284.222 200.43498 C 285.847 202.00699 286.83298 203.31798 287.17697 204.36899 C 287.52896 205.41399 287.30597 206.34799 286.51297 207.16798 C 285.54596 208.17198 284.60098 208.49399 283.68298 208.14099 C 282.76498 207.786 281.429 206.762 279.679 205.073 L 279.36697 204.77 C 277.627 203.089 276.565 201.773 276.184 200.816 Z M 417.522 398.136 C 416.525 396.30298 415.663 394.72 415.275 394.119 C 413.733 391.718 413.419 388.293 413.322 386.25598 C 416.065 389.348 419.30798 392.22397 423.138 394.546 L 423.575 394.819 L 423.289 396.544 L 422.749 398.937 L 421.97598 405.10703 C 421.685 404.959 421.40298 404.80704 421.26797 404.65503 C 420.757 404.079 418.887 400.644 417.522 398.136 Z M 423.723 393.466 C 417.63 389.758 413.034 384.51102 409.641 379.31 C 409.641 379.307 409.641 379.304 409.641 379.301 L 409.63498 379.301 C 405.042 372.257 402.65897 365.301 401.78497 362.373 C 401.75296 362.266 401.71597 362.142 401.66296 362.026 L 401.651 361.981 C 402.353 361.723 403.116 361.47498 403.891 361.246 C 406.3 368.738 411.98398 381.86002 423.697 389.094 L 423.785 389.689 L 423.806 390.505 L 423.723 393.466 Z M 397.784 344.023 C 398.997 343.101 400.225 342.398 400.884 342.02002 C 401.081 341.907 401.224 341.825 401.297 341.777 C 401.39398 341.71402 401.443 341.704 401.443 341.704 C 401.443 341.704 401.395 341.713 401.31198 341.683 L 401.36697 341.52402 C 401.66498 342.156 402.04498 343.144 402.27698 343.747 C 402.37097 343.992 402.44998 344.196 402.50397 344.328 C 402.55795 344.461 402.58698 344.622 402.61996 344.781 C 402.70697 345.215 402.85297 345.941 403.56396 345.941 C 403.64697 345.941 403.73398 345.926 403.82397 345.90402 L 403.95197 346.67303 L 403.78696 346.97205 L 402.30795 346.87305 L 400.24994 346.80704 C 399.71393 346.75604 399.04092 346.66904 398.88794 346.61603 C 398.63193 346.528 398.03394 346.42102 397.69394 346.364 C 397.423 345.934 396.818 344.758 397.784 344.023 Z M 410.337 361.859 C 409.821 364.049 409.45502 366.854 409.174 370.794 C 407.273 367.126 405.95203 363.647 405.071 360.914 C 405.798 360.721 406.509 360.549 407.15503 360.41 C 407.34204 360.37 407.502 360.253 407.59802 360.089 L 407.72202 359.878 C 408.695 360.875 409.475 361.091 410.414 361.145 C 410.423 361.309 410.411 361.546 410.337 361.859 Z M 407.565 396.145 C 408.867 396.38898 410.003 396.52 411.084 396.52 C 412.355 396.52 413.57602 396.341 414.95203 395.998 C 415.24103 396.51498 415.58102 397.137 415.94302 397.8 C 413.31702 398.50198 409.55002 398.74 406.78903 397.94098 C 406.82803 397.85098 406.86804 397.75897 406.90604 397.66998 C 407.135 397.143 407.353 396.637 407.565 396.145 Z M 421.035 457.028 C 420.736 458.07602 421.033 459.07202 421.295 459.95102 C 421.389 460.264 421.47702 460.56003 421.53302 460.842 C 421.747 461.91202 421.75003 463.571 421.75003 463.642 V 463.846 H 402.883 C 402.76 463.846 402.655 463.788 402.595 463.68802 C 402.511 463.548 402.313 463.22003 403.657 460.68103 C 404.00803 460.01404 404.967 459.19702 406.24503 458.98404 C 407.08603 458.84305 407.34903 458.11505 407.74704 457.01205 C 407.87805 456.64905 408.02603 456.23807 408.21204 455.81204 C 408.89703 454.24603 408.65103 450.72403 407.99203 448.41605 C 407.33502 446.11606 406.49603 440.72806 406.49603 438.80704 C 406.49603 436.84103 405.41003 432.48303 404.39404 429.64505 C 404.21405 429.14206 404.05005 428.53604 403.90005 427.87805 C 404.74704 428.18805 406.39804 428.67606 408.46005 428.67606 C 410.03006 428.67606 411.83005 428.38306 413.66907 427.51706 C 413.78906 429.04306 413.88507 430.53806 413.93506 431.39706 L 414.35907 447.72107 V 458.02408 C 412.62607 459.35107 411.70306 461.28308 411.61508 463.77206 L 412.8401 463.81607 C 412.9191 461.57907 413.7321 459.95007 415.3231 458.83707 L 415.58408 458.65405 V 447.70804 L 415.37106 438.57904 L 415.15906 431.34503 C 415.15005 431.19504 415.04504 429.37903 414.88806 427.38904 C 415.77707 427.77704 417.31805 428.29303 419.25906 428.29303 C 420.78806 428.29303 422.56006 427.96304 424.43805 427.00104 C 424.10306 428.43304 423.94504 429.24503 424.50406 433.90305 C 425.13806 439.18204 423.66806 445.79105 423.65305 445.85706 C 423.565 446.254 421.457 455.556 421.035 457.028 Z M 409.293 335.507 L 409.555 335.555 C 410.29898 335.694 410.90698 335.809 412.47098 335.732 C 413.83096 335.662 415.58197 335.995 416.83398 336.22998 C 417.149 336.28897 417.438 336.343 417.68698 336.38498 C 418.801 336.57498 420.413 337.46497 421.07297 338.572 C 421.61496 339.48398 422.96097 340.511 424.04297 341.33798 C 424.44296 341.64398 424.79297 341.90997 425.01996 342.11197 C 426.19894 343.16098 427.91696 345.33896 428.50797 346.21198 C 428.99097 346.925 429.01297 347.27698 428.98297 347.42398 C 428.95398 347.564 428.85596 347.637 428.70596 347.73398 C 428.61197 347.79498 428.28296 347.938 427.25098 347.938 C 425.08 347.938 421.61697 347.33 420.201 347.03598 C 419.55298 345.964 412.972 344.11798 408.647 344.11798 C 406.688 344.11798 405.062 344.43 403.813 345.04398 C 403.662 345.11798 403.58698 345.12698 403.572 345.13498 C 403.50998 345.07697 403.452 344.792 403.418 344.62097 C 403.376 344.40997 403.33 344.19797 403.258 344.02097 C 403.206 343.89297 403.13 343.69397 403.038 343.45496 C 402.569 342.23495 402.08398 341.00696 401.763 340.55695 C 401.742 340.52695 401.72 340.49396 401.698 340.46094 L 401.691 340.35693 C 401.357 339.83295 400.979 339.08194 400.483 337.29395 C 400.497 337.25195 400.502 337.21094 400.525 337.16794 C 401.012 336.24094 403.19598 335.41995 403.932 335.19595 C 404.864 335.07596 407.568 335.34494 408.732 335.45895 C 409.02 335.484 409.221 335.502 409.293 335.507 Z M 424.719 425.47 C 424.526 425.574 424.32098 425.684 424.091 425.808 C 419.344 428.363 415.35 426.299 414.771 425.971 C 414.629 424.38 414.46 422.901 414.289 422.299 C 414.185 421.93402 413.833 420.09302 412.644 411.86002 L 411.431 412.035 C 412.346 418.368 412.91 421.934 413.111 422.635 C 413.264 423.17102 413.426 424.64102 413.568 426.268 L 413.544 426.22202 C 408.682 428.75302 403.857 426.54703 403.808 426.52402 L 403.678 426.799 C 403.208 424.32 402.92502 421.453 402.83002 420.157 L 403.00702 420.181 L 403.24402 418.475 C 403.402 418.12302 403.80002 417.025 403.60703 415.18402 C 403.39502 413.195 403.61902 407.61902 404.12903 404.85403 C 404.33902 403.72205 405.30103 401.39404 406.29904 399.07303 C 407.64404 399.48102 409.20505 399.67 410.79105 399.67 C 412.86206 399.67 414.93106 399.36502 416.54404 398.902 C 418.42505 402.357 419.80005 404.84702 420.35205 405.467 C 420.65906 405.81302 421.10406 406.03802 421.53506 406.25702 C 421.62906 406.30402 421.72305 406.35303 421.81406 406.40103 L 421.79205 406.57703 C 421.76706 406.77704 421.84204 406.976 421.99207 407.11002 C 422.14206 407.24402 422.34805 407.29703 422.54407 407.24902 C 422.58105 407.24002 422.61508 407.23602 422.65106 407.22803 C 423.34506 408.99603 423.41107 410.73303 423.46307 412.27203 C 423.52606 414.14703 423.58707 415.92404 425.13406 416.52103 L 425.15805 416.60403 C 425.13406 416.61005 425.10205 416.62003 425.08206 416.62402 C 425.072 417.664 424.998 422.946 424.719 425.47 Z M 417.702 353.497 C 417.722 353.49902 417.741 353.501 417.759 353.504 C 418.079 353.541 418.302 353.521 418.585 353.342 C 418.845 353.17603 418.90698 352.98 418.96698 352.79102 C 419.01398 352.64203 419.063 352.48703 419.21997 352.286 C 419.429 352.019 419.52396 351.833 419.59998 351.68402 C 419.66898 351.549 419.71896 351.45203 419.83197 351.33002 C 420.26596 350.859 419.972 349.90002 419.75797 349.371 C 419.61197 349.01102 419.34897 348.957 419.20496 348.957 C 419.15195 348.957 419.09796 348.964 419.04395 348.977 L 419.40594 347.593 C 419.16595 347.48898 419.02493 347.379 419.02493 347.26498 V 347.12598 C 417.51892 346.42798 412.92993 344.93198 408.64792 344.93198 C 407.12393 344.93198 405.84192 345.13898 404.79492 345.52597 L 405.0169 346.85498 L 404.7659 347.30997 C 404.6149 347.92496 404.4819 348.77496 404.6189 349.17596 C 404.8589 349.87997 405.25488 351.49097 405.4039 352.09796 L 405.4469 352.27295 C 405.4589 352.32095 405.4869 352.45895 405.5269 352.65195 C 405.64188 353.22095 405.94888 354.73193 406.10788 355.05795 C 406.14487 355.13495 406.18988 355.24695 406.24487 355.38596 C 406.50586 356.04996 407.04987 357.43097 408.26886 357.75797 C 408.26987 357.75797 408.27087 357.75797 408.27087 357.75797 C 408.38788 357.78897 408.50888 357.80997 408.62888 357.83395 C 408.69586 357.84695 408.76086 357.86496 408.8289 357.87595 C 409.18488 357.93295 409.55087 357.95395 409.9119 357.94696 C 409.9349 357.94696 409.9579 357.94797 409.9809 357.94797 C 410.14288 357.94296 410.3029 357.92798 410.46188 357.91098 C 410.49088 357.908 410.52087 357.908 410.5499 357.904 C 410.6919 357.886 410.8289 357.86 410.9669 357.83298 C 411.0109 357.82397 411.0569 357.81998 411.09988 357.80997 C 411.6359 357.68997 412.12488 357.49698 412.51587 357.23495 L 412.97086 357.91296 C 412.14886 358.46497 410.96585 358.76398 409.76987 358.76398 C 409.32486 358.76398 408.88287 358.70798 408.45187 358.623 L 408.25888 358.955 C 409.2299 360.038 409.82587 360.11398 410.8459 360.138 L 411.1539 360.145 L 411.2909 360.41998 C 411.3399 360.51797 411.5719 361.06097 411.3309 362.09 C 410.7609 364.514 410.37592 367.734 410.0849 372.48898 C 410.7079 373.598 411.3949 374.715 412.1279 375.82397 C 412.1539 375.58197 412.1609 375.46997 412.1359 375.33 C 411.9069 374.06998 411.9299 364.85797 412.24188 363.155 C 412.3429 362.602 412.35287 362.082 412.36188 361.623 C 412.3769 360.85397 412.39487 359.89697 413.28687 359.89697 C 414.87985 359.89697 417.68585 358.18698 418.02988 357.71198 L 418.21188 357.843 L 417.6349 356.856 L 417.4469 356.43298 L 417.3049 355.521 L 417.5649 354.521 L 417.702 353.497 Z M 407.131 348.753 L 407.04202 348.75198 C 406.57004 348.745 405.993 348.663 405.79404 348.456 C 405.71805 348.37698 405.70404 348.29498 405.70505 348.241 C 405.71005 347.836 406.50903 347.776 406.98404 347.776 L 407.06003 347.776 C 407.53503 347.785 408.11102 347.868 408.31003 348.075 C 408.38602 348.15402 408.40002 348.23602 408.39804 348.29 C 408.393 348.708 407.51 348.753 407.131 348.753 Z M 407.841 350.175 C 407.892 350.06 407.938 349.85098 407.986 349.62997 C 408.05798 349.29797 408.13998 348.92197 408.287 348.649 C 408.45798 348.32797 408.61298 347.711 408.64297 347.314 C 407.64398 346.703 406.46698 347.137 405.955 347.332 C 405.80798 347.388 405.719 347.421 405.641 347.432 L 405.599 347.129 L 405.549 346.827 C 405.58902 346.818 405.653 346.792 405.738 346.76 C 406.35202 346.52902 407.779 345.993 409.05402 346.845 L 409.08603 346.833 C 409.08902 346.842 409.09003 346.85602 409.09302 346.866 C 409.09503 346.867 409.09702 346.868 409.1 346.87 L 409.095 346.87698 C 409.241 347.37097 408.946 348.456 408.719 348.882 C 408.60498 349.094 408.531 349.435 408.466 349.736 C 408.41 349.99298 408.362 350.215 408.29 350.376 C 408.142 350.708 407.987 351.21402 407.995 351.454 C 407.996 351.506 407.998 351.57602 408.004 351.595 C 408.018 351.604 408.126 351.661 408.241 351.72202 L 408.35 351.781 C 408.63602 351.936 408.837 351.863 409.11502 351.762 C 409.187 351.736 409.25903 351.71 409.33102 351.688 C 409.74802 351.564 410.09903 351.45798 410.48303 351.56998 C 410.59103 351.602 410.74805 351.55997 410.86005 351.47397 C 410.92606 351.42297 410.96405 351.36398 410.96304 351.31497 C 410.95303 350.96396 410.84305 350.58896 410.71805 350.48096 C 410.51306 350.30496 410.05704 350.00797 410.05304 350.00494 L 410.32104 349.59494 C 410.34103 349.60794 410.80804 349.91193 411.03806 350.10995 C 411.41705 350.43896 411.45105 351.21497 411.45306 351.30194 C 411.45807 351.50995 411.35107 351.71393 411.16006 351.86194 C 410.92407 352.04593 410.60608 352.11493 410.34805 352.04092 C 410.10406 351.97092 409.82904 352.0519 409.51306 352.14493 C 409.40906 352.17593 409.34607 352.1989 409.28406 352.22192 C 409.10706 352.28592 408.90506 352.35992 408.67307 352.35992 C 408.50507 352.35992 408.32007 352.32092 408.11807 352.2119 L 408.0121 352.1549 C 407.6121 351.9419 407.5171 351.87592 407.50607 351.4679 C 407.491 351.072 407.719 350.449 407.841 350.175 Z M 410.132 355.804 C 409.31998 355.804 408.47098 355.645 408.335 355.619 L 408.452 355.017 C 408.965 355.117 410.427 355.322 411.01898 355.073 L 411.25598 355.637 C 410.959 355.762 410.55 355.804 410.132 355.804 Z M 411.053 354.507 C 410.89502 354.461 410.324 354.51898 409.88602 354.598 L 409.841 354.606 L 409.796 354.60098 C 409.65698 354.585 408.947 354.49698 408.64798 354.369 C 408.54898 354.343 408.13498 354.42798 407.787 354.554 L 407.57898 353.978 C 407.856 353.878 408.53497 353.658 408.887 353.806 C 409.043 353.873 409.512 353.95 409.823 353.988 C 410.11398 353.937 410.876 353.819 411.223 353.919 C 411.50598 354.0 411.98898 354.0 412.104 353.986 L 412.181 354.593 C 411.979 354.62 411.415 354.611 411.053 354.507 Z M 413.038 348.941 C 412.888 348.941 412.724 348.933 412.552 348.915 C 412.056 348.862 411.461 348.72302 411.276 348.49002 C 411.207 348.403 411.2 348.31903 411.207 348.264 C 411.231 348.012 411.546 347.887 412.171 347.887 C 412.32098 347.887 412.486 347.895 412.65698 347.913 C 412.985 347.948 414.047 348.098 414.003 348.559 C 413.972 348.818 413.656 348.941 413.038 348.941 Z M 414.161 347.68 C 412.78802 346.667 411.20602 347.3 411.19 347.306 L 410.957 346.74 C 411.035 346.70798 412.879 345.973 414.525 347.18698 L 414.161 347.68 Z M 409.315 391.487 C 409.711 389.407 409.75 382.526 409.75 382.45898 C 409.75 382.405 409.742 382.32498 409.723 382.20297 C 409.70398 382.08197 409.676 381.89398 409.65198 381.60196 C 410.39798 382.66495 411.19397 383.72195 412.04398 384.76096 L 412.03098 384.76196 C 412.04697 384.88696 412.05298 385.12097 412.06396 385.43896 C 412.12796 387.31696 412.27698 391.71698 414.24597 394.78195 C 414.26498 394.81195 414.29196 394.85596 414.31396 394.89194 C 412.19196 395.38193 410.43295 395.41193 408.05597 394.98993 C 408.696 393.463 409.176 392.214 409.315 391.487 Z M 409.32 334.898 C 409.32202 334.898 409.324 334.898 409.32602 334.898 L 409.32 334.935 L 409.32 334.898 Z M 402.925 404.632 C 402.388 407.538 402.164 413.206 402.38898 415.313 C 402.50598 416.427 402.36597 417.203 402.24597 417.62598 C 402.21396 417.48697 402.18298 417.35397 402.149 417.19498 C 402.02 416.59097 401.86 415.839 401.52197 414.89297 C 400.61496 412.352 400.54398 409.31598 400.481 406.63797 C 400.469 406.13898 400.45798 405.64996 400.44098 405.17297 C 400.33298 402.00897 399.13297 398.71097 398.667 398.06097 L 398.63498 397.99097 L 398.35898 396.87097 L 395.32898 397.817 L 395.154 397.955 C 395.839 395.37997 395.29898 392.54398 394.87198 390.97498 C 395.29797 390.82397 395.98297 390.53098 397.046 389.94897 C 397.19 389.86996 397.29898 389.74197 397.356 389.589 L 398.04498 387.716 L 398.111 387.719 L 398.13998 387.22598 C 398.185 386.52298 398.21 386.13498 398.02197 385.09598 C 397.82196 383.99997 397.40796 377.36996 397.40796 375.74698 C 397.40796 373.628 397.79697 365.08997 398.47696 363.766 C 398.69095 363.349 399.46097 362.888 400.50296 362.435 L 400.51495 362.477 L 400.53195 362.473 C 400.54697 362.518 400.57196 362.602 400.60794 362.723 C 401.70593 366.40198 404.08295 373.056 408.39795 379.744 C 408.35196 381.369 408.45996 382.08298 408.52194 382.45798 C 408.52194 383.48798 408.44595 389.485 408.10895 391.257 C 407.92096 392.24298 406.83194 394.754 405.77994 397.181 C 404.515 400.107 403.203 403.132 402.925 404.632 Z M 347.082 399.17 H 373.256 C 374.505 399.17 375.56 399.906 375.56 400.777 C 375.56 401.647 374.505 402.38202 373.256 402.38202 H 347.082 C 345.833 402.38202 344.778 401.64703 344.778 400.777 C 344.778 399.906 345.833 399.17 347.082 399.17 Z M 373.947 396.929 H 348.281 L 350.297 330.27798 C 353.755 330.705 357.276 331.03598 360.88 331.23297 L 361.81 331.23596 C 365.007 331.23596 368.414 331.12097 372.024 330.79297 L 373.947 396.929 Z M 373.859 457.356 V 410.189 H 346.403 L 346.40503 457.356 H 373.859 Z M 350.957 417.253 H 368.88 V 451.908 H 350.957 V 417.253 Z M 433.491 204.628 C 432.507 203.64401 432.2 202.694 432.57098 201.78201 C 432.93997 200.87001 433.98697 199.55301 435.70798 197.83101 L 436.01498 197.524 C 437.72598 195.815 439.06198 194.778 440.02298 194.413 C 440.99197 194.054 441.93698 194.33499 442.86298 195.25899 C 443.86298 196.26099 444.12497 197.26898 443.64197 198.27998 S 442.14798 200.56898 440.60498 202.11398 L 440.26498 202.45398 C 438.66498 204.05399 437.33698 205.01598 436.28098 205.34299 C 435.229 205.675 434.299 205.437 433.491 204.628 Z M 380.004 463.72 H 338.888 V 459.053 H 380.004 V 463.72 Z M 374.842 408.067 H 344.86002 C 343.385 408.067 342.14 407.25098 342.14 406.284 C 342.14 405.319 343.38602 404.503 344.86002 404.503 H 347.083 H 373.25702 H 374.84302 C 376.31802 404.503 377.56302 405.318 377.56302 406.284 C 377.562 407.251 376.317 408.067 374.842 408.067 Z M 394.432 328.847 C 390.617 344.10797 389.931 364.258 391.393 387.25598 H 391.456 L 391.44098 387.916 L 394.20197 387.96298 C 394.24396 388.11298 394.27197 388.3 394.22195 388.443 C 394.19995 388.507 394.15396 388.589 394.00195 388.65698 C 393.48395 388.886 393.09195 388.96 392.86996 388.98798 V 388.96698 H 389.56897 L 389.45697 388.982 C 389.37296 389.004 387.39197 389.55 387.29697 391.274 C 387.10397 394.78598 387.35095 396.96 388.08597 398.125 C 388.56396 399.187 389.25195 399.962 390.13297 400.437 C 389.88696 400.47 389.61197 400.49802 389.29596 400.526 C 386.99997 400.725 384.76596 397.873 384.23196 394.014 C 383.85196 391.269 383.98996 389.80402 384.70697 388.956 C 385.32996 388.221 386.49997 387.854 388.39096 387.8 L 388.36697 386.92798 C 388.35696 386.92798 388.34897 386.929 388.33997 386.929 C 387.935 382.399 384.742 342.917 394.432 328.847 Z M 389.829 398.771 L 389.838 398.763 L 389.746 398.669 C 388.434 397.09 388.333 394.288 388.441 392.426 C 388.57202 390.221 389.88202 390.179 392.01202 390.3 C 392.53403 390.32898 393.02502 390.33298 393.484 390.292 C 393.741 391.037 395.057 395.177 393.842 398.35 L 391.65802 399.795 C 390.883 399.652 390.287 399.283 389.829 398.771 Z M 429.247 407.257 C 427.55902 405.94897 425.574 405.49 423.199 405.871 C 423.174 405.849 423.15 405.824 423.124 405.803 L 423.955 399.148 L 424.491 396.77902 L 424.923 394.15002 L 425.03 390.50702 L 425.009 389.69302 L 425.02402 389.691 L 425.006 389.571 L 424.92 386.212 L 424.38303 381.39 L 422.88904 373.49902 L 421.80704 369.243 C 421.72302 368.915 421.39105 368.71802 421.06204 368.80002 C 420.73404 368.88303 420.53604 369.217 420.61905 369.545 L 421.69305 373.764 L 423.17206 381.571 L 423.69806 386.295 L 423.73206 387.64 C 419.32806 384.785 415.82007 381.07202 413.05206 377.169 C 413.07007 376.625 413.10605 376.273 413.13507 376.015 C 413.17108 375.69302 413.19708 375.46002 413.14008 375.151 C 412.93808 374.042 412.96307 364.887 413.2451 363.342 C 413.36108 362.707 413.3721 362.11902 413.38208 361.646 C 413.38608 361.402 413.39307 361.086 413.4221 360.918 C 415.1991 360.842 417.8461 359.318 418.6721 358.51498 C 419.6091 359.41098 422.0941 360.317 423.98907 361.007 C 424.83707 361.31598 425.56906 361.582 426.08408 361.813 C 429.28107 363.244 429.64008 368.62997 429.83307 371.524 C 429.88306 372.27 429.93005 372.974 430.01108 373.137 C 430.4311 373.97998 432.15408 385.397 432.15408 387.34198 C 432.15408 388.47998 431.4231 392.49698 430.77707 396.041 C 430.33008 398.499 429.90707 400.81998 429.81906 401.69098 C 429.73505 402.537 429.54907 404.32898 429.34207 406.32498 L 429.247 407.257 Z M 353.079 419.375 H 366.758 V 449.786 H 353.079 V 419.375 Z"/>
<path id="star" d="M 0.0 -1.0 L 0.2245 -0.309 L 0.9511 -0.309 L 0.3633 0.118 L 0.5878 0.809 L 0.0 0.382 L -0.5878 0.809 L -0.3633 0.118 L -0.9511 -0.309 L -0.2245 -0.309 Z"/>
</defs>
<g>
<g>
<rect x="0" y="0" width="600" height="120" class="red"/>
<rect x="0" y="120" width="600" height="120" class="white"/>
<rect x="0" y="240" width="600" height="120" class="red"/>
</g>
<rect x="0" y="0" width="240" height="240" class="blue"/>
<g>
<use xlink:href="#star" transform="translate(120 32) scale(15 15) rotate(0)" class="white"/>
<use xlink:href="#star" transform="translate(160.8956 42.0799) scale(15 15) rotate(27.6923)" class="white"/>
<use xlink:href="#star" transform="translate(192.4226 70.0103) scale(15 15) rotate(55.3846)" class="white"/>
<use xlink:href="#star" transform="translate(207.3584 109.3928) scale(15 15) rotate(83.0769)" class="white"/>
<use xlink:href="#star" transform="translate(202.2814 151.2052) scale(15 15) rotate(110.7692)" class="white"/>
<use xlink:href="#star" transform="translate(178.3548 185.8689) scale(15 15) rotate(138.4615)" class="white"/>
<use xlink:href="#star" transform="translate(141.0598 205.4429) scale(15 15) rotate(166.1538)" class="white"/>
<use xlink:href="#star" transform="translate(98.9402 205.4429) scale(15 15) rotate(193.8462)" class="white"/>
<use xlink:href="#star" transform="translate(61.6452 185.8689) scale(15 15) rotate(221.5385)" class="white"/>
<use xlink:href="#star" transform="translate(37.7186 151.2052) scale(15 15) rotate(249.2308)" class="white"/>
<use xlink:href="#star" transform="translate(32.6416 109.3928) scale(15 15) rotate(276.9231)" class="white"/>
<use xlink:href="#star" transform="translate(47.5774 70.0103) scale(15 15) rotate(304.6154)" class="white"/>
<use xlink:href="#star" transform="translate(79.1044 42.0799) scale(15 15) rotate(332.3077)" class="white"/>
</g>
<use xlink:href="#seal" transform="translate(0 0) scale(0.3333 0.3333) rotate(0)" class="yellow"/>
</g>
</svg>
