<?xml version="1.0"?>
<svg xmlns="http://www.w3.org/2000/svg" xmlns:xlink="http://www.w3.org/1999/xlink" version="1.1" width="600" height="360" viewBox="0 0 600 360">
<!-- Generated by Kreative Vexillo v1.0 -->
<style>
.blue{fill:rgb(0,36,125);}
.red{fill:rgb(207,20,43);}
.white{fill:rgb(255,255,255);}
</style>
<defs>
<clipPath id="clip0">
<path d="M 0 0 L 0 13.6408 L 0 13.6408 L 111.3571 90 L 111.3571 90 L 0 166.3592 L 0 166.3592 L 0 180 L 19.8929 180 L 131.25 103.6408 L 242.6071 180 L 262.5 180 L 262.5 166.3592 L 151.1429 90 L 151.1429 90 L 262.5 13.6408 L 262.5 0 L 242.6071 0 L 131.25 76.3592 L 19.8929 0 Z"/>
</clipPath>
</defs>
<g>
<g>
<rect x="0" y="0" width="600" height="45" class="white"/>
<rect x="0" y="45" width="600" height="45" class="red"/>
<rect x="0" y="90" width="600" height="45" class="blue"/>
<rect x="0" y="135" width="600" height="45" class="white"/>
<rect x="0" y="180" width="600" height="45" class="red"/>
<rect x="0" y="225" width="600" height="45" class="blue"/>
<rect x="0" y="270" width="600" height="45" class="white"/>
<rect x="0" y="315" width="600" height="45" class="red"/>
</g>
<g>
<rect x="0" y="0" width="262.5" height="180" class="blue"/>
<path d="M 0 0 L 0 20.4613 L 0 20.4613 L 101.4106 90 L 101.4106 90 L 0 159.5387 L 0 159.5387 L 0 180 L 29.8394 180 L 131.25 110.4613 L 131.25 110.4613 L 232.6606 180 L 262.5 180 L 262.5 159.5387 L 161.0894 90 L 161.0894 90 L 262.5 20.4613 L 262.5 0 L 232.6606 0 L 131.25 69.5387 L 131.25 69.5387 L 29.8394 0 Z" class="white"/>
<g clip-path="url(#clip0)">
<path d="M 0 0 L 131.25 90 L 0 90 Z" class="red"/>
<path d="M 262.5 0 L 131.25 90 L 131.25 0 Z" class="red"/>
<path d="M 0 180 L 131.25 90 L 131.25 180 Z" class="red"/>
<path d="M 262.5 180 L 131.25 90 L 262.5 90 Z" class="red"/>
</g>
<g>
<rect x="0" y="67.5" width="262.5" height="45" class="white"/>
<rect x="108.75" y="0" width="45" height="180" class="white"/>
</g>
<g>
<rect x="0" y="73.125" width="262.5" height="33.75" class="red"/>
<rect x="114.375" y="0" width="33.75" height="180" class="red"/>
</g>
</g>
</g>
</svg>
