<?xml version="1.0"?>
<svg xmlns="http://www.w3.org/2000/svg" xmlns:xlink="http://www.w3.org/1999/xlink" version="1.1" width="600" height="360" viewBox="0 0 600 360">
<!-- Generated by Kreative Vexillo v1.0 -->
<style>
.blue{fill:rgb(0,28,90);}
.red{fill:rgb(193,19,61);}
.white{fill:rgb(255,255,255);}
</style>
<defs>
<path id="-glazearea" d="M 0.0 0.0 L 1.0 0.1875 L 0.7692308 0.5 L 1.0 0.8125 L 0.0 1.0 Z"/>
<path id="star" d="M 0.0 -1.0 L 0.2245 -0.309 L 0.9511 -0.309 L 0.3633 0.118 L 0.5878 0.809 L 0.0 0.382 L -0.5878 0.809 L -0.3633 0.118 L -0.9511 -0.309 L -0.2245 -0.309 Z"/>
<clipPath id="clip0">
<use xlink:href="#-glazearea" transform="translate(0 0) scale(600 360) rotate(0)"/>
</clipPath>
</defs>
<g>
<g clip-path="url(#clip0)">
<rect x="0" y="0" width="600" height="360" class="white"/>
<path d="M 5.0308 -44.7179 L 5.0308 -44.7179 L 1205.0308 90.2821 L 1194.9692 179.7179 L -5.0308 44.7179 Z" class="red"/>
<path d="M 0 157.5 L 0 157.5 L 600 157.5 L 600 202.5 L 0 202.5 Z" class="red"/>
<path d="M -5.0308 315.2821 L -5.0308 315.2821 L 1194.9692 180.2821 L 1205.0308 269.7179 L 5.0308 404.7179 Z" class="red"/>
</g>
<path d="M 0 0 L 369.2308 180 L 0 360 Z" class="blue"/>
<ellipse cx="114.0986" cy="180" rx="66.7477" ry="66.7477" class="white"/>
<ellipse cx="114.0986" cy="180" rx="44.4984" ry="44.4984" class="red"/>
<g>
<use xlink:href="#star" transform="translate(152.0764 260.4869) scale(14.8328 14.8328) rotate(-205.2603)" class="white"/>
<use xlink:href="#star" transform="translate(108.5806 268.8257) scale(14.8328 14.8328) rotate(-176.4452)" class="white"/>
<use xlink:href="#star" transform="translate(66.4512 255.1677) scale(14.8328 14.8328) rotate(-147.6302)" class="white"/>
<use xlink:href="#star" transform="translate(36.1213 222.8951) scale(14.8328 14.8328) rotate(-118.8151)" class="white"/>
<use xlink:href="#star" transform="translate(25.1017 180) scale(14.8328 14.8328) rotate(-90)" class="white"/>
<use xlink:href="#star" transform="translate(36.1213 137.1049) scale(14.8328 14.8328) rotate(-61.1849)" class="white"/>
<use xlink:href="#star" transform="translate(66.4512 104.8323) scale(14.8328 14.8328) rotate(-32.3698)" class="white"/>
<use xlink:href="#star" transform="translate(108.5806 91.1743) scale(14.8328 14.8328) rotate(-3.5548)" class="white"/>
<use xlink:href="#star" transform="translate(152.0764 99.5131) scale(14.8328 14.8328) rotate(25.2603)" class="white"/>
</g>
<g>
<g>
<use xlink:href="#star" transform="translate(24.8163 279.2456) scale(14.8328 14.8328) rotate(-138.0251)" class="white"/>
<use xlink:href="#star" transform="translate(62.4427 303.0962) scale(14.8328 14.8328) rotate(-157.2352)" class="white"/>
</g>
<g>
<use xlink:href="#star" transform="translate(24.8163 80.7544) scale(14.8328 14.8328) rotate(-41.9749)" class="white"/>
<use xlink:href="#star" transform="translate(62.4427 56.9038) scale(14.8328 14.8328) rotate(-22.7648)" class="white"/>
</g>
</g>
<use xlink:href="#star" transform="translate(203.0955 180) scale(14.8328 14.8328) rotate(90)" class="white"/>
<use xlink:href="#star" transform="translate(292.0924 180) scale(14.8328 14.8328) rotate(90)" class="white"/>
<g>
<use xlink:href="#star" transform="translate(245.7225 157.7256) scale(14.8328 14.8328) rotate(80.395)" class="white"/>
<use xlink:href="#star" transform="translate(245.7225 202.2744) scale(14.8328 14.8328) rotate(99.605)" class="white"/>
</g>
</g>
</svg>
