<?xml version="1.0"?>
<svg xmlns="http://www.w3.org/2000/svg" xmlns:xlink="http://www.w3.org/1999/xlink" version="1.1" width="600" height="360" viewBox="0 0 600 360">
<!-- Generated by Kreative Vexillo v1.0 -->
<style>
.black{fill:rgb(0,0,0);}
.gray{fill:rgb(68,68,68);}
.white{fill:rgb(255,255,255);}
</style>
<defs>
<path id="votgil" d="M 0.7778 -0.25 V -0.3056 H 0.3056 V -0.7778 H 0.24999999 V -0.30560002 H -0.25 V -0.7778 H -0.3056 V -0.30560002 H -0.7778 V -0.25000003 H -0.30560002 V 0.24999997 H -0.7778 V 0.30559996 H -0.30560002 V 0.77779996 H -0.25000003 V 0.3056 H 0.24999997 V 0.77779996 H 0.30559996 V 0.3056 H 0.77779996 V 0.24999999 H 0.3056 V -0.25 H 0.7778 Z M 0.25 0.25 H -0.25 V -0.25 H 0.25 V 0.25 Z M -0.151 0.0375 L -0.125 0.0278 L -0.0991 0.0179 C -0.098 0.0205 -0.0726 0.0833 0.0 0.0833 S 0.098 0.020500004 0.0991 0.017800003 L 0.15110001 0.0375 C 0.1495 0.0417 0.1117 0.1389 0.0 0.1389 S -0.1495 0.0417 -0.151 0.0375 Z M -0.1111 -0.0833 C -0.1111 -0.0986 -0.0987 -0.1111 -0.0833 -0.1111 S -0.0555 -0.0987 -0.0555 -0.0833 S -0.0679 -0.0555 -0.0833 -0.0555 S -0.1111 -0.068 -0.1111 -0.0833 Z M 0.0556 -0.0833 C 0.0556 -0.0986 0.067999996 -0.1111 0.083399996 -0.1111 S 0.1112 -0.0987 0.1112 -0.0833 S 0.098799996 -0.0555 0.083399996 -0.0555 S 0.0556 -0.068 0.0556 -0.0833 Z"/>
</defs>
<g>
<g>
<rect x="0" y="0" width="90" height="360" class="gray"/>
<rect x="90" y="0" width="420" height="360" class="white"/>
<rect x="510" y="0" width="90" height="360" class="gray"/>
</g>
<use xlink:href="#votgil" transform="translate(300 180) scale(180 180) rotate(0)" class="black"/>
</g>
</svg>
