<?xml version="1.0"?>
<svg xmlns="http://www.w3.org/2000/svg" xmlns:xlink="http://www.w3.org/1999/xlink" version="1.1" width="600" height="360" viewBox="0 0 600 360">
<!-- Generated by Kreative Vexillo v1.0 -->
<style>
.black{fill:rgb(0,0,0);}
.blue{fill:rgb(0,0,255);}
.green{fill:rgb(0,204,0);}
.red{fill:rgb(255,0,0);}
.white{fill:rgb(255,255,255);}
.yellow{fill:rgb(255,255,0);}
</style>
<defs>
<path id="star" d="M 0.0 -1.0 L 0.2245 -0.309 L 0.9511 -0.309 L 0.3633 0.118 L 0.5878 0.809 L 0.0 0.382 L -0.5878 0.809 L -0.3633 0.118 L -0.9511 -0.309 L -0.2245 -0.309 Z"/>
</defs>
<g>
<rect x="0" y="0" width="600" height="360" class="blue"/>
<g>
<rect x="0" y="0" width="144" height="360" class="white"/>
</g>
<use xlink:href="#star" transform="translate(144 144) scale(38.0068 38.0068) rotate(180)" class="black"/>
<use xlink:href="#star" transform="translate(144 82.5051) scale(38.0068 38.0068) rotate(0)" class="green"/>
<use xlink:href="#star" transform="translate(202.4886 124.9966) scale(38.0068 38.0068) rotate(0)" class="white"/>
<use xlink:href="#star" transform="translate(180.1482 193.7508) scale(38.0068 38.0068) rotate(0)" class="yellow"/>
<use xlink:href="#star" transform="translate(107.8518 193.7508) scale(38.0068 38.0068) rotate(0)" class="red"/>
<use xlink:href="#star" transform="translate(85.5114 124.9966) scale(38.0068 38.0068) rotate(0)" class="blue"/>
</g>
</svg>
