<?xml version="1.0"?>
<svg xmlns="http://www.w3.org/2000/svg" xmlns:xlink="http://www.w3.org/1999/xlink" version="1.1" width="600" height="360" viewBox="0 0 600 360">
<!-- Generated by Kreative Vexillo v1.0 -->
<style>
.black{fill:rgb(0,0,0);}
.blue{fill:rgb(0,0,255);}
.green{fill:rgb(0,153,0);}
.orange{fill:rgb(255,153,0);}
.purple{fill:rgb(153,0,153);}
.red{fill:rgb(255,0,0);}
.white{fill:rgb(255,255,255);}
.yellow{fill:rgb(255,255,0);}
</style>
<defs>
<clipPath id="clip0">
<path d="M 0 0 L 300 180 L 0 360 Z"/>
</clipPath>
<clipPath id="clip1">
<path d="M 0 0 L 600 0 L 600 360 L 0 360 L 300 180 Z"/>
</clipPath>
<clipPath id="clip2">
<rect x="0" y="0" width="600" height="360"/>
</clipPath>
<clipPath id="clip3">
<path d="M -18.5077 30.8782 L 281.4923 210.8782 L 318.5077 149.1218 L 18.5077 -30.8782 L -18.5077 30.8782 Z"/>
<path d="M 281.4923 149.1218 L -18.5077 329.1218 L 18.5077 390.8782 L 318.5077 210.8782 L 281.4923 149.1218 Z"/>
<path d="M 300 216 L 600 216 L 600 144 L 300 144 L 300 216 Z"/>
</clipPath>
</defs>
<g>
<g>
<rect x="0" y="0" width="600" height="60" class="red"/>
<rect x="0" y="60" width="600" height="60" class="orange"/>
<rect x="0" y="120" width="600" height="60" class="yellow"/>
<rect x="0" y="180" width="600" height="60" class="green"/>
<rect x="0" y="240" width="600" height="60" class="blue"/>
<rect x="0" y="300" width="600" height="60" class="purple"/>
</g>
<g clip-path="url(#clip0)">
<path d="M -30.8462 51.4637 L 269.1538 231.4637 L 330.8462 128.5363 L 30.8462 -51.4637 L -30.8462 51.4637 Z" class="black"/>
<path d="M 269.1538 128.5363 L -30.8462 308.5363 L 30.8462 411.4637 L 330.8462 231.4637 L 269.1538 128.5363 Z" class="black"/>
</g>
<g clip-path="url(#clip1)">
<path d="M -30.8462 51.4637 L 269.1538 231.4637 L 330.8462 128.5363 L 30.8462 -51.4637 L -30.8462 51.4637 Z" class="white"/>
<path d="M 269.1538 128.5363 L -30.8462 308.5363 L 30.8462 411.4637 L 330.8462 231.4637 L 269.1538 128.5363 Z" class="white"/>
<path d="M 300 240 L 600 240 L 600 120 L 300 120 L 300 240 Z" class="white"/>
</g>
<g clip-path="url(#clip2)">
<g clip-path="url(#clip3)">
<g>
<rect x="0" y="0" width="600" height="60" class="red"/>
<rect x="0" y="60" width="600" height="60" class="orange"/>
<rect x="0" y="120" width="600" height="60" class="yellow"/>
<rect x="0" y="180" width="600" height="60" class="green"/>
<rect x="0" y="240" width="600" height="60" class="blue"/>
<rect x="0" y="300" width="600" height="60" class="purple"/>
</g>
</g>
</g>
</g>
</svg>
