<?xml version="1.0"?>
<svg xmlns="http://www.w3.org/2000/svg" xmlns:xlink="http://www.w3.org/1999/xlink" version="1.1" width="600" height="360" viewBox="0 0 600 360">
<!-- Generated by Kreative Vexillo v1.0 -->
<style>
.blue{fill:rgb(0,101,189);}
.green{fill:rgb(0,154,73);}
.orange{fill:rgb(255,121,0);}
.white{fill:rgb(255,255,255);}
</style>
<defs>
<clipPath id="clip0">
<path d="M 0 360 L 600 0 L 600 360 Z"/>
</clipPath>
</defs>
<g>
<rect x="0" y="0" width="600" height="360" class="white"/>
<g>
<path d="M 0 0 L 600 0 L 0 360 Z" class="blue"/>
<path d="M 0 0 L 0 41.9829 L 230.0286 180 L 0 318.0171 L 0 318.0171 L 0 360 L 69.9714 360 L 300 221.9829 L 300 221.9829 L 530.0286 360 L 600 360 L 600 318.0171 L 369.9714 180 L 369.9714 180 L 600 41.9829 L 600 0 L 530.0286 0 L 300 138.0171 L 300 138.0171 L 300 138.0171 L 300 138.0171 L 300 138.0171 L 300 138.0171 L 69.9714 0 Z" class="white"/>
</g>
<g clip-path="url(#clip0)">
<g>
<rect x="0" y="0" width="200" height="360" class="green"/>
<rect x="200" y="0" width="200" height="360" class="white"/>
<rect x="400" y="0" width="200" height="360" class="orange"/>
</g>
</g>
</g>
</svg>
