<?xml version="1.0"?>
<svg xmlns="http://www.w3.org/2000/svg" xmlns:xlink="http://www.w3.org/1999/xlink" version="1.1" width="600" height="360" viewBox="0 0 600 360">
<!-- Generated by Kreative Vexillo v1.0 -->
<style>
.green{fill:rgb(0,178,89);}
.red{fill:rgb(227,61,58);}
.white{fill:rgb(255,255,255);}
</style>
<defs>
<path id="star6" d="M 0.0 -1.0 L 0.288675 -0.5 L 0.866025 -0.5 L 0.57735 -0.0 L 0.866025 0.5 L 0.288675 0.5 L 0.0 1.0 L -0.288675 0.5 L -0.866025 0.5 L -0.57735 0.0 L -0.866025 -0.5 L -0.288675 -0.5 Z"/>
<linearGradient id="glaze" x1="0%" y1="0%" x2="100%" y2="100%">
<stop offset="0%" stop-color="rgb(255,255,255)" stop-opacity="0.2"/>
<stop offset="49.999%" stop-color="rgb(255,255,255)" stop-opacity="0.0"/>
<stop offset="50.001%" stop-color="rgb(0,0,0)" stop-opacity="0.0"/>
<stop offset="100%" stop-color="rgb(0,0,0)" stop-opacity="0.2"/>
</linearGradient>
</defs>
<g>
<rect x="0" y="0" width="600" height="360" class="red"/>
<path d="M 0 0 L 300 180 L 0 360 Z" class="green"/>
<path d="M 600 360 L 300 180 L 600 0 Z" class="green"/>
<path d="M 0 0 L 0 26.2393 L 0 26.2393 L 256.2679 180 L 256.2679 180 L 0 333.7607 L 0 333.7607 L 0 360 L 43.7321 360 L 300 206.2393 L 300 206.2393 L 300 206.2393 L 300 206.2393 L 300 206.2393 L 300 206.2393 L 556.2679 360 L 600 360 L 600 333.7607 L 600 333.7607 L 343.7321 180 L 343.7321 180 L 600 26.2393 L 600 0 L 556.2679 0 L 300 153.7607 L 43.7321 0 Z" class="white"/>
<ellipse cx="300" cy="180" rx="108" ry="108" class="white"/>
<use xlink:href="#star6" transform="translate(300 128.0385) scale(24.75 24.75) rotate(0)" class="green"/>
<use xlink:href="#star6" transform="translate(255 205.9808) scale(24.75 24.75) rotate(0)" class="green"/>
<use xlink:href="#star6" transform="translate(345 205.9808) scale(24.75 24.75) rotate(0)" class="green"/>
<use xlink:href="#star6" transform="translate(300 128.0385) scale(20.25 20.25) rotate(0)" class="red"/>
<use xlink:href="#star6" transform="translate(255 205.9808) scale(20.25 20.25) rotate(0)" class="red"/>
<use xlink:href="#star6" transform="translate(345 205.9808) scale(20.25 20.25) rotate(0)" class="red"/>
</g>
<g>
<rect x="0" y="0" width="600" height="360" fill="url(#glaze)"/>
<path d="M 30 30 L 570 30 L 570 330 L 30 330 Z M 60 60 L 60 300 L 540 300 L 540 60 Z" fill="rgb(255,255,255)" opacity="0.4"/>
<path d="M 0 0 L 600 0 L 600 360 L 0 360 Z M 30 30 L 30 330 L 570 330 L 570 30 Z" fill="rgb(0,0,0)" opacity="0.4"/>
</g>
</svg>
