<?xml version="1.0"?>
<svg xmlns="http://www.w3.org/2000/svg" xmlns:xlink="http://www.w3.org/1999/xlink" version="1.1" width="600" height="360" viewBox="0 0 600 360">
<!-- Generated by Kreative Vexillo v1.0 -->
<style>
.blue{fill:rgb(0,56,101);}
.red{fill:rgb(186,12,47);}
.white{fill:rgb(255,255,255);}
.yellow{fill:rgb(255,164,0);}
</style>
<defs>
<clipPath id="clip0">
<path d="M 259.8076 15 L 580.5556 15 L 259.8076 145.359 Z"/>
</clipPath>
<clipPath id="clip1">
<path d="M 259.8076 345 L 580.5556 345 L 259.8076 214.641 Z"/>
</clipPath>
<clipPath id="clip2">
<path d="M 259.8076 164.604 L 494.4444 164.604 L 550 180 L 494.4444 195.396 L 259.8076 195.396 L 282.0298 180 Z"/>
</clipPath>
<linearGradient id="glaze" x1="0%" y1="0%" x2="100%" y2="100%">
<stop offset="0%" stop-color="rgb(255,255,255)" stop-opacity="0.2"/>
<stop offset="49.999%" stop-color="rgb(255,255,255)" stop-opacity="0.0"/>
<stop offset="50.001%" stop-color="rgb(0,0,0)" stop-opacity="0.0"/>
<stop offset="100%" stop-color="rgb(0,0,0)" stop-opacity="0.2"/>
</linearGradient>
</defs>
<g>
<rect x="0" y="0" width="600" height="360" class="white"/>
<rect x="22.2222" y="15" width="209.8076" height="330" class="blue"/>
<path d="M 7.5933 -10.9599 L 7.5933 -10.9599 L 267.4009 169.0401 L 252.2144 190.9599 L -7.5933 10.9599 Z" class="white"/>
<path d="M -7.5933 349.0401 L -7.5933 349.0401 L 252.2144 169.0401 L 267.4009 190.9599 L 7.5933 370.9599 Z" class="white"/>
<path d="M 0 166.6667 L 0 166.6667 L 259.8076 166.6667 L 259.8076 193.3333 L 0 193.3333 Z" class="white"/>
<g clip-path="url(#clip0)">
<path d="M 259.8076 0 L 259.8076 0 L 580.5555 0 L 580.5555 30 L 259.8076 30 Z" class="red"/>
<path d="M 586.2032 28.8962 L 586.2032 28.8962 L 265.4553 159.2551 L 254.1599 131.4628 L 574.9078 1.1038 Z" class="red"/>
<path d="M 244.8076 145.359 L 244.8076 145.359 L 244.8076 15 L 274.8076 15 L 274.8076 145.359 Z" class="red"/>
</g>
<g clip-path="url(#clip1)">
<path d="M 259.8076 330 L 259.8076 330 L 580.5555 330 L 580.5555 360 L 259.8076 360 Z" class="red"/>
<path d="M 574.9078 358.8962 L 574.9078 358.8962 L 254.1599 228.5372 L 265.4553 200.7449 L 586.2032 331.1038 Z" class="red"/>
<path d="M 274.8076 214.641 L 274.8076 214.641 L 274.8076 345 L 244.8076 345 L 244.8076 214.641 Z" class="red"/>
</g>
<path d="M 259.8076 164.604 L 494.4444 164.604 L 550 180 L 494.4444 195.396 L 259.8076 195.396 L 282.0298 180 Z" class="yellow"/>
<g clip-path="url(#clip2)">
<path d="M 259.8076 157.9373 L 259.8076 157.9373 L 494.4445 157.9373 L 494.4445 171.2707 L 259.8076 171.2707 Z" class="red"/>
<path d="M 496.2249 158.1795 L 496.2249 158.1795 L 551.7804 173.5755 L 548.2196 186.4245 L 492.664 171.0285 Z" class="red"/>
<path d="M 551.7804 186.4245 L 551.7804 186.4245 L 496.2249 201.8205 L 492.664 188.9715 L 548.2196 173.5755 Z" class="red"/>
<path d="M 494.4445 202.0627 L 494.4445 202.0627 L 259.8076 202.0627 L 259.8076 188.7293 L 494.4445 188.7293 Z" class="red"/>
<path d="M 259.8076 164.604 L 271.5139 164.604 L 293.7361 180 L 271.5139 195.396 L 259.8076 195.396 Z" class="red"/>
</g>
</g>
<g>
<rect x="0" y="0" width="600" height="360" fill="url(#glaze)"/>
<path d="M 30 30 L 570 30 L 570 330 L 30 330 Z M 60 60 L 60 300 L 540 300 L 540 60 Z" fill="rgb(255,255,255)" opacity="0.4"/>
<path d="M 0 0 L 600 0 L 600 360 L 0 360 Z M 30 30 L 30 330 L 570 330 L 570 30 Z" fill="rgb(0,0,0)" opacity="0.4"/>
</g>
</svg>
