<?xml version="1.0"?>
<svg xmlns="http://www.w3.org/2000/svg" xmlns:xlink="http://www.w3.org/1999/xlink" version="1.1" width="600" height="360" viewBox="0 0 600 360">
<!-- Generated by Kreative Vexillo v1.0 -->
<style>
.black{fill:rgb(0,0,0);}
.blue{fill:rgb(0,131,194);}
.red{fill:rgb(232,66,63);}
.white{fill:rgb(255,255,255);}
.yellow{fill:rgb(255,211,3);}
</style>
<defs>
<path id="e1" d="M 0.6008 -0.1793 C 0.603 -0.1866 0.6023 -0.195 0.5987 -0.20279999 C 0.5947 -0.211 0.5881 -0.21689999 0.5803 -0.2197 C 0.58339995 -0.2276 0.58339995 -0.2364 0.57949996 -0.2443 C 0.5753 -0.2532 0.56719995 -0.2591 0.5581 -0.26119998 C 0.5604 -0.2686 0.5602 -0.27639997 0.557 -0.28329998 C 0.5517 -0.29439998 0.53959996 -0.3006 0.5262 -0.3008 C 0.5282 -0.3081 0.5278 -0.3157 0.52459997 -0.3227 C 0.5178 -0.33679998 0.5006 -0.3435 0.48339996 -0.34 C 0.48339996 -0.3445 0.48259994 -0.349 0.48039997 -0.35300002 C 0.47279996 -0.36870003 0.45259997 -0.37510002 0.43329996 -0.3688 C 0.43439996 -0.3745 0.43389997 -0.38020003 0.43139997 -0.38540003 C 0.42369998 -0.40140003 0.40059996 -0.40630004 0.37949997 -0.39640003 C 0.37489998 -0.39410004 0.37069997 -0.39120004 0.36719996 -0.38810003 C 0.36769995 -0.39280003 0.36689997 -0.39770004 0.36489996 -0.40200004 C 0.35719997 -0.41800004 0.33409995 -0.42290005 0.31319997 -0.41290003 C 0.30959997 -0.41120002 0.30609998 -0.40910003 0.30299997 -0.40670004 V -0.40700004 C 0.29529998 -0.42310002 0.2722 -0.42790005 0.25119996 -0.41790003 C 0.24439996 -0.41470003 0.23859996 -0.41020003 0.23419996 -0.40530002 C 0.22649996 -0.4185 0.20549996 -0.42470002 0.18359995 -0.41910002 C 0.17069995 -0.4158 0.15999995 -0.40910003 0.15339994 -0.40100002 C 0.15319994 -0.40100002 0.15299994 -0.40100002 0.15299994 -0.40090004 C 0.11429994 -0.44190004 0.06469994 -0.43730003 0.050799936 -0.43540004 C -0.0184 -0.4252 -0.0527 -0.3812 -0.0963 -0.3777 C -0.1161 -0.376 -0.136 -0.3827 -0.146 -0.3883 C -0.1557 -0.37060001 -0.1379 -0.3766 -0.1394 -0.3646 C -0.14 -0.3605 -0.15920001 -0.3387 -0.13180001 -0.3373 C -0.11850001 -0.3365 -0.09530001 -0.3398 -0.087100014 -0.3292 C -0.21550001 -0.3074 -0.18050002 -0.3692 -0.20230001 -0.3692 C -0.23380001 -0.3692 -0.22870001 -0.2785 -0.14050001 -0.29569998 C -0.13740002 -0.28869998 -0.13090001 -0.2841 -0.1262 -0.2812 C -0.09680001 -0.30089998 -0.031200007 -0.2902 -0.093100004 -0.24569999 C -0.043900006 -0.23969999 -0.036800005 -0.274 -0.036200006 -0.2765 C -0.018500006 -0.28509998 0.021699995 -0.2685 0.043999996 -0.271 C 0.066199996 -0.2735 0.09719999 -0.3049 0.1059 -0.3069 C 0.13679999 -0.271 0.1586 -0.2729 0.2186 -0.2866 C 0.19780001 -0.33879998 0.13890001 -0.3211 0.13530001 -0.3347 C 0.15810001 -0.34939998 0.20310001 -0.357 0.2544 -0.355 C 0.2549 -0.3549 0.25550002 -0.3549 0.256 -0.3549 C 0.3034 -0.3527 0.35610002 -0.3424 0.40150002 -0.3215 C 0.49760002 -0.2773 0.57930005 -0.1927 0.5826 -0.09290001 C 0.6084 -0.1227 0.6122 -0.1518 0.6008 -0.1793 M 0.0033 -0.3729 C 0.0033 -0.3766 0.0069 -0.3797 0.0122 -0.3817 C 0.0131 -0.37460002 0.0192 -0.3691 0.0268 -0.3691 C 0.0348 -0.3691 0.0415 -0.3757 0.0415 -0.38390002 C 0.0415 -0.3842 0.0415 -0.38450003 0.0413 -0.38470003 C 0.0502 -0.38330004 0.0574 -0.37960002 0.0574 -0.37300003 C 0.0576 -0.3545 0.0033 -0.3584 0.0033 -0.3729 M -0.2491 -0.1819 L -0.2308 -0.16659999 C -0.2308 -0.16659999 -0.2532 -0.13939999 -0.2715 -0.06479999 C -0.29029998 -0.06699999 -0.3065 -0.069499984 -0.3065 -0.069499984 S -0.3299 -0.06889998 -0.336 -0.10229999 C -0.3515 -0.18719998 -0.35979998 -0.20299998 -0.3786 -0.2339 C -0.3879 -0.2491 -0.4136 -0.2601 -0.43760002 -0.26999998 C -0.4625 -0.2805 -0.4853 -0.28949997 -0.4853 -0.28949997 S -0.5164 -0.30539995 -0.5427 -0.28349996 C -0.5457 -0.28099996 -0.55189997 -0.28139997 -0.55189997 -0.29759997 C -0.55189997 -0.31379998 -0.5681 -0.30719998 -0.5681 -0.30719998 S -0.5922 -0.2992 -0.6163 -0.29349998 C -0.6468 -0.28649998 -0.69089997 -0.34829998 -0.70669997 -0.34829998 C -0.68329996 -0.34829998 -0.61529994 -0.34469998 -0.61529994 -0.34469998 S -0.60519993 -0.35269997 -0.61179996 -0.35989997 C -0.6184 -0.36709997 -0.6712 -0.35339996 -0.6762999 -0.36249998 C -0.6812999 -0.3715 -0.6904999 -0.38919997 -0.6904999 -0.38919997 S -0.6619999 -0.37719998 -0.6187999 -0.38109997 C -0.58589995 -0.38419998 -0.56679994 -0.37699997 -0.5634999 -0.37459996 C -0.49899992 -0.32599998 -0.38219994 -0.31409997 -0.36349994 -0.31589997 C -0.33709994 -0.31849998 -0.32419994 -0.29179996 -0.31929994 -0.28249997 C -0.31269994 -0.26989996 -0.30869994 -0.26119998 -0.30869994 -0.26119998 M 0.6707 -0.2764 C 0.66940004 -0.281 0.6675 -0.2852 0.6649 -0.2889 C 0.6663 -0.2945 0.6661 -0.3003 0.6642 -0.30589998 C 0.6606 -0.31629997 0.6516 -0.32349998 0.6406 -0.32639998 C 0.64110005 -0.3308 0.64070004 -0.33519998 0.63920003 -0.33929998 C 0.6348 -0.35169998 0.6229 -0.35969996 0.60870004 -0.3611 C 0.60870004 -0.3642 0.6082 -0.3672 0.6071 -0.37019998 C 0.6013 -0.38759997 0.5802 -0.39619997 0.5594 -0.39029998 C 0.55910003 -0.39219996 0.5587 -0.39409998 0.55810004 -0.39609998 C 0.5519 -0.4141 0.52930003 -0.42279997 0.50740004 -0.4154 C 0.50680006 -0.4152 0.50630003 -0.4149 0.50570005 -0.4147 C 0.50570005 -0.41730002 0.50530005 -0.42 0.50430006 -0.4225 C 0.49860007 -0.4392 0.47650006 -0.4467 0.45470005 -0.4393 C 0.45110005 -0.438 0.44780004 -0.4365 0.44480005 -0.4346 C 0.44450006 -0.4367 0.44410005 -0.4387 0.44350004 -0.44079998 C 0.43780005 -0.45749998 0.41550004 -0.46479997 0.39380005 -0.45749998 C 0.38570005 -0.4547 0.37870005 -0.4502 0.37350005 -0.4448 C 0.36930004 -0.46109998 0.34890005 -0.4709 0.32710004 -0.46679997 C 0.31540003 -0.46449998 0.30550003 -0.45859998 0.29920003 -0.45109996 C 0.29190004 -0.46349996 0.27410004 -0.47019997 0.25540003 -0.46679997 C 0.23860003 -0.46359998 0.22560003 -0.45309997 0.22140002 -0.44079998 C 0.21420002 -0.4525 0.19790003 -0.45889997 0.18090002 -0.45569998 C 0.15990002 -0.45169997 0.14550002 -0.4344 0.14870003 -0.41709998 C 0.14910004 -0.41539997 0.14960003 -0.41369998 0.15030003 -0.41199997 C 0.15790002 -0.41859996 0.17020002 -0.42569998 0.18100002 -0.42839998 C 0.20200002 -0.43379998 0.22250003 -0.4299 0.23480003 -0.41899997 C 0.23850003 -0.42189997 0.24250002 -0.42459998 0.24680002 -0.42669997 C 0.26860002 -0.43699998 0.29260004 -0.43349996 0.3054 -0.41949996 C 0.30650002 -0.42019996 0.30760002 -0.42109996 0.3088 -0.42159995 C 0.3343 -0.43379995 0.3634 -0.42689994 0.37330002 -0.40609995 C 0.3736 -0.40539995 0.37370002 -0.40469995 0.37390003 -0.40399995 C 0.37440002 -0.40419996 0.37480003 -0.40449995 0.37520003 -0.40489995 C 0.40080002 -0.41689995 0.42980003 -0.41009995 0.43960005 -0.38939995 C 0.44040006 -0.38779995 0.44090006 -0.38619995 0.44140005 -0.38439995 C 0.49150005 -0.39819995 0.61920005 -0.32959995 0.66310006 -0.23849995 C 0.6715 -0.2487 0.6748 -0.2627 0.6707 -0.2764 M -0.6763 0.1428 C -0.6763 0.1428 -0.64919996 0.1468 -0.64309996 0.15 C -0.63699996 0.15280001 -0.60029995 0.106800005 -0.59669995 0.106800005 C -0.59319997 0.106800005 -0.58959997 0.1088 -0.5886 0.1124 C -0.5876 0.1158 -0.641 0.183 -0.641 0.183 S -0.59309995 0.1754 -0.561 0.1708 C -0.52889997 0.1662 -0.53139997 0.1464 -0.5238 0.12799999 C -0.5126 0.115399994 -0.50600004 0.11179999 -0.50600004 0.11179999 S -0.49640003 0.12369999 -0.47650003 0.12509999 C -0.45460004 0.12659998 -0.45200002 0.079699986 -0.40210003 0.032999985 C -0.35220003 -0.013800014 -0.25640005 0.028499985 -0.25640005 0.028499985 S -0.11320005 0.07319999 -0.10250005 0.08899999 C -0.0552 0.0737 -0.0515 -0.0106 -0.0327 -0.0055 C 5.00001E-4 0.0034999996 -0.0459 0.0442 -0.043399997 0.059899997 C -0.017899998 0.053799998 0.2847 0.034599997 0.3062 0.0431 C 0.3077 0.0426 0.2507 0.012699999 0.2507 0.012699999 S 0.3245 -0.0269 0.3923 0.1295 C 0.41590002 0.1842 0.48450002 0.18540001 0.5252 0.2047 C 0.6466 0.21589999 0.6227 0.3514 0.63600004 0.3662 C 0.6334 0.3739 0.63040006 0.3799 0.63040006 0.3799 L 0.62270004 0.38950002 H 0.615 C 0.615 0.38950002 0.5973 0.38230002 0.587 0.38290003 C 0.5619 0.38420004 0.5377 0.40740004 0.5025 0.43880004 C 0.5238 0.44700003 0.5392 0.44080004 0.5392 0.44080004 S 0.5795 0.38970006 0.5906 0.40840003 C 0.5923 0.41080004 0.5392 0.46620002 0.5362 0.47020003 C 0.54179996 0.48510003 0.5693 0.46700004 0.5785 0.46480003 C 0.5876 0.46280003 0.6425 0.46970004 0.6458 0.4322 C 0.6464 0.42380002 0.6951 0.4052 0.6951 0.4052 S 0.7012 0.3985 0.7048 0.3942 C 0.6885 0.3772 0.6729 0.228 0.6625 0.2052 C 0.6718 0.1762 0.656 0.1646 0.656 0.1646 S 0.63210005 0.1665 0.61120003 0.1527 C 0.57490003 0.13970001 0.54630005 0.0086000115 0.51940006 -0.0020999908 C 0.52140003 -0.006699991 0.52340007 -0.010399991 0.52690005 -0.012299991 C 0.5597001 -0.02959999 0.59590006 0.011900009 0.60040003 0.034500007 C 0.6035 0.04980001 0.64790004 0.050800007 0.64790004 0.050800007 S 0.65200007 0.046600007 0.63400006 0.030000007 C 0.6302001 0.026300007 0.63820004 0.022400007 0.63820004 0.022400007 S 0.69940007 0.046000008 0.70860004 0.002500007 C 0.64230007 0.029400008 0.59990007 -0.087299995 0.50530005 -0.012299993 C 0.46300006 -0.04219999 0.34080005 -0.12039999 0.084500045 -0.1377 C 0.15390004 -0.22500001 0.13650005 -0.27280003 0.104300044 -0.2845 C 0.0382 -0.228 0.0158 -0.2697 -0.0087 -0.2599 C -0.0219 -0.1752 -0.2482 -0.2416 -0.2476 -0.062800005 C -0.2441 -0.06340001 -0.18450001 -0.060700007 -0.1758 -0.060700007 C -0.1718 -0.050200008 -0.1671 -0.05070001 -0.19819999 -0.041100007 C -0.21609999 -0.044000007 -0.30729997 -0.050200008 -0.3505 -0.059200007 C -0.39589998 -0.06380001 -0.4387 -0.013500009 -0.4387 -0.013500009 S -0.4973 0.05289999 -0.5136 0.06209999 C -0.5299 0.07129999 -0.5553 0.08039999 -0.5651 0.08549999 C -0.5748 0.09049999 -0.59470004 0.08859999 -0.59470004 0.08859999 L -0.6763 0.1428 Z M 0.3306 0.0654 C 0.3554 0.08939999 0.3548 0.146 0.4217 0.1899 C 0.3856 0.229 0.3722 0.20189999 0.3697 0.1995 C 0.3052 0.20789999 0.3571 0.1322 0.351 0.115899995 C 0.2708 0.2001 0.3294 0.25739998 0.3294 0.25739998 S 0.3448 0.27979997 0.3227 0.2862 C 0.27449998 0.3001 0.1532 0.33499998 0.11999999 0.3951 C 0.10249999 0.4268 0.081499994 0.3867 0.07419999 0.3886 C 0.06039999 0.3919 0.02999999 0.4432 0.02999999 0.4432 S -0.04350001 0.45949998 -0.046000008 0.4565 C -0.048400007 0.4535 -0.023000007 0.406 -0.014000006 0.3892 C -0.033300005 0.3814 -0.054500006 0.4283 -0.054500006 0.4283 L -0.098500006 0.4343 C -0.098500006 0.4343 -0.030800007 0.3687 -0.028600007 0.3572 C -0.026100008 0.35 0.107099995 0.3698 0.2013 0.24419999 C 0.0314 0.1165 0.2896 0.0551 0.3306 0.0654"/>
<path id="e2" d="M 0.2892 0.1014 C 0.2892 0.1014 0.30900002 0.0825 0.3493 0.0965 C 0.3534 0.1052 0.3529 0.106800005 0.3593 0.117 C 0.3475 0.1019 0.3025 0.1068 0.2892 0.1014 M -0.2044 -0.3609 C -0.1966 -0.36020002 -0.1998 -0.3271 -0.16260001 -0.32070002 C -0.14230001 -0.3172 -0.11760001 -0.3172 -0.08910001 -0.32140002 C -0.08910001 -0.31800002 -0.08940001 -0.3165 -0.08970001 -0.3127 C -0.14940001 -0.3012 -0.16450001 -0.297 -0.18940002 -0.3075 C -0.2189 -0.3199 -0.2138 -0.3619 -0.2044 -0.3609"/>
<path id="e4" d="M 0.0 -0.5 H 1.0 V 0.5 H 0.0 Z"/>
<path id="e5" d="M 0.5 0.0 V 1.0 H -0.5 V 0.0 Z"/>
<linearGradient id="glaze" x1="0%" y1="0%" x2="100%" y2="100%">
<stop offset="0%" stop-color="rgb(255,255,255)" stop-opacity="0.2"/>
<stop offset="49.999%" stop-color="rgb(255,255,255)" stop-opacity="0.0"/>
<stop offset="50.001%" stop-color="rgb(0,0,0)" stop-opacity="0.0"/>
<stop offset="100%" stop-color="rgb(0,0,0)" stop-opacity="0.2"/>
</linearGradient>
</defs>
<g>
<rect x="0" y="0" width="600" height="360" class="white"/>
<g>
<rect x="0" y="0" width="149.1" height="180" class="black"/>
<rect x="149.1" y="0" width="149.1" height="180" class="white"/>
</g>
<g>
<rect x="301.8" y="0" width="149.1" height="89.1" class="yellow"/>
<rect x="450.9" y="0" width="149.1" height="89.1" class="blue"/>
</g>
<g>
<rect x="301.8" y="89.1" width="149.1" height="90.9" class="blue"/>
<rect x="450.9" y="89.1" width="149.1" height="90.9" class="yellow"/>
</g>
<rect x="301.8" y="0" width="120" height="60" class="blue"/>
<rect x="480" y="0" width="120" height="60" class="yellow"/>
<rect x="301.8" y="118.2" width="120" height="60" class="yellow"/>
<rect x="480" y="118.2" width="120" height="60" class="blue"/>
<use xlink:href="#e4" transform="translate(301.8 59.1) scale(120 1.8) rotate(0)" class="black"/>
<use xlink:href="#e4" transform="translate(301.8 119.1) scale(120 1.8) rotate(0)" class="black"/>
<use xlink:href="#e4" transform="translate(480 59.1) scale(120 1.8) rotate(0)" class="black"/>
<use xlink:href="#e4" transform="translate(480 119.1) scale(120 1.8) rotate(0)" class="black"/>
<use xlink:href="#e5" transform="translate(420.9 0) scale(1.8 60) rotate(0)" class="black"/>
<use xlink:href="#e5" transform="translate(480.9 0) scale(1.8 60) rotate(0)" class="black"/>
<use xlink:href="#e5" transform="translate(420.9 118.2) scale(1.8 60) rotate(0)" class="black"/>
<use xlink:href="#e5" transform="translate(480.9 118.2) scale(1.8 60) rotate(0)" class="black"/>
<use xlink:href="#e4" transform="translate(301.8 89.1) scale(298.2 1.8) rotate(0)" class="black"/>
<use xlink:href="#e5" transform="translate(450.9 0) scale(1.8 178.2) rotate(0)" class="black"/>
<use xlink:href="#e1" transform="translate(300 270.9) scale(178.2 178.2) rotate(0)" class="black"/>
<use xlink:href="#e2" transform="translate(300 270.9) scale(178.2 178.2) rotate(0)" class="red"/>
<use xlink:href="#e4" transform="translate(0 180) scale(600 3.6) rotate(0)" class="black"/>
<use xlink:href="#e5" transform="translate(300 0) scale(3.6 180) rotate(0)" class="black"/>
</g>
<g>
<rect x="0" y="0" width="600" height="360" fill="url(#glaze)"/>
<path d="M 30 30 L 570 30 L 570 330 L 30 330 Z M 60 60 L 60 300 L 540 300 L 540 60 Z" fill="rgb(255,255,255)" opacity="0.4"/>
<path d="M 0 0 L 600 0 L 600 360 L 0 360 Z M 30 30 L 30 330 L 570 330 L 570 30 Z" fill="rgb(0,0,0)" opacity="0.4"/>
</g>
</svg>
