<?xml version="1.0"?>
<svg xmlns="http://www.w3.org/2000/svg" xmlns:xlink="http://www.w3.org/1999/xlink" version="1.1" width="600" height="360" viewBox="0 0 600 360">
<!-- Generated by Kreative Vexillo v1.0 -->
<style>
.red{fill:rgb(255,0,0);}
.white{fill:rgb(255,255,255);}
</style>
<defs>
<path id="cross" d="M 0.4892 0.0 C 0.4892 -0.0594 0.49289998 -0.118 0.5 -0.1755 C 0.38 -0.15280001 0.2571 -0.1381 0.132 -0.132 C 0.1381 -0.2571 0.1529 -0.38 0.1755 -0.5 C 0.118 -0.4929 0.0594 -0.4892 0.0 -0.4892 S -0.118 -0.4929 -0.1755 -0.5 C -0.15280001 -0.38 -0.1381 -0.2571 -0.132 -0.132 C -0.2571 -0.1381 -0.38 -0.1529 -0.5 -0.1755 C -0.4929 -0.118 -0.4892 -0.0594 -0.4892 0.0 S -0.4929 0.118 -0.5 0.1755 C -0.38 0.15280001 -0.2571 0.1381 -0.132 0.132 C -0.1381 0.2571 -0.1529 0.38 -0.1755 0.5 C -0.118 0.4929 -0.0594 0.4892 0.0 0.4892 S 0.118 0.4929 0.1755 0.5 C 0.15280001 0.38 0.1381 0.2571 0.132 0.132 C 0.2571 0.1381 0.38 0.1529 0.5 0.1755 C 0.4929 0.118 0.4892 0.0594 0.4892 0.0 Z"/>
<linearGradient id="glaze" x1="0%" y1="0%" x2="100%" y2="100%">
<stop offset="0%" stop-color="rgb(255,255,255)" stop-opacity="0.2"/>
<stop offset="49.999%" stop-color="rgb(255,255,255)" stop-opacity="0.0"/>
<stop offset="50.001%" stop-color="rgb(0,0,0)" stop-opacity="0.0"/>
<stop offset="100%" stop-color="rgb(0,0,0)" stop-opacity="0.2"/>
</linearGradient>
</defs>
<g>
<rect x="0" y="0" width="600" height="360" class="white"/>
<g>
<rect x="0" y="144" width="600" height="72" class="red"/>
<rect x="264" y="0" width="72" height="360" class="red"/>
</g>
<use xlink:href="#cross" transform="translate(132 72) scale(72 72) rotate(0)" class="red"/>
<use xlink:href="#cross" transform="translate(468 72) scale(72 72) rotate(0)" class="red"/>
<use xlink:href="#cross" transform="translate(132 288) scale(72 72) rotate(0)" class="red"/>
<use xlink:href="#cross" transform="translate(468 288) scale(72 72) rotate(0)" class="red"/>
</g>
<g>
<rect x="0" y="0" width="600" height="360" fill="url(#glaze)"/>
<path d="M 30 30 L 570 30 L 570 330 L 30 330 Z M 60 60 L 60 300 L 540 300 L 540 60 Z" fill="rgb(255,255,255)" opacity="0.4"/>
<path d="M 0 0 L 600 0 L 600 360 L 0 360 Z M 30 30 L 30 330 L 570 330 L 570 30 Z" fill="rgb(0,0,0)" opacity="0.4"/>
</g>
</svg>
