<?xml version="1.0"?>
<svg xmlns="http://www.w3.org/2000/svg" xmlns:xlink="http://www.w3.org/1999/xlink" version="1.1" width="600" height="360" viewBox="0 0 600 360">
<!-- Generated by Kreative Vexillo v1.0 -->
<style>
.red{fill:rgb(232,17,45);}
.white{fill:rgb(255,255,255);}
.yellow{fill:rgb(249,221,22);}
</style>
<defs>
<path id="cross" d="M -0.5 0.1111 L -0.4444 0.055500004 H -0.0555 V 0.4444 L -0.1111 0.5 H 0.1111 L 0.055500004 0.4444 V 0.0555 H 0.4444 L 0.5 0.1111 V -0.1111 L 0.4444 -0.055500004 H 0.0555 V -0.4444 L 0.1111 -0.5 H -0.1111 L -0.055500004 -0.4444 V -0.0555 H -0.4444 L -0.5 -0.1111 Z"/>
<linearGradient id="glaze" x1="0%" y1="0%" x2="100%" y2="100%">
<stop offset="0%" stop-color="rgb(255,255,255)" stop-opacity="0.2"/>
<stop offset="49.999%" stop-color="rgb(255,255,255)" stop-opacity="0.0"/>
<stop offset="50.001%" stop-color="rgb(0,0,0)" stop-opacity="0.0"/>
<stop offset="100%" stop-color="rgb(0,0,0)" stop-opacity="0.2"/>
</linearGradient>
</defs>
<g>
<rect x="0" y="0" width="600" height="360" class="white"/>
<g>
<rect x="0" y="135" width="600" height="90" class="red"/>
<rect x="255" y="0" width="90" height="360" class="red"/>
</g>
<use xlink:href="#cross" transform="translate(300 180) scale(270 270) rotate(0)" class="yellow"/>
</g>
<g>
<rect x="0" y="0" width="600" height="360" fill="url(#glaze)"/>
<path d="M 30 30 L 570 30 L 570 330 L 30 330 Z M 60 60 L 60 300 L 540 300 L 540 60 Z" fill="rgb(255,255,255)" opacity="0.4"/>
<path d="M 0 0 L 600 0 L 600 360 L 0 360 Z M 30 30 L 30 330 L 570 330 L 570 30 Z" fill="rgb(0,0,0)" opacity="0.4"/>
</g>
</svg>
