<?xml version="1.0"?>
<svg xmlns="http://www.w3.org/2000/svg" xmlns:xlink="http://www.w3.org/1999/xlink" version="1.1" width="600" height="360" viewBox="0 0 600 360">
<!-- Generated by Kreative Vexillo v1.0 -->
<style>
.black{fill:rgb(0,0,0);}
.green{fill:rgb(0,153,0);}
.red{fill:rgb(255,0,0);}
.white{fill:rgb(255,255,255);}
</style>
<defs>
<path id="star" d="M 0.0 -1.0 L 0.216942 -0.450484 L 0.781831 -0.62349 L 0.487464 -0.11126 L 0.974928 0.222521 L 0.390916 0.311745 L 0.433884 0.900969 L 0.0 0.5 L -0.433884 0.900969 L -0.390916 0.311745 L -0.974928 0.222521 L -0.487464 -0.11126 L -0.781831 -0.62349 L -0.216942 -0.450484 Z"/>
<linearGradient id="glaze" x1="0%" y1="0%" x2="100%" y2="100%">
<stop offset="0%" stop-color="rgb(255,255,255)" stop-opacity="0.2"/>
<stop offset="49.999%" stop-color="rgb(255,255,255)" stop-opacity="0.0"/>
<stop offset="50.001%" stop-color="rgb(0,0,0)" stop-opacity="0.0"/>
<stop offset="100%" stop-color="rgb(0,0,0)" stop-opacity="0.2"/>
</linearGradient>
</defs>
<g>
<g>
<rect x="0" y="0" width="600" height="120" class="black"/>
<rect x="0" y="120" width="600" height="120" class="white"/>
<rect x="0" y="240" width="600" height="120" class="green"/>
</g>
<path d="M 0 0 L 300 180 L 0 360 Z" class="red"/>
<use xlink:href="#star" transform="translate(100 180) scale(25.7143 25.7143) rotate(0)" class="white"/>
</g>
<g>
<rect x="0" y="0" width="600" height="360" fill="url(#glaze)"/>
<path d="M 30 30 L 570 30 L 570 330 L 30 330 Z M 60 60 L 60 300 L 540 300 L 540 60 Z" fill="rgb(255,255,255)" opacity="0.4"/>
<path d="M 0 0 L 600 0 L 600 360 L 0 360 Z M 30 30 L 30 330 L 570 330 L 570 30 Z" fill="rgb(0,0,0)" opacity="0.4"/>
</g>
</svg>
