<?xml version="1.0"?>
<svg xmlns="http://www.w3.org/2000/svg" xmlns:xlink="http://www.w3.org/1999/xlink" version="1.1" width="600" height="360" viewBox="0 0 600 360">
<!-- Generated by Kreative Vexillo v1.0 -->
<style>
.black{fill:rgb(0,0,0);}
.green{fill:rgb(0,169,79);}
.red{fill:rgb(239,65,53);}
.white{fill:rgb(255,255,255);}
.yellow{fill:rgb(255,221,0);}
</style>
<defs>
<path id="star" d="M 0.0 -1.0 L 0.2245 -0.309 L 0.9511 -0.309 L 0.3633 0.118 L 0.5878 0.809 L 0.0 0.382 L -0.5878 0.809 L -0.3633 0.118 L -0.9511 -0.309 L -0.2245 -0.309 Z"/>
<clipPath id="clip0">
<rect x="0" y="0" width="600" height="360"/>
</clipPath>
<linearGradient id="glaze" x1="0%" y1="0%" x2="100%" y2="100%">
<stop offset="0%" stop-color="rgb(255,255,255)" stop-opacity="0.2"/>
<stop offset="49.999%" stop-color="rgb(255,255,255)" stop-opacity="0.0"/>
<stop offset="50.001%" stop-color="rgb(0,0,0)" stop-opacity="0.0"/>
<stop offset="100%" stop-color="rgb(0,0,0)" stop-opacity="0.2"/>
</linearGradient>
</defs>
<g>
<path d="M 0 360 L 0 0 L 600 0 Z" class="green"/>
<path d="M 600 0 L 600 360 L 0 360 Z" class="red"/>
<g clip-path="url(#clip0)">
<path d="M 561.1339 -64.8443 L -38.8662 295.1557 L 38.8662 424.8443 L 638.8661 64.8443 L 561.1339 -64.8443 Z" class="yellow"/>
<path d="M 572.2385 -46.3173 L -27.7615 313.6826 L 27.7615 406.3174 L 627.7615 46.3173 L 572.2385 -46.3173 Z" class="black"/>
</g>
<use xlink:href="#star" transform="translate(192 244.8) scale(50.4 50.4) rotate(-30.9638)" class="white"/>
<use xlink:href="#star" transform="translate(420 108) scale(50.4 50.4) rotate(-30.9638)" class="white"/>
</g>
<g>
<rect x="0" y="0" width="600" height="360" fill="url(#glaze)"/>
<path d="M 30 30 L 570 30 L 570 330 L 30 330 Z M 60 60 L 60 300 L 540 300 L 540 60 Z" fill="rgb(255,255,255)" opacity="0.4"/>
<path d="M 0 0 L 600 0 L 600 360 L 0 360 Z M 30 30 L 30 330 L 570 330 L 570 30 Z" fill="rgb(0,0,0)" opacity="0.4"/>
</g>
</svg>
