<?xml version="1.0"?>
<svg xmlns="http://www.w3.org/2000/svg" xmlns:xlink="http://www.w3.org/1999/xlink" version="1.1" width="600" height="360" viewBox="0 0 600 360">
<!-- Generated by Kreative Vexillo v1.0 -->
<style>
.black{fill:rgb(0,0,0);}
.blue{fill:rgb(0,52,120);}
.red{fill:rgb(198,12,48);}
.white{fill:rgb(255,255,255);}
</style>
<defs>
<path id="earth" d="M -0.75 -0.5 L -0.0625 -0.5 L -0.0625 -0.25 L -0.75 -0.25 Z M 0.0625 -0.5 L 0.75 -0.5 L 0.75 -0.25 L 0.0625 -0.25 Z M -0.75 -0.125 L -0.0625 -0.125 L -0.0625 0.125 L -0.75 0.125 Z M 0.0625 -0.125 L 0.75 -0.125 L 0.75 0.125 L 0.0625 0.125 Z M -0.75 0.25 L -0.0625 0.25 L -0.0625 0.5 L -0.75 0.5 Z M 0.0625 0.25 L 0.75 0.25 L 0.75 0.5 L 0.0625 0.5 Z"/>
<path id="halfdisc" d="M 0.5 0.0 A 0.5 0.5 0.0 0 0 -0.5 0.0 Z"/>
<path id="moon" d="M -0.75 -0.5 L -0.0625 -0.5 L -0.0625 -0.25 L -0.75 -0.25 Z M 0.0625 -0.5 L 0.75 -0.5 L 0.75 -0.25 L 0.0625 -0.25 Z M -0.75 -0.125 L 0.75 -0.125 L 0.75 0.125 L -0.75 0.125 Z M -0.75 0.25 L -0.0625 0.25 L -0.0625 0.5 L -0.75 0.5 Z M 0.0625 0.25 L 0.75 0.25 L 0.75 0.5 L 0.0625 0.5 Z"/>
<path id="offsetdisc" d="M 0.0 0.0 A 0.25 0.25 0.0 0 0 -0.5 0.0 A 0.25 0.25 0.0 0 0 0.0 0.0 Z"/>
<path id="sky" d="M -0.75 -0.5 L 0.75 -0.5 L 0.75 -0.25 L -0.75 -0.25 Z M -0.75 -0.125 L 0.75 -0.125 L 0.75 0.125 L -0.75 0.125 Z M -0.75 0.25 L 0.75 0.25 L 0.75 0.5 L -0.75 0.5 Z"/>
<path id="sun" d="M -0.75 -0.5 L 0.75 -0.5 L 0.75 -0.25 L -0.75 -0.25 Z M -0.75 -0.125 L -0.0625 -0.125 L -0.0625 0.125 L -0.75 0.125 Z M 0.0625 -0.125 L 0.75 -0.125 L 0.75 0.125 L 0.0625 0.125 Z M -0.75 0.25 L 0.75 0.25 L 0.75 0.5 L -0.75 0.5 Z"/>
<linearGradient id="glaze" x1="0%" y1="0%" x2="100%" y2="100%">
<stop offset="0%" stop-color="rgb(255,255,255)" stop-opacity="0.2"/>
<stop offset="49.999%" stop-color="rgb(255,255,255)" stop-opacity="0.0"/>
<stop offset="50.001%" stop-color="rgb(0,0,0)" stop-opacity="0.0"/>
<stop offset="100%" stop-color="rgb(0,0,0)" stop-opacity="0.2"/>
</linearGradient>
</defs>
<g>
<rect x="0" y="0" width="600" height="360" class="white"/>
<use xlink:href="#halfdisc" transform="translate(300 180) scale(180 180) rotate(30.9638)" class="red"/>
<use xlink:href="#halfdisc" transform="translate(300 180) scale(180 180) rotate(210.9638)" class="blue"/>
<use xlink:href="#offsetdisc" transform="translate(300 180) scale(180 180) rotate(30.9638)" class="red"/>
<use xlink:href="#offsetdisc" transform="translate(300 180) scale(180 180) rotate(210.9638)" class="blue"/>
<use xlink:href="#sky" transform="translate(158.5137 95.1082) scale(60 60) rotate(120.9638)" class="black"/>
<use xlink:href="#earth" transform="translate(441.4863 264.8918) scale(60 60) rotate(120.9638)" class="black"/>
<use xlink:href="#sun" transform="translate(158.5137 264.8918) scale(60 60) rotate(59.0362)" class="black"/>
<use xlink:href="#moon" transform="translate(441.4863 95.1082) scale(60 60) rotate(59.0362)" class="black"/>
</g>
<g>
<rect x="0" y="0" width="600" height="360" fill="url(#glaze)"/>
<path d="M 30 30 L 570 30 L 570 330 L 30 330 Z M 60 60 L 60 300 L 540 300 L 540 60 Z" fill="rgb(255,255,255)" opacity="0.4"/>
<path d="M 0 0 L 600 0 L 600 360 L 0 360 Z M 30 30 L 30 330 L 570 330 L 570 30 Z" fill="rgb(0,0,0)" opacity="0.4"/>
</g>
</svg>
