<?xml version="1.0"?>
<svg xmlns="http://www.w3.org/2000/svg" xmlns:xlink="http://www.w3.org/1999/xlink" version="1.1" width="600" height="360" viewBox="0 0 600 360">
<!-- Generated by Kreative Vexillo v1.0 -->
<style>
.blue{fill:rgb(0,85,164);}
.green{fill:rgb(0,161,96);}
.red{fill:rgb(238,49,36);}
.white{fill:rgb(255,255,255);}
.yellow{fill:rgb(253,185,51);}
</style>
<defs>
<path id="disc" d="M 0.5 0.0 A 0.5 0.5 0.0 0 0 -0.5 0.0 A 0.5 0.5 0.0 0 0 0.5 0.0 Z"/>
<path id="star12" d="M 0.0 -1.0 L 0.155291 -0.579555 L 0.5 -0.866025 L 0.424264 -0.424264 L 0.866025 -0.5 L 0.579555 -0.155291 L 1.0 -0.0 L 0.579555 0.155291 L 0.866025 0.5 L 0.424264 0.424264 L 0.5 0.866025 L 0.155291 0.579555 L 0.0 1.0 L -0.155291 0.579555 L -0.5 0.866025 L -0.424264 0.424264 L -0.866025 0.5 L -0.579555 0.155291 L -1.0 0.0 L -0.579555 -0.155291 L -0.866025 -0.5 L -0.424264 -0.424264 L -0.5 -0.866025 L -0.155291 -0.579555 Z"/>
<clipPath id="clip0">
<rect x="0" y="0" width="600" height="360"/>
</clipPath>
<linearGradient id="glaze" x1="0%" y1="0%" x2="100%" y2="100%">
<stop offset="0%" stop-color="rgb(255,255,255)" stop-opacity="0.2"/>
<stop offset="49.999%" stop-color="rgb(255,255,255)" stop-opacity="0.0"/>
<stop offset="50.001%" stop-color="rgb(0,0,0)" stop-opacity="0.0"/>
<stop offset="100%" stop-color="rgb(0,0,0)" stop-opacity="0.2"/>
</linearGradient>
</defs>
<g>
<rect x="0" y="0" width="600" height="360" class="blue"/>
<path d="M 600 0 L 600 360 L 0 360 Z" class="green"/>
<g clip-path="url(#clip0)">
<path d="M 630.8697 51.4496 L 630.8697 51.4496 L 30.8697 411.4496 L -30.8697 308.5504 L 569.1303 -51.4496 Z" class="white"/>
<path d="M 623.1523 38.5872 L 623.1523 38.5872 L 23.1523 398.5872 L -23.1523 321.4128 L 576.8477 -38.5872 Z" class="red"/>
</g>
<use xlink:href="#star12" transform="translate(133.3333 96) scale(60 60) rotate(0)" class="yellow"/>
<use xlink:href="#disc" transform="translate(133.3333 96) scale(72 72) rotate(0)" class="blue"/>
<use xlink:href="#disc" transform="translate(133.3333 96) scale(60 60) rotate(0)" class="yellow"/>
</g>
<g>
<rect x="0" y="0" width="600" height="360" fill="url(#glaze)"/>
<path d="M 30 30 L 570 30 L 570 330 L 30 330 Z M 60 60 L 60 300 L 540 300 L 540 60 Z" fill="rgb(255,255,255)" opacity="0.4"/>
<path d="M 0 0 L 600 0 L 600 360 L 0 360 Z M 30 30 L 30 330 L 570 330 L 570 30 Z" fill="rgb(0,0,0)" opacity="0.4"/>
</g>
</svg>
