<?xml version="1.0"?>
<svg xmlns="http://www.w3.org/2000/svg" xmlns:xlink="http://www.w3.org/1999/xlink" version="1.1" width="600" height="360" viewBox="0 0 600 360">
<!-- Generated by Kreative Vexillo v1.0 -->
<style>
.black{fill:rgb(0,0,0);}
.blue{fill:rgb(0,93,170);}
.green{fill:rgb(0,161,96);}
.red{fill:rgb(239,65,53);}
.yellow{fill:rgb(255,242,3);}
</style>
<defs>
<path id="disc" d="M 0.5 0.0 A 0.5 0.5 0.0 0 0 -0.5 0.0 A 0.5 0.5 0.0 0 0 0.5 0.0 Z"/>
<path id="emblem" d="M 0.0 -0.5 C -0.2757 -0.5 -0.5 -0.2757 -0.5 0.0 S -0.2757 0.4999 0.0 0.4999 C 0.2757 0.4999 0.4999 0.27560002 0.4999 0.0 S 0.2756 -0.5 0.0 -0.5 Z M -0.4833 0.0 C -0.4833 -0.2632 -0.2719 -0.4779 -0.0101 -0.4832 V -0.3761 C -0.0402 -0.36270002 -0.0642 -0.3508 -0.068900004 -0.3243 C -0.068900004 -0.32079998 -0.070300005 -0.2841 -0.071200006 -0.27519998 C -0.071200006 -0.27519998 -0.06610001 -0.27519998 -0.053900003 -0.2844 C -0.048600003 -0.2888 -0.032100003 -0.2916 -0.010100003 -0.3051 V -0.24919999 C -0.042200003 -0.24439998 -0.0668 -0.21679999 -0.0668 -0.18339998 S -0.0422 -0.12239997 -0.0101 -0.11759997 V -0.103699975 C -0.035499997 -0.104999974 -0.0577 -0.112899974 -0.076799996 -0.15179998 C -0.0874 -0.17349997 -0.1151 -0.20679998 -0.1151 -0.20679998 S -0.102 -0.16939998 -0.100099996 -0.13179998 C -0.0972 -0.07669998 -0.048499994 -0.07079998 -0.010099992 -0.07019998 V -0.06009998 H -0.08339999 V -0.040099982 H -0.010099992 V -0.030099982 C -0.04219999 -0.026999982 -0.06679999 -0.009599982 -0.06679999 0.011600019 C -0.06679999 0.032700017 -0.04219999 0.050200023 -0.010099992 0.053300023 V 0.06330002 H -0.08339999 V 0.083300024 H -0.010099992 V 0.093500026 C -0.0667 0.09590003 -0.09409999 0.11870003 -0.09709999 0.15120003 C -0.10369999 0.22180003 -0.11669999 0.27670002 -0.11669999 0.27670002 S -0.095699996 0.2508 -0.0712 0.19010001 C -0.059899997 0.16220002 -0.034999996 0.14460002 -0.0101 0.14080001 V 0.14800002 C -0.0357 0.15480001 -0.0551 0.18740001 -0.0551 0.22670001 C -0.0551 0.26590002 -0.0357 0.2985 -0.0101 0.3054 V 0.3283 C -0.0432 0.3283 -0.0755 0.3364 -0.0923 0.3497 C -0.1152 0.3678 -0.171 0.4231 -0.19119999 0.4439 C -0.3629 0.3695 -0.4833 0.1986 -0.4833 0.0 Z M 0.1824 0.4474 C 0.16260001 0.4263 0.1122 0.37330002 0.0834 0.3495 C 0.068100005 0.3369 0.039900005 0.3299 0.010000005 0.32840002 V 0.30530003 C 0.035600007 0.29850003 0.055000007 0.26590002 0.055000007 0.22660002 C 0.055000007 0.18740001 0.035600007 0.15480003 0.010000005 0.14790002 V 0.14070001 C 0.034900006 0.14450002 0.059800006 0.16210002 0.071100004 0.19000001 C 0.0957 0.2507 0.11660001 0.2766 0.11660001 0.2766 S 0.10360001 0.2217 0.097 0.15110001 C 0.094000004 0.11860001 0.0666 0.09580001 0.010000005 0.09340001 V 0.08320001 H 0.0833 V 0.06320001 H 0.010000005 V 0.053200014 C 0.042100005 0.050100014 0.066700004 0.032700013 0.066700004 0.011500012 C 0.066700004 -0.009699987 0.042100005 -0.02709999 0.010000005 -0.03019999 V -0.040199988 H 0.0833 V -0.060199987 H 0.010000005 V -0.07029998 C 0.048400007 -0.07029998 0.097100005 -0.07679998 0.10000001 -0.13189998 C 0.10190001 -0.16949998 0.11500001 -0.20689999 0.11500001 -0.20689999 S 0.08730001 -0.17359999 0.07670001 -0.1519 C 0.05770001 -0.11299999 0.03540001 -0.10509999 0.010000013 -0.1038 V -0.117699996 C 0.042100012 -0.122499995 0.06670001 -0.1501 0.06670001 -0.18349999 S 0.042100012 -0.2445 0.010000013 -0.2493 V -0.3195 C 0.029500013 -0.3357 0.051600013 -0.3606 0.07360002 -0.4003 C 0.085800014 -0.4222 0.08000001 -0.4318 0.08000001 -0.4318 L 0.08000001 -0.4318 C 0.08000001 -0.4318 0.08000001 -0.4304 0.07160001 -0.4226 C 0.051900014 -0.4055 0.030300014 -0.3943 0.010000013 -0.3851 V -0.4832 C 0.2718 -0.4779 0.4832 -0.2632 0.4832 0.0 C 0.4832 0.2019 0.3587 0.3753 0.1824 0.4474 Z"/>
<linearGradient id="glaze" x1="0%" y1="0%" x2="100%" y2="100%">
<stop offset="0%" stop-color="rgb(255,255,255)" stop-opacity="0.2"/>
<stop offset="49.999%" stop-color="rgb(255,255,255)" stop-opacity="0.0"/>
<stop offset="50.001%" stop-color="rgb(0,0,0)" stop-opacity="0.0"/>
<stop offset="100%" stop-color="rgb(0,0,0)" stop-opacity="0.2"/>
</linearGradient>
</defs>
<g>
<g>
<rect x="0" y="0" width="600" height="120" class="blue"/>
<rect x="0" y="120" width="600" height="120" class="red"/>
<rect x="0" y="240" width="600" height="120" class="green"/>
</g>
<use xlink:href="#disc" transform="translate(200 180) scale(240 240) rotate(0)" class="yellow"/>
<use xlink:href="#emblem" transform="translate(200 180) scale(240 240) rotate(0)" class="black"/>
</g>
<g>
<rect x="0" y="0" width="600" height="360" fill="url(#glaze)"/>
<path d="M 30 30 L 570 30 L 570 330 L 30 330 Z M 60 60 L 60 300 L 540 300 L 540 60 Z" fill="rgb(255,255,255)" opacity="0.4"/>
<path d="M 0 0 L 600 0 L 600 360 L 0 360 Z M 30 30 L 30 330 L 570 330 L 570 30 Z" fill="rgb(0,0,0)" opacity="0.4"/>
</g>
</svg>
