<?xml version="1.0"?>
<svg xmlns="http://www.w3.org/2000/svg" xmlns:xlink="http://www.w3.org/1999/xlink" version="1.1" width="600" height="360" viewBox="0 0 600 360">
<!-- Generated by Kreative Vexillo v1.0 -->
<style>
.black{fill:rgb(0,0,0);}
.blue{fill:rgb(22,74,179);}
.red{fill:rgb(190,42,51);}
.white{fill:rgb(255,255,255);}
</style>
<defs>
<path id="koru" d="M 0.0 0.5 A 0.5 0.5 0.0 1 0 -0.5 0.0 L -10.0 0.0 L -10.0 0.5 Z"/>
<linearGradient id="glaze" x1="0%" y1="0%" x2="100%" y2="100%">
<stop offset="0%" stop-color="rgb(255,255,255)" stop-opacity="0.2"/>
<stop offset="49.999%" stop-color="rgb(255,255,255)" stop-opacity="0.0"/>
<stop offset="50.001%" stop-color="rgb(0,0,0)" stop-opacity="0.0"/>
<stop offset="100%" stop-color="rgb(0,0,0)" stop-opacity="0.2"/>
</linearGradient>
</defs>
<g>
<rect x="0" y="0" width="600" height="360" class="white"/>
<path d="M 0 0 L 390 0 L 30 360 L 0 360 Z" class="blue"/>
<path d="M 416.3604 0 L 543.6396 0 L 183.6396 360 L 56.3604 360 Z" class="red"/>
<path d="M 570 0 L 600 0 L 600 360 L 210 360 Z" class="black"/>
<use xlink:href="#koru" transform="translate(210 90) scale(90 90) rotate(-45)" class="white"/>
<use xlink:href="#koru" transform="translate(390 270) scale(90 90) rotate(135)" class="white"/>
</g>
<g>
<rect x="0" y="0" width="600" height="360" fill="url(#glaze)"/>
<path d="M 30 30 L 570 30 L 570 330 L 30 330 Z M 60 60 L 60 300 L 540 300 L 540 60 Z" fill="rgb(255,255,255)" opacity="0.4"/>
<path d="M 0 0 L 600 0 L 600 360 L 0 360 Z M 30 30 L 30 330 L 570 330 L 570 30 Z" fill="rgb(0,0,0)" opacity="0.4"/>
</g>
</svg>
