<?xml version="1.0"?>
<svg xmlns="http://www.w3.org/2000/svg" xmlns:xlink="http://www.w3.org/1999/xlink" version="1.1" width="600" height="360" viewBox="0 0 600 360">
<!-- Generated by Kreative Vexillo v1.0 -->
<style>
.red{fill:rgb(239,65,53);}
.white{fill:rgb(255,255,255);}
</style>
<defs>
<path id="star" d="M 0.0 -1.0 L 0.2245 -0.309 L 0.9511 -0.309 L 0.3633 0.118 L 0.5878 0.809 L 0.0 0.382 L -0.5878 0.809 L -0.3633 0.118 L -0.9511 -0.309 L -0.2245 -0.309 Z"/>
<linearGradient id="glaze" x1="0%" y1="0%" x2="100%" y2="100%">
<stop offset="0%" stop-color="rgb(255,255,255)" stop-opacity="0.2"/>
<stop offset="49.999%" stop-color="rgb(255,255,255)" stop-opacity="0.0"/>
<stop offset="50.001%" stop-color="rgb(0,0,0)" stop-opacity="0.0"/>
<stop offset="100%" stop-color="rgb(0,0,0)" stop-opacity="0.2"/>
</linearGradient>
</defs>
<g>
<g>
<rect x="0" y="0" width="600" height="180" class="red"/>
<rect x="0" y="180" width="600" height="180" class="white"/>
</g>
<ellipse cx="113.75" cy="90" rx="66.25" ry="66.25" class="white"/>
<ellipse cx="150" cy="90" rx="72.5" ry="72.5" class="red"/>
<g>
<use xlink:href="#star" transform="translate(150 52) scale(16 16) rotate(0)" class="white"/>
<use xlink:href="#star" transform="translate(186.1401 78.2574) scale(16 16) rotate(0)" class="white"/>
<use xlink:href="#star" transform="translate(172.3358 120.7426) scale(16 16) rotate(0)" class="white"/>
<use xlink:href="#star" transform="translate(127.6642 120.7426) scale(16 16) rotate(0)" class="white"/>
<use xlink:href="#star" transform="translate(113.8599 78.2574) scale(16 16) rotate(0)" class="white"/>
</g>
</g>
<g>
<rect x="0" y="0" width="600" height="360" fill="url(#glaze)"/>
<path d="M 30 30 L 570 30 L 570 330 L 30 330 Z M 60 60 L 60 300 L 540 300 L 540 60 Z" fill="rgb(255,255,255)" opacity="0.4"/>
<path d="M 0 0 L 600 0 L 600 360 L 0 360 Z M 30 30 L 30 330 L 570 330 L 570 30 Z" fill="rgb(0,0,0)" opacity="0.4"/>
</g>
</svg>
