<?xml version="1.0"?>
<svg xmlns="http://www.w3.org/2000/svg" xmlns:xlink="http://www.w3.org/1999/xlink" version="1.1" width="600" height="360" viewBox="0 0 600 360">
<!-- Generated by Kreative Vexillo v1.0 -->
<style>
.blue{fill:rgb(0,73,144);}
.ltblue{fill:rgb(80,145,205);}
.red{fill:rgb(227,24,55);}
.white{fill:rgb(255,255,255);}
.yellow{fill:rgb(255,210,0);}
</style>
<defs>
<path id="star" d="M 0.0 -1.0 L 0.2245 -0.309 L 0.9511 -0.309 L 0.3633 0.118 L 0.5878 0.809 L 0.0 0.382 L -0.5878 0.809 L -0.3633 0.118 L -0.9511 -0.309 L -0.2245 -0.309 Z"/>
<clipPath id="clip0">
<path d="M 0 0 L 0 13.9943 L 0 13.9943 L 126.6762 90 L 126.6762 90 L 0 166.0057 L 0 180 L 23.3238 180 L 150 103.9943 L 276.6762 180 L 300 180 L 300 166.0057 L 173.3238 90 L 300 13.9943 L 300 0 L 276.6762 0 L 150 76.0057 L 23.3238 0 Z"/>
</clipPath>
<linearGradient id="glaze" x1="0%" y1="0%" x2="100%" y2="100%">
<stop offset="0%" stop-color="rgb(255,255,255)" stop-opacity="0.2"/>
<stop offset="49.999%" stop-color="rgb(255,255,255)" stop-opacity="0.0"/>
<stop offset="50.001%" stop-color="rgb(0,0,0)" stop-opacity="0.0"/>
<stop offset="100%" stop-color="rgb(0,0,0)" stop-opacity="0.2"/>
</linearGradient>
</defs>
<g>
<rect x="0" y="0" width="600" height="360" class="ltblue"/>
<g>
<rect x="0" y="0" width="300" height="180" class="blue"/>
<path d="M 0 0 L 0 20.9914 L 115.0143 90 L 115.0143 90 L 0 159.0086 L 0 159.0086 L 0 180 L 34.9857 180 L 150 110.9914 L 150 110.9914 L 150 110.9914 L 150 110.9914 L 150 110.9914 L 150 110.9914 L 265.0143 180 L 300 180 L 300 159.0086 L 300 159.0086 L 184.9857 90 L 300 20.9914 L 300 0 L 265.0143 0 L 150 69.0086 L 150 69.0086 L 150 69.0086 L 150 69.0086 L 34.9857 0 Z" class="white"/>
<g clip-path="url(#clip0)">
<path d="M 0 0 L 150 90 L 0 90 Z" class="red"/>
<path d="M 300 0 L 150 90 L 150 0 Z" class="red"/>
<path d="M 0 180 L 150 90 L 150 180 Z" class="red"/>
<path d="M 300 180 L 150 90 L 300 90 Z" class="red"/>
</g>
<g>
<rect x="0" y="60" width="300" height="60" class="white"/>
<rect x="120" y="0" width="60" height="180" class="white"/>
</g>
<g>
<rect x="0" y="72" width="300" height="36" class="red"/>
<rect x="132" y="0" width="36" height="180" class="red"/>
</g>
</g>
<g>
<use xlink:href="#star" transform="translate(322.6698 324.5962) scale(25 25) rotate(0)" class="yellow"/>
<use xlink:href="#star" transform="translate(394.0128 302.7096) scale(25 25) rotate(180)" class="yellow"/>
<use xlink:href="#star" transform="translate(394.0128 229.5194) scale(25 25) rotate(180)" class="yellow"/>
<use xlink:href="#star" transform="translate(457.0152 284.2106) scale(25 25) rotate(180)" class="yellow"/>
<use xlink:href="#star" transform="translate(457.0152 124.9625) scale(25 25) rotate(180)" class="yellow"/>
<use xlink:href="#star" transform="translate(498.2208 234.0274) scale(25 25) rotate(0)" class="yellow"/>
<use xlink:href="#star" transform="translate(509.964 103.2466) scale(25 25) rotate(180)" class="yellow"/>
<use xlink:href="#star" transform="translate(551.418 192.9326) scale(25 25) rotate(0)" class="yellow"/>
<use xlink:href="#star" transform="translate(551.418 52.4916) scale(25 25) rotate(0)" class="yellow"/>
</g>
</g>
<g>
<rect x="0" y="0" width="600" height="360" fill="url(#glaze)"/>
<path d="M 30 30 L 570 30 L 570 330 L 30 330 Z M 60 60 L 60 300 L 540 300 L 540 60 Z" fill="rgb(255,255,255)" opacity="0.4"/>
<path d="M 0 0 L 600 0 L 600 360 L 0 360 Z M 30 30 L 30 330 L 570 330 L 570 30 Z" fill="rgb(0,0,0)" opacity="0.4"/>
</g>
</svg>
