<?xml version="1.0"?>
<svg xmlns="http://www.w3.org/2000/svg" xmlns:xlink="http://www.w3.org/1999/xlink" version="1.1" width="600" height="360" viewBox="0 0 600 360">
<!-- Generated by Kreative Vexillo v1.0 -->
<style>
.blue{fill:rgb(0,40,104);}
.red{fill:rgb(191,10,48);}
.white{fill:rgb(255,255,255);}
</style>
<defs>
<path id="star" d="M 0.0 -1.0 L 0.2245 -0.309 L 0.9511 -0.309 L 0.3633 0.118 L 0.5878 0.809 L 0.0 0.382 L -0.5878 0.809 L -0.3633 0.118 L -0.9511 -0.309 L -0.2245 -0.309 Z"/>
<path id="text" d="M -3.073 -0.1994 H -2.7596 L -2.7052 -0.024299994 H -2.5124 L -2.8116 -0.8735 H -3.0162 L -3.319 -0.0244 H -3.1322 L -3.073 -0.1994 Z M -2.9169 -0.682 H -2.9145 L -2.8093 -0.3462 H -3.0256999 L -2.9169 -0.682 Z M -2.3981 -0.0244 H -2.2243 V -0.3568 H -2.041 C -1.9777999 -0.3574 -1.9382999 -0.345 -1.9225999 -0.3198 C -1.9067999 -0.29459998 -1.9001999 -0.25329998 -1.9025999 -0.1959 C -1.9025999 -0.153 -1.9008999 -0.118499994 -1.8975999 -0.092499994 C -1.8943 -0.06639999 -1.8896999 -0.043699995 -1.8836999 -0.02449999 H -1.6873999 V -0.04699999 C -1.7055999 -0.05249999 -1.7165998 -0.06689999 -1.7204999 -0.090299994 C -1.7243999 -0.113699995 -1.7259998 -0.1557 -1.7251998 -0.21609999 C -1.7252998 -0.2925 -1.7344998 -0.34429997 -1.7527999 -0.37159997 C -1.7710999 -0.39889997 -1.7977998 -0.41879997 -1.8327999 -0.43129998 C -1.7906 -0.44629997 -1.7581999 -0.4719 -1.7356999 -0.508 C -1.7131999 -0.5442 -1.7017999 -0.586 -1.7014999 -0.6335 C -1.7005999 -0.6595 -1.7069999 -0.6911 -1.7205999 -0.7283 C -1.7341999 -0.76549995 -1.7603999 -0.79859996 -1.7990999 -0.8276 S -1.8943999 -0.8719 -1.9688 -0.8736 H -2.3981 V -0.0244 Z M -2.2243 -0.4998 V -0.7269 H -2.0031 C -1.9524 -0.7251 -1.9187 -0.71209997 -1.902 -0.6882 C -1.8852999 -0.6642 -1.8776 -0.64 -1.8788999 -0.6158 C -1.8788999 -0.57420003 -1.8901999 -0.54440004 -1.9129 -0.5264 C -1.9355999 -0.5083 -1.97 -0.49950004 -2.0161 -0.49990004 L -2.2243 -0.4998 L -2.2243 -0.4998 Z M -1.3531 -0.3118 L -1.2702999 -0.3969 L -1.0077999 -0.024399996 H -0.77959985 L -1.1461998 -0.5259 L -0.7996998 -0.8736 H -1.0290998 L -1.3530998 -0.52830005 V -0.8735 H -1.5304998 V -0.02429998 H -1.3530998 V -0.3118 Z M -0.5091 -0.1994 H -0.19570002 L -0.14130002 -0.024299994 H 0.051499978 L -0.24770002 -0.8735 H -0.4523 L -0.7551 -0.02429998 H -0.5683 L -0.5091 -0.1994 Z M -0.353 -0.682 H -0.35059997 L -0.24539998 -0.3462 H -0.46179998 L -0.353 -0.682 Z M 0.6838 -0.2823 H 0.6814 L 0.3444 -0.8735 H 0.15749998 V -0.02429998 H 0.32309997 V -0.6299 H 0.32549998 L 0.672 -0.02429998 H 0.8494 V -0.8735 H 0.6838 V -0.2823 Z M 0.9766 -0.2858 C 0.9754 -0.24920002 0.9838 -0.20910001 1.0019 -0.16540001 C 1.02 -0.12180001 1.0553 -0.084000014 1.1078999 -0.052200012 C 1.1603999 -0.02020001 1.2376999 -0.0035000108 1.3396999 -0.0020000115 C 1.3672999 -7.000115E-4 1.4072999 -0.0058000116 1.4595999 -0.017300012 C 1.5118998 -0.02880001 1.5600998 -0.054500014 1.6040999 -0.09430001 C 1.6481999 -0.1341 1.6715999 -0.19600001 1.6742998 -0.2799 C 1.6722999 -0.3544 1.6496998 -0.40790004 1.6065998 -0.4406 C 1.5634998 -0.47320002 1.5119998 -0.49580002 1.4519998 -0.5082 L 1.2449998 -0.559 C 1.2257998 -0.5622 1.2062998 -0.5697 1.1867998 -0.5816 C 1.1671997 -0.5935 1.1565998 -0.61550003 1.1551998 -0.6477 C 1.1571997 -0.68560004 1.1732998 -0.7121 1.2037997 -0.7274 C 1.2343997 -0.7426 1.2673998 -0.75 1.3029997 -0.7494 C 1.3776997 -0.7464 1.4254997 -0.7299 1.4461998 -0.6997 C 1.4669998 -0.6695 1.4771998 -0.6435 1.4767997 -0.6217 H 1.6470997 C 1.6474997 -0.65779996 1.6378998 -0.69699997 1.6184998 -0.7391 C 1.5990998 -0.7812 1.5652997 -0.8175 1.5170997 -0.84809995 C 1.4689997 -0.87869996 1.4018997 -0.89469993 1.3158997 -0.8960999 C 1.2250997 -0.8945999 1.1560998 -0.8790999 1.1087997 -0.8493999 C 1.0614997 -0.81969994 1.0295997 -0.78479993 1.0128996 -0.74459994 C 0.9962996 -0.70439994 0.98849964 -0.66779995 0.9894996 -0.63479996 C 0.99209964 -0.54459995 1.0199996 -0.48369998 1.0728996 -0.45189995 C 1.1256995 -0.42009994 1.1878996 -0.39789996 1.2590996 -0.38519996 L 1.3500996 -0.36389998 C 1.3958995 -0.35439998 1.4326996 -0.34239998 1.4606996 -0.32809997 C 1.4886996 -0.31379998 1.5030996 -0.29069996 1.5037996 -0.25859997 C 1.5016996 -0.21469997 1.4826995 -0.18509996 1.4465996 -0.16989997 C 1.4105996 -0.15469997 1.3705996 -0.14759997 1.3263996 -0.14859997 C 1.2511996 -0.15139997 1.2019995 -0.16829997 1.1787996 -0.19939996 C 1.1556996 -0.23049997 1.1448996 -0.25929996 1.1465997 -0.28569996 H 0.9766 L 0.9766 -0.2858 Z M 1.9901 -0.1994 H 2.3035 L 2.3579 -0.024299994 H 2.5505998 L 2.2513998 -0.8735 H 2.0467997 L 1.7440996 -0.02429998 H 1.9309996 L 1.9901 -0.1994 Z M 2.1462 -0.682 H 2.1485999 L 2.2538 -0.3462 H 2.0374 L 2.1462 -0.682 Z M 2.6212 -0.2858 C 2.6200001 -0.24920002 2.6284 -0.20910001 2.6464 -0.16540001 C 2.6645 -0.12180001 2.6998 -0.084000014 2.7523 -0.052200012 C 2.8048 -0.02020001 2.8821 -0.0035000108 2.9842 -0.0020000115 C 3.0117 -7.000115E-4 3.0517 -0.0058000116 3.104 -0.017300012 S 3.2046 -0.054500014 3.2486 -0.09430001 C 3.2927 -0.1341 3.3161001 -0.19600001 3.3189 -0.2799 C 3.3168 -0.3544 3.2943 -0.40790004 3.2512002 -0.4406 C 3.2081003 -0.47320002 3.1566002 -0.49580002 3.0966003 -0.5082 L 2.8896003 -0.559 C 2.8703003 -0.5622 2.8509002 -0.5697 2.8314004 -0.5816 S 2.8013003 -0.61550003 2.7998004 -0.6477 C 2.8018005 -0.68560004 2.8180003 -0.7121 2.8484004 -0.7274 C 2.8789003 -0.7427 2.9119003 -0.75 2.9476004 -0.7494 C 3.0223002 -0.7464 3.0700004 -0.7299 3.0908003 -0.6997 C 3.1116004 -0.6695 3.1217003 -0.6435 3.1214004 -0.6217 H 3.2917004 C 3.2921004 -0.65779996 3.2825003 -0.69699997 3.2631004 -0.7391 C 3.2437005 -0.7812 3.2099004 -0.8175 3.1618004 -0.84809995 C 3.1136005 -0.87869996 3.0465004 -0.89469993 2.9606004 -0.8960999 C 2.8698003 -0.8945999 2.8008003 -0.8790999 2.7535005 -0.8493999 C 2.7062004 -0.81969994 2.6743004 -0.78479993 2.6576004 -0.74459994 C 2.6409004 -0.70439994 2.6332004 -0.66779995 2.6342003 -0.63479996 C 2.6368003 -0.54459995 2.6647003 -0.48369998 2.7176003 -0.45189995 C 2.7705004 -0.42009994 2.8326004 -0.39789996 2.9038002 -0.38519996 L 2.9948003 -0.36389998 C 3.0406003 -0.35439998 3.0774002 -0.34239998 3.1054003 -0.32809997 C 3.1334004 -0.31379998 3.1478002 -0.29069996 3.1485004 -0.25859997 C 3.1463006 -0.21469997 3.1273005 -0.18509996 3.0913005 -0.16989997 C 3.0553005 -0.15469997 3.0152004 -0.14759997 2.9711006 -0.14859997 C 2.8959005 -0.15139997 2.8467007 -0.16829997 2.8236005 -0.19939996 C 2.8005006 -0.23049997 2.7897005 -0.25929996 2.7914004 -0.28569996 H 2.6212 L 2.6212 -0.2858 Z"/>
<linearGradient id="glaze" x1="0%" y1="0%" x2="100%" y2="100%">
<stop offset="0%" stop-color="rgb(255,255,255)" stop-opacity="0.2"/>
<stop offset="49.999%" stop-color="rgb(255,255,255)" stop-opacity="0.0"/>
<stop offset="50.001%" stop-color="rgb(0,0,0)" stop-opacity="0.0"/>
<stop offset="100%" stop-color="rgb(0,0,0)" stop-opacity="0.2"/>
</linearGradient>
</defs>
<g>
<rect x="0" y="0" width="600" height="360" class="red"/>
<path d="M 300 30 L 550 180 L 300 330 L 50 180 Z" class="blue"/>
<path d="M 300 67.2 L 488 180 L 300 292.8 L 112 180 Z" class="white"/>
<use xlink:href="#star" transform="translate(86.6667 180) scale(11.274 11.274) rotate(-90)" class="white"/>
<use xlink:href="#star" transform="translate(120 156.09) scale(11.274 11.274) rotate(90)" class="white"/>
<use xlink:href="#star" transform="translate(156 134.49) scale(11.274 11.274) rotate(90)" class="white"/>
<use xlink:href="#star" transform="translate(192 112.89) scale(11.274 11.274) rotate(90)" class="white"/>
<use xlink:href="#star" transform="translate(228 92.49) scale(11.274 11.274) rotate(90)" class="white"/>
<use xlink:href="#star" transform="translate(264 70.89) scale(11.274 11.274) rotate(90)" class="white"/>
<use xlink:href="#star" transform="translate(300 50.874) scale(11.274 11.274) rotate(0)" class="white"/>
<use xlink:href="#star" transform="translate(336 70.89) scale(11.274 11.274) rotate(-90)" class="white"/>
<use xlink:href="#star" transform="translate(372 92.49) scale(11.274 11.274) rotate(-90)" class="white"/>
<use xlink:href="#star" transform="translate(408 112.89) scale(11.274 11.274) rotate(-90)" class="white"/>
<use xlink:href="#star" transform="translate(444 134.49) scale(11.274 11.274) rotate(-90)" class="white"/>
<use xlink:href="#star" transform="translate(480 156.09) scale(11.274 11.274) rotate(-90)" class="white"/>
<use xlink:href="#star" transform="translate(513.3333 180) scale(11.274 11.274) rotate(90)" class="white"/>
<use xlink:href="#star" transform="translate(118.6667 200.49) scale(11.274 11.274) rotate(-90)" class="white"/>
<use xlink:href="#star" transform="translate(150.6667 219.69) scale(11.274 11.274) rotate(-90)" class="white"/>
<use xlink:href="#star" transform="translate(182.6667 238.89) scale(11.274 11.274) rotate(-90)" class="white"/>
<use xlink:href="#star" transform="translate(214.6667 259.29) scale(11.274 11.274) rotate(-90)" class="white"/>
<use xlink:href="#star" transform="translate(246.6667 278.49) scale(11.274 11.274) rotate(-90)" class="white"/>
<use xlink:href="#star" transform="translate(278.6667 298.89) scale(11.274 11.274) rotate(-90)" class="white"/>
<use xlink:href="#star" transform="translate(321.3333 298.89) scale(11.274 11.274) rotate(90)" class="white"/>
<use xlink:href="#star" transform="translate(353.3333 278.49) scale(11.274 11.274) rotate(90)" class="white"/>
<use xlink:href="#star" transform="translate(385.3333 259.29) scale(11.274 11.274) rotate(90)" class="white"/>
<use xlink:href="#star" transform="translate(417.3333 238.89) scale(11.274 11.274) rotate(90)" class="white"/>
<use xlink:href="#star" transform="translate(449.3333 219.69) scale(11.274 11.274) rotate(90)" class="white"/>
<use xlink:href="#star" transform="translate(481.3333 200.49) scale(11.274 11.274) rotate(90)" class="white"/>
<use xlink:href="#star" transform="translate(300 109.902) scale(19.902 19.902) rotate(0)" class="blue"/>
<use xlink:href="#star" transform="translate(257.3333 211.902) scale(19.902 19.902) rotate(0)" class="blue"/>
<use xlink:href="#star" transform="translate(342.6667 211.902) scale(19.902 19.902) rotate(0)" class="blue"/>
<use xlink:href="#star" transform="translate(300 244.11) scale(19.902 19.902) rotate(180)" class="blue"/>
<use xlink:href="#text" transform="translate(300 180) scale(30 30) rotate(0)" class="blue"/>
</g>
<g>
<rect x="0" y="0" width="600" height="360" fill="url(#glaze)"/>
<path d="M 30 30 L 570 30 L 570 330 L 30 330 Z M 60 60 L 60 300 L 540 300 L 540 60 Z" fill="rgb(255,255,255)" opacity="0.4"/>
<path d="M 0 0 L 600 0 L 600 360 L 0 360 Z M 30 30 L 30 330 L 570 330 L 570 30 Z" fill="rgb(0,0,0)" opacity="0.4"/>
</g>
</svg>
