<?xml version="1.0"?>
<svg xmlns="http://www.w3.org/2000/svg" xmlns:xlink="http://www.w3.org/1999/xlink" version="1.1" width="600" height="360" viewBox="0 0 600 360">
<!-- Generated by Kreative Vexillo v1.0 -->
<style>
.black{fill:rgb(0,0,0);}
.red{fill:rgb(152,30,50);}
.white{fill:rgb(255,255,255);}
.yellow{fill:rgb(234,171,0);}
</style>
<defs>
<path id="hcross" d="M -0.5 0.5 V 0.98440003 C -0.5 1.2605001 -0.2762 1.4844 0.0 1.4844 S 0.5 1.2605001 0.5 0.98440003 V 0.5 H 0.9375 C 1.2137 0.5 1.4375 0.27609998 1.4375 0.0 S 1.2137 -0.5 0.9375 -0.5 H 0.5 V -0.98440003 C 0.5 -1.2605001 0.2762 -1.4844 0.0 -1.4844 S -0.5 -1.2605001 -0.5 -0.98440003 V -0.5 V 0.5 Z"/>
<path id="vcross" d="M 0.5 0.5 H 0.98440003 C 1.2606001 0.5 1.4844 0.27609998 1.4844 0.0 S 1.2606001 -0.5 0.98440003 -0.5 H 0.5 V -0.75 C 0.5 -1.0261 0.2762 -1.25 0.0 -1.25 S -0.5 -1.0261 -0.5 -0.75 V -0.5 H -0.98440003 C -1.2606001 -0.5 -1.4844 -0.27609998 -1.4844 0.0 S -1.2606001 0.5 -0.98440003 0.5 H -0.5 H 0.5 Z"/>
<clipPath id="clip0">
<path d="M 0 0 L 50 0 L 600 330 L 600 360 L 550 360 L 0 30 Z"/>
</clipPath>
<clipPath id="clip1">
<rect x="0" y="180" width="150" height="90"/>
<rect x="150" y="270" width="150" height="90"/>
<rect x="300" y="0" width="150" height="90"/>
<rect x="450" y="90" width="150" height="90"/>
</clipPath>
<clipPath id="clip2">
<rect x="150" y="180" width="150" height="90"/>
<rect x="0" y="270" width="150" height="90"/>
<rect x="450" y="0" width="150" height="90"/>
<rect x="300" y="90" width="150" height="90"/>
</clipPath>
<linearGradient id="glaze" x1="0%" y1="0%" x2="100%" y2="100%">
<stop offset="0%" stop-color="rgb(255,255,255)" stop-opacity="0.2"/>
<stop offset="49.999%" stop-color="rgb(255,255,255)" stop-opacity="0.0"/>
<stop offset="50.001%" stop-color="rgb(0,0,0)" stop-opacity="0.0"/>
<stop offset="100%" stop-color="rgb(0,0,0)" stop-opacity="0.2"/>
</linearGradient>
</defs>
<g>
<g>
<g>
<rect x="0" y="0" width="50" height="360" class="yellow"/>
<rect x="50" y="0" width="50" height="360" class="black"/>
<rect x="100" y="0" width="50" height="360" class="yellow"/>
<rect x="150" y="0" width="50" height="360" class="black"/>
<rect x="200" y="0" width="50" height="360" class="yellow"/>
<rect x="250" y="0" width="50" height="360" class="black"/>
<rect x="300" y="0" width="50" height="360" class="yellow"/>
<rect x="350" y="0" width="50" height="360" class="black"/>
<rect x="400" y="0" width="50" height="360" class="yellow"/>
<rect x="450" y="0" width="50" height="360" class="black"/>
<rect x="500" y="0" width="50" height="360" class="yellow"/>
<rect x="550" y="0" width="50" height="360" class="black"/>
</g>
<g clip-path="url(#clip0)">
<g>
<rect x="0" y="0" width="50" height="360" class="black"/>
<rect x="50" y="0" width="50" height="360" class="yellow"/>
<rect x="100" y="0" width="50" height="360" class="black"/>
<rect x="150" y="0" width="50" height="360" class="yellow"/>
<rect x="200" y="0" width="50" height="360" class="black"/>
<rect x="250" y="0" width="50" height="360" class="yellow"/>
<rect x="300" y="0" width="50" height="360" class="black"/>
<rect x="350" y="0" width="50" height="360" class="yellow"/>
<rect x="400" y="0" width="50" height="360" class="black"/>
<rect x="450" y="0" width="50" height="360" class="yellow"/>
<rect x="500" y="0" width="50" height="360" class="black"/>
<rect x="550" y="0" width="50" height="360" class="yellow"/>
</g>
</g>
</g>
<g>
<rect x="0" y="180" width="150" height="90" class="white"/>
<rect x="150" y="180" width="150" height="90" class="red"/>
<rect x="0" y="270" width="150" height="90" class="red"/>
<rect x="150" y="270" width="150" height="90" class="white"/>
</g>
<g>
<rect x="300" y="0" width="150" height="90" class="white"/>
<rect x="450" y="0" width="150" height="90" class="red"/>
<rect x="300" y="90" width="150" height="90" class="red"/>
<rect x="450" y="90" width="150" height="90" class="white"/>
</g>
<g clip-path="url(#clip1)">
<g>
<rect x="45" y="258.48" width="210" height="23.04" class="red"/>
<rect x="138.48" y="221.4" width="23.04" height="97.2" class="red"/>
</g>
<g>
<rect x="345" y="78.48" width="210" height="23.04" class="red"/>
<rect x="438.48" y="41.4" width="23.04" height="97.2" class="red"/>
</g>
<use xlink:href="#hcross" transform="translate(255 270) scale(23.04 23.04) rotate(0)" class="red"/>
<use xlink:href="#hcross" transform="translate(45 270) scale(23.04 23.04) rotate(180)" class="red"/>
<use xlink:href="#hcross" transform="translate(555 90) scale(23.04 23.04) rotate(0)" class="red"/>
<use xlink:href="#hcross" transform="translate(345 90) scale(23.04 23.04) rotate(180)" class="red"/>
<use xlink:href="#vcross" transform="translate(150 221.4) scale(23.04 23.04) rotate(0)" class="red"/>
<use xlink:href="#vcross" transform="translate(150 318.6) scale(23.04 23.04) rotate(180)" class="red"/>
<use xlink:href="#vcross" transform="translate(450 41.4) scale(23.04 23.04) rotate(0)" class="red"/>
<use xlink:href="#vcross" transform="translate(450 138.6) scale(23.04 23.04) rotate(180)" class="red"/>
</g>
<g clip-path="url(#clip2)">
<g>
<rect x="45" y="258.48" width="210" height="23.04" class="white"/>
<rect x="138.48" y="221.4" width="23.04" height="97.2" class="white"/>
</g>
<g>
<rect x="345" y="78.48" width="210" height="23.04" class="white"/>
<rect x="438.48" y="41.4" width="23.04" height="97.2" class="white"/>
</g>
<use xlink:href="#hcross" transform="translate(255 270) scale(23.04 23.04) rotate(0)" class="white"/>
<use xlink:href="#hcross" transform="translate(45 270) scale(23.04 23.04) rotate(180)" class="white"/>
<use xlink:href="#hcross" transform="translate(555 90) scale(23.04 23.04) rotate(0)" class="white"/>
<use xlink:href="#hcross" transform="translate(345 90) scale(23.04 23.04) rotate(180)" class="white"/>
<use xlink:href="#vcross" transform="translate(150 221.4) scale(23.04 23.04) rotate(0)" class="white"/>
<use xlink:href="#vcross" transform="translate(150 318.6) scale(23.04 23.04) rotate(180)" class="white"/>
<use xlink:href="#vcross" transform="translate(450 41.4) scale(23.04 23.04) rotate(0)" class="white"/>
<use xlink:href="#vcross" transform="translate(450 138.6) scale(23.04 23.04) rotate(180)" class="white"/>
</g>
</g>
<g>
<rect x="0" y="0" width="600" height="360" fill="url(#glaze)"/>
<path d="M 30 30 L 570 30 L 570 330 L 30 330 Z M 60 60 L 60 300 L 540 300 L 540 60 Z" fill="rgb(255,255,255)" opacity="0.4"/>
<path d="M 0 0 L 600 0 L 600 360 L 0 360 Z M 30 30 L 30 330 L 570 330 L 570 30 Z" fill="rgb(0,0,0)" opacity="0.4"/>
</g>
</svg>
