<?xml version="1.0"?>
<svg xmlns="http://www.w3.org/2000/svg" xmlns:xlink="http://www.w3.org/1999/xlink" version="1.1" width="600" height="360" viewBox="0 0 600 360">
<!-- Generated by Kreative Vexillo v1.0 -->
<style>
.blue{fill:rgb(0,0,204);}
.red{fill:rgb(255,0,0);}
.yellow{fill:rgb(255,255,0);}
</style>
<defs>
<linearGradient id="glaze" x1="0%" y1="0%" x2="100%" y2="100%">
<stop offset="0%" stop-color="rgb(255,255,255)" stop-opacity="0.2"/>
<stop offset="49.999%" stop-color="rgb(255,255,255)" stop-opacity="0.0"/>
<stop offset="50.001%" stop-color="rgb(0,0,0)" stop-opacity="0.0"/>
<stop offset="100%" stop-color="rgb(0,0,0)" stop-opacity="0.2"/>
</linearGradient>
</defs>
<g>
<rect x="0" y="0" width="600" height="360" class="blue"/>
<path d="M 0 0 L 0 29.0651 L 0 29.0651 L 251.5582 180 L 251.5582 180 L 0 330.9349 L 0 330.9349 L 0 360 L 48.4418 360 L 300 209.0651 L 551.5582 360 L 600 360 L 600 330.9349 L 348.4418 180 L 600 29.065 L 600 0 L 551.5582 0 L 300 150.9349 L 300 150.9349 L 300 150.9349 L 300 150.9349 L 48.4418 0 Z" class="yellow"/>
<g>
<rect x="0" y="155.0769" width="600" height="49.8462" class="yellow"/>
<rect x="275.0769" y="0" width="49.8462" height="360" class="yellow"/>
</g>
<path d="M 0 0 L 0 19.3767 L 0 19.3767 L 267.7055 180 L 0 340.6233 L 0 340.6233 L 0 360 L 32.2945 360 L 300 199.3767 L 567.7055 360 L 600 360 L 600 340.6233 L 332.2945 180 L 600 19.3767 L 600 0 L 567.7055 0 L 300 160.6233 L 300 160.6233 L 300 160.6233 L 300 160.6233 L 300 160.6233 L 300 160.6233 L 32.2945 0 Z" class="red"/>
<g>
<rect x="0" y="163.3846" width="600" height="33.2308" class="red"/>
<rect x="283.3846" y="0" width="33.2308" height="360" class="red"/>
</g>
<ellipse cx="300" cy="180" rx="96.9231" ry="96.9231" class="yellow"/>
<ellipse cx="300" cy="180" rx="83.0769" ry="83.0769" class="red"/>
</g>
<g>
<rect x="0" y="0" width="600" height="360" fill="url(#glaze)"/>
<path d="M 30 30 L 570 30 L 570 330 L 30 330 Z M 60 60 L 60 300 L 540 300 L 540 60 Z" fill="rgb(255,255,255)" opacity="0.4"/>
<path d="M 0 0 L 600 0 L 600 360 L 0 360 Z M 30 30 L 30 330 L 570 330 L 570 30 Z" fill="rgb(0,0,0)" opacity="0.4"/>
</g>
</svg>
