<?xml version="1.0"?>
<svg xmlns="http://www.w3.org/2000/svg" xmlns:xlink="http://www.w3.org/1999/xlink" version="1.1" width="600" height="360" viewBox="0 0 600 360">
<!-- Generated by Kreative Vexillo v1.0 -->
<style>
.blue{fill:rgb(0,0,255);}
.red{fill:rgb(255,0,0);}
.white{fill:rgb(255,255,255);}
</style>
<defs>
<path id="arrow" d="M 0.0 0.0 L 0.5 1.0 L 0.0 0.8 L -0.5 1.0 Z"/>
<path id="ring" d="M 0.5 0.0 A 0.5 0.5 0.0 0 0 -0.5 0.0 A 0.5 0.5 0.0 0 0 0.5 0.0 Z M 0.416667 0.0 A 0.416667 0.416667 0.0 0 1 -0.416667 0.0 A 0.416667 0.416667 0.0 0 1 0.416667 0.0 Z"/>
<linearGradient id="glaze" x1="0%" y1="0%" x2="100%" y2="100%">
<stop offset="0%" stop-color="rgb(255,255,255)" stop-opacity="0.2"/>
<stop offset="49.999%" stop-color="rgb(255,255,255)" stop-opacity="0.0"/>
<stop offset="50.001%" stop-color="rgb(0,0,0)" stop-opacity="0.0"/>
<stop offset="100%" stop-color="rgb(0,0,0)" stop-opacity="0.2"/>
</linearGradient>
</defs>
<g>
<rect x="0" y="0" width="600" height="360" class="white"/>
<use xlink:href="#ring" transform="translate(230.7 180) scale(237.6 237.6) rotate(0)" class="blue"/>
<use xlink:href="#ring" transform="translate(369.3 180) scale(237.6 237.6) rotate(0)" class="blue"/>
<g>
<rect x="54.675" y="170.1" width="490.65" height="19.8" class="red"/>
<rect x="290.1" y="41.4" width="19.8" height="277.2" class="red"/>
</g>
<use xlink:href="#arrow" transform="translate(300 11.7) scale(59.4 44.55) rotate(0)" class="red"/>
<use xlink:href="#arrow" transform="translate(300 348.3) scale(59.4 44.55) rotate(180)" class="red"/>
<use xlink:href="#arrow" transform="translate(32.4 180) scale(44.55 59.4) rotate(270)" class="red"/>
<use xlink:href="#arrow" transform="translate(567.6 180) scale(44.55 59.4) rotate(90)" class="red"/>
</g>
<g>
<rect x="0" y="0" width="600" height="360" fill="url(#glaze)"/>
<path d="M 30 30 L 570 30 L 570 330 L 30 330 Z M 60 60 L 60 300 L 540 300 L 540 60 Z" fill="rgb(255,255,255)" opacity="0.4"/>
<path d="M 0 0 L 600 0 L 600 360 L 0 360 Z M 30 30 L 30 330 L 570 330 L 570 30 Z" fill="rgb(0,0,0)" opacity="0.4"/>
</g>
</svg>
