<?xml version="1.0"?>
<svg xmlns="http://www.w3.org/2000/svg" xmlns:xlink="http://www.w3.org/1999/xlink" version="1.1" width="600" height="360" viewBox="0 0 600 360">
<!-- Generated by Kreative Vexillo v1.0 -->
<style>
.blue{fill:rgb(0,0,255);}
.green{fill:rgb(0,255,0);}
</style>
<defs>
<path id="-glazearea" d="M 0.0 0.0 L 1.0 0.0 L 0.75 0.5 L 1.0 1.0 L 0.0 1.0 Z"/>
<clipPath id="clip0">
<path d="M 0 0 L 600 0 L 450 180 L 600 360 L 0 360 Z"/>
</clipPath>
<linearGradient id="glaze" x1="0%" y1="0%" x2="100%" y2="100%">
<stop offset="0%" stop-color="rgb(255,255,255)" stop-opacity="0.2"/>
<stop offset="49.999%" stop-color="rgb(255,255,255)" stop-opacity="0.0"/>
<stop offset="50.001%" stop-color="rgb(0,0,0)" stop-opacity="0.0"/>
<stop offset="100%" stop-color="rgb(0,0,0)" stop-opacity="0.2"/>
</linearGradient>
</defs>
<g>
<g clip-path="url(#clip0)">
<g>
<rect x="0" y="0" width="100" height="360" class="green"/>
<rect x="100" y="0" width="100" height="360" class="blue"/>
<rect x="200" y="0" width="100" height="360" class="green"/>
<rect x="300" y="0" width="100" height="360" class="blue"/>
<rect x="400" y="0" width="100" height="360" class="green"/>
<rect x="500" y="0" width="100" height="360" class="blue"/>
</g>
</g>
</g>
<g>
<path d="M 0 0 L 600 0 L 450 180 L 600 360 L 0 360 Z" fill="url(#glaze)"/>
<path d="M 471.8975 60 L 403.9067 141.5889 L 371.8975 180 L 403.9067 218.4111 L 471.8975 300 L 60 300 L 60 60 Z M 30 30 L 30 330 L 535.9488 330 L 426.9534 199.2055 L 410.9487 180 L 426.9534 160.7945 L 535.9488 30 Z" fill="rgb(255,255,255)" opacity="0.4"/>
<path d="M 535.9488 30 L 426.9534 160.7945 L 410.9487 180 L 426.9534 199.2055 L 535.9488 330 L 30 330 L 30 30 Z M 0 0 L 0 360 L 600 360 L 450 180 L 600 0 Z" fill="rgb(0,0,0)" opacity="0.4"/>
</g>
</svg>
