<?xml version="1.0"?>
<svg xmlns="http://www.w3.org/2000/svg" xmlns:xlink="http://www.w3.org/1999/xlink" version="1.1" width="600" height="360" viewBox="0 0 600 360">
<!-- Generated by Kreative Vexillo v1.0 -->
<style>
.gray{fill:rgb(153,153,153);}
</style>
<defs>
<path id="-glazearea" d="M 0.0 0.0 L 1.0 0.25 L 1.0 0.75 L 0.0 1.0 Z"/>
<linearGradient id="glaze" x1="0%" y1="0%" x2="100%" y2="100%">
<stop offset="0%" stop-color="rgb(255,255,255)" stop-opacity="0.2"/>
<stop offset="49.999%" stop-color="rgb(255,255,255)" stop-opacity="0.0"/>
<stop offset="50.001%" stop-color="rgb(0,0,0)" stop-opacity="0.0"/>
<stop offset="100%" stop-color="rgb(0,0,0)" stop-opacity="0.2"/>
</linearGradient>
</defs>
<g>
<path d="M 0 0 L 600 90 L 600 270 L 0 360 Z" class="gray"/>
</g>
<g>
<path d="M 0 0 L 600 90 L 600 270 L 0 360 Z" fill="url(#glaze)"/>
<path d="M 60 69.6712 L 540 141.6712 L 540 141.6712 L 540 218.3288 L 540 218.3288 L 60 290.3288 L 60 290.3288 L 60 69.6712 Z M 30 34.8356 L 30 325.1644 L 30 325.1644 L 570 244.1644 L 570 115.8356 L 30 34.8356 Z" fill="rgb(255,255,255)" opacity="0.4"/>
<path d="M 30 34.8356 L 570 115.8356 L 570 244.1644 L 30 325.1644 L 30 325.1644 L 30 34.8356 Z M 0 0 L 0 360 L 600 270 L 600 90 L 0 0 Z" fill="rgb(0,0,0)" opacity="0.4"/>
</g>
</svg>
