<?xml version="1.0"?>
<svg xmlns="http://www.w3.org/2000/svg" xmlns:xlink="http://www.w3.org/1999/xlink" version="1.1" width="600" height="360" viewBox="0 0 600 360">
<!-- Generated by Kreative Vexillo v1.0 -->
<style>
.black{fill:rgb(0,0,0);}
.white{fill:rgb(255,255,255);}
</style>
<defs>
<path id="-glazearea" d="M 0.0 0.0 L 1.0 0.5 L 0.0 1.0 Z"/>
<clipPath id="clip0">
<path d="M 0 0 L 600 180 L 0 360 Z"/>
</clipPath>
<linearGradient id="glaze" x1="0%" y1="0%" x2="100%" y2="100%">
<stop offset="0%" stop-color="rgb(255,255,255)" stop-opacity="0.2"/>
<stop offset="49.999%" stop-color="rgb(255,255,255)" stop-opacity="0.0"/>
<stop offset="50.001%" stop-color="rgb(0,0,0)" stop-opacity="0.0"/>
<stop offset="100%" stop-color="rgb(0,0,0)" stop-opacity="0.2"/>
</linearGradient>
</defs>
<g>
<g clip-path="url(#clip0)">
<g>
<rect x="0" y="0" width="600" height="120" class="white"/>
<rect x="0" y="120" width="600" height="120" class="black"/>
<rect x="0" y="240" width="600" height="120" class="white"/>
</g>
</g>
</g>
<g>
<path d="M 0 0 L 600 180 L 0 360 Z" fill="url(#glaze)"/>
<path d="M 60 80.6418 L 391.1939 180 L 60 279.3582 L 60 279.3582 L 60 80.6418 Z M 30 40.3209 L 30 319.6791 L 30 319.6791 L 495.5969 180 L 495.5969 180 L 30 40.3209 Z" fill="rgb(255,255,255)" opacity="0.4"/>
<path d="M 30 40.3209 L 495.5969 180 L 495.5969 180 L 30 319.6791 L 30 319.6791 L 30 40.3209 Z M 0 0 L 0 360 L 600 180 L 0 0 Z" fill="rgb(0,0,0)" opacity="0.4"/>
</g>
</svg>
