<?xml version="1.0"?>
<svg xmlns="http://www.w3.org/2000/svg" xmlns:xlink="http://www.w3.org/1999/xlink" version="1.1" width="600" height="360" viewBox="0 0 600 360">
<!-- Generated by Kreative Vexillo v1.0 -->
<style>
.blue{fill:rgb(0,73,144);}
.white{fill:rgb(255,255,255);}
</style>
<defs>
<path id="compass" d="M 0.0012 0.5283 V 0.0036 L 0.096 0.098400004 L 0.4675 0.0157 C 0.4716 0.0157 0.4716 0.019499999 0.4675 0.019499999 L 0.1199 0.13 L 0.0012 0.5283 Z M 0.0683 0.4019 C 0.2344 0.3745 0.3687 0.2443 0.4003 0.07459998 L 0.36879998 0.08669998 C 0.33699998 0.22839998 0.22239998 0.343 0.076299995 0.37449998 L 0.0683 0.4019 Z"/>
<linearGradient id="glaze" x1="0%" y1="0%" x2="100%" y2="100%">
<stop offset="0%" stop-color="rgb(255,255,255)" stop-opacity="0.2"/>
<stop offset="49.999%" stop-color="rgb(255,255,255)" stop-opacity="0.0"/>
<stop offset="50.001%" stop-color="rgb(0,0,0)" stop-opacity="0.0"/>
<stop offset="100%" stop-color="rgb(0,0,0)" stop-opacity="0.2"/>
</linearGradient>
</defs>
<g>
<rect x="0" y="0" width="600" height="360" class="blue"/>
<use xlink:href="#compass" transform="translate(300 180) scale(171 171) rotate(0)" class="white"/>
<use xlink:href="#compass" transform="translate(300 180) scale(171 171) rotate(90)" class="white"/>
<use xlink:href="#compass" transform="translate(300 180) scale(171 171) rotate(180)" class="white"/>
<use xlink:href="#compass" transform="translate(300 180) scale(171 171) rotate(270)" class="white"/>
<path d="M 297.984 78 L 297.984 78 L 297.984 36 L 302.016 36 L 302.016 78 Z" class="white"/>
<path d="M 302.016 282 L 302.016 282 L 302.016 324 L 297.984 324 L 297.984 282 Z" class="white"/>
<path d="M 198 182.016 L 198 182.016 L 36 182.016 L 36 177.984 L 198 177.984 Z" class="white"/>
<path d="M 402 177.984 L 402 177.984 L 564 177.984 L 564 182.016 L 402 182.016 Z" class="white"/>
</g>
<g>
<rect x="0" y="0" width="600" height="360" fill="url(#glaze)"/>
<path d="M 30 30 L 570 30 L 570 330 L 30 330 Z M 60 60 L 60 300 L 540 300 L 540 60 Z" fill="rgb(255,255,255)" opacity="0.4"/>
<path d="M 0 0 L 600 0 L 600 360 L 0 360 Z M 30 30 L 30 330 L 570 330 L 570 30 Z" fill="rgb(0,0,0)" opacity="0.4"/>
</g>
</svg>
