<?xml version="1.0"?>
<svg xmlns="http://www.w3.org/2000/svg" xmlns:xlink="http://www.w3.org/1999/xlink" version="1.1" width="600" height="360" viewBox="0 0 600 360">
<!-- Generated by Kreative Vexillo v1.0 -->
<style>
.green{fill:rgb(0,204,0);}
.white{fill:rgb(255,255,255);}
</style>
<defs>
<path id="halla" d="M 0.0 0.0 L 0.25 0.0 L 0.25 0.6069 L 0.75 0.0 L 1.0 0.0 L 1.0 1.0 L 0.75 1.0 L 0.75 0.3931 L 0.25 1.0 L 0.0 1.0 Z"/>
<linearGradient id="glaze" x1="0%" y1="0%" x2="100%" y2="100%">
<stop offset="0%" stop-color="rgb(255,255,255)" stop-opacity="0.2"/>
<stop offset="49.999%" stop-color="rgb(255,255,255)" stop-opacity="0.0"/>
<stop offset="50.001%" stop-color="rgb(0,0,0)" stop-opacity="0.0"/>
<stop offset="100%" stop-color="rgb(0,0,0)" stop-opacity="0.2"/>
</linearGradient>
</defs>
<g>
<rect x="0" y="0" width="600" height="360" class="white"/>
<g>
<rect x="0" y="135" width="90" height="45" class="green"/>
</g>
<g>
<rect x="180" y="270" width="420" height="45" class="green"/>
</g>
<use xlink:href="#halla" transform="translate(45 135) scale(180 180) rotate(0)" class="green"/>
</g>
<g>
<rect x="0" y="0" width="600" height="360" fill="url(#glaze)"/>
<path d="M 30 30 L 570 30 L 570 330 L 30 330 Z M 60 60 L 60 300 L 540 300 L 540 60 Z" fill="rgb(255,255,255)" opacity="0.4"/>
<path d="M 0 0 L 600 0 L 600 360 L 0 360 Z M 30 30 L 30 330 L 570 330 L 570 30 Z" fill="rgb(0,0,0)" opacity="0.4"/>
</g>
</svg>
