<?xml version="1.0"?>
<svg xmlns="http://www.w3.org/2000/svg" xmlns:xlink="http://www.w3.org/1999/xlink" version="1.1" width="600" height="360" viewBox="0 0 600 360">
<!-- Generated by Kreative Vexillo v1.0 -->
<style>
.CajunPink{fill:rgb(247,213,204);}
.CharlestonGreen{fill:rgb(38,47,46);}
.ForrestGreen{fill:rgb(25,75,9);}
.white{fill:rgb(255,255,255);}
.yellow{fill:rgb(178,179,0);}
</style>
<defs>
<path id="magnolia1" d="M -0.2758 -0.0032 C -0.308 -0.0254 -0.32639998 -0.057299998 -0.33789998 -0.0937 C -0.34399998 -0.112900004 -0.34769997 -0.1326 -0.34859997 -0.1528 C -0.34919998 -0.1672 -0.35229996 -0.18059999 -0.36029997 -0.1927 C -0.3645 -0.1991 -0.3645 -0.203 -0.35539997 -0.2028 C -0.33799997 -0.2025 -0.32279998 -0.20930001 -0.30739996 -0.2167 C -0.26139995 -0.2389 -0.21349996 -0.2518 -0.16179995 -0.2446 C -0.14619996 -0.24239999 -0.13139996 -0.2373 -0.11669995 -0.232 L 0.17950006 -0.2446 C 0.23980007 -0.2639 0.29770005 -0.2536 0.35390007 -0.2289 C 0.36990008 -0.2219 0.38580006 -0.2159 0.40350008 -0.2164 C 0.41060007 -0.2166 0.4122001 -0.214 0.4084001 -0.2079 C 0.3998001 -0.1941 0.3982001 -0.1789 0.39760008 -0.163 C 0.39630008 -0.1273 0.3887001 -0.093 0.37120008 -0.061500005 C 0.35790008 -0.037600003 0.3398001 -0.018100005 0.3165001 -0.003600005 L 0.1794001 0.2399 C 0.1689001 0.2923 0.1363001 0.32909998 0.0947001 0.3596 C 0.073900096 0.3748 0.0488001 0.38500002 0.035900097 0.4137 C 0.023200098 0.3862 -9.999014E-4 0.3772 -0.021599904 0.3637 C -0.045599904 0.348 -0.0670999 0.3296 -0.08469991 0.3068 C -0.102599904 0.28370002 -0.11249991 0.2574 -0.11649991 0.22870001 L -0.2758 -0.0032 Z"/>
<path id="magnolia2" d="M 0.3165 -0.0035 C 0.3169 -0.0024 0.3194 -7.000002E-4 0.3201 -2.0000013E-4 C 0.3747 0.033800002 0.3917 0.086899996 0.39740002 0.1472 C 0.3993 0.1671 0.39760002 0.1874 0.40970004 0.2051 C 0.41290003 0.2097 0.41010004 0.2118 0.40540004 0.2115 C 0.38270003 0.2099 0.36360005 0.22070001 0.34360003 0.22870001 C 0.29380003 0.24870001 0.24270004 0.25730002 0.18960004 0.24290001 C 0.18620004 0.24200001 0.18270004 0.24100001 0.17930004 0.24000001 C 0.17840004 0.23930001 0.17760004 0.23820001 0.17650004 0.2378 C 0.12910004 0.2194 0.09570004 0.1857 0.07170004 0.1419 C 0.067600034 0.13440001 0.06350004 0.13610001 0.059700035 0.1398 C 0.052200034 0.1471 0.041800037 0.1505 0.035000034 0.15869999 C 0.032400034 0.16179998 0.029100034 0.1635 0.026000034 0.15959999 C 0.016400034 0.14789999 9.0003386E-4 0.14389999 -0.008899964 0.1325 C -0.013199965 0.1275 -0.016399965 0.13 -0.018799964 0.13489999 C -0.023399964 0.14429998 -0.028399965 0.15329999 -0.034999967 0.16149999 C -0.057499968 0.18969999 -0.08449997 0.21229999 -0.116699964 0.22869998 C -0.18309996 0.25489998 -0.24659996 0.24289998 -0.30829996 0.21309999 C -0.32369995 0.20569998 -0.33899996 0.1994 -0.35629997 0.19949998 C -0.36429995 0.19949998 -0.36529997 0.19659998 -0.36109996 0.19029997 C -0.35209996 0.17689997 -0.34999996 0.16169998 -0.34849995 0.14589998 C -0.34329996 0.08939998 -0.32789996 0.038699985 -0.28179997 0.0016999841 C -0.28029996 4.99984E-4 -0.27709997 -0.0015000158 -0.27599996 -0.0031000162 C -0.27449995 -0.0035000162 -0.27279997 -0.0036000162 -0.27149996 -0.0044000163 C -0.22669996 -0.031800017 -0.17799996 -0.042600013 -0.12579997 -0.038000014 C -0.12039997 -0.037500013 -0.11969997 -0.039700013 -0.12069997 -0.044300012 C -0.12289997 -0.054000013 -0.12449997 -0.063800015 -0.12689997 -0.073500015 C -0.12779997 -0.077000014 -0.12879997 -0.07940002 -0.123999976 -0.080500014 C -0.10799997 -0.08430001 -0.093999974 -0.093800016 -0.077799976 -0.096900016 C -0.07189997 -0.09800002 -0.07129998 -0.10000002 -0.075099975 -0.10460001 C -0.10519998 -0.14160001 -0.116899975 -0.18480001 -0.11709997 -0.23170002 C -0.10889997 -0.2953 -0.06959997 -0.3368 -0.01849997 -0.3695 C 0.0014000293 -0.3822 0.023500029 -0.39180002 0.03590003 -0.41770002 C 0.04940003 -0.38650003 0.07800003 -0.37680003 0.10020003 -0.3596 C 0.13890003 -0.3296 0.16950002 -0.2942 0.17910004 -0.24430001 C 0.17980003 -0.2352 0.18200004 -0.22580001 0.18100004 -0.2169 C 0.17640004 -0.177 0.16610004 -0.139 0.13960004 -0.107300006 C 0.13510004 -0.102000006 0.13570003 -0.098900005 0.14230004 -0.097100005 C 0.15240005 -0.0944 0.16120005 -0.088300005 0.17190003 -0.087400004 C 0.17680003 -0.087000005 0.17860003 -0.0847 0.17760004 -0.0793 C 0.17520005 -0.0668 0.17430004 -0.053900003 0.17150004 -0.041500002 C 0.16960004 -0.033 0.17280005 -0.031000003 0.17980005 -0.032700002 C 0.19830005 -0.037200004 0.21640006 -0.0331 0.23450005 -0.030400002 C 0.2636 -0.0262 0.2904 -0.0157 0.3165 -0.0035 Z M -0.0204 -0.0537 C -0.0209 -0.0552 -0.021000002 -0.057 -0.0219 -0.0582 C -0.036 -0.077700004 -0.0781 -0.082100004 -0.096099995 -0.066300005 C -0.098799996 -0.0639 -0.09899999 -0.061300006 -0.09859999 -0.057800002 C -0.09579999 -0.028200002 -0.07999999 -0.011900004 -0.04989999 -0.008200001 L -0.0029999912 0.069900006 C -0.014399991 0.098500006 0.004400009 0.1154 0.025400009 0.1298 C 0.02970001 0.13280001 0.03340001 0.1303 0.037400007 0.1277 C 0.060300007 0.112900004 0.06910001 0.092800006 0.061200008 0.0662 L 0.101500005 -0.008099996 C 0.10740001 -0.010499995 0.1132 -0.013099995 0.119200006 -0.015199996 C 0.1386 -0.022099996 0.1524 -0.043499995 0.1505 -0.0637 C 0.1502 -0.067099996 0.1494 -0.0696 0.1464 -0.0718 C 0.12550001 -0.0871 0.083000004 -0.0774 0.07090001 -0.0544 L -0.0204 -0.0537 Z"/>
<path id="magnolia3" d="M 0.1016 -0.008 C 0.0994 0.0029999996 0.1021 0.014399999 0.098299995 0.0253 C 0.091699995 0.044299997 0.0777 0.0563 0.061399996 0.066300005 C 0.040499996 0.07610001 0.018999998 0.0749 -0.0028000027 0.07000001 C -0.008500002 0.06650001 -0.014400003 0.063200004 -0.019900003 0.059300005 C -0.043300003 0.042800006 -0.052 0.019800004 -0.049700003 -0.008099996 C -0.046800002 -0.027799996 -0.033200003 -0.040499996 -0.020200003 -0.053699996 C -0.0027000029 -0.061699998 0.015099999 -0.0663 0.0349 -0.064899996 C 0.048199996 -0.063999996 0.0591 -0.057799995 0.070999995 -0.054199994 C 0.0856 -0.0418 0.0982 -0.028 0.1016 -0.008 Z"/>
<linearGradient id="glaze" x1="0%" y1="0%" x2="100%" y2="100%">
<stop offset="0%" stop-color="rgb(255,255,255)" stop-opacity="0.2"/>
<stop offset="49.999%" stop-color="rgb(255,255,255)" stop-opacity="0.0"/>
<stop offset="50.001%" stop-color="rgb(0,0,0)" stop-opacity="0.0"/>
<stop offset="100%" stop-color="rgb(0,0,0)" stop-opacity="0.2"/>
</linearGradient>
</defs>
<g>
<g>
<rect x="0" y="0" width="216" height="360" class="CharlestonGreen"/>
</g>
<g>
<rect x="216" y="0" width="384" height="72" class="ForrestGreen"/>
<rect x="216" y="72" width="384" height="72" class="CajunPink"/>
<rect x="216" y="144" width="384" height="72" class="ForrestGreen"/>
<rect x="216" y="216" width="384" height="72" class="CajunPink"/>
<rect x="216" y="288" width="384" height="72" class="ForrestGreen"/>
</g>
<use xlink:href="#magnolia1" transform="translate(108 180) scale(216 216) rotate(0)" class="CajunPink"/>
<use xlink:href="#magnolia2" transform="translate(108 180) scale(216 216) rotate(0)" class="white"/>
<use xlink:href="#magnolia3" transform="translate(108 180) scale(216 216) rotate(0)" class="yellow"/>
</g>
<g>
<rect x="0" y="0" width="600" height="360" fill="url(#glaze)"/>
<path d="M 30 30 L 570 30 L 570 330 L 30 330 Z M 60 60 L 60 300 L 540 300 L 540 60 Z" fill="rgb(255,255,255)" opacity="0.4"/>
<path d="M 0 0 L 600 0 L 600 360 L 0 360 Z M 30 30 L 30 330 L 570 330 L 570 30 Z" fill="rgb(0,0,0)" opacity="0.4"/>
</g>
</svg>
