<?xml version="1.0"?>
<svg xmlns="http://www.w3.org/2000/svg" xmlns:xlink="http://www.w3.org/1999/xlink" version="1.1" width="600" height="360" viewBox="0 0 600 360">
<!-- Generated by Kreative Vexillo v1.0 -->
<style>
.gold{fill:rgb(248,213,166);}
.purple{fill:rgb(187,69,125);}
</style>
<defs>
<path id="e" d="M -0.0018 -0.5 C 0.0132 -0.4668 0.0311 -0.4191 0.0437 -0.3753 C 0.048 -0.36049998 0.0545 -0.343 0.053 -0.3287 C 0.0517 -0.316 0.0378 -0.3066 0.035499997 -0.2926 C 0.032899998 -0.27670002 0.040799998 -0.26590002 0.038999997 -0.2483 C 0.1649 -0.2277 0.253 -0.15900001 0.30130002 -0.057099998 C 0.32610002 -0.0046999976 0.34030002 0.0635 0.33040002 0.1329 C 0.32130003 0.19690001 0.29540002 0.2509 0.26280004 0.2915 C 0.27710003 0.3033 0.28020003 0.3232 0.29660004 0.33 C 0.30500004 0.33350003 0.31430003 0.33220002 0.32340005 0.337 C 0.34820005 0.35000002 0.36100006 0.38790002 0.37350005 0.4128 C 0.38800004 0.4417 0.40140006 0.47030002 0.41200006 0.50020003 C 0.36800006 0.48200002 0.32510006 0.46380004 0.28380007 0.43960002 C 0.27100006 0.43210003 0.25490007 0.42370003 0.24880007 0.4128 C 0.24370007 0.40370002 0.24630007 0.39510003 0.24300008 0.386 C 0.23680007 0.36920002 0.21670008 0.3652 0.20450008 0.351 C 0.15420008 0.3892 0.08620008 0.42090002 -0.0018999279 0.42090002 C -0.08939993 0.42090002 -0.15779993 0.38990003 -0.20709993 0.351 C -0.22069994 0.3641 -0.23859993 0.3682 -0.24559993 0.38480002 C -0.24919993 0.39330003 -0.24739993 0.40350002 -0.25259992 0.4128 C -0.26359993 0.43240002 -0.30659992 0.4515 -0.32839993 0.4618 C -0.35749993 0.47550002 -0.38619992 0.48810002 -0.4146999 0.5003 C -0.4009999 0.4588 -0.3799999 0.41279998 -0.35639992 0.3721 C -0.34939992 0.35999998 -0.34049994 0.3435 -0.32959992 0.3371 C -0.32099992 0.3321 -0.3106999 0.3335 -0.30159992 0.3301 C -0.2948999 0.3276 -0.2892999 0.3202 -0.28289992 0.3126 C -0.28009993 0.3092 -0.2666999 0.29439998 -0.26659992 0.29279998 C -0.26629993 0.28869998 -0.28759992 0.2629 -0.28989992 0.25899997 C -0.31099993 0.22369997 -0.3273999 0.18089998 -0.3341999 0.13309997 C -0.3445999 0.059299976 -0.32959992 -0.0052000284 -0.3050999 -0.056900024 C -0.2567999 -0.15870002 -0.1752999 -0.22500002 -0.04279989 -0.24690002 C -0.04489989 -0.2648 -0.03669989 -0.2761 -0.03929989 -0.29240003 C -0.04149989 -0.30620003 -0.055299893 -0.31540003 -0.05679989 -0.32740003 C -0.058499888 -0.34130004 -0.05269989 -0.36100003 -0.048599888 -0.37520003 C -0.0363 -0.4177 -0.0169 -0.4634 -0.0018 -0.5 Z M -0.0403 -0.1876 C -0.040400002 -0.1883 -0.0405 -0.189 -0.041500002 -0.1888 C -0.041800003 -0.1879 -0.0425 -0.18740001 -0.043800004 -0.1876 C -0.112 -0.1762 -0.1689 -0.1448 -0.2093 -0.0978 C -0.2491 -0.0516 -0.2794 0.009599999 -0.2792 0.08759999 C -0.2791 0.1586 -0.25329998 0.20719999 -0.22439998 0.25199997 C -0.19039997 0.23039997 -0.15209998 0.20689997 -0.111299984 0.19599998 C -0.12519999 0.23839998 -0.14489998 0.2751 -0.16839999 0.30789998 C -0.12719999 0.33709997 -0.07139999 0.3627 -0.0016999841 0.3627 C 0.06810001 0.3627 0.12490001 0.33749998 0.16500002 0.3067 C 0.14060003 0.2748 0.12130003 0.23769999 0.10790002 0.19479999 C 0.15040003 0.20899999 0.18670002 0.2295 0.22100002 0.2519 C 0.24470001 0.21719998 0.26680002 0.17299998 0.27350003 0.12129998 C 0.28050002 0.06669998 0.26970002 0.008599982 0.24900003 -0.03380002 C 0.20940003 -0.11480002 0.13680002 -0.17180002 0.036800027 -0.18890002 C 0.030600026 -0.14230002 0.015800027 -0.10420002 -0.0016999729 -0.068800025 C -0.0192 -0.1037 -0.0336 -0.1417 -0.0403 -0.1876 Z"/>
<linearGradient id="glaze" x1="0%" y1="0%" x2="100%" y2="100%">
<stop offset="0%" stop-color="rgb(255,255,255)" stop-opacity="0.2"/>
<stop offset="49.999%" stop-color="rgb(255,255,255)" stop-opacity="0.0"/>
<stop offset="50.001%" stop-color="rgb(0,0,0)" stop-opacity="0.0"/>
<stop offset="100%" stop-color="rgb(0,0,0)" stop-opacity="0.2"/>
</linearGradient>
</defs>
<g>
<rect x="0" y="0" width="600" height="360" class="purple"/>
<use xlink:href="#e" transform="translate(300 180) scale(308.88 308.88) rotate(0)" class="gold"/>
</g>
<g>
<rect x="0" y="0" width="600" height="360" fill="url(#glaze)"/>
<path d="M 30 30 L 570 30 L 570 330 L 30 330 Z M 60 60 L 60 300 L 540 300 L 540 60 Z" fill="rgb(255,255,255)" opacity="0.4"/>
<path d="M 0 0 L 600 0 L 600 360 L 0 360 Z M 30 30 L 30 330 L 570 330 L 570 30 Z" fill="rgb(0,0,0)" opacity="0.4"/>
</g>
</svg>
