<?xml version="1.0"?>
<svg xmlns="http://www.w3.org/2000/svg" xmlns:xlink="http://www.w3.org/1999/xlink" version="1.1" width="600" height="360" viewBox="0 0 600 360">
<!-- Generated by Kreative Vexillo v1.0 -->
<style>
.black{fill:rgb(0,0,0);}
.blue{fill:rgb(0,0,255);}
.green{fill:rgb(0,153,0);}
.orange{fill:rgb(255,153,0);}
.purple{fill:rgb(153,0,153);}
.red{fill:rgb(255,0,0);}
.white{fill:rgb(255,255,255);}
.yellow{fill:rgb(255,255,0);}
</style>
<defs>
<clipPath id="clip0">
<path d="M 0 0 L 300 180 L 0 360 Z"/>
</clipPath>
<clipPath id="clip1">
<path d="M 0 0 L 600 0 L 600 360 L 0 360 L 300 180 Z"/>
</clipPath>
<clipPath id="clip2">
<rect x="0" y="0" width="600" height="360"/>
</clipPath>
<clipPath id="clip3">
<path d="M 18.5218 -30.8697 L 18.5218 -30.8697 L 318.5218 149.1303 L 281.4782 210.8697 L -18.5218 30.8697 Z"/>
<path d="M 318.5218 210.8697 L 318.5218 210.8697 L 18.5218 390.8697 L -18.5218 329.1303 L 281.4782 149.1303 Z"/>
<path d="M 300 144 L 300 144 L 600 144 L 600 216 L 300 216 Z"/>
</clipPath>
<linearGradient id="glaze" x1="0%" y1="0%" x2="100%" y2="100%">
<stop offset="0%" stop-color="rgb(255,255,255)" stop-opacity="0.2"/>
<stop offset="49.999%" stop-color="rgb(255,255,255)" stop-opacity="0.0"/>
<stop offset="50.001%" stop-color="rgb(0,0,0)" stop-opacity="0.0"/>
<stop offset="100%" stop-color="rgb(0,0,0)" stop-opacity="0.2"/>
</linearGradient>
</defs>
<g>
<g>
<rect x="0" y="0" width="600" height="60" class="red"/>
<rect x="0" y="60" width="600" height="60" class="orange"/>
<rect x="0" y="120" width="600" height="60" class="yellow"/>
<rect x="0" y="180" width="600" height="60" class="green"/>
<rect x="0" y="240" width="600" height="60" class="blue"/>
<rect x="0" y="300" width="600" height="60" class="purple"/>
</g>
<g clip-path="url(#clip0)">
<path d="M 30.8697 -51.4496 L 30.8697 -51.4496 L 330.8697 128.5504 L 269.1303 231.4496 L -30.8697 51.4496 Z" class="black"/>
<path d="M 330.8697 231.4496 L 330.8697 231.4496 L 30.8697 411.4496 L -30.8697 308.5504 L 269.1303 128.5504 Z" class="black"/>
</g>
<g clip-path="url(#clip1)">
<path d="M 30.8697 -51.4496 L 30.8697 -51.4496 L 330.8697 128.5504 L 269.1303 231.4496 L -30.8697 51.4496 Z" class="white"/>
<path d="M 330.8697 231.4496 L 330.8697 231.4496 L 30.8697 411.4496 L -30.8697 308.5504 L 269.1303 128.5504 Z" class="white"/>
<path d="M 300 120 L 300 120 L 600 120 L 600 240 L 300 240 Z" class="white"/>
</g>
<g clip-path="url(#clip2)">
<g clip-path="url(#clip3)">
<g>
<rect x="0" y="0" width="600" height="60" class="red"/>
<rect x="0" y="60" width="600" height="60" class="orange"/>
<rect x="0" y="120" width="600" height="60" class="yellow"/>
<rect x="0" y="180" width="600" height="60" class="green"/>
<rect x="0" y="240" width="600" height="60" class="blue"/>
<rect x="0" y="300" width="600" height="60" class="purple"/>
</g>
</g>
</g>
</g>
<g>
<rect x="0" y="0" width="600" height="360" fill="url(#glaze)"/>
<path d="M 30 30 L 570 30 L 570 330 L 30 330 Z M 60 60 L 60 300 L 540 300 L 540 60 Z" fill="rgb(255,255,255)" opacity="0.4"/>
<path d="M 0 0 L 600 0 L 600 360 L 0 360 Z M 30 30 L 30 330 L 570 330 L 570 30 Z" fill="rgb(0,0,0)" opacity="0.4"/>
</g>
</svg>
