<?xml version="1.0"?>
<svg xmlns="http://www.w3.org/2000/svg" xmlns:xlink="http://www.w3.org/1999/xlink" version="1.1" width="600" height="360" viewBox="0 0 600 360">
<!-- Generated by Kreative Vexillo v1.0 -->
<style>
.black{fill:rgb(0,0,0);}
.white{fill:rgb(255,255,255);}
</style>
<defs>
<path id="skull" d="M 287.312 0.0 C 295.979 0.0 304.64502 0.0 313.312 0.0 C 349.599 3.565 375.79 29.481 387.312 59.0 C 393.953 76.014 399.58002 95.762 397.312 117.0 C 396.053 128.791 392.101 142.023 384.312 148.0 C 371.889 142.459 385.272 116.588 376.312 107.0 C 369.24802 108.451 375.392 115.316 376.312 122.0 C 377.295 129.146 374.45502 138.636 376.312 145.0 C 379.04102 154.352 389.616 152.39 392.312 159.0 C 392.57 169.194 389.16302 182.782 380.312 185.0 C 371.03702 187.324 363.088 179.867 356.312 182.0 C 347.454 184.788 350.17502 193.141 346.312 201.0 C 343.18002 207.371 335.98 209.538 332.312 216.0 C 333.58102 220.731 335.57202 224.74 336.312 230.0 C 334.48 233.92 328.45102 236.407 323.312 234.0 C 323.428 229.116 322.77402 223.461 324.312 220.0 C 323.797 218.908 317.77902 220.732 314.312 220.0 C 313.62003 222.396 317.84402 228.44 316.312 235.0 C 312.84402 237.442 306.78 237.442 303.312 235.0 C 302.927 228.949 303.505 223.859 306.312 221.0 C 306.08902 219.571 301.33502 221.928 298.312 221.0 C 297.17902 223.506 301.03 229.586 300.312 235.0 C 297.48502 236.587 289.139 236.587 286.312 235.0 C 287.138 230.159 286.89 224.245 289.312 221.0 C 285.87402 221.438 283.707 220.605 281.312 220.0 C 282.552 224.427 285.393 227.252 284.312 234.0 C 282.153 237.078 273.89502 236.294 270.312 235.0 C 267.811 229.768 271.06302 224.504 272.312 220.0 C 271.892 217.754 267.006 219.973 266.312 218.0 C 263.67603 221.979 269.349 230.001 265.312 233.0 C 261.881 234.76 258.851 232.827 256.312 231.0 C 254.768 227.242 263.321 218.254 263.312 218.0 C 263.27502 216.927 256.616 210.723 255.31201 208.0 C 251.01201 199.023 252.36902 183.091 243.31201 181.0 C 235.54701 179.207 228.50902 188.291 219.31201 187.0 C 208.97801 185.549 205.77701 172.433 203.31201 163.0 C 206.95502 158.643 212.99602 156.684 215.31201 151.0 C 214.77301 129.572 213.28702 112.274 218.31201 98.0 C 220.117 92.871 224.18501 87.812 225.31201 82.0 C 226.10301 77.923996 225.03401 73.688 225.31201 70.0 C 226.16101 58.756 230.01102 50.14 234.31201 40.0 C 224.81702 48.844 224.32802 63.594 221.31201 78.0 C 218.46 91.62 211.42201 104.59 210.31201 119.0 C 209.391 130.953 213.35101 142.756 208.31201 151.0 C 194.49101 146.979 198.00801 128.314 197.31201 113.0 C 196.14902 87.398 200.95502 71.141 207.31201 52.0 C 218.711 17.684 248.447 5.51 287.312 0.0 Z M 232.312 113.0 C 224.888 128.452 236.092 158.986 250.312 159.0 C 257.874 159.008 276.039 142.591 278.312 137.0 C 287.411 114.626 268.13602 101.9 243.31201 107.0 C 238.882 107.91 234.448 108.555 232.312 113.0 Z M 311.312 119.0 C 305.45102 137.691 340.15402 163.514 354.312 153.0 C 358.144 150.154 358.553 143.102 359.312 137.0 C 362.228 113.559 353.703 105.344 331.312 108.0 C 318.55 109.514 313.288 112.698 311.312 119.0 Z M 292.312 141.0 C 286.226 151.09 279.29602 175.869 283.312 187.0 C 289.71802 186.072 287.582 176.604 294.312 176.0 C 297.975 181.337 299.85202 188.46 305.312 192.0 C 323.66602 177.715 303.328 149.65 294.312 138.0 C 293.174 138.944 293.146 139.618 292.312 141.0 Z M 67.312 206.0 C 123.062996 270.341 195.985 320.111 278.312 358.0 C 316.26202 375.466 359.582 391.915 402.312 404.0 C 403.534 404.346 407.99503 406.758 409.312 404.0 C 415.08902 379.323 391.489 377.114 371.312 370.0 C 332.578 356.342 293.521 341.135 261.312 324.0 C 237.445 311.303 215.139 299.222 195.31201 286.0 C 174.62502 272.205 154.59702 257.634 141.31201 237.0 C 190.246 281.801 254.72801 322.965 329.312 350.0 C 340.177 353.938 352.60703 358.142 366.312 363.0 C 386.58102 370.185 412.04102 382.141 423.312 362.0 C 260.928 314.431 132.85501 235.85901 40.31201 118.0 C 30.389011 105.363 21.152012 93.119 12.312012 79.0 C 9.739012 74.891 7.1470118 69.361 2.3120117 67.0 C 1.5620117 67.75 1.5620117 68.5 1.3120117 69.0 C -0.43798828 75.75 -0.43798828 82.75 1.3120117 90.0 C 13.621 136.014 38.963 173.283 67.312 206.0 Z M 601.312 68.0 C 603.978 74.0 603.978 80.0 601.312 92.0 C 583.011 153.038 545.333 198.063 504.312 237.0 C 463.002 276.21 415.64902 311.253 362.312 338.0 C 352.29102 335.354 343.63202 331.346 334.312 328.0 C 379.398 301.418 428.05002 278.406 460.312 239.0 C 443.52902 251.489 423.53 268.851 399.312 285.0 C 384.448 294.912 366.297 306.803 349.312 316.0 C 343.39102 319.206 334.126 324.807 330.312 325.0 C 321.75 325.435 313.87402 317.188 306.312 315.0 C 368.526 285.022 423.703 252.946 472.312 212.0 C 521.433 170.62201 562.89 121.053 598.312 68.0 C 598.573 66.443 600.506 67.307 601.312 68.0 Z M 507.312 217.0 C 503.77402 220.538 497.92502 223.201 497.312 229.0 C 529.714 199.734 559.714 168.069 578.312 125.0 C 579.321 124.988 579.57 123.247 578.312 123.0 C 559.766 158.491 533.718 190.596 507.312 217.0 Z M 329.312 255.0 C 330.82602 252.181 331.728 248.749 331.312 244.0 C 326.36102 242.022 317.901 242.565 317.312 248.0 C 313.48 250.615 320.174 256.354 317.312 258.0 C 315.312 258.0 313.312 258.0 311.312 258.0 C 311.39102 253.413 313.85202 251.207 313.312 246.0 C 310.114 242.579 303.635 242.549 299.312 245.0 C 298.44202 249.58 300.63303 256.288 299.312 258.0 C 296.979 258.0 294.64502 258.0 292.312 258.0 C 294.414 254.436 295.897 250.252 295.312 244.0 C 291.446 242.229 285.36902 243.062 281.312 244.0 C 280.81702 249.828 281.6 254.379 283.312 258.0 C 280.312 258.0 277.312 258.0 274.312 258.0 C 276.328 254.35 277.69 250.045 277.312 244.0 C 274.45102 241.25 266.173 241.25 263.312 244.0 C 262.27902 248.091 264.928 253.641 263.312 255.0 C 257.147 253.15 250.44601 247.527 249.31201 241.0 C 246.908 227.159 245.60701 214.408 241.31201 204.0 C 237.893 195.715 232.029 188.624 223.31201 196.0 C 223.432 208.43 229.92201 217.095 230.31201 229.0 C 230.533 235.761 227.61801 243.015 229.31201 250.0 C 231.42401 258.705 241.223 261.737 247.31201 267.0 C 255.84702 274.376 261.182 284.794 269.312 289.0 C 290.13702 287.578 304.276 288.029 325.312 289.0 C 332.297 285.664 336.41302 275.558 343.312 269.0 C 348.45502 264.112 357.05402 260.86 359.312 255.0 C 361.095 250.369 359.63602 244.662 360.312 240.0 C 362.617 224.113 371.66302 207.477 369.312 190.0 C 337.641 189.408 357.786 249.081 329.312 255.0 Z M 163.312 352.0 C 159.177 344.815 153.647 336.691 147.312 332.0 C 136.874 324.27 113.74 321.783 106.312 333.0 C 97.63699 346.101 107.478 371.008 124.312 367.0 C 130.527 365.521 129.26 359.155 135.312 356.0 C 145.553 365.759 154.26799 384.132 160.312 405.0 C 166.538 426.493 167.748 449.767 181.312 459.0 C 188.428 463.844 212.00099 466.503 218.312 457.0 C 231.944 436.472 201.344 413.97 196.312 437.0 C 185.146 430.899 179.749 401.112 185.312 388.0 C 186.983 384.062 193.524 379.9 190.312 378.0 C 171.603 376.227 171.325 365.921 163.312 352.0 Z M 475.312 367.0 C 496.375 371.681 500.73602 339.828 490.312 330.0 C 487.94202 327.766 482.364 325.383 480.312 325.0 C 450.30902 319.41 436.69302 351.472 425.312 371.0 C 419.89502 372.916 416.838 377.193 410.312 378.0 C 410.05002 383.13 415.155 386.047 416.312 392.0 C 419.592 408.871 413.321 430.876 403.312 437.0 C 396.87802 417.506 375.074 431.282 379.312 451.0 C 381.984 463.432 403.142 466.731 415.312 461.0 C 431.63202 453.313 431.612 430.907 438.312 407.0 C 444.39902 385.283 452.255 367.299 465.312 356.0 C 469.221 360.676 469.761 365.767 475.312 367.0 Z M 236.312 341.0 C 217.67099 348.693 197.574 354.929 177.312 361.0 C 179.079 371.847 189.301 373.318 201.312 372.0 C 210.39099 371.003 221.383 366.333 231.312 363.0 C 242.72 359.17 253.92 356.455 260.312 352.0 C 250.683 349.963 245.204 343.775 236.312 341.0 Z M 266.312 356.0 C 257.053 360.28 242.36101 364.37 226.31201 370.0 C 204.19202 377.759 185.02301 380.198 191.31201 406.0 C 226.10901 393.464 263.85202 383.873 295.312 368.0 C 284.021 365.626 277.262 358.718 266.312 356.0 Z M 106.312 379.0 C 105.94199 387.383 112.83199 393.796 113.312 398.0 C 104.141 397.388 106.590996 380.833 99.312 377.0 C 95.270996 374.872 87.84499 375.106 83.312 379.0 C 83.742 394.941 88.626 411.822 99.312 416.0 C 114.464 421.924 137.208 415.043 154.312 415.0 C 159.72 401.97 146.336 369.07 131.312 377.0 C 130.22 387.093 135.86 390.452 138.312 397.0 C 130.174 393.139 128.979 382.332 123.312 376.0 C 117.765 374.595 108.053 373.716 106.312 379.0 Z M 468.312 378.0 C 455.05002 365.79102 439.476 402.224 445.312 415.0 C 463.46802 415.357 491.711 422.8 504.312 413.0 C 513.685 405.71 514.16504 394.444 515.312 379.0 C 512.565 375.226 504.514 375.524 499.312 377.0 C 493.914 383.269 494.41602 395.438 485.312 398.0 C 488.971 392.659 492.505 387.193 492.312 378.0 C 489.19302 373.736 478.79202 374.412 474.312 377.0 C 471.07 384.424 468.6 392.621 461.312 396.0 C 465.02 391.374 468.112 386.134 468.312 378.0 Z M 62.312 376.0 C 47.028 376.131 37.412003 392.463 40.312 410.0 C 42.036 420.423 50.896 433.964 67.312 433.0 C 78.713 432.33 85.520996 423.515 90.312 414.0 C 85.604 414.268 70.937 428.478 65.312 416.0 C 87.059 413.25 86.567 375.793 62.312 376.0 Z M 534.312 433.0 C 557.969 431.549 569.573 388.622 546.312 378.0 C 526.776 369.078 509.23 391.172 520.312 408.0 C 524.208 413.915 530.115 411.882 533.312 418.0 C 523.756 425.438 514.297 414.996 508.312 414.0 C 511.251 427.86 522.028 433.754 534.312 433.0 Z"/>
<linearGradient id="glaze" x1="0%" y1="0%" x2="100%" y2="100%">
<stop offset="0%" stop-color="rgb(255,255,255)" stop-opacity="0.2"/>
<stop offset="49.999%" stop-color="rgb(255,255,255)" stop-opacity="0.0"/>
<stop offset="50.001%" stop-color="rgb(0,0,0)" stop-opacity="0.0"/>
<stop offset="100%" stop-color="rgb(0,0,0)" stop-opacity="0.2"/>
</linearGradient>
</defs>
<g>
<rect x="0" y="0" width="600" height="360" class="black"/>
<use xlink:href="#skull" transform="translate(124.3633 45) scale(0.5822 0.5822) rotate(0)" class="white"/>
</g>
<g>
<rect x="0" y="0" width="600" height="360" fill="url(#glaze)"/>
<path d="M 30 30 L 570 30 L 570 330 L 30 330 Z M 60 60 L 60 300 L 540 300 L 540 60 Z" fill="rgb(255,255,255)" opacity="0.4"/>
<path d="M 0 0 L 600 0 L 600 360 L 0 360 Z M 30 30 L 30 330 L 570 330 L 570 30 Z" fill="rgb(0,0,0)" opacity="0.4"/>
</g>
</svg>
