<?xml version="1.0"?>
<svg xmlns="http://www.w3.org/2000/svg" xmlns:xlink="http://www.w3.org/1999/xlink" version="1.1" width="600" height="360" viewBox="0 0 600 360">
<!-- Generated by Kreative Vexillo v1.0 -->
<style>
.co-blue{fill:rgb(16,46,130);}
.co-red{fill:rgb(191,44,52);}
.co-white{fill:rgb(255,255,255);}
.co-yellow{fill:rgb(246,208,71);}
.pr-blue{fill:rgb(0,0,255);}
.pr-green{fill:rgb(0,153,0);}
.pr-orange{fill:rgb(255,153,0);}
.pr-purple{fill:rgb(153,0,153);}
.pr-red{fill:rgb(255,0,0);}
.pr-yellow{fill:rgb(255,255,0);}
</style>
<defs>
<linearGradient id="glaze" x1="0%" y1="0%" x2="100%" y2="100%">
<stop offset="0%" stop-color="rgb(255,255,255)" stop-opacity="0.2"/>
<stop offset="49.999%" stop-color="rgb(255,255,255)" stop-opacity="0.0"/>
<stop offset="50.001%" stop-color="rgb(0,0,0)" stop-opacity="0.0"/>
<stop offset="100%" stop-color="rgb(0,0,0)" stop-opacity="0.2"/>
</linearGradient>
</defs>
<g>
<g>
<rect x="0" y="0" width="600" height="40" class="pr-red"/>
<rect x="0" y="40" width="600" height="40" class="pr-orange"/>
<rect x="0" y="80" width="600" height="40" class="pr-yellow"/>
<rect x="0" y="120" width="600" height="120" class="co-white"/>
<rect x="0" y="240" width="600" height="40" class="pr-green"/>
<rect x="0" y="280" width="600" height="40" class="pr-blue"/>
<rect x="0" y="320" width="600" height="40" class="pr-purple"/>
</g>
<path d="M 253.3333 180 L 364.1989 134.078 A 120 120 0 1 0 364.1989 225.922 Z" class="co-red"/>
<ellipse cx="253.3333" cy="180" rx="60" ry="60" class="co-yellow"/>
</g>
<g>
<rect x="0" y="0" width="600" height="360" fill="url(#glaze)"/>
<path d="M 30 30 L 570 30 L 570 330 L 30 330 Z M 60 60 L 60 300 L 540 300 L 540 60 Z" fill="rgb(255,255,255)" opacity="0.4"/>
<path d="M 0 0 L 600 0 L 600 360 L 0 360 Z M 30 30 L 30 330 L 570 330 L 570 30 Z" fill="rgb(0,0,0)" opacity="0.4"/>
</g>
</svg>
