<?xml version="1.0"?>
<svg xmlns="http://www.w3.org/2000/svg" xmlns:xlink="http://www.w3.org/1999/xlink" version="1.1" width="600" height="360" viewBox="0 0 600 360">
<!-- Generated by Kreative Vexillo v1.0 -->
<style>
.black{fill:rgb(27,23,30);}
.dkgreen{fill:rgb(32,69,44);}
.dkpurple{fill:rgb(55,46,73);}
.green{fill:rgb(81,172,86);}
.purple{fill:rgb(158,116,182);}
.white{fill:rgb(233,233,233);}
</style>
<defs>
<linearGradient id="glaze" x1="0%" y1="0%" x2="100%" y2="100%">
<stop offset="0%" stop-color="rgb(255,255,255)" stop-opacity="0.2"/>
<stop offset="49.999%" stop-color="rgb(255,255,255)" stop-opacity="0.0"/>
<stop offset="50.001%" stop-color="rgb(0,0,0)" stop-opacity="0.0"/>
<stop offset="100%" stop-color="rgb(0,0,0)" stop-opacity="0.2"/>
</linearGradient>
</defs>
<g>
<g>
<rect x="0" y="0" width="600" height="72.8571" class="dkpurple"/>
<rect x="0" y="72.8571" width="600" height="85.7143" class="purple"/>
<rect x="0" y="158.5714" width="600" height="42.8571" class="white"/>
<rect x="0" y="201.4286" width="600" height="85.7143" class="green"/>
<rect x="0" y="287.1429" width="600" height="72.8571" class="dkgreen"/>
</g>
<ellipse cx="300" cy="180" rx="77.4" ry="77.4" class="white"/>
<ellipse cx="300" cy="180" rx="54" ry="54" class="black"/>
</g>
<g>
<rect x="0" y="0" width="600" height="360" fill="url(#glaze)"/>
<path d="M 30 30 L 570 30 L 570 330 L 30 330 Z M 60 60 L 60 300 L 540 300 L 540 60 Z" fill="rgb(255,255,255)" opacity="0.4"/>
<path d="M 0 0 L 600 0 L 600 360 L 0 360 Z M 30 30 L 30 330 L 570 330 L 570 30 Z" fill="rgb(0,0,0)" opacity="0.4"/>
</g>
</svg>
