<?xml version="1.0"?>
<svg xmlns="http://www.w3.org/2000/svg" xmlns:xlink="http://www.w3.org/1999/xlink" version="1.1" width="600" height="360" viewBox="0 0 600 360">
<!-- Generated by Kreative Vexillo v1.0 -->
<style>
.black{fill:rgb(0,0,0);}
.blue{fill:rgb(23,23,150);}
.red{fill:rgb(235,38,41);}
.white{fill:rgb(255,255,255);}
</style>
<defs>
<path id="bone" d="M -0.4971 -0.072 C -0.4978 -0.0779 -0.4984 -0.083799995 -0.4994 -0.0896 C -0.501 -0.0998 -0.4993 -0.109799996 -0.4984 -0.119899996 C -0.4981 -0.12279999 -0.4973 -0.1256 -0.4958 -0.1283 C -0.48929998 -0.14 -0.4822 -0.1512 -0.4732 -0.1612 C -0.4456 -0.1918 -0.4121 -0.20120001 -0.37269998 -0.1893 C -0.35089996 -0.18270001 -0.33169997 -0.1712 -0.31359997 -0.1578 C -0.30169997 -0.149 -0.29039997 -0.1394 -0.27979997 -0.12900001 C -0.27679998 -0.126 -0.27379996 -0.12460001 -0.26949996 -0.12460001 C -0.13199995 -0.12470001 0.22770005 -0.1251 0.26220006 -0.12460001 C 0.27120006 -0.12450001 0.27770007 -0.1268 0.28430006 -0.1332 C 0.30400005 -0.1523 0.32590005 -0.1688 0.35080007 -0.18090001 C 0.36470008 -0.1876 0.37920007 -0.19250001 0.39450008 -0.194 C 0.42190006 -0.19680001 0.44550008 -0.18800001 0.46560007 -0.1693 C 0.47860008 -0.15720001 0.48840007 -0.1428 0.49660006 -0.1271 C 0.49740008 -0.12560001 0.49800006 -0.124000005 0.49820006 -0.122200005 C 0.50020003 -0.108200006 0.50070006 -0.0942 0.49850005 -0.0802 C 0.49470004 -0.0566 0.48290005 -0.038000003 0.46390006 -0.0236 C 0.45050007 -0.013500001 0.43540007 -0.007100001 0.41960007 -0.0018000007 C 0.41830006 -0.0013000006 0.41650006 -0.0015000007 0.41590008 6.999993E-4 C 0.42580009 0.0041999994 0.43580008 0.0074999994 0.4452001 0.0123 C 0.4636001 0.021699999 0.47910008 0.0343 0.48930007 0.052699998 C 0.49340007 0.060099997 0.49550006 0.0682 0.49830008 0.0761 C 0.49880007 0.0815 0.49940008 0.086899996 0.49970007 0.0923 C 0.50030005 0.1022 0.49980006 0.111999996 0.49830008 0.1218 C 0.4980001 0.1235 0.49770007 0.1252 0.49690008 0.1267 C 0.4878001 0.1441 0.47680008 0.1601 0.46170008 0.17289999 C 0.43600008 0.19469999 0.4068001 0.19909999 0.37490007 0.19009998 C 0.35570008 0.18469998 0.33840007 0.17519999 0.32210007 0.16399999 C 0.30680007 0.15349999 0.29260007 0.14159998 0.27940008 0.12869999 C 0.2766001 0.12589999 0.2737001 0.12469999 0.26970008 0.12469999 C 0.13130008 0.12479999 -0.23309991 0.124999985 -0.26839992 0.12479999 C -0.2729999 0.12479999 -0.27619994 0.12609999 -0.27949992 0.12929998 C -0.3000999 0.14899999 -0.32209992 0.16679999 -0.3476999 0.17959999 C -0.3648999 0.18819998 -0.3826999 0.19419998 -0.40219992 0.19459999 C -0.42389992 0.19509998 -0.4428999 0.18809998 -0.4595999 0.17459999 C -0.4753999 0.1618 -0.4866999 0.14539999 -0.4961999 0.12759998 C -0.4968999 0.12629998 -0.4974999 0.12489998 -0.49769992 0.12349998 C -0.5008999 0.10399998 -0.5008999 0.08469998 -0.4943999 0.06569998 C -0.4873999 0.04519998 -0.4737999 0.029999979 -0.45569992 0.01859998 C -0.4451999 0.01199998 -0.4338999 0.0070999796 -0.4221999 0.0031999797 C -0.4198999 0.0024999797 -0.4176999 0.0015999797 -0.4135999 1.9997964E-4 C -0.4532 -0.0121 -0.485 -0.031 -0.4971 -0.072 Z"/>
<linearGradient id="glaze" x1="0%" y1="0%" x2="100%" y2="100%">
<stop offset="0%" stop-color="rgb(255,255,255)" stop-opacity="0.2"/>
<stop offset="49.999%" stop-color="rgb(255,255,255)" stop-opacity="0.0"/>
<stop offset="50.001%" stop-color="rgb(0,0,0)" stop-opacity="0.0"/>
<stop offset="100%" stop-color="rgb(0,0,0)" stop-opacity="0.2"/>
</linearGradient>
</defs>
<g>
<rect x="0" y="0" width="600" height="360" class="black"/>
<path d="M 0 0 L 472.5 0 L 600 76.5 L 600 360 L 127.5 360 L 0 283.5 Z" class="blue"/>
<path d="M 0 0 L 345 0 L 600 153 L 600 360 L 255 360 L 0 207 Z" class="black"/>
<path d="M 0 0 L 217.5 0 L 600 229.5 L 600 360 L 382.5 360 L 0 130.5 Z" class="blue"/>
<path d="M 0 0 L 90 0 L 600 306 L 600 360 L 510 360 L 0 54 Z" class="white"/>
<use xlink:href="#bone" transform="translate(300 180) scale(270 270) rotate(0)" class="red"/>
</g>
<g>
<rect x="0" y="0" width="600" height="360" fill="url(#glaze)"/>
<path d="M 30 30 L 570 30 L 570 330 L 30 330 Z M 60 60 L 60 300 L 540 300 L 540 60 Z" fill="rgb(255,255,255)" opacity="0.4"/>
<path d="M 0 0 L 600 0 L 600 360 L 0 360 Z M 30 30 L 30 330 L 570 330 L 570 30 Z" fill="rgb(0,0,0)" opacity="0.4"/>
</g>
</svg>
