<?xml version="1.0"?>
<svg xmlns="http://www.w3.org/2000/svg" xmlns:xlink="http://www.w3.org/1999/xlink" version="1.1" width="600" height="360" viewBox="0 0 600 360">
<!-- Generated by Kreative Vexillo v1.0 -->
<style>
.black{fill:rgb(0,0,0);}
.blue{fill:rgb(12,28,140);}
.gold{fill:rgb(252,181,20);}
.green{fill:rgb(0,124,89);}
.red{fill:rgb(226,61,40);}
.white{fill:rgb(255,255,255);}
</style>
<defs>
<clipPath id="clip0">
<path d="M 0 0 L 300 180 L 0 360 Z"/>
</clipPath>
<clipPath id="clip1">
<path d="M 0 0 L 600 0 L 600 360 L 0 360 L 300 180 Z"/>
</clipPath>
<clipPath id="clip2">
<rect x="0" y="0" width="600" height="360"/>
</clipPath>
<linearGradient id="glaze" x1="0%" y1="0%" x2="100%" y2="100%">
<stop offset="0%" stop-color="rgb(255,255,255)" stop-opacity="0.2"/>
<stop offset="49.999%" stop-color="rgb(255,255,255)" stop-opacity="0.0"/>
<stop offset="50.001%" stop-color="rgb(0,0,0)" stop-opacity="0.0"/>
<stop offset="100%" stop-color="rgb(0,0,0)" stop-opacity="0.2"/>
</linearGradient>
</defs>
<g>
<g>
<rect x="0" y="0" width="600" height="180" class="red"/>
<rect x="0" y="180" width="600" height="180" class="blue"/>
</g>
<path d="M 0 0 L 300 180 L 0 360 Z" class="black"/>
<g clip-path="url(#clip0)">
<path d="M -30.8462 51.4637 L 269.1538 231.4637 L 330.8462 128.5363 L 30.8462 -51.4637 L -30.8462 51.4637 Z" class="gold"/>
<path d="M 269.1538 128.5363 L -30.8462 308.5363 L 30.8462 411.4637 L 330.8462 231.4637 L 269.1538 128.5363 Z" class="gold"/>
</g>
<g clip-path="url(#clip1)">
<path d="M -30.8462 51.4637 L 269.1538 231.4637 L 330.8462 128.5363 L 30.8462 -51.4637 L -30.8462 51.4637 Z" class="white"/>
<path d="M 269.1538 128.5363 L -30.8462 308.5363 L 30.8462 411.4637 L 330.8462 231.4637 L 269.1538 128.5363 Z" class="white"/>
<path d="M 300 240 L 600 240 L 600 120 L 300 120 L 300 240 Z" class="white"/>
</g>
<g clip-path="url(#clip2)">
<path d="M -18.5077 30.8782 L 281.4923 210.8782 L 318.5077 149.1218 L 18.5077 -30.8782 L -18.5077 30.8782 Z" class="green"/>
<path d="M 281.4923 149.1218 L -18.5077 329.1218 L 18.5077 390.8782 L 318.5077 210.8782 L 281.4923 149.1218 Z" class="green"/>
<path d="M 300 216 L 600 216 L 600 144 L 300 144 L 300 216 Z" class="green"/>
</g>
</g>
<g>
<rect x="0" y="0" width="600" height="360" fill="url(#glaze)"/>
<path d="M 30 30 L 570 30 L 570 330 L 30 330 Z M 60 60 L 60 300 L 540 300 L 540 60 Z" fill="rgb(255,255,255)" opacity="0.4"/>
<path d="M 0 0 L 600 0 L 600 360 L 0 360 Z M 30 30 L 30 330 L 570 330 L 570 30 Z" fill="rgb(0,0,0)" opacity="0.4"/>
</g>
</svg>
