<?xml version="1.0"?>
<svg xmlns="http://www.w3.org/2000/svg" xmlns:xlink="http://www.w3.org/1999/xlink" version="1.1" width="450" height="360" viewBox="0 0 450 360">
<!-- Generated by Kreative Vexillo v1.0 -->
<style>
.black{fill:rgb(0,0,0);}
.blue{fill:rgb(0,121,193);}
.red{fill:rgb(227,24,55);}
.white{fill:rgb(255,255,255);}
.yellow{fill:rgb(255,210,0);}
</style>
<defs>
<path id="star16" d="M 0.0 -1.0 L 0.097545 -0.490393 L 0.382683 -0.92388 L 0.277785 -0.415735 L 0.707107 -0.707107 L 0.415735 -0.277785 L 0.92388 -0.382683 L 0.490393 -0.097545 L 1.0 -0.0 L 0.490393 0.097545 L 0.92388 0.382683 L 0.415735 0.277785 L 0.707107 0.707107 L 0.277785 0.415735 L 0.382683 0.92388 L 0.097545 0.490393 L 0.0 1.0 L -0.097545 0.490393 L -0.382683 0.92388 L -0.277785 0.415735 L -0.707107 0.707107 L -0.415735 0.277785 L -0.92388 0.382683 L -0.490393 0.097545 L -1.0 0.0 L -0.490393 -0.097545 L -0.92388 -0.382683 L -0.415735 -0.277785 L -0.707107 -0.707107 L -0.277785 -0.415735 L -0.382683 -0.92388 L -0.097545 -0.490393 Z"/>
</defs>
<g>
<rect x="0" y="0" width="450" height="360" class="black"/>
<use xlink:href="#star16" transform="translate(225 140.8696) scale(117.3913 117.3913) rotate(0)" class="yellow"/>
<rect x="0" y="140.8696" width="450" height="219.1304" class="blue"/>
<rect x="0" y="219.1304" width="450" height="140.8696" class="white"/>
<path d="M 0 360 L 0 0 L 225 360 L 450 0 L 450 360 Z" class="red"/>
</g>
</svg>
