<?xml version="1.0"?>
<svg xmlns="http://www.w3.org/2000/svg" xmlns:xlink="http://www.w3.org/1999/xlink" version="1.1" width="450" height="360" viewBox="0 0 450 360">
<!-- Generated by Kreative Vexillo v1.0 -->
<style>
.green{fill:rgb(0,178,89);}
.red{fill:rgb(227,61,58);}
.white{fill:rgb(255,255,255);}
</style>
<defs>
<path id="star6" d="M 0.0 -1.0 L 0.288675 -0.5 L 0.866025 -0.5 L 0.57735 -0.0 L 0.866025 0.5 L 0.288675 0.5 L 0.0 1.0 L -0.288675 0.5 L -0.866025 0.5 L -0.57735 0.0 L -0.866025 -0.5 L -0.288675 -0.5 Z"/>
</defs>
<g>
<rect x="0" y="0" width="450" height="360" class="red"/>
<path d="M 0 0 L 225 180 L 0 360 Z" class="green"/>
<path d="M 450 360 L 225 180 L 450 0 Z" class="green"/>
<path d="M 0 0 L 0 28.8141 L 0 28.8141 L 188.9824 180 L 0 331.1859 L 0 331.1859 L 0 360 L 36.0176 360 L 225 208.8141 L 225 208.8141 L 225 208.8141 L 225 208.8141 L 225 208.8141 L 225 208.8141 L 413.9824 360 L 450 360 L 450 331.1859 L 450 331.1859 L 261.0176 180 L 261.0176 180 L 450 28.8141 L 450 0 L 413.9824 0 L 225 151.1859 L 225 151.1859 L 36.0176 0 Z" class="white"/>
<ellipse cx="225" cy="180" rx="108" ry="108" class="white"/>
<use xlink:href="#star6" transform="translate(225 128.0385) scale(24.75 24.75) rotate(0)" class="green"/>
<use xlink:href="#star6" transform="translate(180 205.9808) scale(24.75 24.75) rotate(0)" class="green"/>
<use xlink:href="#star6" transform="translate(270 205.9808) scale(24.75 24.75) rotate(0)" class="green"/>
<use xlink:href="#star6" transform="translate(225 128.0385) scale(20.25 20.25) rotate(0)" class="red"/>
<use xlink:href="#star6" transform="translate(180 205.9808) scale(20.25 20.25) rotate(0)" class="red"/>
<use xlink:href="#star6" transform="translate(270 205.9808) scale(20.25 20.25) rotate(0)" class="red"/>
</g>
</svg>
