<?xml version="1.0"?>
<svg xmlns="http://www.w3.org/2000/svg" xmlns:xlink="http://www.w3.org/1999/xlink" version="1.1" width="450" height="360" viewBox="0 0 450 360">
<!-- Generated by Kreative Vexillo v1.0 -->
<style>
.blue{fill:rgb(62,64,149);}
.green{fill:rgb(0,168,89);}
.white{fill:rgb(255,255,255);}
.yellow{fill:rgb(255,204,41);}
</style>
<defs>
<path id="band" d="M -0.3081 -0.2144 C -0.35799998 -0.2144 -0.4078 -0.2103 -0.4569 -0.20339999 C -0.468 -0.17849998 -0.4771 -0.15259999 -0.484 -0.12579998 C -0.4185 -0.13719998 -0.3521 -0.14299998 -0.2857 -0.14289999 C -0.004999995 -0.14699998 0.2693 -0.035699993 0.47730002 0.14950001 C 0.48540002 0.12360001 0.49150002 0.096900016 0.49530002 0.06940001 C 0.4256 0.0105 0.3491 -0.0404 0.2669 -0.0814 C 0.0967 -0.1688 -0.0944 -0.2146 -0.2857 -0.2143 C -0.2932 -0.2143 -0.3006 -0.2143 -0.3081 -0.2143 Z"/>
<path id="disc" d="M 0.5 0.0 A 0.5 0.5 0.0 0 0 -0.5 0.0 A 0.5 0.5 0.0 0 0 0.5 0.0 Z"/>
<path id="stars" d="M 0.0 0.384 C 0.0 0.3856 -0.0011 0.3873 -0.0016 0.3889 C -0.0033 0.3889 -0.0051 0.3889 -0.0068 0.3889 C -0.0054 0.3899 -0.004 0.39090002 -0.0026000002 0.3919 C -0.0026000002 0.3935 -0.0037000002 0.3952 -0.0042000003 0.3968 C -0.0028000004 0.39580002 -0.0014000004 0.3948 -4.656613E-10 0.39380002 C 0.0013999995 0.3948 0.0027999994 0.39580002 0.0041999994 0.3968 C 0.0041999994 0.3952 0.0030999994 0.3935 0.0025999993 0.3919 C 0.0039999993 0.39090002 0.005399999 0.3899 0.006799999 0.3889 C 0.0050999993 0.3889 0.003299999 0.3889 0.0015999991 0.3889 C 0.0015999991 0.3873 4.9999915E-4 0.3856 -8.1490725E-10 0.384 Z M -0.2007 0.2439 C -0.2023 0.2488 -0.2039 0.2538 -0.2055 0.2587 C -0.2107 0.2587 -0.2159 0.2587 -0.221 0.2587 C -0.2168 0.26180002 -0.21260001 0.2648 -0.2084 0.26790002 C -0.21 0.27280003 -0.21159999 0.27780002 -0.2132 0.28270003 C -0.209 0.27960002 -0.20480001 0.27660003 -0.2006 0.27350003 C -0.1964 0.27660003 -0.1922 0.27960002 -0.188 0.28270003 C -0.18959999 0.27780002 -0.19119999 0.27280003 -0.1928 0.26790002 C -0.1886 0.2648 -0.1844 0.26180002 -0.1802 0.2587 C -0.1854 0.2587 -0.1906 0.2587 -0.19579999 0.2587 C -0.19739999 0.2538 -0.19899999 0.24880001 -0.2006 0.24390002 Z M 0.11139999 0.2661 C 0.10999999 0.26929998 0.10869999 0.27249998 0.10729999 0.2757 C 0.10389999 0.2757 0.10039999 0.2757 0.09699999 0.2757 C 0.09959999 0.278 0.10219999 0.2803 0.10489999 0.28260002 C 0.103499986 0.2858 0.10219999 0.289 0.100799985 0.2921 C 0.10369998 0.2903 0.10669999 0.2885 0.109599985 0.28680003 C 0.112199984 0.28910002 0.114799984 0.29130003 0.117499985 0.29360002 C 0.117499985 0.29020002 0.11599998 0.2869 0.11519998 0.28350002 C 0.11819998 0.28170002 0.121099986 0.2799 0.124099985 0.27820003 C 0.12069999 0.27820003 0.11719999 0.27820003 0.11379998 0.27820003 C 0.11379998 0.27480003 0.112199984 0.27150002 0.11139998 0.26810002 Z M 0.19369999 0.2784 C 0.19229999 0.2816 0.19099998 0.2848 0.18959999 0.2879 C 0.1862 0.2879 0.1827 0.2879 0.1793 0.2879 C 0.1819 0.2902 0.1845 0.2924 0.1871 0.2947 C 0.18579999 0.2979 0.18439999 0.3011 0.1831 0.3042 C 0.1861 0.3024 0.189 0.3006 0.192 0.2989 C 0.1946 0.3012 0.1972 0.3034 0.1998 0.3057 C 0.1998 0.3023 0.1983 0.299 0.1975 0.2956 C 0.20050001 0.2938 0.2034 0.292 0.2064 0.2903 C 0.20300001 0.2903 0.19950001 0.2903 0.19610001 0.2903 C 0.19610001 0.2869 0.19450001 0.2836 0.19370002 0.2802 Z M 0.1497 0.3189 C 0.1484 0.32299998 0.147 0.32709998 0.14570001 0.3313 C 0.14140001 0.3313 0.13710001 0.3313 0.13270001 0.3313 C 0.13620001 0.3338 0.13970001 0.3364 0.14320001 0.3389 C 0.1419 0.343 0.14050001 0.3471 0.13920002 0.35119998 C 0.14270002 0.3487 0.14620002 0.34609997 0.14970002 0.34359998 C 0.15320002 0.34609997 0.15670002 0.3487 0.16020001 0.35119998 C 0.15890001 0.3471 0.15750001 0.343 0.15620002 0.33889997 C 0.15970002 0.33639997 0.16320002 0.33379996 0.16670002 0.33129996 C 0.16240002 0.33129996 0.15800002 0.33129996 0.15370002 0.33129996 C 0.15240002 0.32719997 0.15100002 0.32309997 0.14970003 0.31889996 Z M -0.0269 0.1498 C -0.0269 0.1522 -0.0269 0.1547 -0.027900001 0.1571 C -0.0303 0.1571 -0.0328 0.1571 -0.0352 0.15840001 C -0.033 0.15950002 -0.0308 0.1606 -0.0285 0.16160001 C -0.0285 0.1641 -0.0285 0.1665 -0.0295 0.16900001 C -0.0278 0.16720001 -0.026 0.16540001 -0.0243 0.16370001 C -0.0221 0.16480002 -0.0199 0.16590002 -0.0176 0.16690001 C -0.0188 0.1647 -0.0199 0.16260001 -0.0211 0.1604 C -0.019399999 0.1586 -0.0177 0.1568 -0.015999999 0.155 C -0.018399999 0.155 -0.0209 0.155 -0.0233 0.15630001 C -0.0245 0.1541 -0.0256 0.15190001 -0.0268 0.1498 Z M -0.0528 0.1111 C -0.0528 0.1145 -0.053799998 0.11790001 -0.0542 0.121300004 C -0.057600003 0.121300004 -0.061 0.1225 -0.0644 0.123100005 C -0.061300002 0.12460001 -0.0582 0.1261 -0.0551 0.1276 C -0.0551 0.131 -0.0561 0.1345 -0.056500003 0.1379 C -0.054100003 0.1354 -0.051700003 0.1329 -0.049300004 0.1304 C -0.046200003 0.1319 -0.043100003 0.13340001 -0.040000003 0.1349 C -0.041600004 0.1319 -0.0432 0.1288 -0.044900004 0.1258 C -0.042500004 0.1233 -0.040100005 0.120799996 -0.037700005 0.1183 C -0.041100007 0.1183 -0.044500005 0.1195 -0.047900006 0.1201 C -0.049500007 0.117 -0.051100004 0.114 -0.052800007 0.1109 Z M -0.0031000003 0.0627 C -0.0031000003 0.067 -0.0043 0.0713 -0.0049 0.075500004 C -0.0092 0.075500004 -0.0134000005 0.07700001 -0.0177 0.077800006 C -0.0138 0.07970001 -0.0099 0.0816 -0.006 0.083500005 C -0.006 0.0878 -0.0072 0.09210001 -0.0078 0.096300006 C -0.0047999998 0.093200006 -0.0017999997 0.090100005 0.0011999998 0.087000005 C 0.0050999997 0.08890001 0.009 0.0908 0.0128 0.092700005 C 0.010799999 0.08890001 0.0087 0.0851 0.0067 0.081300005 C 0.0097 0.078200005 0.0127 0.075100005 0.0157 0.072000004 C 0.011399999 0.072000004 0.007199999 0.07350001 0.0028999997 0.074200004 C 8.9999964E-4 0.07040001 -0.0012000003 0.0666 -0.0032000002 0.062800005 Z M 0.0578 0.1073 C 0.0565 0.1114 0.055099998 0.115499996 0.053799998 0.1197 C 0.049499996 0.1197 0.045199998 0.1197 0.040799998 0.1197 C 0.044299997 0.1222 0.047799997 0.1248 0.051299997 0.1273 C 0.049999997 0.13139999 0.048599996 0.1355 0.047299996 0.1397 C 0.050799996 0.1371 0.054299995 0.1346 0.057799995 0.132 C 0.061299995 0.1346 0.064799994 0.1371 0.068299994 0.1397 C 0.066999994 0.1356 0.06559999 0.13149999 0.06429999 0.1273 C 0.06779999 0.1248 0.07129999 0.1222 0.07479999 0.11969999 C 0.070499994 0.11969999 0.066099994 0.11969999 0.061799992 0.11969999 C 0.060499992 0.11559999 0.05909999 0.111499995 0.05779999 0.10729999 Z M 0.0 0.203 C -0.0016 0.20789999 -0.0032 0.2129 -0.0048 0.21779999 C -0.01 0.21779999 -0.0152 0.21779999 -0.0203 0.21779999 C -0.0161 0.22089998 -0.011900001 0.22389999 -0.007700001 0.227 C -0.009300001 0.23189999 -0.010900001 0.2369 -0.012500001 0.2418 C -0.008300001 0.2387 -0.0041000014 0.2357 9.99989E-5 0.23259999 C 0.0042999987 0.23569998 0.008499999 0.23869999 0.012699999 0.2418 C 0.011099999 0.2369 0.009499999 0.23189999 0.007899999 0.227 C 0.012099998 0.22399999 0.016299998 0.2209 0.020499999 0.2179 C 0.015299998 0.2179 0.010099999 0.2179 0.004999999 0.2179 C 0.0032 0.2129 0.0016 0.208 0.0 0.203 Z M 0.1402 -0.0388 C 0.1382 -0.036000002 0.13620001 -0.0331 0.13430001 -0.0303 C 0.13100001 -0.0313 0.1277 -0.0323 0.124400005 -0.0333 C 0.12650001 -0.030500002 0.1286 -0.027700001 0.1307 -0.025000002 C 0.1287 -0.022200003 0.12670001 -0.019400002 0.12470001 -0.016500002 C 0.128 -0.017600002 0.13120002 -0.018700002 0.13450001 -0.019800002 C 0.13660002 -0.017 0.13870001 -0.014300002 0.14080001 -0.011500002 C 0.14080001 -0.015000002 0.14080001 -0.018400002 0.14080001 -0.021900002 C 0.14410001 -0.023000002 0.14730002 -0.024200002 0.15060002 -0.025300002 C 0.14730002 -0.026300002 0.14400002 -0.027300002 0.14060001 -0.028300002 C 0.14060001 -0.0318 0.14060001 -0.035200004 0.14060001 -0.038700003 Z M -0.18159999 0.004999999 C -0.18479998 0.007899999 -0.188 0.010799998 -0.19119999 0.013699999 C -0.19489999 0.011499999 -0.19869998 0.009399999 -0.20239998 0.007199999 C -0.20059998 0.011099999 -0.19889998 0.015099999 -0.19709998 0.019 C -0.20029998 0.0219 -0.20349999 0.024799999 -0.20669998 0.0277 C -0.20239998 0.0277 -0.19809999 0.0277 -0.19379999 0.0263 C -0.19199999 0.0303 -0.19029999 0.034199998 -0.18849999 0.0382 C -0.18849999 0.033999998 -0.18669999 0.029699998 -0.18579999 0.0255 C -0.18149999 0.0255 -0.17719999 0.0255 -0.17289999 0.0241 C -0.1767 0.0219 -0.18039998 0.0198 -0.18419999 0.0176 C -0.18419999 0.0134 -0.18239999 0.009099999 -0.18149999 0.0049 Z M 0.24820001 0.2613 C 0.24710001 0.2646 0.24610001 0.2679 0.24500002 0.27109998 C 0.24150002 0.27109998 0.23810002 0.27109998 0.23460002 0.27109998 C 0.23740003 0.2731 0.24020003 0.27519998 0.24300002 0.27719998 C 0.24190001 0.2805 0.24090001 0.28379998 0.23980002 0.2871 C 0.24260002 0.28509998 0.24540003 0.283 0.24820001 0.281 C 0.25100002 0.283 0.2538 0.28509998 0.25660002 0.2871 C 0.25550002 0.28379998 0.2544 0.2805 0.25340003 0.27719998 C 0.25620002 0.27519998 0.25900003 0.2731 0.26180002 0.27109998 C 0.2583 0.27109998 0.2549 0.27109998 0.25140002 0.27109998 C 0.25030002 0.26779997 0.24920002 0.2645 0.24820003 0.2613 Z M 0.34 0.242 C 0.3387 0.2461 0.3373 0.2502 0.336 0.25439999 C 0.3317 0.25439999 0.32729998 0.25439999 0.32299998 0.25439999 C 0.3265 0.25689998 0.32999998 0.2595 0.3335 0.262 C 0.3322 0.2661 0.3308 0.27019998 0.3295 0.2744 C 0.333 0.2719 0.3365 0.26929998 0.34 0.2668 C 0.34350002 0.26929998 0.347 0.2719 0.35050002 0.2744 C 0.3492 0.2703 0.34780002 0.2662 0.3465 0.262 C 0.35000002 0.2595 0.3535 0.25689998 0.35700002 0.25439999 C 0.35270002 0.25439999 0.34840003 0.25439999 0.344 0.25439999 C 0.3427 0.2503 0.3413 0.24619998 0.34 0.24199998 Z M 0.2999 0.2708 C 0.2988 0.2741 0.2978 0.2774 0.2967 0.28059998 C 0.2932 0.28059998 0.2898 0.28059998 0.2863 0.28059998 C 0.2891 0.2826 0.2919 0.28469998 0.2947 0.28669998 C 0.2936 0.29 0.2926 0.29329997 0.2915 0.29659998 C 0.2943 0.29459998 0.2971 0.2925 0.2999 0.2905 C 0.30269998 0.2925 0.3055 0.29459998 0.3083 0.29659998 C 0.30719998 0.29329997 0.30609998 0.29 0.3051 0.28669998 C 0.30789998 0.28469998 0.3107 0.2826 0.3135 0.28059998 C 0.30999997 0.28059998 0.30659997 0.28059998 0.3031 0.28059998 C 0.302 0.27729997 0.30089998 0.274 0.2999 0.2708 Z M 0.2496 0.3606 C 0.24849999 0.3639 0.24749999 0.3672 0.2464 0.3705 C 0.2429 0.3705 0.2395 0.3705 0.236 0.3705 C 0.2388 0.3725 0.2416 0.3746 0.2444 0.3766 C 0.24329999 0.3799 0.24219999 0.3832 0.2412 0.3865 C 0.244 0.3845 0.2468 0.3824 0.2496 0.3804 C 0.25239998 0.3824 0.2552 0.3845 0.258 0.3865 C 0.25689998 0.3832 0.25579998 0.3799 0.2548 0.3766 C 0.25759998 0.3746 0.2604 0.3725 0.26319999 0.3705 C 0.25969997 0.3705 0.25629997 0.3705 0.2528 0.3705 C 0.25169998 0.3672 0.25059998 0.3639 0.2496 0.3606 Z M 0.2496 0.3067 C 0.24829999 0.3108 0.24689999 0.31489998 0.2456 0.319 C 0.2413 0.319 0.2369 0.319 0.2326 0.319 C 0.2361 0.32160002 0.2396 0.32410002 0.2431 0.3267 C 0.2418 0.3308 0.2404 0.3349 0.23910001 0.339 C 0.24260001 0.3365 0.24610001 0.33389997 0.24960001 0.33139998 C 0.2531 0.33389997 0.25660002 0.3365 0.2601 0.339 C 0.2588 0.3349 0.2574 0.3308 0.2561 0.32669997 C 0.2596 0.32409996 0.2631 0.32159996 0.2666 0.31899998 C 0.2623 0.31899998 0.2579 0.31899998 0.2536 0.31899998 C 0.2523 0.31489998 0.2509 0.3108 0.24960001 0.3067 Z M 0.3714 0.2019 C 0.3699 0.206 0.3685 0.21000001 0.36699998 0.2141 C 0.3627 0.2141 0.35829997 0.2141 0.35399997 0.2141 C 0.35739997 0.2168 0.36079997 0.2194 0.36419997 0.2221 C 0.36269996 0.2262 0.36129996 0.23020001 0.35979998 0.2343 C 0.36339998 0.2319 0.36699998 0.2295 0.3706 0.227 C 0.37399998 0.2297 0.37739998 0.2323 0.38079998 0.235 C 0.3796 0.2309 0.37839997 0.2267 0.37719998 0.2226 C 0.38079998 0.2202 0.38439998 0.2177 0.38799998 0.2153 C 0.38369998 0.2153 0.37929997 0.2153 0.37499997 0.2153 C 0.37379998 0.2111 0.37259996 0.20699999 0.37149996 0.20279999 Z M 0.421 0.16610001 C 0.4196 0.1693 0.4183 0.17250001 0.4169 0.1756 C 0.4135 0.1756 0.41 0.1756 0.4066 0.1756 C 0.4092 0.1779 0.4118 0.18010001 0.4145 0.1824 C 0.4131 0.1856 0.4118 0.1888 0.4104 0.1919 C 0.4134 0.1901 0.4163 0.1883 0.4193 0.1866 C 0.4219 0.1889 0.4245 0.1911 0.4272 0.1934 C 0.4272 0.19 0.4256 0.1867 0.42479998 0.18329999 C 0.42779997 0.18149999 0.43069997 0.17969999 0.43369997 0.17799999 C 0.43029997 0.17799999 0.42679995 0.17799999 0.42339996 0.17799999 C 0.42339996 0.17459999 0.42179996 0.1713 0.42099994 0.1679 Z M 0.3503 0.1541 C 0.34870002 0.159 0.34710002 0.164 0.34550002 0.1689 C 0.34030002 0.1689 0.33510002 0.1689 0.33 0.1689 C 0.33420002 0.1719 0.3384 0.175 0.34260002 0.178 C 0.34100002 0.1829 0.33940002 0.1879 0.33780003 0.1928 C 0.34200004 0.1897 0.34620002 0.1867 0.35040003 0.1836 C 0.35460004 0.18669999 0.35880002 0.18969999 0.36300004 0.1928 C 0.36140004 0.1879 0.35980004 0.1829 0.35820004 0.178 C 0.36240005 0.17490001 0.36660004 0.1719 0.37080005 0.1688 C 0.36560005 0.1688 0.36040005 0.1688 0.35520005 0.1688 C 0.35360005 0.1639 0.35200006 0.1589 0.35040006 0.154 Z M 0.1551 -0.1765 C 0.1535 -0.1716 0.15190001 -0.16659999 0.1503 -0.1617 C 0.1451 -0.1617 0.1399 -0.1617 0.1348 -0.1617 C 0.139 -0.15869999 0.1432 -0.1556 0.1474 -0.15259999 C 0.14580001 -0.1477 0.14420001 -0.14269999 0.1426 -0.1378 C 0.1468 -0.14089999 0.151 -0.14389999 0.1552 -0.147 C 0.1594 -0.1439 0.1636 -0.1409 0.16780001 -0.1378 C 0.16620001 -0.14269999 0.16460001 -0.1477 0.163 -0.15259999 C 0.1672 -0.15569998 0.1714 -0.15869999 0.1756 -0.1618 C 0.17040001 -0.1618 0.16520001 -0.1618 0.16010001 -0.1618 C 0.15850002 -0.16669999 0.15690002 -0.1717 0.1553 -0.1766 Z M -0.2748 0.2019 C -0.2761 0.206 -0.2775 0.21010001 -0.2788 0.2142 C -0.2831 0.2142 -0.28750002 0.2142 -0.29180002 0.2142 C -0.2883 0.2167 -0.28480002 0.2193 -0.2813 0.2218 C -0.28260002 0.2259 -0.284 0.23 -0.28530002 0.2342 C -0.2818 0.2317 -0.27830002 0.2291 -0.2748 0.2266 C -0.2713 0.2291 -0.2678 0.2317 -0.2643 0.2342 C -0.2656 0.2301 -0.267 0.226 -0.2683 0.2218 C -0.26479998 0.2193 -0.2613 0.2167 -0.25779998 0.2142 C -0.26209998 0.2142 -0.26639998 0.2142 -0.2708 0.2142 C -0.2721 0.21010001 -0.2735 0.206 -0.2748 0.2019 Z M -0.25980002 0.15220001 C -0.26110002 0.15630001 -0.26250002 0.16040002 -0.26380002 0.16450001 C -0.26810002 0.16450001 -0.27250004 0.16450001 -0.27680004 0.16450001 C -0.27330002 0.16710001 -0.26980004 0.16960001 -0.26630002 0.17220001 C -0.26760003 0.1763 -0.26900002 0.18040001 -0.27030003 0.18450001 C -0.26680002 0.18200001 -0.26330003 0.17940001 -0.25980002 0.17690001 C -0.2563 0.17940001 -0.25280002 0.18200001 -0.24930002 0.18450001 C -0.2506 0.18040001 -0.252 0.1763 -0.2533 0.17220001 C -0.24980001 0.16960001 -0.24630001 0.16710001 -0.24280001 0.16450001 C -0.24710001 0.16450001 -0.2515 0.16450001 -0.2558 0.16450001 C -0.25710002 0.16040002 -0.2585 0.15630001 -0.25980002 0.15220001 Z M -0.3149 0.079600014 C -0.3149 0.08200002 -0.31640002 0.08430001 -0.3172 0.086700015 C -0.3197 0.086700015 -0.3221 0.086700015 -0.3246 0.086700015 C -0.3226 0.088100016 -0.3206 0.08960001 -0.3186 0.09100001 C -0.3186 0.09340002 -0.3201 0.09570001 -0.3209 0.098100014 C -0.3189 0.09660001 -0.31689999 0.09520002 -0.31489998 0.093700014 C -0.31289998 0.09520002 -0.31089997 0.09660001 -0.30889997 0.098100014 C -0.30889997 0.09570001 -0.31039998 0.09340002 -0.31119996 0.09100001 C -0.30919996 0.08960001 -0.30719995 0.088100016 -0.30519995 0.086700015 C -0.30769995 0.086700015 -0.31009996 0.086700015 -0.31259996 0.086700015 C -0.31259996 0.08430001 -0.31409997 0.08200002 -0.31489995 0.079600014 Z M -0.42380002 0.15110001 C -0.42520002 0.1543 -0.42650002 0.15750001 -0.42790002 0.1606 C -0.43140003 0.1606 -0.43480003 0.1606 -0.4383 0.1606 C -0.4357 0.1629 -0.43310001 0.16510001 -0.4304 0.1674 C -0.4318 0.1706 -0.43310001 0.1738 -0.4345 0.177 C -0.43150002 0.1752 -0.4286 0.1734 -0.42560002 0.1716 C -0.423 0.1739 -0.42040002 0.1761 -0.41770002 0.1784 C -0.41770002 0.175 -0.41930002 0.1717 -0.42010003 0.1683 C -0.41710004 0.1665 -0.41410002 0.1647 -0.41120005 0.163 C -0.41470006 0.163 -0.41810006 0.163 -0.42160004 0.163 C -0.42160004 0.1596 -0.42310005 0.15630001 -0.42390004 0.15290001 Z M -0.3657 0.09910001 C -0.3669 0.104200006 -0.368 0.10930001 -0.36920002 0.11430001 C -0.37440002 0.11430001 -0.37950003 0.11430001 -0.38470003 0.11560001 C -0.38030005 0.11830001 -0.37580004 0.12090001 -0.37140003 0.12360001 C -0.37260002 0.12870002 -0.37370002 0.13370001 -0.37490004 0.13880001 C -0.37100005 0.13540001 -0.36710003 0.13200001 -0.36310005 0.12860002 C -0.35860005 0.13130002 -0.35420007 0.13390002 -0.34970006 0.13660002 C -0.35170007 0.13180001 -0.35380006 0.12700002 -0.35580006 0.122300014 C -0.35190007 0.118900016 -0.34800005 0.11550001 -0.34400007 0.11210001 C -0.34920007 0.11210001 -0.35430008 0.11210001 -0.35950008 0.113500014 C -0.36150008 0.108700015 -0.36360008 0.103900015 -0.36560008 0.09920001 Z M -0.4 -0.10959999 C -0.40330002 -0.10559999 -0.4066 -0.10169999 -0.41 -0.09769999 C -0.4148 -0.099599995 -0.4196 -0.10159999 -0.4245 -0.10349999 C -0.4217 -0.09909999 -0.419 -0.094699994 -0.41619998 -0.090299994 C -0.4195 -0.08629999 -0.4229 -0.082399994 -0.42619997 -0.07839999 C -0.42119998 -0.07959999 -0.41609997 -0.08089999 -0.41109997 -0.0821 C -0.40829998 -0.0777 -0.40559998 -0.0733 -0.40279996 -0.0689 C -0.40279996 -0.074099995 -0.40279996 -0.079299994 -0.40169996 -0.0844 C -0.39669997 -0.085599996 -0.39169997 -0.086899996 -0.38659996 -0.0881 C -0.39139995 -0.0901 -0.39619997 -0.092 -0.40099996 -0.094000004 C -0.40099996 -0.0992 -0.40099996 -0.10430001 -0.39989996 -0.109500006 Z"/>
<path id="text" d="M -0.4264 -0.1462 A 0.0238 0.0214 83.0 1 0 -0.4322 -0.1935 A 0.0238 0.0214 83.0 0 0 -0.4264 -0.1462 M -0.3625 -0.2 C -0.37170002 -0.19940001 -0.381 -0.1987 -0.39020002 -0.1981 C -0.38930002 -0.1822 -0.38840002 -0.1664 -0.3876 -0.1505 C -0.3847 -0.1507 -0.3817 -0.1509 -0.3788 -0.1511 C -0.3792 -0.15699999 -0.37960002 -0.1629 -0.38 -0.1688 C -0.3737 -0.1692 -0.3674 -0.1697 -0.3611 -0.1701 C -0.3568 -0.1658 -0.3559 -0.1594 -0.3554 -0.15370001 C -0.3557 -0.15220001 -0.354 -0.15310001 -0.3531 -0.15300001 C -0.3511 -0.15310001 -0.3492 -0.15330002 -0.3472 -0.15340002 C -0.3477 -0.15930001 -0.3481 -0.16550002 -0.3513 -0.17060003 C -0.3516 -0.17190003 -0.35480002 -0.17290002 -0.3522 -0.17380002 C -0.3445 -0.18000002 -0.3458 -0.19340003 -0.3545 -0.19800001 C -0.3569 -0.19940001 -0.3597 -0.20010002 -0.3624 -0.20000002 Z M -0.3273 -0.1543 L -0.30490002 -0.15470001 A 0.0204 0.0204 0.0 0 0 -0.2849 -0.1755 L -0.285 -0.1823 A 0.0204 0.0204 0.0 0 0 -0.3058 -0.2023 L -0.32819998 -0.20189999 Z M -0.26680002 -0.1549 L -0.224 -0.1534 L -0.2237 -0.1622 L -0.2584 -0.16340001 L -0.258 -0.1756 L -0.23079999 -0.1747 L -0.23049998 -0.18290001 L -0.2577 -0.18380001 L -0.2574 -0.19330001 L -0.2248 -0.1922 L -0.2245 -0.201 L -0.2653 -0.2024 Z M -0.2064 -0.1523 L -0.1983 -0.1516 L -0.1955 -0.1841 L -0.1889 -0.1507 L -0.1814 -0.15 L -0.1691 -0.1817 L -0.1719 -0.1492 L -0.1638 -0.14850001 L -0.1596 -0.19590001 L -0.1715 -0.19690001 L -0.1838 -0.16520001 L -0.1904 -0.19860001 L -0.20230001 -0.19960001 Z M -0.107700005 -0.1412 L -0.072500005 -0.13520001 L -0.071100004 -0.14320001 L -0.0983 -0.14790002 L -0.0965 -0.15860002 L -0.0744 -0.15480001 L -0.073 -0.16280001 L -0.0951 -0.16660002 L -0.0938 -0.17400002 L -0.0675 -0.16950002 L -0.0661 -0.17750002 L -0.1005 -0.18340002 Z M -0.017300002 -0.1234 L -0.008700002 -0.1212 L -0.004300002 -0.1383 L 0.014099998 -0.1335 A 0.015 0.015 0.0 0 0 0.021599999 -0.1625 L -0.0047000013 -0.16929999 Z M 0.056099996 -0.153 C 0.051099997 -0.1379 0.046099998 -0.12279999 0.041199997 -0.10779999 C 0.043999996 -0.10689999 0.046799995 -0.10599999 0.0497 -0.10519999 C 0.0515 -0.11079999 0.0532 -0.11639999 0.055 -0.122099996 C 0.061 -0.12019999 0.0671 -0.1183 0.0731 -0.116399996 C 0.0757 -0.110599995 0.0739 -0.103999995 0.0721 -0.09819999 C 0.0747 -0.097399995 0.0773 -0.096599996 0.0799 -0.095699996 C 0.0817 -0.1015 0.083699994 -0.10779999 0.0822 -0.1139 C 0.0822 -0.114999995 0.0799 -0.116799995 0.0827 -0.1166 C 0.0921 -0.1195 0.0958 -0.1325 0.0894 -0.14 C 0.0861 -0.1445 0.080400005 -0.1454 0.075500004 -0.1471 C 0.06910001 -0.1491 0.0627 -0.1512 0.056300003 -0.1532 Z M 0.1187 -0.0817 A 0.0214 0.0238 20.5 0 0 0.1354 -0.12629999 A 0.0214 0.0238 20.5 1 0 0.1187 -0.0817 M 0.1855 -0.1047 C 0.1771 -0.1049 0.1686 -0.1 0.1653 -0.0919 C 0.15969999 -0.0804 0.16239999 -0.0653 0.1748 -0.0591 C 0.17979999 -0.0567 0.1854 -0.056599997 0.19039999 -0.0583 L 0.1882 -0.0533 L 0.1944 -0.0505 L 0.2012 -0.0661 C 0.20199999 -0.0673 0.20269999 -0.068500005 0.2033 -0.0699 C 0.2037 -0.0707 0.204 -0.0714 0.2043 -0.0722 L 0.2039 -0.0724 L 0.2012 -0.0736 L 0.1977 -0.075100005 L 0.1961 -0.0758 L 0.1874 -0.0796 L 0.1847 -0.0733 L 0.1928 -0.0698 C 0.1927 -0.06959999 0.1925 -0.0695 0.1924 -0.069299996 C 0.18879999 -0.0654 0.18409999 -0.06519999 0.1795 -0.067099996 L 0.1789 -0.06739999 L 0.1778 -0.06809999 C 0.1687 -0.07239999 0.1698 -0.085899994 0.1764 -0.09239999 C 0.18 -0.09629999 0.1858 -0.096499994 0.1904 -0.09459999 L 0.1909 -0.094299994 L 0.1916 -0.093899995 C 0.1955 -0.09149999 0.1959 -0.088099994 0.19659999 -0.08449999 L 0.2058 -0.08049999 C 0.2058 -0.08939999 0.2033 -0.098299995 0.1938 -0.102699995 C 0.1912 -0.103999995 0.1884 -0.1046 0.1855 -0.10469999 Z M 0.2323 -0.0854 C 0.225 -0.0713 0.2177 -0.0572 0.2105 -0.0431 C 0.2131 -0.0418 0.2158 -0.0405 0.2184 -0.0392 C 0.221 -0.0445 0.2237 -0.0497 0.2263 -0.055 C 0.23200001 -0.0522 0.2376 -0.0494 0.2433 -0.046499997 C 0.2449 -0.040299997 0.2422 -0.034099996 0.2394 -0.028599998 C 0.2418 -0.027399998 0.2443 -0.026199998 0.2467 -0.024999999 C 0.2493 -0.030499998 0.2523 -0.0363 0.2518 -0.0426 C 0.252 -0.0437 0.2499 -0.0459 0.2527 -0.045199998 C 0.2625 -0.0466 0.2682 -0.058799997 0.2631 -0.0672 C 0.26049998 -0.072299995 0.2549 -0.074 0.2502 -0.0765 C 0.24430001 -0.0795 0.2383 -0.0824 0.2324 -0.0854 Z M 0.2643 -0.015699998 L 0.30159998 0.005400002 L 0.306 -0.002299998 L 0.2758 -0.019399999 L 0.2818 -0.0301 L 0.3055 -0.0167 L 0.3095 -0.0238 L 0.2858 -0.0372 L 0.29050002 -0.0455 L 0.31890002 -0.029399998 L 0.3233 -0.0371 L 0.2878 -0.0572 Z M 0.3338 0.007600002 C 0.33119997 0.011600003 0.3338 0.016100002 0.3396 0.019700002 C 0.3453 0.023400001 0.3492 0.023200002 0.3509 0.020600002 C 0.3561 0.012400002 0.326 5.000029E-4 0.3353 -0.013799999 C 0.34329998 -0.025999999 0.357 -0.0165 0.3622 -0.013199999 C 0.3674 -0.009899999 0.3757 -0.0013999986 0.3692 0.008400002 L 0.36049998 0.0028000018 C 0.36319998 -0.0014999984 0.3602 -0.005599998 0.35559997 -0.008599998 C 0.35119998 -0.011399998 0.34749997 -0.012699999 0.34489998 -0.008599998 C 0.3405 -0.0018999986 0.36999997 0.0106000025 0.36089998 0.0248 C 0.35419998 0.0353 0.3426 0.030700002 0.3349 0.0258 C 0.3283 0.0216 0.3184 0.011700001 0.3249 0.0017000008 Z M 0.38489997 0.0414 C 0.3821 0.0453 0.38449997 0.049900003 0.39 0.0538 C 0.39549997 0.057800002 0.3994 0.057800002 0.4012 0.0553 C 0.4068 0.0474 0.37739998 0.0339 0.3874 0.0202 C 0.396 0.008399999 0.4092 0.0186 0.4142 0.0222 C 0.4192 0.025799999 0.42700002 0.0347 0.4201 0.0441 L 0.4117 0.0381 C 0.4147 0.0339 0.4119 0.0297 0.4074 0.026500002 C 0.4031 0.023400001 0.3996 0.022000002 0.39670002 0.026000002 C 0.39190003 0.0324 0.4207 0.046500005 0.411 0.060200006 C 0.4038 0.070300005 0.39240003 0.06510001 0.38500002 0.059800006 C 0.37860003 0.055300005 0.3693 0.044800006 0.37620002 0.035200007 Z M 0.43319997 0.096200004 A 0.0214 0.0238 38.5 1 0 0.4628 0.059 A 0.0214 0.0238 38.5 1 0 0.4331 0.0963"/>
<path id="text-holes" d="M -0.4275 -0.1549 A 0.015 0.0126 83.0 1 0 -0.4311 -0.1846 A 0.015 0.0126 83.0 0 0 -0.4275 -0.1549 M -0.3632 -0.191 C -0.3589 -0.1915 -0.3554 -0.1867 -0.35700002 -0.1827 C -0.35790002 -0.17999999 -0.36080003 -0.1786 -0.36350003 -0.1787 C -0.36920002 -0.1783 -0.37490004 -0.1779 -0.38060004 -0.1775 C -0.38090003 -0.18159999 -0.38120005 -0.1857 -0.38150004 -0.18969999 C -0.37540004 -0.1901 -0.36930004 -0.1906 -0.36320004 -0.191 Z M -0.3186 -0.1632 L -0.3057 -0.16340001 A 0.0129 0.0129 0.0 0 0 -0.293 -0.17650001 L -0.2931 -0.1806 A 0.0129 0.0129 0.0 0 0 -0.3062 -0.19330001 L -0.3191 -0.1931 Z M -0.0020999908 -0.14680001 L 0.015700009 -0.14220001 A 0.0061 0.0061 0.0 1 0 0.018800009 -0.1541 L 0.0010000095 -0.1587 Z M 0.061200008 -0.1421 C 0.067200005 -0.1402 0.073300004 -0.1383 0.07930001 -0.13630001 C 0.08330001 -0.13480002 0.08430001 -0.1289 0.08100001 -0.12610002 C 0.07890001 -0.12410002 0.07590001 -0.12430002 0.073400006 -0.12530002 C 0.068100005 -0.12700002 0.062800005 -0.12870002 0.057500005 -0.13030002 C 0.058700006 -0.13420002 0.059900004 -0.13810001 0.061200004 -0.14200002 Z M 0.121800005 -0.0899 A 0.0126 0.015 20.5 0 0 0.1323 -0.1179 A 0.0126 0.015 20.5 1 0 0.121800005 -0.0899 M 0.2356 -0.0737 C 0.2413 -0.0709 0.247 -0.068100005 0.25259998 -0.0652 C 0.25629997 -0.0631 0.2564 -0.0571 0.25269997 -0.0549 C 0.25029996 -0.0531 0.24719997 -0.054 0.24489997 -0.055400003 C 0.23999998 -0.057800002 0.23509997 -0.060300004 0.23019998 -0.0627 C 0.23199998 -0.06640001 0.23379998 -0.07 0.23569998 -0.0737 Z M 0.4387 0.0894 A 0.0126 0.015 38.5 0 0 0.45729998 0.066 A 0.0126 0.015 38.5 1 0 0.4387 0.0894"/>
</defs>
<g>
<rect x="0" y="0" width="450" height="360" class="green"/>
<path d="M 225 43.7143 L 406.2857 180 L 225 316.2857 L 43.7143 180 Z" class="yellow"/>
<use xlink:href="#disc" transform="translate(225 180) scale(180 180) rotate(0)" class="blue"/>
<use xlink:href="#band" transform="translate(225 180) scale(180 180) rotate(0)" class="white"/>
<use xlink:href="#text" transform="translate(225 180) scale(180 180) rotate(0)" class="green"/>
<use xlink:href="#text-holes" transform="translate(225 180) scale(180 180) rotate(0)" class="white"/>
<use xlink:href="#stars" transform="translate(225 180) scale(180 180) rotate(0)" class="white"/>
</g>
</svg>
