<?xml version="1.0"?>
<svg xmlns="http://www.w3.org/2000/svg" xmlns:xlink="http://www.w3.org/1999/xlink" version="1.1" width="450" height="360" viewBox="0 0 450 360">
<!-- Generated by Kreative Vexillo v1.0 -->
<style>
.blue{fill:rgb(0,56,101);}
.red{fill:rgb(186,12,47);}
.white{fill:rgb(255,255,255);}
.yellow{fill:rgb(255,164,0);}
</style>
<defs>
<clipPath id="clip0">
<path d="M 194.8557 15 L 435.4167 15 L 194.8557 145.359 Z"/>
</clipPath>
<clipPath id="clip1">
<path d="M 194.8557 345 L 435.4167 345 L 194.8557 214.641 Z"/>
</clipPath>
<clipPath id="clip2">
<path d="M 194.8557 164.604 L 370.8333 164.604 L 412.5 180 L 370.8333 195.396 L 194.8557 195.396 L 211.5224 180 Z"/>
</clipPath>
</defs>
<g>
<rect x="0" y="0" width="450" height="360" class="white"/>
<rect x="16.6667" y="15" width="157.3557" height="330" class="blue"/>
<path d="M 9.0473 -9.794 L 9.0473 -9.794 L 203.9031 170.206 L 185.8084 189.794 L -9.0473 9.794 Z" class="white"/>
<path d="M -9.0473 350.206 L -9.0473 350.206 L 185.8084 170.206 L 203.9031 189.794 L 9.0473 369.794 Z" class="white"/>
<path d="M 0 166.6667 L 0 166.6667 L 194.8557 166.6667 L 194.8557 193.3333 L 0 193.3333 Z" class="white"/>
<g clip-path="url(#clip0)">
<path d="M 194.8557 0 L 194.8557 0 L 435.4167 0 L 435.4167 30 L 194.8557 30 Z" class="red"/>
<path d="M 442.5633 28.1881 L 442.5633 28.1881 L 202.0023 158.5471 L 187.7091 132.1709 L 428.2701 1.8119 Z" class="red"/>
<path d="M 179.8557 145.359 L 179.8557 145.359 L 179.8557 15 L 209.8557 15 L 209.8557 145.359 Z" class="red"/>
</g>
<g clip-path="url(#clip1)">
<path d="M 194.8557 330 L 194.8557 330 L 435.4167 330 L 435.4167 360 L 194.8557 360 Z" class="red"/>
<path d="M 428.2701 358.1881 L 428.2701 358.1881 L 187.7091 227.8291 L 202.0023 201.4529 L 442.5633 331.8119 Z" class="red"/>
<path d="M 209.8557 214.641 L 209.8557 214.641 L 209.8557 345 L 179.8557 345 L 179.8557 214.641 Z" class="red"/>
</g>
<path d="M 194.8557 164.604 L 370.8333 164.604 L 412.5 180 L 370.8333 195.396 L 194.8557 195.396 L 211.5224 180 Z" class="yellow"/>
<g clip-path="url(#clip2)">
<path d="M 194.8557 157.9373 L 194.8557 157.9373 L 370.8333 157.9373 L 370.8333 171.2707 L 194.8557 171.2707 Z" class="red"/>
<path d="M 373.144 158.3506 L 373.144 158.3506 L 414.8107 173.7466 L 410.1893 186.2534 L 368.5227 170.8574 Z" class="red"/>
<path d="M 414.8107 186.2534 L 414.8107 186.2534 L 373.144 201.6494 L 368.5227 189.1426 L 410.1893 173.7466 Z" class="red"/>
<path d="M 370.8333 202.0627 L 370.8333 202.0627 L 194.8557 202.0627 L 194.8557 188.7293 L 370.8333 188.7293 Z" class="red"/>
<path d="M 194.8557 164.604 L 204.6806 164.604 L 221.3472 180 L 204.6806 195.396 L 194.8557 195.396 Z" class="red"/>
</g>
</g>
</svg>
