<?xml version="1.0"?>
<svg xmlns="http://www.w3.org/2000/svg" xmlns:xlink="http://www.w3.org/1999/xlink" version="1.1" width="450" height="360" viewBox="0 0 450 360">
<!-- Generated by Kreative Vexillo v1.0 -->
<style>
.black{fill:rgb(0,0,0);}
.red{fill:rgb(232,66,63);}
.white{fill:rgb(255,255,255);}
.yellow{fill:rgb(255,215,48);}
</style>
<defs>
<path id="e1" d="M 0.5183 -0.0198 C 0.5183 -0.0198 0.5064 -0.042 0.4813 -0.0738 C 0.4561 -0.1056 0.4142 -0.1567 0.38959998 -0.1821 C 0.3559 -0.2168 0.25649998 -0.2771 0.25649998 -0.2771 S 0.25389996 -0.2797 0.25519997 -0.2821 C 0.25649998 -0.2845 0.25699997 -0.2838 0.26349998 -0.2819 C 0.26989996 -0.28 0.29299998 -0.26209998 0.3002 -0.26259997 C 0.30299997 -0.26279998 0.3081 -0.2616 0.3128 -0.26969996 C 0.31739998 -0.27789995 0.3091 -0.28669995 0.30359998 -0.29479995 C 0.29819998 -0.30269995 0.27859998 -0.30629995 0.26139998 -0.31249994 C 0.24419999 -0.31869993 0.15379998 -0.32359993 0.065999985 -0.30279994 C 0.027299985 -0.29359993 -0.09180002 -0.26449993 -0.16770002 -0.21729994 C -0.17590003 -0.21219994 -0.18490002 -0.20969994 -0.19040002 -0.20159994 C -0.19270001 -0.19819994 -0.20110002 -0.19849995 -0.19870003 -0.20609994 C -0.19750002 -0.21029994 -0.19590002 -0.21429995 -0.18130003 -0.22719994 C -0.20160003 -0.22469994 -0.20440003 -0.21969995 -0.22340003 -0.20149994 C -0.22680002 -0.21339995 -0.20420003 -0.23419994 -0.20420003 -0.23419994 S -0.22070003 -0.23119994 -0.24960002 -0.20039994 C -0.24820003 -0.21139994 -0.23840003 -0.22509994 -0.23840003 -0.22509994 S -0.26190004 -0.21669994 -0.27290002 -0.18969993 C -0.27380002 -0.18749994 -0.27420002 -0.18429993 -0.27780002 -0.18059993 C -0.28130004 -0.17689992 -0.29200003 -0.16959992 -0.2939 -0.16859993 C -0.2957 -0.16759993 -0.3027 -0.16319993 -0.3072 -0.16929993 C -0.31170002 -0.17539993 -0.30710003 -0.17989993 -0.3061 -0.18109994 C -0.30510002 -0.18239994 -0.29000002 -0.19409993 -0.2928 -0.20439994 C -0.2946 -0.21139994 -0.30690002 -0.23399994 -0.3244 -0.22759995 C -0.3495 -0.21849994 -0.3528 -0.20389995 -0.3549 -0.20079994 C -0.357 -0.19769995 -0.3633 -0.19709994 -0.3633 -0.19709994 S -0.39069998 -0.19879994 -0.3984 -0.19809994 C -0.4061 -0.19739994 -0.4249 -0.19169994 -0.4364 -0.18429995 C -0.4389 -0.18269995 -0.4438 -0.18019995 -0.4449 -0.18019995 C -0.4489 -0.17999995 -0.4573 -0.17429996 -0.4598 -0.17159995 C -0.4628 -0.16829996 -0.47100002 -0.16289996 -0.46940002 -0.15329996 C -0.4683 -0.14729996 -0.47020003 -0.14539996 -0.47430003 -0.13999996 C -0.47850004 -0.13469996 -0.49210003 -0.12349996 -0.49210003 -0.12349996 S -0.50890005 -0.10819996 -0.51780003 -0.10699996 C -0.52190006 -0.10639996 -0.53630006 -0.10649996 -0.54090005 -0.10719997 C -0.5454 -0.107899964 -0.5472 -0.10329997 -0.54600006 -0.10249997 C -0.5403001 -0.09889997 -0.5332001 -0.08929997 -0.53300005 -0.07899997 C -0.53270006 -0.06729997 -0.53360003 -0.055299968 -0.53340006 -0.052799966 C -0.53330004 -0.050299965 -0.52870005 -0.041799966 -0.5224001 -0.042899966 C -0.5160001 -0.043999966 -0.51110005 -0.044899967 -0.51110005 -0.044899967 S -0.49800006 -0.025499966 -0.49270004 -0.020999966 C -0.49800003 -0.019199966 -0.50790006 -0.016799966 -0.5148 -0.016399967 C -0.5603 -0.013899967 -0.5845 -0.035699967 -0.5906 -0.031699967 C -0.5968 -0.027699966 -0.5783 0.007000033 -0.54580003 0.012700032 C -0.50820005 0.019200033 -0.47080004 -0.005599968 -0.47080004 -0.005599968 S -0.46970004 0.006300032 -0.46030003 0.015200032 C -0.46330002 0.023300033 -0.46230003 0.026000032 -0.46230003 0.026000032 S -0.45920002 0.030300032 -0.45290002 0.029900033 C -0.35430002 -0.06519997 -0.19060001 -0.03369997 -0.103000015 0.09480004 C -0.090300016 0.113500044 -0.07720001 0.15190004 -0.07100001 0.16820005 C -0.06480001 0.18450004 -0.048400007 0.20520005 -0.048400007 0.20520005 S -0.044400007 0.21270004 -0.047700007 0.21490005 C -0.051000006 0.21710005 -0.053400006 0.21490005 -0.054700006 0.21330005 C -0.056300007 0.21060005 -0.06650001 0.20350005 -0.070700005 0.19730005 C -0.075 0.19100004 -0.08180001 0.18990004 -0.08180001 0.18990004 S -0.09040001 0.16510004 -0.12460001 0.16820005 C -0.10250001 0.18500005 -0.10480001 0.19540004 -0.10480001 0.19540004 S -0.13780001 0.17630005 -0.16300002 0.20120004 C -0.14270002 0.20070004 -0.12780002 0.21330003 -0.12650001 0.21400003 C -0.13570002 0.21050003 -0.17780001 0.21680003 -0.17090002 0.25460005 C -0.14390002 0.23260005 -0.13040002 0.23860005 -0.13040002 0.23860005 S -0.17160001 0.25510004 -0.15690002 0.29720005 C -0.14590001 0.27990004 -0.12790002 0.26890007 -0.12790002 0.26890007 S -0.14220002 0.28980008 -0.12740003 0.30630007 C -0.12200002 0.2922001 -0.10340002 0.28130007 -0.10340002 0.28130007 S -0.10390002 0.28180006 -0.10230002 0.28320006 C -0.099100016 0.28170004 -0.07190002 0.28870004 -0.058400016 0.28460005 C -0.044800017 0.28050005 0.009599987 0.23040006 0.02239998 0.19870004 C 0.02569998 0.19060004 0.02699998 0.19140004 0.02239998 0.18210004 C 0.0074 0.1517 -0.0185 0.076 -0.036 0.0177 C -0.047799997 -0.021399999 -0.054899998 -0.0538 -0.0564 -0.055599995 C -0.0594 -0.058999997 -0.087799996 -0.063099995 -0.0917 -0.063599996 C -0.0955 -0.063999996 -0.093100004 -0.068399996 -0.093100004 -0.068399996 S -0.071200006 -0.0747 -0.059300005 -0.072 C -0.047400005 -0.069299996 -0.047400005 -0.065299995 -0.044800006 -0.060399998 C -0.042200007 -0.0554 -0.025300005 -0.018699996 -0.025300005 -0.018699996 S 0.0854 -0.1207 0.1219 -0.1339 C 0.0964 -0.1052 0.0868 -0.0917 0.0773 -0.0782 C 0.060999997 -0.055 0.063899994 -0.013700001 0.072399996 -0.008499995 C 0.108 0.0132 0.1736 0.0799 0.1795 0.0849 C 0.1854 0.0898 0.1952 0.0859 0.1982 0.0836 C 0.2011 0.081199996 0.216 0.0677 0.2194 0.0689 C 0.223 0.070099995 0.2218 0.072799996 0.2218 0.072799996 S 0.2208 0.0783 0.2144 0.08319999 C 0.20799999 0.088099994 0.17099999 0.10679999 0.15959999 0.10559999 C 0.14819999 0.104399994 0.1424 0.10369999 0.1424 0.10369999 S 0.1194 0.0721 0.0956 0.0997 C 0.1179 0.1046 0.1163 0.1174 0.1163 0.1174 S 0.0862 0.106199995 0.0625 0.1469 C 0.093 0.13509999 0.099700004 0.1411 0.099700004 0.1411 S 0.07350001 0.1496 0.071200006 0.18470001 C 0.096200004 0.1622 0.10870001 0.16890001 0.10870001 0.16890001 S 0.07490001 0.19140002 0.09750001 0.22720002 C 0.1058 0.1963 0.1245 0.1917 0.1245 0.1917 S 0.102699995 0.2299 0.137 0.25 C 0.13769999 0.22670001 0.1502 0.2096 0.1502 0.2096 L 0.15179999 0.2105 C 0.15179999 0.2105 0.16209999 0.207 0.1688 0.2009 C 0.17549999 0.1949 0.1761 0.1923 0.1718 0.1894 C 0.1675 0.1865 0.165 0.18090001 0.1637 0.1795 C 0.1625 0.178 0.1645 0.1754 0.1645 0.1754 S 0.1656 0.1736 0.1681 0.1754 C 0.1737 0.1794 0.1739 0.1867 0.1838 0.18800001 C 0.1937 0.18930002 0.1998 0.1814 0.20289999 0.18020001 C 0.2059 0.179 0.2209 0.16970001 0.2209 0.16970001 S 0.2567 0.14290002 0.2635 0.12760001 C 0.2683 0.11690001 0.27740002 0.07990001 0.27380002 0.06320001 C 0.2721 0.055100013 0.2673 0.04720001 0.2612 0.03920001 C 0.238 0.008500012 0.21760002 -0.02959999 0.22280002 -0.06379999 C 0.22320002 -0.06649999 0.22550002 -0.07039999 0.22630002 -0.07299999 C 0.22710001 -0.07589999 0.22840002 -0.07789999 0.22730002 -0.08049999 C 0.22370002 -0.085499994 0.17290002 -0.12239999 0.15710002 -0.13739999 C 0.1284 -0.1644 0.083 -0.1721 0.083 -0.1721 S 0.0813 -0.174 0.0831 -0.1766 C 0.0849 -0.1792 0.0906 -0.1804 0.0906 -0.1804 S 0.1073 -0.1863 0.16600001 -0.1423 C 0.2247 -0.098299995 0.26430002 -0.051999994 0.29320002 -0.041399993 C 0.3018 -0.038199995 0.3384 -0.027599994 0.37160003 -0.014999993 C 0.39900002 -0.004599993 0.42340004 0.008000007 0.43460003 0.012400007 C 0.45940003 0.022200007 0.47280002 0.05210001 0.47160003 0.057500005 C 0.47040004 0.06300001 0.46820003 0.061100006 0.46630004 0.061500005 C 0.46440005 0.061800007 0.45820004 0.051900007 0.45820004 0.051900007 S 0.45780003 0.044800006 0.44640005 0.041600008 C 0.43510005 0.038500007 0.40930006 0.05250001 0.40930006 0.05250001 S 0.40410006 0.05310001 0.40100005 0.05380001 C 0.38340005 0.03040001 0.34730005 0.05670001 0.34730005 0.05670001 S 0.37090006 0.062100008 0.38250005 0.07750001 C 0.34000006 0.081700005 0.33710006 0.119200006 0.33710006 0.119200006 S 0.35920006 0.10520001 0.38200006 0.11270001 C 0.34060007 0.13450001 0.36030006 0.1631 0.36030006 0.1631 S 0.36800006 0.1444 0.39300007 0.1426 C 0.36390007 0.17379999 0.39220005 0.1947 0.39220005 0.1947 S 0.39020005 0.1761 0.42220005 0.1621 C 0.42240006 0.16330001 0.41660005 0.1961 0.45110005 0.20910001 C 0.44820005 0.20030001 0.44610006 0.1834 0.45140004 0.1717 C 0.45330003 0.17210001 0.45340005 0.1718 0.45390004 0.1718 C 0.45390004 0.1718 0.46540004 0.1455 0.47510004 0.13620001 C 0.48470005 0.12690002 0.49230003 0.118800014 0.5037 0.10570001 C 0.5152 0.09260001 0.5169 0.07960001 0.51960003 0.070700005 C 0.5223 0.061700005 0.52330005 0.012700006 0.52430004 0.0018000081 C 0.5251 -0.0092 0.5183 -0.0198 0.5183 -0.0198 Z M -0.4871 -0.0231 C -0.4871 -0.0231 -0.4911 -0.0449 -0.48770002 -0.0529 C -0.48670003 -0.0533 -0.48540002 -0.053600002 -0.48540002 -0.053600002 S -0.4731 -0.036900003 -0.4647 -0.0321 C -0.4771 -0.0272 -0.4871 -0.0231 -0.4871 -0.0231 Z M -0.4432 5.0E-4 C -0.4552 0.001 -0.465 -0.0084 -0.465 -0.0084 S -0.4466 -0.018399999 -0.44300002 -0.0196 C -0.44120002 -0.0153 -0.44270003 -0.0063000005 -0.4401 -0.0019000005 C -0.4403 -0.0015 -0.4416 -7.0E-4 -0.4432 5.0E-4 Z M -0.4188 -0.0157 C -0.4212 -0.014599999 -0.4291 -0.014599999 -0.4315 -0.017099999 C -0.4349 -0.020399999 -0.4378 -0.021899998 -0.4378 -0.021899998 S -0.4103 -0.035899997 -0.3937 -0.030599998 C -0.4046 -0.0246 -0.4164 -0.0168 -0.4188 -0.0157 Z M -0.4615 -0.0331 C -0.4615 -0.0331 -0.4651 -0.051300004 -0.4617 -0.060000002 C -0.431 -0.0679 -0.40359998 -0.057900004 -0.3876 -0.047700003 C -0.4127 -0.052 -0.4615 -0.0331 -0.4615 -0.0331 Z M -0.1478 0.0822 C -0.1478 0.0822 -0.1916 0.1601 -0.2026 0.1698 C -0.2077 0.1743 -0.2375 0.2185 -0.2496 0.2277 C -0.2812 0.2518 -0.301 0.2445 -0.301 0.2445 L -0.3386 0.233 C -0.3386 0.233 -0.3458 0.2289 -0.3388 0.22569999 C -0.3318 0.2226 -0.331 0.22209999 -0.32500002 0.2189 C -0.319 0.2158 -0.3271 0.2146 -0.3271 0.2146 S -0.3343 0.2164 -0.34010002 0.2184 C -0.35880002 0.2249 -0.37820002 0.2068 -0.37820002 0.2068 S -0.39360002 0.19139999 -0.4038 0.179 C -0.414 0.1666 -0.4408 0.1928 -0.4408 0.1928 S -0.4501 0.1616 -0.40620002 0.1441 C -0.41650003 0.13229999 -0.45290002 0.14989999 -0.45290002 0.14989999 S -0.45220003 0.11559999 -0.39670002 0.11139999 C -0.41210002 0.091299996 -0.44200003 0.09149999 -0.44200003 0.09149999 S -0.42060003 0.06319999 -0.37750003 0.088999994 C -0.37460002 0.070199996 -0.4031 0.052599993 -0.4031 0.052599993 S -0.3657 0.04329999 -0.35050002 0.0755 C -0.33960003 0.061299995 -0.35020003 0.040099997 -0.35020003 0.040099997 S -0.32420003 0.048299998 -0.32460004 0.080299996 C -0.32480004 0.0923 -0.32790005 0.091699995 -0.32790005 0.091699995 S -0.32300004 0.1488 -0.26760006 0.1758 C -0.26040006 0.1793 -0.26070005 0.17189999 -0.26250005 0.169 C -0.26430005 0.1662 -0.27390006 0.1584 -0.28840005 0.1529 C -0.26900005 0.120799996 -0.26850006 0.06649999 -0.26680005 0.029999994 C -0.26580006 0.0092999935 -0.26310006 -0.003600005 -0.26250005 -0.007300008 C -0.25690004 -0.007600008 -0.22200005 0.0021999916 -0.19500005 0.017999992 C -0.17410006 0.030199992 -0.15840006 0.048199993 -0.15400004 0.05359999 C -0.1403 0.0696 -0.1478 0.0822 -0.1478 0.0822 Z M -0.3615 -0.2027 C -0.3654 -0.2033 -0.4005 -0.2033 -0.4005 -0.2033 S -0.3971 -0.217 -0.3906 -0.2255 C -0.3829 -0.23550001 -0.36769998 -0.2343 -0.3624 -0.2331 C -0.3571 -0.23189999 -0.341 -0.22569999 -0.3454 -0.2232 C -0.3527 -0.2192 -0.3583 -0.2023 -0.3615 -0.2027 Z"/>
<path id="e2" d="M -0.3395 0.0555 C -0.3316 0.0652 -0.3319 0.0798 -0.3319 0.0798 L -0.34420002 0.0783 C -0.3442 0.0784 -0.3369 0.0721 -0.3395 0.0555 Z M -0.4335 0.1783 C -0.4177 0.1636 -0.4053 0.1687 -0.4053 0.1687 L -0.40309998 0.1503 C -0.4032 0.1503 -0.4309 0.1609 -0.4335 0.1783 Z M -0.4407 0.1377 C -0.4157 0.12570001 -0.402 0.13700001 -0.40109998 0.1384 C -0.39929998 0.1339 -0.3936 0.11840001 -0.3936 0.11840001 S -0.4303 0.1197 -0.4407 0.1377 Z M -0.4254 0.0872 C -0.3994 0.092 -0.38889998 0.1099 -0.38889998 0.1099 L -0.37949997 0.096999995 C -0.3796 0.0971 -0.4067 0.0788 -0.4254 0.0872 Z M -0.3858 0.0576 C -0.3741 0.0657 -0.3696 0.0776 -0.3699 0.0881 C -0.3624 0.0818 -0.3583 0.082100004 -0.35579997 0.0814 C -0.361 0.0673 -0.3788 0.0575 -0.3858 0.0576 Z M -0.1068 0.1768 C -0.1068 0.1768 -0.0973 0.18439999 -0.0978 0.19579999 C -0.0956 0.19379999 -0.092 0.1916 -0.0888 0.19099998 C -0.0926 0.1808 -0.1068 0.1768 -0.1068 0.1768 Z M -0.1435 0.1975 C -0.1435 0.1975 -0.1306 0.1998 -0.1143 0.2158 C -0.1138 0.2142 -0.111 0.2092 -0.105799995 0.2035 C -0.1229 0.1931 -0.1435 0.1975 -0.1435 0.1975 Z M -0.1202 0.2338 C -0.1189 0.2261 -0.1186 0.22739999 -0.1177 0.2226 C -0.1313 0.2164 -0.1613 0.2206 -0.1659 0.2444 C -0.1466 0.2276 -0.1338 0.2298 -0.1202 0.2338 Z M -0.12 0.242 C -0.13589999 0.2458 -0.1568 0.2661 -0.15269999 0.2811 C -0.14799999 0.27580002 -0.13129999 0.2592 -0.11609999 0.2566 C -0.1188 0.2512 -0.1196 0.2488 -0.12 0.242 Z M -0.1267 0.2926 C -0.1185 0.28100002 -0.1087 0.2759 -0.1075 0.2757 C -0.108500004 0.2746 -0.113400005 0.2643 -0.1136 0.2632 C -0.1142 0.263 -0.1286 0.2763 -0.1267 0.2926 Z M 0.1078 0.0968 C 0.1184 0.1 0.1237 0.1127 0.1236 0.115 C 0.1271 0.1128 0.1323 0.109500006 0.1361 0.1073 C 0.1207 0.0911 0.1114 0.0949 0.1078 0.0968 Z M 0.1068 0.1362 C 0.1085 0.1299 0.1109 0.12709999 0.114199996 0.124299996 C 0.102 0.118499994 0.0809 0.1313 0.07879999 0.1352 C 0.0815 0.1343 0.0994 0.1292 0.1068 0.1362 Z M 0.1058 0.1614 C 0.1039 0.15640001 0.103800006 0.14930001 0.104 0.14670001 C 0.1026 0.14690001 0.0872 0.15280001 0.0807 0.16970001 L 0.0807 0.16970001 C 0.0807 0.1697 0.0973 0.1574 0.1058 0.1614 Z M 0.1122 0.1765 C 0.0961 0.1845 0.0954 0.20629999 0.096599996 0.2096 C 0.09689999 0.20910001 0.10169999 0.1926 0.1188 0.1864 C 0.1151 0.1842 0.1135 0.1819 0.1122 0.1765 Z M 0.1303 0.1975 C 0.1273 0.205 0.1204 0.2195 0.1317 0.2376 C 0.13069999 0.2242 0.1407 0.2079 0.1424 0.2069 C 0.1395 0.2061 0.1324 0.2 0.1303 0.1975 Z M 0.3886 0.0734 C 0.3894 0.070199996 0.3928 0.062699996 0.3956 0.0581 C 0.38619998 0.0456 0.3681 0.0521 0.3631 0.0554 C 0.3695 0.057 0.3807 0.0635 0.3886 0.0734 Z M 0.3867 0.1063 C 0.3858 0.103199996 0.3846 0.091699995 0.3865 0.084 C 0.3646 0.0848 0.3508 0.096599996 0.3472 0.1079 C 0.3589 0.1007 0.3817 0.1034 0.3867 0.1063 Z M 0.398 0.1357 C 0.39180002 0.1279 0.3896 0.1212 0.3895 0.1162 C 0.38189998 0.1191 0.3579 0.1325 0.36229998 0.1499 C 0.3671 0.1425 0.3849 0.1313 0.398 0.1357 Z M 0.4032 0.1429 C 0.3784 0.16350001 0.3895 0.1821 0.3889 0.1807 C 0.3889 0.1807 0.395 0.1646 0.41640002 0.1571 C 0.4102 0.152 0.4079 0.1494 0.4032 0.1429 Z M 0.4436 0.1728 C 0.4396 0.1727 0.4351 0.171 0.4291 0.1666 C 0.4277 0.1857 0.4413 0.1962 0.4413 0.1962 S 0.4392 0.1807 0.4436 0.1728 Z M -0.3978 -0.037 C -0.3978 -0.037 -0.3901 -0.0361 -0.3867 -0.0344 C -0.3834 -0.0365 -0.3806 -0.0381 -0.3788 -0.0392 C -0.3817 -0.0411 -0.3951 -0.0425 -0.3951 -0.0425 C -0.4153 -0.043700002 -0.4398 -0.0365 -0.4607 -0.0275 C -0.48070002 -0.0197 -0.5 -0.010399999 -0.5147 -0.009399999 C -0.5455 -0.007199999 -0.567 -0.016599998 -0.5798 -0.021899998 C -0.5811 -0.022499999 -0.5825 -0.022999998 -0.5838 -0.023499997 C -0.582 -0.019499997 -0.5783 -0.0140999975 -0.57320005 -0.008899997 C -0.56630003 -0.001999997 -0.55660003 0.003700003 -0.54490006 0.006500003 C -0.52250004 0.0117000025 -0.49630007 0.0020000031 -0.47460008 -0.009599998 C -0.4443 -0.0258 -0.4186 -0.0401 -0.3978 -0.037 Z M 0.1283 -0.1022 C 0.1283 -0.1022 0.14739999 -0.1258 0.1695 -0.1264 C 0.16739999 -0.1284 0.1549 -0.139 0.1549 -0.139 S 0.1262 -0.1271 0.1283 -0.1022 Z"/>
<path id="e3" d="M -0.4488 0.0047 C -0.4516 0.0067999996 -0.4545 0.01 -0.457 0.012399999 C -0.4639 0.0057999995 -0.46559998 -0.0032000002 -0.46559998 -0.0032000002 S -0.4547 0.0054 -0.4488 0.0047 Z M -0.4384 -0.0168 C -0.437 -0.0101 -0.4382 -0.008199999 -0.436 -0.0045 C -0.43339998 -0.0066 -0.43109998 -0.0078 -0.4263 -0.0108 C -0.4323 -0.0099 -0.4351 -0.016 -0.4384 -0.0168 Z M -0.4807 -0.0548 C -0.4807 -0.0548 -0.468 -0.0399 -0.4671 -0.0397 C -0.4691 -0.049500003 -0.4673 -0.0582 -0.4671 -0.0586 C -0.4697 -0.0578 -0.4807 -0.0548 -0.4807 -0.0548 Z M -0.4927 -0.051 C -0.4998 -0.047599997 -0.5034 -0.0468 -0.50630003 -0.046099998 C -0.49970004 -0.035699997 -0.49230003 -0.026899997 -0.49230003 -0.026899997 S -0.4947 -0.046 -0.4927 -0.051 Z M -0.4326 -0.1624 C -0.4402 -0.1664 -0.4468 -0.1614 -0.4468 -0.1614 S -0.44959998 -0.1587 -0.4476 -0.1553 C -0.44550002 -0.1518 -0.4419 -0.15390001 -0.4413 -0.1543 C -0.4407 -0.15470001 -0.4372 -0.156 -0.4346 -0.156 C -0.4315 -0.156 -0.42499998 -0.1503 -0.4208 -0.1447 C -0.4166 -0.1391 -0.4105 -0.1284 -0.40850002 -0.12650001 C -0.4065 -0.124500014 -0.4031 -0.1271 -0.40420002 -0.12910001 C -0.4163 -0.1506 -0.4252 -0.1584 -0.4326 -0.1624 Z M -0.4224 -0.1331 C -0.426 -0.132 -0.4303 -0.1288 -0.433 -0.1324 C -0.4357 -0.136 -0.4316 -0.14160001 -0.4294 -0.1453 C -0.4272 -0.149 -0.4315 -0.1509 -0.43649998 -0.1489 C -0.44149998 -0.1469 -0.4479 -0.1368 -0.443 -0.1262 C -0.4385 -0.116500005 -0.4211 -0.12110001 -0.41869998 -0.123500004 C -0.4146 -0.1276 -0.4188 -0.1342 -0.4224 -0.1331 Z M -0.2695 0.2226 C -0.2701 0.2159 -0.2742 0.2058 -0.28359997 0.1994 C -0.28739998 0.1968 -0.29419997 0.19129999 -0.30209997 0.18499999 C -0.3126 0.1766 -0.32449996 0.16709998 -0.33349997 0.16089998 C -0.35689998 0.14479998 -0.35909995 0.12469998 -0.35919997 0.11899998 C -0.35929996 0.114799984 -0.35789996 0.11189998 -0.35619998 0.10849998 C -0.35459998 0.10519998 -0.35279998 0.10149998 -0.35239998 0.09649998 C -0.35219997 0.09449998 -0.35369998 0.09279998 -0.35559997 0.09269998 C -0.35749996 0.09249998 -0.35929996 0.09399998 -0.35939997 0.095899984 C -0.35969996 0.09959999 -0.3611 0.102499984 -0.36249998 0.10549998 C -0.36429998 0.109199986 -0.3663 0.11339998 -0.36619997 0.119199984 C -0.36609998 0.12579998 -0.36359996 0.14879999 -0.33749998 0.16679999 C -0.32869998 0.17289999 -0.31689999 0.18229999 -0.3065 0.1906 C -0.2985 0.197 -0.2916 0.20249999 -0.28759998 0.20529999 C -0.28069997 0.2101 -0.27699998 0.21779999 -0.2765 0.22329998 C -0.27629998 0.22589998 -0.27679998 0.22749998 -0.2771 0.22779998 C -0.2785 0.22919998 -0.2785 0.23139998 -0.2771 0.23279998 C -0.2764 0.23349997 -0.2755 0.23379998 -0.2746 0.23379998 S -0.2728 0.23349997 -0.2721 0.23279998 C -0.27 0.2307 -0.2691 0.227 -0.2695 0.2226 Z"/>
</defs>
<g>
<rect x="0" y="0" width="450" height="360" class="red"/>
<path d="M 0 0 L 181.4175 0 L 450 145.9548 L 450 360 L 313.7355 360 L 0 189.1836 Z" class="yellow"/>
<use xlink:href="#e1" transform="translate(225 180) scale(360 360) rotate(38.6598)" class="black"/>
<use xlink:href="#e2" transform="translate(225 180) scale(360 360) rotate(38.6598)" class="red"/>
<use xlink:href="#e3" transform="translate(225 180) scale(360 360) rotate(38.6598)" class="white"/>
</g>
</svg>
