<?xml version="1.0"?>
<svg xmlns="http://www.w3.org/2000/svg" xmlns:xlink="http://www.w3.org/1999/xlink" version="1.1" width="450" height="360" viewBox="0 0 450 360">
<!-- Generated by Kreative Vexillo v1.0 -->
<style>
.black{fill:rgb(0,0,0);}
.red{fill:rgb(232,66,63);}
.white{fill:rgb(255,255,255);}
</style>
<defs>
<path id="e1" d="M -0.0146 0.4775 C -0.0145000005 0.4775 -0.014400001 0.4775 -0.0143 0.4775 H -0.0144 L -0.0146 0.4775 Z M 0.0095 0.4775 L 0.0095999995 0.4775 C 0.0095 0.4775 0.0094 0.4775 0.009299999 0.4775 H 0.0095 Z M 0.3163 -0.3713 V -0.337 H 0.35140002 V -0.27670002 H 0.2487 V -0.32320002 H 0.2172 V -0.27670002 H 0.16569999 V -0.24350002 H 0.21719998 V -0.19710003 H 0.24869998 V -0.24350002 H 0.35149997 V -0.18270002 H 0.3163 V -0.14830002 H 0.35140002 V -0.08810002 H 0.2487 V -0.13450003 H 0.2172 V -0.08810003 H 0.122999996 V -0.13450003 H 0.081599995 V -0.042000026 H 0.0896 C 0.1041 -0.042000026 0.11579999 -0.030200025 0.11579999 -0.015800025 C 0.11579999 -0.0014000256 0.1041 0.010399975 0.0896 0.010399975 H 0.081599995 V 0.057599977 C 0.081599995 0.061999977 0.0822 0.072099976 0.0883 0.072099976 C 0.090299994 0.072099976 0.095699996 0.071199976 0.1046 0.063199975 C 0.1269 0.043099977 0.1656 0.030199975 0.2033 0.030199975 C 0.23449999 0.030199975 0.351 0.055899974 0.351 0.18149997 C 0.351 0.21699998 0.3366 0.25179997 0.3115 0.27699998 C 0.2822 0.30639997 0.23990002 0.32189998 0.18940002 0.32189998 C 0.16420002 0.32189998 0.13880002 0.31229997 0.12000002 0.30209997 C 0.13000003 0.33039996 0.12900002 0.36459997 0.11610002 0.39659998 C 0.09850002 0.44019997 0.06330002 0.46899998 0.01880002 0.4764 C 0.01870002 0.47559997 0.018300021 0.47529998 0.01780002 0.47529998 C 0.01670002 0.47529998 0.01470002 0.47689998 0.01230002 0.4773 H 0.0121 C 0.012 0.4773 0.0117999995 0.47739998 0.0116 0.47739998 C 0.011299999 0.47739998 0.0111 0.47739998 0.0109 0.47739998 C 0.0098 0.47739998 0.0087 0.47709998 0.0077 0.47689998 C 0.0067 0.4766 0.0059 0.4764 0.0053 0.4764 C 0.0045999996 0.4764 0.0042 0.4768 0.0042999997 0.478 C 0.0040999996 0.478 0.0037999996 0.478 0.0035999997 0.478 C 0.0025999998 0.47809997 0.0016999997 0.47809997 6.9999974E-4 0.4782 L 4.9999973E-4 0.47829998 H 3.0E-4 C -5.9999997E-4 0.47829998 -0.0015 0.47829998 -0.0024 0.47829998 C -0.0033 0.47829998 -0.0042000003 0.47829998 -0.0051 0.47829998 L -0.0053000003 0.4782 H -0.0054 C -0.0061 0.4782 -0.0068 0.4781 -0.0074000005 0.4781 L -0.0082 0.47800002 L -0.009 0.47800002 C -0.009 0.47800002 -0.009099999 0.47800002 -0.009099999 0.47800002 C -0.009 0.47680002 -0.0094 0.4765 -0.0101 0.4765 C -0.0106999995 0.4765 -0.011499999 0.4767 -0.012499999 0.477 C -0.0134 0.4773 -0.0145 0.4775 -0.0156 0.4775 C -0.015999999 0.4775 -0.0163 0.4775 -0.0167 0.4774 H -0.0167 C -0.0168 0.4774 -0.0168 0.4774 -0.0169 0.4774 H -0.016999999 C -0.019299999 0.477 -0.021399999 0.4754 -0.022499999 0.4754 C -0.022999998 0.4754 -0.0233 0.4757 -0.0234 0.4765 C -0.0679 0.469 -0.1032 0.4403 -0.1208 0.3966 C -0.1337 0.36470002 -0.1347 0.3304 -0.1247 0.3021 C -0.1436 0.3124 -0.169 0.322 -0.19409999 0.322 C -0.2446 0.322 -0.2868 0.3065 -0.3162 0.2771 C -0.34129998 0.2519 -0.3557 0.2171 -0.3557 0.1816 C -0.3557 0.05600001 -0.2392 0.030300006 -0.20799999 0.030300006 C -0.17029999 0.030300006 -0.13159999 0.043300007 -0.10929999 0.063300006 C -0.10049999 0.07130001 -0.094999984 0.07220001 -0.09299999 0.07220001 C -0.08699999 0.07220001 -0.086299986 0.062100008 -0.086299986 0.05770001 V 0.0103 H -0.09399998 C -0.10849998 0.0103 -0.12019998 -0.0013999995 -0.12019998 -0.0159 C -0.12019998 -0.0304 -0.10839998 -0.0421 -0.09399998 -0.0421 H -0.086299986 V -0.1346 H -0.1282 V -0.0882 H -0.2224 V -0.1346 H -0.2539 V -0.0882 H -0.3566 V -0.14840001 H -0.32149997 V -0.18280001 H -0.3566 V -0.24360001 H -0.2539 V -0.19720002 H -0.2224 V -0.24360001 H -0.17089999 V -0.2768 H -0.22239998 V -0.3233 H -0.2539 V -0.2768 H -0.3566 V -0.3371 H -0.32149997 V -0.3714 H -0.3566 V -0.4317 H -0.2539 V -0.3858 H -0.2224 V -0.4317 H -0.1282 V -0.3858 H -0.08629999 V -0.47820002 H -0.0065999925 V -0.4706 L -0.007 -0.0421 H 0.0022 L 0.0018 -0.4705 V -0.4781 H 0.0816 H 0.081700005 V -0.3857 H 0.123100005 V -0.43159997 H 0.2173 V -0.3857 H 0.2488 V -0.43159997 H 0.3516 V -0.37129998 H 0.3163 Z M 0.0651 0.1478 C 0.015499998 0.1478 0.0023000017 0.1075 0.0023000017 0.0862 L 0.0022 0.0103 H -0.0071 L -0.0072 0.0863 C -0.0072 0.1076 -0.020399999 0.1479 -0.07 0.1479 C -0.1025 0.1479 -0.1169 0.1372 -0.1309 0.1269 C -0.14539999 0.1162 -0.159 0.1061 -0.19569999 0.1061 H -0.19649999 C -0.19699998 0.1061 -0.19759999 0.1061 -0.19829999 0.1061 C -0.22269998 0.1061 -0.27929997 0.1135 -0.27929997 0.1821 C -0.27929997 0.2166 -0.24189997 0.24689999 -0.19929998 0.24689999 C -0.18099998 0.24689999 -0.16269997 0.24129999 -0.14619997 0.23089999 C -0.14379998 0.22929999 -0.14139996 0.2277 -0.13879997 0.2258 C -0.12509997 0.2164 -0.10819997 0.2047 -0.08759996 0.2047 C -0.07919996 0.2047 -0.07079996 0.2067 -0.06279996 0.21079999 C -0.042399958 0.2209 -0.03139996 0.2382 -0.03269996 0.2581 C -0.03269996 0.2702 -0.03689996 0.27740002 -0.04129996 0.285 C -0.047299962 0.2954 -0.054799963 0.3084 -0.054799963 0.34329998 C -0.054799963 0.36369997 -0.048599962 0.39839998 -0.0071999617 0.4021 C -0.0069999616 0.4021 -0.0066999616 0.40219998 -0.0063999617 0.40219998 C -0.0050999615 0.40219998 -0.0036999616 0.40229997 -0.0022999616 0.4024 C -8.999617E-4 0.4024 5.0003827E-4 0.4023 0.0019000382 0.40219998 C 0.0022000382 0.40219998 0.0024000383 0.4021 0.0026000382 0.4021 C 0.044100035 0.3984 0.050200038 0.3637 0.050200038 0.34329998 C 0.050200038 0.3083 0.042700037 0.2954 0.036700036 0.285 C 0.032300036 0.2774 0.028100036 0.27019998 0.028100036 0.2583 L 0.028100036 0.25800002 C 0.026800036 0.23810002 0.037800036 0.22090001 0.058100037 0.21070002 C 0.06610004 0.20670003 0.07450004 0.20460002 0.08290004 0.20460002 C 0.10340004 0.20460002 0.12040004 0.21630003 0.13410003 0.22570002 C 0.13670003 0.22750002 0.13920003 0.22920002 0.14160003 0.23070002 C 0.15800002 0.24120001 0.17630002 0.24670002 0.19460003 0.24670002 C 0.23720002 0.24670002 0.27460003 0.21640001 0.27460003 0.18190002 C 0.27460003 0.113300025 0.21790004 0.10590003 0.19360003 0.10590003 C 0.19280003 0.10590003 0.19220003 0.10590003 0.19170003 0.10590003 H 0.19090003 C 0.15420003 0.10590003 0.14060003 0.11600003 0.12610003 0.12670003 C 0.112 0.1371 0.0976 0.1478 0.0651 0.1478 Z"/>
<path id="e2" d="M -0.0146 -0.0421 H -0.0788 V -0.47050002 H -0.014200002 L -0.0146 -0.0421 Z M 0.0739 -0.0421 V -0.47050002 H 0.0093 L 0.0097 -0.0421 H 0.0739 Z M -0.1127 -0.0159 C -0.1127 -0.0056000007 -0.1043 0.0026999991 -0.0941 0.0026999991 H -0.078899994 H -0.0146999955 H 0.0098 H 0.0739 H 0.0896 C 0.0999 0.0026999991 0.1082 -0.0057000006 0.1082 -0.0159 C 0.1082 -0.0262 0.0999 -0.034500003 0.0896 -0.034500003 H 0.0739 H 0.0097 H -0.014699999 H -0.078899994 H -0.094 C -0.1043 -0.0345 -0.1127 -0.0262 -0.1127 -0.0159 Z M 0.3439 -0.3788 V -0.4239 H 0.2563 V -0.37800002 H 0.2096 V -0.4239 H 0.1306 V -0.37800002 H 0.0816 V -0.14200002 H 0.1306 V -0.095600024 H 0.2096 V -0.14200002 H 0.2563 V -0.095600024 H 0.3439 V -0.14070003 H 0.30879998 V -0.19020003 H 0.3439 V -0.23580003 H 0.2563 V -0.18940003 H 0.2096 V -0.23580003 H 0.15810001 V -0.28410003 H 0.2096 V -0.33060002 H 0.2563 V -0.28410003 H 0.3439 V -0.32920003 H 0.30879998 V -0.37870002 H 0.3439 Z M -0.2615 -0.1421 H -0.2148 V -0.09570001 H -0.1357 V -0.1421 H -0.0862 V -0.3781 H -0.1357 V -0.424 H -0.2148 V -0.3781 H -0.2615 V -0.424 H -0.3491 V -0.3789 H -0.31399998 V -0.3294 H -0.3491 V -0.2843 H -0.2615 V -0.3308 H -0.2148 V -0.2843 H -0.16330001 V -0.236 H -0.2148 V -0.1896 H -0.2615 V -0.236 H -0.3491 V -0.1904 H -0.31399998 V -0.1409 H -0.3491 V -0.0958 H -0.2615 V -0.1421 Z M 0.3432 0.1815 C 0.3432 0.2447 0.2951 0.3143 0.1892 0.3143 C 0.1472 0.3143 0.1057 0.2864 0.0973 0.277 C 0.0987 0.2786 0.0999 0.28030002 0.1012 0.28210002 C 0.1042 0.28630003 0.1067 0.29080003 0.108899996 0.2955 C 0.115499996 0.3098 0.1188 0.32610002 0.1187 0.3429 C 0.118599996 0.3993 0.081599995 0.4614 0.011 0.4697 V 0.4697 C 0.0108 0.4697 0.0106999995 0.4697 0.0105 0.4697 C 0.01 0.4698 0.0095 0.4698 0.009 0.4698 C 0.0078 0.46989998 0.0065999995 0.47 0.0054999995 0.4701 C 0.0046999995 0.47019997 0.0038999994 0.47019997 0.0029999996 0.47019997 C 0.0020999997 0.47029996 0.0011999996 0.47039998 2.999995E-4 0.47039998 V 0.47049996 H 3.0E-4 C -5.9999997E-4 0.47049996 -0.0015 0.47049996 -0.0024 0.47039998 C -0.0033 0.47039998 -0.0042000003 0.47049996 -0.0051 0.47049996 H -0.0052 V 0.47039998 C -0.006 0.4703 -0.0067 0.4703 -0.0074 0.47019997 C -0.0075 0.47019997 -0.0077 0.47019997 -0.0078 0.47019997 C -0.0087 0.4701 -0.0095999995 0.4701 -0.0104 0.46999997 C -0.0116 0.46989998 -0.012800001 0.46979997 -0.013900001 0.46969998 C -0.014400001 0.46969998 -0.015000001 0.4696 -0.015500001 0.4696 C -0.015700001 0.4696 -0.015800001 0.4696 -0.016 0.4696 C -0.086600006 0.4613 -0.1237 0.3992 -0.1238 0.3428 C -0.1238 0.3308 -0.1221 0.319 -0.118700005 0.308 C -0.117400005 0.3037 -0.11580001 0.2995 -0.113900006 0.2954 C -0.110800005 0.28869998 -0.10690001 0.2825 -0.1023 0.2768 C -0.110700004 0.2861 -0.1521 0.3141 -0.19420001 0.3141 C -0.3001 0.3141 -0.3483 0.2445 -0.3483 0.1813 C -0.3483 0.0637 -0.2407 0.037599996 -0.20820001 0.037599996 C -0.1756 0.037599996 -0.13700001 0.048499994 -0.11460001 0.06869999 C -0.10650001 0.07599999 -0.09910001 0.07949999 -0.09320001 0.07949999 C -0.08440001 0.07949999 -0.07890001 0.07169999 -0.07890001 0.05749999 V 0.0103 H -0.01470001 L -0.01480001 0.0863 C -0.01480001 0.0863 -0.01490001 0.1403 -0.07000001 0.1403 C -0.13280001 0.1403 -0.12060001 0.098400004 -0.1957 0.098400004 C -0.1962 0.098400004 -0.1971 0.098400004 -0.1984 0.098400004 C -0.2142 0.098400004 -0.287 0.1014 -0.287 0.18200001 C -0.287 0.22070001 -0.24689999 0.2543 -0.19940001 0.2543 C -0.1808 0.2543 -0.1611 0.2491 -0.14230001 0.2371 C -0.12810001 0.228 -0.10970001 0.2122 -0.08780001 0.2122 C -0.08100001 0.2122 -0.07380001 0.2137 -0.06640001 0.2175 C -0.042600006 0.22940001 -0.040400006 0.2475 -0.040400006 0.2549 C -0.040400006 0.25660002 -0.040500008 0.2577 -0.040500008 0.2581 C -0.040500008 0.2836 -0.06260001 0.2824 -0.06260001 0.34329998 C -0.06260001 0.3642 -0.05620001 0.40539998 -0.00810001 0.40969998 C -0.0078000105 0.40969998 -0.0075000105 0.40979996 -0.0072000106 0.40979996 C -0.005700011 0.40989995 -0.0041000107 0.40999997 -0.0026000105 0.40999997 C -0.0010000105 0.40999997 4.999896E-4 0.40989998 0.0019999896 0.40979996 C 0.0022999896 0.40979996 0.0025999895 0.40969998 0.0029999898 0.40969998 C 0.05109999 0.40539998 0.05749999 0.36419997 0.05749999 0.34329998 C 0.05749999 0.28239998 0.03539999 0.28359997 0.03539999 0.25809997 C 0.03539999 0.25769997 0.035299987 0.25659996 0.035299987 0.25489998 C 0.035299987 0.24749997 0.037499987 0.22939998 0.061299987 0.21749997 C 0.06879999 0.21369997 0.07589999 0.21219997 0.082699984 0.21219997 C 0.10459998 0.21219997 0.12309998 0.22799997 0.13719998 0.23709998 C 0.15599999 0.24909997 0.17579998 0.25429997 0.19429998 0.25429997 C 0.24169998 0.25429997 0.2819 0.22059996 0.2819 0.18199997 C 0.2819 0.10149997 0.20899999 0.09839997 0.19329998 0.09839997 C 0.19199997 0.09839997 0.19109997 0.09839997 0.19069998 0.09839997 C 0.11569998 0.09839997 0.12779999 0.14029998 0.06499998 0.14029998 C 0.009799983 0.14029998 0.009799983 0.08629997 0.009799983 0.08629997 L 0.0098 0.0103 H 0.0739 V 0.0575 C 0.0739 0.0718 0.0794 0.079500005 0.0881 0.079500005 C 0.094000004 0.079500005 0.1013 0.07610001 0.109500006 0.0687 C 0.13190001 0.0485 0.17050001 0.037600003 0.2031 0.037600003 C 0.2356 0.0377 0.3432 0.0639 0.3432 0.1815 Z"/>
</defs>
<g>
<rect x="0" y="0" width="450" height="360" class="red"/>
<use xlink:href="#e1" transform="translate(225 180) scale(360 360) rotate(0)" class="black"/>
<use xlink:href="#e2" transform="translate(225 180) scale(360 360) rotate(0)" class="white"/>
</g>
</svg>
