<?xml version="1.0"?>
<svg xmlns="http://www.w3.org/2000/svg" xmlns:xlink="http://www.w3.org/1999/xlink" version="1.1" width="450" height="360" viewBox="0 0 450 360">
<!-- Generated by Kreative Vexillo v1.0 -->
<style>
.blue{fill:rgb(0,62,126);}
.red{fill:rgb(239,65,53);}
.white{fill:rgb(255,255,255);}
</style>
<defs>
<path id="star" d="M 0.0 -1.0 L 0.2245 -0.309 L 0.9511 -0.309 L 0.3633 0.118 L 0.5878 0.809 L 0.0 0.382 L -0.5878 0.809 L -0.3633 0.118 L -0.9511 -0.309 L -0.2245 -0.309 Z"/>
<clipPath id="clip0">
<path d="M 0 0 L 0 15.3675 L 0 15.3675 L 93.2906 90 L 93.2906 90 L 0 164.6325 L 0 164.6325 L 0 180 L 19.2094 180 L 112.5 105.3675 L 112.5 105.3675 L 112.5 105.3675 L 112.5 105.3675 L 112.5 105.3675 L 112.5 105.3675 L 205.7906 180 L 225 180 L 225 164.6325 L 131.7094 90 L 225 15.3675 L 225 0 L 205.7906 0 L 112.5 74.6325 L 19.2094 0 Z"/>
</clipPath>
</defs>
<g>
<rect x="0" y="0" width="450" height="360" class="blue"/>
<g>
<path d="M 0 0 L 0 23.0512 L 0 23.0512 L 83.6859 90 L 83.6859 90 L 0 156.9488 L 0 180 L 28.8141 180 L 112.5 113.0512 L 112.5 113.0512 L 196.186 180 L 225 180 L 225 156.9488 L 225 156.9488 L 141.3141 90 L 225 23.0512 L 225 0 L 196.1859 0 L 112.5 66.9488 L 112.5 66.9488 L 28.8141 0 Z" class="white"/>
<g clip-path="url(#clip0)">
<path d="M 0 0 L 112.5 90 L 0 90 Z" class="red"/>
<path d="M 225 0 L 112.5 90 L 112.5 0 Z" class="red"/>
<path d="M 0 180 L 112.5 90 L 112.5 180 Z" class="red"/>
<path d="M 225 180 L 112.5 90 L 225 90 Z" class="red"/>
</g>
<g>
<rect x="0" y="60" width="225" height="60" class="white"/>
<rect x="82.5" y="0" width="60" height="180" class="white"/>
</g>
<g>
<rect x="0" y="72" width="225" height="36" class="red"/>
<rect x="94.5" y="0" width="36" height="180" class="red"/>
</g>
</g>
<g>
<use xlink:href="#star" transform="translate(337.5 103.5) scale(16.875 16.875) rotate(0)" class="white"/>
<use xlink:href="#star" transform="translate(368.6154 110.1138) scale(16.875 16.875) rotate(24)" class="white"/>
<use xlink:href="#star" transform="translate(394.3506 128.8115) scale(16.875 16.875) rotate(48)" class="white"/>
<use xlink:href="#star" transform="translate(410.2558 156.3602) scale(16.875 16.875) rotate(72)" class="white"/>
<use xlink:href="#star" transform="translate(413.5809 187.9964) scale(16.875 16.875) rotate(96)" class="white"/>
<use xlink:href="#star" transform="translate(403.7509 218.25) scale(16.875 16.875) rotate(120)" class="white"/>
<use xlink:href="#star" transform="translate(382.4656 241.8898) scale(16.875 16.875) rotate(144)" class="white"/>
<use xlink:href="#star" transform="translate(353.4052 254.8283) scale(16.875 16.875) rotate(168)" class="white"/>
<use xlink:href="#star" transform="translate(321.5948 254.8283) scale(16.875 16.875) rotate(192)" class="white"/>
<use xlink:href="#star" transform="translate(292.5344 241.8898) scale(16.875 16.875) rotate(216)" class="white"/>
<use xlink:href="#star" transform="translate(271.2491 218.25) scale(16.875 16.875) rotate(240)" class="white"/>
<use xlink:href="#star" transform="translate(261.4191 187.9964) scale(16.875 16.875) rotate(264)" class="white"/>
<use xlink:href="#star" transform="translate(264.7442 156.3602) scale(16.875 16.875) rotate(288)" class="white"/>
<use xlink:href="#star" transform="translate(280.6494 128.8115) scale(16.875 16.875) rotate(312)" class="white"/>
<use xlink:href="#star" transform="translate(306.3846 110.1138) scale(16.875 16.875) rotate(336)" class="white"/>
</g>
</g>
</svg>
