<?xml version="1.0"?>
<svg xmlns="http://www.w3.org/2000/svg" xmlns:xlink="http://www.w3.org/1999/xlink" version="1.1" width="450" height="360" viewBox="0 0 450 360">
<!-- Generated by Kreative Vexillo v1.0 -->
<style>
.black{fill:rgb(0,0,0);}
.red{fill:rgb(218,18,26);}
.white{fill:rgb(255,255,255);}
</style>
<defs>
<path id="e1" d="M 0.1388 -0.4337 L 0.1537 -0.45949998 L 0.1388 -0.48529997 H 0.1686 L 0.18349999 -0.5111 L 0.19839999 -0.4853 H 0.22819999 L 0.21329999 -0.4595 L 0.22819999 -0.43370003 H 0.19839999 L 0.18349999 -0.40790004 L 0.1686 -0.43370003 H 0.1388 Z M 0.3592 0.4179 V 0.4686 H -0.35909998 L -0.35919997 0.4179 L -0.35899997 0.4175 C -0.35879996 0.41709998 -0.33499998 0.3744 -0.30869997 0.2553 C -0.28619996 0.15349999 -0.29189998 0.051499993 -0.29289997 0.036199987 L -0.29639998 0.03539999 V -0.0507 H -0.2617 V -0.3136 L -0.2728 -0.3176 V -0.3941 H -0.2396 V -0.35700002 H -0.22230001 L -0.22230001 -0.3941 H -0.1904 V -0.35700002 H -0.1764 V -0.3941 H -0.14340001 V -0.35700002 H -0.12830001 V -0.3941 H -0.09660001 V -0.31770003 L -0.10620001 -0.31350002 V -0.0507 H -0.07670001 V -0.3132 L -0.08630001 -0.3165 V -0.3523 H -0.07550001 C -0.07460001 -0.38079998 -0.05570001 -0.40429997 -0.032400012 -0.41599998 C -0.032400012 -0.42039996 -0.03170001 -0.44579998 -0.008100012 -0.45119998 V -0.4793 H -0.029000012 V -0.4969 H -0.008100012 V -0.5142 H 0.008899989 V -0.49689996 H 0.029799988 V -0.47929996 H 0.008899989 V -0.45119995 C 0.03299999 -0.44569996 0.03329999 -0.41929996 0.03319999 -0.41569996 C 0.05609999 -0.40379995 0.07469998 -0.38059995 0.07559998 -0.35229996 H 0.0867 V -0.31639996 L 0.0767 -0.313 V -0.05069998 H 0.1064 V -0.3135 L 0.0968 -0.3177 V -0.3941 H 0.1285 V -0.35700002 H 0.1436 V -0.3941 H 0.17660001 V -0.35700002 H 0.19060001 V -0.3941 H 0.2223 L 0.2223 -0.35700002 H 0.23959999 V -0.3941 H 0.27269998 V -0.3176 L 0.2617 -0.3136 V -0.0507 H 0.2964 V 0.0353 L 0.2929 0.0362 C 0.2919 0.0515 0.2862 0.15349999 0.3087 0.2553 C 0.335 0.3744 0.3588 0.41709998 0.35909998 0.4175 L 0.3592 0.4179 Z M -0.1984 -0.4337 L -0.1835 -0.4079 L -0.16860001 -0.4337 H -0.13880001 L -0.15370001 -0.45949998 L -0.13880001 -0.48529997 H -0.16860001 L -0.1835 -0.5111 L -0.1984 -0.4853 H -0.2282 L -0.2133 -0.4595 L -0.2282 -0.43370003 H -0.1984 Z"/>
<path id="e2" d="M -0.2212 -0.4377 L -0.2086 -0.4595 L -0.2212 -0.48130003 H -0.19600001 L -0.1834 -0.50310004 L -0.1708 -0.48130003 H -0.1456 L -0.15820001 -0.4595 L -0.1456 -0.4377 H -0.1708 L -0.1834 -0.4159 L -0.19600001 -0.4377 H -0.2212 Z M -0.0059 -0.4476 C -0.026 -0.444 -0.028299998 -0.42470002 -0.0286 -0.4179 C -0.0194 -0.422 -0.0096 -0.4242 -1.9999966E-4 -0.4242 C 0.009500001 -0.4242 0.0195 -0.4218 0.028900001 -0.4176 C 0.028700002 -0.4241 0.026600001 -0.44390002 0.0062000006 -0.4476 L 0.0046000006 -0.4479 V -0.4833 H 0.0255 V -0.4929 H 0.0045999996 V -0.5102 H -0.0044 V -0.4929 H -0.0253 V -0.4833 H -0.0044 V -0.4479 L -0.0059 -0.4476 Z M -1.0E-4 -0.4202 C -0.0333 -0.4202 -0.0704 -0.3913 -0.071600005 -0.3523 H 0.07149999 C 0.0702 -0.3913 0.0331 -0.4202 -1.0E-4 -0.4202 Z M 0.0761 -0.317 L 0.0827 -0.3192 V -0.3483 H -0.0824 V -0.3192 L -0.0758 -0.317 H 0.0761 Z M 0.0649 -0.0071 V -0.0507 H 0.07260001 V -0.31 H -0.0728 V -0.05070001 H -0.0649 V -0.00720001 H -0.025400002 V -0.0507 H -0.0033 H 0.0033999998 H 0.0255 V -0.0072000027 H 0.0649 Z M 0.2384 -0.0071 V -0.0507 H 0.2576 V -0.31 H 0.1103 V -0.05070001 H 0.11669999 V -0.00720001 H 0.15259999 V -0.0507 H 0.2029 V -0.0072000027 H 0.2384 Z M 0.1709 -0.4377 L 0.1835 -0.4159 L 0.19610001 -0.4377 H 0.2213 L 0.2087 -0.4595 L 0.2213 -0.48130003 H 0.19610001 L 0.1835 -0.50310004 L 0.1709 -0.48130003 H 0.1457 L 0.1583 -0.4595 L 0.1457 -0.4377 H 0.1709 Z M 0.2593 -0.317 L 0.2687 -0.3204 V -0.3901 H 0.24350001 V -0.35300002 H 0.21820001 L 0.21820001 -0.3901 H 0.19430001 V -0.35300002 H 0.17230001 V -0.3901 H 0.1473 V -0.35300002 H 0.1244 V -0.3901 H 0.1007 V -0.3203 L 0.1083 -0.317 H 0.2593 Z M -0.3558 0.4653 H -0.1162 V 0.4217 H -0.3559 L -0.3558 0.4653 Z M 0.0 0.1511 C 0.0469 0.1511 0.0783 0.19409999 0.0783 0.2342 V 0.4653 H 0.1078 V 0.2211 C 0.1078 0.201 0.0797 0.122600004 0.0 0.122600004 S -0.1078 0.201 -0.1078 0.2211 V 0.46530002 H -0.0783 V 0.2342 C -0.0783 0.1941 -0.0469 0.1511 0.0 0.1511 Z M -0.0017 0.1545 C -0.0456 0.1555 -0.074999996 0.1962 -0.074999996 0.2342 V 0.2357 H -0.055299997 C -0.054799996 0.2263 -0.050599996 0.2255 -0.046699997 0.2255 C -0.045599997 0.2255 -0.0448 0.22590001 -0.044299997 0.2266 C -0.043399997 0.22780001 -0.043799996 0.22940001 -0.0444 0.23140001 C -0.0449 0.23300001 -0.045399997 0.23500001 -0.045399997 0.2372 C -0.045399997 0.2394 -0.044899996 0.2414 -0.0444 0.2433 C -0.0438 0.2458 -0.0434 0.2476 -0.0444 0.24890001 C -0.0448 0.2494 -0.0455 0.24990001 -0.0467 0.24990001 C -0.0522 0.24990001 -0.055 0.24640001 -0.0553 0.23910001 H -0.075 V 0.40240002 H -0.055300005 C -0.054800004 0.393 -0.050600003 0.39220002 -0.046700004 0.39220002 C -0.045600004 0.39220002 -0.044800006 0.39260003 -0.044300005 0.39330003 C -0.043400005 0.39450002 -0.043800004 0.3961 -0.044400007 0.39810002 C -0.044900008 0.39970002 -0.045400005 0.40170002 -0.045400005 0.40390003 C -0.045400005 0.40610003 -0.044900004 0.40810004 -0.044400007 0.41000003 C -0.043800008 0.41250002 -0.04340001 0.41430002 -0.044400007 0.41560003 C -0.044800006 0.41610003 -0.045500007 0.41660002 -0.04670001 0.41660002 C -0.05220001 0.41660002 -0.055000007 0.4131 -0.05530001 0.4058 H -0.075 V 0.4654 H -0.0017000064 V 0.1545 Z M 0.0467 0.2255 C 0.0506 0.2255 0.0548 0.2263 0.0553 0.2357 H 0.075 V 0.2342 C 0.075 0.1962 0.045600004 0.1555 0.0017000064 0.15450001 V 0.4653 H 0.075 V 0.4057 H 0.055300005 C 0.055000003 0.413 0.052200004 0.4165 0.046700004 0.4165 C 0.045500003 0.4165 0.044800006 0.416 0.044400003 0.41550002 C 0.043400005 0.4142 0.043800004 0.4124 0.044400003 0.4099 C 0.044900004 0.4081 0.0454 0.40600002 0.0454 0.4038 C 0.0454 0.4016 0.044800002 0.3996 0.044400003 0.398 C 0.043800004 0.396 0.043400005 0.3944 0.0443 0.3932 C 0.044800002 0.3925 0.0456 0.3921 0.0467 0.3921 C 0.0506 0.3921 0.0548 0.39290002 0.0553 0.4023 H 0.075 V 0.23900001 H 0.055300005 C 0.055000003 0.24630001 0.052200004 0.24980001 0.046700004 0.24980001 C 0.045500003 0.24980001 0.044800006 0.24930002 0.044400003 0.24880001 C 0.043400005 0.2475 0.043800004 0.24570002 0.044400003 0.2432 C 0.044900004 0.2414 0.0454 0.2393 0.0454 0.2371 C 0.0454 0.2349 0.044800002 0.23290001 0.044400003 0.23130001 C 0.043800004 0.2293 0.043400005 0.22770001 0.0443 0.2265 C 0.0448 0.2258 0.0456 0.2255 0.0467 0.2255 Z M 0.1162 0.4217 V 0.4653 H 0.3559 V 0.4217 H 0.1162 Z M 0.0 0.1142 C 0.0858 0.1142 0.1162 0.1993 0.1162 0.2211 V 0.41500002 H 0.354 C 0.3475 0.40170002 0.3273 0.35520002 0.3054 0.25600004 C 0.28350002 0.15650004 0.2883 0.056800038 0.2895 0.037300035 H 0.2884 L 0.2818 0.038900036 H 0.0033 H -0.0033999998 H -0.2818 L -0.2884 0.037300035 H -0.2895 C -0.2883 0.056600034 -0.2835 0.15640002 -0.3054 0.25600004 C -0.3273 0.35520005 -0.34750003 0.40170002 -0.354 0.41500002 H -0.1162 V 0.2211 C -0.1162 0.1993 -0.0858 0.1142 0.0 0.1142 Z M -0.1083 -0.317 L -0.1007 -0.3203 V -0.3901 H -0.1244 V -0.35300002 H -0.1475 V -0.3901 H -0.1725 V -0.35300002 H -0.1945 V -0.3901 H -0.2183 L -0.2183 -0.35300002 H -0.2436 V -0.3901 H -0.2688 V -0.3204 L -0.25939998 -0.317 H -0.1083 Z M -0.1167 -0.0071 V -0.0507 H -0.110300004 V -0.31 H -0.2576 V -0.05070001 H -0.23840001 V -0.00720001 H -0.2028 V -0.0507 H -0.1525 V -0.0072000027 H -0.1167 Z M 0.2923 0.0307 V -0.0467 H 0.2424 V -0.003200002 H 0.1989 V -0.0467 H 0.1566 V -0.003200002 H 0.1127 V -0.0467 H 0.0689 V -0.003200002 H 0.0214 V -0.0467 H -0.0033 H -0.0214 V -0.003200002 H -0.068900004 V -0.0467 H -0.1127 V -0.003200002 H -0.1566 V -0.0467 H -0.1989 V -0.003200002 H -0.2425 V -0.0467 H -0.2924 V 0.0307 H 0.2923 Z"/>
</defs>
<g>
<rect x="0" y="0" width="450" height="360" class="red"/>
<use xlink:href="#e1" transform="translate(225 180) scale(270 270) rotate(0)" class="black"/>
<use xlink:href="#e2" transform="translate(225 180) scale(270 270) rotate(0)" class="white"/>
</g>
</svg>
