<?xml version="1.0"?>
<svg xmlns="http://www.w3.org/2000/svg" xmlns:xlink="http://www.w3.org/1999/xlink" version="1.1" width="450" height="360" viewBox="0 0 450 360">
<!-- Generated by Kreative Vexillo v1.0 -->
<style>
.blue{fill:rgb(77,135,202);}
.white{fill:rgb(255,255,255);}
</style>
<defs>
<path id="s" d="M 0.0245 6.0E-4 H 0.1002 L 0.043399997 0.043199997 L 0.062299997 0.1189 L 7.999949E-4 0.071600005 L -0.060700007 0.1189 L -0.037100006 0.0432 L -0.09860001 6.000027E-4 H -0.022900008 L 6.999932E-4 -0.0751 L 0.0245 6.0E-4 Z M 0.03 0.2 C 0.0361 0.19 0.039499998 0.1707 0.040599998 0.15200001 H -0.0398 C -0.0398 0.17090002 -0.0379 0.18620001 -0.0309 0.19960001 C -0.011399999 0.2371 -0.0546 0.3077 -0.0824 0.379 H 0.0831 C 0.0555 0.3078 0.0075 0.2371 0.03 0.2 Z M 0.1626 -0.1176 L 0.21939999 -0.1602 H 0.14369999 L 0.12009999 -0.2359 L 0.096499994 -0.1602 H 0.020799994 L 0.08229999 -0.1176 L 0.05869999 -0.0419 L 0.12019999 -0.089200005 L 0.18169999 -0.041900005 L 0.1626 -0.1176 Z M -0.0825 -0.1176 L -0.025700003 -0.1602 H -0.1014 L -0.125 -0.2359 L -0.1486 -0.1602 H -0.2243 L -0.1628 -0.1176 L -0.1864 -0.0419 L -0.1249 -0.089200005 L -0.0634 -0.041900005 L -0.0825 -0.1176 Z M -0.0627 -0.1933 L -0.0012000017 -0.24059999 L 0.0603 -0.1933 L 0.0414 -0.269 L 0.0982 -0.3116 H 0.0225 L -0.0011 -0.3873 L -0.0247 -0.31160003 H -0.1004 L -0.0389 -0.26900002 L -0.0627 -0.1933 Z M -0.207 0.036 L -0.207 0.036 C -0.2279 0.057099998 -0.2274 0.089 -0.2275 0.1129 C -0.2352 0.103 -0.24280001 0.092999995 -0.2504 0.082899995 C -0.2343 0.054599993 -0.22850001 0.010699995 -0.24890001 -0.014200002 C -0.27040002 0.0074999984 -0.27 0.0385 -0.26520002 0.0621 L -0.2632 0.0657 C -0.273 0.052300002 -0.2827 0.0388 -0.29220003 0.025200002 L -0.29210004 0.025300002 C -0.27480003 -0.002799999 -0.26850003 -0.042299993 -0.28960004 -0.067899995 V -0.067899995 C -0.30960006 -0.047699995 -0.31110004 -0.025499996 -0.31140006 -0.0030999929 C -0.31770006 -0.012599993 -0.32390004 -0.022199992 -0.32980007 -0.031799994 C -0.30880007 -0.055999994 -0.29650006 -0.091699995 -0.31150007 -0.119899996 V -0.119899996 C -0.33490008 -0.1042 -0.33920008 -0.077199996 -0.34360006 -0.054599993 C -0.34910005 -0.063899994 -0.35430005 -0.07309999 -0.35940006 -0.08229999 C -0.33740008 -0.10649999 -0.32400006 -0.14339998 -0.33950007 -0.1724 V -0.1724 C -0.36400008 -0.1559 -0.36930007 -0.13319999 -0.37410006 -0.1104 C -0.37730005 -0.1169 -0.38040006 -0.1234 -0.38330007 -0.12979999 C -0.36590007 -0.16669999 -0.37410006 -0.2015 -0.39920008 -0.23369999 C -0.4212001 -0.20889999 -0.41520008 -0.15129998 -0.3849001 -0.12699999 C -0.3836001 -0.12009999 -0.3817001 -0.112699986 -0.3792001 -0.10509999 C -0.3977001 -0.11899999 -0.4203001 -0.13209999 -0.4490001 -0.12879999 L -0.4490001 -0.12879999 C -0.4420001 -0.096899986 -0.39900008 -0.07769999 -0.3664001 -0.07329999 C -0.3621001 -0.06399999 -0.3571001 -0.054299988 -0.35180008 -0.044599988 C -0.37400007 -0.053199988 -0.39630008 -0.06159999 -0.4241001 -0.04969999 H -0.4241001 C -0.4080001 -0.020599987 -0.3690001 -0.011999987 -0.3365001 -0.017699987 L -0.3379001 -0.020299986 C -0.3311001 -0.008999986 -0.3239001 0.0025000144 -0.3164001 0.013700016 C -0.3394001 0.007600016 -0.3625001 0.0019000154 -0.38870013 0.016800016 H -0.38870013 C -0.36970013 0.043600015 -0.33070013 0.047900014 -0.29930013 0.039100014 C -0.29270014 0.048600014 -0.28600013 0.058000013 -0.27950013 0.06700002 C -0.30300012 0.062300015 -0.32650012 0.057700016 -0.35190013 0.07430001 C -0.33140013 0.09980001 -0.29240012 0.10190001 -0.26160014 0.09120001 C -0.25270015 0.10310001 -0.24430014 0.11410001 -0.23660013 0.124100015 C -0.25950015 0.11950001 -0.28630012 0.11480001 -0.31070012 0.13070002 C -0.29060012 0.15570003 -0.24860013 0.15820003 -0.21780011 0.14830002 C -0.18790011 0.18650001 -0.1576001 0.22430003 -0.12960011 0.2614 H -0.12960011 L -0.1257001 0.23810002 C -0.1511001 0.20770001 -0.1803001 0.17280002 -0.2100001 0.13520002 C -0.1937 0.1069 -0.1865 0.061 -0.207 0.036 Z M -0.249 -0.0142 C -0.249 -0.0142 -0.249 -0.0142 -0.249 -0.0142 C -0.249 -0.0142 -0.249 -0.0142 -0.249 -0.0142 L -0.249 -0.0142 Z M 0.4443 -0.1294 L 0.4443 -0.1294 C 0.4156 -0.1327 0.393 -0.1196 0.3745 -0.1057 C 0.377 -0.1133 0.379 -0.1207 0.3802 -0.1276 C 0.4105 -0.1519 0.4165 -0.2095 0.3945 -0.2343 C 0.36929998 -0.20210001 0.36119998 -0.1673 0.3786 -0.1304 C 0.3748 -0.1219 0.37060001 -0.1134 0.3663 -0.1048 C 0.36189997 -0.1279 0.35889998 -0.1568 0.3349 -0.17300001 C 0.31939998 -0.14400001 0.3328 -0.10710001 0.3548 -0.08290001 C 0.3505 -0.07510001 0.34609997 -0.06720001 0.3414 -0.05930001 C 0.3367 -0.08190001 0.3312 -0.104200006 0.3069 -0.12060001 V -0.12060001 C 0.2918 -0.09240001 0.3042 -0.056700006 0.3252 -0.032500006 C 0.31919998 -0.022900006 0.31309998 -0.013400007 0.30679998 -0.0038000066 C 0.30659997 -0.026200006 0.30499998 -0.04850001 0.28499997 -0.06860001 V -0.06860001 C 0.26389998 -0.042900007 0.27019995 -0.003500007 0.28749996 0.024599992 L 0.28759995 0.024499992 C 0.27949995 0.036099993 0.27129996 0.04769999 0.26289994 0.059099995 C 0.26709995 0.035799995 0.26499993 0.006099995 0.24419993 -0.014900006 L 0.24419993 -0.014900006 C 0.22369993 0.009999994 0.22959994 0.05399999 0.24569993 0.08229999 C 0.23809993 0.09239999 0.23039992 0.10239999 0.22279993 0.11229999 C 0.22269993 0.08839999 0.22319993 0.056499995 0.20229992 0.035399996 V 0.035399996 C 0.18169992 0.060399994 0.18899992 0.1063 0.20529993 0.1347 C 0.17549993 0.1723 0.14639993 0.20719999 0.12099993 0.2376 L 0.12489993 0.2609 C 0.15289994 0.22379999 0.18319993 0.18599999 0.21309993 0.1478 C 0.24389993 0.1577 0.28589994 0.1552 0.30599993 0.1302 C 0.28159994 0.1143 0.25479993 0.1191 0.23189993 0.1236 C 0.23959993 0.1136 0.24799994 0.1026 0.25689992 0.0907 C 0.28769994 0.1013 0.3266999 0.0993 0.34719992 0.0738 C 0.3217999 0.0572 0.2982999 0.061799996 0.2747999 0.0665 C 0.2813999 0.0574 0.28799993 0.048100002 0.29459992 0.0386 C 0.32599992 0.0475 0.36499992 0.0431 0.3839999 0.016300002 H 0.3839999 C 0.35779992 0.0014000023 0.33469993 0.0072000017 0.31169993 0.013200002 C 0.31909993 0.0019000014 0.32639992 -0.009499999 0.33319992 -0.0208 L 0.33179992 -0.0182 C 0.36429992 -0.012500001 0.40329993 -0.021100001 0.41939992 -0.0502 C 0.39159992 -0.0621 0.3693999 -0.0537 0.3470999 -0.0451 C 0.3523999 -0.054899998 0.3573999 -0.064500004 0.3616999 -0.0738 C 0.3943 -0.0782 0.4374 -0.0975 0.4443 -0.1294 Z"/>
</defs>
<g>
<rect x="0" y="0" width="450" height="360" class="blue"/>
<use xlink:href="#s" transform="translate(225 180) scale(360 360) rotate(0)" class="white"/>
</g>
</svg>
