<?xml version="1.0"?>
<svg xmlns="http://www.w3.org/2000/svg" xmlns:xlink="http://www.w3.org/1999/xlink" version="1.1" width="450" height="360" viewBox="0 0 450 360">
<!-- Generated by Kreative Vexillo v1.0 -->
<style>
.blue{fill:rgb(0,36,125);}
.red{fill:rgb(207,20,43);}
.white{fill:rgb(255,255,255);}
</style>
<defs>
<clipPath id="clip0">
<path d="M 0 0 L 0 30.735 L 0 30.735 L 186.5812 180 L 0 329.265 L 0 329.265 L 0 360 L 38.4188 360 L 225 210.735 L 225 210.735 L 225 210.735 L 225 210.735 L 225 210.735 L 225 210.735 L 411.5812 360 L 450 360 L 450 329.265 L 450 329.265 L 263.4188 180 L 450 30.735 L 450 0 L 411.5812 0 L 225 149.265 L 225 149.265 L 38.4187 0 Z"/>
</clipPath>
</defs>
<g>
<rect x="0" y="0" width="450" height="360" class="blue"/>
<path d="M 0 0 L 0 46.1025 L 0 46.1025 L 167.3719 180 L 0 313.8975 L 0 313.8975 L 0 360 L 57.6281 360 L 225 226.1025 L 225 226.1025 L 392.3719 360 L 450 360 L 450 313.8975 L 282.6281 180 L 450 46.1025 L 450 0 L 392.3719 0 L 225 133.8975 L 57.6281 0 Z" class="white"/>
<g clip-path="url(#clip0)">
<path d="M 0 0 L 225 180 L 0 180 Z" class="red"/>
<path d="M 450 0 L 225 180 L 225 0 Z" class="red"/>
<path d="M 0 360 L 225 180 L 225 360 Z" class="red"/>
<path d="M 450 360 L 225 180 L 450 180 Z" class="red"/>
</g>
<g>
<rect x="0" y="120" width="450" height="120" class="white"/>
<rect x="165" y="0" width="120" height="360" class="white"/>
</g>
<g>
<rect x="0" y="144" width="450" height="72" class="red"/>
<rect x="189" y="0" width="72" height="360" class="red"/>
</g>
</g>
</svg>
