<?xml version="1.0"?>
<svg xmlns="http://www.w3.org/2000/svg" xmlns:xlink="http://www.w3.org/1999/xlink" version="1.1" width="450" height="360" viewBox="0 0 450 360">
<!-- Generated by Kreative Vexillo v1.0 -->
<style>
.black{fill:rgb(0,0,0);}
.green{fill:rgb(0,169,79);}
.yellow{fill:rgb(255,221,0);}
</style>
<g>
<rect x="0" y="0" width="450" height="360" class="green"/>
<path d="M 0 0 L 225 180 L 0 360 Z" class="black"/>
<path d="M 450 0 L 225 180 L 450 360 Z" class="black"/>
<path d="M 0 0 L 0 38.4187 L 176.9766 180 L 0 321.5813 L 0 321.5813 L 0 360 L 48.0234 360 L 225 218.4187 L 225 218.4187 L 401.9766 360 L 450 360 L 450 321.5813 L 273.0234 180 L 450 38.4187 L 450 0 L 401.9766 0 L 225 141.5813 L 225 141.5813 L 225 141.5813 L 225 141.5813 L 225 141.5813 L 225 141.5813 L 48.0234 0 Z" class="yellow"/>
</g>
</svg>
