<?xml version="1.0"?>
<svg xmlns="http://www.w3.org/2000/svg" xmlns:xlink="http://www.w3.org/1999/xlink" version="1.1" width="450" height="360" viewBox="0 0 450 360">
<!-- Generated by Kreative Vexillo v1.0 -->
<style>
.green{fill:rgb(1,151,68);}
.white{fill:rgb(255,255,255);}
</style>
<defs>
<path id="e" d="M 0.6964 0.488 L -0.69629997 0.4848 C -0.591 0.4566 -0.4075 0.1346 -0.4075 -0.1444 H -0.2027 C -0.1944 -0.027199998 -0.16780001 0.20590001 -0.0926 0.20590001 C -0.0553 0.20590001 -0.015600003 0.14780001 -0.0047999993 0.10720001 H 0.087 C 0.09819999 0.14900002 0.1374 0.19890001 0.1638 0.19890001 C 0.2075 0.19890001 0.2821 0.10660002 0.2821 -0.021199986 C 0.2821 -0.102999985 0.2518 -0.14159998 0.21219999 -0.14159998 C 0.120599985 -0.13579999 -0.0016000122 -0.03279998 -0.018700019 -0.019199982 V -0.488 C 0.05109998 -0.4264 0.15999998 -0.3602 0.28419995 -0.3602 C 0.35969996 -0.3602 0.46629995 -0.40379998 0.5027 -0.43089998 C 0.2576 0.1185 0.6014 0.3718 0.6964 0.488 L 0.6964 0.488 Z"/>
</defs>
<g>
<rect x="0" y="0" width="450" height="360" class="white"/>
<use xlink:href="#e" transform="translate(225 180) scale(240 240) rotate(0)" class="green"/>
</g>
</svg>
