<?xml version="1.0"?>
<svg xmlns="http://www.w3.org/2000/svg" xmlns:xlink="http://www.w3.org/1999/xlink" version="1.1" width="450" height="360" viewBox="0 0 450 360">
<!-- Generated by Kreative Vexillo v1.0 -->
<style>
.blue{fill:rgb(0,74,143);}
.orange{fill:rgb(249,143,0);}
.white{fill:rgb(255,255,255);}
</style>
<defs>
<path id="e1" d="M 0.7278 0.1669 C 0.634 0.1575 0.5449 0.122099996 0.47030002 0.064399995 C 0.3255 -0.047500007 0.22650002 -0.20810002 0.19140002 -0.38770002 C 0.19140002 -0.38770002 0.19140002 -0.38770002 0.19140002 -0.38770002 C 0.18880002 -0.4011 0.18650003 -0.41470003 0.18460003 -0.42810002 C 0.17890002 -0.46910003 0.14340003 -0.4999 0.10210002 -0.4999 H -0.101999976 C -0.14339998 -0.4999 -0.17879999 -0.469 -0.18449998 -0.42810002 C -0.18639998 -0.4146 -0.18869998 -0.40100002 -0.19129997 -0.38770002 C -0.19129997 -0.38750002 -0.19139998 -0.3873 -0.19139998 -0.3871 C -0.2266 -0.2078 -0.3256 -0.0474 -0.4702 0.0644 C -0.5448 0.1221 -0.6339 0.1575 -0.7277 0.16690001 C -0.7565 0.16980001 -0.7783 0.19430001 -0.7777 0.22330001 S -0.7544 0.2759 -0.7255 0.2777 C -0.542 0.2888 -0.36909997 0.3552 -0.22539997 0.4698 C -0.20339997 0.4873 -0.17169997 0.4856 -0.15169996 0.4659 C -0.13169996 0.4461 -0.12959996 0.4145 -0.14689995 0.3923 C -0.20619996 0.3161 -0.19679995 0.2054 -0.12549995 0.14040002 C -0.049699947 0.07120002 0.068400055 0.07650002 0.13760005 0.15240002 C 0.13850005 0.15340002 0.13940005 0.15460002 0.14020005 0.15570001 C 0.14870004 0.16840002 0.14520004 0.18570001 0.13250005 0.19420001 C 0.10510005 0.2125 0.078100055 0.23210001 0.052400053 0.2526 C 0.0233 0.2756 0.0051 0.3086 9.0E-4 0.3455 C -0.0033 0.38239998 0.0072 0.4186 0.0303 0.4477 C 0.053400002 0.4767 0.086500004 0.495 0.1233 0.4992 C 0.1286 0.4998 0.1339 0.50009996 0.1392 0.50009996 C 0.17050001 0.50009996 0.2007 0.48959994 0.2255 0.46979997 C 0.3692 0.35529995 0.5422 0.28889996 0.7256 0.27769995 C 0.75450003 0.27589995 0.7772 0.25229993 0.7778 0.22329995 S 0.7566 0.1698 0.7278 0.1669 Z"/>
<path id="e2" d="M 0.4023 0.1523 C 0.2362 0.0239 0.1225 -0.1604 0.0823 -0.3664 C 0.0798 -0.3794 0.0683 -0.3889 0.055 -0.3889 H -0.0551 C -0.0684 -0.3889 -0.0798 -0.3795 -0.0824 -0.3664 C -0.1225 -0.1604 -0.2362 0.0239 -0.4023 0.1523 C -0.4295 0.1733 -0.4583 0.1919 -0.4883 0.208 C -0.422 0.2281 -0.35799998 0.2551 -0.2972 0.2887 C -0.2976 0.27670002 -0.29729998 0.26470003 -0.2963 0.2526 C -0.2899 0.17780001 -0.2559 0.10880001 -0.2005 0.058200017 C -0.079399996 -0.052299984 0.10900001 -0.04379998 0.2196 0.07730001 C 0.21970001 0.077400014 0.21970001 0.077400014 0.21980001 0.077500015 C 0.23140001 0.090200014 0.24190001 0.10400002 0.2511 0.118400015 C 0.2512 0.11860002 0.2514 0.118800014 0.2515 0.11910001 C 0.2515 0.11910001 0.2515 0.11910001 0.2515 0.11910001 C 0.2671 0.14410001 0.2721 0.1737 0.26560003 0.20250002 C 0.25900003 0.23140001 0.24160002 0.2561 0.21650003 0.2719 C 0.20910002 0.2766 0.20160003 0.2814 0.19420002 0.2864 C 0.19420002 0.2864 0.19410002 0.28649998 0.19410002 0.28649998 C 0.16930002 0.30299997 0.14490002 0.32079998 0.121600024 0.3394 C 0.11380003 0.34559998 0.11180002 0.35369998 0.11130002 0.35799998 C 0.11080002 0.36229998 0.11090002 0.3706 0.117200024 0.37839997 C 0.123400025 0.38619998 0.13150002 0.38819996 0.13580002 0.38869998 C 0.14010002 0.38919997 0.14840002 0.3891 0.15620002 0.38279998 C 0.256 0.3033 0.36840004 0.24439998 0.48830003 0.20799999 C 0.4582 0.1919 0.4295 0.1733 0.4023 0.1523 Z"/>
</defs>
<g>
<rect x="0" y="0" width="450" height="360" class="blue"/>
<use xlink:href="#e1" transform="translate(225 180) scale(180 180) rotate(0)" class="white"/>
<use xlink:href="#e2" transform="translate(225 180) scale(180 180) rotate(0)" class="orange"/>
</g>
</svg>
