<?xml version="1.0"?>
<svg xmlns="http://www.w3.org/2000/svg" xmlns:xlink="http://www.w3.org/1999/xlink" version="1.1" width="450" height="360" viewBox="0 0 450 360">
<!-- Generated by Kreative Vexillo v1.0 -->
<style>
.blue{fill:rgb(51,65,154);}
.white{fill:rgb(255,255,255);}
</style>
<defs>
<path id="e" d="M 0.4635 -0.2378 C 0.3371 -0.2378 0.2347 -0.1352 0.2347 -0.008599997 C 0.2347 -0.0077999965 0.23519999 6.0000364E-4 0.23529999 0.0022000037 C 0.2356 0.017700003 0.23169999 0.050400004 0.19729999 0.0712 C 0.16279998 0.092 0.13129999 0.0814 0.11609998 0.0736 C 0.11329998 0.0719 0.10629998 0.068 0.10629998 0.068 C 0.091499984 0.058100004 0.06909998 0.036800005 0.06909998 -0.001199998 C 0.06909998 -0.038 0.090899974 -0.058 0.10479998 -0.067099996 C 0.10819998 -0.0689 0.11599998 -0.0734 0.11599998 -0.0734 C 0.18349999 -0.113299996 0.22889999 -0.1866 0.22889999 -0.2708 C 0.2288 -0.3974 0.1263 -0.5 0.0 -0.5 C -0.1264 -0.5 -0.2288 -0.3974 -0.2288 -0.2708 C -0.2288 -0.18669999 -0.1834 -0.113299996 -0.1159 -0.07339999 C -0.1159 -0.07339999 -0.108100004 -0.06889999 -0.1047 -0.06709999 C -0.0907 -0.057999987 -0.069 -0.037999988 -0.069 -0.0011999905 C -0.069 0.03680001 -0.0915 0.05810001 -0.106199995 0.06800001 C -0.106199995 0.06800001 -0.11879999 0.07500001 -0.11879999 0.07500001 L -0.11879999 0.07500001 C -0.13489999 0.08260001 -0.16469999 0.09080001 -0.19709998 0.07120001 C -0.23149998 0.050500013 -0.23539999 0.017800014 -0.23509999 0.002200015 C -0.23499998 5.0001487E-4 -0.2346 -0.007899985 -0.2346 -0.008599985 C -0.2346 -0.13509998 -0.33699998 -0.23779999 -0.4634 -0.23779999 C -0.5899 -0.2378 -0.6923 -0.1351 -0.6923 -0.0086 C -0.6923 0.118 -0.5899 0.2206 -0.4635 0.2206 C -0.424 0.2206 -0.389 0.2118 -0.3566 0.1942 C -0.3566 0.1942 -0.3477 0.1889 -0.3444 0.18689999 C -0.32979998 0.17949998 -0.30069998 0.17009999 -0.2683 0.18959999 C -0.2344 0.21 -0.2287 0.24199998 -0.22819999 0.25939998 C -0.22839999 0.26319999 -0.22869998 0.27169997 -0.22869998 0.27169997 C -0.22819999 0.3979 -0.12599999 0.50009996 1.00016594E-4 0.50009996 C 0.12620002 0.50009996 0.22840002 0.39789996 0.22890002 0.27169997 L 0.22900002 0.27179995 C 0.22900002 0.27179995 0.22850002 0.26399994 0.22840002 0.26049995 C 0.22860003 0.24339995 0.23390003 0.21049996 0.26850003 0.18969995 C 0.30090004 0.17019995 0.33000004 0.17949995 0.34460002 0.18699995 C 0.34790003 0.18899995 0.3546 0.19309995 0.3546 0.19309995 C 0.38700002 0.21079995 0.4242 0.22079995 0.4637 0.22079995 C 0.5899 0.2206 0.6923 0.118 0.6923 -0.0086 C 0.6923 -0.1351 0.5899 -0.2378 0.4635 -0.2378 Z M 0.0 -0.3594 C 0.0488 -0.3594 0.0884 -0.3197 0.0884 -0.2708 C 0.0884 -0.22189999 0.0488 -0.18219998 0.0 -0.18219998 C -0.0488 -0.18219998 -0.0884 -0.22189999 -0.0884 -0.2708 C -0.0884 -0.3197 -0.0488 -0.3594 0.0 -0.3594 Z M -0.4635 0.08 C -0.5123 0.08 -0.55189997 0.040299997 -0.55189997 -0.008600004 C -0.55189997 -0.057500005 -0.51229995 -0.097200006 -0.46349996 -0.097200006 C -0.41469997 -0.097200006 -0.37509996 -0.057500005 -0.37509996 -0.008600004 C -0.37509996 0.040299997 -0.41469997 0.08 -0.46349996 0.08 Z M 0.0 0.35939997 C -0.0488 0.35939997 -0.0884 0.31969997 -0.0884 0.27079996 C -0.0884 0.22189996 -0.0488 0.18219995 0.0 0.18219995 C 0.0488 0.18219995 0.0884 0.22189996 0.0884 0.27079996 C 0.0884 0.31969997 0.0488 0.35939997 0.0 0.35939997 Z M 0.4635 0.08 C 0.4147 0.08 0.3751 0.040299997 0.3751 -0.008600004 C 0.3751 -0.057500005 0.41469997 -0.097200006 0.4635 -0.097200006 C 0.5123 -0.097200006 0.55189997 -0.057500005 0.55189997 -0.008600004 C 0.55189997 0.040299997 0.51229995 0.08 0.46349996 0.08 Z"/>
</defs>
<g>
<rect x="0" y="0" width="450" height="360" class="blue"/>
<use xlink:href="#e" transform="translate(225 180) scale(234 234) rotate(0)" class="white"/>
</g>
</svg>
