<?xml version="1.0"?>
<svg xmlns="http://www.w3.org/2000/svg" xmlns:xlink="http://www.w3.org/1999/xlink" version="1.1" width="450" height="360" viewBox="0 0 450 360">
<!-- Generated by Kreative Vexillo v1.0 -->
<style>
.blue{fill:rgb(35,71,148);}
.yellow{fill:rgb(252,212,0);}
</style>
<defs>
<path id="e" d="M 0.4 0.3 L 0.5556 0.5 H 0.2222 L 0.19240001 0.4616 L 0.19240001 0.4616 L 0.0061 0.2221 C 0.126 0.2189 0.2222 0.1207 0.2222 0.0 C 0.2222 -0.0727 0.18730001 -0.1372 0.1333 -0.1778 H 0.4673 C 0.4884 -0.1225 0.5 -0.0626 0.5 0.0 C 0.5 0.1126 0.4628 0.2164 0.4 0.3 Z M -0.0556 0.2152 C -0.1514 0.1905 -0.2222 0.1035 -0.2222 0.0 C -0.2222 -0.1227 -0.122700006 -0.2222 0.0 -0.2222 H 0.448 C 0.448 -0.2222 0.448 -0.22230001 0.448 -0.22230001 L 0.6202 -0.5 H 0.0 C -0.0682 -0.5 -0.1332 -0.4863 -0.1924 -0.4616 L -0.2222 -0.5 H -0.55550003 L -0.40000004 -0.3 C -0.4628 -0.2164 -0.5 -0.1126 -0.5 0.0 C -0.5 0.2761 -0.27609998 0.5 0.0 0.5 C 0.0517 0.5 0.1016 0.4921 0.1485 0.4776 L -0.0556 0.2152 Z"/>
</defs>
<g>
<rect x="0" y="0" width="450" height="360" class="blue"/>
<use xlink:href="#e" transform="translate(225 180) scale(216 216) rotate(0)" class="yellow"/>
</g>
</svg>
