<?xml version="1.0"?>
<svg xmlns="http://www.w3.org/2000/svg" xmlns:xlink="http://www.w3.org/1999/xlink" version="1.1" width="450" height="360" viewBox="0 0 450 360">
<!-- Generated by Kreative Vexillo v1.0 -->
<style>
.black{fill:rgb(0,0,0);}
.green{fill:rgb(0,169,79);}
.red{fill:rgb(239,65,53);}
.white{fill:rgb(255,255,255);}
.yellow{fill:rgb(255,221,0);}
</style>
<defs>
<path id="star" d="M 0.0 -1.0 L 0.2245 -0.309 L 0.9511 -0.309 L 0.3633 0.118 L 0.5878 0.809 L 0.0 0.382 L -0.5878 0.809 L -0.3633 0.118 L -0.9511 -0.309 L -0.2245 -0.309 Z"/>
<clipPath id="clip0">
<rect x="0" y="0" width="450" height="360"/>
</clipPath>
</defs>
<g>
<path d="M 0 360 L 0 0 L 450 0 Z" class="green"/>
<path d="M 450 0 L 450 360 L 0 360 Z" class="red"/>
<g clip-path="url(#clip0)">
<path d="M 402.7606 -59.0237 L -47.2394 300.9763 L 47.2394 419.0237 L 497.2394 59.0237 L 402.7606 -59.0237 Z" class="yellow"/>
<path d="M 416.2576 -42.1598 L -33.7424 317.8402 L 33.7424 402.1598 L 483.7424 42.1598 L 416.2576 -42.1598 Z" class="black"/>
</g>
<use xlink:href="#star" transform="translate(144 244.8) scale(50.4 50.4) rotate(-38.6598)" class="white"/>
<use xlink:href="#star" transform="translate(315 108) scale(50.4 50.4) rotate(-38.6598)" class="white"/>
</g>
</svg>
