<?xml version="1.0"?>
<svg xmlns="http://www.w3.org/2000/svg" xmlns:xlink="http://www.w3.org/1999/xlink" version="1.1" width="450" height="360" viewBox="0 0 450 360">
<!-- Generated by Kreative Vexillo v1.0 -->
<style>
.black{fill:rgb(0,0,0);}
.blue{fill:rgb(0,85,164);}
.green{fill:rgb(0,161,96);}
.white{fill:rgb(255,255,255);}
</style>
<defs>
<path id="hat" d="M 0.4007 0.2531 L 0.3607 0.2705 L 0.12380001 -0.04280001 L 0.12680002 -0.04890001 C 0.13020001 -0.055900007 0.21030001 -0.22260001 0.19320002 -0.34280002 C 0.17710002 -0.45650002 0.12350002 -0.51750004 0.030000016 -0.5284 C 0.024800016 -0.5331 0.0111000165 -0.5445 -0.0024999827 -0.5442 L -0.0024999827 -0.5442 C -0.014999983 -0.5439 -0.027299983 -0.5337 -0.032999985 -0.5283 C -0.124099985 -0.5161 -0.18449998 -0.4465 -0.19649997 -0.3374 C -0.20959997 -0.21859999 -0.13319997 -0.055999994 -0.12989998 -0.04909998 L -0.123999976 -0.036599983 L -0.35339996 0.27220002 L -0.39859995 0.25660002 L -0.47759995 0.42520002 C -0.47759995 0.42520002 -0.28209996 0.54760003 0.0017000437 0.5443 C 0.31310004 0.5406 0.48230004 0.4196 0.48230004 0.4196 L 0.4007 0.2531 Z M 0.1437 -0.3358 C 0.1557 -0.2511 0.10880001 -0.132 0.089600004 -0.088 L 0.050900005 -0.1392 L 0.050500005 -0.2587 H 0.1022 L 0.0318 -0.3248 L 0.032100003 -0.4777 C 0.0973 -0.4671 0.1313 -0.423 0.1437 -0.3358 Z M -0.091 -0.0849 C -0.1086 -0.1258 -0.15619999 -0.2459 -0.1467 -0.332 C -0.13769999 -0.41419998 -0.098699994 -0.46469998 -0.035799995 -0.47719997 L -0.034699995 -0.32259998 L -0.0986 -0.2557 H -0.0469 L -0.0473 -0.1397 L -0.088 -0.08489999 H -0.091 Z M -0.3721 0.3257 L -0.3571 0.3718 L -0.4009 0.381 C -0.4009 0.381 -0.3756 0.3303 -0.3721 0.3257 Z M -0.3929 0.4064 L -0.3468 0.3914 H -0.3468 L -0.3376 0.42830002 L -0.3929 0.4064 Z M -0.326 0.3268 L -0.2614 0.3464 L -0.24640001 0.3787 L -0.30290002 0.39479998 L -0.326 0.3268 Z M -0.2822 0.4468 L -0.2903 0.4191 L -0.23730001 0.40179998 L -0.2073 0.46519998 L -0.2822 0.4468 Z M -0.2073 0.3614 L -0.1428 0.3752 L -0.124400005 0.4029 L -0.18090001 0.4248 L -0.2073 0.3614 Z M -0.1612 0.4721 L -0.17040001 0.4479 L -0.11050001 0.4272 L -0.07360001 0.48479998 L -0.1612 0.4721 Z M -0.0863 0.3799 L 0.018600002 0.3845 L 0.027800001 0.4064 L -0.053999998 0.4364 L -0.0863 0.3799 Z M -0.0217 0.4871 L -0.039 0.4571 L 0.0417 0.4271 L 0.0797 0.4836 L -0.0217 0.4871 Z M 0.0682 0.3822 L 0.1431 0.373 L 0.16039999 0.3984 L 0.09589999 0.4295 L 0.0682 0.3822 Z M 0.1269 0.4778 L 0.1096 0.4501 L 0.1741 0.4178 L 0.21329999 0.4639 L 0.1269 0.4778 Z M 0.195 0.3683 L 0.2642 0.34759998 L 0.28260002 0.3672 L 0.22840002 0.4098 L 0.195 0.3683 Z M 0.2561 0.4536 L 0.2423 0.4294 L 0.2942 0.3902 L 0.3276 0.43519998 L 0.2561 0.4536 Z M 0.3057 0.3326 L 0.3656 0.3084 L 0.37829998 0.32680002 L 0.3426 0.37980002 L 0.3057 0.3326 Z M 0.3644 0.3925 L 0.3898 0.35450003 L 0.4117 0.39830002 L 0.3679 0.4133 L 0.3644 0.3925 Z"/>
</defs>
<g>
<g>
<rect x="0" y="0" width="450" height="108" class="blue"/>
<rect x="0" y="108" width="450" height="144" class="white"/>
<rect x="0" y="252" width="450" height="108" class="green"/>
</g>
<use xlink:href="#hat" transform="translate(225 180) scale(120 120) rotate(0)" class="black"/>
</g>
</svg>
