<?xml version="1.0"?>
<svg xmlns="http://www.w3.org/2000/svg" xmlns:xlink="http://www.w3.org/1999/xlink" version="1.1" width="450" height="360" viewBox="0 0 450 360">
<!-- Generated by Kreative Vexillo v1.0 -->
<style>
.red{fill:rgb(210,0,0);}
.yellow{fill:rgb(255,230,0);}
</style>
<g>
<rect x="0" y="0" width="450" height="360" class="red"/>
<path d="M 225 180 L 0 0 L 67.5 0 Z" class="yellow"/>
<path d="M 225 180 L 202.5 0 L 247.5 0 Z" class="yellow"/>
<path d="M 225 180 L 382.5 0 L 450 0 Z" class="yellow"/>
<path d="M 225 180 L 450 157.5 L 450 202.5 Z" class="yellow"/>
<path d="M 225 180 L 450 360 L 382.5 360 Z" class="yellow"/>
<path d="M 225 180 L 247.5 360 L 202.5 360 Z" class="yellow"/>
<path d="M 225 180 L 67.5 360 L 0 360 Z" class="yellow"/>
<path d="M 225 180 L 0 202.5 L 0 157.5 Z" class="yellow"/>
<ellipse cx="225" cy="180" rx="64.2857" ry="64.2857" class="red"/>
<ellipse cx="225" cy="180" rx="51.4286" ry="51.4286" class="yellow"/>
</g>
</svg>
