<?xml version="1.0"?>
<svg xmlns="http://www.w3.org/2000/svg" xmlns:xlink="http://www.w3.org/1999/xlink" version="1.1" width="450" height="360" viewBox="0 0 450 360">
<!-- Generated by Kreative Vexillo v1.0 -->
<style>
.blue{fill:rgb(0,102,179);}
.red{fill:rgb(218,32,50);}
.yellow{fill:rgb(255,212,0);}
</style>
<defs>
<path id="soyombo" d="M 0.6375 0.3401 C 0.6375 0.3401 0.6375 0.3412 0.6375 0.3417 C 0.6375 0.39229998 0.57589996 0.43339998 0.5 0.43339998 S 0.3625 0.39239997 0.3625 0.34169996 C 0.3625 0.34169996 0.3625 0.34059995 0.3625 0.34009996 C 0.3857 0.3753 0.4385 0.4 0.5 0.4 S 0.6143 0.3753 0.6375 0.3401 Z M 0.4 0.3167 C 0.4 0.3535 0.44480002 0.38340002 0.5 0.38340002 S 0.6 0.35360003 0.6 0.31670004 S 0.55520004 0.25000006 0.5 0.25000006 S 0.4 0.2798 0.4 0.3167 Z M 0.4531 0.1667 C 0.4531 0.1605 0.4437 0.15210001 0.4625 0.1417 C 0.4531 0.1521 0.4688 0.1542 0.4688 0.1646 S 0.46260002 0.175 0.46260002 0.1834 C 0.46260002 0.18800001 0.46820003 0.19170001 0.4751 0.19170001 S 0.4876 0.18800001 0.4876 0.1834 C 0.4876 0.1751 0.4782 0.17300001 0.4782 0.1605 S 0.49069998 0.1417 0.49069998 0.1313 S 0.48129997 0.104200006 0.50009996 0.1001 C 0.48759997 0.1084 0.50319993 0.1168 0.51259995 0.1272 S 0.52509993 0.1418 0.52509993 0.1543 S 0.51259995 0.1751 0.51259995 0.1835 C 0.51259995 0.18810001 0.5181999 0.19180001 0.52509993 0.19180001 S 0.5375999 0.18810001 0.5375999 0.1835 C 0.5375999 0.1752 0.5313999 0.1752 0.5313999 0.1647 S 0.54699993 0.1522 0.5376999 0.1418 C 0.5564999 0.1522 0.5470999 0.1606 0.5470999 0.1668 S 0.5626999 0.17510001 0.5626999 0.19180001 C 0.5626999 0.21480002 0.5346999 0.23350002 0.5001999 0.23350002 S 0.4376999 0.21480002 0.4376999 0.19180001 C 0.4375 0.175 0.4531 0.1729 0.4531 0.1667 Z M 0.35 0.45 V 0.85 H 0.225 V 0.45 H 0.35 Z M 0.775 0.45 V 0.85 H 0.65 V 0.45 H 0.775 Z M 0.625 0.5167 V 0.55 H 0.375 V 0.5167 H 0.625 Z M 0.625 0.75 V 0.7833 H 0.375 V 0.75 H 0.625 Z M 0.5 0.5 L 0.625 0.45 H 0.375 L 0.5 0.5 Z M 0.5 0.85 L 0.625 0.8 H 0.375 L 0.5 0.85 Z M 0.625 0.65 C 0.625 0.696 0.5689 0.7333 0.5 0.7333 C 0.4676 0.7333 0.4413 0.7157 0.4413 0.69409996 S 0.4677 0.65489995 0.5001 0.65489995 C 0.54080003 0.65489995 0.5739 0.6328 0.5739 0.60569996 C 0.5739 0.59479994 0.5685 0.5846999 0.5595 0.57649994 C 0.5984 0.5908 0.625 0.6184 0.625 0.65 Z M 0.525 0.6942 C 0.525 0.685 0.51379997 0.6775 0.49999997 0.6775 S 0.47499996 0.685 0.47499996 0.69420004 S 0.48619998 0.71090007 0.49999997 0.71090007 S 0.525 0.7034 0.525 0.6942 Z M 0.4263 0.6942 C 0.4263 0.7051 0.4317 0.7152 0.4407 0.7234 C 0.4016 0.7092 0.375 0.6816 0.375 0.65 C 0.375 0.604 0.4311 0.5667 0.5 0.5667 C 0.5324 0.5667 0.5588 0.5843 0.5588 0.6059 S 0.5324 0.6451 0.50009996 0.6451 C 0.4593 0.645 0.4263 0.6671 0.4263 0.6942 Z M 0.475 0.6058 C 0.475 0.61499995 0.4862 0.62249994 0.5 0.62249994 S 0.525 0.61499995 0.525 0.6057999 S 0.51379997 0.5890999 0.49999997 0.5890999 S 0.475 0.5966 0.475 0.6058 Z"/>
</defs>
<g>
<g>
<rect x="0" y="0" width="150" height="360" class="red"/>
<rect x="150" y="0" width="150" height="360" class="blue"/>
<rect x="300" y="0" width="150" height="360" class="red"/>
</g>
<use xlink:href="#soyombo" transform="translate(0 0) scale(150 360) rotate(0)" class="yellow"/>
</g>
</svg>
