<?xml version="1.0"?>
<svg xmlns="http://www.w3.org/2000/svg" xmlns:xlink="http://www.w3.org/1999/xlink" version="1.1" width="450" height="360" viewBox="0 0 450 360">
<!-- Generated by Kreative Vexillo v1.0 -->
<style>
.blue{fill:rgb(0,85,164);}
.green{fill:rgb(0,161,96);}
.red{fill:rgb(238,49,36);}
.white{fill:rgb(255,255,255);}
.yellow{fill:rgb(253,185,51);}
</style>
<defs>
<path id="disc" d="M 0.5 0.0 A 0.5 0.5 0.0 0 0 -0.5 0.0 A 0.5 0.5 0.0 0 0 0.5 0.0 Z"/>
<path id="star12" d="M 0.0 -1.0 L 0.155291 -0.579555 L 0.5 -0.866025 L 0.424264 -0.424264 L 0.866025 -0.5 L 0.579555 -0.155291 L 1.0 -0.0 L 0.579555 0.155291 L 0.866025 0.5 L 0.424264 0.424264 L 0.5 0.866025 L 0.155291 0.579555 L 0.0 1.0 L -0.155291 0.579555 L -0.5 0.866025 L -0.424264 0.424264 L -0.866025 0.5 L -0.579555 0.155291 L -1.0 0.0 L -0.579555 -0.155291 L -0.866025 -0.5 L -0.424264 -0.424264 L -0.5 -0.866025 L -0.155291 -0.579555 Z"/>
<clipPath id="clip0">
<rect x="0" y="0" width="450" height="360"/>
</clipPath>
</defs>
<g>
<rect x="0" y="0" width="450" height="360" class="blue"/>
<path d="M 450 0 L 450 360 L 0 360 Z" class="green"/>
<g clip-path="url(#clip0)">
<path d="M 487.4817 46.8521 L 487.4817 46.8521 L 37.4817 406.8521 L -37.4817 313.1479 L 412.5183 -46.8521 Z" class="white"/>
<path d="M 478.1113 35.1391 L 478.1113 35.1391 L 28.1113 395.1391 L -28.1113 324.8609 L 421.8887 -35.1391 Z" class="red"/>
</g>
<use xlink:href="#star12" transform="translate(100 96) scale(50 50) rotate(0)" class="yellow"/>
<use xlink:href="#disc" transform="translate(100 96) scale(60 60) rotate(0)" class="blue"/>
<use xlink:href="#disc" transform="translate(100 96) scale(50 50) rotate(0)" class="yellow"/>
</g>
</svg>
