<?xml version="1.0"?>
<svg xmlns="http://www.w3.org/2000/svg" xmlns:xlink="http://www.w3.org/1999/xlink" version="1.1" width="450" height="360" viewBox="0 0 450 360">
<!-- Generated by Kreative Vexillo v1.0 -->
<style>
.black{fill:rgb(0,0,0);}
.red{fill:rgb(218,18,26);}
.white{fill:rgb(255,255,255);}
</style>
<defs>
<path id="castle" d="M -0.5089 -0.5 V -0.2692 H -0.399 V 0.34620002 H -0.5089 V 0.5 H 0.5089 V 0.3462 H 0.399 V -0.26920003 H 0.5089 V -0.5 H 0.2418 V -0.2582 H 0.1319 V -0.5 H -0.13180001 V -0.2582 H -0.24170001 V -0.5 H -0.5089 Z M -0.0989 0.1044 H 0.0989 V 0.3462 H -0.0989 V 0.1044 Z"/>
<path id="star" d="M 0.0 -1.0 L 0.2245 -0.309 L 0.9511 -0.309 L 0.3633 0.118 L 0.5878 0.809 L 0.0 0.382 L -0.5878 0.809 L -0.3633 0.118 L -0.9511 -0.309 L -0.2245 -0.309 Z"/>
</defs>
<g>
<g>
<rect x="0" y="0" width="450" height="79.2" class="white"/>
<rect x="0" y="79.2" width="450" height="43.2" class="red"/>
<rect x="0" y="122.4" width="450" height="115.2" class="white"/>
<rect x="0" y="237.6" width="450" height="43.2" class="red"/>
<rect x="0" y="280.8" width="450" height="79.2" class="white"/>
</g>
<use xlink:href="#star" transform="translate(48.15 182.376) scale(23.625 23.625) rotate(0)" class="red"/>
<use xlink:href="#star" transform="translate(94.95 182.376) scale(23.625 23.625) rotate(0)" class="red"/>
<use xlink:href="#star" transform="translate(141.75 182.376) scale(23.625 23.625) rotate(0)" class="red"/>
<use xlink:href="#star" transform="translate(308.25 182.376) scale(23.625 23.625) rotate(0)" class="red"/>
<use xlink:href="#star" transform="translate(355.05 182.376) scale(23.625 23.625) rotate(0)" class="red"/>
<use xlink:href="#star" transform="translate(401.85 182.376) scale(23.625 23.625) rotate(0)" class="red"/>
<use xlink:href="#castle" transform="translate(225 180) scale(81.9 81.9) rotate(0)" class="black"/>
</g>
</svg>
