<?xml version="1.0"?>
<svg xmlns="http://www.w3.org/2000/svg" xmlns:xlink="http://www.w3.org/1999/xlink" version="1.1" width="450" height="360" viewBox="0 0 450 360">
<!-- Generated by Kreative Vexillo v1.0 -->
<style>
.red{fill:rgb(218,18,26);}
.white{fill:rgb(255,255,255);}
</style>
<g>
<g>
<rect x="0" y="0" width="75" height="90" class="red"/>
<rect x="75" y="0" width="75" height="90" class="white"/>
<rect x="150" y="0" width="75" height="90" class="red"/>
<rect x="225" y="0" width="75" height="90" class="white"/>
<rect x="300" y="0" width="75" height="90" class="red"/>
<rect x="375" y="0" width="75" height="90" class="white"/>
</g>
<g>
<rect x="0" y="90" width="75" height="90" class="white"/>
<rect x="75" y="90" width="75" height="90" class="red"/>
<rect x="150" y="90" width="75" height="90" class="white"/>
<rect x="225" y="90" width="75" height="90" class="red"/>
<rect x="300" y="90" width="75" height="90" class="white"/>
<rect x="375" y="90" width="75" height="90" class="red"/>
</g>
<g>
<rect x="0" y="180" width="75" height="90" class="red"/>
<rect x="75" y="180" width="75" height="90" class="white"/>
<rect x="150" y="180" width="75" height="90" class="red"/>
<rect x="225" y="180" width="75" height="90" class="white"/>
<rect x="300" y="180" width="75" height="90" class="red"/>
<rect x="375" y="180" width="75" height="90" class="white"/>
</g>
<g>
<rect x="0" y="270" width="75" height="90" class="white"/>
<rect x="75" y="270" width="75" height="90" class="red"/>
<rect x="150" y="270" width="75" height="90" class="white"/>
<rect x="225" y="270" width="75" height="90" class="red"/>
<rect x="300" y="270" width="75" height="90" class="white"/>
<rect x="375" y="270" width="75" height="90" class="red"/>
</g>
</g>
</svg>
