<?xml version="1.0"?>
<svg xmlns="http://www.w3.org/2000/svg" xmlns:xlink="http://www.w3.org/1999/xlink" version="1.1" width="450" height="360" viewBox="0 0 450 360">
<!-- Generated by Kreative Vexillo v1.0 -->
<style>
.blue{fill:rgb(0,36,125);}
.red{fill:rgb(207,20,43);}
.white{fill:rgb(255,255,255);}
.yellow{fill:rgb(252,209,22);}
</style>
<defs>
<path id="star" d="M 0.0 -1.0 L 0.2245 -0.309 L 0.9511 -0.309 L 0.3633 0.118 L 0.5878 0.809 L 0.0 0.382 L -0.5878 0.809 L -0.3633 0.118 L -0.9511 -0.309 L -0.2245 -0.309 Z"/>
<clipPath id="clip0">
<path d="M 0 0 L 0 15.3675 L 93.2906 90 L 93.2906 90 L 0 164.6325 L 0 164.6325 L 0 180 L 19.2094 180 L 112.5 105.3675 L 112.5 105.3675 L 205.7906 180 L 225 180 L 225 164.6325 L 131.7094 90 L 225 15.3675 L 225 0 L 205.7906 0 L 112.5 74.6325 L 112.5 74.6325 L 19.2094 0 Z"/>
</clipPath>
</defs>
<g>
<rect x="0" y="0" width="450" height="360" class="yellow"/>
<g>
<rect x="0" y="0" width="225" height="180" class="blue"/>
<path d="M 0 0 L 0 23.0512 L 83.6859 90 L 0 156.9488 L 0 156.9488 L 0 180 L 28.8141 180 L 112.5 113.0512 L 112.5 113.0512 L 196.1859 180 L 225 180 L 225 156.9488 L 141.3141 90 L 225 23.0512 L 225 0 L 196.1859 0 L 112.5 66.9488 L 112.5 66.9488 L 28.8141 0 Z" class="white"/>
<g clip-path="url(#clip0)">
<path d="M 0 0 L 112.5 90 L 0 90 Z" class="red"/>
<path d="M 225 0 L 112.5 90 L 112.5 0 Z" class="red"/>
<path d="M 0 180 L 112.5 90 L 112.5 180 Z" class="red"/>
<path d="M 225 180 L 112.5 90 L 225 90 Z" class="red"/>
</g>
<g>
<rect x="0" y="60" width="225" height="60" class="white"/>
<rect x="82.5" y="0" width="60" height="180" class="white"/>
</g>
<g>
<rect x="0" y="72" width="225" height="36" class="red"/>
<rect x="94.5" y="0" width="36" height="180" class="red"/>
</g>
</g>
<g>
<ellipse cx="112.5" cy="90" rx="30" ry="30" class="blue"/>
<use xlink:href="#star" transform="translate(112.5 90) scale(30 30) rotate(0)" class="yellow"/>
<use xlink:href="#star" transform="translate(41.25 91.062) scale(18 18) rotate(0)" class="yellow"/>
<use xlink:href="#star" transform="translate(183.75 91.062) scale(18 18) rotate(0)" class="yellow"/>
<use xlink:href="#star" transform="translate(112.5 31.062) scale(18 18) rotate(0)" class="yellow"/>
<use xlink:href="#star" transform="translate(112.5 151.062) scale(18 18) rotate(0)" class="yellow"/>
</g>
</g>
</svg>
