<?xml version="1.0"?>
<svg xmlns="http://www.w3.org/2000/svg" xmlns:xlink="http://www.w3.org/1999/xlink" version="1.1" width="450" height="360" viewBox="0 0 450 360">
<!-- Generated by Kreative Vexillo v1.0 -->
<style>
.blue{fill:rgb(0,121,193);}
.green{fill:rgb(0,169,79);}
.white{fill:rgb(255,255,255);}
.yellow{fill:rgb(255,196,37);}
</style>
<defs>
<path id="star" d="M 0.0 -1.0 L 0.2245 -0.309 L 0.9511 -0.309 L 0.3633 0.118 L 0.5878 0.809 L 0.0 0.382 L -0.5878 0.809 L -0.3633 0.118 L -0.9511 -0.309 L -0.2245 -0.309 Z"/>
<clipPath id="clip0">
<rect x="0" y="0" width="450" height="360"/>
</clipPath>
</defs>
<g>
<path d="M 0 0 L 450 0 L 0 360 Z" class="blue"/>
<path d="M 450 0 L 450 360 L 0 360 Z" class="green"/>
<g clip-path="url(#clip0)">
<path d="M 440.6271 -11.7111 L -9.3729 348.2889 L 9.3729 371.7111 L 459.3729 11.7111 L 440.6271 -11.7111 Z" class="yellow"/>
</g>
<use xlink:href="#star" transform="translate(33.75 49.5) scale(30 30) rotate(0)" class="white"/>
<use xlink:href="#star" transform="translate(123.75 49.5) scale(30 30) rotate(0)" class="white"/>
<use xlink:href="#star" transform="translate(78.75 110.7) scale(30 30) rotate(0)" class="white"/>
<use xlink:href="#star" transform="translate(33.75 171.9) scale(30 30) rotate(0)" class="white"/>
<use xlink:href="#star" transform="translate(123.75 171.9) scale(30 30) rotate(0)" class="white"/>
</g>
</svg>
