<?xml version="1.0"?>
<svg xmlns="http://www.w3.org/2000/svg" xmlns:xlink="http://www.w3.org/1999/xlink" version="1.1" width="450" height="360" viewBox="0 0 450 360">
<!-- Generated by Kreative Vexillo v1.0 -->
<style>
.blue{fill:rgb(25,57,138);}
.red{fill:rgb(238,49,36);}
.white{fill:rgb(255,255,255);}
</style>
<defs>
<path id="ray" d="M -0.266667 0.0 L 0.0 -1.0 L 0.266667 0.0 Z"/>
</defs>
<g>
<rect x="0" y="0" width="450" height="360" class="red"/>
<rect x="0" y="0" width="225" height="180" class="blue"/>
<g>
<use xlink:href="#ray" transform="translate(112.5 90) scale(67.5 67.5) rotate(0)" class="white"/>
<use xlink:href="#ray" transform="translate(112.5 90) scale(67.5 67.5) rotate(30)" class="white"/>
<use xlink:href="#ray" transform="translate(112.5 90) scale(67.5 67.5) rotate(60)" class="white"/>
<use xlink:href="#ray" transform="translate(112.5 90) scale(67.5 67.5) rotate(90)" class="white"/>
<use xlink:href="#ray" transform="translate(112.5 90) scale(67.5 67.5) rotate(120)" class="white"/>
<use xlink:href="#ray" transform="translate(112.5 90) scale(67.5 67.5) rotate(150)" class="white"/>
<use xlink:href="#ray" transform="translate(112.5 90) scale(67.5 67.5) rotate(180)" class="white"/>
<use xlink:href="#ray" transform="translate(112.5 90) scale(67.5 67.5) rotate(210)" class="white"/>
<use xlink:href="#ray" transform="translate(112.5 90) scale(67.5 67.5) rotate(240)" class="white"/>
<use xlink:href="#ray" transform="translate(112.5 90) scale(67.5 67.5) rotate(270)" class="white"/>
<use xlink:href="#ray" transform="translate(112.5 90) scale(67.5 67.5) rotate(300)" class="white"/>
<use xlink:href="#ray" transform="translate(112.5 90) scale(67.5 67.5) rotate(330)" class="white"/>
</g>
<ellipse cx="112.5" cy="90" rx="38.2301" ry="38.2301" class="blue"/>
<ellipse cx="112.5" cy="90" rx="34.0487" ry="34.0487" class="white"/>
</g>
</svg>
