<?xml version="1.0"?>
<svg xmlns="http://www.w3.org/2000/svg" xmlns:xlink="http://www.w3.org/1999/xlink" version="1.1" width="450" height="360" viewBox="0 0 450 360">
<!-- Generated by Kreative Vexillo v1.0 -->
<style>
.purple{fill:rgb(102,0,51);}
.white{fill:rgb(255,255,255);}
</style>
<defs>
<path id="phoenix" d="M 0.0909 -0.413 C 0.3226 -0.36949998 0.4336 -0.21429999 0.4336 6.0001016E-4 C 0.4336 0.21550001 0.23940001 0.43420002 0.0 0.43420002 C -0.0888 0.43420002 -0.1714 0.40750003 -0.2401 0.3616 C -0.134 0.4088 -0.0082999915 0.40960002 0.103300005 0.3529 C 0.1307 0.339 0.1558 0.3223 0.1785 0.3034 C 0.1652 0.3123 0.1513 0.3206 0.13659999 0.328 C -0.059000015 0.4274 -0.2982 0.3495 -0.39770004 0.15390001 C -0.40970004 0.13030002 -0.41910005 0.10610001 -0.42600003 0.08150001 C -0.43100002 0.05530001 -0.43360004 0.028200008 -0.43360004 6.0001016E-4 C -0.43360004 -0.04349999 -0.42700005 -0.08599999 -0.41480005 -0.12609999 C -0.40740004 -0.03909999 -0.36820006 0.04540001 -0.29810005 0.10840002 C -0.27770007 0.12670001 -0.25580007 0.14230001 -0.23280005 0.15500002 C -0.24450006 0.14680001 -0.21120006 0.17790002 -0.26670006 0.12810001 C -0.32220006 0.07820001 -0.40950006 -0.0975 -0.37440005 -0.2182 C -0.36750004 -0.2418 -0.35100004 -0.2655 -0.33200005 -0.2783 C -0.36580005 -0.17539999 -0.32460004 -0.07279998 -0.21580005 -0.021099985 C -0.19530004 -0.0112999845 -0.17350005 -0.003899984 -0.15080005 0.0013000146 V 3.000145E-4 C -0.14280005 0.0025000144 -0.13440005 0.0036000144 -0.12580004 0.0036000144 C -0.07340004 0.0036000144 -0.030900046 -0.038899988 -0.030900046 -0.09129998 S -0.0733 -0.1862 -0.1257 -0.1862 C -0.1594 -0.1862 -0.1891 -0.1686 -0.2059 -0.14209999 C -0.2059 -0.1432 -0.206 -0.14439999 -0.206 -0.14559999 C -0.206 -0.21019998 -0.1505 -0.2626 -0.082 -0.2626 C -0.039800003 -0.4174 0.12709999 -0.197 0.20670001 -0.1975 C 0.19520001 -0.19350001 0.19080001 -0.1901 0.17610002 -0.18020001 C 0.16140002 -0.17040001 0.17070001 -0.10160001 0.17690001 -0.041700006 C 0.18310001 0.018099993 0.15050001 0.035799995 0.13740002 0.07429999 C 0.3139 -0.025400005 0.30490002 -0.2134 0.15600002 -0.3378 C 0.2585 -0.2941 0.3072 -0.1986 0.33810002 -0.09089999 C 0.34100002 -0.218 0.3086 -0.29729998 0.13600002 -0.3918 L 0.0909 -0.413 L 0.0909 -0.413 Z M -0.0327 -0.2668 L 0.0165 -0.24909998 L -0.0196 -0.28469998 L -0.0196 -0.28469998 C -0.0197 -0.28479996 -0.0198 -0.28489998 -0.0199 -0.28489998 C -0.0223 -0.28679997 -0.0273 -0.28429997 -0.0311 -0.2794 C -0.0349 -0.27449998 -0.0359 -0.26909998 -0.0335 -0.2672 C -0.0333 -0.267 -0.033 -0.2669 -0.0327 -0.2668 L -0.0327 -0.2668 L -0.0327 -0.2668 Z M -0.1009 -0.4115 C -0.1304 -0.397 -0.2453 -0.32770002 -0.2601 -0.2115 C -0.27150002 -0.1221 -0.1966 -0.04460001 -0.10730001 -0.01470001 C -0.21990001 -0.01790001 -0.30740002 -0.10440001 -0.3075 -0.21310002 C -0.3075 -0.3217 -0.1968 -0.4115 -0.1009 -0.4115 Z"/>
</defs>
<g>
<rect x="0" y="0" width="450" height="360" class="purple"/>
<use xlink:href="#phoenix" transform="translate(225 180) scale(240 240) rotate(0)" class="white"/>
</g>
</svg>
