<?xml version="1.0"?>
<svg xmlns="http://www.w3.org/2000/svg" xmlns:xlink="http://www.w3.org/1999/xlink" version="1.1" width="450" height="360" viewBox="0 0 450 360">
<!-- Generated by Kreative Vexillo v1.0 -->
<style>
.blue{fill:rgb(75,146,219);}
.green{fill:rgb(0,105,60);}
.white{fill:rgb(255,255,255);}
.yellow{fill:rgb(255,182,18);}
</style>
<defs>
<clipPath id="clip0">
<rect x="145" y="135" width="90" height="90"/>
</clipPath>
</defs>
<g>
<rect x="0" y="0" width="450" height="360" class="green"/>
<path d="M 0 145 L 105 145 L 105 0 L 225 0 L 225 95 L 450 95 L 450 215 L 275 215 L 275 360 L 155 360 L 155 265 L 0 265 Z" class="white"/>
<path d="M 0 155 L 115 155 L 115 0 L 215 0 L 215 105 L 450 105 L 450 205 L 265 205 L 265 360 L 165 360 L 165 255 L 0 255 Z" class="yellow"/>
<path d="M 0 175 L 135 175 L 135 0 L 195 0 L 195 125 L 450 125 L 450 185 L 245 185 L 245 360 L 185 360 L 185 235 L 0 235 Z" class="white"/>
<path d="M 0 185 L 145 185 L 185 225 L 0 225 Z" class="blue"/>
<path d="M 145 0 L 185 0 L 185 135 L 145 175 Z" class="blue"/>
<path d="M 450 135 L 450 175 L 235 175 L 195 135 Z" class="blue"/>
<path d="M 195 360 L 195 225 L 235 185 L 235 360 Z" class="blue"/>
<g clip-path="url(#clip0)">
<ellipse cx="145" cy="135" rx="40" ry="40" class="blue"/>
<ellipse cx="235" cy="135" rx="40" ry="40" class="blue"/>
<ellipse cx="145" cy="225" rx="40" ry="40" class="blue"/>
<ellipse cx="235" cy="225" rx="40" ry="40" class="blue"/>
</g>
</g>
</svg>
