<?xml version="1.0"?>
<svg xmlns="http://www.w3.org/2000/svg" xmlns:xlink="http://www.w3.org/1999/xlink" version="1.1" width="450" height="360" viewBox="0 0 450 360">
<!-- Generated by Kreative Vexillo v1.0 -->
<style>
.blue{fill:rgb(0,45,101);}
.red{fill:rgb(204,0,0);}
.white{fill:rgb(255,255,255);}
</style>
<defs>
<path id="disc" d="M 0.5 0.0 A 0.5 0.5 0.0 0 0 -0.5 0.0 A 0.5 0.5 0.0 0 0 0.5 0.0 Z"/>
<path id="star" d="M 0.0 -1.0 L 0.2245 -0.309 L 0.9511 -0.309 L 0.3633 0.118 L 0.5878 0.809 L 0.0 0.382 L -0.5878 0.809 L -0.3633 0.118 L -0.9511 -0.309 L -0.2245 -0.309 Z"/>
</defs>
<g>
<rect x="0" y="0" width="450" height="360" class="red"/>
<rect x="405" y="0" width="45" height="360" class="white"/>
<rect x="412.5" y="0" width="37.5" height="360" class="blue"/>
<use xlink:href="#disc" transform="translate(202.5 180) scale(195 195) rotate(0)" class="white"/>
<use xlink:href="#disc" transform="translate(202.5 180) scale(180 180) rotate(0)" class="blue"/>
<use xlink:href="#star" transform="translate(188.5942 222.7975) scale(42 42) rotate(18)" class="white"/>
<use xlink:href="#star" transform="translate(172.3891 146.5585) scale(42 42) rotate(138)" class="white"/>
<use xlink:href="#star" transform="translate(246.5166 170.644) scale(42 42) rotate(258)" class="white"/>
</g>
</svg>
