<?xml version="1.0"?>
<svg xmlns="http://www.w3.org/2000/svg" xmlns:xlink="http://www.w3.org/1999/xlink" version="1.1" width="450" height="360" viewBox="0 0 450 360">
<!-- Generated by Kreative Vexillo v1.0 -->
<style>
.blue{fill:rgb(0,85,164);}
.red{fill:rgb(250,60,50);}
.white{fill:rgb(255,255,255);}
</style>
<g>
<rect x="0" y="0" width="450" height="360" class="red"/>
<rect x="0" y="0" width="217.8" height="145.8" class="white"/>
<g>
<rect x="0" y="0" width="71.4" height="142.2" class="blue"/>
<rect x="71.4" y="0" width="71.4" height="142.2" class="white"/>
<rect x="142.8" y="0" width="71.4" height="142.2" class="red"/>
</g>
<rect x="291.4" y="138.4" width="83.2" height="83.2" class="white"/>
<path d="M 283.6 130.6 L 283.6 141.6309 L 321.9691 180 L 321.9691 180 L 283.6 218.3691 L 283.6 229.4 L 294.6309 229.4 L 333 191.0309 L 371.3691 229.4 L 382.4 229.4 L 382.4 218.3691 L 344.0309 180 L 344.0309 180 L 382.4 141.6309 L 382.4 130.6 L 371.3691 130.6 L 333 168.9691 L 294.6309 130.6 Z" class="red"/>
</g>
</svg>
