<?xml version="1.0"?>
<svg xmlns="http://www.w3.org/2000/svg" xmlns:xlink="http://www.w3.org/1999/xlink" version="1.1" width="450" height="360" viewBox="0 0 450 360">
<!-- Generated by Kreative Vexillo v1.0 -->
<style>
.blue{fill:rgb(17,17,154);}
.ltblue{fill:rgb(200,225,237);}
.yellow{fill:rgb(255,255,119);}
</style>
<defs>
<path id="e1" d="M -0.0096 -0.3706 C -0.0138 -0.3702 -0.0189 -0.3669 -0.0249 -0.3609 C -0.037 -0.3488 -0.0388 -0.2519 -0.0275 -0.2337 C -0.0232 -0.2268 -0.0137 -0.2242 -0.0059 -0.2268 C 0.0045 -0.2311 0.0079 -0.245 0.0079 -0.2882 C 0.0079 -0.346 0.0031 -0.3716 -0.0096 -0.3706 Z M 0.2054 -0.3467 C 0.1928 -0.3471 0.1764 -0.3325 0.1645 -0.3064 C 0.1411 -0.2571 0.1368 -0.213 0.1558 -0.2086 C 0.1714 -0.206 0.2285 -0.3142 0.2207 -0.3332 C 0.2174 -0.3421 0.2119 -0.3464 0.2054 -0.3467 Z M -0.2351 -0.3367 C -0.2446 -0.3367 -0.2541 -0.3315 -0.2567 -0.3254 C -0.2636 -0.3064 -0.2057 -0.1888 -0.191 -0.1922 C -0.1581 -0.1983 -0.2005 -0.3367 -0.2351 -0.3367 Z M -0.0029 -0.1521 C -0.0232 -0.1517 -0.0444 -0.1498 -0.0664 -0.1464 C -0.1097 -0.1403 -0.1772 -0.1014 -0.2178 -0.0599 C -0.3026 0.0266 -0.274 0.2394 -0.1685 0.306 C -0.114 0.3406 -0.076 0.3492 0.0045 0.3441 C 0.1126 0.338 0.1878 0.2904 0.2423 0.1953 C 0.2882 0.1157 0.27 0.005 0.1982 -0.0789 C 0.1547 -0.1288 0.0848 -0.1541 -0.0029 -0.1521 Z"/>
<path id="e2" d="M 0.0225 -0.1124 C -0.0426 -0.112500004 -0.109299995 -0.0912 -0.15900001 -0.052100003 C -0.21350001 -0.010600004 -0.22910002 0.020599999 -0.2299 0.0872 C -0.2299 0.15900001 -0.2195 0.1936 -0.1858 0.2386 C -0.1218 0.3216 -6.9999695E-4 0.3355 0.11780001 0.2741 C 0.1481 0.2593 0.2 0.2031 0.219 0.1659 C 0.2389 0.1287 0.2372 0.0431 0.2164 0.0015 C 0.1939 -0.0417 0.1377 -0.091 0.097 -0.1023 C 0.0732 -0.1091 0.048 -0.1124 0.0225 -0.1124 Z M 0.1288 0.0381 C 0.1439 0.0391 0.1561 0.0655 0.1463 0.0915 C 0.1048 0.2005 0.0053 0.248 -0.0716 0.1944 C -0.1088 0.1685 -0.159 0.0949 -0.1547 0.0725 C -0.1495 0.0431 -0.1236 0.049999997 -0.105399996 0.0846 C -0.085499994 0.124400005 -0.055199996 0.1598 -0.029299997 0.1728 C 0.008800004 0.1918 0.0771 0.146 0.095300004 0.08800001 C 0.1005 0.070700005 0.10910001 0.052500006 0.11350001 0.04650001 C 0.11850001 0.04020001 0.12380001 0.03770001 0.1289 0.038100008 Z"/>
</defs>
<g>
<rect x="0" y="0" width="450" height="360" class="ltblue"/>
<use xlink:href="#e1" transform="translate(225 180) scale(360 360) rotate(0)" class="blue"/>
<use xlink:href="#e2" transform="translate(225 180) scale(360 360) rotate(0)" class="yellow"/>
</g>
</svg>
