<?xml version="1.0"?>
<svg xmlns="http://www.w3.org/2000/svg" xmlns:xlink="http://www.w3.org/1999/xlink" version="1.1" width="450" height="360" viewBox="0 0 450 360">
<!-- Generated by Kreative Vexillo v1.0 -->
<style>
.blue{fill:rgb(0,0,255);}
.red{fill:rgb(255,0,0);}
.white{fill:rgb(255,255,255);}
</style>
<defs>
<path id="arrow" d="M 0.0 0.0 L 0.5 1.0 L 0.0 0.8 L -0.5 1.0 Z"/>
<path id="ring" d="M 0.5 0.0 A 0.5 0.5 0.0 0 0 -0.5 0.0 A 0.5 0.5 0.0 0 0 0.5 0.0 Z M 0.416667 0.0 A 0.416667 0.416667 0.0 0 1 -0.416667 0.0 A 0.416667 0.416667 0.0 0 1 0.416667 0.0 Z"/>
</defs>
<g>
<rect x="0" y="0" width="450" height="360" class="white"/>
<use xlink:href="#ring" transform="translate(167.8275 180) scale(196.02 196.02) rotate(0)" class="blue"/>
<use xlink:href="#ring" transform="translate(282.1725 180) scale(196.02 196.02) rotate(0)" class="blue"/>
<g>
<rect x="42.6769" y="171.8325" width="364.6463" height="16.335" class="red"/>
<rect x="216.8325" y="36.2025" width="16.335" height="287.595" class="red"/>
</g>
<use xlink:href="#arrow" transform="translate(225 11.7) scale(49.005 36.7538) rotate(0)" class="red"/>
<use xlink:href="#arrow" transform="translate(225 348.3) scale(49.005 36.7538) rotate(180)" class="red"/>
<use xlink:href="#arrow" transform="translate(24.3 180) scale(36.7538 49.005) rotate(270)" class="red"/>
<use xlink:href="#arrow" transform="translate(425.7 180) scale(36.7538 49.005) rotate(90)" class="red"/>
</g>
</svg>
