<?xml version="1.0"?>
<svg xmlns="http://www.w3.org/2000/svg" xmlns:xlink="http://www.w3.org/1999/xlink" version="1.1" width="450" height="360" viewBox="0 0 450 360">
<!-- Generated by Kreative Vexillo v1.0 -->
<style>
.blue{fill:rgb(0,179,255);}
.yellow{fill:rgb(255,222,0);}
</style>
<defs>
<path id="allyssa" d="M 1.15 1.0 C 0.99652 1.0 0.89013994 0.91214 0.81641996 0.78984 C 0.7801 0.79612 0.74106 0.8 0.7 0.8 C 0.65709 0.8 0.62002 0.7938 0.58706 0.78401 C 0.51321 0.90937 0.40592 1.0 0.25 1.0 C 0.1028 1.0 0.0 0.90748 0.0 0.775 S 0.1028 0.55 0.25 0.55 C 0.36385 0.55 0.43657 0.59363 0.50072 0.63213 C 0.51437 0.64031005 0.52760005 0.64825004 0.54090005 0.65565 C 0.6479 0.40646 0.65 0.05546 0.65 0.04999 C 0.65 0.04999 0.65 0.04998 0.65 0.049969997 C 0.65002 0.02237 0.6724 0.0 0.7 0.0 C 0.7276 0.0 0.74998 0.02237 0.75 0.04997 C 0.75 0.04997 0.75 0.04998 0.75 0.049990002 C 0.75 0.05561 0.7522 0.42538 0.86786 0.67531 C 0.96082 0.64837 1.02144 0.60894 1.0223501 0.60835004 C 1.0453701 0.59315 1.07638 0.59942 1.0916201 0.62240005 C 1.1068501 0.64537007 1.1006701 0.6763201 1.0777301 0.69161004 C 1.07368 0.69432 1.0131401 0.73406005 0.91826004 0.76465005 C 0.97457 0.84573 1.04973 0.9 1.15 0.9 C 1.1776199 0.9 1.1999999 0.92238 1.1999999 0.95 S 1.17762 1.0 1.15 1.0 Z M 0.25 0.65 C 0.15748 0.65 0.099999994 0.6979 0.099999994 0.775 S 0.15748 0.9 0.25 0.9 C 0.35837 0.9 0.43739 0.83663 0.495 0.74448997 C 0.47905 0.73573995 0.46394 0.72666997 0.44927 0.71787 C 0.38857 0.68146 0.33615 0.65 0.25 0.65 Z M 0.63286 0.69278 C 0.6531 0.69738 0.67515 0.7 0.7 0.7 C 0.72359 0.7 0.74647 0.69847 0.76844 0.69579 C 0.73886 0.6274 0.71665 0.55355 0.7 0.48106 C 0.68359 0.55251 0.66181 0.62522 0.63286 0.69278 Z"/>
<path id="star" d="M 0.0 -1.0 L 0.2245 -0.309 L 0.9511 -0.309 L 0.3633 0.118 L 0.5878 0.809 L 0.0 0.382 L -0.5878 0.809 L -0.3633 0.118 L -0.9511 -0.309 L -0.2245 -0.309 Z"/>
</defs>
<g>
<rect x="0" y="0" width="450" height="360" class="blue"/>
<use xlink:href="#allyssa" transform="translate(50 150) scale(150 150) rotate(0)" class="yellow"/>
<use xlink:href="#star" transform="translate(210 210) scale(30 30) rotate(0)" class="yellow"/>
</g>
</svg>
