<?xml version="1.0"?>
<svg xmlns="http://www.w3.org/2000/svg" xmlns:xlink="http://www.w3.org/1999/xlink" version="1.1" width="450" height="360" viewBox="0 0 450 360">
<!-- Generated by Kreative Vexillo v1.0 -->
<style>
.black{fill:rgb(19,19,19);}
.blue{fill:rgb(0,0,191);}
.cyan{fill:rgb(0,191,191);}
.green{fill:rgb(0,191,0);}
.i{fill:rgb(0,31,77);}
.magenta{fill:rgb(191,0,191);}
.pluge{fill:rgb(29,29,29);}
.q{fill:rgb(51,0,107);}
.red{fill:rgb(191,0,0);}
.superblack{fill:rgb(9,9,9);}
.superwhite{fill:rgb(255,255,255);}
.white{fill:rgb(191,191,191);}
.yellow{fill:rgb(191,191,0);}
</style>
<g>
<rect x="0" y="0" width="450" height="360" class="black"/>
<g>
<rect x="0" y="0" width="64.2857" height="240" class="white"/>
<rect x="64.2857" y="0" width="64.2857" height="240" class="yellow"/>
<rect x="128.5714" y="0" width="64.2857" height="240" class="cyan"/>
<rect x="192.8571" y="0" width="64.2857" height="240" class="green"/>
<rect x="257.1429" y="0" width="64.2857" height="240" class="magenta"/>
<rect x="321.4286" y="0" width="64.2857" height="240" class="red"/>
<rect x="385.7143" y="0" width="64.2857" height="240" class="blue"/>
</g>
<g>
<rect x="0" y="240" width="64.2857" height="30" class="blue"/>
<rect x="64.2857" y="240" width="64.2857" height="30" class="black"/>
<rect x="128.5714" y="240" width="64.2857" height="30" class="magenta"/>
<rect x="192.8571" y="240" width="64.2857" height="30" class="black"/>
<rect x="257.1429" y="240" width="64.2857" height="30" class="cyan"/>
<rect x="321.4286" y="240" width="64.2857" height="30" class="black"/>
<rect x="385.7143" y="240" width="64.2857" height="30" class="white"/>
</g>
<g>
<rect x="0" y="270" width="80.3571" height="90" class="i"/>
<rect x="80.3571" y="270" width="80.3571" height="90" class="superwhite"/>
<rect x="160.7143" y="270" width="80.3571" height="90" class="q"/>
<rect x="241.0714" y="270" width="80.3571" height="90" class="black"/>
</g>
<g>
<rect x="321.4286" y="270" width="21.4286" height="90" class="superblack"/>
<rect x="342.8571" y="270" width="21.4286" height="90" class="black"/>
<rect x="364.2857" y="270" width="21.4286" height="90" class="pluge"/>
</g>
</g>
</svg>
