<?xml version="1.0"?>
<svg xmlns="http://www.w3.org/2000/svg" xmlns:xlink="http://www.w3.org/1999/xlink" version="1.1" width="450" height="360" viewBox="0 0 450 360">
<!-- Generated by Kreative Vexillo v1.0 -->
<style>
.black{fill:rgb(0,0,0);}
.blue{fill:rgb(0,0,255);}
.green{fill:rgb(0,153,0);}
.orange{fill:rgb(255,153,0);}
.purple{fill:rgb(153,0,153);}
.red{fill:rgb(255,0,0);}
.white{fill:rgb(255,255,255);}
.yellow{fill:rgb(255,255,0);}
</style>
<defs>
<clipPath id="clip0">
<path d="M 0 0 L 225 180 L 0 360 Z"/>
</clipPath>
<clipPath id="clip1">
<path d="M 0 0 L 450 0 L 450 360 L 0 360 L 225 180 Z"/>
</clipPath>
<clipPath id="clip2">
<rect x="0" y="0" width="450" height="360"/>
</clipPath>
<clipPath id="clip3">
<path d="M -22.4949 28.1065 L 202.5051 208.1065 L 247.4949 151.8935 L 22.4949 -28.1065 L -22.4949 28.1065 Z"/>
<path d="M 202.5051 151.8935 L -22.4949 331.8935 L 22.4949 388.1065 L 247.4949 208.1065 L 202.5051 151.8935 Z"/>
<path d="M 225 216 L 450 216 L 450 144 L 225 144 L 225 216 Z"/>
</clipPath>
</defs>
<g>
<g>
<rect x="0" y="0" width="450" height="60" class="red"/>
<rect x="0" y="60" width="450" height="60" class="orange"/>
<rect x="0" y="120" width="450" height="60" class="yellow"/>
<rect x="0" y="180" width="450" height="60" class="green"/>
<rect x="0" y="240" width="450" height="60" class="blue"/>
<rect x="0" y="300" width="450" height="60" class="purple"/>
</g>
<g clip-path="url(#clip0)">
<path d="M -37.4916 46.8442 L 187.5084 226.8442 L 262.4916 133.1558 L 37.4916 -46.8442 L -37.4916 46.8442 Z" class="black"/>
<path d="M 187.5084 133.1558 L -37.4916 313.1558 L 37.4916 406.8442 L 262.4916 226.8442 L 187.5084 133.1558 Z" class="black"/>
</g>
<g clip-path="url(#clip1)">
<path d="M -37.4916 46.8442 L 187.5084 226.8442 L 262.4916 133.1558 L 37.4916 -46.8442 L -37.4916 46.8442 Z" class="white"/>
<path d="M 187.5084 133.1558 L -37.4916 313.1558 L 37.4916 406.8442 L 262.4916 226.8442 L 187.5084 133.1558 Z" class="white"/>
<path d="M 225 240 L 450 240 L 450 120 L 225 120 L 225 240 Z" class="white"/>
</g>
<g clip-path="url(#clip2)">
<g clip-path="url(#clip3)">
<g>
<rect x="0" y="0" width="450" height="60" class="red"/>
<rect x="0" y="60" width="450" height="60" class="orange"/>
<rect x="0" y="120" width="450" height="60" class="yellow"/>
<rect x="0" y="180" width="450" height="60" class="green"/>
<rect x="0" y="240" width="450" height="60" class="blue"/>
<rect x="0" y="300" width="450" height="60" class="purple"/>
</g>
</g>
</g>
</g>
</svg>
