<?xml version="1.0"?>
<svg xmlns="http://www.w3.org/2000/svg" xmlns:xlink="http://www.w3.org/1999/xlink" version="1.1" width="450" height="360" viewBox="0 0 450 360">
<!-- Generated by Kreative Vexillo v1.0 -->
<style>
.blue{fill:rgb(0,0,255);}
.green{fill:rgb(0,153,0);}
.orange{fill:rgb(255,153,0);}
.purple{fill:rgb(153,0,153);}
.red{fill:rgb(255,0,0);}
.twblue{fill:rgb(25,57,138);}
.twwhite{fill:rgb(255,255,255);}
.yellow{fill:rgb(255,255,0);}
</style>
<defs>
<path id="ray" d="M -0.266667 0.0 L 0.0 -1.0 L 0.266667 0.0 Z"/>
</defs>
<g>
<g>
<rect x="0" y="0" width="450" height="60" class="red"/>
<rect x="0" y="60" width="450" height="60" class="orange"/>
<rect x="0" y="120" width="450" height="60" class="yellow"/>
<rect x="0" y="180" width="450" height="60" class="green"/>
<rect x="0" y="240" width="450" height="60" class="blue"/>
<rect x="0" y="300" width="450" height="60" class="purple"/>
</g>
<rect x="0" y="0" width="225" height="180" class="twblue"/>
<g>
<use xlink:href="#ray" transform="translate(112.5 90) scale(67.5 67.5) rotate(0)" class="twwhite"/>
<use xlink:href="#ray" transform="translate(112.5 90) scale(67.5 67.5) rotate(30)" class="twwhite"/>
<use xlink:href="#ray" transform="translate(112.5 90) scale(67.5 67.5) rotate(60)" class="twwhite"/>
<use xlink:href="#ray" transform="translate(112.5 90) scale(67.5 67.5) rotate(90)" class="twwhite"/>
<use xlink:href="#ray" transform="translate(112.5 90) scale(67.5 67.5) rotate(120)" class="twwhite"/>
<use xlink:href="#ray" transform="translate(112.5 90) scale(67.5 67.5) rotate(150)" class="twwhite"/>
<use xlink:href="#ray" transform="translate(112.5 90) scale(67.5 67.5) rotate(180)" class="twwhite"/>
<use xlink:href="#ray" transform="translate(112.5 90) scale(67.5 67.5) rotate(210)" class="twwhite"/>
<use xlink:href="#ray" transform="translate(112.5 90) scale(67.5 67.5) rotate(240)" class="twwhite"/>
<use xlink:href="#ray" transform="translate(112.5 90) scale(67.5 67.5) rotate(270)" class="twwhite"/>
<use xlink:href="#ray" transform="translate(112.5 90) scale(67.5 67.5) rotate(300)" class="twwhite"/>
<use xlink:href="#ray" transform="translate(112.5 90) scale(67.5 67.5) rotate(330)" class="twwhite"/>
</g>
<ellipse cx="112.5" cy="90" rx="38.2301" ry="38.2301" class="twblue"/>
<ellipse cx="112.5" cy="90" rx="34.0487" ry="34.0487" class="twwhite"/>
</g>
</svg>
