<?xml version="1.0"?>
<svg xmlns="http://www.w3.org/2000/svg" xmlns:xlink="http://www.w3.org/1999/xlink" version="1.1" width="450" height="360" viewBox="0 0 450 360">
<!-- Generated by Kreative Vexillo v1.0 -->
<style>
.black{fill:rgb(0,0,0);}
.brown{fill:rgb(98,56,4);}
.gray{fill:rgb(85,85,85);}
.orange{fill:rgb(213,99,0);}
.tan{fill:rgb(254,230,184);}
.white{fill:rgb(255,255,255);}
.yellow{fill:rgb(254,221,99);}
</style>
<defs>
<path id="paw" d="M 0.484804 0.119608 C 0.456863 0.119608 0.428431 0.12598 0.404902 0.141176 C 0.3 0.208824 0.446569 0.236765 0.470588 0.25049 C 0.493627 0.263725 0.580392 0.362745 0.616176 0.209314 C 0.626961 0.161765 0.556373 0.119608 0.484804 0.119608 M 0.707353 0.17451 C 0.620588 0.183824 0.703431 0.385294 0.823039 0.392157 C 0.903922 0.396569 0.964706 0.19951 0.707353 0.17451 M 0.244608 0.218137 C 0.167647 0.215686 0.214216 0.359314 0.338235 0.409804 C 0.363235 0.420098 0.407843 0.386765 0.408824 0.331373 C 0.409314 0.310784 0.37402 0.222549 0.244608 0.218137 M 0.543627 0.304902 C 0.508824 0.304412 0.472059 0.319608 0.431863 0.361275 C 0.290196 0.509804 0.49951 0.535294 0.483824 0.615686 C 0.436275 0.853431 0.479412 0.873039 0.52451 0.888235 C 0.581863 0.907353 0.690196 0.72451 0.735784 0.690196 C 0.796569 0.644118 1.117647 0.483333 1.041667 0.401961 C 0.932353 0.285294 0.909314 0.437745 0.758824 0.397059 C 0.687255 0.377941 0.620098 0.304902 0.543627 0.304902 M 0.266667 0.473039 C 0.252941 0.472549 0.239706 0.475 0.226961 0.480882 C 0.170588 0.506373 0.279902 0.659804 0.329412 0.664216 C 0.390196 0.669608 0.414706 0.620588 0.415686 0.592157 C 0.417157 0.554902 0.340196 0.47451 0.266667 0.473039 M 0.286275 0.701961 C 0.264216 0.702451 0.247059 0.707843 0.239216 0.718137 C 0.219118 0.748529 0.345098 0.867157 0.379902 0.875 C 0.411765 0.882353 0.441667 0.811275 0.435784 0.783333 C 0.425 0.732353 0.341667 0.701471 0.286275 0.701961"/>
</defs>
<g>
<g>
<rect x="0" y="0" width="450" height="51.4286" class="brown"/>
<rect x="0" y="51.4286" width="450" height="51.4286" class="orange"/>
<rect x="0" y="102.8571" width="450" height="51.4286" class="yellow"/>
<rect x="0" y="154.2857" width="450" height="51.4286" class="tan"/>
<rect x="0" y="205.7143" width="450" height="51.4286" class="white"/>
<rect x="0" y="257.1429" width="450" height="51.4286" class="gray"/>
<rect x="0" y="308.5714" width="450" height="51.4286" class="black"/>
</g>
<use xlink:href="#paw" transform="translate(0 0) scale(205.7143 205.7143) rotate(0)" class="black"/>
</g>
</svg>
