<?xml version="1.0"?>
<svg xmlns="http://www.w3.org/2000/svg" xmlns:xlink="http://www.w3.org/1999/xlink" version="1.1" width="450" height="360" viewBox="0 0 450 360">
<!-- Generated by Kreative Vexillo v1.0 -->
<style>
.black{fill:rgb(0,0,0);}
.purple{fill:rgb(118,48,126);}
.white{fill:rgb(255,255,255);}
</style>
<defs>
<path id="labrys" d="M 0.0488 -0.3304 A -0.39 -0.39 0.0 0 0 0.3094 -0.4799 A -0.39 -0.39 0.0 0 1 0.3094 -0.0051 A -0.39 -0.39 0.0 0 0 0.0488 -0.1546 Z M -0.0487 -0.1546 A -0.39 -0.39 0.0 0 0 -0.3094 -0.0051 A -0.39 -0.39 0.0 0 1 -0.3094 -0.4799 A -0.39 -0.39 0.0 0 0 -0.0487 -0.3304 Z M -0.039 -0.3741 A -0.039 -0.0195 0.0 0 1 0.039 -0.3741 V 0.4595 A -0.039 -0.0195 0.0 0 1 -0.039 0.4595 Z"/>
</defs>
<g>
<rect x="0" y="0" width="450" height="360" class="purple"/>
<path d="M 45 24.1154 L 405 24.1154 L 225 335.8846 Z" class="black"/>
<use xlink:href="#labrys" transform="translate(225 159) scale(252 252) rotate(0)" class="white"/>
</g>
</svg>
