<?xml version="1.0"?>
<svg xmlns="http://www.w3.org/2000/svg" xmlns:xlink="http://www.w3.org/1999/xlink" version="1.1" width="450" height="360" viewBox="0 0 450 360">
<!-- Generated by Kreative Vexillo v1.0 -->
<style>
.red{fill:rgb(255,0,0);}
.yellow{fill:rgb(255,255,0);}
</style>
<g>
<rect x="0" y="0" width="450" height="360" class="red"/>
<path d="M 0 0 L 0 57.6281 L 0 57.6281 L 152.9649 180 L 152.9649 180 L 0 302.3719 L 0 302.3719 L 0 360 L 72.0351 360 L 225 237.6281 L 225 237.6281 L 225 237.6281 L 225 237.6281 L 225 237.6281 L 225 237.6281 L 377.9649 360 L 450 360 L 450 302.3719 L 450 302.3719 L 297.0351 180 L 297.0351 180 L 450 57.6281 L 450 0 L 377.9649 0 L 225 122.3719 L 225 122.3719 L 72.0351 0 Z" class="yellow"/>
</g>
</svg>
