<?xml version="1.0"?>
<svg xmlns="http://www.w3.org/2000/svg" xmlns:xlink="http://www.w3.org/1999/xlink" version="1.1" width="450" height="360" viewBox="0 0 450 360">
<!-- Generated by Kreative Vexillo v1.0 -->
<style>
.black{fill:rgb(0,0,0);}
.white{fill:rgb(255,255,255);}
</style>
<defs>
<path id="sun" d="M -1.4243 0.6746 L -1.2277999 0.6555 C -1.2159998 0.7214 -1.1919999 0.76989996 -1.1557999 0.80079997 C -1.1195998 0.83169997 -1.0708998 0.8472 -1.0094999 0.8472 C -0.9444999 0.8472 -0.8954999 0.83349997 -0.8624999 0.8059 C -0.8294999 0.7784 -0.8129999 0.74619997 -0.8129999 0.7094 C -0.8129999 0.6858 -0.8198999 0.6656 -0.8337999 0.649 C -0.8476999 0.6324 -0.8718999 0.618 -0.9063999 0.6057 C -0.9300999 0.5975 -0.9838999 0.583 -1.0680999 0.5621 C -1.1762998 0.5353 -1.2522999 0.5023 -1.2958999 0.4632 C -1.3572999 0.4082 -1.3879999 0.3411 -1.3879999 0.26200002 C -1.3879999 0.21110003 -1.3735999 0.16340002 -1.3446999 0.11910002 C -1.3157998 0.074800014 -1.2741998 0.041000016 -1.2198999 0.017800018 C -1.1656 -0.0053999815 -1.0999999 -0.016999982 -1.0230999 -0.016999982 C -0.89759994 -0.016999982 -0.8030999 0.010500018 -0.7396999 0.06550002 C -0.6762999 0.12050002 -0.6429999 0.19400002 -0.6397999 0.28580004 L -0.8416999 0.29470003 C -0.8502999 0.24330002 -0.8688999 0.20640004 -0.8972999 0.18390003 C -0.9256999 0.16140002 -0.9683999 0.15010002 -1.0251999 0.15010002 C -1.0838999 0.15010002 -1.1297998 0.16220002 -1.1629999 0.18630002 C -1.1843998 0.20180002 -1.1950998 0.22250003 -1.1950998 0.24840003 C -1.1950998 0.27210003 -1.1850998 0.29230005 -1.1650999 0.30910003 C -1.1395998 0.33050004 -1.0777998 0.35280004 -0.97959983 0.37590003 C -0.8813998 0.39910004 -0.80869985 0.42310002 -0.76169986 0.44790003 C -0.71459985 0.47270003 -0.6777999 0.5066 -0.6511999 0.54950005 C -0.6245999 0.59250003 -0.6112999 0.6456001 -0.6112999 0.7088001 C -0.6112999 0.76610005 -0.6271999 0.8198001 -0.6590999 0.8698001 C -0.69089985 0.9198001 -0.7359999 0.9570001 -0.7941999 0.9813001 C -0.8523999 1.0056001 -0.9248999 1.0178001 -1.0117999 1.0178001 C -1.1381999 1.0178001 -1.2353 0.9886001 -1.3030999 0.9301001 C -1.3706 0.8717 -1.4111 0.7865 -1.4243 0.6746 Z M -0.4427 0.0 H -0.2408 V 0.5416 C -0.2408 0.6276 -0.2383 0.6833 -0.2333 0.7087 C -0.2247 0.7496 -0.2041 0.7825 -0.1716 0.8073 C -0.1391 0.8321 -0.0946 0.84449995 -0.038200006 0.84449995 C 0.019099995 0.84449995 0.062299997 0.8328 0.0914 0.80939996 C 0.1205 0.78599995 0.138 0.75719994 0.14389999 0.72309995 C 0.14979999 0.68899995 0.1528 0.6323999 0.1528 0.55329996 V 0.0 H 0.3547 V 0.5252 C 0.3547 0.64530003 0.3492 0.73010004 0.3383 0.7796 C 0.3274 0.8292 0.3073 0.87100005 0.27789998 0.9051 C 0.24859998 0.9392 0.20939998 0.96639997 0.16019997 0.9866 C 0.11109997 1.0067999 0.04699997 1.017 -0.032200024 1.017 C -0.12770003 1.017 -0.20010002 1.0059999 -0.24950002 0.98389995 C -0.29880002 0.9618 -0.33780003 0.93319994 -0.36650002 0.8978999 C -0.39510003 0.8626999 -0.41400003 0.8256999 -0.42310002 0.78709996 C -0.43630004 0.7298 -0.44290003 0.64519995 -0.44290003 0.5332999 V 0.0 Z M 0.5696 1.0 V 0.0 H 0.7661 L 1.1754 0.6678 V 0.0 H 1.363 V 1.0 H 1.1604 L 0.7572 0.3479 V 1.0 H 0.5696 Z"/>
</defs>
<g>
<rect x="0" y="0" width="450" height="360" class="white"/>
<use xlink:href="#sun" transform="translate(225 105) scale(150 150) rotate(0)" class="black"/>
</g>
</svg>
