<?xml version="1.0"?>
<svg xmlns="http://www.w3.org/2000/svg" xmlns:xlink="http://www.w3.org/1999/xlink" version="1.1" width="450" height="360" viewBox="0 0 450 360">
<!-- Generated by Kreative Vexillo v1.0 -->
<style>
.blue{fill:rgb(0,101,189);}
.green{fill:rgb(0,154,73);}
.orange{fill:rgb(255,121,0);}
.white{fill:rgb(255,255,255);}
</style>
<defs>
<clipPath id="clip0">
<path d="M 0 360 L 450 0 L 450 360 Z"/>
</clipPath>
</defs>
<g>
<rect x="0" y="0" width="450" height="360" class="white"/>
<g>
<path d="M 0 0 L 450 0 L 0 360 Z" class="blue"/>
<path d="M 0 0 L 0 46.1025 L 0 46.1025 L 167.3719 180 L 167.3719 180 L 0 313.8975 L 0 360 L 57.6281 360 L 225 226.1025 L 225 226.1025 L 392.3719 360 L 450 360 L 450 313.8975 L 450 313.8975 L 282.6281 180 L 450 46.1025 L 450 0 L 392.3719 0 L 225 133.8975 L 225 133.8975 L 57.6281 0 Z" class="white"/>
</g>
<g clip-path="url(#clip0)">
<g>
<rect x="0" y="0" width="150" height="360" class="green"/>
<rect x="150" y="0" width="150" height="360" class="white"/>
<rect x="300" y="0" width="150" height="360" class="orange"/>
</g>
</g>
</g>
</svg>
