<?xml version="1.0"?>
<svg xmlns="http://www.w3.org/2000/svg" xmlns:xlink="http://www.w3.org/1999/xlink" version="1.1" width="480" height="360" viewBox="0 0 480 360">
<!-- Generated by Kreative Vexillo v1.0 -->
<style>
.black{fill:rgb(0,0,0);}
.white{fill:rgb(255,255,255);}
</style>
<defs>
<path id="shahada" d="M 0.8294 0.9532 C 0.8529 0.9263 0.8762 0.8989 0.8997 0.872 C 0.89849997 0.88189995 0.8968 0.8933 0.89269996 0.8983 C 0.87109995 0.9231 0.84949994 0.948 0.82789993 0.9728 C 0.82649994 0.9745 0.82509995 0.9764 0.8234999 0.9773 C 0.8248999 0.9705 0.8262999 0.9636 0.82759994 0.95669997 C 0.82789993 0.95479995 0.82869995 0.954 0.82939994 0.9532 Z M 0.7564 0.8595 C 0.7615 0.86869997 0.766 0.8792 0.7693 0.8905 C 0.77529997 0.9123 0.7768 0.9405 0.77309996 0.96500003 C 0.77279997 0.967 0.7721 0.9685 0.77149993 0.97010005 C 0.77259994 0.95650005 0.77299994 0.94220006 0.77119994 0.92880005 C 0.76869994 0.90940005 0.7631999 0.89320004 0.75569993 0.8837001 C 0.75579995 0.8752001 0.75619996 0.86670005 0.7563999 0.85950005 Z M 0.5629 0.8477 C 0.566 0.8414 0.5704 0.8408 0.5743 0.8408 C 0.5783 0.8415 0.58239996 0.8419 0.5859 0.8469 C 0.58750004 0.85139996 0.586 0.85679996 0.5843 0.85969996 C 0.5775 0.87139994 0.5699 0.88159996 0.56439996 0.89699996 C 0.56289995 0.90099996 0.56369996 0.9072 0.5656 0.90949994 C 0.5685 0.9129 0.5718 0.91309994 0.575 0.9129 C 0.5825 0.9119 0.5897 0.90519994 0.596 0.89559996 C 0.5978 0.89299995 0.5993 0.8896 0.6011 0.88719994 C 0.59720004 0.89839995 0.59290004 0.9085999 0.5881 0.91749996 C 0.584 0.92469996 0.5795 0.93099993 0.5744 0.93289995 C 0.5704 0.93369997 0.5661 0.93319994 0.56270003 0.92789996 C 0.55890006 0.92249995 0.55710006 0.9104 0.55850005 0.90049994 C 0.5594 0.89489996 0.56090003 0.89019996 0.5626001 0.88579994 C 0.5669001 0.87499994 0.57220006 0.86669993 0.5774001 0.8586999 C 0.5738001 0.8582999 0.5702001 0.85779995 0.5667001 0.8588999 C 0.5644001 0.8594999 0.5628001 0.8635999 0.5612001 0.8668999 C 0.56070006 0.8603999 0.56070006 0.85269994 0.56290007 0.8478999 Z M 0.42180002 0.8314 C 0.42490003 0.8278 0.42920002 0.8283 0.43170002 0.8346 C 0.4338 0.8404 0.43400002 0.8484 0.4338 0.8556 C 0.4321 0.8608 0.4302 0.8656 0.4289 0.8713 C 0.426 0.87259996 0.423 0.87149996 0.4201 0.8735 C 0.4187 0.87549996 0.4168 0.8767 0.4161 0.8806 C 0.4152 0.8857 0.4156 0.8914 0.416 0.89669997 C 0.41750002 0.9152 0.42020002 0.9334 0.4201 0.95239997 C 0.4199 0.95909995 0.4198 0.96599996 0.4184 0.97209996 C 0.4181 0.9615 0.4165 0.95149994 0.4154 0.9413 C 0.4132 0.9227 0.4115 0.9037 0.4113 0.88439995 C 0.411 0.877 0.4128 0.8705999 0.4146 0.86499995 C 0.41730002 0.85609996 0.4221 0.85349995 0.4264 0.85159993 C 0.4253 0.84919995 0.424 0.8463999 0.4224 0.8468999 C 0.4201 0.84769994 0.4185 0.8522999 0.4173 0.8564999 C 0.41709998 0.8471999 0.4181 0.8362999 0.4218 0.8313999 Z M 0.6265 0.8278 C 0.6267 0.82729995 0.62700003 0.8271 0.6273 0.8272 C 0.6261 0.8305 0.6254 0.8347 0.62450004 0.8384 C 0.62180007 0.8503 0.61880004 0.86300004 0.61950004 0.87700003 C 0.61960006 0.88360006 0.62110007 0.89210004 0.6244 0.892 C 0.62600005 0.8901 0.6264 0.88530004 0.6272 0.8819 C 0.6271 0.8922 0.6265 0.90470004 0.6224 0.9105 C 0.61899996 0.9092 0.61649996 0.90209997 0.6164 0.8941 C 0.6157 0.86980003 0.62 0.8459 0.6266 0.8277 Z M 0.020700037 0.691 C 0.022600038 0.6828 0.024500038 0.6739 0.027800038 0.6685 C 0.023700038 0.6882 0.019400038 0.7081 0.017600037 0.7299 C 0.017000036 0.7382 0.016700037 0.7478 0.019000037 0.7549 C 0.020800037 0.75939995 0.023600036 0.76019996 0.026000038 0.75879997 C 0.029700037 0.75689995 0.03140004 0.7478 0.03290004 0.7406 C 0.03410004 0.746 0.03290004 0.7518 0.03230004 0.7571 C 0.03080004 0.7684 0.02900004 0.78069997 0.02480004 0.7881 C 0.02160004 0.7939 0.01700004 0.7916 0.01390004 0.7865 C 0.009800039 0.779 0.009700039 0.7653 0.01050004 0.7542 C 0.01210004 0.73179996 0.01630004 0.71099997 0.020700041 0.691 Z M 0.31840003 0.60319996 C 0.31960002 0.59779996 0.32190004 0.59139997 0.3248 0.59409994 C 0.3282 0.59659994 0.3323 0.60309994 0.3318 0.61279994 C 0.3309 0.61609995 0.32970002 0.61899996 0.32860002 0.62209994 C 0.32750002 0.61709994 0.3262 0.61069995 0.32360002 0.60959995 C 0.32020003 0.61219996 0.31820002 0.62039995 0.31710002 0.6280999 C 0.31480002 0.6449999 0.31430003 0.6627999 0.31370002 0.68029994 C 0.3129 0.6812999 0.31210002 0.6823999 0.31120002 0.68329996 C 0.31120002 0.66719997 0.3097 0.65 0.3052 0.6374999 C 0.30420002 0.6333999 0.3019 0.63539994 0.3003 0.6333999 C 0.2974 0.6308999 0.2963 0.6233999 0.2956 0.6169999 C 0.2952 0.6126999 0.2946 0.60739994 0.2958 0.6035999 C 0.2984 0.6018999 0.3004 0.6071999 0.3022 0.61059994 C 0.3069 0.6211999 0.31019998 0.6348999 0.3128 0.64879996 C 0.3139 0.63329995 0.31509998 0.6173 0.3182 0.60319996 Z M 0.8083 0.5606 C 0.8119 0.5577 0.81560004 0.56149995 0.81850004 0.5664 C 0.8234 0.5749 0.82720006 0.5866 0.83010006 0.599 C 0.8317001 0.6062 0.8335001 0.6141 0.83280003 0.62259996 C 0.8324 0.62829995 0.83220005 0.63429993 0.83080006 0.6392 C 0.8292 0.64379996 0.8263001 0.64339995 0.82430005 0.64059997 C 0.822 0.6375 0.81990004 0.63409996 0.81750005 0.63149995 C 0.81430006 0.6521999 0.80750006 0.66849995 0.80020005 0.68139994 C 0.79520005 0.69039994 0.78980005 0.6977999 0.7843 0.70469993 C 0.7809 0.70909995 0.7771 0.7113999 0.7735 0.71419996 C 0.7699 0.71669996 0.7662 0.71989995 0.7623 0.719 C 0.7647 0.7187 0.7666 0.71489996 0.7687 0.7123 C 0.7794 0.6976 0.7898 0.6818 0.7993 0.663 C 0.8043 0.6527 0.80950004 0.6419 0.8129 0.6281 C 0.8107 0.627 0.8085 0.626 0.8063 0.6253 C 0.8045 0.613 0.8045 0.598 0.80829996 0.58779997 C 0.80639994 0.5843 0.80619997 0.57799995 0.80579996 0.57269996 C 0.8055 0.5681 0.80619997 0.56229997 0.80819994 0.56069994 M 0.8177999 0.59119993 C 0.8184999 0.60029995 0.8186999 0.60959995 0.8187999 0.61889994 C 0.82179993 0.6198999 0.8247999 0.62279993 0.82789993 0.62189996 C 0.82949996 0.62139994 0.82939994 0.61649996 0.8284999 0.61419994 C 0.8256999 0.60489994 0.8216999 0.5978999 0.8177999 0.59119993 M 0.8075999 0.60609996 C 0.8090999 0.61289996 0.8125999 0.61459994 0.8154999 0.61669993 C 0.8160999 0.6122999 0.8167999 0.60779995 0.8165999 0.60319996 C 0.8155999 0.59839994 0.8141999 0.5922 0.8115999 0.5922 C 0.8093999 0.59489995 0.80849993 0.6009 0.8076999 0.60609996 Z M 0.6104999 0.54789996 C 0.6122999 0.54249996 0.61529994 0.5398 0.6180999 0.53959996 C 0.6200999 0.53959996 0.62099993 0.54459995 0.62149996 0.5483999 C 0.6223999 0.5573999 0.62249994 0.56719995 0.62069994 0.5755999 C 0.6216999 0.5772999 0.62259996 0.5788999 0.62359995 0.5805999 C 0.62329996 0.5863999 0.62319994 0.5921999 0.6230999 0.59799993 C 0.62109995 0.59549993 0.61959994 0.59159994 0.6179999 0.5881999 C 0.6127999 0.60949993 0.60519993 0.6278999 0.5956999 0.6383999 C 0.5906999 0.6443999 0.5849999 0.6469999 0.5793999 0.6453999 C 0.58999985 0.6363999 0.6001999 0.62349993 0.6078999 0.6036999 C 0.6104999 0.5968999 0.6127999 0.58939993 0.6146999 0.5812999 C 0.6131999 0.5774999 0.6113999 0.5742999 0.6102999 0.5698999 C 0.6093999 0.5628999 0.60869986 0.5544999 0.6105999 0.5479999 M 0.6134999 0.55489993 C 0.6142999 0.55999994 0.6156999 0.56429994 0.61729985 0.56829995 C 0.61789984 0.5638 0.61879987 0.55899996 0.6177999 0.55439997 C 0.6163999 0.5537 0.6148999 0.5541 0.6134999 0.5549 Z M 0.021299899 0.61059994 C 0.0424999 0.57899994 0.0637999 0.5476999 0.0849999 0.51629996 C 0.084399894 0.52729994 0.0827999 0.53999996 0.0783999 0.5455 C 0.058799896 0.5744 0.0390999 0.60319996 0.019399896 0.6322 C 0.018899897 0.6328 0.018399896 0.6334 0.017799897 0.6338 C 0.019099897 0.6262 0.019999897 0.6182 0.021299897 0.6107 Z M 0.4648999 0.4437999 C 0.4664999 0.4381999 0.4683999 0.4327999 0.4703999 0.4280999 C 0.46889988 0.4362999 0.46979988 0.4451999 0.47049987 0.4535999 C 0.4712999 0.4627999 0.47239986 0.4716999 0.47359988 0.4805999 C 0.4743999 0.48729992 0.47769988 0.4896999 0.4802999 0.4909999 C 0.4818999 0.4921999 0.4837999 0.4893999 0.4831999 0.4851999 C 0.4817999 0.4742999 0.47989988 0.4637999 0.4777999 0.4534999 C 0.4784999 0.4465999 0.4793999 0.4397999 0.4800999 0.4329999 C 0.48109987 0.4329999 0.4820999 0.4329999 0.48309988 0.4330999 C 0.48399988 0.4457999 0.48649988 0.4573999 0.4888999 0.4687999 C 0.4888999 0.4811999 0.4885999 0.4939999 0.48669988 0.5057999 C 0.4854999 0.5140999 0.48129988 0.5166999 0.47799987 0.5159999 C 0.47359985 0.51399994 0.47059986 0.5048999 0.46799988 0.49699992 C 0.46669987 0.5073999 0.46309987 0.51549995 0.45869988 0.5187999 C 0.4549999 0.5219999 0.45079988 0.5173999 0.4488999 0.5096999 C 0.4466999 0.5011999 0.44629988 0.49099988 0.4463999 0.48129988 C 0.4465999 0.46739987 0.4476999 0.4511999 0.4529999 0.44289988 C 0.4533999 0.44289988 0.4540999 0.44289988 0.4544999 0.44289988 C 0.4542999 0.4430999 0.4537999 0.44359988 0.4535999 0.44389987 C 0.4503999 0.45779988 0.4501999 0.47519988 0.4529999 0.48939988 C 0.4537999 0.49389988 0.4558999 0.4971999 0.45799989 0.4960999 C 0.4605999 0.49459988 0.4626999 0.49009988 0.4644999 0.48559988 C 0.46459988 0.47169986 0.4644999 0.45779988 0.4648999 0.4439999 Z M 0.046899885 0.41479993 C 0.051699884 0.41239992 0.055999886 0.41939992 0.059399884 0.42649993 C 0.06389988 0.43699995 0.06769989 0.44949993 0.07009988 0.46349993 C 0.07079988 0.46769994 0.071099885 0.47229993 0.07089988 0.47689992 C 0.070599884 0.48289993 0.07039988 0.48949993 0.06869988 0.49449992 C 0.06679988 0.49859992 0.06379988 0.49769992 0.06179988 0.4945999 C 0.05979988 0.4914999 0.05769988 0.4885999 0.05549988 0.4862999 C 0.05219988 0.5067999 0.04559988 0.5229999 0.03829988 0.5358999 C 0.03259988 0.5460999 0.02639988 0.5546999 0.01999988 0.5620999 C 0.015399881 0.5661999 0.01069988 0.5697999 0.00589988 0.5725999 C 0.00399988 0.5737999 0.0019998802 0.5736999 9.9880155E-5 0.5735999 C 0.0011998801 0.5729999 0.0024998803 0.57279986 0.0034998802 0.57139987 C 0.01399988 0.55739987 0.02419988 0.54219985 0.03369988 0.52469987 C 0.04009988 0.51239985 0.046499882 0.49939987 0.05109988 0.48289987 C 0.04889988 0.48169988 0.04669988 0.48059988 0.04439988 0.4800999 C 0.04259988 0.4677999 0.04259988 0.4527999 0.04629988 0.4423999 C 0.044499878 0.43859988 0.04419988 0.4324999 0.04389988 0.4271999 C 0.043599878 0.4220999 0.044699878 0.4159999 0.04699988 0.4148999 M 0.05589988 0.44559988 C 0.05669988 0.4547999 0.05679988 0.46419987 0.05699988 0.47359988 C 0.06019988 0.4743999 0.06339988 0.47799987 0.06649988 0.4761999 C 0.067999884 0.4741999 0.06689988 0.4696999 0.066199884 0.4673999 C 0.06329989 0.4588999 0.059599884 0.4520999 0.055899885 0.44559988 M 0.048099883 0.4495999 C 0.047099885 0.45329988 0.045899883 0.4574999 0.045999885 0.46209988 C 0.047799885 0.46759987 0.050899886 0.4698999 0.053799883 0.47109988 C 0.054099884 0.46849987 0.05439988 0.46589988 0.05459988 0.46319988 C 0.05539988 0.45779988 0.053599883 0.4529999 0.05219988 0.4491999 C 0.051199883 0.4461999 0.048999883 0.44609988 0.048099883 0.44949988 Z M 0.4008999 0.40429989 C 0.4039999 0.41039988 0.40589988 0.41929987 0.40799987 0.4272999 C 0.41339988 0.44969988 0.41789988 0.47319987 0.42239988 0.49669987 C 0.43209988 0.54719985 0.43849987 0.60119987 0.44199988 0.6559999 C 0.44299987 0.6729999 0.4439999 0.6900999 0.44379988 0.7072999 C 0.4443999 0.7414999 0.44609988 0.7763999 0.4520999 0.8078999 C 0.45649987 0.82929987 0.4639999 0.8481999 0.4698999 0.8620999 C 0.47269988 0.8666999 0.4738999 0.8655999 0.4745999 0.8636999 C 0.4750999 0.8624999 0.4748999 0.8474999 0.4757999 0.84049994 C 0.4770999 0.8288999 0.48019987 0.81909996 0.4833999 0.81009996 C 0.4869999 0.80069995 0.4910999 0.79199994 0.4959999 0.78629994 C 0.5056999 0.77459997 0.5157999 0.76469994 0.5258999 0.75549996 C 0.5335999 0.7488 0.5412999 0.74279994 0.5492999 0.7384 C 0.5150999 0.73899996 0.4809999 0.7396 0.4467999 0.7406 C 0.44849992 0.7209 0.4501999 0.7012 0.4519999 0.6816 C 0.4555999 0.67029995 0.4601999 0.66099995 0.4646999 0.6518 C 0.4842999 0.6134 0.5068999 0.585 0.5297999 0.5596 C 0.5270999 0.5496 0.5233999 0.5403 0.52279985 0.5281 C 0.52139986 0.5109 0.5243999 0.4939 0.52819985 0.4796 C 0.53039986 0.4715 0.53249985 0.46260002 0.53599983 0.45700002 C 0.5394998 0.45130002 0.5441998 0.45090002 0.54789984 0.455 C 0.56059986 0.46850002 0.57369983 0.49240002 0.58339983 0.5138 C 0.5843998 0.51610005 0.58559984 0.5181 0.5861998 0.5212 C 0.5838998 0.5387 0.5814998 0.5562 0.5792998 0.5738 C 0.5691998 0.5792 0.5590998 0.58430004 0.5491998 0.592 C 0.5501998 0.6068 0.5519998 0.6229 0.54929984 0.6373 C 0.54839987 0.637 0.5470998 0.6366 0.54689986 0.6339 C 0.54649985 0.6215 0.54399985 0.6101 0.54139984 0.5995 C 0.52879983 0.6112 0.51629984 0.6234 0.50449985 0.6388 C 0.49499986 0.6514 0.48529986 0.665 0.47819984 0.68520004 C 0.53069985 0.68520004 0.58319986 0.68520004 0.6357998 0.68520004 C 0.6323998 0.70280004 0.6287998 0.72010005 0.6253998 0.7376 C 0.59099984 0.75750005 0.5566998 0.77870005 0.5232998 0.80700004 C 0.5092998 0.81920004 0.49529982 0.83260006 0.4828998 0.85240006 C 0.4815998 0.8547001 0.4808998 0.8590001 0.4817998 0.8625001 C 0.4836998 0.8695001 0.4871998 0.87240005 0.4901998 0.87640005 C 0.4965998 0.8848001 0.5036998 0.88940006 0.5106998 0.89430004 C 0.5156998 0.8978 0.5206998 0.9013001 0.5256998 0.9049 C 0.5252998 0.92590004 0.5251998 0.947 0.5246998 0.968 C 0.5205998 0.968 0.5163998 0.9663 0.51229984 0.9654 C 0.50419986 0.96309996 0.49599984 0.9616 0.48829985 0.9557 C 0.47769985 0.94769996 0.46819985 0.93259996 0.46069986 0.91319996 C 0.45249987 0.89219993 0.44659984 0.86679995 0.44229984 0.84009993 C 0.43649983 0.80309993 0.43329984 0.75789994 0.43209985 0.7185999 C 0.43159986 0.71839994 0.43149984 0.7261999 0.43099985 0.7260999 C 0.42949983 0.7433999 0.42779985 0.7587999 0.42539984 0.77549994 C 0.42489985 0.77949995 0.42369983 0.78249997 0.42259985 0.78559995 C 0.41479984 0.80719995 0.40639985 0.82759994 0.39769986 0.84709996 C 0.38879988 0.86679995 0.37949985 0.8857 0.36939988 0.9022 C 0.35879987 0.9194 0.3473999 0.9349 0.3347999 0.9414 C 0.3279999 0.9447 0.3202999 0.9454 0.31429988 0.9356 C 0.3076999 0.9248 0.30439988 0.9061 0.3026999 0.88809997 C 0.2965999 0.899 0.2904999 0.9098 0.28429988 0.9201 C 0.27869987 0.9291 0.27309987 0.93859994 0.2665999 0.94399995 C 0.2504999 0.9581999 0.23369989 0.9675 0.21699989 0.97709996 C 0.2049999 0.98349994 0.19309989 0.98999995 0.18099989 0.99549997 C 0.19219989 0.9805 0.20349988 0.9661 0.21459989 0.95079994 C 0.2447999 0.90979993 0.2744999 0.86679995 0.3028999 0.81909996 C 0.3067999 0.7751 0.3129999 0.73089993 0.3250999 0.6956 C 0.3252999 0.69549996 0.32559988 0.6953 0.3256999 0.69519997 C 0.3246999 0.70009995 0.3242999 0.7054 0.32329988 0.71019995 C 0.3159999 0.7405 0.3107999 0.7739999 0.3089999 0.80869997 C 0.3218999 0.78639996 0.3344999 0.76299995 0.3463999 0.73759997 C 0.3536999 0.72199994 0.3605999 0.7053 0.3668999 0.68729997 C 0.36859992 0.68219995 0.3709999 0.67779994 0.3715999 0.6712 C 0.3718999 0.66679996 0.3716999 0.66419995 0.3706999 0.6551 C 0.36339992 0.607 0.35299993 0.547 0.3459999 0.5047 C 0.3483999 0.4833 0.35059988 0.4618 0.3528999 0.44050002 C 0.3560999 0.44550002 0.3581999 0.45330003 0.3603999 0.46040002 C 0.3649999 0.4765 0.3693999 0.49310002 0.3732999 0.51030004 C 0.3754999 0.51970005 0.3758999 0.5307 0.3766999 0.5411 C 0.3735999 0.53440005 0.3713999 0.5253 0.3678999 0.51960003 C 0.3680999 0.52110004 0.3682999 0.52260005 0.3684999 0.5241 C 0.3739999 0.5499 0.3777999 0.5777 0.3801999 0.606 C 0.38169992 0.6228 0.38239992 0.6401 0.38189992 0.6573 C 0.38159993 0.6759 0.38049993 0.695 0.37689993 0.7119 C 0.37369993 0.7268 0.36939994 0.7402 0.36489993 0.7531 C 0.34969994 0.7956 0.33179992 0.8322 0.31359994 0.86749995 C 0.31359994 0.86959994 0.31459993 0.87009996 0.31519994 0.87119997 C 0.32169995 0.88079995 0.32979995 0.8799 0.33709994 0.87689996 C 0.34259993 0.87389994 0.34819993 0.8716 0.35319993 0.8652 C 0.36629993 0.84889996 0.37779993 0.8261 0.38889992 0.80289996 C 0.4033999 0.77159995 0.41709992 0.73809993 0.43009993 0.70329994 C 0.42569995 0.6665999 0.42119995 0.63009995 0.41659993 0.5935999 C 0.41409993 0.5744999 0.41179994 0.55529994 0.40879992 0.5366999 C 0.40379992 0.51209986 0.39909992 0.4871999 0.39469993 0.46189988 C 0.39639995 0.44259986 0.39859992 0.42349988 0.40049994 0.40429989 M 0.53269994 0.50349987 C 0.5310999 0.5049999 0.52979994 0.50919986 0.5303999 0.5132999 C 0.5305999 0.5164999 0.5320999 0.5175999 0.5328999 0.5198999 C 0.5360999 0.5286999 0.53909993 0.5377999 0.5418999 0.5473999 C 0.54879993 0.5413999 0.5557999 0.5362999 0.56279993 0.53079987 C 0.5575999 0.5189999 0.55179995 0.50779986 0.54489994 0.5024999 C 0.54099995 0.49929988 0.5364999 0.4996999 0.53269994 0.50349987 Z M 0.6855999 0.47809985 C 0.70689994 0.44679984 0.72809994 0.41509986 0.7493999 0.38389987 C 0.7487999 0.39359987 0.7475999 0.40429986 0.7442999 0.41069987 C 0.72369987 0.4412999 0.7028999 0.47139987 0.6822999 0.50199986 C 0.6831999 0.49379987 0.68459994 0.48609984 0.68569994 0.47809985 Z M 0.5781999 0.36019987 C 0.5801999 0.35749987 0.5830999 0.35769987 0.58439994 0.36259988 C 0.58619994 0.36919987 0.58669996 0.37779987 0.5856999 0.3852999 C 0.5837999 0.40029988 0.57969993 0.4129999 0.5751999 0.4240999 C 0.5696999 0.43679988 0.5630999 0.4485999 0.5553999 0.4513999 C 0.5566999 0.4475999 0.5585999 0.44539988 0.5602999 0.44269988 C 0.5650999 0.43499988 0.5696999 0.42649987 0.57379985 0.41659987 C 0.57589984 0.41079986 0.57819986 0.40449986 0.5785999 0.39649987 C 0.5786999 0.38979986 0.5761999 0.38409987 0.5735999 0.38299987 C 0.5697999 0.38459986 0.56739986 0.39239988 0.5645999 0.39789987 C 0.5638999 0.39309987 0.5656999 0.38969988 0.5667999 0.38609987 C 0.5700999 0.37639987 0.57349986 0.36609986 0.5782999 0.36019987 Z M 0.3009999 0.32779986 C 0.30749992 0.31829986 0.3138999 0.30819985 0.3204999 0.29899985 C 0.3198999 0.30879983 0.3184999 0.32019985 0.31449988 0.32509986 C 0.30009988 0.34599987 0.28589988 0.36759984 0.2713999 0.38819987 C 0.27299988 0.38039985 0.27459988 0.37239987 0.27639988 0.36479986 C 0.28449988 0.35219985 0.2927999 0.34009987 0.30099988 0.32769987 Z M 0.92799985 0.26649985 C 0.9374999 0.28169984 0.94529986 0.30329984 0.94949985 0.32859984 C 0.9536998 0.35319984 0.9535999 0.38099983 0.95029986 0.40609986 C 0.94979984 0.40899986 0.94889987 0.41119987 0.94809985 0.41349986 C 0.94959986 0.39649987 0.9500998 0.37859985 0.94799984 0.36169985 C 0.94509983 0.33489984 0.93689984 0.31269985 0.92689985 0.29919985 C 0.9273999 0.28829986 0.92749983 0.27729985 0.92799985 0.26639986 Z M 0.6992999 0.27749985 C 0.7008999 0.27279985 0.70249987 0.26799986 0.70429987 0.26359984 C 0.7025999 0.27299985 0.70389986 0.28329983 0.7046999 0.29279983 C 0.70559984 0.30159983 0.7064999 0.31039983 0.70789987 0.31879982 C 0.70959985 0.32419983 0.7126999 0.32689983 0.7154999 0.32669982 C 0.71679986 0.32669982 0.7173999 0.32309982 0.7169999 0.32049984 C 0.7155999 0.30999982 0.7137999 0.29969984 0.71179986 0.28979984 C 0.71219987 0.28249985 0.7132999 0.27549985 0.7140999 0.26839983 C 0.7150999 0.26859984 0.71609986 0.26879984 0.7170999 0.26899984 C 0.7176999 0.28189984 0.7205999 0.29339984 0.7227999 0.30489984 C 0.7226999 0.31419984 0.7223999 0.32359985 0.7216999 0.33279985 C 0.7210999 0.33919984 0.72009987 0.34659985 0.7173999 0.34949985 C 0.7150999 0.35159984 0.7123999 0.35279986 0.7099999 0.35019985 C 0.7065999 0.34659985 0.7040999 0.33949986 0.7019999 0.33229986 C 0.7006999 0.34239987 0.6972999 0.35039985 0.6930999 0.35389987 C 0.6896999 0.35759985 0.6854999 0.35369986 0.6832999 0.34689987 C 0.6807999 0.33879986 0.6803999 0.32839987 0.6802999 0.31869987 C 0.6803999 0.30939987 0.6807999 0.29979986 0.68239987 0.29119986 C 0.6834999 0.28539985 0.68519986 0.27979985 0.6877999 0.27759987 C 0.6842999 0.29129988 0.6838999 0.30879986 0.6864999 0.32349986 C 0.6871999 0.32769987 0.6887999 0.33169985 0.6907999 0.33179986 C 0.69389987 0.33139986 0.6962999 0.32609987 0.6982999 0.32109988 C 0.6982999 0.30919987 0.69849986 0.29729986 0.69849986 0.28539988 C 0.6985999 0.28269988 0.6982999 0.2794999 0.69919986 0.2773999 Z M 0.18369985 0.18079986 C 0.19149984 0.19269985 0.19759984 0.21089986 0.20059985 0.23179986 C 0.20299985 0.24869986 0.20279986 0.26729986 0.20069985 0.28429985 C 0.20039985 0.28709984 0.19949985 0.28909984 0.19879985 0.29119986 C 0.20039985 0.27519986 0.20019984 0.25779986 0.19739985 0.24259986 C 0.19449985 0.22689986 0.18919985 0.21389987 0.18299985 0.20559986 C 0.18329985 0.19739985 0.18349984 0.18919986 0.18379985 0.18089986 Z M 0.43429986 0.16299985 C 0.43609986 0.15779985 0.43759987 0.15189986 0.43999985 0.14809985 C 0.43849984 0.15369986 0.43909985 0.16049986 0.43949986 0.16669986 C 0.44039986 0.17809986 0.44169986 0.18939985 0.44319984 0.20049986 C 0.44369984 0.20509987 0.44569984 0.20709985 0.44729984 0.20889986 C 0.44879985 0.21019986 0.45059985 0.21149985 0.45209983 0.20969985 C 0.45309982 0.20769985 0.45259982 0.20429985 0.45229983 0.20179985 C 0.45079982 0.19209985 0.44929984 0.18239985 0.44729984 0.17329985 L 0.44969985 0.15219985 C 0.45069984 0.15239985 0.45179984 0.15259986 0.45279986 0.15269984 C 0.45329985 0.16569984 0.45629987 0.17699984 0.45849985 0.18869984 C 0.45839986 0.19859985 0.45809984 0.20869984 0.45719984 0.21839984 C 0.45669985 0.22409984 0.45559984 0.23019984 0.45329985 0.23309983 C 0.45069984 0.23559983 0.44759986 0.23669983 0.44499984 0.23329984 C 0.44199985 0.22929984 0.43959984 0.22309984 0.43779984 0.21629983 C 0.43629983 0.22659983 0.43269983 0.23479983 0.42829984 0.23819983 C 0.42529985 0.24089983 0.42169985 0.23799983 0.41969985 0.23239984 C 0.41709983 0.22599983 0.41639984 0.21659984 0.41609985 0.20809984 C 0.41589984 0.19709983 0.41629985 0.18569985 0.41809985 0.17539984 C 0.41909984 0.16939984 0.42099985 0.16419984 0.42349985 0.16129984 C 0.42109984 0.17269984 0.41979986 0.18589984 0.42119986 0.19849984 C 0.42179987 0.20509985 0.42279986 0.21349984 0.42589986 0.21559985 C 0.42919987 0.21659985 0.43189988 0.21059985 0.43399987 0.20539986 C 0.43439987 0.19139986 0.43419987 0.17719986 0.43449986 0.16319986 Z M 0.69269985 0.14519985 C 0.70389986 0.13369985 0.7151998 0.12199985 0.7266998 0.111999854 C 0.7262998 0.118199855 0.72539985 0.12529986 0.72289985 0.12819986 C 0.70659983 0.14469986 0.69019985 0.16099986 0.6741999 0.17929986 C 0.6709999 0.18349986 0.6677999 0.18769985 0.6652999 0.19409986 C 0.6670999 0.19869986 0.6696999 0.20049986 0.6720999 0.20249985 C 0.6720999 0.20699985 0.6720999 0.21149985 0.6720999 0.21599986 C 0.66869986 0.21409985 0.6652999 0.21109986 0.6626999 0.20549986 C 0.66289985 0.19909985 0.6627999 0.19269986 0.6631999 0.18639986 C 0.6635999 0.18069986 0.6660999 0.17799987 0.6677999 0.17479986 C 0.6756999 0.16309986 0.6842999 0.15419985 0.69279987 0.14499986 Z M 0.18709987 0.08939985 L 0.18759987 0.09049985 C 0.18659987 0.09359985 0.18709987 0.09759985 0.18729986 0.10109985 C 0.18789986 0.10869985 0.18859987 0.11619985 0.18969986 0.12349985 C 0.19009987 0.12669985 0.19149986 0.12829985 0.19269986 0.12939985 C 0.19379987 0.12989984 0.19549987 0.13119985 0.19589986 0.12779985 C 0.19519986 0.119899854 0.19339986 0.112899855 0.19239986 0.105399854 C 0.19289985 0.100999855 0.19309986 0.09639986 0.19399986 0.092299856 C 0.19459985 0.092299856 0.19519986 0.09239986 0.19579986 0.09249986 C 0.19639985 0.10099986 0.19819985 0.10839986 0.19959986 0.11619986 C 0.19949986 0.12419986 0.19939986 0.13259986 0.19809987 0.14009985 C 0.19729987 0.14519985 0.19479987 0.14659986 0.19269986 0.14649986 C 0.18969986 0.14549986 0.18779987 0.13949986 0.18599987 0.13439986 C 0.18489987 0.14199986 0.18199988 0.14789987 0.17859986 0.14889985 C 0.17579986 0.14919986 0.17339987 0.14379986 0.17259987 0.13759986 C 0.17159986 0.12939985 0.17169987 0.12059985 0.17249987 0.11229986 C 0.17309986 0.10649986 0.17429987 0.10029986 0.17689987 0.09809986 C 0.17489986 0.10599986 0.17439987 0.11579986 0.17549987 0.12469986 C 0.17589988 0.12839986 0.17669988 0.13299987 0.17859986 0.13349986 C 0.18059987 0.13359986 0.18209986 0.12989986 0.18359986 0.12709986 C 0.18399987 0.11799986 0.18349986 0.108899854 0.18399987 0.09979986 C 0.18469986 0.09589986 0.18619987 0.09299985 0.18719986 0.08939986 Z M 0.2801999 0.07379985 C 0.28139988 0.07459985 0.28229988 0.07699985 0.28339988 0.07869985 C 0.28959987 0.09079985 0.2947999 0.10649985 0.29719988 0.12479985 C 0.29949987 0.14139985 0.29939988 0.15949985 0.29729986 0.17619985 C 0.29699987 0.17909986 0.29619986 0.18139985 0.29559985 0.18379985 C 0.29549986 0.18349984 0.29539984 0.18289985 0.29539984 0.18259984 C 0.29689986 0.16719985 0.29669985 0.15059984 0.29409984 0.13599984 C 0.29129985 0.11999984 0.28599983 0.10669984 0.27959985 0.098299846 C 0.27979985 0.09009985 0.27999985 0.081899844 0.28029984 0.07379985 Z M 0.33639988 0.05949985 C 0.33799988 0.050399847 0.34209988 0.04279985 0.34639987 0.044499848 C 0.34849986 0.045599848 0.34999987 0.05009985 0.35079986 0.05469985 C 0.35229987 0.06429985 0.35249987 0.07469985 0.35199985 0.08479985 C 0.35459986 0.09229985 0.35749984 0.09989985 0.35859984 0.10959985 C 0.36059985 0.12239985 0.35879984 0.13599986 0.35709983 0.14829984 C 0.35489982 0.16459984 0.35059983 0.17939985 0.34989983 0.19679984 C 0.34959984 0.20109984 0.35029984 0.20579985 0.35219982 0.20719984 C 0.3551998 0.20509984 0.35559982 0.19669984 0.35619983 0.19059984 C 0.35709983 0.19009985 0.35859984 0.18979985 0.35889983 0.19259985 C 0.35939983 0.20029984 0.35799983 0.20769985 0.35679984 0.21479985 C 0.35579985 0.22009985 0.35429984 0.22649986 0.35159984 0.22759984 C 0.34949985 0.22849984 0.34779984 0.22409984 0.34699985 0.21999985 C 0.34459984 0.20829985 0.34529984 0.19439985 0.34739986 0.18269984 C 0.35059986 0.16409984 0.35479987 0.14529985 0.35439986 0.124699846 C 0.35439986 0.115899846 0.35289985 0.107499845 0.35039985 0.10109985 C 0.34669986 0.12489985 0.34069985 0.14629985 0.33379984 0.16549985 C 0.33019984 0.17599985 0.32509983 0.18249986 0.32019985 0.18889984 C 0.31579983 0.19429985 0.31139985 0.19959985 0.30669984 0.20349984 C 0.31569985 0.18809983 0.32429984 0.17129984 0.33179983 0.15179984 C 0.33799982 0.13539985 0.34359983 0.11689985 0.34589982 0.09529984 L 0.34569982 0.09409984 C 0.3423998 0.088999845 0.33839983 0.08449984 0.33659983 0.07549984 C 0.33589983 0.07039984 0.33599982 0.06459984 0.33649984 0.05939984 M 0.33979985 0.06199984 C 0.33889985 0.06329984 0.33949986 0.06579984 0.34019986 0.06669984 C 0.34229985 0.06959984 0.34449986 0.07229984 0.34659985 0.07479984 C 0.34649986 0.069599845 0.34689984 0.063099846 0.34499985 0.059399843 C 0.34329984 0.056099843 0.34109986 0.058999844 0.33969986 0.061999843 Z M 0.69549984 0.05039984 C 0.69659984 0.04579984 0.69839984 0.03999984 0.70089984 0.04079984 C 0.7035998 0.04229984 0.70629984 0.045699842 0.7079998 0.051199842 C 0.7088998 0.054599844 0.70959985 0.059799843 0.7079998 0.06279984 C 0.7071998 0.06459984 0.70659983 0.067799844 0.7056998 0.068699844 C 0.7042998 0.064399846 0.7032998 0.056799844 0.7004998 0.057099845 C 0.6969998 0.060099844 0.6950998 0.06849985 0.6940998 0.07639985 C 0.6918998 0.09279985 0.69149977 0.11009985 0.6907998 0.12709984 C 0.6900998 0.12879984 0.68919975 0.12969984 0.6883998 0.13089985 C 0.6883998 0.113699846 0.6866998 0.09529985 0.6814998 0.08249985 C 0.6789998 0.08179985 0.67599976 0.081099845 0.67459977 0.075299844 C 0.6728998 0.06799985 0.67169976 0.058899842 0.67279977 0.050599843 C 0.6753998 0.04939984 0.6775998 0.054099843 0.6793998 0.057999842 C 0.6841998 0.06839984 0.6871998 0.08209984 0.68999976 0.09569985 C 0.6911998 0.080199845 0.69239974 0.064399846 0.6954998 0.050299846 Z M 0.018899858 0.055999838 C 0.020299857 0.04989984 0.021899858 0.04369984 0.024499858 0.03979984 C 0.020499857 0.06029984 0.015799858 0.08069984 0.014299857 0.10339984 C 0.013799857 0.11079984 0.013799857 0.119299844 0.015799858 0.12549984 C 0.017699858 0.13109985 0.021099858 0.13119985 0.023699857 0.12919985 C 0.026699858 0.12639984 0.027999857 0.11879985 0.029399857 0.11259985 C 0.029999858 0.11259985 0.030099858 0.11439985 0.030399857 0.11539985 C 0.028799858 0.12989986 0.027299857 0.14569986 0.022699857 0.15679985 C 0.018399857 0.16759986 0.009899857 0.16199985 0.0077998573 0.14859985 C 0.006299857 0.13899985 0.006799857 0.12829985 0.0076998575 0.118499845 C 0.009899857 0.09639984 0.014099857 0.07569984 0.018799856 0.055999845 Z M 0.42189986 0.032899838 C 0.42959985 0.045399837 0.43589985 0.06339984 0.43889984 0.08459984 C 0.44039986 0.09569984 0.44089985 0.10759984 0.44029984 0.11919984 C 0.43989983 0.12759984 0.43929985 0.13639984 0.43729985 0.14369984 C 0.43699986 0.14149985 0.43719986 0.13919984 0.43739983 0.13699985 C 0.43869984 0.120199844 0.43759984 0.10229985 0.43389982 0.08749984 C 0.43089983 0.07519984 0.42639983 0.06489984 0.42119983 0.058099844 C 0.42129982 0.049699843 0.42159984 0.041299842 0.42189983 0.032999843 Z M 0.5293999 0.021599837 C 0.5323999 0.025299836 0.53439987 0.032199837 0.5363999 0.038599838 C 0.5411999 0.05519984 0.5451999 0.07379983 0.5488999 0.09189984 C 0.5492999 0.094299845 0.5492999 0.097299844 0.54949987 0.10519984 C 0.54729986 0.099499844 0.54469985 0.09399985 0.54149985 0.09239984 C 0.5408999 0.09539984 0.5408999 0.098699845 0.54139984 0.101799846 C 0.5455998 0.13269985 0.55039984 0.16309984 0.55449986 0.19409984 C 0.5570999 0.21429984 0.55939984 0.23509985 0.55949986 0.25629985 C 0.55969983 0.27599984 0.55829984 0.29579985 0.55579984 0.31459984 C 0.55329984 0.33229983 0.5495998 0.34979984 0.54319984 0.36149985 C 0.5379998 0.37149984 0.53109986 0.37559986 0.52449983 0.37419984 C 0.51639986 0.37279984 0.50879985 0.36349985 0.5031998 0.34979984 C 0.5001998 0.34299985 0.4977998 0.33509985 0.49549982 0.32689983 L 0.49639982 0.32639983 C 0.49619982 0.32649982 0.49569982 0.32659984 0.49539983 0.32669982 C 0.49039984 0.30649984 0.48659983 0.28449982 0.48439983 0.26149982 C 0.48459983 0.25849983 0.48219982 0.25879982 0.48239982 0.26169983 C 0.4792998 0.29509982 0.47439983 0.32809982 0.46629983 0.3565998 C 0.46149984 0.37299982 0.45539984 0.3875998 0.44779983 0.39619982 C 0.43949983 0.40549982 0.42969984 0.40609983 0.42099983 0.40019983 C 0.41219983 0.39419982 0.40519983 0.37769982 0.40149984 0.35829982 C 0.39599985 0.33049983 0.39519984 0.29899982 0.39579985 0.26869982 C 0.39699984 0.24429983 0.39949983 0.22039983 0.40209985 0.19659983 C 0.40289986 0.18929982 0.40369985 0.18139982 0.40259984 0.17399983 C 0.40219983 0.17359982 0.40159985 0.17269982 0.40119985 0.17229983 C 0.39999986 0.17409983 0.39879984 0.17589983 0.39789984 0.17849983 C 0.39149985 0.19539984 0.38779983 0.21689984 0.38489982 0.23829983 C 0.38269982 0.25549984 0.38099983 0.27309984 0.3797998 0.29089984 C 0.3782998 0.31899986 0.37589982 0.34749985 0.37049982 0.37299985 C 0.36749983 0.38659984 0.3630998 0.40059984 0.35639983 0.40369985 C 0.35019985 0.40569985 0.34359983 0.40109983 0.33899984 0.39069983 C 0.33339983 0.37839985 0.33099985 0.36039984 0.32949984 0.34319985 C 0.32719985 0.31219986 0.32789984 0.28049985 0.32939985 0.24939984 C 0.33039984 0.23019984 0.33179986 0.21119985 0.33349985 0.19239984 C 0.33409986 0.19229984 0.33469984 0.19219984 0.33519986 0.19209984 C 0.33289987 0.22389984 0.33129987 0.25609985 0.33169985 0.28839985 C 0.33209985 0.30679986 0.33299986 0.32559985 0.33609986 0.34259984 C 0.33819985 0.35429984 0.34189987 0.36509985 0.34689987 0.37009984 C 0.35169986 0.37469983 0.35749987 0.37549984 0.36199987 0.36869985 C 0.36659986 0.36149985 0.36879987 0.34869984 0.37049988 0.33679986 C 0.37389988 0.31049985 0.3753999 0.28309986 0.37799987 0.25639987 C 0.38079986 0.22929987 0.38479987 0.20289987 0.38969988 0.17749986 C 0.39249986 0.16269986 0.39559987 0.14819986 0.39959988 0.13489985 C 0.4030999 0.123099856 0.40639988 0.11009985 0.41139987 0.101499856 C 0.41179988 0.101499856 0.41249987 0.10159986 0.41289988 0.10169986 C 0.41379988 0.11059986 0.41269988 0.11979986 0.4125999 0.12879986 C 0.4122999 0.14369985 0.40999988 0.15759985 0.4086999 0.17199986 C 0.4070999 0.18849985 0.4056999 0.20509985 0.4042999 0.22169986 C 0.4020999 0.24549986 0.40059993 0.27049986 0.40329993 0.29449987 C 0.40529993 0.31329986 0.41079992 0.3297999 0.41819993 0.33829987 C 0.42299992 0.34429988 0.42839992 0.34729987 0.43369994 0.34779987 C 0.44129995 0.34959987 0.44919994 0.34749988 0.45599994 0.33879986 C 0.46419993 0.32869986 0.46989995 0.31039986 0.47369993 0.29079986 C 0.47739992 0.27129987 0.47949994 0.25009987 0.48009992 0.22879985 C 0.4801999 0.18649985 0.47889993 0.14329985 0.47279993 0.10309985 C 0.4719999 0.09759985 0.47099993 0.091799855 0.47149992 0.08579985 C 0.4724999 0.06949985 0.47479993 0.05379985 0.47749993 0.03859985 C 0.47769994 0.03689985 0.47849992 0.03669985 0.47909993 0.035899848 C 0.48199993 0.05629985 0.48479992 0.07689985 0.48649994 0.09809984 C 0.48869994 0.12559985 0.48999995 0.15349984 0.49129993 0.18129984 C 0.4922999 0.20119983 0.49259993 0.22129983 0.49469993 0.24079984 C 0.49639994 0.25699985 0.49919993 0.27279985 0.5033999 0.28619984 C 0.50859994 0.30329984 0.5162999 0.31589985 0.5249999 0.32079983 C 0.5323999 0.32489982 0.5402999 0.31959984 0.5464999 0.30979982 C 0.5497999 0.30449983 0.5531999 0.29559982 0.5520999 0.2854998 C 0.5416999 0.2207998 0.5331999 0.15459982 0.5247999 0.08839981 C 0.5241999 0.08289981 0.52319986 0.07769981 0.5229999 0.07209981 C 0.5240999 0.054599814 0.5266999 0.037799813 0.5295999 0.02159981 Z M 0.23989987 0.07599984 C 0.24339987 0.05699984 0.24699987 0.037999842 0.25059986 0.019099843 C 0.25759986 0.05729984 0.26329985 0.096799836 0.26759985 0.13719985 C 0.26809984 0.14539985 0.26709986 0.15359984 0.26719984 0.16179985 C 0.26479983 0.15149985 0.26199985 0.14169985 0.25939983 0.13159984 C 0.26009983 0.15009984 0.26129982 0.16859984 0.26199985 0.18709984 C 0.26689985 0.29649985 0.27119985 0.40609986 0.27489984 0.51589984 C 0.27909985 0.50869983 0.28229985 0.49829984 0.28409985 0.48669985 C 0.28649986 0.47369984 0.28899986 0.46079984 0.29239985 0.44909984 C 0.29369986 0.44489983 0.29539984 0.43959984 0.29789984 0.44089985 C 0.29929984 0.44109985 0.29999983 0.44469985 0.30009985 0.44759986 C 0.30069986 0.45789987 0.29739985 0.46679986 0.29799986 0.47699985 C 0.29819986 0.48539984 0.30089986 0.49259984 0.30419984 0.49509984 C 0.30989984 0.49999985 0.31599984 0.49779984 0.32189983 0.49579984 C 0.32449985 0.49439985 0.32779983 0.49319983 0.32909983 0.48679984 C 0.32769984 0.47639984 0.32619983 0.46609983 0.32449985 0.45599985 C 0.32699984 0.44109985 0.32979983 0.42659986 0.33229986 0.41179985 C 0.33299986 0.40829983 0.33339986 0.40439984 0.33449987 0.40149984 C 0.33639985 0.41839984 0.33679986 0.43599984 0.33759987 0.45329985 C 0.3383999 0.48129985 0.33649987 0.5103999 0.33059987 0.53509986 C 0.32739988 0.54769987 0.32269987 0.55919987 0.3164999 0.5627999 C 0.3110999 0.56589985 0.3051999 0.56449986 0.30029988 0.55809987 C 0.2945999 0.55049986 0.2907999 0.5369999 0.2886999 0.5225999 C 0.2855999 0.53929985 0.2815999 0.55509984 0.2764999 0.5686999 C 0.2770999 0.5903999 0.2777999 0.61199987 0.2781999 0.6336999 C 0.2784999 0.6578999 0.27589992 0.6815999 0.27289993 0.7043999 C 0.27139992 0.7141999 0.26999992 0.7240999 0.26819992 0.7335999 C 0.25209993 0.7960999 0.23079991 0.8513999 0.20529991 0.8926999 C 0.18859991 0.9199999 0.17009991 0.9410999 0.15069991 0.9549999 C 0.1405999 0.96199995 0.13019991 0.96769994 0.119599916 0.96949995 C 0.10869992 0.96989995 0.097599916 0.9664999 0.08749992 0.95699996 C 0.07789992 0.9482 0.06959992 0.932 0.06419992 0.9111999 C 0.04539992 0.9157999 0.026399918 0.91839993 0.0074999183 0.91849995 C 0.024399918 0.90409994 0.041099917 0.88859993 0.05749992 0.87149996 C 0.05309992 0.82069993 0.05669992 0.76829994 0.06219992 0.71879995 C 0.06559992 0.6888 0.06949992 0.6589999 0.07439992 0.63019997 C 0.07809992 0.60719997 0.079499915 0.5966 0.086599916 0.56939995 C 0.07919992 0.60029995 0.078099914 0.613 0.07479992 0.63499993 C 0.07039992 0.6686999 0.067199916 0.70359993 0.06619991 0.73889995 C 0.06529991 0.77769995 0.06639992 0.8184999 0.07409991 0.85359997 C 0.094399914 0.8311 0.11409991 0.80579996 0.13299991 0.7775 C 0.14899991 0.7531 0.16449991 0.7265 0.17859991 0.696 C 0.1852999 0.6814 0.19179991 0.66609997 0.19719991 0.64879996 C 0.19879991 0.6443 0.19799991 0.6378 0.19749992 0.63269997 C 0.19629991 0.62409997 0.19489992 0.6156 0.19349992 0.60709995 C 0.18389992 0.6162999 0.17369992 0.62259996 0.16329992 0.62249994 C 0.15759991 0.62289995 0.15179992 0.62029994 0.14689992 0.61319995 C 0.14269993 0.60709995 0.13959992 0.59699994 0.13829993 0.5857 C 0.13659993 0.57089996 0.13729993 0.5553 0.13839993 0.54029995 C 0.14009993 0.51869994 0.14339992 0.49709994 0.14979993 0.48069996 C 0.15429993 0.46929994 0.16019993 0.46049994 0.16679993 0.45819995 C 0.17419994 0.45829993 0.18119994 0.46689996 0.18649994 0.47879994 C 0.19319993 0.49399993 0.19789994 0.51369995 0.20139994 0.53389996 C 0.20799994 0.52479994 0.21439993 0.5139 0.21929994 0.49989995 C 0.22409995 0.48799995 0.22909994 0.47579995 0.23529994 0.46779996 C 0.23679994 0.46569997 0.23949994 0.46339995 0.24049994 0.46829996 C 0.24159995 0.47559994 0.24059995 0.48359996 0.23979995 0.49079996 C 0.23779994 0.5013 0.24019995 0.51329994 0.24319994 0.5214 C 0.24729994 0.53249997 0.25409994 0.53349996 0.25989994 0.5311 C 0.25389993 0.38399997 0.24769995 0.23689997 0.24169995 0.08989999 C 0.24159995 0.084999986 0.24069995 0.080499984 0.23989995 0.07599999 M 0.15779996 0.5276 C 0.15479995 0.5306 0.15109996 0.5351 0.15069996 0.54359996 C 0.15139996 0.54999995 0.15459996 0.552 0.15699996 0.5534 C 0.16469996 0.55689996 0.17269996 0.55689996 0.18029997 0.55329996 C 0.18019997 0.55259997 0.17989996 0.55139995 0.17969997 0.55069995 C 0.17569998 0.53989995 0.17059997 0.53069997 0.16449997 0.52799994 C 0.16229996 0.5271999 0.15989996 0.5256999 0.15769997 0.52769995 M 0.20799997 0.58779997 C 0.20879997 0.61779994 0.20699997 0.64809996 0.20299998 0.67649996 C 0.20149998 0.68639994 0.20019998 0.69689995 0.19729997 0.70509994 C 0.18299997 0.75029993 0.16469997 0.7871999 0.14529997 0.81969994 C 0.12809998 0.84819996 0.10989997 0.87349993 0.09079997 0.8945999 C 0.093999974 0.8983999 0.097499974 0.9013999 0.10099997 0.9031999 C 0.11049997 0.9081999 0.12029997 0.90549994 0.12979998 0.90229994 C 0.15959997 0.89169997 0.18769997 0.86079997 0.21179998 0.81859994 C 0.22779998 0.79059994 0.24239998 0.75799996 0.25519997 0.72179997 C 0.25949997 0.709 0.26469997 0.69649994 0.26569998 0.6796 C 0.2647 0.651 0.26329997 0.6224 0.26219997 0.5938 C 0.25559998 0.6001 0.24739997 0.6016 0.24139997 0.59110004 C 0.23409997 0.578 0.23129997 0.55570006 0.23019998 0.53510004 C 0.22389998 0.55520004 0.21649998 0.5734 0.20789997 0.5878 Z M 0.5728 0.035399973 C 0.57449996 0.028899973 0.576 0.021699972 0.5789 0.017599974 C 0.57479995 0.037099972 0.5706 0.056899972 0.5688 0.07849997 C 0.5681 0.087799974 0.5678 0.09909997 0.5711 0.10609997 C 0.573 0.10829997 0.5751 0.10959997 0.5772 0.10779997 C 0.5809 0.10579997 0.5827 0.09659997 0.5841 0.08909997 C 0.5845 0.09209997 0.5848 0.09519997 0.5843 0.09829997 C 0.583 0.11129998 0.5812 0.124799974 0.5772 0.13459997 C 0.5727 0.14599997 0.5636 0.13949996 0.5619 0.12479997 C 0.5604 0.111499965 0.5618 0.09759997 0.56340003 0.084699966 C 0.5658 0.067499965 0.5691 0.051099967 0.57280004 0.035299964 Z M 0.09929997 0.07189997 C 0.10329997 0.053599972 0.107099965 0.034999974 0.110999964 0.016599972 C 0.11729997 0.05569997 0.12229996 0.09609997 0.12579997 0.13709997 C 0.12599997 0.14459996 0.12519997 0.15199997 0.12489997 0.15949997 C 0.12199997 0.15029997 0.120299965 0.13929997 0.11739997 0.13019997 C 0.118999965 0.16109997 0.11959997 0.19219998 0.12059997 0.22319996 C 0.12179997 0.26329997 0.12279997 0.30339998 0.12389997 0.34339997 C 0.13259996 0.33999997 0.14029996 0.32779998 0.14559996 0.31129998 C 0.15349996 0.28649998 0.15689996 0.2553 0.15789996 0.22479999 C 0.15779996 0.18559998 0.15699996 0.14559999 0.15179996 0.10809999 C 0.15089996 0.100399986 0.14919996 0.09299999 0.14919996 0.08479999 C 0.14979996 0.06969999 0.15199997 0.05519999 0.15419996 0.04099999 C 0.15479995 0.03769999 0.15509996 0.03349999 0.15679996 0.03249999 C 0.15939996 0.05129999 0.16199996 0.070099995 0.16369995 0.089499995 C 0.16629995 0.119899996 0.16759996 0.15079999 0.16909996 0.1816 C 0.17009996 0.2002 0.17039996 0.2192 0.17239995 0.23750001 C 0.17499995 0.2621 0.18019995 0.286 0.18879995 0.3016 C 0.19529995 0.3133 0.20349994 0.3212 0.21179995 0.3181 C 0.21759994 0.3156 0.22349995 0.31010002 0.22749995 0.2996 C 0.22929995 0.2949 0.23059994 0.2881 0.22979994 0.28170002 C 0.22149993 0.23090002 0.21469994 0.17880002 0.20779994 0.12690002 C 0.20549995 0.10880002 0.20319994 0.090700015 0.20089994 0.07260002 C 0.20019995 0.06800002 0.20109995 0.06330002 0.20139994 0.05870002 C 0.20279993 0.044900022 0.20469993 0.031100022 0.20729993 0.018300023 C 0.21009994 0.021500023 0.21189994 0.027800024 0.21379994 0.033600025 C 0.21929994 0.052500024 0.22369994 0.07310003 0.22779994 0.09400003 C 0.22759993 0.09670003 0.22739993 0.09930003 0.22729994 0.10200003 C 0.22519994 0.09590003 0.22259994 0.09050003 0.21929994 0.08900003 C 0.21879995 0.09200003 0.21879995 0.09520003 0.21929994 0.09820003 C 0.22299995 0.12460003 0.22689994 0.15080003 0.23069994 0.17720003 C 0.23389994 0.20070003 0.23769994 0.23490003 0.23749994 0.24950004 C 0.23679994 0.27000004 0.23559994 0.29720002 0.23299994 0.31630003 C 0.23009993 0.33330002 0.22509994 0.35360003 0.21829994 0.36290002 C 0.21249995 0.37120003 0.20519994 0.37250003 0.19859993 0.3695 C 0.18989994 0.36540002 0.18249993 0.3521 0.17719993 0.3357 C 0.16969994 0.31260002 0.16509993 0.2848 0.16239993 0.25660002 C 0.16199993 0.25660002 0.16119993 0.2567 0.16079994 0.25680003 C 0.15829994 0.28520003 0.15439993 0.31320003 0.14839993 0.33860004 C 0.14299993 0.36130005 0.13559994 0.38280004 0.12539993 0.39370003 C 0.12719993 0.46400005 0.12909994 0.5343 0.13029993 0.6047 C 0.13049993 0.6394 0.12989992 0.67410004 0.12919992 0.7088 C 0.12919992 0.7135 0.12839992 0.71790004 0.12769993 0.7223 C 0.12569992 0.7373 0.123599924 0.75229996 0.12129993 0.7672 C 0.12089993 0.7697 0.12049993 0.7721 0.11979993 0.7742 C 0.11949993 0.70790005 0.117099926 0.64180005 0.115299925 0.57570004 C 0.113599926 0.51750004 0.11189993 0.45930004 0.11019993 0.40110004 C 0.10199993 0.40070003 0.09359993 0.39500004 0.08749993 0.38130003 C 0.08049993 0.36590004 0.07689993 0.34370002 0.07509993 0.32190004 C 0.07359993 0.30250004 0.07329993 0.28260005 0.07389993 0.26300004 C 0.07529993 0.23740004 0.07809993 0.21230003 0.080699936 0.18730004 C 0.081099935 0.18280004 0.08129994 0.17810003 0.08089994 0.17360005 C 0.080699936 0.17200005 0.08059994 0.17000005 0.079799935 0.16960005 C 0.07859994 0.16920005 0.07769994 0.17140006 0.07679994 0.17320006 C 0.07219993 0.18370005 0.069199935 0.19740006 0.066599935 0.21100006 C 0.061599936 0.23920006 0.058699936 0.26930004 0.057099935 0.29950005 C 0.055799935 0.31950006 0.053899936 0.33930004 0.050699934 0.35820004 C 0.048199933 0.37220004 0.045099936 0.38660005 0.039599933 0.39530003 C 0.034999933 0.40290004 0.028799932 0.40200004 0.023699932 0.39760002 C 0.017299931 0.39190003 0.012699932 0.3783 0.010299932 0.36350003 C 0.0060999324 0.33800003 0.0057999324 0.31020004 0.0060999324 0.28320003 C 0.0066999323 0.25160003 0.008599932 0.22010002 0.011499932 0.18920003 C 0.011999932 0.18890002 0.012599932 0.18870004 0.013199932 0.18840003 C 0.010799931 0.22390004 0.008899932 0.25980002 0.009999932 0.2957 C 0.010499932 0.3113 0.011699932 0.32700002 0.014499932 0.3413 C 0.016899932 0.3535 0.021099932 0.3644 0.026599932 0.3684 C 0.031299934 0.3718 0.03689993 0.3716 0.040899932 0.36400002 C 0.045299932 0.35570002 0.047299933 0.34280002 0.048899934 0.3305 C 0.052699935 0.2994 0.054099932 0.2669 0.057899933 0.23590001 C 0.061699934 0.2055 0.06679993 0.17590001 0.07309993 0.14800002 C 0.07679994 0.13350001 0.080699936 0.11940002 0.08539993 0.106500015 C 0.086799935 0.10310002 0.088099934 0.09830002 0.090299934 0.098200016 C 0.09149993 0.10000002 0.09109993 0.10400002 0.09109993 0.10680002 C 0.09049993 0.12080002 0.090399936 0.13510002 0.08869993 0.14870003 C 0.08549993 0.17650002 0.08329993 0.20490003 0.08089993 0.23320003 C 0.079299934 0.25520003 0.07879993 0.27870002 0.082399935 0.29980004 C 0.084999934 0.31590003 0.090399936 0.32900003 0.096999936 0.33620003 C 0.10059994 0.34020004 0.104399934 0.34260002 0.10829993 0.34400004 C 0.10609993 0.26550004 0.10369993 0.18700004 0.10149993 0.10850005 C 0.10099993 0.09630005 0.10129993 0.083700046 0.09929993 0.07210004 Z M 0.96729994 0.07219997 C 0.9707999 0.05239997 0.97409993 0.03239997 0.9775999 0.012699969 C 0.9829999 0.055299968 0.9883999 0.09799997 0.99279994 0.14129996 C 0.99349993 0.14869997 0.99429995 0.15609996 0.99469995 0.16369995 C 0.99419993 0.16969995 0.99349993 0.17559996 0.9934 0.18179995 C 0.99149996 0.17289995 0.9895 0.16409995 0.98749995 0.15529995 C 0.98999995 0.26589996 0.993 0.37649995 0.9963 0.48699993 C 0.99729997 0.5224999 0.9988 0.5579999 0.99939996 0.5935999 C 1.0004 0.6595999 0.99939996 0.7269999 0.99099994 0.7903999 C 0.98779994 0.8132999 0.98379993 0.8356999 0.9786999 0.8564999 C 0.9717999 0.8834999 0.96159995 0.9046999 0.9502999 0.9210999 C 0.9301999 0.9496999 0.90729994 0.9645999 0.8843999 0.9737999 C 0.8830999 0.9748999 0.8825999 0.9712999 0.8817999 0.96969986 C 0.90219986 0.94629985 0.92189986 0.91889983 0.94019985 0.88709986 C 0.9493998 0.87079984 0.95839983 0.85359985 0.96609986 0.8333999 C 0.9748999 0.8097999 0.98159987 0.7812999 0.98469985 0.7503999 C 0.98799986 0.7192999 0.98689985 0.6869999 0.98609984 0.6553999 C 0.9841998 0.5824999 0.98179984 0.50969994 0.97979987 0.4367999 C 0.9766999 0.3244999 0.9734999 0.21219991 0.97039986 0.0997999 C 0.96969986 0.0918999 0.9676999 0.0850999 0.96669984 0.077499904 C 0.96639985 0.0755999 0.9669998 0.0738999 0.96719986 0.0721999 Z M 0.9154999 0.09149997 C 0.92739993 0.06169997 0.93899995 0.031099968 0.95049995 2.9996783E-4 C 0.951 0.027999967 0.94499993 0.053499967 0.93829995 0.07509997 C 0.93469995 0.087699965 0.92969996 0.09709997 0.92509997 0.107599966 C 0.92289996 0.112299964 0.9208 0.11709996 0.9187 0.121999964 C 0.91929996 0.12939997 0.9202 0.13669996 0.9206 0.14419997 C 0.9204 0.15119997 0.92 0.15809996 0.9196 0.16509996 C 0.917 0.15549996 0.9152 0.14479996 0.91220003 0.13579996 C 0.9135 0.16719995 0.91410005 0.19879997 0.915 0.23029995 C 0.91730005 0.32279995 0.91940004 0.41529995 0.9214 0.5078 C 0.9213 0.51019996 0.9222 0.5117 0.9227 0.51339996 C 0.93119997 0.5358 0.9397 0.5584 0.9476 0.58189994 C 0.9539 0.60159993 0.9598 0.62209994 0.9648 0.64369994 C 0.9714 0.67209995 0.9766 0.7027999 0.9781 0.7351999 C 0.9789 0.7555999 0.9785 0.77659994 0.9757 0.7960999 C 0.97080004 0.7425999 0.9617 0.6939999 0.9512 0.6602999 C 0.9423 0.6315999 0.9326 0.6033999 0.9228 0.5764999 C 0.9235 0.6094999 0.9242 0.64249986 0.9247 0.67549986 C 0.92520005 0.71809983 0.9246 0.76059985 0.92380005 0.8031999 C 0.92380005 0.81129986 0.92230004 0.8185999 0.9215 0.8262999 C 0.9192 0.8435999 0.9174 0.86129993 0.91440004 0.8779999 C 0.9139 0.8386999 0.91340005 0.7993999 0.91240007 0.7601999 C 0.91060007 0.6898999 0.90870005 0.6196999 0.90700006 0.5493999 C 0.9067001 0.5438999 0.90690005 0.5381999 0.9064001 0.5327999 C 0.8999001 0.5148999 0.89300007 0.4980999 0.8862001 0.4807999 C 0.87430006 0.45139992 0.8623001 0.4221999 0.84990007 0.3941999 C 0.85230005 0.4675999 0.8547001 0.5409999 0.8569001 0.6143999 C 0.85780007 0.6476999 0.8591001 0.6810999 0.8592001 0.7144999 C 0.8594001 0.7435999 0.8592001 0.7726999 0.85900015 0.8017999 C 0.85900015 0.8200999 0.85910016 0.8390999 0.85640013 0.85659987 C 0.8523001 0.8781999 0.8451001 0.89629984 0.83630013 0.9073999 C 0.82950014 0.9159999 0.82170016 0.9205999 0.8140001 0.9207999 C 0.8088001 0.9210999 0.80360013 0.9177999 0.7989001 0.9120999 C 0.79080015 0.9012999 0.78500015 0.8827999 0.7813001 0.8628999 C 0.77880013 0.8491999 0.7769001 0.83469987 0.7759001 0.8198999 C 0.77530015 0.8133999 0.7747001 0.8058999 0.7723001 0.8018999 C 0.7704001 0.79879993 0.7680001 0.8012999 0.7662001 0.8033999 C 0.76160014 0.8091999 0.7572001 0.81609994 0.7539001 0.8256999 C 0.7431001 0.85639995 0.7380001 0.8955999 0.7348001 0.9341999 C 0.7332001 0.95079994 0.7308001 0.96739995 0.7264001 0.9810999 C 0.7232001 0.9908999 0.71870005 1.0002999 0.71340007 1.0005 C 0.7092001 1.0007 0.7052001 0.99649996 0.70140004 0.99209994 C 0.69310004 0.98179996 0.68740004 0.96279997 0.684 0.94249994 C 0.68310004 0.93709993 0.68200004 0.93259996 0.68020004 0.91339993 C 0.6783 0.89269996 0.6776 0.86129993 0.67840004 0.82939994 C 0.67880005 0.82629997 0.67740005 0.82519996 0.67670006 0.8234999 C 0.67380005 0.81749994 0.67260003 0.8079999 0.67260003 0.7989999 C 0.6725 0.76609993 0.67450005 0.73269993 0.6804 0.7025999 C 0.6851 0.6777999 0.6922 0.65609986 0.6991 0.6344999 C 0.6997 0.6321999 0.7009 0.6302999 0.7012 0.6275999 C 0.6969 0.6159999 0.6924 0.60479987 0.6878 0.5937999 C 0.6852 0.5865999 0.682 0.5807999 0.67939997 0.5735999 C 0.66969997 0.54869986 0.66019994 0.52349985 0.6507 0.49829987 C 0.65159994 0.5351999 0.6523 0.57209986 0.65309995 0.60909986 C 0.65369993 0.6432999 0.6547 0.6774999 0.65449995 0.71169984 C 0.65449995 0.74219984 0.6539999 0.77269983 0.65339994 0.8031998 C 0.65339994 0.81079984 0.65209997 0.8178998 0.65129995 0.8250998 C 0.6489999 0.8428998 0.64689994 0.8609998 0.64409995 0.8784998 C 0.6435999 0.8639998 0.6439 0.8494998 0.6435 0.8349998 C 0.64239997 0.7627998 0.64009994 0.69079983 0.63839996 0.6187998 C 0.63699996 0.5636998 0.6357 0.5084998 0.6342 0.4533998 C 0.6279 0.43479982 0.62119997 0.4166998 0.6149 0.3978998 C 0.6076 0.3759998 0.6003 0.3538998 0.5941 0.3298998 C 0.58529997 0.29229978 0.5754 0.25579977 0.5632 0.2237998 C 0.5625 0.2221998 0.5627 0.21989979 0.5627 0.2178998 C 0.5631 0.19719979 0.5635 0.1764998 0.5639 0.1558998 C 0.5726 0.1692998 0.5809 0.1841998 0.5888 0.1999998 C 0.595 0.2125998 0.60080004 0.22619979 0.60580003 0.2414998 C 0.60840005 0.2486998 0.6108 0.2579998 0.60990006 0.2678998 C 0.60700005 0.26509982 0.6039001 0.26289982 0.60120004 0.2593998 C 0.60010004 0.2578998 0.5989 0.2569998 0.59760004 0.2565998 C 0.59740007 0.26239982 0.59910005 0.26689982 0.6003 0.2714998 C 0.60940003 0.30299982 0.61880004 0.3337998 0.6285 0.3640998 C 0.6297 0.3679998 0.6311 0.3716998 0.6321 0.3760998 C 0.6315 0.3404998 0.6303 0.3048998 0.6295 0.2692998 C 0.6281 0.2142998 0.6267 0.15939981 0.6253 0.1043998 C 0.625 0.0961998 0.6252 0.0876998 0.6238 0.079999804 C 0.6231 0.076899804 0.62409997 0.0740998 0.62469995 0.07139981 C 0.62799996 0.05609981 0.63119996 0.04069981 0.63439995 0.025299806 C 0.6345999 0.024199806 0.6352999 0.021399807 0.63549995 0.024099806 C 0.64149994 0.060999803 0.6460999 0.09909981 0.64959997 0.13769981 C 0.6507 0.1469998 0.6494 0.15639982 0.649 0.16559981 C 0.6468 0.15509981 0.64419997 0.1449998 0.6418 0.13489981 C 0.645 0.2313998 0.6468 0.3281998 0.64919996 0.42489982 C 0.6508 0.4312998 0.6533 0.43639982 0.65519994 0.44219983 C 0.67419994 0.49409983 0.6938 0.5444998 0.71349996 0.5947998 C 0.72809994 0.5562998 0.74289995 0.5179998 0.75769997 0.47989982 C 0.75829995 0.47849983 0.75879997 0.47679982 0.75859994 0.47459984 C 0.75409997 0.35439983 0.74969995 0.23419984 0.7451999 0.11409983 C 0.74459994 0.101999834 0.7447999 0.08939983 0.7428999 0.07789983 C 0.7465999 0.059299827 0.7505999 0.04099983 0.7541999 0.022399828 C 0.7561999 0.03219983 0.75759995 0.04269983 0.7590999 0.05289983 C 0.7627999 0.07839983 0.7659999 0.10429983 0.7684999 0.13059983 C 0.76899993 0.13649982 0.7698999 0.14249983 0.7694999 0.14859983 C 0.7691999 0.15409984 0.7688999 0.15969983 0.7686999 0.16519983 C 0.7662999 0.15539983 0.76389986 0.14549983 0.7614999 0.13569984 C 0.76499987 0.23249984 0.7684999 0.35439986 0.7716999 0.44419983 C 0.7870999 0.40549982 0.8022999 0.36639982 0.8176999 0.3278998 C 0.8193999 0.32329983 0.8212999 0.3191998 0.82289994 0.3143998 C 0.81539994 0.29039982 0.8083999 0.26559982 0.80139995 0.24079981 C 0.79899997 0.23259981 0.79709995 0.22369981 0.7947999 0.21529981 C 0.78989995 0.19729981 0.78489995 0.17909981 0.7781999 0.1645998 C 0.77759993 0.14119981 0.77729994 0.1177998 0.77689993 0.0943998 C 0.79269993 0.1270998 0.80869997 0.1590998 0.82399994 0.19299981 C 0.82549995 0.1960998 0.82659996 0.19989981 0.8274999 0.2041998 C 0.82609993 0.16769981 0.8248999 0.1310998 0.82359993 0.094499804 C 0.82339996 0.091099806 0.8234999 0.08759981 0.82289994 0.084499806 C 0.82249993 0.081299804 0.8213999 0.077799805 0.82229996 0.0745998 C 0.82589996 0.0568998 0.8293 0.038999803 0.8328999 0.021299802 C 0.8391999 0.0564998 0.84409994 0.0930998 0.8478999 0.1301998 C 0.8482999 0.1353998 0.8492999 0.1404998 0.8489999 0.1458998 C 0.8486999 0.1517998 0.8484999 0.15779981 0.8482999 0.1636998 C 0.8460999 0.15499981 0.8438999 0.14619981 0.8416999 0.13749981 C 0.8412999 0.13609982 0.8409999 0.1346998 0.8405999 0.13329981 C 0.84259987 0.17509982 0.8438999 0.21709982 0.8454999 0.25899982 C 0.8569999 0.22989982 0.8688999 0.20159982 0.8807999 0.17339982 C 0.8860999 0.16149983 0.8915999 0.14999983 0.8966999 0.13749982 C 0.8961999 0.121299826 0.8958999 0.104999825 0.8953999 0.08879982 C 0.8952999 0.08369982 0.89329994 0.07849982 0.89469993 0.07349982 C 0.8984999 0.05649982 0.90199995 0.03919982 0.90559995 0.02189982 C 0.9097 0.04439982 0.91249996 0.06809982 0.9154999 0.09149982 M 0.8467999 0.2951998 C 0.8469999 0.3017998 0.8471999 0.3082998 0.8474999 0.3148998 C 0.8512999 0.3258998 0.8550999 0.3367998 0.8589999 0.3473998 C 0.8740999 0.38789982 0.88969994 0.4271998 0.9050999 0.4671998 C 0.90269995 0.3682998 0.90009993 0.26939982 0.89769995 0.1704998 C 0.88039994 0.2112998 0.86349994 0.2528998 0.84679997 0.2952998 M 0.8142 0.2055998 C 0.819 0.22359979 0.82409996 0.24129981 0.82949996 0.25839978 C 0.82909995 0.24249978 0.82839996 0.22669978 0.8278 0.21089979 C 0.8275 0.21229978 0.8272 0.21369979 0.8269 0.21509978 C 0.8232 0.20879978 0.81880003 0.20379978 0.8142 0.20559978 M 0.78319997 0.4613998 C 0.7801 0.4701998 0.77659994 0.47819978 0.7736 0.4872998 C 0.7743 0.5152998 0.7758 0.5432998 0.77669996 0.5712998 C 0.7772 0.6175998 0.7739 0.6667998 0.76189995 0.70469975 C 0.76219994 0.6986998 0.7620999 0.6925998 0.7620999 0.6864998 C 0.7620999 0.6656998 0.7624999 0.6448998 0.7623999 0.6240998 C 0.7623999 0.60419977 0.7624999 0.6054998 0.76219994 0.5642998 C 0.7620999 0.5470998 0.76119995 0.5333998 0.7605999 0.52129984 C 0.7563999 0.53179985 0.7523999 0.54279983 0.74819994 0.55329984 C 0.73999995 0.5750998 0.7311999 0.59569985 0.72279996 0.6170998 C 0.73139995 0.6389998 0.73669994 0.66779983 0.73809993 0.69739985 C 0.7394999 0.72889984 0.7361999 0.76239985 0.72749996 0.7869998 C 0.71979994 0.8084998 0.70879996 0.82199985 0.69729996 0.8282998 C 0.69189996 0.8310998 0.68619996 0.83309984 0.68079996 0.82879984 C 0.68149996 0.8419998 0.6823 0.8551998 0.6834 0.86829984 C 0.6853 0.89029986 0.6878 0.91259986 0.6928 0.93199986 C 0.6954 0.94189984 0.69909996 0.9514999 0.7041 0.9543999 C 0.7094 0.95749986 0.7149 0.9510999 0.71860003 0.94239986 C 0.72190005 0.9352999 0.7235 0.92499983 0.7249 0.91509986 C 0.7291 0.88619983 0.7306 0.85509986 0.73620003 0.82729983 C 0.7401 0.80519986 0.7451 0.7837998 0.7523 0.7667998 C 0.75600004 0.75759983 0.76030004 0.74969983 0.7648 0.7426998 C 0.7679 0.7382998 0.7717 0.7345998 0.7753 0.7371998 C 0.7788 0.73959976 0.78110003 0.7468998 0.7827 0.7541998 C 0.7864 0.7706998 0.7873 0.7895998 0.7903 0.8067998 C 0.7925 0.8209998 0.7953 0.8353998 0.8004 0.84499985 C 0.80560005 0.85469985 0.81240004 0.85759985 0.81880003 0.8569999 C 0.83000004 0.8558999 0.8485 0.8340999 0.84940004 0.8279999 C 0.85040003 0.8215999 0.8478 0.7733999 0.8468 0.7461999 C 0.84190005 0.6129999 0.83720005 0.4797999 0.83250004 0.3465999 C 0.83230007 0.34289992 0.83100003 0.3404999 0.83030003 0.3372999 C 0.81420004 0.3779999 0.79870003 0.41979992 0.78300005 0.4612999 M 0.70980006 0.6523999 C 0.70640004 0.6615999 0.70330006 0.6711999 0.70010006 0.6807999 C 0.6941001 0.7000999 0.68810004 0.7194999 0.68360007 0.7410999 C 0.68250006 0.7465999 0.6815001 0.7533999 0.6827001 0.7591999 C 0.6842001 0.7651999 0.6875001 0.76609993 0.6902001 0.76609993 C 0.7020001 0.7649999 0.7130001 0.7523999 0.7226001 0.73679996 C 0.7258001 0.733 0.7288001 0.7247 0.7276001 0.7157 C 0.7260001 0.7036 0.7230001 0.69289994 0.7201001 0.6824 C 0.7170001 0.6721 0.71380013 0.662 0.7104001 0.6524 C 0.71020013 0.6524 0.7099001 0.65250003 0.7098001 0.65250003 Z"/>
</defs>
<g>
<rect x="0" y="0" width="480" height="360" class="white"/>
<use xlink:href="#shahada" transform="translate(48 111.4286) scale(384 137.1429) rotate(0)" class="black"/>
</g>
</svg>
