<?xml version="1.0"?>
<svg xmlns="http://www.w3.org/2000/svg" xmlns:xlink="http://www.w3.org/1999/xlink" version="1.1" width="480" height="360" viewBox="0 0 480 360">
<!-- Generated by Kreative Vexillo v1.0 -->
<style>
.blue{fill:rgb(0,43,127);}
.red{fill:rgb(232,17,45);}
.white{fill:rgb(255,255,255);}
</style>
<defs>
<path id="star5" d="M 0.0 -1.0 L 0.261238 -0.359563 L 0.951057 -0.309017 L 0.422691 0.137341 L 0.587785 0.809017 L 0.0 0.444444 L -0.587785 0.809017 L -0.422691 0.137341 L -0.951057 -0.309017 L -0.261238 -0.359563 Z"/>
<path id="star7" d="M 0.0 -1.0 L 0.192837 -0.40043 L 0.781831 -0.62349 L 0.433301 -0.098898 L 0.974928 0.222521 L 0.34748 0.277106 L 0.433884 0.900969 L 0.0 0.444444 L -0.433884 0.900969 L -0.34748 0.277106 L -0.974928 0.222521 L -0.433301 -0.098898 L -0.781831 -0.62349 L -0.192837 -0.40043 Z"/>
<clipPath id="clip0">
<path d="M 0 0 L 0 15 L 0 15 L 100 90 L 0 165 L 0 165 L 0 180 L 20 180 L 120 105 L 120 105 L 220 180 L 240 180 L 240 165 L 140 90 L 240 15 L 240 0 L 220 0 L 120 75 L 120 75 L 120 75 L 120 75 L 120 75 L 120 75 L 20 0 Z"/>
</clipPath>
</defs>
<g>
<rect x="0" y="0" width="480" height="360" class="blue"/>
<g>
<path d="M 0 0 L 0 22.5 L 0 22.5 L 90 90 L 0 157.5 L 0 157.5 L 0 180 L 30 180 L 120 112.5 L 120 112.5 L 210 180 L 240 180 L 240 157.5 L 150 90 L 240 22.5 L 240 0 L 210 0 L 120 67.5 L 120 67.5 L 30 0 Z" class="white"/>
<g clip-path="url(#clip0)">
<path d="M 0 0 L 120 90 L 0 90 Z" class="red"/>
<path d="M 240 0 L 120 90 L 120 0 Z" class="red"/>
<path d="M 0 180 L 120 90 L 120 180 Z" class="red"/>
<path d="M 240 180 L 120 90 L 240 90 Z" class="red"/>
</g>
<g>
<rect x="0" y="60" width="240" height="60" class="white"/>
<rect x="90" y="0" width="60" height="180" class="white"/>
</g>
<g>
<rect x="0" y="72" width="240" height="36" class="red"/>
<rect x="102" y="0" width="36" height="180" class="red"/>
</g>
</g>
<g>
<use xlink:href="#star7" transform="translate(120 270) scale(36 36) rotate(0)" class="white"/>
<use xlink:href="#star7" transform="translate(360 300) scale(17.1429 17.1429) rotate(0)" class="white"/>
<use xlink:href="#star7" transform="translate(300 157.5) scale(17.1429 17.1429) rotate(0)" class="white"/>
<use xlink:href="#star7" transform="translate(360 60) scale(17.1429 17.1429) rotate(0)" class="white"/>
<use xlink:href="#star7" transform="translate(413.3333 133.5) scale(17.1429 17.1429) rotate(0)" class="white"/>
<use xlink:href="#star5" transform="translate(384 195) scale(10 10) rotate(0)" class="white"/>
</g>
</g>
</svg>
