<?xml version="1.0"?>
<svg xmlns="http://www.w3.org/2000/svg" xmlns:xlink="http://www.w3.org/1999/xlink" version="1.1" width="480" height="360" viewBox="0 0 480 360">
<!-- Generated by Kreative Vexillo v1.0 -->
<style>
.blue{fill:rgb(0,35,149);}
.white{fill:rgb(255,255,255);}
.yellow{fill:rgb(254,203,0);}
</style>
<defs>
<path id="star" d="M 0.0 -1.0 L 0.2245 -0.309 L 0.9511 -0.309 L 0.3633 0.118 L 0.5878 0.809 L 0.0 0.382 L -0.5878 0.809 L -0.3633 0.118 L -0.9511 -0.309 L -0.2245 -0.309 Z"/>
</defs>
<g>
<rect x="0" y="0" width="480" height="360" class="blue"/>
<path d="M 92.4 0 L 452.4 0 L 452.4 360 Z" class="yellow"/>
<g>
<use xlink:href="#star" transform="translate(27.6 -3.8232) scale(32.4 32.4) rotate(0)" class="white"/>
<use xlink:href="#star" transform="translate(72.6 41.1768) scale(32.4 32.4) rotate(0)" class="white"/>
<use xlink:href="#star" transform="translate(117.6 86.1768) scale(32.4 32.4) rotate(0)" class="white"/>
<use xlink:href="#star" transform="translate(162.6 131.1768) scale(32.4 32.4) rotate(0)" class="white"/>
<use xlink:href="#star" transform="translate(207.6 176.1768) scale(32.4 32.4) rotate(0)" class="white"/>
<use xlink:href="#star" transform="translate(252.6 221.1768) scale(32.4 32.4) rotate(0)" class="white"/>
<use xlink:href="#star" transform="translate(297.6 266.1768) scale(32.4 32.4) rotate(0)" class="white"/>
<use xlink:href="#star" transform="translate(342.6 311.1768) scale(32.4 32.4) rotate(0)" class="white"/>
<use xlink:href="#star" transform="translate(387.6 356.1768) scale(32.4 32.4) rotate(0)" class="white"/>
</g>
</g>
</svg>
