<?xml version="1.0"?>
<svg xmlns="http://www.w3.org/2000/svg" xmlns:xlink="http://www.w3.org/1999/xlink" version="1.1" width="480" height="360" viewBox="0 0 480 360">
<!-- Generated by Kreative Vexillo v1.0 -->
<style>
.blue{fill:rgb(80,145,205);}
.green{fill:rgb(84,185,72);}
.red{fill:rgb(239,62,66);}
.yellow{fill:rgb(255,196,37);}
</style>
<defs>
<path id="wreath" d="M -0.0658 0.3972 C -0.1018 0.4071 -0.1225 0.4351 -0.12200001 0.4615 L 0.055399984 0.4608 C 0.056999985 0.4325 0.033699982 0.4062 -0.0018000156 0.39589998 C 0.17189999 0.39229998 0.32269996 0.32729998 0.35009998 0.2855 C 0.32299998 0.2737 0.2916 0.2927 0.26919997 0.28829998 C 0.32229996 0.26379997 0.48139995 0.16079998 0.45549995 0.050399974 C 0.43539995 0.11169997 0.37449995 0.16239998 0.34859994 0.17599997 C 0.40799993 0.08579997 0.48919994 -0.0082000345 0.41879994 -0.08090004 C 0.42239994 -0.038700044 0.39199993 0.007699959 0.37859994 0.011099957 C 0.41309994 -0.08420004 0.44599995 -0.20390004 0.37129995 -0.28280005 C 0.38109994 -0.25430006 0.37709996 -0.17380005 0.36359996 -0.17020005 C 0.35939994 -0.23500004 0.34839997 -0.37140006 0.28009996 -0.36940005 C 0.30179995 -0.35010004 0.31129995 -0.29740006 0.31179994 -0.24420005 C 0.29619995 -0.28070006 0.27859995 -0.30810004 0.24069995 -0.33500004 C 0.21009995 -0.39370003 0.15569994 -0.44230002 0.10119994 -0.47710004 C 0.10729994 -0.43440005 0.112399936 -0.40070003 0.17199993 -0.35640004 C 0.14089993 -0.35830003 0.10979994 -0.41730005 0.07659993 -0.41890004 C 0.050199933 -0.42020005 0.029399931 -0.39500004 -0.01380007 -0.40950003 C -0.009000069 -0.39520004 0.011099931 -0.38890004 0.015399931 -0.37840003 C 0.006099931 -0.37200004 -0.015800068 -0.3794 -0.03410007 -0.38890004 C -0.00900007 -0.35470003 0.029899932 -0.33460003 0.06299993 -0.34140003 C 0.10229993 -0.34900004 0.14439993 -0.34500003 0.18459994 -0.3221 C 0.17429994 -0.31680003 0.13439994 -0.3169 0.108799934 -0.3201 C 0.13209993 -0.2965 0.14769994 -0.2809 0.18819994 -0.2811 C 0.22439994 -0.2813 0.24339993 -0.30040002 0.25259995 -0.2886 C 0.27529997 -0.2617 0.29059994 -0.2348 0.30959997 -0.2032 C 0.26769996 -0.1986 0.28029996 -0.2506 0.23359996 -0.2773 C 0.20739996 -0.223 0.26379997 -0.1586 0.30219996 -0.1318 C 0.30269995 -0.09099999 0.30869997 -0.056799993 0.32599998 -0.025699995 C 0.33769998 -0.0037999954 0.35279998 0.018600006 0.34709996 0.068100005 C 0.32409996 0.051400006 0.30159995 -0.005099997 0.30989996 -0.049999997 C 0.28109995 -0.0422 0.26989996 0.008400004 0.28339997 0.0339 C 0.29349998 0.0533 0.30029997 0.090399995 0.28859997 0.107 C 0.27719995 0.1225 0.27599996 0.1207 0.27619997 0.1539 C 0.27659997 0.17379999 0.26549998 0.1972 0.24749997 0.2136 C 0.25129998 0.1996 0.25559998 0.17559999 0.25139996 0.16049999 C 0.23709996 0.18469998 0.20129997 0.20979999 0.18999997 0.2358 C 0.17889997 0.2619 0.17609997 0.3071 0.122499965 0.3175 C 0.053499967 0.3312 0.029699966 0.34309998 -0.014600031 0.3613 C -0.019500032 0.3276 -0.004800031 0.2573 0.023399968 0.2613 C 0.050899968 0.2662 0.13429996 0.2326 0.104499966 0.16229999 C 0.09859996 0.1845 0.078899965 0.20609999 0.057699967 0.20699999 C 0.080699965 0.17719999 0.12159997 0.14639999 0.10169996 0.096399985 C 0.09059996 0.11759999 0.073199965 0.1431 0.046699964 0.15739998 C 0.07509996 0.102999985 0.049999963 0.08679998 0.016299963 0.13149998 C 0.0035999632 0.14879997 -0.0041000377 0.18339998 -0.012200037 0.22739998 C -0.025400037 0.19159998 -0.024600036 0.14459997 -0.04020004 0.106399976 C -0.05660004 0.06509998 -0.01850004 0.054199975 -5.0003827E-4 0.057499975 C 0.043399964 0.06919997 0.11679996 0.06919997 0.11139996 -0.003300026 C 0.09239996 0.021199973 0.059199963 0.028799973 0.02319996 0.019999973 C 0.06349996 -0.009500027 0.09539996 -0.064900026 0.05039996 -0.09380002 C 0.04889996 -0.063100025 0.025199959 -0.028700024 -0.0065000392 -0.012900025 C -0.01390004 -0.038800023 -0.01390004 -0.06630002 -0.0076000392 -0.09640002 C -0.025300039 -0.07780002 -0.03820004 -0.039000023 -0.04850004 0.0050999746 C -0.049300037 -0.038500026 -0.04100004 -0.06990003 -0.03490004 -0.09330002 C -0.025600038 -0.12750003 -0.0026000403 -0.105300024 0.032599963 -0.102700025 C 0.06649996 -0.10080002 0.113299966 -0.119500026 0.10429996 -0.16560003 C 0.09269996 -0.14740004 0.06889996 -0.14030004 0.04459996 -0.14220004 C 0.07389996 -0.15990004 0.12489997 -0.19140004 0.09689996 -0.23990004 C 0.08519996 -0.22150004 0.08129996 -0.20580004 0.047299955 -0.20020004 C 0.056199953 -0.22070004 0.057699956 -0.24960004 0.084099956 -0.26110002 C 0.036999956 -0.27050003 0.010099955 -0.23960002 -0.003600046 -0.19120002 C -0.009200046 -0.22470002 -0.015800046 -0.23710002 -0.017100047 -0.26160002 C 0.008299952 -0.2899 0.010999953 -0.3452 -0.044100046 -0.35750002 C -0.047400046 -0.32900003 -0.046400048 -0.3222 -0.040100046 -0.29900002 C -0.066000044 -0.31440002 -0.10240005 -0.32280004 -0.12670004 -0.30110002 C -0.11030004 -0.28340003 -0.08480004 -0.26770002 -0.04560004 -0.28710002 C -0.054900043 -0.25680003 -0.07900004 -0.26200002 -0.11210004 -0.27350003 C -0.09190004 -0.23550002 -0.06630004 -0.22870003 -0.03810004 -0.23310003 C -0.02330004 -0.19420002 -0.022700042 -0.16460003 -0.06580004 -0.108000025 C -0.063800044 -0.14320002 -0.06630004 -0.16940002 -0.09430004 -0.19790003 C -0.118300036 -0.22140002 -0.13780004 -0.19690003 -0.10030004 -0.14470002 C -0.12300004 -0.16140002 -0.14880005 -0.19540003 -0.15650004 -0.22940002 C -0.16400003 -0.18740003 -0.15720004 -0.13800003 -0.13400003 -0.11030003 C -0.14500004 -0.09860003 -0.15750003 -0.111500025 -0.17600003 -0.14030002 C -0.16900003 -0.048400022 -0.12980002 -0.030600019 -0.07710003 -0.051100023 C -0.07560003 -6.0002133E-4 -0.07560003 0.046099976 -0.07260003 0.10699997 C -0.10330003 0.062799975 -0.14230004 0.029799968 -0.16400003 0.02159997 C -0.17070003 0.04629997 -0.14530003 0.07849997 -0.13100004 0.09649997 C -0.15270004 0.09199997 -0.19990003 0.055999972 -0.19990003 0.055999972 C -0.20460004 0.09699997 -0.15170003 0.13489997 -0.11750003 0.15189996 C -0.15770003 0.15019996 -0.17550004 0.13489996 -0.20140003 0.10989997 C -0.20090003 0.22349997 -0.07830003 0.20379996 -0.055300027 0.18629996 C -0.05230003 0.24229997 -0.048000026 0.30689996 -0.045000028 0.36289996 C -0.07970002 0.35689995 -0.07690003 0.34639996 -0.10660003 0.34369996 C -0.18890002 0.34049997 -0.25420004 0.24489996 -0.27590004 0.17449996 C -0.28210002 0.18609996 -0.27720004 0.19819996 -0.28290004 0.21239996 C -0.29630002 0.17789996 -0.31330004 0.13329996 -0.33620003 0.11249996 C -0.33040002 0.13259996 -0.32980004 0.15309995 -0.33180004 0.19069996 C -0.33970004 0.16629997 -0.34700003 0.15889996 -0.34750006 0.13019997 C -0.34700006 0.10819997 -0.32630005 0.09199997 -0.32750005 0.06109997 C -0.32830006 0.038499966 -0.34890005 -0.0104000345 -0.35190004 -0.048200034 C -0.36190003 -0.009200033 -0.36810005 0.031799965 -0.38340005 0.055899963 C -0.37580004 0.014299963 -0.37820005 -0.014400035 -0.36540005 -0.04240004 C -0.35060003 -0.07190004 -0.33800006 -0.09820004 -0.34780005 -0.12790003 C -0.35730004 -0.11640003 -0.35400003 -0.106000036 -0.37780005 -0.07810003 C -0.38300005 -0.10850003 -0.34710005 -0.15700004 -0.31220004 -0.17660004 C -0.28760004 -0.18950003 -0.25670004 -0.23590004 -0.27680004 -0.26760003 C -0.29990003 -0.25100002 -0.31030005 -0.22860003 -0.34290004 -0.19030003 C -0.31960005 -0.28130004 -0.25910002 -0.30510002 -0.18670003 -0.3054 C -0.17070003 -0.3055 -0.13840003 -0.3113 -0.12930003 -0.3325 C -0.14970003 -0.3246 -0.17390002 -0.32360002 -0.19530003 -0.32790002 C -0.17970003 -0.35090002 -0.14670002 -0.34790003 -0.11610003 -0.34800002 C -0.09200003 -0.3481 -0.05450003 -0.35140002 -0.039300025 -0.38560003 C -0.06870002 -0.37290004 -0.11440002 -0.37020004 -0.14330003 -0.37920004 C -0.097500026 -0.40300006 -0.025700025 -0.40550005 0.011199966 -0.43670005 C -0.030800033 -0.46800005 -0.13580003 -0.42940006 -0.20220004 -0.38390005 C -0.18370004 -0.40090004 -0.15440004 -0.43090004 -0.13820004 -0.45520005 C -0.17450005 -0.47260004 -0.26620007 -0.37090003 -0.29790005 -0.31050003 C -0.32790005 -0.29350004 -0.33990005 -0.26700002 -0.35160005 -0.24840003 C -0.33560005 -0.30250004 -0.33390006 -0.34170002 -0.32060006 -0.3862 C -0.42350006 -0.3508 -0.38070005 -0.1606 -0.40310007 -0.1151 C -0.40050006 -0.1653 -0.40260008 -0.2299 -0.4233001 -0.2631 C -0.4550001 -0.2389 -0.4576001 -0.096599996 -0.4278001 0.021899998 C -0.43850008 -0.009800002 -0.45880008 -0.0394 -0.46530008 -0.078 C -0.51220006 0.007600002 -0.43780008 0.1085 -0.3756001 0.18829998 C -0.4225001 0.16389999 -0.4688001 0.111399986 -0.4992001 0.067399986 C -0.4908001 0.22059998 -0.3309001 0.25239998 -0.3060001 0.29 C -0.3397001 0.27429998 -0.40410012 0.24329999 -0.4315001 0.2758 C -0.3870001 0.2861 -0.3515001 0.29799998 -0.32290012 0.31669998 C -0.2814001 0.3685 -0.20280012 0.39119998 -0.06590012 0.3969 Z"/>
</defs>
<g>
<g>
<rect x="0" y="0" width="480" height="180" class="green"/>
<rect x="0" y="180" width="480" height="180" class="blue"/>
</g>
<path d="M 0 0 L 480 180 L 0 360 Z" class="red"/>
<use xlink:href="#wreath" transform="translate(180 180) scale(160 160) rotate(0)" class="yellow"/>
</g>
</svg>
