<?xml version="1.0"?>
<svg xmlns="http://www.w3.org/2000/svg" xmlns:xlink="http://www.w3.org/1999/xlink" version="1.1" width="480" height="360" viewBox="0 0 480 360">
<!-- Generated by Kreative Vexillo v1.0 -->
<style>
.green{fill:rgb(0,155,72);}
.red{fill:rgb(213,43,30);}
.white{fill:rgb(255,255,255);}
</style>
<g>
<rect x="0" y="0" width="480" height="360" class="red"/>
<path d="M 0 0 L 0 34.5536 L 0 34.5536 L 193.9286 180 L 193.9286 180 L 0 325.4464 L 0 325.4464 L 0 360 L 46.0714 360 L 240 214.5536 L 240 214.5536 L 240 214.5536 L 240 214.5536 L 240 214.5536 L 240 214.5536 L 433.9286 360 L 480 360 L 480 325.4464 L 480 325.4464 L 286.0714 180 L 480 34.5536 L 480 0 L 433.9286 0 L 240 145.4464 L 240 145.4464 L 46.0714 0 Z" class="green"/>
<g>
<rect x="0" y="152.3571" width="480" height="55.2857" class="white"/>
<rect x="212.3571" y="0" width="55.2857" height="360" class="white"/>
</g>
</g>
</svg>
