<?xml version="1.0"?>
<svg xmlns="http://www.w3.org/2000/svg" xmlns:xlink="http://www.w3.org/1999/xlink" version="1.1" width="480" height="360" viewBox="0 0 480 360">
<!-- Generated by Kreative Vexillo v1.0 -->
<style>
.black{fill:rgb(0,0,0);}
.white{fill:rgb(255,255,255);}
</style>
<defs>
<path id="ermine" d="M -0.1013 -0.3113 L 0.0 -0.24380001 L -0.1013 -0.1763 L -0.27 -0.2438 L -0.1013 -0.3113 Z M 0.0 -0.5138 L -0.0675 -0.34500003 L 0.0 -0.24370003 L 0.0675 -0.34500003 L 0.0 -0.5138 Z M 0.27 -0.2438 L 0.1013 -0.3113 L 0.0 -0.24380001 L 0.1013 -0.1763 L 0.27 -0.2438 Z M 0.0 -0.2438 L -0.3038 0.4988 L -0.06749998 0.3975 L 2.2351742E-8 0.5325 L 0.067500025 0.39750004 L 0.3038 0.4988 L 0.0 -0.2438 Z"/>
</defs>
<g>
<g>
<rect x="0" y="0" width="480" height="40" class="black"/>
<rect x="0" y="40" width="480" height="40" class="white"/>
<rect x="0" y="80" width="480" height="40" class="black"/>
<rect x="0" y="120" width="480" height="40" class="white"/>
<rect x="0" y="160" width="480" height="40" class="black"/>
<rect x="0" y="200" width="480" height="40" class="white"/>
<rect x="0" y="240" width="480" height="40" class="black"/>
<rect x="0" y="280" width="480" height="40" class="white"/>
<rect x="0" y="320" width="480" height="40" class="black"/>
</g>
<rect x="0" y="0" width="240" height="160" class="white"/>
<g>
<use xlink:href="#ermine" transform="translate(30 31) scale(53.3333 53.3333) rotate(0)" class="black"/>
<use xlink:href="#ermine" transform="translate(90 31) scale(53.3333 53.3333) rotate(0)" class="black"/>
<use xlink:href="#ermine" transform="translate(150 31) scale(53.3333 53.3333) rotate(0)" class="black"/>
<use xlink:href="#ermine" transform="translate(210 31) scale(53.3333 53.3333) rotate(0)" class="black"/>
</g>
<g>
<use xlink:href="#ermine" transform="translate(60 80) scale(53.3333 53.3333) rotate(0)" class="black"/>
<use xlink:href="#ermine" transform="translate(120 80) scale(53.3333 53.3333) rotate(0)" class="black"/>
<use xlink:href="#ermine" transform="translate(180 80) scale(53.3333 53.3333) rotate(0)" class="black"/>
</g>
<g>
<use xlink:href="#ermine" transform="translate(30 129) scale(53.3333 53.3333) rotate(0)" class="black"/>
<use xlink:href="#ermine" transform="translate(90 129) scale(53.3333 53.3333) rotate(0)" class="black"/>
<use xlink:href="#ermine" transform="translate(150 129) scale(53.3333 53.3333) rotate(0)" class="black"/>
<use xlink:href="#ermine" transform="translate(210 129) scale(53.3333 53.3333) rotate(0)" class="black"/>
</g>
</g>
</svg>
