<?xml version="1.0"?>
<svg xmlns="http://www.w3.org/2000/svg" xmlns:xlink="http://www.w3.org/1999/xlink" version="1.1" width="480" height="360" viewBox="0 0 480 360">
<!-- Generated by Kreative Vexillo v1.0 -->
<style>
.blue{fill:rgb(59,74,168);}
.white{fill:rgb(255,255,255);}
</style>
<defs>
<path id="e" d="M 0.154 -0.2257 C 0.154 -0.1347 0.083 -0.0642 -0.008699998 -0.0642 C -0.0863 -0.0642 -0.138 -0.1306 -0.138 -0.1916 C -0.138 -0.254 -0.0953 -0.3024 -0.032899998 -0.306 C 0.026100002 -0.3094 0.059300005 -0.26929998 0.059300005 -0.2281 C 0.059300005 -0.1843 0.026700005 -0.1622 -0.0070999935 -0.1622 C -0.046199992 -0.1622 -0.072 -0.1983 -0.06269999 -0.2401 C -0.058699988 -0.2162 -0.04119999 -0.20109999 -0.02269999 -0.199 C -0.0035999902 -0.1968 0.014200009 -0.2092 0.014200009 -0.2304 C 0.014200009 -0.2516 -0.0026999898 -0.2649 -0.029399991 -0.2649 C -0.061799992 -0.2649 -0.08809999 -0.2392 -0.08809999 -0.203 C -0.08809999 -0.1537 -0.052299988 -0.12 -0.0073999837 -0.12 C 0.051300015 -0.12 0.10060002 -0.1628 0.10060002 -0.2295 C 0.10060002 -0.3007 0.03880002 -0.3489 -0.033299983 -0.3489 C -0.10539998 -0.3489 -0.19209999 -0.288 -0.19209999 -0.18839999 C -0.19209999 -0.08899999 -0.10949999 -0.007199988 -0.009699985 -0.007199988 C 0.111400016 -0.007199988 0.21140002 -0.09579999 0.21140002 -0.21639998 C 0.21140002 -0.2938 0.18030001 -0.3796 0.101300016 -0.45529997 C 0.32000002 -0.35179996 0.40000004 -0.16959998 0.40000004 -0.0068999827 C 0.40000004 0.21300001 0.22090003 0.39130002 2.9802322E-8 0.39130002 C -0.22089997 0.39130002 -0.39999998 0.21300003 -0.39999998 -0.0068999827 C -0.39999998 -0.20719998 -0.24839997 -0.37249997 -0.06529999 -0.39959997 C 0.071600005 -0.41989997 0.15400001 -0.31809998 0.15400001 -0.22589996 Z"/>
</defs>
<g>
<rect x="0" y="0" width="480" height="360" class="blue"/>
<use xlink:href="#e" transform="translate(240 180) scale(270 270) rotate(0)" class="white"/>
</g>
</svg>
