<?xml version="1.0"?>
<svg xmlns="http://www.w3.org/2000/svg" xmlns:xlink="http://www.w3.org/1999/xlink" version="1.1" width="480" height="360" viewBox="0 0 480 360">
<!-- Generated by Kreative Vexillo v1.0 -->
<style>
.blue{fill:rgb(26,21,163);}
.white{fill:rgb(255,255,255);}
.yellow{fill:rgb(255,236,80);}
</style>
<defs>
<path id="e1" d="M 0.1443 -0.015 L 0.43300003 0.235 L 0.0722 0.11 L 0.0 0.485 L -0.0722 0.11 L -0.433 0.235 L -0.1443 -0.015 L -0.43300003 -0.265 L -0.07220003 -0.13999999 L -0.04040003 -0.3053 L -0.1 -0.365 L 0.0 -0.515 L 0.1 -0.36499998 L 0.0403 -0.30529997 L 0.0722 -0.14 L 0.433 -0.265 L 0.1443 -0.015 Z"/>
<path id="e2" d="M 0.0 -0.4744 L 0.071 -0.3678 L 0.016000003 -0.3127 L 0.055000003 -0.1101 L 0.3299 -0.2053 L 0.066 0.0231 L 0.0 0.3659 L -0.066 0.0231 L -0.32990003 -0.20549999 L -0.055000037 -0.11029999 L -0.016000036 -0.3129 L -0.07100004 -0.3679 L 0.0 -0.4744 Z M 0.0866 0.035 L 0.12709999 -1.0000169E-4 L 0.3299 0.1755 L 0.0765 0.0877 L 0.0866 0.035 Z M -0.0866 0.035 L -0.12709999 -1.0000169E-4 L -0.3299 0.1755 L -0.0765 0.0877 L -0.0866 0.035 Z"/>
</defs>
<g>
<rect x="0" y="0" width="480" height="360" class="blue"/>
<use xlink:href="#e1" transform="translate(240 180) scale(240 240) rotate(0)" class="yellow"/>
<use xlink:href="#e2" transform="translate(240 180) scale(240 240) rotate(0)" class="white"/>
</g>
</svg>
