<?xml version="1.0"?>
<svg xmlns="http://www.w3.org/2000/svg" xmlns:xlink="http://www.w3.org/1999/xlink" version="1.1" width="480" height="360" viewBox="0 0 480 360">
<!-- Generated by Kreative Vexillo v1.0 -->
<style>
.purple{fill:rgb(148,43,157);}
.white{fill:rgb(255,255,255);}
.yellow{fill:rgb(255,204,0);}
</style>
<defs>
<path id="e1" d="M -0.433 0.25 C -0.433 0.25 -0.3914 0.2314 -0.3194 0.2656 C -0.24730001 0.2998 -0.21270001 0.3023 -0.15550001 0.2692 C -0.15550001 0.3353 -0.136 0.364 -0.07040001 0.4094 C -0.0047 0.4547 0.0 0.5 0.0 0.5 C 0.0 0.5 0.0047 0.4547 0.0703 0.4094 C 0.1359 0.3641 0.1554 0.3353 0.1554 0.2692 C 0.2126 0.3023 0.2473 0.2997 0.3193 0.2656 C 0.39139998 0.2314 0.4329 0.25 0.4329 0.25 C 0.4329 0.25 0.39600003 0.2233 0.3896 0.14379999 C 0.3833 0.0643 0.3681 0.033 0.3109 0.0 C 0.3681 -0.033 0.3833 -0.0643 0.3897 -0.1438 C 0.39609998 -0.22330001 0.433 -0.25 0.433 -0.25 C 0.433 -0.25 0.3914 -0.2314 0.3194 -0.2656 C 0.2473 -0.2998 0.2127 -0.3023 0.1554 -0.2692 C 0.1554 -0.3353 0.1359 -0.3641 0.0703 -0.4094 C 0.0047 -0.4547 0.0 -0.5 0.0 -0.5 C 0.0 -0.5 -0.0047 -0.4547 -0.0703 -0.4094 C -0.13589999 -0.36409998 -0.15540001 -0.33529997 -0.15540001 -0.26919997 C -0.21260001 -0.30229998 -0.2473 -0.29969996 -0.3193 -0.26559997 C -0.39139998 -0.23139997 -0.4329 -0.24999997 -0.4329 -0.24999997 C -0.4329 -0.24999997 -0.39600003 -0.22329997 -0.3896 -0.14379996 C -0.38320002 -0.06429996 -0.368 -0.033099964 -0.31080002 4.4703484E-8 C -0.36800003 0.033000045 -0.38320002 0.064300045 -0.3896 0.14380005 C -0.396 0.22330004 -0.4329 0.25000006 -0.4329 0.25000006 Z"/>
<path id="e2" d="M -0.3248 0.1875 C -0.36110002 0.1247 -0.30990002 0.0639 -0.28440002 0.0492 C -0.25880003 0.034399997 -0.22850001 0.023599999 -0.20770001 0.021599999 C -0.18600002 0.019599998 -0.16840002 0.013799999 -0.16840002 -1.0000169E-4 C -0.16840002 -0.0139000015 -0.18590002 -0.019700002 -0.20770001 -0.021800002 C -0.22850001 -0.023700003 -0.25880003 -0.0346 -0.28440002 -0.0494 C -0.31 -0.0642 -0.36110002 -0.1249 -0.3248 -0.1877 C -0.2885 -0.2505 -0.21040002 -0.23660001 -0.18480001 -0.2219 C -0.15920001 -0.2071 -0.13460001 -0.18630001 -0.12260002 -0.1693 C -0.11000002 -0.1515 -0.09620002 -0.1392 -0.08420002 -0.1461 C -0.072200015 -0.153 -0.07600002 -0.1711 -0.08510002 -0.1909 C -0.093800016 -0.20989999 -0.09960002 -0.2416 -0.09960002 -0.27109998 C -0.09960002 -0.3006 -0.072600015 -0.3753 -1.4901161E-8 -0.3753 C 0.07249998 -0.3753 0.09959999 -0.30069998 0.09959999 -0.27109998 C 0.09959999 -0.24159998 0.093799986 -0.20989999 0.08509999 -0.19089998 C 0.07599999 -0.17109999 0.07229999 -0.15299998 0.08419999 -0.14609998 C 0.09619999 -0.13919999 0.109999985 -0.15139998 0.12259999 -0.16929999 C 0.13469999 -0.1863 0.15919998 -0.20719999 0.18479998 -0.22189999 C 0.21039999 -0.23669998 0.28849998 -0.25059998 0.32479998 -0.18769999 C 0.3611 -0.12489999 0.3099 -0.06409999 0.2844 -0.049399987 C 0.2588 -0.034599986 0.22849998 -0.023799988 0.20769998 -0.021799987 C 0.18599999 -0.019799987 0.16839999 -0.013999987 0.16839999 -9.998679E-5 C 0.16839999 0.013700013 0.18589999 0.019500013 0.20769998 0.021600014 C 0.22849998 0.023500014 0.25879997 0.034400012 0.2844 0.049200013 C 0.30999997 0.06400001 0.3611 0.12470001 0.32479998 0.18750001 C 0.28849998 0.25030002 0.21039999 0.23640001 0.18479998 0.22170001 C 0.15919998 0.20690002 0.13459998 0.1861 0.12259999 0.16910002 C 0.10999999 0.15130001 0.09619999 0.13900001 0.08419999 0.14590001 C 0.072199985 0.15280001 0.07599999 0.17090002 0.08509999 0.19070001 C 0.093799986 0.2097 0.09959999 0.2414 0.09959999 0.2709 C 0.0996 0.3004 0.0725 0.3751 0.0 0.3751 C -0.0725 0.3751 -0.0996 0.3004 -0.0996 0.2709 C -0.0996 0.2414 -0.0938 0.20970002 -0.0851 0.19070001 C -0.076000005 0.17090002 -0.0723 0.15280001 -0.0842 0.14590001 C -0.096200004 0.13900001 -0.11 0.15120001 -0.122600004 0.16910002 C -0.1347 0.18610002 -0.15920001 0.20700002 -0.1848 0.22170001 C -0.2104 0.23650001 -0.2885 0.2504 -0.3248 0.18750001 Z M -0.2491 0.1438 C -0.2415 0.157 -0.2208 0.17040001 -0.18509999 0.1498 C -0.1494 0.1292 -0.1363 0.109400004 -0.11219999 0.090900004 C -0.10149999 0.08270001 -0.076299995 0.06650001 -0.04779999 0.0829 C -0.01929999 0.099300005 -0.020799989 0.12920001 -0.02249999 0.1426 C -0.02649999 0.1727 -0.03699999 0.1939 -0.03699999 0.2352 C -0.03699999 0.2764 -0.014999989 0.2876 2.0001084E-4 0.2876 C 0.015400011 0.2876 0.03740001 0.2764 0.03740001 0.23520002 C 0.03740001 0.19400002 0.026900012 0.17270002 0.022900011 0.14260001 C 0.02110001 0.12920001 0.019700011 0.09930001 0.04820001 0.08290002 C 0.07670001 0.066500016 0.10190001 0.082700014 0.11260001 0.09090002 C 0.13670002 0.10940002 0.14980002 0.12920001 0.18550001 0.14980002 C 0.22120002 0.17040002 0.24190001 0.15690002 0.2495 0.14380002 C 0.25710002 0.13060002 0.2584 0.10600002 0.2227 0.085400015 C 0.187 0.06480002 0.16330001 0.06330001 0.13530001 0.051700015 C 0.1224 0.0466 0.0958 0.0329 0.0958 0.0 C 0.0958 -0.0329 0.1224 -0.0466 0.1349 -0.0517 C 0.163 -0.0633 0.1866 -0.0648 0.2223 -0.0854 C 0.258 -0.106 0.25669998 -0.1306 0.2491 -0.1438 C 0.2415 -0.157 0.2208 -0.17040001 0.18509999 -0.1498 C 0.1494 -0.1292 0.1363 -0.109400004 0.11219999 -0.090900004 C 0.10149999 -0.08270001 0.076299995 -0.06650001 0.04779999 -0.0829 C 0.01929999 -0.099300005 0.020799989 -0.12920001 0.02249999 -0.1426 C 0.02649999 -0.1727 0.03699999 -0.1939 0.03699999 -0.2352 C 0.03699999 -0.2764 0.014999989 -0.2876 -2.0001084E-4 -0.2876 C -0.015400011 -0.2876 -0.03740001 -0.2764 -0.03740001 -0.23520002 C -0.03740001 -0.19400002 -0.026900012 -0.17270002 -0.022900011 -0.14260001 C -0.02110001 -0.12920001 -0.019700011 -0.09930001 -0.04820001 -0.08290002 C -0.07670001 -0.066500016 -0.10190001 -0.082700014 -0.11260001 -0.09090002 C -0.13670002 -0.10940002 -0.14980002 -0.12920001 -0.18550001 -0.14980002 C -0.22120002 -0.17040002 -0.24190001 -0.15690002 -0.2495 -0.14380002 C -0.25710002 -0.13060002 -0.2584 -0.10600002 -0.2227 -0.085400015 C -0.187 -0.06480002 -0.16330001 -0.06330001 -0.13530001 -0.051700015 C -0.12280001 -0.046500016 -0.09620001 -0.032900013 -0.09620001 -1.4901161E-8 C -0.09620001 0.032899987 -0.12280001 0.046599984 -0.13530001 0.051699985 C -0.16340001 0.063299984 -0.187 0.06479999 -0.2227 0.085399985 C -0.2584 0.105999984 -0.2571 0.13059999 -0.2495 0.14379999 Z M 0.0632 0.0 A 0.0632 0.0632 0.0 0 0 -0.0632 0.0 A 0.0632 0.0632 0.0 0 0 0.0632 0.0 Z"/>
</defs>
<g>
<rect x="0" y="0" width="480" height="360" class="purple"/>
<use xlink:href="#e1" transform="translate(240 180) scale(233.28 233.28) rotate(0)" class="white"/>
<use xlink:href="#e2" transform="translate(240 180) scale(233.28 233.28) rotate(0)" class="yellow"/>
</g>
</svg>
