<?xml version="1.0"?>
<svg xmlns="http://www.w3.org/2000/svg" xmlns:xlink="http://www.w3.org/1999/xlink" version="1.1" width="480" height="360" viewBox="0 0 480 360">
<!-- Generated by Kreative Vexillo v1.0 -->
<style>
.blue{fill:rgb(46,50,140);}
.white{fill:rgb(255,255,255);}
</style>
<defs>
<path id="e" d="M -0.3377 -0.4884 C -0.3073 -0.50920004 -0.2658 -0.5014 -0.245 -0.4711 C -0.23740001 -0.46 -0.2333 -0.4469 -0.2333 -0.4334 V -0.27719998 C -0.19049999 -0.29239997 -0.1454 -0.30009997 -0.099999994 -0.30009997 H 0.5 L 0.25 -0.13339996 H -0.1 C -0.2217 -0.13339996 -0.3204 -0.03469996 -0.3204 0.08700004 C -0.3204 0.09130004 -0.3203 0.09560004 -0.32 0.10000004 C -0.32 0.22150004 -0.2215 0.32000005 -0.099999994 0.32000005 S 0.12 0.2215 0.12 0.1 C 0.12 0.013999999 0.0699 -0.06419999 -0.008299999 -0.1 H 0.24649999 C 0.357 0.0913 0.2914 0.336 0.10009998 0.44640002 S -0.3359 0.49130002 -0.44630003 0.3 C -0.49870002 0.20920001 -0.5134 0.10140002 -0.48720002 -9.998679E-5 L -0.38380003 -0.39999998 H -0.4667 L -0.3377 -0.4884 Z"/>
</defs>
<g>
<rect x="0" y="0" width="480" height="360" class="blue"/>
<use xlink:href="#e" transform="translate(240 180) scale(247.5 247.5) rotate(0)" class="white"/>
</g>
</svg>
