<?xml version="1.0"?>
<svg xmlns="http://www.w3.org/2000/svg" xmlns:xlink="http://www.w3.org/1999/xlink" version="1.1" width="480" height="360" viewBox="0 0 480 360">
<!-- Generated by Kreative Vexillo v1.0 -->
<style>
.green{fill:rgb(0,100,98);}
.red{fill:rgb(223,65,51);}
.white{fill:rgb(255,255,255);}
</style>
<defs>
<path id="e1" d="M 0.4316 -0.1561 V -0.2473 L 0.3526 -0.2929 C 0.277 -0.3365 0.18040001 -0.31059998 0.1368 -0.2351 C 0.18040001 -0.3107 0.15450001 -0.4073 0.07900001 -0.45090002 L 0.0 -0.4965 L -0.079 -0.4509 C -0.1546 -0.4073 -0.18040001 -0.3107 -0.1368 -0.23509999 C -0.18040001 -0.3107 -0.277 -0.3365 -0.3526 -0.2929 L -0.4316 -0.2473 V -0.1561 C -0.4316 -0.0772 -0.3737 -0.011800006 -0.2981 0.0 C -0.3737 0.0117 -0.43159997 0.0771 -0.43159997 0.1561 V 0.2473 L -0.35259998 0.2929 C -0.27699998 0.3365 -0.18039998 0.31059998 -0.13679998 0.2351 C -0.18039998 0.3107 -0.15449998 0.4073 -0.07899998 0.45090002 L 0.0 0.4965 L 0.079 0.4509 C 0.1546 0.4073 0.18040001 0.3107 0.1368 0.23509999 C 0.18040001 0.3107 0.277 0.3365 0.3526 0.2929 L 0.4316 0.2473 V 0.1561 C 0.4316 0.0772 0.3737 0.011800006 0.2981 0.0 C 0.3737 -0.0117 0.4316 -0.0771 0.4316 -0.1561 Z"/>
<path id="e2" d="M -0.1691 0.2396 C -0.1832 0.2298 -0.1963 0.2187 -0.2085 0.20660001 L -0.107999995 0.10610001 C -0.09199999 0.090100005 -0.09199999 0.06420001 -0.107999995 0.04830001 C -0.1183 0.03800001 -0.1334 0.033900008 -0.1475 0.03770001 L -0.2848 0.07450001 C -0.2892 0.05790001 -0.2922 0.04100001 -0.29369998 0.02390001 L -0.14269999 0.01070001 C -0.10599999 0.0075000096 -0.07359999 0.03470001 -0.070399985 0.07140001 C -0.06899998 0.08700001 -0.07319999 0.10270001 -0.08219998 0.11550001 L -0.1691 0.2396 Z M 0.1691 0.2396 C 0.1832 0.2298 0.1963 0.2187 0.2085 0.20660001 L 0.1079 0.106 C 0.0919 0.089999996 0.0919 0.0641 0.1079 0.0482 C 0.118200004 0.0379 0.1333 0.0338 0.1474 0.0376 L 0.2847 0.0744 C 0.2891 0.057800002 0.2921 0.0409 0.2936 0.0238 L 0.1426 0.0106 C 0.1059 0.0074 0.0735 0.0345 0.0703 0.0713 C 0.0689 0.086899996 0.0731 0.1026 0.0821 0.1154 L 0.1691 0.2396 Z M 0.1246 0.2653 C 0.109 0.2726 0.0929 0.2784 0.076299995 0.2829 L 0.0395 0.1455 C 0.0336 0.1237 0.0112 0.1107 -0.0106 0.1166 C -0.0247 0.1204 -0.0357 0.1314 -0.039499998 0.1455 L -0.076299995 0.28280002 C -0.09289999 0.2784 -0.109 0.2725 -0.12459999 0.26520002 L -0.060499996 0.12780002 C -0.044899996 0.09440002 -0.005199995 0.07990002 0.0282 0.09550002 C 0.042400002 0.10210002 0.0539 0.11360002 0.0605 0.12780002 L 0.1246 0.2653 Z M 0.1691 -0.2396 C 0.1832 -0.2298 0.1963 -0.2187 0.2085 -0.20660001 L 0.1079 -0.106 C 0.0919 -0.089999996 0.0919 -0.0641 0.1079 -0.0482 C 0.118200004 -0.0379 0.1333 -0.0338 0.1474 -0.0376 L 0.2847 -0.0744 C 0.2891 -0.057800002 0.2921 -0.0409 0.2936 -0.0238 L 0.1426 -0.0106 C 0.105900005 -0.0073999995 0.0735 -0.0346 0.0703 -0.0713 C 0.0689 -0.086899996 0.0731 -0.1026 0.0821 -0.1154 L 0.1691 -0.2396 Z M -0.1691 -0.2396 C -0.1832 -0.2298 -0.1963 -0.2187 -0.2085 -0.20660001 L -0.107999995 -0.10610001 C -0.09199999 -0.090100005 -0.09199999 -0.06420001 -0.107999995 -0.04830001 C -0.1183 -0.03800001 -0.1334 -0.033900008 -0.1475 -0.03770001 L -0.2848 -0.07450001 C -0.2892 -0.05790001 -0.2922 -0.04100001 -0.29369998 -0.02390001 L -0.14269999 -0.01070001 C -0.10599999 -0.0075000096 -0.07359999 -0.03470001 -0.070399985 -0.07140001 C -0.06899998 -0.08700001 -0.07319999 -0.10270001 -0.08219998 -0.11550001 L -0.1691 -0.2396 Z M -0.1246 -0.2653 C -0.109 -0.2726 -0.0929 -0.2784 -0.076299995 -0.2829 L -0.039499994 -0.1456 C -0.033699993 -0.12380001 -0.011199994 -0.110800005 0.010600004 -0.11670001 C 0.024700005 -0.120500006 0.035700005 -0.1315 0.039500006 -0.1456 L 0.07630001 -0.2829 C 0.09290001 -0.27850002 0.10900001 -0.2726 0.12460001 -0.2653 L 0.0605 -0.1279 C 0.0449 -0.094500005 0.0051999986 -0.080000006 -0.028199997 -0.09560001 C -0.042399995 -0.10220001 -0.053899996 -0.11370001 -0.060499996 -0.1279 L -0.1246 -0.2653 Z M 0.0 -0.039 C 0.0226 -0.039 0.0409 -0.0207 0.0409 0.0018999986 S 0.0226 0.0428 0.0 0.0428 C -0.0226 0.0428 -0.0409 0.024500001 -0.0409 0.0019000024 S -0.0226 -0.039 0.0 -0.039 Z"/>
</defs>
<g>
<rect x="0" y="0" width="480" height="360" class="green"/>
<use xlink:href="#e1" transform="translate(240 180) scale(258 258) rotate(0)" class="white"/>
<use xlink:href="#e2" transform="translate(240 180) scale(258 258) rotate(0)" class="red"/>
</g>
</svg>
