<?xml version="1.0"?>
<svg xmlns="http://www.w3.org/2000/svg" xmlns:xlink="http://www.w3.org/1999/xlink" version="1.1" width="480" height="360" viewBox="0 0 480 360">
<!-- Generated by Kreative Vexillo v1.0 -->
<style>
.purple{fill:rgb(97,0,81);}
.white{fill:rgb(255,255,255);}
.yellow{fill:rgb(255,215,0);}
</style>
<defs>
<path id="e1" d="M -0.0757 -0.4459 C -0.1981 -0.4242 -0.3027 -0.3516 -0.3671 -0.2506 L -0.2207 -0.17840001 C -0.183 -0.2292 -0.1283 -0.2667 -0.065 -0.2822 L -0.0757 -0.4454 C -0.0757 -0.4456 -0.0757 -0.4458 -0.0757 -0.4459 Z M 0.077999994 -0.4459 C 0.077999994 -0.4457 0.077999994 -0.4455 0.077999994 -0.4454 L 0.06729999 -0.2823 C 0.13029999 -0.2668 0.1848 -0.2297 0.2225 -0.1793 L 0.3684 -0.2512 C 0.3041 -0.3518 0.2 -0.4242 0.078 -0.4459 Z M -0.1357 -0.228 L -0.1513 -0.1843 L -0.1016 -0.1322 L -0.0608 -0.1585 L -0.0896 -0.2236 L -0.1357 -0.228 Z M 0.1398 -0.2273 L 0.09369999 -0.222 L 0.06719999 -0.1559 L 0.107099995 -0.1307 L 0.1563 -0.1839 L 0.1399 -0.2273 Z M 0.3883 -0.2168 L 0.2534 -0.1266 C 0.2688 -0.092199996 0.2774 -0.0541 0.2774 -0.013899997 C 0.2774 0.012500003 0.27359998 0.037900005 0.2667 0.061900005 L 0.41079998 0.1329 C 0.4112 0.1331 0.41169998 0.1333 0.4121 0.1336 C 0.4285 0.08759999 0.43739998 0.037899993 0.43739998 -0.013999999 C 0.43739998 -0.0871 0.4197 -0.15619999 0.38829997 -0.2168 Z M -0.387 -0.216 C -0.4182 -0.1555 -0.436 -0.0869 -0.436 -0.014 C -0.436 0.037600003 -0.4271 0.087000005 -0.41079998 0.1329 C -0.41079998 0.1329 -0.4107 0.1329 -0.4107 0.1329 L -0.2647 0.060900003 C -0.2714 0.037100002 -0.2751 0.012000002 -0.2751 -0.013999999 C -0.2751 -0.0537 -0.2667 -0.0914 -0.25149998 -0.1255 L -0.387 -0.216 Z M -0.2228 -0.0634 L -0.2513 -0.0268 L -0.2228 0.009800002 L -0.1539 -9.999797E-5 L -0.1539 -0.047999997 L -0.2228 -0.0634 Z M 0.2251 -0.061 L 0.15619999 -0.045900002 L 0.15619999 0.001699999 L 0.2251 0.0122 L 0.2536 -0.0244 L 0.2251 -0.061 Z M -0.0896 0.1126 L -0.133 0.1668 L -0.1155 0.2098 L -0.0696 0.2034 L -0.0487 0.1343 L -0.0896 0.11259999 Z M 0.09200001 0.1135 L 0.049900007 0.1356 L 0.07080001 0.20449999 L 0.116500005 0.21219999 L 0.1351 0.16969998 L 0.092 0.1135 Z M -0.1987 0.1755 L -0.3338 0.2659 C -0.334 0.26599997 -0.3342 0.2661 -0.3344 0.26619998 C -0.2583 0.357 -0.1457 0.41619998 -0.018599987 0.42179996 L -0.029299987 0.25819996 C -0.09559999 0.25099996 -0.15489998 0.22079995 -0.1986 0.17559996 Z M 0.2 0.1764 C 0.1564 0.2211 0.097500004 0.25100002 0.0317 0.2581 L 0.021 0.4217 C 0.1477 0.4161 0.25980002 0.35729998 0.3357 0.2668 C 0.3351 0.2665 0.3345 0.26619998 0.3339 0.2658 L 0.2 0.17629999 Z"/>
<path id="e2" d="M -0.3165 -0.2511 C -0.3237 -0.2635 -0.3208 -0.2767 -0.3149 -0.2855 C -0.30900002 -0.2942 -0.30130002 -0.2993 -0.2955 -0.3028 C -0.2696 -0.31870002 -0.24370001 -0.3103 -0.2378 -0.3088 C -0.2413 -0.3167 -0.2412 -0.32430002 -0.2402 -0.3343 C -0.2392 -0.34030002 -0.23539999 -0.34620002 -0.2311 -0.3502 L -0.22019999 -0.3616 C -0.21279998 -0.368 -0.21099998 -0.3655 -0.21119998 -0.3644 C -0.21139999 -0.3625 -0.21429998 -0.3599 -0.21399999 -0.3588 C -0.21399999 -0.3588 -0.21019998 -0.3576 -0.20729999 -0.3563 C -0.2041 -0.3549 -0.20069999 -0.35279998 -0.19849999 -0.349 C -0.19729999 -0.3468 -0.19639999 -0.344 -0.19639999 -0.3406 C -0.19639999 -0.33720002 -0.19749999 -0.333 -0.20139998 -0.33080003 C -0.20719998 -0.3282 -0.21259998 -0.33110002 -0.21289998 -0.33470002 C -0.21219999 -0.3375 -0.20899998 -0.3341 -0.20509999 -0.33710003 C -0.20429999 -0.33790004 -0.20379998 -0.33870003 -0.20379998 -0.34060004 C -0.20379998 -0.34250003 -0.20459998 -0.34490004 -0.20489998 -0.34540004 C -0.20629998 -0.34780005 -0.20779999 -0.34890005 -0.20959999 -0.34950003 C -0.21139999 -0.35010004 -0.21359998 -0.35010004 -0.21569999 -0.34970003 C -0.21999998 -0.34900004 -0.22369999 -0.34690005 -0.22369999 -0.34690005 C -0.22789998 -0.34450004 -0.23089999 -0.33940005 -0.232 -0.33330005 C -0.233 -0.32730004 -0.232 -0.32230005 -0.22899999 -0.31710005 C -0.22269998 -0.30620006 -0.20689999 -0.29990005 -0.20689999 -0.29990005 L -0.19739999 -0.29710007 C -0.19119999 -0.29540005 -0.16049999 -0.28880006 -0.13569999 -0.30320007 C -0.13129999 -0.30570006 -0.12719999 -0.30870005 -0.123699985 -0.31160006 C -0.120199986 -0.31450006 -0.11769999 -0.31890005 -0.11719999 -0.31970006 C -0.10759999 -0.33650005 -0.11169998 -0.35080007 -0.117899984 -0.36150005 L -0.122299984 -0.36920005 C -0.12659998 -0.37580004 -0.13109998 -0.38040006 -0.13919999 -0.38090006 C -0.14409998 -0.38080007 -0.14789999 -0.37870005 -0.14789999 -0.37870005 C -0.15339999 -0.37550005 -0.15699999 -0.37190005 -0.15899998 -0.36810005 C -0.16089998 -0.36430004 -0.16109999 -0.36090004 -0.15879998 -0.35700005 C -0.15449998 -0.34960005 -0.14959997 -0.35230005 -0.14869997 -0.35060006 C -0.14749996 -0.34790006 -0.14959997 -0.34590006 -0.15449996 -0.34610006 C -0.15679996 -0.34640005 -0.16239996 -0.34750006 -0.16559996 -0.35300007 C -0.16909996 -0.35890007 -0.16879995 -0.36550006 -0.16599996 -0.37110007 S -0.15799996 -0.38130006 -0.15169996 -0.38500008 C -0.15169996 -0.38500008 -0.14659996 -0.38870007 -0.13969997 -0.38880008 C -0.13629997 -0.38880008 -0.13269997 -0.38790008 -0.12889996 -0.38590008 C -0.12889996 -0.38890007 -0.12779996 -0.3935001 -0.12669995 -0.3964001 C -0.12309995 -0.4056001 -0.11509995 -0.4093001 -0.11509995 -0.4093001 C -0.114799954 -0.4095001 -0.11149995 -0.4120001 -0.10719995 -0.4126001 C -0.10269995 -0.4133001 -0.09649995 -0.4111001 -0.09269995 -0.4046001 C -0.089799955 -0.39910012 -0.09089995 -0.39420012 -0.09449995 -0.39010012 C -0.09569995 -0.38850012 -0.099499956 -0.38740012 -0.10099995 -0.3888001 C -0.102499954 -0.3902001 -0.10009995 -0.39280012 -0.09929995 -0.39460012 C -0.09829995 -0.39750013 -0.09829995 -0.3990001 -0.09919995 -0.4010001 C -0.10299995 -0.4080001 -0.11139995 -0.40300012 -0.11139995 -0.40300012 C -0.11489995 -0.4010001 -0.11749995 -0.39620012 -0.11919995 -0.39150012 C -0.120899945 -0.3868001 -0.120899945 -0.38200012 -0.11899994 -0.3787001 L -0.111699946 -0.36510012 C -0.104999945 -0.3536001 -0.09739995 -0.33890012 -0.106299944 -0.3180001 C -0.106299944 -0.3180001 -0.10449994 -0.3167001 -0.100599945 -0.3172001 C -0.09849995 -0.31750008 -0.09469994 -0.3183001 -0.09379994 -0.3172001 S -0.09459994 -0.3136001 -0.10259994 -0.3113001 C -0.11039994 -0.3089001 -0.11549994 -0.3074001 -0.11549994 -0.3074001 L -0.11899994 -0.3042001 C -0.122599944 -0.30100012 -0.12639995 -0.2982001 -0.13129994 -0.2955001 C -0.15759994 -0.27960008 -0.17429994 -0.2862001 -0.19679993 -0.2835001 C -0.20419994 -0.2824001 -0.21239993 -0.2797001 -0.22469993 -0.2726001 C -0.22469993 -0.2726001 -0.23259993 -0.2690001 -0.23849992 -0.2618001 C -0.24139993 -0.2582001 -0.24349992 -0.25380012 -0.24439992 -0.2493001 C -0.24629992 -0.24140011 -0.24359992 -0.2350001 -0.23759992 -0.23000011 C -0.23129992 -0.2264001 -0.22669992 -0.22750011 -0.22029993 -0.23090011 C -0.21439993 -0.2342001 -0.21339993 -0.23990011 -0.21579993 -0.24600011 C -0.21819992 -0.25020012 -0.22249992 -0.25070012 -0.22249992 -0.25070012 C -0.22589992 -0.2505001 -0.22779992 -0.25290012 -0.22579992 -0.2557001 C -0.22429992 -0.25770012 -0.21979992 -0.25860012 -0.21829993 -0.25810012 C -0.21829993 -0.25810012 -0.21349992 -0.25720012 -0.20949993 -0.25020012 C -0.20509993 -0.24250013 -0.20669992 -0.23600012 -0.20929992 -0.23170012 S -0.21659993 -0.22460012 -0.21659993 -0.22460012 C -0.22089992 -0.22180012 -0.22519992 -0.22080012 -0.23019993 -0.22000012 L -0.23859993 -0.21900012 C -0.24349992 -0.21910012 -0.25509992 -0.21650012 -0.25499994 -0.22150011 C -0.25449994 -0.22320011 -0.25249994 -0.22270012 -0.25009993 -0.22350012 C -0.24749993 -0.22430012 -0.24609993 -0.22640012 -0.24609993 -0.22640012 C -0.25259992 -0.23490012 -0.25459993 -0.24270013 -0.25349993 -0.25150013 C -0.25229993 -0.25760013 -0.24959992 -0.26280013 -0.24609992 -0.26700014 C -0.23919992 -0.27540013 -0.23069993 -0.28020012 -0.23069993 -0.28020012 C -0.22119993 -0.2857001 -0.21509993 -0.28740013 -0.20799993 -0.28920013 L -0.23099993 -0.29800013 C -0.25579992 -0.30470014 -0.26879993 -0.30520013 -0.28939992 -0.29690012 C -0.29459992 -0.29390013 -0.3036999 -0.28610012 -0.30739993 -0.2805001 C -0.3126999 -0.27230012 -0.31369993 -0.2634001 -0.30889994 -0.25470012 C -0.30819994 -0.25350013 -0.30599993 -0.25060013 -0.30249995 -0.24870013 C -0.29889995 -0.24690013 -0.29479995 -0.24610013 -0.28899994 -0.24940012 C -0.28499994 -0.25170013 -0.28369996 -0.25350013 -0.28319994 -0.25530013 C -0.28259993 -0.25750014 -0.28299993 -0.25960013 -0.28359994 -0.26080012 C -0.28509995 -0.26340014 -0.28729993 -0.26520014 -0.28729993 -0.26520014 C -0.29029992 -0.26720014 -0.28879994 -0.27060014 -0.28449994 -0.26900014 C -0.28349996 -0.26860014 -0.28089994 -0.26790014 -0.27839994 -0.26360014 C -0.27709994 -0.26130015 -0.27589995 -0.25840014 -0.27669993 -0.25440013 C -0.27749994 -0.25040013 -0.28029993 -0.24620013 -0.28559992 -0.24310014 C -0.2932999 -0.23860013 -0.30049992 -0.23950014 -0.3057999 -0.24220014 C -0.3111 -0.2447 -0.315 -0.2485 -0.3165 -0.2511 Z M 0.1028 -0.3888 C 0.1043 -0.3902 0.1019 -0.3928 0.1011 -0.3946 C 0.100099996 -0.3975 0.100099996 -0.399 0.100999996 -0.401 C 0.10479999 -0.408 0.113199994 -0.403 0.113199994 -0.403 C 0.11669999 -0.401 0.11929999 -0.3962 0.12099999 -0.3915 C 0.12269999 -0.3868 0.12269999 -0.382 0.12079999 -0.3787 L 0.11349999 -0.3651 C 0.10679999 -0.3536 0.099199995 -0.3389 0.10809999 -0.318 C 0.10809999 -0.318 0.10629999 -0.31669998 0.10239999 -0.31719998 C 0.10029999 -0.31749997 0.09649999 -0.31829998 0.09559999 -0.31719998 C 0.09469999 -0.3162 0.096399985 -0.31359997 0.10439999 -0.31129998 C 0.112199984 -0.30889997 0.11729999 -0.3074 0.11729999 -0.3074 L 0.12079999 -0.3042 C 0.12439999 -0.301 0.1282 -0.29819998 0.13309999 -0.29549998 C 0.15939999 -0.27959996 0.17609999 -0.2862 0.1986 -0.2835 C 0.206 -0.28239998 0.21419999 -0.27969998 0.22649999 -0.2726 C 0.22649999 -0.2726 0.23439999 -0.269 0.24029998 -0.2618 C 0.24319999 -0.2582 0.24529998 -0.2538 0.24619998 -0.24929999 C 0.24809998 -0.24139999 0.24529998 -0.23499998 0.23939998 -0.22999999 C 0.23309998 -0.22639999 0.22849998 -0.22749999 0.22209999 -0.23089999 C 0.2162 -0.23419999 0.21519999 -0.2399 0.21759999 -0.24599999 C 0.21999998 -0.2502 0.22429998 -0.2507 0.22429998 -0.2507 C 0.22769998 -0.2505 0.22959998 -0.2529 0.22759998 -0.2557 C 0.22609998 -0.2577 0.22159998 -0.2586 0.22009999 -0.2581 C 0.22009999 -0.2581 0.21529998 -0.2572 0.21129999 -0.2502 C 0.20689999 -0.2425 0.20849998 -0.236 0.21109998 -0.2317 C 0.21379998 -0.2274 0.21839999 -0.2246 0.21839999 -0.2246 C 0.22269998 -0.2218 0.22699998 -0.2208 0.232 -0.22 L 0.24039999 -0.219 C 0.24529998 -0.2191 0.25689998 -0.2165 0.2568 -0.2215 C 0.2563 -0.2232 0.2543 -0.2227 0.2519 -0.2235 C 0.24929999 -0.2243 0.2479 -0.2264 0.2479 -0.2264 C 0.25439999 -0.2349 0.2564 -0.24270001 0.2554 -0.2515 C 0.2542 -0.2576 0.2515 -0.2628 0.248 -0.26700002 C 0.2411 -0.2754 0.2326 -0.2802 0.2326 -0.2802 C 0.2231 -0.2857 0.21700001 -0.2874 0.2099 -0.2892 L 0.23290001 -0.298 C 0.2577 -0.30470002 0.2707 -0.3052 0.2913 -0.2969 C 0.2965 -0.2939 0.3056 -0.2861 0.3093 -0.2805 C 0.3146 -0.2723 0.3156 -0.2634 0.31080002 -0.2547 C 0.31010002 -0.2535 0.3079 -0.2506 0.30440003 -0.24870001 S 0.29670003 -0.24610001 0.29090002 -0.2494 C 0.2869 -0.2517 0.28560004 -0.2535 0.2851 -0.25530002 C 0.2845 -0.25750002 0.2849 -0.2596 0.28550002 -0.2608 C 0.28700003 -0.26340002 0.2892 -0.26520002 0.2892 -0.26520002 C 0.2922 -0.26720002 0.29070002 -0.27060002 0.28640002 -0.26900002 C 0.28540003 -0.26860002 0.28280002 -0.26790002 0.28030002 -0.26360002 C 0.279 -0.26130003 0.27780002 -0.25840002 0.2786 -0.2544 C 0.27940002 -0.2504 0.2822 -0.24620001 0.2875 -0.24310002 C 0.2952 -0.23860002 0.3024 -0.23950002 0.30769998 -0.24220002 C 0.31299996 -0.24490002 0.31679997 -0.24870002 0.31839997 -0.25140002 C 0.32559997 -0.26380002 0.32269996 -0.277 0.31679997 -0.28580004 C 0.31089997 -0.29450005 0.30319998 -0.29960003 0.29739997 -0.30310005 C 0.27149996 -0.31900007 0.24559997 -0.31060004 0.23969996 -0.30910006 C 0.24319996 -0.31700006 0.24309996 -0.32460007 0.24209996 -0.33460006 C 0.24109995 -0.34060007 0.23729995 -0.34650007 0.23299995 -0.35050005 L 0.22209994 -0.36190006 C 0.21469994 -0.36830005 0.21289994 -0.36580005 0.21309994 -0.36470005 C 0.21329994 -0.36280006 0.21619993 -0.36020005 0.21589994 -0.35910004 C 0.21589994 -0.35910004 0.21209994 -0.35790005 0.20919995 -0.35660005 C 0.20599996 -0.35520005 0.20259994 -0.35310003 0.20039995 -0.34930006 C 0.19919994 -0.34710005 0.19829994 -0.34430006 0.19829994 -0.34090006 C 0.19829994 -0.33750007 0.19939995 -0.33330005 0.20329994 -0.33110008 C 0.20909993 -0.32850006 0.21449994 -0.33140007 0.21479994 -0.33500007 C 0.21409994 -0.33780006 0.21089993 -0.33440006 0.20699994 -0.33740008 C 0.20619994 -0.3382001 0.20569994 -0.33900008 0.20569994 -0.3409001 S 0.20649993 -0.3452001 0.20679994 -0.3457001 C 0.20819993 -0.3481001 0.20969994 -0.3492001 0.21149994 -0.34980008 C 0.21329994 -0.3504001 0.21549994 -0.3504001 0.21759994 -0.35000008 C 0.22189994 -0.3493001 0.22559994 -0.3472001 0.22559994 -0.3472001 C 0.22979994 -0.34480008 0.23279995 -0.3397001 0.23389995 -0.3336001 C 0.23489995 -0.3276001 0.23399995 -0.3226001 0.23089994 -0.3174001 C 0.22459994 -0.3065001 0.20879994 -0.3002001 0.20879994 -0.3002001 L 0.19929995 -0.29740012 C 0.19309995 -0.2957001 0.16239995 -0.2891001 0.13759995 -0.30350012 C 0.13319995 -0.3060001 0.12909995 -0.3090001 0.12559995 -0.3119001 C 0.12209995 -0.3148001 0.11959995 -0.3192001 0.11909995 -0.3200001 C 0.10949995 -0.3368001 0.113599956 -0.35110012 0.11979995 -0.3618001 L 0.12419995 -0.3695001 C 0.12849995 -0.3761001 0.13299996 -0.3807001 0.14109994 -0.3812001 C 0.14599994 -0.38110012 0.14979994 -0.3790001 0.14979994 -0.3790001 C 0.15529995 -0.3758001 0.15889995 -0.3722001 0.16089994 -0.3684001 C 0.16279994 -0.3646001 0.16299994 -0.3612001 0.16069993 -0.3573001 C 0.15639994 -0.3499001 0.15149993 -0.3526001 0.15059993 -0.3509001 C 0.14939992 -0.3482001 0.15149993 -0.3462001 0.15639992 -0.3464001 C 0.15869991 -0.3467001 0.16429992 -0.3478001 0.16749991 -0.35330012 C 0.17099991 -0.35920012 0.17069991 -0.3658001 0.16789992 -0.37140012 C 0.16509992 -0.37700012 0.15989992 -0.3816001 0.15359992 -0.38530013 C 0.15359992 -0.38530013 0.14849992 -0.38900012 0.14159992 -0.38910013 C 0.13819993 -0.38910013 0.13459992 -0.38820013 0.13079992 -0.38620013 C 0.13079992 -0.38920012 0.12969992 -0.39380014 0.12859991 -0.39670014 C 0.12499991 -0.40590015 0.11699991 -0.40960014 0.11699991 -0.40960014 C 0.11669991 -0.40980014 0.11339991 -0.41230014 0.10909991 -0.41290015 C 0.10459991 -0.41360015 0.09839991 -0.41140014 0.09459991 -0.40490016 C 0.09169991 -0.39940017 0.09279991 -0.39450017 0.09639991 -0.39040017 C 0.0975 -0.3885 0.1013 -0.3874 0.1028 -0.3888 Z M 0.2772 0.2539 C 0.2752 0.2541 0.2723 0.25689998 0.27280003 0.2589 C 0.27330002 0.2609 0.27670002 0.2602 0.27870002 0.26029998 C 0.28180003 0.2609 0.28300002 0.2616 0.2842 0.2634 C 0.28840002 0.27019998 0.2798 0.27499998 0.2798 0.27499998 C 0.27629998 0.27699998 0.2709 0.27689996 0.2659 0.27599996 C 0.26099998 0.27509996 0.2568 0.27269995 0.25489998 0.26949996 L 0.24679998 0.25639996 C 0.24009998 0.24489996 0.23129998 0.23089996 0.20869997 0.22819996 C 0.20869997 0.22819996 0.20849997 0.22599995 0.21089998 0.22289996 C 0.21219999 0.22119996 0.21469998 0.21839996 0.21429998 0.21699996 C 0.21389997 0.21569996 0.21079998 0.21589996 0.20469998 0.22159997 C 0.19879998 0.22709997 0.19479997 0.23079997 0.19479997 0.23079997 L 0.19029997 0.23229997 C 0.18569997 0.23379996 0.18139997 0.23579997 0.17659998 0.23859997 C 0.14969999 0.25339997 0.14699998 0.27119997 0.13339998 0.28929996 C 0.12869997 0.29519996 0.12229998 0.30089995 0.10999998 0.30799997 C 0.10999998 0.30799997 0.102899976 0.31299996 0.09379998 0.31449997 C 0.089199975 0.3153 0.084399976 0.31489998 0.079999976 0.31339997 C 0.07219998 0.31109998 0.068099976 0.30549997 0.066699974 0.29779997 C 0.066699974 0.29059997 0.06999998 0.2871 0.07619997 0.28329998 C 0.08199997 0.27989998 0.087399974 0.28179997 0.09149997 0.28699997 C 0.09389997 0.29119998 0.09219997 0.29519996 0.09219997 0.29519996 C 0.090399966 0.29809996 0.09149997 0.30089995 0.09489997 0.30059996 C 0.097399965 0.30039996 0.10039997 0.29689997 0.10069997 0.29529998 C 0.10069997 0.29529998 0.102299966 0.2907 0.098299965 0.2837 C 0.093899965 0.276 0.08739997 0.27409998 0.082399964 0.27429998 S 0.07259996 0.27709997 0.07259996 0.27709997 C 0.06799996 0.27949998 0.06499996 0.28269997 0.061799962 0.28659996 L 0.05669996 0.29329997 C 0.05429996 0.29759997 0.04629996 0.30629998 0.05069996 0.30869997 C 0.05239996 0.30919996 0.052999962 0.30719995 0.05489996 0.30539995 C 0.05689996 0.30349997 0.059399962 0.30339995 0.059399962 0.30339995 C 0.063499965 0.31319994 0.069299966 0.31899995 0.07739996 0.32239994 C 0.083299965 0.32439995 0.08919996 0.32469994 0.09459996 0.32379994 C 0.105399966 0.32199994 0.11369996 0.31709993 0.11369996 0.31709993 C 0.123199955 0.31159994 0.12769996 0.30719993 0.13279995 0.30189994 L 0.12889995 0.32619995 C 0.12229995 0.35109994 0.11629995 0.36249995 0.09869994 0.37619996 C 0.09349994 0.37919995 0.082199946 0.38319996 0.075499944 0.38349995 C 0.065799944 0.38399994 0.057499945 0.38039994 0.052399945 0.37189996 C 0.051699944 0.37069997 0.050199945 0.36739996 0.050499946 0.36329997 S 0.052099947 0.35529998 0.057899944 0.35199997 C 0.061899945 0.34969997 0.064099945 0.34939995 0.065899946 0.34989998 C 0.068099946 0.3505 0.069799945 0.35189998 0.07039995 0.353 C 0.07189995 0.3556 0.07229995 0.3584 0.07229995 0.3584 C 0.07249995 0.362 0.07619995 0.3624 0.07699995 0.35779998 C 0.07719995 0.35669997 0.07789995 0.3541 0.07539995 0.3498 C 0.07409995 0.3475 0.07219995 0.345 0.06829995 0.34379998 S 0.059399948 0.3428 0.05399995 0.34589997 C 0.04629995 0.35039997 0.04339995 0.35699996 0.043099947 0.36289996 S 0.044199947 0.37409997 0.045699947 0.37669995 C 0.052899946 0.38909996 0.06569995 0.39319995 0.07629995 0.39249995 S 0.09509995 0.38759995 0.10099995 0.38439995 C 0.12769996 0.36989996 0.13339995 0.34329996 0.13499996 0.33739996 C 0.14009996 0.34439996 0.14669997 0.34809995 0.15589996 0.35219997 C 0.16159996 0.35429996 0.16859996 0.3539 0.17419995 0.35229996 L 0.18949996 0.34849995 C 0.19879995 0.34529996 0.19749996 0.34249994 0.19639996 0.34209996 C 0.19469996 0.34129995 0.19089995 0.34259996 0.19019996 0.34169996 C 0.19019996 0.34169996 0.19109996 0.33779997 0.19139996 0.33469996 C 0.19179997 0.33119994 0.19169997 0.32719997 0.18949996 0.32339996 C 0.18829995 0.32119995 0.18619996 0.31909996 0.18329996 0.31739995 C 0.18039995 0.31569993 0.17609996 0.31459996 0.17229995 0.31679994 C 0.16719995 0.32049993 0.16689995 0.32669994 0.16989996 0.32869995 C 0.17269996 0.32949996 0.17129995 0.32509995 0.17589995 0.32309994 C 0.17709996 0.32279995 0.17789996 0.32279995 0.17949995 0.32369995 S 0.18279995 0.32649994 0.18309996 0.32699996 C 0.18449995 0.32939997 0.18459995 0.33129996 0.18429996 0.33309996 S 0.18279997 0.33689997 0.18149996 0.33849996 C 0.17869996 0.34179997 0.17509995 0.34399995 0.17509995 0.34399995 C 0.17089996 0.34639996 0.16499996 0.34649995 0.15919995 0.34439996 C 0.15339996 0.34229997 0.14959995 0.33889997 0.14659995 0.33369997 C 0.14029995 0.32279998 0.14279994 0.30599996 0.14279994 0.30599996 L 0.14509994 0.29639995 C 0.14679994 0.29019997 0.15639994 0.26029995 0.18119994 0.24599995 C 0.18559994 0.24339995 0.19019994 0.24139994 0.19449994 0.23979995 C 0.19879994 0.23819995 0.20379993 0.23829995 0.20479994 0.23829995 C 0.22409993 0.23839995 0.23449993 0.24909995 0.24059993 0.25979996 L 0.24499993 0.26749995 C 0.24859993 0.27449995 0.25029993 0.28069997 0.24669993 0.28799996 C 0.24419993 0.29219997 0.24049993 0.29439995 0.24049993 0.29439995 C 0.23499992 0.29759994 0.23009993 0.29889995 0.22579993 0.29869995 C 0.22149993 0.29849994 0.21849993 0.29689994 0.21629994 0.29299995 C 0.21199994 0.28559995 0.21679993 0.28269994 0.21579994 0.28099996 C 0.21399994 0.27859995 0.21129994 0.27939996 0.20909995 0.28379995 C 0.20819995 0.28589994 0.20629995 0.29139996 0.20949996 0.29679996 C 0.21289995 0.30269995 0.21869996 0.30589995 0.22499995 0.30619997 C 0.23119995 0.30649996 0.23779994 0.30439997 0.24419995 0.30069998 C 0.24419995 0.30069998 0.24999994 0.29819998 0.25349995 0.29219997 C 0.25519997 0.28929996 0.25629994 0.28569996 0.25639996 0.28139997 C 0.25909996 0.28289998 0.26349995 0.28419995 0.26649997 0.28469998 C 0.27619997 0.2862 0.28349996 0.28109998 0.28349996 0.28109998 C 0.28379995 0.281 0.28759995 0.27929997 0.29039997 0.27589998 C 0.29329997 0.27229998 0.29449996 0.2659 0.29069996 0.25939998 C 0.2874 0.2543 0.2826 0.2529 0.2772 0.2539 Z M -0.0538 0.3466 C -0.059200004 0.3435 -0.0642 0.34329998 -0.068100005 0.3445 C -0.072000004 0.3458 -0.07390001 0.3482 -0.07520001 0.35050002 C -0.077700004 0.35480002 -0.07700001 0.35740003 -0.0768 0.3585 C -0.076000005 0.3631 -0.0723 0.36270002 -0.072100006 0.3591 C -0.072100006 0.3591 -0.07170001 0.35630003 -0.0702 0.3537 C -0.06950001 0.35250002 -0.0679 0.3512 -0.0657 0.3506 C -0.0638 0.3501 -0.0617 0.3504 -0.0577 0.3527 C -0.0519 0.356 -0.0505 0.35999998 -0.050300002 0.364 C -0.050100002 0.368 -0.051500004 0.3714 -0.0522 0.3726 C -0.0573 0.3811 -0.0655 0.3847 -0.0753 0.38419998 C -0.082 0.38379997 -0.0933 0.37989998 -0.0985 0.3769 C -0.1161 0.3633 -0.122099996 0.3518 -0.1287 0.32689998 L -0.13260001 0.30259997 C -0.12750001 0.30789995 -0.12300001 0.31229997 -0.113500014 0.31779996 C -0.113500014 0.31779996 -0.105200015 0.32269996 -0.09440002 0.32449996 C -0.08900002 0.32539997 -0.08310002 0.32509997 -0.07720002 0.32309997 C -0.069100015 0.31969997 -0.06330002 0.31389996 -0.05920002 0.30409998 C -0.05920002 0.30409998 -0.056700017 0.30419996 -0.054700017 0.30609998 C -0.05280002 0.3078 -0.052300017 0.30979997 -0.050500017 0.3094 C -0.046200015 0.30699998 -0.054200016 0.29819998 -0.056500018 0.294 L -0.06160002 0.2873 C -0.06480002 0.2834 -0.067800015 0.2802 -0.07240002 0.2778 C -0.07240002 0.2778 -0.07720002 0.27519998 -0.08220002 0.275 C -0.08720002 0.2748 -0.09370002 0.27670002 -0.09810002 0.28440002 C -0.10210002 0.29140002 -0.100500025 0.29590002 -0.100500025 0.29590002 C -0.10020003 0.2975 -0.09720002 0.30100003 -0.09470002 0.3012 C -0.091300026 0.3015 -0.09020002 0.2987 -0.09200002 0.2958 C -0.09200002 0.2958 -0.09370002 0.2918 -0.091300026 0.2876 C -0.08720002 0.2825 -0.08180003 0.28050002 -0.07600003 0.28390002 C -0.06990003 0.28770003 -0.06650003 0.2912 -0.06650003 0.2984 C -0.06790003 0.3061 -0.07200003 0.31160003 -0.07980003 0.314 C -0.08410003 0.31550002 -0.08900003 0.3159 -0.093600035 0.3151 C -0.10270003 0.3136 -0.10980003 0.3086 -0.10980003 0.3086 C -0.12210003 0.30150002 -0.12850003 0.2958 -0.13320003 0.2899 C -0.14680004 0.2718 -0.14940004 0.254 -0.17640004 0.2392 C -0.18120004 0.23629999 -0.18550004 0.23439999 -0.19010003 0.2329 L -0.19460003 0.2314 C -0.19460003 0.2314 -0.19850004 0.2277 -0.20450003 0.22219999 C -0.21050003 0.21649998 -0.21360004 0.2162 -0.21410003 0.21759999 C -0.21450004 0.2189 -0.21200003 0.22179998 -0.21070004 0.22349998 C -0.20830004 0.22659998 -0.20850003 0.22879998 -0.20850003 0.22879998 C -0.23110002 0.23159999 -0.24000002 0.24549998 -0.24660003 0.25699997 L -0.25470003 0.27009997 C -0.25660002 0.27329996 -0.26070005 0.27569997 -0.26570004 0.27659997 C -0.27060005 0.27749997 -0.27610004 0.27769998 -0.27960005 0.2756 C -0.27960005 0.2756 -0.28820005 0.2708 -0.28400004 0.264 C -0.28280005 0.2622 -0.28150004 0.2615 -0.27850005 0.2609 C -0.27650005 0.2607 -0.27310005 0.26139998 -0.27260005 0.2595 C -0.27210006 0.2575 -0.27500007 0.2547 -0.27700007 0.2545 C -0.28240007 0.2535 -0.28720006 0.255 -0.29040006 0.2602 C -0.29420006 0.2668 -0.29290006 0.2731 -0.29010007 0.2767 C -0.28740007 0.2801 -0.28360006 0.2817 -0.28320006 0.2819 C -0.28320006 0.2819 -0.27590007 0.28689998 -0.26620007 0.2855 C -0.26320007 0.285 -0.25870007 0.2837 -0.25610006 0.28219998 C -0.25600007 0.28649998 -0.25490007 0.29009998 -0.25320005 0.29299998 C -0.24960005 0.299 -0.24390006 0.3015 -0.24390006 0.3015 C -0.23750006 0.30519998 -0.23090006 0.3073 -0.22470006 0.30699998 C -0.21850006 0.3067 -0.21260007 0.30359998 -0.20920007 0.29759997 C -0.20600007 0.29209998 -0.20790006 0.28669998 -0.20880006 0.28459996 C -0.21100006 0.28019994 -0.21380006 0.27939996 -0.21550006 0.28179997 C -0.21650006 0.2835 -0.21170005 0.28639996 -0.21600005 0.29379997 C -0.21820006 0.29769996 -0.22120005 0.29929996 -0.22550005 0.29949996 C -0.22980005 0.29969996 -0.23470005 0.29839996 -0.24020004 0.29519996 C -0.24020004 0.29519996 -0.24390005 0.29299995 -0.24640004 0.28879997 C -0.25000003 0.28149998 -0.24820004 0.27529997 -0.24470004 0.26829997 L -0.24030004 0.26059997 C -0.23410004 0.24989997 -0.22380005 0.23919997 -0.20450005 0.23909996 C -0.20350005 0.23909996 -0.19850005 0.23909996 -0.19420005 0.24059996 S -0.18540005 0.24419996 -0.18090005 0.24679996 C -0.15610005 0.26109996 -0.14650005 0.29099995 -0.14480005 0.29719996 L -0.14250006 0.30679998 C -0.14250006 0.30679998 -0.14000006 0.32359996 -0.14630006 0.33449998 C -0.14930007 0.33969998 -0.15310006 0.34309998 -0.15890007 0.34519997 C -0.16470006 0.34729996 -0.17060007 0.34729996 -0.17480007 0.34479997 C -0.17480007 0.34479997 -0.17850007 0.34269997 -0.18120007 0.33929998 C -0.18260007 0.33759996 -0.18370007 0.33569998 -0.18400007 0.33389997 C -0.18440008 0.332 -0.18420008 0.3302 -0.18280007 0.32779998 C -0.18250006 0.32729998 -0.18090007 0.32549998 -0.17920007 0.32449996 S -0.17670007 0.32359996 -0.17560007 0.32389995 C -0.17100006 0.32589996 -0.17240007 0.33029994 -0.16960007 0.32949996 C -0.16660006 0.32749996 -0.16680007 0.32129997 -0.17200007 0.31759995 C -0.17580007 0.31539994 -0.18010007 0.31649995 -0.18300006 0.31819996 C -0.18590006 0.31989998 -0.18800005 0.32209995 -0.18920006 0.32419997 C -0.19140005 0.32799998 -0.19150005 0.332 -0.19110006 0.33549997 C -0.19080006 0.33859998 -0.18990006 0.34249997 -0.18990006 0.34249997 C -0.19070005 0.34329998 -0.19440006 0.34209996 -0.19610006 0.34289998 C -0.19720006 0.34329998 -0.19850005 0.3462 -0.18920006 0.34929997 L -0.17390005 0.35309997 C -0.16830005 0.3548 -0.16130005 0.35509998 -0.15560006 0.353 C -0.14640005 0.3489 -0.13980006 0.34519997 -0.13470006 0.33819997 C -0.13300006 0.34409997 -0.12740006 0.37069997 -0.10070006 0.38519996 C -0.09470006 0.38839996 -0.086500056 0.39249995 -0.07600006 0.39329997 S -0.052600056 0.38999996 -0.045400057 0.37749997 C -0.043900058 0.37489995 -0.042500056 0.36959997 -0.042800058 0.36369997 S -0.0461 0.351 -0.0538 0.3466 Z M 0.411 -0.0341 L 0.4066 -0.0493 C 0.4052 -0.055 0.4021 -0.061300002 0.3974 -0.0652 C 0.3893 -0.071100004 0.3827 -0.075 0.3742 -0.0759 C 0.37849998 -0.0803 0.3987 -0.098500006 0.3979 -0.1289 C 0.39769998 -0.1357 0.3972 -0.1448 0.3926 -0.1544 C 0.388 -0.1639 0.378 -0.17300001 0.36360002 -0.17300001 C 0.36060002 -0.17300001 0.3553 -0.17160001 0.3503 -0.1684 C 0.34530002 -0.16520001 0.34100002 -0.1594 0.34100002 -0.1505 C 0.34100002 -0.1443 0.3433 -0.1398 0.3463 -0.1371 C 0.3493 -0.1344 0.3524 -0.134 0.3551 -0.134 C 0.36 -0.134 0.36200002 -0.1359 0.3628 -0.1366 C 0.3664 -0.13960001 0.3642 -0.1426 0.361 -0.1409 C 0.361 -0.1409 0.3584 -0.1398 0.3554 -0.1398 C 0.3541 -0.1398 0.352 -0.1406 0.3504 -0.1422 C 0.349 -0.14359999 0.3482 -0.14559999 0.3482 -0.1502 C 0.3482 -0.15689999 0.3509 -0.1601 0.3543 -0.16219999 C 0.3577 -0.16439998 0.3613 -0.16479999 0.3627 -0.16479999 C 0.3726 -0.16459998 0.37989998 -0.15929998 0.3843 -0.15059999 C 0.3874 -0.14459999 0.38959998 -0.13289998 0.38959998 -0.12679999 C 0.3866 -0.104799986 0.3796 -0.093799986 0.36139998 -0.075699985 L 0.34229997 -0.060199983 C 0.34429997 -0.067299984 0.34589997 -0.07339998 0.34589997 -0.08439998 C 0.34589997 -0.08439998 0.34599996 -0.09409998 0.34219998 -0.104299985 C 0.3403 -0.10939998 0.33709997 -0.114399984 0.3324 -0.11849999 C 0.3253 -0.12379999 0.3175 -0.12599999 0.3069 -0.124599986 C 0.3069 -0.124599986 0.3058 -0.12679999 0.3064 -0.12949999 C 0.307 -0.13199998 0.3084 -0.13349998 0.3072 -0.13479999 C 0.30290002 -0.13729998 0.2994 -0.12599999 0.29680002 -0.12179999 L 0.2935 -0.11399999 C 0.2917 -0.109299995 0.2904 -0.10509999 0.29070002 -0.09989999 C 0.29070002 -0.09989999 0.29090002 -0.09439999 0.29320002 -0.08999999 C 0.29560003 -0.08559999 0.30040002 -0.08089999 0.3093 -0.08089999 C 0.3174 -0.08089999 0.32050002 -0.084599994 0.32050002 -0.084599994 C 0.3217 -0.08569999 0.32320002 -0.089999996 0.32220003 -0.0923 C 0.32080004 -0.0954 0.31780005 -0.095 0.31620002 -0.0919 C 0.31620002 -0.0919 0.3136 -0.0884 0.3088 -0.0884 C 0.3023 -0.0894 0.29790002 -0.0931 0.298 -0.0998 C 0.2983 -0.107 0.2996 -0.1117 0.3059 -0.1153 C 0.3133 -0.118 0.3201 -0.1172 0.326 -0.1116 C 0.3294 -0.1086 0.3322 -0.1046 0.3339 -0.1002 C 0.33720002 -0.0915 0.33630002 -0.082899995 0.33630002 -0.082899995 C 0.33630002 -0.06869999 0.3345 -0.060199995 0.3318 -0.053299993 C 0.32290003 -0.03249999 0.3088 -0.021299992 0.3095 0.00940001 C 0.30940002 0.01500001 0.30990002 0.01970001 0.3109 0.02440001 L 0.3119 0.02900001 C 0.3119 0.02900001 0.3107 0.03420001 0.30879998 0.042100012 C 0.30679998 0.05020001 0.30819997 0.05300001 0.3096 0.052700013 C 0.311 0.05240001 0.3122 0.048800014 0.313 0.046800014 C 0.3144 0.043100014 0.3165 0.042200014 0.3165 0.042200014 C 0.33020002 0.060400017 0.3467 0.061100014 0.36 0.061100014 L 0.3754 0.061600015 C 0.3791 0.061600015 0.3833 0.06400002 0.3865 0.067800015 S 0.3926 0.07630002 0.3926 0.08030002 C 0.3926 0.08030002 0.3928 0.09010002 0.3847 0.08990002 C 0.3825 0.089800015 0.3813 0.08900002 0.3792 0.086700015 C 0.3781 0.08510002 0.377 0.08170001 0.375 0.082300015 S 0.3721 0.086700015 0.3729 0.08860002 C 0.3747 0.093700014 0.3784 0.09720002 0.3846 0.09740002 C 0.39220002 0.09740002 0.3971 0.09310002 0.39880002 0.088900015 C 0.4004 0.08480001 0.39990002 0.08070002 0.39990002 0.08040001 C 0.39990002 0.08040001 0.40060002 0.07160001 0.39450002 0.06390001 C 0.3925 0.06150001 0.38920003 0.05830001 0.38650003 0.056800008 C 0.39010003 0.054500006 0.39280003 0.05180001 0.39440003 0.04890001 C 0.39780003 0.04280001 0.39710003 0.03660001 0.39710003 0.03660001 C 0.39710003 0.029300008 0.39560002 0.022500008 0.39220002 0.017200008 C 0.38880002 0.012000008 0.38320002 0.008400008 0.37630004 0.008500008 C 0.37000003 0.008500008 0.36620003 0.012800008 0.36480004 0.014700009 C 0.36210003 0.018800009 0.36280003 0.021600008 0.36580002 0.02190001 C 0.36780003 0.02190001 0.3679 0.01640001 0.37640002 0.01640001 C 0.38090003 0.01640001 0.38380003 0.01820001 0.38610002 0.02170001 S 0.38970003 0.03020001 0.38970003 0.03660001 C 0.38970003 0.03660001 0.38960004 0.040900007 0.3873 0.04520001 C 0.3828 0.051900007 0.3765 0.05360001 0.36870003 0.05400001 H 0.35990003 C 0.34760004 0.05400001 0.33310002 0.050400008 0.32340002 0.033700008 C 0.32290003 0.03290001 0.32040003 0.028500007 0.31960002 0.024000008 S 0.3183 0.014500008 0.3183 0.009400007 C 0.3183 -0.019299991 0.3394 -0.042499993 0.3439 -0.047099993 L 0.3511 -0.053899992 C 0.3511 -0.053899992 0.3644 -0.064399995 0.377 -0.064399995 C 0.38300002 -0.064399995 0.3878 -0.0628 0.3925 -0.058799997 C 0.39720002 -0.054899998 0.40010002 -0.049699996 0.40010002 -0.044899996 C 0.40010002 -0.044899996 0.40010002 -0.040599994 0.3986 -0.036599997 C 0.3978 -0.034599997 0.39670002 -0.0327 0.3953 -0.0314 S 0.3922 -0.029299999 0.3894 -0.029299999 C 0.3888 -0.029299999 0.3864 -0.029799998 0.38480002 -0.030699998 S 0.38270003 -0.032399997 0.3824 -0.033499997 C 0.3818 -0.038499996 0.3864 -0.039499998 0.3842 -0.0415 C 0.3809 -0.0431 0.3757 -0.0398 0.37510002 -0.033499997 C 0.37510002 -0.029099997 0.37820002 -0.025899997 0.38110003 -0.024299998 S 0.38690004 -0.021899998 0.38940004 -0.021899998 C 0.39380002 -0.021899998 0.39730003 -0.023799999 0.40010002 -0.025899999 C 0.40260002 -0.0278 0.40550002 -0.030399999 0.40550002 -0.030399999 C 0.40660003 -0.030199999 0.4074 -0.026299998 0.40890002 -0.025199998 C 0.4098 -0.0242 0.4129 -0.0245 0.411 -0.0341 Z M -0.3067 -0.0881 C -0.31149998 -0.0881 -0.3141 -0.0916 -0.3141 -0.0916 C -0.3157 -0.0946 -0.3187 -0.0951 -0.3201 -0.092 C -0.3211 -0.0897 -0.31960002 -0.0854 -0.3184 -0.0843 C -0.3184 -0.0843 -0.3152 -0.08059999 -0.30719998 -0.08059999 C -0.2983 -0.08059999 -0.29349998 -0.0852 -0.2911 -0.08969999 C -0.28869998 -0.09409999 -0.2886 -0.09959999 -0.2886 -0.09959999 C -0.2883 -0.104799986 -0.28959998 -0.10899999 -0.2914 -0.11369999 L -0.2947 -0.121499985 C -0.2972 -0.12569998 -0.3008 -0.13699998 -0.3051 -0.13449998 C -0.3064 -0.13319997 -0.3049 -0.13169998 -0.30429998 -0.12919998 C -0.30369997 -0.12649998 -0.30479997 -0.12429998 -0.30479997 -0.12429998 C -0.31539997 -0.12569998 -0.3232 -0.12349998 -0.33029997 -0.11819998 C -0.33499998 -0.11409998 -0.3381 -0.109099984 -0.34009996 -0.10399998 C -0.34389997 -0.09379998 -0.34379995 -0.08409998 -0.34379995 -0.08409998 C -0.34379995 -0.07309998 -0.34219995 -0.06699998 -0.34019995 -0.05989998 L -0.35929996 -0.07539998 C -0.37749997 -0.09349998 -0.38449997 -0.10449998 -0.38749996 -0.12649998 C -0.38749996 -0.13259998 -0.38529995 -0.14429998 -0.38219997 -0.15029998 C -0.3778 -0.15899998 -0.37049997 -0.16429998 -0.36059996 -0.16449998 C -0.35919997 -0.16449998 -0.35559997 -0.16409998 -0.35219997 -0.16189998 S -0.34609997 -0.15649998 -0.34609997 -0.14989999 C -0.34609997 -0.14529999 -0.3469 -0.1433 -0.34829998 -0.14189999 C -0.34989998 -0.14029999 -0.35189998 -0.13949999 -0.35329998 -0.13949999 C -0.35629997 -0.13949999 -0.35889998 -0.1406 -0.35889998 -0.1406 C -0.36209998 -0.1422 -0.36439997 -0.1392 -0.36069998 -0.1363 C -0.35989997 -0.1356 -0.3579 -0.1337 -0.353 -0.1337 C -0.35029998 -0.1337 -0.3473 -0.1341 -0.3442 -0.13679999 C -0.3412 -0.13949999 -0.3389 -0.144 -0.3389 -0.1502 C -0.3389 -0.1591 -0.3432 -0.16489999 -0.3482 -0.1681 C -0.3532 -0.1713 -0.3584 -0.1727 -0.3615 -0.1727 C -0.3759 -0.1727 -0.3859 -0.1636 -0.3905 -0.1541 S -0.3957 -0.1354 -0.3958 -0.1286 C -0.3966 -0.0982 -0.3764 -0.08 -0.3721 -0.0756 C -0.3807 -0.0747 -0.3872 -0.0708 -0.3953 -0.064899996 C -0.4 -0.060999997 -0.4032 -0.054799996 -0.4045 -0.048999995 L -0.40890002 -0.033799995 C -0.4108 -0.024199994 -0.40770003 -0.023899995 -0.40680003 -0.024599995 C -0.40520003 -0.025699995 -0.40450004 -0.029599994 -0.40340003 -0.029799996 C -0.40340003 -0.029799996 -0.40050003 -0.027099997 -0.39800003 -0.025299996 C -0.39520004 -0.023199996 -0.39170003 -0.021299995 -0.38730004 -0.021299995 C -0.38480005 -0.021299995 -0.38190004 -0.021999996 -0.37900004 -0.023699995 S -0.37300003 -0.028499994 -0.37300003 -0.032899994 C -0.37370002 -0.039199993 -0.37890002 -0.042499997 -0.38210002 -0.040899996 C -0.3842 -0.038899995 -0.3797 -0.037899997 -0.38030002 -0.032899994 C -0.3806 -0.031699993 -0.381 -0.030999994 -0.38270003 -0.030099995 C -0.38430002 -0.029199995 -0.38680002 -0.028699996 -0.3873 -0.028699996 C -0.3901 -0.028699996 -0.39180002 -0.029499996 -0.3932 -0.030799996 S -0.3957 -0.033999994 -0.39650002 -0.035999995 C -0.39800003 -0.040099993 -0.39800003 -0.044299994 -0.39800003 -0.044299994 C -0.39800003 -0.049199995 -0.39510003 -0.054299995 -0.39040002 -0.058199994 S -0.38090003 -0.06379999 -0.3749 -0.06379999 C -0.3623 -0.06379999 -0.349 -0.053299993 -0.349 -0.053299993 L -0.3418 -0.046499994 C -0.3373 -0.041999996 -0.31620002 -0.018699994 -0.31620002 0.010000005 C -0.31620002 0.015100006 -0.3167 0.020100005 -0.31750003 0.024600007 S -0.32080004 0.033400007 -0.32130003 0.034300007 C -0.33100003 0.051000006 -0.34550002 0.054600008 -0.35780004 0.054600008 H -0.36660004 C -0.37440005 0.05420001 -0.38070005 0.052600008 -0.38520002 0.045800008 C -0.38760003 0.04150001 -0.38760003 0.037200008 -0.38760003 0.037200008 C -0.38760003 0.030900007 -0.38630003 0.025900006 -0.38400003 0.022300009 C -0.38170004 0.01870001 -0.37880003 0.016900009 -0.37430003 0.017000008 C -0.36570004 0.017000008 -0.36570004 0.022600008 -0.36370003 0.022500008 C -0.36070004 0.022200009 -0.36010003 0.019400008 -0.36270005 0.0153000085 C -0.36410004 0.013500009 -0.36790004 0.009100009 -0.37420005 0.009100009 C -0.38100004 0.009000009 -0.38670003 0.012600008 -0.39010006 0.017800009 C -0.39350006 0.02300001 -0.39500007 0.029800009 -0.39500007 0.03720001 C -0.39500007 0.03720001 -0.39570007 0.043400012 -0.39230007 0.04950001 C -0.39070007 0.05240001 -0.38800007 0.05520001 -0.38440007 0.05740001 C -0.38700008 0.05900001 -0.39040008 0.06220001 -0.39240006 0.06450001 C -0.39850006 0.072200015 -0.39780006 0.081000015 -0.39780006 0.081000015 C -0.39780006 0.08130001 -0.39830005 0.08550002 -0.39670005 0.08950002 C -0.39500004 0.093800016 -0.39010006 0.09800002 -0.38250005 0.09800002 C -0.37630007 0.09780002 -0.37260005 0.09440002 -0.37080005 0.08920002 C -0.37000003 0.08730002 -0.37100005 0.08350002 -0.37290004 0.08290002 S -0.37590003 0.08570002 -0.37710005 0.08730002 C -0.37910005 0.08970002 -0.38040006 0.09040002 -0.38260004 0.09050002 C -0.39060003 0.09070002 -0.39050004 0.08090002 -0.39050004 0.08090002 C -0.39050004 0.07690002 -0.38760003 0.07220002 -0.38440004 0.06840002 S -0.37700003 0.062200017 -0.37330005 0.062200017 L -0.35790005 0.061700016 C -0.34460005 0.061700016 -0.32810006 0.061000016 -0.31440005 0.042800017 C -0.31440005 0.042800017 -0.31230006 0.043700017 -0.31090003 0.047400016 C -0.31010002 0.049400017 -0.30890003 0.053000018 -0.30750003 0.053300016 C -0.30610004 0.053600017 -0.30480003 0.050800014 -0.30670002 0.042700015 C -0.30850002 0.034800015 -0.30980003 0.029600015 -0.30980003 0.029600015 L -0.30880004 0.025000015 C -0.30780005 0.020300016 -0.30730003 0.015600015 -0.30740005 0.010000016 C -0.30680004 -0.020699985 -0.32080004 -0.031899985 -0.32970005 -0.052699987 C -0.33240005 -0.059699986 -0.33420005 -0.06809999 -0.33420005 -0.082299985 C -0.33420005 -0.082299985 -0.33500007 -0.09089999 -0.33180004 -0.09959999 C -0.33020005 -0.103899986 -0.32740003 -0.107899986 -0.32390004 -0.11099999 C -0.31800005 -0.116599984 -0.31110004 -0.11739998 -0.30380005 -0.11469999 C -0.29750004 -0.11109999 -0.29620004 -0.10649999 -0.29590005 -0.09919999 C -0.2958 -0.0928 -0.3002 -0.0891 -0.3067 -0.0881 Z"/>
<path id="e3" d="M 0.0011 -0.5 L -0.0611 -0.4463 L -0.039899997 -0.1234 C -0.056599997 -0.1171 -0.071499996 -0.1071 -0.0836 -0.0944 L -0.4464 -0.2734 L -0.1104 -0.0488 C -0.1138 -0.0378 -0.1157 -0.026099999 -0.1157 -0.013999999 C -0.1157 -0.008199999 -0.1152 -0.0024999985 -0.1144 0.0031000022 L -0.4042 0.146 L -0.4196 0.2266 L -0.342 0.2537 L -0.0746 0.0749 C -0.060600005 0.0869 -0.043700002 0.0955 -0.025100004 0.099800006 L 0.0011 0.5 L 0.0274 0.0998 C 0.045500003 0.0956 0.0621 0.0872 0.0759 0.0757 L 0.3421 0.2537 L 0.4196 0.2266 L 0.4043 0.146 L 0.1165 0.0041 C 0.1174 -0.0018000002 0.1179 -0.0079 0.1179 -0.014 C 0.1179 -0.0266 0.1159 -0.038599998 0.1122 -0.049999997 L 0.4463 -0.2734 L 0.08489999 -0.095300004 C 0.07299999 -0.1076 0.05839999 -0.117400005 0.041999992 -0.123500004 L 0.0633 -0.4463 L 0.0011 -0.5 Z M 0.0011 -0.0494 C 0.0199 -0.0494 0.0352 -0.0329 0.0352 -0.014000002 C 0.0352 0.0047999974 0.0199 0.020499997 0.0011 0.020499997 C -0.0177 0.020499997 -0.0343 0.0048999973 -0.0343 -0.014000002 C -0.0343 -0.032800004 -0.0178 -0.0494 0.0011 -0.0494 Z"/>
</defs>
<g>
<rect x="0" y="0" width="480" height="360" class="white"/>
<use xlink:href="#e1" transform="translate(240 180) scale(246 246) rotate(0)" class="purple"/>
<use xlink:href="#e2" transform="translate(240 180) scale(246 246) rotate(0)" class="yellow"/>
<use xlink:href="#e3" transform="translate(240 180) scale(246 246) rotate(0)" class="yellow"/>
</g>
</svg>
