<?xml version="1.0"?>
<svg xmlns="http://www.w3.org/2000/svg" xmlns:xlink="http://www.w3.org/1999/xlink" version="1.1" width="480" height="360" viewBox="0 0 480 360">
<!-- Generated by Kreative Vexillo v1.0 -->
<style>
.black{fill:rgb(0,0,0);}
.green{fill:rgb(0,169,79);}
.red{fill:rgb(239,65,53);}
.white{fill:rgb(255,255,255);}
.yellow{fill:rgb(255,221,0);}
</style>
<defs>
<path id="star" d="M 0.0 -1.0 L 0.2245 -0.309 L 0.9511 -0.309 L 0.3633 0.118 L 0.5878 0.809 L 0.0 0.382 L -0.5878 0.809 L -0.3633 0.118 L -0.9511 -0.309 L -0.2245 -0.309 Z"/>
<clipPath id="clip0">
<rect x="0" y="0" width="480" height="360"/>
</clipPath>
</defs>
<g>
<path d="M 0 360 L 0 0 L 480 0 Z" class="green"/>
<path d="M 480 0 L 480 360 L 0 360 Z" class="red"/>
<g clip-path="url(#clip0)">
<path d="M 525.36 60.48 L 525.36 60.48 L 45.36 420.48 L -45.36 299.52 L 434.64 -60.48 Z" class="yellow"/>
<path d="M 512.4 43.2 L 512.4 43.2 L 32.4 403.2 L -32.4 316.8 L 447.6 -43.2 Z" class="black"/>
</g>
<use xlink:href="#star" transform="translate(153.6 244.8) scale(50.4 50.4) rotate(-36.8699)" class="white"/>
<use xlink:href="#star" transform="translate(336 108) scale(50.4 50.4) rotate(-36.8699)" class="white"/>
</g>
</svg>
