<?xml version="1.0"?>
<svg xmlns="http://www.w3.org/2000/svg" xmlns:xlink="http://www.w3.org/1999/xlink" version="1.1" width="480" height="360" viewBox="0 0 480 360">
<!-- Generated by Kreative Vexillo v1.0 -->
<style>
.red{fill:rgb(210,0,0);}
.yellow{fill:rgb(255,230,0);}
</style>
<g>
<rect x="0" y="0" width="480" height="360" class="red"/>
<path d="M 240 180 L 0 0 L 72 0 Z" class="yellow"/>
<path d="M 240 180 L 216 0 L 264 0 Z" class="yellow"/>
<path d="M 240 180 L 408 0 L 480 0 Z" class="yellow"/>
<path d="M 240 180 L 480 156 L 480 204 Z" class="yellow"/>
<path d="M 240 180 L 480 360 L 408 360 Z" class="yellow"/>
<path d="M 240 180 L 264 360 L 216 360 Z" class="yellow"/>
<path d="M 240 180 L 72 360 L 0 360 Z" class="yellow"/>
<path d="M 240 180 L 0 204 L 0 156 Z" class="yellow"/>
<ellipse cx="240" cy="180" rx="64.2857" ry="64.2857" class="red"/>
<ellipse cx="240" cy="180" rx="51.4286" ry="51.4286" class="yellow"/>
</g>
</svg>
