<?xml version="1.0"?>
<svg xmlns="http://www.w3.org/2000/svg" xmlns:xlink="http://www.w3.org/1999/xlink" version="1.1" width="480" height="360" viewBox="0 0 480 360">
<!-- Generated by Kreative Vexillo v1.0 -->
<style>
.green{fill:rgb(0,169,92);}
.red{fill:rgb(208,28,31);}
.yellow{fill:rgb(255,215,0);}
</style>
<defs>
<path id="crescent" d="M -1.0 0.0 A 1.0 1.0 0.0 0 0 0.0 1.0 A 1.0 1.0 0.0 0 0 1.0 0.0 A 1.0 1.0 0.0 0 1 0.0 0.745 A 1.0 1.0 0.0 0 1 -1.0 0.0 Z"/>
<path id="star" d="M 0.0 -1.0 L 0.2245 -0.309 L 0.9511 -0.309 L 0.3633 0.118 L 0.5878 0.809 L 0.0 0.382 L -0.5878 0.809 L -0.3633 0.118 L -0.9511 -0.309 L -0.2245 -0.309 Z"/>
</defs>
<g>
<g>
<rect x="0" y="0" width="480" height="72" class="red"/>
<rect x="0" y="72" width="480" height="216" class="green"/>
<rect x="0" y="288" width="480" height="72" class="red"/>
</g>
<use xlink:href="#crescent" transform="translate(240 108) scale(135 144) rotate(0)" class="yellow"/>
<use xlink:href="#star" transform="translate(240 146.0095) scale(38.0095 38.0095) rotate(0)" class="yellow"/>
</g>
</svg>
