<?xml version="1.0"?>
<svg xmlns="http://www.w3.org/2000/svg" xmlns:xlink="http://www.w3.org/1999/xlink" version="1.1" width="480" height="360" viewBox="0 0 480 360">
<!-- Generated by Kreative Vexillo v1.0 -->
<style>
.blue{fill:rgb(1,85,165);}
.red{fill:rgb(238,62,52);}
.white{fill:rgb(255,255,255);}
</style>
<defs>
<path id="seeblatt" d="M -0.0141 0.5106 C -0.30040002 0.47229996 -0.5141 0.22799999 -0.5141 -0.060800016 C -0.5142 -0.2185 -0.4022 -0.3465 -0.2642 -0.3465 C -0.15560001 -0.3476 -0.0635 -0.24020001 -0.049899995 -0.09650001 C -0.049899995 -0.07680001 -0.033899993 -0.06080001 -0.0141999945 -0.06080001 C 0.0055000056 -0.06080001 0.021500006 -0.07680001 0.021500006 -0.09650001 C 0.0351 -0.2402 0.1272 -0.3476 0.2358 -0.3465 C 0.3739 -0.3465 0.4858 -0.2186 0.4858 -0.060800016 C 0.4859 0.228 0.2722 0.4723 -0.0141 0.5106 Z"/>
</defs>
<g>
<rect x="0" y="0" width="480" height="360" class="white"/>
<path d="M 342.8571 0 L 480 0 L 480 102.8571 Z" class="blue"/>
<path d="M 68.5714 0 L 205.7143 0 L 480 205.7143 L 480 308.5714 Z" class="blue"/>
<path d="M 0 154.2857 L 0 51.4286 L 411.4286 360 L 274.2857 360 Z" class="blue"/>
<path d="M 0 257.1429 L 137.1429 360 L 0 360 Z" class="blue"/>
<use xlink:href="#seeblatt" transform="translate(51.984 237.312) scale(74 74) rotate(36.8699)" class="red"/>
<use xlink:href="#seeblatt" transform="translate(135.168 299.7) scale(74 74) rotate(36.8699)" class="red"/>
<use xlink:href="#seeblatt" transform="translate(115.968 79.596) scale(74 74) rotate(36.8699)" class="red"/>
<use xlink:href="#seeblatt" transform="translate(243.984 175.608) scale(74 74) rotate(36.8699)" class="red"/>
<use xlink:href="#seeblatt" transform="translate(372 271.584) scale(74 74) rotate(36.8699)" class="red"/>
<use xlink:href="#seeblatt" transform="translate(352.8 51.516) scale(74 74) rotate(36.8699)" class="red"/>
<use xlink:href="#seeblatt" transform="translate(435.984 113.904) scale(74 74) rotate(36.8699)" class="red"/>
</g>
</svg>
