<?xml version="1.0"?>
<svg xmlns="http://www.w3.org/2000/svg" xmlns:xlink="http://www.w3.org/1999/xlink" version="1.1" width="480" height="360" viewBox="0 0 480 360">
<!-- Generated by Kreative Vexillo v1.0 -->
<style>
.blue{fill:rgb(15,71,175);}
.green{fill:rgb(7,137,48);}
.white{fill:rgb(255,255,255);}
.yellow{fill:rgb(252,221,9);}
</style>
<defs>
<path id="fleur" d="M 0.0 -0.5 C -0.0687 -0.4143 -0.1628 -0.3348 -0.1632 -0.229 C -0.16340001 -0.1806 -0.1558 -0.1496 -0.08720001 -0.034500003 C -0.035600007 0.052099995 -0.029700007 0.0646 -0.029700007 0.086899996 V 0.1118 H 0.029599994 V 0.086899996 C 0.029599994 0.0646 0.035499994 0.051999997 0.0871 -0.034500003 C 0.1557 -0.1497 0.16330001 -0.1806 0.1631 -0.229 C 0.1628 -0.3348 0.0687 -0.4143 0.0 -0.5 Z M 0.2183 -0.1177 C 0.2084 -0.1175 0.1988 -0.1163 0.1897 -0.113800004 C 0.1569 -0.1049 0.1322 -0.078600004 0.08420001 -0.0011000037 C 0.0486 0.0563 0.0421 0.0703 0.0421 0.0894 V 0.112 H 0.0647 C 0.0863 0.112 0.0835 0.113400005 0.098900005 0.0881 S 0.1456 0.048800003 0.17340001 0.0475 C 0.23560001 0.0446 0.26500002 0.0841 0.3046 0.1223 C 0.3062 0.1224 0.3171 0.1125 0.3289 0.1003 C 0.3815 0.0457 0.38570002 -0.014600001 0.3402 -0.063899994 C 0.3087 -0.0982 0.2611 -0.1184 0.2183 -0.1177 L 0.2183 -0.1177 Z M -0.2183 -0.1177 C -0.2084 -0.1175 -0.1988 -0.1163 -0.1897 -0.113800004 C -0.1569 -0.1049 -0.1322 -0.078600004 -0.08420001 -0.0011000037 C -0.04860001 0.056299996 -0.04210001 0.0703 -0.04210001 0.08939999 V 0.111999996 H -0.06470001 C -0.08630001 0.111999996 -0.083500005 0.1134 -0.098900005 0.088099994 S -0.1456 0.048799995 -0.17340001 0.047499992 C -0.23560001 0.04459999 -0.26500002 0.08409999 -0.3046 0.12229999 C -0.3062 0.12239999 -0.3171 0.11249999 -0.3289 0.10029999 C -0.3815 0.04569999 -0.38570002 -0.014600009 -0.3402 -0.0639 C -0.3087 -0.0982 -0.2611 -0.1184 -0.2183 -0.1177 L -0.2183 -0.1177 Z M -0.08 0.1253 H 0.08 C 0.104399994 0.1253 0.124 0.14490001 0.124 0.1693 S 0.104399994 0.2133 0.08 0.2133 H -0.08 C -0.104399994 0.2133 -0.124 0.1937 -0.124 0.1693 S -0.1044 0.1253 -0.08 0.1253 Z M 0.0378 0.2273 C 0.044999998 0.2833 0.070199996 0.3521 0.1107 0.3869 C 0.17089999 0.4318 0.22299999 0.36110002 0.2098 0.3084 C 0.193 0.3191 0.1647 0.3174 0.146 0.3109 C 0.1329 0.3061 0.121199995 0.2962 0.10789999 0.2803 C 0.089899994 0.2571 0.08189999 0.22729999 0.058799993 0.22719999 H 0.0378 Z M 0.0257 0.2267 C 0.0243 0.25419998 0.0336 0.28219998 0.0424 0.3042 C 0.0641 0.3575 0.0617 0.3919 0.0458 0.424 C 0.0299 0.4562 0.0 0.5 0.0 0.5 S -0.0299 0.4562 -0.0458 0.424 C -0.0617 0.3919 -0.0641 0.3576 -0.0424 0.3042 C -0.0314 0.2787 -0.0257 0.2538 -0.0257 0.2267 H 0.0257 Z M -0.0378 0.2273 C -0.044999998 0.2833 -0.070199996 0.3521 -0.1107 0.3869 C -0.17089999 0.4318 -0.22299999 0.36110002 -0.2098 0.3084 C -0.193 0.3191 -0.1647 0.3174 -0.146 0.3109 C -0.1329 0.3061 -0.121199995 0.2962 -0.10789999 0.2803 C -0.089899994 0.2571 -0.08189999 0.22729999 -0.058799993 0.22719999 H -0.0378 Z"/>
<path id="wave" d="M 0.263 -0.767 C 0.23840001 -0.767 0.21380001 -0.70600003 0.19100001 -0.58390003 C 0.18070002 -0.5289 0.1685 -0.50140005 0.15620002 -0.50140005 C 0.14390002 -0.50140005 0.13170002 -0.5289 0.12140002 -0.58390003 C 0.0832 -0.7886 0.0399 -0.8194 0.0 -0.6808 V 0.3855 C 0.0049 0.3653 0.0098 0.344 0.0146 0.31840003 C 0.0351 0.20850003 0.063599996 0.20850003 0.0842 0.31840003 C 0.107 0.44050002 0.1316 0.5015 0.15619999 0.5015 C 0.18079999 0.5015 0.20539999 0.44050002 0.22819999 0.31840003 C 0.2487 0.20850003 0.27719998 0.20850003 0.2978 0.31840003 C 0.3434 0.5625 0.39630002 0.5625 0.4418 0.31840003 C 0.4623 0.20850003 0.4908 0.20850003 0.5114 0.31840003 C 0.5337 0.4385 0.5583 0.4985 0.5833 0.4985 H 1.0 V -0.4985 H 0.5833 C 0.5708 -0.4985 0.5586 -0.53 0.5485 -0.5839 C 0.5029 -0.82799995 0.45 -0.82799995 0.4045 -0.5839 C 0.384 -0.47399998 0.3555 -0.47399998 0.33490002 -0.5839 C 0.3122 -0.706 0.2876 -0.767 0.263 -0.767 Z"/>
</defs>
<g>
<g>
<rect x="0" y="0" width="480" height="180" class="blue"/>
<rect x="0" y="180" width="480" height="180" class="green"/>
</g>
<use xlink:href="#wave" transform="translate(0 180) scale(480 47.664) rotate(0)" class="yellow"/>
<use xlink:href="#fleur" transform="translate(84.3243 74.25) scale(112.5 112.5) rotate(0)" class="white"/>
</g>
</svg>
