<?xml version="1.0"?>
<svg xmlns="http://www.w3.org/2000/svg" xmlns:xlink="http://www.w3.org/1999/xlink" version="1.1" width="480" height="360" viewBox="0 0 480 360">
<!-- Generated by Kreative Vexillo v1.0 -->
<style>
.blue{fill:rgb(0,83,155);}
.red{fill:rgb(227,24,55);}
.white{fill:rgb(255,255,255);}
</style>
<defs>
<path id="-glazearea" d="M 0.0 0.0 L 1.0 0.5137 L 0.3687 0.5137 L 0.9615 1.0 L 0.0 1.0 Z"/>
<path id="moon" d="M -1.0 -0.4653 A 1.0 1.0 0.0 0 0 1.0 -0.4653 A 1.0745 1.0745 0.0 0 1 -1.0 -0.4653 Z"/>
<path id="ssun" d="M 0.72 0.0 L 0.981 -0.195 L 0.665 -0.276 L 0.831 -0.556 L 0.509 -0.509 L 0.556 -0.831 L 0.276 -0.665 L 0.195 -0.981 L 0.0 -0.72 L -0.195 -0.981 L -0.276 -0.665 L -0.556 -0.831 L -0.509 -0.509 L -0.831 -0.556 L -0.665 -0.276 L -0.981 -0.195 L -0.72 0.0 L -0.981 0.195 L -0.665 0.276 L -0.831 0.556 L -0.509 0.509 L -0.556 0.831 L -0.276 0.665 L -0.195 0.981 L 0.0 0.72 L 0.195 0.981 L 0.276 0.665 L 0.556 0.831 L 0.509 0.509 L 0.831 0.556 L 0.665 0.276 L 0.981 0.195 Z"/>
<path id="sun" d="M 1.0 0.0 L 0.581 -0.156 L 0.866 -0.5 L 0.425 -0.425 L 0.5 -0.866 L 0.156 -0.581 L 0.0 -1.0 L -0.156 -0.581 L -0.5 -0.866 L -0.425 -0.425 L -0.866 -0.5 L -0.581 -0.156 L -1.0 0.0 L -0.581 0.156 L -0.866 0.5 L -0.425 0.425 L -0.5 0.866 L -0.156 0.581 L 0.0 1.0 L 0.156 0.581 L 0.5 0.866 L 0.425 0.425 L 0.866 0.5 L 0.581 0.156 Z"/>
<clipPath id="clip0">
<rect x="0" y="0" width="480" height="157.5975"/>
</clipPath>
</defs>
<g>
<path d="M 92.338 0 L 387.662 184.9378 L 201.2309 184.9378 L 376.2944 360 L 92.338 360 Z" class="blue"/>
<path d="M 102.9933 19.2511 L 350.5635 174.2844 L 175.5053 174.2844 L 350.5635 349.3446 L 102.9933 349.3446 Z" class="red"/>
<g clip-path="url(#clip0)">
<use xlink:href="#ssun" transform="translate(164.8859 139.094) scale(31.8669 31.8669) rotate(0)" class="white"/>
</g>
<use xlink:href="#moon" transform="translate(164.8859 139.094) scale(49.3069 49.3069) rotate(0)" class="white"/>
<use xlink:href="#sun" transform="translate(164.8859 261.8145) scale(52.9803 52.9803) rotate(0)" class="white"/>
</g>
</svg>
