<?xml version="1.0"?>
<svg xmlns="http://www.w3.org/2000/svg" xmlns:xlink="http://www.w3.org/1999/xlink" version="1.1" width="480" height="360" viewBox="0 0 480 360">
<!-- Generated by Kreative Vexillo v1.0 -->
<style>
.black{fill:rgb(0,0,0);}
.brown{fill:rgb(164,105,24);}
.green{fill:rgb(16,234,19);}
.white{fill:rgb(255,255,255);}
</style>
<defs>
<path id="fern" d="M 0.9472 0.0383 C 0.9373 0.0406 0.9465 0.0488 0.9408 0.0553 C 0.9371 0.054 0.941 0.0452 0.9365 0.0447 C 0.9233 0.0505 0.9348 0.0573 0.9301 0.0681 C 0.9228 0.0678 0.9261 0.0497 0.91730005 0.057499997 C 0.90810007 0.059399996 0.92480004 0.0757 0.91300005 0.0809 C 0.9064 0.078999996 0.91310006 0.0638 0.90450007 0.063899994 C 0.8852001 0.06419999 0.91270006 0.0931 0.8939001 0.097899996 C 0.8873001 0.0931 0.8920001 0.077099994 0.8854001 0.072399996 C 0.8639001 0.076 0.89310014 0.107599996 0.87260014 0.1171 C 0.8682001 0.108 0.86970013 0.093 0.86620015 0.0831 C 0.85950017 0.0828 0.85910016 0.0888 0.8513001 0.0874 C 0.8516001 0.0949 0.8574001 0.09689999 0.8577001 0.104399994 C 0.8612001 0.106699996 0.8612001 0.123399995 0.8577001 0.1257 C 0.8558001 0.12879999 0.8545001 0.13239999 0.8492001 0.1321 C 0.8474001 0.1197 0.84350014 0.109400004 0.84490013 0.0938 C 0.8391001 0.0912 0.8272001 0.098 0.8215001 0.1023 C 0.8340001 0.1057 0.84210014 0.14310001 0.8258001 0.1491 C 0.8140001 0.1411 0.8217001 0.113400005 0.81300014 0.1023 C 0.80810016 0.108100004 0.7949001 0.105500005 0.7917001 0.112900004 C 0.80300015 0.1225 0.8096001 0.165 0.7917001 0.1725 C 0.78240013 0.1591 0.78430015 0.1345 0.78110015 0.1151 C 0.77110016 0.11579999 0.7644001 0.1196 0.75560015 0.12149999 C 0.76160014 0.12969999 0.76780015 0.13769999 0.76840013 0.1513 C 0.7719001 0.1543 0.7719001 0.1717 0.76840013 0.17469999 C 0.7686001 0.18409999 0.76590014 0.1906 0.75780016 0.1917 C 0.74850017 0.1748 0.7500002 0.147 0.7472002 0.1236 C 0.73770016 0.12539999 0.73090017 0.13 0.7195002 0.13 C 0.7177002 0.1381 0.73160017 0.14719999 0.73010015 0.1619 C 0.73360014 0.167 0.73360014 0.1866 0.73010015 0.1917 C 0.72830015 0.1991 0.72620016 0.2062 0.7173002 0.2066 C 0.70930016 0.18699999 0.7088002 0.1598 0.7067002 0.1343 C 0.6953002 0.1371 0.6821002 0.138 0.6727002 0.14279999 C 0.68430024 0.14609998 0.6870002 0.1582 0.68970025 0.17049998 C 0.69320023 0.17699999 0.69320023 0.19809999 0.68970025 0.20449999 C 0.6874002 0.21069999 0.68710023 0.2189 0.6791003 0.21939999 C 0.66470027 0.20329998 0.6702003 0.16729999 0.66420025 0.14279999 C 0.6544002 0.1458 0.64240026 0.14649999 0.63230026 0.14919999 C 0.64340025 0.15699999 0.6604003 0.21939999 0.63440025 0.2322 C 0.62300026 0.21239999 0.6245003 0.1797 0.6216003 0.1513 C 0.60900027 0.1515 0.5997003 0.1549 0.5876003 0.1556 C 0.5952003 0.1672 0.60290027 0.1786 0.6025003 0.19819999 C 0.6060003 0.20049998 0.6060003 0.21719998 0.6025003 0.21949999 C 0.6029003 0.23269999 0.5999003 0.24249999 0.58970034 0.24499999 C 0.58070034 0.22129999 0.58030033 0.18919998 0.5791004 0.15779999 C 0.5673004 0.15799999 0.5595004 0.16229999 0.5472004 0.16209999 C 0.56250036 0.18029998 0.5763004 0.2437 0.5493004 0.26 C 0.5382004 0.2356 0.54030037 0.19799998 0.5365004 0.16639999 C 0.5236004 0.16699998 0.5129004 0.16979998 0.5025004 0.17279999 C 0.5160004 0.18669999 0.53350043 0.2606 0.5046004 0.2792 C 0.4934004 0.257 0.4954004 0.22169998 0.4918004 0.19199999 C 0.4870004 0.19109999 0.4909004 0.18149999 0.4897004 0.17709999 C 0.4883004 0.17709999 0.48690042 0.17709999 0.4854004 0.17709999 C 0.47200042 0.17709999 0.46480042 0.18339999 0.4514004 0.18349999 C 0.4620004 0.19839999 0.4706004 0.2154 0.4705004 0.2409 C 0.47400042 0.2453 0.47400042 0.2642 0.4705004 0.2686 C 0.4706004 0.285 0.4678004 0.2985 0.4556004 0.3026 C 0.4373004 0.2762 0.4452004 0.2236 0.4365004 0.1877 C 0.4232004 0.1957 0.4016004 0.1953 0.3897004 0.20470001 C 0.4297004 0.21190001 0.43480042 0.3037 0.4067004 0.32810003 C 0.3851004 0.30150002 0.3918004 0.24660003 0.3854004 0.20470002 C 0.3669004 0.20890002 0.35290042 0.21760002 0.3343004 0.22170003 C 0.37120038 0.23820002 0.38450038 0.34140003 0.3471004 0.36850002 C 0.3207004 0.33890003 0.3315004 0.27210003 0.3194004 0.22810002 C 0.3015004 0.23580001 0.2859004 0.24570002 0.2662004 0.2515 C 0.2917004 0.26500002 0.3031004 0.2926 0.3045004 0.33020002 C 0.30800042 0.3388 0.30800042 0.3621 0.3045004 0.37060001 C 0.3065004 0.39530003 0.2950004 0.4065 0.2790004 0.41320002 C 0.2634004 0.37060001 0.2624004 0.31340003 0.2599004 0.2579 C 0.2433004 0.264 0.2294004 0.2727 0.21730039 0.2834 C 0.25690037 0.301 0.26700038 0.43580002 0.22790039 0.45569998 C 0.20760038 0.41279998 0.21540038 0.34199998 0.20450039 0.28969997 C 0.18730038 0.30659997 0.16560039 0.31879997 0.1662004 0.35349998 C 0.1662004 0.36699998 0.1662004 0.3805 0.1662004 0.39389998 C 0.1665004 0.43269998 0.1736004 0.46449998 0.1811004 0.496 C 0.1581004 0.5162 0.1354004 0.5369 0.1130004 0.5577 C 0.1068004 0.5657 0.0997004 0.5728 0.091700405 0.579 C 0.088700406 0.5795 0.0881004 0.5825 0.08530041 0.5833 C 0.085600406 0.5915 0.09390041 0.5917 0.09590041 0.5982 C 0.1428004 0.5607 0.18170041 0.5152 0.2321004 0.48120004 C 0.2819004 0.49950004 0.3556004 0.56720006 0.4087004 0.51100004 C 0.3435004 0.5163 0.2923004 0.49000004 0.2683004 0.44720003 C 0.2945004 0.43630004 0.3239004 0.45400003 0.34920043 0.46420002 C 0.3757004 0.47500002 0.40200043 0.48860002 0.42580044 0.49820003 C 0.44090044 0.48360002 0.45940045 0.47230002 0.47470045 0.45780003 C 0.41320044 0.46530002 0.34000045 0.45180002 0.31940043 0.40460002 C 0.38050044 0.3977 0.43410042 0.43450004 0.48540044 0.4514 C 0.50120044 0.4424 0.51820046 0.43460003 0.53220046 0.4237 C 0.47110045 0.4291 0.40030044 0.4141 0.38960046 0.3556 C 0.41890046 0.3503 0.44710046 0.3669 0.47260046 0.379 C 0.49880046 0.3915 0.52530044 0.4049 0.5492005 0.41730002 C 0.56560045 0.40600002 0.58750045 0.40030003 0.6045005 0.3896 C 0.53330046 0.39450002 0.46070045 0.3736 0.44490045 0.3215 C 0.48860046 0.3175 0.53820044 0.3466 0.57680047 0.3641 C 0.5916005 0.37080002 0.6093005 0.3831 0.61940044 0.38320002 C 0.64200044 0.38360003 0.6616005 0.3596 0.6832004 0.35130003 C 0.6138004 0.36120003 0.5208004 0.34500003 0.50230044 0.29390004 C 0.53510046 0.28810003 0.56690043 0.30360004 0.6002004 0.31520003 C 0.6412004 0.32950002 0.7039004 0.36540002 0.7236004 0.32580003 C 0.66490036 0.32780004 0.5880004 0.31280002 0.57470036 0.26620004 C 0.63890034 0.26660004 0.68560034 0.30280003 0.74070036 0.31940004 C 0.7516004 0.31190005 0.7652004 0.30710006 0.77260035 0.29600003 C 0.72040033 0.30060002 0.63980037 0.28390002 0.63000035 0.24280003 C 0.68560034 0.24630003 0.73450035 0.27430004 0.7832004 0.29170004 C 0.7911004 0.28400004 0.8027004 0.28000003 0.8087004 0.27040005 C 0.7592004 0.26740006 0.7121004 0.26200005 0.6959004 0.22570005 C 0.73990035 0.22650005 0.77950037 0.24980006 0.81720036 0.26400006 C 0.82400036 0.26030007 0.84380037 0.24880005 0.8363004 0.24490006 C 0.80240035 0.24490006 0.75930035 0.23720007 0.7491004 0.20660007 C 0.7859004 0.20530006 0.8149004 0.23010007 0.84700036 0.24060008 C 0.85520035 0.23180008 0.86680037 0.22640008 0.87250036 0.21510008 C 0.86740035 0.21420008 0.8679004 0.21900009 0.8619004 0.21720009 C 0.8582004 0.22070009 0.8400004 0.22070009 0.8364004 0.21720009 C 0.8157004 0.21240008 0.78920037 0.21340008 0.7853004 0.19170009 C 0.82260036 0.19200009 0.8472004 0.20500009 0.87890035 0.21080008 C 0.88240033 0.20700008 0.8974004 0.19500008 0.8895003 0.19380008 C 0.8888003 0.19380008 0.8881003 0.19380008 0.8874003 0.19380008 C 0.8844003 0.19730008 0.86700034 0.19730008 0.8640003 0.19380008 C 0.8456003 0.18950008 0.8249003 0.18750007 0.8193003 0.17040008 C 0.8478003 0.16620009 0.8739003 0.18240008 0.9002003 0.18740009 C 0.9058003 0.18100008 0.9112003 0.17430009 0.91510034 0.16610008 C 0.8941003 0.17360008 0.8546003 0.17230009 0.85340035 0.14700009 C 0.87880033 0.14780009 0.8970004 0.15590009 0.9172003 0.16190009 C 0.9190003 0.15590009 0.92410034 0.15320009 0.9236003 0.14490008 C 0.90610033 0.14940009 0.87920034 0.14740008 0.8768003 0.13000008 C 0.8937003 0.12050009 0.9254003 0.15340008 0.9321003 0.12790008 C 0.9149003 0.12880008 0.8997003 0.12770008 0.8981003 0.11300008 C 0.91010034 0.10870008 0.92300034 0.12030008 0.9364003 0.12150008 C 0.9346003 0.115500085 0.9394003 0.116000086 0.9385003 0.11090008 C 0.93190026 0.11070008 0.91320026 0.10910008 0.9151003 0.093900084 C 0.9263003 0.09120008 0.93720025 0.10920008 0.9428003 0.09820008 C 0.9500003 0.09010008 0.9277003 0.093500085 0.9300003 0.083300084 C 0.9383003 0.079400085 0.9455003 0.093900084 0.9470003 0.083300084 C 0.9569003 0.07730009 0.93600035 0.073300086 0.9427003 0.07050008 C 0.94670033 0.07000008 0.94740033 0.07290009 0.9512003 0.07260008 C 0.9518 0.0597 0.9606 0.0441 0.9472 0.0383 Z"/>
<path id="kiwi" d="M 0.8663 0.4809 C 0.81229997 0.4143 0.7385 0.3488 0.6237 0.3575 C 0.5306 0.36459997 0.46420002 0.4141 0.40030003 0.45319998 C 0.37870002 0.46639997 0.35300002 0.49089998 0.33220002 0.49359998 C 0.30310002 0.49749997 0.27290002 0.47699997 0.24280003 0.47869998 C 0.19980003 0.48119998 0.17930003 0.50519997 0.16190003 0.54469997 C 0.16190003 0.54469997 0.15760003 0.55429995 0.15760003 0.5617 C 0.15760003 0.5624 0.15760003 0.5631 0.15760003 0.5638 C 0.16040003 0.5936 0.13020003 0.60679996 0.11500003 0.6234 C 0.06480003 0.67819995 0.03570003 0.74549997 0.00440003 0.81909996 C 0.02710003 0.7883 0.04800003 0.74459994 0.07670003 0.70629996 C 0.10020003 0.67499995 0.14060003 0.61999995 0.18730003 0.62969995 C 0.21230003 0.6349 0.21980003 0.6600999 0.23620003 0.67649996 C 0.30230004 0.74259996 0.42720002 0.7535 0.5511 0.75949997 C 0.5381 0.79139996 0.538 0.82719994 0.5149 0.84669995 C 0.49250004 0.86569995 0.45630002 0.85819995 0.43620002 0.88289994 C 0.44810003 0.88909996 0.45970002 0.87659997 0.47450003 0.87859994 C 0.48310003 0.88069993 0.48200002 0.89239997 0.48300004 0.90199995 C 0.50970006 0.89509994 0.52660006 0.868 0.55750006 0.87219995 C 0.5422001 0.8303 0.60170007 0.76649994 0.6341001 0.77009994 C 0.6698001 0.7739999 0.66560006 0.83199996 0.66810006 0.87439996 C 0.62130004 0.88369995 0.56920004 0.8875 0.5490001 0.92329997 C 0.57150006 0.9231 0.5885001 0.91739994 0.6043001 0.9105 C 0.6152001 0.9131 0.6161001 0.9256 0.6213001 0.9339 C 0.6423001 0.9183 0.6685001 0.898 0.7064001 0.9062 C 0.6780001 0.8601 0.7417001 0.79829997 0.7638001 0.7679 C 0.7880001 0.7348 0.8133001 0.6943 0.8361001 0.66999996 C 0.8583001 0.6464 0.8857001 0.6299 0.8978001 0.59979993 C 0.9194 0.5474 0.8902 0.5104 0.8663 0.4809 Z"/>
</defs>
<g>
<rect x="0" y="0" width="480" height="360" class="black"/>
<use xlink:href="#fern" transform="translate(0 0) scale(360 360) rotate(0)" class="white"/>
<use xlink:href="#kiwi" transform="translate(120 0) scale(360 360) rotate(0)" class="brown"/>
<ellipse cx="206.4" cy="192.6" rx="6.84" ry="6.84" class="green"/>
<path d="M -1.2657 310.3009 L -1.2657 310.3009 L 205.1343 190.4209 L 207.6657 194.7791 L 1.2657 314.6591 Z" class="green"/>
<path d="M 5.0786 299.5301 L 5.0786 299.5301 L 14.0076 285.1579 L 18.2887 287.8176 L 9.3597 302.1898 Z" class="green"/>
<path d="M -1.5954 298.6616 L -1.5954 298.6616 L -0.4589 281.7798 L 4.5697 282.1184 L 3.4332 299.0002 Z" class="green"/>
<path d="M 13.5759 309.4489 L 13.5759 309.4489 L 30.484 308.8145 L 30.673 313.851 L 13.7649 314.4853 Z" class="green"/>
<path d="M 13.4098 316.1772 L 13.4098 316.1772 L 28.6366 323.555 L 26.439 328.0906 L 11.2122 320.7128 Z" class="green"/>
</g>
</svg>
