<?xml version="1.0"?>
<svg xmlns="http://www.w3.org/2000/svg" xmlns:xlink="http://www.w3.org/1999/xlink" version="1.1" width="480" height="360" viewBox="0 0 480 360">
<!-- Generated by Kreative Vexillo v1.0 -->
<style>
.blue{fill:rgb(0,121,193);}
.green{fill:rgb(0,169,79);}
.white{fill:rgb(255,255,255);}
.yellow{fill:rgb(255,196,37);}
</style>
<defs>
<path id="star" d="M 0.0 -1.0 L 0.2245 -0.309 L 0.9511 -0.309 L 0.3633 0.118 L 0.5878 0.809 L 0.0 0.382 L -0.5878 0.809 L -0.3633 0.118 L -0.9511 -0.309 L -0.2245 -0.309 Z"/>
<clipPath id="clip0">
<rect x="0" y="0" width="480" height="360"/>
</clipPath>
</defs>
<g>
<path d="M 0 0 L 480 0 L 0 360 Z" class="blue"/>
<path d="M 480 0 L 480 360 L 0 360 Z" class="green"/>
<g clip-path="url(#clip0)">
<path d="M 489.6 12.8 L 489.6 12.8 L 9.6 372.8 L -9.6 347.2 L 470.4 -12.8 Z" class="yellow"/>
</g>
<use xlink:href="#star" transform="translate(36 49.5) scale(32 32) rotate(0)" class="white"/>
<use xlink:href="#star" transform="translate(132 49.5) scale(32 32) rotate(0)" class="white"/>
<use xlink:href="#star" transform="translate(84 110.7) scale(32 32) rotate(0)" class="white"/>
<use xlink:href="#star" transform="translate(36 171.9) scale(32 32) rotate(0)" class="white"/>
<use xlink:href="#star" transform="translate(132 171.9) scale(32 32) rotate(0)" class="white"/>
</g>
</svg>
