<?xml version="1.0"?>
<svg xmlns="http://www.w3.org/2000/svg" xmlns:xlink="http://www.w3.org/1999/xlink" version="1.1" width="480" height="360" viewBox="0 0 480 360">
<!-- Generated by Kreative Vexillo v1.0 -->
<style>
.blue{fill:rgb(0,85,164);}
.red{fill:rgb(250,60,50);}
.white{fill:rgb(255,255,255);}
</style>
<defs>
<path id="atfa" d="M -0.305 -0.585 L -0.2406 -0.4825 H -0.057500005 V -0.125 L -0.19500001 -0.34 L -0.38 -0.045000017 H -0.29 L -0.195 -0.21500002 L 0.0 0.13499998 L 0.195 -0.21500002 L 0.29 -0.045000017 H 0.38 L 0.195 -0.34 L 0.05749999 -0.125 V -0.3225 H 0.13999999 L 0.20129998 -0.42 H 0.057499975 V -0.4825 H 0.24059997 L 0.30499998 -0.585 H -0.30500004 Z M -0.09 -0.1475 H -0.29000002 V -0.07749999 H -0.09000002 Z M 0.29 -0.1475 H 0.08999999 V -0.07749999 H 0.29 Z"/>
<path id="star" d="M 0.0 -1.0 L 0.2245 -0.309 L 0.9511 -0.309 L 0.3633 0.118 L 0.5878 0.809 L 0.0 0.382 L -0.5878 0.809 L -0.3633 0.118 L -0.9511 -0.309 L -0.2245 -0.309 Z"/>
</defs>
<g>
<rect x="0" y="0" width="480" height="360" class="blue"/>
<rect x="0" y="0" width="217.8" height="145.8" class="white"/>
<g>
<rect x="0" y="0" width="71.4" height="142.2" class="blue"/>
<rect x="71.4" y="0" width="71.4" height="142.2" class="white"/>
<rect x="142.8" y="0" width="71.4" height="142.2" class="red"/>
</g>
<use xlink:href="#atfa" transform="translate(345.0667 270) scale(180 180) rotate(0)" class="white"/>
<use xlink:href="#star" transform="translate(270.3667 204.3) scale(18.9 18.9) rotate(0)" class="white"/>
<use xlink:href="#star" transform="translate(419.7667 204.3) scale(18.9 18.9) rotate(0)" class="white"/>
<use xlink:href="#star" transform="translate(304.5667 295.2) scale(18.9 18.9) rotate(0)" class="white"/>
<use xlink:href="#star" transform="translate(385.5667 295.2) scale(18.9 18.9) rotate(0)" class="white"/>
<use xlink:href="#star" transform="translate(345.0667 325.8) scale(18.9 18.9) rotate(0)" class="white"/>
</g>
</svg>
