<?xml version="1.0"?>
<svg xmlns="http://www.w3.org/2000/svg" xmlns:xlink="http://www.w3.org/1999/xlink" version="1.1" width="480" height="360" viewBox="0 0 480 360">
<!-- Generated by Kreative Vexillo v1.0 -->
<style>
.blue{fill:rgb(0,73,144);}
.white{fill:rgb(255,255,255);}
.yellow{fill:rgb(255,221,0);}
</style>
<defs>
<path id="sail" d="M 329.3761 777.2654 C 311.44174 777.11554 497.9995 677.83405 654.1452 550.66565 C 858.78894 383.99945 1299.541 117.15633 1429.1161 73.7954 C 1442.6594 69.26325 1401.34 96.868484 1395.9761 105.810814 C 1257.6345 269.55124 1368.051 578.5346 1540.9487 733.8591 C 1592.9387 773.62225 1590.2761 775.7099 1686.6561 779.60535 V 788.60535 L 329.3761 777.2653 Z M 318.12503 795.3246 C 318.12503 795.3246 304.9616 804.7275 305.0001 811.7307 C 305.0431 819.50323 319.76566 829.7775 319.76566 829.7775 L 1658.5106 844.54315 L 1683.1199 828.13696 L 1648.6669 806.80896 L 318.12488 795.32465 Z"/>
<path id="star" d="M 0.0 -1.0 L 0.2245 -0.309 L 0.9511 -0.309 L 0.3633 0.118 L 0.5878 0.809 L 0.0 0.382 L -0.5878 0.809 L -0.3633 0.118 L -0.9511 -0.309 L -0.2245 -0.309 Z"/>
</defs>
<g>
<rect x="0" y="0" width="480" height="360" class="blue"/>
<use xlink:href="#sail" transform="translate(0 60) scale(0.2667 0.2667) rotate(0)" class="yellow"/>
<use xlink:href="#star" transform="translate(91.44 90) scale(12 12) rotate(0)" class="white"/>
<use xlink:href="#star" transform="translate(138.96 131.28) scale(10 10) rotate(0)" class="white"/>
<use xlink:href="#star" transform="translate(36 145.92) scale(12 12) rotate(0)" class="white"/>
<use xlink:href="#star" transform="translate(91.44 234) scale(14 14) rotate(0)" class="white"/>
</g>
</svg>
