<?xml version="1.0"?>
<svg xmlns="http://www.w3.org/2000/svg" xmlns:xlink="http://www.w3.org/1999/xlink" version="1.1" width="480" height="360" viewBox="0 0 480 360">
<!-- Generated by Kreative Vexillo v1.0 -->
<style>
.blue{fill:rgb(0,36,125);}
.red{fill:rgb(207,20,43);}
.white{fill:rgb(255,255,255);}
</style>
<defs>
<clipPath id="clip0">
<path d="M 0 0 L 0 30 L 0 30 L 200 180 L 0 330 L 0 360 L 40 360 L 240 210 L 440 360 L 480 360 L 480 330 L 280 180 L 480 30 L 480 0 L 440 0 L 240 150 L 240 150 L 40 0 Z"/>
</clipPath>
</defs>
<g>
<rect x="0" y="0" width="480" height="360" class="blue"/>
<path d="M 0 0 L 0 45 L 180 180 L 0 315 L 0 315 L 0 360 L 60 360 L 240 225 L 420 360 L 480 360 L 480 315 L 480 315 L 300 180 L 480 45 L 480 0 L 420 0 L 240 135 L 60 0 Z" class="white"/>
<g clip-path="url(#clip0)">
<path d="M 0 0 L 240 180 L 0 180 Z" class="red"/>
<path d="M 480 0 L 240 180 L 240 0 Z" class="red"/>
<path d="M 0 360 L 240 180 L 240 360 Z" class="red"/>
<path d="M 480 360 L 240 180 L 480 180 Z" class="red"/>
</g>
<g>
<rect x="0" y="120" width="480" height="120" class="white"/>
<rect x="180" y="0" width="120" height="360" class="white"/>
</g>
<g>
<rect x="0" y="144" width="480" height="72" class="red"/>
<rect x="204" y="0" width="72" height="360" class="red"/>
</g>
</g>
</svg>
