<?xml version="1.0"?>
<svg xmlns="http://www.w3.org/2000/svg" xmlns:xlink="http://www.w3.org/1999/xlink" version="1.1" width="480" height="360" viewBox="0 0 480 360">
<!-- Generated by Kreative Vexillo v1.0 -->
<style>
.blue{fill:rgb(0,36,125);}
.red{fill:rgb(207,20,43);}
.white{fill:rgb(255,255,255);}
</style>
<defs>
<clipPath id="clip0">
<path d="M 0 0 L 0 14.8171 L 0 14.8171 L 87.7134 90 L 87.7134 90 L 0 165.1829 L 0 165.1829 L 0 180 L 17.2867 180 L 105 104.8171 L 105 104.8171 L 192.7134 180 L 210 180 L 210 165.1829 L 122.2866 90 L 122.2866 90 L 210 14.8171 L 210 0 L 192.7134 0 L 105 75.1829 L 17.2866 0 Z"/>
</clipPath>
</defs>
<g>
<g>
<rect x="0" y="0" width="480" height="45" class="white"/>
<rect x="0" y="45" width="480" height="45" class="red"/>
<rect x="0" y="90" width="480" height="45" class="blue"/>
<rect x="0" y="135" width="480" height="45" class="white"/>
<rect x="0" y="180" width="480" height="45" class="red"/>
<rect x="0" y="225" width="480" height="45" class="blue"/>
<rect x="0" y="270" width="480" height="45" class="white"/>
<rect x="0" y="315" width="480" height="45" class="red"/>
</g>
<g>
<rect x="0" y="0" width="210" height="180" class="blue"/>
<path d="M 0 0 L 0 22.2257 L 0 22.2257 L 79.07 90 L 79.07 90 L 0 157.7743 L 0 180 L 25.93 180 L 105 112.2257 L 105 112.2257 L 105 112.2257 L 105 112.2257 L 184.07 180 L 210 180 L 210 157.7743 L 130.93 90 L 210 22.2257 L 210 0 L 184.07 0 L 105 67.7743 L 105 67.7743 L 105 67.7743 L 105 67.7743 L 25.93 0 Z" class="white"/>
<g clip-path="url(#clip0)">
<path d="M 0 0 L 105 90 L 0 90 Z" class="red"/>
<path d="M 210 0 L 105 90 L 105 0 Z" class="red"/>
<path d="M 0 180 L 105 90 L 105 180 Z" class="red"/>
<path d="M 210 180 L 105 90 L 210 90 Z" class="red"/>
</g>
<g>
<rect x="0" y="67.5" width="210" height="45" class="white"/>
<rect x="82.5" y="0" width="45" height="180" class="white"/>
</g>
<g>
<rect x="0" y="73.125" width="210" height="33.75" class="red"/>
<rect x="88.125" y="0" width="33.75" height="180" class="red"/>
</g>
</g>
</g>
</svg>
