<?xml version="1.0"?>
<svg xmlns="http://www.w3.org/2000/svg" xmlns:xlink="http://www.w3.org/1999/xlink" version="1.1" width="480" height="360" viewBox="0 0 480 360">
<!-- Generated by Kreative Vexillo v1.0 -->
<style>
.blue{fill:rgb(0,40,104);}
.red{fill:rgb(191,10,48);}
.white{fill:rgb(255,255,255);}
.yellow{fill:rgb(255,202,0);}
</style>
<defs>
<path id="seal" d="M 0.2936 0.5427 C 0.292 0.531 0.2967 0.5275 0.2987 0.5263 C 0.3015 0.5251 0.3023 0.5251 0.307 0.527 C 0.31190002 0.5296 0.31460002 0.5339 0.3156 0.5403 C 0.3158 0.5448 0.3145 0.5501 0.3124 0.5531 C 0.3098 0.5552 0.3079 0.5553 0.3043 0.55399996 C 0.3041 0.55389994 0.3039 0.55389994 0.3037 0.5538 C 0.3011 0.5531 0.2965 0.5496 0.2937 0.5439 C 0.2936 0.5435 0.2936 0.5431 0.2936 0.5427 Z M -0.2183 -0.5778 L -0.2063 -0.58129996 C -0.2104 -0.5875 -0.2143 -0.59339994 -0.2176 -0.59819996 C -0.2178 -0.5923 -0.218 -0.5852 -0.2183 -0.5778 Z M -0.3564 0.5279 L -0.30420002 0.4412 L -0.30350003 0.4418 C -0.29830003 0.4381 -0.28970003 0.4393 -0.27910003 0.4412 C -0.27440003 0.44169998 -0.26930004 0.4421 -0.26430002 0.4425 C -0.25980002 0.4428 -0.25540003 0.4432 -0.2515 0.4436 C -0.23820001 0.4425 -0.23640001 0.4398 -0.2362 0.43919998 C -0.2361 0.4389 -0.2362 0.43839997 -0.23640001 0.438 C -0.23820001 0.43539998 -0.2415 0.4334 -0.24640001 0.4321 C -0.3215 0.4114 -0.349 0.3953 -0.40530002 0.3588 C -0.40120003 0.3784 -0.388 0.4474 -0.38720003 0.4534 L -0.38690004 0.4556 L -0.45940003 0.4571 C -0.45320004 0.4619 -0.44780004 0.4663 -0.44250003 0.4706 C -0.4219 0.4873 -0.4039 0.5019 -0.3564 0.5279 Z M -0.2931 0.5345 C -0.2919 0.5262 -0.2907 0.5186 -0.2899 0.51240003 C -0.2944 0.517 -0.2998 0.5227 -0.3055 0.52860004 L -0.2931 0.5345 Z M -0.005 -0.6776 C 0.1436 -0.6776 0.2769 -0.6417 0.37060001 -0.57650006 C 0.3655 -0.5646 0.3131 -0.4764 0.3035 -0.4633 C 0.2931 -0.4741 0.2792 -0.4838 0.2613 -0.4926 C 0.2003 -0.525 0.1049 -0.5442 -0.0031 -0.5442 C -0.102 -0.5442 -0.19119999 -0.5278 -0.2528 -0.4996 L -0.25309998 -0.5003 L -0.25499997 -0.4994 C -0.27379996 -0.49089998 -0.28959996 -0.4807 -0.30589998 -0.4666 L -0.3708 -0.577 L -0.3723 -0.5824 C -0.2915 -0.6411 -0.151 -0.6776 -0.005 -0.6776 Z M -0.2372 -0.5386 L -0.27290002 -0.59870005 C -0.27440003 -0.60130006 -0.27760002 -0.60240006 -0.28050002 -0.6014 C -0.2833 -0.6003 -0.28500003 -0.5974 -0.28450003 -0.5944 L -0.27500004 -0.5419 L -0.31600004 -0.57809997 C -0.31830004 -0.58009994 -0.32160005 -0.58019996 -0.32400003 -0.57829994 C -0.32640004 -0.5763999 -0.32710004 -0.5730999 -0.32560003 -0.57039994 C -0.31280002 -0.54649997 -0.29330003 -0.51019996 -0.29190004 -0.50729996 C -0.29090005 -0.50499994 -0.28860003 -0.5035 -0.28620005 -0.5035 C -0.28550005 -0.5035 -0.28470004 -0.5036 -0.28400004 -0.5039 C -0.28080004 -0.5051 -0.27920005 -0.5087 -0.28040004 -0.51199996 C -0.28050002 -0.5124 -0.28090003 -0.51339996 -0.29820004 -0.54569995 L -0.26970005 -0.52059996 C -0.26770005 -0.51879996 -0.26480004 -0.5185 -0.26250005 -0.51979995 C -0.26020005 -0.5210999 -0.25890005 -0.52369994 -0.25940004 -0.52639997 L -0.26590005 -0.56259996 L -0.24790004 -0.53229994 C -0.24610004 -0.5292999 -0.24230003 -0.52839994 -0.23930004 -0.5300999 C -0.2364 -0.5318 -0.2355 -0.5356 -0.2372 -0.5386 Z M -0.1771 -0.5596 C -0.21810001 -0.6233 -0.21880001 -0.6231 -0.22420001 -0.6218 C -0.22540002 -0.6215 -0.22640002 -0.62090003 -0.22720002 -0.6201 C -0.22760002 -0.6197 -0.22790001 -0.6194 -0.22820002 -0.6187 C -0.22860003 -0.61800003 -0.22890002 -0.6171 -0.22900002 -0.61630005 L -0.22890002 -0.61630005 C -0.22990002 -0.6104 -0.23040001 -0.59450006 -0.23170002 -0.54420006 C -0.23180002 -0.5407001 -0.22910002 -0.5379001 -0.22560002 -0.5378001 C -0.22550002 -0.5378001 -0.22550002 -0.5378001 -0.22540002 -0.5378001 C -0.22200002 -0.5378001 -0.21920002 -0.54050004 -0.21920002 -0.5439001 C -0.21900001 -0.5501001 -0.21880001 -0.5573001 -0.21860002 -0.56470007 L -0.19900002 -0.5705001 C -0.19500002 -0.5644001 -0.19110002 -0.5583001 -0.18750001 -0.5529001 C -0.18560001 -0.5500001 -0.18180001 -0.54920006 -0.17890002 -0.55100006 C -0.1761 -0.5528 -0.1753 -0.5567 -0.1771 -0.5596 Z M -0.138 -0.6404 C -0.14119999 -0.64169997 -0.14479999 -0.6401 -0.1461 -0.6368 L -0.1586 -0.6045 L -0.1824 -0.6286 C -0.1848 -0.6311 -0.1888 -0.6311 -0.1912 -0.6287 C -0.1937 -0.62630004 -0.1937 -0.6223 -0.1913 -0.6199 L -0.163 -0.5912 L -0.158 -0.56049997 C -0.15750001 -0.5574 -0.15480001 -0.55529994 -0.1518 -0.55529994 C -0.1515 -0.55529994 -0.15110001 -0.55529994 -0.1508 -0.55539995 C -0.1474 -0.55599993 -0.1451 -0.5591999 -0.1456 -0.56259996 L -0.15030001 -0.59129995 L -0.13430001 -0.6324 C -0.1332 -0.6355 -0.1348 -0.6392 -0.138 -0.6404 Z M -0.0462 -0.5725 C -0.0463 -0.5759 -0.0493 -0.5786 -0.052699998 -0.5785 L -0.0782 -0.5775 C -0.0765 -0.58129996 -0.073599994 -0.585 -0.070999995 -0.5883 L -0.056699995 -0.6005 C -0.056399994 -0.60069996 -0.056199994 -0.601 -0.055999994 -0.6012 C -0.051599994 -0.6064 -0.049599994 -0.61359996 -0.050499994 -0.6215 C -0.051299993 -0.6289 -0.054499995 -0.6354 -0.058999993 -0.63890004 C -0.059599992 -0.63930005 -0.060199995 -0.63970006 -0.06089999 -0.6399 C -0.07029999 -0.64280003 -0.07959999 -0.6419 -0.085899994 -0.6373 C -0.089999996 -0.6344 -0.094799995 -0.6285 -0.09499999 -0.617 C -0.09499999 -0.61359996 -0.09229999 -0.6107 -0.08879999 -0.6107 C -0.08529999 -0.6107 -0.08249999 -0.6134 -0.08249999 -0.6169 C -0.08239999 -0.6219 -0.08109999 -0.6254 -0.07859999 -0.6272 C -0.07529999 -0.6296 -0.07019999 -0.6294 -0.06599999 -0.6283 C -0.06469999 -0.6268 -0.06339999 -0.62380004 -0.06299999 -0.62020004 C -0.062599994 -0.61600006 -0.06339999 -0.61230004 -0.0654 -0.6097 L -0.07969999 -0.5975 C -0.07999999 -0.59720004 -0.080299996 -0.597 -0.08049999 -0.59660006 C -0.08569999 -0.59010005 -0.09269999 -0.5813001 -0.09229999 -0.57070005 C -0.09209999 -0.5673 -0.08939999 -0.56470007 -0.08609999 -0.56470007 C -0.08599999 -0.56470007 -0.08589999 -0.56470007 -0.08589999 -0.56470007 L -0.052499987 -0.56600004 C -0.0487 -0.5661 -0.046 -0.569 -0.0462 -0.5725 Z M 0.2917 -0.5817 L 0.2739 -0.5576 C 0.2724 -0.55550003 0.2723 -0.55270004 0.2736 -0.55050004 C 0.275 -0.5483 0.27760002 -0.5472 0.28010002 -0.54770005 C 0.29220003 -0.5501 0.29590002 -0.54530007 0.2978 -0.53950006 C 0.2985 -0.53330004 0.2973 -0.5281001 0.2942 -0.5245001 C 0.2918 -0.5217001 0.2884 -0.52010006 0.285 -0.5200001 C 0.2779 -0.5202001 0.2732 -0.5227001 0.27179998 -0.5346001 C 0.27139997 -0.5380001 0.26829997 -0.5405001 0.26479998 -0.5400001 C 0.26139998 -0.5396001 0.2589 -0.5365001 0.25939998 -0.53300005 C 0.26139998 -0.51640004 0.26999998 -0.50780004 0.28509998 -0.50740004 C 0.2923 -0.5076 0.29909998 -0.5109 0.30369997 -0.5163 C 0.30909997 -0.5227 0.31139997 -0.5317 0.31009996 -0.54160005 C 0.30999997 -0.54200006 0.30999997 -0.54230005 0.30989996 -0.54270005 C 0.30679995 -0.55250007 0.30039996 -0.55850005 0.29139996 -0.56020004 L 0.29829997 -0.56960005 L 0.31359997 -0.56070006 C 0.31659997 -0.5590001 0.32039997 -0.56000006 0.32219997 -0.56290007 C 0.32389998 -0.5659001 0.32299998 -0.56970006 0.31999996 -0.57150006 L 0.29989997 -0.58330005 C 0.2971 -0.585 0.2936 -0.5842 0.2917 -0.5817 Z M 0.2362 -0.6003 L 0.2578 -0.5896 C 0.24340001 -0.57790005 0.23030001 -0.56350005 0.21800001 -0.5457 C 0.216 -0.5429 0.2167 -0.53900003 0.2196 -0.537 C 0.22070001 -0.5362 0.2219 -0.5359 0.22320001 -0.5359 C 0.22520001 -0.5359 0.22710001 -0.53679997 0.2283 -0.53859997 C 0.242 -0.5584 0.2567 -0.57379997 0.2733 -0.58559996 C 0.2751 -0.58689994 0.27609998 -0.589 0.2759 -0.59119993 C 0.2757 -0.59339994 0.2744 -0.59529996 0.2724 -0.59629995 L 0.2417 -0.61139995 C 0.2386 -0.61289996 0.2349 -0.61169994 0.2333 -0.60859996 C 0.2318 -0.6055 0.2331 -0.6018 0.2362 -0.6003 Z M 0.1717 -0.5505 C 0.1726 -0.55009997 0.1735 -0.5499 0.1744 -0.5499 C 0.1767 -0.5499 0.179 -0.5512 0.18010001 -0.5535 C 0.1895 -0.5734 0.20070001 -0.589 0.2169 -0.6092 C 0.21820001 -0.6108 0.2186 -0.613 0.21800001 -0.615 S 0.21580002 -0.6185 0.21380001 -0.61910003 C 0.202 -0.62250006 0.18390001 -0.62780005 0.18240002 -0.6283 C 0.17920002 -0.6294 0.17570002 -0.6278 0.17450002 -0.6246 C 0.17330001 -0.6214 0.17490003 -0.6178 0.17810002 -0.6165 C 0.17840002 -0.6164 0.17900002 -0.61620003 0.20140001 -0.6096 C 0.1879 -0.5924 0.17760001 -0.57710004 0.16880001 -0.5588 C 0.1672 -0.5557 0.1686 -0.552 0.1717 -0.5505 Z M 0.1256 -0.6165 C 0.1269 -0.6133 0.13059999 -0.6118 0.1338 -0.6131 C 0.1358 -0.6139 0.1377 -0.6148 0.1394 -0.61579996 L 0.1323 -0.56579995 C 0.13180001 -0.5623999 0.1342 -0.5591999 0.1376 -0.55869997 C 0.13790001 -0.55869997 0.1382 -0.55859995 0.1385 -0.55859995 C 0.1416 -0.55859995 0.14420001 -0.5609 0.1447 -0.56399995 L 0.1541 -0.62999994 C 0.15450001 -0.6327999 0.153 -0.63539994 0.1505 -0.63659996 C 0.148 -0.63769996 0.145 -0.6371 0.1432 -0.63499993 C 0.1389 -0.6298999 0.13499999 -0.62709993 0.1291 -0.62459993 C 0.1258 -0.6234 0.1243 -0.6197 0.1256 -0.6165 Z M 0.0395 -0.5709 C 0.0394 -0.5684 0.0414 -0.56640005 0.0439 -0.56630003 C 0.0439 -0.56630003 0.044000003 -0.56630003 0.044000003 -0.56630003 C 0.046400003 -0.56630003 0.048400003 -0.56820005 0.0485 -0.57070005 L 0.0494 -0.6065 C 0.0575 -0.6065 0.0616 -0.6061 0.063700005 -0.60380006 C 0.0671 -0.60010004 0.06780001 -0.5899001 0.06600001 -0.56860006 C 0.0658 -0.56610006 0.067600004 -0.56400007 0.07010001 -0.56380004 C 0.07020001 -0.56380004 0.07030001 -0.56380004 0.07050001 -0.56380004 C 0.07280001 -0.56380004 0.07480001 -0.56560004 0.07500001 -0.56790006 C 0.07710001 -0.59330004 0.07590001 -0.6039001 0.07030001 -0.6100001 C 0.06530001 -0.6154001 0.05740001 -0.61560005 0.049600013 -0.61560005 L 0.049900014 -0.62850004 C 0.050000016 -0.63100004 0.048000015 -0.633 0.045500014 -0.63310003 C 0.043100014 -0.63320005 0.041000016 -0.6312 0.040900014 -0.6287 L 0.0395 -0.5709 Z M 0.0037 -0.6127 C 0.0037 -0.6102 0.0056 -0.6082 0.0081 -0.6081 C 0.0096 -0.6081 0.0112000005 -0.608 0.012700001 -0.608 L 0.012200001 -0.5826 C 0.012100001 -0.5785 0.012500001 -0.5734 0.0159 -0.57 C 0.019100001 -0.5667 0.0237 -0.5663 0.0273 -0.5663 C 0.0298 -0.5663 0.0318 -0.56829995 0.0318 -0.57079995 S 0.029800002 -0.5752999 0.027300002 -0.5752999 C 0.024000002 -0.5752999 0.022700002 -0.57579994 0.022300001 -0.5762999 C 0.021900002 -0.5766999 0.021100001 -0.5780999 0.021200001 -0.5823999 L 0.0217 -0.60769993 C 0.027600002 -0.60749996 0.0317 -0.60739994 0.0318 -0.6072999 C 0.031900004 -0.6072999 0.031900004 -0.6072999 0.032 -0.6072999 C 0.0344 -0.6072999 0.0364 -0.60919994 0.0365 -0.6115999 C 0.0366 -0.6140999 0.0347 -0.6161999 0.0322 -0.6162999 C 0.0321 -0.6162999 0.027900001 -0.6164999 0.021900002 -0.61669993 L 0.022200001 -0.63039994 C 0.022200001 -0.63289994 0.0203 -0.6348999 0.017800001 -0.63499993 C 0.015300002 -0.63509995 0.013300002 -0.6330999 0.013200002 -0.6305999 L 0.012900001 -0.6169999 C 0.011400001 -0.6169999 0.009800001 -0.61709994 0.008300001 -0.61709994 C 0.0058 -0.6171 0.0038 -0.6152 0.0037 -0.6127 Z M -1.0E-4 -0.626 C -0.0016999999 -0.6317 -0.0041 -0.6376 -0.01 -0.6421 C -0.0104 -0.64239997 -0.010799999 -0.6426 -0.011299999 -0.6428 C -0.0175 -0.64549994 -0.026 -0.64519995 -0.0307 -0.64269996 C -0.0396 -0.63839996 -0.0422 -0.631 -0.0436 -0.62369996 C -0.0436 -0.6235 -0.043700002 -0.62329996 -0.043700002 -0.62319994 C -0.0447 -0.61459994 -0.044200003 -0.59479994 -0.042400002 -0.5860999 C -0.040900003 -0.5802999 -0.039100002 -0.57469994 -0.033200003 -0.56939995 C -0.0329 -0.56909996 -0.032500003 -0.5688999 -0.032200005 -0.56869996 C -0.028900005 -0.56679994 -0.025300005 -0.56579995 -0.021600004 -0.56579995 C -0.018000005 -0.56579995 -0.014500004 -0.5666999 -0.012200004 -0.56829995 C -0.0067000045 -0.5713999 -0.002600004 -0.5774999 -7.000044E-4 -0.5849999 C 0.0020999955 -0.5938999 0.0017999955 -0.61679995 -4.4237822E-9 -0.6254999 C 0.0 -0.6257 0.0 -0.6259 -1.0E-4 -0.626 Z M -0.0169 -0.6316 C -0.018199999 -0.63210005 -0.019699998 -0.6323 -0.0212 -0.6323 C -0.0232 -0.6323 -0.0245 -0.6319 -0.024999999 -0.6316 C -0.028599998 -0.6298 -0.029999997 -0.6275 -0.031299997 -0.6215 C -0.032099996 -0.6139 -0.031699996 -0.596 -0.030199997 -0.5889 C -0.028999997 -0.5841 -0.027999997 -0.5817 -0.025399998 -0.57930005 C -0.021599997 -0.5774 -0.019399997 -0.57850003 -0.018599998 -0.57900006 C -0.0158 -0.5806001 -0.013799998 -0.58390003 -0.012699998 -0.58840007 C -0.010699998 -0.59480006 -0.010699998 -0.61520004 -0.012199998 -0.62280005 C -0.0135 -0.6274 -0.0148 -0.6298 -0.0169 -0.6316 Z M -0.2425 0.5226 C -0.2433 0.5223 -0.2441 0.522 -0.2449 0.5217 L -0.2534 0.5432 C -0.2528 0.5435 -0.2522 0.54370004 -0.25169998 0.544 C -0.24609998 0.5467 -0.24089998 0.54920006 -0.23509999 0.5501 C -0.23159999 0.54950005 -0.22899999 0.54760003 -0.22739999 0.5443 C -0.2251 0.53970003 -0.22549999 0.5339 -0.22719999 0.53040004 C -0.2319 0.5265 -0.2373 0.5245 -0.2425 0.5226 Z M -0.4622 -0.4765 L -0.38959998 -0.475 L -0.38989997 -0.4728 C -0.39069998 -0.4667 -0.40389997 -0.39599997 -0.40799996 -0.376 C -0.35169995 -0.41329998 -0.32419997 -0.42979997 -0.24909997 -0.45099998 C -0.24419998 -0.45239997 -0.24079996 -0.45439997 -0.23909996 -0.457 C -0.23889996 -0.45749998 -0.23879996 -0.4579 -0.23889996 -0.4583 C -0.23919997 -0.4591 -0.24129996 -0.4617 -0.25449997 -0.4628 C -0.258 -0.4624 -0.26239997 -0.46199998 -0.26689997 -0.4617 C -0.27189997 -0.4613 -0.27709997 -0.46089998 -0.28189996 -0.4604 C -0.29239997 -0.45839998 -0.30099997 -0.4572 -0.30619997 -0.461 L -0.30689996 -0.4604 L -0.35899997 -0.5491 C -0.40649998 -0.5225 -0.42449996 -0.50769997 -0.44529998 -0.4904 C -0.4505 -0.4859 -0.456 -0.4814 -0.4622 -0.4765 Z M 0.3034 -0.4576 C 0.3034 -0.4576 0.30330002 -0.45769998 0.30330002 -0.45769998 C 0.29690003 -0.45479998 0.29060003 -0.4554 0.2833 -0.45619997 C 0.282 -0.45629996 0.2808 -0.45649996 0.27940002 -0.45659998 L 0.27830002 -0.45679998 C 0.27030003 -0.45799997 0.26130003 -0.45929998 0.2524 -0.45959997 C 0.24280001 -0.45949998 0.23740001 -0.45689997 0.23650001 -0.45449996 C 0.23650001 -0.45439997 0.23640001 -0.45419997 0.23640001 -0.45399997 C 0.238 -0.45099998 0.2413 -0.44879997 0.2466 -0.44729996 C 0.3217 -0.42609996 0.3492 -0.40959996 0.4055 -0.37229997 C 0.4015 -0.39229998 0.38819999 -0.46289998 0.3874 -0.46909997 L 0.3872 -0.4712 L 0.4598 -0.4727 C 0.45360002 -0.4776 0.4481 -0.4822 0.44280002 -0.4866 C 0.4221 -0.5037 0.40420002 -0.51850003 0.35750002 -0.5447 C 0.3397 -0.5137 0.3137 -0.4708 0.3061 -0.4606 C 0.3062 -0.4605 0.3063 -0.4604 0.3064 -0.4603 L 0.3034 -0.4576 Z M 0.3024 0.4415 C 0.29749998 0.4399 0.2922 0.4404 0.2863 0.441 C 0.285 0.4411 0.2837 0.4413 0.2824 0.44140002 L 0.28140002 0.44160002 C 0.27340004 0.44270003 0.26430002 0.44400004 0.25520003 0.44430003 C 0.24730003 0.44420004 0.24130003 0.44270003 0.23790003 0.44000003 C 0.23830004 0.44780004 0.24600004 0.45790002 0.25140002 0.46490002 C 0.2535 0.4677 0.25530002 0.47000003 0.25640002 0.47190002 C 0.25880003 0.4708 0.261 0.46980003 0.2632 0.46870002 C 0.2787 0.4604 0.2918 0.4514 0.3024 0.4415 Z M -0.0025 0.6536 C -0.1485 0.6536 -0.2891 0.618 -0.3698 0.5606 L -0.3684 0.55539995 L -0.3034 0.44739994 C -0.28710002 0.46119994 -0.27130002 0.47119993 -0.2525 0.47949994 L -0.2506 0.48029995 L -0.25030002 0.47969994 C -0.18880002 0.50719994 -0.099500015 0.52329993 -6.0002506E-4 0.52329993 C 0.10739998 0.52329993 0.20279998 0.5045999 0.26379997 0.47289994 C 0.28169996 0.46429995 0.29559997 0.45479995 0.30599996 0.44429994 C 0.31559998 0.45699993 0.36779997 0.54309994 0.37309998 0.55489993 C 0.2795 0.6185 0.1461 0.6536 -0.0025 0.6536 Z M 0.273 0.5154 C 0.2733 0.52599996 0.2762 0.5369 0.2812 0.5468 C 0.2848 0.556 0.2925 0.5637 0.3002 0.5658 C 0.30299997 0.5668 0.30569997 0.5673 0.30819997 0.5673 C 0.31279996 0.5673 0.31699997 0.56560004 0.32099998 0.5621 C 0.32129997 0.5618 0.3216 0.56159997 0.3218 0.5613 C 0.3266 0.5552 0.3284 0.5459 0.32799998 0.53929996 C 0.32799998 0.5391 0.32799998 0.53889996 0.3279 0.5387 C 0.3263 0.5281 0.32099998 0.5202 0.31239998 0.5157 C 0.31219998 0.51559997 0.3121 0.5155 0.3119 0.5155 C 0.3047 0.5126 0.30049998 0.5118 0.2933 0.5149 C 0.293 0.51500005 0.2928 0.5151 0.2926 0.51530004 C 0.2903 0.5166 0.28800002 0.51850003 0.286 0.521 C 0.28570002 0.5191 0.2856 0.51720005 0.28550002 0.51530004 C 0.28590003 0.5091 0.28680003 0.5055 0.2919 0.50070006 C 0.2972 0.49970007 0.2996 0.5016 0.30150002 0.50470006 C 0.30330002 0.5077001 0.30710003 0.50860006 0.31010002 0.50680006 C 0.3131 0.50500005 0.314 0.5012001 0.3122 0.49820006 C 0.30690002 0.48940006 0.298 0.48600006 0.28730002 0.48890007 C 0.28640002 0.48910007 0.28550002 0.48960006 0.28480002 0.49020007 C 0.27580002 0.49810007 0.27370003 0.5049001 0.27310002 0.51470006 C 0.273 0.515 0.273 0.5152 0.273 0.5154 Z M 0.2211 0.5302 C 0.22240001 0.5334 0.226 0.535 0.2292 0.5337 L 0.2538 0.5241 C 0.2526 0.5473 0.25190002 0.5704 0.25620002 0.5879 C 0.2569 0.5908 0.25950003 0.5927 0.2623 0.5927 C 0.2628 0.5927 0.2633 0.5926 0.26380002 0.59250003 C 0.26720002 0.5917 0.26920003 0.58830005 0.2684 0.5849 C 0.264 0.5668 0.2655 0.5407 0.2669 0.5155 L 0.2669 0.515 C 0.267 0.5129 0.266 0.5108 0.2643 0.5096 C 0.26259997 0.5083 0.26029998 0.5081 0.2584 0.50879997 L 0.22469999 0.52199996 C 0.2214 0.5233 0.2198 0.527 0.2211 0.5302 Z M 0.17 0.5471 C 0.1709 0.5504 0.1743 0.5524 0.1776 0.5516 C 0.1779 0.55149996 0.1785 0.5514 0.20289999 0.54279995 C 0.20189999 0.56279993 0.20159999 0.58509994 0.20459999 0.6062 C 0.205 0.60929996 0.20769998 0.6116 0.21079999 0.6116 C 0.2111 0.6116 0.21139999 0.6116 0.21169999 0.61149997 C 0.21509999 0.61099994 0.21749999 0.60789996 0.217 0.6044 C 0.2137 0.581 0.2146 0.5557 0.21589999 0.5341 C 0.21599999 0.532 0.21509999 0.53 0.21339999 0.5287 C 0.21169999 0.5274 0.20949998 0.52709997 0.2076 0.5278 C 0.195 0.53220004 0.1759 0.5389 0.1743 0.53940004 C 0.171 0.5405 0.1691 0.5438 0.17 0.5471 Z M 0.1419 0.5698 C 0.1443 0.5722 0.1482 0.5723 0.1506 0.56990004 C 0.1522 0.5684 0.1536 0.5669 0.1549 0.56530005 L 0.1649 0.6179001 C 0.1655 0.6209001 0.168 0.62290007 0.171 0.62290007 C 0.17140001 0.62290007 0.1718 0.62290007 0.17220001 0.62280005 C 0.1755 0.6222001 0.17770001 0.61890006 0.1771 0.61560005 L 0.164 0.54630005 C 0.16350001 0.5436001 0.1612 0.54150003 0.1584 0.54130006 C 0.1556 0.54100007 0.153 0.54270005 0.1521 0.5454001 C 0.1497 0.5522001 0.147 0.55640006 0.1422 0.56110007 C 0.1396 0.5634 0.1395 0.5673 0.1419 0.5698 Z M 0.07 0.5683 L 0.0766 0.6256 C 0.0769 0.6279 0.0788 0.6296 0.0811 0.6296 C 0.081300005 0.6296 0.0814 0.6296 0.0816 0.6296 C 0.0841 0.6293 0.0858 0.6271 0.0856 0.6246 L 0.0815 0.589 C 0.0895 0.5879 0.093600005 0.5877 0.0961 0.5897 C 0.1 0.5929 0.1021 0.60289997 0.103300005 0.6242 C 0.10340001 0.62659997 0.1054 0.62839997 0.10780001 0.62839997 C 0.10790001 0.62839997 0.10800001 0.62839997 0.108100004 0.62839997 C 0.1106 0.62829995 0.112500004 0.62609994 0.1123 0.62359995 C 0.1108 0.59819996 0.1082 0.58779997 0.1018 0.58259994 C 0.0961 0.57789993 0.0882 0.57879996 0.08050001 0.57989997 L 0.079 0.5671 C 0.078700006 0.5646 0.076500006 0.5628 0.074 0.5632 C 0.0714 0.5636 0.0697 0.5658 0.07 0.5683 Z M 0.0382 0.5869 C 0.0383 0.5893 0.040299997 0.5912 0.0427 0.5912 C 0.0428 0.5912 0.0428 0.5912 0.0429 0.5912 C 0.0444 0.5911 0.046 0.5911 0.0475 0.591 L 0.0487 0.6164 C 0.0489 0.6205 0.0496 0.6255 0.0532 0.6287 C 0.055999998 0.6312 0.059499998 0.63170004 0.0626 0.63170004 C 0.0634 0.63170004 0.064100005 0.63170004 0.0648 0.6316 C 0.0673 0.63140005 0.0692 0.6293 0.069 0.6268 C 0.068799995 0.6243 0.0667 0.6225 0.0642 0.6226 C 0.0609 0.6228 0.0596 0.62240005 0.0591 0.6219 C 0.058599997 0.6215 0.0578 0.62020004 0.0576 0.61590004 L 0.056399997 0.5906 C 0.062299997 0.59040004 0.0664 0.5903 0.06649999 0.5903 C 0.06899999 0.5902 0.07089999 0.58820003 0.07089999 0.58570004 C 0.07079999 0.58330005 0.068799995 0.5813 0.06639999 0.5813 C 0.06639999 0.5813 0.06629999 0.5813 0.06629999 0.5813 C 0.06619999 0.5813 0.06199999 0.58140004 0.05599999 0.5816 L 0.05539999 0.5679 C 0.05529999 0.5654 0.05319999 0.5635 0.05069999 0.5636 C 0.04819999 0.5637 0.04629999 0.5658 0.04639999 0.5683 L 0.046999987 0.5819 C 0.045499988 0.582 0.043899987 0.582 0.042399988 0.5821 C 0.04 0.5824 0.0381 0.5845 0.0382 0.5869 Z M -0.2862 0.5712 C -0.27359998 0.49350002 -0.27429998 0.49310002 -0.2791 0.49040002 C -0.2802 0.4898 -0.2814 0.4896 -0.2825 0.48970002 C -0.283 0.48970002 -0.2835 0.48970002 -0.284 0.49 C -0.28480002 0.4903 -0.2856 0.4907 -0.2863 0.49130002 L -0.28620002 0.4914 C -0.291 0.4952 -0.30240002 0.5071 -0.33870003 0.5452 C -0.34110004 0.5477 -0.34100002 0.5517 -0.33850002 0.554 S -0.33200002 0.55630004 -0.32970002 0.55380005 C -0.32520002 0.54910004 -0.32000002 0.5436 -0.31460002 0.53800005 L -0.29510003 0.54740006 C -0.29620004 0.55460006 -0.29740003 0.56200004 -0.29860005 0.56920004 C -0.29920006 0.57260007 -0.29680005 0.57580006 -0.29340005 0.57640004 C -0.29310006 0.57650006 -0.29270005 0.57650006 -0.29240006 0.57650006 C -0.2894 0.5765 -0.2867 0.5743 -0.2862 0.5712 Z M -0.2345 0.5626 C -0.2263 0.56170005 -0.21980001 0.5572 -0.21620001 0.54980004 C -0.21210001 0.54150003 -0.2124 0.5306 -0.2169 0.5231 L -0.2174 0.5223 L -0.2181 0.5217 C -0.22479999 0.51570004 -0.23189999 0.5131 -0.2382 0.5108 C -0.2409 0.5098 -0.2434 0.5089 -0.2456 0.5078 L -0.2517 0.5047 L -0.2799 0.5763 C -0.28120002 0.5795 -0.27960002 0.5831 -0.2764 0.5844 C -0.2756 0.5847 -0.2749 0.5848 -0.2741 0.5848 C -0.2716 0.5848 -0.2693 0.5833 -0.2683 0.5808 L -0.258 0.5547 C -0.2577 0.55480003 -0.25739998 0.555 -0.2571 0.5551 C -0.2507 0.5582 -0.24399999 0.56130004 -0.23599999 0.56240004 L -0.23519999 0.56250006 L -0.2345 0.5626 Z M -0.1673 0.5802 L -0.1673 0.5802 C -0.1675 0.5792 -0.168 0.5779 -0.1687 0.5765 C -0.16399999 0.5722 -0.16049999 0.5661 -0.1589 0.5588 C -0.15509999 0.54569995 -0.1635 0.5352 -0.1732 0.532 C -0.1787 0.53000003 -0.18439999 0.5289 -0.19 0.5277 C -0.1927 0.5271 -0.1953 0.5266 -0.1979 0.526 L -0.2038 0.5246 L -0.20539999 0.53050005 C -0.22439998 0.6010001 -0.22439998 0.6010001 -0.22439998 0.60230005 C -0.22429998 0.6057001 -0.22149998 0.60840005 -0.21819998 0.60840005 C -0.21809998 0.60840005 -0.21809998 0.60840005 -0.21799998 0.60840005 C -0.21499997 0.60830003 -0.21259998 0.60620004 -0.21199998 0.60340005 C -0.21159998 0.60170007 -0.20819998 0.58900005 -0.20399998 0.57360005 L -0.18379998 0.5788001 C -0.18059999 0.5800001 -0.17959999 0.5825001 -0.17949998 0.58300006 C -0.17949998 0.58300006 -0.17949998 0.5831001 -0.17949998 0.5831001 C -0.17889999 0.5860001 -0.18059999 0.5997001 -0.18259998 0.6107001 C -0.18319997 0.6141001 -0.18089998 0.6173001 -0.17749998 0.6179001 C -0.17709997 0.6180001 -0.17679998 0.6180001 -0.17639998 0.6180001 C -0.17339997 0.6180001 -0.17079997 0.6159001 -0.17029998 0.61280006 C -0.1689 0.605 -0.1659 0.5864 -0.1673 0.5802 Z M -0.1425 0.5389 C -0.1459 0.5384 -0.1491 0.54080003 -0.1496 0.5442 L -0.16 0.6148 C -0.16049999 0.6182 -0.1581 0.6214 -0.1547 0.62189996 C -0.15439999 0.62189996 -0.1541 0.622 -0.1538 0.622 C -0.15079999 0.622 -0.14809999 0.6198 -0.1476 0.6167 L -0.1372 0.5461 C -0.1367 0.5426 -0.1391 0.5394 -0.1425 0.5389 Z M -0.0907 0.6177 L -0.1181 0.6138 C -0.1153 0.597 -0.108 0.5525 -0.108 0.55149996 C -0.1079 0.548 -0.1106 0.5452 -0.1141 0.5451 C -0.117300004 0.5449 -0.1201 0.5474 -0.1205 0.5506 C -0.1209 0.5532 -0.1308 0.61399996 -0.1315 0.618 L -0.13260001 0.62429994 L -0.09250001 0.62999994 C -0.09220001 0.62999994 -0.091900006 0.63009995 -0.09160001 0.63009995 C -0.08850001 0.63009995 -0.08590001 0.6277999 -0.08540001 0.62469995 C -0.0849 0.6214 -0.0873 0.6182 -0.0907 0.6177 Z M -0.0186 0.5673 C -0.0185 0.56450003 -0.0202 0.56200004 -0.0229 0.5611 C -0.0255 0.56020004 -0.0285 0.5612 -0.030000001 0.5635 C -0.0344 0.5699 -0.0352 0.5705 -0.0405 0.5733 C -0.0435 0.57490003 -0.0447 0.5787 -0.043 0.5818 C -0.0414 0.5848 -0.037600003 0.58599997 -0.034500003 0.5843 C -0.033500005 0.58379996 -0.032600004 0.5833 -0.0318 0.5828 L -0.033800002 0.62909997 C -0.033900004 0.6325 -0.0313 0.63549995 -0.027800001 0.6356 C -0.027700001 0.6356 -0.027600002 0.6356 -0.027500002 0.6356 C -0.024200002 0.6356 -0.0214 0.63299996 -0.021300001 0.6296 L -0.0186 0.5673 Z M -4.0E-4 0.6353 C -4.0E-4 0.6353 -2.9999999E-4 0.6353 -2.9999999E-4 0.6353 L 0.0345 0.6346 C 0.038 0.63449997 0.0407 0.6317 0.040599998 0.6282 C 0.040499996 0.62479997 0.037499998 0.6221 0.034199998 0.6221 L 0.007299997 0.6226 C 0.008999997 0.6192 0.011899997 0.61630005 0.014799997 0.6143 C 0.014899997 0.6142 0.014999997 0.61410004 0.015099998 0.61410004 L 0.029499996 0.6032 C 0.029799996 0.6029 0.030099997 0.6027 0.030399997 0.6024 C 0.035599995 0.5965 0.037999995 0.5881 0.036999997 0.5798 C 0.036099996 0.5727 0.032699995 0.5667 0.027699996 0.5632 C 0.027099995 0.5628 0.026299996 0.5624 0.025599996 0.5623 C 0.016799996 0.56030005 -0.0017000046 0.55600005 -0.008500004 0.5794 C -0.009500004 0.5827 -0.0076000043 0.5862 -0.004200004 0.5872 C -9.0000406E-4 0.5882 0.002599996 0.5863 0.0035999957 0.5829 C 0.006699996 0.5724 0.011299996 0.5719 0.021499995 0.5742 C 0.023099994 0.5758 0.024299994 0.57839996 0.024699995 0.5814 C 0.025299996 0.58589995 0.023999995 0.5905 0.021499995 0.5937 L 0.007799995 0.6041 C 5.9999526E-4 0.60899997 -0.007000005 0.6181 -0.0067000045 0.6292 C -0.0066 0.6326 -0.0038 0.6353 -4.0E-4 0.6353 Z M -0.303 -0.4636 C -0.2989 -0.4614 -0.2915 -0.4625 -0.2824 -0.46420002 C -0.27740002 -0.46480003 -0.27220002 -0.4652 -0.2671 -0.4656 C -0.26270002 -0.4659 -0.2583 -0.4663 -0.2545 -0.46670002 C -0.2459 -0.46600002 -0.2404 -0.4647 -0.2374 -0.4625 C -0.2375 -0.4705 -0.24499999 -0.4808 -0.2503 -0.488 C -0.2521 -0.4905 -0.2536 -0.4925 -0.2547 -0.4943 C -0.2739 -0.4853 -0.2902 -0.475 -0.303 -0.4636 Z M 0.36 0.5236 C 0.4068 0.498 0.42470002 0.48349997 0.4454 0.46679997 C 0.45069999 0.46249998 0.4561 0.45809996 0.4623 0.45329997 L 0.3898 0.45179996 L 0.3901 0.44959995 C 0.39090002 0.44359994 0.4041 0.37469995 0.4082 0.35499996 C 0.35189998 0.39149997 0.3244 0.40759996 0.2493 0.42829996 C 0.2442 0.42969996 0.24080001 0.43179998 0.23910001 0.43459997 C 0.23910001 0.43489996 0.23920001 0.43509996 0.23920001 0.43519998 C 0.24010001 0.4376 0.24550001 0.44019997 0.2552 0.44019997 C 0.2639 0.43989998 0.2729 0.43859997 0.28079998 0.43749997 L 0.28199998 0.43729997 C 0.28339997 0.43719998 0.28469998 0.43699998 0.28599998 0.43689996 C 0.29329997 0.43619996 0.29959998 0.43559995 0.306 0.43839997 C 0.306 0.43839997 0.30609998 0.43829998 0.30609998 0.43829998 L 0.30909997 0.44099998 C 0.309 0.44109997 0.30889997 0.4412 0.30879998 0.44129997 C 0.3163 0.4516 0.3422 0.4934 0.36 0.5236 Z M -0.2646 0.4464 C -0.2696 0.44599998 -0.27490002 0.44559997 -0.2797 0.44509998 C -0.2886 0.44349998 -0.2962 0.4423 -0.30040002 0.44439998 C -0.2876 0.45549998 -0.27130002 0.4655 -0.25210002 0.47439998 C -0.25100002 0.47269997 -0.24950002 0.4707 -0.24770002 0.46829998 C -0.24250002 0.4613 -0.23490003 0.45119998 -0.23480003 0.4434 C -0.23780003 0.4455 -0.24320002 0.4469 -0.2515 0.4475 C -0.2559 0.4471 -0.2602 0.4468 -0.2646 0.4464 Z M -0.1772 0.5438 C -0.18200001 0.5421 -0.18710001 0.541 -0.19250001 0.5399 C -0.19330001 0.53970003 -0.1941 0.5396 -0.1949 0.5394 C -0.19680001 0.5464 -0.19880001 0.5539 -0.2008 0.5613 L -0.1805 0.5665 C -0.1803 0.5666 -0.1801 0.5666 -0.1799 0.5667 C -0.1791 0.567 -0.17840001 0.56729996 -0.17770001 0.56769997 C -0.17460002 0.5653 -0.17220001 0.561 -0.17100002 0.5556 C -0.1684 0.547 -0.1771 0.5439 -0.1772 0.5438 Z M 0.2789 -0.4607 L 0.27989998 -0.46060002 C 0.28109998 -0.46050003 0.28239998 -0.46040002 0.2837 -0.4602 C 0.2897 -0.4596 0.295 -0.4591 0.2999 -0.4607 C 0.28939998 -0.4708 0.2762 -0.4801 0.2606 -0.4885 C 0.2584 -0.4896 0.25620002 -0.4907 0.2538 -0.4918 C 0.2527 -0.48990002 0.2509 -0.4875 0.24880001 -0.48470002 C 0.24340001 -0.47750002 0.23570001 -0.4672 0.2353 -0.45920002 C 0.2387 -0.462 0.2447 -0.46360004 0.2525 -0.46360004 C 0.2617 -0.4632 0.2708 -0.4618 0.2789 -0.4607 Z M -0.2301 0.1339 L -0.2301 -0.1202 L -0.2706 -0.1196 L -0.27 0.041 L -0.3414 -0.1189 L -0.386 -0.1184 L -0.3866 0.1325 L -0.3467 0.133 L -0.348 -0.0397 L -0.2716 0.1339 Z M 0.2859 -0.0756 C 0.2983 -0.0823 0.3112 -0.0813 0.31849998 -0.0792 C 0.3281 -0.0763 0.3369 -0.0691 0.33959997 -0.059699997 C 0.34169996 -0.050799996 0.34209996 -0.045399997 0.34219998 -0.0396 H 0.38469997 L 0.38419998 -0.062 C 0.383 -0.0765 0.37749997 -0.094799995 0.36329997 -0.1083 C 0.35379997 -0.1189 0.34259996 -0.1248 0.32799995 -0.1288 C 0.31559995 -0.1337 0.28529996 -0.1322 0.26989996 -0.123600006 C 0.25169995 -0.113400005 0.23629996 -0.095300004 0.22609997 -0.0661 C 0.21259996 -0.016900003 0.21869996 0.044599995 0.22719997 0.073599994 C 0.23739997 0.10429999 0.25329998 0.120699994 0.27449998 0.131 C 0.2877 0.1354 0.3107 0.1388 0.33229998 0.133 C 0.35579997 0.1241 0.3665 0.1087 0.37579998 0.0923 C 0.38149998 0.081199996 0.3879 0.059899997 0.3868 0.036199998 L 0.3425 0.0367 C 0.3425 0.0453 0.3408 0.055299997 0.3386 0.063999996 C 0.3336 0.07609999 0.3258 0.084199995 0.3066 0.084199995 C 0.2937 0.084199995 0.285 0.078899994 0.2778 0.0694 C 0.2681 0.06 0.2655 0.038899995 0.2649 0.032999996 C 0.262 0.006099995 0.2619 -0.020500004 0.2696 -0.048500005 C 0.2723 -0.06 0.2782 -0.0705 0.2859 -0.0756 Z"/>
<path id="star" d="M 0.0 -1.0 L 0.2245 -0.309 L 0.9511 -0.309 L 0.3633 0.118 L 0.5878 0.809 L 0.0 0.382 L -0.5878 0.809 L -0.3633 0.118 L -0.9511 -0.309 L -0.2245 -0.309 Z"/>
</defs>
<g>
<g>
<rect x="0" y="0" width="160" height="360" class="blue"/>
</g>
<g>
<rect x="160" y="0" width="320" height="180" class="red"/>
<rect x="160" y="180" width="320" height="180" class="white"/>
</g>
<use xlink:href="#star" transform="translate(80 180) scale(26.6667 26.6667) rotate(0)" class="white"/>
<use xlink:href="#seal" transform="translate(80 180) scale(160 160) rotate(0)" class="yellow"/>
</g>
</svg>
