<?xml version="1.0"?>
<svg xmlns="http://www.w3.org/2000/svg" xmlns:xlink="http://www.w3.org/1999/xlink" version="1.1" width="480" height="360" viewBox="0 0 480 360">
<!-- Generated by Kreative Vexillo v1.0 -->
<style>
.blue{fill:rgb(75,146,219);}
.green{fill:rgb(0,105,60);}
.white{fill:rgb(255,255,255);}
.yellow{fill:rgb(255,182,18);}
</style>
<defs>
<clipPath id="clip0">
<rect x="160" y="135" width="90" height="90"/>
</clipPath>
</defs>
<g>
<rect x="0" y="0" width="480" height="360" class="green"/>
<path d="M 0 145 L 120 145 L 120 0 L 240 0 L 240 95 L 480 95 L 480 215 L 290 215 L 290 360 L 170 360 L 170 265 L 0 265 Z" class="white"/>
<path d="M 0 155 L 130 155 L 130 0 L 230 0 L 230 105 L 480 105 L 480 205 L 280 205 L 280 360 L 180 360 L 180 255 L 0 255 Z" class="yellow"/>
<path d="M 0 175 L 150 175 L 150 0 L 210 0 L 210 125 L 480 125 L 480 185 L 260 185 L 260 360 L 200 360 L 200 235 L 0 235 Z" class="white"/>
<path d="M 0 185 L 160 185 L 200 225 L 0 225 Z" class="blue"/>
<path d="M 160 0 L 200 0 L 200 135 L 160 175 Z" class="blue"/>
<path d="M 480 135 L 480 175 L 250 175 L 210 135 Z" class="blue"/>
<path d="M 210 360 L 210 225 L 250 185 L 250 360 Z" class="blue"/>
<g clip-path="url(#clip0)">
<ellipse cx="160" cy="135" rx="40" ry="40" class="blue"/>
<ellipse cx="250" cy="135" rx="40" ry="40" class="blue"/>
<ellipse cx="160" cy="225" rx="40" ry="40" class="blue"/>
<ellipse cx="250" cy="225" rx="40" ry="40" class="blue"/>
</g>
</g>
</svg>
