<?xml version="1.0"?>
<svg xmlns="http://www.w3.org/2000/svg" xmlns:xlink="http://www.w3.org/1999/xlink" version="1.1" width="480" height="360" viewBox="0 0 480 360">
<!-- Generated by Kreative Vexillo v1.0 -->
<style>
.blue{fill:rgb(0,154,199);}
.green{fill:rgb(84,185,72);}
.red{fill:rgb(238,49,36);}
.white{fill:rgb(255,255,255);}
</style>
<defs>
<path id="star" d="M 0.0 -1.0 L 0.2245 -0.309 L 0.9511 -0.309 L 0.3633 0.118 L 0.5878 0.809 L 0.0 0.382 L -0.5878 0.809 L -0.3633 0.118 L -0.9511 -0.309 L -0.2245 -0.309 Z"/>
</defs>
<g>
<g>
<rect x="0" y="0" width="480" height="115.2" class="blue"/>
<rect x="0" y="115.2" width="480" height="7.2" class="red"/>
<rect x="0" y="122.4" width="480" height="115.2" class="white"/>
<rect x="0" y="237.6" width="480" height="7.2" class="red"/>
<rect x="0" y="244.8" width="480" height="115.2" class="green"/>
</g>
<ellipse cx="100.8" cy="57.6" rx="43.2" ry="43.2" class="white"/>
<ellipse cx="108" cy="57.6" rx="43.2" ry="43.2" class="blue"/>
<g>
<g>
<use xlink:href="#star" transform="translate(264.96 23.04) scale(8.64 8.64) rotate(0)" class="white"/>
<use xlink:href="#star" transform="translate(230.4 23.04) scale(8.64 8.64) rotate(0)" class="white"/>
<use xlink:href="#star" transform="translate(195.84 23.04) scale(8.64 8.64) rotate(0)" class="white"/>
</g>
<g>
<use xlink:href="#star" transform="translate(264.96 57.6) scale(8.64 8.64) rotate(0)" class="white"/>
<use xlink:href="#star" transform="translate(230.4 57.6) scale(8.64 8.64) rotate(0)" class="white"/>
<use xlink:href="#star" transform="translate(195.84 57.6) scale(8.64 8.64) rotate(0)" class="white"/>
<use xlink:href="#star" transform="translate(161.28 57.6) scale(8.64 8.64) rotate(0)" class="white"/>
</g>
<g>
<use xlink:href="#star" transform="translate(264.96 92.16) scale(8.64 8.64) rotate(0)" class="white"/>
<use xlink:href="#star" transform="translate(230.4 92.16) scale(8.64 8.64) rotate(0)" class="white"/>
<use xlink:href="#star" transform="translate(195.84 92.16) scale(8.64 8.64) rotate(0)" class="white"/>
<use xlink:href="#star" transform="translate(161.28 92.16) scale(8.64 8.64) rotate(0)" class="white"/>
<use xlink:href="#star" transform="translate(126.72 92.16) scale(8.64 8.64) rotate(0)" class="white"/>
</g>
</g>
</g>
</svg>
