<?xml version="1.0"?>
<svg xmlns="http://www.w3.org/2000/svg" xmlns:xlink="http://www.w3.org/1999/xlink" version="1.1" width="480" height="360" viewBox="0 0 480 360">
<!-- Generated by Kreative Vexillo v1.0 -->
<style>
.blue{fill:rgb(0,85,164);}
.red{fill:rgb(250,60,50);}
.white{fill:rgb(255,255,255);}
</style>
<g>
<rect x="0" y="0" width="480" height="360" class="red"/>
<rect x="0" y="0" width="217.8" height="145.8" class="white"/>
<g>
<rect x="0" y="0" width="71.4" height="142.2" class="blue"/>
<rect x="71.4" y="0" width="71.4" height="142.2" class="white"/>
<rect x="142.8" y="0" width="71.4" height="142.2" class="red"/>
</g>
<rect x="301.0667" y="133.0667" width="93.8667" height="93.8667" class="white"/>
<path d="M 292.2667 124.2667 L 292.2667 136.7117 L 335.5549 180 L 335.5549 180 L 292.2667 223.2883 L 292.2667 223.2883 L 292.2667 235.7333 L 304.7117 235.7333 L 348 192.4451 L 391.2883 235.7333 L 403.7333 235.7333 L 403.7333 223.2883 L 403.7333 223.2883 L 360.4451 180 L 360.4451 180 L 403.7333 136.7117 L 403.7333 124.2667 L 391.2883 124.2667 L 348 167.5549 L 304.7117 124.2667 Z" class="red"/>
</g>
</svg>
