<?xml version="1.0"?>
<svg xmlns="http://www.w3.org/2000/svg" xmlns:xlink="http://www.w3.org/1999/xlink" version="1.1" width="480" height="360" viewBox="0 0 480 360">
<!-- Generated by Kreative Vexillo v1.0 -->
<style>
.gold{fill:rgb(198,161,47);}
.white{fill:rgb(255,255,255);}
</style>
<defs>
<path id="logo" d="M -0.243 0.1362 C -0.243 0.1362 -0.2005 0.15509999 -0.16870001 0.13149999 C -0.16870001 0.13149999 -0.1298 0.09729999 -0.10610001 0.1362 C -0.10610001 0.1362 -0.09080001 0.1669 -0.1332 0.1893 C -0.1333 0.1893 -0.1935 0.2177 -0.243 0.1362 M 0.2337 0.1362 C 0.2337 0.1362 0.1912 0.15509999 0.15940002 0.13149999 C 0.15940002 0.13149999 0.12050001 0.09729999 0.096900016 0.1362 C 0.096900016 0.1362 0.081500016 0.1669 0.124100015 0.1893 C 0.124 0.1893 0.1842 0.2177 0.2337 0.1362 M -0.2344 0.4694 C -0.23460001 0.4682 -0.23470001 0.4669 -0.2349 0.4657 C -0.2349 0.4641 -0.2341 0.4632 -0.23269999 0.4632 C -0.23189999 0.4632 -0.2313 0.4633 -0.23089999 0.4636 C -0.23049998 0.4639 -0.22959998 0.4664 -0.22809999 0.4711 C -0.22659999 0.4758 -0.22349998 0.48070002 -0.21889998 0.4858 C -0.21419998 0.4908 -0.20819998 0.4933 -0.20109998 0.4933 C -0.19549997 0.4933 -0.19089998 0.4917 -0.18729998 0.48839998 C -0.18359998 0.48499998 -0.18189998 0.48049998 -0.18189998 0.4748 C -0.18189998 0.4685 -0.18569998 0.4635 -0.19329998 0.4598 C -0.20089997 0.456 -0.20789997 0.4528 -0.21429998 0.45000002 C -0.22059998 0.4471 -0.22539997 0.44390002 -0.22869998 0.44030002 C -0.23189998 0.43660003 -0.23349999 0.43120003 -0.23349999 0.4241 C -0.23349999 0.4156 -0.23099999 0.40870002 -0.226 0.4034 C -0.2209 0.398 -0.21419999 0.3953 -0.206 0.3953 C -0.2024 0.3953 -0.1988 0.3959 -0.1952 0.3972 C -0.1917 0.39839998 -0.1881 0.3997 -0.1845 0.40089998 C -0.1837 0.40089998 -0.18239999 0.40049997 -0.18059999 0.39979997 C -0.17869999 0.39899996 -0.17769998 0.39859998 -0.1774 0.39859998 C -0.1765 0.39859998 -0.1759 0.39909998 -0.1757 0.39999998 C -0.17559999 0.40159997 -0.17549999 0.40299997 -0.17539999 0.40399998 L -0.1739 0.4233 C -0.17359999 0.4266 -0.17469999 0.4282 -0.17709999 0.4282 C -0.17939998 0.4213 -0.18299998 0.4151 -0.18769999 0.40960002 C -0.1924 0.40410003 -0.1986 0.40140003 -0.20639999 0.40140003 C -0.2111 0.40140003 -0.21479999 0.40280002 -0.21769999 0.40540004 C -0.22049999 0.40800005 -0.22189999 0.41170004 -0.22189999 0.41650003 C -0.22189999 0.42140004 -0.21999998 0.42480004 -0.21629998 0.42670003 C -0.21249998 0.4286 -0.20589998 0.43180004 -0.19659998 0.43610004 C -0.18719998 0.44030005 -0.18059997 0.44460005 -0.17689997 0.44880003 C -0.17319997 0.45300004 -0.17139997 0.45930004 -0.17139997 0.46790004 C -0.17139997 0.47730005 -0.17429997 0.48500004 -0.17999996 0.49090004 C -0.18579996 0.49680004 -0.19329996 0.49970004 -0.20249996 0.49970004 C -0.20609996 0.49970004 -0.20999995 0.49910003 -0.21419996 0.49800003 C -0.21829996 0.49680004 -0.22169995 0.49580002 -0.22449996 0.49500003 C -0.22719996 0.49420002 -0.22869995 0.49350002 -0.22909996 0.49300003 C -0.22939996 0.49240002 -0.22969995 0.49110004 -0.23019996 0.48900002 L -0.2344 0.4694 M -0.1292 0.4635 C -0.1308 0.4635 -0.13229999 0.4641 -0.1337 0.46539998 C -0.135 0.4667 -0.1364 0.46929997 -0.1378 0.47329998 C -0.1391 0.47739998 -0.1399 0.48009998 -0.14029999 0.48139998 C -0.1406 0.48279998 -0.1407 0.484 -0.1407 0.48499998 C -0.1407 0.48889998 -0.1382 0.4917 -0.1332 0.49339998 C -0.12820001 0.49499997 -0.12570001 0.49629998 -0.12570001 0.49699998 C -0.12570001 0.49839997 -0.12690002 0.4992 -0.12920001 0.4992 C -0.13100001 0.4991 -0.13220002 0.49899998 -0.13300002 0.49899998 L -0.14610001 0.49839997 L -0.15840001 0.49899998 C -0.15930001 0.49899998 -0.16030002 0.49899998 -0.16120002 0.49899998 C -0.16210002 0.49879998 -0.16260001 0.4983 -0.16260001 0.4974 C -0.16260001 0.49659997 -0.16120002 0.4953 -0.15830001 0.49379998 C -0.15540001 0.4922 -0.15330002 0.48999998 -0.15200001 0.48689997 L -0.11420001 0.39949998 C -0.11370001 0.39839998 -0.11330001 0.39729998 -0.11280001 0.39619997 C -0.11220001 0.39499998 -0.11160001 0.39449996 -0.11070001 0.39449996 C -0.110000014 0.39449996 -0.10960001 0.39469996 -0.10930001 0.39519995 C -0.10890001 0.39559996 -0.10830001 0.39689997 -0.10740001 0.39909995 L -0.0697 0.48749995 C -0.068100005 0.49139994 -0.0656 0.49359995 -0.0625 0.49429995 C -0.0593 0.49489996 -0.0578 0.49579996 -0.0578 0.49689996 C -0.0578 0.49829996 -0.058399998 0.49889997 -0.0596 0.49889997 C -0.0608 0.49899995 -0.0619 0.49899995 -0.0628 0.49899995 L -0.0808 0.49839994 L -0.096099995 0.49899995 H -0.097899996 C -0.09949999 0.49899995 -0.10039999 0.49839994 -0.10039999 0.49729994 C -0.10039999 0.49629995 -0.098799996 0.49499995 -0.09549999 0.49339995 C -0.092099994 0.49179995 -0.09049999 0.48929995 -0.09049999 0.48589996 C -0.09049999 0.48449996 -0.09069999 0.48309997 -0.09119999 0.48159996 C -0.091499984 0.48009995 -0.09259999 0.47729996 -0.09429999 0.47339997 C -0.095899984 0.46939996 -0.09709999 0.46669996 -0.098099984 0.46549997 C -0.09889998 0.46429998 -0.10019998 0.46359998 -0.10199998 0.46359998 L -0.1292 0.4635 M -0.106 0.4557 H -0.1042 C -0.1024 0.4557 -0.1015 0.4553 -0.1015 0.4544 C -0.1015 0.4537 -0.1016 0.4532 -0.101799995 0.4527 C -0.1019 0.45209998 -0.102299996 0.4509 -0.10299999 0.4491 L -0.11449999 0.42299998 C -0.114999995 0.42219996 -0.115399994 0.4218 -0.11559999 0.4218 C -0.11579999 0.4218 -0.11599999 0.42189997 -0.11629999 0.42209998 C -0.11649999 0.42229998 -0.11679999 0.42279997 -0.11719999 0.42349997 L -0.12789999 0.44909996 C -0.12869999 0.45099995 -0.1292 0.45219997 -0.12929998 0.45269996 C -0.12939999 0.45309997 -0.12939999 0.45369995 -0.12939999 0.45439997 C -0.12939999 0.45509997 -0.12879999 0.45549998 -0.12759998 0.45559996 C -0.12629998 0.45569995 -0.12539998 0.45569995 -0.12489998 0.45569995 L -0.106 0.4557 L -0.106 0.4557 Z M -0.0206 0.4635 C -0.0222 0.4635 -0.0237 0.4641 -0.0251 0.46539998 C -0.0264 0.4667 -0.027800001 0.46929997 -0.0291 0.47329998 C -0.0304 0.47739998 -0.0313 0.48009998 -0.031600002 0.48139998 C -0.031900004 0.48279998 -0.032 0.484 -0.032 0.48499998 C -0.032 0.48889998 -0.029500002 0.4917 -0.024500001 0.49339998 C -0.019500002 0.49499997 -0.017 0.49629998 -0.017 0.49699998 C -0.017 0.49839997 -0.0182 0.4992 -0.0205 0.4992 C -0.022300001 0.4991 -0.023500001 0.49899998 -0.024300002 0.49899998 L -0.0374 0.49839997 L -0.0497 0.49899998 C -0.0506 0.49899998 -0.051599998 0.49899998 -0.0525 0.49899998 C -0.0534 0.49879998 -0.0539 0.4983 -0.0539 0.4974 C -0.0539 0.49659997 -0.0524 0.4953 -0.0495 0.49379998 C -0.0466 0.4922 -0.0445 0.48999998 -0.0432 0.48689997 L -0.005400002 0.39949998 C -0.004900002 0.39839998 -0.004500002 0.39729998 -0.004000002 0.39619997 C -0.0034000021 0.39499998 -0.002700002 0.39449996 -0.0019000021 0.39449996 C -0.0012000022 0.39449996 -8.0000213E-4 0.39469996 -5.000022E-4 0.39519995 C -1.0000219E-4 0.39559996 4.9999787E-4 0.39689997 0.0014999979 0.39909995 L 0.0392 0.48749995 C 0.0409 0.49139994 0.0433 0.49359995 0.0464 0.49429995 C 0.049599998 0.49489996 0.0512 0.49579996 0.0512 0.49689996 C 0.0512 0.49829996 0.0506 0.49889997 0.049399998 0.49889997 C 0.048199996 0.49899995 0.047199998 0.49899995 0.0462 0.49899995 L 0.0282 0.49839994 L 0.012800001 0.49899995 H 0.011000001 C 0.009300001 0.49899995 0.0085 0.49839994 0.0085 0.49729994 C 0.0085 0.49629995 0.010100001 0.49499995 0.0134000005 0.49339995 C 0.016800001 0.49179995 0.0185 0.48929995 0.0185 0.48589996 C 0.0185 0.48449996 0.0183 0.48309997 0.0178 0.48159996 C 0.0174 0.48009995 0.0164 0.47729996 0.014699999 0.47339997 C 0.013099999 0.46939996 0.011899999 0.46669996 0.010899999 0.46549997 C 0.009999999 0.46429998 0.008699999 0.46359998 0.0069999993 0.46359998 L -0.0206 0.4635 M 0.0026 0.4557 H 0.0044 C 0.0061999997 0.4557 0.0071 0.4553 0.0071 0.4544 C 0.0071 0.4537 0.007 0.4532 0.0068 0.4527 C 0.0067000003 0.45209998 0.0063 0.4509 0.0056 0.4491 L -0.0058000004 0.42299998 C -0.0064000003 0.42219996 -0.0067000003 0.4218 -0.0069000004 0.4218 S -0.0073 0.42189997 -0.0076 0.42209998 C -0.0078000003 0.42229998 -0.0081 0.42279997 -0.0084 0.42349997 L -0.0191 0.44909996 C -0.02 0.45099995 -0.020399999 0.45219997 -0.020499999 0.45269996 C -0.020599999 0.45309997 -0.020599999 0.45369995 -0.020599999 0.45439997 C -0.020599999 0.45509997 -0.019999998 0.45549998 -0.018799998 0.45559996 C -0.017499998 0.45569995 -0.016599998 0.45569995 -0.016099997 0.45569995 L 0.0026 0.4557 L 0.0026 0.4557 Z M 0.0691 0.4149 C 0.0691 0.4086 0.0665 0.4046 0.0614 0.4028 C 0.0564 0.401 0.0539 0.3997 0.0539 0.3989 C 0.0539 0.3974 0.054899998 0.3967 0.057 0.3967 L 0.073300004 0.3973 L 0.101500005 0.3967 C 0.1146 0.3967 0.123500004 0.3997 0.128 0.40559998 C 0.13250001 0.4116 0.1348 0.41759998 0.1348 0.42369998 C 0.1348 0.4279 0.134 0.43139997 0.13260001 0.43439996 C 0.13110001 0.43729997 0.12940001 0.43949997 0.12760001 0.44109997 C 0.12570001 0.44259998 0.12380002 0.44399998 0.12170001 0.44529998 C 0.11960001 0.44649997 0.11860001 0.4473 0.11860001 0.4479 L 0.14050001 0.4879 C 0.14090002 0.4887 0.14140001 0.48929998 0.1421 0.4896 C 0.1429 0.49 0.14410001 0.4902 0.1455 0.4902 C 0.146 0.4902 0.14670001 0.49010003 0.14760001 0.4898 C 0.14850001 0.48950002 0.1492 0.4894 0.14970002 0.4894 C 0.15110001 0.4894 0.15180002 0.4901 0.15180002 0.4914 C 0.15180002 0.4934 0.15010002 0.4952 0.14680003 0.4967 C 0.14340003 0.4983 0.14020002 0.49899998 0.13700002 0.49899998 C 0.13210003 0.49899998 0.12830003 0.4976 0.12570003 0.49479997 C 0.12310003 0.49189997 0.12020002 0.48749998 0.117200024 0.48149997 L 0.10550003 0.45869997 C 0.10390003 0.45559996 0.102300026 0.45349997 0.10060003 0.4525 C 0.09900003 0.4515 0.09640003 0.4511 0.09280003 0.4511 C 0.08980003 0.4511 0.08800003 0.4513 0.08720003 0.4518 C 0.08660003 0.4522 0.08620003 0.45319998 0.08620003 0.45479998 V 0.48209998 C 0.08620003 0.4881 0.08850003 0.49179998 0.09300003 0.49339998 C 0.09770003 0.49479997 0.10000003 0.496 0.10000003 0.4969 C 0.10000003 0.4983 0.09860003 0.4991 0.09570003 0.4991 C 0.09520003 0.4991 0.09370004 0.499 0.09110003 0.4988 C 0.08850003 0.4986 0.08600003 0.49850002 0.08370003 0.49850002 L 0.062200032 0.49910003 C 0.060700033 0.49910003 0.059600033 0.49900004 0.05880003 0.49880004 C 0.05800003 0.49860004 0.05770003 0.49790004 0.05770003 0.49660003 C 0.05770003 0.49620003 0.05950003 0.49490002 0.06330003 0.49270004 C 0.067100026 0.49050003 0.06900003 0.48580003 0.06900003 0.47860003 V 0.41500002 M 0.0862 0.4408 C 0.0862 0.4426 0.0873 0.44370002 0.0896 0.444 C 0.0919 0.4443 0.094 0.4444 0.095599994 0.4444 C 0.10509999 0.4444 0.111099996 0.44300002 0.113699995 0.4402 C 0.116399996 0.4374 0.117699996 0.4333 0.117699996 0.4278 C 0.117699996 0.4204 0.11579999 0.4144 0.111999996 0.4099 C 0.1082 0.40530002 0.1028 0.403 0.0958 0.403 C 0.0924 0.403 0.089999996 0.4035 0.0885 0.4044 C 0.087 0.4053 0.0863 0.4077 0.0863 0.4116 L 0.0862 0.4408 L 0.0862 0.4408 Z M 0.2476 0.4278 C 0.2477 0.4288 0.2477 0.4295 0.2477 0.43 C 0.2477 0.43170002 0.24710001 0.43260002 0.2459 0.43260002 C 0.245 0.43260002 0.24430001 0.43230003 0.2438 0.43170002 C 0.2435 0.43100002 0.242 0.42830002 0.2396 0.42350003 C 0.2372 0.41870004 0.23290001 0.41380003 0.22680001 0.40880004 C 0.22070001 0.40380004 0.21380001 0.40130004 0.2063 0.40130004 C 0.1965 0.40130004 0.1887 0.40530005 0.183 0.41330004 C 0.17729999 0.42120004 0.1745 0.43040004 0.1745 0.44090003 C 0.1745 0.45290002 0.1777 0.46410003 0.1841 0.47440004 C 0.19060001 0.48470005 0.2 0.48990005 0.2123 0.48990005 C 0.2194 0.48990005 0.22590001 0.48790005 0.2319 0.48400006 C 0.2369 0.47960007 0.24200001 0.47530004 0.24710001 0.47100005 C 0.2476 0.47100005 0.24800001 0.47120005 0.24840002 0.47160006 C 0.24880002 0.47190005 0.24910001 0.47220007 0.24910001 0.47260004 C 0.24910001 0.47930005 0.24420002 0.48570004 0.23440002 0.49150005 C 0.22460002 0.49730006 0.21470001 0.50020003 0.20450002 0.50020003 C 0.19210002 0.50020003 0.18250002 0.49730003 0.17550002 0.49140003 C 0.16850002 0.48550004 0.16370001 0.47880003 0.16110002 0.47130004 C 0.15860002 0.46380004 0.15730001 0.45730004 0.15730001 0.45180005 C 0.15730001 0.43770003 0.1615 0.42490005 0.17000002 0.41320005 C 0.17850001 0.40150005 0.19080001 0.39560005 0.20690002 0.39560005 C 0.21230002 0.39560005 0.21770002 0.39650005 0.22320002 0.39830005 C 0.22830002 0.40030006 0.23350002 0.40230006 0.23870002 0.40440005 C 0.23970002 0.40440005 0.24060002 0.40360004 0.24140002 0.40210006 C 0.24220002 0.40040004 0.24290001 0.39960006 0.24350002 0.39960006 C 0.24460003 0.39960006 0.24520002 0.39990005 0.24520002 0.40050006 L 0.2476 0.4278 M -0.0036 0.0832 C -0.0036 0.0832 -0.12529999 -0.07219999 -0.2376 0.0359 C -0.2376 0.0359 -0.2892 0.0924 -0.2548 0.1151 C -0.2548 0.1151 -0.21059999 0.1348 -0.16819999 0.11139999 C -0.16819999 0.11139999 -0.10619999 0.083799995 -0.090199985 0.13909999 C -0.090199985 0.13909999 -0.07669999 0.19989999 -0.14729999 0.21219999 C -0.14729999 0.21219999 -0.24249999 0.21829998 -0.32169998 0.06849998 C -0.32169998 0.06849998 -0.36339998 0.013299983 -0.35609996 -0.10100001 C -0.35609996 -0.10100001 -0.35239998 -0.18020001 -0.28789997 -0.28710002 C -0.28789997 -0.28710002 -0.22649997 -0.3921 -0.24369997 -0.4541 C -0.25179997 -0.463 -0.25749996 -0.4614 -0.26089996 -0.4492 C -0.26089996 -0.4492 -0.25839996 -0.3976 -0.34379995 -0.28710002 C -0.34379995 -0.28710002 -0.57649994 -0.0046000183 -0.33029994 0.24519998 C -0.33029994 0.24519998 -0.28419995 0.28139997 -0.25479996 0.30229998 C -0.25479996 0.30229998 -0.21639997 0.3196 -0.21269996 0.37659997 C -0.21269996 0.37659997 -0.08139996 0.37659997 -0.013599962 0.37659997 C -0.013599962 0.37659997 -0.027599962 0.25559998 1.00038014E-4 0.21929997 C 0.027800038 0.25549996 0.013700038 0.37659997 0.013700038 0.37659997 C 0.08150004 0.37659997 0.21280004 0.37659997 0.21280004 0.37659997 C 0.21650004 0.31949997 0.25490004 0.30229998 0.25490004 0.30229998 C 0.28430003 0.28139997 0.33040005 0.24519998 0.33040005 0.24519998 C 0.5766001 -0.00470002 0.34390005 -0.28710002 0.34390005 -0.28710002 C 0.25860006 -0.39760002 0.26100004 -0.44920003 0.26100004 -0.44920003 C 0.25760004 -0.46140003 0.25190005 -0.46300003 0.24380004 -0.45410004 C 0.22660005 -0.39210004 0.28800005 -0.28710005 0.28800005 -0.28710005 C 0.35250005 -0.18020004 0.35620004 -0.10100004 0.35620004 -0.10100004 C 0.36360005 0.013199963 0.32180005 0.06849995 0.32180005 0.06849995 C 0.24260005 0.21829996 0.14740005 0.21219996 0.14740005 0.21219996 C 0.07680005 0.19989996 0.09030005 0.13909996 0.09030005 0.13909996 C 0.106300056 0.08389996 0.16830006 0.111399956 0.16830006 0.111399956 C 0.21070006 0.13479996 0.25490007 0.11509996 0.25490007 0.11509996 C 0.28920007 0.092399955 0.23770007 0.03589996 0.23770007 0.03589996 C 0.12540007 -0.07220004 0.0037000775 0.08319996 0.0037000775 0.08319996 H -0.0036 M -0.2782 0.0678 C -0.2782 0.0678 -0.2499 -0.0041999966 -0.1531 -0.018299997 C -0.1531 -0.018299997 -0.1885 -0.050199997 -0.17199999 -0.119799994 C -0.17199999 -0.119799994 -0.16139999 -0.14809999 -0.20269999 -0.14809999 C -0.20269999 -0.14809999 -0.2841 -0.16579999 -0.25349998 -0.26849997 C -0.25349998 -0.26849997 -0.22629999 -0.32399997 -0.17439999 -0.32629997 C -0.17439999 -0.32629997 -0.20389998 -0.39239997 -0.15789999 -0.44309998 C -0.15789999 -0.44309998 -0.103599995 -0.50329995 -0.016299993 -0.4525 C -0.016299993 -0.4525 -0.0659 -0.54219997 -0.1626 -0.47489998 C -0.1626 -0.47489998 -0.2287 -0.41469997 -0.2039 -0.34629998 C -0.2039 -0.34629998 -0.2747 -0.31679997 -0.3148 -0.14689998 C -0.3148 -0.147 -0.3502 0.0159 -0.2782 0.0678 M 0.0015 -0.4585 C 0.0015 -0.4585 0.103 -0.5104 0.1549 -0.4373 C 0.1549 -0.4373 0.1868 -0.3795 0.162 -0.337 C 0.162 -0.337 0.2505 -0.32520002 0.2588 -0.23550001 C 0.2588 -0.23550001 0.2612 -0.1541 0.1691 -0.1446 C 0.1691 -0.1446 0.1939 -0.0467 0.1573 -0.023100004 C 0.1573 -0.023100004 0.24939999 -0.0078000035 0.29189998 0.058299996 C 0.29189998 0.058299996 0.38159996 0.011099994 0.2848 -0.24850002 C 0.2848 -0.24850002 0.2577 -0.32410002 0.1963 -0.3476 C 0.1963 -0.3476 0.22929999 -0.43260002 0.1373 -0.4857 C 0.1373 -0.4857 0.0783 -0.5188 0.016900003 -0.4762 L 0.0015 -0.4585 M 0.0392 -0.2927 C 0.0392 -0.2927 -0.0216 -0.31219998 -0.0463 -0.2644 C -0.0463 -0.2644 -0.0652 -0.2243 -0.025700001 -0.19770001 C -0.025700001 -0.19770001 -0.011500001 -0.193 -0.011500001 -0.21300001 C -0.011500001 -0.21300001 -0.002100001 -0.2714 0.018 -0.26850003 C 0.018 -0.26850003 0.0233 -0.26610002 0.0245 -0.25670004 C 0.0245 -0.25670004 0.0245 -0.24070004 0.0322 -0.23370004 C 0.0322 -0.23370004 0.0588 -0.21180004 0.036900003 -0.17880003 C 0.036900003 -0.17880003 0.0056000017 -0.14100003 -0.040399995 -0.16580003 C -0.040399995 -0.16580003 -0.09819999 -0.20420003 -0.070499994 -0.26430005 C -0.070499994 -0.26430005 -0.036899995 -0.33690006 0.050400004 -0.28970006 L 0.0392 -0.2927 M 0.1265 -0.4402 C 0.1265 -0.4402 0.065699995 -0.4597 0.040899992 -0.4119 C 0.040899992 -0.4119 0.022099992 -0.3718 0.061599992 -0.3452 C 0.061599992 -0.3452 0.075799994 -0.3405 0.075799994 -0.3605 C 0.075799994 -0.3605 0.08529999 -0.4189 0.105299994 -0.416 C 0.105299994 -0.416 0.110599995 -0.4136 0.11179999 -0.40420002 C 0.11179999 -0.40420002 0.11179999 -0.3883 0.1195 -0.38120002 C 0.1195 -0.38120002 0.1461 -0.35930002 0.124199994 -0.32630002 C 0.124199994 -0.32630002 0.09289999 -0.2885 0.046899997 -0.3133 C 0.046899997 -0.3133 -0.010900002 -0.3517 0.016799998 -0.41180003 C 0.016799998 -0.41180003 0.050399996 -0.48440003 0.1378 -0.43720004 L 0.1265 -0.4402 M 0.2198 -0.2998 C 0.2198 -0.2998 0.159 -0.3193 0.13419999 -0.27150002 C 0.13419999 -0.27150002 0.11529999 -0.23140001 0.15489998 -0.20480002 C 0.15489998 -0.20480002 0.16909999 -0.20010002 0.16909999 -0.22010003 C 0.16909999 -0.22010003 0.17849998 -0.27850002 0.1986 -0.27560002 C 0.1986 -0.27560002 0.2039 -0.2732 0.2051 -0.26380002 C 0.2051 -0.26380002 0.2051 -0.24790002 0.2128 -0.24080002 C 0.2128 -0.24080002 0.2393 -0.21900003 0.2175 -0.18590002 C 0.2175 -0.18590002 0.1862 -0.14810002 0.1402 -0.17290002 C 0.1402 -0.17290002 0.08240001 -0.21120003 0.1101 -0.27140003 C 0.1101 -0.27140003 0.1437 -0.34400004 0.231 -0.29680005 L 0.2198 -0.2998 M -0.1248 -0.2938 C -0.1248 -0.2938 -0.1855 -0.31329998 -0.2103 -0.2655 C -0.2103 -0.2655 -0.2292 -0.2254 -0.18969999 -0.19890001 C -0.18969999 -0.19890001 -0.17549999 -0.19420001 -0.17549999 -0.21420002 C -0.17549999 -0.21420002 -0.1661 -0.27260002 -0.146 -0.26970002 C -0.146 -0.26970002 -0.1407 -0.2673 -0.13949999 -0.25790003 C -0.13949999 -0.25790003 -0.13949999 -0.24200003 -0.1318 -0.23490003 C -0.1318 -0.23490003 -0.10519999 -0.21310003 -0.12709999 -0.18000002 C -0.12709999 -0.18000002 -0.1584 -0.14220002 -0.20439999 -0.16700003 C -0.20439999 -0.16700003 -0.26229998 -0.20540002 -0.23449999 -0.2655 C -0.23449999 -0.2655 -0.20089999 -0.33810002 -0.11349999 -0.29090002 L -0.1248 -0.2938 M -0.0351 -0.4378 C -0.0351 -0.4378 -0.0958 -0.45729998 -0.1206 -0.4095 C -0.1206 -0.4095 -0.13949999 -0.3694 -0.1 -0.34280002 C -0.1 -0.34280002 -0.0858 -0.33810002 -0.0858 -0.35810003 C -0.0858 -0.35810003 -0.0764 -0.41650003 -0.0563 -0.41360003 C -0.0563 -0.41360003 -0.051 -0.41120002 -0.0498 -0.40180004 C -0.0498 -0.40180004 -0.0498 -0.38590002 -0.0421 -0.37880003 C -0.0421 -0.37880003 -0.015500002 -0.35690004 -0.0374 -0.32390004 C -0.0374 -0.32390004 -0.0687 -0.28610003 -0.1147 -0.31090003 C -0.1147 -0.31090003 -0.1725 -0.34930003 -0.14479999 -0.40940005 C -0.14479999 -0.40940005 -0.11119999 -0.48200005 -0.023799993 -0.43480006 L -0.0351 -0.4378 M -0.0375 -0.1534 C -0.0375 -0.1534 -0.0983 -0.1729 -0.123100005 -0.1251 C -0.123100005 -0.1251 -0.142 -0.085 -0.102400005 -0.058400005 C -0.102400005 -0.058400005 -0.0882 -0.053700004 -0.0882 -0.0737 C -0.0882 -0.0737 -0.0788 -0.1321 -0.058700003 -0.12920001 C -0.058700003 -0.12920001 -0.053400002 -0.12680002 -0.052200004 -0.11740001 C -0.052200004 -0.11740001 -0.052200004 -0.10150001 -0.044500005 -0.09440001 C -0.044500005 -0.09440001 -0.018000005 -0.07260001 -0.039800003 -0.03950001 C -0.039800003 -0.03950001 -0.071100004 -0.0018000081 -0.1171 -0.026500009 C -0.1171 -0.026500009 -0.1749 -0.06480001 -0.1472 -0.125 C -0.1472 -0.125 -0.1136 -0.1976 -0.026200004 -0.1504 L -0.0375 -0.1534 M 0.1419 -0.1523 C 0.1419 -0.1523 0.0811 -0.1718 0.0563 -0.124 C 0.0563 -0.124 0.0374 -0.0839 0.0769 -0.0573 C 0.0769 -0.0573 0.0911 -0.0526 0.0911 -0.0726 C 0.0911 -0.0726 0.1005 -0.131 0.1206 -0.12810001 C 0.1206 -0.12810001 0.1259 -0.12570001 0.1271 -0.11630001 C 0.1271 -0.11630001 0.1271 -0.10040001 0.1348 -0.09330001 C 0.1348 -0.09330001 0.1614 -0.0715 0.1395 -0.038400006 C 0.1395 -0.038400006 0.108200006 -6.0000643E-4 0.06220001 -0.025400005 C 0.06220001 -0.025400005 0.004400011 -0.063700005 0.03210001 -0.123900004 C 0.03210001 -0.123900004 0.06570001 -0.1964 0.15300001 -0.14930001 L 0.1419 -0.1523 M -0.0316 -0.0054 L -0.004399998 -0.0396 L 0.010900002 -0.038399998 L 0.0333 -0.0054 L 0.013200002 0.033600003 L -0.0032999981 0.0324 L -0.0316 -0.0054"/>
</defs>
<g>
<rect x="0" y="0" width="480" height="360" class="white"/>
<use xlink:href="#logo" transform="translate(240 180) scale(180 180) rotate(0)" class="gold"/>
</g>
</svg>
