<?xml version="1.0"?>
<svg xmlns="http://www.w3.org/2000/svg" xmlns:xlink="http://www.w3.org/1999/xlink" version="1.1" width="480" height="360" viewBox="0 0 480 360">
<!-- Generated by Kreative Vexillo v1.0 -->
<style>
.black{fill:rgb(0,0,0);}
.brown{fill:rgb(143,75,42);}
.purple{fill:rgb(89,35,113);}
.red{fill:rgb(216,45,34);}
.white{fill:rgb(255,255,255);}
.yellow{fill:rgb(246,210,0);}
</style>
<defs>
<path id="b1" d="M -77.812 21.635 L 70.211 -42.474 L 71.721 -39.26 L 64.867 -35.719 L 63.947 -35.719 L -64.597 20.29 L -66.597 21.471 L -67.778 21.569 L -75.746 24.881 Z"/>
<path id="b2" d="M 58.473 -3.188 C 59.454998 -2.205 58.637 -1.352 58.276 -0.53200006 C 58.112 -0.13800007 57.489002 -0.40100008 57.063 -0.36800006 C 56.702 -0.33500007 56.473 -0.56500006 56.276 -0.794 C 54.997 -2.171 53.52 -3.2860003 52.21 -4.63 C 50.931 -5.9420004 49.455997 -7.057 48.012 -8.139 C 47.749 -8.3359995 47.356003 -8.434 47.619 -8.893 C 48.242 -9.417 49.061 -9.549 49.784 -9.384999 C 51.062 -9.089999 52.472 -9.122 53.521 -7.9419994 C 54.013 -7.3839993 54.964 -7.2209992 55.687 -6.8599997 C 55.98 -6.7289996 56.341 -6.6309996 56.013 -6.1389995 C 55.784 -5.8439994 56.21 -5.7119994 56.408 -5.5809994 C 56.998 -5.1869993 57.621002 -4.8589993 58.211002 -4.4329996 C 58.475002 -4.2359996 58.867 -4.0729995 58.801003 -3.6139996 C 58.668 -3.484 57.783 -3.877 58.473 -3.188 Z M 56.34 -0.401 C 54.897 -2.008 53.225 -3.451 51.586 -4.86 C 50.11 -6.107 48.7 -7.484 46.995 -8.436 C 46.405 -6.829 47.159 -4.7299995 48.668 -3.7469997 C 48.864 -3.6159997 48.995 -3.3859997 49.093998 -3.1889997 C 49.586 -2.0739996 50.406 -1.2539997 51.422997 -0.63099957 C 51.651997 -0.72999954 51.619995 -0.89299953 51.684998 -1.0569996 C 51.748997 -1.2539996 51.881996 -1.4179995 51.979996 -1.6149995 L 53.456997 -0.46699953 C 53.456997 -0.10699952 53.325996 0.2210005 53.815998 1.3040005 C 54.308 1.5980005 54.834 1.9270005 55.293 1.2060004 C 55.359 1.1400005 55.555 1.0740005 55.652 1.1070005 C 56.8 1.5660005 56.539 0.8780005 56.341 0.25400048 C 56.242 0.025 56.176 -0.172 56.34 -0.401 Z M 72.803 -20.438 C 72.18 -19.913 71.588005 -20.372 70.965004 -20.471 C 70.408005 -20.7 70.047005 -21.159 69.65401 -21.586 C 69.408005 -21.836 69.16201 -22.084 68.91401 -22.331001 C 69.48601 -21.744001 70.05101 -21.147001 70.60501 -20.537 C 70.669014 -20.406 70.669014 -20.275002 70.70301 -20.144001 C 70.83401 -19.685001 71.19501 -19.226002 70.76901 -18.734001 C 70.40801 -18.340002 68.86701 -18.209002 68.40801 -18.471 C 67.654015 -19.193 67.193016 -20.078001 66.73401 -20.996 C 66.63601 -21.225 66.53901 -21.586 66.24201 -21.586 C 65.78501 -21.619001 65.98001 -21.225 65.916016 -20.996 C 65.752014 -20.504 65.457016 -20.832 65.293015 -20.931 C 64.60401 -21.456 63.883015 -22.013 63.522015 -22.833 C 63.292015 -23.357 63.030014 -23.685 62.440014 -23.98 C 61.489014 -24.472 61.391014 -25.653 61.194016 -26.637 C 61.130016 -26.932 61.227016 -27.259998 60.965015 -27.619999 C 59.750015 -25.717999 58.537014 -23.815998 57.324017 -21.946999 C 56.66802 -20.963 56.011017 -19.978998 55.388016 -18.995998 C 55.290016 -18.864998 55.126015 -18.734 55.224014 -18.569998 C 55.357014 -18.339998 55.585014 -18.372997 55.783012 -18.438997 C 57.357014 -18.996998 59.06201 -18.536997 60.144012 -17.782997 C 61.193012 -17.060997 62.898014 -16.897997 63.290012 -15.880997 C 63.782013 -14.634996 64.833015 -14.404997 65.58701 -13.715997 C 65.751015 -13.584997 65.915016 -13.453997 66.04601 -13.321997 C 66.17701 -13.157997 66.112015 -13.026997 66.013016 -12.862997 C 65.78402 -12.763997 65.88202 -12.600997 65.98002 -12.468997 C 66.834015 -11.287997 66.570015 -10.107997 65.25902 -9.386997 C 65.09502 -9.287997 64.89802 -9.189998 64.70002 -9.156998 C 64.26 -9.31 63.945 -9.599 63.66 -9.922 C 63.678 -9.884 63.703 -9.852 63.718998 -9.813 C 63.85 -9.453 64.047 -9.125 64.079994 -8.764 C 64.144 -8.141 64.01399 -7.649 63.259995 -7.715 C 62.636993 -7.747 61.980995 -7.059 61.390995 -7.813 C 60.667995 -8.6 60.144997 -9.485001 59.619995 -10.404 C 59.424995 -10.764 59.127995 -11.191 58.963997 -10.371 C 58.865997 -9.912001 58.637997 -10.043 58.373997 -10.207001 C 58.177 -10.338 57.914997 -10.436001 57.783997 -10.6 C 56.373997 -12.6 53.847996 -13.945001 54.111996 -17.159 C 51.728996 -14.354 49.574997 -11.711 47.259995 -9.231001 C 47.270996 -9.229001 47.278996 -9.225001 47.289993 -9.223001 C 47.224995 -9.092001 47.027992 -8.961 47.256992 -8.830001 C 47.191994 -8.764001 47.09299 -8.699001 47.027992 -8.633001 C 47.01699 -8.623001 47.006992 -8.611001 46.99499 -8.600001 L 46.99499 -8.600001 C 46.436993 -8.600001 46.24099 -8.043001 45.78199 -7.846001 C 44.10899 -6.108001 42.50299 -4.304001 40.63399 -2.796001 C 39.91299 -2.206001 39.32199 -1.4510009 38.50299 -0.927001 C 38.40399 -0.861001 38.27299 -0.66500103 38.27299 -0.533001 C 38.27299 -0.336001 38.50299 -0.304001 38.666992 -0.336001 C 40.207993 -0.76300097 41.650993 0.155999 43.158993 -0.074001014 C 43.165993 -0.074001014 43.171993 -0.074001014 43.178993 -0.074001014 C 43.110992 0.08999899 42.998993 0.320999 43.060993 0.35199898 C 43.749992 0.87699896 44.143993 1.6639991 45.02899 2.023999 C 45.58599 2.253999 46.53699 2.5489988 46.340992 3.630999 C 46.30799 3.893999 46.798992 4.122999 47.12799 4.319999 C 47.78399 4.7129993 48.603992 5.0739994 48.43999 6.122999 C 49.325993 7.303999 49.35899 7.696999 48.63699 8.712999 C 47.94899 9.664 47.71899 9.73 46.63599 9.237999 C 45.82599 8.411999 45.03199 7.5769987 44.26199 6.721999 C 44.75199 7.282999 45.23999 7.8459992 45.71799 8.417999 C 45.84899 8.547999 46.04599 8.711999 45.94699 8.974999 C 45.68499 9.271 46.07799 9.466999 46.04499 9.697 C 45.979992 10.221 46.40599 11.172999 45.15899 10.681 C 44.96299 10.615 44.667988 10.811999 44.40599 10.91 C 43.65199 10.943 43.25799 10.386 42.92999 9.828 C 42.633987 9.304 42.37199 8.746 42.14199 8.188 C 42.01099 7.8279996 41.91299 7.6309996 41.55199 8.024 C 41.256992 8.32 40.99399 8.188 40.66599 7.959 C 39.71499 7.335 39.38799 6.3190002 38.92799 5.401 C 38.82999 5.237 38.82999 4.975 38.69899 4.876 C 37.38699 3.761 36.89499 2.056 37.45299 0.35099983 C 37.53799 0.27399984 37.61999 0.23899983 37.69699 0.22999984 C 37.61399 0.17399985 37.53699 0.10999984 37.45299 0.055999845 C 35.45299 1.5649998 33.45299 3.0729997 31.418991 4.581 C 30.40199 5.335 29.319992 6.023 28.04099 6.942 C 29.68099 6.909 30.76299 7.663 31.81199 8.45 C 32.40199 8.877 33.15599 9.2369995 33.221992 10.156 C 33.253994 10.517 33.64799 10.648 33.87699 10.877 C 34.36899 11.401 35.38599 11.73 34.69699 12.812 C 34.56499 13.009 34.860992 13.206 35.02499 13.402 C 35.48399 13.96 35.87799 14.517 36.23799 15.14 C 36.46699 15.534 36.401993 15.829 36.20499 16.157 C 36.33699 16.878 36.729992 17.633 36.00899 18.321 C 34.82799 19.435999 34.53299 19.435999 33.41799 18.255 C 33.130993 18.045 33.02299 17.755 32.937992 17.453 C 32.998993 17.675 33.04299 17.898998 33.05799 18.123999 C 33.05799 18.418999 33.089993 18.713999 33.05799 19.040998 C 33.02499 19.729998 32.66399 20.155998 31.942991 19.96 C 31.38499 19.796 30.598991 20.089998 30.302992 19.271 C 29.810991 18.058 29.581991 16.778 29.417992 15.467 C 28.466991 15.96 27.97499 15.861 27.74599 14.68 C 27.351992 12.581 26.039991 10.614 26.76099 8.319 C 26.82699 8.155001 26.859991 7.958 26.66299 7.86 C 26.466991 7.761 26.26999 7.925 26.105991 7.991 C 24.760992 8.712 23.580992 9.729 22.13799 10.352 C 20.268991 11.139 18.62899 12.450001 16.75999 13.271 C 16.53099 13.3689995 16.234991 13.467 16.10399 13.861 C 17.41599 14.484 18.595991 15.337 19.71099 16.255001 C 20.070992 16.550001 20.39999 16.779001 20.39999 17.337002 C 20.432991 17.993002 21.15399 18.288002 21.51499 18.813002 C 21.80999 19.240002 22.30199 19.535002 21.908989 20.224 C 21.711988 20.584002 22.072989 20.945002 22.302988 21.306002 C 22.794989 22.060001 23.482988 22.749002 23.285988 23.766003 C 23.121988 23.865004 23.056988 24.029003 23.089989 24.192003 C 23.285988 25.307003 22.46699 25.733004 21.712988 26.225002 C 21.023989 26.684002 20.597988 26.029003 20.105988 25.733002 C 19.953987 25.378002 19.808987 25.021002 19.659988 24.665 C 19.725988 24.848001 19.778988 25.027 19.778988 25.242 C 19.745987 25.471 19.712988 25.701 19.712988 25.963001 C 19.614988 27.045002 19.384989 27.176 18.302988 27.012001 C 17.679989 26.914001 16.957989 27.078001 16.793987 26.193 C 16.269987 25.242 16.432987 24.225 16.400988 23.241001 C 16.400988 22.880001 16.531988 22.323002 15.7779875 22.782001 C 15.351988 23.045002 14.990988 22.717001 14.826987 22.291002 C 14.629988 21.733002 14.367988 21.176003 14.367988 20.553001 C 14.367988 19.963001 14.564987 19.306002 13.743988 19.044 C 13.645988 19.012001 13.5799885 18.75 13.5799885 18.586 C 13.4809885 17.635 13.514989 16.684 13.808989 15.766001 C 13.906988 15.438001 14.332989 15.110001 13.939988 14.782001 C 13.808989 14.684001 13.349988 14.946 13.087988 15.110001 C 11.775988 15.831 10.364988 16.257 8.988988 16.782001 C 7.9059877 17.209002 6.823988 17.733002 5.7099876 18.029001 C 5.0219874 18.226002 4.200988 18.160002 3.7099876 18.980001 C 4.6599874 19.636002 5.6109877 20.357002 6.4309874 21.276001 C 7.479987 22.456001 8.332987 23.801 9.0869875 25.178001 C 9.1199875 25.276001 9.217987 25.374 9.217987 25.44 C 9.0869875 26.555 9.0869875 26.522001 9.808987 27.735 C 9.939986 27.932001 10.037987 28.161001 10.102986 28.391 C 10.201986 28.686 10.070987 28.915 9.709987 28.981 C 9.938987 30.686 9.839987 30.883001 8.6269865 31.506 C 7.6439867 31.997 7.4469867 31.932001 6.7259865 30.981 C 6.6409864 30.721 6.5529866 30.463001 6.4649863 30.205002 C 6.479986 30.307001 6.485986 30.410002 6.4639864 30.522001 C 6.3649864 30.817001 6.3649864 31.112001 6.3329864 31.408 C 6.2009864 32.359 5.676986 32.588 4.8239865 32.195 C 4.2339864 31.899 3.3819866 31.998 3.3159866 31.046999 C 3.4139867 30.030998 2.8569865 29.079998 3.2179866 28.030998 C 3.3489866 27.637 3.0219865 27.406998 2.6599865 27.669998 C 2.1679864 28.030998 2.0039864 27.767998 1.8399866 27.373999 C 1.5119865 26.522 0.9869866 25.734 1.3479866 24.751 C 1.4129865 24.587 1.4129865 24.258999 1.3149866 24.161 C -0.12701344 22.98 1.1509866 21.734 1.2169865 20.521 C 1.2489865 20.259 1.6759865 19.964 1.4789865 19.734 C 1.2169865 19.406 0.9549865 19.865 0.6919865 19.897999 C -0.8820135 19.995998 -2.2270133 20.815998 -3.7680135 21.110998 C -5.8670135 21.503998 -7.9650135 22.159998 -10.0640135 22.684998 C -10.195013 22.717999 -10.327013 22.750998 -10.359014 22.914997 C -10.392014 23.110996 -10.228014 23.176996 -10.097013 23.274998 C -8.490013 24.127998 -7.244014 25.242998 -6.686013 27.110998 C -6.457013 27.930998 -5.833013 28.652998 -5.407013 29.406998 C -5.308013 29.569998 -5.112013 29.832998 -5.178013 29.930998 C -5.899013 31.011997 -4.981013 31.766998 -4.6530128 32.619 C -4.4890127 33.078 -4.4560127 33.406 -4.883013 33.669 C -4.850013 34.652 -4.948013 35.504997 -6.0630126 35.898 C -7.211013 36.292 -7.5390124 36.225 -8.162012 35.111 C -8.245012 34.757 -8.326012 34.399 -8.407012 34.044 C -8.421012 34.326 -8.524012 34.564 -8.720012 34.784 C -8.785011 35.144 -8.785011 35.505 -8.917011 35.865 C -9.114011 36.389 -9.409011 36.685 -9.868011 36.095 C -9.967011 35.963 -10.196012 35.767002 -10.229012 35.767002 C -11.147012 36.357002 -11.147012 35.209003 -11.672011 35.045002 C -11.607012 34.127003 -11.771011 33.241 -11.475012 32.322002 C -11.410012 32.093002 -11.410012 31.832003 -11.606011 31.668003 C -11.8350115 31.471003 -11.934011 31.766003 -12.065011 31.864002 C -12.557011 32.159 -12.721011 31.732002 -12.819011 31.405003 C -13.04901 30.782003 -13.114011 30.093002 -13.04901 29.405003 C -13.02901 29.268003 -13.02901 29.133003 -13.03001 28.998003 C -13.0590105 29.133003 -13.07301 29.269003 -13.04901 29.405003 C -13.31101 28.092003 -14.13101 26.748003 -13.27801 25.339003 C -12.88401 24.682003 -12.62201 23.962002 -11.96601 23.240002 C -12.52401 23.272001 -12.88401 23.305002 -13.24501 23.305002 C -14.85101 23.797003 -16.55701 23.993002 -18.19601 24.190002 C -20.13101 24.419003 -22.06601 24.912003 -24.03301 24.748003 C -24.05401 24.762003 -24.07601 24.769003 -24.09701 24.782003 C -24.07601 24.782003 -24.05401 24.782003 -24.03301 24.782003 C -24.68001 25.214003 -24.42901 25.645004 -24.12401 26.105003 C -24.09401 26.134003 -24.06201 26.163004 -24.03301 26.192003 C -23.410011 27.109003 -22.49201 27.963003 -22.26201 28.979004 C -22.000011 30.193005 -21.049011 31.373005 -21.278011 32.422005 C -21.60601 33.898006 -21.08101 35.144005 -20.91801 36.455006 C -20.88501 36.750004 -21.115011 36.815006 -21.21301 36.946007 C -21.476011 36.815006 -21.86901 36.291008 -21.90101 37.11001 C -21.934011 37.83201 -22.098011 38.35701 -22.98401 38.258007 C -23.08201 38.258007 -23.181011 38.29001 -23.24601 38.357006 C -24.09901 39.078007 -24.39301 38.751007 -24.45901 37.799007 C -24.45901 37.73401 -24.55801 37.635006 -24.623009 37.570007 C -25.147009 37.01101 -25.11501 36.291008 -25.082008 35.668007 C -25.01801 32.365005 -25.623009 29.128006 -26.048008 25.859007 C -26.017008 26.057007 -26.043009 26.262007 -26.141008 26.475006 C -26.109009 26.560005 -26.074009 26.642006 -26.033009 26.716005 C -25.377008 29.962006 -25.213009 33.273006 -25.180008 36.553005 C -25.115007 36.881004 -25.115007 37.143005 -25.311008 37.372005 C -25.540009 37.536007 -25.540009 37.831005 -25.672009 38.060005 C -25.934008 38.520004 -26.131008 39.142006 -26.885008 38.323006 C -27.311008 37.864006 -28.164007 37.733006 -28.262009 36.881004 C -28.09801 36.027004 -28.033009 35.143005 -27.770008 34.322006 C -27.705008 34.126007 -27.705008 33.600006 -28.098007 33.831005 C -28.852007 34.322006 -28.820007 33.634007 -28.918007 33.307007 C -29.180006 32.453007 -29.311007 31.601007 -28.852007 30.748007 C -28.688007 30.485006 -28.590008 30.027006 -28.721006 29.765007 C -29.344006 28.158007 -28.458006 27.076008 -27.508007 25.994007 C -27.442007 25.928007 -27.409006 25.830008 -27.344007 25.731007 C -27.307007 25.713007 -27.281008 25.711006 -27.248007 25.697006 C -27.145006 25.538006 -26.862007 25.342007 -27.377007 25.370007 C -28.623007 25.403008 -29.869007 25.206007 -31.115005 25.567007 C -32.295006 25.928007 -33.542007 25.731007 -34.755005 25.764008 C -36.460007 25.796007 -38.132004 25.764008 -39.838005 25.764008 C -40.166004 25.764008 -40.625004 25.600008 -40.723003 26.190008 C -40.745003 26.180008 -40.766003 26.165009 -40.787003 26.152008 C -40.776 26.166008 -40.767002 26.176008 -40.755 26.190008 C -39.673 27.436008 -38.591 28.649008 -38.624 30.485008 C -38.624 31.174007 -38.132 31.863008 -37.903 32.55101 C -37.739 32.97801 -37.444 33.43601 -38.231 33.63301 C -38.493 33.69801 -38.427998 33.96101 -38.362 34.12501 C -38.132 34.68301 -38.231 35.37101 -38.001 35.89601 C -37.706 36.519012 -37.87 36.91301 -38.295998 37.338013 C -38.656998 36.781013 -38.885998 37.273014 -38.852997 37.502014 C -38.721996 38.880013 -39.869995 38.749016 -40.656998 38.978016 C -41.051 39.077015 -41.378 38.913017 -41.443996 38.420017 C -41.476997 38.12502 -41.344997 37.798016 -41.705997 37.634018 C -41.830997 37.55602 -41.893997 37.44602 -41.928997 37.32602 C -42.017998 37.60302 -42.165997 37.864017 -42.296997 38.12502 C -42.788998 39.142017 -43.181995 39.17502 -44.100998 38.48602 C -44.657997 38.05902 -45.314 37.76402 -45.183 36.88002 C -45.118 36.09302 -44.986 35.33802 -44.625 34.65002 C -44.494 34.38702 -44.297 34.09302 -44.526 33.79702 C -44.789 33.43602 -45.051003 33.92802 -45.314 33.86202 C -45.773 32.747017 -45.707 31.66602 -45.247997 30.616018 C -44.985996 30.026018 -45.510998 29.501019 -45.314 28.944017 C -44.92 27.862017 -44.559998 26.779018 -43.607998 25.993017 C -43.411 25.829018 -43.05 25.664017 -43.149 25.369017 C -43.246998 25.008017 -43.641 25.140017 -43.935997 25.107018 C -46.002 25.008017 -48.067997 24.714018 -50.100998 24.550018 C -52.167 24.353018 -54.232998 23.894018 -56.364998 23.862019 C -55.151997 24.747019 -54.758 26.058018 -54.199997 27.30502 C -53.970997 27.79702 -53.871998 28.25602 -54.166996 28.747019 C -54.363995 29.042019 -54.264996 29.30502 -54.101997 29.60002 C -53.707996 30.48502 -53.544 31.40402 -54.068996 32.32102 C -54.298996 32.748016 -54.199997 33.240017 -54.199997 33.732018 C -54.199997 34.551018 -54.232998 35.372017 -54.593998 36.093018 C -55.019997 36.12502 -55.184 36.45302 -55.413998 36.71602 C -56.017 37.43902 -57.085 37.490017 -57.839996 36.961018 C -57.992996 36.873016 -58.143997 36.810017 -58.266994 36.748016 C -58.187996 36.458015 -58.356995 36.128017 -58.207996 35.872017 C -58.228996 35.768017 -58.257996 35.666016 -58.298996 35.568016 C -58.309998 34.959015 -58.256996 34.358017 -58.178997 33.760017 C -58.253998 34.296017 -58.326996 34.832016 -58.396996 35.370018 C -58.494995 35.665016 -58.691994 35.894016 -58.822994 36.157017 C -59.380993 37.14002 -59.905994 37.173016 -60.626995 36.353016 C -61.019997 35.861015 -61.806995 35.599014 -61.511993 34.746017 C -61.249992 33.86102 -61.183994 32.943016 -60.495995 32.255016 C -60.528996 32.026016 -60.626995 31.894016 -60.855995 31.861017 C -61.931995 31.796017 -61.840996 31.179018 -61.516994 30.463017 C -61.514996 30.447016 -61.514996 30.434017 -61.511993 30.418016 C -61.314995 29.074017 -60.626995 27.861017 -60.52899 26.483017 C -60.430992 25.073017 -59.05299 24.417017 -58.069992 23.531017 C -58.85699 23.105017 -59.57799 22.843018 -60.39799 22.875017 C -61.34899 22.908018 -62.201992 22.449017 -63.08699 22.252018 C -64.26799 21.989017 -65.38199 21.531017 -66.59599 21.465017 C -66.006 20.941017 -65.25199 20.711018 -64.59599 20.284018 C -61.414993 21.367018 -58.16899 22.088018 -54.823994 22.547018 C -53.183994 22.776018 -51.544994 23.039019 -49.937992 23.400019 C -48.395992 23.728018 -46.789993 23.924019 -45.215992 23.924019 C -41.444992 23.98902 -37.706993 24.35002 -33.935993 24.153019 C -31.279993 24.02302 -28.655993 24.088018 -26.032993 23.924019 C -24.622993 23.82602 -23.212994 23.629019 -21.802994 23.400019 C -19.343994 23.00602 -16.850994 22.776018 -14.391994 22.219019 C -14.276995 22.19102 -14.158995 22.17702 -14.040995 22.17302 L -10.113995 21.35602 C -8.650994 20.882019 -7.1059947 20.74102 -5.6359944 20.31702 C -1.8319945 19.23502 1.9710054 18.08702 5.6450057 16.677021 C 9.252006 15.300021 12.793005 13.792021 16.270006 12.11902 C 19.319006 10.67702 22.304007 9.037021 25.157005 7.2330203 C 28.272005 5.2660203 31.256004 3.1020203 34.305004 1.0030203 C 34.451004 0.9020203 34.586002 0.8050203 34.699005 0.6980203 V 0.80602026 L 37.290005 -1.2599797 L 36.939003 -1.1519797 C 39.280003 -2.6339798 41.056004 -4.8139796 43.159004 -6.60598 C 43.618004 -6.99998 44.012005 -7.49098 44.471004 -7.88498 C 44.585003 -7.9499803 44.700005 -8.07098 44.843006 -8.15998 L 45.711006 -9.08298 C 45.768005 -9.1569805 45.832005 -9.22098 45.899006 -9.28298 L 47.149006 -10.61398 C 47.196007 -10.666981 47.244007 -10.71998 47.291004 -10.77098 C 49.718002 -13.59098 52.080006 -16.47698 54.308006 -19.46098 C 55.718006 -21.36298 56.900005 -23.395979 58.146008 -25.42898 C 60.04601 -28.54398 61.751007 -31.78998 63.22801 -35.13498 C 63.271008 -35.22198 63.355007 -35.36598 63.44701 -35.505978 L 63.94901 -35.72598 H 64.86901 C 64.113014 -33.82398 63.16401 -31.954979 62.24401 -30.11798 C 62.11301 -29.85598 61.818012 -29.559978 62.01501 -29.29798 C 62.21201 -29.06898 62.57201 -29.19998 62.867012 -29.264978 C 64.44101 -29.658978 66.08201 -29.199978 67.23001 -28.444979 C 68.04801 -27.886978 69.00001 -27.52698 69.82001 -26.968979 C 70.310005 -26.64098 70.37701 -26.14898 70.63801 -25.788979 C 71.09701 -25.197979 71.853004 -24.837978 72.476006 -24.411978 C 72.73801 -24.214977 73.132 -24.083979 72.90201 -23.624977 C 72.70501 -23.296978 73.033005 -23.132977 73.16401 -22.936977 C 73.654 -22.143 73.49 -21.027 72.803 -20.438 Z M -57.219 24.619 C -57.246002 27.251 -57.691 30.258999 -58.121002 33.333 C -57.972004 32.34 -57.772003 31.354 -57.678 30.358 C -57.481 28.226 -57.087 26.127 -57.219 24.619 Z M -42.112 27.598 C -42.141 27.16 -42.177 26.722 -42.218998 26.285 C -42.302 26.724 -42.212 27.166 -42.112 27.598 Z M -42.099 25.976 C -42.11 25.973999 -42.114 25.967 -42.124 25.964 C -42.134 25.988 -42.145 26.013 -42.153 26.038 C -42.136 26.018 -42.117 25.996 -42.099 25.976 Z M -26.302 25.244 C -26.302 25.237 -26.302 25.23 -26.302 25.223 C -26.305 25.223 -26.309 25.223999 -26.312 25.225 C -26.309 25.231 -26.306 25.238 -26.302 25.244 Z M -25.996 25.541 C -26.059 25.541 -26.113 25.535 -26.153 25.52 C -26.107 25.625 -26.07 25.732 -26.052 25.842001 C -26.056 25.806002 -26.062 25.77 -26.066 25.734001 C -26.046 25.659 -26.023 25.596 -25.996 25.541 Z M 17.221 18.723 C 17.599 19.594 17.976 20.501999 18.353 21.428 C 18.282001 21.244999 18.207 21.064999 18.138 20.882 C 17.865 20.135 17.546 19.411 17.221 18.723 Z M 28.369 8.026 C 29.91 10.585 31.286999 13.634 32.664 16.682999 C 32.754 16.891998 32.835003 17.109 32.901 17.328999 C 32.854 17.154999 32.807 16.978998 32.73 16.814999 C 31.353 13.7 30.041 10.584 28.369 8.026 Z M 38.538 0.831 C 40.371 2.508 42.100998 4.289 43.753 6.147 C 43.084 5.384 42.432 4.607 41.814 3.7959998 C 41.747997 3.7309997 41.716 3.5989997 41.649998 3.5339997 C 40.608 2.642 39.623 1.675 38.538 0.831 Z M 61.646 -11.89 C 62.079998 -11.474 62.527 -11.0720005 62.994 -10.692 C 62.883 -10.81 62.765 -10.924001 62.637 -11.026 C 62.295 -11.3 61.971 -11.594 61.646 -11.89 Z M 57.848 -15.447 C 57.934 -15.372999 58.017998 -15.299999 58.102 -15.224999 C 58.026 -15.287999 57.957 -15.358 57.881 -15.419999 C 57.871 -15.429 57.859 -15.438 57.848 -15.447 Z M 65.295 -25.725 C 64.307 -26.579 63.285 -27.392 62.211 -28.143 C 63.277 -27.383 64.303 -26.573 65.295 -25.725 Z"/>
<path id="b3" d="M -4.916 33.735 C -4.949 33.735 -4.949 33.702 -4.981 33.670002 C -4.981 33.637 -5.014 33.637 -5.046 33.637 C -5.275 33.768 -5.177 33.997 -5.145 34.161 C -4.916 35.408 -6.0299997 35.506 -6.719 35.899 C -7.473 36.325996 -7.539 35.375 -7.965 35.112 C -8.26 35.375 -8.064 35.702 -8.064 36.063 C -8.056 36.188 -8.043 36.313 -8.029 36.438 C -8.115001 35.958 -8.204 35.471 -8.261001 34.981 C -8.292001 34.76 -8.475 34.695 -8.693001 34.747997 C -8.703001 34.76 -8.709001 34.771996 -8.720001 34.784996 C -8.785001 35.144997 -8.785001 35.505997 -8.917001 35.865997 C -9.114 36.389996 -9.409 36.685997 -9.868001 36.095997 C -9.967001 35.963997 -10.196001 35.767998 -10.229001 35.767998 C -11.095001 36.324997 -11.145001 35.335 -11.588001 35.084 C -11.626001 35.079998 -11.664001 35.076 -11.704001 35.078 C -11.737001 35.669 -11.737001 36.225 -11.737001 36.815998 C -11.737001 37.045998 -11.802001 37.406998 -11.540002 37.439 C -10.884002 37.472 -11.048002 37.898 -11.048002 38.259 C -11.081002 40.226997 -9.376002 41.406 -8.785002 43.113 C -8.720002 43.244 -8.457002 43.375 -8.261002 43.407997 C -7.0480013 43.603996 -5.8670015 43.374996 -5.113002 42.456997 C -3.736002 40.751995 -3.671002 38.651997 -3.769002 36.586998 C -3.833 35.539 -4.358 34.621 -4.916 33.735 Z M -7.801 39.048 C -7.7590003 38.632 -7.7780004 38.205 -7.8250003 37.772 C -7.761 38.219 -7.728 38.65 -7.801 39.048 Z M -21.213 36.948 C -21.476 36.817 -21.869 36.293003 -21.901 37.112003 C -21.934 37.834003 -22.098 38.359005 -22.984 38.260002 C -23.081999 38.260002 -23.181 38.292004 -23.245998 38.359 C -24.098999 39.08 -24.392998 38.753002 -24.458998 37.801003 C -24.458998 37.736004 -24.557999 37.637 -24.622997 37.572002 C -24.635998 37.558002 -24.643997 37.544003 -24.656998 37.530003 C -24.730997 37.559002 -24.800997 37.634003 -24.852997 37.702003 C -24.930996 37.976 -24.967997 38.255005 -24.985996 38.532005 C -25.003996 38.194004 -25.041996 37.851006 -25.114996 37.506004 C -25.176996 37.428005 -25.234997 37.379005 -25.290997 37.342003 C -25.298996 37.353004 -25.302996 37.364002 -25.311996 37.375004 C -25.540997 37.539005 -25.540997 37.834003 -25.672997 38.063004 C -25.934996 38.523003 -26.131996 39.145004 -26.885996 38.326004 C -27.311996 37.867004 -28.164995 37.736004 -28.262997 36.884003 C -28.262997 36.88 -28.261997 36.876003 -28.260996 36.871002 C -28.273996 36.866 -28.282995 36.856003 -28.295996 36.850002 C -28.492996 37.538002 -28.590996 38.260002 -28.754995 38.949 C -28.885996 39.604 -28.033995 39.408 -28.197996 39.999 C -28.689997 41.736 -27.410995 43.146 -27.148996 44.753002 C -27.050997 45.442 -26.459997 45.835003 -25.771996 45.901 C -24.918995 45.966 -24.033995 46.032 -23.345995 45.442 C -22.754995 44.917 -22.000996 44.392002 -21.803995 43.704002 C -21.245995 41.867 -20.393995 40.031002 -20.983995 37.998 C -21.082 37.67 -21.312 37.342 -21.213 36.948 Z M -25.083 41.015 C -25.055 40.572998 -25.012001 40.098 -24.988 39.606 C -24.973 40.108 -24.965 40.589 -25.083 41.015 Z M -54.628 36.097 C -54.628 37.178 -54.267 38.228 -55.086998 39.343 C -55.545998 39.966 -55.711 40.982998 -56.103996 41.802 C -56.857998 43.376 -58.071995 44.196 -59.874996 44.065998 C -61.284996 43.967 -62.301994 42.787 -61.809998 41.475 C -61.580997 40.850998 -62.235996 40.982998 -62.235996 40.621 C -62.235996 39.899998 -62.563995 39.211998 -62.235996 38.489998 C -61.809998 37.572 -62.629997 36.489 -62.006996 35.538998 C -61.809998 35.309998 -61.776997 34.981 -61.514996 34.784996 C -61.383995 35.210995 -61.350994 35.735996 -60.727997 35.767998 C -60.531 35.767998 -60.366997 35.963997 -60.333996 36.162 C -60.268997 36.456997 -60.300995 36.816998 -59.874996 36.752 C -59.546997 36.719997 -59.251995 36.523 -59.152996 36.162 C -59.054996 35.899 -58.955997 35.67 -58.693996 35.538998 C -58.332996 35.801 -58.332996 36.162 -58.496998 36.522 C -58.557 36.655 -58.586998 36.788 -58.608997 36.918 C -58.567997 36.813 -58.499996 36.719997 -58.365997 36.652 C -58.323997 36.641 -58.288998 36.647 -58.253 36.649002 C -58.255997 36.683002 -58.259 36.717003 -58.267998 36.751003 C -58.136997 36.816 -57.973 36.883003 -57.809 36.980003 C -57.816998 36.959003 -57.82 36.939003 -57.827 36.918003 C -56.494 37.305004 -55.871998 37.041004 -55.317 35.931004 C -55.252003 35.767002 -55.252003 35.471004 -54.989002 35.504005 C -54.595 35.506 -54.923 35.998 -54.628 36.097 Z M -38.298 37.375 C -37.674 38.949 -37.839 40.457 -38.331 42.064 C -38.79 43.54 -39.347 44.884 -40.692 45.802 C -41.545002 46.392 -42.43 46.359997 -43.316 46.096996 C -44.037003 45.867996 -44.562 45.375996 -44.529003 44.456997 C -44.529003 44.062996 -43.972004 43.275997 -45.054005 43.144997 C -45.218006 43.112995 -45.382004 42.324997 -45.415005 41.865997 C -45.448006 41.242996 -45.644005 40.553997 -45.317005 39.964996 C -45.022007 39.439995 -45.809006 39.603996 -45.710007 39.111996 C -45.546005 38.357994 -45.350006 37.668995 -45.218006 36.946995 C -45.153008 38.029995 -43.775005 37.963993 -43.447006 38.882996 C -43.349007 39.111996 -42.824005 38.619995 -42.693005 38.324997 C -42.562004 37.996998 -42.529003 37.636997 -42.201004 37.406998 C -41.873005 37.669 -41.972004 38.03 -41.972004 38.357998 C -42.008003 38.815998 -42.043003 39.273 -42.077003 39.709 C -42.014004 39.091 -41.950005 38.43 -41.906002 37.767998 C -41.838 37.699997 -41.777 37.656998 -41.721 37.624996 C -41.716 37.627995 -41.714 37.632996 -41.709 37.636997 C -41.348 37.801 -41.48 38.128 -41.447 38.422997 C -41.380997 38.914997 -41.052998 39.078995 -40.66 38.980995 C -39.873 38.751995 -38.725 38.882996 -38.856 37.504993 C -38.886997 37.28599 -38.679 36.840992 -38.348 37.27899 C -38.33 37.312 -38.313 37.344 -38.298 37.375 Z M 48.405 6.157 C 48.208 6.354 48.34 6.55 48.469997 6.682 C 49.486996 7.698 48.436996 8.354 48.043 9.075 C 47.683 9.698999 47.125 9.109 46.667 9.075 C 46.626 9.664 46.963 10.014 47.295 10.351 C 47.240997 10.295 47.188 10.24 47.125 10.19 C 46.675 9.8359995 46.63 9.075 45.947998 8.9539995 C 45.946 8.962 45.947998 8.967999 45.945 8.976 C 45.916 9.009 45.897 9.04 45.882 9.072 C 45.874 9.110999 45.865 9.15 45.856 9.188999 C 45.858997 9.375999 46.068 9.527999 46.044 9.697999 C 45.979 10.221999 46.405 11.173999 45.157997 10.681999 C 44.961998 10.615999 44.666996 10.812999 44.405 10.910999 C 44.385998 10.912 44.371 10.907999 44.353 10.908999 C 43.920002 11.476999 44.053 12.615999 44.602 12.551999 C 45.258 12.4869995 45.323 12.911999 45.52 13.207999 C 45.815 13.665999 46.274002 13.928999 46.569 14.289999 C 47.193 15.043999 48.34 14.813999 48.865 15.732999 C 49.259003 16.388998 49.980003 16.355999 50.669003 16.092999 C 51.980003 15.568998 53.128002 13.797998 52.669003 12.223999 C 51.979 9.764 50.897 7.436 48.405 6.157 Z M 47.376 10.435 C 47.55 10.613001 47.716 10.793 47.813 11.009001 C 47.668 10.813 47.533 10.615 47.376 10.435 Z M 47.913 11.141 C 47.879997 11.099 47.849 11.056 47.816998 11.013 C 48.029 11.2039995 48.156998 11.459 48.266 11.662 C 48.167 11.504 48.046 11.314 47.913 11.141 Z M 77.49 -18.076 C 76.474 -20.142 75.49 -22.274 73.228 -23.356 C 73.13 -23.389002 73.063995 -23.553001 72.965996 -23.651001 C 72.27699 -23.487001 72.701996 -23.225 72.899994 -22.995 C 73.71999 -22.142 73.063995 -21.323 72.66999 -20.667 C 72.24399 -19.978 71.68799 -20.536 71.22899 -20.831 C 71.19599 -20.864 71.06499 -20.733 70.998985 -20.699999 C 71.17299 -20.349998 71.39499 -20.044998 71.637985 -19.758 C 71.60098 -19.798 71.56199 -19.84 71.52499 -19.88 C 71.22999 -20.175 71.06599 -20.733 70.47398 -20.602 C 70.375984 -20.175 70.637985 -19.848 70.80199 -19.487 C 70.93499 -19.225 70.998985 -18.765999 70.77099 -18.831 C 69.91699 -19.06 69.26099 -18.175 68.442986 -18.503 C 68.60499 -18.044 68.76898 -17.486 69.22999 -17.29 C 70.24599 -16.962002 70.77099 -16.11 71.458984 -15.454 C 71.78699 -15.159 72.11498 -14.831 72.57398 -14.798 C 73.13298 -14.766001 73.49198 -14.536 73.886986 -14.175 C 74.31299 -13.815001 74.83798 -13.4210005 75.49199 -13.651 C 77.162 -14.207 78.277 -16.469 77.49 -18.076 Z M 72.508 -18.827 C 72.783005 -18.545 73.055 -18.26 73.295006 -17.945 C 73.043 -18.24 72.777 -18.535 72.508 -18.827 Z M 24.106 24.816 C 25.123001 26.652 25.352001 28.652 25.023 30.619999 C 24.794 32.03 23.941 33.309 22.269001 33.636997 C 21.482 33.801 20.859001 33.538 20.400002 32.948997 C 19.973001 32.358997 19.777002 31.636997 19.055002 31.144997 C 18.431002 30.750998 18.137003 29.931997 17.973001 29.144997 C 17.941002 28.947996 18.006002 28.685997 17.809002 28.586996 C 16.760002 28.128996 16.956001 27.144997 16.891003 26.258995 C 17.219002 26.618996 17.481003 27.110994 18.104002 26.652994 C 18.169003 26.586994 18.399002 26.619993 18.465002 26.684994 C 19.514002 27.537994 19.514002 26.783995 19.514002 26.029993 C 19.514002 25.767994 19.416002 25.471992 19.710001 25.307993 C 20.366001 25.963993 20.432001 26.816994 20.727001 27.635994 C 20.956001 28.094994 20.956001 28.619993 21.153002 28.947994 C 20.989002 28.356995 20.792002 27.635994 20.563002 26.914993 C 20.629002 26.520994 20.005001 26.193993 20.464 25.733994 C 21.317001 26.684994 21.972 25.963993 22.661001 25.471994 C 23.153002 25.111994 23.153002 24.652994 22.891 24.127995 C 22.792 23.963995 22.759 23.700994 23.022001 23.634995 C 23.121002 23.602995 23.284 23.766994 23.416 23.831995 C 23.646 24.16 23.909 24.488 24.106 24.816 Z M 70.408 -7.648 C 70.899994 -6.533 70.834 -4.9919996 69.851 -3.8439999 C 69.128 -2.991 67.751 -2.86 66.867 -3.5159998 C 66.472 -3.8109999 66.079994 -4.139 65.520996 -4.106 C 65.292 -4.106 64.99799 -4.303 64.83299 -4.5 C 63.81499 -5.7130003 62.143993 -6.271 61.422993 -7.8120003 C 61.84899 -7.6150002 62.274994 -7.385 62.602993 -7.9430003 C 62.700993 -8.14 62.864994 -8.173 63.094994 -8.042001 C 63.289993 -7.943001 63.520992 -7.6480007 63.782993 -7.9770007 C 63.979992 -8.239 63.946995 -8.534 63.848995 -8.830001 C 63.750996 -9.158001 63.422997 -9.420001 63.453995 -9.813001 C 63.848995 -9.977 64.01299 -9.649001 64.20999 -9.453001 C 64.96399 -8.567001 65.84899 -7.781001 66.47199 -6.895001 C 66.078995 -7.781001 65.06199 -8.305001 64.66899 -9.289001 C 65.06199 -9.781001 65.65099 -9.945002 66.04599 -10.568002 C 66.53799 -11.355001 66.37399 -11.7160015 65.88199 -12.240002 C 65.651985 -12.502002 65.192986 -12.830002 66.012985 -12.863002 C 66.14398 -12.437002 66.60298 -12.437002 66.89799 -12.240002 C 68.637 -11.125 69.621 -9.387 70.408 -7.648 Z M 37.813 18.651 C 38.141 20.126999 38.632 21.568998 38.534 23.109999 C 38.468 24.454998 37.124 26.029 35.813 26.388998 C 34.763 26.683998 34.14 26.322998 33.484 25.273998 C 33.32 25.010998 33.549 24.027998 32.631 24.519999 C 32.631 24.519999 32.5 24.290998 32.434002 24.190998 C 31.778002 23.370998 31.187002 22.518997 31.089003 21.436998 C 31.056002 21.009998 30.466003 21.600998 30.368002 21.009998 C 30.270002 20.453 30.237001 19.894999 30.237001 19.337997 C 30.434002 19.599997 30.696001 19.730997 31.024002 19.599997 C 31.155003 19.566996 31.286001 19.500996 31.418001 19.467997 C 31.844002 19.435997 32.303 20.451996 32.697002 19.533997 C 32.893 19.107996 32.729004 18.516996 32.729004 18.025997 C 33.221004 17.960997 33.253002 18.353996 33.385002 18.649998 C 33.909 19.731998 34.302002 20.845997 34.565002 22.026999 C 34.336002 20.977 34.008003 19.927998 33.549004 18.943998 C 33.484005 18.714998 33.385002 18.485998 33.516003 18.222998 C 33.845 18.189997 33.877003 18.419998 33.975002 18.649998 C 34.106003 18.943998 34.336002 19.042997 34.631 19.009998 C 35.32 18.943998 36.173 17.828999 36.041 17.139997 C 36.009 16.844997 35.943 16.549997 36.173 16.254997 C 36.862 16.979 37.616 17.667 37.813 18.651 Z M 59.619 -2.926 C 59.324 -3.0900002 58.898 -3.1550002 58.799 -3.6150002 C 58.668 -3.4840002 57.783 -3.8770003 58.473 -3.1880002 C 59.454998 -2.2050002 58.637 -1.3520002 58.276 -0.5320003 C 58.126 -0.17200029 57.592003 -0.3580003 57.176003 -0.3680003 C 57.018 -0.09100029 57.233 0.09899971 57.389004 0.28799972 C 57.645004 0.6279997 57.932003 0.9389998 58.225002 1.2609997 C 57.887 0.88299966 57.549004 0.52699965 57.227 0.1569997 C 57.010002 -0.12100029 56.789 -0.48000032 56.329002 -0.4130003 C 56.333004 -0.40900028 56.337 -0.4050003 56.341003 -0.4010003 C 56.177002 -0.17200029 56.243004 0.024999708 56.341003 0.25499973 C 56.538002 0.8779998 56.800003 1.5669998 55.652004 1.1079997 C 55.554005 1.0749997 55.359005 1.1409997 55.293003 1.2069997 C 54.846004 1.9109997 54.334003 1.6149997 53.852005 1.3259996 C 54.420006 2.1409996 54.762005 3.2419996 55.981007 3.3699994 C 56.737007 5.3049994 59.163006 4.7799993 60.278008 6.2559996 C 60.378006 6.3869996 60.80301 6.3549995 61.065006 6.2889996 C 62.213005 6.0259995 63.196007 4.4859996 63.196007 3.3049996 C 63.196007 2.0919995 62.671005 1.0749996 62.278008 -0.0070004463 C 61.391 -0.959 60.865 -2.271 59.619 -2.926 Z M 58.295 1.337 C 58.657997 1.735 59.024998 2.1560001 59.357998 2.681 C 59.014 2.175 58.654 1.742 58.295 1.337 Z M 9.775 29.046 C 9.415 29.243 9.48 29.604 9.546 29.866 C 9.841 31.111 8.627999 31.21 8.037999 31.637 C 7.479999 32.031 7.381999 31.078999 6.9559994 30.883 C 6.8239994 30.977 6.7749996 31.094 6.7749996 31.226 C 6.687 31.013 6.5459995 30.824 6.2999997 30.685999 C 5.8079996 30.817 6.1029997 31.21 6.1029997 31.439999 C 6.1029997 31.835 5.9729996 32.095997 5.6769996 32.293 C 5.2179995 32.621 5.2509995 32.097 5.0539994 31.932999 C 4.9229994 31.835 4.7259994 31.769 4.5959992 31.800999 C 3.9389992 31.964998 3.6449993 31.539 3.3489993 31.112999 C 3.5459993 31.769 3.3819993 32.426 3.4479992 33.080997 C 3.5129993 33.704 4.333999 33.507996 4.201999 34.099 C 4.037999 34.753 4.431999 35.279 4.6939993 35.802998 C 5.2179995 36.819996 6.103999 37.508 6.5629992 38.590996 C 6.8579993 39.311996 7.808999 39.442997 8.595999 39.081997 C 9.578999 38.622997 10.300999 38.032997 10.890999 36.949997 C 11.840999 35.146996 11.218999 33.440998 11.119999 31.735996 C 11.087 30.816 10.235 29.932 9.775 29.046 Z M 6.956 32.161 C 6.9449997 32.072998 6.935 31.983 6.9249997 31.892 C 6.962 32.097 6.9969997 32.302002 7.0319996 32.507 C 7.001 32.392 6.973 32.276 6.956 32.161 Z M 7.218 33.439 C 7.218 33.42 7.213 33.402 7.212 33.382 C 7.2139997 33.391 7.2149997 33.399 7.218 33.406 C 7.328 33.613 7.368 33.842 7.403 34.074997 C 7.354 33.858 7.298 33.644 7.218 33.439 Z M 7.578 35.014 C 7.557 34.898 7.5360003 34.779 7.5160003 34.66 C 7.5530005 34.782 7.602 34.901 7.676 35.014 C 7.676 35.014 7.644 35.146 7.578 35.014 Z"/>
<path id="b4" d="M 7.349 33.506 C 7.874 34.03 7.414 34.818 7.907 35.342 C 6.792 35.079 7.349 34.128998 7.054 33.538 C 6.792 32.586998 6.529 31.636997 6.2349997 30.684998 C 5.4799995 27.995998 4.693 25.339998 3.6759996 22.748997 C 3.2829995 21.731997 2.8239996 20.715996 2.3639996 19.698997 C 2.266 19.503 2.2 19.34 2.43 19.078 C 3.348 19.733 3.413 20.880999 3.8400002 21.766998 C 5.2510004 24.683998 5.873 27.865997 6.9560003 30.883 C 6.923 31.768 7.513 32.587 7.349 33.506 Z M -26.296 24.98 C -26.361 24.98 -26.394 24.98 -26.46 24.98 C -26.46 25.57 -26.198 26.16 -26.328999 26.782999 C -26.262999 26.946999 -26.164999 27.078 -26.131998 27.241999 C -25.803999 30.159998 -25.409998 33.112 -25.442999 36.063 C -25.442999 36.522 -25.508999 36.947998 -25.311998 37.375 C -24.984 39.015 -25.345 40.72 -25.082998 42.359 C -24.821 40.753002 -24.689 39.178 -24.656998 37.572002 C -24.951998 33.538002 -24.984997 29.505001 -25.902998 25.537003 C -26.034 25.373 -26.165 25.177 -26.296 24.98 Z M -8.916 30.686 C -9.375 28.227001 -10.097 25.866001 -11.015 23.57 C -11.146 23.275 -11.212 22.914 -11.6380005 22.881 C -11.146001 25.144001 -10.162001 27.275002 -9.736 29.57 C -9.408 31.308 -8.85 33.013 -8.719 34.785 C -8.62 34.85 -8.455999 34.883 -8.424 34.85 C -8.455999 36.128 -7.8659997 37.309 -7.9319997 38.587997 C -7.9649997 39.013996 -7.9969997 39.44 -7.5059996 39.734997 C -7.3749995 38.128 -7.7029996 36.619995 -7.9319997 35.077995 C -8.26 33.604 -8.653 32.161 -8.916 30.686 Z M -42.364 25.373 C -42.789997 25.668 -42.658997 26.126999 -42.593 26.487999 C -42.265 27.57 -42.298 28.717999 -42.232 29.8 C -42.100998 32.323997 -42.198997 34.883 -42.198997 37.407997 C -42.034996 39.144997 -42.756996 40.85 -42.297997 42.588997 C -42.003 40.949997 -41.674995 39.309998 -41.707996 37.637997 C -41.806995 33.735996 -41.609997 29.866997 -42.002995 25.996998 C -42.134 25.799 -42.232 25.57 -42.364 25.373 Z M -57.383 23.406 C -57.612 27.537 -58.071 31.572 -58.695 35.572998 C -58.565998 36.346996 -58.975998 37.028 -58.956 37.768997 C -58.956 37.768997 -58.956 37.768997 -58.957 37.768997 C -59.22 38.687996 -59.81 39.572998 -59.121002 40.524 C -58.959003 39.616997 -58.766003 38.743 -58.603 37.836998 C -58.600002 37.836 -58.599 37.836 -58.596 37.834 C -58.235 37.539 -58.694 37.015 -58.268 36.752 C -58.169003 36.391 -58.465 35.965 -58.039 35.702 C -58.006 34.357998 -57.744003 33.047 -57.514 31.734 C -57.12 29.275 -56.924 26.782999 -57.055 24.291 C -57.055 24.029 -56.924 23.668 -57.383 23.406 Z M 73.621 -17.781 C 72.736 -18.765 71.949005 -19.814 70.965004 -20.667 C 68.703 -22.864 66.604004 -25.225 64.08 -27.126999 C 63.291 -27.717 62.637 -28.471998 61.588 -28.799 C 61.619 -28.241 61.947002 -28.045 62.242 -27.848 C 64.67 -26.142 66.834 -24.142 68.931 -22.043 C 69.423 -21.519 69.949 -21.06 70.472 -20.567 C 71.523 -19.649 72.408 -18.567 73.294 -17.484 C 73.423 -17.32 73.619995 -17.025 73.817 -17.156 C 74.146 -17.388 73.785 -17.617 73.621 -17.781 Z M 64.67 -9.288 C 61.488 -12.403 58.537 -15.781 54.57 -17.945 C 56.045 -16.699 57.521 -15.486 58.931 -14.141 C 60.439 -12.698 62.144 -11.452 63.489998 -9.846 C 64.931 -8.8949995 65.718994 -7.2549996 67.161995 -6.271 C 66.441 -7.354 65.652 -8.402 64.67 -9.288 Z M 51.455 -5.713 C 51.191 -6.008 50.864002 -6.271 50.536003 -6.501 C 49.553 -7.255 48.601 -8.075 47.619003 -8.8619995 C 47.487003 -8.8619995 47.389004 -8.8289995 47.258003 -8.8289995 C 47.193005 -8.763 47.094 -8.698 47.029003 -8.632 C 47.018 -8.622 47.008003 -8.61 46.996002 -8.599 C 46.963 -8.534 46.996002 -8.468 46.996002 -8.435 C 48.701004 -7.484 50.111004 -6.1060004 51.587 -4.8600006 C 53.226 -3.4500008 54.898003 -2.0070007 56.341003 -0.4010005 C 57.489002 0.81199956 58.605003 1.9929996 59.751003 3.2059996 C 59.817005 3.1399996 59.882004 3.0739996 59.948 3.0089996 C 58.964 1.8939996 58.012 0.77899957 57.030003 -0.33600044 C 55.324 -2.271 53.225 -3.845 51.455 -5.713 Z M 48.035 10.967 C 48.026 10.948 48.022 10.931 48.012 10.911 C 47.553 10.288 47.094 9.698 46.634003 9.075001 C 44.044003 6.1570005 41.65 3.0740008 38.633003 0.58200073 C 38.273003 0.28700075 38.010002 -0.23799926 37.387005 0.12300074 C 37.419006 0.18800074 37.419006 0.25400072 37.419006 0.32000074 C 38.632008 0.9100007 39.551006 1.8940008 40.403008 2.8450007 C 42.24001 4.8780007 44.272007 6.7800007 45.945007 8.977001 C 46.56801 9.764001 47.224007 10.551002 47.814007 11.305001 C 47.831005 11.307001 47.836006 11.302001 47.852005 11.302001 C 47.849007 11.302001 47.848003 11.304001 47.847004 11.305001 C 48.143005 11.961001 48.569004 12.486001 49.356003 12.977001 C 48.961002 12.092001 48.47 11.535001 48.043003 10.911001 C 48.04 10.929 48.038 10.949 48.035 10.967 Z M 29.156 8.944 C 28.762001 8.321 28.5 7.5670004 27.746 7.1730003 C 27.614 7.5660005 27.844 7.8290005 28.008 8.059 C 28.925 9.469 29.647 11.01 30.369 12.518 C 31.222 14.354 32.303 16.06 32.795998 18.06 C 33.649 19.241 34.009 20.618 34.401997 21.994999 C 34.532997 22.453999 34.500996 22.487999 35.057995 22.749998 C 34.599995 21.207998 34.204994 19.666998 33.515995 18.224998 C 32.205 15.077 30.926 11.863 29.156 8.944 Z M 20.793 26.915 C 20.695 26.554 20.595999 26.160002 20.465 25.768002 C 20.4 25.702002 20.301 25.636002 20.268 25.538002 C 19.153 21.996002 17.579 18.619001 15.972 15.274002 C 15.776 14.848002 15.5460005 14.388002 14.759 14.191002 C 16.758999 17.864002 18.235 21.603003 19.711 25.341002 C 20.006 26.160002 20.301 26.981 20.596 27.800001 C 20.858 28.554 20.728 29.473001 21.646 29.997002 C 21.387 28.996002 21.097 27.995 20.807 26.994001 C 20.802 26.967 20.796 26.94 20.793 26.915 Z"/>
<path id="text" d="M 14.199 19.823 V 11.79 H 12.199 V 10.708 H 16.987 V 11.79 H 14.9869995 V 19.824001 H 14.199 Z M 17.413 15.396 C 17.413 13.888 17.675 12.707 18.233 11.854 C 18.758 11.001 19.479 10.575 20.332 10.575 C 20.889 10.575 21.381 10.771999 21.84 11.165 C 22.299 11.559 22.627 12.116 22.857 12.837 C 23.086 13.558 23.218 14.378 23.218 15.296 C 23.218 16.213999 23.087 17.034 22.857 17.788 C 22.595001 18.51 22.267 19.067 21.808 19.460001 C 21.349 19.821001 20.857 20.018002 20.332 20.018002 C 19.774 20.018002 19.249 19.821001 18.79 19.395002 C 18.331001 18.969002 18.003 18.412003 17.774 17.690002 C 17.544 16.938 17.413 16.184 17.413 15.396 Z M 18.232 15.396 C 18.232 16.478 18.429 17.362999 18.822 17.986 C 19.216 18.61 19.707 18.937 20.298 18.937 S 21.380001 18.609001 21.774 17.986 C 22.168 17.363 22.364 16.445 22.364 15.265 C 22.364 14.511001 22.266 13.8880005 22.102001 13.33 S 21.676 12.346 21.380001 12.051 C 21.052002 11.756 20.692001 11.592 20.298 11.592 C 19.74 11.592 19.249 11.887 18.822 12.478 C 18.462 13.036 18.232 14.019 18.232 15.396 Z M 24.266 19.823 V 10.707 H 25.053001 V 14.445 H 28.201002 V 10.707 H 28.988003 V 19.823 H 28.201002 V 15.528 H 25.053001 V 19.823 H 24.266 Z M 30.103 15.396 C 30.103 13.888 30.366001 12.707 30.923 11.854 C 31.448 11.001 32.169 10.575 33.022 10.575 C 33.579 10.575 34.071 10.771999 34.53 11.165 S 35.316998 12.116 35.546997 12.837 C 35.775997 13.558 35.907997 14.378 35.907997 15.296 C 35.907997 16.213999 35.776997 17.034 35.546997 17.788 C 35.283997 18.51 34.956997 19.067 34.497997 19.460001 C 34.038998 19.821001 33.546997 20.018002 33.021996 20.018002 C 32.463997 20.018002 31.938995 19.821001 31.479996 19.395002 C 31.020996 18.969002 30.692995 18.412003 30.462996 17.690002 C 30.202 16.938 30.103 16.184 30.103 15.396 Z M 30.923 15.396 C 30.923 16.478 31.12 17.362999 31.513 17.986 C 31.907 18.61 32.398 18.937 32.989002 18.937 S 34.072002 18.609001 34.465004 17.986 C 34.859005 17.363 35.055004 16.445 35.055004 15.265 C 35.055004 14.511001 34.957005 13.8880005 34.793003 13.33 S 34.367004 12.346 34.072002 12.051 C 33.744003 11.756 33.383003 11.592 32.989002 11.592 C 32.431004 11.592 31.940002 11.887 31.513002 12.478 C 31.12 13.036 30.923 14.019 30.923 15.396 Z M 36.891 19.823 V 10.707 H 37.711 L 40.892 17.855 V 10.707 H 41.646 V 19.823 H 40.826 L 37.645 12.675 V 19.823 H 36.891 Z M 42.761 15.396 C 42.761 13.888 43.023003 12.707 43.58 11.854 C 44.105003 11.001 44.826 10.575 45.679 10.575 C 46.237 10.575 46.728 10.771999 47.188 11.165 C 47.647 11.559 47.975 12.116 48.204998 12.837 C 48.434 13.558 48.565 14.378 48.565 15.296 C 48.565 16.213999 48.434 17.034 48.204998 17.788 C 47.941998 18.51 47.614998 19.067 47.155 19.460001 C 46.696 19.821001 46.204 20.018002 45.678997 20.018002 C 45.121998 20.018002 44.596996 19.821001 44.137997 19.395002 C 43.678997 18.969002 43.350998 18.412003 43.121 17.690002 C 42.892 16.938 42.761 16.184 42.761 15.396 Z M 43.581 15.396 C 43.581 16.478 43.778 17.362999 44.171 17.986 C 44.565002 18.61 45.056 18.937 45.647003 18.937 C 46.237003 18.937 46.729004 18.609001 47.123005 17.986 C 47.516006 17.363 47.713005 16.445 47.713005 15.265 C 47.713005 14.511001 47.615005 13.8880005 47.451004 13.33 S 47.025005 12.346 46.729004 12.051 C 46.401005 11.756 46.041004 11.592 45.647003 11.592 C 45.089005 11.592 44.597004 11.887 44.171 12.478 C 43.81 13.036 43.581 14.019 43.581 15.396 Z M 51.681 15.396 C 51.681 13.888 51.944 12.707 52.5 11.854 C 53.025 11.001 53.746 10.575 54.599 10.575 C 55.156998 10.575 55.649 10.771999 56.107998 11.165 S 56.894997 12.116 57.124996 12.837 C 57.353996 13.558 57.484997 14.378 57.484997 15.296 C 57.484997 16.213999 57.353996 17.034 57.124996 17.788 C 56.861996 18.51 56.533997 19.067 56.074997 19.460001 C 55.615997 19.821001 55.123997 20.018002 54.598995 20.018002 C 54.040997 20.018002 53.516994 19.821001 53.057995 19.395002 C 52.598995 18.969002 52.270996 18.412003 52.040997 17.690002 C 51.812 16.938 51.681 16.184 51.681 15.396 Z M 52.533 15.396 C 52.533 16.478 52.729 17.362999 53.123 17.986 C 53.517002 18.61 54.009003 18.937 54.599003 18.937 C 55.190002 18.937 55.682003 18.609001 56.075005 17.986 C 56.469006 17.363 56.666004 16.445 56.666004 15.265 C 56.666004 14.511001 56.567005 13.8880005 56.403004 13.33 S 55.977005 12.346 55.682003 12.051 C 55.354004 11.756 54.993004 11.592 54.599003 11.592 C 54.041004 11.592 53.549004 11.887 53.123 12.478 C 52.729 13.036 52.533 14.019 52.533 15.396 Z M 58.37 11.921 V 10.608999 H 59.156 V 11.625999 C 59.156 12.183999 59.123997 12.577 59.024998 12.839 C 58.893997 13.167 58.73 13.429 58.468 13.592999 L 58.271 13.165999 C 58.435 13.068 58.534 12.936999 58.599 12.74 S 58.697 12.281 58.73 11.921 H 58.37 Z M 60.141 15.396 C 60.141 13.888 60.404 12.707 60.961 11.854 C 61.484997 11.001 62.206997 10.575 63.059 10.575 C 63.617996 10.575 64.11 10.771999 64.569 11.165 S 65.355 12.116 65.585 12.837 C 65.813995 13.558 65.946 14.378 65.946 15.296 C 65.946 16.213999 65.813995 17.034 65.585 17.788 C 65.323 18.51 64.995 19.067 64.535995 19.460001 C 64.076996 19.821001 63.584995 20.018002 63.058994 20.018002 C 62.501995 20.018002 61.976994 19.821001 61.517994 19.395002 C 61.058994 18.969002 60.730995 18.412003 60.501995 17.690002 C 60.271 16.938 60.141 16.184 60.141 15.396 Z M 60.961 15.396 C 60.961 16.478 61.156998 17.362999 61.551 17.986 C 61.945 18.61 62.437 18.937 63.027 18.937 C 63.618 18.937 64.11 18.609001 64.503 17.986 C 64.896996 17.363 65.092995 16.445 65.092995 15.265 C 65.092995 14.511001 64.994995 13.8880005 64.83099 13.33 S 64.40499 12.346 64.10999 12.051 C 63.781994 11.756 63.420994 11.592 63.026993 11.592 C 62.468994 11.592 61.976994 11.887 61.55099 12.478 C 61.189 13.036 60.961 14.019 60.961 15.396 Z M 66.961 19.823 V 10.707 H 69.061 C 69.52 10.707 69.88 10.74 70.143 10.837999 C 70.503 10.968999 70.798996 11.165999 71.028 11.4939995 C 71.356 11.888 71.586 12.412 71.75 13.035999 S 71.979 14.379999 71.979 15.199999 C 71.979 15.887999 71.913994 16.512 71.814995 17.036 C 71.716995 17.560999 71.586 18.019999 71.38899 18.348 C 71.19199 18.675999 71.02799 18.972 70.83099 19.168 C 70.634995 19.365 70.40399 19.529 70.10899 19.626999 C 69.813995 19.724998 69.519 19.790998 69.12599 19.790998 H 66.96099 V 19.823 Z M 67.748 18.741 H 69.027 C 69.421 18.741 69.749 18.675999 69.978 18.577 C 70.20699 18.479 70.370995 18.315 70.534996 18.118 C 70.731995 17.823 70.863 17.462 70.993996 16.97 C 71.093994 16.477999 71.159 15.888 71.159 15.198999 C 71.159 14.247999 71.06 13.526999 70.83099 13.001999 C 70.634995 12.477999 70.370995 12.148999 70.076 11.985999 C 69.847 11.855 69.519 11.789 69.02699 11.789 H 67.74799 V 18.741 Z M 73.094 19.823 V 10.707 H 73.881004 V 14.445 H 77.02801 V 10.707 H 77.81601 V 19.823 H 77.02801 V 15.528 H 73.881004 V 19.823 H 73.094 Z M 78.504 19.823 L 80.832 10.707 H 81.686 L 84.17799 19.823 H 83.258995 L 82.536995 17.069 H 80.01299 L 79.357994 19.823 H 78.504 Z M 80.242 16.085 H 82.308 L 81.685 13.559999 C 81.488 12.806 81.356995 12.15 81.257996 11.657999 C 81.19299 12.247999 81.062 12.838999 80.92999 13.395999 L 80.242 16.085 Z M 84.768 19.823 V 10.707 H 85.980995 L 87.423996 17.166 C 87.55499 17.757 87.65299 18.216 87.718994 18.511 C 87.784 18.183 87.882996 17.691 88.047 17.035 L 89.49 10.705999 H 90.572 V 19.821999 H 89.784 V 12.181999 L 88.01299 19.821999 H 87.29199 L 85.55399 12.050999 V 19.821999 H 84.768 Z M 12.625 30.94 V 21.824001 H 13.445 L 16.626 28.973001 V 21.824001 H 17.38 V 30.940002 H 16.56 L 13.379 23.792004 V 30.940002 H 12.625 Z M 18.068 30.94 L 20.397001 21.824001 H 21.250002 L 23.742002 30.940002 H 22.824003 L 22.103003 28.185001 H 19.578003 L 18.922003 30.940002 H 18.068 Z M 19.806 27.168 H 21.872 L 21.249 24.644 C 21.052 23.89 20.921001 23.234 20.822 22.741999 C 20.757 23.332998 20.626001 23.922998 20.494001 24.48 L 19.806 27.168 Z M 25.283 30.94 V 22.873001 H 23.283 V 21.791 H 28.070002 V 22.873001 H 26.070002 V 30.907001 H 25.283 V 30.94 Z M 29.054 30.94 V 21.824001 H 29.841002 V 30.940002 H 29.054 Z M 31.021 26.48 C 31.021 24.970999 31.282999 23.791 31.841 22.938 C 32.364998 22.085 33.086998 21.659 33.94 21.659 C 34.497997 21.659 34.989 21.856 35.447998 22.249 C 35.906998 22.643 36.234997 23.2 36.464996 23.921001 C 36.693996 24.643002 36.825996 25.463001 36.825996 26.380001 C 36.825996 27.298 36.694996 28.118002 36.464996 28.872002 C 36.202995 29.593002 35.874996 30.151001 35.415997 30.544003 C 34.956997 30.905003 34.464996 31.102003 33.939995 31.102003 C 33.381996 31.102003 32.857994 30.905003 32.397995 30.479004 C 31.938995 30.053003 31.610994 29.495005 31.381994 28.774004 C 31.12 28.054 31.021 27.3 31.021 26.48 Z M 31.841 26.513 C 31.841 27.596 32.038 28.481 32.431 29.104 C 32.825 29.727 33.317 30.055 33.907 30.055 C 34.498 30.055 34.99 29.727001 35.383003 29.104 S 35.973003 27.563 35.973003 26.382 C 35.973003 25.628 35.874004 25.005 35.711002 24.447 C 35.547 23.889 35.284004 23.463001 34.989002 23.168001 C 34.661003 22.873001 34.301003 22.709002 33.906002 22.709002 C 33.349003 22.709002 32.857002 23.004002 32.43 23.595001 C 32.038 24.152 31.841 25.136 31.841 26.513 Z M 37.809 30.94 V 21.824001 H 38.628998 L 41.809998 28.973001 V 21.824001 H 42.564 V 30.940002 H 41.745 L 38.564 23.792004 V 30.940002 H 37.809 Z"/>
</defs>
<g>
<g>
<rect x="0" y="0" width="480" height="180" class="yellow"/>
<rect x="0" y="180" width="480" height="180" class="purple"/>
</g>
<use xlink:href="#b1" transform="translate(240 180) scale(2.928 2.928) rotate(0)" class="red"/>
<use xlink:href="#b2" transform="translate(240 180) scale(2.928 2.928) rotate(0)" class="brown"/>
<use xlink:href="#b3" transform="translate(240 180) scale(2.928 2.928) rotate(0)" class="white"/>
<use xlink:href="#b4" transform="translate(240 180) scale(2.928 2.928) rotate(0)" class="black"/>
<use xlink:href="#text" transform="translate(0 0) scale(3.6 3.6) rotate(0)" class="black"/>
</g>
</svg>
