<?xml version="1.0"?>
<svg xmlns="http://www.w3.org/2000/svg" xmlns:xlink="http://www.w3.org/1999/xlink" version="1.1" width="480" height="360" viewBox="0 0 480 360">
<!-- Generated by Kreative Vexillo v1.0 -->
<style>
.blue{fill:rgb(0,159,227);}
.gold{fill:rgb(252,191,0);}
.magenta{fill:rgb(229,0,81);}
.purple{fill:rgb(52,12,70);}
.white{fill:rgb(255,255,255);}
</style>
<defs>
<path id="heart" d="M 89.62 94.72 H 89.62 C 65.73 118.61 65.73 157.36 89.62 181.25 L 93.44 185.07 H 93.44 S 89.37 189.14001 89.37 189.14001 C 65.48 213.03001 65.48 251.78001 89.37 275.67 H 89.37 C 113.26 299.56 152.01001 299.56 175.9 275.67 L 179.97 271.6 L 266.5 185.07 L 267.29 184.28001 L 180.20001 98.76002 L 179.97002 98.530014 L 176.15001 94.710014 C 152.26001 70.820015 113.51001 70.820015 89.62001 94.710014 Z"/>
</defs>
<g>
<g>
<rect x="0" y="0" width="480" height="120" class="blue"/>
<rect x="0" y="120" width="480" height="120" class="magenta"/>
<rect x="0" y="240" width="480" height="120" class="purple"/>
</g>
<path d="M 0 0 L 120 0 L 240 120 L 0 360 Z" class="white"/>
<use xlink:href="#heart" transform="translate(0 0) scale(0.648 0.648) rotate(0)" class="gold"/>
</g>
</svg>
