<?xml version="1.0"?>
<svg xmlns="http://www.w3.org/2000/svg" xmlns:xlink="http://www.w3.org/1999/xlink" version="1.1" width="480" height="360" viewBox="0 0 480 360">
<!-- Generated by Kreative Vexillo v1.0 -->
<style>
.black{fill:rgb(0,0,0);}
.blue{fill:rgb(0,0,255);}
.green{fill:rgb(0,153,0);}
.orange{fill:rgb(255,153,0);}
.purple{fill:rgb(153,0,153);}
.red{fill:rgb(255,0,0);}
.white{fill:rgb(255,255,255);}
.yellow{fill:rgb(255,255,0);}
</style>
<defs>
<clipPath id="clip0">
<path d="M 0 0 L 240 180 L 0 360 Z"/>
</clipPath>
<clipPath id="clip1">
<path d="M 0 0 L 480 0 L 480 360 L 0 360 L 240 180 Z"/>
</clipPath>
<clipPath id="clip2">
<rect x="0" y="0" width="480" height="360"/>
</clipPath>
<clipPath id="clip3">
<path d="M 21.6 -28.8 L 21.6 -28.8 L 261.6 151.2 L 218.4 208.8 L -21.6 28.8 Z"/>
<path d="M 261.6 208.8 L 261.6 208.8 L 21.6 388.8 L -21.6 331.2 L 218.4 151.2 Z"/>
<path d="M 240 144 L 240 144 L 480 144 L 480 216 L 240 216 Z"/>
</clipPath>
</defs>
<g>
<g>
<rect x="0" y="0" width="480" height="60" class="red"/>
<rect x="0" y="60" width="480" height="60" class="orange"/>
<rect x="0" y="120" width="480" height="60" class="yellow"/>
<rect x="0" y="180" width="480" height="60" class="green"/>
<rect x="0" y="240" width="480" height="60" class="blue"/>
<rect x="0" y="300" width="480" height="60" class="purple"/>
</g>
<g clip-path="url(#clip0)">
<path d="M 36 -48 L 36 -48 L 276 132 L 204 228 L -36 48 Z" class="black"/>
<path d="M 276 228 L 276 228 L 36 408 L -36 312 L 204 132 Z" class="black"/>
</g>
<g clip-path="url(#clip1)">
<path d="M 36 -48 L 36 -48 L 276 132 L 204 228 L -36 48 Z" class="white"/>
<path d="M 276 228 L 276 228 L 36 408 L -36 312 L 204 132 Z" class="white"/>
<path d="M 240 120 L 240 120 L 480 120 L 480 240 L 240 240 Z" class="white"/>
</g>
<g clip-path="url(#clip2)">
<g clip-path="url(#clip3)">
<g>
<rect x="0" y="0" width="480" height="60" class="red"/>
<rect x="0" y="60" width="480" height="60" class="orange"/>
<rect x="0" y="120" width="480" height="60" class="yellow"/>
<rect x="0" y="180" width="480" height="60" class="green"/>
<rect x="0" y="240" width="480" height="60" class="blue"/>
<rect x="0" y="300" width="480" height="60" class="purple"/>
</g>
</g>
</g>
</g>
</svg>
