<?xml version="1.0"?>
<svg xmlns="http://www.w3.org/2000/svg" xmlns:xlink="http://www.w3.org/1999/xlink" version="1.1" width="480" height="360" viewBox="0 0 480 360">
<!-- Generated by Kreative Vexillo v1.0 -->
<style>
.blue{fill:rgb(0,102,255);}
.pink{fill:rgb(255,163,230);}
.purple{fill:rgb(231,103,255);}
.white{fill:rgb(255,255,255);}
</style>
<defs>
<path id="crown" d="M 0.5 0.1628 C 0.5 0.1628 0.40829998 0.1954 0.22479999 0.3933 C 0.22479999 0.3933 0.2223 0.3817 0.2223 0.3457 C 0.2223 0.2879 0.23429999 0.23269999 0.23429999 0.23269999 S 0.19169998 0.2539 0.09199999 0.35909998 L 0.0 0.0 L -0.0919 0.3592 C -0.19150001 0.2539 -0.23409998 0.2328 -0.23409998 0.2328 S -0.22209999 0.28800002 -0.22209999 0.3458 C -0.22209999 0.3817 -0.22469999 0.3934 -0.22469999 0.3934 C -0.4083 0.1954 -0.5 0.1628 -0.5 0.1628 S -0.32569999 0.36589998 -0.32569999 0.5632 C -0.32569999 0.6207 -0.33909997 0.6513 -0.33909997 0.6513 S -0.24329998 0.5957 2.9802322E-8 0.5957 C 0.24330004 0.5957 0.33910003 0.6513 0.33910003 0.6513 S 0.32570004 0.6207 0.32570004 0.5632 C 0.3257 0.3659 0.5 0.1628 0.5 0.1628 Z"/>
<path id="star" d="M 0.0 -1.0 L 0.2245 -0.309 L 0.9511 -0.309 L 0.3633 0.118 L 0.5878 0.809 L 0.0 0.382 L -0.5878 0.809 L -0.3633 0.118 L -0.9511 -0.309 L -0.2245 -0.309 Z"/>
</defs>
<g>
<g>
<rect x="0" y="0" width="160" height="360" class="purple"/>
<rect x="160" y="0" width="160" height="360" class="white"/>
<rect x="320" y="0" width="160" height="360" class="blue"/>
</g>
<use xlink:href="#crown" transform="translate(240 148) scale(108.16 108.16) rotate(0)" class="pink"/>
<use xlink:href="#star" transform="translate(181.44 159.04) scale(4 4) rotate(0)" class="pink"/>
<use xlink:href="#star" transform="translate(210.4 166.56) scale(4 4) rotate(0)" class="pink"/>
<use xlink:href="#star" transform="translate(240 142.24) scale(4 4) rotate(0)" class="pink"/>
<use xlink:href="#star" transform="translate(269.6 166.56) scale(4 4) rotate(0)" class="pink"/>
<use xlink:href="#star" transform="translate(298.56 159.04) scale(4 4) rotate(0)" class="pink"/>
<use xlink:href="#star" transform="translate(215.36 207.52) scale(2.4 2.4) rotate(0)" class="white"/>
<use xlink:href="#star" transform="translate(221.28 206.24) scale(2.4 2.4) rotate(0)" class="white"/>
<use xlink:href="#star" transform="translate(227.36 205.28) scale(2.4 2.4) rotate(0)" class="white"/>
<use xlink:href="#star" transform="translate(233.76 204.64) scale(2.4 2.4) rotate(0)" class="white"/>
<use xlink:href="#star" transform="translate(240 204.16) scale(2.4 2.4) rotate(0)" class="white"/>
<use xlink:href="#star" transform="translate(246.24 204.64) scale(2.4 2.4) rotate(0)" class="white"/>
<use xlink:href="#star" transform="translate(252.64 205.28) scale(2.4 2.4) rotate(0)" class="white"/>
<use xlink:href="#star" transform="translate(258.72 206.24) scale(2.4 2.4) rotate(0)" class="white"/>
<use xlink:href="#star" transform="translate(264.64 207.52) scale(2.4 2.4) rotate(0)" class="white"/>
</g>
</svg>
