<?xml version="1.0"?>
<svg xmlns="http://www.w3.org/2000/svg" xmlns:xlink="http://www.w3.org/1999/xlink" version="1.1" width="480" height="360" viewBox="0 0 480 360">
<!-- Generated by Kreative Vexillo v1.0 -->
<style>
.black{fill:rgb(0,0,0);}
.blue{fill:rgb(0,0,255);}
.green{fill:rgb(0,153,0);}
.orange{fill:rgb(255,153,0);}
.purple{fill:rgb(153,0,153);}
.red{fill:rgb(255,0,0);}
.white{fill:rgb(255,255,255);}
.yellow{fill:rgb(255,255,0);}
</style>
<defs>
<clipPath id="clip0">
<path d="M 0 360 L 240 0 L 480 360 L 320 360 L 240 240 L 160 360 Z"/>
</clipPath>
</defs>
<g>
<g>
<rect x="0" y="0" width="480" height="60" class="black"/>
<rect x="0" y="60" width="480" height="60" class="white"/>
<rect x="0" y="120" width="480" height="60" class="black"/>
<rect x="0" y="180" width="480" height="60" class="white"/>
<rect x="0" y="240" width="480" height="60" class="black"/>
<rect x="0" y="300" width="480" height="60" class="white"/>
</g>
<g clip-path="url(#clip0)">
<g>
<rect x="0" y="0" width="480" height="60" class="red"/>
<rect x="0" y="60" width="480" height="60" class="orange"/>
<rect x="0" y="120" width="480" height="60" class="yellow"/>
<rect x="0" y="180" width="480" height="60" class="green"/>
<rect x="0" y="240" width="480" height="60" class="blue"/>
<rect x="0" y="300" width="480" height="60" class="purple"/>
</g>
</g>
</g>
</svg>
