<?xml version="1.0"?>
<svg xmlns="http://www.w3.org/2000/svg" xmlns:xlink="http://www.w3.org/1999/xlink" version="1.1" width="480" height="360" viewBox="0 0 480 360">
<!-- Generated by Kreative Vexillo v1.0 -->
<style>
.blue{fill:rgb(0,101,189);}
.green{fill:rgb(0,154,73);}
.orange{fill:rgb(255,121,0);}
.white{fill:rgb(255,255,255);}
</style>
<defs>
<clipPath id="clip0">
<path d="M 0 360 L 480 0 L 480 360 Z"/>
</clipPath>
</defs>
<g>
<rect x="0" y="0" width="480" height="360" class="white"/>
<g>
<path d="M 0 0 L 480 0 L 0 360 Z" class="blue"/>
<path d="M 0 0 L 0 45 L 0 45 L 180 180 L 180 180 L 0 315 L 0 315 L 0 360 L 60 360 L 240 225 L 240 225 L 420 360 L 480 360 L 480 315 L 300 180 L 480 45 L 480 0 L 420 0 L 240 135 L 240 135 L 60 0 Z" class="white"/>
</g>
<g clip-path="url(#clip0)">
<g>
<rect x="0" y="0" width="160" height="360" class="green"/>
<rect x="160" y="0" width="160" height="360" class="white"/>
<rect x="320" y="0" width="160" height="360" class="orange"/>
</g>
</g>
</g>
</svg>
