<?xml version="1.0"?>
<svg xmlns="http://www.w3.org/2000/svg" xmlns:xlink="http://www.w3.org/1999/xlink" version="1.1" width="480" height="360" viewBox="0 0 480 360">
<!-- Generated by Kreative Vexillo v1.0 -->
<style>
.black{fill:rgb(0,0,0);}
.green{fill:rgb(15,104,56);}
.red{fill:rgb(238,31,35);}
.yellow{fill:rgb(250,233,48);}
</style>
<defs>
<path id="disc" d="M 0.5 0.0 A 0.5 0.5 0.0 0 0 -0.5 0.0 A 0.5 0.5 0.0 0 0 0.5 0.0 Z"/>
<path id="eyes" d="M -0.1791 -0.007 C -0.1791 -0.007 -0.1841 2.9999996E-4 -0.18560001 0.006 C -0.19290002 0.0335 -0.14890002 0.0482 -0.14260001 0.0151 L -0.12040001 0.0321 C -0.13830002 0.0797 -0.21700001 0.0646 -0.21170002 0.0086 C -0.21080002 -0.0013999995 -0.20660003 -0.008199999 -0.20130002 -0.0162 L -0.1791 -0.007 Z M 0.2135 0.0074 C 0.21249999 -9.999997E-4 0.2085 -0.0069999998 0.20439999 -0.014799999 L 0.17959999 -0.0069999993 C 0.21069999 0.0187 0.15349999 0.0577 0.1431 0.0152 C 0.13599999 0.0211 0.12879999 0.027 0.1222 0.0335 C 0.1417 0.0795 0.22 0.0643 0.2135 0.0074 Z"/>
<path id="pthr" d="M 0.3283 -0.2913 C 0.1109 -0.2913 -0.10839999 -0.2913 -0.3258 -0.2913 C -0.3258 -0.2913 -0.3181 -0.3022 -0.3147 -0.3056 C -0.2476 -0.37269998 -0.1482 -0.4326 -0.021200001 -0.4386 C 0.1398 -0.4463 0.2525 -0.3736 0.3283 -0.2913 Z M -0.3813 -0.2183 C -0.4162 -0.1497 -0.4428 -0.0788 -0.4387 0.0178 C -0.435 0.10519999 -0.4075 0.1778 -0.3696 0.2369 C -0.2976 0.34890002 -0.17 0.44300002 0.003399998 0.4404 C 0.1785 0.4377 0.303 0.3472 0.3738 0.2343 C 0.4098 0.177 0.4368 0.099700004 0.44030002 0.012600005 C 0.444 -0.079399996 0.4171 -0.15269999 0.38160002 -0.2183 C 0.31640002 -0.1983 0.26210004 -0.1674 0.21460003 -0.1296 L 0.22700003 -0.112100005 C 0.23450002 -0.1155 0.24810003 -0.118300006 0.25890002 -0.120400004 C 0.2867 -0.126 0.32070002 -0.13000001 0.35150003 -0.1295 C 0.35800004 -0.1082 0.36570004 -0.088 0.36850002 -0.063 C 0.2838 -0.0642 0.21150002 -0.0531 0.16240002 -0.0187 L 0.12070002 -0.0683 L 0.09720002 -0.05 L 0.13890003 9.0000033E-4 C 0.12220003 0.017 0.10370003 0.039 0.09190003 0.0596 C 0.08790003 0.0667 0.08360003 0.0752 0.08410003 0.0818 L 0.09560003 0.081599995 C 0.09560003 0.081599995 0.10510003 0.067999996 0.11280003 0.063599996 C 0.16060004 0.1152 0.25810003 0.06959999 0.23540002 -0.0055000037 C 0.27750003 -0.013400003 0.32170004 -0.019200005 0.37370002 -0.017200004 C 0.37600002 0.031599995 0.3702 0.082499996 0.35410002 0.117099985 C 0.28010002 0.11099999 0.21730001 0.119199984 0.18190002 0.16009998 C 0.14650002 0.20109999 0.13810003 0.27049997 0.14800003 0.3453 C 0.12070003 0.3554 0.09300003 0.3651 0.060600035 0.3701 L -6.999634E-4 0.3128 L -0.060699962 0.3701 C -0.072299965 0.36969998 -0.09279996 0.3637 -0.10639996 0.3597 C -0.12119996 0.3553 -0.13499996 0.35009998 -0.14679995 0.34399998 C -0.13689995 0.26959997 -0.14549994 0.20079999 -0.18069994 0.16009998 C -0.21649994 0.11869998 -0.28039995 0.11099999 -0.35549992 0.117099985 C -0.36649993 0.07849999 -0.3767999 0.032299988 -0.3724999 -0.017200008 C -0.32079992 -0.018500008 -0.2741999 -0.014700009 -0.23419991 -0.0042000078 C -0.2561999 0.07229999 -0.15659991 0.11379999 -0.110299915 0.06359999 C -0.104999915 0.06799999 -0.09829991 0.07759999 -0.09509991 0.081899986 L -0.08159991 0.081799984 C -0.091799915 0.051199984 -0.11609991 0.023299985 -0.13769992 -4.0001422E-4 L -0.09599991 -0.050000016 L -0.11949991 -0.068300016 L -0.1622 -0.0187 C -0.21020001 -0.0542 -0.2839 -0.063999996 -0.36830002 -0.063 C -0.3625 -0.086 -0.3587 -0.1108 -0.34870002 -0.1295 C -0.3282 -0.1295 -0.30810001 -0.1288 -0.28610003 -0.1256 C -0.26910004 -0.1231 -0.24290003 -0.1182 -0.22990003 -0.112799995 L -0.21310003 -0.1295 C -0.261 -0.1673 -0.315 -0.199 -0.3813 -0.2183 Z M -0.0774 0.2291 L -3.9999932E-4 0.3127 L 0.0766 0.2292 L -0.0774 0.2291 Z"/>
</defs>
<g>
<g>
<rect x="0" y="0" width="480" height="120" class="green"/>
<rect x="0" y="120" width="480" height="120" class="red"/>
<rect x="0" y="240" width="480" height="120" class="green"/>
</g>
<use xlink:href="#disc" transform="translate(240 180) scale(328.6957 328.6957) rotate(0)" class="red"/>
<use xlink:href="#pthr" transform="translate(240 180) scale(360 360) rotate(0)" class="black"/>
<use xlink:href="#eyes" transform="translate(240 180) scale(360 360) rotate(0)" class="yellow"/>
</g>
</svg>
