<?xml version="1.0"?>
<svg xmlns="http://www.w3.org/2000/svg" xmlns:xlink="http://www.w3.org/1999/xlink" version="1.1" width="480" height="360" viewBox="0 0 480 360">
<!-- Generated by Kreative Vexillo v1.0 -->
<style>
.black{fill:rgb(0,0,0);}
.blue{fill:rgb(12,28,140);}
.gold{fill:rgb(252,181,20);}
.green{fill:rgb(0,124,89);}
.red{fill:rgb(226,61,40);}
.white{fill:rgb(255,255,255);}
</style>
<defs>
<clipPath id="clip0">
<path d="M 0 0 L 240 180 L 0 360 Z"/>
</clipPath>
<clipPath id="clip1">
<path d="M 0 0 L 480 0 L 480 360 L 0 360 L 240 180 Z"/>
</clipPath>
<clipPath id="clip2">
<rect x="0" y="0" width="480" height="360"/>
</clipPath>
</defs>
<g>
<g>
<rect x="0" y="0" width="480" height="180" class="red"/>
<rect x="0" y="180" width="480" height="180" class="blue"/>
</g>
<path d="M 0 0 L 240 180 L 0 360 Z" class="black"/>
<g clip-path="url(#clip0)">
<path d="M -35.9634 48.0275 L 204.0366 228.0275 L 275.9633 131.9725 L 35.9634 -48.0275 L -35.9634 48.0275 Z" class="gold"/>
<path d="M 204.0366 131.9725 L -35.9634 311.9725 L 35.9634 408.0275 L 275.9633 228.0275 L 204.0366 131.9725 Z" class="gold"/>
</g>
<g clip-path="url(#clip1)">
<path d="M -35.9634 48.0275 L 204.0366 228.0275 L 275.9633 131.9725 L 35.9634 -48.0275 L -35.9634 48.0275 Z" class="white"/>
<path d="M 204.0366 131.9725 L -35.9634 311.9725 L 35.9634 408.0275 L 275.9633 228.0275 L 204.0366 131.9725 Z" class="white"/>
<path d="M 240 240 L 480 240 L 480 120 L 240 120 L 240 240 Z" class="white"/>
</g>
<g clip-path="url(#clip2)">
<path d="M -21.578 28.8165 L 218.422 208.8165 L 261.578 151.1835 L 21.578 -28.8165 L -21.578 28.8165 Z" class="green"/>
<path d="M 218.422 151.1835 L -21.578 331.1835 L 21.578 388.8165 L 261.578 208.8165 L 218.422 151.1835 Z" class="green"/>
<path d="M 240 216 L 480 216 L 480 144 L 240 144 L 240 216 Z" class="green"/>
</g>
</g>
</svg>
