<?xml version="1.0"?>
<svg xmlns="http://www.w3.org/2000/svg" xmlns:xlink="http://www.w3.org/1999/xlink" version="1.1" width="480" height="360" viewBox="0 0 480 360">
<!-- Generated by Kreative Vexillo v1.0 -->
<style>
.black{fill:rgb(0,0,0);}
.white{fill:rgb(255,255,255);}
</style>
<defs>
<path id="q" d="M 0.222 0.667 V 0.556 C 0.222 0.464 0.27 0.389 0.36699998 0.32999998 L 0.38399997 0.31899998 C 0.42399997 0.29599997 0.44399998 0.26299998 0.44399998 0.22099999 C 0.44399998 0.19199999 0.43299997 0.16499999 0.41099998 0.144 C 0.39 0.122 0.364 0.111 0.333 0.111 H 0.333 C 0.265 0.111 0.22800002 0.148 0.222 0.221 H 0.0 C 0.017 0.074 0.091 0.0 0.222 0.0 H 0.444 C 0.505 0.0 0.557 0.021 0.601 0.065 S 0.667 0.161 0.667 0.221 C 0.667 0.31800002 0.625 0.384 0.53999996 0.422 L 0.521 0.431 C 0.48100004 0.449 0.45800003 0.465 0.45200002 0.48299998 C 0.447 0.499 0.444 0.523 0.444 0.556 V 0.667 H 0.222 Z M 0.222 1.0 V 0.778 H 0.444 V 1.0 H 0.222 Z"/>
</defs>
<g>
<rect x="0" y="0" width="480" height="360" class="white"/>
<use xlink:href="#q" transform="translate(144 36) scale(288 288) rotate(0)" class="black"/>
</g>
</svg>
