<?xml version="1.0"?>
<svg xmlns="http://www.w3.org/2000/svg" xmlns:xlink="http://www.w3.org/1999/xlink" version="1.1" width="576" height="396" viewBox="0 0 576 396">
<!-- Generated by Kreative Vexillo v1.0 -->
<style>
.black{fill:rgb(0,0,0);}
.blue{fill:rgb(0,121,193);}
.red{fill:rgb(227,24,55);}
.white{fill:rgb(255,255,255);}
.yellow{fill:rgb(255,210,0);}
</style>
<defs>
<path id="star16" d="M 0.0 -1.0 L 0.097545 -0.490393 L 0.382683 -0.92388 L 0.277785 -0.415735 L 0.707107 -0.707107 L 0.415735 -0.277785 L 0.92388 -0.382683 L 0.490393 -0.097545 L 1.0 -0.0 L 0.490393 0.097545 L 0.92388 0.382683 L 0.415735 0.277785 L 0.707107 0.707107 L 0.277785 0.415735 L 0.382683 0.92388 L 0.097545 0.490393 L 0.0 1.0 L -0.097545 0.490393 L -0.382683 0.92388 L -0.277785 0.415735 L -0.707107 0.707107 L -0.415735 0.277785 L -0.92388 0.382683 L -0.490393 0.097545 L -1.0 0.0 L -0.490393 -0.097545 L -0.92388 -0.382683 L -0.415735 -0.277785 L -0.707107 -0.707107 L -0.277785 -0.415735 L -0.382683 -0.92388 L -0.097545 -0.490393 Z"/>
</defs>
<g>
<rect x="0" y="0" width="576" height="396" class="black"/>
<use xlink:href="#star16" transform="translate(288 154.9565) scale(129.1304 129.1304) rotate(0)" class="yellow"/>
<rect x="0" y="154.9565" width="576" height="241.0435" class="blue"/>
<rect x="0" y="241.0435" width="576" height="154.9565" class="white"/>
<path d="M 0 396 L 0 0 L 288 396 L 576 0 L 576 396 Z" class="red"/>
</g>
</svg>
