<?xml version="1.0"?>
<svg xmlns="http://www.w3.org/2000/svg" xmlns:xlink="http://www.w3.org/1999/xlink" version="1.1" width="576" height="396" viewBox="0 0 576 396">
<!-- Generated by Kreative Vexillo v1.0 -->
<style>
.blue{fill:rgb(0,151,195);}
.green{fill:rgb(0,174,101);}
.red{fill:rgb(224,0,52);}
.white{fill:rgb(255,255,255);}
</style>
<defs>
<path id="crestar" d="M 0.5569 0.5023 C 0.3952 0.7422 0.121 0.9 -0.19 0.9 C -0.6871 0.9 -1.0899999 0.49699998 -1.0899999 0.0 C -1.0899999 -0.4971 -0.68709993 -0.9 -0.18999994 -0.9 C 0.12110007 -0.9 0.39520007 -0.74219996 0.5569001 -0.50229996 C 0.4196 -0.6544 0.221 -0.75 0.0 -0.75 C -0.4142 -0.75 -0.75 -0.4142 -0.75 0.0 C -0.75 0.4142 -0.4142 0.75 0.0 0.75 C 0.221 0.75 0.4196 0.6544 0.5569 0.5023 Z M 1.041 0.0955 L 1.31 -3.0E-4 L 1.0409 -0.0958 L 1.1633 -0.3538 L 0.90550005 -0.231 L 0.8097 -0.5 L 0.7142 -0.23089999 L 0.4562 -0.3533 L 0.579 -0.09549999 L 0.31 3.0E-4 L 0.5791 0.0958 L 0.45670003 0.3538 L 0.71450007 0.231 L 0.8104 0.5 L 0.9059 0.23089999 L 1.1639 0.35329998 L 1.041 0.0955 Z"/>
</defs>
<g>
<g>
<rect x="0" y="0" width="576" height="132" class="blue"/>
<rect x="0" y="132" width="576" height="132" class="red"/>
<rect x="0" y="264" width="576" height="132" class="green"/>
</g>
<use xlink:href="#crestar" transform="translate(288 198) scale(66 66) rotate(0)" class="white"/>
</g>
</svg>
