<?xml version="1.0"?>
<svg xmlns="http://www.w3.org/2000/svg" xmlns:xlink="http://www.w3.org/1999/xlink" version="1.1" width="576" height="396" viewBox="0 0 576 396">
<!-- Generated by Kreative Vexillo v1.0 -->
<style>
.blue{fill:rgb(0,35,149);}
.white{fill:rgb(255,255,255);}
.yellow{fill:rgb(254,203,0);}
</style>
<defs>
<path id="star" d="M 0.0 -1.0 L 0.2245 -0.309 L 0.9511 -0.309 L 0.3633 0.118 L 0.5878 0.809 L 0.0 0.382 L -0.5878 0.809 L -0.3633 0.118 L -0.9511 -0.309 L -0.2245 -0.309 Z"/>
</defs>
<g>
<rect x="0" y="0" width="576" height="396" class="blue"/>
<path d="M 125.64 0 L 521.64 0 L 521.64 396 Z" class="yellow"/>
<g>
<use xlink:href="#star" transform="translate(54.36 -4.2055) scale(35.64 35.64) rotate(0)" class="white"/>
<use xlink:href="#star" transform="translate(103.86 45.2945) scale(35.64 35.64) rotate(0)" class="white"/>
<use xlink:href="#star" transform="translate(153.36 94.7945) scale(35.64 35.64) rotate(0)" class="white"/>
<use xlink:href="#star" transform="translate(202.86 144.2945) scale(35.64 35.64) rotate(0)" class="white"/>
<use xlink:href="#star" transform="translate(252.36 193.7945) scale(35.64 35.64) rotate(0)" class="white"/>
<use xlink:href="#star" transform="translate(301.86 243.2945) scale(35.64 35.64) rotate(0)" class="white"/>
<use xlink:href="#star" transform="translate(351.36 292.7945) scale(35.64 35.64) rotate(0)" class="white"/>
<use xlink:href="#star" transform="translate(400.86 342.2945) scale(35.64 35.64) rotate(0)" class="white"/>
<use xlink:href="#star" transform="translate(450.36 391.7945) scale(35.64 35.64) rotate(0)" class="white"/>
</g>
</g>
</svg>
