<?xml version="1.0"?>
<svg xmlns="http://www.w3.org/2000/svg" xmlns:xlink="http://www.w3.org/1999/xlink" version="1.1" width="576" height="396" viewBox="0 0 576 396">
<!-- Generated by Kreative Vexillo v1.0 -->
<style>
.blue{fill:rgb(0,56,101);}
.red{fill:rgb(186,12,47);}
.white{fill:rgb(255,255,255);}
.yellow{fill:rgb(255,164,0);}
</style>
<defs>
<clipPath id="clip0">
<path d="M 249.4153 16.5 L 557.3333 16.5 L 249.4153 159.8949 Z"/>
</clipPath>
<clipPath id="clip1">
<path d="M 249.4153 379.5 L 557.3333 379.5 L 249.4153 236.1051 Z"/>
</clipPath>
<clipPath id="clip2">
<path d="M 249.4153 181.0644 L 474.6667 181.0644 L 528 198 L 474.6667 214.9356 L 249.4153 214.9356 L 270.7486 198 Z"/>
</clipPath>
</defs>
<g>
<rect x="0" y="0" width="576" height="396" class="white"/>
<rect x="21.3333" y="16.5" width="201.4153" height="363" class="blue"/>
<path d="M 9.1191 -11.4871 L 9.1191 -11.4871 L 258.5344 186.5129 L 240.2962 209.4871 L -9.1191 11.4871 Z" class="white"/>
<path d="M -9.1191 384.5129 L -9.1191 384.5129 L 240.2962 186.5129 L 258.5344 209.4871 L 9.1191 407.4871 Z" class="white"/>
<path d="M 0 183.3333 L 0 183.3333 L 249.4153 183.3333 L 249.4153 212.6667 L 0 212.6667 Z" class="white"/>
<g clip-path="url(#clip0)">
<path d="M 249.4153 0 L 249.4153 0 L 557.3333 0 L 557.3333 33 L 249.4153 33 Z" class="red"/>
<path d="M 564.299 31.4576 L 564.299 31.4576 L 256.381 174.8525 L 242.4497 144.9373 L 550.3677 1.5424 Z" class="red"/>
<path d="M 232.9153 159.8949 L 232.9153 159.8949 L 232.9153 16.5 L 265.9153 16.5 L 265.9153 159.8949 Z" class="red"/>
</g>
<g clip-path="url(#clip1)">
<path d="M 249.4153 363 L 249.4153 363 L 557.3333 363 L 557.3333 396 L 249.4153 396 Z" class="red"/>
<path d="M 550.3677 394.4576 L 550.3677 394.4576 L 242.4497 251.0627 L 256.381 221.1475 L 564.299 364.5424 Z" class="red"/>
<path d="M 265.9153 236.1051 L 265.9153 236.1051 L 265.9153 379.5 L 232.9153 379.5 L 232.9153 236.1051 Z" class="red"/>
</g>
<path d="M 249.4153 181.0644 L 474.6667 181.0644 L 528 198 L 474.6667 214.9356 L 249.4153 214.9356 L 270.7486 198 Z" class="yellow"/>
<g clip-path="url(#clip2)">
<path d="M 249.4153 173.7311 L 249.4153 173.7311 L 474.6667 173.7311 L 474.6667 188.3977 L 249.4153 188.3977 Z" class="red"/>
<path d="M 476.8861 174.075 L 476.8861 174.075 L 530.2194 191.0106 L 525.7806 204.9894 L 472.4472 188.0538 Z" class="red"/>
<path d="M 530.2194 204.9894 L 530.2194 204.9894 L 476.8861 221.925 L 472.4472 207.9462 L 525.7806 191.0106 Z" class="red"/>
<path d="M 474.6667 222.2689 L 474.6667 222.2689 L 249.4153 222.2689 L 249.4153 207.6023 L 474.6667 207.6023 Z" class="red"/>
<path d="M 249.4153 181.0644 L 261.2099 181.0644 L 282.5432 198 L 261.2099 214.9356 L 249.4153 214.9356 Z" class="red"/>
</g>
</g>
</svg>
