<?xml version="1.0"?>
<svg xmlns="http://www.w3.org/2000/svg" xmlns:xlink="http://www.w3.org/1999/xlink" version="1.1" width="576" height="396" viewBox="0 0 576 396">
<!-- Generated by Kreative Vexillo v1.0 -->
<style>
.black{fill:rgb(0,0,0);}
.white{fill:rgb(255,255,255);}
</style>
<defs>
<path id="e" d="M 0.1312 0.028 H -0.1112 L -0.1749 0.4424 L -0.06689999 0.3582 L 0.010000005 0.44410002 V 0.4442 V 0.44410002 L 0.0869 0.3582 L 0.1949 0.4424 L 0.1312 0.028 Z M 0.1567 0.0034 C 0.1567 -0.0054 0.1498 -0.012500001 0.1412 -0.012500001 C 0.1411 -0.012500001 0.1409 -0.012500001 0.1408 -0.012500001 H -0.1214 C -0.1215 -0.012500001 -0.1216 -0.012500001 -0.1217 -0.012500001 C -0.1303 -0.012500001 -0.1372 -0.005400001 -0.1372 0.0033999998 C -0.1372 0.0122 -0.1303 0.0193 -0.1217 0.0193 H -0.121599995 V 0.0194 H 0.1413 V 0.0193 C 0.1498 0.0193 0.1567 0.0121 0.1567 0.0034 M 0.1558 -0.0745 H -0.1356 C -0.1496 -0.0745 -0.161 -0.062800005 -0.161 -0.0483 C -0.161 -0.0339 -0.1496 -0.022100002 -0.1355 -0.022100002 H -0.1353 H 0.1556 H 0.1558 C 0.1699 -0.022100002 0.1812 -0.033800002 0.1812 -0.0483 C 0.1812 -0.0627 0.1698 -0.0745 0.1558 -0.0745 M 0.1422 -0.1002 C 0.1422 -0.109 0.13589999 -0.1161 0.1282 -0.1161 C 0.1281 -0.1161 0.12799999 -0.1161 0.12789999 -0.1161 H -0.1084 C -0.108500004 -0.1161 -0.108600006 -0.1161 -0.1087 -0.1161 C -0.1164 -0.1161 -0.1226 -0.109 -0.1226 -0.1002 C -0.1226 -0.0914 -0.116399996 -0.0843 -0.1087 -0.0843 C -0.1087 -0.0843 -0.1087 -0.0843 -0.1087 -0.0843 V -0.084199995 H 0.1283 V -0.0843 C 0.136 -0.0843 0.1422 -0.0914 0.1422 -0.1002 M -0.1944 -0.2546 C -0.1882 -0.28489998 -0.14809999 -0.29619998 -0.122999996 -0.2541 C -0.113199994 -0.2376 -0.10689999 -0.146 -0.211 -0.14919999 C -0.2742 -0.1512 -0.31919998 -0.22909999 -0.3011 -0.31269997 C -0.28289998 -0.39669997 -0.20059998 -0.44599998 -0.12919998 -0.44419998 C -0.004399985 -0.44099998 0.05930002 -0.34239998 0.077400014 -0.28719997 C 0.09400001 -0.23659998 0.10370001 -0.16869998 0.10330001 -0.12579997 H -0.08359999 C -0.070499994 -0.20379996 -0.07839999 -0.23559996 -0.07839999 -0.23559996 S -0.096599996 -0.31489998 -0.15089999 -0.31489998 C -0.20529999 -0.31489998 -0.21669999 -0.2654 -0.21669999 -0.2654 S -0.22269998 -0.22659999 -0.19549999 -0.2207 C -0.18819998 -0.2191 -0.17399998 -0.2202 -0.17399998 -0.23879999 C -0.1739 -0.2479 -0.1813 -0.2562 -0.1944 -0.2546"/>
</defs>
<g>
<rect x="0" y="0" width="576" height="396" class="white"/>
<use xlink:href="#e" transform="translate(288 198) scale(396 396) rotate(0)" class="black"/>
</g>
</svg>
