<?xml version="1.0"?>
<svg xmlns="http://www.w3.org/2000/svg" xmlns:xlink="http://www.w3.org/1999/xlink" version="1.1" width="576" height="396" viewBox="0 0 576 396">
<!-- Generated by Kreative Vexillo v1.0 -->
<style>
.red{fill:rgb(221,0,0);}
.white{fill:rgb(255,255,255);}
</style>
<g>
<g>
<rect x="0" y="0" width="576" height="49.5" class="red"/>
<rect x="0" y="49.5" width="576" height="49.5" class="white"/>
<rect x="0" y="99" width="576" height="49.5" class="red"/>
<rect x="0" y="148.5" width="576" height="49.5" class="white"/>
<rect x="0" y="198" width="576" height="49.5" class="red"/>
<rect x="0" y="247.5" width="576" height="49.5" class="white"/>
<rect x="0" y="297" width="576" height="49.5" class="red"/>
<rect x="0" y="346.5" width="576" height="49.5" class="white"/>
</g>
<g>
<rect x="49.5" y="0" width="49.5" height="49.5" class="white"/>
<rect x="49.5" y="49.5" width="49.5" height="49.5" class="red"/>
<rect x="49.5" y="99" width="49.5" height="49.5" class="white"/>
<rect x="49.5" y="148.5" width="49.5" height="49.5" class="red"/>
<rect x="49.5" y="198" width="49.5" height="49.5" class="white"/>
<rect x="49.5" y="247.5" width="49.5" height="49.5" class="red"/>
<rect x="49.5" y="297" width="49.5" height="49.5" class="white"/>
<rect x="49.5" y="346.5" width="49.5" height="49.5" class="red"/>
</g>
</g>
</svg>
