<?xml version="1.0"?>
<svg xmlns="http://www.w3.org/2000/svg" xmlns:xlink="http://www.w3.org/1999/xlink" version="1.1" width="576" height="396" viewBox="0 0 576 396">
<!-- Generated by Kreative Vexillo v1.0 -->
<style>
.red{fill:rgb(198,11,30);}
.white{fill:rgb(255,255,255);}
</style>
<defs>
<path id="star" d="M 0.0 -1.0 L 0.2245 -0.309 L 0.9511 -0.309 L 0.3633 0.118 L 0.5878 0.809 L 0.0 0.382 L -0.5878 0.809 L -0.3633 0.118 L -0.9511 -0.309 L -0.2245 -0.309 Z"/>
</defs>
<g>
<rect x="0" y="0" width="576" height="396" class="red"/>
<use xlink:href="#star" transform="translate(118.2857 162.6429) scale(49.5 49.5) rotate(0)" class="white"/>
<use xlink:href="#star" transform="translate(231.4286 162.6429) scale(49.5 49.5) rotate(0)" class="white"/>
<use xlink:href="#star" transform="translate(344.5714 162.6429) scale(49.5 49.5) rotate(0)" class="white"/>
<use xlink:href="#star" transform="translate(457.7143 162.6429) scale(49.5 49.5) rotate(0)" class="white"/>
<use xlink:href="#star" transform="translate(174.8571 245.0391) scale(49.5 49.5) rotate(0)" class="white"/>
<use xlink:href="#star" transform="translate(288 245.0391) scale(49.5 49.5) rotate(0)" class="white"/>
<use xlink:href="#star" transform="translate(401.1429 245.0391) scale(49.5 49.5) rotate(0)" class="white"/>
</g>
</svg>
