<?xml version="1.0"?>
<svg xmlns="http://www.w3.org/2000/svg" xmlns:xlink="http://www.w3.org/1999/xlink" version="1.1" width="576" height="396" viewBox="0 0 576 396">
<!-- Generated by Kreative Vexillo v1.0 -->
<style>
.black{fill:rgb(0,0,0);}
.white{fill:rgb(255,255,255);}
</style>
<defs>
<path id="ermine" d="M -0.1013 -0.3113 L 0.0 -0.24380001 L -0.1013 -0.1763 L -0.27 -0.2438 L -0.1013 -0.3113 Z M 0.0 -0.5138 L -0.0675 -0.34500003 L 0.0 -0.24370003 L 0.0675 -0.34500003 L 0.0 -0.5138 Z M 0.27 -0.2438 L 0.1013 -0.3113 L 0.0 -0.24380001 L 0.1013 -0.1763 L 0.27 -0.2438 Z M 0.0 -0.2438 L -0.3038 0.4988 L -0.06749998 0.3975 L 2.2351742E-8 0.5325 L 0.067500025 0.39750004 L 0.3038 0.4988 L 0.0 -0.2438 Z"/>
</defs>
<g>
<g>
<rect x="0" y="0" width="576" height="44" class="black"/>
<rect x="0" y="44" width="576" height="44" class="white"/>
<rect x="0" y="88" width="576" height="44" class="black"/>
<rect x="0" y="132" width="576" height="44" class="white"/>
<rect x="0" y="176" width="576" height="44" class="black"/>
<rect x="0" y="220" width="576" height="44" class="white"/>
<rect x="0" y="264" width="576" height="44" class="black"/>
<rect x="0" y="308" width="576" height="44" class="white"/>
<rect x="0" y="352" width="576" height="44" class="black"/>
</g>
<rect x="0" y="0" width="264" height="176" class="white"/>
<g>
<use xlink:href="#ermine" transform="translate(33 34.1) scale(58.6667 58.6667) rotate(0)" class="black"/>
<use xlink:href="#ermine" transform="translate(99 34.1) scale(58.6667 58.6667) rotate(0)" class="black"/>
<use xlink:href="#ermine" transform="translate(165 34.1) scale(58.6667 58.6667) rotate(0)" class="black"/>
<use xlink:href="#ermine" transform="translate(231 34.1) scale(58.6667 58.6667) rotate(0)" class="black"/>
</g>
<g>
<use xlink:href="#ermine" transform="translate(66 88) scale(58.6667 58.6667) rotate(0)" class="black"/>
<use xlink:href="#ermine" transform="translate(132 88) scale(58.6667 58.6667) rotate(0)" class="black"/>
<use xlink:href="#ermine" transform="translate(198 88) scale(58.6667 58.6667) rotate(0)" class="black"/>
</g>
<g>
<use xlink:href="#ermine" transform="translate(33 141.9) scale(58.6667 58.6667) rotate(0)" class="black"/>
<use xlink:href="#ermine" transform="translate(99 141.9) scale(58.6667 58.6667) rotate(0)" class="black"/>
<use xlink:href="#ermine" transform="translate(165 141.9) scale(58.6667 58.6667) rotate(0)" class="black"/>
<use xlink:href="#ermine" transform="translate(231 141.9) scale(58.6667 58.6667) rotate(0)" class="black"/>
</g>
</g>
</svg>
