<?xml version="1.0"?>
<svg xmlns="http://www.w3.org/2000/svg" xmlns:xlink="http://www.w3.org/1999/xlink" version="1.1" width="576" height="396" viewBox="0 0 576 396">
<!-- Generated by Kreative Vexillo v1.0 -->
<style>
.black{fill:rgb(0,0,0);}
.green{fill:rgb(0,169,79);}
.yellow{fill:rgb(255,221,0);}
</style>
<g>
<rect x="0" y="0" width="576" height="396" class="green"/>
<path d="M 0 0 L 288 198 L 0 396 Z" class="black"/>
<path d="M 576 0 L 288 198 L 576 396 Z" class="black"/>
<path d="M 0 0 L 0 40.0465 L 0 40.0465 L 229.7505 198 L 0 355.9535 L 0 355.9535 L 0 396 L 58.2495 396 L 288 238.0465 L 288 238.0465 L 517.7505 396 L 576 396 L 576 355.9535 L 346.2495 198 L 346.2495 198 L 576 40.0465 L 576 0 L 517.7505 0 L 288 157.9535 L 288 157.9535 L 58.2495 0 Z" class="yellow"/>
</g>
</svg>
