<?xml version="1.0"?>
<svg xmlns="http://www.w3.org/2000/svg" xmlns:xlink="http://www.w3.org/1999/xlink" version="1.1" width="576" height="396" viewBox="0 0 576 396">
<!-- Generated by Kreative Vexillo v1.0 -->
<style>
.blue{fill:rgb(0,0,107);}
.white{fill:rgb(255,255,255);}
</style>
<defs>
<path id="e" d="M 0.0714 -0.0136 C 0.0356 0.0382 0.0113 0.097 0.0 0.159 C -0.0113 0.096999995 -0.0356 0.03819999 -0.0714 -0.013600007 V -0.3499 C -0.1105 -0.34190002 -0.149 -0.3272 -0.1851 -0.3053 C -0.2343 -0.2755 -0.2756 -0.2342 -0.3054 -0.1851 C -0.3542 -0.2001 -0.40530002 -0.20660001 -0.4564 -0.2042 C -0.3436 -0.4562 -0.047800004 -0.5691 0.2042 -0.4563 C 0.3163 -0.40609998 0.4061 -0.3164 0.4563 -0.2042 C 0.4052 -0.2066 0.3542 -0.2001 0.3053 -0.1851 C 0.2516 -0.2737 0.1654 -0.33060002 0.0713 -0.3498 V -0.0136 Z M -0.4357 -0.1904 C -0.4447 -0.1904 -0.4537 -0.1901 -0.4626 -0.1896 C -0.56729996 0.06589998 -0.44509998 0.35790002 -0.18959999 0.4627 C -0.13159999 0.48650002 -0.06969999 0.4991 -0.007099986 0.5 V 0.3571 C -0.2043 0.3532 -0.361 0.1901 -0.3571 -0.0071 C -0.3569 -0.016800001 -0.3563 -0.0264 -0.3553 -0.036 C -0.2093 0.0068 -0.1225 0.1565 -0.1578 0.3045 C -0.111200005 0.3287 -0.059600003 0.3418 -0.007100001 0.3429 V 0.2382 C -0.0071 0.0015 -0.199 -0.1904 -0.4357 -0.1904 Z M 0.4626 -0.1895 C 0.4536 -0.1901 0.4447 -0.1903 0.4357 -0.1903 C 0.199 -0.1904 0.0071 0.0015 0.0071 0.2382 V 0.34289998 C 0.0596 0.34179997 0.1111 0.32869998 0.1578 0.30449998 C 0.1225 0.1565 0.2093 0.0068 0.3553 -0.036 C 0.3563 -0.026399998 0.3569 -0.016699998 0.3571 -0.007099999 C 0.361 0.1901 0.2044 0.35320002 0.0072000027 0.3571 V 0.5 C 0.069800004 0.4991 0.13170001 0.4865 0.1897 0.4627 C 0.4451 0.358 0.5674 0.066 0.4626 -0.1895 Z"/>
</defs>
<g>
<rect x="0" y="0" width="576" height="396" class="blue"/>
<use xlink:href="#e" transform="translate(288 198) scale(237.6 237.6) rotate(0)" class="white"/>
</g>
</svg>
