<?xml version="1.0"?>
<svg xmlns="http://www.w3.org/2000/svg" xmlns:xlink="http://www.w3.org/1999/xlink" version="1.1" width="576" height="396" viewBox="0 0 576 396">
<!-- Generated by Kreative Vexillo v1.0 -->
<style>
.green{fill:rgb(0,89,51);}
.white{fill:rgb(255,255,255);}
</style>
<defs>
<path id="e" d="M -0.2419 -0.2983 C -0.2979 -0.336 -0.3574 -0.3683 -0.4202 -0.3948 C -0.4637 -0.41320002 -0.5081 -0.4286 -0.5533 -0.4409 V -0.208 C -0.48740003 -0.18460001 -0.4253 -0.1532 -0.3682 -0.11490001 C -0.3817 -0.09140001 -0.39450002 -0.06760001 -0.40670002 -0.043400005 C -0.486 0.1153 -0.5344 0.28969997 -0.5488 0.4666 H -0.32569999 C -0.31109998 0.3158 -0.267 0.16980001 -0.19749999 0.037 C -0.0957 0.1561 -0.0269 0.3041 -0.0051 0.4667 H 0.21880001 C 0.208 0.3634 0.1821 0.2629 0.1415 0.1669 C 0.0908 0.0469 0.0191 -0.0613 -0.0716 -0.1552 C -0.0483 -0.184 -0.0237 -0.2118 0.0023 -0.2385 C 0.1877 -0.0485 0.3045 0.2015 0.3302 0.4667 H 0.5533 C 0.5389 0.2898 0.49060002 0.11539999 0.41120002 -0.043300003 C 0.3153 -0.2352 0.1739 -0.4046 0.0023 -0.5333 C -0.0883 -0.4654 -0.1704 -0.3862 -0.2419 -0.2983 Z"/>
</defs>
<g>
<rect x="0" y="0" width="576" height="396" class="green"/>
<use xlink:href="#e" transform="translate(288 198) scale(237.6 237.6) rotate(0)" class="white"/>
</g>
</svg>
