<?xml version="1.0"?>
<svg xmlns="http://www.w3.org/2000/svg" xmlns:xlink="http://www.w3.org/1999/xlink" version="1.1" width="576" height="396" viewBox="0 0 576 396">
<!-- Generated by Kreative Vexillo v1.0 -->
<style>
.blue{fill:rgb(58,117,196);}
.green{fill:rgb(61,142,51);}
.red{fill:rgb(206,17,38);}
.white{fill:rgb(255,255,255);}
.yellow{fill:rgb(255,198,30);}
</style>
<defs>
<path id="star" d="M 0.0 -1.0 L 0.2245 -0.309 L 0.9511 -0.309 L 0.3633 0.118 L 0.5878 0.809 L 0.0 0.382 L -0.5878 0.809 L -0.3633 0.118 L -0.9511 -0.309 L -0.2245 -0.309 Z"/>
</defs>
<g>
<g>
<rect x="0" y="0" width="576" height="99" class="yellow"/>
<rect x="0" y="99" width="576" height="99" class="white"/>
<rect x="0" y="198" width="576" height="99" class="red"/>
<rect x="0" y="297" width="576" height="99" class="blue"/>
</g>
<path d="M 0 0 L 342.9461 198 L 0 396 Z" class="green"/>
<ellipse cx="112.2" cy="198" rx="89.1" ry="89.1" class="white"/>
<ellipse cx="151.8" cy="198" rx="89.1" ry="89.1" class="green"/>
<use xlink:href="#star" transform="translate(132 138.6) scale(16.5 16.5) rotate(0)" class="white"/>
<use xlink:href="#star" transform="translate(132 178.2) scale(16.5 16.5) rotate(0)" class="white"/>
<use xlink:href="#star" transform="translate(132 217.8) scale(16.5 16.5) rotate(0)" class="white"/>
<use xlink:href="#star" transform="translate(132 257.4) scale(16.5 16.5) rotate(0)" class="white"/>
</g>
</svg>
