<?xml version="1.0"?>
<svg xmlns="http://www.w3.org/2000/svg" xmlns:xlink="http://www.w3.org/1999/xlink" version="1.1" width="576" height="396" viewBox="0 0 576 396">
<!-- Generated by Kreative Vexillo v1.0 -->
<style>
.black{fill:rgb(0,0,0);}
.green{fill:rgb(0,169,79);}
.red{fill:rgb(239,65,53);}
.white{fill:rgb(255,255,255);}
.yellow{fill:rgb(255,221,0);}
</style>
<defs>
<path id="star" d="M 0.0 -1.0 L 0.2245 -0.309 L 0.9511 -0.309 L 0.3633 0.118 L 0.5878 0.809 L 0.0 0.382 L -0.5878 0.809 L -0.3633 0.118 L -0.9511 -0.309 L -0.2245 -0.309 Z"/>
<clipPath id="clip0">
<rect x="0" y="0" width="576" height="396"/>
</clipPath>
</defs>
<g>
<path d="M 0 396 L 0 0 L 576 0 Z" class="green"/>
<path d="M 576 0 L 576 396 L 0 396 Z" class="red"/>
<g clip-path="url(#clip0)">
<path d="M 623.1125 68.5273 L 623.1125 68.5273 L 47.1125 464.5273 L -47.1125 327.4727 L 528.8875 -68.5273 Z" class="yellow"/>
<path d="M 609.6518 48.9481 L 609.6518 48.9481 L 33.6518 444.9481 L -33.6518 347.0519 L 542.3482 -48.9481 Z" class="black"/>
</g>
<use xlink:href="#star" transform="translate(184.32 269.28) scale(55.44 55.44) rotate(-34.5085)" class="white"/>
<use xlink:href="#star" transform="translate(403.2 118.8) scale(55.44 55.44) rotate(-34.5085)" class="white"/>
</g>
</svg>
