<?xml version="1.0"?>
<svg xmlns="http://www.w3.org/2000/svg" xmlns:xlink="http://www.w3.org/1999/xlink" version="1.1" width="576" height="396" viewBox="0 0 576 396">
<!-- Generated by Kreative Vexillo v1.0 -->
<style>
.blue{fill:rgb(60,59,110);}
.red{fill:rgb(178,34,52);}
.white{fill:rgb(255,255,255);}
</style>
<defs>
<path id="star" d="M 0.0 -1.0 L 0.2245 -0.309 L 0.9511 -0.309 L 0.3633 0.118 L 0.5878 0.809 L 0.0 0.382 L -0.5878 0.809 L -0.3633 0.118 L -0.9511 -0.309 L -0.2245 -0.309 Z"/>
</defs>
<g>
<g>
<rect x="0" y="0" width="576" height="36" class="red"/>
<rect x="0" y="36" width="576" height="36" class="white"/>
<rect x="0" y="72" width="576" height="36" class="red"/>
<rect x="0" y="108" width="576" height="36" class="white"/>
<rect x="0" y="144" width="576" height="36" class="red"/>
<rect x="0" y="180" width="576" height="36" class="white"/>
<rect x="0" y="216" width="576" height="36" class="red"/>
<rect x="0" y="252" width="576" height="36" class="white"/>
<rect x="0" y="288" width="576" height="36" class="red"/>
<rect x="0" y="324" width="576" height="36" class="white"/>
<rect x="0" y="360" width="576" height="36" class="red"/>
</g>
<rect x="0" y="0" width="180" height="180" class="blue"/>
<use xlink:href="#star" transform="translate(90 90) scale(60 60) rotate(0)" class="white"/>
</g>
</svg>
