<?xml version="1.0"?>
<svg xmlns="http://www.w3.org/2000/svg" xmlns:xlink="http://www.w3.org/1999/xlink" version="1.1" width="576" height="396" viewBox="0 0 576 396">
<!-- Generated by Kreative Vexillo v1.0 -->
<style>
.black{fill:rgb(0,0,0);}
.green{fill:rgb(35,158,70);}
.red{fill:rgb(231,0,19);}
.white{fill:rgb(255,255,255);}
</style>
<defs>
<path id="crescent" d="M 0.707241 -0.707214 A 1.0 1.0 0.0 1 0 0.707214 0.707214 A 0.833333 0.833333 0.0 1 1 0.707214 -0.707214 Z"/>
<path id="star" d="M 0.0 -1.0 L 0.2245 -0.309 L 0.9511 -0.309 L 0.3633 0.118 L 0.5878 0.809 L 0.0 0.382 L -0.5878 0.809 L -0.3633 0.118 L -0.9511 -0.309 L -0.2245 -0.309 Z"/>
</defs>
<g>
<g>
<rect x="0" y="0" width="576" height="99" class="red"/>
<rect x="0" y="99" width="576" height="198" class="black"/>
<rect x="0" y="297" width="576" height="99" class="green"/>
</g>
<use xlink:href="#crescent" transform="translate(288 198) scale(49.5 49.5) rotate(0)" class="white"/>
<use xlink:href="#star" transform="translate(352.7955 198) scale(36.7958 36.7958) rotate(-90)" class="white"/>
</g>
</svg>
