<?xml version="1.0"?>
<svg xmlns="http://www.w3.org/2000/svg" xmlns:xlink="http://www.w3.org/1999/xlink" version="1.1" width="576" height="396" viewBox="0 0 576 396">
<!-- Generated by Kreative Vexillo v1.0 -->
<style>
.blue{fill:rgb(0,86,162);}
.orange{fill:rgb(247,148,30);}
.white{fill:rgb(255,255,255);}
</style>
<defs>
<path id="star" d="M 0.157 0.021 L 0.5 0.0 L 0.157 -0.021 L 0.346 -0.093 L 0.146 -0.061 L 0.31 -0.179 L 0.125 -0.096 L 0.253 -0.253 L 0.096 -0.125 L 0.179 -0.31 L 0.061 -0.146 L 0.093 -0.346 L 0.021 -0.157 L 0.0 -0.5 L -0.021 -0.157 L -0.093 -0.346 L -0.061 -0.146 L -0.179 -0.31 L -0.096 -0.125 L -0.253 -0.253 L -0.125 -0.096 L -0.31 -0.179 L -0.146 -0.061 L -0.346 -0.093 L -0.157 -0.021 L -0.5 0.0 L -0.157 0.021 L -0.346 0.093 L -0.146 0.061 L -0.31 0.179 L -0.125 0.096 L -0.253 0.253 L -0.096 0.125 L -0.179 0.31 L -0.061 0.146 L -0.093 0.346 L -0.021 0.157 L 0.0 0.5 L 0.021 0.157 L 0.093 0.346 L 0.061 0.146 L 0.179 0.31 L 0.096 0.125 L 0.253 0.253 L 0.125 0.096 L 0.31 0.179 L 0.146 0.061 L 0.346 0.093 Z"/>
</defs>
<g>
<rect x="0" y="0" width="576" height="396" class="blue"/>
<path d="M 0 376.992 L 576 6.336 L 576 122.76 L 0 386.496 Z" class="orange"/>
<path d="M 0 383.328 L 576 83.952 L 576 161.568 L 0 389.664 Z" class="white"/>
<use xlink:href="#star" transform="translate(111.168 145.332) scale(187.8739 187.8739) rotate(0)" class="white"/>
</g>
</svg>
