<?xml version="1.0"?>
<svg xmlns="http://www.w3.org/2000/svg" xmlns:xlink="http://www.w3.org/1999/xlink" version="1.1" width="576" height="396" viewBox="0 0 576 396">
<!-- Generated by Kreative Vexillo v1.0 -->
<style>
.red{fill:rgb(210,0,0);}
.yellow{fill:rgb(255,230,0);}
</style>
<g>
<rect x="0" y="0" width="576" height="396" class="red"/>
<path d="M 288 198 L 0 0 L 86.4 0 Z" class="yellow"/>
<path d="M 288 198 L 259.2 0 L 316.8 0 Z" class="yellow"/>
<path d="M 288 198 L 489.6 0 L 576 0 Z" class="yellow"/>
<path d="M 288 198 L 576 169.2 L 576 226.8 Z" class="yellow"/>
<path d="M 288 198 L 576 396 L 489.6 396 Z" class="yellow"/>
<path d="M 288 198 L 316.8 396 L 259.2 396 Z" class="yellow"/>
<path d="M 288 198 L 86.4 396 L 0 396 Z" class="yellow"/>
<path d="M 288 198 L 0 226.8 L 0 169.2 Z" class="yellow"/>
<ellipse cx="288" cy="198" rx="70.7143" ry="70.7143" class="red"/>
<ellipse cx="288" cy="198" rx="56.5714" ry="56.5714" class="yellow"/>
</g>
</svg>
