<?xml version="1.0"?>
<svg xmlns="http://www.w3.org/2000/svg" xmlns:xlink="http://www.w3.org/1999/xlink" version="1.1" width="576" height="396" viewBox="0 0 576 396">
<!-- Generated by Kreative Vexillo v1.0 -->
<style>
.blue{fill:rgb(0,93,170);}
.red{fill:rgb(238,49,36);}
.white{fill:rgb(255,255,255);}
.yellow{fill:rgb(255,221,0);}
</style>
<defs>
<path id="star14" d="M 0.0 -1.0 L 0.089008 -0.389971 L 0.433884 -0.900969 L 0.249396 -0.312733 L 0.781831 -0.62349 L 0.360388 -0.173553 L 0.974928 -0.222521 L 0.4 -0.0 L 0.974928 0.222521 L 0.360388 0.173553 L 0.781831 0.62349 L 0.249396 0.312733 L 0.433884 0.900969 L 0.089008 0.389971 L 0.0 1.0 L -0.089008 0.389971 L -0.433884 0.900969 L -0.249396 0.312733 L -0.781831 0.62349 L -0.360388 0.173553 L -0.974928 0.222521 L -0.4 0.0 L -0.974928 -0.222521 L -0.360388 -0.173553 L -0.781831 -0.62349 L -0.249396 -0.312733 L -0.433884 -0.900969 L -0.089008 -0.389971 Z"/>
</defs>
<g>
<g>
<rect x="0" y="0" width="576" height="28.2857" class="red"/>
<rect x="0" y="28.2857" width="576" height="28.2857" class="white"/>
<rect x="0" y="56.5714" width="576" height="28.2857" class="red"/>
<rect x="0" y="84.8571" width="576" height="28.2857" class="white"/>
<rect x="0" y="113.1429" width="576" height="28.2857" class="red"/>
<rect x="0" y="141.4286" width="576" height="28.2857" class="white"/>
<rect x="0" y="169.7143" width="576" height="28.2857" class="red"/>
<rect x="0" y="198" width="576" height="28.2857" class="white"/>
<rect x="0" y="226.2857" width="576" height="28.2857" class="red"/>
<rect x="0" y="254.5714" width="576" height="28.2857" class="white"/>
<rect x="0" y="282.8571" width="576" height="28.2857" class="red"/>
<rect x="0" y="311.1429" width="576" height="28.2857" class="white"/>
<rect x="0" y="339.4286" width="576" height="28.2857" class="red"/>
<rect x="0" y="367.7143" width="576" height="28.2857" class="white"/>
</g>
<rect x="0" y="0" width="288" height="226.2857" class="blue"/>
<ellipse cx="96.75" cy="113.1429" rx="81" ry="81" class="yellow"/>
<ellipse cx="117" cy="113.1429" rx="74.25" ry="74.25" class="blue"/>
<use xlink:href="#star14" transform="translate(184.5 113.1429) scale(67.5 67.5) rotate(0)" class="yellow"/>
</g>
</svg>
