<?xml version="1.0"?>
<svg xmlns="http://www.w3.org/2000/svg" xmlns:xlink="http://www.w3.org/1999/xlink" version="1.1" width="576" height="396" viewBox="0 0 576 396">
<!-- Generated by Kreative Vexillo v1.0 -->
<style>
.blue{fill:rgb(0,85,164);}
.green{fill:rgb(0,161,96);}
.red{fill:rgb(238,49,36);}
.white{fill:rgb(255,255,255);}
.yellow{fill:rgb(253,185,51);}
</style>
<defs>
<path id="disc" d="M 0.5 0.0 A 0.5 0.5 0.0 0 0 -0.5 0.0 A 0.5 0.5 0.0 0 0 0.5 0.0 Z"/>
<path id="star12" d="M 0.0 -1.0 L 0.155291 -0.579555 L 0.5 -0.866025 L 0.424264 -0.424264 L 0.866025 -0.5 L 0.579555 -0.155291 L 1.0 -0.0 L 0.579555 0.155291 L 0.866025 0.5 L 0.424264 0.424264 L 0.5 0.866025 L 0.155291 0.579555 L 0.0 1.0 L -0.155291 0.579555 L -0.5 0.866025 L -0.424264 0.424264 L -0.866025 0.5 L -0.579555 0.155291 L -1.0 0.0 L -0.579555 -0.155291 L -0.866025 -0.5 L -0.424264 -0.424264 L -0.5 -0.866025 L -0.155291 -0.579555 Z"/>
<clipPath id="clip0">
<rect x="0" y="0" width="576" height="396"/>
</clipPath>
</defs>
<g>
<rect x="0" y="0" width="576" height="396" class="blue"/>
<path d="M 576 0 L 576 396 L 0 396 Z" class="green"/>
<g clip-path="url(#clip0)">
<path d="M 613.3909 54.3868 L 613.3909 54.3868 L 37.3909 450.3868 L -37.3909 341.6132 L 538.6091 -54.3868 Z" class="white"/>
<path d="M 604.0432 40.7901 L 604.0432 40.7901 L 28.0432 436.7901 L -28.0432 355.2099 L 547.9568 -40.7901 Z" class="red"/>
</g>
<use xlink:href="#star12" transform="translate(128 105.6) scale(64 64) rotate(0)" class="yellow"/>
<use xlink:href="#disc" transform="translate(128 105.6) scale(76.8 76.8) rotate(0)" class="blue"/>
<use xlink:href="#disc" transform="translate(128 105.6) scale(64 64) rotate(0)" class="yellow"/>
</g>
</svg>
