<?xml version="1.0"?>
<svg xmlns="http://www.w3.org/2000/svg" xmlns:xlink="http://www.w3.org/1999/xlink" version="1.1" width="576" height="396" viewBox="0 0 576 396">
<!-- Generated by Kreative Vexillo v1.0 -->
<style>
.blue{fill:rgb(1,85,165);}
.red{fill:rgb(238,62,52);}
.white{fill:rgb(255,255,255);}
</style>
<defs>
<path id="seeblatt" d="M -0.0141 0.5106 C -0.30040002 0.47229996 -0.5141 0.22799999 -0.5141 -0.060800016 C -0.5142 -0.2185 -0.4022 -0.3465 -0.2642 -0.3465 C -0.15560001 -0.3476 -0.0635 -0.24020001 -0.049899995 -0.09650001 C -0.049899995 -0.07680001 -0.033899993 -0.06080001 -0.0141999945 -0.06080001 C 0.0055000056 -0.06080001 0.021500006 -0.07680001 0.021500006 -0.09650001 C 0.0351 -0.2402 0.1272 -0.3476 0.2358 -0.3465 C 0.3739 -0.3465 0.4858 -0.2186 0.4858 -0.060800016 C 0.4859 0.228 0.2722 0.4723 -0.0141 0.5106 Z"/>
</defs>
<g>
<rect x="0" y="0" width="576" height="396" class="white"/>
<path d="M 411.4286 0 L 576 0 L 576 113.1429 Z" class="blue"/>
<path d="M 82.2857 0 L 246.8571 0 L 576 226.2857 L 576 339.4286 Z" class="blue"/>
<path d="M 0 169.7143 L 0 56.5714 L 493.7143 396 L 329.1429 396 Z" class="blue"/>
<path d="M 0 282.8571 L 164.5714 396 L 0 396 Z" class="blue"/>
<use xlink:href="#seeblatt" transform="translate(62.3808 261.0432) scale(81.4 81.4) rotate(34.5085)" class="red"/>
<use xlink:href="#seeblatt" transform="translate(162.2016 329.67) scale(81.4 81.4) rotate(34.5085)" class="red"/>
<use xlink:href="#seeblatt" transform="translate(139.1616 87.5556) scale(81.4 81.4) rotate(34.5085)" class="red"/>
<use xlink:href="#seeblatt" transform="translate(292.7808 193.1688) scale(81.4 81.4) rotate(34.5085)" class="red"/>
<use xlink:href="#seeblatt" transform="translate(446.4 298.7424) scale(81.4 81.4) rotate(34.5085)" class="red"/>
<use xlink:href="#seeblatt" transform="translate(423.36 56.6676) scale(81.4 81.4) rotate(34.5085)" class="red"/>
<use xlink:href="#seeblatt" transform="translate(523.1808 125.2944) scale(81.4 81.4) rotate(34.5085)" class="red"/>
</g>
</svg>
