<?xml version="1.0"?>
<svg xmlns="http://www.w3.org/2000/svg" xmlns:xlink="http://www.w3.org/1999/xlink" version="1.1" width="576" height="396" viewBox="0 0 576 396">
<!-- Generated by Kreative Vexillo v1.0 -->
<style>
.red{fill:rgb(218,18,26);}
.white{fill:rgb(255,255,255);}
</style>
<g>
<g>
<rect x="0" y="0" width="96" height="99" class="red"/>
<rect x="96" y="0" width="96" height="99" class="white"/>
<rect x="192" y="0" width="96" height="99" class="red"/>
<rect x="288" y="0" width="96" height="99" class="white"/>
<rect x="384" y="0" width="96" height="99" class="red"/>
<rect x="480" y="0" width="96" height="99" class="white"/>
</g>
<g>
<rect x="0" y="99" width="96" height="99" class="white"/>
<rect x="96" y="99" width="96" height="99" class="red"/>
<rect x="192" y="99" width="96" height="99" class="white"/>
<rect x="288" y="99" width="96" height="99" class="red"/>
<rect x="384" y="99" width="96" height="99" class="white"/>
<rect x="480" y="99" width="96" height="99" class="red"/>
</g>
<g>
<rect x="0" y="198" width="96" height="99" class="red"/>
<rect x="96" y="198" width="96" height="99" class="white"/>
<rect x="192" y="198" width="96" height="99" class="red"/>
<rect x="288" y="198" width="96" height="99" class="white"/>
<rect x="384" y="198" width="96" height="99" class="red"/>
<rect x="480" y="198" width="96" height="99" class="white"/>
</g>
<g>
<rect x="0" y="297" width="96" height="99" class="white"/>
<rect x="96" y="297" width="96" height="99" class="red"/>
<rect x="192" y="297" width="96" height="99" class="white"/>
<rect x="288" y="297" width="96" height="99" class="red"/>
<rect x="384" y="297" width="96" height="99" class="white"/>
<rect x="480" y="297" width="96" height="99" class="red"/>
</g>
</g>
</svg>
