<?xml version="1.0"?>
<svg xmlns="http://www.w3.org/2000/svg" xmlns:xlink="http://www.w3.org/1999/xlink" version="1.1" width="576" height="396" viewBox="0 0 576 396">
<!-- Generated by Kreative Vexillo v1.0 -->
<style>
.blue{fill:rgb(0,36,125);}
.red{fill:rgb(207,20,43);}
.white{fill:rgb(255,255,255);}
</style>
<defs>
<path id="star" d="M 0.0 -1.0 L 0.2245 -0.309 L 0.9511 -0.309 L 0.3633 0.118 L 0.5878 0.809 L 0.0 0.382 L -0.5878 0.809 L -0.3633 0.118 L -0.9511 -0.309 L -0.2245 -0.309 Z"/>
<clipPath id="clip0">
<path d="M 0 0 L 0 16.0186 L 0 16.0186 L 120.7002 99 L 120.7002 99 L 0 181.9814 L 0 198 L 23.2998 198 L 144 115.0186 L 144 115.0186 L 144 115.0186 L 144 115.0186 L 144 115.0186 L 144 115.0186 L 264.7002 198 L 288 198 L 288 181.9814 L 167.2998 99 L 288 16.0186 L 288 0 L 264.7002 0 L 144 82.9814 L 23.2998 0 Z"/>
</clipPath>
</defs>
<g>
<rect x="0" y="0" width="576" height="396" class="blue"/>
<g>
<path d="M 0 0 L 0 24.0279 L 0 24.0279 L 109.0503 99 L 109.0503 99 L 0 173.9721 L 0 198 L 34.9497 198 L 144 123.0279 L 144 123.0279 L 253.0503 198 L 288 198 L 288 173.9721 L 288 173.9721 L 178.9497 99 L 178.9497 99 L 288 24.0279 L 288 0 L 253.0503 0 L 144 74.9721 L 144 74.9721 L 34.9497 0 Z" class="white"/>
<g clip-path="url(#clip0)">
<path d="M 0 0 L 144 99 L 0 99 Z" class="red"/>
<path d="M 288 0 L 144 99 L 144 0 Z" class="red"/>
<path d="M 0 198 L 144 99 L 144 198 Z" class="red"/>
<path d="M 288 198 L 144 99 L 288 99 Z" class="red"/>
</g>
<g>
<rect x="0" y="66" width="288" height="66" class="white"/>
<rect x="111" y="0" width="66" height="198" class="white"/>
</g>
<g>
<rect x="0" y="79.2" width="288" height="39.6" class="red"/>
<rect x="124.2" y="0" width="39.6" height="198" class="red"/>
</g>
</g>
<g>
<use xlink:href="#star" transform="translate(432 316.8) scale(24.192 24.192) rotate(0)" class="white"/>
<use xlink:href="#star" transform="translate(365.76 171.6) scale(21.792 21.792) rotate(0)" class="white"/>
<use xlink:href="#star" transform="translate(432 79.2) scale(21.792 21.792) rotate(0)" class="white"/>
<use xlink:href="#star" transform="translate(484.8 147.84) scale(19.392 19.392) rotate(0)" class="white"/>
<use xlink:href="#star" transform="translate(432 316.8) scale(16.8 16.8) rotate(0)" class="red"/>
<use xlink:href="#star" transform="translate(365.76 171.6) scale(14.4 14.4) rotate(0)" class="red"/>
<use xlink:href="#star" transform="translate(432 79.2) scale(14.4 14.4) rotate(0)" class="red"/>
<use xlink:href="#star" transform="translate(484.8 147.84) scale(12 12) rotate(0)" class="red"/>
</g>
</g>
</svg>
