<?xml version="1.0"?>
<svg xmlns="http://www.w3.org/2000/svg" xmlns:xlink="http://www.w3.org/1999/xlink" version="1.1" width="576" height="396" viewBox="0 0 576 396">
<!-- Generated by Kreative Vexillo v1.0 -->
<style>
.blue{fill:rgb(0,56,168);}
.red{fill:rgb(206,17,38);}
.white{fill:rgb(255,255,255);}
.yellow{fill:rgb(252,209,22);}
</style>
<defs>
<path id="ray" d="M 0.0 -1.0 L -0.061512 -0.938488 L 0.0 0.0 L 0.061512 -0.938488 L 0.0 -1.0 Z M -0.117794 -0.894736 L -0.16799 -0.844542 L 0.0 0.0 L -0.117794 -0.894736 Z M 0.117796 -0.894736 L 0.167992 -0.84454 L 0.0 0.0 L 0.117796 -0.894736 Z"/>
<path id="star" d="M 0.0 -1.0 L 0.2245 -0.309 L 0.9511 -0.309 L 0.3633 0.118 L 0.5878 0.809 L 0.0 0.382 L -0.5878 0.809 L -0.3633 0.118 L -0.9511 -0.309 L -0.2245 -0.309 Z"/>
</defs>
<g>
<g>
<rect x="0" y="0" width="576" height="198" class="blue"/>
<rect x="0" y="198" width="576" height="198" class="red"/>
</g>
<path d="M 0 0 L 342.9461 198 L 0 396 Z" class="white"/>
<use xlink:href="#star" transform="translate(30.8 53.3472) scale(22 22) rotate(-30)" class="yellow"/>
<use xlink:href="#star" transform="translate(30.8 342.6528) scale(22 22) rotate(-150)" class="yellow"/>
<use xlink:href="#star" transform="translate(281.3461 198) scale(22 22) rotate(90)" class="yellow"/>
<g>
<use xlink:href="#ray" transform="translate(123.2 198) scale(83.6 83.6) rotate(0)" class="yellow"/>
<use xlink:href="#ray" transform="translate(123.2 198) scale(83.6 83.6) rotate(45)" class="yellow"/>
<use xlink:href="#ray" transform="translate(123.2 198) scale(83.6 83.6) rotate(90)" class="yellow"/>
<use xlink:href="#ray" transform="translate(123.2 198) scale(83.6 83.6) rotate(135)" class="yellow"/>
<use xlink:href="#ray" transform="translate(123.2 198) scale(83.6 83.6) rotate(180)" class="yellow"/>
<use xlink:href="#ray" transform="translate(123.2 198) scale(83.6 83.6) rotate(225)" class="yellow"/>
<use xlink:href="#ray" transform="translate(123.2 198) scale(83.6 83.6) rotate(270)" class="yellow"/>
<use xlink:href="#ray" transform="translate(123.2 198) scale(83.6 83.6) rotate(315)" class="yellow"/>
</g>
<ellipse cx="123.2" cy="198" rx="39.6" ry="39.6" class="yellow"/>
</g>
</svg>
