<?xml version="1.0"?>
<svg xmlns="http://www.w3.org/2000/svg" xmlns:xlink="http://www.w3.org/1999/xlink" version="1.1" width="576" height="396" viewBox="0 0 576 396">
<!-- Generated by Kreative Vexillo v1.0 -->
<style>
.blue{fill:rgb(0,129,198);}
.green{fill:rgb(0,138,94);}
.sun{fill:rgb(253,185,19);}
.yellow{fill:rgb(255,221,0);}
</style>
<defs>
<path id="rays" d="M 1.0 0.0 L 0.3074 0.0405 L 0.9659 0.2588 L 0.2865 0.1187 L 0.866 0.5 L 0.246 0.1888 L 0.7071 0.7071 L 0.1888 0.246 L 0.5 0.866 L 0.1187 0.2865 L 0.2588 0.9659 L 0.0405 0.3074 L 0.0 1.0 L -0.0086 -0.0086 Z"/>
</defs>
<g>
<g>
<rect x="0" y="0" width="576" height="198" class="blue"/>
<rect x="0" y="198" width="576" height="99" class="yellow"/>
<rect x="0" y="297" width="576" height="99" class="green"/>
</g>
<use xlink:href="#rays" transform="translate(472.32 103.455) scale(63.855 63.855) rotate(0)" class="sun"/>
<use xlink:href="#rays" transform="translate(472.32 103.455) scale(63.855 63.855) rotate(90)" class="sun"/>
<use xlink:href="#rays" transform="translate(472.32 103.455) scale(63.855 63.855) rotate(180)" class="sun"/>
<use xlink:href="#rays" transform="translate(472.32 103.455) scale(63.855 63.855) rotate(270)" class="sun"/>
<ellipse cx="472.32" cy="103.455" rx="19.7951" ry="19.7951" class="blue"/>
<ellipse cx="472.32" cy="103.455" rx="17.8794" ry="17.8794" class="sun"/>
</g>
</svg>
