<?xml version="1.0"?>
<svg xmlns="http://www.w3.org/2000/svg" xmlns:xlink="http://www.w3.org/1999/xlink" version="1.1" width="576" height="396" viewBox="0 0 576 396">
<!-- Generated by Kreative Vexillo v1.0 -->
<style>
.blue{fill:rgb(0,121,193);}
.green{fill:rgb(0,169,79);}
.white{fill:rgb(255,255,255);}
.yellow{fill:rgb(255,196,37);}
</style>
<defs>
<path id="star" d="M 0.0 -1.0 L 0.2245 -0.309 L 0.9511 -0.309 L 0.3633 0.118 L 0.5878 0.809 L 0.0 0.382 L -0.5878 0.809 L -0.3633 0.118 L -0.9511 -0.309 L -0.2245 -0.309 Z"/>
<clipPath id="clip0">
<rect x="0" y="0" width="576" height="396"/>
</clipPath>
</defs>
<g>
<path d="M 0 0 L 576 0 L 0 396 Z" class="blue"/>
<path d="M 576 0 L 576 396 L 0 396 Z" class="green"/>
<g clip-path="url(#clip0)">
<path d="M 586.8774 15.8216 L 586.8774 15.8216 L 10.8774 411.8216 L -10.8774 380.1784 L 565.1226 -15.8216 Z" class="yellow"/>
</g>
<use xlink:href="#star" transform="translate(43.2 54.45) scale(38.4 38.4) rotate(0)" class="white"/>
<use xlink:href="#star" transform="translate(158.4 54.45) scale(38.4 38.4) rotate(0)" class="white"/>
<use xlink:href="#star" transform="translate(100.8 121.77) scale(38.4 38.4) rotate(0)" class="white"/>
<use xlink:href="#star" transform="translate(43.2 189.09) scale(38.4 38.4) rotate(0)" class="white"/>
<use xlink:href="#star" transform="translate(158.4 189.09) scale(38.4 38.4) rotate(0)" class="white"/>
</g>
</svg>
