<?xml version="1.0"?>
<svg xmlns="http://www.w3.org/2000/svg" xmlns:xlink="http://www.w3.org/1999/xlink" version="1.1" width="576" height="396" viewBox="0 0 576 396">
<!-- Generated by Kreative Vexillo v1.0 -->
<style>
.blue{fill:rgb(25,57,138);}
.red{fill:rgb(238,49,36);}
.white{fill:rgb(255,255,255);}
</style>
<defs>
<path id="ray" d="M -0.266667 0.0 L 0.0 -1.0 L 0.266667 0.0 Z"/>
</defs>
<g>
<rect x="0" y="0" width="576" height="396" class="red"/>
<rect x="0" y="0" width="288" height="198" class="blue"/>
<g>
<use xlink:href="#ray" transform="translate(144 99) scale(74.25 74.25) rotate(0)" class="white"/>
<use xlink:href="#ray" transform="translate(144 99) scale(74.25 74.25) rotate(30)" class="white"/>
<use xlink:href="#ray" transform="translate(144 99) scale(74.25 74.25) rotate(60)" class="white"/>
<use xlink:href="#ray" transform="translate(144 99) scale(74.25 74.25) rotate(90)" class="white"/>
<use xlink:href="#ray" transform="translate(144 99) scale(74.25 74.25) rotate(120)" class="white"/>
<use xlink:href="#ray" transform="translate(144 99) scale(74.25 74.25) rotate(150)" class="white"/>
<use xlink:href="#ray" transform="translate(144 99) scale(74.25 74.25) rotate(180)" class="white"/>
<use xlink:href="#ray" transform="translate(144 99) scale(74.25 74.25) rotate(210)" class="white"/>
<use xlink:href="#ray" transform="translate(144 99) scale(74.25 74.25) rotate(240)" class="white"/>
<use xlink:href="#ray" transform="translate(144 99) scale(74.25 74.25) rotate(270)" class="white"/>
<use xlink:href="#ray" transform="translate(144 99) scale(74.25 74.25) rotate(300)" class="white"/>
<use xlink:href="#ray" transform="translate(144 99) scale(74.25 74.25) rotate(330)" class="white"/>
</g>
<ellipse cx="144" cy="99" rx="42.0531" ry="42.0531" class="blue"/>
<ellipse cx="144" cy="99" rx="37.4535" ry="37.4535" class="white"/>
</g>
</svg>
