<?xml version="1.0"?>
<svg xmlns="http://www.w3.org/2000/svg" xmlns:xlink="http://www.w3.org/1999/xlink" version="1.1" width="576" height="396" viewBox="0 0 576 396">
<!-- Generated by Kreative Vexillo v1.0 -->
<style>
.blue{fill:rgb(15,32,75);}
.yellow{fill:rgb(255,182,18);}
</style>
<defs>
<path id="star" d="M 0.0 -1.0 L 0.2245 -0.309 L 0.9511 -0.309 L 0.3633 0.118 L 0.5878 0.809 L 0.0 0.382 L -0.5878 0.809 L -0.3633 0.118 L -0.9511 -0.309 L -0.2245 -0.309 Z"/>
</defs>
<g>
<rect x="0" y="0" width="576" height="396" class="blue"/>
<use xlink:href="#star" transform="translate(471.0508 72.072) scale(20.592 20.592) rotate(0)" class="yellow"/>
<use xlink:href="#star" transform="translate(93.1525 156.816) scale(12.276 12.276) rotate(0)" class="yellow"/>
<use xlink:href="#star" transform="translate(161.0847 181.368) scale(12.276 12.276) rotate(0)" class="yellow"/>
<use xlink:href="#star" transform="translate(194.8475 216.612) scale(12.276 12.276) rotate(0)" class="yellow"/>
<use xlink:href="#star" transform="translate(229.0169 253.44) scale(12.276 12.276) rotate(0)" class="yellow"/>
<use xlink:href="#star" transform="translate(330.7119 288.684) scale(12.276 12.276) rotate(0)" class="yellow"/>
<use xlink:href="#star" transform="translate(224.5424 305.316) scale(12.276 12.276) rotate(0)" class="yellow"/>
<use xlink:href="#star" transform="translate(301.0169 329.868) scale(12.276 12.276) rotate(0)" class="yellow"/>
</g>
</svg>
