<?xml version="1.0"?>
<svg xmlns="http://www.w3.org/2000/svg" xmlns:xlink="http://www.w3.org/1999/xlink" version="1.1" width="576" height="396" viewBox="0 0 576 396">
<!-- Generated by Kreative Vexillo v1.0 -->
<style>
.blue{fill:rgb(179,221,242);}
.red{fill:rgb(255,0,0);}
.white{fill:rgb(255,255,255);}
</style>
<defs>
<path id="star" d="M 0.0 -1.0 L 0.183333 -0.317543 L 0.866025 -0.5 L 0.366667 -0.0 L 0.866025 0.5 L 0.183334 0.317543 L 0.0 1.0 L -0.183333 0.317543 L -0.866025 0.5 L -0.366667 0.0 L -0.866025 -0.5 L -0.183334 -0.317543 Z"/>
</defs>
<g>
<g>
<rect x="0" y="0" width="576" height="66" class="white"/>
<rect x="0" y="66" width="576" height="66" class="blue"/>
<rect x="0" y="132" width="576" height="132" class="white"/>
<rect x="0" y="264" width="576" height="66" class="blue"/>
<rect x="0" y="330" width="576" height="66" class="white"/>
</g>
<use xlink:href="#star" transform="translate(120 198) scale(49.5 49.5) rotate(0)" class="red"/>
<use xlink:href="#star" transform="translate(232 198) scale(49.5 49.5) rotate(0)" class="red"/>
<use xlink:href="#star" transform="translate(344 198) scale(49.5 49.5) rotate(0)" class="red"/>
<use xlink:href="#star" transform="translate(456 198) scale(49.5 49.5) rotate(0)" class="red"/>
</g>
</svg>
