<?xml version="1.0"?>
<svg xmlns="http://www.w3.org/2000/svg" xmlns:xlink="http://www.w3.org/1999/xlink" version="1.1" width="576" height="396" viewBox="0 0 576 396">
<!-- Generated by Kreative Vexillo v1.0 -->
<style>
.blue{fill:rgb(0,40,104);}
.red{fill:rgb(191,10,48);}
.white{fill:rgb(255,255,255);}
</style>
<defs>
<path id="star" d="M 0.0 -1.0 L 0.2245 -0.309 L 0.9511 -0.309 L 0.3633 0.118 L 0.5878 0.809 L 0.0 0.382 L -0.5878 0.809 L -0.3633 0.118 L -0.9511 -0.309 L -0.2245 -0.309 Z"/>
</defs>
<g>
<g>
<rect x="0" y="0" width="576" height="132" class="blue"/>
<rect x="0" y="132" width="576" height="132" class="white"/>
<rect x="0" y="264" width="576" height="132" class="red"/>
</g>
<rect x="0" y="0" width="264" height="264" class="white"/>
<rect x="0" y="0" width="257.5612" height="257.5612" class="red"/>
<path d="M 0 0 L 0 36.4246 L 92.3559 128.7806 L 0 221.1365 L 0 221.1365 L 0 257.5612 L 36.4246 257.5612 L 128.7806 165.2052 L 128.7806 165.2052 L 221.1365 257.5612 L 257.5612 257.5612 L 257.5612 221.1365 L 165.2052 128.7806 L 257.5612 36.4246 L 257.5612 0 L 221.1365 0 L 128.7806 92.3559 L 36.4246 0 Z" class="white"/>
<path d="M 0 0 L 0 27.3185 L 0 27.3185 L 101.4621 128.7806 L 0 230.2427 L 0 257.5612 L 27.3185 257.5612 L 128.7806 156.0991 L 230.2427 257.5612 L 257.5612 257.5612 L 257.5612 230.2427 L 156.0991 128.7806 L 257.5612 27.3185 L 257.5612 0 L 230.2427 0 L 128.7806 101.4621 L 27.3185 0 Z" class="blue"/>
<use xlink:href="#star" transform="translate(128.7806 128.7806) scale(12.8781 12.8781) rotate(0)" class="white"/>
<g>
<use xlink:href="#star" transform="translate(94.4391 94.4391) scale(12.8781 12.8781) rotate(0)" class="white"/>
<use xlink:href="#star" transform="translate(163.1221 94.4391) scale(12.8781 12.8781) rotate(0)" class="white"/>
<use xlink:href="#star" transform="translate(94.4391 163.1221) scale(12.8781 12.8781) rotate(0)" class="white"/>
<use xlink:href="#star" transform="translate(163.1221 163.1221) scale(12.8781 12.8781) rotate(0)" class="white"/>
<use xlink:href="#star" transform="translate(60.0976 60.0976) scale(12.8781 12.8781) rotate(0)" class="white"/>
<use xlink:href="#star" transform="translate(197.4636 60.0976) scale(12.8781 12.8781) rotate(0)" class="white"/>
<use xlink:href="#star" transform="translate(60.0976 197.4636) scale(12.8781 12.8781) rotate(0)" class="white"/>
<use xlink:href="#star" transform="translate(197.4636 197.4636) scale(12.8781 12.8781) rotate(0)" class="white"/>
<use xlink:href="#star" transform="translate(25.7561 25.7561) scale(12.8781 12.8781) rotate(0)" class="white"/>
<use xlink:href="#star" transform="translate(231.8051 25.7561) scale(12.8781 12.8781) rotate(0)" class="white"/>
<use xlink:href="#star" transform="translate(25.7561 231.8051) scale(12.8781 12.8781) rotate(0)" class="white"/>
<use xlink:href="#star" transform="translate(231.8051 231.8051) scale(12.8781 12.8781) rotate(0)" class="white"/>
</g>
</g>
</svg>
