<?xml version="1.0"?>
<svg xmlns="http://www.w3.org/2000/svg" xmlns:xlink="http://www.w3.org/1999/xlink" version="1.1" width="576" height="396" viewBox="0 0 576 396">
<!-- Generated by Kreative Vexillo v1.0 -->
<style>
.black{fill:rgb(0,0,0);}
.red{fill:rgb(152,30,50);}
.white{fill:rgb(255,255,255);}
.yellow{fill:rgb(234,171,0);}
</style>
<defs>
<path id="hcross" d="M -0.5 0.5 V 0.98440003 C -0.5 1.2605001 -0.2762 1.4844 0.0 1.4844 S 0.5 1.2605001 0.5 0.98440003 V 0.5 H 0.9375 C 1.2137 0.5 1.4375 0.27609998 1.4375 0.0 S 1.2137 -0.5 0.9375 -0.5 H 0.5 V -0.98440003 C 0.5 -1.2605001 0.2762 -1.4844 0.0 -1.4844 S -0.5 -1.2605001 -0.5 -0.98440003 V -0.5 V 0.5 Z"/>
<path id="vcross" d="M 0.5 0.5 H 0.98440003 C 1.2606001 0.5 1.4844 0.27609998 1.4844 0.0 S 1.2606001 -0.5 0.98440003 -0.5 H 0.5 V -0.75 C 0.5 -1.0261 0.2762 -1.25 0.0 -1.25 S -0.5 -1.0261 -0.5 -0.75 V -0.5 H -0.98440003 C -1.2606001 -0.5 -1.4844 -0.27609998 -1.4844 0.0 S -1.2606001 0.5 -0.98440003 0.5 H -0.5 H 0.5 Z"/>
<clipPath id="clip0">
<path d="M 0 0 L 48 0 L 576 363 L 576 396 L 528 396 L 0 33 Z"/>
</clipPath>
<clipPath id="clip1">
<rect x="0" y="198" width="144" height="99"/>
<rect x="144" y="297" width="144" height="99"/>
<rect x="288" y="0" width="144" height="99"/>
<rect x="432" y="99" width="144" height="99"/>
</clipPath>
<clipPath id="clip2">
<rect x="144" y="198" width="144" height="99"/>
<rect x="0" y="297" width="144" height="99"/>
<rect x="432" y="0" width="144" height="99"/>
<rect x="288" y="99" width="144" height="99"/>
</clipPath>
</defs>
<g>
<g>
<g>
<rect x="0" y="0" width="48" height="396" class="yellow"/>
<rect x="48" y="0" width="48" height="396" class="black"/>
<rect x="96" y="0" width="48" height="396" class="yellow"/>
<rect x="144" y="0" width="48" height="396" class="black"/>
<rect x="192" y="0" width="48" height="396" class="yellow"/>
<rect x="240" y="0" width="48" height="396" class="black"/>
<rect x="288" y="0" width="48" height="396" class="yellow"/>
<rect x="336" y="0" width="48" height="396" class="black"/>
<rect x="384" y="0" width="48" height="396" class="yellow"/>
<rect x="432" y="0" width="48" height="396" class="black"/>
<rect x="480" y="0" width="48" height="396" class="yellow"/>
<rect x="528" y="0" width="48" height="396" class="black"/>
</g>
<g clip-path="url(#clip0)">
<g>
<rect x="0" y="0" width="48" height="396" class="black"/>
<rect x="48" y="0" width="48" height="396" class="yellow"/>
<rect x="96" y="0" width="48" height="396" class="black"/>
<rect x="144" y="0" width="48" height="396" class="yellow"/>
<rect x="192" y="0" width="48" height="396" class="black"/>
<rect x="240" y="0" width="48" height="396" class="yellow"/>
<rect x="288" y="0" width="48" height="396" class="black"/>
<rect x="336" y="0" width="48" height="396" class="yellow"/>
<rect x="384" y="0" width="48" height="396" class="black"/>
<rect x="432" y="0" width="48" height="396" class="yellow"/>
<rect x="480" y="0" width="48" height="396" class="black"/>
<rect x="528" y="0" width="48" height="396" class="yellow"/>
</g>
</g>
</g>
<g>
<rect x="0" y="198" width="144" height="99" class="white"/>
<rect x="144" y="198" width="144" height="99" class="red"/>
<rect x="0" y="297" width="144" height="99" class="red"/>
<rect x="144" y="297" width="144" height="99" class="white"/>
</g>
<g>
<rect x="288" y="0" width="144" height="99" class="white"/>
<rect x="432" y="0" width="144" height="99" class="red"/>
<rect x="288" y="99" width="144" height="99" class="red"/>
<rect x="432" y="99" width="144" height="99" class="white"/>
</g>
<g clip-path="url(#clip1)">
<g>
<rect x="43.2" y="284.328" width="201.6" height="25.344" class="red"/>
<rect x="131.328" y="243.54" width="25.344" height="106.92" class="red"/>
</g>
<g>
<rect x="331.2" y="86.328" width="201.6" height="25.344" class="red"/>
<rect x="419.328" y="45.54" width="25.344" height="106.92" class="red"/>
</g>
<use xlink:href="#hcross" transform="translate(244.8 297) scale(25.344 25.344) rotate(0)" class="red"/>
<use xlink:href="#hcross" transform="translate(43.2 297) scale(25.344 25.344) rotate(180)" class="red"/>
<use xlink:href="#hcross" transform="translate(532.8 99) scale(25.344 25.344) rotate(0)" class="red"/>
<use xlink:href="#hcross" transform="translate(331.2 99) scale(25.344 25.344) rotate(180)" class="red"/>
<use xlink:href="#vcross" transform="translate(144 243.54) scale(25.344 25.344) rotate(0)" class="red"/>
<use xlink:href="#vcross" transform="translate(144 350.46) scale(25.344 25.344) rotate(180)" class="red"/>
<use xlink:href="#vcross" transform="translate(432 45.54) scale(25.344 25.344) rotate(0)" class="red"/>
<use xlink:href="#vcross" transform="translate(432 152.46) scale(25.344 25.344) rotate(180)" class="red"/>
</g>
<g clip-path="url(#clip2)">
<g>
<rect x="43.2" y="284.328" width="201.6" height="25.344" class="white"/>
<rect x="131.328" y="243.54" width="25.344" height="106.92" class="white"/>
</g>
<g>
<rect x="331.2" y="86.328" width="201.6" height="25.344" class="white"/>
<rect x="419.328" y="45.54" width="25.344" height="106.92" class="white"/>
</g>
<use xlink:href="#hcross" transform="translate(244.8 297) scale(25.344 25.344) rotate(0)" class="white"/>
<use xlink:href="#hcross" transform="translate(43.2 297) scale(25.344 25.344) rotate(180)" class="white"/>
<use xlink:href="#hcross" transform="translate(532.8 99) scale(25.344 25.344) rotate(0)" class="white"/>
<use xlink:href="#hcross" transform="translate(331.2 99) scale(25.344 25.344) rotate(180)" class="white"/>
<use xlink:href="#vcross" transform="translate(144 243.54) scale(25.344 25.344) rotate(0)" class="white"/>
<use xlink:href="#vcross" transform="translate(144 350.46) scale(25.344 25.344) rotate(180)" class="white"/>
<use xlink:href="#vcross" transform="translate(432 45.54) scale(25.344 25.344) rotate(0)" class="white"/>
<use xlink:href="#vcross" transform="translate(432 152.46) scale(25.344 25.344) rotate(180)" class="white"/>
</g>
</g>
</svg>
