<?xml version="1.0"?>
<svg xmlns="http://www.w3.org/2000/svg" xmlns:xlink="http://www.w3.org/1999/xlink" version="1.1" width="576" height="396" viewBox="0 0 576 396">
<!-- Generated by Kreative Vexillo v1.0 -->
<style>
.blue{fill:rgb(0,28,90);}
.red{fill:rgb(193,19,61);}
.white{fill:rgb(255,255,255);}
</style>
<defs>
<path id="-glazearea" d="M 0.0 0.0 L 1.0 0.1875 L 0.7692308 0.5 L 1.0 0.8125 L 0.0 1.0 Z"/>
<path id="star" d="M 0.0 -1.0 L 0.2245 -0.309 L 0.9511 -0.309 L 0.3633 0.118 L 0.5878 0.809 L 0.0 0.382 L -0.5878 0.809 L -0.3633 0.118 L -0.9511 -0.309 L -0.2245 -0.309 Z"/>
<clipPath id="clip0">
<use xlink:href="#-glazearea" transform="translate(0 0) scale(576 396) rotate(0)"/>
</clipPath>
</defs>
<g>
<g clip-path="url(#clip0)">
<rect x="0" y="0" width="576" height="396" class="white"/>
<path d="M 6.3285 -49.0938 L 6.3285 -49.0938 L 1158.3285 99.4062 L 1145.6715 197.5938 L -6.3285 49.0938 Z" class="red"/>
<path d="M 0 173.25 L 0 173.25 L 576 173.25 L 576 222.75 L 0 222.75 Z" class="red"/>
<path d="M -6.3285 346.9062 L -6.3285 346.9062 L 1145.6715 198.4062 L 1158.3285 296.5938 L 6.3285 445.0938 Z" class="red"/>
</g>
<path d="M 0 0 L 354.4615 198 L 0 396 Z" class="blue"/>
<ellipse cx="109.5346" cy="198" rx="65.7208" ry="65.7208" class="white"/>
<ellipse cx="109.5346" cy="198" rx="43.8139" ry="43.8139" class="red"/>
<g>
<use xlink:href="#star" transform="translate(156.0957 272.234) scale(14.6046 14.6046) rotate(-212.0968)" class="white"/>
<use xlink:href="#star" transform="translate(111.9395 285.5947) scale(14.6046 14.6046) rotate(-181.5726)" class="white"/>
<use xlink:href="#star" transform="translate(67.1166 274.6768) scale(14.6046 14.6046) rotate(-151.0484)" class="white"/>
<use xlink:href="#star" transform="translate(34.0508 242.5063) scale(14.6046 14.6046) rotate(-120.5242)" class="white"/>
<use xlink:href="#star" transform="translate(21.9069 198) scale(14.6046 14.6046) rotate(-90)" class="white"/>
<use xlink:href="#star" transform="translate(34.0508 153.4937) scale(14.6046 14.6046) rotate(-59.4758)" class="white"/>
<use xlink:href="#star" transform="translate(67.1166 121.3232) scale(14.6046 14.6046) rotate(-28.9516)" class="white"/>
<use xlink:href="#star" transform="translate(111.9395 110.4053) scale(14.6046 14.6046) rotate(1.5726)" class="white"/>
<use xlink:href="#star" transform="translate(156.0957 123.766) scale(14.6046 14.6046) rotate(32.0968)" class="white"/>
</g>
<g>
<g>
<use xlink:href="#star" transform="translate(26.5908 299.9666) scale(14.6046 14.6046) rotate(-140.8737)" class="white"/>
<use xlink:href="#star" transform="translate(67.2258 322.4462) scale(14.6046 14.6046) rotate(-161.2231)" class="white"/>
</g>
<g>
<use xlink:href="#star" transform="translate(26.5908 96.0334) scale(14.6046 14.6046) rotate(-39.1263)" class="white"/>
<use xlink:href="#star" transform="translate(67.2258 73.5538) scale(14.6046 14.6046) rotate(-18.7769)" class="white"/>
</g>
</g>
<use xlink:href="#star" transform="translate(197.1624 198) scale(14.6046 14.6046) rotate(90)" class="white"/>
<use xlink:href="#star" transform="translate(284.7901 198) scale(14.6046 14.6046) rotate(90)" class="white"/>
<g>
<use xlink:href="#star" transform="translate(238.9091 174.7808) scale(14.6046 14.6046) rotate(79.8253)" class="white"/>
<use xlink:href="#star" transform="translate(238.9091 221.2192) scale(14.6046 14.6046) rotate(100.1747)" class="white"/>
</g>
</g>
</svg>
