<?xml version="1.0"?>
<svg xmlns="http://www.w3.org/2000/svg" xmlns:xlink="http://www.w3.org/1999/xlink" version="1.1" width="576" height="396" viewBox="0 0 576 396">
<!-- Generated by Kreative Vexillo v1.0 -->
<style>
.blue{fill:rgb(54,97,173);}
.gold{fill:rgb(255,204,45);}
.red{fill:rgb(219,47,50);}
.white{fill:rgb(255,255,255);}
</style>
<defs>
<path id="compass" d="M 0.315 0.0573 L 0.3386 0.224 L 0.3928 0.18 L 0.3668 0.272 L 0.4664 0.3093 L 0.3664 0.3482 L 0.3939 0.4419 L 0.3366 0.3904 L 0.3147 0.5486 L 0.2938 0.3917 L 0.2334 0.4425 L 0.2631 0.3482 L 0.1631 0.3093 L 0.2641 0.2726 L 0.2367 0.1784 L 0.2928 0.2255 Z"/>
<path id="icecap" d="M 0.3939 0.442 L 0.3939 0.442 L 0.3387 0.3951 L 0.315 0.5637 L 0.2928 0.3951 L 0.2334 0.4425 L 0.2363 0.4377 L 0.3147 0.3088 Z"/>
<path id="mountains" d="M 0.0 0.8349 L 0.0 1.0 L 1.0 1.0 L 1.0 0.8349 L 0.8741 0.6589 L 0.7852 0.8009 L 0.5806 0.4568 L 0.4889 0.6049 L 0.3146 0.3059 Z"/>
</defs>
<g>
<rect x="0" y="0" width="576" height="396" class="blue"/>
<use xlink:href="#mountains" transform="translate(-42 0) scale(660 396) rotate(0)" class="red"/>
<use xlink:href="#compass" transform="translate(-42 0) scale(660 396) rotate(0)" class="gold"/>
<use xlink:href="#icecap" transform="translate(-42 0) scale(660 396) rotate(0)" class="white"/>
<rect x="0" y="350.416" width="576" height="14.3972" class="blue"/>
</g>
</svg>
