<?xml version="1.0"?>
<svg xmlns="http://www.w3.org/2000/svg" xmlns:xlink="http://www.w3.org/1999/xlink" version="1.1" width="576" height="396" viewBox="0 0 576 396">
<!-- Generated by Kreative Vexillo v1.0 -->
<style>
.blue{fill:rgb(75,146,219);}
.green{fill:rgb(0,105,60);}
.white{fill:rgb(255,255,255);}
.yellow{fill:rgb(255,182,18);}
</style>
<defs>
<clipPath id="clip0">
<rect x="200" y="148.5" width="99" height="99"/>
</clipPath>
</defs>
<g>
<rect x="0" y="0" width="576" height="396" class="green"/>
<path d="M 0 159.5 L 156 159.5 L 156 0 L 288 0 L 288 104.5 L 576 104.5 L 576 236.5 L 343 236.5 L 343 396 L 211 396 L 211 291.5 L 0 291.5 Z" class="white"/>
<path d="M 0 170.5 L 167 170.5 L 167 0 L 277 0 L 277 115.5 L 576 115.5 L 576 225.5 L 332 225.5 L 332 396 L 222 396 L 222 280.5 L 0 280.5 Z" class="yellow"/>
<path d="M 0 192.5 L 189 192.5 L 189 0 L 255 0 L 255 137.5 L 576 137.5 L 576 203.5 L 310 203.5 L 310 396 L 244 396 L 244 258.5 L 0 258.5 Z" class="white"/>
<path d="M 0 203.5 L 200 203.5 L 244 247.5 L 0 247.5 Z" class="blue"/>
<path d="M 200 0 L 244 0 L 244 148.5 L 200 192.5 Z" class="blue"/>
<path d="M 576 148.5 L 576 192.5 L 299 192.5 L 255 148.5 Z" class="blue"/>
<path d="M 255 396 L 255 247.5 L 299 203.5 L 299 396 Z" class="blue"/>
<g clip-path="url(#clip0)">
<ellipse cx="200" cy="148.5" rx="44" ry="44" class="blue"/>
<ellipse cx="299" cy="148.5" rx="44" ry="44" class="blue"/>
<ellipse cx="200" cy="247.5" rx="44" ry="44" class="blue"/>
<ellipse cx="299" cy="247.5" rx="44" ry="44" class="blue"/>
</g>
</g>
</svg>
