<?xml version="1.0"?>
<svg xmlns="http://www.w3.org/2000/svg" xmlns:xlink="http://www.w3.org/1999/xlink" version="1.1" width="576" height="396" viewBox="0 0 576 396">
<!-- Generated by Kreative Vexillo v1.0 -->
<style>
.blue{fill:rgb(60,59,110);}
.red{fill:rgb(178,34,52);}
.white{fill:rgb(255,255,255);}
</style>
<defs>
<path id="star" d="M 0.0 -1.0 L 0.2245 -0.309 L 0.9511 -0.309 L 0.3633 0.118 L 0.5878 0.809 L 0.0 0.382 L -0.5878 0.809 L -0.3633 0.118 L -0.9511 -0.309 L -0.2245 -0.309 Z"/>
</defs>
<g>
<g>
<rect x="0" y="0" width="576" height="30.4615" class="red"/>
<rect x="0" y="30.4615" width="576" height="30.4615" class="white"/>
<rect x="0" y="60.9231" width="576" height="30.4615" class="red"/>
<rect x="0" y="91.3846" width="576" height="30.4615" class="white"/>
<rect x="0" y="121.8462" width="576" height="30.4615" class="red"/>
<rect x="0" y="152.3077" width="576" height="30.4615" class="white"/>
<rect x="0" y="182.7692" width="576" height="30.4615" class="red"/>
<rect x="0" y="213.2308" width="576" height="30.4615" class="white"/>
<rect x="0" y="243.6923" width="576" height="30.4615" class="red"/>
<rect x="0" y="274.1538" width="576" height="30.4615" class="white"/>
<rect x="0" y="304.6154" width="576" height="30.4615" class="red"/>
<rect x="0" y="335.0769" width="576" height="30.4615" class="white"/>
<rect x="0" y="365.5385" width="576" height="30.4615" class="red"/>
</g>
<rect x="0" y="0" width="300.96" height="213.2308" class="blue"/>
<g>
<g>
<use xlink:href="#star" transform="translate(25.08 21.3231) scale(12.1846 12.1846) rotate(0)" class="white"/>
<use xlink:href="#star" transform="translate(75.24 21.3231) scale(12.1846 12.1846) rotate(0)" class="white"/>
<use xlink:href="#star" transform="translate(125.4 21.3231) scale(12.1846 12.1846) rotate(0)" class="white"/>
<use xlink:href="#star" transform="translate(175.56 21.3231) scale(12.1846 12.1846) rotate(0)" class="white"/>
<use xlink:href="#star" transform="translate(225.72 21.3231) scale(12.1846 12.1846) rotate(0)" class="white"/>
<use xlink:href="#star" transform="translate(275.88 21.3231) scale(12.1846 12.1846) rotate(0)" class="white"/>
</g>
<g>
<use xlink:href="#star" transform="translate(25.08 63.9692) scale(12.1846 12.1846) rotate(0)" class="white"/>
<use xlink:href="#star" transform="translate(75.24 63.9692) scale(12.1846 12.1846) rotate(0)" class="white"/>
<use xlink:href="#star" transform="translate(125.4 63.9692) scale(12.1846 12.1846) rotate(0)" class="white"/>
<use xlink:href="#star" transform="translate(175.56 63.9692) scale(12.1846 12.1846) rotate(0)" class="white"/>
<use xlink:href="#star" transform="translate(225.72 63.9692) scale(12.1846 12.1846) rotate(0)" class="white"/>
<use xlink:href="#star" transform="translate(275.88 63.9692) scale(12.1846 12.1846) rotate(0)" class="white"/>
</g>
<g>
<use xlink:href="#star" transform="translate(25.08 106.6154) scale(12.1846 12.1846) rotate(0)" class="white"/>
<use xlink:href="#star" transform="translate(75.24 106.6154) scale(12.1846 12.1846) rotate(0)" class="white"/>
<use xlink:href="#star" transform="translate(125.4 106.6154) scale(12.1846 12.1846) rotate(0)" class="white"/>
<use xlink:href="#star" transform="translate(175.56 106.6154) scale(12.1846 12.1846) rotate(0)" class="white"/>
<use xlink:href="#star" transform="translate(225.72 106.6154) scale(12.1846 12.1846) rotate(0)" class="white"/>
<use xlink:href="#star" transform="translate(275.88 106.6154) scale(12.1846 12.1846) rotate(0)" class="white"/>
</g>
<g>
<use xlink:href="#star" transform="translate(25.08 149.2615) scale(12.1846 12.1846) rotate(0)" class="white"/>
<use xlink:href="#star" transform="translate(75.24 149.2615) scale(12.1846 12.1846) rotate(0)" class="white"/>
<use xlink:href="#star" transform="translate(125.4 149.2615) scale(12.1846 12.1846) rotate(0)" class="white"/>
<use xlink:href="#star" transform="translate(175.56 149.2615) scale(12.1846 12.1846) rotate(0)" class="white"/>
<use xlink:href="#star" transform="translate(225.72 149.2615) scale(12.1846 12.1846) rotate(0)" class="white"/>
<use xlink:href="#star" transform="translate(275.88 149.2615) scale(12.1846 12.1846) rotate(0)" class="white"/>
</g>
<g>
<use xlink:href="#star" transform="translate(25.08 191.9077) scale(12.1846 12.1846) rotate(0)" class="white"/>
<use xlink:href="#star" transform="translate(75.24 191.9077) scale(12.1846 12.1846) rotate(0)" class="white"/>
<use xlink:href="#star" transform="translate(125.4 191.9077) scale(12.1846 12.1846) rotate(0)" class="white"/>
<use xlink:href="#star" transform="translate(175.56 191.9077) scale(12.1846 12.1846) rotate(0)" class="white"/>
<use xlink:href="#star" transform="translate(225.72 191.9077) scale(12.1846 12.1846) rotate(0)" class="white"/>
<use xlink:href="#star" transform="translate(275.88 191.9077) scale(12.1846 12.1846) rotate(0)" class="white"/>
</g>
</g>
<g>
<g>
<use xlink:href="#star" transform="translate(50.16 42.6462) scale(12.1846 12.1846) rotate(0)" class="white"/>
<use xlink:href="#star" transform="translate(100.32 42.6462) scale(12.1846 12.1846) rotate(0)" class="white"/>
<use xlink:href="#star" transform="translate(150.48 42.6462) scale(12.1846 12.1846) rotate(0)" class="white"/>
<use xlink:href="#star" transform="translate(200.64 42.6462) scale(12.1846 12.1846) rotate(0)" class="white"/>
<use xlink:href="#star" transform="translate(250.8 42.6462) scale(12.1846 12.1846) rotate(0)" class="white"/>
</g>
<g>
<use xlink:href="#star" transform="translate(50.16 85.2923) scale(12.1846 12.1846) rotate(0)" class="white"/>
<use xlink:href="#star" transform="translate(100.32 85.2923) scale(12.1846 12.1846) rotate(0)" class="white"/>
<use xlink:href="#star" transform="translate(150.48 85.2923) scale(12.1846 12.1846) rotate(0)" class="white"/>
<use xlink:href="#star" transform="translate(200.64 85.2923) scale(12.1846 12.1846) rotate(0)" class="white"/>
<use xlink:href="#star" transform="translate(250.8 85.2923) scale(12.1846 12.1846) rotate(0)" class="white"/>
</g>
<g>
<use xlink:href="#star" transform="translate(50.16 127.9385) scale(12.1846 12.1846) rotate(0)" class="white"/>
<use xlink:href="#star" transform="translate(100.32 127.9385) scale(12.1846 12.1846) rotate(0)" class="white"/>
<use xlink:href="#star" transform="translate(150.48 127.9385) scale(12.1846 12.1846) rotate(0)" class="white"/>
<use xlink:href="#star" transform="translate(200.64 127.9385) scale(12.1846 12.1846) rotate(0)" class="white"/>
<use xlink:href="#star" transform="translate(250.8 127.9385) scale(12.1846 12.1846) rotate(0)" class="white"/>
</g>
<g>
<use xlink:href="#star" transform="translate(50.16 170.5846) scale(12.1846 12.1846) rotate(0)" class="white"/>
<use xlink:href="#star" transform="translate(100.32 170.5846) scale(12.1846 12.1846) rotate(0)" class="white"/>
<use xlink:href="#star" transform="translate(150.48 170.5846) scale(12.1846 12.1846) rotate(0)" class="white"/>
<use xlink:href="#star" transform="translate(200.64 170.5846) scale(12.1846 12.1846) rotate(0)" class="white"/>
<use xlink:href="#star" transform="translate(250.8 170.5846) scale(12.1846 12.1846) rotate(0)" class="white"/>
</g>
</g>
</g>
</svg>
