<?xml version="1.0"?>
<svg xmlns="http://www.w3.org/2000/svg" xmlns:xlink="http://www.w3.org/1999/xlink" version="1.1" width="576" height="396" viewBox="0 0 576 396">
<!-- Generated by Kreative Vexillo v1.0 -->
<style>
.blue{fill:rgb(0,103,177);}
.red{fill:rgb(239,65,53);}
.white{fill:rgb(255,255,255);}
.yellow{fill:rgb(255,242,3);}
</style>
<defs>
<path id="star" d="M 0.0 -1.0 L 0.2245 -0.309 L 0.9511 -0.309 L 0.3633 0.118 L 0.5878 0.809 L 0.0 0.382 L -0.5878 0.809 L -0.3633 0.118 L -0.9511 -0.309 L -0.2245 -0.309 Z"/>
</defs>
<g>
<g>
<rect x="0" y="0" width="576" height="132" class="yellow"/>
<rect x="0" y="132" width="576" height="132" class="blue"/>
<rect x="0" y="264" width="576" height="132" class="red"/>
</g>
<g>
<use xlink:href="#star" transform="translate(182.5469 235.0162) scale(16.5 16.5) rotate(-72)" class="white"/>
<use xlink:href="#star" transform="translate(201.3105 200.1475) scale(16.5 16.5) rotate(-51.4286)" class="white"/>
<use xlink:href="#star" transform="translate(231.1297 174.0952) scale(16.5 16.5) rotate(-30.8571)" class="white"/>
<use xlink:href="#star" transform="translate(268.2016 160.1819) scale(16.5 16.5) rotate(-10.2857)" class="white"/>
<use xlink:href="#star" transform="translate(307.7984 160.1819) scale(16.5 16.5) rotate(10.2857)" class="white"/>
<use xlink:href="#star" transform="translate(344.8703 174.0952) scale(16.5 16.5) rotate(30.8571)" class="white"/>
<use xlink:href="#star" transform="translate(374.6895 200.1475) scale(16.5 16.5) rotate(51.4286)" class="white"/>
<use xlink:href="#star" transform="translate(393.4531 235.0162) scale(16.5 16.5) rotate(72)" class="white"/>
</g>
</g>
</svg>
