<?xml version="1.0"?>
<svg xmlns="http://www.w3.org/2000/svg" xmlns:xlink="http://www.w3.org/1999/xlink" version="1.1" width="576" height="396" viewBox="0 0 576 396">
<!-- Generated by Kreative Vexillo v1.0 -->
<style>
.black{fill:rgb(0,0,0);}
.red{fill:rgb(220,0,0);}
.white{fill:rgb(255,255,255);}
</style>
<defs>
<path id="empire" d="M 0.162 -0.242 C 0.105 -0.148 0.054 -0.094 -0.0020 0.0 C -0.057 -0.096 -0.117 -0.152 -0.171 -0.248 C -0.166 -0.295 -0.108 -0.262 0.0 -1.0 C 0.096 -0.268 0.149 -0.301 0.162 -0.242 Z M -0.434 0.205 C -0.346 0.113 -0.29299998 0.051 -0.035999984 0.033999994 C -0.079 -0.032 -0.158 -0.124 -0.201 -0.189 C -0.247 -0.099 -0.45 -0.1 -0.434 0.205 Z M 0.195 -0.197 C 0.145 -0.126 0.083 -0.04 0.033 0.031 C 0.205 0.137 0.41 0.149 0.49 0.037 C 0.387 0.028 0.279 -0.024 0.195 -0.197 Z"/>
</defs>
<g>
<rect x="0" y="0" width="576" height="396" class="red"/>
<ellipse cx="288" cy="212.256" rx="121.176" ry="121.176" class="white"/>
<use xlink:href="#empire" transform="translate(288 287.496) scale(260.568 260.568) rotate(0)" class="black"/>
</g>
</svg>
