<?xml version="1.0"?>
<svg xmlns="http://www.w3.org/2000/svg" xmlns:xlink="http://www.w3.org/1999/xlink" version="1.1" width="576" height="396" viewBox="0 0 576 396">
<!-- Generated by Kreative Vexillo v1.0 -->
<style>
.black{fill:rgb(89,89,89);}
.blue{fill:rgb(123,194,224);}
.green{fill:rgb(59,176,125);}
.red{fill:rgb(207,114,128);}
.white{fill:rgb(232,232,232);}
.yellow{fill:rgb(238,222,119);}
</style>
<defs>
<clipPath id="clip0">
<path d="M 0 0 L 576 396 L 0 396 Z"/>
</clipPath>
<clipPath id="clip1">
<path d="M 0 0 L 576 0 L 576 396 Z"/>
</clipPath>
</defs>
<g>
<rect x="0" y="0" width="576" height="396" class="black"/>
<g clip-path="url(#clip0)">
<path d="M 56.0864 -81.5802 L 56.0864 -81.5802 L 632.0864 314.4198 L 519.9136 477.5802 L -56.0864 81.5802 Z" class="red"/>
<path d="M 33.6518 -48.9481 L 33.6518 -48.9481 L 609.6518 347.0519 L 542.3482 444.9481 L -33.6518 48.9481 Z" class="yellow"/>
</g>
<g clip-path="url(#clip1)">
<path d="M 56.0864 -81.5802 L 56.0864 -81.5802 L 632.0864 314.4198 L 519.9136 477.5802 L -56.0864 81.5802 Z" class="green"/>
<path d="M 33.6518 -48.9481 L 33.6518 -48.9481 L 609.6518 347.0519 L 542.3482 444.9481 L -33.6518 48.9481 Z" class="blue"/>
</g>
<path d="M 11.2173 -16.316 L 11.2173 -16.316 L 587.2173 379.684 L 564.7827 412.316 L -11.2173 16.316 Z" class="white"/>
</g>
</svg>
