<?xml version="1.0"?>
<svg xmlns="http://www.w3.org/2000/svg" xmlns:xlink="http://www.w3.org/1999/xlink" version="1.1" width="576" height="396" viewBox="0 0 576 396">
<!-- Generated by Kreative Vexillo v1.0 -->
<style>
.blue{fill:rgb(0,181,204);}
.white{fill:rgb(255,255,255);}
</style>
<defs>
<path id="sun" d="M 0.4938 0.0782 C 0.43600002 0.083299994 0.38230002 0.036999997 0.32920003 0.025999997 C 0.32950002 0.023099996 0.32980004 0.020199997 0.33010003 0.017299997 C 0.38890004 0.013099996 0.46240002 0.042399995 0.5 -3.7252903E-9 C 0.4441 0.013999997 0.3842 -0.022700004 0.3303 -0.025700003 C 0.3301 -0.028700003 0.3298 -0.031700004 0.3295 -0.034700003 C 0.3868 -0.047700003 0.4634 -0.030600002 0.4939 -0.0782 C 0.4405 -0.055499997 0.3753 -0.0828 0.3213 -0.077 C 0.3205 -0.0798 0.3197 -0.0826 0.3189 -0.0854 C 0.3735 -0.1078 0.45279998 -0.1025 0.4756 -0.15450001 C 0.4255 -0.12310001 0.3551 -0.1412 0.3024 -0.12550001 C 0.3024 -0.12560001 0.3023 -0.12570001 0.3023 -0.12570001 C 0.30130002 -0.12810001 0.30040002 -0.13050002 0.2994 -0.13280001 C 0.3497 -0.16460001 0.4311 -0.17110002 0.4456 -0.22690001 C 0.4012 -0.18820001 0.3291 -0.1949 0.27960002 -0.17140001 C 0.27820003 -0.1737 0.27670002 -0.17600001 0.27530003 -0.17830001 C 0.32000002 -0.21740001 0.39900002 -0.23660001 0.40470004 -0.2938 C 0.36700004 -0.2488 0.29510003 -0.24399999 0.24980004 -0.21329999 C 0.24800004 -0.2154 0.24620004 -0.21749999 0.24440004 -0.21949999 C 0.28260005 -0.2649 0.35710004 -0.29619998 0.35380003 -0.3534 C 0.32370004 -0.3032 0.25370002 -0.2871 0.21370003 -0.24989998 C 0.21160002 -0.25169998 0.20950003 -0.25359997 0.20730002 -0.25539997 C 0.23810002 -0.30599996 0.30640003 -0.34849995 0.29410002 -0.40429997 C 0.2723 -0.35009998 0.20600002 -0.32329997 0.17220002 -0.28049996 C 0.16980003 -0.28199998 0.16740002 -0.28349996 0.16490002 -0.28489995 C 0.18750001 -0.33959994 0.24800003 -0.39209995 0.22720002 -0.44529995 C 0.2139 -0.3887 0.1529 -0.3519 0.1262 -0.3046 C 0.123600006 -0.3057 0.120900005 -0.3067 0.118200004 -0.3078 C 0.132 -0.36519998 0.1834 -0.4264 0.15460001 -0.4756 C 0.15060002 -0.41750002 0.096200004 -0.3717 0.07710001 -0.3208 C 0.074300006 -0.3215 0.07150001 -0.3221 0.06860001 -0.3228 C 0.073400006 -0.38160002 0.11440001 -0.45000002 0.07830001 -0.49400002 C 0.0833 -0.4359 0.0368 -0.3821 0.0259 -0.3288 C 0.023 -0.329 0.020100001 -0.3293 0.0172 -0.3295 C 0.012700001 -0.3884 0.0425 -0.4623 0.0 -0.5 C 0.0141 -0.4435 -0.0235 -0.3831 -0.0259 -0.3287 C -0.028800001 -0.3285 -0.0317 -0.3283 -0.0346 -0.328 C -0.0483 -0.3854 -0.0304 -0.4632 -0.0783 -0.4938 C -0.0555 -0.44020003 -0.0832 -0.37460002 -0.077 -0.32050002 C -0.0798 -0.31980002 -0.082499996 -0.31910002 -0.0853 -0.31840003 C -0.1079 -0.37300003 -0.1024 -0.45270002 -0.1546 -0.47550005 C -0.12369999 -0.42600006 -0.1409 -0.35670006 -0.12619999 -0.30430004 C -0.12879999 -0.30320004 -0.13139999 -0.30200005 -0.13399999 -0.30080003 C -0.16499999 -0.3512 -0.17189999 -0.4311 -0.22709998 -0.44550002 C -0.18869999 -0.40140003 -0.195 -0.32990003 -0.17199999 -0.28040004 C -0.17439999 -0.27890003 -0.1767 -0.27740005 -0.17909999 -0.27590004 C -0.2177 -0.3207 -0.237 -0.3989 -0.2939 -0.4045 C -0.24890001 -0.3668 -0.2441 -0.2949 -0.2134 -0.24960001 C -0.21550001 -0.24780001 -0.2176 -0.246 -0.2196 -0.2441 C -0.26500002 -0.2823 -0.2963 -0.3569 -0.35360003 -0.3535 C -0.30310002 -0.32320002 -0.28710002 -0.2526 -0.24950004 -0.21270001 C -0.25120005 -0.2106 -0.25290003 -0.20850001 -0.25460005 -0.2064 C -0.30570006 -0.23680001 -0.34830004 -0.3062 -0.40460005 -0.2938 C -0.34980005 -0.2717 -0.32300004 -0.2041 -0.27930003 -0.1707 C -0.28070003 -0.1684 -0.28200004 -0.1661 -0.28330004 -0.1638 C -0.33870006 -0.1857 -0.39180005 -0.24790001 -0.44560003 -0.22690001 C -0.38780004 -0.21360001 -0.35070002 -0.15050001 -0.30210003 -0.12460001 C -0.30310002 -0.122200005 -0.30410004 -0.11980001 -0.30500004 -0.117400005 C -0.36330003 -0.1302 -0.42570004 -0.1837 -0.47570002 -0.1544 C -0.41630003 -0.15030001 -0.36960003 -0.0934 -0.31730002 -0.075600006 C -0.31790003 -0.07310001 -0.31840003 -0.070700005 -0.31890002 -0.06820001 C -0.37860003 -0.07140001 -0.449 -0.11500001 -0.49400002 -0.07810001 C -0.43440002 -0.08340001 -0.3792 -0.03390001 -0.32450002 -0.024900012 C -0.32470003 -0.022500012 -0.3248 -0.02000001 -0.32490003 -0.017600011 C -0.38450003 -0.011100011 -0.46140003 -0.04360001 -0.50020003 -1.1175871E-8 C -0.44190004 -0.0146000115 -0.3794 0.02599999 -0.32380003 0.02609999 C -0.32360002 0.028499989 -0.32330003 0.030799989 -0.323 0.03319999 C -0.3808 0.04929999 -0.46240002 0.028799988 -0.49400002 0.07819999 C -0.43850002 0.05459999 -0.37010002 0.08519999 -0.3151 0.07629999 C -0.3145 0.07849999 -0.3138 0.08069999 -0.31320003 0.08299999 C -0.36780003 0.108299986 -0.45210004 0.10059999 -0.47570002 0.1546 C -0.42440003 0.122499995 -0.35160002 0.1423 -0.29860002 0.12439999 C -0.29770002 0.1265 -0.29670003 0.12849998 -0.29580003 0.13059999 C -0.3455 0.1644 -0.4306 0.1698 -0.4455 0.227 C -0.3996 0.1871 -0.3243 0.1955 -0.2747 0.1691 C -0.2735 0.171 -0.27229998 0.1728 -0.27109998 0.1747 C -0.31489998 0.21630001 -0.3987 0.2349 -0.40449998 0.2939 C -0.36529997 0.24710001 -0.28919998 0.24380001 -0.24439998 0.20970002 C -0.24299999 0.21130002 -0.24159998 0.21300001 -0.24009998 0.21460001 C -0.2767 0.2628 -0.357 0.29430002 -0.35349998 0.35360003 C -0.32199997 0.30110002 -0.24709998 0.286 -0.20819998 0.24500003 C -0.20659998 0.24640003 -0.20489998 0.24770004 -0.20329998 0.24900003 C -0.23179999 0.30250004 -0.30659997 0.34620002 -0.2938 0.4045 C -0.2709 0.3477 -0.199 0.32090002 -0.1671 0.2743 C -0.1653 0.2754 -0.1635 0.2764 -0.1616 0.27740002 C -0.1812 0.3348 -0.24859999 0.3898 -0.2268 0.44550002 C -0.213 0.38570002 -0.14609998 0.34800002 -0.121999994 0.29690003 C -0.12009999 0.29770005 -0.118099995 0.29840004 -0.11619999 0.29920003 C -0.1265 0.35910004 -0.1846 0.42400002 -0.15429999 0.47560003 C -0.1501 0.41430002 -0.08969999 0.36660004 -0.073999986 0.31230003 C -0.07199999 0.31280002 -0.069999985 0.3133 -0.06789999 0.31370002 C -0.068699986 0.37450004 -0.11589999 0.44770002 -0.07799999 0.49400002 C -0.08339999 0.43280002 -0.031199988 0.37620002 -0.024199985 0.32000002 C -0.022099985 0.32020003 -0.020099984 0.32040003 -0.017999984 0.32050002 C -0.009199984 0.3806 -0.044499986 0.46040002 2.0001642E-4 0.50020003 C -0.014699983 0.44060004 0.028000016 0.37660003 0.026100017 0.32000005 C 0.028200017 0.31980005 0.030300017 0.31970006 0.032300018 0.31950006 C 0.050300017 0.37750006 0.028000018 0.46180004 0.078400016 0.49400008 C 0.054400016 0.4375001 0.08640002 0.36770007 0.07580002 0.31220007 C 0.07780001 0.31170008 0.07980002 0.31130007 0.081800014 0.31080008 C 0.10860001 0.36530006 0.099900015 0.45180008 0.15460002 0.47570008 C 0.122100025 0.42380008 0.14270002 0.34990007 0.12370002 0.29670006 C 0.12570003 0.29590005 0.12760003 0.29510006 0.12950002 0.29420006 C 0.16440001 0.34390005 0.16930002 0.43050006 0.22700001 0.44560006 C 0.18690002 0.39950007 0.19560002 0.32350007 0.16870001 0.27400005 C 0.17050001 0.27290004 0.17230001 0.27170005 0.17410001 0.27060005 C 0.21620001 0.31430006 0.23460001 0.39880005 0.2939 0.40470004 C 0.24710001 0.36550003 0.24380001 0.28940004 0.20970002 0.24460004 C 0.21140002 0.24320005 0.21300001 0.24180004 0.21460001 0.24030004 C 0.2628 0.27690005 0.2942 0.35720003 0.35360003 0.35370004 C 0.30140004 0.32240003 0.28620002 0.24800004 0.24570003 0.20900004 C 0.24720003 0.20730004 0.24860004 0.20570004 0.25010002 0.20400004 C 0.3032 0.23290004 0.3467 0.30670005 0.40460002 0.29400003 C 0.34840003 0.27130002 0.32170004 0.20070003 0.27600002 0.16840003 C 0.2772 0.16650003 0.27840003 0.16460003 0.27960002 0.16260004 C 0.33630002 0.18310004 0.39060003 0.24860004 0.44560003 0.22710004 C 0.38680002 0.21360004 0.34950003 0.14850006 0.29960003 0.12340005 C 0.30050004 0.12130005 0.30140004 0.11910005 0.30220005 0.11690005 C 0.36120003 0.12860005 0.42480004 0.18430005 0.47560006 0.15450005 C 0.41660005 0.15040006 0.37020007 0.094300054 0.31830007 0.07610005 C 0.31910008 0.073600054 0.31990007 0.071000054 0.32060006 0.06850005 C 0.3799 0.0724 0.4493 0.1147 0.4938 0.0782 Z M 0.1857 0.0944 L 0.1127 0.059800003 L 0.0857 0.1359 L 0.058599997 0.059800006 L -0.0143 0.094500005 L 0.0203 0.021500006 L -0.0559 -0.0054999944 L 0.0202 -0.032599993 L -0.0145 -0.10559999 L 0.0585 -0.07089999 L 0.0855 -0.1471 L 0.1126 -0.071 L 0.1856 -0.1057 L 0.151 -0.032700002 L 0.22709998 -0.0057000015 L 0.151 0.021399999 L 0.1857 0.0944 Z M 0.0668 -0.2699 C -0.0792 -0.2699 -0.19749999 -0.1516 -0.19749999 -0.0056000054 C -0.19749999 0.14039999 -0.07919999 0.25869998 0.0668 0.25869998 C 0.1286 0.25869998 0.18540001 0.23739998 0.2304 0.20189998 C 0.17359999 0.265 0.0914 0.30469996 -2.0000339E-4 0.30469996 C -0.1715 0.30469996 -0.3104 0.16579996 -0.3104 -0.0055000484 S -0.17150001 -0.31570005 -2.0000339E-4 -0.31570005 C 0.0914 -0.31570005 0.1736 -0.27600005 0.2304 -0.21290006 C 0.1854 -0.2486 0.1286 -0.2699 0.0668 -0.2699 Z"/>
</defs>
<g>
<rect x="0" y="0" width="576" height="396" class="blue"/>
<use xlink:href="#sun" transform="translate(288 198) scale(237.6 237.6) rotate(0)" class="white"/>
</g>
</svg>
