<?xml version="1.0"?>
<svg xmlns="http://www.w3.org/2000/svg" xmlns:xlink="http://www.w3.org/1999/xlink" version="1.1" width="576" height="396" viewBox="0 0 576 396">
<!-- Generated by Kreative Vexillo v1.0 -->
<style>
.blue{fill:rgb(0,73,144);}
.white{fill:rgb(255,255,255);}
</style>
<defs>
<path id="compass" d="M 0.0012 0.5283 V 0.0036 L 0.096 0.098400004 L 0.4675 0.0157 C 0.4716 0.0157 0.4716 0.019499999 0.4675 0.019499999 L 0.1199 0.13 L 0.0012 0.5283 Z M 0.0683 0.4019 C 0.2344 0.3745 0.3687 0.2443 0.4003 0.07459998 L 0.36879998 0.08669998 C 0.33699998 0.22839998 0.22239998 0.343 0.076299995 0.37449998 L 0.0683 0.4019 Z"/>
</defs>
<g>
<rect x="0" y="0" width="576" height="396" class="blue"/>
<use xlink:href="#compass" transform="translate(288 198) scale(188.1 188.1) rotate(0)" class="white"/>
<use xlink:href="#compass" transform="translate(288 198) scale(188.1 188.1) rotate(90)" class="white"/>
<use xlink:href="#compass" transform="translate(288 198) scale(188.1 188.1) rotate(180)" class="white"/>
<use xlink:href="#compass" transform="translate(288 198) scale(188.1 188.1) rotate(270)" class="white"/>
<path d="M 285.7824 85.8 L 285.7824 85.8 L 285.7824 39.6 L 290.2176 39.6 L 290.2176 85.8 Z" class="white"/>
<path d="M 290.2176 310.2 L 290.2176 310.2 L 290.2176 356.4 L 285.7824 356.4 L 285.7824 310.2 Z" class="white"/>
<path d="M 175.8 200.2176 L 175.8 200.2176 L 39.6 200.2176 L 39.6 195.7824 L 175.8 195.7824 Z" class="white"/>
<path d="M 400.2 195.7824 L 400.2 195.7824 L 536.4 195.7824 L 536.4 200.2176 L 400.2 200.2176 Z" class="white"/>
</g>
</svg>
