<?xml version="1.0"?>
<svg xmlns="http://www.w3.org/2000/svg" xmlns:xlink="http://www.w3.org/1999/xlink" version="1.1" width="576" height="396" viewBox="0 0 576 396">
<!-- Generated by Kreative Vexillo v1.0 -->
<style>
.black{fill:rgb(19,19,19);}
.blue{fill:rgb(0,0,191);}
.cyan{fill:rgb(0,191,191);}
.green{fill:rgb(0,191,0);}
.i{fill:rgb(0,31,77);}
.magenta{fill:rgb(191,0,191);}
.pluge{fill:rgb(29,29,29);}
.q{fill:rgb(51,0,107);}
.red{fill:rgb(191,0,0);}
.superblack{fill:rgb(9,9,9);}
.superwhite{fill:rgb(255,255,255);}
.white{fill:rgb(191,191,191);}
.yellow{fill:rgb(191,191,0);}
</style>
<g>
<rect x="0" y="0" width="576" height="396" class="black"/>
<g>
<rect x="0" y="0" width="82.2857" height="264" class="white"/>
<rect x="82.2857" y="0" width="82.2857" height="264" class="yellow"/>
<rect x="164.5714" y="0" width="82.2857" height="264" class="cyan"/>
<rect x="246.8571" y="0" width="82.2857" height="264" class="green"/>
<rect x="329.1429" y="0" width="82.2857" height="264" class="magenta"/>
<rect x="411.4286" y="0" width="82.2857" height="264" class="red"/>
<rect x="493.7143" y="0" width="82.2857" height="264" class="blue"/>
</g>
<g>
<rect x="0" y="264" width="82.2857" height="33" class="blue"/>
<rect x="82.2857" y="264" width="82.2857" height="33" class="black"/>
<rect x="164.5714" y="264" width="82.2857" height="33" class="magenta"/>
<rect x="246.8571" y="264" width="82.2857" height="33" class="black"/>
<rect x="329.1429" y="264" width="82.2857" height="33" class="cyan"/>
<rect x="411.4286" y="264" width="82.2857" height="33" class="black"/>
<rect x="493.7143" y="264" width="82.2857" height="33" class="white"/>
</g>
<g>
<rect x="0" y="297" width="102.8571" height="99" class="i"/>
<rect x="102.8571" y="297" width="102.8571" height="99" class="superwhite"/>
<rect x="205.7143" y="297" width="102.8571" height="99" class="q"/>
<rect x="308.5714" y="297" width="102.8571" height="99" class="black"/>
</g>
<g>
<rect x="411.4286" y="297" width="27.4286" height="99" class="superblack"/>
<rect x="438.8571" y="297" width="27.4286" height="99" class="black"/>
<rect x="466.2857" y="297" width="27.4286" height="99" class="pluge"/>
</g>
</g>
</svg>
