<?xml version="1.0"?>
<svg xmlns="http://www.w3.org/2000/svg" xmlns:xlink="http://www.w3.org/1999/xlink" version="1.1" width="576" height="396" viewBox="0 0 576 396">
<!-- Generated by Kreative Vexillo v1.0 -->
<style>
.black{fill:rgb(0,0,0);}
.red{fill:rgb(255,0,0);}
.white{fill:rgb(255,255,255);}
</style>
<defs>
<path id="halfdisc" d="M 0.5 0.0 A 0.5 0.5 0.0 0 0 -0.5 0.0 Z"/>
</defs>
<g>
<g>
<rect x="0" y="0" width="576" height="60.9231" class="red"/>
<rect x="0" y="60.9231" width="576" height="60.9231" class="white"/>
<rect x="0" y="121.8462" width="576" height="60.9231" class="black"/>
<rect x="0" y="182.7692" width="576" height="30.4615" class="white"/>
<rect x="0" y="213.2308" width="576" height="60.9231" class="black"/>
<rect x="0" y="274.1538" width="576" height="60.9231" class="white"/>
<rect x="0" y="335.0769" width="576" height="60.9231" class="red"/>
</g>
<path d="M 0 0 L 198 198 L 0 396 Z" class="black"/>
<path d="M 0 17.2174 L 180.7826 198 L 0 378.7826 Z" class="white"/>
<use xlink:href="#halfdisc" transform="translate(73.656 194.04) scale(72 72) rotate(0)" class="red"/>
<use xlink:href="#halfdisc" transform="translate(73.656 201.96) scale(72 72) rotate(180)" class="black"/>
</g>
</svg>
