<?xml version="1.0"?>
<svg xmlns="http://www.w3.org/2000/svg" xmlns:xlink="http://www.w3.org/1999/xlink" version="1.1" width="576" height="396" viewBox="0 0 576 396">
<!-- Generated by Kreative Vexillo v1.0 -->
<style>
.blue{fill:rgb(0,0,255);}
.green{fill:rgb(0,153,0);}
.orange{fill:rgb(255,153,0);}
.purple{fill:rgb(153,0,153);}
.red{fill:rgb(255,0,0);}
.twblue{fill:rgb(25,57,138);}
.twwhite{fill:rgb(255,255,255);}
.yellow{fill:rgb(255,255,0);}
</style>
<defs>
<path id="ray" d="M -0.266667 0.0 L 0.0 -1.0 L 0.266667 0.0 Z"/>
</defs>
<g>
<g>
<rect x="0" y="0" width="576" height="66" class="red"/>
<rect x="0" y="66" width="576" height="66" class="orange"/>
<rect x="0" y="132" width="576" height="66" class="yellow"/>
<rect x="0" y="198" width="576" height="66" class="green"/>
<rect x="0" y="264" width="576" height="66" class="blue"/>
<rect x="0" y="330" width="576" height="66" class="purple"/>
</g>
<rect x="0" y="0" width="288" height="198" class="twblue"/>
<g>
<use xlink:href="#ray" transform="translate(144 99) scale(74.25 74.25) rotate(0)" class="twwhite"/>
<use xlink:href="#ray" transform="translate(144 99) scale(74.25 74.25) rotate(30)" class="twwhite"/>
<use xlink:href="#ray" transform="translate(144 99) scale(74.25 74.25) rotate(60)" class="twwhite"/>
<use xlink:href="#ray" transform="translate(144 99) scale(74.25 74.25) rotate(90)" class="twwhite"/>
<use xlink:href="#ray" transform="translate(144 99) scale(74.25 74.25) rotate(120)" class="twwhite"/>
<use xlink:href="#ray" transform="translate(144 99) scale(74.25 74.25) rotate(150)" class="twwhite"/>
<use xlink:href="#ray" transform="translate(144 99) scale(74.25 74.25) rotate(180)" class="twwhite"/>
<use xlink:href="#ray" transform="translate(144 99) scale(74.25 74.25) rotate(210)" class="twwhite"/>
<use xlink:href="#ray" transform="translate(144 99) scale(74.25 74.25) rotate(240)" class="twwhite"/>
<use xlink:href="#ray" transform="translate(144 99) scale(74.25 74.25) rotate(270)" class="twwhite"/>
<use xlink:href="#ray" transform="translate(144 99) scale(74.25 74.25) rotate(300)" class="twwhite"/>
<use xlink:href="#ray" transform="translate(144 99) scale(74.25 74.25) rotate(330)" class="twwhite"/>
</g>
<ellipse cx="144" cy="99" rx="42.0531" ry="42.0531" class="twblue"/>
<ellipse cx="144" cy="99" rx="37.4535" ry="37.4535" class="twwhite"/>
</g>
</svg>
