<?xml version="1.0"?>
<svg xmlns="http://www.w3.org/2000/svg" xmlns:xlink="http://www.w3.org/1999/xlink" version="1.1" width="576" height="396" viewBox="0 0 576 396">
<!-- Generated by Kreative Vexillo v1.0 -->
<style>
.black{fill:rgb(0,0,0);}
.blue{fill:rgb(24,24,107);}
.red{fill:rgb(231,0,57);}
.white{fill:rgb(255,255,255);}
</style>
<defs>
<path id="heart" d="M 0.0 0.5 C 0.0 0.5 -0.5 0.06 -0.5 -0.25 C -0.5 -0.39 -0.39 -0.5 -0.25 -0.5 C -0.11 -0.5 0.0 -0.3 0.0 -0.3 C 0.0 -0.3 0.11 -0.5 0.25 -0.5 C 0.39 -0.5 0.5 -0.39 0.5 -0.25 C 0.5 0.06 0.0 0.5 0.0 0.5 Z"/>
</defs>
<g>
<g>
<rect x="0" y="0" width="576" height="44" class="black"/>
<rect x="0" y="44" width="576" height="44" class="blue"/>
<rect x="0" y="88" width="576" height="44" class="black"/>
<rect x="0" y="132" width="576" height="44" class="blue"/>
<rect x="0" y="176" width="576" height="44" class="white"/>
<rect x="0" y="220" width="576" height="44" class="blue"/>
<rect x="0" y="264" width="576" height="44" class="black"/>
<rect x="0" y="308" width="576" height="44" class="blue"/>
<rect x="0" y="352" width="576" height="44" class="black"/>
</g>
<use xlink:href="#heart" transform="translate(144.144 104.544) scale(152.856 152.856) rotate(-40)" class="red"/>
</g>
</svg>
