<?xml version="1.0"?>
<svg xmlns="http://www.w3.org/2000/svg" xmlns:xlink="http://www.w3.org/1999/xlink" version="1.1" width="576" height="396" viewBox="0 0 576 396">
<!-- Generated by Kreative Vexillo v1.0 -->
<style>
.pink{fill:rgb(250,135,210);}
.red{fill:rgb(207,20,43);}
.white{fill:rgb(255,255,255);}
</style>
<defs>
<clipPath id="clip0">
<path d="M 0 0 L 0 32.0372 L 0 32.0372 L 241.4004 198 L 241.4004 198 L 0 363.9628 L 0 363.9628 L 0 396 L 46.5996 396 L 288 230.0372 L 529.4004 396 L 576 396 L 576 363.9628 L 576 363.9628 L 334.5996 198 L 334.5996 198 L 576 32.0372 L 576 0 L 529.4004 0 L 288 165.9628 L 46.5996 0 Z"/>
</clipPath>
</defs>
<g>
<rect x="0" y="0" width="576" height="396" class="pink"/>
<path d="M 0 0 L 0 48.0558 L 218.1006 198 L 218.1006 198 L 0 347.9442 L 0 347.9442 L 0 396 L 69.8993 396 L 288 246.0558 L 506.1006 396 L 576 396 L 576 347.9442 L 357.8994 198 L 357.8994 198 L 576 48.0558 L 576 0 L 506.1006 0 L 288 149.9442 L 288 149.9442 L 288 149.9442 L 288 149.9442 L 288 149.9442 L 288 149.9442 L 69.8994 0 Z" class="white"/>
<g clip-path="url(#clip0)">
<path d="M 0 0 L 288 198 L 0 198 Z" class="red"/>
<path d="M 576 0 L 288 198 L 288 0 Z" class="red"/>
<path d="M 0 396 L 288 198 L 288 396 Z" class="red"/>
<path d="M 576 396 L 288 198 L 576 198 Z" class="red"/>
</g>
<g>
<rect x="0" y="132" width="576" height="132" class="white"/>
<rect x="222" y="0" width="132" height="396" class="white"/>
</g>
<g>
<rect x="0" y="158.4" width="576" height="79.2" class="red"/>
<rect x="248.4" y="0" width="79.2" height="396" class="red"/>
</g>
</g>
</svg>
