<?xml version="1.0"?>
<svg xmlns="http://www.w3.org/2000/svg" xmlns:xlink="http://www.w3.org/1999/xlink" version="1.1" width="576" height="396" viewBox="0 0 576 396">
<!-- Generated by Kreative Vexillo v1.0 -->
<style>
.bband{fill:rgb(252,193,213);}
.blace{fill:rgb(254,203,220);}
.heart{fill:rgb(252,163,193);}
.mband{fill:rgb(253,226,233);}
.tband{fill:rgb(231,193,218);}
.tlace{fill:rgb(238,206,230);}
.white{fill:rgb(255,255,255);}
</style>
<defs>
<path id="button" d="M 0.5 0.0 A 0.5 0.5 0.0 0 0 -0.5 0.0 A 0.5 0.5 0.0 0 0 0.5 0.0 Z M -0.05 -0.1125 A 0.0625 0.0625 0.0 0 1 -0.175 -0.1125 A 0.0625 0.0625 0.0 0 1 -0.05 -0.1125 Z M 0.175 -0.1125 A 0.0625 0.0625 0.0 0 1 0.05 -0.1125 A 0.0625 0.0625 0.0 0 1 0.175 -0.1125 Z M -0.05 0.1125 A 0.0625 0.0625 0.0 0 1 -0.175 0.1125 A 0.0625 0.0625 0.0 0 1 -0.05 0.1125 Z M 0.175 0.1125 A 0.0625 0.0625 0.0 0 1 0.05 0.1125 A 0.0625 0.0625 0.0 0 1 0.175 0.1125 Z"/>
<path id="disc" d="M 0.5 0.0 A 0.5 0.5 0.0 0 0 -0.5 0.0 A 0.5 0.5 0.0 0 0 0.5 0.0 Z"/>
<path id="heart" d="M 0.0 0.5 C 0.0 0.5 -0.5 0.1 -0.5 -0.25 C -0.5 -0.39 -0.39 -0.5 -0.25 -0.5 C -0.09 -0.5 0.0 -0.3 0.0 -0.25 C 0.0 -0.3 0.09 -0.5 0.25 -0.5 C 0.39 -0.5 0.5 -0.39 0.5 -0.25 C 0.5 0.1 0.0 0.5 0.0 0.5 Z"/>
<clipPath id="clip0">
<use xlink:href="#heart" transform="translate(288 198) scale(171.072 158.4) rotate(0)"/>
</clipPath>
<linearGradient id="grad0" y1="0%" y2="100%" x1="0%" x2="0%">
<stop offset="0%" stop-color="rgb(252,163,193)"/>
<stop offset="100%" stop-color="rgb(254,203,220)"/>
</linearGradient>
</defs>
<g>
<g>
<rect x="0" y="0" width="576" height="110" class="tband"/>
<rect x="0" y="110" width="576" height="176" class="mband"/>
<rect x="0" y="286" width="576" height="110" class="bband"/>
</g>
<g>
<use xlink:href="#disc" transform="translate(-4.8375 78.0725) scale(21.285 21.285) rotate(0)" class="tlace"/>
<use xlink:href="#disc" transform="translate(-4.8375 317.9275) scale(21.285 21.285) rotate(0)" class="blace"/>
<use xlink:href="#disc" transform="translate(14.5125 78.0725) scale(21.285 21.285) rotate(0)" class="tlace"/>
<use xlink:href="#disc" transform="translate(14.5125 317.9275) scale(21.285 21.285) rotate(0)" class="blace"/>
<use xlink:href="#disc" transform="translate(33.8625 78.0725) scale(21.285 21.285) rotate(0)" class="tlace"/>
<use xlink:href="#disc" transform="translate(33.8625 317.9275) scale(21.285 21.285) rotate(0)" class="blace"/>
<use xlink:href="#disc" transform="translate(53.2125 78.0725) scale(21.285 21.285) rotate(0)" class="tlace"/>
<use xlink:href="#disc" transform="translate(53.2125 317.9275) scale(21.285 21.285) rotate(0)" class="blace"/>
<use xlink:href="#disc" transform="translate(72.5625 78.0725) scale(21.285 21.285) rotate(0)" class="tlace"/>
<use xlink:href="#disc" transform="translate(72.5625 317.9275) scale(21.285 21.285) rotate(0)" class="blace"/>
<use xlink:href="#disc" transform="translate(91.9125 78.0725) scale(21.285 21.285) rotate(0)" class="tlace"/>
<use xlink:href="#disc" transform="translate(91.9125 317.9275) scale(21.285 21.285) rotate(0)" class="blace"/>
<use xlink:href="#disc" transform="translate(111.2625 78.0725) scale(21.285 21.285) rotate(0)" class="tlace"/>
<use xlink:href="#disc" transform="translate(111.2625 317.9275) scale(21.285 21.285) rotate(0)" class="blace"/>
<use xlink:href="#disc" transform="translate(130.6125 78.0725) scale(21.285 21.285) rotate(0)" class="tlace"/>
<use xlink:href="#disc" transform="translate(130.6125 317.9275) scale(21.285 21.285) rotate(0)" class="blace"/>
<use xlink:href="#disc" transform="translate(149.9625 78.0725) scale(21.285 21.285) rotate(0)" class="tlace"/>
<use xlink:href="#disc" transform="translate(149.9625 317.9275) scale(21.285 21.285) rotate(0)" class="blace"/>
<use xlink:href="#disc" transform="translate(169.3125 78.0725) scale(21.285 21.285) rotate(0)" class="tlace"/>
<use xlink:href="#disc" transform="translate(169.3125 317.9275) scale(21.285 21.285) rotate(0)" class="blace"/>
<use xlink:href="#disc" transform="translate(188.6625 78.0725) scale(21.285 21.285) rotate(0)" class="tlace"/>
<use xlink:href="#disc" transform="translate(188.6625 317.9275) scale(21.285 21.285) rotate(0)" class="blace"/>
<use xlink:href="#disc" transform="translate(208.0125 78.0725) scale(21.285 21.285) rotate(0)" class="tlace"/>
<use xlink:href="#disc" transform="translate(208.0125 317.9275) scale(21.285 21.285) rotate(0)" class="blace"/>
<use xlink:href="#disc" transform="translate(227.3625 78.0725) scale(21.285 21.285) rotate(0)" class="tlace"/>
<use xlink:href="#disc" transform="translate(227.3625 317.9275) scale(21.285 21.285) rotate(0)" class="blace"/>
<use xlink:href="#disc" transform="translate(246.7125 78.0725) scale(21.285 21.285) rotate(0)" class="tlace"/>
<use xlink:href="#disc" transform="translate(246.7125 317.9275) scale(21.285 21.285) rotate(0)" class="blace"/>
<use xlink:href="#disc" transform="translate(266.0625 78.0725) scale(21.285 21.285) rotate(0)" class="tlace"/>
<use xlink:href="#disc" transform="translate(266.0625 317.9275) scale(21.285 21.285) rotate(0)" class="blace"/>
<use xlink:href="#disc" transform="translate(285.4125 78.0725) scale(21.285 21.285) rotate(0)" class="tlace"/>
<use xlink:href="#disc" transform="translate(285.4125 317.9275) scale(21.285 21.285) rotate(0)" class="blace"/>
<use xlink:href="#disc" transform="translate(304.7625 78.0725) scale(21.285 21.285) rotate(0)" class="tlace"/>
<use xlink:href="#disc" transform="translate(304.7625 317.9275) scale(21.285 21.285) rotate(0)" class="blace"/>
<use xlink:href="#disc" transform="translate(324.1125 78.0725) scale(21.285 21.285) rotate(0)" class="tlace"/>
<use xlink:href="#disc" transform="translate(324.1125 317.9275) scale(21.285 21.285) rotate(0)" class="blace"/>
<use xlink:href="#disc" transform="translate(343.4625 78.0725) scale(21.285 21.285) rotate(0)" class="tlace"/>
<use xlink:href="#disc" transform="translate(343.4625 317.9275) scale(21.285 21.285) rotate(0)" class="blace"/>
<use xlink:href="#disc" transform="translate(362.8125 78.0725) scale(21.285 21.285) rotate(0)" class="tlace"/>
<use xlink:href="#disc" transform="translate(362.8125 317.9275) scale(21.285 21.285) rotate(0)" class="blace"/>
<use xlink:href="#disc" transform="translate(382.1625 78.0725) scale(21.285 21.285) rotate(0)" class="tlace"/>
<use xlink:href="#disc" transform="translate(382.1625 317.9275) scale(21.285 21.285) rotate(0)" class="blace"/>
<use xlink:href="#disc" transform="translate(401.5125 78.0725) scale(21.285 21.285) rotate(0)" class="tlace"/>
<use xlink:href="#disc" transform="translate(401.5125 317.9275) scale(21.285 21.285) rotate(0)" class="blace"/>
<use xlink:href="#disc" transform="translate(420.8625 78.0725) scale(21.285 21.285) rotate(0)" class="tlace"/>
<use xlink:href="#disc" transform="translate(420.8625 317.9275) scale(21.285 21.285) rotate(0)" class="blace"/>
<use xlink:href="#disc" transform="translate(440.2125 78.0725) scale(21.285 21.285) rotate(0)" class="tlace"/>
<use xlink:href="#disc" transform="translate(440.2125 317.9275) scale(21.285 21.285) rotate(0)" class="blace"/>
<use xlink:href="#disc" transform="translate(459.5625 78.0725) scale(21.285 21.285) rotate(0)" class="tlace"/>
<use xlink:href="#disc" transform="translate(459.5625 317.9275) scale(21.285 21.285) rotate(0)" class="blace"/>
<use xlink:href="#disc" transform="translate(478.9125 78.0725) scale(21.285 21.285) rotate(0)" class="tlace"/>
<use xlink:href="#disc" transform="translate(478.9125 317.9275) scale(21.285 21.285) rotate(0)" class="blace"/>
<use xlink:href="#disc" transform="translate(498.2625 78.0725) scale(21.285 21.285) rotate(0)" class="tlace"/>
<use xlink:href="#disc" transform="translate(498.2625 317.9275) scale(21.285 21.285) rotate(0)" class="blace"/>
<use xlink:href="#disc" transform="translate(517.6125 78.0725) scale(21.285 21.285) rotate(0)" class="tlace"/>
<use xlink:href="#disc" transform="translate(517.6125 317.9275) scale(21.285 21.285) rotate(0)" class="blace"/>
<use xlink:href="#disc" transform="translate(536.9625 78.0725) scale(21.285 21.285) rotate(0)" class="tlace"/>
<use xlink:href="#disc" transform="translate(536.9625 317.9275) scale(21.285 21.285) rotate(0)" class="blace"/>
<use xlink:href="#disc" transform="translate(556.3125 78.0725) scale(21.285 21.285) rotate(0)" class="tlace"/>
<use xlink:href="#disc" transform="translate(556.3125 317.9275) scale(21.285 21.285) rotate(0)" class="blace"/>
<use xlink:href="#disc" transform="translate(575.6625 78.0725) scale(21.285 21.285) rotate(0)" class="tlace"/>
<use xlink:href="#disc" transform="translate(575.6625 317.9275) scale(21.285 21.285) rotate(0)" class="blace"/>
</g>
<g>
<rect x="0" y="81.62" width="576" height="3.5475" class="tlace"/>
<rect x="0" y="85.1675" width="576" height="3.5475" class="tband"/>
<rect x="0" y="88.715" width="576" height="21.285" class="tlace"/>
</g>
<g>
<rect x="0" y="286" width="576" height="21.285" class="blace"/>
<rect x="0" y="307.285" width="576" height="3.5475" class="bband"/>
<rect x="0" y="310.8325" width="576" height="3.5475" class="blace"/>
</g>
<g clip-path="url(#clip0)">
<rect x="0" y="118.8" width="576" height="158.4" fill="url(#grad0)"/>
<use xlink:href="#heart" transform="translate(288 198) scale(133.056 123.2) rotate(0)" class="heart"/>
</g>
<use xlink:href="#button" transform="translate(61.38 198) scale(94.248 94.248) rotate(0)" class="white"/>
<use xlink:href="#button" transform="translate(514.62 198) scale(94.248 94.248) rotate(0)" class="white"/>
</g>
</svg>
