<?xml version="1.0"?>
<svg xmlns="http://www.w3.org/2000/svg" xmlns:xlink="http://www.w3.org/1999/xlink" version="1.1" width="576" height="396" viewBox="0 0 576 396">
<!-- Generated by Kreative Vexillo v1.0 -->
<style>
.black{fill:rgb(0,0,0);}
.blue{fill:rgb(5,27,140);}
.brown{fill:rgb(144,83,8);}
.green{fill:rgb(5,249,6);}
.orange{fill:rgb(251,148,5);}
.pink{fill:rgb(244,182,229);}
.purple{fill:rgb(83,28,141);}
.purple2{fill:rgb(142,60,221);}
.red{fill:rgb(251,37,4);}
.turquoise{fill:rgb(125,211,247);}
.white{fill:rgb(255,255,255);}
.yellow{fill:rgb(251,251,6);}
</style>
<g>
<g>
<rect x="0" y="0" width="576" height="66" class="red"/>
<rect x="0" y="66" width="576" height="66" class="orange"/>
<rect x="0" y="132" width="576" height="66" class="yellow"/>
<rect x="0" y="198" width="576" height="66" class="green"/>
<rect x="0" y="264" width="576" height="66" class="blue"/>
<rect x="0" y="330" width="576" height="66" class="purple"/>
</g>
<path d="M 0 0 L 176.715 0 L 374.715 198 L 176.715 396 L 0 396 Z" class="black"/>
<path d="M 0 0 L 135.135 0 L 333.135 198 L 135.135 396 L 0 396 Z" class="brown"/>
<path d="M 0 0 L 93.555 0 L 291.555 198 L 93.555 396 L 0 396 Z" class="turquoise"/>
<path d="M 0 0 L 51.975 0 L 249.975 198 L 51.975 396 L 0 396 Z" class="pink"/>
<path d="M 0 0 L 10.395 0 L 208.395 198 L 10.395 396 L 0 396 Z" class="white"/>
<path d="M 0 31.185 L 166.815 198 L 0 364.815 Z" class="yellow"/>
<ellipse cx="63.36" cy="198" rx="49.5" ry="49.5" class="purple2"/>
<ellipse cx="63.36" cy="198" rx="39.6" ry="39.6" class="yellow"/>
</g>
</svg>
