<?xml version="1.0"?>
<svg xmlns="http://www.w3.org/2000/svg" xmlns:xlink="http://www.w3.org/1999/xlink" version="1.1" width="576" height="396" viewBox="0 0 576 396">
<!-- Generated by Kreative Vexillo v1.0 -->
<style>
.black{fill:rgb(0,0,0);}
.blue{fill:rgb(0,0,255);}
.green{fill:rgb(0,153,0);}
.orange{fill:rgb(255,153,0);}
.purple{fill:rgb(153,0,153);}
.red{fill:rgb(255,0,0);}
.white{fill:rgb(255,255,255);}
.yellow{fill:rgb(255,255,0);}
</style>
<defs>
<clipPath id="clip0">
<path d="M 0 396 L 288 0 L 576 396 L 384 396 L 288 264 L 192 396 Z"/>
</clipPath>
</defs>
<g>
<g>
<rect x="0" y="0" width="576" height="66" class="black"/>
<rect x="0" y="66" width="576" height="66" class="white"/>
<rect x="0" y="132" width="576" height="66" class="black"/>
<rect x="0" y="198" width="576" height="66" class="white"/>
<rect x="0" y="264" width="576" height="66" class="black"/>
<rect x="0" y="330" width="576" height="66" class="white"/>
</g>
<g clip-path="url(#clip0)">
<g>
<rect x="0" y="0" width="576" height="66" class="red"/>
<rect x="0" y="66" width="576" height="66" class="orange"/>
<rect x="0" y="132" width="576" height="66" class="yellow"/>
<rect x="0" y="198" width="576" height="66" class="green"/>
<rect x="0" y="264" width="576" height="66" class="blue"/>
<rect x="0" y="330" width="576" height="66" class="purple"/>
</g>
</g>
</g>
</svg>
