<?xml version="1.0"?>
<svg xmlns="http://www.w3.org/2000/svg" xmlns:xlink="http://www.w3.org/1999/xlink" version="1.1" width="576" height="396" viewBox="0 0 576 396">
<!-- Generated by Kreative Vexillo v1.0 -->
<style>
.blue{fill:rgb(0,101,189);}
.green{fill:rgb(0,154,73);}
.orange{fill:rgb(255,121,0);}
.white{fill:rgb(255,255,255);}
</style>
<defs>
<clipPath id="clip0">
<path d="M 0 396 L 576 0 L 576 396 Z"/>
</clipPath>
</defs>
<g>
<rect x="0" y="0" width="576" height="396" class="white"/>
<g>
<path d="M 0 0 L 576 0 L 0 396 Z" class="blue"/>
<path d="M 0 0 L 0 48.0558 L 0 48.0558 L 218.1007 198 L 218.1007 198 L 0 347.9442 L 0 396 L 69.8993 396 L 288 246.0558 L 288 246.0558 L 506.1006 396 L 576 396 L 576 347.9442 L 576 347.9442 L 357.8993 198 L 357.8993 198 L 576 48.0558 L 576 0 L 506.1006 0 L 288 149.9442 L 288 149.9442 L 69.8993 0 Z" class="white"/>
</g>
<g clip-path="url(#clip0)">
<g>
<rect x="0" y="0" width="192" height="396" class="green"/>
<rect x="192" y="0" width="192" height="396" class="white"/>
<rect x="384" y="0" width="192" height="396" class="orange"/>
</g>
</g>
</g>
</svg>
