<?xml version="1.0"?>
<svg xmlns="http://www.w3.org/2000/svg" xmlns:xlink="http://www.w3.org/1999/xlink" version="1.1" width="576" height="396" viewBox="0 0 576 396">
<!-- Generated by Kreative Vexillo v1.0 -->
<style>
.black{fill:rgb(0,0,0);}
.green{fill:rgb(0,112,48);}
.red{fill:rgb(208,16,16);}
.white{fill:rgb(255,255,255);}
</style>
<defs>
<path id="shahada" d="M -0.2758 0.3014 C -0.3272 0.33110002 -0.3753 0.3605 -0.4256 0.3874 C -0.47239998 0.4125 -0.5241 0.4327 -0.5826 0.4348 C -0.6235 0.4363 -0.6654 0.433 -0.7058 0.4276 C -0.7408 0.423 -0.751 0.3993 -0.758 0.3761 C -0.7594 0.3713 -0.7601 0.3664 -0.7611 0.3613 C -0.80509996 0.3689 -0.84679997 0.37899998 -0.8895 0.383 C -0.954 0.3891 -1.0191001 0.3913 -1.0841 0.39409998 C -1.094 0.3945 -1.1044 0.38899997 -1.1172 0.38549998 C -1.1027 0.3708 -1.0851 0.3708 -1.0688 0.3687 C -1.0059999 0.3604 -0.9425 0.3542 -0.88049996 0.34329998 C -0.84319997 0.33679998 -0.80789995 0.32349998 -0.77229995 0.31219998 C -0.76609993 0.31019998 -0.7606999 0.30319998 -0.75869995 0.29779997 C -0.74429995 0.25859997 -0.73269993 0.21879998 -0.71639997 0.18009996 C -0.7101 0.16509996 -0.69589996 0.15119997 -0.6817 0.13909996 C -0.6748 0.13319996 -0.6583 0.12839995 -0.6488 0.13029996 C -0.63280004 0.13359995 -0.6375 0.14619996 -0.64100003 0.15529996 C -0.64930004 0.17629996 -0.65980005 0.19679996 -0.6679 0.21779996 C -0.6746 0.23529996 -0.6793 0.25319996 -0.6825 0.27189997 C -0.6098 0.23629996 -0.5334 0.20339997 -0.5093 0.13459997 C -0.4959 0.09639997 -0.5074 0.06069997 -0.5394 0.029099971 C -0.557 0.011699971 -0.57019997 -0.007100031 -0.5707 -0.029600028 C -0.5712 -0.05430003 -0.5513 -0.06590003 -0.5218 -0.05550003 C -0.4669 -0.03610003 -0.4256 -0.0045000315 -0.3922 0.03299997 C -0.3892 0.03639997 -0.3892 0.04129997 -0.38729998 0.04709997 C -0.39859998 0.04709997 -0.4073 0.04739997 -0.41579998 0.04699997 C -0.43179998 0.046299968 -0.43689996 0.051299967 -0.4324 0.06279997 C -0.42859998 0.07259997 -0.4256 0.082499966 -0.42229998 0.09239997 C -0.40679997 0.13959998 -0.43109998 0.17859997 -0.468 0.21459997 C -0.523 0.26809996 -0.59029996 0.31019998 -0.6745 0.33579996 C -0.6782 0.33689997 -0.6817 0.33849996 -0.68479997 0.33969995 C -0.6842 0.37499994 -0.62939996 0.39409995 -0.5872 0.38159996 C -0.5584 0.37299997 -0.53 0.36229995 -0.5043 0.34939995 C -0.466 0.32999995 -0.4297 0.30829996 -0.3938 0.28649995 C -0.36479998 0.26879996 -0.3376 0.24949995 -0.31 0.23109995 C -0.3567 0.14239995 -0.3761 0.050399944 -0.3928 -0.042100057 C -0.395 -0.05450006 -0.3948 -0.06760006 -0.3924 -0.08010006 C -0.38979998 -0.09340006 -0.3779 -0.10290006 -0.3607 -0.10790006 C -0.3355 -0.11510006 -0.3167 -0.105000064 -0.3156 -0.08400006 C -0.3104 0.013899945 -0.285 0.108399935 -0.22950001 0.19739994 C -0.2123 0.22509995 -0.19070001 0.25119996 -0.16980001 0.27749994 C -0.16010001 0.28969994 -0.14720002 0.30039996 -0.13490002 0.31269994 C -0.078400016 0.26489994 -0.0066000223 0.23439994 0.06669998 0.19809994 C 0.03619998 0.19809994 0.01069998 0.19959994 -0.01440002 0.19769993 C -0.05000002 0.19499993 -0.08640002 0.19249994 -0.12050002 0.18499993 C -0.17950001 0.17189993 -0.19520003 0.13659993 -0.16200002 0.09749993 C -0.12520002 0.05409993 -0.07020002 0.028799929 -0.0066000223 0.0129999295 C 0.003599978 0.010399929 0.014099978 0.00829993 0.019599978 0.0042999294 C 0.031699978 -0.02200007 0.04189998 -0.048900068 0.056499977 -0.07440007 C 0.07629998 -0.10890007 0.11929998 -0.11780007 0.16379997 -0.12510008 C 0.28919998 -0.14560008 0.35369998 -0.05920008 0.33789998 0.014199927 C 0.3329 0.037099928 0.30679998 0.05189993 0.2645 0.053499926 C 0.22649999 0.054899927 0.18829998 0.053999927 0.1502 0.054699928 C 0.09979999 0.055599928 0.049399994 0.057999928 0.0020999908 0.07249993 C -0.01520001 0.07779993 -0.03240001 0.08509993 -0.04620001 0.09439993 C -0.06760001 0.10889993 -0.06090001 0.12849993 -0.03280001 0.13379993 C -0.012600012 0.13759993 0.008799989 0.13849993 0.02979999 0.13909993 C 0.11299999 0.14139992 0.19279999 0.12549992 0.2733 0.11279993 C 0.2985 0.10879993 0.3243 0.106099926 0.35 0.10529993 C 0.3806 0.10439993 0.3947 0.11649993 0.3905 0.13889992 C 0.3838 0.17439993 0.3624 0.20489992 0.3296 0.23059992 C 0.31260002 0.24389993 0.2893 0.24599993 0.2656 0.24689993 C 0.22299999 0.24849993 0.1795 0.24759993 0.138 0.25379995 C 0.088 0.26119995 0.0449 0.28199995 0.008100003 0.30869994 C -0.0026999973 0.31659994 -0.011199998 0.32639992 -0.022199998 0.33659995 C 0.022700002 0.34019995 0.063300006 0.34229994 0.1035 0.34679994 C 0.1371 0.35059994 0.14829999 0.35859993 0.1504 0.37439993 C 0.1534 0.39659992 0.141 0.41269994 0.1117 0.42119992 C 0.074599996 0.4318999 0.036 0.43159992 -0.0029999986 0.42819992 C -0.055999998 0.4234999 -0.1075 0.4144999 -0.15579998 0.39729992 C -0.21279998 0.3769999 -0.25399998 0.3449999 -0.2751 0.30109993 Z M 0.1099 -0.005499989 C 0.1563 -0.005499989 0.1983 -0.005399989 0.2403 -0.0055999886 C 0.25349998 -0.0055999886 0.258 -0.013699989 0.254 -0.02029999 C 0.24530001 -0.03469999 0.23670001 -0.050599992 0.222 -0.06129999 C 0.1934 -0.08209999 0.14680001 -0.074499995 0.1293 -0.04769999 C 0.1211 -0.035199992 0.117 -0.021199992 0.1099 -0.0055999905 Z M -1.0671 0.0939 C -1.088 0.0988 -1.1043 0.1021 -1.1201 0.1066 C -1.1247001 0.1079 -1.13 0.1123 -1.1309 0.1159 C -1.1524 0.1977 -1.2228 0.2522 -1.3119 0.2948 C -1.394 0.33400002 -1.4863 0.3402 -1.5794001 0.32770002 C -1.6633 0.3165 -1.7127001 0.2628 -1.7114 0.19170001 C -1.7104 0.1316 -1.6815001 0.079200014 -1.6269001 0.035200015 C -1.6208 0.030300014 -1.6116 0.027400015 -1.6038 0.023600016 C -1.6018001 0.024900015 -1.5998001 0.026200015 -1.5978 0.027500015 C -1.602 0.035100013 -1.6055 0.043000013 -1.6104 0.050400015 C -1.6430999 0.10020001 -1.6510999 0.15260002 -1.6395999 0.20690002 C -1.6352999 0.22730002 -1.6199999 0.24380001 -1.5945 0.2515 C -1.517 0.27490002 -1.4383999 0.2716 -1.3618 0.24970001 C -1.2938 0.23020001 -1.2523999 0.19080001 -1.2307999 0.13930002 C -1.2287999 0.13460001 -1.2277999 0.12970002 -1.2258999 0.12350002 C -1.239 0.12530002 -1.2501999 0.12690002 -1.2614 0.12820002 C -1.3445 0.13830003 -1.3864 0.10650002 -1.3702999 0.045100026 C -1.3586999 9.000264E-4 -1.3197999 -0.027599975 -1.2692 -0.047399975 C -1.2371 -0.059899975 -1.1911 -0.050499976 -1.1668 -0.025899975 C -1.1499001 -0.008799974 -1.1398001 0.012000026 -1.1243 0.034500025 C -1.1133 0.031800024 -1.0962 0.028100025 -1.0796 0.023200024 C -1.0764999 0.022300024 -1.074 0.016600024 -1.0744 0.013400024 C -1.0855999 -0.08579998 -1.0979999 -0.18479998 -1.1085 -0.2841 C -1.1134 -0.3304 -1.1153 -0.3768 -1.1179 -0.4233 C -1.1195 -0.4514 -1.105 -0.475 -1.0797 -0.4952 C -1.0648 -0.5071 -1.0539 -0.5058 -1.0484 -0.4898 C -1.0413 -0.4691 -1.0392001 -0.4472 -1.0295 -0.4273 C -1.0124 -0.3924 -0.991 -0.3588 -0.9717 -0.32450002 C -0.9689 -0.31950003 -0.9652 -0.31380004 -0.966 -0.3088 C -0.9667 -0.30400002 -0.97150004 -0.298 -0.97690004 -0.2957 C -0.98050004 -0.29410002 -0.9894 -0.29700002 -0.99410003 -0.29970002 C -1.0040001 -0.3054 -1.0128 -0.3122 -1.0220001 -0.31860003 C -1.0244001 -0.31780002 -1.0267 -0.31700003 -1.0291001 -0.31630003 C -1.0162001 -0.21890002 -1.0034001 -0.12150003 -0.99030006 -0.022200048 C -0.97730005 -0.029900048 -0.96500003 -0.03740005 -0.9523001 -0.044600047 C -0.94640005 -0.04800005 -0.94030005 -0.052400045 -0.93350005 -0.05350005 C -0.92300004 -0.05530005 -0.9071001 -0.05820005 -0.90190005 -0.05420005 C -0.89370006 -0.04810005 -0.89010006 -0.03680005 -0.88900006 -0.02750005 C -0.8877001 -0.016000051 -0.89280003 -0.0042000506 -0.89180005 0.0072999503 C -0.89000005 0.02899995 -0.87090003 0.04759995 -0.85170007 0.04899995 C -0.83230007 0.05049995 -0.80460006 0.03429995 -0.79660004 0.0153999515 C -0.79190004 0.0042999517 -0.7907 -0.0076000486 -0.7868 -0.01900005 C -0.78180003 -0.033200048 -0.7755 -0.047100052 -0.7534 -0.05550005 C -0.7501 -0.04830005 -0.74770004 -0.04280005 -0.7451 -0.03730005 C -0.73690003 -0.02000005 -0.7297 -0.0025000498 -0.7199 0.0142999515 C -0.7155 0.021899952 -0.7076 0.029799951 -0.6984 0.03389995 C -0.69170004 0.03689995 -0.6775 0.036599953 -0.6714 0.033099953 C -0.6542 0.023199953 -0.6618 -0.006800048 -0.6792 -0.016200047 C -0.6861 -0.019900046 -0.691 -0.030700047 -0.6894 -0.037300047 C -0.68520004 -0.055200048 -0.6502 -0.073100045 -0.6261 -0.07200004 C -0.6065 -0.07110004 -0.5954 -0.06220004 -0.5949 -0.048500042 C -0.5937 -0.014700044 -0.59650004 0.019099955 -0.6146 0.05059996 C -0.6299 0.07729996 -0.681 0.09649996 -0.7187 0.089699954 C -0.73289996 0.087099954 -0.7454 0.07929996 -0.7616 0.07269995 C -0.7853 0.09439995 -0.8215 0.105099946 -0.8628 0.10839995 C -0.9046 0.11169995 -0.9288 0.10159995 -0.9442 0.07219995 C -0.9494 0.062399946 -0.9526 0.051899947 -0.95699996 0.040899947 C -0.97709996 0.052299947 -0.9916 0.06329995 -0.99149996 0.08609995 C -0.9912 0.13459995 -0.9999 0.18279995 -1.0224999 0.22889996 C -1.0444 0.27349997 -1.0785999 0.31149995 -1.1295999 0.34039995 C -1.2415999 0.40389997 -1.3650999 0.44389996 -1.5079 0.44339997 C -1.5614 0.44319996 -1.6127 0.43439996 -1.6631 0.42069995 C -1.7435 0.39879996 -1.7866 0.35279995 -1.8114 0.29489994 C -1.8416001 0.22429994 -1.8288001 0.15789995 -1.773 0.096499935 C -1.766 0.08879994 -1.7562 0.082399935 -1.7478 0.075399935 C -1.7445999 0.07679994 -1.7413 0.07819994 -1.7381 0.07959993 C -1.7441001 0.09419993 -1.7476001 0.109699935 -1.7566 0.12319993 C -1.7785001 0.15599993 -1.7836 0.19059993 -1.7785001 0.22609994 C -1.7687001 0.29449993 -1.7272 0.34649992 -1.636 0.36879992 C -1.4962001 0.40289992 -1.365 0.3837999 -1.2408 0.32899994 C -1.1503 0.28909993 -1.0915 0.23179993 -1.0752001 0.15249994 C -1.0714 0.13399994 -1.0699 0.115099944 -1.067 0.09409994 Z M -1.2113 0.0377 C -1.2107 0.014700001 -1.2171 0.007600002 -1.2385 0.0075000003 C -1.2634 0.0073 -1.2883 0.0276 -1.2891 0.0484 C -1.2897 0.0623 -1.2791001 0.065400004 -1.2632 0.0656 C -1.2211001 0.066 -1.2119 0.0614 -1.2113 0.0377 Z M 1.338 -0.3761 C 1.3677001 -0.3503 1.3973 -0.3244 1.4306 -0.2954 C 1.4274 -0.32459998 1.4251001 -0.3492 1.4221001 -0.37379998 C 1.4164001 -0.4211 1.4299 -0.4642 1.4718001 -0.5008 C 1.4767001 -0.5051 1.4841001 -0.5077 1.4904001 -0.5111 C 1.4946 -0.5062 1.5014001 -0.50159997 1.5024 -0.4964 C 1.5132 -0.438 1.542 -0.3843 1.5758001 -0.3317 C 1.5792 -0.3264 1.5779 -0.3178 1.5748 -0.3119 C 1.5709 -0.3046 1.5616 -0.3028 1.5538 -0.3098 C 1.5455 -0.3171 1.5383 -0.3251 1.5306 -0.3328 C 1.5277 -0.3315 1.5248 -0.3302 1.5218999 -0.3289 C 1.5214 -0.3233 1.52 -0.3177 1.5206 -0.3123 C 1.5238 -0.2854 1.5277 -0.2584 1.5308 -0.2315 C 1.5323 -0.2184 1.538 -0.2075 1.5504 -0.19749999 C 1.5761 -0.1767 1.5999 -0.1546 1.6281 -0.1299 C 1.6212001 -0.1689 1.6142 -0.204 1.6089001 -0.2391 C 1.6007 -0.2938 1.593 -0.3486 1.5865 -0.4034 C 1.5814 -0.4467 1.6086 -0.4812 1.6439 -0.5129 C 1.6559 -0.5236 1.6654 -0.522 1.6708001 -0.508 C 1.6752001 -0.4968 1.6768001 -0.485 1.6801001 -0.47360003 C 1.6932001 -0.42780003 1.7196001 -0.38580003 1.7476001 -0.34440005 C 1.7501001 -0.34080005 1.7548001 -0.33660004 1.7539 -0.33340004 C 1.7520001 -0.32700005 1.7483001 -0.32020003 1.7426001 -0.31530005 C 1.7409 -0.31380004 1.7293001 -0.31720003 1.7240001 -0.32010004 C 1.7144 -0.32540002 1.7060001 -0.33210003 1.6930001 -0.34100005 C 1.6917001 -0.33170006 1.6897001 -0.32610005 1.6903001 -0.32060006 C 1.6972001 -0.25900006 1.7051 -0.19760007 1.7116001 -0.13600007 C 1.715 -0.10350007 1.7154001 -0.070700064 1.7185 -0.038200065 C 1.7195001 -0.028000064 1.7234 -0.017400065 1.7289001 -0.007900065 C 1.7582 0.042499937 1.7887001 0.092499934 1.8179001 0.14289995 C 1.8235 0.15259995 1.8261001 0.16349995 1.8275001 0.17409995 C 1.8285002 0.18189995 1.8253001 0.18989995 1.8239001 0.19789995 C 1.8213001 0.19829996 1.8186 0.19859995 1.8160001 0.19899996 C 1.8097001 0.19219996 1.8021001 0.18589996 1.7973001 0.17859995 C 1.7774001 0.14789996 1.7584001 0.11679995 1.7389001 0.08589996 C 1.7346001 0.07909995 1.7294 0.072599955 1.7208 0.06619996 C 1.7204001 0.07029996 1.7198 0.074399956 1.7196001 0.07849996 C 1.7165 0.13459995 1.7140001 0.19069996 1.7099001 0.24669996 C 1.7090001 0.25869995 1.7035002 0.27059996 1.6982001 0.28209996 C 1.6965001 0.28589997 1.6889001 0.28819996 1.6840001 0.29119995 C 1.6808001 0.28769994 1.6754001 0.28429994 1.6747001 0.28049996 C 1.6726002 0.26739997 1.6702001 0.25399998 1.6713002 0.24089997 C 1.6766002 0.17979997 1.6627002 0.11969996 1.6540002 0.059399962 C 1.6508001 0.037599962 1.6482002 0.015699964 1.6435002 -0.0059000403 C 1.6415002 -0.01490004 1.6373003 -0.02480004 1.6299002 -0.03180004 C 1.6052002 -0.05540004 1.5785003 -0.07790004 1.5487002 -0.09950004 C 1.5495002 -0.085700035 1.5507002 -0.07190004 1.5511003 -0.058100037 C 1.5526003 -0.007100038 1.5552002 0.043999963 1.5548003 0.09499996 C 1.5542003 0.15979996 1.5392003 0.22279996 1.5064002 0.28319997 C 1.4947002 0.30459997 1.4775002 0.32249996 1.4507003 0.33449996 C 1.4198003 0.34829995 1.3877003 0.34949994 1.3588003 0.33319995 C 1.3318003 0.31799996 1.3075002 0.29989994 1.2823002 0.28289995 C 1.2637002 0.27019995 1.2466003 0.25619996 1.2270002 0.24449995 C 1.2061002 0.23199995 1.1875002 0.23449995 1.1738002 0.25169995 C 1.1627002 0.26559997 1.1542002 0.28079996 1.1463002 0.29589996 C 1.1272002 0.33299994 1.1041002 0.36879995 1.0631002 0.39439994 C 1.0369002 0.41069993 1.0063002 0.42489994 0.9747002 0.43399996 C 0.9200002 0.44979995 0.86640024 0.42479995 0.8548002 0.38169995 C 0.8397002 0.32599995 0.8516002 0.27309996 0.8863002 0.22299995 C 0.8943002 0.21149994 0.9032002 0.19989994 0.9261002 0.19589995 C 0.9251002 0.20459995 0.9249002 0.21149994 0.9235002 0.21819995 C 0.91690016 0.24789995 0.90860015 0.27739996 0.9038002 0.30719995 C 0.9012002 0.32319996 0.9028002 0.33989996 0.9057002 0.35589996 C 0.9103002 0.38029996 0.9354002 0.39219996 0.9651002 0.38149995 C 0.98630023 0.37389994 1.0075002 0.36179996 1.0210003 0.34759995 C 1.0425003 0.32499996 1.0577003 0.29899997 1.0753002 0.27429995 C 1.0943003 0.24789995 1.1098002 0.21969995 1.1327002 0.19539994 C 1.1677002 0.15849994 1.2094002 0.15639994 1.2537003 0.18659994 C 1.2773002 0.20269994 1.2979002 0.22129995 1.3208003 0.23799995 C 1.3368003 0.24969995 1.3532003 0.26149994 1.3717003 0.27079993 C 1.3965002 0.28339994 1.4171003 0.27929994 1.4356003 0.26169994 C 1.4583002 0.24009994 1.4635003 0.21419995 1.4668003 0.18839994 C 1.4821004 0.06939994 1.4744003 -0.04930006 1.4526004 -0.16750005 C 1.4512004 -0.17540005 1.4455004 -0.18400005 1.4383004 -0.18990004 C 1.3656003 -0.24930003 1.2922003 -0.30830005 1.2191004 -0.36740005 C 1.2122004 -0.37300006 1.2055004 -0.37880006 1.1991004 -0.38480005 C 1.1624004 -0.41930005 1.1659003 -0.45340005 1.2090003 -0.48400006 C 1.2221004 -0.49330005 1.2342004 -0.49540007 1.2499003 -0.48580006 C 1.2948003 -0.45840007 1.3409003 -0.43210006 1.3860004 -0.40500006 C 1.3919004 -0.40150005 1.3977004 -0.39610007 1.3996004 -0.39080006 C 1.4035004 -0.37970006 1.3960004 -0.37440005 1.3807003 -0.37600005 C 1.3740003 -0.37670004 1.3674004 -0.37810004 1.3607004 -0.37910005 C 1.3549004 -0.38000005 1.3491004 -0.38070005 1.3434004 -0.38140005 C 1.3416004 -0.37970003 1.3397003 -0.37800005 1.3378004 -0.37630004 Z M -1.3704 -0.1372 C -1.3995999 -0.1257 -1.4255999 -0.1156 -1.4555999 -0.1037 C -1.4548999 -0.0959 -1.4524999 -0.083799995 -1.4531999 -0.071899995 C -1.4563999 -0.017399997 -1.4595999 0.037100002 -1.4648999 0.0916 C -1.4660999 0.1037 -1.4740999 0.1162 -1.4824998 0.1269 C -1.4910998 0.1379 -1.5066998 0.1367 -1.5113999 0.1245 C -1.5174999 0.1086 -1.5214999 0.0916 -1.5219998 0.0751 C -1.5235999 0.021499999 -1.5229999 -0.0322 -1.5234998 -0.0858 C -1.5234998 -0.0908 -1.5245998 -0.0958 -1.5251999 -0.100999996 C -1.5409999 -0.102299996 -1.5558999 -0.10259999 -1.5701998 -0.104899995 C -1.6215998 -0.11309999 -1.6437999 -0.131 -1.6488998 -0.1705 C -1.6520998 -0.1953 -1.6514997 -0.22039999 -1.6527998 -0.2454 C -1.6533998 -0.2558 -1.6545998 -0.2661 -1.6554998 -0.2765 C -1.6577998 -0.27719998 -1.6601998 -0.27789998 -1.6624998 -0.2787 C -1.6700997 -0.273 -1.6805998 -0.2683 -1.6847998 -0.26139998 C -1.6994998 -0.23739998 -1.7128998 -0.21289998 -1.7251998 -0.18819998 C -1.7384998 -0.16149998 -1.7484999 -0.13379999 -1.7629998 -0.10749998 C -1.7702998 -0.09419998 -1.7826998 -0.08169998 -1.7960998 -0.07129998 C -1.8132998 -0.057999976 -1.8336998 -0.057999976 -1.8530998 -0.06959998 C -1.8962998 -0.095299974 -1.9160998 -0.13169998 -1.9305998 -0.16979998 C -1.9473999 -0.21399999 -1.9498998 -0.2593 -1.9458998 -0.3049 C -1.9439999 -0.3263 -1.9418999 -0.34759998 -1.9394999 -0.369 C -1.9389999 -0.3735 -1.9374999 -0.37809998 -1.9349998 -0.3822 C -1.9288998 -0.3924 -1.9186999 -0.3925 -1.9127998 -0.3835 C -1.9054998 -0.3722 -1.8997998 -0.3598 -1.8976998 -0.34750003 C -1.8951998 -0.33240002 -1.8960998 -0.3169 -1.8973998 -0.30160004 C -1.9016998 -0.24810004 -1.8829998 -0.19860004 -1.8536998 -0.15070003 C -1.8516998 -0.14750004 -1.8490998 -0.14440003 -1.8464998 -0.14140004 C -1.8343998 -0.12790003 -1.8268998 -0.12740004 -1.8157998 -0.14190003 C -1.8049998 -0.15590003 -1.7966999 -0.17110004 -1.7881998 -0.18610004 C -1.7631998 -0.23020004 -1.7410998 -0.27530003 -1.7127998 -0.31810004 C -1.6982998 -0.33990005 -1.6747998 -0.35900003 -1.6515998 -0.37660003 C -1.6410998 -0.3846 -1.6215998 -0.38600004 -1.6061997 -0.39040002 C -1.6020998 -0.37960002 -1.5947998 -0.36890003 -1.5943997 -0.358 C -1.5929997 -0.31620002 -1.5943997 -0.2743 -1.5933996 -0.23250002 C -1.5929997 -0.21730001 -1.5909996 -0.20180002 -1.5857997 -0.18720001 C -1.5777997 -0.16480002 -1.5574996 -0.15420002 -1.5237997 -0.1534 C -1.5281997 -0.1918 -1.5318997 -0.2298 -1.5372996 -0.2678 C -1.5437996 -0.3139 -1.5536996 -0.3598 -1.5586996 -0.4061 C -1.5624996 -0.4414 -1.5349996 -0.468 -1.5040996 -0.4918 C -1.4890996 -0.5033 -1.4767996 -0.501 -1.4675996 -0.48610002 C -1.4573996 -0.4695 -1.4477997 -0.45240003 -1.4405997 -0.435 C -1.4331996 -0.417 -1.4442997 -0.4027 -1.4641997 -0.3931 C -1.4761996 -0.3874 -1.4802997 -0.3808 -1.4795997 -0.3706 C -1.4772997 -0.33639997 -1.4762998 -0.30229998 -1.4737997 -0.2681 C -1.4712996 -0.234 -1.4674997 -0.1999 -1.4642997 -0.16579999 C -1.4389997 -0.1671 -1.4236996 -0.1776 -1.4249997 -0.19579999 C -1.4266998 -0.22119999 -1.4315997 -0.24649999 -1.4349997 -0.2719 C -1.4408997 -0.3156 -1.4377997 -0.3587 -1.4157997 -0.39990002 C -1.4088998 -0.41290003 -1.4038998 -0.4336 -1.3803997 -0.4304 C -1.3582997 -0.42740002 -1.3628997 -0.40710002 -1.3624997 -0.39360002 C -1.3612998 -0.35020003 -1.3629997 -0.30670002 -1.3618997 -0.2633 C -1.3612998 -0.2374 -1.3529997 -0.2126 -1.3311998 -0.19170001 C -1.3016998 -0.16350001 -1.2646998 -0.16710001 -1.2471998 -0.2002 C -1.2321998 -0.22860001 -1.2305998 -0.2582 -1.2439997 -0.28710002 C -1.2564998 -0.314 -1.2707998 -0.3406 -1.2865998 -0.36650002 C -1.2998997 -0.3882 -1.2969998 -0.4072 -1.2802998 -0.42710003 C -1.2677997 -0.44200003 -1.2600998 -0.45920002 -1.2485998 -0.47460002 C -1.2437998 -0.48110002 -1.2343998 -0.48560002 -1.2270998 -0.49100003 C -1.2204998 -0.48520002 -1.2115998 -0.48020002 -1.2077998 -0.47360003 C -1.1872998 -0.43820003 -1.1677998 -0.40240002 -1.1484998 -0.36660004 C -1.1459998 -0.36200005 -1.1464999 -0.35660005 -1.1455998 -0.35150003 C -1.1531998 -0.35090002 -1.1615999 -0.34850004 -1.1683998 -0.35000002 C -1.1788998 -0.35240003 -1.1883998 -0.35750002 -1.1983998 -0.36150002 C -1.2003998 -0.3607 -1.2024997 -0.3598 -1.2044998 -0.35900003 C -1.1994998 -0.34700003 -1.1958998 -0.3345 -1.1890998 -0.323 C -1.1718998 -0.29400003 -1.1632998 -0.2639 -1.1662998 -0.23220001 C -1.1688998 -0.20490001 -1.1776998 -0.17880002 -1.1960999 -0.155 C -1.2277999 -0.113900006 -1.2758999 -0.1022 -1.3335999 -0.121800005 C -1.3483 -0.1268 -1.3620999 -0.13340001 -1.3706 -0.13690001 Z M 0.1047 -0.3481 C 0.126 -0.2971 0.1327 -0.24780001 0.1169 -0.19790001 C 0.1126 -0.18420002 0.1051 -0.17070001 0.0962 -0.15820001 C 0.068799995 -0.12000001 0.031999998 -0.10980001 -0.023400001 -0.12300001 C -0.0557 -0.1307 -0.0811 -0.14530002 -0.1023 -0.16620001 C -0.1488 -0.13340001 -0.191 -0.093700014 -0.266 -0.10780001 C -0.3298 -0.11980001 -0.3838 -0.14160001 -0.4088 -0.19100001 C -0.4192 -0.17750001 -0.4285 -0.16320002 -0.4404 -0.15030001 C -0.49 -0.09650001 -0.5694 -0.094200015 -0.6251 -0.14450002 C -0.6485 -0.16560002 -0.6646 -0.19040002 -0.6635 -0.21720001 C -0.66110003 -0.27780002 -0.654 -0.33830002 -0.6483 -0.39880002 C -0.64779997 -0.40480003 -0.6453 -0.41120002 -0.6411 -0.4162 C -0.6373 -0.4207 -0.6293 -0.4266 -0.62409997 -0.4262 C -0.6184 -0.4257 -0.6106 -0.419 -0.60929996 -0.4142 C -0.60609996 -0.4028 -0.60569996 -0.391 -0.6051 -0.3793 C -0.60249996 -0.33179998 -0.6008 -0.2844 -0.59779996 -0.2369 C -0.59699994 -0.2238 -0.59419996 -0.2104 -0.58959997 -0.1977 C -0.57739997 -0.1642 -0.53959996 -0.15429999 -0.50079995 -0.17369999 C -0.47779995 -0.18519999 -0.46589994 -0.20279999 -0.46079996 -0.22199999 C -0.45349997 -0.24989998 -0.45069996 -0.27859998 -0.44379997 -0.30659997 C -0.43719998 -0.33359998 -0.42849997 -0.36039996 -0.41939998 -0.38699996 C -0.41619998 -0.39619997 -0.40979996 -0.40499997 -0.40349996 -0.41339996 C -0.39569995 -0.42389998 -0.38529995 -0.43449998 -0.36699995 -0.43079996 C -0.34889996 -0.42719996 -0.34889996 -0.41369995 -0.34899995 -0.40279996 C -0.34919995 -0.37219995 -0.35339993 -0.34149995 -0.35159996 -0.31099996 C -0.34979996 -0.28119996 -0.34579995 -0.25099996 -0.33649996 -0.22219996 C -0.33179995 -0.20749997 -0.31549996 -0.19379996 -0.30079997 -0.18229996 C -0.27779996 -0.16429996 -0.24799997 -0.16259995 -0.21839997 -0.17409995 C -0.15629998 -0.19829994 -0.13329998 -0.23279995 -0.14939997 -0.28419995 C -0.15849997 -0.31329995 -0.17259997 -0.34159994 -0.18609996 -0.36989996 C -0.20019996 -0.39909995 -0.19659996 -0.42709994 -0.17939997 -0.45459998 C -0.17179997 -0.46679997 -0.16249996 -0.47859997 -0.14079997 -0.47789997 C -0.120299965 -0.47729996 -0.109799966 -0.46579996 -0.10559997 -0.45359996 C -0.09519997 -0.42309996 -0.08569997 -0.39219996 -0.079799965 -0.36099994 C -0.072299965 -0.32109994 -0.06909996 -0.28079993 -0.06289996 -0.24079993 C -0.06149996 -0.23199993 -0.056399964 -0.22299993 -0.050699964 -0.21509993 C -0.037799962 -0.19719993 -0.016399965 -0.19119993 0.012000039 -0.19599994 C 0.03440004 -0.19989994 0.04600004 -0.21119994 0.04610004 -0.23269993 C 0.04640004 -0.28529993 0.03870004 -0.3363999 -2.9996037E-4 -0.38249993 C -0.02299996 -0.40939993 -0.01309996 -0.45489994 0.01690004 -0.47799993 C 0.02580004 -0.48489994 0.03500004 -0.4832999 0.041400038 -0.47689992 C 0.075200036 -0.44299993 0.10840004 -0.40879992 0.14150004 -0.37459993 C 0.14420004 -0.37179995 0.14540005 -0.36809993 0.14670004 -0.36469993 C 0.15170003 -0.35039994 0.14450005 -0.34409994 0.12510005 -0.34589994 C 0.11920004 -0.34639993 0.11330005 -0.34709993 0.10460004 -0.34809995 Z M 0.2878 -0.3775 C 0.32720003 -0.3388 0.36650002 -0.3002 0.40620002 -0.2613 C 0.40060002 -0.31239998 0.3943 -0.362 0.3898 -0.4117 C 0.386 -0.4544 0.41320002 -0.48830003 0.4483 -0.5193 C 0.4595 -0.5291 0.4677 -0.5281 0.4731 -0.51589996 C 0.4778 -0.5053 0.4797 -0.49409994 0.4826 -0.48319995 C 0.4944 -0.43929994 0.51850003 -0.39879996 0.5452 -0.35919994 C 0.5492 -0.35329995 0.5557 -0.34749994 0.5563 -0.34139994 C 0.557 -0.33519995 0.5538 -0.32719994 0.5484 -0.32269993 C 0.5459 -0.32059994 0.53279996 -0.32359993 0.5266 -0.32669994 C 0.5168 -0.33149993 0.5088 -0.33819994 0.4999 -0.34419996 C 0.49780002 -0.34359995 0.4957 -0.34289995 0.4936 -0.34229997 C 0.49510002 -0.32269996 0.4959 -0.30309996 0.49830002 -0.28359997 C 0.5028 -0.24549997 0.5076 -0.20729998 0.51350003 -0.16939998 C 0.51470006 -0.16129997 0.5192 -0.15269998 0.52540004 -0.14599998 C 0.6036 -0.061599985 0.66440004 0.029200017 0.70220006 0.12820001 C 0.70870006 0.14520001 0.71120006 0.1631 0.7139 0.1808 C 0.7146 0.1852 0.7088 0.1902 0.70600003 0.19500001 C 0.7009 0.1921 0.6937 0.19010001 0.69100004 0.18620001 C 0.67210007 0.15910001 0.65450007 0.1315 0.63570005 0.10440001 C 0.6003001 0.05340001 0.56430006 0.0025000125 0.52860004 -0.048399985 C 0.5264 -0.047899984 0.52410007 -0.047399987 0.52180004 -0.046899986 C 0.52180004 -0.033099987 0.522 -0.019299986 0.5217 -0.005499985 C 0.52030003 0.069500014 0.51970005 0.1446 0.51680005 0.2196 C 0.51610005 0.2381 0.50860006 0.2567 0.5026001 0.27490002 C 0.5012001 0.27910003 0.4928001 0.28190002 0.4876001 0.28540003 C 0.48430008 0.28130004 0.4799001 0.27760002 0.4778001 0.27320004 C 0.4758001 0.26900002 0.4753001 0.26420003 0.4755001 0.25960004 C 0.4784001 0.19310004 0.47020012 0.12710005 0.4592001 0.061200038 C 0.4484001 -0.003599964 0.4407001 -0.06859997 0.43090013 -0.13349997 C 0.42980012 -0.14049996 0.42530012 -0.14829996 0.41910014 -0.15369996 C 0.33640015 -0.22549996 0.25300014 -0.29699996 0.16990013 -0.36859995 C 0.16190013 -0.37549996 0.15410013 -0.38259995 0.14610013 -0.38959995 C 0.10720013 -0.42359996 0.12260014 -0.45639995 0.16140014 -0.48709995 C 0.17260014 -0.49599993 0.18470013 -0.49679995 0.19900014 -0.48819995 C 0.24460013 -0.46069995 0.29110014 -0.43399996 0.33720013 -0.40699995 C 0.34140015 -0.40449995 0.34670013 -0.40159994 0.34790012 -0.39819995 C 0.3498001 -0.39309993 0.3507001 -0.38649994 0.34770012 -0.38229996 C 0.34570011 -0.37949997 0.33610013 -0.37839997 0.33010012 -0.37869996 C 0.3175001 -0.37929997 0.30500013 -0.38129997 0.29240012 -0.38269997 C 0.29100013 -0.38099995 0.28950012 -0.37929997 0.28810012 -0.37759995 Z M 1.5383 0.4313 C 1.5439 0.42760003 1.549 0.42290002 1.5554 0.42040002 C 1.5722001 0.4137 1.5894 0.40770003 1.6068 0.40180004 C 1.6883 0.37440005 1.7535 0.33220005 1.8061999 0.27860004 C 1.8363999 0.24800004 1.8439 0.21130005 1.8517 0.17510003 C 1.8673999 0.102300026 1.8603 0.029400036 1.8491 -0.04319997 C 1.8333 -0.14559996 1.8158 -0.24779998 1.8003 -0.3502 C 1.7971 -0.3714 1.7981 -0.3931 1.7994 -0.41439998 C 1.8015 -0.4502 1.8299 -0.47689998 1.8583 -0.5032 C 1.8665 -0.5108 1.8749 -0.5093 1.8804 -0.5007 C 1.8829999 -0.4966 1.8849 -0.4921 1.8857 -0.4876 C 1.8953 -0.4331 1.9245 -0.3838 1.9574 -0.3355 C 1.9605 -0.331 1.9659 -0.326 1.9652 -0.3217 C 1.9641999 -0.31530002 1.9598 -0.3085 1.9542999 -0.3035 C 1.9526999 -0.3021 1.9410999 -0.30539998 1.9358 -0.3083 C 1.9261 -0.31359997 1.9176999 -0.32029998 1.9031999 -0.32529998 C 1.9031999 -0.31669998 1.902 -0.30799997 1.9034 -0.2995 C 1.9221 -0.18499999 1.9398999 -0.070399985 1.9416 0.045100003 C 1.9426999 0.1208 1.9353 0.19590001 1.8988999 0.268 C 1.8786999 0.308 1.8474 0.3406 1.8026999 0.3667 C 1.7449999 0.40039998 1.6818999 0.42589998 1.6093999 0.4357 C 1.5869999 0.4387 1.5633999 0.4362 1.5402999 0.4362 C 1.5395999 0.4346 1.5388999 0.433 1.5382999 0.4315 Z M 0.8161 -0.3297 C 0.8161 -0.31759998 0.81520003 -0.3102 0.8162 -0.3029 C 0.8247 -0.24359998 0.83500004 -0.18429998 0.8421 -0.12489998 C 0.8535 -0.028699987 0.8618 0.06750001 0.84070003 0.16370001 C 0.8125 0.2921 0.7182 0.3686 0.54710007 0.40000004 C 0.52010006 0.40490004 0.49280006 0.40900004 0.46560007 0.41350004 C 0.46160007 0.41410005 0.45720008 0.41550004 0.45360008 0.41470003 C 0.44320008 0.41250002 0.43310007 0.40930003 0.42290008 0.40650004 C 0.4289001 0.39970005 0.43290007 0.39030004 0.4413001 0.38680005 C 0.4595001 0.37920004 0.47930008 0.37340006 0.49940008 0.36910006 C 0.5616001 0.35570008 0.6176001 0.33390006 0.6704001 0.30590007 C 0.73380005 0.27230006 0.7617001 0.22550008 0.7692001 0.16950007 C 0.7786001 0.098900065 0.7732001 0.028700069 0.7625001 -0.041399926 C 0.7468001 -0.14379993 0.7290001 -0.24589993 0.7134001 -0.34829992 C 0.7101001 -0.36999992 0.71130013 -0.39219993 0.71250015 -0.41409993 C 0.7145001 -0.44989994 0.7428002 -0.47669995 0.77110016 -0.5029999 C 0.78010017 -0.5112999 0.7888002 -0.5090999 0.7942002 -0.4995999 C 0.7961002 -0.4962999 0.7979002 -0.4928999 0.7985002 -0.4893999 C 0.8076002 -0.4325999 0.83900017 -0.3817999 0.8728002 -0.3315999 C 0.87490016 -0.3283999 0.8790002 -0.32469988 0.8782002 -0.3218999 C 0.8762002 -0.3153999 0.87300014 -0.3086999 0.86770016 -0.3035999 C 0.86610013 -0.30209988 0.85440016 -0.3050999 0.8492001 -0.3079999 C 0.8390001 -0.3133999 0.8301001 -0.3201999 0.81590015 -0.32959992 Z M 1.0035 -0.3 C 1.0052999 -0.27940002 1.0063 -0.2588 1.009 -0.23830001 C 1.0215999 -0.14330001 1.0364 -0.048300013 1.0304999 0.047299996 C 1.0258999 0.12109999 1.0158999 0.1947 1.0072999 0.2683 C 1.0059999 0.2793 1.0009999 0.2904 0.9949999 0.3005 C 0.99159986 0.3061 0.9826999 0.3098 0.97619987 0.31440002 C 0.97259986 0.3088 0.9662999 0.3032 0.96599984 0.29740003 C 0.96489984 0.27700004 0.9643998 0.25650004 0.9661998 0.23620003 C 0.9740998 0.14870003 0.9624998 0.061800033 0.9502998 -0.024999976 C 0.9357998 -0.12739998 0.9168998 -0.22949998 0.9018998 -0.33179998 C 0.8984998 -0.35489997 0.9013998 -0.3787 0.9044998 -0.40199998 C 0.9086998 -0.43299997 0.9367998 -0.45529997 0.9607998 -0.47859997 C 0.96849984 -0.48609996 0.9776998 -0.48439997 0.9825998 -0.47559997 C 0.9856998 -0.46999997 0.9881998 -0.464 0.9891998 -0.45799997 C 0.99829984 -0.40549996 1.0273998 -0.3584 1.0585998 -0.31179997 C 1.0616999 -0.30719998 1.0671998 -0.30249998 1.0668998 -0.29809996 C 1.0663998 -0.29169998 1.0632998 -0.28439996 1.0578998 -0.27969995 C 1.0556998 -0.27779996 1.0431998 -0.28059995 1.0374998 -0.28349996 C 1.0276998 -0.28859997 1.0195998 -0.29559997 1.0107998 -0.30169997 C 1.0082997 -0.30109996 1.0058998 -0.30049998 1.0033997 -0.29999995 Z M -0.7236 -0.41 C -0.71669996 -0.4055 -0.7082 -0.40219998 -0.7043 -0.3969 C -0.69339997 -0.3822 -0.7068 -0.3679 -0.7326 -0.3689 C -0.7503 -0.3696 -0.75689995 -0.3646 -0.7633 -0.3535 C -0.7761 -0.331 -0.7986 -0.31480002 -0.8298 -0.3071 C -0.838 -0.3051 -0.8484 -0.3079 -0.8577 -0.3085 C -0.8548 -0.3152 -0.8542 -0.3233 -0.8487 -0.3285 C -0.831 -0.3454 -0.8115 -0.3613 -0.79289997 -0.3775 C -0.839 -0.4084 -0.84639996 -0.4291 -0.8271 -0.46289998 C -0.81219995 -0.48909998 -0.77239996 -0.5029 -0.73759997 -0.49179998 C -0.72819996 -0.4888 -0.7193 -0.4795 -0.71639997 -0.47169998 C -0.71269995 -0.4619 -0.71419996 -0.45069999 -0.71559995 -0.44019997 C -0.71699995 -0.42969996 -0.72089994 -0.41939998 -0.72349995 -0.40979996 Z M -0.76699996 -0.4168 C -0.76269996 -0.4258 -0.75699997 -0.43359998 -0.75589997 -0.4418 C -0.7553 -0.4461 -0.7621 -0.4546 -0.76659995 -0.45499998 C -0.77299994 -0.4556 -0.78339994 -0.45189998 -0.78669995 -0.4477 C -0.79629993 -0.4354 -0.78909993 -0.4242 -0.76699996 -0.41689998 Z M -1.925 0.1263 C -1.9312999 0.124000005 -1.941 0.12250001 -1.9418999 0.119600005 C -1.9430999 0.115200005 -1.9401 0.108100004 -1.9353999 0.105100006 C -1.9150999 0.092300005 -1.8930999 0.08100001 -1.8725998 0.06840001 C -1.8431998 0.05030001 -1.8156998 0.030200012 -1.7852998 0.013200011 C -1.7472998 -0.007999988 -1.7073997 -0.02739999 -1.6675998 -0.04669999 C -1.6587998 -0.05099999 -1.6471997 -0.05359999 -1.6367998 -0.05369999 C -1.6264998 -0.05379999 -1.6159998 -0.04969999 -1.6055998 -0.04749999 C -1.6086998 -0.040199988 -1.6091998 -0.031199988 -1.6153997 -0.025999987 C -1.6284997 -0.015099987 -1.6432997 -0.004799988 -1.6595997 0.003300013 C -1.7384996 0.04240001 -1.8179996 0.08080001 -1.8975997 0.11910001 C -1.9052997 0.122800015 -1.9150997 0.12390001 -1.9249997 0.12640001 Z M 1.2985 0.0169 C 1.3017999 0.0040999996 1.3032999 -0.009200001 1.3089999 -0.0213 C 1.3151999 -0.0345 1.3235999 -0.0476 1.3343999 -0.0589 C 1.3404 -0.0651 1.3532 -0.070099995 1.3635999 -0.0709 C 1.3725998 -0.0715 1.3856999 -0.0672 1.3909999 -0.0617 C 1.3952999 -0.0572 1.3946999 -0.045500003 1.3896999 -0.0412 C 1.3562999 -0.0118 1.3462999 0.022300001 1.3456999 0.059800003 C 1.3453999 0.081700005 1.3258 0.0894 1.3014 0.0775 C 1.2522999 0.0536 1.2124 0.0222 1.1812999 -0.015000001 C 1.1766 -0.0206 1.1759999 -0.0342 1.1805999 -0.036700003 C 1.1895 -0.041600004 1.2068999 -0.045500003 1.2147999 -0.042100005 C 1.2317998 -0.034800004 1.2458999 -0.023100005 1.2594999 -0.012000006 C 1.2710999 -0.002500006 1.2803999 0.008499995 1.2907 0.018899994 C 1.2932999 0.018299993 1.2958 0.017699994 1.2983999 0.016999993 Z M -0.091 -0.0373 C -0.098799996 -0.045900002 -0.1057 -0.055 -0.1146 -0.062800005 C -0.1243 -0.0714 -0.128 -0.080000006 -0.117300004 -0.08860001 C -0.106400006 -0.09740001 -0.09370001 -0.09530001 -0.0829 -0.08800001 C -0.061900005 -0.07370001 -0.0496 -0.055700008 -0.047000002 -0.03460001 C -0.044800002 -0.017400008 -0.0619 -0.002900008 -0.085 -8.000098E-4 C -0.0917 -2.0000979E-4 -0.0984 -2.0000979E-4 -0.1063 9.999017E-5 C -0.10919999 0.01659999 -0.1165 0.03129999 -0.1414 0.03469999 C -0.16759999 0.038299993 -0.1891 0.030099992 -0.20289999 0.014199991 C -0.2137 0.0016999906 -0.22109999 -0.01290001 -0.22709998 -0.02720001 C -0.23119998 -0.037000008 -0.22449999 -0.04570001 -0.20989999 -0.047800012 C -0.1954 -0.04990001 -0.18669999 -0.043900013 -0.18329999 -0.033500012 C -0.17889999 -0.020100012 -0.17359999 -0.007200012 -0.1521 0.0014999881 C -0.1569 -0.010600012 -0.1609 -0.020200012 -0.1646 -0.029800013 C -0.1683 -0.039700013 -0.1695 -0.04950001 -0.1546 -0.055000015 C -0.14 -0.060300015 -0.1313 -0.054400016 -0.122499995 -0.045700014 C -0.11669999 -0.039900012 -0.10649999 -0.036600012 -0.09819999 -0.032200012 C -0.09579999 -0.03390001 -0.093399994 -0.035600014 -0.09099999 -0.03720001 Z M -1.9424 0.3535 C -1.9446 0.31010002 -1.9132 0.2784 -1.8766999 0.2486 C -1.8734999 0.246 -1.8643999 0.244 -1.8612999 0.24550001 C -1.8574998 0.24730001 -1.8544998 0.25370002 -1.8556999 0.2572 C -1.8614999 0.2723 -1.8697 0.2869 -1.8754998 0.302 C -1.8820999 0.3189 -1.8904998 0.336 -1.8918998 0.35329998 C -1.8939998 0.37939999 -1.8774998 0.3868 -1.8445998 0.37819996 C -1.8165998 0.37089998 -1.7993999 0.37349996 -1.7928998 0.38599998 C -1.7867998 0.39769998 -1.8022999 0.41529998 -1.8257998 0.42149997 C -1.8769999 0.43499997 -1.9457998 0.41429996 -1.9422998 0.35339996 Z M 1.1443 -0.0839 C 1.1204 -0.0841 1.1068 -0.094399996 1.1077 -0.1104 C 1.1082 -0.1198 1.1139 -0.1258 1.1267 -0.12719999 C 1.1972001 -0.1352 1.2546 -0.1618 1.3057001 -0.19759999 C 1.3151001 -0.2042 1.3246001 -0.2109 1.3351 -0.2163 C 1.3399 -0.2188 1.35 -0.2207 1.3531001 -0.2188 C 1.3578 -0.21589999 1.3608 -0.2091 1.3601 -0.20439999 C 1.3592 -0.19809999 1.3558 -0.19109999 1.3505 -0.18629998 C 1.2997 -0.14079998 1.2413 -0.10279998 1.1632 -0.08589998 C 1.16 -0.08519998 1.1566 -0.08469998 1.1533 -0.084399976 S 1.1465 -0.08409998 1.1443001 -0.08399998 Z M 0.2844 0.3284 C 0.2681 0.33519998 0.25169998 0.3419 0.23549998 0.3489 C 0.22389998 0.3539 0.21149997 0.35999998 0.20199998 0.34849998 C 0.19319998 0.33789998 0.20219998 0.32999998 0.21469998 0.32479998 C 0.23469998 0.31649998 0.25489998 0.30819997 0.27539998 0.3006 C 0.28059998 0.2987 0.288 0.29749998 0.2932 0.2988 C 0.30679998 0.3021 0.3263 0.30449998 0.3311 0.3118 C 0.336 0.3192 0.32729998 0.3324 0.3222 0.3424 C 0.3192 0.3483 0.3109 0.3526 0.30629998 0.3582 C 0.3038 0.3612 0.30389997 0.3655 0.3029 0.36920002 C 0.30789998 0.3697 0.31359997 0.37160003 0.3178 0.3704 C 0.33049998 0.3669 0.3426 0.36220002 0.355 0.358 C 0.3624 0.3555 0.37019998 0.3508 0.3773 0.35140002 C 0.38529998 0.35200003 0.3958 0.35610002 0.3992 0.36110002 C 0.4019 0.365 0.39749998 0.3761 0.3926 0.37770003 C 0.366 0.38640004 0.3388 0.39410004 0.3109 0.40020004 C 0.2962 0.40340003 0.2809 0.40080005 0.2719 0.38900003 C 0.2629 0.37730002 0.2639 0.36550003 0.2723 0.35400003 C 0.2776 0.34680003 0.2842 0.34010002 0.2902 0.33320004 C 0.2883 0.33160004 0.2864 0.32990003 0.2845 0.32830003 Z M -1.7858 -0.3721 C -1.8311 -0.3723 -1.855 -0.3931 -1.8483 -0.42659998 C -1.8434 -0.45149997 -1.8241 -0.4694 -1.7985 -0.48399997 C -1.7873999 -0.49029997 -1.775 -0.49049997 -1.7660999 -0.48149997 C -1.7576 -0.47289997 -1.7606 -0.46459997 -1.7707999 -0.45699996 C -1.7803999 -0.44989997 -1.7914999 -0.44289994 -1.7970998 -0.43409997 C -1.8015999 -0.42689997 -1.7989998 -0.41709998 -1.7994999 -0.40839997 C -1.7860999 -0.40979996 -1.7716999 -0.40949997 -1.7597998 -0.41339996 C -1.7525998 -0.41569996 -1.7488998 -0.42449996 -1.7444998 -0.43079996 C -1.7379998 -0.44009995 -1.7290998 -0.44509995 -1.7148998 -0.44099995 C -1.6989998 -0.43649995 -1.6987997 -0.42709994 -1.7030997 -0.41699997 C -1.7149997 -0.38869998 -1.7459997 -0.37199998 -1.7858998 -0.37209997 Z M 1.2535 0.3475 C 1.2562 0.3475 1.259 0.3475 1.2617 0.3475 C 1.3031 0.3477 1.3183 0.3637 1.2948 0.3887 C 1.2637 0.4217 1.2264 0.4515 1.1902001 0.4817 C 1.1853001 0.4858 1.1686001 0.4869 1.1621001 0.4838 C 1.1498001 0.4779 1.1553 0.46789998 1.1639 0.4614 C 1.1835 0.4466 1.2045 0.4329 1.2241 0.41820002 C 1.2322 0.4122 1.2387 0.4049 1.245 0.3977 C 1.2466 0.3959 1.2455 0.39180002 1.2437 0.38970003 C 1.2426001 0.38850003 1.2372 0.38840002 1.2346001 0.38930002 C 1.223 0.3932 1.2104001 0.40120003 1.2059001 0.38410002 C 1.2005001 0.36360002 1.2094 0.34970003 1.2292001 0.34790003 C 1.2372001 0.34720004 1.2454001 0.34780005 1.2536001 0.34780005 C 1.2536001 0.34770006 1.2536001 0.34760004 1.2536001 0.34750006 Z M 0.6307 -0.1746 C 0.6246 -0.16770001 0.62049997 -0.16260001 0.61579996 -0.1579 C 0.6022 -0.1444 0.5865 -0.14500001 0.5767 -0.16000001 C 0.56229997 -0.18200001 0.5574 -0.2055 0.56079996 -0.22980002 C 0.56139994 -0.23380001 0.56749994 -0.23740001 0.57109994 -0.24120001 C 0.57519996 -0.23780002 0.5817999 -0.23480001 0.58299994 -0.23090002 C 0.5856999 -0.22210002 0.58559996 -0.21280003 0.58689994 -0.20370002 C 0.58809996 -0.19590002 0.5899999 -0.18820003 0.5914999 -0.18050002 C 0.5939999 -0.18010001 0.5963999 -0.17980002 0.5988999 -0.17940001 C 0.6024999 -0.18630001 0.6055999 -0.19330001 0.6097999 -0.2001 C 0.6140999 -0.207 0.6193999 -0.21360001 0.62429994 -0.2203 C 0.63109994 -0.2141 0.63839996 -0.20820001 0.64449996 -0.2017 C 0.6497 -0.1962 0.6536 -0.1901 0.65809995 -0.1842 C 0.66089994 -0.1844 0.6636999 -0.1847 0.66639996 -0.185 C 0.66849995 -0.2043 0.6705 -0.2237 0.673 -0.2467 C 0.6807 -0.24180001 0.6838 -0.24080001 0.68439996 -0.23920001 C 0.69539994 -0.21220002 0.69549996 -0.18490002 0.6834 -0.15820001 C 0.67859995 -0.14770001 0.66429996 -0.1465 0.6518 -0.15450001 C 0.64779997 -0.1571 0.64479995 -0.16070001 0.6415 -0.1639 C 0.6386 -0.1667 0.6358 -0.16950001 0.6306 -0.1747 Z M -0.7661 -0.2414 C -0.7711 -0.2334 -0.7768 -0.2257 -0.7809 -0.2175 C -0.7895 -0.2005 -0.7984 -0.18349999 -0.8048 -0.1661 C -0.8073 -0.1593 -0.8046 -0.151 -0.80249995 -0.14359999 C -0.79969996 -0.13399999 -0.79109997 -0.13149999 -0.77949995 -0.13629998 C -0.77119994 -0.13969998 -0.7635 -0.14459999 -0.75469995 -0.14659998 C -0.74869996 -0.14799997 -0.73939997 -0.14709997 -0.73499995 -0.14429998 C -0.73149997 -0.14209998 -0.73099995 -0.13469999 -0.73289996 -0.13059999 C -0.7399 -0.11579999 -0.77419996 -0.101799995 -0.79679996 -0.10349999 C -0.82109994 -0.105299994 -0.83799994 -0.115399994 -0.8415 -0.1356 C -0.8484 -0.1753 -0.831 -0.2098 -0.79469997 -0.2387 C -0.78949994 -0.2429 -0.7787 -0.2432 -0.77049994 -0.2453 C -0.76899993 -0.24399999 -0.76759994 -0.2427 -0.76609993 -0.2413 Z M 0.6608 -0.3648 C 0.6584 -0.3504 0.65599996 -0.3322 0.65169996 -0.3142 C 0.6507 -0.30980003 0.6432 -0.3063 0.63869995 -0.30240002 C 0.63439995 -0.307 0.62749994 -0.31120002 0.62609994 -0.31620002 C 0.62389994 -0.32400003 0.62659997 -0.33260003 0.62499994 -0.3406 C 0.6197999 -0.36510003 0.61399996 -0.38950002 0.6075999 -0.4138 C 0.6038999 -0.4277 0.5961999 -0.4413 0.5945999 -0.45520002 C 0.59369993 -0.46280003 0.6019999 -0.47090003 0.6060999 -0.47890002 C 0.6149999 -0.4738 0.6282999 -0.47010002 0.6318999 -0.4634 C 0.6420999 -0.4447 0.6495999 -0.425 0.6558999 -0.40530002 C 0.6595999 -0.39350003 0.6590999 -0.381 0.6608999 -0.36480004 Z M -0.8723 0.148 C -0.8467 0.1482 -0.8115 0.1779 -0.81670004 0.2016 C -0.82600003 0.2435 -0.85980004 0.271 -0.91110003 0.28689998 C -0.9172 0.28879997 -0.92590004 0.28599998 -0.9333 0.28539997 C -0.93 0.28029996 -0.9281 0.27409998 -0.9229 0.27029997 C -0.9157 0.26509997 -0.90470004 0.26269996 -0.89790004 0.25729996 C -0.88360006 0.24609996 -0.8676 0.23499995 -0.85830003 0.22149996 C -0.846 0.20349997 -0.8571 0.18979996 -0.884 0.18599996 C -0.9018 0.18349996 -0.9034 0.17479996 -0.9021 0.16459996 C -0.9009 0.15419996 -0.89350003 0.14759995 -0.8722 0.14799996 Z"/>
<path id="star" d="M 0.0 -1.0 L 0.2245 -0.309 L 0.9511 -0.309 L 0.3633 0.118 L 0.5878 0.809 L 0.0 0.382 L -0.5878 0.809 L -0.3633 0.118 L -0.9511 -0.309 L -0.2245 -0.309 Z"/>
</defs>
<g>
<g>
<rect x="0" y="0" width="576" height="132" class="green"/>
<rect x="0" y="132" width="576" height="132" class="white"/>
<rect x="0" y="264" width="576" height="132" class="red"/>
</g>
<use xlink:href="#shahada" transform="translate(288 66) scale(66 66) rotate(0)" class="white"/>
<use xlink:href="#star" transform="translate(288 202.7273) scale(49.5 49.5) rotate(0)" class="black"/>
</g>
</svg>
