<?xml version="1.0"?>
<svg xmlns="http://www.w3.org/2000/svg" xmlns:xlink="http://www.w3.org/1999/xlink" version="1.1" width="576" height="396" viewBox="0 0 576 396">
<!-- Generated by Kreative Vexillo v1.0 -->
<style>
.gold{fill:rgb(255,217,0);}
.green{fill:rgb(0,153,51);}
.red{fill:rgb(204,0,0);}
</style>
<defs>
<path id="emblem" d="M 0.5883 0.3745 L 0.6667 0.3176 L 0.7451 0.3745 L 0.7152 0.2824 L 0.7936 0.22550002 H 0.69670004 L 0.6667 0.1333 L 0.6368 0.2254 H 0.5399 L 0.6183 0.2823 L 0.5883 0.3745 Z M 0.5855 0.2403 H 0.6475 L 0.6667 0.1813 L 0.68590003 0.2403 H 0.7479 L 0.6977 0.2767 L 0.71690005 0.33569998 L 0.6667 0.2993 L 0.6165 0.33569998 L 0.63570005 0.27669996 L 0.5855 0.2403 Z M 0.9227 0.8713 C 0.8987 0.8488 0.87479997 0.8262 0.8508 0.8035 C 0.875 0.7723 0.8897 0.7319 0.89119995 0.6855 C 0.89299995 0.6297 0.87139994 0.55780005 0.8220999 0.49890003 C 0.7844 0.4539 0.7292 0.4165 0.6667 0.4 C 0.7213 0.4307 0.7627 0.4747 0.7872 0.5207 C 0.812 0.56729996 0.8229 0.616 0.8231 0.65489995 C 0.82329994 0.68969995 0.811 0.72159994 0.79039997 0.74649996 C 0.733 0.69229996 0.6756 0.63809997 0.61829996 0.584 L 0.70259994 0.50049996 L 0.58529997 0.48429996 L 0.45259997 0.61569995 L 0.519 0.6823 L 0.5816 0.6203 C 0.6337 0.676 0.6871 0.7306 0.7403 0.7854 C 0.7215 0.79429996 0.7004 0.79929996 0.6782 0.79929996 C 0.6355 0.79929996 0.5971 0.78089994 0.57060003 0.75159997 L 0.55590004 0.7639 C 0.55340004 0.7629 0.5507 0.7625 0.54810005 0.7625 C 0.54170007 0.7625 0.53560007 0.7653 0.5314001 0.7702 C 0.5209001 0.7716 0.51220006 0.7788 0.5089001 0.7888 C 0.4979001 0.8109 0.4785001 0.8282 0.45510012 0.8361 C 0.45490012 0.8362 0.4547001 0.83629996 0.4545001 0.8364 C 0.4437001 0.8404 0.4328001 0.84749997 0.4236001 0.85679996 C 0.4053001 0.8752 0.3964001 0.89869994 0.40140012 0.91519994 C 0.40090013 0.9165999 0.4006001 0.91809994 0.4006001 0.9196999 C 0.4006001 0.9272999 0.4068001 0.93349993 0.4144001 0.93349993 C 0.4163001 0.93349993 0.4182001 0.9330999 0.4199001 0.9322999 C 0.4364001 0.93599993 0.45880008 0.9268999 0.47640008 0.9092999 C 0.48630008 0.8992999 0.49380007 0.8874999 0.49740008 0.8758999 C 0.5056001 0.85269994 0.5231001 0.83369994 0.54530007 0.8230999 C 0.5458001 0.8227999 0.54630005 0.8225999 0.54660004 0.8222999 C 0.55410004 0.8186999 0.55950004 0.8119999 0.5615001 0.8039999 C 0.59560007 0.8441999 0.64680004 0.8697999 0.70400006 0.8710999 C 0.7397001 0.8718999 0.7724001 0.8634999 0.8001001 0.8476999 C 0.8239001 0.8724999 0.8475001 0.89749986 0.8708001 0.92269987 C 0.88500005 0.93699986 0.90810007 0.93699986 0.92240006 0.92289984 C 0.9369 0.9086 0.9369 0.8856 0.9227 0.8713 Z"/>
</defs>
<g>
<g>
<rect x="0" y="0" width="576" height="148.5" class="red"/>
<rect x="0" y="148.5" width="576" height="99" class="green"/>
<rect x="0" y="247.5" width="576" height="148.5" class="red"/>
</g>
<use xlink:href="#emblem" transform="translate(0 0) scale(148.5 148.5) rotate(0)" class="gold"/>
</g>
</svg>
