<?xml version="1.0"?>
<svg xmlns="http://www.w3.org/2000/svg" xmlns:xlink="http://www.w3.org/1999/xlink" version="1.1" width="576" height="396" viewBox="0 0 576 396">
<!-- Generated by Kreative Vexillo v1.0 -->
<style>
.b{fill:rgb(123,150,158);}
.g{fill:rgb(138,176,156);}
.n{fill:rgb(171,85,0);}
.o{fill:rgb(218,114,72);}
.r{fill:rgb(255,153,128);}
.v{fill:rgb(161,113,124);}
.y{fill:rgb(252,221,100);}
</style>
<g>
<g>
<rect x="0" y="0" width="82.2857" height="56.5714" class="g"/>
<rect x="82.2857" y="0" width="82.2857" height="56.5714" class="y"/>
<rect x="164.5714" y="0" width="82.2857" height="56.5714" class="o"/>
<rect x="246.8571" y="0" width="82.2857" height="56.5714" class="r"/>
<rect x="329.1429" y="0" width="82.2857" height="56.5714" class="n"/>
<rect x="411.4286" y="0" width="82.2857" height="56.5714" class="v"/>
<rect x="493.7143" y="0" width="82.2857" height="56.5714" class="b"/>
</g>
<g>
<rect x="0" y="56.5714" width="82.2857" height="56.5714" class="b"/>
<rect x="82.2857" y="56.5714" width="82.2857" height="56.5714" class="g"/>
<rect x="164.5714" y="56.5714" width="82.2857" height="56.5714" class="y"/>
<rect x="246.8571" y="56.5714" width="82.2857" height="56.5714" class="o"/>
<rect x="329.1429" y="56.5714" width="82.2857" height="56.5714" class="r"/>
<rect x="411.4286" y="56.5714" width="82.2857" height="56.5714" class="n"/>
<rect x="493.7143" y="56.5714" width="82.2857" height="56.5714" class="v"/>
</g>
<g>
<rect x="0" y="113.1429" width="82.2857" height="56.5714" class="v"/>
<rect x="82.2857" y="113.1429" width="82.2857" height="56.5714" class="b"/>
<rect x="164.5714" y="113.1429" width="82.2857" height="56.5714" class="g"/>
<rect x="246.8571" y="113.1429" width="82.2857" height="56.5714" class="y"/>
<rect x="329.1429" y="113.1429" width="82.2857" height="56.5714" class="o"/>
<rect x="411.4286" y="113.1429" width="82.2857" height="56.5714" class="r"/>
<rect x="493.7143" y="113.1429" width="82.2857" height="56.5714" class="n"/>
</g>
<g>
<rect x="0" y="169.7143" width="82.2857" height="56.5714" class="n"/>
<rect x="82.2857" y="169.7143" width="82.2857" height="56.5714" class="v"/>
<rect x="164.5714" y="169.7143" width="82.2857" height="56.5714" class="b"/>
<rect x="246.8571" y="169.7143" width="82.2857" height="56.5714" class="g"/>
<rect x="329.1429" y="169.7143" width="82.2857" height="56.5714" class="y"/>
<rect x="411.4286" y="169.7143" width="82.2857" height="56.5714" class="o"/>
<rect x="493.7143" y="169.7143" width="82.2857" height="56.5714" class="r"/>
</g>
<g>
<rect x="0" y="226.2857" width="82.2857" height="56.5714" class="r"/>
<rect x="82.2857" y="226.2857" width="82.2857" height="56.5714" class="n"/>
<rect x="164.5714" y="226.2857" width="82.2857" height="56.5714" class="v"/>
<rect x="246.8571" y="226.2857" width="82.2857" height="56.5714" class="b"/>
<rect x="329.1429" y="226.2857" width="82.2857" height="56.5714" class="g"/>
<rect x="411.4286" y="226.2857" width="82.2857" height="56.5714" class="y"/>
<rect x="493.7143" y="226.2857" width="82.2857" height="56.5714" class="o"/>
</g>
<g>
<rect x="0" y="282.8571" width="82.2857" height="56.5714" class="o"/>
<rect x="82.2857" y="282.8571" width="82.2857" height="56.5714" class="r"/>
<rect x="164.5714" y="282.8571" width="82.2857" height="56.5714" class="n"/>
<rect x="246.8571" y="282.8571" width="82.2857" height="56.5714" class="v"/>
<rect x="329.1429" y="282.8571" width="82.2857" height="56.5714" class="b"/>
<rect x="411.4286" y="282.8571" width="82.2857" height="56.5714" class="g"/>
<rect x="493.7143" y="282.8571" width="82.2857" height="56.5714" class="y"/>
</g>
<g>
<rect x="0" y="339.4286" width="82.2857" height="56.5714" class="y"/>
<rect x="82.2857" y="339.4286" width="82.2857" height="56.5714" class="o"/>
<rect x="164.5714" y="339.4286" width="82.2857" height="56.5714" class="r"/>
<rect x="246.8571" y="339.4286" width="82.2857" height="56.5714" class="n"/>
<rect x="329.1429" y="339.4286" width="82.2857" height="56.5714" class="v"/>
<rect x="411.4286" y="339.4286" width="82.2857" height="56.5714" class="b"/>
<rect x="493.7143" y="339.4286" width="82.2857" height="56.5714" class="g"/>
</g>
</g>
</svg>
