<?xml version="1.0"?>
<svg xmlns="http://www.w3.org/2000/svg" xmlns:xlink="http://www.w3.org/1999/xlink" version="1.1" width="576" height="396" viewBox="0 0 576 396">
<!-- Generated by Kreative Vexillo v1.0 -->
<style>
.black{fill:rgb(0,0,0);}
.blue{fill:rgb(12,28,140);}
.gold{fill:rgb(252,181,20);}
.green{fill:rgb(0,124,89);}
.red{fill:rgb(226,61,40);}
.white{fill:rgb(255,255,255);}
</style>
<defs>
<clipPath id="clip0">
<path d="M 0 0 L 288 198 L 0 396 Z"/>
</clipPath>
<clipPath id="clip1">
<path d="M 0 0 L 576 0 L 576 396 L 0 396 L 288 198 Z"/>
</clipPath>
<clipPath id="clip2">
<rect x="0" y="0" width="576" height="396"/>
</clipPath>
</defs>
<g>
<g>
<rect x="0" y="0" width="576" height="198" class="red"/>
<rect x="0" y="198" width="576" height="198" class="blue"/>
</g>
<path d="M 0 0 L 288 198 L 0 396 Z" class="black"/>
<g clip-path="url(#clip0)">
<path d="M -37.4217 54.3656 L 250.5783 252.3656 L 325.4218 143.6344 L 37.4217 -54.3656 L -37.4217 54.3656 Z" class="gold"/>
<path d="M 250.5783 143.6344 L -37.4217 341.6345 L 37.4217 450.3655 L 325.4218 252.3656 L 250.5783 143.6344 Z" class="gold"/>
</g>
<g clip-path="url(#clip1)">
<path d="M -37.4217 54.3656 L 250.5783 252.3656 L 325.4218 143.6344 L 37.4217 -54.3656 L -37.4217 54.3656 Z" class="white"/>
<path d="M 250.5783 143.6344 L -37.4217 341.6345 L 37.4217 450.3655 L 325.4218 252.3656 L 250.5783 143.6344 Z" class="white"/>
<path d="M 288 264 L 576 264 L 576 132 L 288 132 L 288 264 Z" class="white"/>
</g>
<g clip-path="url(#clip2)">
<path d="M -22.453 32.6193 L 265.547 230.6193 L 310.453 165.3807 L 22.453 -32.6193 L -22.453 32.6193 Z" class="green"/>
<path d="M 265.547 165.3807 L -22.453 363.3807 L 22.453 428.6193 L 310.453 230.6193 L 265.547 165.3807 Z" class="green"/>
<path d="M 288 237.6 L 576 237.6 L 576 158.4 L 288 158.4 L 288 237.6 Z" class="green"/>
</g>
</g>
</svg>
